<?xml version="1.0" encoding="utf-8" standalone="no"?>
<!DOCTYPE svg PUBLIC "-//W3C//DTD SVG 1.1//EN"
  "http://www.w3.org/Graphics/SVG/1.1/DTD/svg11.dtd">
<svg xmlns:xlink="http://www.w3.org/1999/xlink" width="646.895312pt" height="371.950875pt" viewBox="0 0 646.895312 371.950875" xmlns="http://www.w3.org/2000/svg" version="1.1">
 <metadata>
  <rdf:RDF xmlns:dc="http://purl.org/dc/elements/1.1/" xmlns:cc="http://creativecommons.org/ns#" xmlns:rdf="http://www.w3.org/1999/02/22-rdf-syntax-ns#">
   <cc:Work>
    <dc:type rdf:resource="http://purl.org/dc/dcmitype/StillImage"/>
    <dc:format>image/svg+xml</dc:format>
    <dc:creator>
     <cc:Agent>
      <dc:title>Matplotlib v3.10.8, https://matplotlib.org/</dc:title>
     </cc:Agent>
    </dc:creator>
   </cc:Work>
  </rdf:RDF>
 </metadata>
 <defs>
  <style type="text/css">*{stroke-linejoin: round; stroke-linecap: butt}</style>
 </defs>
 <g id="figure_1">
  <g id="patch_1">
   <path d="M 0 371.950875
L 646.895312 371.950875
L 646.895312 0
L 0 0
z
" style="fill: #ffffff"/>
  </g>
  <g id="axes_1">
   <g id="patch_2">
    <path d="M 200.495313 329.904
L 639.695312 329.904
L 639.695312 69.408
L 200.495313 69.408
z
" style="fill: #ffffff"/>
   </g>
   <g id="matplotlib.axis_1">
    <g id="xtick_1">
     <g id="line2d_1">
      <path d="M 200.495313 329.904
L 200.495313 69.408
" clip-path="url(#p8dd45177c7)" style="fill: none; stroke: #e8ebf2; stroke-opacity: 0.22; stroke-width: 0.8; stroke-linecap: round"/>
     </g>
     <g id="text_1">
      <!-- 0 -->
      <g style="fill: #6f768a" transform="translate(197.8 346.807125) scale(0.1 -0.1)">
       <defs>
        <path id="SegoeUI-30" d="M 3188 2259
Q 3188 1697 3086 1262
Q 2984 828 2792 529
Q 2600 231 2320 76
Q 2041 -78 1684 -78
Q 1347 -78 1083 70
Q 819 219 637 503
Q 456 788 362 1202
Q 269 1616 269 2150
Q 269 2738 367 3188
Q 466 3638 656 3942
Q 847 4247 1130 4401
Q 1413 4556 1778 4556
Q 3188 4556 3188 2259
z
M 2663 2209
Q 2663 4122 1753 4122
Q 794 4122 794 2175
Q 794 359 1734 359
Q 2663 359 2663 2209
z
" transform="scale(0.015625)"/>
       </defs>
       <use xlink:href="#SegoeUI-30"/>
      </g>
     </g>
    </g>
    <g id="xtick_2">
     <g id="line2d_2">
      <path d="M 284.152455 329.904
L 284.152455 69.408
" clip-path="url(#p8dd45177c7)" style="fill: none; stroke: #e8ebf2; stroke-opacity: 0.22; stroke-width: 0.8; stroke-linecap: round"/>
     </g>
     <g id="text_2">
      <!-- 1 -->
      <g style="fill: #6f768a" transform="translate(281.457143 346.807125) scale(0.1 -0.1)">
       <defs>
        <path id="SegoeUI-31" d="M 2263 0
L 1750 0
L 1750 3872
Q 1691 3813 1577 3736
Q 1463 3659 1320 3584
Q 1178 3509 1020 3443
Q 863 3378 713 3341
L 713 3859
Q 881 3906 1070 3986
Q 1259 4066 1442 4164
Q 1625 4263 1787 4370
Q 1950 4478 2069 4581
L 2263 4581
L 2263 0
z
" transform="scale(0.015625)"/>
       </defs>
       <use xlink:href="#SegoeUI-31"/>
      </g>
     </g>
    </g>
    <g id="xtick_3">
     <g id="line2d_3">
      <path d="M 367.809598 329.904
L 367.809598 69.408
" clip-path="url(#p8dd45177c7)" style="fill: none; stroke: #e8ebf2; stroke-opacity: 0.22; stroke-width: 0.8; stroke-linecap: round"/>
     </g>
     <g id="text_3">
      <!-- 2 -->
      <g style="fill: #6f768a" transform="translate(365.114286 346.807125) scale(0.1 -0.1)">
       <defs>
        <path id="SegoeUI-32" d="M 2413 3306
Q 2413 3513 2348 3666
Q 2284 3819 2173 3920
Q 2063 4022 1913 4072
Q 1763 4122 1588 4122
Q 1438 4122 1294 4081
Q 1150 4041 1014 3969
Q 878 3897 751 3797
Q 625 3697 516 3575
L 516 4125
Q 731 4334 998 4445
Q 1266 4556 1650 4556
Q 1925 4556 2159 4476
Q 2394 4397 2566 4244
Q 2738 4091 2836 3866
Q 2934 3641 2934 3350
Q 2934 3084 2873 2868
Q 2813 2653 2689 2462
Q 2566 2272 2378 2097
Q 2191 1922 1938 1741
Q 1622 1516 1417 1356
Q 1213 1197 1092 1058
Q 972 919 923 780
Q 875 641 875 459
L 3106 459
L 3106 0
L 341 0
L 341 222
Q 341 509 403 728
Q 466 947 609 1144
Q 753 1341 986 1537
Q 1219 1734 1556 1981
Q 1800 2156 1964 2315
Q 2128 2475 2228 2634
Q 2328 2794 2370 2958
Q 2413 3122 2413 3306
z
" transform="scale(0.015625)"/>
       </defs>
       <use xlink:href="#SegoeUI-32"/>
      </g>
     </g>
    </g>
    <g id="xtick_4">
     <g id="line2d_4">
      <path d="M 451.466741 329.904
L 451.466741 69.408
" clip-path="url(#p8dd45177c7)" style="fill: none; stroke: #e8ebf2; stroke-opacity: 0.22; stroke-width: 0.8; stroke-linecap: round"/>
     </g>
     <g id="text_4">
      <!-- 3 -->
      <g style="fill: #6f768a" transform="translate(448.771429 346.807125) scale(0.1 -0.1)">
       <defs>
        <path id="SegoeUI-33" d="M 2978 1269
Q 2978 966 2864 717
Q 2750 469 2542 292
Q 2334 116 2043 19
Q 1753 -78 1403 -78
Q 763 -78 384 166
L 384 716
Q 838 359 1422 359
Q 1656 359 1845 418
Q 2034 478 2170 590
Q 2306 703 2379 862
Q 2453 1022 2453 1222
Q 2453 2100 1203 2100
L 831 2100
L 831 2534
L 1184 2534
Q 2291 2534 2291 3359
Q 2291 4122 1447 4122
Q 972 4122 556 3803
L 556 4300
Q 984 4556 1575 4556
Q 1856 4556 2084 4478
Q 2313 4400 2475 4259
Q 2638 4119 2727 3922
Q 2816 3725 2816 3488
Q 2816 2603 1922 2350
L 1922 2338
Q 2150 2313 2344 2227
Q 2538 2141 2678 2003
Q 2819 1866 2898 1680
Q 2978 1494 2978 1269
z
" transform="scale(0.015625)"/>
       </defs>
       <use xlink:href="#SegoeUI-33"/>
      </g>
     </g>
    </g>
    <g id="xtick_5">
     <g id="line2d_5">
      <path d="M 535.123884 329.904
L 535.123884 69.408
" clip-path="url(#p8dd45177c7)" style="fill: none; stroke: #e8ebf2; stroke-opacity: 0.22; stroke-width: 0.8; stroke-linecap: round"/>
     </g>
     <g id="text_5">
      <!-- 4 -->
      <g style="fill: #6f768a" transform="translate(532.428571 346.807125) scale(0.1 -0.1)">
       <defs>
        <path id="SegoeUI-34" d="M 2656 4481
L 2656 1522
L 3231 1522
L 3231 1053
L 2656 1053
L 2656 0
L 2150 0
L 2150 1053
L 44 1053
L 44 1497
Q 338 1828 638 2204
Q 938 2581 1211 2968
Q 1484 3356 1717 3742
Q 1950 4128 2109 4481
L 2656 4481
z
M 622 1522
L 2150 1522
L 2150 3716
Q 1916 3306 1706 2984
Q 1497 2663 1308 2400
Q 1119 2138 947 1925
Q 775 1713 622 1522
z
" transform="scale(0.015625)"/>
       </defs>
       <use xlink:href="#SegoeUI-34"/>
      </g>
     </g>
    </g>
    <g id="xtick_6">
     <g id="line2d_6">
      <path d="M 618.781027 329.904
L 618.781027 69.408
" clip-path="url(#p8dd45177c7)" style="fill: none; stroke: #e8ebf2; stroke-opacity: 0.22; stroke-width: 0.8; stroke-linecap: round"/>
     </g>
     <g id="text_6">
      <!-- 5 -->
      <g style="fill: #6f768a" transform="translate(616.085714 346.807125) scale(0.1 -0.1)">
       <defs>
        <path id="SegoeUI-35" d="M 3028 1369
Q 3028 1041 2915 775
Q 2803 509 2595 318
Q 2388 128 2094 25
Q 1800 -78 1441 -78
Q 816 -78 513 109
L 513 653
Q 969 359 1447 359
Q 1691 359 1886 431
Q 2081 503 2218 631
Q 2356 759 2429 940
Q 2503 1122 2503 1338
Q 2503 1775 2209 2023
Q 1916 2272 1356 2272
Q 1266 2272 1166 2269
Q 1066 2266 966 2261
Q 866 2256 770 2250
Q 675 2244 597 2234
L 750 4481
L 2822 4481
L 2822 4019
L 1194 4019
L 1103 2703
Q 1203 2709 1315 2714
Q 1428 2719 1516 2719
Q 1872 2719 2153 2625
Q 2434 2531 2629 2357
Q 2825 2184 2926 1932
Q 3028 1681 3028 1369
z
" transform="scale(0.015625)"/>
       </defs>
       <use xlink:href="#SegoeUI-35"/>
      </g>
     </g>
    </g>
    <g id="text_7">
     <!-- Count -->
     <g style="fill: #1f2430" transform="translate(404.039687 361.990875) scale(0.12 -0.12)">
      <defs>
       <path id="SegoeUI-43" d="M 3638 188
Q 3141 -75 2400 -75
Q 1444 -75 869 540
Q 294 1156 294 2156
Q 294 3231 941 3893
Q 1588 4556 2581 4556
Q 3219 4556 3638 4372
L 3638 3813
Q 3156 4081 2575 4081
Q 1803 4081 1323 3565
Q 844 3050 844 2188
Q 844 1369 1292 883
Q 1741 397 2469 397
Q 3144 397 3638 697
L 3638 188
z
" transform="scale(0.015625)"/>
       <path id="SegoeUI-6f" d="M 1856 -75
Q 1147 -75 723 373
Q 300 822 300 1563
Q 300 2369 740 2822
Q 1181 3275 1931 3275
Q 2647 3275 3048 2834
Q 3450 2394 3450 1613
Q 3450 847 3017 386
Q 2584 -75 1856 -75
z
M 1894 2844
Q 1400 2844 1112 2508
Q 825 2172 825 1581
Q 825 1013 1115 684
Q 1406 356 1894 356
Q 2391 356 2658 678
Q 2925 1000 2925 1594
Q 2925 2194 2658 2519
Q 2391 2844 1894 2844
z
" transform="scale(0.015625)"/>
       <path id="SegoeUI-75" d="M 3106 0
L 2594 0
L 2594 506
L 2581 506
Q 2263 -75 1594 -75
Q 450 -75 450 1288
L 450 3200
L 959 3200
L 959 1369
Q 959 356 1734 356
Q 2109 356 2351 632
Q 2594 909 2594 1356
L 2594 3200
L 3106 3200
L 3106 0
z
" transform="scale(0.015625)"/>
       <path id="SegoeUI-6e" d="M 3175 0
L 2663 0
L 2663 1825
Q 2663 2844 1919 2844
Q 1534 2844 1282 2555
Q 1031 2266 1031 1825
L 1031 0
L 519 0
L 519 3200
L 1031 3200
L 1031 2669
L 1044 2669
Q 1406 3275 2094 3275
Q 2619 3275 2897 2936
Q 3175 2597 3175 1956
L 3175 0
z
" transform="scale(0.015625)"/>
       <path id="SegoeUI-74" d="M 2003 31
Q 1822 -69 1525 -69
Q 684 -69 684 869
L 684 2763
L 134 2763
L 134 3200
L 684 3200
L 684 3981
L 1197 4147
L 1197 3200
L 2003 3200
L 2003 2763
L 1197 2763
L 1197 959
Q 1197 638 1306 500
Q 1416 363 1669 363
Q 1863 363 2003 469
L 2003 31
z
" transform="scale(0.015625)"/>
      </defs>
      <use xlink:href="#SegoeUI-43"/>
      <use xlink:href="#SegoeUI-6f" transform="translate(61.914062 0)"/>
      <use xlink:href="#SegoeUI-75" transform="translate(120.507812 0)"/>
      <use xlink:href="#SegoeUI-6e" transform="translate(177.099609 0)"/>
      <use xlink:href="#SegoeUI-74" transform="translate(233.691406 0)"/>
     </g>
    </g>
   </g>
   <g id="matplotlib.axis_2">
    <g id="ytick_1">
     <g id="line2d_7">
      <path d="M 200.495313 88.787767
L 639.695312 88.787767
" clip-path="url(#p8dd45177c7)" style="fill: none; stroke: #e8ebf2; stroke-opacity: 0.18; stroke-width: 0.8; stroke-linecap: round"/>
     </g>
     <g id="text_8">
      <!-- 00 Data Foundation -->
      <g style="fill: #6f768a" transform="translate(103.792188 92.48933) scale(0.1 -0.1)">
       <defs>
        <path id="SegoeUI-20" transform="scale(0.015625)"/>
        <path id="SegoeUI-44" d="M 588 0
L 588 4481
L 1825 4481
Q 4194 4481 4194 2297
Q 4194 1259 3536 629
Q 2878 0 1775 0
L 588 0
z
M 1113 4006
L 1113 475
L 1781 475
Q 2663 475 3153 947
Q 3644 1419 3644 2284
Q 3644 4006 1813 4006
L 1113 4006
z
" transform="scale(0.015625)"/>
        <path id="SegoeUI-61" d="M 2809 0
L 2297 0
L 2297 500
L 2284 500
Q 1950 -75 1300 -75
Q 822 -75 551 178
Q 281 431 281 850
Q 281 1747 1338 1894
L 2297 2028
Q 2297 2844 1638 2844
Q 1059 2844 594 2450
L 594 2975
Q 1066 3275 1681 3275
Q 2809 3275 2809 2081
L 2809 0
z
M 2297 1619
L 1525 1513
Q 1169 1463 987 1336
Q 806 1209 806 888
Q 806 653 973 504
Q 1141 356 1419 356
Q 1800 356 2048 623
Q 2297 891 2297 1300
L 2297 1619
z
" transform="scale(0.015625)"/>
        <path id="SegoeUI-46" d="M 2863 4006
L 1113 4006
L 1113 2456
L 2731 2456
L 2731 1984
L 1113 1984
L 1113 0
L 588 0
L 588 4481
L 2863 4481
L 2863 4006
z
" transform="scale(0.015625)"/>
        <path id="SegoeUI-64" d="M 3250 0
L 2738 0
L 2738 544
L 2725 544
Q 2369 -75 1625 -75
Q 1022 -75 661 354
Q 300 784 300 1525
Q 300 2319 700 2797
Q 1100 3275 1766 3275
Q 2425 3275 2725 2756
L 2738 2756
L 2738 4738
L 3250 4738
L 3250 0
z
M 2738 1447
L 2738 1919
Q 2738 2306 2481 2575
Q 2225 2844 1831 2844
Q 1363 2844 1094 2500
Q 825 2156 825 1550
Q 825 997 1083 676
Q 1341 356 1775 356
Q 2203 356 2470 665
Q 2738 975 2738 1447
z
" transform="scale(0.015625)"/>
        <path id="SegoeUI-69" d="M 781 4013
Q 644 4013 547 4106
Q 450 4200 450 4344
Q 450 4488 547 4583
Q 644 4678 781 4678
Q 922 4678 1020 4583
Q 1119 4488 1119 4344
Q 1119 4206 1020 4109
Q 922 4013 781 4013
z
M 1031 0
L 519 0
L 519 3200
L 1031 3200
L 1031 0
z
" transform="scale(0.015625)"/>
       </defs>
       <use xlink:href="#SegoeUI-30"/>
       <use xlink:href="#SegoeUI-30" transform="translate(53.90625 0)"/>
       <use xlink:href="#SegoeUI-20" transform="translate(107.8125 0)"/>
       <use xlink:href="#SegoeUI-44" transform="translate(135.205078 0)"/>
       <use xlink:href="#SegoeUI-61" transform="translate(205.322266 0)"/>
       <use xlink:href="#SegoeUI-74" transform="translate(256.201172 0)"/>
       <use xlink:href="#SegoeUI-61" transform="translate(290.087891 0)"/>
       <use xlink:href="#SegoeUI-20" transform="translate(340.966797 0)"/>
       <use xlink:href="#SegoeUI-46" transform="translate(368.359375 0)"/>
       <use xlink:href="#SegoeUI-6f" transform="translate(417.1875 0)"/>
       <use xlink:href="#SegoeUI-75" transform="translate(475.78125 0)"/>
       <use xlink:href="#SegoeUI-6e" transform="translate(532.373047 0)"/>
       <use xlink:href="#SegoeUI-64" transform="translate(588.964844 0)"/>
       <use xlink:href="#SegoeUI-61" transform="translate(647.851562 0)"/>
       <use xlink:href="#SegoeUI-74" transform="translate(698.730469 0)"/>
       <use xlink:href="#SegoeUI-69" transform="translate(732.617188 0)"/>
       <use xlink:href="#SegoeUI-6f" transform="translate(756.835938 0)"/>
       <use xlink:href="#SegoeUI-6e" transform="translate(815.429688 0)"/>
      </g>
     </g>
    </g>
    <g id="ytick_2">
     <g id="line2d_8">
      <path d="M 200.495313 110.961414
L 639.695312 110.961414
" clip-path="url(#p8dd45177c7)" style="fill: none; stroke: #e8ebf2; stroke-opacity: 0.18; stroke-width: 0.8; stroke-linecap: round"/>
     </g>
     <g id="text_9">
      <!-- 01 Returns, Risk, and Regimes -->
      <g style="fill: #6f768a" transform="translate(59.59375 114.662976) scale(0.1 -0.1)">
       <defs>
        <path id="SegoeUI-52" d="M 3800 0
L 3175 0
L 2425 1256
Q 2322 1431 2225 1554
Q 2128 1678 2026 1756
Q 1925 1834 1808 1870
Q 1691 1906 1544 1906
L 1113 1906
L 1113 0
L 588 0
L 588 4481
L 1925 4481
Q 2219 4481 2467 4407
Q 2716 4334 2898 4184
Q 3081 4034 3184 3811
Q 3288 3588 3288 3288
Q 3288 3053 3217 2858
Q 3147 2663 3017 2509
Q 2888 2356 2705 2248
Q 2522 2141 2294 2081
L 2294 2069
Q 2406 2019 2489 1955
Q 2572 1891 2647 1803
Q 2722 1716 2795 1605
Q 2869 1494 2959 1347
L 3800 0
z
M 1113 4006
L 1113 2381
L 1825 2381
Q 2022 2381 2189 2440
Q 2356 2500 2478 2611
Q 2600 2722 2669 2883
Q 2738 3044 2738 3244
Q 2738 3603 2505 3804
Q 2272 4006 1831 4006
L 1113 4006
z
" transform="scale(0.015625)"/>
        <path id="SegoeUI-65" d="M 3091 1472
L 831 1472
Q 844 938 1119 647
Q 1394 356 1875 356
Q 2416 356 2869 713
L 2869 231
Q 2447 -75 1753 -75
Q 1075 -75 687 361
Q 300 797 300 1588
Q 300 2334 723 2804
Q 1147 3275 1775 3275
Q 2403 3275 2747 2869
Q 3091 2463 3091 1741
L 3091 1472
z
M 2566 1906
Q 2563 2350 2352 2597
Q 2141 2844 1766 2844
Q 1403 2844 1150 2584
Q 897 2325 838 1906
L 2566 1906
z
" transform="scale(0.015625)"/>
        <path id="SegoeUI-72" d="M 2188 2681
Q 2053 2784 1800 2784
Q 1472 2784 1251 2475
Q 1031 2166 1031 1631
L 1031 0
L 519 0
L 519 3200
L 1031 3200
L 1031 2541
L 1044 2541
Q 1153 2878 1378 3067
Q 1603 3256 1881 3256
Q 2081 3256 2188 3213
L 2188 2681
z
" transform="scale(0.015625)"/>
        <path id="SegoeUI-73" d="M 325 116
L 325 666
Q 744 356 1247 356
Q 1922 356 1922 806
Q 1922 934 1864 1023
Q 1806 1113 1707 1181
Q 1609 1250 1476 1304
Q 1344 1359 1191 1419
Q 978 1503 817 1589
Q 656 1675 548 1783
Q 441 1891 386 2028
Q 331 2166 331 2350
Q 331 2575 434 2748
Q 538 2922 709 3039
Q 881 3156 1101 3215
Q 1322 3275 1556 3275
Q 1972 3275 2300 3131
L 2300 2613
Q 1947 2844 1488 2844
Q 1344 2844 1228 2811
Q 1113 2778 1030 2718
Q 947 2659 901 2576
Q 856 2494 856 2394
Q 856 2269 901 2184
Q 947 2100 1034 2034
Q 1122 1969 1247 1916
Q 1372 1863 1531 1800
Q 1744 1719 1912 1633
Q 2081 1547 2200 1439
Q 2319 1331 2383 1190
Q 2447 1050 2447 856
Q 2447 619 2342 444
Q 2238 269 2063 153
Q 1888 38 1659 -18
Q 1431 -75 1181 -75
Q 688 -75 325 116
z
" transform="scale(0.015625)"/>
        <path id="SegoeUI-2c" d="M 988 713
L 488 -825
L 122 -825
L 488 713
L 988 713
z
" transform="scale(0.015625)"/>
        <path id="SegoeUI-6b" d="M 3175 0
L 2456 0
L 1044 1538
L 1031 1538
L 1031 0
L 519 0
L 519 4738
L 1031 4738
L 1031 1734
L 1044 1734
L 2388 3200
L 3059 3200
L 1575 1656
L 3175 0
z
" transform="scale(0.015625)"/>
        <path id="SegoeUI-67" d="M 3250 256
Q 3250 -1506 1563 -1506
Q 969 -1506 525 -1281
L 525 -769
Q 1066 -1069 1556 -1069
Q 2738 -1069 2738 188
L 2738 538
L 2725 538
Q 2359 -75 1625 -75
Q 1028 -75 664 351
Q 300 778 300 1497
Q 300 2313 692 2794
Q 1084 3275 1766 3275
Q 2413 3275 2725 2756
L 2738 2756
L 2738 3200
L 3250 3200
L 3250 256
z
M 2738 1447
L 2738 1919
Q 2738 2300 2480 2572
Q 2222 2844 1838 2844
Q 1363 2844 1094 2498
Q 825 2153 825 1531
Q 825 997 1083 676
Q 1341 356 1766 356
Q 2197 356 2467 662
Q 2738 969 2738 1447
z
" transform="scale(0.015625)"/>
        <path id="SegoeUI-6d" d="M 5063 0
L 4550 0
L 4550 1838
Q 4550 2369 4386 2606
Q 4222 2844 3834 2844
Q 3506 2844 3276 2544
Q 3047 2244 3047 1825
L 3047 0
L 2534 0
L 2534 1900
Q 2534 2844 1806 2844
Q 1469 2844 1250 2561
Q 1031 2278 1031 1825
L 1031 0
L 519 0
L 519 3200
L 1031 3200
L 1031 2694
L 1044 2694
Q 1384 3275 2038 3275
Q 2366 3275 2609 3092
Q 2853 2909 2944 2613
Q 3300 3275 4006 3275
Q 5063 3275 5063 1972
L 5063 0
z
" transform="scale(0.015625)"/>
       </defs>
       <use xlink:href="#SegoeUI-30"/>
       <use xlink:href="#SegoeUI-31" transform="translate(53.90625 0)"/>
       <use xlink:href="#SegoeUI-20" transform="translate(107.8125 0)"/>
       <use xlink:href="#SegoeUI-52" transform="translate(135.205078 0)"/>
       <use xlink:href="#SegoeUI-65" transform="translate(192.269531 0)"/>
       <use xlink:href="#SegoeUI-74" transform="translate(244.564453 0)"/>
       <use xlink:href="#SegoeUI-75" transform="translate(278.451172 0)"/>
       <use xlink:href="#SegoeUI-72" transform="translate(335.042969 0)"/>
       <use xlink:href="#SegoeUI-6e" transform="translate(369.558594 0)"/>
       <use xlink:href="#SegoeUI-73" transform="translate(426.150391 0)"/>
       <use xlink:href="#SegoeUI-2c" transform="translate(468.582031 0)"/>
       <use xlink:href="#SegoeUI-20" transform="translate(490.261719 0)"/>
       <use xlink:href="#SegoeUI-52" transform="translate(517.654297 0)"/>
       <use xlink:href="#SegoeUI-69" transform="translate(577.46875 0)"/>
       <use xlink:href="#SegoeUI-73" transform="translate(601.6875 0)"/>
       <use xlink:href="#SegoeUI-6b" transform="translate(644.119141 0)"/>
       <use xlink:href="#SegoeUI-2c" transform="translate(697.826172 0)"/>
       <use xlink:href="#SegoeUI-20" transform="translate(719.505859 0)"/>
       <use xlink:href="#SegoeUI-61" transform="translate(746.898438 0)"/>
       <use xlink:href="#SegoeUI-6e" transform="translate(797.777344 0)"/>
       <use xlink:href="#SegoeUI-64" transform="translate(854.369141 0)"/>
       <use xlink:href="#SegoeUI-20" transform="translate(913.255859 0)"/>
       <use xlink:href="#SegoeUI-52" transform="translate(940.648438 0)"/>
       <use xlink:href="#SegoeUI-65" transform="translate(997.712891 0)"/>
       <use xlink:href="#SegoeUI-67" transform="translate(1050.007812 0)"/>
       <use xlink:href="#SegoeUI-69" transform="translate(1108.894531 0)"/>
       <use xlink:href="#SegoeUI-6d" transform="translate(1133.113281 0)"/>
       <use xlink:href="#SegoeUI-65" transform="translate(1219.246094 0)"/>
       <use xlink:href="#SegoeUI-73" transform="translate(1271.541016 0)"/>
      </g>
     </g>
    </g>
    <g id="ytick_3">
     <g id="line2d_9">
      <path d="M 200.495313 133.13506
L 639.695312 133.13506
" clip-path="url(#p8dd45177c7)" style="fill: none; stroke: #e8ebf2; stroke-opacity: 0.18; stroke-width: 0.8; stroke-linecap: round"/>
     </g>
     <g id="text_10">
      <!-- 02 Macro and Cross-Asset Exposure -->
      <g style="fill: #6f768a" transform="translate(33.44375 136.836623) scale(0.1 -0.1)">
       <defs>
        <path id="SegoeUI-4d" d="M 5156 0
L 4634 0
L 4634 3006
Q 4634 3363 4678 3878
L 4666 3878
Q 4591 3575 4531 3444
L 3000 0
L 2744 0
L 1216 3419
Q 1150 3569 1081 3878
L 1069 3878
Q 1094 3609 1094 3000
L 1094 0
L 588 0
L 588 4481
L 1281 4481
L 2656 1356
Q 2816 997 2863 819
L 2881 819
Q 3016 1188 3097 1369
L 4500 4481
L 5156 4481
L 5156 0
z
" transform="scale(0.015625)"/>
        <path id="SegoeUI-63" d="M 2700 147
Q 2331 -75 1825 -75
Q 1141 -75 720 370
Q 300 816 300 1525
Q 300 2316 753 2795
Q 1206 3275 1963 3275
Q 2384 3275 2706 3119
L 2706 2594
Q 2350 2844 1944 2844
Q 1453 2844 1139 2492
Q 825 2141 825 1569
Q 825 1006 1120 681
Q 1416 356 1913 356
Q 2331 356 2700 634
L 2700 147
z
" transform="scale(0.015625)"/>
        <path id="SegoeUI-2d" d="M 2156 1581
L 450 1581
L 450 1984
L 2156 1984
L 2156 1581
z
" transform="scale(0.015625)"/>
        <path id="SegoeUI-41" d="M 4056 0
L 3475 0
L 3000 1256
L 1100 1256
L 653 0
L 69 0
L 1788 4481
L 2331 4481
L 4056 0
z
M 2828 1728
L 2125 3638
Q 2091 3731 2056 3938
L 2044 3938
Q 2013 3747 1972 3638
L 1275 1728
L 2828 1728
z
" transform="scale(0.015625)"/>
        <path id="SegoeUI-45" d="M 2963 0
L 588 0
L 588 4481
L 2863 4481
L 2863 4006
L 1113 4006
L 1113 2516
L 2731 2516
L 2731 2044
L 1113 2044
L 1113 475
L 2963 475
L 2963 0
z
" transform="scale(0.015625)"/>
        <path id="SegoeUI-78" d="M 2856 3200
L 1781 1581
L 2838 0
L 2241 0
L 1613 1038
Q 1553 1134 1472 1281
L 1459 1281
Q 1444 1253 1313 1038
L 672 0
L 81 0
L 1172 1569
L 128 3200
L 725 3200
L 1344 2106
Q 1413 1984 1478 1856
L 1491 1856
L 2291 3200
L 2856 3200
z
" transform="scale(0.015625)"/>
        <path id="SegoeUI-70" d="M 1044 463
L 1031 463
L 1031 -1472
L 519 -1472
L 519 3200
L 1031 3200
L 1031 2638
L 1044 2638
Q 1422 3275 2150 3275
Q 2769 3275 3116 2845
Q 3463 2416 3463 1694
Q 3463 891 3072 408
Q 2681 -75 2003 -75
Q 1381 -75 1044 463
z
M 1031 1753
L 1031 1306
Q 1031 909 1289 632
Q 1547 356 1944 356
Q 2409 356 2673 712
Q 2938 1069 2938 1703
Q 2938 2238 2691 2541
Q 2444 2844 2022 2844
Q 1575 2844 1303 2533
Q 1031 2222 1031 1753
z
" transform="scale(0.015625)"/>
       </defs>
       <use xlink:href="#SegoeUI-30"/>
       <use xlink:href="#SegoeUI-32" transform="translate(53.90625 0)"/>
       <use xlink:href="#SegoeUI-20" transform="translate(107.8125 0)"/>
       <use xlink:href="#SegoeUI-4d" transform="translate(135.205078 0)"/>
       <use xlink:href="#SegoeUI-61" transform="translate(225 0)"/>
       <use xlink:href="#SegoeUI-63" transform="translate(275.878906 0)"/>
       <use xlink:href="#SegoeUI-72" transform="translate(322.070312 0)"/>
       <use xlink:href="#SegoeUI-6f" transform="translate(355.460938 0)"/>
       <use xlink:href="#SegoeUI-20" transform="translate(414.054688 0)"/>
       <use xlink:href="#SegoeUI-61" transform="translate(441.447266 0)"/>
       <use xlink:href="#SegoeUI-6e" transform="translate(492.326172 0)"/>
       <use xlink:href="#SegoeUI-64" transform="translate(548.917969 0)"/>
       <use xlink:href="#SegoeUI-20" transform="translate(607.804688 0)"/>
       <use xlink:href="#SegoeUI-43" transform="translate(635.197266 0)"/>
       <use xlink:href="#SegoeUI-72" transform="translate(697.111328 0)"/>
       <use xlink:href="#SegoeUI-6f" transform="translate(730.501953 0)"/>
       <use xlink:href="#SegoeUI-73" transform="translate(789.095703 0)"/>
       <use xlink:href="#SegoeUI-73" transform="translate(831.527344 0)"/>
       <use xlink:href="#SegoeUI-2d" transform="translate(873.958984 0)"/>
       <use xlink:href="#SegoeUI-41" transform="translate(913.949219 0)"/>
       <use xlink:href="#SegoeUI-73" transform="translate(978.451172 0)"/>
       <use xlink:href="#SegoeUI-73" transform="translate(1020.882812 0)"/>
       <use xlink:href="#SegoeUI-65" transform="translate(1063.314453 0)"/>
       <use xlink:href="#SegoeUI-74" transform="translate(1115.609375 0)"/>
       <use xlink:href="#SegoeUI-20" transform="translate(1149.496094 0)"/>
       <use xlink:href="#SegoeUI-45" transform="translate(1176.888672 0)"/>
       <use xlink:href="#SegoeUI-78" transform="translate(1227.474609 0)"/>
       <use xlink:href="#SegoeUI-70" transform="translate(1273.373047 0)"/>
       <use xlink:href="#SegoeUI-6f" transform="translate(1332.162109 0)"/>
       <use xlink:href="#SegoeUI-73" transform="translate(1390.755859 0)"/>
       <use xlink:href="#SegoeUI-75" transform="translate(1433.1875 0)"/>
       <use xlink:href="#SegoeUI-72" transform="translate(1489.779297 0)"/>
       <use xlink:href="#SegoeUI-65" transform="translate(1523.169922 0)"/>
      </g>
     </g>
    </g>
    <g id="ytick_4">
     <g id="line2d_10">
      <path d="M 200.495313 155.308707
L 639.695312 155.308707
" clip-path="url(#p8dd45177c7)" style="fill: none; stroke: #e8ebf2; stroke-opacity: 0.18; stroke-width: 0.8; stroke-linecap: round"/>
     </g>
     <g id="text_11">
      <!-- 03 Derivatives, Leverage, and Liquidations -->
      <g style="fill: #6f768a" transform="translate(7.2 159.010269) scale(0.1 -0.1)">
       <defs>
        <path id="SegoeUI-76" d="M 3034 3200
L 1759 0
L 1256 0
L 44 3200
L 606 3200
L 1419 875
Q 1509 619 1531 428
L 1544 428
Q 1575 669 1644 863
L 2494 3200
L 3034 3200
z
" transform="scale(0.015625)"/>
        <path id="SegoeUI-4c" d="M 2913 0
L 588 0
L 588 4481
L 1113 4481
L 1113 475
L 2913 475
L 2913 0
z
" transform="scale(0.015625)"/>
        <path id="SegoeUI-71" d="M 3250 -1472
L 2738 -1472
L 2738 550
L 2725 550
Q 2391 -75 1631 -75
Q 1028 -75 664 354
Q 300 784 300 1525
Q 300 2322 700 2798
Q 1100 3275 1775 3275
Q 2431 3275 2725 2756
L 2738 2756
L 2738 3200
L 3250 3200
L 3250 -1472
z
M 2738 1441
L 2738 1906
Q 2738 2300 2480 2572
Q 2222 2844 1825 2844
Q 1363 2844 1094 2501
Q 825 2159 825 1538
Q 825 984 1084 670
Q 1344 356 1753 356
Q 2203 356 2470 664
Q 2738 972 2738 1441
z
" transform="scale(0.015625)"/>
       </defs>
       <use xlink:href="#SegoeUI-30"/>
       <use xlink:href="#SegoeUI-33" transform="translate(53.90625 0)"/>
       <use xlink:href="#SegoeUI-20" transform="translate(107.8125 0)"/>
       <use xlink:href="#SegoeUI-44" transform="translate(135.205078 0)"/>
       <use xlink:href="#SegoeUI-65" transform="translate(205.322266 0)"/>
       <use xlink:href="#SegoeUI-72" transform="translate(257.617188 0)"/>
       <use xlink:href="#SegoeUI-69" transform="translate(292.382812 0)"/>
       <use xlink:href="#SegoeUI-76" transform="translate(316.601562 0)"/>
       <use xlink:href="#SegoeUI-61" transform="translate(362.751953 0)"/>
       <use xlink:href="#SegoeUI-74" transform="translate(413.630859 0)"/>
       <use xlink:href="#SegoeUI-69" transform="translate(447.517578 0)"/>
       <use xlink:href="#SegoeUI-76" transform="translate(471.736328 0)"/>
       <use xlink:href="#SegoeUI-65" transform="translate(519.011719 0)"/>
       <use xlink:href="#SegoeUI-73" transform="translate(571.306641 0)"/>
       <use xlink:href="#SegoeUI-2c" transform="translate(613.738281 0)"/>
       <use xlink:href="#SegoeUI-20" transform="translate(635.417969 0)"/>
       <use xlink:href="#SegoeUI-4c" transform="translate(662.810547 0)"/>
       <use xlink:href="#SegoeUI-65" transform="translate(709.880859 0)"/>
       <use xlink:href="#SegoeUI-76" transform="translate(762.175781 0)"/>
       <use xlink:href="#SegoeUI-65" transform="translate(809.451172 0)"/>
       <use xlink:href="#SegoeUI-72" transform="translate(861.746094 0)"/>
       <use xlink:href="#SegoeUI-61" transform="translate(896.511719 0)"/>
       <use xlink:href="#SegoeUI-67" transform="translate(947.390625 0)"/>
       <use xlink:href="#SegoeUI-65" transform="translate(1006.277344 0)"/>
       <use xlink:href="#SegoeUI-2c" transform="translate(1058.572266 0)"/>
       <use xlink:href="#SegoeUI-20" transform="translate(1080.251953 0)"/>
       <use xlink:href="#SegoeUI-61" transform="translate(1107.644531 0)"/>
       <use xlink:href="#SegoeUI-6e" transform="translate(1158.523438 0)"/>
       <use xlink:href="#SegoeUI-64" transform="translate(1215.115234 0)"/>
       <use xlink:href="#SegoeUI-20" transform="translate(1274.001953 0)"/>
       <use xlink:href="#SegoeUI-4c" transform="translate(1301.394531 0)"/>
       <use xlink:href="#SegoeUI-69" transform="translate(1348.464844 0)"/>
       <use xlink:href="#SegoeUI-71" transform="translate(1372.683594 0)"/>
       <use xlink:href="#SegoeUI-75" transform="translate(1431.570312 0)"/>
       <use xlink:href="#SegoeUI-69" transform="translate(1488.162109 0)"/>
       <use xlink:href="#SegoeUI-64" transform="translate(1512.380859 0)"/>
       <use xlink:href="#SegoeUI-61" transform="translate(1571.267578 0)"/>
       <use xlink:href="#SegoeUI-74" transform="translate(1622.146484 0)"/>
       <use xlink:href="#SegoeUI-69" transform="translate(1656.033203 0)"/>
       <use xlink:href="#SegoeUI-6f" transform="translate(1680.251953 0)"/>
       <use xlink:href="#SegoeUI-6e" transform="translate(1738.845703 0)"/>
       <use xlink:href="#SegoeUI-73" transform="translate(1795.4375 0)"/>
      </g>
     </g>
    </g>
    <g id="ytick_5">
     <g id="line2d_11">
      <path d="M 200.495313 177.482353
L 639.695312 177.482353
" clip-path="url(#p8dd45177c7)" style="fill: none; stroke: #e8ebf2; stroke-opacity: 0.18; stroke-width: 0.8; stroke-linecap: round"/>
     </g>
     <g id="text_12">
      <!-- 04 ETF and Institutional Plumbing -->
      <g style="fill: #6f768a" transform="translate(43.007812 181.183916) scale(0.1 -0.1)">
       <defs>
        <path id="SegoeUI-54" d="M 3238 4006
L 1944 4006
L 1944 0
L 1419 0
L 1419 4006
L 128 4006
L 128 4481
L 3238 4481
L 3238 4006
z
" transform="scale(0.015625)"/>
        <path id="SegoeUI-49" d="M 1113 0
L 588 0
L 588 4481
L 1113 4481
L 1113 0
z
" transform="scale(0.015625)"/>
        <path id="SegoeUI-6c" d="M 1031 0
L 519 0
L 519 4738
L 1031 4738
L 1031 0
z
" transform="scale(0.015625)"/>
        <path id="SegoeUI-50" d="M 1113 1694
L 1113 0
L 588 0
L 588 4481
L 1819 4481
Q 2538 4481 2933 4131
Q 3328 3781 3328 3144
Q 3328 2506 2889 2100
Q 2450 1694 1703 1694
L 1113 1694
z
M 1113 4006
L 1113 2169
L 1663 2169
Q 2206 2169 2492 2417
Q 2778 2666 2778 3119
Q 2778 4006 1728 4006
L 1113 4006
z
" transform="scale(0.015625)"/>
        <path id="SegoeUI-62" d="M 1044 463
L 1031 463
L 1031 0
L 519 0
L 519 4738
L 1031 4738
L 1031 2638
L 1044 2638
Q 1422 3275 2150 3275
Q 2766 3275 3114 2845
Q 3463 2416 3463 1694
Q 3463 891 3072 408
Q 2681 -75 2003 -75
Q 1369 -75 1044 463
z
M 1031 1753
L 1031 1306
Q 1031 909 1289 632
Q 1547 356 1944 356
Q 2409 356 2673 712
Q 2938 1069 2938 1703
Q 2938 2238 2691 2541
Q 2444 2844 2022 2844
Q 1575 2844 1303 2533
Q 1031 2222 1031 1753
z
" transform="scale(0.015625)"/>
       </defs>
       <use xlink:href="#SegoeUI-30"/>
       <use xlink:href="#SegoeUI-34" transform="translate(53.90625 0)"/>
       <use xlink:href="#SegoeUI-20" transform="translate(107.8125 0)"/>
       <use xlink:href="#SegoeUI-45" transform="translate(135.205078 0)"/>
       <use xlink:href="#SegoeUI-54" transform="translate(186.041016 0)"/>
       <use xlink:href="#SegoeUI-46" transform="translate(238.433594 0)"/>
       <use xlink:href="#SegoeUI-20" transform="translate(287.261719 0)"/>
       <use xlink:href="#SegoeUI-61" transform="translate(314.654297 0)"/>
       <use xlink:href="#SegoeUI-6e" transform="translate(365.533203 0)"/>
       <use xlink:href="#SegoeUI-64" transform="translate(422.125 0)"/>
       <use xlink:href="#SegoeUI-20" transform="translate(481.011719 0)"/>
       <use xlink:href="#SegoeUI-49" transform="translate(508.404297 0)"/>
       <use xlink:href="#SegoeUI-6e" transform="translate(535.015625 0)"/>
       <use xlink:href="#SegoeUI-73" transform="translate(591.607422 0)"/>
       <use xlink:href="#SegoeUI-74" transform="translate(634.039062 0)"/>
       <use xlink:href="#SegoeUI-69" transform="translate(667.925781 0)"/>
       <use xlink:href="#SegoeUI-74" transform="translate(692.144531 0)"/>
       <use xlink:href="#SegoeUI-75" transform="translate(726.03125 0)"/>
       <use xlink:href="#SegoeUI-74" transform="translate(782.623047 0)"/>
       <use xlink:href="#SegoeUI-69" transform="translate(816.509766 0)"/>
       <use xlink:href="#SegoeUI-6f" transform="translate(840.728516 0)"/>
       <use xlink:href="#SegoeUI-6e" transform="translate(899.322266 0)"/>
       <use xlink:href="#SegoeUI-61" transform="translate(955.914062 0)"/>
       <use xlink:href="#SegoeUI-6c" transform="translate(1006.792969 0)"/>
       <use xlink:href="#SegoeUI-20" transform="translate(1031.011719 0)"/>
       <use xlink:href="#SegoeUI-50" transform="translate(1058.404297 0)"/>
       <use xlink:href="#SegoeUI-6c" transform="translate(1114.410156 0)"/>
       <use xlink:href="#SegoeUI-75" transform="translate(1138.628906 0)"/>
       <use xlink:href="#SegoeUI-6d" transform="translate(1195.220703 0)"/>
       <use xlink:href="#SegoeUI-62" transform="translate(1281.353516 0)"/>
       <use xlink:href="#SegoeUI-69" transform="translate(1340.142578 0)"/>
       <use xlink:href="#SegoeUI-6e" transform="translate(1364.361328 0)"/>
       <use xlink:href="#SegoeUI-67" transform="translate(1420.953125 0)"/>
      </g>
     </g>
    </g>
    <g id="ytick_6">
     <g id="line2d_12">
      <path d="M 200.495313 199.656
L 639.695312 199.656
" clip-path="url(#p8dd45177c7)" style="fill: none; stroke: #e8ebf2; stroke-opacity: 0.18; stroke-width: 0.8; stroke-linecap: round"/>
     </g>
     <g id="text_13">
      <!-- 05 Stablecoin and DeFi Liquidity State -->
      <g style="fill: #6f768a" transform="translate(25.134375 203.357562) scale(0.1 -0.1)">
       <defs>
        <path id="SegoeUI-53" d="M 378 181
L 378 800
Q 484 706 632 631
Q 781 556 945 504
Q 1109 453 1275 425
Q 1441 397 1581 397
Q 2066 397 2305 576
Q 2544 756 2544 1094
Q 2544 1275 2464 1409
Q 2384 1544 2243 1655
Q 2103 1766 1911 1867
Q 1719 1969 1497 2081
Q 1263 2200 1059 2322
Q 856 2444 706 2591
Q 556 2738 470 2923
Q 384 3109 384 3359
Q 384 3666 518 3892
Q 653 4119 872 4266
Q 1091 4413 1370 4484
Q 1650 4556 1941 4556
Q 2603 4556 2906 4397
L 2906 3806
Q 2509 4081 1888 4081
Q 1716 4081 1544 4045
Q 1372 4009 1237 3928
Q 1103 3847 1018 3719
Q 934 3591 934 3406
Q 934 3234 998 3109
Q 1063 2984 1188 2881
Q 1313 2778 1492 2681
Q 1672 2584 1906 2469
Q 2147 2350 2362 2219
Q 2578 2088 2740 1928
Q 2903 1769 2998 1575
Q 3094 1381 3094 1131
Q 3094 800 2964 570
Q 2834 341 2614 197
Q 2394 53 2106 -11
Q 1819 -75 1500 -75
Q 1394 -75 1237 -58
Q 1081 -41 918 -8
Q 756 25 611 73
Q 466 122 378 181
z
" transform="scale(0.015625)"/>
        <path id="SegoeUI-79" d="M 3066 3200
L 1594 -513
Q 1200 -1506 488 -1506
Q 288 -1506 153 -1466
L 153 -1006
Q 319 -1063 456 -1063
Q 844 -1063 1038 -600
L 1294 6
L 44 3200
L 613 3200
L 1478 738
Q 1494 691 1544 494
L 1563 494
Q 1578 569 1625 731
L 2534 3200
L 3066 3200
z
" transform="scale(0.015625)"/>
       </defs>
       <use xlink:href="#SegoeUI-30"/>
       <use xlink:href="#SegoeUI-35" transform="translate(53.90625 0)"/>
       <use xlink:href="#SegoeUI-20" transform="translate(107.8125 0)"/>
       <use xlink:href="#SegoeUI-53" transform="translate(135.205078 0)"/>
       <use xlink:href="#SegoeUI-74" transform="translate(185.080078 0)"/>
       <use xlink:href="#SegoeUI-61" transform="translate(218.966797 0)"/>
       <use xlink:href="#SegoeUI-62" transform="translate(269.845703 0)"/>
       <use xlink:href="#SegoeUI-6c" transform="translate(328.634766 0)"/>
       <use xlink:href="#SegoeUI-65" transform="translate(352.853516 0)"/>
       <use xlink:href="#SegoeUI-63" transform="translate(405.148438 0)"/>
       <use xlink:href="#SegoeUI-6f" transform="translate(451.339844 0)"/>
       <use xlink:href="#SegoeUI-69" transform="translate(509.933594 0)"/>
       <use xlink:href="#SegoeUI-6e" transform="translate(534.152344 0)"/>
       <use xlink:href="#SegoeUI-20" transform="translate(590.744141 0)"/>
       <use xlink:href="#SegoeUI-61" transform="translate(618.136719 0)"/>
       <use xlink:href="#SegoeUI-6e" transform="translate(669.015625 0)"/>
       <use xlink:href="#SegoeUI-64" transform="translate(725.607422 0)"/>
       <use xlink:href="#SegoeUI-20" transform="translate(784.494141 0)"/>
       <use xlink:href="#SegoeUI-44" transform="translate(811.886719 0)"/>
       <use xlink:href="#SegoeUI-65" transform="translate(882.003906 0)"/>
       <use xlink:href="#SegoeUI-46" transform="translate(934.298828 0)"/>
       <use xlink:href="#SegoeUI-69" transform="translate(983.126953 0)"/>
       <use xlink:href="#SegoeUI-20" transform="translate(1007.345703 0)"/>
       <use xlink:href="#SegoeUI-4c" transform="translate(1034.738281 0)"/>
       <use xlink:href="#SegoeUI-69" transform="translate(1081.808594 0)"/>
       <use xlink:href="#SegoeUI-71" transform="translate(1106.027344 0)"/>
       <use xlink:href="#SegoeUI-75" transform="translate(1164.914062 0)"/>
       <use xlink:href="#SegoeUI-69" transform="translate(1221.505859 0)"/>
       <use xlink:href="#SegoeUI-64" transform="translate(1245.724609 0)"/>
       <use xlink:href="#SegoeUI-69" transform="translate(1304.611328 0)"/>
       <use xlink:href="#SegoeUI-74" transform="translate(1328.830078 0)"/>
       <use xlink:href="#SegoeUI-79" transform="translate(1362.716797 0)"/>
       <use xlink:href="#SegoeUI-20" transform="translate(1411.105469 0)"/>
       <use xlink:href="#SegoeUI-53" transform="translate(1438.498047 0)"/>
       <use xlink:href="#SegoeUI-74" transform="translate(1488.373047 0)"/>
       <use xlink:href="#SegoeUI-61" transform="translate(1522.259766 0)"/>
       <use xlink:href="#SegoeUI-74" transform="translate(1573.138672 0)"/>
       <use xlink:href="#SegoeUI-65" transform="translate(1606.275391 0)"/>
      </g>
     </g>
    </g>
    <g id="ytick_7">
     <g id="line2d_13">
      <path d="M 200.495313 221.829647
L 639.695312 221.829647
" clip-path="url(#p8dd45177c7)" style="fill: none; stroke: #e8ebf2; stroke-opacity: 0.18; stroke-width: 0.8; stroke-linecap: round"/>
     </g>
     <g id="text_14">
      <!-- 06 On-Chain Valuation and Holder State -->
      <g style="fill: #6f768a" transform="translate(14.596875 225.531209) scale(0.1 -0.1)">
       <defs>
        <path id="SegoeUI-36" d="M 3194 1422
Q 3194 1094 3087 819
Q 2981 544 2793 344
Q 2606 144 2347 33
Q 2088 -78 1784 -78
Q 1447 -78 1180 62
Q 913 203 727 467
Q 541 731 444 1112
Q 347 1494 347 1972
Q 347 2556 476 3032
Q 606 3509 845 3848
Q 1084 4188 1421 4372
Q 1759 4556 2175 4556
Q 2638 4556 2919 4428
L 2919 3944
Q 2572 4122 2188 4122
Q 1888 4122 1647 3987
Q 1406 3853 1234 3608
Q 1063 3363 970 3016
Q 878 2669 878 2244
L 891 2244
Q 1200 2803 1913 2803
Q 2206 2803 2442 2703
Q 2678 2603 2845 2420
Q 3013 2238 3103 1984
Q 3194 1731 3194 1422
z
M 2669 1356
Q 2669 1591 2609 1778
Q 2550 1966 2439 2097
Q 2328 2228 2165 2298
Q 2003 2369 1797 2369
Q 1606 2369 1443 2297
Q 1281 2225 1162 2101
Q 1044 1978 976 1814
Q 909 1650 909 1466
Q 909 1234 975 1032
Q 1041 831 1159 681
Q 1278 531 1442 445
Q 1606 359 1806 359
Q 2000 359 2159 432
Q 2319 506 2431 637
Q 2544 769 2606 951
Q 2669 1134 2669 1356
z
" transform="scale(0.015625)"/>
        <path id="SegoeUI-4f" d="M 2394 -75
Q 1441 -75 867 553
Q 294 1181 294 2188
Q 294 3269 878 3912
Q 1463 4556 2469 4556
Q 3397 4556 3964 3931
Q 4531 3306 4531 2297
Q 4531 1200 3950 562
Q 3369 -75 2394 -75
z
M 2431 4081
Q 1725 4081 1284 3572
Q 844 3063 844 2234
Q 844 1406 1273 901
Q 1703 397 2394 397
Q 3131 397 3556 878
Q 3981 1359 3981 2225
Q 3981 3113 3568 3597
Q 3156 4081 2431 4081
z
" transform="scale(0.015625)"/>
        <path id="SegoeUI-68" d="M 3175 0
L 2663 0
L 2663 1844
Q 2663 2844 1919 2844
Q 1544 2844 1287 2555
Q 1031 2266 1031 1813
L 1031 0
L 519 0
L 519 4738
L 1031 4738
L 1031 2669
L 1044 2669
Q 1413 3275 2094 3275
Q 3175 3275 3175 1972
L 3175 0
z
" transform="scale(0.015625)"/>
        <path id="SegoeUI-56" d="M 3919 4481
L 2259 0
L 1681 0
L 56 4481
L 641 4481
L 1881 928
Q 1941 756 1972 531
L 1984 531
Q 2009 719 2088 934
L 3353 4481
L 3919 4481
z
" transform="scale(0.015625)"/>
        <path id="SegoeUI-48" d="M 3956 0
L 3431 0
L 3431 2044
L 1113 2044
L 1113 0
L 588 0
L 588 4481
L 1113 4481
L 1113 2516
L 3431 2516
L 3431 4481
L 3956 4481
L 3956 0
z
" transform="scale(0.015625)"/>
       </defs>
       <use xlink:href="#SegoeUI-30"/>
       <use xlink:href="#SegoeUI-36" transform="translate(53.90625 0)"/>
       <use xlink:href="#SegoeUI-20" transform="translate(107.8125 0)"/>
       <use xlink:href="#SegoeUI-4f" transform="translate(135.205078 0)"/>
       <use xlink:href="#SegoeUI-6e" transform="translate(210.595703 0)"/>
       <use xlink:href="#SegoeUI-2d" transform="translate(267.1875 0)"/>
       <use xlink:href="#SegoeUI-43" transform="translate(307.177734 0)"/>
       <use xlink:href="#SegoeUI-68" transform="translate(369.091797 0)"/>
       <use xlink:href="#SegoeUI-61" transform="translate(425.683594 0)"/>
       <use xlink:href="#SegoeUI-69" transform="translate(476.5625 0)"/>
       <use xlink:href="#SegoeUI-6e" transform="translate(500.78125 0)"/>
       <use xlink:href="#SegoeUI-20" transform="translate(557.373047 0)"/>
       <use xlink:href="#SegoeUI-56" transform="translate(584.765625 0)"/>
       <use xlink:href="#SegoeUI-61" transform="translate(639.75 0)"/>
       <use xlink:href="#SegoeUI-6c" transform="translate(690.628906 0)"/>
       <use xlink:href="#SegoeUI-75" transform="translate(714.847656 0)"/>
       <use xlink:href="#SegoeUI-61" transform="translate(771.439453 0)"/>
       <use xlink:href="#SegoeUI-74" transform="translate(822.318359 0)"/>
       <use xlink:href="#SegoeUI-69" transform="translate(856.205078 0)"/>
       <use xlink:href="#SegoeUI-6f" transform="translate(880.423828 0)"/>
       <use xlink:href="#SegoeUI-6e" transform="translate(939.017578 0)"/>
       <use xlink:href="#SegoeUI-20" transform="translate(995.609375 0)"/>
       <use xlink:href="#SegoeUI-61" transform="translate(1023.001953 0)"/>
       <use xlink:href="#SegoeUI-6e" transform="translate(1073.880859 0)"/>
       <use xlink:href="#SegoeUI-64" transform="translate(1130.472656 0)"/>
       <use xlink:href="#SegoeUI-20" transform="translate(1189.359375 0)"/>
       <use xlink:href="#SegoeUI-48" transform="translate(1216.751953 0)"/>
       <use xlink:href="#SegoeUI-6f" transform="translate(1287.748047 0)"/>
       <use xlink:href="#SegoeUI-6c" transform="translate(1346.341797 0)"/>
       <use xlink:href="#SegoeUI-64" transform="translate(1370.560547 0)"/>
       <use xlink:href="#SegoeUI-65" transform="translate(1429.447266 0)"/>
       <use xlink:href="#SegoeUI-72" transform="translate(1481.742188 0)"/>
       <use xlink:href="#SegoeUI-20" transform="translate(1516.507812 0)"/>
       <use xlink:href="#SegoeUI-53" transform="translate(1543.900391 0)"/>
       <use xlink:href="#SegoeUI-74" transform="translate(1593.775391 0)"/>
       <use xlink:href="#SegoeUI-61" transform="translate(1627.662109 0)"/>
       <use xlink:href="#SegoeUI-74" transform="translate(1678.541016 0)"/>
       <use xlink:href="#SegoeUI-65" transform="translate(1711.677734 0)"/>
      </g>
     </g>
    </g>
    <g id="ytick_8">
     <g id="line2d_14">
      <path d="M 200.495313 244.003293
L 639.695312 244.003293
" clip-path="url(#p8dd45177c7)" style="fill: none; stroke: #e8ebf2; stroke-opacity: 0.18; stroke-width: 0.8; stroke-linecap: round"/>
     </g>
     <g id="text_15">
      <!-- 07 Chain Fundamentals -->
      <g style="fill: #6f768a" transform="translate(87.892188 247.704856) scale(0.1 -0.1)">
       <defs>
        <path id="SegoeUI-37" d="M 3156 4184
Q 3053 4006 2908 3740
Q 2763 3475 2600 3144
Q 2438 2813 2269 2431
Q 2100 2050 1953 1644
Q 1806 1238 1695 820
Q 1584 403 1534 0
L 984 0
Q 1041 400 1158 817
Q 1275 1234 1423 1636
Q 1572 2038 1737 2409
Q 1903 2781 2059 3093
Q 2216 3406 2345 3645
Q 2475 3884 2553 4019
L 306 4019
L 306 4481
L 3156 4481
L 3156 4184
z
" transform="scale(0.015625)"/>
       </defs>
       <use xlink:href="#SegoeUI-30"/>
       <use xlink:href="#SegoeUI-37" transform="translate(53.90625 0)"/>
       <use xlink:href="#SegoeUI-20" transform="translate(107.8125 0)"/>
       <use xlink:href="#SegoeUI-43" transform="translate(135.205078 0)"/>
       <use xlink:href="#SegoeUI-68" transform="translate(197.119141 0)"/>
       <use xlink:href="#SegoeUI-61" transform="translate(253.710938 0)"/>
       <use xlink:href="#SegoeUI-69" transform="translate(304.589844 0)"/>
       <use xlink:href="#SegoeUI-6e" transform="translate(328.808594 0)"/>
       <use xlink:href="#SegoeUI-20" transform="translate(385.400391 0)"/>
       <use xlink:href="#SegoeUI-46" transform="translate(412.792969 0)"/>
       <use xlink:href="#SegoeUI-75" transform="translate(461.621094 0)"/>
       <use xlink:href="#SegoeUI-6e" transform="translate(518.212891 0)"/>
       <use xlink:href="#SegoeUI-64" transform="translate(574.804688 0)"/>
       <use xlink:href="#SegoeUI-61" transform="translate(633.691406 0)"/>
       <use xlink:href="#SegoeUI-6d" transform="translate(684.570312 0)"/>
       <use xlink:href="#SegoeUI-65" transform="translate(770.703125 0)"/>
       <use xlink:href="#SegoeUI-6e" transform="translate(822.998047 0)"/>
       <use xlink:href="#SegoeUI-74" transform="translate(879.589844 0)"/>
       <use xlink:href="#SegoeUI-61" transform="translate(913.476562 0)"/>
       <use xlink:href="#SegoeUI-6c" transform="translate(964.355469 0)"/>
       <use xlink:href="#SegoeUI-73" transform="translate(988.574219 0)"/>
      </g>
     </g>
    </g>
    <g id="ytick_9">
     <g id="line2d_15">
      <path d="M 200.495313 266.17694
L 639.695312 266.17694
" clip-path="url(#p8dd45177c7)" style="fill: none; stroke: #e8ebf2; stroke-opacity: 0.18; stroke-width: 0.8; stroke-linecap: round"/>
     </g>
     <g id="text_16">
      <!-- 08 Relative Major-Asset Risk -->
      <g style="fill: #6f768a" transform="translate(67.410938 269.878502) scale(0.1 -0.1)">
       <defs>
        <path id="SegoeUI-38" d="M 281 1250
Q 281 1428 337 1608
Q 394 1788 498 1944
Q 603 2100 758 2228
Q 913 2356 1109 2431
Q 819 2594 647 2848
Q 475 3103 475 3413
Q 475 3659 570 3868
Q 666 4078 834 4231
Q 1003 4384 1234 4470
Q 1466 4556 1734 4556
Q 2006 4556 2237 4468
Q 2469 4381 2637 4228
Q 2806 4075 2900 3865
Q 2994 3656 2994 3413
Q 2994 3103 2822 2848
Q 2650 2594 2366 2431
Q 2559 2356 2712 2228
Q 2866 2100 2970 1944
Q 3075 1788 3131 1608
Q 3188 1428 3188 1250
Q 3188 956 3081 712
Q 2975 469 2783 295
Q 2591 122 2323 25
Q 2056 -72 1734 -72
Q 1416 -72 1150 25
Q 884 122 690 295
Q 497 469 389 712
Q 281 956 281 1250
z
M 838 1294
Q 838 1084 902 915
Q 966 747 1083 628
Q 1200 509 1367 445
Q 1534 381 1738 381
Q 1934 381 2100 447
Q 2266 513 2386 631
Q 2506 750 2573 919
Q 2641 1088 2641 1294
Q 2641 1481 2577 1645
Q 2513 1809 2394 1934
Q 2275 2059 2109 2131
Q 1944 2203 1738 2203
Q 1544 2203 1380 2136
Q 1216 2069 1095 1948
Q 975 1828 906 1661
Q 838 1494 838 1294
z
M 997 3372
Q 997 3213 1055 3077
Q 1113 2941 1214 2839
Q 1316 2738 1450 2680
Q 1584 2622 1738 2622
Q 1891 2622 2027 2681
Q 2163 2741 2263 2842
Q 2363 2944 2422 3080
Q 2481 3216 2481 3372
Q 2481 3534 2423 3671
Q 2366 3809 2266 3909
Q 2166 4009 2030 4067
Q 1894 4125 1738 4125
Q 1572 4125 1436 4065
Q 1300 4006 1201 3904
Q 1103 3803 1050 3665
Q 997 3528 997 3372
z
" transform="scale(0.015625)"/>
        <path id="SegoeUI-6a" d="M 1031 134
Q 1031 -653 714 -1079
Q 397 -1506 -194 -1506
Q -413 -1506 -619 -1406
L -619 -928
Q -388 -1069 -181 -1069
Q 519 -1069 519 50
L 519 3200
L 1031 3200
L 1031 134
z
M 781 4013
Q 644 4013 547 4106
Q 450 4200 450 4344
Q 450 4488 547 4583
Q 644 4678 781 4678
Q 922 4678 1020 4583
Q 1119 4488 1119 4344
Q 1119 4206 1020 4109
Q 922 4013 781 4013
z
" transform="scale(0.015625)"/>
       </defs>
       <use xlink:href="#SegoeUI-30"/>
       <use xlink:href="#SegoeUI-38" transform="translate(53.90625 0)"/>
       <use xlink:href="#SegoeUI-20" transform="translate(107.8125 0)"/>
       <use xlink:href="#SegoeUI-52" transform="translate(135.205078 0)"/>
       <use xlink:href="#SegoeUI-65" transform="translate(192.269531 0)"/>
       <use xlink:href="#SegoeUI-6c" transform="translate(244.564453 0)"/>
       <use xlink:href="#SegoeUI-61" transform="translate(268.783203 0)"/>
       <use xlink:href="#SegoeUI-74" transform="translate(319.662109 0)"/>
       <use xlink:href="#SegoeUI-69" transform="translate(353.548828 0)"/>
       <use xlink:href="#SegoeUI-76" transform="translate(377.767578 0)"/>
       <use xlink:href="#SegoeUI-65" transform="translate(425.042969 0)"/>
       <use xlink:href="#SegoeUI-20" transform="translate(477.337891 0)"/>
       <use xlink:href="#SegoeUI-4d" transform="translate(504.730469 0)"/>
       <use xlink:href="#SegoeUI-61" transform="translate(594.525391 0)"/>
       <use xlink:href="#SegoeUI-6a" transform="translate(645.404297 0)"/>
       <use xlink:href="#SegoeUI-6f" transform="translate(669.623047 0)"/>
       <use xlink:href="#SegoeUI-72" transform="translate(728.216797 0)"/>
       <use xlink:href="#SegoeUI-2d" transform="translate(756.732422 0)"/>
       <use xlink:href="#SegoeUI-41" transform="translate(796.722656 0)"/>
       <use xlink:href="#SegoeUI-73" transform="translate(861.224609 0)"/>
       <use xlink:href="#SegoeUI-73" transform="translate(903.65625 0)"/>
       <use xlink:href="#SegoeUI-65" transform="translate(946.087891 0)"/>
       <use xlink:href="#SegoeUI-74" transform="translate(998.382812 0)"/>
       <use xlink:href="#SegoeUI-20" transform="translate(1032.269531 0)"/>
       <use xlink:href="#SegoeUI-52" transform="translate(1059.662109 0)"/>
       <use xlink:href="#SegoeUI-69" transform="translate(1119.476562 0)"/>
       <use xlink:href="#SegoeUI-73" transform="translate(1143.695312 0)"/>
       <use xlink:href="#SegoeUI-6b" transform="translate(1186.126953 0)"/>
      </g>
     </g>
    </g>
    <g id="ytick_10">
     <g id="line2d_16">
      <path d="M 200.495313 288.350586
L 639.695312 288.350586
" clip-path="url(#p8dd45177c7)" style="fill: none; stroke: #e8ebf2; stroke-opacity: 0.18; stroke-width: 0.8; stroke-linecap: round"/>
     </g>
     <g id="text_17">
      <!-- 09 Market Concentration State -->
      <g style="fill: #6f768a" transform="translate(56.554688 292.052149) scale(0.1 -0.1)">
       <defs>
        <path id="SegoeUI-39" d="M 3138 2509
Q 3138 1894 3016 1414
Q 2894 934 2659 601
Q 2425 269 2087 95
Q 1750 -78 1319 -78
Q 875 -78 538 78
L 538 569
Q 909 359 1331 359
Q 1634 359 1873 484
Q 2113 609 2278 848
Q 2444 1088 2531 1438
Q 2619 1788 2619 2241
L 2606 2241
Q 2319 1663 1606 1663
Q 1319 1663 1078 1764
Q 838 1866 663 2052
Q 488 2238 391 2494
Q 294 2750 294 3059
Q 294 3391 401 3666
Q 509 3941 701 4139
Q 894 4338 1158 4447
Q 1422 4556 1734 4556
Q 2072 4556 2333 4420
Q 2594 4284 2772 4023
Q 2950 3763 3044 3381
Q 3138 3000 3138 2509
z
M 2584 2969
Q 2584 3228 2517 3440
Q 2450 3653 2331 3804
Q 2213 3956 2048 4039
Q 1884 4122 1691 4122
Q 1506 4122 1347 4048
Q 1188 3975 1070 3842
Q 953 3709 886 3526
Q 819 3344 819 3128
Q 819 2891 883 2703
Q 947 2516 1065 2386
Q 1184 2256 1351 2187
Q 1519 2119 1722 2119
Q 1900 2119 2058 2186
Q 2216 2253 2333 2367
Q 2450 2481 2517 2636
Q 2584 2791 2584 2969
z
" transform="scale(0.015625)"/>
       </defs>
       <use xlink:href="#SegoeUI-30"/>
       <use xlink:href="#SegoeUI-39" transform="translate(53.90625 0)"/>
       <use xlink:href="#SegoeUI-20" transform="translate(107.8125 0)"/>
       <use xlink:href="#SegoeUI-4d" transform="translate(135.205078 0)"/>
       <use xlink:href="#SegoeUI-61" transform="translate(225 0)"/>
       <use xlink:href="#SegoeUI-72" transform="translate(275.878906 0)"/>
       <use xlink:href="#SegoeUI-6b" transform="translate(310.644531 0)"/>
       <use xlink:href="#SegoeUI-65" transform="translate(358.351562 0)"/>
       <use xlink:href="#SegoeUI-74" transform="translate(410.646484 0)"/>
       <use xlink:href="#SegoeUI-20" transform="translate(444.533203 0)"/>
       <use xlink:href="#SegoeUI-43" transform="translate(471.925781 0)"/>
       <use xlink:href="#SegoeUI-6f" transform="translate(533.839844 0)"/>
       <use xlink:href="#SegoeUI-6e" transform="translate(592.433594 0)"/>
       <use xlink:href="#SegoeUI-63" transform="translate(649.025391 0)"/>
       <use xlink:href="#SegoeUI-65" transform="translate(695.216797 0)"/>
       <use xlink:href="#SegoeUI-6e" transform="translate(747.511719 0)"/>
       <use xlink:href="#SegoeUI-74" transform="translate(804.103516 0)"/>
       <use xlink:href="#SegoeUI-72" transform="translate(837.990234 0)"/>
       <use xlink:href="#SegoeUI-61" transform="translate(872.755859 0)"/>
       <use xlink:href="#SegoeUI-74" transform="translate(923.634766 0)"/>
       <use xlink:href="#SegoeUI-69" transform="translate(957.521484 0)"/>
       <use xlink:href="#SegoeUI-6f" transform="translate(981.740234 0)"/>
       <use xlink:href="#SegoeUI-6e" transform="translate(1040.333984 0)"/>
       <use xlink:href="#SegoeUI-20" transform="translate(1096.925781 0)"/>
       <use xlink:href="#SegoeUI-53" transform="translate(1124.318359 0)"/>
       <use xlink:href="#SegoeUI-74" transform="translate(1174.193359 0)"/>
       <use xlink:href="#SegoeUI-61" transform="translate(1208.080078 0)"/>
       <use xlink:href="#SegoeUI-74" transform="translate(1258.958984 0)"/>
       <use xlink:href="#SegoeUI-65" transform="translate(1292.095703 0)"/>
      </g>
     </g>
    </g>
    <g id="ytick_11">
     <g id="line2d_17">
      <path d="M 200.495313 310.524233
L 639.695312 310.524233
" clip-path="url(#p8dd45177c7)" style="fill: none; stroke: #e8ebf2; stroke-opacity: 0.18; stroke-width: 0.8; stroke-linecap: round"/>
     </g>
     <g id="text_18">
      <!-- 10 Event Sensitivity -->
      <g style="fill: #6f768a" transform="translate(106.551563 314.199233) scale(0.1 -0.1)">
       <use xlink:href="#SegoeUI-31"/>
       <use xlink:href="#SegoeUI-30" transform="translate(53.90625 0)"/>
       <use xlink:href="#SegoeUI-20" transform="translate(107.8125 0)"/>
       <use xlink:href="#SegoeUI-45" transform="translate(135.205078 0)"/>
       <use xlink:href="#SegoeUI-76" transform="translate(185.791016 0)"/>
       <use xlink:href="#SegoeUI-65" transform="translate(233.066406 0)"/>
       <use xlink:href="#SegoeUI-6e" transform="translate(285.361328 0)"/>
       <use xlink:href="#SegoeUI-74" transform="translate(341.953125 0)"/>
       <use xlink:href="#SegoeUI-20" transform="translate(375.839844 0)"/>
       <use xlink:href="#SegoeUI-53" transform="translate(403.232422 0)"/>
       <use xlink:href="#SegoeUI-65" transform="translate(456.357422 0)"/>
       <use xlink:href="#SegoeUI-6e" transform="translate(508.652344 0)"/>
       <use xlink:href="#SegoeUI-73" transform="translate(565.244141 0)"/>
       <use xlink:href="#SegoeUI-69" transform="translate(607.675781 0)"/>
       <use xlink:href="#SegoeUI-74" transform="translate(631.894531 0)"/>
       <use xlink:href="#SegoeUI-69" transform="translate(665.78125 0)"/>
       <use xlink:href="#SegoeUI-76" transform="translate(690 0)"/>
       <use xlink:href="#SegoeUI-69" transform="translate(737.900391 0)"/>
       <use xlink:href="#SegoeUI-74" transform="translate(762.119141 0)"/>
       <use xlink:href="#SegoeUI-79" transform="translate(796.005859 0)"/>
      </g>
     </g>
    </g>
   </g>
   <g id="patch_3">
    <path d="M 200.495313 81.248727
L 618.781027 81.248727
L 618.781027 88.787767
L 200.495313 88.787767
z
" clip-path="url(#p8dd45177c7)" style="fill: #7a4e2d; stroke: #563620; stroke-width: 0.8; stroke-linejoin: miter"/>
   </g>
   <g id="patch_4">
    <path d="M 200.495313 103.422374
L 367.809598 103.422374
L 367.809598 110.961414
L 200.495313 110.961414
z
" clip-path="url(#p8dd45177c7)" style="fill: #7a4e2d; stroke: #563620; stroke-width: 0.8; stroke-linejoin: miter"/>
   </g>
   <g id="patch_5">
    <path d="M 200.495313 125.59602
L 451.466741 125.59602
L 451.466741 133.13506
L 200.495313 133.13506
z
" clip-path="url(#p8dd45177c7)" style="fill: #7a4e2d; stroke: #563620; stroke-width: 0.8; stroke-linejoin: miter"/>
   </g>
   <g id="patch_6">
    <path d="M 200.495313 147.769667
L 451.466741 147.769667
L 451.466741 155.308707
L 200.495313 155.308707
z
" clip-path="url(#p8dd45177c7)" style="fill: #7a4e2d; stroke: #563620; stroke-width: 0.8; stroke-linejoin: miter"/>
   </g>
   <g id="patch_7">
    <path d="M 200.495313 169.943314
L 451.466741 169.943314
L 451.466741 177.482353
L 200.495313 177.482353
z
" clip-path="url(#p8dd45177c7)" style="fill: #7a4e2d; stroke: #563620; stroke-width: 0.8; stroke-linejoin: miter"/>
   </g>
   <g id="patch_8">
    <path d="M 200.495313 192.11696
L 451.466741 192.11696
L 451.466741 199.656
L 200.495313 199.656
z
" clip-path="url(#p8dd45177c7)" style="fill: #7a4e2d; stroke: #563620; stroke-width: 0.8; stroke-linejoin: miter"/>
   </g>
   <g id="patch_9">
    <path d="M 200.495313 214.290607
L 367.809598 214.290607
L 367.809598 221.829647
L 200.495313 221.829647
z
" clip-path="url(#p8dd45177c7)" style="fill: #7a4e2d; stroke: #563620; stroke-width: 0.8; stroke-linejoin: miter"/>
   </g>
   <g id="patch_10">
    <path d="M 200.495313 236.464253
L 367.809598 236.464253
L 367.809598 244.003293
L 200.495313 244.003293
z
" clip-path="url(#p8dd45177c7)" style="fill: #7a4e2d; stroke: #563620; stroke-width: 0.8; stroke-linejoin: miter"/>
   </g>
   <g id="patch_11">
    <path d="M 200.495313 258.6379
L 451.466741 258.6379
L 451.466741 266.17694
L 200.495313 266.17694
z
" clip-path="url(#p8dd45177c7)" style="fill: #7a4e2d; stroke: #563620; stroke-width: 0.8; stroke-linejoin: miter"/>
   </g>
   <g id="patch_12">
    <path d="M 200.495313 280.811546
L 451.466741 280.811546
L 451.466741 288.350586
L 200.495313 288.350586
z
" clip-path="url(#p8dd45177c7)" style="fill: #7a4e2d; stroke: #563620; stroke-width: 0.8; stroke-linejoin: miter"/>
   </g>
   <g id="patch_13">
    <path d="M 200.495313 302.985193
L 451.466741 302.985193
L 451.466741 310.524233
L 200.495313 310.524233
z
" clip-path="url(#p8dd45177c7)" style="fill: #7a4e2d; stroke: #563620; stroke-width: 0.8; stroke-linejoin: miter"/>
   </g>
   <g id="patch_14">
    <path d="M 200.495313 88.787767
L 367.809598 88.787767
L 367.809598 96.326807
L 200.495313 96.326807
z
" clip-path="url(#p8dd45177c7)" style="fill: #2f5d62; stroke: #1f3f43; stroke-width: 0.8; stroke-linejoin: miter"/>
   </g>
   <g id="patch_15">
    <path d="M 200.495313 110.961414
L 284.152455 110.961414
L 284.152455 118.500454
L 200.495313 118.500454
z
" clip-path="url(#p8dd45177c7)" style="fill: #2f5d62; stroke: #1f3f43; stroke-width: 0.8; stroke-linejoin: miter"/>
   </g>
   <g id="patch_16">
    <path d="M 200.495313 133.13506
L 284.152455 133.13506
L 284.152455 140.6741
L 200.495313 140.6741
z
" clip-path="url(#p8dd45177c7)" style="fill: #2f5d62; stroke: #1f3f43; stroke-width: 0.8; stroke-linejoin: miter"/>
   </g>
   <g id="patch_17">
    <path d="M 200.495313 155.308707
L 284.152455 155.308707
L 284.152455 162.847747
L 200.495313 162.847747
z
" clip-path="url(#p8dd45177c7)" style="fill: #2f5d62; stroke: #1f3f43; stroke-width: 0.8; stroke-linejoin: miter"/>
   </g>
   <g id="patch_18">
    <path d="M 200.495313 177.482353
L 284.152455 177.482353
L 284.152455 185.021393
L 200.495313 185.021393
z
" clip-path="url(#p8dd45177c7)" style="fill: #2f5d62; stroke: #1f3f43; stroke-width: 0.8; stroke-linejoin: miter"/>
   </g>
   <g id="patch_19">
    <path d="M 200.495313 199.656
L 284.152455 199.656
L 284.152455 207.19504
L 200.495313 207.19504
z
" clip-path="url(#p8dd45177c7)" style="fill: #2f5d62; stroke: #1f3f43; stroke-width: 0.8; stroke-linejoin: miter"/>
   </g>
   <g id="patch_20">
    <path d="M 200.495313 221.829647
L 284.152455 221.829647
L 284.152455 229.368686
L 200.495313 229.368686
z
" clip-path="url(#p8dd45177c7)" style="fill: #2f5d62; stroke: #1f3f43; stroke-width: 0.8; stroke-linejoin: miter"/>
   </g>
   <g id="patch_21">
    <path d="M 200.495313 244.003293
L 284.152455 244.003293
L 284.152455 251.542333
L 200.495313 251.542333
z
" clip-path="url(#p8dd45177c7)" style="fill: #2f5d62; stroke: #1f3f43; stroke-width: 0.8; stroke-linejoin: miter"/>
   </g>
   <g id="patch_22">
    <path d="M 200.495313 266.17694
L 284.152455 266.17694
L 284.152455 273.71598
L 200.495313 273.71598
z
" clip-path="url(#p8dd45177c7)" style="fill: #2f5d62; stroke: #1f3f43; stroke-width: 0.8; stroke-linejoin: miter"/>
   </g>
   <g id="patch_23">
    <path d="M 200.495313 288.350586
L 284.152455 288.350586
L 284.152455 295.889626
L 200.495313 295.889626
z
" clip-path="url(#p8dd45177c7)" style="fill: #2f5d62; stroke: #1f3f43; stroke-width: 0.8; stroke-linejoin: miter"/>
   </g>
   <g id="patch_24">
    <path d="M 200.495313 310.524233
L 284.152455 310.524233
L 284.152455 318.063273
L 200.495313 318.063273
z
" clip-path="url(#p8dd45177c7)" style="fill: #2f5d62; stroke: #1f3f43; stroke-width: 0.8; stroke-linejoin: miter"/>
   </g>
   <g id="patch_25">
    <path d="M 200.495313 329.904
L 200.495313 69.408
" style="fill: none; stroke: #d7dbe7; stroke-width: 1.25; stroke-linejoin: miter; stroke-linecap: square"/>
   </g>
   <g id="patch_26">
    <path d="M 200.495313 329.904
L 639.695312 329.904
" style="fill: none; stroke: #d7dbe7; stroke-width: 1.25; stroke-linejoin: miter; stroke-linecap: square"/>
   </g>
   <g id="text_19">
    <!-- Every module contributes accepted-qualified claims; source depth varies -->
    <g style="fill: #1f2430" transform="translate(200.495313 63.408) scale(0.11 -0.11)">
     <defs>
      <path id="SegoeUI-66" d="M 2100 4288
Q 1950 4372 1759 4372
Q 1222 4372 1222 3694
L 1222 3200
L 1972 3200
L 1972 2763
L 1222 2763
L 1222 0
L 713 0
L 713 2763
L 166 2763
L 166 3200
L 713 3200
L 713 3719
Q 713 4222 1003 4514
Q 1294 4806 1728 4806
Q 1963 4806 2100 4750
L 2100 4288
z
" transform="scale(0.015625)"/>
      <path id="SegoeUI-3b" d="M 706 2575
Q 559 2575 457 2678
Q 356 2781 356 2925
Q 356 3069 457 3169
Q 559 3269 706 3269
Q 850 3269 953 3169
Q 1056 3069 1056 2925
Q 1056 2781 953 2678
Q 850 2575 706 2575
z
M 988 713
L 488 -825
L 122 -825
L 488 713
L 988 713
z
" transform="scale(0.015625)"/>
     </defs>
     <use xlink:href="#SegoeUI-45"/>
     <use xlink:href="#SegoeUI-76" transform="translate(50.585938 0)"/>
     <use xlink:href="#SegoeUI-65" transform="translate(97.861328 0)"/>
     <use xlink:href="#SegoeUI-72" transform="translate(150.15625 0)"/>
     <use xlink:href="#SegoeUI-79" transform="translate(188.921875 0)"/>
     <use xlink:href="#SegoeUI-20" transform="translate(237.310547 0)"/>
     <use xlink:href="#SegoeUI-6d" transform="translate(264.703125 0)"/>
     <use xlink:href="#SegoeUI-6f" transform="translate(350.835938 0)"/>
     <use xlink:href="#SegoeUI-64" transform="translate(409.429688 0)"/>
     <use xlink:href="#SegoeUI-75" transform="translate(468.316406 0)"/>
     <use xlink:href="#SegoeUI-6c" transform="translate(524.908203 0)"/>
     <use xlink:href="#SegoeUI-65" transform="translate(549.126953 0)"/>
     <use xlink:href="#SegoeUI-20" transform="translate(601.421875 0)"/>
     <use xlink:href="#SegoeUI-63" transform="translate(628.814453 0)"/>
     <use xlink:href="#SegoeUI-6f" transform="translate(675.005859 0)"/>
     <use xlink:href="#SegoeUI-6e" transform="translate(733.599609 0)"/>
     <use xlink:href="#SegoeUI-74" transform="translate(790.191406 0)"/>
     <use xlink:href="#SegoeUI-72" transform="translate(824.078125 0)"/>
     <use xlink:href="#SegoeUI-69" transform="translate(858.84375 0)"/>
     <use xlink:href="#SegoeUI-62" transform="translate(883.0625 0)"/>
     <use xlink:href="#SegoeUI-75" transform="translate(941.851562 0)"/>
     <use xlink:href="#SegoeUI-74" transform="translate(998.443359 0)"/>
     <use xlink:href="#SegoeUI-65" transform="translate(1031.580078 0)"/>
     <use xlink:href="#SegoeUI-73" transform="translate(1083.875 0)"/>
     <use xlink:href="#SegoeUI-20" transform="translate(1126.306641 0)"/>
     <use xlink:href="#SegoeUI-61" transform="translate(1153.699219 0)"/>
     <use xlink:href="#SegoeUI-63" transform="translate(1204.578125 0)"/>
     <use xlink:href="#SegoeUI-63" transform="translate(1250.769531 0)"/>
     <use xlink:href="#SegoeUI-65" transform="translate(1296.960938 0)"/>
     <use xlink:href="#SegoeUI-70" transform="translate(1349.255859 0)"/>
     <use xlink:href="#SegoeUI-74" transform="translate(1408.044922 0)"/>
     <use xlink:href="#SegoeUI-65" transform="translate(1441.181641 0)"/>
     <use xlink:href="#SegoeUI-64" transform="translate(1493.476562 0)"/>
     <use xlink:href="#SegoeUI-2d" transform="translate(1552.363281 0)"/>
     <use xlink:href="#SegoeUI-71" transform="translate(1592.353516 0)"/>
     <use xlink:href="#SegoeUI-75" transform="translate(1651.240234 0)"/>
     <use xlink:href="#SegoeUI-61" transform="translate(1707.832031 0)"/>
     <use xlink:href="#SegoeUI-6c" transform="translate(1758.710938 0)"/>
     <use xlink:href="#SegoeUI-69" transform="translate(1782.929688 0)"/>
     <use xlink:href="#SegoeUI-66" transform="translate(1807.148438 0)"/>
     <use xlink:href="#SegoeUI-69" transform="translate(1838.447266 0)"/>
     <use xlink:href="#SegoeUI-65" transform="translate(1862.666016 0)"/>
     <use xlink:href="#SegoeUI-64" transform="translate(1914.960938 0)"/>
     <use xlink:href="#SegoeUI-20" transform="translate(1973.847656 0)"/>
     <use xlink:href="#SegoeUI-63" transform="translate(2001.240234 0)"/>
     <use xlink:href="#SegoeUI-6c" transform="translate(2047.431641 0)"/>
     <use xlink:href="#SegoeUI-61" transform="translate(2071.650391 0)"/>
     <use xlink:href="#SegoeUI-69" transform="translate(2122.529297 0)"/>
     <use xlink:href="#SegoeUI-6d" transform="translate(2146.748047 0)"/>
     <use xlink:href="#SegoeUI-73" transform="translate(2232.880859 0)"/>
     <use xlink:href="#SegoeUI-3b" transform="translate(2275.3125 0)"/>
     <use xlink:href="#SegoeUI-20" transform="translate(2296.992188 0)"/>
     <use xlink:href="#SegoeUI-73" transform="translate(2324.384766 0)"/>
     <use xlink:href="#SegoeUI-6f" transform="translate(2366.816406 0)"/>
     <use xlink:href="#SegoeUI-75" transform="translate(2425.410156 0)"/>
     <use xlink:href="#SegoeUI-72" transform="translate(2482.001953 0)"/>
     <use xlink:href="#SegoeUI-63" transform="translate(2515.392578 0)"/>
     <use xlink:href="#SegoeUI-65" transform="translate(2561.583984 0)"/>
     <use xlink:href="#SegoeUI-20" transform="translate(2613.878906 0)"/>
     <use xlink:href="#SegoeUI-64" transform="translate(2641.271484 0)"/>
     <use xlink:href="#SegoeUI-65" transform="translate(2700.158203 0)"/>
     <use xlink:href="#SegoeUI-70" transform="translate(2752.453125 0)"/>
     <use xlink:href="#SegoeUI-74" transform="translate(2811.242188 0)"/>
     <use xlink:href="#SegoeUI-68" transform="translate(2845.128906 0)"/>
     <use xlink:href="#SegoeUI-20" transform="translate(2901.720703 0)"/>
     <use xlink:href="#SegoeUI-76" transform="translate(2929.113281 0)"/>
     <use xlink:href="#SegoeUI-61" transform="translate(2975.263672 0)"/>
     <use xlink:href="#SegoeUI-72" transform="translate(3026.142578 0)"/>
     <use xlink:href="#SegoeUI-69" transform="translate(3060.908203 0)"/>
     <use xlink:href="#SegoeUI-65" transform="translate(3085.126953 0)"/>
     <use xlink:href="#SegoeUI-73" transform="translate(3137.421875 0)"/>
    </g>
   </g>
   <g id="legend_1">
    <g id="patch_27">
     <path d="M 524.214062 303.900875
L 544.214062 303.900875
L 544.214062 296.900875
L 524.214062 296.900875
z
" style="fill: #7a4e2d; stroke: #563620; stroke-width: 0.8; stroke-linejoin: miter"/>
    </g>
    <g id="text_20">
     <!-- Source-table links -->
     <g style="fill: #1f2430" transform="translate(552.214062 303.900875) scale(0.1 -0.1)">
      <use xlink:href="#SegoeUI-53"/>
      <use xlink:href="#SegoeUI-6f" transform="translate(53.125 0)"/>
      <use xlink:href="#SegoeUI-75" transform="translate(111.71875 0)"/>
      <use xlink:href="#SegoeUI-72" transform="translate(168.310547 0)"/>
      <use xlink:href="#SegoeUI-63" transform="translate(201.701172 0)"/>
      <use xlink:href="#SegoeUI-65" transform="translate(247.892578 0)"/>
      <use xlink:href="#SegoeUI-2d" transform="translate(300.1875 0)"/>
      <use xlink:href="#SegoeUI-74" transform="translate(340.177734 0)"/>
      <use xlink:href="#SegoeUI-61" transform="translate(374.064453 0)"/>
      <use xlink:href="#SegoeUI-62" transform="translate(424.943359 0)"/>
      <use xlink:href="#SegoeUI-6c" transform="translate(483.732422 0)"/>
      <use xlink:href="#SegoeUI-65" transform="translate(507.951172 0)"/>
      <use xlink:href="#SegoeUI-20" transform="translate(560.246094 0)"/>
      <use xlink:href="#SegoeUI-6c" transform="translate(587.638672 0)"/>
      <use xlink:href="#SegoeUI-69" transform="translate(611.857422 0)"/>
      <use xlink:href="#SegoeUI-6e" transform="translate(636.076172 0)"/>
      <use xlink:href="#SegoeUI-6b" transform="translate(692.667969 0)"/>
      <use xlink:href="#SegoeUI-73" transform="translate(742.375 0)"/>
     </g>
    </g>
    <g id="patch_28">
     <path d="M 524.214062 318.604
L 544.214062 318.604
L 544.214062 311.604
L 524.214062 311.604
z
" style="fill: #2f5d62; stroke: #1f3f43; stroke-width: 0.8; stroke-linejoin: miter"/>
    </g>
    <g id="text_21">
     <!-- Claims -->
     <g style="fill: #1f2430" transform="translate(552.214062 318.604) scale(0.1 -0.1)">
      <use xlink:href="#SegoeUI-43"/>
      <use xlink:href="#SegoeUI-6c" transform="translate(61.914062 0)"/>
      <use xlink:href="#SegoeUI-61" transform="translate(86.132812 0)"/>
      <use xlink:href="#SegoeUI-69" transform="translate(137.011719 0)"/>
      <use xlink:href="#SegoeUI-6d" transform="translate(161.230469 0)"/>
      <use xlink:href="#SegoeUI-73" transform="translate(247.363281 0)"/>
     </g>
    </g>
   </g>
  </g>
  <g id="text_22">
   <!-- Synthesis keeps claim counts and source depth visible -->
   <g style="fill: #1f2430" transform="translate(137.813438 17.564375) scale(0.14 -0.14)">
    <defs>
     <path id="SegoeUI-Semibold-53" d="M 347 178
L 347 944
Q 450 850 592 775
Q 734 700 893 648
Q 1053 597 1212 569
Q 1372 541 1506 541
Q 1975 541 2204 697
Q 2434 853 2434 1150
Q 2434 1309 2357 1426
Q 2281 1544 2143 1641
Q 2006 1738 1820 1827
Q 1634 1916 1422 2013
Q 1194 2134 997 2259
Q 800 2384 654 2536
Q 509 2688 426 2878
Q 344 3069 344 3325
Q 344 3641 486 3873
Q 628 4106 861 4257
Q 1094 4409 1391 4482
Q 1688 4556 1997 4556
Q 2700 4556 3022 4397
L 3022 3663
Q 2641 3938 2041 3938
Q 1875 3938 1711 3906
Q 1547 3875 1417 3803
Q 1288 3731 1206 3618
Q 1125 3506 1125 3347
Q 1125 3197 1187 3087
Q 1250 2978 1370 2887
Q 1491 2797 1664 2711
Q 1838 2625 2066 2525
Q 2300 2403 2508 2268
Q 2716 2134 2873 1971
Q 3031 1809 3123 1611
Q 3216 1413 3216 1159
Q 3216 819 3078 584
Q 2941 350 2708 203
Q 2475 56 2172 -9
Q 1869 -75 1531 -75
Q 1419 -75 1255 -58
Q 1091 -41 919 -8
Q 747 25 594 72
Q 441 119 347 178
z
" transform="scale(0.015625)"/>
     <path id="SegoeUI-Semibold-79" d="M 3244 3200
L 1800 -513
Q 1350 -1506 538 -1506
Q 309 -1506 156 -1466
L 156 -863
Q 328 -919 469 -919
Q 875 -919 1075 -519
L 1291 6
L 19 3200
L 822 3200
L 1584 875
Q 1597 831 1641 644
L 1656 644
Q 1672 716 1713 869
L 2513 3200
L 3244 3200
z
" transform="scale(0.015625)"/>
     <path id="SegoeUI-Semibold-6e" d="M 3322 0
L 2597 0
L 2597 1803
Q 2597 2700 1963 2700
Q 1631 2700 1415 2451
Q 1200 2203 1200 1825
L 1200 0
L 472 0
L 472 3200
L 1200 3200
L 1200 2669
L 1213 2669
Q 1572 3275 2250 3275
Q 2772 3275 3047 2936
Q 3322 2597 3322 1956
L 3322 0
z
" transform="scale(0.015625)"/>
     <path id="SegoeUI-Semibold-74" d="M 2159 34
Q 1947 -72 1600 -72
Q 669 -72 669 822
L 669 2631
L 134 2631
L 134 3200
L 669 3200
L 669 3941
L 1394 4147
L 1394 3200
L 2159 3200
L 2159 2631
L 1394 2631
L 1394 1031
Q 1394 747 1497 625
Q 1600 503 1841 503
Q 2025 503 2159 609
L 2159 34
z
" transform="scale(0.015625)"/>
     <path id="SegoeUI-Semibold-68" d="M 3316 0
L 2591 0
L 2591 1750
Q 2591 2700 1956 2700
Q 1638 2700 1419 2425
Q 1200 2150 1200 1722
L 1200 0
L 472 0
L 472 4738
L 1200 4738
L 1200 2669
L 1213 2669
Q 1575 3275 2250 3275
Q 3316 3275 3316 1972
L 3316 0
z
" transform="scale(0.015625)"/>
     <path id="SegoeUI-Semibold-65" d="M 3181 1403
L 1000 1403
Q 1013 959 1273 718
Q 1534 478 1991 478
Q 2503 478 2931 784
L 2931 200
Q 2494 -75 1775 -75
Q 1069 -75 667 361
Q 266 797 266 1588
Q 266 2334 708 2804
Q 1150 3275 1806 3275
Q 2463 3275 2822 2853
Q 3181 2431 3181 1681
L 3181 1403
z
M 2481 1916
Q 2478 2306 2297 2523
Q 2116 2741 1797 2741
Q 1484 2741 1267 2512
Q 1050 2284 1000 1916
L 2481 1916
z
" transform="scale(0.015625)"/>
     <path id="SegoeUI-Semibold-73" d="M 272 100
L 272 772
Q 678 463 1169 463
Q 1825 463 1825 850
Q 1825 959 1769 1036
Q 1713 1113 1617 1172
Q 1522 1231 1392 1278
Q 1263 1325 1103 1384
Q 906 1463 748 1550
Q 591 1638 486 1748
Q 381 1859 328 2000
Q 275 2141 275 2328
Q 275 2559 384 2736
Q 494 2913 678 3033
Q 863 3153 1097 3214
Q 1331 3275 1581 3275
Q 2025 3275 2375 3141
L 2375 2506
Q 2038 2738 1600 2738
Q 1463 2738 1352 2709
Q 1241 2681 1162 2631
Q 1084 2581 1040 2511
Q 997 2441 997 2356
Q 997 2253 1040 2181
Q 1084 2109 1170 2054
Q 1256 2000 1376 1954
Q 1497 1909 1653 1856
Q 1859 1772 2023 1684
Q 2188 1597 2303 1486
Q 2419 1375 2481 1229
Q 2544 1084 2544 884
Q 2544 641 2431 459
Q 2319 278 2131 159
Q 1944 41 1698 -17
Q 1453 -75 1181 -75
Q 656 -75 272 100
z
" transform="scale(0.015625)"/>
     <path id="SegoeUI-Semibold-69" d="M 838 3872
Q 659 3872 532 3987
Q 406 4103 406 4281
Q 406 4459 532 4578
Q 659 4697 838 4697
Q 1022 4697 1150 4578
Q 1278 4459 1278 4281
Q 1278 4113 1150 3992
Q 1022 3872 838 3872
z
M 1197 0
L 472 0
L 472 3200
L 1197 3200
L 1197 0
z
" transform="scale(0.015625)"/>
     <path id="SegoeUI-Semibold-20" transform="scale(0.015625)"/>
     <path id="SegoeUI-Semibold-6b" d="M 3375 0
L 2456 0
L 1213 1538
L 1200 1538
L 1200 0
L 472 0
L 472 4738
L 1200 4738
L 1200 1734
L 1213 1734
L 2388 3200
L 3259 3200
L 1938 1656
L 3375 0
z
" transform="scale(0.015625)"/>
     <path id="SegoeUI-Semibold-70" d="M 1209 472
L 1197 472
L 1197 -1472
L 472 -1472
L 472 3200
L 1197 3200
L 1197 2638
L 1209 2638
Q 1581 3275 2297 3275
Q 2906 3275 3247 2847
Q 3588 2419 3588 1697
Q 3588 897 3203 415
Q 2819 -66 2153 -66
Q 1541 -66 1209 472
z
M 1191 1734
L 1191 1338
Q 1191 988 1414 744
Q 1638 500 1981 500
Q 2384 500 2614 814
Q 2844 1128 2844 1691
Q 2844 2163 2630 2430
Q 2416 2697 2050 2697
Q 1663 2697 1427 2422
Q 1191 2147 1191 1734
z
" transform="scale(0.015625)"/>
     <path id="SegoeUI-Semibold-63" d="M 2763 147
Q 2378 -75 1853 -75
Q 1141 -75 703 370
Q 266 816 266 1525
Q 266 2316 736 2795
Q 1206 3275 1994 3275
Q 2431 3275 2766 3122
L 2766 2447
Q 2431 2697 2053 2697
Q 1594 2697 1300 2386
Q 1006 2075 1006 1572
Q 1006 1075 1282 787
Q 1559 500 2025 500
Q 2416 500 2763 778
L 2763 147
z
" transform="scale(0.015625)"/>
     <path id="SegoeUI-Semibold-6c" d="M 1200 0
L 472 0
L 472 4738
L 1200 4738
L 1200 0
z
" transform="scale(0.015625)"/>
     <path id="SegoeUI-Semibold-61" d="M 2928 0
L 2225 0
L 2225 500
L 2213 500
Q 1881 -75 1241 -75
Q 769 -75 501 181
Q 234 438 234 859
Q 234 1766 1278 1916
L 2228 2050
Q 2228 2734 1578 2734
Q 1006 2734 547 2341
L 547 2975
Q 1053 3275 1716 3275
Q 2928 3275 2928 2081
L 2928 0
z
M 2228 1572
L 1556 1478
Q 1244 1438 1086 1327
Q 928 1216 928 938
Q 928 734 1073 604
Q 1219 475 1463 475
Q 1794 475 2011 708
Q 2228 941 2228 1294
L 2228 1572
z
" transform="scale(0.015625)"/>
     <path id="SegoeUI-Semibold-6d" d="M 5256 0
L 4531 0
L 4531 1744
Q 4531 2247 4389 2472
Q 4247 2697 3909 2697
Q 3625 2697 3426 2412
Q 3228 2128 3228 1731
L 3228 0
L 2500 0
L 2500 1803
Q 2500 2697 1869 2697
Q 1575 2697 1386 2428
Q 1197 2159 1197 1731
L 1197 0
L 472 0
L 472 3200
L 1197 3200
L 1197 2694
L 1209 2694
Q 1556 3275 2219 3275
Q 2550 3275 2798 3092
Q 3047 2909 3138 2613
Q 3494 3275 4200 3275
Q 5256 3275 5256 1972
L 5256 0
z
" transform="scale(0.015625)"/>
     <path id="SegoeUI-Semibold-6f" d="M 1891 -75
Q 1150 -75 708 373
Q 266 822 266 1563
Q 266 2369 727 2822
Q 1188 3275 1969 3275
Q 2719 3275 3137 2834
Q 3556 2394 3556 1613
Q 3556 847 3104 386
Q 2653 -75 1891 -75
z
M 1925 2697
Q 1500 2697 1253 2400
Q 1006 2103 1006 1581
Q 1006 1078 1256 789
Q 1506 500 1925 500
Q 2353 500 2583 784
Q 2813 1069 2813 1594
Q 2813 2122 2583 2409
Q 2353 2697 1925 2697
z
" transform="scale(0.015625)"/>
     <path id="SegoeUI-Semibold-75" d="M 3263 0
L 2538 0
L 2538 506
L 2525 506
Q 2209 -75 1544 -75
Q 409 -75 409 1288
L 409 3200
L 1134 3200
L 1134 1363
Q 1134 500 1800 500
Q 2122 500 2330 737
Q 2538 975 2538 1359
L 2538 3200
L 3263 3200
L 3263 0
z
" transform="scale(0.015625)"/>
     <path id="SegoeUI-Semibold-64" d="M 3381 0
L 2656 0
L 2656 544
L 2644 544
Q 2294 -75 1566 -75
Q 975 -75 620 354
Q 266 784 266 1525
Q 266 2319 658 2797
Q 1050 3275 1703 3275
Q 2350 3275 2644 2756
L 2656 2756
L 2656 4738
L 3381 4738
L 3381 0
z
M 2666 1463
L 2666 1881
Q 2666 2222 2444 2459
Q 2222 2697 1878 2697
Q 1472 2697 1239 2394
Q 1006 2091 1006 1553
Q 1006 1066 1229 783
Q 1453 500 1831 500
Q 2203 500 2434 773
Q 2666 1047 2666 1463
z
" transform="scale(0.015625)"/>
     <path id="SegoeUI-Semibold-72" d="M 2328 2509
Q 2197 2613 1950 2613
Q 1628 2613 1412 2322
Q 1197 2031 1197 1531
L 1197 0
L 472 0
L 472 3200
L 1197 3200
L 1197 2541
L 1209 2541
Q 1316 2878 1536 3067
Q 1756 3256 2028 3256
Q 2225 3256 2328 3197
L 2328 2509
z
" transform="scale(0.015625)"/>
     <path id="SegoeUI-Semibold-76" d="M 3228 3200
L 1991 0
L 1206 0
L 28 3200
L 816 3200
L 1525 963
Q 1606 716 1625 531
L 1634 531
Q 1663 763 1722 950
L 2466 3200
L 3228 3200
z
" transform="scale(0.015625)"/>
     <path id="SegoeUI-Semibold-62" d="M 1209 463
L 1197 463
L 1197 0
L 472 0
L 472 4738
L 1197 4738
L 1197 2638
L 1209 2638
Q 1581 3275 2297 3275
Q 2903 3275 3245 2845
Q 3588 2416 3588 1694
Q 3588 891 3203 408
Q 2819 -75 2153 -75
Q 1528 -75 1209 463
z
M 1191 1734
L 1191 1338
Q 1191 988 1414 744
Q 1638 500 1981 500
Q 2384 500 2614 814
Q 2844 1128 2844 1691
Q 2844 2163 2630 2430
Q 2416 2697 2050 2697
Q 1663 2697 1427 2422
Q 1191 2147 1191 1734
z
" transform="scale(0.015625)"/>
    </defs>
    <use xlink:href="#SegoeUI-Semibold-53"/>
    <use xlink:href="#SegoeUI-Semibold-79" transform="translate(52.068359 0)"/>
    <use xlink:href="#SegoeUI-Semibold-6e" transform="translate(102.898438 0)"/>
    <use xlink:href="#SegoeUI-Semibold-74" transform="translate(161.248047 0)"/>
    <use xlink:href="#SegoeUI-Semibold-68" transform="translate(197.380859 0)"/>
    <use xlink:href="#SegoeUI-Semibold-65" transform="translate(255.583984 0)"/>
    <use xlink:href="#SegoeUI-Semibold-73" transform="translate(308.708984 0)"/>
    <use xlink:href="#SegoeUI-Semibold-69" transform="translate(351.824219 0)"/>
    <use xlink:href="#SegoeUI-Semibold-73" transform="translate(377.947266 0)"/>
    <use xlink:href="#SegoeUI-Semibold-20" transform="translate(421.0625 0)"/>
    <use xlink:href="#SegoeUI-Semibold-6b" transform="translate(448.552734 0)"/>
    <use xlink:href="#SegoeUI-Semibold-65" transform="translate(499.292969 0)"/>
    <use xlink:href="#SegoeUI-Semibold-65" transform="translate(552.417969 0)"/>
    <use xlink:href="#SegoeUI-Semibold-70" transform="translate(605.542969 0)"/>
    <use xlink:href="#SegoeUI-Semibold-73" transform="translate(665.796875 0)"/>
    <use xlink:href="#SegoeUI-Semibold-20" transform="translate(708.912109 0)"/>
    <use xlink:href="#SegoeUI-Semibold-63" transform="translate(736.402344 0)"/>
    <use xlink:href="#SegoeUI-Semibold-6c" transform="translate(783.423828 0)"/>
    <use xlink:href="#SegoeUI-Semibold-61" transform="translate(809.546875 0)"/>
    <use xlink:href="#SegoeUI-Semibold-69" transform="translate(861.744141 0)"/>
    <use xlink:href="#SegoeUI-Semibold-6d" transform="translate(887.867188 0)"/>
    <use xlink:href="#SegoeUI-Semibold-20" transform="translate(976.441406 0)"/>
    <use xlink:href="#SegoeUI-Semibold-63" transform="translate(1003.931641 0)"/>
    <use xlink:href="#SegoeUI-Semibold-6f" transform="translate(1050.953125 0)"/>
    <use xlink:href="#SegoeUI-Semibold-75" transform="translate(1110.669922 0)"/>
    <use xlink:href="#SegoeUI-Semibold-6e" transform="translate(1169.019531 0)"/>
    <use xlink:href="#SegoeUI-Semibold-74" transform="translate(1227.369141 0)"/>
    <use xlink:href="#SegoeUI-Semibold-73" transform="translate(1263.501953 0)"/>
    <use xlink:href="#SegoeUI-Semibold-20" transform="translate(1306.617188 0)"/>
    <use xlink:href="#SegoeUI-Semibold-61" transform="translate(1334.107422 0)"/>
    <use xlink:href="#SegoeUI-Semibold-6e" transform="translate(1386.304688 0)"/>
    <use xlink:href="#SegoeUI-Semibold-64" transform="translate(1444.654297 0)"/>
    <use xlink:href="#SegoeUI-Semibold-20" transform="translate(1504.908203 0)"/>
    <use xlink:href="#SegoeUI-Semibold-73" transform="translate(1532.398438 0)"/>
    <use xlink:href="#SegoeUI-Semibold-6f" transform="translate(1575.513672 0)"/>
    <use xlink:href="#SegoeUI-Semibold-75" transform="translate(1635.230469 0)"/>
    <use xlink:href="#SegoeUI-Semibold-72" transform="translate(1693.580078 0)"/>
    <use xlink:href="#SegoeUI-Semibold-63" transform="translate(1729.716797 0)"/>
    <use xlink:href="#SegoeUI-Semibold-65" transform="translate(1776.738281 0)"/>
    <use xlink:href="#SegoeUI-Semibold-20" transform="translate(1829.863281 0)"/>
    <use xlink:href="#SegoeUI-Semibold-64" transform="translate(1857.353516 0)"/>
    <use xlink:href="#SegoeUI-Semibold-65" transform="translate(1917.607422 0)"/>
    <use xlink:href="#SegoeUI-Semibold-70" transform="translate(1970.732422 0)"/>
    <use xlink:href="#SegoeUI-Semibold-74" transform="translate(2030.986328 0)"/>
    <use xlink:href="#SegoeUI-Semibold-68" transform="translate(2067.119141 0)"/>
    <use xlink:href="#SegoeUI-Semibold-20" transform="translate(2125.322266 0)"/>
    <use xlink:href="#SegoeUI-Semibold-76" transform="translate(2152.8125 0)"/>
    <use xlink:href="#SegoeUI-Semibold-69" transform="translate(2203.544922 0)"/>
    <use xlink:href="#SegoeUI-Semibold-73" transform="translate(2229.667969 0)"/>
    <use xlink:href="#SegoeUI-Semibold-69" transform="translate(2272.783203 0)"/>
    <use xlink:href="#SegoeUI-Semibold-62" transform="translate(2298.90625 0)"/>
    <use xlink:href="#SegoeUI-Semibold-6c" transform="translate(2359.160156 0)"/>
    <use xlink:href="#SegoeUI-Semibold-65" transform="translate(2385.283203 0)"/>
   </g>
  </g>
 </g>
 <defs>
  <clipPath id="p8dd45177c7">
   <rect x="200.495313" y="69.408" width="439.2" height="260.496"/>
  </clipPath>
 </defs>
</svg>
