<?xml version="1.0" encoding="utf-8" standalone="no"?>
<!DOCTYPE svg PUBLIC "-//W3C//DTD SVG 1.1//EN"
  "http://www.w3.org/Graphics/SVG/1.1/DTD/svg11.dtd">
<svg xmlns:xlink="http://www.w3.org/1999/xlink" width="810.46875pt" height="423.74625pt" viewBox="0 0 810.46875 423.74625" xmlns="http://www.w3.org/2000/svg" version="1.1">
 <metadata>
  <rdf:RDF xmlns:dc="http://purl.org/dc/elements/1.1/" xmlns:cc="http://creativecommons.org/ns#" xmlns:rdf="http://www.w3.org/1999/02/22-rdf-syntax-ns#">
   <cc:Work>
    <dc:type rdf:resource="http://purl.org/dc/dcmitype/StillImage"/>
    <dc:format>image/svg+xml</dc:format>
    <dc:creator>
     <cc:Agent>
      <dc:title>Matplotlib v3.10.8, https://matplotlib.org/</dc:title>
     </cc:Agent>
    </dc:creator>
   </cc:Work>
  </rdf:RDF>
 </metadata>
 <defs>
  <style type="text/css">*{stroke-linejoin: round; stroke-linecap: butt}</style>
 </defs>
 <g id="figure_1">
  <g id="patch_1">
   <path d="M 0 423.74625
L 810.46875 423.74625
L 810.46875 0
L 0 0
z
" style="fill: #ffffff"/>
  </g>
  <g id="axes_1">
   <g id="patch_2">
    <path d="M 51.58875 403.29
L 803.26875 403.29
L 803.26875 92.25
L 51.58875 92.25
z
" style="fill: #ffffff"/>
   </g>
   <g id="matplotlib.axis_1">
    <g id="xtick_1">
     <g id="text_1">
      <!-- dxy_ret -->
      <g style="fill: #6f768a" transform="translate(129.835469 414.193125) scale(0.1 -0.1)">
       <defs>
        <path id="SegoeUI-64" d="M 3250 0
L 2738 0
L 2738 544
L 2725 544
Q 2369 -75 1625 -75
Q 1022 -75 661 354
Q 300 784 300 1525
Q 300 2319 700 2797
Q 1100 3275 1766 3275
Q 2425 3275 2725 2756
L 2738 2756
L 2738 4738
L 3250 4738
L 3250 0
z
M 2738 1447
L 2738 1919
Q 2738 2306 2481 2575
Q 2225 2844 1831 2844
Q 1363 2844 1094 2500
Q 825 2156 825 1550
Q 825 997 1083 676
Q 1341 356 1775 356
Q 2203 356 2470 665
Q 2738 975 2738 1447
z
" transform="scale(0.015625)"/>
        <path id="SegoeUI-78" d="M 2856 3200
L 1781 1581
L 2838 0
L 2241 0
L 1613 1038
Q 1553 1134 1472 1281
L 1459 1281
Q 1444 1253 1313 1038
L 672 0
L 81 0
L 1172 1569
L 128 3200
L 725 3200
L 1344 2106
Q 1413 1984 1478 1856
L 1491 1856
L 2291 3200
L 2856 3200
z
" transform="scale(0.015625)"/>
        <path id="SegoeUI-79" d="M 3066 3200
L 1594 -513
Q 1200 -1506 488 -1506
Q 288 -1506 153 -1466
L 153 -1006
Q 319 -1063 456 -1063
Q 844 -1063 1038 -600
L 1294 6
L 44 3200
L 613 3200
L 1478 738
Q 1494 691 1544 494
L 1563 494
Q 1578 569 1625 731
L 2534 3200
L 3066 3200
z
" transform="scale(0.015625)"/>
        <path id="SegoeUI-5f" d="M 2656 -928
L 0 -928
L 0 -556
L 2656 -556
L 2656 -928
z
" transform="scale(0.015625)"/>
        <path id="SegoeUI-72" d="M 2188 2681
Q 2053 2784 1800 2784
Q 1472 2784 1251 2475
Q 1031 2166 1031 1631
L 1031 0
L 519 0
L 519 3200
L 1031 3200
L 1031 2541
L 1044 2541
Q 1153 2878 1378 3067
Q 1603 3256 1881 3256
Q 2081 3256 2188 3213
L 2188 2681
z
" transform="scale(0.015625)"/>
        <path id="SegoeUI-65" d="M 3091 1472
L 831 1472
Q 844 938 1119 647
Q 1394 356 1875 356
Q 2416 356 2869 713
L 2869 231
Q 2447 -75 1753 -75
Q 1075 -75 687 361
Q 300 797 300 1588
Q 300 2334 723 2804
Q 1147 3275 1775 3275
Q 2403 3275 2747 2869
Q 3091 2463 3091 1741
L 3091 1472
z
M 2566 1906
Q 2563 2350 2352 2597
Q 2141 2844 1766 2844
Q 1403 2844 1150 2584
Q 897 2325 838 1906
L 2566 1906
z
" transform="scale(0.015625)"/>
        <path id="SegoeUI-74" d="M 2003 31
Q 1822 -69 1525 -69
Q 684 -69 684 869
L 684 2763
L 134 2763
L 134 3200
L 684 3200
L 684 3981
L 1197 4147
L 1197 3200
L 2003 3200
L 2003 2763
L 1197 2763
L 1197 959
Q 1197 638 1306 500
Q 1416 363 1669 363
Q 1863 363 2003 469
L 2003 31
z
" transform="scale(0.015625)"/>
       </defs>
       <use xlink:href="#SegoeUI-64"/>
       <use xlink:href="#SegoeUI-78" transform="translate(58.886719 0)"/>
       <use xlink:href="#SegoeUI-79" transform="translate(104.785156 0)"/>
       <use xlink:href="#SegoeUI-5f" transform="translate(153.173828 0)"/>
       <use xlink:href="#SegoeUI-72" transform="translate(194.677734 0)"/>
       <use xlink:href="#SegoeUI-65" transform="translate(228.068359 0)"/>
       <use xlink:href="#SegoeUI-74" transform="translate(280.363281 0)"/>
      </g>
     </g>
    </g>
    <g id="xtick_2">
     <g id="text_2">
      <!-- qqq_ret -->
      <g style="fill: #6f768a" transform="translate(316.58125 414.193125) scale(0.1 -0.1)">
       <defs>
        <path id="SegoeUI-71" d="M 3250 -1472
L 2738 -1472
L 2738 550
L 2725 550
Q 2391 -75 1631 -75
Q 1028 -75 664 354
Q 300 784 300 1525
Q 300 2322 700 2798
Q 1100 3275 1775 3275
Q 2431 3275 2725 2756
L 2738 2756
L 2738 3200
L 3250 3200
L 3250 -1472
z
M 2738 1441
L 2738 1906
Q 2738 2300 2480 2572
Q 2222 2844 1825 2844
Q 1363 2844 1094 2501
Q 825 2159 825 1538
Q 825 984 1084 670
Q 1344 356 1753 356
Q 2203 356 2470 664
Q 2738 972 2738 1441
z
" transform="scale(0.015625)"/>
       </defs>
       <use xlink:href="#SegoeUI-71"/>
       <use xlink:href="#SegoeUI-71" transform="translate(58.886719 0)"/>
       <use xlink:href="#SegoeUI-71" transform="translate(117.773438 0)"/>
       <use xlink:href="#SegoeUI-5f" transform="translate(176.660156 0)"/>
       <use xlink:href="#SegoeUI-72" transform="translate(218.164062 0)"/>
       <use xlink:href="#SegoeUI-65" transform="translate(251.554688 0)"/>
       <use xlink:href="#SegoeUI-74" transform="translate(303.849609 0)"/>
      </g>
     </g>
    </g>
    <g id="xtick_3">
     <g id="text_3">
      <!-- spy_ret -->
      <g style="fill: #6f768a" transform="translate(505.853594 414.14) scale(0.1 -0.1)">
       <defs>
        <path id="SegoeUI-73" d="M 325 116
L 325 666
Q 744 356 1247 356
Q 1922 356 1922 806
Q 1922 934 1864 1023
Q 1806 1113 1707 1181
Q 1609 1250 1476 1304
Q 1344 1359 1191 1419
Q 978 1503 817 1589
Q 656 1675 548 1783
Q 441 1891 386 2028
Q 331 2166 331 2350
Q 331 2575 434 2748
Q 538 2922 709 3039
Q 881 3156 1101 3215
Q 1322 3275 1556 3275
Q 1972 3275 2300 3131
L 2300 2613
Q 1947 2844 1488 2844
Q 1344 2844 1228 2811
Q 1113 2778 1030 2718
Q 947 2659 901 2576
Q 856 2494 856 2394
Q 856 2269 901 2184
Q 947 2100 1034 2034
Q 1122 1969 1247 1916
Q 1372 1863 1531 1800
Q 1744 1719 1912 1633
Q 2081 1547 2200 1439
Q 2319 1331 2383 1190
Q 2447 1050 2447 856
Q 2447 619 2342 444
Q 2238 269 2063 153
Q 1888 38 1659 -18
Q 1431 -75 1181 -75
Q 688 -75 325 116
z
" transform="scale(0.015625)"/>
        <path id="SegoeUI-70" d="M 1044 463
L 1031 463
L 1031 -1472
L 519 -1472
L 519 3200
L 1031 3200
L 1031 2638
L 1044 2638
Q 1422 3275 2150 3275
Q 2769 3275 3116 2845
Q 3463 2416 3463 1694
Q 3463 891 3072 408
Q 2681 -75 2003 -75
Q 1381 -75 1044 463
z
M 1031 1753
L 1031 1306
Q 1031 909 1289 632
Q 1547 356 1944 356
Q 2409 356 2673 712
Q 2938 1069 2938 1703
Q 2938 2238 2691 2541
Q 2444 2844 2022 2844
Q 1575 2844 1303 2533
Q 1031 2222 1031 1753
z
" transform="scale(0.015625)"/>
       </defs>
       <use xlink:href="#SegoeUI-73"/>
       <use xlink:href="#SegoeUI-70" transform="translate(42.431641 0)"/>
       <use xlink:href="#SegoeUI-79" transform="translate(101.220703 0)"/>
       <use xlink:href="#SegoeUI-5f" transform="translate(149.609375 0)"/>
       <use xlink:href="#SegoeUI-72" transform="translate(191.113281 0)"/>
       <use xlink:href="#SegoeUI-65" transform="translate(224.503906 0)"/>
       <use xlink:href="#SegoeUI-74" transform="translate(276.798828 0)"/>
      </g>
     </g>
    </g>
    <g id="xtick_4">
     <g id="text_4">
      <!-- vix_d1 -->
      <g style="fill: #6f768a" transform="translate(695.692344 414.193125) scale(0.1 -0.1)">
       <defs>
        <path id="SegoeUI-76" d="M 3034 3200
L 1759 0
L 1256 0
L 44 3200
L 606 3200
L 1419 875
Q 1509 619 1531 428
L 1544 428
Q 1575 669 1644 863
L 2494 3200
L 3034 3200
z
" transform="scale(0.015625)"/>
        <path id="SegoeUI-69" d="M 781 4013
Q 644 4013 547 4106
Q 450 4200 450 4344
Q 450 4488 547 4583
Q 644 4678 781 4678
Q 922 4678 1020 4583
Q 1119 4488 1119 4344
Q 1119 4206 1020 4109
Q 922 4013 781 4013
z
M 1031 0
L 519 0
L 519 3200
L 1031 3200
L 1031 0
z
" transform="scale(0.015625)"/>
        <path id="SegoeUI-31" d="M 2263 0
L 1750 0
L 1750 3872
Q 1691 3813 1577 3736
Q 1463 3659 1320 3584
Q 1178 3509 1020 3443
Q 863 3378 713 3341
L 713 3859
Q 881 3906 1070 3986
Q 1259 4066 1442 4164
Q 1625 4263 1787 4370
Q 1950 4478 2069 4581
L 2263 4581
L 2263 0
z
" transform="scale(0.015625)"/>
       </defs>
       <use xlink:href="#SegoeUI-76"/>
       <use xlink:href="#SegoeUI-69" transform="translate(47.900391 0)"/>
       <use xlink:href="#SegoeUI-78" transform="translate(72.119141 0)"/>
       <use xlink:href="#SegoeUI-5f" transform="translate(118.017578 0)"/>
       <use xlink:href="#SegoeUI-64" transform="translate(159.521484 0)"/>
       <use xlink:href="#SegoeUI-31" transform="translate(218.408203 0)"/>
      </g>
     </g>
    </g>
   </g>
   <g id="matplotlib.axis_2">
    <g id="ytick_1">
     <g id="line2d_1">
      <path d="M 51.58875 387.019289
L 803.26875 387.019289
" clip-path="url(#pc04e31b2e1)" style="fill: none; stroke: #e8ebf2; stroke-width: 0.8; stroke-linecap: round"/>
     </g>
     <g id="text_5">
      <!-- −0.25 -->
      <g style="fill: #6f768a" transform="translate(22.9075 390.720851) scale(0.1 -0.1)">
       <defs>
        <path id="SegoeUI-2212" d="M 3663 1656
L 725 1656
L 725 2075
L 3663 2075
L 3663 1656
z
" transform="scale(0.015625)"/>
        <path id="SegoeUI-30" d="M 3188 2259
Q 3188 1697 3086 1262
Q 2984 828 2792 529
Q 2600 231 2320 76
Q 2041 -78 1684 -78
Q 1347 -78 1083 70
Q 819 219 637 503
Q 456 788 362 1202
Q 269 1616 269 2150
Q 269 2738 367 3188
Q 466 3638 656 3942
Q 847 4247 1130 4401
Q 1413 4556 1778 4556
Q 3188 4556 3188 2259
z
M 2663 2209
Q 2663 4122 1753 4122
Q 794 4122 794 2175
Q 794 359 1734 359
Q 2663 359 2663 2209
z
" transform="scale(0.015625)"/>
        <path id="SegoeUI-2e" d="M 697 -69
Q 553 -69 451 34
Q 350 138 350 281
Q 350 425 451 529
Q 553 634 697 634
Q 844 634 947 529
Q 1050 425 1050 281
Q 1050 138 947 34
Q 844 -69 697 -69
z
" transform="scale(0.015625)"/>
        <path id="SegoeUI-32" d="M 2413 3306
Q 2413 3513 2348 3666
Q 2284 3819 2173 3920
Q 2063 4022 1913 4072
Q 1763 4122 1588 4122
Q 1438 4122 1294 4081
Q 1150 4041 1014 3969
Q 878 3897 751 3797
Q 625 3697 516 3575
L 516 4125
Q 731 4334 998 4445
Q 1266 4556 1650 4556
Q 1925 4556 2159 4476
Q 2394 4397 2566 4244
Q 2738 4091 2836 3866
Q 2934 3641 2934 3350
Q 2934 3084 2873 2868
Q 2813 2653 2689 2462
Q 2566 2272 2378 2097
Q 2191 1922 1938 1741
Q 1622 1516 1417 1356
Q 1213 1197 1092 1058
Q 972 919 923 780
Q 875 641 875 459
L 3106 459
L 3106 0
L 341 0
L 341 222
Q 341 509 403 728
Q 466 947 609 1144
Q 753 1341 986 1537
Q 1219 1734 1556 1981
Q 1800 2156 1964 2315
Q 2128 2475 2228 2634
Q 2328 2794 2370 2958
Q 2413 3122 2413 3306
z
" transform="scale(0.015625)"/>
        <path id="SegoeUI-35" d="M 3028 1369
Q 3028 1041 2915 775
Q 2803 509 2595 318
Q 2388 128 2094 25
Q 1800 -78 1441 -78
Q 816 -78 513 109
L 513 653
Q 969 359 1447 359
Q 1691 359 1886 431
Q 2081 503 2218 631
Q 2356 759 2429 940
Q 2503 1122 2503 1338
Q 2503 1775 2209 2023
Q 1916 2272 1356 2272
Q 1266 2272 1166 2269
Q 1066 2266 966 2261
Q 866 2256 770 2250
Q 675 2244 597 2234
L 750 4481
L 2822 4481
L 2822 4019
L 1194 4019
L 1103 2703
Q 1203 2709 1315 2714
Q 1428 2719 1516 2719
Q 1872 2719 2153 2625
Q 2434 2531 2629 2357
Q 2825 2184 2926 1932
Q 3028 1681 3028 1369
z
" transform="scale(0.015625)"/>
       </defs>
       <use xlink:href="#SegoeUI-2212"/>
       <use xlink:href="#SegoeUI-30" transform="translate(68.408203 0)"/>
       <use xlink:href="#SegoeUI-2e" transform="translate(122.314453 0)"/>
       <use xlink:href="#SegoeUI-32" transform="translate(143.994141 0)"/>
       <use xlink:href="#SegoeUI-35" transform="translate(197.900391 0)"/>
      </g>
     </g>
    </g>
    <g id="ytick_2">
     <g id="line2d_2">
      <path d="M 51.58875 348.058964
L 803.26875 348.058964
" clip-path="url(#pc04e31b2e1)" style="fill: none; stroke: #e8ebf2; stroke-width: 0.8; stroke-linecap: round"/>
     </g>
     <g id="text_6">
      <!-- 0.00 -->
      <g style="fill: #6f768a" transform="translate(29.748125 351.760526) scale(0.1 -0.1)">
       <use xlink:href="#SegoeUI-30"/>
       <use xlink:href="#SegoeUI-2e" transform="translate(53.90625 0)"/>
       <use xlink:href="#SegoeUI-30" transform="translate(75.585938 0)"/>
       <use xlink:href="#SegoeUI-30" transform="translate(129.492188 0)"/>
      </g>
     </g>
    </g>
    <g id="ytick_3">
     <g id="line2d_3">
      <path d="M 51.58875 309.098639
L 803.26875 309.098639
" clip-path="url(#pc04e31b2e1)" style="fill: none; stroke: #e8ebf2; stroke-width: 0.8; stroke-linecap: round"/>
     </g>
     <g id="text_7">
      <!-- 0.25 -->
      <g style="fill: #6f768a" transform="translate(29.748125 312.800201) scale(0.1 -0.1)">
       <use xlink:href="#SegoeUI-30"/>
       <use xlink:href="#SegoeUI-2e" transform="translate(53.90625 0)"/>
       <use xlink:href="#SegoeUI-32" transform="translate(75.585938 0)"/>
       <use xlink:href="#SegoeUI-35" transform="translate(129.492188 0)"/>
      </g>
     </g>
    </g>
    <g id="ytick_4">
     <g id="line2d_4">
      <path d="M 51.58875 270.138314
L 803.26875 270.138314
" clip-path="url(#pc04e31b2e1)" style="fill: none; stroke: #e8ebf2; stroke-width: 0.8; stroke-linecap: round"/>
     </g>
     <g id="text_8">
      <!-- 0.50 -->
      <g style="fill: #6f768a" transform="translate(29.748125 273.839876) scale(0.1 -0.1)">
       <use xlink:href="#SegoeUI-30"/>
       <use xlink:href="#SegoeUI-2e" transform="translate(53.90625 0)"/>
       <use xlink:href="#SegoeUI-35" transform="translate(75.585938 0)"/>
       <use xlink:href="#SegoeUI-30" transform="translate(129.492188 0)"/>
      </g>
     </g>
    </g>
    <g id="ytick_5">
     <g id="line2d_5">
      <path d="M 51.58875 231.177989
L 803.26875 231.177989
" clip-path="url(#pc04e31b2e1)" style="fill: none; stroke: #e8ebf2; stroke-width: 0.8; stroke-linecap: round"/>
     </g>
     <g id="text_9">
      <!-- 0.75 -->
      <g style="fill: #6f768a" transform="translate(29.748125 234.879551) scale(0.1 -0.1)">
       <defs>
        <path id="SegoeUI-37" d="M 3156 4184
Q 3053 4006 2908 3740
Q 2763 3475 2600 3144
Q 2438 2813 2269 2431
Q 2100 2050 1953 1644
Q 1806 1238 1695 820
Q 1584 403 1534 0
L 984 0
Q 1041 400 1158 817
Q 1275 1234 1423 1636
Q 1572 2038 1737 2409
Q 1903 2781 2059 3093
Q 2216 3406 2345 3645
Q 2475 3884 2553 4019
L 306 4019
L 306 4481
L 3156 4481
L 3156 4184
z
" transform="scale(0.015625)"/>
       </defs>
       <use xlink:href="#SegoeUI-30"/>
       <use xlink:href="#SegoeUI-2e" transform="translate(53.90625 0)"/>
       <use xlink:href="#SegoeUI-37" transform="translate(75.585938 0)"/>
       <use xlink:href="#SegoeUI-35" transform="translate(129.492188 0)"/>
      </g>
     </g>
    </g>
    <g id="ytick_6">
     <g id="line2d_6">
      <path d="M 51.58875 192.217664
L 803.26875 192.217664
" clip-path="url(#pc04e31b2e1)" style="fill: none; stroke: #e8ebf2; stroke-width: 0.8; stroke-linecap: round"/>
     </g>
     <g id="text_10">
      <!-- 1.00 -->
      <g style="fill: #6f768a" transform="translate(29.748125 195.919226) scale(0.1 -0.1)">
       <use xlink:href="#SegoeUI-31"/>
       <use xlink:href="#SegoeUI-2e" transform="translate(53.90625 0)"/>
       <use xlink:href="#SegoeUI-30" transform="translate(75.585938 0)"/>
       <use xlink:href="#SegoeUI-30" transform="translate(129.492188 0)"/>
      </g>
     </g>
    </g>
    <g id="ytick_7">
     <g id="line2d_7">
      <path d="M 51.58875 153.257339
L 803.26875 153.257339
" clip-path="url(#pc04e31b2e1)" style="fill: none; stroke: #e8ebf2; stroke-width: 0.8; stroke-linecap: round"/>
     </g>
     <g id="text_11">
      <!-- 1.25 -->
      <g style="fill: #6f768a" transform="translate(29.748125 156.958901) scale(0.1 -0.1)">
       <use xlink:href="#SegoeUI-31"/>
       <use xlink:href="#SegoeUI-2e" transform="translate(53.90625 0)"/>
       <use xlink:href="#SegoeUI-32" transform="translate(75.585938 0)"/>
       <use xlink:href="#SegoeUI-35" transform="translate(129.492188 0)"/>
      </g>
     </g>
    </g>
    <g id="ytick_8">
     <g id="line2d_8">
      <path d="M 51.58875 114.297014
L 803.26875 114.297014
" clip-path="url(#pc04e31b2e1)" style="fill: none; stroke: #e8ebf2; stroke-width: 0.8; stroke-linecap: round"/>
     </g>
     <g id="text_12">
      <!-- 1.50 -->
      <g style="fill: #6f768a" transform="translate(29.748125 117.998576) scale(0.1 -0.1)">
       <use xlink:href="#SegoeUI-31"/>
       <use xlink:href="#SegoeUI-2e" transform="translate(53.90625 0)"/>
       <use xlink:href="#SegoeUI-35" transform="translate(75.585938 0)"/>
       <use xlink:href="#SegoeUI-30" transform="translate(129.492188 0)"/>
      </g>
     </g>
    </g>
    <g id="text_13">
     <!-- Median rolling beta -->
     <g style="fill: #1f2430" transform="translate(16.08375 299.57625) rotate(-90) scale(0.12 -0.12)">
      <defs>
       <path id="SegoeUI-4d" d="M 5156 0
L 4634 0
L 4634 3006
Q 4634 3363 4678 3878
L 4666 3878
Q 4591 3575 4531 3444
L 3000 0
L 2744 0
L 1216 3419
Q 1150 3569 1081 3878
L 1069 3878
Q 1094 3609 1094 3000
L 1094 0
L 588 0
L 588 4481
L 1281 4481
L 2656 1356
Q 2816 997 2863 819
L 2881 819
Q 3016 1188 3097 1369
L 4500 4481
L 5156 4481
L 5156 0
z
" transform="scale(0.015625)"/>
       <path id="SegoeUI-61" d="M 2809 0
L 2297 0
L 2297 500
L 2284 500
Q 1950 -75 1300 -75
Q 822 -75 551 178
Q 281 431 281 850
Q 281 1747 1338 1894
L 2297 2028
Q 2297 2844 1638 2844
Q 1059 2844 594 2450
L 594 2975
Q 1066 3275 1681 3275
Q 2809 3275 2809 2081
L 2809 0
z
M 2297 1619
L 1525 1513
Q 1169 1463 987 1336
Q 806 1209 806 888
Q 806 653 973 504
Q 1141 356 1419 356
Q 1800 356 2048 623
Q 2297 891 2297 1300
L 2297 1619
z
" transform="scale(0.015625)"/>
       <path id="SegoeUI-6e" d="M 3175 0
L 2663 0
L 2663 1825
Q 2663 2844 1919 2844
Q 1534 2844 1282 2555
Q 1031 2266 1031 1825
L 1031 0
L 519 0
L 519 3200
L 1031 3200
L 1031 2669
L 1044 2669
Q 1406 3275 2094 3275
Q 2619 3275 2897 2936
Q 3175 2597 3175 1956
L 3175 0
z
" transform="scale(0.015625)"/>
       <path id="SegoeUI-20" transform="scale(0.015625)"/>
       <path id="SegoeUI-6f" d="M 1856 -75
Q 1147 -75 723 373
Q 300 822 300 1563
Q 300 2369 740 2822
Q 1181 3275 1931 3275
Q 2647 3275 3048 2834
Q 3450 2394 3450 1613
Q 3450 847 3017 386
Q 2584 -75 1856 -75
z
M 1894 2844
Q 1400 2844 1112 2508
Q 825 2172 825 1581
Q 825 1013 1115 684
Q 1406 356 1894 356
Q 2391 356 2658 678
Q 2925 1000 2925 1594
Q 2925 2194 2658 2519
Q 2391 2844 1894 2844
z
" transform="scale(0.015625)"/>
       <path id="SegoeUI-6c" d="M 1031 0
L 519 0
L 519 4738
L 1031 4738
L 1031 0
z
" transform="scale(0.015625)"/>
       <path id="SegoeUI-67" d="M 3250 256
Q 3250 -1506 1563 -1506
Q 969 -1506 525 -1281
L 525 -769
Q 1066 -1069 1556 -1069
Q 2738 -1069 2738 188
L 2738 538
L 2725 538
Q 2359 -75 1625 -75
Q 1028 -75 664 351
Q 300 778 300 1497
Q 300 2313 692 2794
Q 1084 3275 1766 3275
Q 2413 3275 2725 2756
L 2738 2756
L 2738 3200
L 3250 3200
L 3250 256
z
M 2738 1447
L 2738 1919
Q 2738 2300 2480 2572
Q 2222 2844 1838 2844
Q 1363 2844 1094 2498
Q 825 2153 825 1531
Q 825 997 1083 676
Q 1341 356 1766 356
Q 2197 356 2467 662
Q 2738 969 2738 1447
z
" transform="scale(0.015625)"/>
       <path id="SegoeUI-62" d="M 1044 463
L 1031 463
L 1031 0
L 519 0
L 519 4738
L 1031 4738
L 1031 2638
L 1044 2638
Q 1422 3275 2150 3275
Q 2766 3275 3114 2845
Q 3463 2416 3463 1694
Q 3463 891 3072 408
Q 2681 -75 2003 -75
Q 1369 -75 1044 463
z
M 1031 1753
L 1031 1306
Q 1031 909 1289 632
Q 1547 356 1944 356
Q 2409 356 2673 712
Q 2938 1069 2938 1703
Q 2938 2238 2691 2541
Q 2444 2844 2022 2844
Q 1575 2844 1303 2533
Q 1031 2222 1031 1753
z
" transform="scale(0.015625)"/>
      </defs>
      <use xlink:href="#SegoeUI-4d"/>
      <use xlink:href="#SegoeUI-65" transform="translate(89.794922 0)"/>
      <use xlink:href="#SegoeUI-64" transform="translate(142.089844 0)"/>
      <use xlink:href="#SegoeUI-69" transform="translate(200.976562 0)"/>
      <use xlink:href="#SegoeUI-61" transform="translate(225.195312 0)"/>
      <use xlink:href="#SegoeUI-6e" transform="translate(276.074219 0)"/>
      <use xlink:href="#SegoeUI-20" transform="translate(332.666016 0)"/>
      <use xlink:href="#SegoeUI-72" transform="translate(360.058594 0)"/>
      <use xlink:href="#SegoeUI-6f" transform="translate(393.449219 0)"/>
      <use xlink:href="#SegoeUI-6c" transform="translate(452.042969 0)"/>
      <use xlink:href="#SegoeUI-6c" transform="translate(476.261719 0)"/>
      <use xlink:href="#SegoeUI-69" transform="translate(500.480469 0)"/>
      <use xlink:href="#SegoeUI-6e" transform="translate(524.699219 0)"/>
      <use xlink:href="#SegoeUI-67" transform="translate(581.291016 0)"/>
      <use xlink:href="#SegoeUI-20" transform="translate(640.177734 0)"/>
      <use xlink:href="#SegoeUI-62" transform="translate(667.570312 0)"/>
      <use xlink:href="#SegoeUI-65" transform="translate(726.359375 0)"/>
      <use xlink:href="#SegoeUI-74" transform="translate(778.654297 0)"/>
      <use xlink:href="#SegoeUI-61" transform="translate(812.541016 0)"/>
     </g>
    </g>
   </g>
   <g id="patch_3">
    <path d="M 70.38075 348.058964
L 145.54875 348.058964
L 145.54875 380.557769
L 70.38075 380.557769
z
" clip-path="url(#pc04e31b2e1)" style="fill: #e09e7e; stroke: #ffffff; stroke-linejoin: miter"/>
   </g>
   <g id="patch_4">
    <path d="M 258.30075 348.058964
L 333.46875 348.058964
L 333.46875 205.967385
L 258.30075 205.967385
z
" clip-path="url(#pc04e31b2e1)" style="fill: #e09e7e; stroke: #ffffff; stroke-linejoin: miter"/>
   </g>
   <g id="patch_5">
    <path d="M 446.22075 348.058964
L 521.38875 348.058964
L 521.38875 156.136269
L 446.22075 156.136269
z
" clip-path="url(#pc04e31b2e1)" style="fill: #e09e7e; stroke: #ffffff; stroke-linejoin: miter"/>
   </g>
   <g id="patch_6">
    <path d="M 634.14075 348.058964
L 709.30875 348.058964
L 709.30875 349.089899
L 634.14075 349.089899
z
" clip-path="url(#pc04e31b2e1)" style="fill: #e09e7e; stroke: #ffffff; stroke-linejoin: miter"/>
   </g>
   <g id="patch_7">
    <path d="M 145.54875 348.058964
L 220.71675 348.058964
L 220.71675 389.151818
L 145.54875 389.151818
z
" clip-path="url(#pc04e31b2e1)" style="fill: #627cb6; stroke: #ffffff; stroke-linejoin: miter"/>
   </g>
   <g id="patch_8">
    <path d="M 333.46875 348.058964
L 408.63675 348.058964
L 408.63675 153.361716
L 333.46875 153.361716
z
" clip-path="url(#pc04e31b2e1)" style="fill: #627cb6; stroke: #ffffff; stroke-linejoin: miter"/>
   </g>
   <g id="patch_9">
    <path d="M 521.38875 348.058964
L 596.55675 348.058964
L 596.55675 106.388182
L 521.38875 106.388182
z
" clip-path="url(#pc04e31b2e1)" style="fill: #627cb6; stroke: #ffffff; stroke-linejoin: miter"/>
   </g>
   <g id="patch_10">
    <path d="M 709.30875 348.058964
L 784.47675 348.058964
L 784.47675 349.40634
L 709.30875 349.40634
z
" clip-path="url(#pc04e31b2e1)" style="fill: #627cb6; stroke: #ffffff; stroke-linejoin: miter"/>
   </g>
   <g id="patch_11">
    <path d="M 145.54875 348.058964
L 145.54875 348.058964
L 145.54875 348.058964
L 145.54875 348.058964
z
" clip-path="url(#pc04e31b2e1)" style="fill: #e09e7e; stroke: #ffffff; stroke-linejoin: miter"/>
   </g>
   <g id="patch_12">
    <path d="M 145.54875 348.058964
L 145.54875 348.058964
L 145.54875 348.058964
L 145.54875 348.058964
z
" clip-path="url(#pc04e31b2e1)" style="fill: #627cb6; stroke: #ffffff; stroke-linejoin: miter"/>
   </g>
   <g id="line2d_9">
    <path clip-path="url(#pc04e31b2e1)" style="fill: none; stroke: #424242; stroke-width: 2.25; stroke-linecap: round"/>
   </g>
   <g id="line2d_10">
    <path clip-path="url(#pc04e31b2e1)" style="fill: none; stroke: #424242; stroke-width: 2.25; stroke-linecap: round"/>
   </g>
   <g id="line2d_11">
    <path clip-path="url(#pc04e31b2e1)" style="fill: none; stroke: #424242; stroke-width: 2.25; stroke-linecap: round"/>
   </g>
   <g id="line2d_12">
    <path clip-path="url(#pc04e31b2e1)" style="fill: none; stroke: #424242; stroke-width: 2.25; stroke-linecap: round"/>
   </g>
   <g id="line2d_13">
    <path clip-path="url(#pc04e31b2e1)" style="fill: none; stroke: #424242; stroke-width: 2.25; stroke-linecap: round"/>
   </g>
   <g id="line2d_14">
    <path clip-path="url(#pc04e31b2e1)" style="fill: none; stroke: #424242; stroke-width: 2.25; stroke-linecap: round"/>
   </g>
   <g id="line2d_15">
    <path clip-path="url(#pc04e31b2e1)" style="fill: none; stroke: #424242; stroke-width: 2.25; stroke-linecap: round"/>
   </g>
   <g id="line2d_16">
    <path clip-path="url(#pc04e31b2e1)" style="fill: none; stroke: #424242; stroke-width: 2.25; stroke-linecap: round"/>
   </g>
   <g id="line2d_17">
    <path d="M 51.58875 348.058964
L 803.26875 348.058964
" clip-path="url(#pc04e31b2e1)" style="fill: none; stroke: #d7dbe7; stroke-linecap: round"/>
   </g>
   <g id="patch_13">
    <path d="M 51.58875 403.29
L 51.58875 92.25
" style="fill: none; stroke: #d7dbe7; stroke-width: 1.25; stroke-linejoin: miter; stroke-linecap: square"/>
   </g>
   <g id="patch_14">
    <path d="M 51.58875 403.29
L 803.26875 403.29
" style="fill: none; stroke: #d7dbe7; stroke-width: 1.25; stroke-linejoin: miter; stroke-linecap: square"/>
   </g>
   <g id="legend_1">
    <g id="patch_15">
     <path d="M 746.845312 146.3
L 796.26875 146.3
Q 798.26875 146.3 798.26875 144.3
L 798.26875 99.25
Q 798.26875 97.25 796.26875 97.25
L 746.845312 97.25
Q 744.845312 97.25 744.845312 99.25
L 744.845312 144.3
Q 744.845312 146.3 746.845312 146.3
L 746.845312 146.3
z
" style="fill: none; opacity: 0"/>
    </g>
    <g id="text_14">
     <!-- asset -->
     <g style="fill: #1f2430" transform="translate(758.240781 110.13375) scale(0.12 -0.12)">
      <use xlink:href="#SegoeUI-61"/>
      <use xlink:href="#SegoeUI-73" transform="translate(50.878906 0)"/>
      <use xlink:href="#SegoeUI-73" transform="translate(93.310547 0)"/>
      <use xlink:href="#SegoeUI-65" transform="translate(135.742188 0)"/>
      <use xlink:href="#SegoeUI-74" transform="translate(188.037109 0)"/>
     </g>
    </g>
    <g id="patch_16">
     <path d="M 748.845312 125.296875
L 768.845312 125.296875
L 768.845312 118.296875
L 748.845312 118.296875
z
" style="fill: #e09e7e; stroke: #ffffff; stroke-linejoin: miter"/>
    </g>
    <g id="text_15">
     <!-- BTC -->
     <g style="fill: #1f2430" transform="translate(776.845312 125.296875) scale(0.1 -0.1)">
      <defs>
       <path id="SegoeUI-42" d="M 588 0
L 588 4481
L 1863 4481
Q 2444 4481 2784 4197
Q 3125 3913 3125 3456
Q 3125 3075 2919 2794
Q 2713 2513 2350 2394
L 2350 2381
Q 2803 2328 3075 2039
Q 3347 1750 3347 1288
Q 3347 713 2934 356
Q 2522 0 1894 0
L 588 0
z
M 1113 4006
L 1113 2559
L 1650 2559
Q 2081 2559 2328 2767
Q 2575 2975 2575 3353
Q 2575 4006 1716 4006
L 1113 4006
z
M 1113 2088
L 1113 475
L 1825 475
Q 2288 475 2542 694
Q 2797 913 2797 1294
Q 2797 2088 1716 2088
L 1113 2088
z
" transform="scale(0.015625)"/>
       <path id="SegoeUI-54" d="M 3238 4006
L 1944 4006
L 1944 0
L 1419 0
L 1419 4006
L 128 4006
L 128 4481
L 3238 4481
L 3238 4006
z
" transform="scale(0.015625)"/>
       <path id="SegoeUI-43" d="M 3638 188
Q 3141 -75 2400 -75
Q 1444 -75 869 540
Q 294 1156 294 2156
Q 294 3231 941 3893
Q 1588 4556 2581 4556
Q 3219 4556 3638 4372
L 3638 3813
Q 3156 4081 2575 4081
Q 1803 4081 1323 3565
Q 844 3050 844 2188
Q 844 1369 1292 883
Q 1741 397 2469 397
Q 3144 397 3638 697
L 3638 188
z
" transform="scale(0.015625)"/>
      </defs>
      <use xlink:href="#SegoeUI-42"/>
      <use xlink:href="#SegoeUI-54" transform="translate(52.824219 0)"/>
      <use xlink:href="#SegoeUI-43" transform="translate(100.716797 0)"/>
     </g>
    </g>
    <g id="patch_17">
     <path d="M 748.845312 140
L 768.845312 140
L 768.845312 133
L 748.845312 133
z
" style="fill: #627cb6; stroke: #ffffff; stroke-linejoin: miter"/>
    </g>
    <g id="text_16">
     <!-- ETH -->
     <g style="fill: #1f2430" transform="translate(776.845312 140) scale(0.1 -0.1)">
      <defs>
       <path id="SegoeUI-45" d="M 2963 0
L 588 0
L 588 4481
L 2863 4481
L 2863 4006
L 1113 4006
L 1113 2516
L 2731 2516
L 2731 2044
L 1113 2044
L 1113 475
L 2963 475
L 2963 0
z
" transform="scale(0.015625)"/>
       <path id="SegoeUI-48" d="M 3956 0
L 3431 0
L 3431 2044
L 1113 2044
L 1113 0
L 588 0
L 588 4481
L 1113 4481
L 1113 2516
L 3431 2516
L 3431 4481
L 3956 4481
L 3956 0
z
" transform="scale(0.015625)"/>
      </defs>
      <use xlink:href="#SegoeUI-45"/>
      <use xlink:href="#SegoeUI-54" transform="translate(50.835938 0)"/>
      <use xlink:href="#SegoeUI-48" transform="translate(103.228516 0)"/>
     </g>
    </g>
   </g>
  </g>
  <g id="text_17">
   <!-- Rolling TradFi beta is time-varying -->
   <g style="fill: #1f2430" transform="translate(25.66875 19.045) scale(0.16 -0.16)">
    <defs>
     <path id="SegoeUI-Semibold-52" d="M 4016 0
L 3147 0
L 2431 1200
Q 2334 1366 2242 1483
Q 2150 1600 2054 1675
Q 1959 1750 1846 1784
Q 1734 1819 1594 1819
L 1294 1819
L 1294 0
L 553 0
L 553 4481
L 2028 4481
Q 2344 4481 2609 4406
Q 2875 4331 3072 4179
Q 3269 4028 3380 3801
Q 3491 3575 3491 3272
Q 3491 3034 3420 2836
Q 3350 2638 3220 2483
Q 3091 2328 2908 2218
Q 2725 2109 2497 2050
L 2497 2038
Q 2619 1969 2709 1886
Q 2800 1803 2881 1715
Q 2963 1628 3042 1517
Q 3122 1406 3219 1259
L 4016 0
z
M 1294 3878
L 1294 2422
L 1913 2422
Q 2084 2422 2229 2475
Q 2375 2528 2481 2628
Q 2588 2728 2647 2872
Q 2706 3016 2706 3194
Q 2706 3516 2503 3697
Q 2300 3878 1919 3878
L 1294 3878
z
" transform="scale(0.015625)"/>
     <path id="SegoeUI-Semibold-6f" d="M 1891 -75
Q 1150 -75 708 373
Q 266 822 266 1563
Q 266 2369 727 2822
Q 1188 3275 1969 3275
Q 2719 3275 3137 2834
Q 3556 2394 3556 1613
Q 3556 847 3104 386
Q 2653 -75 1891 -75
z
M 1925 2697
Q 1500 2697 1253 2400
Q 1006 2103 1006 1581
Q 1006 1078 1256 789
Q 1506 500 1925 500
Q 2353 500 2583 784
Q 2813 1069 2813 1594
Q 2813 2122 2583 2409
Q 2353 2697 1925 2697
z
" transform="scale(0.015625)"/>
     <path id="SegoeUI-Semibold-6c" d="M 1200 0
L 472 0
L 472 4738
L 1200 4738
L 1200 0
z
" transform="scale(0.015625)"/>
     <path id="SegoeUI-Semibold-69" d="M 838 3872
Q 659 3872 532 3987
Q 406 4103 406 4281
Q 406 4459 532 4578
Q 659 4697 838 4697
Q 1022 4697 1150 4578
Q 1278 4459 1278 4281
Q 1278 4113 1150 3992
Q 1022 3872 838 3872
z
M 1197 0
L 472 0
L 472 3200
L 1197 3200
L 1197 0
z
" transform="scale(0.015625)"/>
     <path id="SegoeUI-Semibold-6e" d="M 3322 0
L 2597 0
L 2597 1803
Q 2597 2700 1963 2700
Q 1631 2700 1415 2451
Q 1200 2203 1200 1825
L 1200 0
L 472 0
L 472 3200
L 1200 3200
L 1200 2669
L 1213 2669
Q 1572 3275 2250 3275
Q 2772 3275 3047 2936
Q 3322 2597 3322 1956
L 3322 0
z
" transform="scale(0.015625)"/>
     <path id="SegoeUI-Semibold-67" d="M 3384 256
Q 3384 -1506 1613 -1506
Q 988 -1506 522 -1297
L 522 -634
Q 1047 -934 1519 -934
Q 2659 -934 2659 188
L 2659 538
L 2647 538
Q 2288 -75 1566 -75
Q 981 -75 623 351
Q 266 778 266 1497
Q 266 2313 650 2794
Q 1034 3275 1706 3275
Q 2341 3275 2647 2756
L 2659 2756
L 2659 3200
L 3384 3200
L 3384 256
z
M 2666 1466
L 2666 1881
Q 2666 2219 2442 2458
Q 2219 2697 1884 2697
Q 1472 2697 1239 2392
Q 1006 2088 1006 1541
Q 1006 1069 1229 786
Q 1453 503 1822 503
Q 2197 503 2431 773
Q 2666 1044 2666 1466
z
" transform="scale(0.015625)"/>
     <path id="SegoeUI-Semibold-20" transform="scale(0.015625)"/>
     <path id="SegoeUI-Semibold-54" d="M 3428 3850
L 2141 3850
L 2141 0
L 1397 0
L 1397 3850
L 113 3850
L 113 4481
L 3428 4481
L 3428 3850
z
" transform="scale(0.015625)"/>
     <path id="SegoeUI-Semibold-72" d="M 2328 2509
Q 2197 2613 1950 2613
Q 1628 2613 1412 2322
Q 1197 2031 1197 1531
L 1197 0
L 472 0
L 472 3200
L 1197 3200
L 1197 2541
L 1209 2541
Q 1316 2878 1536 3067
Q 1756 3256 2028 3256
Q 2225 3256 2328 3197
L 2328 2509
z
" transform="scale(0.015625)"/>
     <path id="SegoeUI-Semibold-61" d="M 2928 0
L 2225 0
L 2225 500
L 2213 500
Q 1881 -75 1241 -75
Q 769 -75 501 181
Q 234 438 234 859
Q 234 1766 1278 1916
L 2228 2050
Q 2228 2734 1578 2734
Q 1006 2734 547 2341
L 547 2975
Q 1053 3275 1716 3275
Q 2928 3275 2928 2081
L 2928 0
z
M 2228 1572
L 1556 1478
Q 1244 1438 1086 1327
Q 928 1216 928 938
Q 928 734 1073 604
Q 1219 475 1463 475
Q 1794 475 2011 708
Q 2228 941 2228 1294
L 2228 1572
z
" transform="scale(0.015625)"/>
     <path id="SegoeUI-Semibold-64" d="M 3381 0
L 2656 0
L 2656 544
L 2644 544
Q 2294 -75 1566 -75
Q 975 -75 620 354
Q 266 784 266 1525
Q 266 2319 658 2797
Q 1050 3275 1703 3275
Q 2350 3275 2644 2756
L 2656 2756
L 2656 4738
L 3381 4738
L 3381 0
z
M 2666 1463
L 2666 1881
Q 2666 2222 2444 2459
Q 2222 2697 1878 2697
Q 1472 2697 1239 2394
Q 1006 2091 1006 1553
Q 1006 1066 1229 783
Q 1453 500 1831 500
Q 2203 500 2434 773
Q 2666 1047 2666 1463
z
" transform="scale(0.015625)"/>
     <path id="SegoeUI-Semibold-46" d="M 2972 3850
L 1297 3850
L 1297 2503
L 2841 2503
L 2841 1875
L 1297 1875
L 1297 0
L 553 0
L 553 4481
L 2972 4481
L 2972 3850
z
" transform="scale(0.015625)"/>
     <path id="SegoeUI-Semibold-62" d="M 1209 463
L 1197 463
L 1197 0
L 472 0
L 472 4738
L 1197 4738
L 1197 2638
L 1209 2638
Q 1581 3275 2297 3275
Q 2903 3275 3245 2845
Q 3588 2416 3588 1694
Q 3588 891 3203 408
Q 2819 -75 2153 -75
Q 1528 -75 1209 463
z
M 1191 1734
L 1191 1338
Q 1191 988 1414 744
Q 1638 500 1981 500
Q 2384 500 2614 814
Q 2844 1128 2844 1691
Q 2844 2163 2630 2430
Q 2416 2697 2050 2697
Q 1663 2697 1427 2422
Q 1191 2147 1191 1734
z
" transform="scale(0.015625)"/>
     <path id="SegoeUI-Semibold-65" d="M 3181 1403
L 1000 1403
Q 1013 959 1273 718
Q 1534 478 1991 478
Q 2503 478 2931 784
L 2931 200
Q 2494 -75 1775 -75
Q 1069 -75 667 361
Q 266 797 266 1588
Q 266 2334 708 2804
Q 1150 3275 1806 3275
Q 2463 3275 2822 2853
Q 3181 2431 3181 1681
L 3181 1403
z
M 2481 1916
Q 2478 2306 2297 2523
Q 2116 2741 1797 2741
Q 1484 2741 1267 2512
Q 1050 2284 1000 1916
L 2481 1916
z
" transform="scale(0.015625)"/>
     <path id="SegoeUI-Semibold-74" d="M 2159 34
Q 1947 -72 1600 -72
Q 669 -72 669 822
L 669 2631
L 134 2631
L 134 3200
L 669 3200
L 669 3941
L 1394 4147
L 1394 3200
L 2159 3200
L 2159 2631
L 1394 2631
L 1394 1031
Q 1394 747 1497 625
Q 1600 503 1841 503
Q 2025 503 2159 609
L 2159 34
z
" transform="scale(0.015625)"/>
     <path id="SegoeUI-Semibold-73" d="M 272 100
L 272 772
Q 678 463 1169 463
Q 1825 463 1825 850
Q 1825 959 1769 1036
Q 1713 1113 1617 1172
Q 1522 1231 1392 1278
Q 1263 1325 1103 1384
Q 906 1463 748 1550
Q 591 1638 486 1748
Q 381 1859 328 2000
Q 275 2141 275 2328
Q 275 2559 384 2736
Q 494 2913 678 3033
Q 863 3153 1097 3214
Q 1331 3275 1581 3275
Q 2025 3275 2375 3141
L 2375 2506
Q 2038 2738 1600 2738
Q 1463 2738 1352 2709
Q 1241 2681 1162 2631
Q 1084 2581 1040 2511
Q 997 2441 997 2356
Q 997 2253 1040 2181
Q 1084 2109 1170 2054
Q 1256 2000 1376 1954
Q 1497 1909 1653 1856
Q 1859 1772 2023 1684
Q 2188 1597 2303 1486
Q 2419 1375 2481 1229
Q 2544 1084 2544 884
Q 2544 641 2431 459
Q 2319 278 2131 159
Q 1944 41 1698 -17
Q 1453 -75 1181 -75
Q 656 -75 272 100
z
" transform="scale(0.015625)"/>
     <path id="SegoeUI-Semibold-6d" d="M 5256 0
L 4531 0
L 4531 1744
Q 4531 2247 4389 2472
Q 4247 2697 3909 2697
Q 3625 2697 3426 2412
Q 3228 2128 3228 1731
L 3228 0
L 2500 0
L 2500 1803
Q 2500 2697 1869 2697
Q 1575 2697 1386 2428
Q 1197 2159 1197 1731
L 1197 0
L 472 0
L 472 3200
L 1197 3200
L 1197 2694
L 1209 2694
Q 1556 3275 2219 3275
Q 2550 3275 2798 3092
Q 3047 2909 3138 2613
Q 3494 3275 4200 3275
Q 5256 3275 5256 1972
L 5256 0
z
" transform="scale(0.015625)"/>
     <path id="SegoeUI-Semibold-2d" d="M 2156 1481
L 450 1481
L 450 2016
L 2156 2016
L 2156 1481
z
" transform="scale(0.015625)"/>
     <path id="SegoeUI-Semibold-76" d="M 3228 3200
L 1991 0
L 1206 0
L 28 3200
L 816 3200
L 1525 963
Q 1606 716 1625 531
L 1634 531
Q 1663 763 1722 950
L 2466 3200
L 3228 3200
z
" transform="scale(0.015625)"/>
     <path id="SegoeUI-Semibold-79" d="M 3244 3200
L 1800 -513
Q 1350 -1506 538 -1506
Q 309 -1506 156 -1466
L 156 -863
Q 328 -919 469 -919
Q 875 -919 1075 -519
L 1291 6
L 19 3200
L 822 3200
L 1584 875
Q 1597 831 1641 644
L 1656 644
Q 1672 716 1713 869
L 2513 3200
L 3244 3200
z
" transform="scale(0.015625)"/>
    </defs>
    <use xlink:href="#SegoeUI-Semibold-52"/>
    <use xlink:href="#SegoeUI-Semibold-6f" transform="translate(59.630859 0)"/>
    <use xlink:href="#SegoeUI-Semibold-6c" transform="translate(119.347656 0)"/>
    <use xlink:href="#SegoeUI-Semibold-6c" transform="translate(145.470703 0)"/>
    <use xlink:href="#SegoeUI-Semibold-69" transform="translate(171.59375 0)"/>
    <use xlink:href="#SegoeUI-Semibold-6e" transform="translate(197.716797 0)"/>
    <use xlink:href="#SegoeUI-Semibold-67" transform="translate(256.066406 0)"/>
    <use xlink:href="#SegoeUI-Semibold-20" transform="translate(316.320312 0)"/>
    <use xlink:href="#SegoeUI-Semibold-54" transform="translate(343.810547 0)"/>
    <use xlink:href="#SegoeUI-Semibold-72" transform="translate(390.861328 0)"/>
    <use xlink:href="#SegoeUI-Semibold-61" transform="translate(427.873047 0)"/>
    <use xlink:href="#SegoeUI-Semibold-64" transform="translate(480.070312 0)"/>
    <use xlink:href="#SegoeUI-Semibold-46" transform="translate(540.324219 0)"/>
    <use xlink:href="#SegoeUI-Semibold-69" transform="translate(590.568359 0)"/>
    <use xlink:href="#SegoeUI-Semibold-20" transform="translate(616.691406 0)"/>
    <use xlink:href="#SegoeUI-Semibold-62" transform="translate(644.181641 0)"/>
    <use xlink:href="#SegoeUI-Semibold-65" transform="translate(704.435547 0)"/>
    <use xlink:href="#SegoeUI-Semibold-74" transform="translate(757.560547 0)"/>
    <use xlink:href="#SegoeUI-Semibold-61" transform="translate(793.693359 0)"/>
    <use xlink:href="#SegoeUI-Semibold-20" transform="translate(845.890625 0)"/>
    <use xlink:href="#SegoeUI-Semibold-69" transform="translate(873.380859 0)"/>
    <use xlink:href="#SegoeUI-Semibold-73" transform="translate(899.503906 0)"/>
    <use xlink:href="#SegoeUI-Semibold-20" transform="translate(942.619141 0)"/>
    <use xlink:href="#SegoeUI-Semibold-74" transform="translate(970.109375 0)"/>
    <use xlink:href="#SegoeUI-Semibold-69" transform="translate(1006.242188 0)"/>
    <use xlink:href="#SegoeUI-Semibold-6d" transform="translate(1032.365234 0)"/>
    <use xlink:href="#SegoeUI-Semibold-65" transform="translate(1120.939453 0)"/>
    <use xlink:href="#SegoeUI-Semibold-2d" transform="translate(1174.064453 0)"/>
    <use xlink:href="#SegoeUI-Semibold-76" transform="translate(1214.25 0)"/>
    <use xlink:href="#SegoeUI-Semibold-61" transform="translate(1263.357422 0)"/>
    <use xlink:href="#SegoeUI-Semibold-72" transform="translate(1315.554688 0)"/>
    <use xlink:href="#SegoeUI-Semibold-79" transform="translate(1356.566406 0)"/>
    <use xlink:href="#SegoeUI-Semibold-69" transform="translate(1407.396484 0)"/>
    <use xlink:href="#SegoeUI-Semibold-6e" transform="translate(1433.519531 0)"/>
    <use xlink:href="#SegoeUI-Semibold-67" transform="translate(1491.869141 0)"/>
   </g>
  </g>
  <g id="text_18">
   <!-- Median rolling beta by feature and asset. -->
   <g style="fill: #6f768a" transform="translate(25.66875 39.760312) scale(0.11 -0.11)">
    <defs>
     <path id="SegoeUI-66" d="M 2100 4288
Q 1950 4372 1759 4372
Q 1222 4372 1222 3694
L 1222 3200
L 1972 3200
L 1972 2763
L 1222 2763
L 1222 0
L 713 0
L 713 2763
L 166 2763
L 166 3200
L 713 3200
L 713 3719
Q 713 4222 1003 4514
Q 1294 4806 1728 4806
Q 1963 4806 2100 4750
L 2100 4288
z
" transform="scale(0.015625)"/>
     <path id="SegoeUI-75" d="M 3106 0
L 2594 0
L 2594 506
L 2581 506
Q 2263 -75 1594 -75
Q 450 -75 450 1288
L 450 3200
L 959 3200
L 959 1369
Q 959 356 1734 356
Q 2109 356 2351 632
Q 2594 909 2594 1356
L 2594 3200
L 3106 3200
L 3106 0
z
" transform="scale(0.015625)"/>
    </defs>
    <use xlink:href="#SegoeUI-4d"/>
    <use xlink:href="#SegoeUI-65" transform="translate(89.794922 0)"/>
    <use xlink:href="#SegoeUI-64" transform="translate(142.089844 0)"/>
    <use xlink:href="#SegoeUI-69" transform="translate(200.976562 0)"/>
    <use xlink:href="#SegoeUI-61" transform="translate(225.195312 0)"/>
    <use xlink:href="#SegoeUI-6e" transform="translate(276.074219 0)"/>
    <use xlink:href="#SegoeUI-20" transform="translate(332.666016 0)"/>
    <use xlink:href="#SegoeUI-72" transform="translate(360.058594 0)"/>
    <use xlink:href="#SegoeUI-6f" transform="translate(393.449219 0)"/>
    <use xlink:href="#SegoeUI-6c" transform="translate(452.042969 0)"/>
    <use xlink:href="#SegoeUI-6c" transform="translate(476.261719 0)"/>
    <use xlink:href="#SegoeUI-69" transform="translate(500.480469 0)"/>
    <use xlink:href="#SegoeUI-6e" transform="translate(524.699219 0)"/>
    <use xlink:href="#SegoeUI-67" transform="translate(581.291016 0)"/>
    <use xlink:href="#SegoeUI-20" transform="translate(640.177734 0)"/>
    <use xlink:href="#SegoeUI-62" transform="translate(667.570312 0)"/>
    <use xlink:href="#SegoeUI-65" transform="translate(726.359375 0)"/>
    <use xlink:href="#SegoeUI-74" transform="translate(778.654297 0)"/>
    <use xlink:href="#SegoeUI-61" transform="translate(812.541016 0)"/>
    <use xlink:href="#SegoeUI-20" transform="translate(863.419922 0)"/>
    <use xlink:href="#SegoeUI-62" transform="translate(890.8125 0)"/>
    <use xlink:href="#SegoeUI-79" transform="translate(949.601562 0)"/>
    <use xlink:href="#SegoeUI-20" transform="translate(997.990234 0)"/>
    <use xlink:href="#SegoeUI-66" transform="translate(1025.382812 0)"/>
    <use xlink:href="#SegoeUI-65" transform="translate(1056.681641 0)"/>
    <use xlink:href="#SegoeUI-61" transform="translate(1108.976562 0)"/>
    <use xlink:href="#SegoeUI-74" transform="translate(1159.855469 0)"/>
    <use xlink:href="#SegoeUI-75" transform="translate(1193.742188 0)"/>
    <use xlink:href="#SegoeUI-72" transform="translate(1250.333984 0)"/>
    <use xlink:href="#SegoeUI-65" transform="translate(1283.724609 0)"/>
    <use xlink:href="#SegoeUI-20" transform="translate(1336.019531 0)"/>
    <use xlink:href="#SegoeUI-61" transform="translate(1363.412109 0)"/>
    <use xlink:href="#SegoeUI-6e" transform="translate(1414.291016 0)"/>
    <use xlink:href="#SegoeUI-64" transform="translate(1470.882812 0)"/>
    <use xlink:href="#SegoeUI-20" transform="translate(1529.769531 0)"/>
    <use xlink:href="#SegoeUI-61" transform="translate(1557.162109 0)"/>
    <use xlink:href="#SegoeUI-73" transform="translate(1608.041016 0)"/>
    <use xlink:href="#SegoeUI-73" transform="translate(1650.472656 0)"/>
    <use xlink:href="#SegoeUI-65" transform="translate(1692.904297 0)"/>
    <use xlink:href="#SegoeUI-74" transform="translate(1745.199219 0)"/>
    <use xlink:href="#SegoeUI-2e" transform="translate(1779.085938 0)"/>
   </g>
  </g>
 </g>
 <defs>
  <clipPath id="pc04e31b2e1">
   <rect x="51.58875" y="92.25" width="751.68" height="311.04"/>
  </clipPath>
 </defs>
</svg>
