<?xml version="1.0" encoding="utf-8" standalone="no"?>
<!DOCTYPE svg PUBLIC "-//W3C//DTD SVG 1.1//EN"
  "http://www.w3.org/Graphics/SVG/1.1/DTD/svg11.dtd">
<svg xmlns:xlink="http://www.w3.org/1999/xlink" width="997.279687pt" height="378.046875pt" viewBox="0 0 997.279687 378.046875" xmlns="http://www.w3.org/2000/svg" version="1.1">
 <metadata>
  <rdf:RDF xmlns:dc="http://purl.org/dc/elements/1.1/" xmlns:cc="http://creativecommons.org/ns#" xmlns:rdf="http://www.w3.org/1999/02/22-rdf-syntax-ns#">
   <cc:Work>
    <dc:type rdf:resource="http://purl.org/dc/dcmitype/StillImage"/>
    <dc:format>image/svg+xml</dc:format>
    <dc:creator>
     <cc:Agent>
      <dc:title>Matplotlib v3.10.8, https://matplotlib.org/</dc:title>
     </cc:Agent>
    </dc:creator>
   </cc:Work>
  </rdf:RDF>
 </metadata>
 <defs>
  <style type="text/css">*{stroke-linejoin: round; stroke-linecap: butt}</style>
 </defs>
 <g id="figure_1">
  <g id="patch_1">
   <path d="M 0 378.046875
L 997.279687 378.046875
L 997.279687 0
L 0 0
z
" style="fill: #ffffff"/>
  </g>
  <g id="axes_1">
   <g id="patch_2">
    <path d="M 82.879688 342
L 470.571995 342
L 470.571995 91.44
L 82.879688 91.44
z
" style="fill: #ffffff"/>
   </g>
   <g id="matplotlib.axis_1">
    <g id="xtick_1">
     <g id="text_1">
      <!-- 0 -->
      <g style="fill: #6f768a" transform="translate(80.184375 352.903125) scale(0.1 -0.1)">
       <defs>
        <path id="SegoeUI-30" d="M 3188 2259
Q 3188 1697 3086 1262
Q 2984 828 2792 529
Q 2600 231 2320 76
Q 2041 -78 1684 -78
Q 1347 -78 1083 70
Q 819 219 637 503
Q 456 788 362 1202
Q 269 1616 269 2150
Q 269 2738 367 3188
Q 466 3638 656 3942
Q 847 4247 1130 4401
Q 1413 4556 1778 4556
Q 3188 4556 3188 2259
z
M 2663 2209
Q 2663 4122 1753 4122
Q 794 4122 794 2175
Q 794 359 1734 359
Q 2663 359 2663 2209
z
" transform="scale(0.015625)"/>
       </defs>
       <use xlink:href="#SegoeUI-30"/>
      </g>
     </g>
    </g>
    <g id="xtick_2">
     <g id="text_2">
      <!-- 50 -->
      <g style="fill: #6f768a" transform="translate(124.94803 352.903125) scale(0.1 -0.1)">
       <defs>
        <path id="SegoeUI-35" d="M 3028 1369
Q 3028 1041 2915 775
Q 2803 509 2595 318
Q 2388 128 2094 25
Q 1800 -78 1441 -78
Q 816 -78 513 109
L 513 653
Q 969 359 1447 359
Q 1691 359 1886 431
Q 2081 503 2218 631
Q 2356 759 2429 940
Q 2503 1122 2503 1338
Q 2503 1775 2209 2023
Q 1916 2272 1356 2272
Q 1266 2272 1166 2269
Q 1066 2266 966 2261
Q 866 2256 770 2250
Q 675 2244 597 2234
L 750 4481
L 2822 4481
L 2822 4019
L 1194 4019
L 1103 2703
Q 1203 2709 1315 2714
Q 1428 2719 1516 2719
Q 1872 2719 2153 2625
Q 2434 2531 2629 2357
Q 2825 2184 2926 1932
Q 3028 1681 3028 1369
z
" transform="scale(0.015625)"/>
       </defs>
       <use xlink:href="#SegoeUI-35"/>
       <use xlink:href="#SegoeUI-30" transform="translate(53.90625 0)"/>
      </g>
     </g>
    </g>
    <g id="xtick_3">
     <g id="text_3">
      <!-- 100 -->
      <g style="fill: #6f768a" transform="translate(169.711686 352.903125) scale(0.1 -0.1)">
       <defs>
        <path id="SegoeUI-31" d="M 2263 0
L 1750 0
L 1750 3872
Q 1691 3813 1577 3736
Q 1463 3659 1320 3584
Q 1178 3509 1020 3443
Q 863 3378 713 3341
L 713 3859
Q 881 3906 1070 3986
Q 1259 4066 1442 4164
Q 1625 4263 1787 4370
Q 1950 4478 2069 4581
L 2263 4581
L 2263 0
z
" transform="scale(0.015625)"/>
       </defs>
       <use xlink:href="#SegoeUI-31"/>
       <use xlink:href="#SegoeUI-30" transform="translate(53.90625 0)"/>
       <use xlink:href="#SegoeUI-30" transform="translate(107.8125 0)"/>
      </g>
     </g>
    </g>
    <g id="xtick_4">
     <g id="text_4">
      <!-- 150 -->
      <g style="fill: #6f768a" transform="translate(217.170653 352.903125) scale(0.1 -0.1)">
       <use xlink:href="#SegoeUI-31"/>
       <use xlink:href="#SegoeUI-35" transform="translate(53.90625 0)"/>
       <use xlink:href="#SegoeUI-30" transform="translate(107.8125 0)"/>
      </g>
     </g>
    </g>
    <g id="xtick_5">
     <g id="text_5">
      <!-- 200 -->
      <g style="fill: #6f768a" transform="translate(264.629621 352.903125) scale(0.1 -0.1)">
       <defs>
        <path id="SegoeUI-32" d="M 2413 3306
Q 2413 3513 2348 3666
Q 2284 3819 2173 3920
Q 2063 4022 1913 4072
Q 1763 4122 1588 4122
Q 1438 4122 1294 4081
Q 1150 4041 1014 3969
Q 878 3897 751 3797
Q 625 3697 516 3575
L 516 4125
Q 731 4334 998 4445
Q 1266 4556 1650 4556
Q 1925 4556 2159 4476
Q 2394 4397 2566 4244
Q 2738 4091 2836 3866
Q 2934 3641 2934 3350
Q 2934 3084 2873 2868
Q 2813 2653 2689 2462
Q 2566 2272 2378 2097
Q 2191 1922 1938 1741
Q 1622 1516 1417 1356
Q 1213 1197 1092 1058
Q 972 919 923 780
Q 875 641 875 459
L 3106 459
L 3106 0
L 341 0
L 341 222
Q 341 509 403 728
Q 466 947 609 1144
Q 753 1341 986 1537
Q 1219 1734 1556 1981
Q 1800 2156 1964 2315
Q 2128 2475 2228 2634
Q 2328 2794 2370 2958
Q 2413 3122 2413 3306
z
" transform="scale(0.015625)"/>
       </defs>
       <use xlink:href="#SegoeUI-32"/>
       <use xlink:href="#SegoeUI-30" transform="translate(53.90625 0)"/>
       <use xlink:href="#SegoeUI-30" transform="translate(107.8125 0)"/>
      </g>
     </g>
    </g>
    <g id="xtick_6">
     <g id="text_6">
      <!-- 250 -->
      <g style="fill: #6f768a" transform="translate(312.088589 352.903125) scale(0.1 -0.1)">
       <use xlink:href="#SegoeUI-32"/>
       <use xlink:href="#SegoeUI-35" transform="translate(53.90625 0)"/>
       <use xlink:href="#SegoeUI-30" transform="translate(107.8125 0)"/>
      </g>
     </g>
    </g>
    <g id="xtick_7">
     <g id="text_7">
      <!-- 300 -->
      <g style="fill: #6f768a" transform="translate(359.547557 352.903125) scale(0.1 -0.1)">
       <defs>
        <path id="SegoeUI-33" d="M 2978 1269
Q 2978 966 2864 717
Q 2750 469 2542 292
Q 2334 116 2043 19
Q 1753 -78 1403 -78
Q 763 -78 384 166
L 384 716
Q 838 359 1422 359
Q 1656 359 1845 418
Q 2034 478 2170 590
Q 2306 703 2379 862
Q 2453 1022 2453 1222
Q 2453 2100 1203 2100
L 831 2100
L 831 2534
L 1184 2534
Q 2291 2534 2291 3359
Q 2291 4122 1447 4122
Q 972 4122 556 3803
L 556 4300
Q 984 4556 1575 4556
Q 1856 4556 2084 4478
Q 2313 4400 2475 4259
Q 2638 4119 2727 3922
Q 2816 3725 2816 3488
Q 2816 2603 1922 2350
L 1922 2338
Q 2150 2313 2344 2227
Q 2538 2141 2678 2003
Q 2819 1866 2898 1680
Q 2978 1494 2978 1269
z
" transform="scale(0.015625)"/>
       </defs>
       <use xlink:href="#SegoeUI-33"/>
       <use xlink:href="#SegoeUI-30" transform="translate(53.90625 0)"/>
       <use xlink:href="#SegoeUI-30" transform="translate(107.8125 0)"/>
      </g>
     </g>
    </g>
    <g id="xtick_8">
     <g id="text_8">
      <!-- 350 -->
      <g style="fill: #6f768a" transform="translate(407.006524 352.903125) scale(0.1 -0.1)">
       <use xlink:href="#SegoeUI-33"/>
       <use xlink:href="#SegoeUI-35" transform="translate(53.90625 0)"/>
       <use xlink:href="#SegoeUI-30" transform="translate(107.8125 0)"/>
      </g>
     </g>
    </g>
    <g id="xtick_9">
     <g id="text_9">
      <!-- 400 -->
      <g style="fill: #6f768a" transform="translate(454.465492 352.903125) scale(0.1 -0.1)">
       <defs>
        <path id="SegoeUI-34" d="M 2656 4481
L 2656 1522
L 3231 1522
L 3231 1053
L 2656 1053
L 2656 0
L 2150 0
L 2150 1053
L 44 1053
L 44 1497
Q 338 1828 638 2204
Q 938 2581 1211 2968
Q 1484 3356 1717 3742
Q 1950 4128 2109 4481
L 2656 4481
z
M 622 1522
L 2150 1522
L 2150 3716
Q 1916 3306 1706 2984
Q 1497 2663 1308 2400
Q 1119 2138 947 1925
Q 775 1713 622 1522
z
" transform="scale(0.015625)"/>
       </defs>
       <use xlink:href="#SegoeUI-34"/>
       <use xlink:href="#SegoeUI-30" transform="translate(53.90625 0)"/>
       <use xlink:href="#SegoeUI-30" transform="translate(107.8125 0)"/>
      </g>
     </g>
    </g>
    <g id="text_10">
     <!-- Raw file count -->
     <g style="fill: #1f2430" transform="translate(239.428341 368.086875) scale(0.12 -0.12)">
      <defs>
       <path id="SegoeUI-52" d="M 3800 0
L 3175 0
L 2425 1256
Q 2322 1431 2225 1554
Q 2128 1678 2026 1756
Q 1925 1834 1808 1870
Q 1691 1906 1544 1906
L 1113 1906
L 1113 0
L 588 0
L 588 4481
L 1925 4481
Q 2219 4481 2467 4407
Q 2716 4334 2898 4184
Q 3081 4034 3184 3811
Q 3288 3588 3288 3288
Q 3288 3053 3217 2858
Q 3147 2663 3017 2509
Q 2888 2356 2705 2248
Q 2522 2141 2294 2081
L 2294 2069
Q 2406 2019 2489 1955
Q 2572 1891 2647 1803
Q 2722 1716 2795 1605
Q 2869 1494 2959 1347
L 3800 0
z
M 1113 4006
L 1113 2381
L 1825 2381
Q 2022 2381 2189 2440
Q 2356 2500 2478 2611
Q 2600 2722 2669 2883
Q 2738 3044 2738 3244
Q 2738 3603 2505 3804
Q 2272 4006 1831 4006
L 1113 4006
z
" transform="scale(0.015625)"/>
       <path id="SegoeUI-61" d="M 2809 0
L 2297 0
L 2297 500
L 2284 500
Q 1950 -75 1300 -75
Q 822 -75 551 178
Q 281 431 281 850
Q 281 1747 1338 1894
L 2297 2028
Q 2297 2844 1638 2844
Q 1059 2844 594 2450
L 594 2975
Q 1066 3275 1681 3275
Q 2809 3275 2809 2081
L 2809 0
z
M 2297 1619
L 1525 1513
Q 1169 1463 987 1336
Q 806 1209 806 888
Q 806 653 973 504
Q 1141 356 1419 356
Q 1800 356 2048 623
Q 2297 891 2297 1300
L 2297 1619
z
" transform="scale(0.015625)"/>
       <path id="SegoeUI-77" d="M 4550 3200
L 3591 0
L 3059 0
L 2400 2291
Q 2363 2422 2350 2588
L 2338 2588
Q 2328 2475 2272 2297
L 1556 0
L 1044 0
L 75 3200
L 613 3200
L 1275 794
Q 1306 684 1319 506
L 1344 506
Q 1353 644 1400 800
L 2138 3200
L 2606 3200
L 3269 788
Q 3300 672 3316 500
L 3341 500
Q 3347 622 3394 788
L 4044 3200
L 4550 3200
z
" transform="scale(0.015625)"/>
       <path id="SegoeUI-20" transform="scale(0.015625)"/>
       <path id="SegoeUI-66" d="M 2100 4288
Q 1950 4372 1759 4372
Q 1222 4372 1222 3694
L 1222 3200
L 1972 3200
L 1972 2763
L 1222 2763
L 1222 0
L 713 0
L 713 2763
L 166 2763
L 166 3200
L 713 3200
L 713 3719
Q 713 4222 1003 4514
Q 1294 4806 1728 4806
Q 1963 4806 2100 4750
L 2100 4288
z
" transform="scale(0.015625)"/>
       <path id="SegoeUI-69" d="M 781 4013
Q 644 4013 547 4106
Q 450 4200 450 4344
Q 450 4488 547 4583
Q 644 4678 781 4678
Q 922 4678 1020 4583
Q 1119 4488 1119 4344
Q 1119 4206 1020 4109
Q 922 4013 781 4013
z
M 1031 0
L 519 0
L 519 3200
L 1031 3200
L 1031 0
z
" transform="scale(0.015625)"/>
       <path id="SegoeUI-6c" d="M 1031 0
L 519 0
L 519 4738
L 1031 4738
L 1031 0
z
" transform="scale(0.015625)"/>
       <path id="SegoeUI-65" d="M 3091 1472
L 831 1472
Q 844 938 1119 647
Q 1394 356 1875 356
Q 2416 356 2869 713
L 2869 231
Q 2447 -75 1753 -75
Q 1075 -75 687 361
Q 300 797 300 1588
Q 300 2334 723 2804
Q 1147 3275 1775 3275
Q 2403 3275 2747 2869
Q 3091 2463 3091 1741
L 3091 1472
z
M 2566 1906
Q 2563 2350 2352 2597
Q 2141 2844 1766 2844
Q 1403 2844 1150 2584
Q 897 2325 838 1906
L 2566 1906
z
" transform="scale(0.015625)"/>
       <path id="SegoeUI-63" d="M 2700 147
Q 2331 -75 1825 -75
Q 1141 -75 720 370
Q 300 816 300 1525
Q 300 2316 753 2795
Q 1206 3275 1963 3275
Q 2384 3275 2706 3119
L 2706 2594
Q 2350 2844 1944 2844
Q 1453 2844 1139 2492
Q 825 2141 825 1569
Q 825 1006 1120 681
Q 1416 356 1913 356
Q 2331 356 2700 634
L 2700 147
z
" transform="scale(0.015625)"/>
       <path id="SegoeUI-6f" d="M 1856 -75
Q 1147 -75 723 373
Q 300 822 300 1563
Q 300 2369 740 2822
Q 1181 3275 1931 3275
Q 2647 3275 3048 2834
Q 3450 2394 3450 1613
Q 3450 847 3017 386
Q 2584 -75 1856 -75
z
M 1894 2844
Q 1400 2844 1112 2508
Q 825 2172 825 1581
Q 825 1013 1115 684
Q 1406 356 1894 356
Q 2391 356 2658 678
Q 2925 1000 2925 1594
Q 2925 2194 2658 2519
Q 2391 2844 1894 2844
z
" transform="scale(0.015625)"/>
       <path id="SegoeUI-75" d="M 3106 0
L 2594 0
L 2594 506
L 2581 506
Q 2263 -75 1594 -75
Q 450 -75 450 1288
L 450 3200
L 959 3200
L 959 1369
Q 959 356 1734 356
Q 2109 356 2351 632
Q 2594 909 2594 1356
L 2594 3200
L 3106 3200
L 3106 0
z
" transform="scale(0.015625)"/>
       <path id="SegoeUI-6e" d="M 3175 0
L 2663 0
L 2663 1825
Q 2663 2844 1919 2844
Q 1534 2844 1282 2555
Q 1031 2266 1031 1825
L 1031 0
L 519 0
L 519 3200
L 1031 3200
L 1031 2669
L 1044 2669
Q 1406 3275 2094 3275
Q 2619 3275 2897 2936
Q 3175 2597 3175 1956
L 3175 0
z
" transform="scale(0.015625)"/>
       <path id="SegoeUI-74" d="M 2003 31
Q 1822 -69 1525 -69
Q 684 -69 684 869
L 684 2763
L 134 2763
L 134 3200
L 684 3200
L 684 3981
L 1197 4147
L 1197 3200
L 2003 3200
L 2003 2763
L 1197 2763
L 1197 959
Q 1197 638 1306 500
Q 1416 363 1669 363
Q 1863 363 2003 469
L 2003 31
z
" transform="scale(0.015625)"/>
      </defs>
      <use xlink:href="#SegoeUI-52"/>
      <use xlink:href="#SegoeUI-61" transform="translate(59.814453 0)"/>
      <use xlink:href="#SegoeUI-77" transform="translate(110.693359 0)"/>
      <use xlink:href="#SegoeUI-20" transform="translate(182.958984 0)"/>
      <use xlink:href="#SegoeUI-66" transform="translate(210.351562 0)"/>
      <use xlink:href="#SegoeUI-69" transform="translate(241.650391 0)"/>
      <use xlink:href="#SegoeUI-6c" transform="translate(265.869141 0)"/>
      <use xlink:href="#SegoeUI-65" transform="translate(290.087891 0)"/>
      <use xlink:href="#SegoeUI-20" transform="translate(342.382812 0)"/>
      <use xlink:href="#SegoeUI-63" transform="translate(369.775391 0)"/>
      <use xlink:href="#SegoeUI-6f" transform="translate(415.966797 0)"/>
      <use xlink:href="#SegoeUI-75" transform="translate(474.560547 0)"/>
      <use xlink:href="#SegoeUI-6e" transform="translate(531.152344 0)"/>
      <use xlink:href="#SegoeUI-74" transform="translate(587.744141 0)"/>
     </g>
    </g>
   </g>
   <g id="matplotlib.axis_2">
    <g id="ytick_1">
     <g id="line2d_1">
      <path d="M 82.879688 114.51021
L 470.571995 114.51021
" clip-path="url(#p8e2462d39b)" style="fill: none; stroke: #e8ebf2; stroke-width: 0.8; stroke-linecap: round"/>
     </g>
     <g id="text_11">
      <!-- CryptoQuant -->
      <g style="fill: #6f768a" transform="translate(22.084375 118.18521) scale(0.1 -0.1)">
       <defs>
        <path id="SegoeUI-43" d="M 3638 188
Q 3141 -75 2400 -75
Q 1444 -75 869 540
Q 294 1156 294 2156
Q 294 3231 941 3893
Q 1588 4556 2581 4556
Q 3219 4556 3638 4372
L 3638 3813
Q 3156 4081 2575 4081
Q 1803 4081 1323 3565
Q 844 3050 844 2188
Q 844 1369 1292 883
Q 1741 397 2469 397
Q 3144 397 3638 697
L 3638 188
z
" transform="scale(0.015625)"/>
        <path id="SegoeUI-72" d="M 2188 2681
Q 2053 2784 1800 2784
Q 1472 2784 1251 2475
Q 1031 2166 1031 1631
L 1031 0
L 519 0
L 519 3200
L 1031 3200
L 1031 2541
L 1044 2541
Q 1153 2878 1378 3067
Q 1603 3256 1881 3256
Q 2081 3256 2188 3213
L 2188 2681
z
" transform="scale(0.015625)"/>
        <path id="SegoeUI-79" d="M 3066 3200
L 1594 -513
Q 1200 -1506 488 -1506
Q 288 -1506 153 -1466
L 153 -1006
Q 319 -1063 456 -1063
Q 844 -1063 1038 -600
L 1294 6
L 44 3200
L 613 3200
L 1478 738
Q 1494 691 1544 494
L 1563 494
Q 1578 569 1625 731
L 2534 3200
L 3066 3200
z
" transform="scale(0.015625)"/>
        <path id="SegoeUI-70" d="M 1044 463
L 1031 463
L 1031 -1472
L 519 -1472
L 519 3200
L 1031 3200
L 1031 2638
L 1044 2638
Q 1422 3275 2150 3275
Q 2769 3275 3116 2845
Q 3463 2416 3463 1694
Q 3463 891 3072 408
Q 2681 -75 2003 -75
Q 1381 -75 1044 463
z
M 1031 1753
L 1031 1306
Q 1031 909 1289 632
Q 1547 356 1944 356
Q 2409 356 2673 712
Q 2938 1069 2938 1703
Q 2938 2238 2691 2541
Q 2444 2844 2022 2844
Q 1575 2844 1303 2533
Q 1031 2222 1031 1753
z
" transform="scale(0.015625)"/>
        <path id="SegoeUI-51" d="M 2394 -75
Q 1444 -75 866 553
Q 294 1181 294 2188
Q 294 3272 878 3913
Q 1466 4556 2469 4556
Q 3394 4556 3963 3931
Q 4531 3306 4531 2297
Q 4531 1200 3950 563
Q 3813 409 3656 300
L 4916 -603
L 3963 -603
L 3119 28
Q 2788 -75 2394 -75
z
M 2431 4081
Q 1725 4081 1284 3572
Q 844 3063 844 2234
Q 844 1409 1272 900
Q 1703 397 2394 397
Q 3131 397 3556 878
Q 3981 1359 3981 2225
Q 3981 3116 3569 3597
Q 3156 4081 2431 4081
z
" transform="scale(0.015625)"/>
       </defs>
       <use xlink:href="#SegoeUI-43"/>
       <use xlink:href="#SegoeUI-72" transform="translate(61.914062 0)"/>
       <use xlink:href="#SegoeUI-79" transform="translate(100.679688 0)"/>
       <use xlink:href="#SegoeUI-70" transform="translate(149.068359 0)"/>
       <use xlink:href="#SegoeUI-74" transform="translate(207.857422 0)"/>
       <use xlink:href="#SegoeUI-6f" transform="translate(240.994141 0)"/>
       <use xlink:href="#SegoeUI-51" transform="translate(299.587891 0)"/>
       <use xlink:href="#SegoeUI-75" transform="translate(374.978516 0)"/>
       <use xlink:href="#SegoeUI-61" transform="translate(431.570312 0)"/>
       <use xlink:href="#SegoeUI-6e" transform="translate(482.449219 0)"/>
       <use xlink:href="#SegoeUI-74" transform="translate(539.041016 0)"/>
      </g>
     </g>
    </g>
    <g id="ytick_2">
     <g id="line2d_2">
      <path d="M 82.879688 143.713007
L 470.571995 143.713007
" clip-path="url(#p8e2462d39b)" style="fill: none; stroke: #e8ebf2; stroke-width: 0.8; stroke-linecap: round"/>
     </g>
     <g id="text_12">
      <!-- DefiLlama -->
      <g style="fill: #6f768a" transform="translate(35.667187 147.414569) scale(0.1 -0.1)">
       <defs>
        <path id="SegoeUI-44" d="M 588 0
L 588 4481
L 1825 4481
Q 4194 4481 4194 2297
Q 4194 1259 3536 629
Q 2878 0 1775 0
L 588 0
z
M 1113 4006
L 1113 475
L 1781 475
Q 2663 475 3153 947
Q 3644 1419 3644 2284
Q 3644 4006 1813 4006
L 1113 4006
z
" transform="scale(0.015625)"/>
        <path id="SegoeUI-4c" d="M 2913 0
L 588 0
L 588 4481
L 1113 4481
L 1113 475
L 2913 475
L 2913 0
z
" transform="scale(0.015625)"/>
        <path id="SegoeUI-6d" d="M 5063 0
L 4550 0
L 4550 1838
Q 4550 2369 4386 2606
Q 4222 2844 3834 2844
Q 3506 2844 3276 2544
Q 3047 2244 3047 1825
L 3047 0
L 2534 0
L 2534 1900
Q 2534 2844 1806 2844
Q 1469 2844 1250 2561
Q 1031 2278 1031 1825
L 1031 0
L 519 0
L 519 3200
L 1031 3200
L 1031 2694
L 1044 2694
Q 1384 3275 2038 3275
Q 2366 3275 2609 3092
Q 2853 2909 2944 2613
Q 3300 3275 4006 3275
Q 5063 3275 5063 1972
L 5063 0
z
" transform="scale(0.015625)"/>
       </defs>
       <use xlink:href="#SegoeUI-44"/>
       <use xlink:href="#SegoeUI-65" transform="translate(70.117188 0)"/>
       <use xlink:href="#SegoeUI-66" transform="translate(122.412109 0)"/>
       <use xlink:href="#SegoeUI-69" transform="translate(153.710938 0)"/>
       <use xlink:href="#SegoeUI-4c" transform="translate(177.929688 0)"/>
       <use xlink:href="#SegoeUI-6c" transform="translate(225 0)"/>
       <use xlink:href="#SegoeUI-61" transform="translate(249.21875 0)"/>
       <use xlink:href="#SegoeUI-6d" transform="translate(300.097656 0)"/>
       <use xlink:href="#SegoeUI-61" transform="translate(386.230469 0)"/>
      </g>
     </g>
    </g>
    <g id="ytick_3">
     <g id="line2d_3">
      <path d="M 82.879688 172.915804
L 470.571995 172.915804
" clip-path="url(#p8e2462d39b)" style="fill: none; stroke: #e8ebf2; stroke-width: 0.8; stroke-linecap: round"/>
     </g>
     <g id="text_13">
      <!-- Artemis -->
      <g style="fill: #6f768a" transform="translate(45.342188 176.617367) scale(0.1 -0.1)">
       <defs>
        <path id="SegoeUI-41" d="M 4056 0
L 3475 0
L 3000 1256
L 1100 1256
L 653 0
L 69 0
L 1788 4481
L 2331 4481
L 4056 0
z
M 2828 1728
L 2125 3638
Q 2091 3731 2056 3938
L 2044 3938
Q 2013 3747 1972 3638
L 1275 1728
L 2828 1728
z
" transform="scale(0.015625)"/>
        <path id="SegoeUI-73" d="M 325 116
L 325 666
Q 744 356 1247 356
Q 1922 356 1922 806
Q 1922 934 1864 1023
Q 1806 1113 1707 1181
Q 1609 1250 1476 1304
Q 1344 1359 1191 1419
Q 978 1503 817 1589
Q 656 1675 548 1783
Q 441 1891 386 2028
Q 331 2166 331 2350
Q 331 2575 434 2748
Q 538 2922 709 3039
Q 881 3156 1101 3215
Q 1322 3275 1556 3275
Q 1972 3275 2300 3131
L 2300 2613
Q 1947 2844 1488 2844
Q 1344 2844 1228 2811
Q 1113 2778 1030 2718
Q 947 2659 901 2576
Q 856 2494 856 2394
Q 856 2269 901 2184
Q 947 2100 1034 2034
Q 1122 1969 1247 1916
Q 1372 1863 1531 1800
Q 1744 1719 1912 1633
Q 2081 1547 2200 1439
Q 2319 1331 2383 1190
Q 2447 1050 2447 856
Q 2447 619 2342 444
Q 2238 269 2063 153
Q 1888 38 1659 -18
Q 1431 -75 1181 -75
Q 688 -75 325 116
z
" transform="scale(0.015625)"/>
       </defs>
       <use xlink:href="#SegoeUI-41"/>
       <use xlink:href="#SegoeUI-72" transform="translate(64.501953 0)"/>
       <use xlink:href="#SegoeUI-74" transform="translate(102.142578 0)"/>
       <use xlink:href="#SegoeUI-65" transform="translate(135.279297 0)"/>
       <use xlink:href="#SegoeUI-6d" transform="translate(187.574219 0)"/>
       <use xlink:href="#SegoeUI-69" transform="translate(273.707031 0)"/>
       <use xlink:href="#SegoeUI-73" transform="translate(297.925781 0)"/>
      </g>
     </g>
    </g>
    <g id="ytick_4">
     <g id="line2d_4">
      <path d="M 82.879688 202.118601
L 470.571995 202.118601
" clip-path="url(#p8e2462d39b)" style="fill: none; stroke: #e8ebf2; stroke-width: 0.8; stroke-linecap: round"/>
     </g>
     <g id="text_14">
      <!-- Tradingview -->
      <g style="fill: #6f768a" transform="translate(26.923437 205.820164) scale(0.1 -0.1)">
       <defs>
        <path id="SegoeUI-54" d="M 3238 4006
L 1944 4006
L 1944 0
L 1419 0
L 1419 4006
L 128 4006
L 128 4481
L 3238 4481
L 3238 4006
z
" transform="scale(0.015625)"/>
        <path id="SegoeUI-64" d="M 3250 0
L 2738 0
L 2738 544
L 2725 544
Q 2369 -75 1625 -75
Q 1022 -75 661 354
Q 300 784 300 1525
Q 300 2319 700 2797
Q 1100 3275 1766 3275
Q 2425 3275 2725 2756
L 2738 2756
L 2738 4738
L 3250 4738
L 3250 0
z
M 2738 1447
L 2738 1919
Q 2738 2306 2481 2575
Q 2225 2844 1831 2844
Q 1363 2844 1094 2500
Q 825 2156 825 1550
Q 825 997 1083 676
Q 1341 356 1775 356
Q 2203 356 2470 665
Q 2738 975 2738 1447
z
" transform="scale(0.015625)"/>
        <path id="SegoeUI-67" d="M 3250 256
Q 3250 -1506 1563 -1506
Q 969 -1506 525 -1281
L 525 -769
Q 1066 -1069 1556 -1069
Q 2738 -1069 2738 188
L 2738 538
L 2725 538
Q 2359 -75 1625 -75
Q 1028 -75 664 351
Q 300 778 300 1497
Q 300 2313 692 2794
Q 1084 3275 1766 3275
Q 2413 3275 2725 2756
L 2738 2756
L 2738 3200
L 3250 3200
L 3250 256
z
M 2738 1447
L 2738 1919
Q 2738 2300 2480 2572
Q 2222 2844 1838 2844
Q 1363 2844 1094 2498
Q 825 2153 825 1531
Q 825 997 1083 676
Q 1341 356 1766 356
Q 2197 356 2467 662
Q 2738 969 2738 1447
z
" transform="scale(0.015625)"/>
        <path id="SegoeUI-76" d="M 3034 3200
L 1759 0
L 1256 0
L 44 3200
L 606 3200
L 1419 875
Q 1509 619 1531 428
L 1544 428
Q 1575 669 1644 863
L 2494 3200
L 3034 3200
z
" transform="scale(0.015625)"/>
       </defs>
       <use xlink:href="#SegoeUI-54"/>
       <use xlink:href="#SegoeUI-72" transform="translate(43.642578 0)"/>
       <use xlink:href="#SegoeUI-61" transform="translate(78.408203 0)"/>
       <use xlink:href="#SegoeUI-64" transform="translate(129.287109 0)"/>
       <use xlink:href="#SegoeUI-69" transform="translate(188.173828 0)"/>
       <use xlink:href="#SegoeUI-6e" transform="translate(212.392578 0)"/>
       <use xlink:href="#SegoeUI-67" transform="translate(268.984375 0)"/>
       <use xlink:href="#SegoeUI-76" transform="translate(327.871094 0)"/>
       <use xlink:href="#SegoeUI-69" transform="translate(375.771484 0)"/>
       <use xlink:href="#SegoeUI-65" transform="translate(399.990234 0)"/>
       <use xlink:href="#SegoeUI-77" transform="translate(452.285156 0)"/>
      </g>
     </g>
    </g>
    <g id="ytick_5">
     <g id="line2d_5">
      <path d="M 82.879688 231.321399
L 470.571995 231.321399
" clip-path="url(#p8e2462d39b)" style="fill: none; stroke: #e8ebf2; stroke-width: 0.8; stroke-linecap: round"/>
     </g>
     <g id="text_15">
      <!-- FRED -->
      <g style="fill: #6f768a" transform="translate(56.44375 235.022961) scale(0.1 -0.1)">
       <defs>
        <path id="SegoeUI-46" d="M 2863 4006
L 1113 4006
L 1113 2456
L 2731 2456
L 2731 1984
L 1113 1984
L 1113 0
L 588 0
L 588 4481
L 2863 4481
L 2863 4006
z
" transform="scale(0.015625)"/>
        <path id="SegoeUI-45" d="M 2963 0
L 588 0
L 588 4481
L 2863 4481
L 2863 4006
L 1113 4006
L 1113 2516
L 2731 2516
L 2731 2044
L 1113 2044
L 1113 475
L 2963 475
L 2963 0
z
" transform="scale(0.015625)"/>
       </defs>
       <use xlink:href="#SegoeUI-46"/>
       <use xlink:href="#SegoeUI-52" transform="translate(48.828125 0)"/>
       <use xlink:href="#SegoeUI-45" transform="translate(108.642578 0)"/>
       <use xlink:href="#SegoeUI-44" transform="translate(159.228516 0)"/>
      </g>
     </g>
    </g>
    <g id="ytick_6">
     <g id="line2d_6">
      <path d="M 82.879688 260.524196
L 470.571995 260.524196
" clip-path="url(#p8e2462d39b)" style="fill: none; stroke: #e8ebf2; stroke-width: 0.8; stroke-linecap: round"/>
     </g>
     <g id="text_16">
      <!-- MarketStructure -->
      <g style="fill: #6f768a" transform="translate(8.698437 264.225758) scale(0.1 -0.1)">
       <defs>
        <path id="SegoeUI-4d" d="M 5156 0
L 4634 0
L 4634 3006
Q 4634 3363 4678 3878
L 4666 3878
Q 4591 3575 4531 3444
L 3000 0
L 2744 0
L 1216 3419
Q 1150 3569 1081 3878
L 1069 3878
Q 1094 3609 1094 3000
L 1094 0
L 588 0
L 588 4481
L 1281 4481
L 2656 1356
Q 2816 997 2863 819
L 2881 819
Q 3016 1188 3097 1369
L 4500 4481
L 5156 4481
L 5156 0
z
" transform="scale(0.015625)"/>
        <path id="SegoeUI-6b" d="M 3175 0
L 2456 0
L 1044 1538
L 1031 1538
L 1031 0
L 519 0
L 519 4738
L 1031 4738
L 1031 1734
L 1044 1734
L 2388 3200
L 3059 3200
L 1575 1656
L 3175 0
z
" transform="scale(0.015625)"/>
        <path id="SegoeUI-53" d="M 378 181
L 378 800
Q 484 706 632 631
Q 781 556 945 504
Q 1109 453 1275 425
Q 1441 397 1581 397
Q 2066 397 2305 576
Q 2544 756 2544 1094
Q 2544 1275 2464 1409
Q 2384 1544 2243 1655
Q 2103 1766 1911 1867
Q 1719 1969 1497 2081
Q 1263 2200 1059 2322
Q 856 2444 706 2591
Q 556 2738 470 2923
Q 384 3109 384 3359
Q 384 3666 518 3892
Q 653 4119 872 4266
Q 1091 4413 1370 4484
Q 1650 4556 1941 4556
Q 2603 4556 2906 4397
L 2906 3806
Q 2509 4081 1888 4081
Q 1716 4081 1544 4045
Q 1372 4009 1237 3928
Q 1103 3847 1018 3719
Q 934 3591 934 3406
Q 934 3234 998 3109
Q 1063 2984 1188 2881
Q 1313 2778 1492 2681
Q 1672 2584 1906 2469
Q 2147 2350 2362 2219
Q 2578 2088 2740 1928
Q 2903 1769 2998 1575
Q 3094 1381 3094 1131
Q 3094 800 2964 570
Q 2834 341 2614 197
Q 2394 53 2106 -11
Q 1819 -75 1500 -75
Q 1394 -75 1237 -58
Q 1081 -41 918 -8
Q 756 25 611 73
Q 466 122 378 181
z
" transform="scale(0.015625)"/>
       </defs>
       <use xlink:href="#SegoeUI-4d"/>
       <use xlink:href="#SegoeUI-61" transform="translate(89.794922 0)"/>
       <use xlink:href="#SegoeUI-72" transform="translate(140.673828 0)"/>
       <use xlink:href="#SegoeUI-6b" transform="translate(175.439453 0)"/>
       <use xlink:href="#SegoeUI-65" transform="translate(223.146484 0)"/>
       <use xlink:href="#SegoeUI-74" transform="translate(275.441406 0)"/>
       <use xlink:href="#SegoeUI-53" transform="translate(309.328125 0)"/>
       <use xlink:href="#SegoeUI-74" transform="translate(359.203125 0)"/>
       <use xlink:href="#SegoeUI-72" transform="translate(393.089844 0)"/>
       <use xlink:href="#SegoeUI-75" transform="translate(427.855469 0)"/>
       <use xlink:href="#SegoeUI-63" transform="translate(484.447266 0)"/>
       <use xlink:href="#SegoeUI-74" transform="translate(530.638672 0)"/>
       <use xlink:href="#SegoeUI-75" transform="translate(564.525391 0)"/>
       <use xlink:href="#SegoeUI-72" transform="translate(621.117188 0)"/>
       <use xlink:href="#SegoeUI-65" transform="translate(654.507812 0)"/>
      </g>
     </g>
    </g>
    <g id="ytick_7">
     <g id="line2d_7">
      <path d="M 82.879688 289.726993
L 470.571995 289.726993
" clip-path="url(#p8e2462d39b)" style="fill: none; stroke: #e8ebf2; stroke-width: 0.8; stroke-linecap: round"/>
     </g>
     <g id="text_17">
      <!-- Farside ETF Data -->
      <g style="fill: #6f768a" transform="translate(7.2 293.428556) scale(0.1 -0.1)">
       <use xlink:href="#SegoeUI-46"/>
       <use xlink:href="#SegoeUI-61" transform="translate(45.078125 0)"/>
       <use xlink:href="#SegoeUI-72" transform="translate(95.957031 0)"/>
       <use xlink:href="#SegoeUI-73" transform="translate(131.347656 0)"/>
       <use xlink:href="#SegoeUI-69" transform="translate(173.779297 0)"/>
       <use xlink:href="#SegoeUI-64" transform="translate(197.998047 0)"/>
       <use xlink:href="#SegoeUI-65" transform="translate(256.884766 0)"/>
       <use xlink:href="#SegoeUI-20" transform="translate(309.179688 0)"/>
       <use xlink:href="#SegoeUI-45" transform="translate(336.572266 0)"/>
       <use xlink:href="#SegoeUI-54" transform="translate(387.408203 0)"/>
       <use xlink:href="#SegoeUI-46" transform="translate(439.800781 0)"/>
       <use xlink:href="#SegoeUI-20" transform="translate(488.628906 0)"/>
       <use xlink:href="#SegoeUI-44" transform="translate(516.021484 0)"/>
       <use xlink:href="#SegoeUI-61" transform="translate(586.138672 0)"/>
       <use xlink:href="#SegoeUI-74" transform="translate(637.017578 0)"/>
       <use xlink:href="#SegoeUI-61" transform="translate(670.904297 0)"/>
      </g>
     </g>
    </g>
    <g id="ytick_8">
     <g id="line2d_8">
      <path d="M 82.879688 318.92979
L 470.571995 318.92979
" clip-path="url(#p8e2462d39b)" style="fill: none; stroke: #e8ebf2; stroke-width: 0.8; stroke-linecap: round"/>
     </g>
     <g id="text_18">
      <!-- AlternativeMe -->
      <g style="fill: #6f768a" transform="translate(17.7875 322.631353) scale(0.1 -0.1)">
       <use xlink:href="#SegoeUI-41"/>
       <use xlink:href="#SegoeUI-6c" transform="translate(64.501953 0)"/>
       <use xlink:href="#SegoeUI-74" transform="translate(88.720703 0)"/>
       <use xlink:href="#SegoeUI-65" transform="translate(121.857422 0)"/>
       <use xlink:href="#SegoeUI-72" transform="translate(174.152344 0)"/>
       <use xlink:href="#SegoeUI-6e" transform="translate(208.667969 0)"/>
       <use xlink:href="#SegoeUI-61" transform="translate(265.259766 0)"/>
       <use xlink:href="#SegoeUI-74" transform="translate(316.138672 0)"/>
       <use xlink:href="#SegoeUI-69" transform="translate(350.025391 0)"/>
       <use xlink:href="#SegoeUI-76" transform="translate(374.244141 0)"/>
       <use xlink:href="#SegoeUI-65" transform="translate(421.519531 0)"/>
       <use xlink:href="#SegoeUI-4d" transform="translate(473.814453 0)"/>
       <use xlink:href="#SegoeUI-65" transform="translate(563.609375 0)"/>
      </g>
     </g>
    </g>
   </g>
   <g id="patch_3">
    <path d="M 82.879688 102.829091
L 452.110457 102.829091
L 452.110457 126.191329
L 82.879688 126.191329
z
" clip-path="url(#p8e2462d39b)" style="fill: #5477c4; stroke: #2e4780; stroke-linejoin: miter"/>
   </g>
   <g id="patch_4">
    <path d="M 82.879688 132.031888
L 134.135373 132.031888
L 134.135373 155.394126
L 82.879688 155.394126
z
" clip-path="url(#p8e2462d39b)" style="fill: #5477c4; stroke: #2e4780; stroke-linejoin: miter"/>
   </g>
   <g id="patch_5">
    <path d="M 82.879688 161.234685
L 129.389476 161.234685
L 129.389476 184.596923
L 82.879688 184.596923
z
" clip-path="url(#p8e2462d39b)" style="fill: #5477c4; stroke: #2e4780; stroke-linejoin: miter"/>
   </g>
   <g id="patch_6">
    <path d="M 82.879688 190.437483
L 127.491117 190.437483
L 127.491117 213.79972
L 82.879688 213.79972
z
" clip-path="url(#p8e2462d39b)" style="fill: #5477c4; stroke: #2e4780; stroke-linejoin: miter"/>
   </g>
   <g id="patch_7">
    <path d="M 82.879688 219.64028
L 104.710813 219.64028
L 104.710813 243.002517
L 82.879688 243.002517
z
" clip-path="url(#p8e2462d39b)" style="fill: #5477c4; stroke: #2e4780; stroke-linejoin: miter"/>
   </g>
   <g id="patch_8">
    <path d="M 82.879688 248.843077
L 97.117378 248.843077
L 97.117378 272.205315
L 82.879688 272.205315
z
" clip-path="url(#p8e2462d39b)" style="fill: #5477c4; stroke: #2e4780; stroke-linejoin: miter"/>
   </g>
   <g id="patch_9">
    <path d="M 82.879688 278.045874
L 87.625584 278.045874
L 87.625584 301.408112
L 82.879688 301.408112
z
" clip-path="url(#p8e2462d39b)" style="fill: #5477c4; stroke: #2e4780; stroke-linejoin: miter"/>
   </g>
   <g id="patch_10">
    <path d="M 82.879688 307.248671
L 84.778046 307.248671
L 84.778046 330.610909
L 82.879688 330.610909
z
" clip-path="url(#p8e2462d39b)" style="fill: #5477c4; stroke: #2e4780; stroke-linejoin: miter"/>
   </g>
   <g id="patch_11">
    <path d="M 82.879688 342
L 82.879688 91.44
" style="fill: none; stroke: #d7dbe7; stroke-width: 1.25; stroke-linejoin: miter; stroke-linecap: square"/>
   </g>
   <g id="patch_12">
    <path d="M 82.879688 342
L 470.571995 342
" style="fill: none; stroke: #d7dbe7; stroke-width: 1.25; stroke-linejoin: miter; stroke-linecap: square"/>
   </g>
   <g id="text_19">
    <!-- A. Provider inventory -->
    <g style="fill: #1f2430" transform="translate(82.879688 85.44) scale(0.13 -0.13)">
     <defs>
      <path id="SegoeUI-Semibold-41" d="M 4234 0
L 3419 0
L 3016 1141
L 1253 1141
L 866 0
L 53 0
L 1731 4481
L 2569 4481
L 4234 0
z
M 2819 1747
L 2197 3534
Q 2169 3622 2138 3816
L 2125 3816
Q 2097 3638 2063 3534
L 1447 1747
L 2819 1747
z
" transform="scale(0.015625)"/>
      <path id="SegoeUI-Semibold-2e" d="M 772 -69
Q 584 -69 453 54
Q 322 178 322 350
Q 322 525 453 650
Q 584 775 772 775
Q 963 775 1095 650
Q 1228 525 1228 350
Q 1228 178 1095 54
Q 963 -69 772 -69
z
" transform="scale(0.015625)"/>
      <path id="SegoeUI-Semibold-20" transform="scale(0.015625)"/>
      <path id="SegoeUI-Semibold-50" d="M 1294 1625
L 1294 0
L 553 0
L 553 4481
L 1913 4481
Q 2684 4481 3109 4122
Q 3534 3763 3534 3109
Q 3534 2456 3090 2040
Q 2647 1625 1891 1625
L 1294 1625
z
M 1294 3869
L 1294 2231
L 1775 2231
Q 2253 2231 2503 2453
Q 2753 2675 2753 3078
Q 2753 3869 1834 3869
L 1294 3869
z
" transform="scale(0.015625)"/>
      <path id="SegoeUI-Semibold-72" d="M 2328 2509
Q 2197 2613 1950 2613
Q 1628 2613 1412 2322
Q 1197 2031 1197 1531
L 1197 0
L 472 0
L 472 3200
L 1197 3200
L 1197 2541
L 1209 2541
Q 1316 2878 1536 3067
Q 1756 3256 2028 3256
Q 2225 3256 2328 3197
L 2328 2509
z
" transform="scale(0.015625)"/>
      <path id="SegoeUI-Semibold-6f" d="M 1891 -75
Q 1150 -75 708 373
Q 266 822 266 1563
Q 266 2369 727 2822
Q 1188 3275 1969 3275
Q 2719 3275 3137 2834
Q 3556 2394 3556 1613
Q 3556 847 3104 386
Q 2653 -75 1891 -75
z
M 1925 2697
Q 1500 2697 1253 2400
Q 1006 2103 1006 1581
Q 1006 1078 1256 789
Q 1506 500 1925 500
Q 2353 500 2583 784
Q 2813 1069 2813 1594
Q 2813 2122 2583 2409
Q 2353 2697 1925 2697
z
" transform="scale(0.015625)"/>
      <path id="SegoeUI-Semibold-76" d="M 3228 3200
L 1991 0
L 1206 0
L 28 3200
L 816 3200
L 1525 963
Q 1606 716 1625 531
L 1634 531
Q 1663 763 1722 950
L 2466 3200
L 3228 3200
z
" transform="scale(0.015625)"/>
      <path id="SegoeUI-Semibold-69" d="M 838 3872
Q 659 3872 532 3987
Q 406 4103 406 4281
Q 406 4459 532 4578
Q 659 4697 838 4697
Q 1022 4697 1150 4578
Q 1278 4459 1278 4281
Q 1278 4113 1150 3992
Q 1022 3872 838 3872
z
M 1197 0
L 472 0
L 472 3200
L 1197 3200
L 1197 0
z
" transform="scale(0.015625)"/>
      <path id="SegoeUI-Semibold-64" d="M 3381 0
L 2656 0
L 2656 544
L 2644 544
Q 2294 -75 1566 -75
Q 975 -75 620 354
Q 266 784 266 1525
Q 266 2319 658 2797
Q 1050 3275 1703 3275
Q 2350 3275 2644 2756
L 2656 2756
L 2656 4738
L 3381 4738
L 3381 0
z
M 2666 1463
L 2666 1881
Q 2666 2222 2444 2459
Q 2222 2697 1878 2697
Q 1472 2697 1239 2394
Q 1006 2091 1006 1553
Q 1006 1066 1229 783
Q 1453 500 1831 500
Q 2203 500 2434 773
Q 2666 1047 2666 1463
z
" transform="scale(0.015625)"/>
      <path id="SegoeUI-Semibold-65" d="M 3181 1403
L 1000 1403
Q 1013 959 1273 718
Q 1534 478 1991 478
Q 2503 478 2931 784
L 2931 200
Q 2494 -75 1775 -75
Q 1069 -75 667 361
Q 266 797 266 1588
Q 266 2334 708 2804
Q 1150 3275 1806 3275
Q 2463 3275 2822 2853
Q 3181 2431 3181 1681
L 3181 1403
z
M 2481 1916
Q 2478 2306 2297 2523
Q 2116 2741 1797 2741
Q 1484 2741 1267 2512
Q 1050 2284 1000 1916
L 2481 1916
z
" transform="scale(0.015625)"/>
      <path id="SegoeUI-Semibold-6e" d="M 3322 0
L 2597 0
L 2597 1803
Q 2597 2700 1963 2700
Q 1631 2700 1415 2451
Q 1200 2203 1200 1825
L 1200 0
L 472 0
L 472 3200
L 1200 3200
L 1200 2669
L 1213 2669
Q 1572 3275 2250 3275
Q 2772 3275 3047 2936
Q 3322 2597 3322 1956
L 3322 0
z
" transform="scale(0.015625)"/>
      <path id="SegoeUI-Semibold-74" d="M 2159 34
Q 1947 -72 1600 -72
Q 669 -72 669 822
L 669 2631
L 134 2631
L 134 3200
L 669 3200
L 669 3941
L 1394 4147
L 1394 3200
L 2159 3200
L 2159 2631
L 1394 2631
L 1394 1031
Q 1394 747 1497 625
Q 1600 503 1841 503
Q 2025 503 2159 609
L 2159 34
z
" transform="scale(0.015625)"/>
      <path id="SegoeUI-Semibold-79" d="M 3244 3200
L 1800 -513
Q 1350 -1506 538 -1506
Q 309 -1506 156 -1466
L 156 -863
Q 328 -919 469 -919
Q 875 -919 1075 -519
L 1291 6
L 19 3200
L 822 3200
L 1584 875
Q 1597 831 1641 644
L 1656 644
Q 1672 716 1713 869
L 2513 3200
L 3244 3200
z
" transform="scale(0.015625)"/>
     </defs>
     <use xlink:href="#SegoeUI-Semibold-41"/>
     <use xlink:href="#SegoeUI-Semibold-2e" transform="translate(67.138672 0)"/>
     <use xlink:href="#SegoeUI-Semibold-20" transform="translate(91.259766 0)"/>
     <use xlink:href="#SegoeUI-Semibold-50" transform="translate(118.75 0)"/>
     <use xlink:href="#SegoeUI-Semibold-72" transform="translate(177.197266 0)"/>
     <use xlink:href="#SegoeUI-Semibold-6f" transform="translate(213.333984 0)"/>
     <use xlink:href="#SegoeUI-Semibold-76" transform="translate(273.050781 0)"/>
     <use xlink:href="#SegoeUI-Semibold-69" transform="translate(323.783203 0)"/>
     <use xlink:href="#SegoeUI-Semibold-64" transform="translate(349.90625 0)"/>
     <use xlink:href="#SegoeUI-Semibold-65" transform="translate(410.160156 0)"/>
     <use xlink:href="#SegoeUI-Semibold-72" transform="translate(463.285156 0)"/>
     <use xlink:href="#SegoeUI-Semibold-20" transform="translate(500.296875 0)"/>
     <use xlink:href="#SegoeUI-Semibold-69" transform="translate(527.787109 0)"/>
     <use xlink:href="#SegoeUI-Semibold-6e" transform="translate(553.910156 0)"/>
     <use xlink:href="#SegoeUI-Semibold-76" transform="translate(612.259766 0)"/>
     <use xlink:href="#SegoeUI-Semibold-65" transform="translate(662.242188 0)"/>
     <use xlink:href="#SegoeUI-Semibold-6e" transform="translate(715.367188 0)"/>
     <use xlink:href="#SegoeUI-Semibold-74" transform="translate(773.716797 0)"/>
     <use xlink:href="#SegoeUI-Semibold-6f" transform="translate(809.224609 0)"/>
     <use xlink:href="#SegoeUI-Semibold-72" transform="translate(868.941406 0)"/>
     <use xlink:href="#SegoeUI-Semibold-79" transform="translate(909.953125 0)"/>
    </g>
   </g>
  </g>
  <g id="axes_2">
   <g id="patch_13">
    <path d="M 602.38738 342
L 990.079688 342
L 990.079688 91.44
L 602.38738 91.44
z
" style="fill: #ffffff"/>
   </g>
   <g id="matplotlib.axis_3">
    <g id="xtick_10">
     <g id="text_20">
      <!-- 0 -->
      <g style="fill: #6f768a" transform="translate(599.692067 352.903125) scale(0.1 -0.1)">
       <use xlink:href="#SegoeUI-30"/>
      </g>
     </g>
    </g>
    <g id="xtick_11">
     <g id="text_21">
      <!-- 20 -->
      <g style="fill: #6f768a" transform="translate(667.326425 352.903125) scale(0.1 -0.1)">
       <use xlink:href="#SegoeUI-32"/>
       <use xlink:href="#SegoeUI-30" transform="translate(53.90625 0)"/>
      </g>
     </g>
    </g>
    <g id="xtick_12">
     <g id="text_22">
      <!-- 40 -->
      <g style="fill: #6f768a" transform="translate(737.656095 352.903125) scale(0.1 -0.1)">
       <use xlink:href="#SegoeUI-34"/>
       <use xlink:href="#SegoeUI-30" transform="translate(53.90625 0)"/>
      </g>
     </g>
    </g>
    <g id="xtick_13">
     <g id="text_23">
      <!-- 60 -->
      <g style="fill: #6f768a" transform="translate(807.985766 352.903125) scale(0.1 -0.1)">
       <defs>
        <path id="SegoeUI-36" d="M 3194 1422
Q 3194 1094 3087 819
Q 2981 544 2793 344
Q 2606 144 2347 33
Q 2088 -78 1784 -78
Q 1447 -78 1180 62
Q 913 203 727 467
Q 541 731 444 1112
Q 347 1494 347 1972
Q 347 2556 476 3032
Q 606 3509 845 3848
Q 1084 4188 1421 4372
Q 1759 4556 2175 4556
Q 2638 4556 2919 4428
L 2919 3944
Q 2572 4122 2188 4122
Q 1888 4122 1647 3987
Q 1406 3853 1234 3608
Q 1063 3363 970 3016
Q 878 2669 878 2244
L 891 2244
Q 1200 2803 1913 2803
Q 2206 2803 2442 2703
Q 2678 2603 2845 2420
Q 3013 2238 3103 1984
Q 3194 1731 3194 1422
z
M 2669 1356
Q 2669 1591 2609 1778
Q 2550 1966 2439 2097
Q 2328 2228 2165 2298
Q 2003 2369 1797 2369
Q 1606 2369 1443 2297
Q 1281 2225 1162 2101
Q 1044 1978 976 1814
Q 909 1650 909 1466
Q 909 1234 975 1032
Q 1041 831 1159 681
Q 1278 531 1442 445
Q 1606 359 1806 359
Q 2000 359 2159 432
Q 2319 506 2431 637
Q 2544 769 2606 951
Q 2669 1134 2669 1356
z
" transform="scale(0.015625)"/>
       </defs>
       <use xlink:href="#SegoeUI-36"/>
       <use xlink:href="#SegoeUI-30" transform="translate(53.90625 0)"/>
      </g>
     </g>
    </g>
    <g id="xtick_14">
     <g id="text_24">
      <!-- 80 -->
      <g style="fill: #6f768a" transform="translate(878.315436 352.903125) scale(0.1 -0.1)">
       <defs>
        <path id="SegoeUI-38" d="M 281 1250
Q 281 1428 337 1608
Q 394 1788 498 1944
Q 603 2100 758 2228
Q 913 2356 1109 2431
Q 819 2594 647 2848
Q 475 3103 475 3413
Q 475 3659 570 3868
Q 666 4078 834 4231
Q 1003 4384 1234 4470
Q 1466 4556 1734 4556
Q 2006 4556 2237 4468
Q 2469 4381 2637 4228
Q 2806 4075 2900 3865
Q 2994 3656 2994 3413
Q 2994 3103 2822 2848
Q 2650 2594 2366 2431
Q 2559 2356 2712 2228
Q 2866 2100 2970 1944
Q 3075 1788 3131 1608
Q 3188 1428 3188 1250
Q 3188 956 3081 712
Q 2975 469 2783 295
Q 2591 122 2323 25
Q 2056 -72 1734 -72
Q 1416 -72 1150 25
Q 884 122 690 295
Q 497 469 389 712
Q 281 956 281 1250
z
M 838 1294
Q 838 1084 902 915
Q 966 747 1083 628
Q 1200 509 1367 445
Q 1534 381 1738 381
Q 1934 381 2100 447
Q 2266 513 2386 631
Q 2506 750 2573 919
Q 2641 1088 2641 1294
Q 2641 1481 2577 1645
Q 2513 1809 2394 1934
Q 2275 2059 2109 2131
Q 1944 2203 1738 2203
Q 1544 2203 1380 2136
Q 1216 2069 1095 1948
Q 975 1828 906 1661
Q 838 1494 838 1294
z
M 997 3372
Q 997 3213 1055 3077
Q 1113 2941 1214 2839
Q 1316 2738 1450 2680
Q 1584 2622 1738 2622
Q 1891 2622 2027 2681
Q 2163 2741 2263 2842
Q 2363 2944 2422 3080
Q 2481 3216 2481 3372
Q 2481 3534 2423 3671
Q 2366 3809 2266 3909
Q 2166 4009 2030 4067
Q 1894 4125 1738 4125
Q 1572 4125 1436 4065
Q 1300 4006 1201 3904
Q 1103 3803 1050 3665
Q 997 3528 997 3372
z
" transform="scale(0.015625)"/>
       </defs>
       <use xlink:href="#SegoeUI-38"/>
       <use xlink:href="#SegoeUI-30" transform="translate(53.90625 0)"/>
      </g>
     </g>
    </g>
    <g id="xtick_15">
     <g id="text_25">
      <!-- 100 -->
      <g style="fill: #6f768a" transform="translate(945.949794 352.903125) scale(0.1 -0.1)">
       <use xlink:href="#SegoeUI-31"/>
       <use xlink:href="#SegoeUI-30" transform="translate(53.90625 0)"/>
       <use xlink:href="#SegoeUI-30" transform="translate(107.8125 0)"/>
      </g>
     </g>
    </g>
    <g id="text_26">
     <!-- Feature count -->
     <g style="fill: #1f2430" transform="translate(759.788221 368.086875) scale(0.12 -0.12)">
      <use xlink:href="#SegoeUI-46"/>
      <use xlink:href="#SegoeUI-65" transform="translate(48.828125 0)"/>
      <use xlink:href="#SegoeUI-61" transform="translate(101.123047 0)"/>
      <use xlink:href="#SegoeUI-74" transform="translate(152.001953 0)"/>
      <use xlink:href="#SegoeUI-75" transform="translate(185.888672 0)"/>
      <use xlink:href="#SegoeUI-72" transform="translate(242.480469 0)"/>
      <use xlink:href="#SegoeUI-65" transform="translate(275.871094 0)"/>
      <use xlink:href="#SegoeUI-20" transform="translate(328.166016 0)"/>
      <use xlink:href="#SegoeUI-63" transform="translate(355.558594 0)"/>
      <use xlink:href="#SegoeUI-6f" transform="translate(401.75 0)"/>
      <use xlink:href="#SegoeUI-75" transform="translate(460.34375 0)"/>
      <use xlink:href="#SegoeUI-6e" transform="translate(516.935547 0)"/>
      <use xlink:href="#SegoeUI-74" transform="translate(573.527344 0)"/>
     </g>
    </g>
   </g>
   <g id="matplotlib.axis_4">
    <g id="ytick_9">
     <g id="line2d_9">
      <path d="M 602.38738 116.228021
L 990.079688 116.228021
" clip-path="url(#pf4319e8410)" style="fill: none; stroke: #e8ebf2; stroke-width: 0.8; stroke-linecap: round"/>
     </g>
     <g id="text_27">
      <!-- diagnostic_only -->
      <g style="fill: #6f768a" transform="translate(530.478005 119.929584) scale(0.1 -0.1)">
       <defs>
        <path id="SegoeUI-5f" d="M 2656 -928
L 0 -928
L 0 -556
L 2656 -556
L 2656 -928
z
" transform="scale(0.015625)"/>
       </defs>
       <use xlink:href="#SegoeUI-64"/>
       <use xlink:href="#SegoeUI-69" transform="translate(58.886719 0)"/>
       <use xlink:href="#SegoeUI-61" transform="translate(83.105469 0)"/>
       <use xlink:href="#SegoeUI-67" transform="translate(133.984375 0)"/>
       <use xlink:href="#SegoeUI-6e" transform="translate(192.871094 0)"/>
       <use xlink:href="#SegoeUI-6f" transform="translate(249.462891 0)"/>
       <use xlink:href="#SegoeUI-73" transform="translate(308.056641 0)"/>
       <use xlink:href="#SegoeUI-74" transform="translate(350.488281 0)"/>
       <use xlink:href="#SegoeUI-69" transform="translate(384.375 0)"/>
       <use xlink:href="#SegoeUI-63" transform="translate(408.59375 0)"/>
       <use xlink:href="#SegoeUI-5f" transform="translate(454.785156 0)"/>
       <use xlink:href="#SegoeUI-6f" transform="translate(496.289062 0)"/>
       <use xlink:href="#SegoeUI-6e" transform="translate(554.882812 0)"/>
       <use xlink:href="#SegoeUI-6c" transform="translate(611.474609 0)"/>
       <use xlink:href="#SegoeUI-79" transform="translate(635.693359 0)"/>
      </g>
     </g>
    </g>
    <g id="ytick_10">
     <g id="line2d_10">
      <path d="M 602.38738 149.725348
L 990.079688 149.725348
" clip-path="url(#pf4319e8410)" style="fill: none; stroke: #e8ebf2; stroke-width: 0.8; stroke-linecap: round"/>
     </g>
     <g id="text_28">
      <!-- excluded_ambiguous_definition_or_unit -->
      <g style="fill: #6f768a" transform="translate(424.973317 153.480035) scale(0.1 -0.1)">
       <defs>
        <path id="SegoeUI-78" d="M 2856 3200
L 1781 1581
L 2838 0
L 2241 0
L 1613 1038
Q 1553 1134 1472 1281
L 1459 1281
Q 1444 1253 1313 1038
L 672 0
L 81 0
L 1172 1569
L 128 3200
L 725 3200
L 1344 2106
Q 1413 1984 1478 1856
L 1491 1856
L 2291 3200
L 2856 3200
z
" transform="scale(0.015625)"/>
        <path id="SegoeUI-62" d="M 1044 463
L 1031 463
L 1031 0
L 519 0
L 519 4738
L 1031 4738
L 1031 2638
L 1044 2638
Q 1422 3275 2150 3275
Q 2766 3275 3114 2845
Q 3463 2416 3463 1694
Q 3463 891 3072 408
Q 2681 -75 2003 -75
Q 1369 -75 1044 463
z
M 1031 1753
L 1031 1306
Q 1031 909 1289 632
Q 1547 356 1944 356
Q 2409 356 2673 712
Q 2938 1069 2938 1703
Q 2938 2238 2691 2541
Q 2444 2844 2022 2844
Q 1575 2844 1303 2533
Q 1031 2222 1031 1753
z
" transform="scale(0.015625)"/>
       </defs>
       <use xlink:href="#SegoeUI-65"/>
       <use xlink:href="#SegoeUI-78" transform="translate(52.294922 0)"/>
       <use xlink:href="#SegoeUI-63" transform="translate(97.443359 0)"/>
       <use xlink:href="#SegoeUI-6c" transform="translate(143.634766 0)"/>
       <use xlink:href="#SegoeUI-75" transform="translate(167.853516 0)"/>
       <use xlink:href="#SegoeUI-64" transform="translate(224.445312 0)"/>
       <use xlink:href="#SegoeUI-65" transform="translate(283.332031 0)"/>
       <use xlink:href="#SegoeUI-64" transform="translate(335.626953 0)"/>
       <use xlink:href="#SegoeUI-5f" transform="translate(394.513672 0)"/>
       <use xlink:href="#SegoeUI-61" transform="translate(436.017578 0)"/>
       <use xlink:href="#SegoeUI-6d" transform="translate(486.896484 0)"/>
       <use xlink:href="#SegoeUI-62" transform="translate(573.029297 0)"/>
       <use xlink:href="#SegoeUI-69" transform="translate(631.818359 0)"/>
       <use xlink:href="#SegoeUI-67" transform="translate(656.037109 0)"/>
       <use xlink:href="#SegoeUI-75" transform="translate(714.923828 0)"/>
       <use xlink:href="#SegoeUI-6f" transform="translate(771.515625 0)"/>
       <use xlink:href="#SegoeUI-75" transform="translate(830.109375 0)"/>
       <use xlink:href="#SegoeUI-73" transform="translate(886.701172 0)"/>
       <use xlink:href="#SegoeUI-5f" transform="translate(929.132812 0)"/>
       <use xlink:href="#SegoeUI-64" transform="translate(970.636719 0)"/>
       <use xlink:href="#SegoeUI-65" transform="translate(1029.523438 0)"/>
       <use xlink:href="#SegoeUI-66" transform="translate(1081.818359 0)"/>
       <use xlink:href="#SegoeUI-69" transform="translate(1113.117188 0)"/>
       <use xlink:href="#SegoeUI-6e" transform="translate(1137.335938 0)"/>
       <use xlink:href="#SegoeUI-69" transform="translate(1193.927734 0)"/>
       <use xlink:href="#SegoeUI-74" transform="translate(1218.146484 0)"/>
       <use xlink:href="#SegoeUI-69" transform="translate(1252.033203 0)"/>
       <use xlink:href="#SegoeUI-6f" transform="translate(1276.251953 0)"/>
       <use xlink:href="#SegoeUI-6e" transform="translate(1334.845703 0)"/>
       <use xlink:href="#SegoeUI-5f" transform="translate(1391.4375 0)"/>
       <use xlink:href="#SegoeUI-6f" transform="translate(1432.941406 0)"/>
       <use xlink:href="#SegoeUI-72" transform="translate(1491.535156 0)"/>
       <use xlink:href="#SegoeUI-5f" transform="translate(1526.300781 0)"/>
       <use xlink:href="#SegoeUI-75" transform="translate(1567.804688 0)"/>
       <use xlink:href="#SegoeUI-6e" transform="translate(1624.396484 0)"/>
       <use xlink:href="#SegoeUI-69" transform="translate(1680.988281 0)"/>
       <use xlink:href="#SegoeUI-74" transform="translate(1705.207031 0)"/>
      </g>
     </g>
    </g>
    <g id="ytick_11">
     <g id="line2d_11">
      <path d="M 602.38738 183.222674
L 990.079688 183.222674
" clip-path="url(#pf4319e8410)" style="fill: none; stroke: #e8ebf2; stroke-width: 0.8; stroke-linecap: round"/>
     </g>
     <g id="text_29">
      <!-- excluded_duplicate -->
      <g style="fill: #6f768a" transform="translate(514.76238 186.924236) scale(0.1 -0.1)">
       <use xlink:href="#SegoeUI-65"/>
       <use xlink:href="#SegoeUI-78" transform="translate(52.294922 0)"/>
       <use xlink:href="#SegoeUI-63" transform="translate(97.443359 0)"/>
       <use xlink:href="#SegoeUI-6c" transform="translate(143.634766 0)"/>
       <use xlink:href="#SegoeUI-75" transform="translate(167.853516 0)"/>
       <use xlink:href="#SegoeUI-64" transform="translate(224.445312 0)"/>
       <use xlink:href="#SegoeUI-65" transform="translate(283.332031 0)"/>
       <use xlink:href="#SegoeUI-64" transform="translate(335.626953 0)"/>
       <use xlink:href="#SegoeUI-5f" transform="translate(394.513672 0)"/>
       <use xlink:href="#SegoeUI-64" transform="translate(436.017578 0)"/>
       <use xlink:href="#SegoeUI-75" transform="translate(494.904297 0)"/>
       <use xlink:href="#SegoeUI-70" transform="translate(551.496094 0)"/>
       <use xlink:href="#SegoeUI-6c" transform="translate(610.285156 0)"/>
       <use xlink:href="#SegoeUI-69" transform="translate(634.503906 0)"/>
       <use xlink:href="#SegoeUI-63" transform="translate(658.722656 0)"/>
       <use xlink:href="#SegoeUI-61" transform="translate(704.914062 0)"/>
       <use xlink:href="#SegoeUI-74" transform="translate(755.792969 0)"/>
       <use xlink:href="#SegoeUI-65" transform="translate(788.929688 0)"/>
      </g>
     </g>
    </g>
    <g id="ytick_12">
     <g id="line2d_12">
      <path d="M 602.38738 216.72
L 990.079688 216.72
" clip-path="url(#pf4319e8410)" style="fill: none; stroke: #e8ebf2; stroke-width: 0.8; stroke-linecap: round"/>
     </g>
     <g id="text_30">
      <!-- excluded_insufficient_coverage -->
      <g style="fill: #6f768a" transform="translate(463.03113 220.474687) scale(0.1 -0.1)">
       <use xlink:href="#SegoeUI-65"/>
       <use xlink:href="#SegoeUI-78" transform="translate(52.294922 0)"/>
       <use xlink:href="#SegoeUI-63" transform="translate(97.443359 0)"/>
       <use xlink:href="#SegoeUI-6c" transform="translate(143.634766 0)"/>
       <use xlink:href="#SegoeUI-75" transform="translate(167.853516 0)"/>
       <use xlink:href="#SegoeUI-64" transform="translate(224.445312 0)"/>
       <use xlink:href="#SegoeUI-65" transform="translate(283.332031 0)"/>
       <use xlink:href="#SegoeUI-64" transform="translate(335.626953 0)"/>
       <use xlink:href="#SegoeUI-5f" transform="translate(394.513672 0)"/>
       <use xlink:href="#SegoeUI-69" transform="translate(436.017578 0)"/>
       <use xlink:href="#SegoeUI-6e" transform="translate(460.236328 0)"/>
       <use xlink:href="#SegoeUI-73" transform="translate(516.828125 0)"/>
       <use xlink:href="#SegoeUI-75" transform="translate(559.259766 0)"/>
       <use xlink:href="#SegoeUI-66" transform="translate(615.851562 0)"/>
       <use xlink:href="#SegoeUI-66" transform="translate(647.150391 0)"/>
       <use xlink:href="#SegoeUI-69" transform="translate(678.449219 0)"/>
       <use xlink:href="#SegoeUI-63" transform="translate(702.667969 0)"/>
       <use xlink:href="#SegoeUI-69" transform="translate(748.859375 0)"/>
       <use xlink:href="#SegoeUI-65" transform="translate(773.078125 0)"/>
       <use xlink:href="#SegoeUI-6e" transform="translate(825.373047 0)"/>
       <use xlink:href="#SegoeUI-74" transform="translate(881.964844 0)"/>
       <use xlink:href="#SegoeUI-5f" transform="translate(915.851562 0)"/>
       <use xlink:href="#SegoeUI-63" transform="translate(957.355469 0)"/>
       <use xlink:href="#SegoeUI-6f" transform="translate(1003.546875 0)"/>
       <use xlink:href="#SegoeUI-76" transform="translate(1062.140625 0)"/>
       <use xlink:href="#SegoeUI-65" transform="translate(1109.416016 0)"/>
       <use xlink:href="#SegoeUI-72" transform="translate(1161.710938 0)"/>
       <use xlink:href="#SegoeUI-61" transform="translate(1196.476562 0)"/>
       <use xlink:href="#SegoeUI-67" transform="translate(1247.355469 0)"/>
       <use xlink:href="#SegoeUI-65" transform="translate(1306.242188 0)"/>
      </g>
     </g>
    </g>
    <g id="ytick_13">
     <g id="line2d_13">
      <path d="M 602.38738 250.217326
L 990.079688 250.217326
" clip-path="url(#pf4319e8410)" style="fill: none; stroke: #e8ebf2; stroke-width: 0.8; stroke-linecap: round"/>
     </g>
     <g id="text_31">
      <!-- excluded_release_risk -->
      <g style="fill: #6f768a" transform="translate(505.240505 253.918889) scale(0.1 -0.1)">
       <use xlink:href="#SegoeUI-65"/>
       <use xlink:href="#SegoeUI-78" transform="translate(52.294922 0)"/>
       <use xlink:href="#SegoeUI-63" transform="translate(97.443359 0)"/>
       <use xlink:href="#SegoeUI-6c" transform="translate(143.634766 0)"/>
       <use xlink:href="#SegoeUI-75" transform="translate(167.853516 0)"/>
       <use xlink:href="#SegoeUI-64" transform="translate(224.445312 0)"/>
       <use xlink:href="#SegoeUI-65" transform="translate(283.332031 0)"/>
       <use xlink:href="#SegoeUI-64" transform="translate(335.626953 0)"/>
       <use xlink:href="#SegoeUI-5f" transform="translate(394.513672 0)"/>
       <use xlink:href="#SegoeUI-72" transform="translate(436.017578 0)"/>
       <use xlink:href="#SegoeUI-65" transform="translate(469.408203 0)"/>
       <use xlink:href="#SegoeUI-6c" transform="translate(521.703125 0)"/>
       <use xlink:href="#SegoeUI-65" transform="translate(545.921875 0)"/>
       <use xlink:href="#SegoeUI-61" transform="translate(598.216797 0)"/>
       <use xlink:href="#SegoeUI-73" transform="translate(649.095703 0)"/>
       <use xlink:href="#SegoeUI-65" transform="translate(691.527344 0)"/>
       <use xlink:href="#SegoeUI-5f" transform="translate(743.822266 0)"/>
       <use xlink:href="#SegoeUI-72" transform="translate(785.326172 0)"/>
       <use xlink:href="#SegoeUI-69" transform="translate(820.091797 0)"/>
       <use xlink:href="#SegoeUI-73" transform="translate(844.310547 0)"/>
       <use xlink:href="#SegoeUI-6b" transform="translate(886.742188 0)"/>
      </g>
     </g>
    </g>
    <g id="ytick_14">
     <g id="line2d_14">
      <path d="M 602.38738 283.714652
L 990.079688 283.714652
" clip-path="url(#pf4319e8410)" style="fill: none; stroke: #e8ebf2; stroke-width: 0.8; stroke-linecap: round"/>
     </g>
     <g id="text_32">
      <!-- primary_analysis -->
      <g style="fill: #6f768a" transform="translate(526.53738 287.416215) scale(0.1 -0.1)">
       <use xlink:href="#SegoeUI-70"/>
       <use xlink:href="#SegoeUI-72" transform="translate(58.789062 0)"/>
       <use xlink:href="#SegoeUI-69" transform="translate(93.554688 0)"/>
       <use xlink:href="#SegoeUI-6d" transform="translate(117.773438 0)"/>
       <use xlink:href="#SegoeUI-61" transform="translate(203.90625 0)"/>
       <use xlink:href="#SegoeUI-72" transform="translate(254.785156 0)"/>
       <use xlink:href="#SegoeUI-79" transform="translate(293.550781 0)"/>
       <use xlink:href="#SegoeUI-5f" transform="translate(341.939453 0)"/>
       <use xlink:href="#SegoeUI-61" transform="translate(383.443359 0)"/>
       <use xlink:href="#SegoeUI-6e" transform="translate(434.322266 0)"/>
       <use xlink:href="#SegoeUI-61" transform="translate(490.914062 0)"/>
       <use xlink:href="#SegoeUI-6c" transform="translate(541.792969 0)"/>
       <use xlink:href="#SegoeUI-79" transform="translate(566.011719 0)"/>
       <use xlink:href="#SegoeUI-73" transform="translate(614.400391 0)"/>
       <use xlink:href="#SegoeUI-69" transform="translate(656.832031 0)"/>
       <use xlink:href="#SegoeUI-73" transform="translate(681.050781 0)"/>
      </g>
     </g>
    </g>
    <g id="ytick_15">
     <g id="line2d_15">
      <path d="M 602.38738 317.211979
L 990.079688 317.211979
" clip-path="url(#pf4319e8410)" style="fill: none; stroke: #e8ebf2; stroke-width: 0.8; stroke-linecap: round"/>
     </g>
     <g id="text_33">
      <!-- robustness_or_sensitivity -->
      <g style="fill: #6f768a" transform="translate(490.454567 320.913541) scale(0.1 -0.1)">
       <use xlink:href="#SegoeUI-72"/>
       <use xlink:href="#SegoeUI-6f" transform="translate(33.390625 0)"/>
       <use xlink:href="#SegoeUI-62" transform="translate(91.984375 0)"/>
       <use xlink:href="#SegoeUI-75" transform="translate(150.773438 0)"/>
       <use xlink:href="#SegoeUI-73" transform="translate(207.365234 0)"/>
       <use xlink:href="#SegoeUI-74" transform="translate(249.796875 0)"/>
       <use xlink:href="#SegoeUI-6e" transform="translate(283.683594 0)"/>
       <use xlink:href="#SegoeUI-65" transform="translate(340.275391 0)"/>
       <use xlink:href="#SegoeUI-73" transform="translate(392.570312 0)"/>
       <use xlink:href="#SegoeUI-73" transform="translate(435.001953 0)"/>
       <use xlink:href="#SegoeUI-5f" transform="translate(477.433594 0)"/>
       <use xlink:href="#SegoeUI-6f" transform="translate(518.9375 0)"/>
       <use xlink:href="#SegoeUI-72" transform="translate(577.53125 0)"/>
       <use xlink:href="#SegoeUI-5f" transform="translate(612.296875 0)"/>
       <use xlink:href="#SegoeUI-73" transform="translate(653.800781 0)"/>
       <use xlink:href="#SegoeUI-65" transform="translate(696.232422 0)"/>
       <use xlink:href="#SegoeUI-6e" transform="translate(748.527344 0)"/>
       <use xlink:href="#SegoeUI-73" transform="translate(805.119141 0)"/>
       <use xlink:href="#SegoeUI-69" transform="translate(847.550781 0)"/>
       <use xlink:href="#SegoeUI-74" transform="translate(871.769531 0)"/>
       <use xlink:href="#SegoeUI-69" transform="translate(905.65625 0)"/>
       <use xlink:href="#SegoeUI-76" transform="translate(929.875 0)"/>
       <use xlink:href="#SegoeUI-69" transform="translate(977.775391 0)"/>
       <use xlink:href="#SegoeUI-74" transform="translate(1001.994141 0)"/>
       <use xlink:href="#SegoeUI-79" transform="translate(1035.880859 0)"/>
      </g>
     </g>
    </g>
   </g>
   <g id="patch_14">
    <path d="M 602.38738 102.829091
L 830.958808 102.829091
L 830.958808 129.626952
L 602.38738 129.626952
z
" clip-path="url(#pf4319e8410)" style="fill: #f0986e; stroke: #804126; stroke-linejoin: miter"/>
   </g>
   <g id="patch_15">
    <path d="M 602.38738 136.326417
L 971.618149 136.326417
L 971.618149 163.124278
L 602.38738 163.124278
z
" clip-path="url(#pf4319e8410)" style="fill: #f0986e; stroke: #804126; stroke-linejoin: miter"/>
   </g>
   <g id="patch_16">
    <path d="M 602.38738 169.823743
L 602.38738 169.823743
L 602.38738 196.621604
L 602.38738 196.621604
z
" clip-path="url(#pf4319e8410)" style="fill: #f0986e; stroke: #804126; stroke-linejoin: miter"/>
   </g>
   <g id="patch_17">
    <path d="M 602.38738 203.32107
L 609.420347 203.32107
L 609.420347 230.11893
L 602.38738 230.11893
z
" clip-path="url(#pf4319e8410)" style="fill: #f0986e; stroke: #804126; stroke-linejoin: miter"/>
   </g>
   <g id="patch_18">
    <path d="M 602.38738 236.818396
L 602.38738 236.818396
L 602.38738 263.616257
L 602.38738 263.616257
z
" clip-path="url(#pf4319e8410)" style="fill: #f0986e; stroke: #804126; stroke-linejoin: miter"/>
   </g>
   <g id="patch_19">
    <path d="M 602.38738 270.315722
L 690.299468 270.315722
L 690.299468 297.113583
L 602.38738 297.113583
z
" clip-path="url(#pf4319e8410)" style="fill: #f0986e; stroke: #804126; stroke-linejoin: miter"/>
   </g>
   <g id="patch_20">
    <path d="M 602.38738 303.813048
L 609.420347 303.813048
L 609.420347 330.610909
L 602.38738 330.610909
z
" clip-path="url(#pf4319e8410)" style="fill: #f0986e; stroke: #804126; stroke-linejoin: miter"/>
   </g>
   <g id="patch_21">
    <path d="M 602.38738 342
L 602.38738 91.44
" style="fill: none; stroke: #d7dbe7; stroke-width: 1.25; stroke-linejoin: miter; stroke-linecap: square"/>
   </g>
   <g id="patch_22">
    <path d="M 602.38738 342
L 990.079688 342
" style="fill: none; stroke: #d7dbe7; stroke-width: 1.25; stroke-linejoin: miter; stroke-linecap: square"/>
   </g>
   <g id="text_34">
    <!-- B. Usage disposition -->
    <g style="fill: #1f2430" transform="translate(602.38738 85.44) scale(0.13 -0.13)">
     <defs>
      <path id="SegoeUI-Semibold-42" d="M 553 0
L 553 4481
L 1975 4481
Q 2625 4481 3004 4197
Q 3384 3913 3384 3456
Q 3384 3075 3168 2794
Q 2953 2513 2572 2394
L 2572 2381
Q 3034 2328 3311 2039
Q 3588 1750 3588 1288
Q 3588 713 3134 356
Q 2681 0 1991 0
L 553 0
z
M 1294 3884
L 1294 2609
L 1775 2609
Q 2163 2609 2383 2792
Q 2603 2975 2603 3309
Q 2603 3884 1834 3884
L 1294 3884
z
M 1294 2013
L 1294 594
L 1928 594
Q 2344 594 2570 786
Q 2797 978 2797 1316
Q 2797 2013 1831 2013
L 1294 2013
z
" transform="scale(0.015625)"/>
      <path id="SegoeUI-Semibold-55" d="M 4000 1813
Q 4000 -75 2213 -75
Q 500 -75 500 1741
L 500 4481
L 1244 4481
L 1244 1894
Q 1244 575 2269 575
Q 3256 575 3256 1847
L 3256 4481
L 4000 4481
L 4000 1813
z
" transform="scale(0.015625)"/>
      <path id="SegoeUI-Semibold-73" d="M 272 100
L 272 772
Q 678 463 1169 463
Q 1825 463 1825 850
Q 1825 959 1769 1036
Q 1713 1113 1617 1172
Q 1522 1231 1392 1278
Q 1263 1325 1103 1384
Q 906 1463 748 1550
Q 591 1638 486 1748
Q 381 1859 328 2000
Q 275 2141 275 2328
Q 275 2559 384 2736
Q 494 2913 678 3033
Q 863 3153 1097 3214
Q 1331 3275 1581 3275
Q 2025 3275 2375 3141
L 2375 2506
Q 2038 2738 1600 2738
Q 1463 2738 1352 2709
Q 1241 2681 1162 2631
Q 1084 2581 1040 2511
Q 997 2441 997 2356
Q 997 2253 1040 2181
Q 1084 2109 1170 2054
Q 1256 2000 1376 1954
Q 1497 1909 1653 1856
Q 1859 1772 2023 1684
Q 2188 1597 2303 1486
Q 2419 1375 2481 1229
Q 2544 1084 2544 884
Q 2544 641 2431 459
Q 2319 278 2131 159
Q 1944 41 1698 -17
Q 1453 -75 1181 -75
Q 656 -75 272 100
z
" transform="scale(0.015625)"/>
      <path id="SegoeUI-Semibold-61" d="M 2928 0
L 2225 0
L 2225 500
L 2213 500
Q 1881 -75 1241 -75
Q 769 -75 501 181
Q 234 438 234 859
Q 234 1766 1278 1916
L 2228 2050
Q 2228 2734 1578 2734
Q 1006 2734 547 2341
L 547 2975
Q 1053 3275 1716 3275
Q 2928 3275 2928 2081
L 2928 0
z
M 2228 1572
L 1556 1478
Q 1244 1438 1086 1327
Q 928 1216 928 938
Q 928 734 1073 604
Q 1219 475 1463 475
Q 1794 475 2011 708
Q 2228 941 2228 1294
L 2228 1572
z
" transform="scale(0.015625)"/>
      <path id="SegoeUI-Semibold-67" d="M 3384 256
Q 3384 -1506 1613 -1506
Q 988 -1506 522 -1297
L 522 -634
Q 1047 -934 1519 -934
Q 2659 -934 2659 188
L 2659 538
L 2647 538
Q 2288 -75 1566 -75
Q 981 -75 623 351
Q 266 778 266 1497
Q 266 2313 650 2794
Q 1034 3275 1706 3275
Q 2341 3275 2647 2756
L 2659 2756
L 2659 3200
L 3384 3200
L 3384 256
z
M 2666 1466
L 2666 1881
Q 2666 2219 2442 2458
Q 2219 2697 1884 2697
Q 1472 2697 1239 2392
Q 1006 2088 1006 1541
Q 1006 1069 1229 786
Q 1453 503 1822 503
Q 2197 503 2431 773
Q 2666 1044 2666 1466
z
" transform="scale(0.015625)"/>
      <path id="SegoeUI-Semibold-70" d="M 1209 472
L 1197 472
L 1197 -1472
L 472 -1472
L 472 3200
L 1197 3200
L 1197 2638
L 1209 2638
Q 1581 3275 2297 3275
Q 2906 3275 3247 2847
Q 3588 2419 3588 1697
Q 3588 897 3203 415
Q 2819 -66 2153 -66
Q 1541 -66 1209 472
z
M 1191 1734
L 1191 1338
Q 1191 988 1414 744
Q 1638 500 1981 500
Q 2384 500 2614 814
Q 2844 1128 2844 1691
Q 2844 2163 2630 2430
Q 2416 2697 2050 2697
Q 1663 2697 1427 2422
Q 1191 2147 1191 1734
z
" transform="scale(0.015625)"/>
     </defs>
     <use xlink:href="#SegoeUI-Semibold-42"/>
     <use xlink:href="#SegoeUI-Semibold-2e" transform="translate(60.400391 0)"/>
     <use xlink:href="#SegoeUI-Semibold-20" transform="translate(84.521484 0)"/>
     <use xlink:href="#SegoeUI-Semibold-55" transform="translate(112.011719 0)"/>
     <use xlink:href="#SegoeUI-Semibold-73" transform="translate(182.324219 0)"/>
     <use xlink:href="#SegoeUI-Semibold-61" transform="translate(225.439453 0)"/>
     <use xlink:href="#SegoeUI-Semibold-67" transform="translate(277.636719 0)"/>
     <use xlink:href="#SegoeUI-Semibold-65" transform="translate(337.890625 0)"/>
     <use xlink:href="#SegoeUI-Semibold-20" transform="translate(391.015625 0)"/>
     <use xlink:href="#SegoeUI-Semibold-64" transform="translate(418.505859 0)"/>
     <use xlink:href="#SegoeUI-Semibold-69" transform="translate(478.759766 0)"/>
     <use xlink:href="#SegoeUI-Semibold-73" transform="translate(504.882812 0)"/>
     <use xlink:href="#SegoeUI-Semibold-70" transform="translate(547.998047 0)"/>
     <use xlink:href="#SegoeUI-Semibold-6f" transform="translate(608.251953 0)"/>
     <use xlink:href="#SegoeUI-Semibold-73" transform="translate(667.96875 0)"/>
     <use xlink:href="#SegoeUI-Semibold-69" transform="translate(711.083984 0)"/>
     <use xlink:href="#SegoeUI-Semibold-74" transform="translate(737.207031 0)"/>
     <use xlink:href="#SegoeUI-Semibold-69" transform="translate(773.339844 0)"/>
     <use xlink:href="#SegoeUI-Semibold-6f" transform="translate(799.462891 0)"/>
     <use xlink:href="#SegoeUI-Semibold-6e" transform="translate(859.179688 0)"/>
    </g>
   </g>
  </g>
  <g id="text_35">
   <!-- Data-governance surface spans providers, features, and release boundaries -->
   <g style="fill: #1f2430" transform="translate(62.719687 19.2225) scale(0.16 -0.16)">
    <defs>
     <path id="SegoeUI-Semibold-44" d="M 553 0
L 553 4481
L 1847 4481
Q 4325 4481 4325 2297
Q 4325 1259 3637 629
Q 2950 0 1794 0
L 553 0
z
M 1294 3850
L 1294 628
L 1888 628
Q 2672 628 3108 1059
Q 3544 1491 3544 2278
Q 3544 3850 1916 3850
L 1294 3850
z
" transform="scale(0.015625)"/>
     <path id="SegoeUI-Semibold-2d" d="M 2156 1481
L 450 1481
L 450 2016
L 2156 2016
L 2156 1481
z
" transform="scale(0.015625)"/>
     <path id="SegoeUI-Semibold-63" d="M 2763 147
Q 2378 -75 1853 -75
Q 1141 -75 703 370
Q 266 816 266 1525
Q 266 2316 736 2795
Q 1206 3275 1994 3275
Q 2431 3275 2766 3122
L 2766 2447
Q 2431 2697 2053 2697
Q 1594 2697 1300 2386
Q 1006 2075 1006 1572
Q 1006 1075 1282 787
Q 1559 500 2025 500
Q 2416 500 2763 778
L 2763 147
z
" transform="scale(0.015625)"/>
     <path id="SegoeUI-Semibold-75" d="M 3263 0
L 2538 0
L 2538 506
L 2525 506
Q 2209 -75 1544 -75
Q 409 -75 409 1288
L 409 3200
L 1134 3200
L 1134 1363
Q 1134 500 1800 500
Q 2122 500 2330 737
Q 2538 975 2538 1359
L 2538 3200
L 3263 3200
L 3263 0
z
" transform="scale(0.015625)"/>
     <path id="SegoeUI-Semibold-66" d="M 2281 4147
Q 2134 4231 1947 4231
Q 1419 4231 1419 3634
L 1419 3200
L 2163 3200
L 2163 2631
L 1422 2631
L 1422 0
L 697 0
L 697 2631
L 150 2631
L 150 3200
L 697 3200
L 697 3719
Q 697 4225 1028 4517
Q 1359 4809 1856 4809
Q 2125 4809 2281 4750
L 2281 4147
z
" transform="scale(0.015625)"/>
     <path id="SegoeUI-Semibold-2c" d="M 1150 747
L 666 -813
L 122 -813
L 466 747
L 1150 747
z
" transform="scale(0.015625)"/>
     <path id="SegoeUI-Semibold-6c" d="M 1200 0
L 472 0
L 472 4738
L 1200 4738
L 1200 0
z
" transform="scale(0.015625)"/>
     <path id="SegoeUI-Semibold-62" d="M 1209 463
L 1197 463
L 1197 0
L 472 0
L 472 4738
L 1197 4738
L 1197 2638
L 1209 2638
Q 1581 3275 2297 3275
Q 2903 3275 3245 2845
Q 3588 2416 3588 1694
Q 3588 891 3203 408
Q 2819 -75 2153 -75
Q 1528 -75 1209 463
z
M 1191 1734
L 1191 1338
Q 1191 988 1414 744
Q 1638 500 1981 500
Q 2384 500 2614 814
Q 2844 1128 2844 1691
Q 2844 2163 2630 2430
Q 2416 2697 2050 2697
Q 1663 2697 1427 2422
Q 1191 2147 1191 1734
z
" transform="scale(0.015625)"/>
    </defs>
    <use xlink:href="#SegoeUI-Semibold-44"/>
    <use xlink:href="#SegoeUI-Semibold-61" transform="translate(71.728516 0)"/>
    <use xlink:href="#SegoeUI-Semibold-74" transform="translate(123.925781 0)"/>
    <use xlink:href="#SegoeUI-Semibold-61" transform="translate(160.058594 0)"/>
    <use xlink:href="#SegoeUI-Semibold-2d" transform="translate(212.255859 0)"/>
    <use xlink:href="#SegoeUI-Semibold-67" transform="translate(252.441406 0)"/>
    <use xlink:href="#SegoeUI-Semibold-6f" transform="translate(312.695312 0)"/>
    <use xlink:href="#SegoeUI-Semibold-76" transform="translate(372.412109 0)"/>
    <use xlink:href="#SegoeUI-Semibold-65" transform="translate(422.394531 0)"/>
    <use xlink:href="#SegoeUI-Semibold-72" transform="translate(475.519531 0)"/>
    <use xlink:href="#SegoeUI-Semibold-6e" transform="translate(512.53125 0)"/>
    <use xlink:href="#SegoeUI-Semibold-61" transform="translate(570.880859 0)"/>
    <use xlink:href="#SegoeUI-Semibold-6e" transform="translate(623.078125 0)"/>
    <use xlink:href="#SegoeUI-Semibold-63" transform="translate(681.427734 0)"/>
    <use xlink:href="#SegoeUI-Semibold-65" transform="translate(728.449219 0)"/>
    <use xlink:href="#SegoeUI-Semibold-20" transform="translate(781.574219 0)"/>
    <use xlink:href="#SegoeUI-Semibold-73" transform="translate(809.064453 0)"/>
    <use xlink:href="#SegoeUI-Semibold-75" transform="translate(852.179688 0)"/>
    <use xlink:href="#SegoeUI-Semibold-72" transform="translate(910.529297 0)"/>
    <use xlink:href="#SegoeUI-Semibold-66" transform="translate(949.666016 0)"/>
    <use xlink:href="#SegoeUI-Semibold-61" transform="translate(984.138672 0)"/>
    <use xlink:href="#SegoeUI-Semibold-63" transform="translate(1036.335938 0)"/>
    <use xlink:href="#SegoeUI-Semibold-65" transform="translate(1083.357422 0)"/>
    <use xlink:href="#SegoeUI-Semibold-20" transform="translate(1136.482422 0)"/>
    <use xlink:href="#SegoeUI-Semibold-73" transform="translate(1163.972656 0)"/>
    <use xlink:href="#SegoeUI-Semibold-70" transform="translate(1207.087891 0)"/>
    <use xlink:href="#SegoeUI-Semibold-61" transform="translate(1266.216797 0)"/>
    <use xlink:href="#SegoeUI-Semibold-6e" transform="translate(1318.414062 0)"/>
    <use xlink:href="#SegoeUI-Semibold-73" transform="translate(1376.763672 0)"/>
    <use xlink:href="#SegoeUI-Semibold-20" transform="translate(1419.878906 0)"/>
    <use xlink:href="#SegoeUI-Semibold-70" transform="translate(1447.369141 0)"/>
    <use xlink:href="#SegoeUI-Semibold-72" transform="translate(1507.623047 0)"/>
    <use xlink:href="#SegoeUI-Semibold-6f" transform="translate(1543.759766 0)"/>
    <use xlink:href="#SegoeUI-Semibold-76" transform="translate(1603.476562 0)"/>
    <use xlink:href="#SegoeUI-Semibold-69" transform="translate(1654.208984 0)"/>
    <use xlink:href="#SegoeUI-Semibold-64" transform="translate(1680.332031 0)"/>
    <use xlink:href="#SegoeUI-Semibold-65" transform="translate(1740.585938 0)"/>
    <use xlink:href="#SegoeUI-Semibold-72" transform="translate(1793.710938 0)"/>
    <use xlink:href="#SegoeUI-Semibold-73" transform="translate(1831.347656 0)"/>
    <use xlink:href="#SegoeUI-Semibold-2c" transform="translate(1874.462891 0)"/>
    <use xlink:href="#SegoeUI-Semibold-20" transform="translate(1898.583984 0)"/>
    <use xlink:href="#SegoeUI-Semibold-66" transform="translate(1926.074219 0)"/>
    <use xlink:href="#SegoeUI-Semibold-65" transform="translate(1960.546875 0)"/>
    <use xlink:href="#SegoeUI-Semibold-61" transform="translate(2013.671875 0)"/>
    <use xlink:href="#SegoeUI-Semibold-74" transform="translate(2065.869141 0)"/>
    <use xlink:href="#SegoeUI-Semibold-75" transform="translate(2102.001953 0)"/>
    <use xlink:href="#SegoeUI-Semibold-72" transform="translate(2160.351562 0)"/>
    <use xlink:href="#SegoeUI-Semibold-65" transform="translate(2196.488281 0)"/>
    <use xlink:href="#SegoeUI-Semibold-73" transform="translate(2249.613281 0)"/>
    <use xlink:href="#SegoeUI-Semibold-2c" transform="translate(2292.728516 0)"/>
    <use xlink:href="#SegoeUI-Semibold-20" transform="translate(2316.849609 0)"/>
    <use xlink:href="#SegoeUI-Semibold-61" transform="translate(2344.339844 0)"/>
    <use xlink:href="#SegoeUI-Semibold-6e" transform="translate(2396.537109 0)"/>
    <use xlink:href="#SegoeUI-Semibold-64" transform="translate(2454.886719 0)"/>
    <use xlink:href="#SegoeUI-Semibold-20" transform="translate(2515.140625 0)"/>
    <use xlink:href="#SegoeUI-Semibold-72" transform="translate(2542.630859 0)"/>
    <use xlink:href="#SegoeUI-Semibold-65" transform="translate(2578.767578 0)"/>
    <use xlink:href="#SegoeUI-Semibold-6c" transform="translate(2631.892578 0)"/>
    <use xlink:href="#SegoeUI-Semibold-65" transform="translate(2658.015625 0)"/>
    <use xlink:href="#SegoeUI-Semibold-61" transform="translate(2711.140625 0)"/>
    <use xlink:href="#SegoeUI-Semibold-73" transform="translate(2763.337891 0)"/>
    <use xlink:href="#SegoeUI-Semibold-65" transform="translate(2806.453125 0)"/>
    <use xlink:href="#SegoeUI-Semibold-20" transform="translate(2859.578125 0)"/>
    <use xlink:href="#SegoeUI-Semibold-62" transform="translate(2887.068359 0)"/>
    <use xlink:href="#SegoeUI-Semibold-6f" transform="translate(2947.322266 0)"/>
    <use xlink:href="#SegoeUI-Semibold-75" transform="translate(3007.039062 0)"/>
    <use xlink:href="#SegoeUI-Semibold-6e" transform="translate(3065.388672 0)"/>
    <use xlink:href="#SegoeUI-Semibold-64" transform="translate(3123.738281 0)"/>
    <use xlink:href="#SegoeUI-Semibold-61" transform="translate(3183.992188 0)"/>
    <use xlink:href="#SegoeUI-Semibold-72" transform="translate(3236.189453 0)"/>
    <use xlink:href="#SegoeUI-Semibold-69" transform="translate(3273.201172 0)"/>
    <use xlink:href="#SegoeUI-Semibold-65" transform="translate(3299.324219 0)"/>
    <use xlink:href="#SegoeUI-Semibold-73" transform="translate(3352.449219 0)"/>
   </g>
  </g>
  <g id="text_36">
   <!-- Provider bars count local raw files; usage bars count registered or discovered processed features. -->
   <g style="fill: #6f768a" transform="translate(62.719687 37.060312) scale(0.11 -0.11)">
    <defs>
     <path id="SegoeUI-50" d="M 1113 1694
L 1113 0
L 588 0
L 588 4481
L 1819 4481
Q 2538 4481 2933 4131
Q 3328 3781 3328 3144
Q 3328 2506 2889 2100
Q 2450 1694 1703 1694
L 1113 1694
z
M 1113 4006
L 1113 2169
L 1663 2169
Q 2206 2169 2492 2417
Q 2778 2666 2778 3119
Q 2778 4006 1728 4006
L 1113 4006
z
" transform="scale(0.015625)"/>
     <path id="SegoeUI-3b" d="M 706 2575
Q 559 2575 457 2678
Q 356 2781 356 2925
Q 356 3069 457 3169
Q 559 3269 706 3269
Q 850 3269 953 3169
Q 1056 3069 1056 2925
Q 1056 2781 953 2678
Q 850 2575 706 2575
z
M 988 713
L 488 -825
L 122 -825
L 488 713
L 988 713
z
" transform="scale(0.015625)"/>
     <path id="SegoeUI-2e" d="M 697 -69
Q 553 -69 451 34
Q 350 138 350 281
Q 350 425 451 529
Q 553 634 697 634
Q 844 634 947 529
Q 1050 425 1050 281
Q 1050 138 947 34
Q 844 -69 697 -69
z
" transform="scale(0.015625)"/>
    </defs>
    <use xlink:href="#SegoeUI-50"/>
    <use xlink:href="#SegoeUI-72" transform="translate(56.005859 0)"/>
    <use xlink:href="#SegoeUI-6f" transform="translate(89.396484 0)"/>
    <use xlink:href="#SegoeUI-76" transform="translate(147.990234 0)"/>
    <use xlink:href="#SegoeUI-69" transform="translate(195.890625 0)"/>
    <use xlink:href="#SegoeUI-64" transform="translate(220.109375 0)"/>
    <use xlink:href="#SegoeUI-65" transform="translate(278.996094 0)"/>
    <use xlink:href="#SegoeUI-72" transform="translate(331.291016 0)"/>
    <use xlink:href="#SegoeUI-20" transform="translate(366.056641 0)"/>
    <use xlink:href="#SegoeUI-62" transform="translate(393.449219 0)"/>
    <use xlink:href="#SegoeUI-61" transform="translate(450.863281 0)"/>
    <use xlink:href="#SegoeUI-72" transform="translate(501.742188 0)"/>
    <use xlink:href="#SegoeUI-73" transform="translate(537.132812 0)"/>
    <use xlink:href="#SegoeUI-20" transform="translate(579.564453 0)"/>
    <use xlink:href="#SegoeUI-63" transform="translate(606.957031 0)"/>
    <use xlink:href="#SegoeUI-6f" transform="translate(653.148438 0)"/>
    <use xlink:href="#SegoeUI-75" transform="translate(711.742188 0)"/>
    <use xlink:href="#SegoeUI-6e" transform="translate(768.333984 0)"/>
    <use xlink:href="#SegoeUI-74" transform="translate(824.925781 0)"/>
    <use xlink:href="#SegoeUI-20" transform="translate(858.8125 0)"/>
    <use xlink:href="#SegoeUI-6c" transform="translate(886.205078 0)"/>
    <use xlink:href="#SegoeUI-6f" transform="translate(910.423828 0)"/>
    <use xlink:href="#SegoeUI-63" transform="translate(969.017578 0)"/>
    <use xlink:href="#SegoeUI-61" transform="translate(1015.208984 0)"/>
    <use xlink:href="#SegoeUI-6c" transform="translate(1066.087891 0)"/>
    <use xlink:href="#SegoeUI-20" transform="translate(1090.306641 0)"/>
    <use xlink:href="#SegoeUI-72" transform="translate(1117.699219 0)"/>
    <use xlink:href="#SegoeUI-61" transform="translate(1152.464844 0)"/>
    <use xlink:href="#SegoeUI-77" transform="translate(1203.34375 0)"/>
    <use xlink:href="#SegoeUI-20" transform="translate(1275.609375 0)"/>
    <use xlink:href="#SegoeUI-66" transform="translate(1303.001953 0)"/>
    <use xlink:href="#SegoeUI-69" transform="translate(1334.300781 0)"/>
    <use xlink:href="#SegoeUI-6c" transform="translate(1358.519531 0)"/>
    <use xlink:href="#SegoeUI-65" transform="translate(1382.738281 0)"/>
    <use xlink:href="#SegoeUI-73" transform="translate(1435.033203 0)"/>
    <use xlink:href="#SegoeUI-3b" transform="translate(1477.464844 0)"/>
    <use xlink:href="#SegoeUI-20" transform="translate(1499.144531 0)"/>
    <use xlink:href="#SegoeUI-75" transform="translate(1526.537109 0)"/>
    <use xlink:href="#SegoeUI-73" transform="translate(1583.128906 0)"/>
    <use xlink:href="#SegoeUI-61" transform="translate(1625.560547 0)"/>
    <use xlink:href="#SegoeUI-67" transform="translate(1676.439453 0)"/>
    <use xlink:href="#SegoeUI-65" transform="translate(1735.326172 0)"/>
    <use xlink:href="#SegoeUI-20" transform="translate(1787.621094 0)"/>
    <use xlink:href="#SegoeUI-62" transform="translate(1815.013672 0)"/>
    <use xlink:href="#SegoeUI-61" transform="translate(1872.427734 0)"/>
    <use xlink:href="#SegoeUI-72" transform="translate(1923.306641 0)"/>
    <use xlink:href="#SegoeUI-73" transform="translate(1958.697266 0)"/>
    <use xlink:href="#SegoeUI-20" transform="translate(2001.128906 0)"/>
    <use xlink:href="#SegoeUI-63" transform="translate(2028.521484 0)"/>
    <use xlink:href="#SegoeUI-6f" transform="translate(2074.712891 0)"/>
    <use xlink:href="#SegoeUI-75" transform="translate(2133.306641 0)"/>
    <use xlink:href="#SegoeUI-6e" transform="translate(2189.898438 0)"/>
    <use xlink:href="#SegoeUI-74" transform="translate(2246.490234 0)"/>
    <use xlink:href="#SegoeUI-20" transform="translate(2280.376953 0)"/>
    <use xlink:href="#SegoeUI-72" transform="translate(2307.769531 0)"/>
    <use xlink:href="#SegoeUI-65" transform="translate(2341.160156 0)"/>
    <use xlink:href="#SegoeUI-67" transform="translate(2393.455078 0)"/>
    <use xlink:href="#SegoeUI-69" transform="translate(2452.341797 0)"/>
    <use xlink:href="#SegoeUI-73" transform="translate(2476.560547 0)"/>
    <use xlink:href="#SegoeUI-74" transform="translate(2518.992188 0)"/>
    <use xlink:href="#SegoeUI-65" transform="translate(2552.128906 0)"/>
    <use xlink:href="#SegoeUI-72" transform="translate(2604.423828 0)"/>
    <use xlink:href="#SegoeUI-65" transform="translate(2637.814453 0)"/>
    <use xlink:href="#SegoeUI-64" transform="translate(2690.109375 0)"/>
    <use xlink:href="#SegoeUI-20" transform="translate(2748.996094 0)"/>
    <use xlink:href="#SegoeUI-6f" transform="translate(2776.388672 0)"/>
    <use xlink:href="#SegoeUI-72" transform="translate(2834.982422 0)"/>
    <use xlink:href="#SegoeUI-20" transform="translate(2869.748047 0)"/>
    <use xlink:href="#SegoeUI-64" transform="translate(2897.140625 0)"/>
    <use xlink:href="#SegoeUI-69" transform="translate(2956.027344 0)"/>
    <use xlink:href="#SegoeUI-73" transform="translate(2980.246094 0)"/>
    <use xlink:href="#SegoeUI-63" transform="translate(3022.677734 0)"/>
    <use xlink:href="#SegoeUI-6f" transform="translate(3068.869141 0)"/>
    <use xlink:href="#SegoeUI-76" transform="translate(3127.462891 0)"/>
    <use xlink:href="#SegoeUI-65" transform="translate(3174.738281 0)"/>
    <use xlink:href="#SegoeUI-72" transform="translate(3227.033203 0)"/>
    <use xlink:href="#SegoeUI-65" transform="translate(3260.423828 0)"/>
    <use xlink:href="#SegoeUI-64" transform="translate(3312.71875 0)"/>
    <use xlink:href="#SegoeUI-20" transform="translate(3371.605469 0)"/>
    <use xlink:href="#SegoeUI-70" transform="translate(3398.998047 0)"/>
    <use xlink:href="#SegoeUI-72" transform="translate(3457.787109 0)"/>
    <use xlink:href="#SegoeUI-6f" transform="translate(3491.177734 0)"/>
    <use xlink:href="#SegoeUI-63" transform="translate(3549.771484 0)"/>
    <use xlink:href="#SegoeUI-65" transform="translate(3595.962891 0)"/>
    <use xlink:href="#SegoeUI-73" transform="translate(3648.257812 0)"/>
    <use xlink:href="#SegoeUI-73" transform="translate(3690.689453 0)"/>
    <use xlink:href="#SegoeUI-65" transform="translate(3733.121094 0)"/>
    <use xlink:href="#SegoeUI-64" transform="translate(3785.416016 0)"/>
    <use xlink:href="#SegoeUI-20" transform="translate(3844.302734 0)"/>
    <use xlink:href="#SegoeUI-66" transform="translate(3871.695312 0)"/>
    <use xlink:href="#SegoeUI-65" transform="translate(3902.994141 0)"/>
    <use xlink:href="#SegoeUI-61" transform="translate(3955.289062 0)"/>
    <use xlink:href="#SegoeUI-74" transform="translate(4006.167969 0)"/>
    <use xlink:href="#SegoeUI-75" transform="translate(4040.054688 0)"/>
    <use xlink:href="#SegoeUI-72" transform="translate(4096.646484 0)"/>
    <use xlink:href="#SegoeUI-65" transform="translate(4130.037109 0)"/>
    <use xlink:href="#SegoeUI-73" transform="translate(4182.332031 0)"/>
    <use xlink:href="#SegoeUI-2e" transform="translate(4224.763672 0)"/>
   </g>
  </g>
 </g>
 <defs>
  <clipPath id="p8e2462d39b">
   <rect x="82.879688" y="91.44" width="387.692308" height="250.56"/>
  </clipPath>
  <clipPath id="pf4319e8410">
   <rect x="602.38738" y="91.44" width="387.692308" height="250.56"/>
  </clipPath>
 </defs>
</svg>
