<?xml version="1.0" encoding="utf-8" standalone="no"?>
<!DOCTYPE svg PUBLIC "-//W3C//DTD SVG 1.1//EN"
  "http://www.w3.org/Graphics/SVG/1.1/DTD/svg11.dtd">
<svg xmlns:xlink="http://www.w3.org/1999/xlink" width="792.755625pt" height="439.400625pt" viewBox="0 0 792.755625 439.400625" xmlns="http://www.w3.org/2000/svg" version="1.1">
 <metadata>
  <rdf:RDF xmlns:dc="http://purl.org/dc/elements/1.1/" xmlns:cc="http://creativecommons.org/ns#" xmlns:rdf="http://www.w3.org/1999/02/22-rdf-syntax-ns#">
   <cc:Work>
    <dc:type rdf:resource="http://purl.org/dc/dcmitype/StillImage"/>
    <dc:format>image/svg+xml</dc:format>
    <dc:creator>
     <cc:Agent>
      <dc:title>Matplotlib v3.10.8, https://matplotlib.org/</dc:title>
     </cc:Agent>
    </dc:creator>
   </cc:Work>
  </rdf:RDF>
 </metadata>
 <defs>
  <style type="text/css">*{stroke-linejoin: round; stroke-linecap: butt}</style>
 </defs>
 <g id="figure_1">
  <g id="patch_1">
   <path d="M 0 439.400625
L 792.755625 439.400625
L 792.755625 0
L 0 0
z
" style="fill: #ffffff"/>
  </g>
  <g id="axes_1">
   <g id="patch_2">
    <path d="M 42.515625 403.29
L 785.555625 403.29
L 785.555625 92.25
L 42.515625 92.25
z
" style="fill: #ffffff"/>
   </g>
   <g id="matplotlib.axis_1">
    <g id="xtick_1">
     <g id="text_1">
      <!-- −0.75 -->
      <g style="fill: #6f768a" transform="translate(104.274678 414.193125) scale(0.1 -0.1)">
       <defs>
        <path id="SegoeUI-2212" d="M 3663 1656
L 725 1656
L 725 2075
L 3663 2075
L 3663 1656
z
" transform="scale(0.015625)"/>
        <path id="SegoeUI-30" d="M 3188 2259
Q 3188 1697 3086 1262
Q 2984 828 2792 529
Q 2600 231 2320 76
Q 2041 -78 1684 -78
Q 1347 -78 1083 70
Q 819 219 637 503
Q 456 788 362 1202
Q 269 1616 269 2150
Q 269 2738 367 3188
Q 466 3638 656 3942
Q 847 4247 1130 4401
Q 1413 4556 1778 4556
Q 3188 4556 3188 2259
z
M 2663 2209
Q 2663 4122 1753 4122
Q 794 4122 794 2175
Q 794 359 1734 359
Q 2663 359 2663 2209
z
" transform="scale(0.015625)"/>
        <path id="SegoeUI-2e" d="M 697 -69
Q 553 -69 451 34
Q 350 138 350 281
Q 350 425 451 529
Q 553 634 697 634
Q 844 634 947 529
Q 1050 425 1050 281
Q 1050 138 947 34
Q 844 -69 697 -69
z
" transform="scale(0.015625)"/>
        <path id="SegoeUI-37" d="M 3156 4184
Q 3053 4006 2908 3740
Q 2763 3475 2600 3144
Q 2438 2813 2269 2431
Q 2100 2050 1953 1644
Q 1806 1238 1695 820
Q 1584 403 1534 0
L 984 0
Q 1041 400 1158 817
Q 1275 1234 1423 1636
Q 1572 2038 1737 2409
Q 1903 2781 2059 3093
Q 2216 3406 2345 3645
Q 2475 3884 2553 4019
L 306 4019
L 306 4481
L 3156 4481
L 3156 4184
z
" transform="scale(0.015625)"/>
        <path id="SegoeUI-35" d="M 3028 1369
Q 3028 1041 2915 775
Q 2803 509 2595 318
Q 2388 128 2094 25
Q 1800 -78 1441 -78
Q 816 -78 513 109
L 513 653
Q 969 359 1447 359
Q 1691 359 1886 431
Q 2081 503 2218 631
Q 2356 759 2429 940
Q 2503 1122 2503 1338
Q 2503 1775 2209 2023
Q 1916 2272 1356 2272
Q 1266 2272 1166 2269
Q 1066 2266 966 2261
Q 866 2256 770 2250
Q 675 2244 597 2234
L 750 4481
L 2822 4481
L 2822 4019
L 1194 4019
L 1103 2703
Q 1203 2709 1315 2714
Q 1428 2719 1516 2719
Q 1872 2719 2153 2625
Q 2434 2531 2629 2357
Q 2825 2184 2926 1932
Q 3028 1681 3028 1369
z
" transform="scale(0.015625)"/>
       </defs>
       <use xlink:href="#SegoeUI-2212"/>
       <use xlink:href="#SegoeUI-30" transform="translate(68.408203 0)"/>
       <use xlink:href="#SegoeUI-2e" transform="translate(122.314453 0)"/>
       <use xlink:href="#SegoeUI-37" transform="translate(143.994141 0)"/>
       <use xlink:href="#SegoeUI-35" transform="translate(197.900391 0)"/>
      </g>
     </g>
    </g>
    <g id="xtick_2">
     <g id="text_2">
      <!-- −0.50 -->
      <g style="fill: #6f768a" transform="translate(194.358664 414.193125) scale(0.1 -0.1)">
       <use xlink:href="#SegoeUI-2212"/>
       <use xlink:href="#SegoeUI-30" transform="translate(68.408203 0)"/>
       <use xlink:href="#SegoeUI-2e" transform="translate(122.314453 0)"/>
       <use xlink:href="#SegoeUI-35" transform="translate(143.994141 0)"/>
       <use xlink:href="#SegoeUI-30" transform="translate(197.900391 0)"/>
      </g>
     </g>
    </g>
    <g id="xtick_3">
     <g id="text_3">
      <!-- −0.25 -->
      <g style="fill: #6f768a" transform="translate(284.44265 414.193125) scale(0.1 -0.1)">
       <defs>
        <path id="SegoeUI-32" d="M 2413 3306
Q 2413 3513 2348 3666
Q 2284 3819 2173 3920
Q 2063 4022 1913 4072
Q 1763 4122 1588 4122
Q 1438 4122 1294 4081
Q 1150 4041 1014 3969
Q 878 3897 751 3797
Q 625 3697 516 3575
L 516 4125
Q 731 4334 998 4445
Q 1266 4556 1650 4556
Q 1925 4556 2159 4476
Q 2394 4397 2566 4244
Q 2738 4091 2836 3866
Q 2934 3641 2934 3350
Q 2934 3084 2873 2868
Q 2813 2653 2689 2462
Q 2566 2272 2378 2097
Q 2191 1922 1938 1741
Q 1622 1516 1417 1356
Q 1213 1197 1092 1058
Q 972 919 923 780
Q 875 641 875 459
L 3106 459
L 3106 0
L 341 0
L 341 222
Q 341 509 403 728
Q 466 947 609 1144
Q 753 1341 986 1537
Q 1219 1734 1556 1981
Q 1800 2156 1964 2315
Q 2128 2475 2228 2634
Q 2328 2794 2370 2958
Q 2413 3122 2413 3306
z
" transform="scale(0.015625)"/>
       </defs>
       <use xlink:href="#SegoeUI-2212"/>
       <use xlink:href="#SegoeUI-30" transform="translate(68.408203 0)"/>
       <use xlink:href="#SegoeUI-2e" transform="translate(122.314453 0)"/>
       <use xlink:href="#SegoeUI-32" transform="translate(143.994141 0)"/>
       <use xlink:href="#SegoeUI-35" transform="translate(197.900391 0)"/>
      </g>
     </g>
    </g>
    <g id="xtick_4">
     <g id="text_4">
      <!-- 0.00 -->
      <g style="fill: #6f768a" transform="translate(377.946949 414.193125) scale(0.1 -0.1)">
       <use xlink:href="#SegoeUI-30"/>
       <use xlink:href="#SegoeUI-2e" transform="translate(53.90625 0)"/>
       <use xlink:href="#SegoeUI-30" transform="translate(75.585938 0)"/>
       <use xlink:href="#SegoeUI-30" transform="translate(129.492188 0)"/>
      </g>
     </g>
    </g>
    <g id="xtick_5">
     <g id="text_5">
      <!-- 0.25 -->
      <g style="fill: #6f768a" transform="translate(468.030935 414.193125) scale(0.1 -0.1)">
       <use xlink:href="#SegoeUI-30"/>
       <use xlink:href="#SegoeUI-2e" transform="translate(53.90625 0)"/>
       <use xlink:href="#SegoeUI-32" transform="translate(75.585938 0)"/>
       <use xlink:href="#SegoeUI-35" transform="translate(129.492188 0)"/>
      </g>
     </g>
    </g>
    <g id="xtick_6">
     <g id="text_6">
      <!-- 0.50 -->
      <g style="fill: #6f768a" transform="translate(558.114921 414.193125) scale(0.1 -0.1)">
       <use xlink:href="#SegoeUI-30"/>
       <use xlink:href="#SegoeUI-2e" transform="translate(53.90625 0)"/>
       <use xlink:href="#SegoeUI-35" transform="translate(75.585938 0)"/>
       <use xlink:href="#SegoeUI-30" transform="translate(129.492188 0)"/>
      </g>
     </g>
    </g>
    <g id="xtick_7">
     <g id="text_7">
      <!-- 0.75 -->
      <g style="fill: #6f768a" transform="translate(648.198907 414.193125) scale(0.1 -0.1)">
       <use xlink:href="#SegoeUI-30"/>
       <use xlink:href="#SegoeUI-2e" transform="translate(53.90625 0)"/>
       <use xlink:href="#SegoeUI-37" transform="translate(75.585938 0)"/>
       <use xlink:href="#SegoeUI-35" transform="translate(129.492188 0)"/>
      </g>
     </g>
    </g>
    <g id="xtick_8">
     <g id="text_8">
      <!-- 1.00 -->
      <g style="fill: #6f768a" transform="translate(738.282893 414.193125) scale(0.1 -0.1)">
       <defs>
        <path id="SegoeUI-31" d="M 2263 0
L 1750 0
L 1750 3872
Q 1691 3813 1577 3736
Q 1463 3659 1320 3584
Q 1178 3509 1020 3443
Q 863 3378 713 3341
L 713 3859
Q 881 3906 1070 3986
Q 1259 4066 1442 4164
Q 1625 4263 1787 4370
Q 1950 4478 2069 4581
L 2263 4581
L 2263 0
z
" transform="scale(0.015625)"/>
       </defs>
       <use xlink:href="#SegoeUI-31"/>
       <use xlink:href="#SegoeUI-2e" transform="translate(53.90625 0)"/>
       <use xlink:href="#SegoeUI-30" transform="translate(75.585938 0)"/>
       <use xlink:href="#SegoeUI-30" transform="translate(129.492188 0)"/>
      </g>
     </g>
    </g>
    <g id="text_9">
     <!-- Identity residual -->
     <g style="fill: #1f2430" transform="translate(371.73 429.376875) scale(0.12 -0.12)">
      <defs>
       <path id="SegoeUI-49" d="M 1113 0
L 588 0
L 588 4481
L 1113 4481
L 1113 0
z
" transform="scale(0.015625)"/>
       <path id="SegoeUI-64" d="M 3250 0
L 2738 0
L 2738 544
L 2725 544
Q 2369 -75 1625 -75
Q 1022 -75 661 354
Q 300 784 300 1525
Q 300 2319 700 2797
Q 1100 3275 1766 3275
Q 2425 3275 2725 2756
L 2738 2756
L 2738 4738
L 3250 4738
L 3250 0
z
M 2738 1447
L 2738 1919
Q 2738 2306 2481 2575
Q 2225 2844 1831 2844
Q 1363 2844 1094 2500
Q 825 2156 825 1550
Q 825 997 1083 676
Q 1341 356 1775 356
Q 2203 356 2470 665
Q 2738 975 2738 1447
z
" transform="scale(0.015625)"/>
       <path id="SegoeUI-65" d="M 3091 1472
L 831 1472
Q 844 938 1119 647
Q 1394 356 1875 356
Q 2416 356 2869 713
L 2869 231
Q 2447 -75 1753 -75
Q 1075 -75 687 361
Q 300 797 300 1588
Q 300 2334 723 2804
Q 1147 3275 1775 3275
Q 2403 3275 2747 2869
Q 3091 2463 3091 1741
L 3091 1472
z
M 2566 1906
Q 2563 2350 2352 2597
Q 2141 2844 1766 2844
Q 1403 2844 1150 2584
Q 897 2325 838 1906
L 2566 1906
z
" transform="scale(0.015625)"/>
       <path id="SegoeUI-6e" d="M 3175 0
L 2663 0
L 2663 1825
Q 2663 2844 1919 2844
Q 1534 2844 1282 2555
Q 1031 2266 1031 1825
L 1031 0
L 519 0
L 519 3200
L 1031 3200
L 1031 2669
L 1044 2669
Q 1406 3275 2094 3275
Q 2619 3275 2897 2936
Q 3175 2597 3175 1956
L 3175 0
z
" transform="scale(0.015625)"/>
       <path id="SegoeUI-74" d="M 2003 31
Q 1822 -69 1525 -69
Q 684 -69 684 869
L 684 2763
L 134 2763
L 134 3200
L 684 3200
L 684 3981
L 1197 4147
L 1197 3200
L 2003 3200
L 2003 2763
L 1197 2763
L 1197 959
Q 1197 638 1306 500
Q 1416 363 1669 363
Q 1863 363 2003 469
L 2003 31
z
" transform="scale(0.015625)"/>
       <path id="SegoeUI-69" d="M 781 4013
Q 644 4013 547 4106
Q 450 4200 450 4344
Q 450 4488 547 4583
Q 644 4678 781 4678
Q 922 4678 1020 4583
Q 1119 4488 1119 4344
Q 1119 4206 1020 4109
Q 922 4013 781 4013
z
M 1031 0
L 519 0
L 519 3200
L 1031 3200
L 1031 0
z
" transform="scale(0.015625)"/>
       <path id="SegoeUI-79" d="M 3066 3200
L 1594 -513
Q 1200 -1506 488 -1506
Q 288 -1506 153 -1466
L 153 -1006
Q 319 -1063 456 -1063
Q 844 -1063 1038 -600
L 1294 6
L 44 3200
L 613 3200
L 1478 738
Q 1494 691 1544 494
L 1563 494
Q 1578 569 1625 731
L 2534 3200
L 3066 3200
z
" transform="scale(0.015625)"/>
       <path id="SegoeUI-20" transform="scale(0.015625)"/>
       <path id="SegoeUI-72" d="M 2188 2681
Q 2053 2784 1800 2784
Q 1472 2784 1251 2475
Q 1031 2166 1031 1631
L 1031 0
L 519 0
L 519 3200
L 1031 3200
L 1031 2541
L 1044 2541
Q 1153 2878 1378 3067
Q 1603 3256 1881 3256
Q 2081 3256 2188 3213
L 2188 2681
z
" transform="scale(0.015625)"/>
       <path id="SegoeUI-73" d="M 325 116
L 325 666
Q 744 356 1247 356
Q 1922 356 1922 806
Q 1922 934 1864 1023
Q 1806 1113 1707 1181
Q 1609 1250 1476 1304
Q 1344 1359 1191 1419
Q 978 1503 817 1589
Q 656 1675 548 1783
Q 441 1891 386 2028
Q 331 2166 331 2350
Q 331 2575 434 2748
Q 538 2922 709 3039
Q 881 3156 1101 3215
Q 1322 3275 1556 3275
Q 1972 3275 2300 3131
L 2300 2613
Q 1947 2844 1488 2844
Q 1344 2844 1228 2811
Q 1113 2778 1030 2718
Q 947 2659 901 2576
Q 856 2494 856 2394
Q 856 2269 901 2184
Q 947 2100 1034 2034
Q 1122 1969 1247 1916
Q 1372 1863 1531 1800
Q 1744 1719 1912 1633
Q 2081 1547 2200 1439
Q 2319 1331 2383 1190
Q 2447 1050 2447 856
Q 2447 619 2342 444
Q 2238 269 2063 153
Q 1888 38 1659 -18
Q 1431 -75 1181 -75
Q 688 -75 325 116
z
" transform="scale(0.015625)"/>
       <path id="SegoeUI-75" d="M 3106 0
L 2594 0
L 2594 506
L 2581 506
Q 2263 -75 1594 -75
Q 450 -75 450 1288
L 450 3200
L 959 3200
L 959 1369
Q 959 356 1734 356
Q 2109 356 2351 632
Q 2594 909 2594 1356
L 2594 3200
L 3106 3200
L 3106 0
z
" transform="scale(0.015625)"/>
       <path id="SegoeUI-61" d="M 2809 0
L 2297 0
L 2297 500
L 2284 500
Q 1950 -75 1300 -75
Q 822 -75 551 178
Q 281 431 281 850
Q 281 1747 1338 1894
L 2297 2028
Q 2297 2844 1638 2844
Q 1059 2844 594 2450
L 594 2975
Q 1066 3275 1681 3275
Q 2809 3275 2809 2081
L 2809 0
z
M 2297 1619
L 1525 1513
Q 1169 1463 987 1336
Q 806 1209 806 888
Q 806 653 973 504
Q 1141 356 1419 356
Q 1800 356 2048 623
Q 2297 891 2297 1300
L 2297 1619
z
" transform="scale(0.015625)"/>
       <path id="SegoeUI-6c" d="M 1031 0
L 519 0
L 519 4738
L 1031 4738
L 1031 0
z
" transform="scale(0.015625)"/>
      </defs>
      <use xlink:href="#SegoeUI-49"/>
      <use xlink:href="#SegoeUI-64" transform="translate(26.611328 0)"/>
      <use xlink:href="#SegoeUI-65" transform="translate(85.498047 0)"/>
      <use xlink:href="#SegoeUI-6e" transform="translate(137.792969 0)"/>
      <use xlink:href="#SegoeUI-74" transform="translate(194.384766 0)"/>
      <use xlink:href="#SegoeUI-69" transform="translate(228.271484 0)"/>
      <use xlink:href="#SegoeUI-74" transform="translate(252.490234 0)"/>
      <use xlink:href="#SegoeUI-79" transform="translate(286.376953 0)"/>
      <use xlink:href="#SegoeUI-20" transform="translate(334.765625 0)"/>
      <use xlink:href="#SegoeUI-72" transform="translate(362.158203 0)"/>
      <use xlink:href="#SegoeUI-65" transform="translate(395.548828 0)"/>
      <use xlink:href="#SegoeUI-73" transform="translate(447.84375 0)"/>
      <use xlink:href="#SegoeUI-69" transform="translate(490.275391 0)"/>
      <use xlink:href="#SegoeUI-64" transform="translate(514.494141 0)"/>
      <use xlink:href="#SegoeUI-75" transform="translate(573.380859 0)"/>
      <use xlink:href="#SegoeUI-61" transform="translate(629.972656 0)"/>
      <use xlink:href="#SegoeUI-6c" transform="translate(680.851562 0)"/>
     </g>
    </g>
    <g id="text_10">
     <!-- 1e−8 -->
     <g style="fill: #6f768a" transform="translate(762.704062 426.89625) scale(0.1 -0.1)">
      <defs>
       <path id="SegoeUI-38" d="M 281 1250
Q 281 1428 337 1608
Q 394 1788 498 1944
Q 603 2100 758 2228
Q 913 2356 1109 2431
Q 819 2594 647 2848
Q 475 3103 475 3413
Q 475 3659 570 3868
Q 666 4078 834 4231
Q 1003 4384 1234 4470
Q 1466 4556 1734 4556
Q 2006 4556 2237 4468
Q 2469 4381 2637 4228
Q 2806 4075 2900 3865
Q 2994 3656 2994 3413
Q 2994 3103 2822 2848
Q 2650 2594 2366 2431
Q 2559 2356 2712 2228
Q 2866 2100 2970 1944
Q 3075 1788 3131 1608
Q 3188 1428 3188 1250
Q 3188 956 3081 712
Q 2975 469 2783 295
Q 2591 122 2323 25
Q 2056 -72 1734 -72
Q 1416 -72 1150 25
Q 884 122 690 295
Q 497 469 389 712
Q 281 956 281 1250
z
M 838 1294
Q 838 1084 902 915
Q 966 747 1083 628
Q 1200 509 1367 445
Q 1534 381 1738 381
Q 1934 381 2100 447
Q 2266 513 2386 631
Q 2506 750 2573 919
Q 2641 1088 2641 1294
Q 2641 1481 2577 1645
Q 2513 1809 2394 1934
Q 2275 2059 2109 2131
Q 1944 2203 1738 2203
Q 1544 2203 1380 2136
Q 1216 2069 1095 1948
Q 975 1828 906 1661
Q 838 1494 838 1294
z
M 997 3372
Q 997 3213 1055 3077
Q 1113 2941 1214 2839
Q 1316 2738 1450 2680
Q 1584 2622 1738 2622
Q 1891 2622 2027 2681
Q 2163 2741 2263 2842
Q 2363 2944 2422 3080
Q 2481 3216 2481 3372
Q 2481 3534 2423 3671
Q 2366 3809 2266 3909
Q 2166 4009 2030 4067
Q 1894 4125 1738 4125
Q 1572 4125 1436 4065
Q 1300 4006 1201 3904
Q 1103 3803 1050 3665
Q 997 3528 997 3372
z
" transform="scale(0.015625)"/>
      </defs>
      <use xlink:href="#SegoeUI-31"/>
      <use xlink:href="#SegoeUI-65" transform="translate(53.90625 0)"/>
      <use xlink:href="#SegoeUI-2212" transform="translate(106.201172 0)"/>
      <use xlink:href="#SegoeUI-38" transform="translate(174.609375 0)"/>
     </g>
    </g>
   </g>
   <g id="matplotlib.axis_2">
    <g id="ytick_1">
     <g id="line2d_1">
      <path d="M 42.515625 403.29
L 785.555625 403.29
" clip-path="url(#p3d8901ceb4)" style="fill: none; stroke: #e8ebf2; stroke-width: 0.8; stroke-linecap: round"/>
     </g>
     <g id="text_11">
      <!-- 0 -->
      <g style="fill: #6f768a" transform="translate(33.625 406.991562) scale(0.1 -0.1)">
       <use xlink:href="#SegoeUI-30"/>
      </g>
     </g>
    </g>
    <g id="ytick_2">
     <g id="line2d_2">
      <path d="M 42.515625 358.406883
L 785.555625 358.406883
" clip-path="url(#p3d8901ceb4)" style="fill: none; stroke: #e8ebf2; stroke-width: 0.8; stroke-linecap: round"/>
     </g>
     <g id="text_12">
      <!-- 20 -->
      <g style="fill: #6f768a" transform="translate(28.234375 362.108446) scale(0.1 -0.1)">
       <use xlink:href="#SegoeUI-32"/>
       <use xlink:href="#SegoeUI-30" transform="translate(53.90625 0)"/>
      </g>
     </g>
    </g>
    <g id="ytick_3">
     <g id="line2d_3">
      <path d="M 42.515625 313.523766
L 785.555625 313.523766
" clip-path="url(#p3d8901ceb4)" style="fill: none; stroke: #e8ebf2; stroke-width: 0.8; stroke-linecap: round"/>
     </g>
     <g id="text_13">
      <!-- 40 -->
      <g style="fill: #6f768a" transform="translate(28.234375 317.225329) scale(0.1 -0.1)">
       <defs>
        <path id="SegoeUI-34" d="M 2656 4481
L 2656 1522
L 3231 1522
L 3231 1053
L 2656 1053
L 2656 0
L 2150 0
L 2150 1053
L 44 1053
L 44 1497
Q 338 1828 638 2204
Q 938 2581 1211 2968
Q 1484 3356 1717 3742
Q 1950 4128 2109 4481
L 2656 4481
z
M 622 1522
L 2150 1522
L 2150 3716
Q 1916 3306 1706 2984
Q 1497 2663 1308 2400
Q 1119 2138 947 1925
Q 775 1713 622 1522
z
" transform="scale(0.015625)"/>
       </defs>
       <use xlink:href="#SegoeUI-34"/>
       <use xlink:href="#SegoeUI-30" transform="translate(53.90625 0)"/>
      </g>
     </g>
    </g>
    <g id="ytick_4">
     <g id="line2d_4">
      <path d="M 42.515625 268.640649
L 785.555625 268.640649
" clip-path="url(#p3d8901ceb4)" style="fill: none; stroke: #e8ebf2; stroke-width: 0.8; stroke-linecap: round"/>
     </g>
     <g id="text_14">
      <!-- 60 -->
      <g style="fill: #6f768a" transform="translate(28.234375 272.342212) scale(0.1 -0.1)">
       <defs>
        <path id="SegoeUI-36" d="M 3194 1422
Q 3194 1094 3087 819
Q 2981 544 2793 344
Q 2606 144 2347 33
Q 2088 -78 1784 -78
Q 1447 -78 1180 62
Q 913 203 727 467
Q 541 731 444 1112
Q 347 1494 347 1972
Q 347 2556 476 3032
Q 606 3509 845 3848
Q 1084 4188 1421 4372
Q 1759 4556 2175 4556
Q 2638 4556 2919 4428
L 2919 3944
Q 2572 4122 2188 4122
Q 1888 4122 1647 3987
Q 1406 3853 1234 3608
Q 1063 3363 970 3016
Q 878 2669 878 2244
L 891 2244
Q 1200 2803 1913 2803
Q 2206 2803 2442 2703
Q 2678 2603 2845 2420
Q 3013 2238 3103 1984
Q 3194 1731 3194 1422
z
M 2669 1356
Q 2669 1591 2609 1778
Q 2550 1966 2439 2097
Q 2328 2228 2165 2298
Q 2003 2369 1797 2369
Q 1606 2369 1443 2297
Q 1281 2225 1162 2101
Q 1044 1978 976 1814
Q 909 1650 909 1466
Q 909 1234 975 1032
Q 1041 831 1159 681
Q 1278 531 1442 445
Q 1606 359 1806 359
Q 2000 359 2159 432
Q 2319 506 2431 637
Q 2544 769 2606 951
Q 2669 1134 2669 1356
z
" transform="scale(0.015625)"/>
       </defs>
       <use xlink:href="#SegoeUI-36"/>
       <use xlink:href="#SegoeUI-30" transform="translate(53.90625 0)"/>
      </g>
     </g>
    </g>
    <g id="ytick_5">
     <g id="line2d_5">
      <path d="M 42.515625 223.757532
L 785.555625 223.757532
" clip-path="url(#p3d8901ceb4)" style="fill: none; stroke: #e8ebf2; stroke-width: 0.8; stroke-linecap: round"/>
     </g>
     <g id="text_15">
      <!-- 80 -->
      <g style="fill: #6f768a" transform="translate(28.234375 227.459095) scale(0.1 -0.1)">
       <use xlink:href="#SegoeUI-38"/>
       <use xlink:href="#SegoeUI-30" transform="translate(53.90625 0)"/>
      </g>
     </g>
    </g>
    <g id="ytick_6">
     <g id="line2d_6">
      <path d="M 42.515625 178.874416
L 785.555625 178.874416
" clip-path="url(#p3d8901ceb4)" style="fill: none; stroke: #e8ebf2; stroke-width: 0.8; stroke-linecap: round"/>
     </g>
     <g id="text_16">
      <!-- 100 -->
      <g style="fill: #6f768a" transform="translate(22.84375 182.575978) scale(0.1 -0.1)">
       <use xlink:href="#SegoeUI-31"/>
       <use xlink:href="#SegoeUI-30" transform="translate(53.90625 0)"/>
       <use xlink:href="#SegoeUI-30" transform="translate(107.8125 0)"/>
      </g>
     </g>
    </g>
    <g id="ytick_7">
     <g id="line2d_7">
      <path d="M 42.515625 133.991299
L 785.555625 133.991299
" clip-path="url(#p3d8901ceb4)" style="fill: none; stroke: #e8ebf2; stroke-width: 0.8; stroke-linecap: round"/>
     </g>
     <g id="text_17">
      <!-- 120 -->
      <g style="fill: #6f768a" transform="translate(22.84375 137.692861) scale(0.1 -0.1)">
       <use xlink:href="#SegoeUI-31"/>
       <use xlink:href="#SegoeUI-32" transform="translate(53.90625 0)"/>
       <use xlink:href="#SegoeUI-30" transform="translate(107.8125 0)"/>
      </g>
     </g>
    </g>
    <g id="text_18">
     <!-- Days -->
     <g style="fill: #1f2430" transform="translate(16.02 260.479687) rotate(-90) scale(0.12 -0.12)">
      <defs>
       <path id="SegoeUI-44" d="M 588 0
L 588 4481
L 1825 4481
Q 4194 4481 4194 2297
Q 4194 1259 3536 629
Q 2878 0 1775 0
L 588 0
z
M 1113 4006
L 1113 475
L 1781 475
Q 2663 475 3153 947
Q 3644 1419 3644 2284
Q 3644 4006 1813 4006
L 1113 4006
z
" transform="scale(0.015625)"/>
      </defs>
      <use xlink:href="#SegoeUI-44"/>
      <use xlink:href="#SegoeUI-61" transform="translate(70.117188 0)"/>
      <use xlink:href="#SegoeUI-79" transform="translate(120.996094 0)"/>
      <use xlink:href="#SegoeUI-73" transform="translate(169.384766 0)"/>
     </g>
    </g>
   </g>
   <g id="patch_3">
    <path d="M 76.29017 403.29
L 87.548352 403.29
L 87.548352 401.045844
L 76.29017 401.045844
z
" clip-path="url(#p3d8901ceb4)" style="fill: #c5cad3; stroke: #464c55; stroke-linejoin: miter"/>
   </g>
   <g id="patch_4">
    <path d="M 87.548352 403.29
L 98.806534 403.29
L 98.806534 401.045844
L 87.548352 401.045844
z
" clip-path="url(#p3d8901ceb4)" style="fill: #c5cad3; stroke: #464c55; stroke-linejoin: miter"/>
   </g>
   <g id="patch_5">
    <path d="M 98.806534 403.29
L 110.064716 403.29
L 110.064716 396.557532
L 98.806534 396.557532
z
" clip-path="url(#p3d8901ceb4)" style="fill: #c5cad3; stroke: #464c55; stroke-linejoin: miter"/>
   </g>
   <g id="patch_6">
    <path d="M 110.064716 403.29
L 121.322898 403.29
L 121.322898 398.801688
L 110.064716 398.801688
z
" clip-path="url(#p3d8901ceb4)" style="fill: #c5cad3; stroke: #464c55; stroke-linejoin: miter"/>
   </g>
   <g id="patch_7">
    <path d="M 121.322898 403.29
L 132.58108 403.29
L 132.58108 398.801688
L 121.322898 398.801688
z
" clip-path="url(#p3d8901ceb4)" style="fill: #c5cad3; stroke: #464c55; stroke-linejoin: miter"/>
   </g>
   <g id="patch_8">
    <path d="M 132.58108 403.29
L 143.839261 403.29
L 143.839261 394.313377
L 132.58108 394.313377
z
" clip-path="url(#p3d8901ceb4)" style="fill: #c5cad3; stroke: #464c55; stroke-linejoin: miter"/>
   </g>
   <g id="patch_9">
    <path d="M 143.839261 403.29
L 155.097443 403.29
L 155.097443 389.825065
L 143.839261 389.825065
z
" clip-path="url(#p3d8901ceb4)" style="fill: #c5cad3; stroke: #464c55; stroke-linejoin: miter"/>
   </g>
   <g id="patch_10">
    <path d="M 155.097443 403.29
L 166.355625 403.29
L 166.355625 392.069221
L 155.097443 392.069221
z
" clip-path="url(#p3d8901ceb4)" style="fill: #c5cad3; stroke: #464c55; stroke-linejoin: miter"/>
   </g>
   <g id="patch_11">
    <path d="M 166.355625 403.29
L 177.613807 403.29
L 177.613807 389.825065
L 166.355625 389.825065
z
" clip-path="url(#p3d8901ceb4)" style="fill: #c5cad3; stroke: #464c55; stroke-linejoin: miter"/>
   </g>
   <g id="patch_12">
    <path d="M 177.613807 403.29
L 188.871989 403.29
L 188.871989 383.092597
L 177.613807 383.092597
z
" clip-path="url(#p3d8901ceb4)" style="fill: #c5cad3; stroke: #464c55; stroke-linejoin: miter"/>
   </g>
   <g id="patch_13">
    <path d="M 188.871989 403.29
L 200.13017 403.29
L 200.13017 378.604286
L 188.871989 378.604286
z
" clip-path="url(#p3d8901ceb4)" style="fill: #c5cad3; stroke: #464c55; stroke-linejoin: miter"/>
   </g>
   <g id="patch_14">
    <path d="M 200.13017 403.29
L 211.388352 403.29
L 211.388352 369.627662
L 200.13017 369.627662
z
" clip-path="url(#p3d8901ceb4)" style="fill: #c5cad3; stroke: #464c55; stroke-linejoin: miter"/>
   </g>
   <g id="patch_15">
    <path d="M 211.388352 403.29
L 222.646534 403.29
L 222.646534 365.139351
L 211.388352 365.139351
z
" clip-path="url(#p3d8901ceb4)" style="fill: #c5cad3; stroke: #464c55; stroke-linejoin: miter"/>
   </g>
   <g id="patch_16">
    <path d="M 222.646534 403.29
L 233.904716 403.29
L 233.904716 360.651039
L 222.646534 360.651039
z
" clip-path="url(#p3d8901ceb4)" style="fill: #c5cad3; stroke: #464c55; stroke-linejoin: miter"/>
   </g>
   <g id="patch_17">
    <path d="M 233.904716 403.29
L 245.162898 403.29
L 245.162898 347.186104
L 233.904716 347.186104
z
" clip-path="url(#p3d8901ceb4)" style="fill: #c5cad3; stroke: #464c55; stroke-linejoin: miter"/>
   </g>
   <g id="patch_18">
    <path d="M 245.162898 403.29
L 256.42108 403.29
L 256.42108 335.965325
L 245.162898 335.965325
z
" clip-path="url(#p3d8901ceb4)" style="fill: #c5cad3; stroke: #464c55; stroke-linejoin: miter"/>
   </g>
   <g id="patch_19">
    <path d="M 256.42108 403.29
L 267.679261 403.29
L 267.679261 318.012078
L 256.42108 318.012078
z
" clip-path="url(#p3d8901ceb4)" style="fill: #c5cad3; stroke: #464c55; stroke-linejoin: miter"/>
   </g>
   <g id="patch_20">
    <path d="M 267.679261 403.29
L 278.937443 403.29
L 278.937443 297.814675
L 267.679261 297.814675
z
" clip-path="url(#p3d8901ceb4)" style="fill: #c5cad3; stroke: #464c55; stroke-linejoin: miter"/>
   </g>
   <g id="patch_21">
    <path d="M 278.937443 403.29
L 290.195625 403.29
L 290.195625 279.861429
L 278.937443 279.861429
z
" clip-path="url(#p3d8901ceb4)" style="fill: #c5cad3; stroke: #464c55; stroke-linejoin: miter"/>
   </g>
   <g id="patch_22">
    <path d="M 290.195625 403.29
L 301.453807 403.29
L 301.453807 214.780909
L 290.195625 214.780909
z
" clip-path="url(#p3d8901ceb4)" style="fill: #c5cad3; stroke: #464c55; stroke-linejoin: miter"/>
   </g>
   <g id="patch_23">
    <path d="M 301.453807 403.29
L 312.711989 403.29
L 312.711989 239.466623
L 301.453807 239.466623
z
" clip-path="url(#p3d8901ceb4)" style="fill: #c5cad3; stroke: #464c55; stroke-linejoin: miter"/>
   </g>
   <g id="patch_24">
    <path d="M 312.711989 403.29
L 323.97017 403.29
L 323.97017 217.025065
L 312.711989 217.025065
z
" clip-path="url(#p3d8901ceb4)" style="fill: #c5cad3; stroke: #464c55; stroke-linejoin: miter"/>
   </g>
   <g id="patch_25">
    <path d="M 323.97017 403.29
L 335.228352 403.29
L 335.228352 205.804286
L 323.97017 205.804286
z
" clip-path="url(#p3d8901ceb4)" style="fill: #c5cad3; stroke: #464c55; stroke-linejoin: miter"/>
   </g>
   <g id="patch_26">
    <path d="M 335.228352 403.29
L 346.486534 403.29
L 346.486534 183.362727
L 335.228352 183.362727
z
" clip-path="url(#p3d8901ceb4)" style="fill: #c5cad3; stroke: #464c55; stroke-linejoin: miter"/>
   </g>
   <g id="patch_27">
    <path d="M 346.486534 403.29
L 357.744716 403.29
L 357.744716 199.071818
L 346.486534 199.071818
z
" clip-path="url(#p3d8901ceb4)" style="fill: #c5cad3; stroke: #464c55; stroke-linejoin: miter"/>
   </g>
   <g id="patch_28">
    <path d="M 357.744716 403.29
L 369.002898 403.29
L 369.002898 107.061429
L 357.744716 107.061429
z
" clip-path="url(#p3d8901ceb4)" style="fill: #c5cad3; stroke: #464c55; stroke-linejoin: miter"/>
   </g>
   <g id="patch_29">
    <path d="M 369.002898 403.29
L 380.26108 403.29
L 380.26108 111.54974
L 369.002898 111.54974
z
" clip-path="url(#p3d8901ceb4)" style="fill: #c5cad3; stroke: #464c55; stroke-linejoin: miter"/>
   </g>
   <g id="patch_30">
    <path d="M 380.26108 403.29
L 391.519261 403.29
L 391.519261 113.793896
L 380.26108 113.793896
z
" clip-path="url(#p3d8901ceb4)" style="fill: #c5cad3; stroke: #464c55; stroke-linejoin: miter"/>
   </g>
   <g id="patch_31">
    <path d="M 391.519261 403.29
L 402.777443 403.29
L 402.777443 136.235455
L 391.519261 136.235455
z
" clip-path="url(#p3d8901ceb4)" style="fill: #c5cad3; stroke: #464c55; stroke-linejoin: miter"/>
   </g>
   <g id="patch_32">
    <path d="M 402.777443 403.29
L 414.035625 403.29
L 414.035625 138.47961
L 402.777443 138.47961
z
" clip-path="url(#p3d8901ceb4)" style="fill: #c5cad3; stroke: #464c55; stroke-linejoin: miter"/>
   </g>
   <g id="patch_33">
    <path d="M 414.035625 403.29
L 425.293807 403.29
L 425.293807 118.282208
L 414.035625 118.282208
z
" clip-path="url(#p3d8901ceb4)" style="fill: #c5cad3; stroke: #464c55; stroke-linejoin: miter"/>
   </g>
   <g id="patch_34">
    <path d="M 425.293807 403.29
L 436.551989 403.29
L 436.551989 205.804286
L 425.293807 205.804286
z
" clip-path="url(#p3d8901ceb4)" style="fill: #c5cad3; stroke: #464c55; stroke-linejoin: miter"/>
   </g>
   <g id="patch_35">
    <path d="M 436.551989 403.29
L 447.81017 403.29
L 447.81017 221.513377
L 436.551989 221.513377
z
" clip-path="url(#p3d8901ceb4)" style="fill: #c5cad3; stroke: #464c55; stroke-linejoin: miter"/>
   </g>
   <g id="patch_36">
    <path d="M 447.81017 403.29
L 459.068352 403.29
L 459.068352 214.780909
L 447.81017 214.780909
z
" clip-path="url(#p3d8901ceb4)" style="fill: #c5cad3; stroke: #464c55; stroke-linejoin: miter"/>
   </g>
   <g id="patch_37">
    <path d="M 459.068352 403.29
L 470.326534 403.29
L 470.326534 199.071818
L 459.068352 199.071818
z
" clip-path="url(#p3d8901ceb4)" style="fill: #c5cad3; stroke: #464c55; stroke-linejoin: miter"/>
   </g>
   <g id="patch_38">
    <path d="M 470.326534 403.29
L 481.584716 403.29
L 481.584716 228.245844
L 470.326534 228.245844
z
" clip-path="url(#p3d8901ceb4)" style="fill: #c5cad3; stroke: #464c55; stroke-linejoin: miter"/>
   </g>
   <g id="patch_39">
    <path d="M 481.584716 403.29
L 492.842898 403.29
L 492.842898 286.593896
L 481.584716 286.593896
z
" clip-path="url(#p3d8901ceb4)" style="fill: #c5cad3; stroke: #464c55; stroke-linejoin: miter"/>
   </g>
   <g id="patch_40">
    <path d="M 492.842898 403.29
L 504.10108 403.29
L 504.10108 291.082208
L 492.842898 291.082208
z
" clip-path="url(#p3d8901ceb4)" style="fill: #c5cad3; stroke: #464c55; stroke-linejoin: miter"/>
   </g>
   <g id="patch_41">
    <path d="M 504.10108 403.29
L 515.359261 403.29
L 515.359261 322.50039
L 504.10108 322.50039
z
" clip-path="url(#p3d8901ceb4)" style="fill: #c5cad3; stroke: #464c55; stroke-linejoin: miter"/>
   </g>
   <g id="patch_42">
    <path d="M 515.359261 403.29
L 526.617443 403.29
L 526.617443 338.209481
L 515.359261 338.209481
z
" clip-path="url(#p3d8901ceb4)" style="fill: #c5cad3; stroke: #464c55; stroke-linejoin: miter"/>
   </g>
   <g id="patch_43">
    <path d="M 526.617443 403.29
L 537.875625 403.29
L 537.875625 344.941948
L 526.617443 344.941948
z
" clip-path="url(#p3d8901ceb4)" style="fill: #c5cad3; stroke: #464c55; stroke-linejoin: miter"/>
   </g>
   <g id="patch_44">
    <path d="M 537.875625 403.29
L 549.133807 403.29
L 549.133807 338.209481
L 537.875625 338.209481
z
" clip-path="url(#p3d8901ceb4)" style="fill: #c5cad3; stroke: #464c55; stroke-linejoin: miter"/>
   </g>
   <g id="patch_45">
    <path d="M 549.133807 403.29
L 560.391989 403.29
L 560.391989 367.383506
L 549.133807 367.383506
z
" clip-path="url(#p3d8901ceb4)" style="fill: #c5cad3; stroke: #464c55; stroke-linejoin: miter"/>
   </g>
   <g id="patch_46">
    <path d="M 560.391989 403.29
L 571.65017 403.29
L 571.65017 380.848442
L 560.391989 380.848442
z
" clip-path="url(#p3d8901ceb4)" style="fill: #c5cad3; stroke: #464c55; stroke-linejoin: miter"/>
   </g>
   <g id="patch_47">
    <path d="M 571.65017 403.29
L 582.908352 403.29
L 582.908352 380.848442
L 571.65017 380.848442
z
" clip-path="url(#p3d8901ceb4)" style="fill: #c5cad3; stroke: #464c55; stroke-linejoin: miter"/>
   </g>
   <g id="patch_48">
    <path d="M 582.908352 403.29
L 594.166534 403.29
L 594.166534 387.580909
L 582.908352 387.580909
z
" clip-path="url(#p3d8901ceb4)" style="fill: #c5cad3; stroke: #464c55; stroke-linejoin: miter"/>
   </g>
   <g id="patch_49">
    <path d="M 594.166534 403.29
L 605.424716 403.29
L 605.424716 387.580909
L 594.166534 387.580909
z
" clip-path="url(#p3d8901ceb4)" style="fill: #c5cad3; stroke: #464c55; stroke-linejoin: miter"/>
   </g>
   <g id="patch_50">
    <path d="M 605.424716 403.29
L 616.682898 403.29
L 616.682898 389.825065
L 605.424716 389.825065
z
" clip-path="url(#p3d8901ceb4)" style="fill: #c5cad3; stroke: #464c55; stroke-linejoin: miter"/>
   </g>
   <g id="patch_51">
    <path d="M 616.682898 403.29
L 627.94108 403.29
L 627.94108 394.313377
L 616.682898 394.313377
z
" clip-path="url(#p3d8901ceb4)" style="fill: #c5cad3; stroke: #464c55; stroke-linejoin: miter"/>
   </g>
   <g id="patch_52">
    <path d="M 627.94108 403.29
L 639.199261 403.29
L 639.199261 392.069221
L 627.94108 392.069221
z
" clip-path="url(#p3d8901ceb4)" style="fill: #c5cad3; stroke: #464c55; stroke-linejoin: miter"/>
   </g>
   <g id="patch_53">
    <path d="M 639.199261 403.29
L 650.457443 403.29
L 650.457443 396.557532
L 639.199261 396.557532
z
" clip-path="url(#p3d8901ceb4)" style="fill: #c5cad3; stroke: #464c55; stroke-linejoin: miter"/>
   </g>
   <g id="patch_54">
    <path d="M 650.457443 403.29
L 661.715625 403.29
L 661.715625 403.29
L 650.457443 403.29
z
" clip-path="url(#p3d8901ceb4)" style="fill: #c5cad3; stroke: #464c55; stroke-linejoin: miter"/>
   </g>
   <g id="patch_55">
    <path d="M 661.715625 403.29
L 672.973807 403.29
L 672.973807 396.557532
L 661.715625 396.557532
z
" clip-path="url(#p3d8901ceb4)" style="fill: #c5cad3; stroke: #464c55; stroke-linejoin: miter"/>
   </g>
   <g id="patch_56">
    <path d="M 672.973807 403.29
L 684.231989 403.29
L 684.231989 401.045844
L 672.973807 401.045844
z
" clip-path="url(#p3d8901ceb4)" style="fill: #c5cad3; stroke: #464c55; stroke-linejoin: miter"/>
   </g>
   <g id="patch_57">
    <path d="M 684.231989 403.29
L 695.49017 403.29
L 695.49017 398.801688
L 684.231989 398.801688
z
" clip-path="url(#p3d8901ceb4)" style="fill: #c5cad3; stroke: #464c55; stroke-linejoin: miter"/>
   </g>
   <g id="patch_58">
    <path d="M 695.49017 403.29
L 706.748352 403.29
L 706.748352 396.557532
L 695.49017 396.557532
z
" clip-path="url(#p3d8901ceb4)" style="fill: #c5cad3; stroke: #464c55; stroke-linejoin: miter"/>
   </g>
   <g id="patch_59">
    <path d="M 706.748352 403.29
L 718.006534 403.29
L 718.006534 403.29
L 706.748352 403.29
z
" clip-path="url(#p3d8901ceb4)" style="fill: #c5cad3; stroke: #464c55; stroke-linejoin: miter"/>
   </g>
   <g id="patch_60">
    <path d="M 718.006534 403.29
L 729.264716 403.29
L 729.264716 401.045844
L 718.006534 401.045844
z
" clip-path="url(#p3d8901ceb4)" style="fill: #c5cad3; stroke: #464c55; stroke-linejoin: miter"/>
   </g>
   <g id="patch_61">
    <path d="M 729.264716 403.29
L 740.522898 403.29
L 740.522898 403.29
L 729.264716 403.29
z
" clip-path="url(#p3d8901ceb4)" style="fill: #c5cad3; stroke: #464c55; stroke-linejoin: miter"/>
   </g>
   <g id="patch_62">
    <path d="M 740.522898 403.29
L 751.78108 403.29
L 751.78108 401.045844
L 740.522898 401.045844
z
" clip-path="url(#p3d8901ceb4)" style="fill: #c5cad3; stroke: #464c55; stroke-linejoin: miter"/>
   </g>
   <g id="patch_63">
    <path d="M 42.515625 403.29
L 42.515625 92.25
" style="fill: none; stroke: #d7dbe7; stroke-width: 1.25; stroke-linejoin: miter; stroke-linecap: square"/>
   </g>
   <g id="patch_64">
    <path d="M 42.515625 403.29
L 785.555625 403.29
" style="fill: none; stroke: #d7dbe7; stroke-width: 1.25; stroke-linejoin: miter; stroke-linecap: square"/>
   </g>
  </g>
  <g id="text_19">
   <!-- MVRV identity residuals expose source convention limits -->
   <g style="fill: #1f2430" transform="translate(7.955625 19.045) scale(0.16 -0.16)">
    <defs>
     <path id="SegoeUI-Semibold-4d" d="M 5366 0
L 4628 0
L 4628 2900
Q 4628 3256 4672 3772
L 4659 3772
Q 4591 3478 4538 3350
L 3200 0
L 2688 0
L 1347 3325
Q 1291 3472 1228 3772
L 1216 3772
Q 1241 3503 1241 2894
L 1241 0
L 553 0
L 553 4481
L 1600 4481
L 2778 1497
Q 2913 1153 2953 984
L 2969 984
Q 3084 1338 3156 1509
L 4356 4481
L 5366 4481
L 5366 0
z
" transform="scale(0.015625)"/>
     <path id="SegoeUI-Semibold-56" d="M 4066 4481
L 2456 0
L 1625 0
L 44 4481
L 856 4481
L 1963 1081
Q 2016 919 2044 703
L 2056 703
Q 2078 881 2147 1088
L 3278 4481
L 4066 4481
z
" transform="scale(0.015625)"/>
     <path id="SegoeUI-Semibold-52" d="M 4016 0
L 3147 0
L 2431 1200
Q 2334 1366 2242 1483
Q 2150 1600 2054 1675
Q 1959 1750 1846 1784
Q 1734 1819 1594 1819
L 1294 1819
L 1294 0
L 553 0
L 553 4481
L 2028 4481
Q 2344 4481 2609 4406
Q 2875 4331 3072 4179
Q 3269 4028 3380 3801
Q 3491 3575 3491 3272
Q 3491 3034 3420 2836
Q 3350 2638 3220 2483
Q 3091 2328 2908 2218
Q 2725 2109 2497 2050
L 2497 2038
Q 2619 1969 2709 1886
Q 2800 1803 2881 1715
Q 2963 1628 3042 1517
Q 3122 1406 3219 1259
L 4016 0
z
M 1294 3878
L 1294 2422
L 1913 2422
Q 2084 2422 2229 2475
Q 2375 2528 2481 2628
Q 2588 2728 2647 2872
Q 2706 3016 2706 3194
Q 2706 3516 2503 3697
Q 2300 3878 1919 3878
L 1294 3878
z
" transform="scale(0.015625)"/>
     <path id="SegoeUI-Semibold-20" transform="scale(0.015625)"/>
     <path id="SegoeUI-Semibold-69" d="M 838 3872
Q 659 3872 532 3987
Q 406 4103 406 4281
Q 406 4459 532 4578
Q 659 4697 838 4697
Q 1022 4697 1150 4578
Q 1278 4459 1278 4281
Q 1278 4113 1150 3992
Q 1022 3872 838 3872
z
M 1197 0
L 472 0
L 472 3200
L 1197 3200
L 1197 0
z
" transform="scale(0.015625)"/>
     <path id="SegoeUI-Semibold-64" d="M 3381 0
L 2656 0
L 2656 544
L 2644 544
Q 2294 -75 1566 -75
Q 975 -75 620 354
Q 266 784 266 1525
Q 266 2319 658 2797
Q 1050 3275 1703 3275
Q 2350 3275 2644 2756
L 2656 2756
L 2656 4738
L 3381 4738
L 3381 0
z
M 2666 1463
L 2666 1881
Q 2666 2222 2444 2459
Q 2222 2697 1878 2697
Q 1472 2697 1239 2394
Q 1006 2091 1006 1553
Q 1006 1066 1229 783
Q 1453 500 1831 500
Q 2203 500 2434 773
Q 2666 1047 2666 1463
z
" transform="scale(0.015625)"/>
     <path id="SegoeUI-Semibold-65" d="M 3181 1403
L 1000 1403
Q 1013 959 1273 718
Q 1534 478 1991 478
Q 2503 478 2931 784
L 2931 200
Q 2494 -75 1775 -75
Q 1069 -75 667 361
Q 266 797 266 1588
Q 266 2334 708 2804
Q 1150 3275 1806 3275
Q 2463 3275 2822 2853
Q 3181 2431 3181 1681
L 3181 1403
z
M 2481 1916
Q 2478 2306 2297 2523
Q 2116 2741 1797 2741
Q 1484 2741 1267 2512
Q 1050 2284 1000 1916
L 2481 1916
z
" transform="scale(0.015625)"/>
     <path id="SegoeUI-Semibold-6e" d="M 3322 0
L 2597 0
L 2597 1803
Q 2597 2700 1963 2700
Q 1631 2700 1415 2451
Q 1200 2203 1200 1825
L 1200 0
L 472 0
L 472 3200
L 1200 3200
L 1200 2669
L 1213 2669
Q 1572 3275 2250 3275
Q 2772 3275 3047 2936
Q 3322 2597 3322 1956
L 3322 0
z
" transform="scale(0.015625)"/>
     <path id="SegoeUI-Semibold-74" d="M 2159 34
Q 1947 -72 1600 -72
Q 669 -72 669 822
L 669 2631
L 134 2631
L 134 3200
L 669 3200
L 669 3941
L 1394 4147
L 1394 3200
L 2159 3200
L 2159 2631
L 1394 2631
L 1394 1031
Q 1394 747 1497 625
Q 1600 503 1841 503
Q 2025 503 2159 609
L 2159 34
z
" transform="scale(0.015625)"/>
     <path id="SegoeUI-Semibold-79" d="M 3244 3200
L 1800 -513
Q 1350 -1506 538 -1506
Q 309 -1506 156 -1466
L 156 -863
Q 328 -919 469 -919
Q 875 -919 1075 -519
L 1291 6
L 19 3200
L 822 3200
L 1584 875
Q 1597 831 1641 644
L 1656 644
Q 1672 716 1713 869
L 2513 3200
L 3244 3200
z
" transform="scale(0.015625)"/>
     <path id="SegoeUI-Semibold-72" d="M 2328 2509
Q 2197 2613 1950 2613
Q 1628 2613 1412 2322
Q 1197 2031 1197 1531
L 1197 0
L 472 0
L 472 3200
L 1197 3200
L 1197 2541
L 1209 2541
Q 1316 2878 1536 3067
Q 1756 3256 2028 3256
Q 2225 3256 2328 3197
L 2328 2509
z
" transform="scale(0.015625)"/>
     <path id="SegoeUI-Semibold-73" d="M 272 100
L 272 772
Q 678 463 1169 463
Q 1825 463 1825 850
Q 1825 959 1769 1036
Q 1713 1113 1617 1172
Q 1522 1231 1392 1278
Q 1263 1325 1103 1384
Q 906 1463 748 1550
Q 591 1638 486 1748
Q 381 1859 328 2000
Q 275 2141 275 2328
Q 275 2559 384 2736
Q 494 2913 678 3033
Q 863 3153 1097 3214
Q 1331 3275 1581 3275
Q 2025 3275 2375 3141
L 2375 2506
Q 2038 2738 1600 2738
Q 1463 2738 1352 2709
Q 1241 2681 1162 2631
Q 1084 2581 1040 2511
Q 997 2441 997 2356
Q 997 2253 1040 2181
Q 1084 2109 1170 2054
Q 1256 2000 1376 1954
Q 1497 1909 1653 1856
Q 1859 1772 2023 1684
Q 2188 1597 2303 1486
Q 2419 1375 2481 1229
Q 2544 1084 2544 884
Q 2544 641 2431 459
Q 2319 278 2131 159
Q 1944 41 1698 -17
Q 1453 -75 1181 -75
Q 656 -75 272 100
z
" transform="scale(0.015625)"/>
     <path id="SegoeUI-Semibold-75" d="M 3263 0
L 2538 0
L 2538 506
L 2525 506
Q 2209 -75 1544 -75
Q 409 -75 409 1288
L 409 3200
L 1134 3200
L 1134 1363
Q 1134 500 1800 500
Q 2122 500 2330 737
Q 2538 975 2538 1359
L 2538 3200
L 3263 3200
L 3263 0
z
" transform="scale(0.015625)"/>
     <path id="SegoeUI-Semibold-61" d="M 2928 0
L 2225 0
L 2225 500
L 2213 500
Q 1881 -75 1241 -75
Q 769 -75 501 181
Q 234 438 234 859
Q 234 1766 1278 1916
L 2228 2050
Q 2228 2734 1578 2734
Q 1006 2734 547 2341
L 547 2975
Q 1053 3275 1716 3275
Q 2928 3275 2928 2081
L 2928 0
z
M 2228 1572
L 1556 1478
Q 1244 1438 1086 1327
Q 928 1216 928 938
Q 928 734 1073 604
Q 1219 475 1463 475
Q 1794 475 2011 708
Q 2228 941 2228 1294
L 2228 1572
z
" transform="scale(0.015625)"/>
     <path id="SegoeUI-Semibold-6c" d="M 1200 0
L 472 0
L 472 4738
L 1200 4738
L 1200 0
z
" transform="scale(0.015625)"/>
     <path id="SegoeUI-Semibold-78" d="M 3147 3200
L 2081 1581
L 3134 0
L 2294 0
L 1731 991
Q 1678 1081 1606 1222
L 1594 1222
Q 1581 1194 1463 991
L 891 0
L 53 0
L 1141 1569
L 109 3200
L 953 3200
L 1506 2159
Q 1569 2044 1628 1922
L 1638 1922
L 2353 3200
L 3147 3200
z
" transform="scale(0.015625)"/>
     <path id="SegoeUI-Semibold-70" d="M 1209 472
L 1197 472
L 1197 -1472
L 472 -1472
L 472 3200
L 1197 3200
L 1197 2638
L 1209 2638
Q 1581 3275 2297 3275
Q 2906 3275 3247 2847
Q 3588 2419 3588 1697
Q 3588 897 3203 415
Q 2819 -66 2153 -66
Q 1541 -66 1209 472
z
M 1191 1734
L 1191 1338
Q 1191 988 1414 744
Q 1638 500 1981 500
Q 2384 500 2614 814
Q 2844 1128 2844 1691
Q 2844 2163 2630 2430
Q 2416 2697 2050 2697
Q 1663 2697 1427 2422
Q 1191 2147 1191 1734
z
" transform="scale(0.015625)"/>
     <path id="SegoeUI-Semibold-6f" d="M 1891 -75
Q 1150 -75 708 373
Q 266 822 266 1563
Q 266 2369 727 2822
Q 1188 3275 1969 3275
Q 2719 3275 3137 2834
Q 3556 2394 3556 1613
Q 3556 847 3104 386
Q 2653 -75 1891 -75
z
M 1925 2697
Q 1500 2697 1253 2400
Q 1006 2103 1006 1581
Q 1006 1078 1256 789
Q 1506 500 1925 500
Q 2353 500 2583 784
Q 2813 1069 2813 1594
Q 2813 2122 2583 2409
Q 2353 2697 1925 2697
z
" transform="scale(0.015625)"/>
     <path id="SegoeUI-Semibold-63" d="M 2763 147
Q 2378 -75 1853 -75
Q 1141 -75 703 370
Q 266 816 266 1525
Q 266 2316 736 2795
Q 1206 3275 1994 3275
Q 2431 3275 2766 3122
L 2766 2447
Q 2431 2697 2053 2697
Q 1594 2697 1300 2386
Q 1006 2075 1006 1572
Q 1006 1075 1282 787
Q 1559 500 2025 500
Q 2416 500 2763 778
L 2763 147
z
" transform="scale(0.015625)"/>
     <path id="SegoeUI-Semibold-76" d="M 3228 3200
L 1991 0
L 1206 0
L 28 3200
L 816 3200
L 1525 963
Q 1606 716 1625 531
L 1634 531
Q 1663 763 1722 950
L 2466 3200
L 3228 3200
z
" transform="scale(0.015625)"/>
     <path id="SegoeUI-Semibold-6d" d="M 5256 0
L 4531 0
L 4531 1744
Q 4531 2247 4389 2472
Q 4247 2697 3909 2697
Q 3625 2697 3426 2412
Q 3228 2128 3228 1731
L 3228 0
L 2500 0
L 2500 1803
Q 2500 2697 1869 2697
Q 1575 2697 1386 2428
Q 1197 2159 1197 1731
L 1197 0
L 472 0
L 472 3200
L 1197 3200
L 1197 2694
L 1209 2694
Q 1556 3275 2219 3275
Q 2550 3275 2798 3092
Q 3047 2909 3138 2613
Q 3494 3275 4200 3275
Q 5256 3275 5256 1972
L 5256 0
z
" transform="scale(0.015625)"/>
    </defs>
    <use xlink:href="#SegoeUI-Semibold-4d"/>
    <use xlink:href="#SegoeUI-Semibold-56" transform="translate(92.431641 0)"/>
    <use xlink:href="#SegoeUI-Semibold-52" transform="translate(156.591797 0)"/>
    <use xlink:href="#SegoeUI-Semibold-56" transform="translate(218.847656 0)"/>
    <use xlink:href="#SegoeUI-Semibold-20" transform="translate(283.007812 0)"/>
    <use xlink:href="#SegoeUI-Semibold-69" transform="translate(310.498047 0)"/>
    <use xlink:href="#SegoeUI-Semibold-64" transform="translate(336.621094 0)"/>
    <use xlink:href="#SegoeUI-Semibold-65" transform="translate(396.875 0)"/>
    <use xlink:href="#SegoeUI-Semibold-6e" transform="translate(450 0)"/>
    <use xlink:href="#SegoeUI-Semibold-74" transform="translate(508.349609 0)"/>
    <use xlink:href="#SegoeUI-Semibold-69" transform="translate(544.482422 0)"/>
    <use xlink:href="#SegoeUI-Semibold-74" transform="translate(570.605469 0)"/>
    <use xlink:href="#SegoeUI-Semibold-79" transform="translate(606.738281 0)"/>
    <use xlink:href="#SegoeUI-Semibold-20" transform="translate(657.568359 0)"/>
    <use xlink:href="#SegoeUI-Semibold-72" transform="translate(685.058594 0)"/>
    <use xlink:href="#SegoeUI-Semibold-65" transform="translate(721.195312 0)"/>
    <use xlink:href="#SegoeUI-Semibold-73" transform="translate(774.320312 0)"/>
    <use xlink:href="#SegoeUI-Semibold-69" transform="translate(817.435547 0)"/>
    <use xlink:href="#SegoeUI-Semibold-64" transform="translate(843.558594 0)"/>
    <use xlink:href="#SegoeUI-Semibold-75" transform="translate(903.8125 0)"/>
    <use xlink:href="#SegoeUI-Semibold-61" transform="translate(962.162109 0)"/>
    <use xlink:href="#SegoeUI-Semibold-6c" transform="translate(1014.359375 0)"/>
    <use xlink:href="#SegoeUI-Semibold-73" transform="translate(1040.482422 0)"/>
    <use xlink:href="#SegoeUI-Semibold-20" transform="translate(1083.597656 0)"/>
    <use xlink:href="#SegoeUI-Semibold-65" transform="translate(1111.087891 0)"/>
    <use xlink:href="#SegoeUI-Semibold-78" transform="translate(1164.212891 0)"/>
    <use xlink:href="#SegoeUI-Semibold-70" transform="translate(1214.310547 0)"/>
    <use xlink:href="#SegoeUI-Semibold-6f" transform="translate(1274.564453 0)"/>
    <use xlink:href="#SegoeUI-Semibold-73" transform="translate(1334.28125 0)"/>
    <use xlink:href="#SegoeUI-Semibold-65" transform="translate(1377.396484 0)"/>
    <use xlink:href="#SegoeUI-Semibold-20" transform="translate(1430.521484 0)"/>
    <use xlink:href="#SegoeUI-Semibold-73" transform="translate(1458.011719 0)"/>
    <use xlink:href="#SegoeUI-Semibold-6f" transform="translate(1501.126953 0)"/>
    <use xlink:href="#SegoeUI-Semibold-75" transform="translate(1560.84375 0)"/>
    <use xlink:href="#SegoeUI-Semibold-72" transform="translate(1619.193359 0)"/>
    <use xlink:href="#SegoeUI-Semibold-63" transform="translate(1655.330078 0)"/>
    <use xlink:href="#SegoeUI-Semibold-65" transform="translate(1702.351562 0)"/>
    <use xlink:href="#SegoeUI-Semibold-20" transform="translate(1755.476562 0)"/>
    <use xlink:href="#SegoeUI-Semibold-63" transform="translate(1782.966797 0)"/>
    <use xlink:href="#SegoeUI-Semibold-6f" transform="translate(1829.988281 0)"/>
    <use xlink:href="#SegoeUI-Semibold-6e" transform="translate(1889.705078 0)"/>
    <use xlink:href="#SegoeUI-Semibold-76" transform="translate(1948.054688 0)"/>
    <use xlink:href="#SegoeUI-Semibold-65" transform="translate(1998.037109 0)"/>
    <use xlink:href="#SegoeUI-Semibold-6e" transform="translate(2051.162109 0)"/>
    <use xlink:href="#SegoeUI-Semibold-74" transform="translate(2109.511719 0)"/>
    <use xlink:href="#SegoeUI-Semibold-69" transform="translate(2145.644531 0)"/>
    <use xlink:href="#SegoeUI-Semibold-6f" transform="translate(2171.767578 0)"/>
    <use xlink:href="#SegoeUI-Semibold-6e" transform="translate(2231.484375 0)"/>
    <use xlink:href="#SegoeUI-Semibold-20" transform="translate(2289.833984 0)"/>
    <use xlink:href="#SegoeUI-Semibold-6c" transform="translate(2317.324219 0)"/>
    <use xlink:href="#SegoeUI-Semibold-69" transform="translate(2343.447266 0)"/>
    <use xlink:href="#SegoeUI-Semibold-6d" transform="translate(2369.570312 0)"/>
    <use xlink:href="#SegoeUI-Semibold-69" transform="translate(2458.144531 0)"/>
    <use xlink:href="#SegoeUI-Semibold-74" transform="translate(2484.267578 0)"/>
    <use xlink:href="#SegoeUI-Semibold-73" transform="translate(2520.400391 0)"/>
   </g>
  </g>
  <g id="text_20">
   <!-- Residual equals d-log MVRV minus market-cap change plus realized-cap change. -->
   <g style="fill: #6f768a" transform="translate(7.955625 39.643437) scale(0.11 -0.11)">
    <defs>
     <path id="SegoeUI-52" d="M 3800 0
L 3175 0
L 2425 1256
Q 2322 1431 2225 1554
Q 2128 1678 2026 1756
Q 1925 1834 1808 1870
Q 1691 1906 1544 1906
L 1113 1906
L 1113 0
L 588 0
L 588 4481
L 1925 4481
Q 2219 4481 2467 4407
Q 2716 4334 2898 4184
Q 3081 4034 3184 3811
Q 3288 3588 3288 3288
Q 3288 3053 3217 2858
Q 3147 2663 3017 2509
Q 2888 2356 2705 2248
Q 2522 2141 2294 2081
L 2294 2069
Q 2406 2019 2489 1955
Q 2572 1891 2647 1803
Q 2722 1716 2795 1605
Q 2869 1494 2959 1347
L 3800 0
z
M 1113 4006
L 1113 2381
L 1825 2381
Q 2022 2381 2189 2440
Q 2356 2500 2478 2611
Q 2600 2722 2669 2883
Q 2738 3044 2738 3244
Q 2738 3603 2505 3804
Q 2272 4006 1831 4006
L 1113 4006
z
" transform="scale(0.015625)"/>
     <path id="SegoeUI-71" d="M 3250 -1472
L 2738 -1472
L 2738 550
L 2725 550
Q 2391 -75 1631 -75
Q 1028 -75 664 354
Q 300 784 300 1525
Q 300 2322 700 2798
Q 1100 3275 1775 3275
Q 2431 3275 2725 2756
L 2738 2756
L 2738 3200
L 3250 3200
L 3250 -1472
z
M 2738 1441
L 2738 1906
Q 2738 2300 2480 2572
Q 2222 2844 1825 2844
Q 1363 2844 1094 2501
Q 825 2159 825 1538
Q 825 984 1084 670
Q 1344 356 1753 356
Q 2203 356 2470 664
Q 2738 972 2738 1441
z
" transform="scale(0.015625)"/>
     <path id="SegoeUI-2d" d="M 2156 1581
L 450 1581
L 450 1984
L 2156 1984
L 2156 1581
z
" transform="scale(0.015625)"/>
     <path id="SegoeUI-6f" d="M 1856 -75
Q 1147 -75 723 373
Q 300 822 300 1563
Q 300 2369 740 2822
Q 1181 3275 1931 3275
Q 2647 3275 3048 2834
Q 3450 2394 3450 1613
Q 3450 847 3017 386
Q 2584 -75 1856 -75
z
M 1894 2844
Q 1400 2844 1112 2508
Q 825 2172 825 1581
Q 825 1013 1115 684
Q 1406 356 1894 356
Q 2391 356 2658 678
Q 2925 1000 2925 1594
Q 2925 2194 2658 2519
Q 2391 2844 1894 2844
z
" transform="scale(0.015625)"/>
     <path id="SegoeUI-67" d="M 3250 256
Q 3250 -1506 1563 -1506
Q 969 -1506 525 -1281
L 525 -769
Q 1066 -1069 1556 -1069
Q 2738 -1069 2738 188
L 2738 538
L 2725 538
Q 2359 -75 1625 -75
Q 1028 -75 664 351
Q 300 778 300 1497
Q 300 2313 692 2794
Q 1084 3275 1766 3275
Q 2413 3275 2725 2756
L 2738 2756
L 2738 3200
L 3250 3200
L 3250 256
z
M 2738 1447
L 2738 1919
Q 2738 2300 2480 2572
Q 2222 2844 1838 2844
Q 1363 2844 1094 2498
Q 825 2153 825 1531
Q 825 997 1083 676
Q 1341 356 1766 356
Q 2197 356 2467 662
Q 2738 969 2738 1447
z
" transform="scale(0.015625)"/>
     <path id="SegoeUI-4d" d="M 5156 0
L 4634 0
L 4634 3006
Q 4634 3363 4678 3878
L 4666 3878
Q 4591 3575 4531 3444
L 3000 0
L 2744 0
L 1216 3419
Q 1150 3569 1081 3878
L 1069 3878
Q 1094 3609 1094 3000
L 1094 0
L 588 0
L 588 4481
L 1281 4481
L 2656 1356
Q 2816 997 2863 819
L 2881 819
Q 3016 1188 3097 1369
L 4500 4481
L 5156 4481
L 5156 0
z
" transform="scale(0.015625)"/>
     <path id="SegoeUI-56" d="M 3919 4481
L 2259 0
L 1681 0
L 56 4481
L 641 4481
L 1881 928
Q 1941 756 1972 531
L 1984 531
Q 2009 719 2088 934
L 3353 4481
L 3919 4481
z
" transform="scale(0.015625)"/>
     <path id="SegoeUI-6d" d="M 5063 0
L 4550 0
L 4550 1838
Q 4550 2369 4386 2606
Q 4222 2844 3834 2844
Q 3506 2844 3276 2544
Q 3047 2244 3047 1825
L 3047 0
L 2534 0
L 2534 1900
Q 2534 2844 1806 2844
Q 1469 2844 1250 2561
Q 1031 2278 1031 1825
L 1031 0
L 519 0
L 519 3200
L 1031 3200
L 1031 2694
L 1044 2694
Q 1384 3275 2038 3275
Q 2366 3275 2609 3092
Q 2853 2909 2944 2613
Q 3300 3275 4006 3275
Q 5063 3275 5063 1972
L 5063 0
z
" transform="scale(0.015625)"/>
     <path id="SegoeUI-6b" d="M 3175 0
L 2456 0
L 1044 1538
L 1031 1538
L 1031 0
L 519 0
L 519 4738
L 1031 4738
L 1031 1734
L 1044 1734
L 2388 3200
L 3059 3200
L 1575 1656
L 3175 0
z
" transform="scale(0.015625)"/>
     <path id="SegoeUI-63" d="M 2700 147
Q 2331 -75 1825 -75
Q 1141 -75 720 370
Q 300 816 300 1525
Q 300 2316 753 2795
Q 1206 3275 1963 3275
Q 2384 3275 2706 3119
L 2706 2594
Q 2350 2844 1944 2844
Q 1453 2844 1139 2492
Q 825 2141 825 1569
Q 825 1006 1120 681
Q 1416 356 1913 356
Q 2331 356 2700 634
L 2700 147
z
" transform="scale(0.015625)"/>
     <path id="SegoeUI-70" d="M 1044 463
L 1031 463
L 1031 -1472
L 519 -1472
L 519 3200
L 1031 3200
L 1031 2638
L 1044 2638
Q 1422 3275 2150 3275
Q 2769 3275 3116 2845
Q 3463 2416 3463 1694
Q 3463 891 3072 408
Q 2681 -75 2003 -75
Q 1381 -75 1044 463
z
M 1031 1753
L 1031 1306
Q 1031 909 1289 632
Q 1547 356 1944 356
Q 2409 356 2673 712
Q 2938 1069 2938 1703
Q 2938 2238 2691 2541
Q 2444 2844 2022 2844
Q 1575 2844 1303 2533
Q 1031 2222 1031 1753
z
" transform="scale(0.015625)"/>
     <path id="SegoeUI-68" d="M 3175 0
L 2663 0
L 2663 1844
Q 2663 2844 1919 2844
Q 1544 2844 1287 2555
Q 1031 2266 1031 1813
L 1031 0
L 519 0
L 519 4738
L 1031 4738
L 1031 2669
L 1044 2669
Q 1413 3275 2094 3275
Q 3175 3275 3175 1972
L 3175 0
z
" transform="scale(0.015625)"/>
     <path id="SegoeUI-7a" d="M 2750 3053
L 856 438
L 2731 438
L 2731 0
L 103 0
L 103 159
L 1997 2763
L 281 2763
L 281 3200
L 2750 3200
L 2750 3053
z
" transform="scale(0.015625)"/>
    </defs>
    <use xlink:href="#SegoeUI-52"/>
    <use xlink:href="#SegoeUI-65" transform="translate(57.064453 0)"/>
    <use xlink:href="#SegoeUI-73" transform="translate(109.359375 0)"/>
    <use xlink:href="#SegoeUI-69" transform="translate(151.791016 0)"/>
    <use xlink:href="#SegoeUI-64" transform="translate(176.009766 0)"/>
    <use xlink:href="#SegoeUI-75" transform="translate(234.896484 0)"/>
    <use xlink:href="#SegoeUI-61" transform="translate(291.488281 0)"/>
    <use xlink:href="#SegoeUI-6c" transform="translate(342.367188 0)"/>
    <use xlink:href="#SegoeUI-20" transform="translate(366.585938 0)"/>
    <use xlink:href="#SegoeUI-65" transform="translate(393.978516 0)"/>
    <use xlink:href="#SegoeUI-71" transform="translate(446.273438 0)"/>
    <use xlink:href="#SegoeUI-75" transform="translate(505.160156 0)"/>
    <use xlink:href="#SegoeUI-61" transform="translate(561.751953 0)"/>
    <use xlink:href="#SegoeUI-6c" transform="translate(612.630859 0)"/>
    <use xlink:href="#SegoeUI-73" transform="translate(636.849609 0)"/>
    <use xlink:href="#SegoeUI-20" transform="translate(679.28125 0)"/>
    <use xlink:href="#SegoeUI-64" transform="translate(706.673828 0)"/>
    <use xlink:href="#SegoeUI-2d" transform="translate(765.560547 0)"/>
    <use xlink:href="#SegoeUI-6c" transform="translate(805.550781 0)"/>
    <use xlink:href="#SegoeUI-6f" transform="translate(829.769531 0)"/>
    <use xlink:href="#SegoeUI-67" transform="translate(888.363281 0)"/>
    <use xlink:href="#SegoeUI-20" transform="translate(947.25 0)"/>
    <use xlink:href="#SegoeUI-4d" transform="translate(974.642578 0)"/>
    <use xlink:href="#SegoeUI-56" transform="translate(1064.4375 0)"/>
    <use xlink:href="#SegoeUI-52" transform="translate(1126.546875 0)"/>
    <use xlink:href="#SegoeUI-56" transform="translate(1186.361328 0)"/>
    <use xlink:href="#SegoeUI-20" transform="translate(1248.470703 0)"/>
    <use xlink:href="#SegoeUI-6d" transform="translate(1275.863281 0)"/>
    <use xlink:href="#SegoeUI-69" transform="translate(1361.996094 0)"/>
    <use xlink:href="#SegoeUI-6e" transform="translate(1386.214844 0)"/>
    <use xlink:href="#SegoeUI-75" transform="translate(1442.806641 0)"/>
    <use xlink:href="#SegoeUI-73" transform="translate(1499.398438 0)"/>
    <use xlink:href="#SegoeUI-20" transform="translate(1541.830078 0)"/>
    <use xlink:href="#SegoeUI-6d" transform="translate(1569.222656 0)"/>
    <use xlink:href="#SegoeUI-61" transform="translate(1655.355469 0)"/>
    <use xlink:href="#SegoeUI-72" transform="translate(1706.234375 0)"/>
    <use xlink:href="#SegoeUI-6b" transform="translate(1741 0)"/>
    <use xlink:href="#SegoeUI-65" transform="translate(1788.707031 0)"/>
    <use xlink:href="#SegoeUI-74" transform="translate(1841.001953 0)"/>
    <use xlink:href="#SegoeUI-2d" transform="translate(1869.388672 0)"/>
    <use xlink:href="#SegoeUI-63" transform="translate(1909.378906 0)"/>
    <use xlink:href="#SegoeUI-61" transform="translate(1955.570312 0)"/>
    <use xlink:href="#SegoeUI-70" transform="translate(2006.449219 0)"/>
    <use xlink:href="#SegoeUI-20" transform="translate(2065.238281 0)"/>
    <use xlink:href="#SegoeUI-63" transform="translate(2092.630859 0)"/>
    <use xlink:href="#SegoeUI-68" transform="translate(2138.822266 0)"/>
    <use xlink:href="#SegoeUI-61" transform="translate(2195.414062 0)"/>
    <use xlink:href="#SegoeUI-6e" transform="translate(2246.292969 0)"/>
    <use xlink:href="#SegoeUI-67" transform="translate(2302.884766 0)"/>
    <use xlink:href="#SegoeUI-65" transform="translate(2361.771484 0)"/>
    <use xlink:href="#SegoeUI-20" transform="translate(2414.066406 0)"/>
    <use xlink:href="#SegoeUI-70" transform="translate(2441.458984 0)"/>
    <use xlink:href="#SegoeUI-6c" transform="translate(2500.248047 0)"/>
    <use xlink:href="#SegoeUI-75" transform="translate(2524.466797 0)"/>
    <use xlink:href="#SegoeUI-73" transform="translate(2581.058594 0)"/>
    <use xlink:href="#SegoeUI-20" transform="translate(2623.490234 0)"/>
    <use xlink:href="#SegoeUI-72" transform="translate(2650.882812 0)"/>
    <use xlink:href="#SegoeUI-65" transform="translate(2684.273438 0)"/>
    <use xlink:href="#SegoeUI-61" transform="translate(2736.568359 0)"/>
    <use xlink:href="#SegoeUI-6c" transform="translate(2787.447266 0)"/>
    <use xlink:href="#SegoeUI-69" transform="translate(2811.666016 0)"/>
    <use xlink:href="#SegoeUI-7a" transform="translate(2835.884766 0)"/>
    <use xlink:href="#SegoeUI-65" transform="translate(2881.099609 0)"/>
    <use xlink:href="#SegoeUI-64" transform="translate(2933.394531 0)"/>
    <use xlink:href="#SegoeUI-2d" transform="translate(2992.28125 0)"/>
    <use xlink:href="#SegoeUI-63" transform="translate(3032.271484 0)"/>
    <use xlink:href="#SegoeUI-61" transform="translate(3078.462891 0)"/>
    <use xlink:href="#SegoeUI-70" transform="translate(3129.341797 0)"/>
    <use xlink:href="#SegoeUI-20" transform="translate(3188.130859 0)"/>
    <use xlink:href="#SegoeUI-63" transform="translate(3215.523438 0)"/>
    <use xlink:href="#SegoeUI-68" transform="translate(3261.714844 0)"/>
    <use xlink:href="#SegoeUI-61" transform="translate(3318.306641 0)"/>
    <use xlink:href="#SegoeUI-6e" transform="translate(3369.185547 0)"/>
    <use xlink:href="#SegoeUI-67" transform="translate(3425.777344 0)"/>
    <use xlink:href="#SegoeUI-65" transform="translate(3484.664062 0)"/>
    <use xlink:href="#SegoeUI-2e" transform="translate(3536.958984 0)"/>
   </g>
  </g>
 </g>
 <defs>
  <clipPath id="p3d8901ceb4">
   <rect x="42.515625" y="92.25" width="743.04" height="311.04"/>
  </clipPath>
 </defs>
</svg>
