<?xml version="1.0" encoding="utf-8" standalone="no"?>
<!DOCTYPE svg PUBLIC "-//W3C//DTD SVG 1.1//EN"
  "http://www.w3.org/Graphics/SVG/1.1/DTD/svg11.dtd">
<svg xmlns:xlink="http://www.w3.org/1999/xlink" width="720pt" height="405pt" viewBox="0 0 720 405" xmlns="http://www.w3.org/2000/svg" version="1.1">
 <metadata>
  <rdf:RDF xmlns:dc="http://purl.org/dc/elements/1.1/" xmlns:cc="http://creativecommons.org/ns#" xmlns:rdf="http://www.w3.org/1999/02/22-rdf-syntax-ns#">
   <cc:Work>
    <dc:type rdf:resource="http://purl.org/dc/dcmitype/StillImage"/>
    <dc:date>2026-06-16T13:04:05.886840</dc:date>
    <dc:format>image/svg+xml</dc:format>
    <dc:creator>
     <cc:Agent>
      <dc:title>Matplotlib v3.10.8, https://matplotlib.org/</dc:title>
     </cc:Agent>
    </dc:creator>
   </cc:Work>
  </rdf:RDF>
 </metadata>
 <defs>
  <style type="text/css">*{stroke-linejoin: round; stroke-linecap: butt}</style>
 </defs>
 <g id="figure_1">
  <g id="patch_1">
   <path d="M 0 405 
L 720 405 
L 720 0 
L 0 0 
z
" style="fill: #080b12"/>
  </g>
  <g id="patch_2">
   <path d="M 22.32 391.635 
L 697.68 391.635 
Q 710.64 391.635 710.64 384.345 
L 710.64 24.705 
Q 710.64 17.415 697.68 17.415 
L 22.32 17.415 
Q 9.36 17.415 9.36 24.705 
L 9.36 384.345 
Q 9.36 391.635 22.32 391.635 
z
" style="fill: #0f172a; stroke: #243044; stroke-linejoin: miter"/>
  </g>
  <g id="axes_1"/>
  <g id="patch_3">
   <path d="M 53.28 148.635 
L 162.72 148.635 
Q 174.24 148.635 174.24 142.155 
L 174.24 102.87 
Q 174.24 96.39 162.72 96.39 
L 53.28 96.39 
Q 41.76 96.39 41.76 102.87 
L 41.76 142.155 
Q 41.76 148.635 53.28 148.635 
z
" style="fill: #111827; opacity: 0.96; stroke: #f7931a; stroke-linejoin: miter"/>
  </g>
  <g id="patch_4">
   <path d="M 180 148.635 
L 289.44 148.635 
Q 300.96 148.635 300.96 142.155 
L 300.96 102.87 
Q 300.96 96.39 289.44 96.39 
L 180 96.39 
Q 168.48 96.39 168.48 102.87 
L 168.48 142.155 
Q 168.48 148.635 180 148.635 
z
" style="fill: #111827; opacity: 0.96; stroke: #2dd4bf; stroke-linejoin: miter"/>
  </g>
  <g id="patch_5">
   <path d="M 306.72 148.635 
L 416.16 148.635 
Q 427.68 148.635 427.68 142.155 
L 427.68 102.87 
Q 427.68 96.39 416.16 96.39 
L 306.72 96.39 
Q 295.2 96.39 295.2 102.87 
L 295.2 142.155 
Q 295.2 148.635 306.72 148.635 
z
" style="fill: #111827; opacity: 0.96; stroke: #a78bfa; stroke-linejoin: miter"/>
  </g>
  <g id="patch_6">
   <path d="M 433.44 148.635 
L 542.88 148.635 
Q 554.4 148.635 554.4 142.155 
L 554.4 102.87 
Q 554.4 96.39 542.88 96.39 
L 433.44 96.39 
Q 421.92 96.39 421.92 102.87 
L 421.92 142.155 
Q 421.92 148.635 433.44 148.635 
z
" style="fill: #111827; opacity: 0.96; stroke: #22c55e; stroke-linejoin: miter"/>
  </g>
  <g id="patch_7">
   <path d="M 560.16 148.635 
L 669.6 148.635 
Q 681.12 148.635 681.12 142.155 
L 681.12 102.87 
Q 681.12 96.39 669.6 96.39 
L 560.16 96.39 
Q 548.64 96.39 548.64 102.87 
L 548.64 142.155 
Q 548.64 148.635 560.16 148.635 
z
" style="fill: #111827; opacity: 0.96; stroke: #fbbf24; stroke-linejoin: miter"/>
  </g>
  <g id="text_1">
   <!-- Crypto Market Factor Lab -->
   <g style="fill: #e5e7eb" transform="translate(39.6 39.650625) scale(0.18 -0.18)">
    <defs>
     <path id="SegoeUI-Semibold-43" d="M 3678 188 
Q 3172 -75 2419 -75 
Q 1444 -75 856 540 
Q 269 1156 269 2156 
Q 269 3231 930 3893 
Q 1591 4556 2600 4556 
Q 3250 4556 3678 4372 
L 3678 3634 
Q 3225 3903 2678 3903 
Q 1950 3903 1498 3437 
Q 1047 2972 1047 2194 
Q 1047 1453 1469 1014 
Q 1891 575 2578 575 
Q 3213 575 3678 875 
L 3678 188 
z
" transform="scale(0.015625)"/>
     <path id="SegoeUI-Semibold-72" d="M 2328 2509 
Q 2197 2613 1950 2613 
Q 1628 2613 1412 2322 
Q 1197 2031 1197 1531 
L 1197 0 
L 472 0 
L 472 3200 
L 1197 3200 
L 1197 2541 
L 1209 2541 
Q 1316 2878 1536 3067 
Q 1756 3256 2028 3256 
Q 2225 3256 2328 3197 
L 2328 2509 
z
" transform="scale(0.015625)"/>
     <path id="SegoeUI-Semibold-79" d="M 3244 3200 
L 1800 -513 
Q 1350 -1506 538 -1506 
Q 309 -1506 156 -1466 
L 156 -863 
Q 328 -919 469 -919 
Q 875 -919 1075 -519 
L 1291 6 
L 19 3200 
L 822 3200 
L 1584 875 
Q 1597 831 1641 644 
L 1656 644 
Q 1672 716 1713 869 
L 2513 3200 
L 3244 3200 
z
" transform="scale(0.015625)"/>
     <path id="SegoeUI-Semibold-70" d="M 1209 472 
L 1197 472 
L 1197 -1472 
L 472 -1472 
L 472 3200 
L 1197 3200 
L 1197 2638 
L 1209 2638 
Q 1581 3275 2297 3275 
Q 2906 3275 3247 2847 
Q 3588 2419 3588 1697 
Q 3588 897 3203 415 
Q 2819 -66 2153 -66 
Q 1541 -66 1209 472 
z
M 1191 1734 
L 1191 1338 
Q 1191 988 1414 744 
Q 1638 500 1981 500 
Q 2384 500 2614 814 
Q 2844 1128 2844 1691 
Q 2844 2163 2630 2430 
Q 2416 2697 2050 2697 
Q 1663 2697 1427 2422 
Q 1191 2147 1191 1734 
z
" transform="scale(0.015625)"/>
     <path id="SegoeUI-Semibold-74" d="M 2159 34 
Q 1947 -72 1600 -72 
Q 669 -72 669 822 
L 669 2631 
L 134 2631 
L 134 3200 
L 669 3200 
L 669 3941 
L 1394 4147 
L 1394 3200 
L 2159 3200 
L 2159 2631 
L 1394 2631 
L 1394 1031 
Q 1394 747 1497 625 
Q 1600 503 1841 503 
Q 2025 503 2159 609 
L 2159 34 
z
" transform="scale(0.015625)"/>
     <path id="SegoeUI-Semibold-6f" d="M 1891 -75 
Q 1150 -75 708 373 
Q 266 822 266 1563 
Q 266 2369 727 2822 
Q 1188 3275 1969 3275 
Q 2719 3275 3137 2834 
Q 3556 2394 3556 1613 
Q 3556 847 3104 386 
Q 2653 -75 1891 -75 
z
M 1925 2697 
Q 1500 2697 1253 2400 
Q 1006 2103 1006 1581 
Q 1006 1078 1256 789 
Q 1506 500 1925 500 
Q 2353 500 2583 784 
Q 2813 1069 2813 1594 
Q 2813 2122 2583 2409 
Q 2353 2697 1925 2697 
z
" transform="scale(0.015625)"/>
     <path id="SegoeUI-Semibold-20" transform="scale(0.015625)"/>
     <path id="SegoeUI-Semibold-4d" d="M 5366 0 
L 4628 0 
L 4628 2900 
Q 4628 3256 4672 3772 
L 4659 3772 
Q 4591 3478 4538 3350 
L 3200 0 
L 2688 0 
L 1347 3325 
Q 1291 3472 1228 3772 
L 1216 3772 
Q 1241 3503 1241 2894 
L 1241 0 
L 553 0 
L 553 4481 
L 1600 4481 
L 2778 1497 
Q 2913 1153 2953 984 
L 2969 984 
Q 3084 1338 3156 1509 
L 4356 4481 
L 5366 4481 
L 5366 0 
z
" transform="scale(0.015625)"/>
     <path id="SegoeUI-Semibold-61" d="M 2928 0 
L 2225 0 
L 2225 500 
L 2213 500 
Q 1881 -75 1241 -75 
Q 769 -75 501 181 
Q 234 438 234 859 
Q 234 1766 1278 1916 
L 2228 2050 
Q 2228 2734 1578 2734 
Q 1006 2734 547 2341 
L 547 2975 
Q 1053 3275 1716 3275 
Q 2928 3275 2928 2081 
L 2928 0 
z
M 2228 1572 
L 1556 1478 
Q 1244 1438 1086 1327 
Q 928 1216 928 938 
Q 928 734 1073 604 
Q 1219 475 1463 475 
Q 1794 475 2011 708 
Q 2228 941 2228 1294 
L 2228 1572 
z
" transform="scale(0.015625)"/>
     <path id="SegoeUI-Semibold-6b" d="M 3375 0 
L 2456 0 
L 1213 1538 
L 1200 1538 
L 1200 0 
L 472 0 
L 472 4738 
L 1200 4738 
L 1200 1734 
L 1213 1734 
L 2388 3200 
L 3259 3200 
L 1938 1656 
L 3375 0 
z
" transform="scale(0.015625)"/>
     <path id="SegoeUI-Semibold-65" d="M 3181 1403 
L 1000 1403 
Q 1013 959 1273 718 
Q 1534 478 1991 478 
Q 2503 478 2931 784 
L 2931 200 
Q 2494 -75 1775 -75 
Q 1069 -75 667 361 
Q 266 797 266 1588 
Q 266 2334 708 2804 
Q 1150 3275 1806 3275 
Q 2463 3275 2822 2853 
Q 3181 2431 3181 1681 
L 3181 1403 
z
M 2481 1916 
Q 2478 2306 2297 2523 
Q 2116 2741 1797 2741 
Q 1484 2741 1267 2512 
Q 1050 2284 1000 1916 
L 2481 1916 
z
" transform="scale(0.015625)"/>
     <path id="SegoeUI-Semibold-46" d="M 2972 3850 
L 1297 3850 
L 1297 2503 
L 2841 2503 
L 2841 1875 
L 1297 1875 
L 1297 0 
L 553 0 
L 553 4481 
L 2972 4481 
L 2972 3850 
z
" transform="scale(0.015625)"/>
     <path id="SegoeUI-Semibold-63" d="M 2763 147 
Q 2378 -75 1853 -75 
Q 1141 -75 703 370 
Q 266 816 266 1525 
Q 266 2316 736 2795 
Q 1206 3275 1994 3275 
Q 2431 3275 2766 3122 
L 2766 2447 
Q 2431 2697 2053 2697 
Q 1594 2697 1300 2386 
Q 1006 2075 1006 1572 
Q 1006 1075 1282 787 
Q 1559 500 2025 500 
Q 2416 500 2763 778 
L 2763 147 
z
" transform="scale(0.015625)"/>
     <path id="SegoeUI-Semibold-4c" d="M 3034 0 
L 553 0 
L 553 4481 
L 1297 4481 
L 1297 628 
L 3034 628 
L 3034 0 
z
" transform="scale(0.015625)"/>
     <path id="SegoeUI-Semibold-62" d="M 1209 463 
L 1197 463 
L 1197 0 
L 472 0 
L 472 4738 
L 1197 4738 
L 1197 2638 
L 1209 2638 
Q 1581 3275 2297 3275 
Q 2903 3275 3245 2845 
Q 3588 2416 3588 1694 
Q 3588 891 3203 408 
Q 2819 -75 2153 -75 
Q 1528 -75 1209 463 
z
M 1191 1734 
L 1191 1338 
Q 1191 988 1414 744 
Q 1638 500 1981 500 
Q 2384 500 2614 814 
Q 2844 1128 2844 1691 
Q 2844 2163 2630 2430 
Q 2416 2697 2050 2697 
Q 1663 2697 1427 2422 
Q 1191 2147 1191 1734 
z
" transform="scale(0.015625)"/>
    </defs>
    <use xlink:href="#SegoeUI-Semibold-43"/>
    <use xlink:href="#SegoeUI-Semibold-72" transform="translate(62.109375 0)"/>
    <use xlink:href="#SegoeUI-Semibold-79" transform="translate(103.121094 0)"/>
    <use xlink:href="#SegoeUI-Semibold-70" transform="translate(153.951172 0)"/>
    <use xlink:href="#SegoeUI-Semibold-74" transform="translate(214.205078 0)"/>
    <use xlink:href="#SegoeUI-Semibold-6f" transform="translate(249.712891 0)"/>
    <use xlink:href="#SegoeUI-Semibold-20" transform="translate(309.429688 0)"/>
    <use xlink:href="#SegoeUI-Semibold-4d" transform="translate(336.919922 0)"/>
    <use xlink:href="#SegoeUI-Semibold-61" transform="translate(429.351562 0)"/>
    <use xlink:href="#SegoeUI-Semibold-72" transform="translate(481.548828 0)"/>
    <use xlink:href="#SegoeUI-Semibold-6b" transform="translate(518.560547 0)"/>
    <use xlink:href="#SegoeUI-Semibold-65" transform="translate(569.300781 0)"/>
    <use xlink:href="#SegoeUI-Semibold-74" transform="translate(622.425781 0)"/>
    <use xlink:href="#SegoeUI-Semibold-20" transform="translate(658.558594 0)"/>
    <use xlink:href="#SegoeUI-Semibold-46" transform="translate(686.048828 0)"/>
    <use xlink:href="#SegoeUI-Semibold-61" transform="translate(732.917969 0)"/>
    <use xlink:href="#SegoeUI-Semibold-63" transform="translate(785.115234 0)"/>
    <use xlink:href="#SegoeUI-Semibold-74" transform="translate(832.136719 0)"/>
    <use xlink:href="#SegoeUI-Semibold-6f" transform="translate(867.644531 0)"/>
    <use xlink:href="#SegoeUI-Semibold-72" transform="translate(927.361328 0)"/>
    <use xlink:href="#SegoeUI-Semibold-20" transform="translate(964.373047 0)"/>
    <use xlink:href="#SegoeUI-Semibold-4c" transform="translate(991.863281 0)"/>
    <use xlink:href="#SegoeUI-Semibold-61" transform="translate(1040.740234 0)"/>
    <use xlink:href="#SegoeUI-Semibold-62" transform="translate(1092.9375 0)"/>
   </g>
  </g>
  <g id="text_2">
   <!-- Reproducible BTC/ETH factor regimes, ETF-flow market plumbing, stablecoin liquidity, native factors, connectedness, and -->
   <g style="fill: #94a3b8" transform="translate(39.6 53.708906) scale(0.095 -0.095)">
    <defs>
     <path id="SegoeUI-52" d="M 3800 0 
L 3175 0 
L 2425 1256 
Q 2322 1431 2225 1554 
Q 2128 1678 2026 1756 
Q 1925 1834 1808 1870 
Q 1691 1906 1544 1906 
L 1113 1906 
L 1113 0 
L 588 0 
L 588 4481 
L 1925 4481 
Q 2219 4481 2467 4407 
Q 2716 4334 2898 4184 
Q 3081 4034 3184 3811 
Q 3288 3588 3288 3288 
Q 3288 3053 3217 2858 
Q 3147 2663 3017 2509 
Q 2888 2356 2705 2248 
Q 2522 2141 2294 2081 
L 2294 2069 
Q 2406 2019 2489 1955 
Q 2572 1891 2647 1803 
Q 2722 1716 2795 1605 
Q 2869 1494 2959 1347 
L 3800 0 
z
M 1113 4006 
L 1113 2381 
L 1825 2381 
Q 2022 2381 2189 2440 
Q 2356 2500 2478 2611 
Q 2600 2722 2669 2883 
Q 2738 3044 2738 3244 
Q 2738 3603 2505 3804 
Q 2272 4006 1831 4006 
L 1113 4006 
z
" transform="scale(0.015625)"/>
     <path id="SegoeUI-65" d="M 3091 1472 
L 831 1472 
Q 844 938 1119 647 
Q 1394 356 1875 356 
Q 2416 356 2869 713 
L 2869 231 
Q 2447 -75 1753 -75 
Q 1075 -75 687 361 
Q 300 797 300 1588 
Q 300 2334 723 2804 
Q 1147 3275 1775 3275 
Q 2403 3275 2747 2869 
Q 3091 2463 3091 1741 
L 3091 1472 
z
M 2566 1906 
Q 2563 2350 2352 2597 
Q 2141 2844 1766 2844 
Q 1403 2844 1150 2584 
Q 897 2325 838 1906 
L 2566 1906 
z
" transform="scale(0.015625)"/>
     <path id="SegoeUI-70" d="M 1044 463 
L 1031 463 
L 1031 -1472 
L 519 -1472 
L 519 3200 
L 1031 3200 
L 1031 2638 
L 1044 2638 
Q 1422 3275 2150 3275 
Q 2769 3275 3116 2845 
Q 3463 2416 3463 1694 
Q 3463 891 3072 408 
Q 2681 -75 2003 -75 
Q 1381 -75 1044 463 
z
M 1031 1753 
L 1031 1306 
Q 1031 909 1289 632 
Q 1547 356 1944 356 
Q 2409 356 2673 712 
Q 2938 1069 2938 1703 
Q 2938 2238 2691 2541 
Q 2444 2844 2022 2844 
Q 1575 2844 1303 2533 
Q 1031 2222 1031 1753 
z
" transform="scale(0.015625)"/>
     <path id="SegoeUI-72" d="M 2188 2681 
Q 2053 2784 1800 2784 
Q 1472 2784 1251 2475 
Q 1031 2166 1031 1631 
L 1031 0 
L 519 0 
L 519 3200 
L 1031 3200 
L 1031 2541 
L 1044 2541 
Q 1153 2878 1378 3067 
Q 1603 3256 1881 3256 
Q 2081 3256 2188 3213 
L 2188 2681 
z
" transform="scale(0.015625)"/>
     <path id="SegoeUI-6f" d="M 1856 -75 
Q 1147 -75 723 373 
Q 300 822 300 1563 
Q 300 2369 740 2822 
Q 1181 3275 1931 3275 
Q 2647 3275 3048 2834 
Q 3450 2394 3450 1613 
Q 3450 847 3017 386 
Q 2584 -75 1856 -75 
z
M 1894 2844 
Q 1400 2844 1112 2508 
Q 825 2172 825 1581 
Q 825 1013 1115 684 
Q 1406 356 1894 356 
Q 2391 356 2658 678 
Q 2925 1000 2925 1594 
Q 2925 2194 2658 2519 
Q 2391 2844 1894 2844 
z
" transform="scale(0.015625)"/>
     <path id="SegoeUI-64" d="M 3250 0 
L 2738 0 
L 2738 544 
L 2725 544 
Q 2369 -75 1625 -75 
Q 1022 -75 661 354 
Q 300 784 300 1525 
Q 300 2319 700 2797 
Q 1100 3275 1766 3275 
Q 2425 3275 2725 2756 
L 2738 2756 
L 2738 4738 
L 3250 4738 
L 3250 0 
z
M 2738 1447 
L 2738 1919 
Q 2738 2306 2481 2575 
Q 2225 2844 1831 2844 
Q 1363 2844 1094 2500 
Q 825 2156 825 1550 
Q 825 997 1083 676 
Q 1341 356 1775 356 
Q 2203 356 2470 665 
Q 2738 975 2738 1447 
z
" transform="scale(0.015625)"/>
     <path id="SegoeUI-75" d="M 3106 0 
L 2594 0 
L 2594 506 
L 2581 506 
Q 2263 -75 1594 -75 
Q 450 -75 450 1288 
L 450 3200 
L 959 3200 
L 959 1369 
Q 959 356 1734 356 
Q 2109 356 2351 632 
Q 2594 909 2594 1356 
L 2594 3200 
L 3106 3200 
L 3106 0 
z
" transform="scale(0.015625)"/>
     <path id="SegoeUI-63" d="M 2700 147 
Q 2331 -75 1825 -75 
Q 1141 -75 720 370 
Q 300 816 300 1525 
Q 300 2316 753 2795 
Q 1206 3275 1963 3275 
Q 2384 3275 2706 3119 
L 2706 2594 
Q 2350 2844 1944 2844 
Q 1453 2844 1139 2492 
Q 825 2141 825 1569 
Q 825 1006 1120 681 
Q 1416 356 1913 356 
Q 2331 356 2700 634 
L 2700 147 
z
" transform="scale(0.015625)"/>
     <path id="SegoeUI-69" d="M 781 4013 
Q 644 4013 547 4106 
Q 450 4200 450 4344 
Q 450 4488 547 4583 
Q 644 4678 781 4678 
Q 922 4678 1020 4583 
Q 1119 4488 1119 4344 
Q 1119 4206 1020 4109 
Q 922 4013 781 4013 
z
M 1031 0 
L 519 0 
L 519 3200 
L 1031 3200 
L 1031 0 
z
" transform="scale(0.015625)"/>
     <path id="SegoeUI-62" d="M 1044 463 
L 1031 463 
L 1031 0 
L 519 0 
L 519 4738 
L 1031 4738 
L 1031 2638 
L 1044 2638 
Q 1422 3275 2150 3275 
Q 2766 3275 3114 2845 
Q 3463 2416 3463 1694 
Q 3463 891 3072 408 
Q 2681 -75 2003 -75 
Q 1369 -75 1044 463 
z
M 1031 1753 
L 1031 1306 
Q 1031 909 1289 632 
Q 1547 356 1944 356 
Q 2409 356 2673 712 
Q 2938 1069 2938 1703 
Q 2938 2238 2691 2541 
Q 2444 2844 2022 2844 
Q 1575 2844 1303 2533 
Q 1031 2222 1031 1753 
z
" transform="scale(0.015625)"/>
     <path id="SegoeUI-6c" d="M 1031 0 
L 519 0 
L 519 4738 
L 1031 4738 
L 1031 0 
z
" transform="scale(0.015625)"/>
     <path id="SegoeUI-20" transform="scale(0.015625)"/>
     <path id="SegoeUI-42" d="M 588 0 
L 588 4481 
L 1863 4481 
Q 2444 4481 2784 4197 
Q 3125 3913 3125 3456 
Q 3125 3075 2919 2794 
Q 2713 2513 2350 2394 
L 2350 2381 
Q 2803 2328 3075 2039 
Q 3347 1750 3347 1288 
Q 3347 713 2934 356 
Q 2522 0 1894 0 
L 588 0 
z
M 1113 4006 
L 1113 2559 
L 1650 2559 
Q 2081 2559 2328 2767 
Q 2575 2975 2575 3353 
Q 2575 4006 1716 4006 
L 1113 4006 
z
M 1113 2088 
L 1113 475 
L 1825 475 
Q 2288 475 2542 694 
Q 2797 913 2797 1294 
Q 2797 2088 1716 2088 
L 1113 2088 
z
" transform="scale(0.015625)"/>
     <path id="SegoeUI-54" d="M 3238 4006 
L 1944 4006 
L 1944 0 
L 1419 0 
L 1419 4006 
L 128 4006 
L 128 4481 
L 3238 4481 
L 3238 4006 
z
" transform="scale(0.015625)"/>
     <path id="SegoeUI-43" d="M 3638 188 
Q 3141 -75 2400 -75 
Q 1444 -75 869 540 
Q 294 1156 294 2156 
Q 294 3231 941 3893 
Q 1588 4556 2581 4556 
Q 3219 4556 3638 4372 
L 3638 3813 
Q 3156 4081 2575 4081 
Q 1803 4081 1323 3565 
Q 844 3050 844 2188 
Q 844 1369 1292 883 
Q 1741 397 2469 397 
Q 3144 397 3638 697 
L 3638 188 
z
" transform="scale(0.015625)"/>
     <path id="SegoeUI-2f" d="M 2541 4481 
L 391 -744 
L -88 -744 
L 2056 4481 
L 2541 4481 
z
" transform="scale(0.015625)"/>
     <path id="SegoeUI-45" d="M 2963 0 
L 588 0 
L 588 4481 
L 2863 4481 
L 2863 4006 
L 1113 4006 
L 1113 2516 
L 2731 2516 
L 2731 2044 
L 1113 2044 
L 1113 475 
L 2963 475 
L 2963 0 
z
" transform="scale(0.015625)"/>
     <path id="SegoeUI-48" d="M 3956 0 
L 3431 0 
L 3431 2044 
L 1113 2044 
L 1113 0 
L 588 0 
L 588 4481 
L 1113 4481 
L 1113 2516 
L 3431 2516 
L 3431 4481 
L 3956 4481 
L 3956 0 
z
" transform="scale(0.015625)"/>
     <path id="SegoeUI-66" d="M 2100 4288 
Q 1950 4372 1759 4372 
Q 1222 4372 1222 3694 
L 1222 3200 
L 1972 3200 
L 1972 2763 
L 1222 2763 
L 1222 0 
L 713 0 
L 713 2763 
L 166 2763 
L 166 3200 
L 713 3200 
L 713 3719 
Q 713 4222 1003 4514 
Q 1294 4806 1728 4806 
Q 1963 4806 2100 4750 
L 2100 4288 
z
" transform="scale(0.015625)"/>
     <path id="SegoeUI-61" d="M 2809 0 
L 2297 0 
L 2297 500 
L 2284 500 
Q 1950 -75 1300 -75 
Q 822 -75 551 178 
Q 281 431 281 850 
Q 281 1747 1338 1894 
L 2297 2028 
Q 2297 2844 1638 2844 
Q 1059 2844 594 2450 
L 594 2975 
Q 1066 3275 1681 3275 
Q 2809 3275 2809 2081 
L 2809 0 
z
M 2297 1619 
L 1525 1513 
Q 1169 1463 987 1336 
Q 806 1209 806 888 
Q 806 653 973 504 
Q 1141 356 1419 356 
Q 1800 356 2048 623 
Q 2297 891 2297 1300 
L 2297 1619 
z
" transform="scale(0.015625)"/>
     <path id="SegoeUI-74" d="M 2003 31 
Q 1822 -69 1525 -69 
Q 684 -69 684 869 
L 684 2763 
L 134 2763 
L 134 3200 
L 684 3200 
L 684 3981 
L 1197 4147 
L 1197 3200 
L 2003 3200 
L 2003 2763 
L 1197 2763 
L 1197 959 
Q 1197 638 1306 500 
Q 1416 363 1669 363 
Q 1863 363 2003 469 
L 2003 31 
z
" transform="scale(0.015625)"/>
     <path id="SegoeUI-67" d="M 3250 256 
Q 3250 -1506 1563 -1506 
Q 969 -1506 525 -1281 
L 525 -769 
Q 1066 -1069 1556 -1069 
Q 2738 -1069 2738 188 
L 2738 538 
L 2725 538 
Q 2359 -75 1625 -75 
Q 1028 -75 664 351 
Q 300 778 300 1497 
Q 300 2313 692 2794 
Q 1084 3275 1766 3275 
Q 2413 3275 2725 2756 
L 2738 2756 
L 2738 3200 
L 3250 3200 
L 3250 256 
z
M 2738 1447 
L 2738 1919 
Q 2738 2300 2480 2572 
Q 2222 2844 1838 2844 
Q 1363 2844 1094 2498 
Q 825 2153 825 1531 
Q 825 997 1083 676 
Q 1341 356 1766 356 
Q 2197 356 2467 662 
Q 2738 969 2738 1447 
z
" transform="scale(0.015625)"/>
     <path id="SegoeUI-6d" d="M 5063 0 
L 4550 0 
L 4550 1838 
Q 4550 2369 4386 2606 
Q 4222 2844 3834 2844 
Q 3506 2844 3276 2544 
Q 3047 2244 3047 1825 
L 3047 0 
L 2534 0 
L 2534 1900 
Q 2534 2844 1806 2844 
Q 1469 2844 1250 2561 
Q 1031 2278 1031 1825 
L 1031 0 
L 519 0 
L 519 3200 
L 1031 3200 
L 1031 2694 
L 1044 2694 
Q 1384 3275 2038 3275 
Q 2366 3275 2609 3092 
Q 2853 2909 2944 2613 
Q 3300 3275 4006 3275 
Q 5063 3275 5063 1972 
L 5063 0 
z
" transform="scale(0.015625)"/>
     <path id="SegoeUI-73" d="M 325 116 
L 325 666 
Q 744 356 1247 356 
Q 1922 356 1922 806 
Q 1922 934 1864 1023 
Q 1806 1113 1707 1181 
Q 1609 1250 1476 1304 
Q 1344 1359 1191 1419 
Q 978 1503 817 1589 
Q 656 1675 548 1783 
Q 441 1891 386 2028 
Q 331 2166 331 2350 
Q 331 2575 434 2748 
Q 538 2922 709 3039 
Q 881 3156 1101 3215 
Q 1322 3275 1556 3275 
Q 1972 3275 2300 3131 
L 2300 2613 
Q 1947 2844 1488 2844 
Q 1344 2844 1228 2811 
Q 1113 2778 1030 2718 
Q 947 2659 901 2576 
Q 856 2494 856 2394 
Q 856 2269 901 2184 
Q 947 2100 1034 2034 
Q 1122 1969 1247 1916 
Q 1372 1863 1531 1800 
Q 1744 1719 1912 1633 
Q 2081 1547 2200 1439 
Q 2319 1331 2383 1190 
Q 2447 1050 2447 856 
Q 2447 619 2342 444 
Q 2238 269 2063 153 
Q 1888 38 1659 -18 
Q 1431 -75 1181 -75 
Q 688 -75 325 116 
z
" transform="scale(0.015625)"/>
     <path id="SegoeUI-2c" d="M 988 713 
L 488 -825 
L 122 -825 
L 488 713 
L 988 713 
z
" transform="scale(0.015625)"/>
     <path id="SegoeUI-46" d="M 2863 4006 
L 1113 4006 
L 1113 2456 
L 2731 2456 
L 2731 1984 
L 1113 1984 
L 1113 0 
L 588 0 
L 588 4481 
L 2863 4481 
L 2863 4006 
z
" transform="scale(0.015625)"/>
     <path id="SegoeUI-2d" d="M 2156 1581 
L 450 1581 
L 450 1984 
L 2156 1984 
L 2156 1581 
z
" transform="scale(0.015625)"/>
     <path id="SegoeUI-77" d="M 4550 3200 
L 3591 0 
L 3059 0 
L 2400 2291 
Q 2363 2422 2350 2588 
L 2338 2588 
Q 2328 2475 2272 2297 
L 1556 0 
L 1044 0 
L 75 3200 
L 613 3200 
L 1275 794 
Q 1306 684 1319 506 
L 1344 506 
Q 1353 644 1400 800 
L 2138 3200 
L 2606 3200 
L 3269 788 
Q 3300 672 3316 500 
L 3341 500 
Q 3347 622 3394 788 
L 4044 3200 
L 4550 3200 
z
" transform="scale(0.015625)"/>
     <path id="SegoeUI-6b" d="M 3175 0 
L 2456 0 
L 1044 1538 
L 1031 1538 
L 1031 0 
L 519 0 
L 519 4738 
L 1031 4738 
L 1031 1734 
L 1044 1734 
L 2388 3200 
L 3059 3200 
L 1575 1656 
L 3175 0 
z
" transform="scale(0.015625)"/>
     <path id="SegoeUI-6e" d="M 3175 0 
L 2663 0 
L 2663 1825 
Q 2663 2844 1919 2844 
Q 1534 2844 1282 2555 
Q 1031 2266 1031 1825 
L 1031 0 
L 519 0 
L 519 3200 
L 1031 3200 
L 1031 2669 
L 1044 2669 
Q 1406 3275 2094 3275 
Q 2619 3275 2897 2936 
Q 3175 2597 3175 1956 
L 3175 0 
z
" transform="scale(0.015625)"/>
     <path id="SegoeUI-71" d="M 3250 -1472 
L 2738 -1472 
L 2738 550 
L 2725 550 
Q 2391 -75 1631 -75 
Q 1028 -75 664 354 
Q 300 784 300 1525 
Q 300 2322 700 2798 
Q 1100 3275 1775 3275 
Q 2431 3275 2725 2756 
L 2738 2756 
L 2738 3200 
L 3250 3200 
L 3250 -1472 
z
M 2738 1441 
L 2738 1906 
Q 2738 2300 2480 2572 
Q 2222 2844 1825 2844 
Q 1363 2844 1094 2501 
Q 825 2159 825 1538 
Q 825 984 1084 670 
Q 1344 356 1753 356 
Q 2203 356 2470 664 
Q 2738 972 2738 1441 
z
" transform="scale(0.015625)"/>
     <path id="SegoeUI-79" d="M 3066 3200 
L 1594 -513 
Q 1200 -1506 488 -1506 
Q 288 -1506 153 -1466 
L 153 -1006 
Q 319 -1063 456 -1063 
Q 844 -1063 1038 -600 
L 1294 6 
L 44 3200 
L 613 3200 
L 1478 738 
Q 1494 691 1544 494 
L 1563 494 
Q 1578 569 1625 731 
L 2534 3200 
L 3066 3200 
z
" transform="scale(0.015625)"/>
     <path id="SegoeUI-76" d="M 3034 3200 
L 1759 0 
L 1256 0 
L 44 3200 
L 606 3200 
L 1419 875 
Q 1509 619 1531 428 
L 1544 428 
Q 1575 669 1644 863 
L 2494 3200 
L 3034 3200 
z
" transform="scale(0.015625)"/>
    </defs>
    <use xlink:href="#SegoeUI-52"/>
    <use xlink:href="#SegoeUI-65" transform="translate(57.064453 0)"/>
    <use xlink:href="#SegoeUI-70" transform="translate(109.359375 0)"/>
    <use xlink:href="#SegoeUI-72" transform="translate(168.148438 0)"/>
    <use xlink:href="#SegoeUI-6f" transform="translate(201.539062 0)"/>
    <use xlink:href="#SegoeUI-64" transform="translate(260.132812 0)"/>
    <use xlink:href="#SegoeUI-75" transform="translate(319.019531 0)"/>
    <use xlink:href="#SegoeUI-63" transform="translate(375.611328 0)"/>
    <use xlink:href="#SegoeUI-69" transform="translate(421.802734 0)"/>
    <use xlink:href="#SegoeUI-62" transform="translate(446.021484 0)"/>
    <use xlink:href="#SegoeUI-6c" transform="translate(504.810547 0)"/>
    <use xlink:href="#SegoeUI-65" transform="translate(529.029297 0)"/>
    <use xlink:href="#SegoeUI-20" transform="translate(581.324219 0)"/>
    <use xlink:href="#SegoeUI-42" transform="translate(608.716797 0)"/>
    <use xlink:href="#SegoeUI-54" transform="translate(661.541016 0)"/>
    <use xlink:href="#SegoeUI-43" transform="translate(709.433594 0)"/>
    <use xlink:href="#SegoeUI-2f" transform="translate(771.347656 0)"/>
    <use xlink:href="#SegoeUI-45" transform="translate(810.3125 0)"/>
    <use xlink:href="#SegoeUI-54" transform="translate(861.148438 0)"/>
    <use xlink:href="#SegoeUI-48" transform="translate(913.541016 0)"/>
    <use xlink:href="#SegoeUI-20" transform="translate(984.537109 0)"/>
    <use xlink:href="#SegoeUI-66" transform="translate(1011.929688 0)"/>
    <use xlink:href="#SegoeUI-61" transform="translate(1043.228516 0)"/>
    <use xlink:href="#SegoeUI-63" transform="translate(1094.107422 0)"/>
    <use xlink:href="#SegoeUI-74" transform="translate(1140.298828 0)"/>
    <use xlink:href="#SegoeUI-6f" transform="translate(1173.435547 0)"/>
    <use xlink:href="#SegoeUI-72" transform="translate(1232.029297 0)"/>
    <use xlink:href="#SegoeUI-20" transform="translate(1266.794922 0)"/>
    <use xlink:href="#SegoeUI-72" transform="translate(1294.1875 0)"/>
    <use xlink:href="#SegoeUI-65" transform="translate(1327.578125 0)"/>
    <use xlink:href="#SegoeUI-67" transform="translate(1379.873047 0)"/>
    <use xlink:href="#SegoeUI-69" transform="translate(1438.759766 0)"/>
    <use xlink:href="#SegoeUI-6d" transform="translate(1462.978516 0)"/>
    <use xlink:href="#SegoeUI-65" transform="translate(1549.111328 0)"/>
    <use xlink:href="#SegoeUI-73" transform="translate(1601.40625 0)"/>
    <use xlink:href="#SegoeUI-2c" transform="translate(1643.837891 0)"/>
    <use xlink:href="#SegoeUI-20" transform="translate(1665.517578 0)"/>
    <use xlink:href="#SegoeUI-45" transform="translate(1692.910156 0)"/>
    <use xlink:href="#SegoeUI-54" transform="translate(1743.746094 0)"/>
    <use xlink:href="#SegoeUI-46" transform="translate(1796.138672 0)"/>
    <use xlink:href="#SegoeUI-2d" transform="translate(1844.966797 0)"/>
    <use xlink:href="#SegoeUI-66" transform="translate(1884.957031 0)"/>
    <use xlink:href="#SegoeUI-6c" transform="translate(1916.255859 0)"/>
    <use xlink:href="#SegoeUI-6f" transform="translate(1940.474609 0)"/>
    <use xlink:href="#SegoeUI-77" transform="translate(1999.068359 0)"/>
    <use xlink:href="#SegoeUI-20" transform="translate(2071.333984 0)"/>
    <use xlink:href="#SegoeUI-6d" transform="translate(2098.726562 0)"/>
    <use xlink:href="#SegoeUI-61" transform="translate(2184.859375 0)"/>
    <use xlink:href="#SegoeUI-72" transform="translate(2235.738281 0)"/>
    <use xlink:href="#SegoeUI-6b" transform="translate(2270.503906 0)"/>
    <use xlink:href="#SegoeUI-65" transform="translate(2318.210938 0)"/>
    <use xlink:href="#SegoeUI-74" transform="translate(2370.505859 0)"/>
    <use xlink:href="#SegoeUI-20" transform="translate(2404.392578 0)"/>
    <use xlink:href="#SegoeUI-70" transform="translate(2431.785156 0)"/>
    <use xlink:href="#SegoeUI-6c" transform="translate(2490.574219 0)"/>
    <use xlink:href="#SegoeUI-75" transform="translate(2514.792969 0)"/>
    <use xlink:href="#SegoeUI-6d" transform="translate(2571.384766 0)"/>
    <use xlink:href="#SegoeUI-62" transform="translate(2657.517578 0)"/>
    <use xlink:href="#SegoeUI-69" transform="translate(2716.306641 0)"/>
    <use xlink:href="#SegoeUI-6e" transform="translate(2740.525391 0)"/>
    <use xlink:href="#SegoeUI-67" transform="translate(2797.117188 0)"/>
    <use xlink:href="#SegoeUI-2c" transform="translate(2856.003906 0)"/>
    <use xlink:href="#SegoeUI-20" transform="translate(2877.683594 0)"/>
    <use xlink:href="#SegoeUI-73" transform="translate(2905.076172 0)"/>
    <use xlink:href="#SegoeUI-74" transform="translate(2947.507812 0)"/>
    <use xlink:href="#SegoeUI-61" transform="translate(2981.394531 0)"/>
    <use xlink:href="#SegoeUI-62" transform="translate(3032.273438 0)"/>
    <use xlink:href="#SegoeUI-6c" transform="translate(3091.0625 0)"/>
    <use xlink:href="#SegoeUI-65" transform="translate(3115.28125 0)"/>
    <use xlink:href="#SegoeUI-63" transform="translate(3167.576172 0)"/>
    <use xlink:href="#SegoeUI-6f" transform="translate(3213.767578 0)"/>
    <use xlink:href="#SegoeUI-69" transform="translate(3272.361328 0)"/>
    <use xlink:href="#SegoeUI-6e" transform="translate(3296.580078 0)"/>
    <use xlink:href="#SegoeUI-20" transform="translate(3353.171875 0)"/>
    <use xlink:href="#SegoeUI-6c" transform="translate(3380.564453 0)"/>
    <use xlink:href="#SegoeUI-69" transform="translate(3404.783203 0)"/>
    <use xlink:href="#SegoeUI-71" transform="translate(3429.001953 0)"/>
    <use xlink:href="#SegoeUI-75" transform="translate(3487.888672 0)"/>
    <use xlink:href="#SegoeUI-69" transform="translate(3544.480469 0)"/>
    <use xlink:href="#SegoeUI-64" transform="translate(3568.699219 0)"/>
    <use xlink:href="#SegoeUI-69" transform="translate(3627.585938 0)"/>
    <use xlink:href="#SegoeUI-74" transform="translate(3651.804688 0)"/>
    <use xlink:href="#SegoeUI-79" transform="translate(3685.691406 0)"/>
    <use xlink:href="#SegoeUI-2c" transform="translate(3729.080078 0)"/>
    <use xlink:href="#SegoeUI-20" transform="translate(3750.759766 0)"/>
    <use xlink:href="#SegoeUI-6e" transform="translate(3778.152344 0)"/>
    <use xlink:href="#SegoeUI-61" transform="translate(3834.744141 0)"/>
    <use xlink:href="#SegoeUI-74" transform="translate(3885.623047 0)"/>
    <use xlink:href="#SegoeUI-69" transform="translate(3919.509766 0)"/>
    <use xlink:href="#SegoeUI-76" transform="translate(3943.728516 0)"/>
    <use xlink:href="#SegoeUI-65" transform="translate(3991.003906 0)"/>
    <use xlink:href="#SegoeUI-20" transform="translate(4043.298828 0)"/>
    <use xlink:href="#SegoeUI-66" transform="translate(4070.691406 0)"/>
    <use xlink:href="#SegoeUI-61" transform="translate(4101.990234 0)"/>
    <use xlink:href="#SegoeUI-63" transform="translate(4152.869141 0)"/>
    <use xlink:href="#SegoeUI-74" transform="translate(4199.060547 0)"/>
    <use xlink:href="#SegoeUI-6f" transform="translate(4232.197266 0)"/>
    <use xlink:href="#SegoeUI-72" transform="translate(4290.791016 0)"/>
    <use xlink:href="#SegoeUI-73" transform="translate(4326.181641 0)"/>
    <use xlink:href="#SegoeUI-2c" transform="translate(4368.613281 0)"/>
    <use xlink:href="#SegoeUI-20" transform="translate(4390.292969 0)"/>
    <use xlink:href="#SegoeUI-63" transform="translate(4417.685547 0)"/>
    <use xlink:href="#SegoeUI-6f" transform="translate(4463.876953 0)"/>
    <use xlink:href="#SegoeUI-6e" transform="translate(4522.470703 0)"/>
    <use xlink:href="#SegoeUI-6e" transform="translate(4579.0625 0)"/>
    <use xlink:href="#SegoeUI-65" transform="translate(4635.654297 0)"/>
    <use xlink:href="#SegoeUI-63" transform="translate(4687.949219 0)"/>
    <use xlink:href="#SegoeUI-74" transform="translate(4734.140625 0)"/>
    <use xlink:href="#SegoeUI-65" transform="translate(4767.277344 0)"/>
    <use xlink:href="#SegoeUI-64" transform="translate(4819.572266 0)"/>
    <use xlink:href="#SegoeUI-6e" transform="translate(4878.458984 0)"/>
    <use xlink:href="#SegoeUI-65" transform="translate(4935.050781 0)"/>
    <use xlink:href="#SegoeUI-73" transform="translate(4987.345703 0)"/>
    <use xlink:href="#SegoeUI-73" transform="translate(5029.777344 0)"/>
    <use xlink:href="#SegoeUI-2c" transform="translate(5072.208984 0)"/>
    <use xlink:href="#SegoeUI-20" transform="translate(5093.888672 0)"/>
    <use xlink:href="#SegoeUI-61" transform="translate(5121.28125 0)"/>
    <use xlink:href="#SegoeUI-6e" transform="translate(5172.160156 0)"/>
    <use xlink:href="#SegoeUI-64" transform="translate(5228.751953 0)"/>
   </g>
   <!-- robustness diagnostics. -->
   <g style="fill: #94a3b8" transform="translate(39.6 64.735586) scale(0.095 -0.095)">
    <defs>
     <path id="SegoeUI-2e" d="M 697 -69 
Q 553 -69 451 34 
Q 350 138 350 281 
Q 350 425 451 529 
Q 553 634 697 634 
Q 844 634 947 529 
Q 1050 425 1050 281 
Q 1050 138 947 34 
Q 844 -69 697 -69 
z
" transform="scale(0.015625)"/>
    </defs>
    <use xlink:href="#SegoeUI-72"/>
    <use xlink:href="#SegoeUI-6f" transform="translate(33.390625 0)"/>
    <use xlink:href="#SegoeUI-62" transform="translate(91.984375 0)"/>
    <use xlink:href="#SegoeUI-75" transform="translate(150.773438 0)"/>
    <use xlink:href="#SegoeUI-73" transform="translate(207.365234 0)"/>
    <use xlink:href="#SegoeUI-74" transform="translate(249.796875 0)"/>
    <use xlink:href="#SegoeUI-6e" transform="translate(283.683594 0)"/>
    <use xlink:href="#SegoeUI-65" transform="translate(340.275391 0)"/>
    <use xlink:href="#SegoeUI-73" transform="translate(392.570312 0)"/>
    <use xlink:href="#SegoeUI-73" transform="translate(435.001953 0)"/>
    <use xlink:href="#SegoeUI-20" transform="translate(477.433594 0)"/>
    <use xlink:href="#SegoeUI-64" transform="translate(504.826172 0)"/>
    <use xlink:href="#SegoeUI-69" transform="translate(563.712891 0)"/>
    <use xlink:href="#SegoeUI-61" transform="translate(587.931641 0)"/>
    <use xlink:href="#SegoeUI-67" transform="translate(638.810547 0)"/>
    <use xlink:href="#SegoeUI-6e" transform="translate(697.697266 0)"/>
    <use xlink:href="#SegoeUI-6f" transform="translate(754.289062 0)"/>
    <use xlink:href="#SegoeUI-73" transform="translate(812.882812 0)"/>
    <use xlink:href="#SegoeUI-74" transform="translate(855.314453 0)"/>
    <use xlink:href="#SegoeUI-69" transform="translate(889.201172 0)"/>
    <use xlink:href="#SegoeUI-63" transform="translate(913.419922 0)"/>
    <use xlink:href="#SegoeUI-73" transform="translate(959.611328 0)"/>
    <use xlink:href="#SegoeUI-2e" transform="translate(1002.042969 0)"/>
   </g>
  </g>
  <g id="text_3">
   <!-- Source: frozen 2020-2026 panel | Public artifact root: outputs/ | No live or paid API dependency. -->
   <g style="fill: #94a3b8" transform="translate(39.6 389.13075) scale(0.072 -0.072)">
    <defs>
     <path id="SegoeUI-53" d="M 378 181 
L 378 800 
Q 484 706 632 631 
Q 781 556 945 504 
Q 1109 453 1275 425 
Q 1441 397 1581 397 
Q 2066 397 2305 576 
Q 2544 756 2544 1094 
Q 2544 1275 2464 1409 
Q 2384 1544 2243 1655 
Q 2103 1766 1911 1867 
Q 1719 1969 1497 2081 
Q 1263 2200 1059 2322 
Q 856 2444 706 2591 
Q 556 2738 470 2923 
Q 384 3109 384 3359 
Q 384 3666 518 3892 
Q 653 4119 872 4266 
Q 1091 4413 1370 4484 
Q 1650 4556 1941 4556 
Q 2603 4556 2906 4397 
L 2906 3806 
Q 2509 4081 1888 4081 
Q 1716 4081 1544 4045 
Q 1372 4009 1237 3928 
Q 1103 3847 1018 3719 
Q 934 3591 934 3406 
Q 934 3234 998 3109 
Q 1063 2984 1188 2881 
Q 1313 2778 1492 2681 
Q 1672 2584 1906 2469 
Q 2147 2350 2362 2219 
Q 2578 2088 2740 1928 
Q 2903 1769 2998 1575 
Q 3094 1381 3094 1131 
Q 3094 800 2964 570 
Q 2834 341 2614 197 
Q 2394 53 2106 -11 
Q 1819 -75 1500 -75 
Q 1394 -75 1237 -58 
Q 1081 -41 918 -8 
Q 756 25 611 73 
Q 466 122 378 181 
z
" transform="scale(0.015625)"/>
     <path id="SegoeUI-3a" d="M 697 2575 
Q 553 2575 451 2678 
Q 350 2781 350 2925 
Q 350 3069 451 3169 
Q 553 3269 697 3269 
Q 844 3269 947 3169 
Q 1050 3069 1050 2925 
Q 1050 2781 947 2678 
Q 844 2575 697 2575 
z
M 697 -69 
Q 553 -69 451 34 
Q 350 138 350 281 
Q 350 425 451 529 
Q 553 634 697 634 
Q 844 634 947 529 
Q 1050 425 1050 281 
Q 1050 138 947 34 
Q 844 -69 697 -69 
z
" transform="scale(0.015625)"/>
     <path id="SegoeUI-7a" d="M 2750 3053 
L 856 438 
L 2731 438 
L 2731 0 
L 103 0 
L 103 159 
L 1997 2763 
L 281 2763 
L 281 3200 
L 2750 3200 
L 2750 3053 
z
" transform="scale(0.015625)"/>
     <path id="SegoeUI-32" d="M 2413 3306 
Q 2413 3513 2348 3666 
Q 2284 3819 2173 3920 
Q 2063 4022 1913 4072 
Q 1763 4122 1588 4122 
Q 1438 4122 1294 4081 
Q 1150 4041 1014 3969 
Q 878 3897 751 3797 
Q 625 3697 516 3575 
L 516 4125 
Q 731 4334 998 4445 
Q 1266 4556 1650 4556 
Q 1925 4556 2159 4476 
Q 2394 4397 2566 4244 
Q 2738 4091 2836 3866 
Q 2934 3641 2934 3350 
Q 2934 3084 2873 2868 
Q 2813 2653 2689 2462 
Q 2566 2272 2378 2097 
Q 2191 1922 1938 1741 
Q 1622 1516 1417 1356 
Q 1213 1197 1092 1058 
Q 972 919 923 780 
Q 875 641 875 459 
L 3106 459 
L 3106 0 
L 341 0 
L 341 222 
Q 341 509 403 728 
Q 466 947 609 1144 
Q 753 1341 986 1537 
Q 1219 1734 1556 1981 
Q 1800 2156 1964 2315 
Q 2128 2475 2228 2634 
Q 2328 2794 2370 2958 
Q 2413 3122 2413 3306 
z
" transform="scale(0.015625)"/>
     <path id="SegoeUI-30" d="M 3188 2259 
Q 3188 1697 3086 1262 
Q 2984 828 2792 529 
Q 2600 231 2320 76 
Q 2041 -78 1684 -78 
Q 1347 -78 1083 70 
Q 819 219 637 503 
Q 456 788 362 1202 
Q 269 1616 269 2150 
Q 269 2738 367 3188 
Q 466 3638 656 3942 
Q 847 4247 1130 4401 
Q 1413 4556 1778 4556 
Q 3188 4556 3188 2259 
z
M 2663 2209 
Q 2663 4122 1753 4122 
Q 794 4122 794 2175 
Q 794 359 1734 359 
Q 2663 359 2663 2209 
z
" transform="scale(0.015625)"/>
     <path id="SegoeUI-36" d="M 3194 1422 
Q 3194 1094 3087 819 
Q 2981 544 2793 344 
Q 2606 144 2347 33 
Q 2088 -78 1784 -78 
Q 1447 -78 1180 62 
Q 913 203 727 467 
Q 541 731 444 1112 
Q 347 1494 347 1972 
Q 347 2556 476 3032 
Q 606 3509 845 3848 
Q 1084 4188 1421 4372 
Q 1759 4556 2175 4556 
Q 2638 4556 2919 4428 
L 2919 3944 
Q 2572 4122 2188 4122 
Q 1888 4122 1647 3987 
Q 1406 3853 1234 3608 
Q 1063 3363 970 3016 
Q 878 2669 878 2244 
L 891 2244 
Q 1200 2803 1913 2803 
Q 2206 2803 2442 2703 
Q 2678 2603 2845 2420 
Q 3013 2238 3103 1984 
Q 3194 1731 3194 1422 
z
M 2669 1356 
Q 2669 1591 2609 1778 
Q 2550 1966 2439 2097 
Q 2328 2228 2165 2298 
Q 2003 2369 1797 2369 
Q 1606 2369 1443 2297 
Q 1281 2225 1162 2101 
Q 1044 1978 976 1814 
Q 909 1650 909 1466 
Q 909 1234 975 1032 
Q 1041 831 1159 681 
Q 1278 531 1442 445 
Q 1606 359 1806 359 
Q 2000 359 2159 432 
Q 2319 506 2431 637 
Q 2544 769 2606 951 
Q 2669 1134 2669 1356 
z
" transform="scale(0.015625)"/>
     <path id="SegoeUI-7c" d="M 1000 -1506 
L 538 -1506 
L 538 4894 
L 1000 4894 
L 1000 -1506 
z
" transform="scale(0.015625)"/>
     <path id="SegoeUI-50" d="M 1113 1694 
L 1113 0 
L 588 0 
L 588 4481 
L 1819 4481 
Q 2538 4481 2933 4131 
Q 3328 3781 3328 3144 
Q 3328 2506 2889 2100 
Q 2450 1694 1703 1694 
L 1113 1694 
z
M 1113 4006 
L 1113 2169 
L 1663 2169 
Q 2206 2169 2492 2417 
Q 2778 2666 2778 3119 
Q 2778 4006 1728 4006 
L 1113 4006 
z
" transform="scale(0.015625)"/>
     <path id="SegoeUI-4e" d="M 4200 0 
L 3556 0 
L 1250 3572 
Q 1163 3706 1106 3853 
L 1088 3853 
Q 1113 3709 1113 3238 
L 1113 0 
L 588 0 
L 588 4481 
L 1269 4481 
L 3513 966 
Q 3653 747 3694 666 
L 3706 666 
Q 3675 859 3675 1325 
L 3675 4481 
L 4200 4481 
L 4200 0 
z
" transform="scale(0.015625)"/>
     <path id="SegoeUI-41" d="M 4056 0 
L 3475 0 
L 3000 1256 
L 1100 1256 
L 653 0 
L 69 0 
L 1788 4481 
L 2331 4481 
L 4056 0 
z
M 2828 1728 
L 2125 3638 
Q 2091 3731 2056 3938 
L 2044 3938 
Q 2013 3747 1972 3638 
L 1275 1728 
L 2828 1728 
z
" transform="scale(0.015625)"/>
     <path id="SegoeUI-49" d="M 1113 0 
L 588 0 
L 588 4481 
L 1113 4481 
L 1113 0 
z
" transform="scale(0.015625)"/>
    </defs>
    <use xlink:href="#SegoeUI-53"/>
    <use xlink:href="#SegoeUI-6f" transform="translate(53.125 0)"/>
    <use xlink:href="#SegoeUI-75" transform="translate(111.71875 0)"/>
    <use xlink:href="#SegoeUI-72" transform="translate(168.310547 0)"/>
    <use xlink:href="#SegoeUI-63" transform="translate(201.701172 0)"/>
    <use xlink:href="#SegoeUI-65" transform="translate(247.892578 0)"/>
    <use xlink:href="#SegoeUI-3a" transform="translate(300.1875 0)"/>
    <use xlink:href="#SegoeUI-20" transform="translate(321.867188 0)"/>
    <use xlink:href="#SegoeUI-66" transform="translate(349.259766 0)"/>
    <use xlink:href="#SegoeUI-72" transform="translate(380.558594 0)"/>
    <use xlink:href="#SegoeUI-6f" transform="translate(413.949219 0)"/>
    <use xlink:href="#SegoeUI-7a" transform="translate(472.542969 0)"/>
    <use xlink:href="#SegoeUI-65" transform="translate(517.757812 0)"/>
    <use xlink:href="#SegoeUI-6e" transform="translate(570.052734 0)"/>
    <use xlink:href="#SegoeUI-20" transform="translate(626.644531 0)"/>
    <use xlink:href="#SegoeUI-32" transform="translate(654.037109 0)"/>
    <use xlink:href="#SegoeUI-30" transform="translate(707.943359 0)"/>
    <use xlink:href="#SegoeUI-32" transform="translate(761.849609 0)"/>
    <use xlink:href="#SegoeUI-30" transform="translate(815.755859 0)"/>
    <use xlink:href="#SegoeUI-2d" transform="translate(869.662109 0)"/>
    <use xlink:href="#SegoeUI-32" transform="translate(909.652344 0)"/>
    <use xlink:href="#SegoeUI-30" transform="translate(963.558594 0)"/>
    <use xlink:href="#SegoeUI-32" transform="translate(1017.464844 0)"/>
    <use xlink:href="#SegoeUI-36" transform="translate(1071.371094 0)"/>
    <use xlink:href="#SegoeUI-20" transform="translate(1125.277344 0)"/>
    <use xlink:href="#SegoeUI-70" transform="translate(1152.669922 0)"/>
    <use xlink:href="#SegoeUI-61" transform="translate(1210.083984 0)"/>
    <use xlink:href="#SegoeUI-6e" transform="translate(1260.962891 0)"/>
    <use xlink:href="#SegoeUI-65" transform="translate(1317.554688 0)"/>
    <use xlink:href="#SegoeUI-6c" transform="translate(1369.849609 0)"/>
    <use xlink:href="#SegoeUI-20" transform="translate(1394.068359 0)"/>
    <use xlink:href="#SegoeUI-7c" transform="translate(1421.460938 0)"/>
    <use xlink:href="#SegoeUI-20" transform="translate(1445.386719 0)"/>
    <use xlink:href="#SegoeUI-50" transform="translate(1472.779297 0)"/>
    <use xlink:href="#SegoeUI-75" transform="translate(1528.785156 0)"/>
    <use xlink:href="#SegoeUI-62" transform="translate(1585.376953 0)"/>
    <use xlink:href="#SegoeUI-6c" transform="translate(1644.166016 0)"/>
    <use xlink:href="#SegoeUI-69" transform="translate(1668.384766 0)"/>
    <use xlink:href="#SegoeUI-63" transform="translate(1692.603516 0)"/>
    <use xlink:href="#SegoeUI-20" transform="translate(1738.794922 0)"/>
    <use xlink:href="#SegoeUI-61" transform="translate(1766.1875 0)"/>
    <use xlink:href="#SegoeUI-72" transform="translate(1817.066406 0)"/>
    <use xlink:href="#SegoeUI-74" transform="translate(1854.707031 0)"/>
    <use xlink:href="#SegoeUI-69" transform="translate(1888.59375 0)"/>
    <use xlink:href="#SegoeUI-66" transform="translate(1912.8125 0)"/>
    <use xlink:href="#SegoeUI-61" transform="translate(1944.111328 0)"/>
    <use xlink:href="#SegoeUI-63" transform="translate(1994.990234 0)"/>
    <use xlink:href="#SegoeUI-74" transform="translate(2041.181641 0)"/>
    <use xlink:href="#SegoeUI-20" transform="translate(2075.068359 0)"/>
    <use xlink:href="#SegoeUI-72" transform="translate(2102.460938 0)"/>
    <use xlink:href="#SegoeUI-6f" transform="translate(2135.851562 0)"/>
    <use xlink:href="#SegoeUI-6f" transform="translate(2194.445312 0)"/>
    <use xlink:href="#SegoeUI-74" transform="translate(2253.039062 0)"/>
    <use xlink:href="#SegoeUI-3a" transform="translate(2286.925781 0)"/>
    <use xlink:href="#SegoeUI-20" transform="translate(2308.605469 0)"/>
    <use xlink:href="#SegoeUI-6f" transform="translate(2335.998047 0)"/>
    <use xlink:href="#SegoeUI-75" transform="translate(2394.591797 0)"/>
    <use xlink:href="#SegoeUI-74" transform="translate(2451.183594 0)"/>
    <use xlink:href="#SegoeUI-70" transform="translate(2485.070312 0)"/>
    <use xlink:href="#SegoeUI-75" transform="translate(2543.859375 0)"/>
    <use xlink:href="#SegoeUI-74" transform="translate(2600.451172 0)"/>
    <use xlink:href="#SegoeUI-73" transform="translate(2634.337891 0)"/>
    <use xlink:href="#SegoeUI-2f" transform="translate(2676.769531 0)"/>
    <use xlink:href="#SegoeUI-20" transform="translate(2715.734375 0)"/>
    <use xlink:href="#SegoeUI-7c" transform="translate(2743.126953 0)"/>
    <use xlink:href="#SegoeUI-20" transform="translate(2767.052734 0)"/>
    <use xlink:href="#SegoeUI-4e" transform="translate(2794.445312 0)"/>
    <use xlink:href="#SegoeUI-6f" transform="translate(2869.25 0)"/>
    <use xlink:href="#SegoeUI-20" transform="translate(2927.84375 0)"/>
    <use xlink:href="#SegoeUI-6c" transform="translate(2955.236328 0)"/>
    <use xlink:href="#SegoeUI-69" transform="translate(2979.455078 0)"/>
    <use xlink:href="#SegoeUI-76" transform="translate(3003.673828 0)"/>
    <use xlink:href="#SegoeUI-65" transform="translate(3050.949219 0)"/>
    <use xlink:href="#SegoeUI-20" transform="translate(3103.244141 0)"/>
    <use xlink:href="#SegoeUI-6f" transform="translate(3130.636719 0)"/>
    <use xlink:href="#SegoeUI-72" transform="translate(3189.230469 0)"/>
    <use xlink:href="#SegoeUI-20" transform="translate(3223.996094 0)"/>
    <use xlink:href="#SegoeUI-70" transform="translate(3251.388672 0)"/>
    <use xlink:href="#SegoeUI-61" transform="translate(3308.802734 0)"/>
    <use xlink:href="#SegoeUI-69" transform="translate(3359.681641 0)"/>
    <use xlink:href="#SegoeUI-64" transform="translate(3383.900391 0)"/>
    <use xlink:href="#SegoeUI-20" transform="translate(3442.787109 0)"/>
    <use xlink:href="#SegoeUI-41" transform="translate(3470.179688 0)"/>
    <use xlink:href="#SegoeUI-50" transform="translate(3534.681641 0)"/>
    <use xlink:href="#SegoeUI-49" transform="translate(3590.6875 0)"/>
    <use xlink:href="#SegoeUI-20" transform="translate(3617.298828 0)"/>
    <use xlink:href="#SegoeUI-64" transform="translate(3644.691406 0)"/>
    <use xlink:href="#SegoeUI-65" transform="translate(3703.578125 0)"/>
    <use xlink:href="#SegoeUI-70" transform="translate(3755.873047 0)"/>
    <use xlink:href="#SegoeUI-65" transform="translate(3814.662109 0)"/>
    <use xlink:href="#SegoeUI-6e" transform="translate(3866.957031 0)"/>
    <use xlink:href="#SegoeUI-64" transform="translate(3923.548828 0)"/>
    <use xlink:href="#SegoeUI-65" transform="translate(3982.435547 0)"/>
    <use xlink:href="#SegoeUI-6e" transform="translate(4034.730469 0)"/>
    <use xlink:href="#SegoeUI-63" transform="translate(4091.322266 0)"/>
    <use xlink:href="#SegoeUI-79" transform="translate(4137.513672 0)"/>
    <use xlink:href="#SegoeUI-2e" transform="translate(4179.652344 0)"/>
   </g>
  </g>
  <g id="text_4">
   <g id="patch_8">
    <path d="M 59.36 237.53125 
L 122.92625 237.53125 
Q 123.88625 237.53125 123.88625 236.57125 
L 123.88625 225.12875 
Q 123.88625 224.16875 122.92625 224.16875 
L 59.36 224.16875 
Q 58.4 224.16875 58.4 225.12875 
L 58.4 236.57125 
Q 58.4 237.53125 59.36 237.53125 
z
" style="fill: #a78bfa; opacity: 0.82; stroke: #a78bfa; stroke-width: 0.8; stroke-linejoin: miter"/>
   </g>
   <!-- factor attribution -->
   <g style="fill: #e5e7eb" transform="translate(61.2 232.89125) scale(0.08 -0.08)">
    <use xlink:href="#SegoeUI-66"/>
    <use xlink:href="#SegoeUI-61" transform="translate(31.298828 0)"/>
    <use xlink:href="#SegoeUI-63" transform="translate(82.177734 0)"/>
    <use xlink:href="#SegoeUI-74" transform="translate(128.369141 0)"/>
    <use xlink:href="#SegoeUI-6f" transform="translate(161.505859 0)"/>
    <use xlink:href="#SegoeUI-72" transform="translate(220.099609 0)"/>
    <use xlink:href="#SegoeUI-20" transform="translate(254.865234 0)"/>
    <use xlink:href="#SegoeUI-61" transform="translate(282.257812 0)"/>
    <use xlink:href="#SegoeUI-74" transform="translate(333.136719 0)"/>
    <use xlink:href="#SegoeUI-74" transform="translate(367.023438 0)"/>
    <use xlink:href="#SegoeUI-72" transform="translate(400.910156 0)"/>
    <use xlink:href="#SegoeUI-69" transform="translate(435.675781 0)"/>
    <use xlink:href="#SegoeUI-62" transform="translate(459.894531 0)"/>
    <use xlink:href="#SegoeUI-75" transform="translate(518.683594 0)"/>
    <use xlink:href="#SegoeUI-74" transform="translate(575.275391 0)"/>
    <use xlink:href="#SegoeUI-69" transform="translate(609.162109 0)"/>
    <use xlink:href="#SegoeUI-6f" transform="translate(633.380859 0)"/>
    <use xlink:href="#SegoeUI-6e" transform="translate(691.974609 0)"/>
   </g>
  </g>
  <g id="text_5">
   <g id="patch_9">
    <path d="M 268.16 237.5525 
L 315.01625 237.5525 
Q 315.97625 237.5525 315.97625 236.5925 
L 315.97625 225.1075 
Q 315.97625 224.1475 315.01625 224.1475 
L 268.16 224.1475 
Q 267.2 224.1475 267.2 225.1075 
L 267.2 236.5925 
Q 267.2 237.5525 268.16 237.5525 
z
" style="fill: #2dd4bf; opacity: 0.82; stroke: #2dd4bf; stroke-width: 0.8; stroke-linejoin: miter"/>
   </g>
   <!-- ETF lead-lag -->
   <g style="fill: #e5e7eb" transform="translate(270 232.87) scale(0.08 -0.08)">
    <use xlink:href="#SegoeUI-45"/>
    <use xlink:href="#SegoeUI-54" transform="translate(50.835938 0)"/>
    <use xlink:href="#SegoeUI-46" transform="translate(103.228516 0)"/>
    <use xlink:href="#SegoeUI-20" transform="translate(152.056641 0)"/>
    <use xlink:href="#SegoeUI-6c" transform="translate(179.449219 0)"/>
    <use xlink:href="#SegoeUI-65" transform="translate(203.667969 0)"/>
    <use xlink:href="#SegoeUI-61" transform="translate(255.962891 0)"/>
    <use xlink:href="#SegoeUI-64" transform="translate(306.841797 0)"/>
    <use xlink:href="#SegoeUI-2d" transform="translate(365.728516 0)"/>
    <use xlink:href="#SegoeUI-6c" transform="translate(405.71875 0)"/>
    <use xlink:href="#SegoeUI-61" transform="translate(429.9375 0)"/>
    <use xlink:href="#SegoeUI-67" transform="translate(480.816406 0)"/>
   </g>
  </g>
  <g id="text_6">
   <g id="patch_10">
    <path d="M 476.96 237.5525 
L 546.9625 237.5525 
Q 547.9225 237.5525 547.9225 236.5925 
L 547.9225 225.1075 
Q 547.9225 224.1475 546.9625 224.1475 
L 476.96 224.1475 
Q 476 224.1475 476 225.1075 
L 476 236.5925 
Q 476 237.5525 476.96 237.5525 
z
" style="fill: #10b981; opacity: 0.82; stroke: #10b981; stroke-width: 0.8; stroke-linejoin: miter"/>
   </g>
   <!-- stablecoin liquidity -->
   <g style="fill: #e5e7eb" transform="translate(478.8 232.87) scale(0.08 -0.08)">
    <use xlink:href="#SegoeUI-73"/>
    <use xlink:href="#SegoeUI-74" transform="translate(42.431641 0)"/>
    <use xlink:href="#SegoeUI-61" transform="translate(76.318359 0)"/>
    <use xlink:href="#SegoeUI-62" transform="translate(127.197266 0)"/>
    <use xlink:href="#SegoeUI-6c" transform="translate(185.986328 0)"/>
    <use xlink:href="#SegoeUI-65" transform="translate(210.205078 0)"/>
    <use xlink:href="#SegoeUI-63" transform="translate(262.5 0)"/>
    <use xlink:href="#SegoeUI-6f" transform="translate(308.691406 0)"/>
    <use xlink:href="#SegoeUI-69" transform="translate(367.285156 0)"/>
    <use xlink:href="#SegoeUI-6e" transform="translate(391.503906 0)"/>
    <use xlink:href="#SegoeUI-20" transform="translate(448.095703 0)"/>
    <use xlink:href="#SegoeUI-6c" transform="translate(475.488281 0)"/>
    <use xlink:href="#SegoeUI-69" transform="translate(499.707031 0)"/>
    <use xlink:href="#SegoeUI-71" transform="translate(523.925781 0)"/>
    <use xlink:href="#SegoeUI-75" transform="translate(582.8125 0)"/>
    <use xlink:href="#SegoeUI-69" transform="translate(639.404297 0)"/>
    <use xlink:href="#SegoeUI-64" transform="translate(663.623047 0)"/>
    <use xlink:href="#SegoeUI-69" transform="translate(722.509766 0)"/>
    <use xlink:href="#SegoeUI-74" transform="translate(746.728516 0)"/>
    <use xlink:href="#SegoeUI-79" transform="translate(780.615234 0)"/>
   </g>
  </g>
  <g id="text_7">
   <g id="patch_11">
    <path d="M 59.36 276.00625 
L 113.365 276.00625 
Q 114.325 276.00625 114.325 275.04625 
L 114.325 263.60375 
Q 114.325 262.64375 113.365 262.64375 
L 59.36 262.64375 
Q 58.4 262.64375 58.4 263.60375 
L 58.4 275.04625 
Q 58.4 276.00625 59.36 276.00625 
z
" style="fill: #f7931a; opacity: 0.82; stroke: #f7931a; stroke-width: 0.8; stroke-linejoin: miter"/>
   </g>
   <!-- BTC-native lab -->
   <g style="fill: #e5e7eb" transform="translate(61.2 271.36625) scale(0.08 -0.08)">
    <use xlink:href="#SegoeUI-42"/>
    <use xlink:href="#SegoeUI-54" transform="translate(52.824219 0)"/>
    <use xlink:href="#SegoeUI-43" transform="translate(100.716797 0)"/>
    <use xlink:href="#SegoeUI-2d" transform="translate(162.630859 0)"/>
    <use xlink:href="#SegoeUI-6e" transform="translate(202.621094 0)"/>
    <use xlink:href="#SegoeUI-61" transform="translate(259.212891 0)"/>
    <use xlink:href="#SegoeUI-74" transform="translate(310.091797 0)"/>
    <use xlink:href="#SegoeUI-69" transform="translate(343.978516 0)"/>
    <use xlink:href="#SegoeUI-76" transform="translate(368.197266 0)"/>
    <use xlink:href="#SegoeUI-65" transform="translate(415.472656 0)"/>
    <use xlink:href="#SegoeUI-20" transform="translate(467.767578 0)"/>
    <use xlink:href="#SegoeUI-6c" transform="translate(495.160156 0)"/>
    <use xlink:href="#SegoeUI-61" transform="translate(519.378906 0)"/>
    <use xlink:href="#SegoeUI-62" transform="translate(570.257812 0)"/>
   </g>
  </g>
  <g id="text_8">
   <g id="patch_12">
    <path d="M 268.16 276.00625 
L 307.94375 276.00625 
Q 308.90375 276.00625 308.90375 275.04625 
L 308.90375 263.60375 
Q 308.90375 262.64375 307.94375 262.64375 
L 268.16 262.64375 
Q 267.2 262.64375 267.2 263.60375 
L 267.2 275.04625 
Q 267.2 276.00625 268.16 276.00625 
z
" style="fill: #627eea; opacity: 0.82; stroke: #627eea; stroke-width: 0.8; stroke-linejoin: miter"/>
   </g>
   <!-- VAR/FEVD -->
   <g style="fill: #e5e7eb" transform="translate(270 271.36625) scale(0.08 -0.08)">
    <defs>
     <path id="SegoeUI-56" d="M 3919 4481 
L 2259 0 
L 1681 0 
L 56 4481 
L 641 4481 
L 1881 928 
Q 1941 756 1972 531 
L 1984 531 
Q 2009 719 2088 934 
L 3353 4481 
L 3919 4481 
z
" transform="scale(0.015625)"/>
     <path id="SegoeUI-44" d="M 588 0 
L 588 4481 
L 1825 4481 
Q 4194 4481 4194 2297 
Q 4194 1259 3536 629 
Q 2878 0 1775 0 
L 588 0 
z
M 1113 4006 
L 1113 475 
L 1781 475 
Q 2663 475 3153 947 
Q 3644 1419 3644 2284 
Q 3644 4006 1813 4006 
L 1113 4006 
z
" transform="scale(0.015625)"/>
    </defs>
    <use xlink:href="#SegoeUI-56"/>
    <use xlink:href="#SegoeUI-41" transform="translate(56.359375 0)"/>
    <use xlink:href="#SegoeUI-52" transform="translate(120.861328 0)"/>
    <use xlink:href="#SegoeUI-2f" transform="translate(180.675781 0)"/>
    <use xlink:href="#SegoeUI-46" transform="translate(219.640625 0)"/>
    <use xlink:href="#SegoeUI-45" transform="translate(268.46875 0)"/>
    <use xlink:href="#SegoeUI-56" transform="translate(319.054688 0)"/>
    <use xlink:href="#SegoeUI-44" transform="translate(381.164062 0)"/>
   </g>
  </g>
  <g id="text_9">
   <g id="patch_13">
    <path d="M 476.96 276.0275 
L 535.17 276.0275 
Q 536.13 276.0275 536.13 275.0675 
L 536.13 263.5825 
Q 536.13 262.6225 535.17 262.6225 
L 476.96 262.6225 
Q 476 262.6225 476 263.5825 
L 476 275.0675 
Q 476 276.0275 476.96 276.0275 
z
" style="fill: #fbbf24; opacity: 0.82; stroke: #fbbf24; stroke-width: 0.8; stroke-linejoin: miter"/>
   </g>
   <!-- robustness grid -->
   <g style="fill: #e5e7eb" transform="translate(478.8 271.345) scale(0.08 -0.08)">
    <use xlink:href="#SegoeUI-72"/>
    <use xlink:href="#SegoeUI-6f" transform="translate(33.390625 0)"/>
    <use xlink:href="#SegoeUI-62" transform="translate(91.984375 0)"/>
    <use xlink:href="#SegoeUI-75" transform="translate(150.773438 0)"/>
    <use xlink:href="#SegoeUI-73" transform="translate(207.365234 0)"/>
    <use xlink:href="#SegoeUI-74" transform="translate(249.796875 0)"/>
    <use xlink:href="#SegoeUI-6e" transform="translate(283.683594 0)"/>
    <use xlink:href="#SegoeUI-65" transform="translate(340.275391 0)"/>
    <use xlink:href="#SegoeUI-73" transform="translate(392.570312 0)"/>
    <use xlink:href="#SegoeUI-73" transform="translate(435.001953 0)"/>
    <use xlink:href="#SegoeUI-20" transform="translate(477.433594 0)"/>
    <use xlink:href="#SegoeUI-67" transform="translate(504.826172 0)"/>
    <use xlink:href="#SegoeUI-72" transform="translate(563.712891 0)"/>
    <use xlink:href="#SegoeUI-69" transform="translate(598.478516 0)"/>
    <use xlink:href="#SegoeUI-64" transform="translate(622.697266 0)"/>
   </g>
  </g>
  <g id="text_10">
   <!-- Reduced-form interpretation: association, exposure, contribution, regime, and sensitivity diagnostics. -->
   <g style="fill: #e5e7eb" transform="translate(54 313.875) scale(0.12 -0.12)">
    <defs>
     <path id="SegoeUI-Semibold-52" d="M 4016 0 
L 3147 0 
L 2431 1200 
Q 2334 1366 2242 1483 
Q 2150 1600 2054 1675 
Q 1959 1750 1846 1784 
Q 1734 1819 1594 1819 
L 1294 1819 
L 1294 0 
L 553 0 
L 553 4481 
L 2028 4481 
Q 2344 4481 2609 4406 
Q 2875 4331 3072 4179 
Q 3269 4028 3380 3801 
Q 3491 3575 3491 3272 
Q 3491 3034 3420 2836 
Q 3350 2638 3220 2483 
Q 3091 2328 2908 2218 
Q 2725 2109 2497 2050 
L 2497 2038 
Q 2619 1969 2709 1886 
Q 2800 1803 2881 1715 
Q 2963 1628 3042 1517 
Q 3122 1406 3219 1259 
L 4016 0 
z
M 1294 3878 
L 1294 2422 
L 1913 2422 
Q 2084 2422 2229 2475 
Q 2375 2528 2481 2628 
Q 2588 2728 2647 2872 
Q 2706 3016 2706 3194 
Q 2706 3516 2503 3697 
Q 2300 3878 1919 3878 
L 1294 3878 
z
" transform="scale(0.015625)"/>
     <path id="SegoeUI-Semibold-64" d="M 3381 0 
L 2656 0 
L 2656 544 
L 2644 544 
Q 2294 -75 1566 -75 
Q 975 -75 620 354 
Q 266 784 266 1525 
Q 266 2319 658 2797 
Q 1050 3275 1703 3275 
Q 2350 3275 2644 2756 
L 2656 2756 
L 2656 4738 
L 3381 4738 
L 3381 0 
z
M 2666 1463 
L 2666 1881 
Q 2666 2222 2444 2459 
Q 2222 2697 1878 2697 
Q 1472 2697 1239 2394 
Q 1006 2091 1006 1553 
Q 1006 1066 1229 783 
Q 1453 500 1831 500 
Q 2203 500 2434 773 
Q 2666 1047 2666 1463 
z
" transform="scale(0.015625)"/>
     <path id="SegoeUI-Semibold-75" d="M 3263 0 
L 2538 0 
L 2538 506 
L 2525 506 
Q 2209 -75 1544 -75 
Q 409 -75 409 1288 
L 409 3200 
L 1134 3200 
L 1134 1363 
Q 1134 500 1800 500 
Q 2122 500 2330 737 
Q 2538 975 2538 1359 
L 2538 3200 
L 3263 3200 
L 3263 0 
z
" transform="scale(0.015625)"/>
     <path id="SegoeUI-Semibold-2d" d="M 2156 1481 
L 450 1481 
L 450 2016 
L 2156 2016 
L 2156 1481 
z
" transform="scale(0.015625)"/>
     <path id="SegoeUI-Semibold-66" d="M 2281 4147 
Q 2134 4231 1947 4231 
Q 1419 4231 1419 3634 
L 1419 3200 
L 2163 3200 
L 2163 2631 
L 1422 2631 
L 1422 0 
L 697 0 
L 697 2631 
L 150 2631 
L 150 3200 
L 697 3200 
L 697 3719 
Q 697 4225 1028 4517 
Q 1359 4809 1856 4809 
Q 2125 4809 2281 4750 
L 2281 4147 
z
" transform="scale(0.015625)"/>
     <path id="SegoeUI-Semibold-6d" d="M 5256 0 
L 4531 0 
L 4531 1744 
Q 4531 2247 4389 2472 
Q 4247 2697 3909 2697 
Q 3625 2697 3426 2412 
Q 3228 2128 3228 1731 
L 3228 0 
L 2500 0 
L 2500 1803 
Q 2500 2697 1869 2697 
Q 1575 2697 1386 2428 
Q 1197 2159 1197 1731 
L 1197 0 
L 472 0 
L 472 3200 
L 1197 3200 
L 1197 2694 
L 1209 2694 
Q 1556 3275 2219 3275 
Q 2550 3275 2798 3092 
Q 3047 2909 3138 2613 
Q 3494 3275 4200 3275 
Q 5256 3275 5256 1972 
L 5256 0 
z
" transform="scale(0.015625)"/>
     <path id="SegoeUI-Semibold-69" d="M 838 3872 
Q 659 3872 532 3987 
Q 406 4103 406 4281 
Q 406 4459 532 4578 
Q 659 4697 838 4697 
Q 1022 4697 1150 4578 
Q 1278 4459 1278 4281 
Q 1278 4113 1150 3992 
Q 1022 3872 838 3872 
z
M 1197 0 
L 472 0 
L 472 3200 
L 1197 3200 
L 1197 0 
z
" transform="scale(0.015625)"/>
     <path id="SegoeUI-Semibold-6e" d="M 3322 0 
L 2597 0 
L 2597 1803 
Q 2597 2700 1963 2700 
Q 1631 2700 1415 2451 
Q 1200 2203 1200 1825 
L 1200 0 
L 472 0 
L 472 3200 
L 1200 3200 
L 1200 2669 
L 1213 2669 
Q 1572 3275 2250 3275 
Q 2772 3275 3047 2936 
Q 3322 2597 3322 1956 
L 3322 0 
z
" transform="scale(0.015625)"/>
     <path id="SegoeUI-Semibold-3a" d="M 772 -69 
Q 584 -69 453 54 
Q 322 178 322 350 
Q 322 525 453 650 
Q 584 775 772 775 
Q 963 775 1095 650 
Q 1228 525 1228 350 
Q 1228 178 1095 54 
Q 963 -69 772 -69 
z
M 772 2403 
Q 584 2403 453 2526 
Q 322 2650 322 2822 
Q 322 2997 453 3122 
Q 584 3247 772 3247 
Q 963 3247 1095 3122 
Q 1228 2997 1228 2822 
Q 1228 2650 1095 2526 
Q 963 2403 772 2403 
z
" transform="scale(0.015625)"/>
     <path id="SegoeUI-Semibold-73" d="M 272 100 
L 272 772 
Q 678 463 1169 463 
Q 1825 463 1825 850 
Q 1825 959 1769 1036 
Q 1713 1113 1617 1172 
Q 1522 1231 1392 1278 
Q 1263 1325 1103 1384 
Q 906 1463 748 1550 
Q 591 1638 486 1748 
Q 381 1859 328 2000 
Q 275 2141 275 2328 
Q 275 2559 384 2736 
Q 494 2913 678 3033 
Q 863 3153 1097 3214 
Q 1331 3275 1581 3275 
Q 2025 3275 2375 3141 
L 2375 2506 
Q 2038 2738 1600 2738 
Q 1463 2738 1352 2709 
Q 1241 2681 1162 2631 
Q 1084 2581 1040 2511 
Q 997 2441 997 2356 
Q 997 2253 1040 2181 
Q 1084 2109 1170 2054 
Q 1256 2000 1376 1954 
Q 1497 1909 1653 1856 
Q 1859 1772 2023 1684 
Q 2188 1597 2303 1486 
Q 2419 1375 2481 1229 
Q 2544 1084 2544 884 
Q 2544 641 2431 459 
Q 2319 278 2131 159 
Q 1944 41 1698 -17 
Q 1453 -75 1181 -75 
Q 656 -75 272 100 
z
" transform="scale(0.015625)"/>
     <path id="SegoeUI-Semibold-2c" d="M 1150 747 
L 666 -813 
L 122 -813 
L 466 747 
L 1150 747 
z
" transform="scale(0.015625)"/>
     <path id="SegoeUI-Semibold-78" d="M 3147 3200 
L 2081 1581 
L 3134 0 
L 2294 0 
L 1731 991 
Q 1678 1081 1606 1222 
L 1594 1222 
Q 1581 1194 1463 991 
L 891 0 
L 53 0 
L 1141 1569 
L 109 3200 
L 953 3200 
L 1506 2159 
Q 1569 2044 1628 1922 
L 1638 1922 
L 2353 3200 
L 3147 3200 
z
" transform="scale(0.015625)"/>
     <path id="SegoeUI-Semibold-67" d="M 3384 256 
Q 3384 -1506 1613 -1506 
Q 988 -1506 522 -1297 
L 522 -634 
Q 1047 -934 1519 -934 
Q 2659 -934 2659 188 
L 2659 538 
L 2647 538 
Q 2288 -75 1566 -75 
Q 981 -75 623 351 
Q 266 778 266 1497 
Q 266 2313 650 2794 
Q 1034 3275 1706 3275 
Q 2341 3275 2647 2756 
L 2659 2756 
L 2659 3200 
L 3384 3200 
L 3384 256 
z
M 2666 1466 
L 2666 1881 
Q 2666 2219 2442 2458 
Q 2219 2697 1884 2697 
Q 1472 2697 1239 2392 
Q 1006 2088 1006 1541 
Q 1006 1069 1229 786 
Q 1453 503 1822 503 
Q 2197 503 2431 773 
Q 2666 1044 2666 1466 
z
" transform="scale(0.015625)"/>
     <path id="SegoeUI-Semibold-76" d="M 3228 3200 
L 1991 0 
L 1206 0 
L 28 3200 
L 816 3200 
L 1525 963 
Q 1606 716 1625 531 
L 1634 531 
Q 1663 763 1722 950 
L 2466 3200 
L 3228 3200 
z
" transform="scale(0.015625)"/>
     <path id="SegoeUI-Semibold-2e" d="M 772 -69 
Q 584 -69 453 54 
Q 322 178 322 350 
Q 322 525 453 650 
Q 584 775 772 775 
Q 963 775 1095 650 
Q 1228 525 1228 350 
Q 1228 178 1095 54 
Q 963 -69 772 -69 
z
" transform="scale(0.015625)"/>
    </defs>
    <use xlink:href="#SegoeUI-Semibold-52"/>
    <use xlink:href="#SegoeUI-Semibold-65" transform="translate(59.630859 0)"/>
    <use xlink:href="#SegoeUI-Semibold-64" transform="translate(112.755859 0)"/>
    <use xlink:href="#SegoeUI-Semibold-75" transform="translate(173.009766 0)"/>
    <use xlink:href="#SegoeUI-Semibold-63" transform="translate(231.359375 0)"/>
    <use xlink:href="#SegoeUI-Semibold-65" transform="translate(278.380859 0)"/>
    <use xlink:href="#SegoeUI-Semibold-64" transform="translate(331.505859 0)"/>
    <use xlink:href="#SegoeUI-Semibold-2d" transform="translate(391.759766 0)"/>
    <use xlink:href="#SegoeUI-Semibold-66" transform="translate(431.945312 0)"/>
    <use xlink:href="#SegoeUI-Semibold-6f" transform="translate(466.417969 0)"/>
    <use xlink:href="#SegoeUI-Semibold-72" transform="translate(526.134766 0)"/>
    <use xlink:href="#SegoeUI-Semibold-6d" transform="translate(563.146484 0)"/>
    <use xlink:href="#SegoeUI-Semibold-20" transform="translate(651.720703 0)"/>
    <use xlink:href="#SegoeUI-Semibold-69" transform="translate(679.210938 0)"/>
    <use xlink:href="#SegoeUI-Semibold-6e" transform="translate(705.333984 0)"/>
    <use xlink:href="#SegoeUI-Semibold-74" transform="translate(763.683594 0)"/>
    <use xlink:href="#SegoeUI-Semibold-65" transform="translate(799.191406 0)"/>
    <use xlink:href="#SegoeUI-Semibold-72" transform="translate(852.316406 0)"/>
    <use xlink:href="#SegoeUI-Semibold-70" transform="translate(889.328125 0)"/>
    <use xlink:href="#SegoeUI-Semibold-72" transform="translate(949.582031 0)"/>
    <use xlink:href="#SegoeUI-Semibold-65" transform="translate(985.71875 0)"/>
    <use xlink:href="#SegoeUI-Semibold-74" transform="translate(1038.84375 0)"/>
    <use xlink:href="#SegoeUI-Semibold-61" transform="translate(1074.976562 0)"/>
    <use xlink:href="#SegoeUI-Semibold-74" transform="translate(1127.173828 0)"/>
    <use xlink:href="#SegoeUI-Semibold-69" transform="translate(1163.306641 0)"/>
    <use xlink:href="#SegoeUI-Semibold-6f" transform="translate(1189.429688 0)"/>
    <use xlink:href="#SegoeUI-Semibold-6e" transform="translate(1249.146484 0)"/>
    <use xlink:href="#SegoeUI-Semibold-3a" transform="translate(1307.496094 0)"/>
    <use xlink:href="#SegoeUI-Semibold-20" transform="translate(1331.617188 0)"/>
    <use xlink:href="#SegoeUI-Semibold-61" transform="translate(1359.107422 0)"/>
    <use xlink:href="#SegoeUI-Semibold-73" transform="translate(1411.304688 0)"/>
    <use xlink:href="#SegoeUI-Semibold-73" transform="translate(1454.419922 0)"/>
    <use xlink:href="#SegoeUI-Semibold-6f" transform="translate(1497.535156 0)"/>
    <use xlink:href="#SegoeUI-Semibold-63" transform="translate(1557.251953 0)"/>
    <use xlink:href="#SegoeUI-Semibold-69" transform="translate(1604.273438 0)"/>
    <use xlink:href="#SegoeUI-Semibold-61" transform="translate(1630.396484 0)"/>
    <use xlink:href="#SegoeUI-Semibold-74" transform="translate(1682.59375 0)"/>
    <use xlink:href="#SegoeUI-Semibold-69" transform="translate(1718.726562 0)"/>
    <use xlink:href="#SegoeUI-Semibold-6f" transform="translate(1744.849609 0)"/>
    <use xlink:href="#SegoeUI-Semibold-6e" transform="translate(1804.566406 0)"/>
    <use xlink:href="#SegoeUI-Semibold-2c" transform="translate(1862.916016 0)"/>
    <use xlink:href="#SegoeUI-Semibold-20" transform="translate(1887.037109 0)"/>
    <use xlink:href="#SegoeUI-Semibold-65" transform="translate(1914.527344 0)"/>
    <use xlink:href="#SegoeUI-Semibold-78" transform="translate(1967.652344 0)"/>
    <use xlink:href="#SegoeUI-Semibold-70" transform="translate(2017.75 0)"/>
    <use xlink:href="#SegoeUI-Semibold-6f" transform="translate(2078.003906 0)"/>
    <use xlink:href="#SegoeUI-Semibold-73" transform="translate(2137.720703 0)"/>
    <use xlink:href="#SegoeUI-Semibold-75" transform="translate(2180.835938 0)"/>
    <use xlink:href="#SegoeUI-Semibold-72" transform="translate(2239.185547 0)"/>
    <use xlink:href="#SegoeUI-Semibold-65" transform="translate(2275.322266 0)"/>
    <use xlink:href="#SegoeUI-Semibold-2c" transform="translate(2328.447266 0)"/>
    <use xlink:href="#SegoeUI-Semibold-20" transform="translate(2352.568359 0)"/>
    <use xlink:href="#SegoeUI-Semibold-63" transform="translate(2380.058594 0)"/>
    <use xlink:href="#SegoeUI-Semibold-6f" transform="translate(2427.080078 0)"/>
    <use xlink:href="#SegoeUI-Semibold-6e" transform="translate(2486.796875 0)"/>
    <use xlink:href="#SegoeUI-Semibold-74" transform="translate(2545.146484 0)"/>
    <use xlink:href="#SegoeUI-Semibold-72" transform="translate(2581.279297 0)"/>
    <use xlink:href="#SegoeUI-Semibold-69" transform="translate(2618.291016 0)"/>
    <use xlink:href="#SegoeUI-Semibold-62" transform="translate(2644.414062 0)"/>
    <use xlink:href="#SegoeUI-Semibold-75" transform="translate(2704.667969 0)"/>
    <use xlink:href="#SegoeUI-Semibold-74" transform="translate(2763.017578 0)"/>
    <use xlink:href="#SegoeUI-Semibold-69" transform="translate(2799.150391 0)"/>
    <use xlink:href="#SegoeUI-Semibold-6f" transform="translate(2825.273438 0)"/>
    <use xlink:href="#SegoeUI-Semibold-6e" transform="translate(2884.990234 0)"/>
    <use xlink:href="#SegoeUI-Semibold-2c" transform="translate(2943.339844 0)"/>
    <use xlink:href="#SegoeUI-Semibold-20" transform="translate(2967.460938 0)"/>
    <use xlink:href="#SegoeUI-Semibold-72" transform="translate(2994.951172 0)"/>
    <use xlink:href="#SegoeUI-Semibold-65" transform="translate(3031.087891 0)"/>
    <use xlink:href="#SegoeUI-Semibold-67" transform="translate(3084.212891 0)"/>
    <use xlink:href="#SegoeUI-Semibold-69" transform="translate(3144.466797 0)"/>
    <use xlink:href="#SegoeUI-Semibold-6d" transform="translate(3170.589844 0)"/>
    <use xlink:href="#SegoeUI-Semibold-65" transform="translate(3259.164062 0)"/>
    <use xlink:href="#SegoeUI-Semibold-2c" transform="translate(3312.289062 0)"/>
    <use xlink:href="#SegoeUI-Semibold-20" transform="translate(3336.410156 0)"/>
    <use xlink:href="#SegoeUI-Semibold-61" transform="translate(3363.900391 0)"/>
    <use xlink:href="#SegoeUI-Semibold-6e" transform="translate(3416.097656 0)"/>
    <use xlink:href="#SegoeUI-Semibold-64" transform="translate(3474.447266 0)"/>
    <use xlink:href="#SegoeUI-Semibold-20" transform="translate(3534.701172 0)"/>
    <use xlink:href="#SegoeUI-Semibold-73" transform="translate(3562.191406 0)"/>
    <use xlink:href="#SegoeUI-Semibold-65" transform="translate(3605.306641 0)"/>
    <use xlink:href="#SegoeUI-Semibold-6e" transform="translate(3658.431641 0)"/>
    <use xlink:href="#SegoeUI-Semibold-73" transform="translate(3716.78125 0)"/>
    <use xlink:href="#SegoeUI-Semibold-69" transform="translate(3759.896484 0)"/>
    <use xlink:href="#SegoeUI-Semibold-74" transform="translate(3786.019531 0)"/>
    <use xlink:href="#SegoeUI-Semibold-69" transform="translate(3822.152344 0)"/>
    <use xlink:href="#SegoeUI-Semibold-76" transform="translate(3848.275391 0)"/>
    <use xlink:href="#SegoeUI-Semibold-69" transform="translate(3899.007812 0)"/>
    <use xlink:href="#SegoeUI-Semibold-74" transform="translate(3925.130859 0)"/>
    <use xlink:href="#SegoeUI-Semibold-79" transform="translate(3961.263672 0)"/>
    <use xlink:href="#SegoeUI-Semibold-20" transform="translate(4012.09375 0)"/>
    <use xlink:href="#SegoeUI-Semibold-64" transform="translate(4039.583984 0)"/>
    <use xlink:href="#SegoeUI-Semibold-69" transform="translate(4099.837891 0)"/>
    <use xlink:href="#SegoeUI-Semibold-61" transform="translate(4125.960938 0)"/>
    <use xlink:href="#SegoeUI-Semibold-67" transform="translate(4178.158203 0)"/>
    <use xlink:href="#SegoeUI-Semibold-6e" transform="translate(4238.412109 0)"/>
    <use xlink:href="#SegoeUI-Semibold-6f" transform="translate(4296.761719 0)"/>
    <use xlink:href="#SegoeUI-Semibold-73" transform="translate(4356.478516 0)"/>
    <use xlink:href="#SegoeUI-Semibold-74" transform="translate(4399.59375 0)"/>
    <use xlink:href="#SegoeUI-Semibold-69" transform="translate(4435.726562 0)"/>
    <use xlink:href="#SegoeUI-Semibold-63" transform="translate(4461.849609 0)"/>
    <use xlink:href="#SegoeUI-Semibold-73" transform="translate(4508.871094 0)"/>
    <use xlink:href="#SegoeUI-Semibold-2e" transform="translate(4551.986328 0)"/>
   </g>
  </g>
  <g id="text_11">
   <!-- No claim that ETF flows caused BTC/ETH returns; structural breaks are Chow and single-break sup-F unless explicitly labeled otherwise. -->
   <g style="fill: #94a3b8" transform="translate(54 330.075) scale(0.09 -0.09)">
    <defs>
     <path id="SegoeUI-68" d="M 3175 0 
L 2663 0 
L 2663 1844 
Q 2663 2844 1919 2844 
Q 1544 2844 1287 2555 
Q 1031 2266 1031 1813 
L 1031 0 
L 519 0 
L 519 4738 
L 1031 4738 
L 1031 2669 
L 1044 2669 
Q 1413 3275 2094 3275 
Q 3175 3275 3175 1972 
L 3175 0 
z
" transform="scale(0.015625)"/>
     <path id="SegoeUI-3b" d="M 706 2575 
Q 559 2575 457 2678 
Q 356 2781 356 2925 
Q 356 3069 457 3169 
Q 559 3269 706 3269 
Q 850 3269 953 3169 
Q 1056 3069 1056 2925 
Q 1056 2781 953 2678 
Q 850 2575 706 2575 
z
M 988 713 
L 488 -825 
L 122 -825 
L 488 713 
L 988 713 
z
" transform="scale(0.015625)"/>
     <path id="SegoeUI-78" d="M 2856 3200 
L 1781 1581 
L 2838 0 
L 2241 0 
L 1613 1038 
Q 1553 1134 1472 1281 
L 1459 1281 
Q 1444 1253 1313 1038 
L 672 0 
L 81 0 
L 1172 1569 
L 128 3200 
L 725 3200 
L 1344 2106 
Q 1413 1984 1478 1856 
L 1491 1856 
L 2291 3200 
L 2856 3200 
z
" transform="scale(0.015625)"/>
    </defs>
    <use xlink:href="#SegoeUI-4e"/>
    <use xlink:href="#SegoeUI-6f" transform="translate(74.804688 0)"/>
    <use xlink:href="#SegoeUI-20" transform="translate(133.398438 0)"/>
    <use xlink:href="#SegoeUI-63" transform="translate(160.791016 0)"/>
    <use xlink:href="#SegoeUI-6c" transform="translate(206.982422 0)"/>
    <use xlink:href="#SegoeUI-61" transform="translate(231.201172 0)"/>
    <use xlink:href="#SegoeUI-69" transform="translate(282.080078 0)"/>
    <use xlink:href="#SegoeUI-6d" transform="translate(306.298828 0)"/>
    <use xlink:href="#SegoeUI-20" transform="translate(392.431641 0)"/>
    <use xlink:href="#SegoeUI-74" transform="translate(419.824219 0)"/>
    <use xlink:href="#SegoeUI-68" transform="translate(453.710938 0)"/>
    <use xlink:href="#SegoeUI-61" transform="translate(510.302734 0)"/>
    <use xlink:href="#SegoeUI-74" transform="translate(561.181641 0)"/>
    <use xlink:href="#SegoeUI-20" transform="translate(595.068359 0)"/>
    <use xlink:href="#SegoeUI-45" transform="translate(622.460938 0)"/>
    <use xlink:href="#SegoeUI-54" transform="translate(673.296875 0)"/>
    <use xlink:href="#SegoeUI-46" transform="translate(725.689453 0)"/>
    <use xlink:href="#SegoeUI-20" transform="translate(774.517578 0)"/>
    <use xlink:href="#SegoeUI-66" transform="translate(801.910156 0)"/>
    <use xlink:href="#SegoeUI-6c" transform="translate(833.208984 0)"/>
    <use xlink:href="#SegoeUI-6f" transform="translate(857.427734 0)"/>
    <use xlink:href="#SegoeUI-77" transform="translate(916.021484 0)"/>
    <use xlink:href="#SegoeUI-73" transform="translate(988.287109 0)"/>
    <use xlink:href="#SegoeUI-20" transform="translate(1030.71875 0)"/>
    <use xlink:href="#SegoeUI-63" transform="translate(1058.111328 0)"/>
    <use xlink:href="#SegoeUI-61" transform="translate(1104.302734 0)"/>
    <use xlink:href="#SegoeUI-75" transform="translate(1155.181641 0)"/>
    <use xlink:href="#SegoeUI-73" transform="translate(1211.773438 0)"/>
    <use xlink:href="#SegoeUI-65" transform="translate(1254.205078 0)"/>
    <use xlink:href="#SegoeUI-64" transform="translate(1306.5 0)"/>
    <use xlink:href="#SegoeUI-20" transform="translate(1365.386719 0)"/>
    <use xlink:href="#SegoeUI-42" transform="translate(1392.779297 0)"/>
    <use xlink:href="#SegoeUI-54" transform="translate(1445.603516 0)"/>
    <use xlink:href="#SegoeUI-43" transform="translate(1493.496094 0)"/>
    <use xlink:href="#SegoeUI-2f" transform="translate(1555.410156 0)"/>
    <use xlink:href="#SegoeUI-45" transform="translate(1594.375 0)"/>
    <use xlink:href="#SegoeUI-54" transform="translate(1645.210938 0)"/>
    <use xlink:href="#SegoeUI-48" transform="translate(1697.603516 0)"/>
    <use xlink:href="#SegoeUI-20" transform="translate(1768.599609 0)"/>
    <use xlink:href="#SegoeUI-72" transform="translate(1795.992188 0)"/>
    <use xlink:href="#SegoeUI-65" transform="translate(1829.382812 0)"/>
    <use xlink:href="#SegoeUI-74" transform="translate(1881.677734 0)"/>
    <use xlink:href="#SegoeUI-75" transform="translate(1915.564453 0)"/>
    <use xlink:href="#SegoeUI-72" transform="translate(1972.15625 0)"/>
    <use xlink:href="#SegoeUI-6e" transform="translate(2006.671875 0)"/>
    <use xlink:href="#SegoeUI-73" transform="translate(2063.263672 0)"/>
    <use xlink:href="#SegoeUI-3b" transform="translate(2105.695312 0)"/>
    <use xlink:href="#SegoeUI-20" transform="translate(2127.375 0)"/>
    <use xlink:href="#SegoeUI-73" transform="translate(2154.767578 0)"/>
    <use xlink:href="#SegoeUI-74" transform="translate(2197.199219 0)"/>
    <use xlink:href="#SegoeUI-72" transform="translate(2231.085938 0)"/>
    <use xlink:href="#SegoeUI-75" transform="translate(2265.851562 0)"/>
    <use xlink:href="#SegoeUI-63" transform="translate(2322.443359 0)"/>
    <use xlink:href="#SegoeUI-74" transform="translate(2368.634766 0)"/>
    <use xlink:href="#SegoeUI-75" transform="translate(2402.521484 0)"/>
    <use xlink:href="#SegoeUI-72" transform="translate(2459.113281 0)"/>
    <use xlink:href="#SegoeUI-61" transform="translate(2493.878906 0)"/>
    <use xlink:href="#SegoeUI-6c" transform="translate(2544.757812 0)"/>
    <use xlink:href="#SegoeUI-20" transform="translate(2568.976562 0)"/>
    <use xlink:href="#SegoeUI-62" transform="translate(2596.369141 0)"/>
    <use xlink:href="#SegoeUI-72" transform="translate(2655.158203 0)"/>
    <use xlink:href="#SegoeUI-65" transform="translate(2688.548828 0)"/>
    <use xlink:href="#SegoeUI-61" transform="translate(2740.84375 0)"/>
    <use xlink:href="#SegoeUI-6b" transform="translate(2791.722656 0)"/>
    <use xlink:href="#SegoeUI-73" transform="translate(2841.429688 0)"/>
    <use xlink:href="#SegoeUI-20" transform="translate(2883.861328 0)"/>
    <use xlink:href="#SegoeUI-61" transform="translate(2911.253906 0)"/>
    <use xlink:href="#SegoeUI-72" transform="translate(2962.132812 0)"/>
    <use xlink:href="#SegoeUI-65" transform="translate(2995.523438 0)"/>
    <use xlink:href="#SegoeUI-20" transform="translate(3047.818359 0)"/>
    <use xlink:href="#SegoeUI-43" transform="translate(3075.210938 0)"/>
    <use xlink:href="#SegoeUI-68" transform="translate(3137.125 0)"/>
    <use xlink:href="#SegoeUI-6f" transform="translate(3193.716797 0)"/>
    <use xlink:href="#SegoeUI-77" transform="translate(3252.310547 0)"/>
    <use xlink:href="#SegoeUI-20" transform="translate(3324.576172 0)"/>
    <use xlink:href="#SegoeUI-61" transform="translate(3351.96875 0)"/>
    <use xlink:href="#SegoeUI-6e" transform="translate(3402.847656 0)"/>
    <use xlink:href="#SegoeUI-64" transform="translate(3459.439453 0)"/>
    <use xlink:href="#SegoeUI-20" transform="translate(3518.326172 0)"/>
    <use xlink:href="#SegoeUI-73" transform="translate(3545.71875 0)"/>
    <use xlink:href="#SegoeUI-69" transform="translate(3588.150391 0)"/>
    <use xlink:href="#SegoeUI-6e" transform="translate(3612.369141 0)"/>
    <use xlink:href="#SegoeUI-67" transform="translate(3668.960938 0)"/>
    <use xlink:href="#SegoeUI-6c" transform="translate(3727.847656 0)"/>
    <use xlink:href="#SegoeUI-65" transform="translate(3752.066406 0)"/>
    <use xlink:href="#SegoeUI-2d" transform="translate(3804.361328 0)"/>
    <use xlink:href="#SegoeUI-62" transform="translate(3844.351562 0)"/>
    <use xlink:href="#SegoeUI-72" transform="translate(3903.140625 0)"/>
    <use xlink:href="#SegoeUI-65" transform="translate(3936.53125 0)"/>
    <use xlink:href="#SegoeUI-61" transform="translate(3988.826172 0)"/>
    <use xlink:href="#SegoeUI-6b" transform="translate(4039.705078 0)"/>
    <use xlink:href="#SegoeUI-20" transform="translate(4089.412109 0)"/>
    <use xlink:href="#SegoeUI-73" transform="translate(4116.804688 0)"/>
    <use xlink:href="#SegoeUI-75" transform="translate(4159.236328 0)"/>
    <use xlink:href="#SegoeUI-70" transform="translate(4215.828125 0)"/>
    <use xlink:href="#SegoeUI-2d" transform="translate(4274.617188 0)"/>
    <use xlink:href="#SegoeUI-46" transform="translate(4314.607422 0)"/>
    <use xlink:href="#SegoeUI-20" transform="translate(4363.435547 0)"/>
    <use xlink:href="#SegoeUI-75" transform="translate(4390.828125 0)"/>
    <use xlink:href="#SegoeUI-6e" transform="translate(4447.419922 0)"/>
    <use xlink:href="#SegoeUI-6c" transform="translate(4504.011719 0)"/>
    <use xlink:href="#SegoeUI-65" transform="translate(4528.230469 0)"/>
    <use xlink:href="#SegoeUI-73" transform="translate(4580.525391 0)"/>
    <use xlink:href="#SegoeUI-73" transform="translate(4622.957031 0)"/>
    <use xlink:href="#SegoeUI-20" transform="translate(4665.388672 0)"/>
    <use xlink:href="#SegoeUI-65" transform="translate(4692.78125 0)"/>
    <use xlink:href="#SegoeUI-78" transform="translate(4745.076172 0)"/>
    <use xlink:href="#SegoeUI-70" transform="translate(4790.974609 0)"/>
    <use xlink:href="#SegoeUI-6c" transform="translate(4849.763672 0)"/>
    <use xlink:href="#SegoeUI-69" transform="translate(4873.982422 0)"/>
    <use xlink:href="#SegoeUI-63" transform="translate(4898.201172 0)"/>
    <use xlink:href="#SegoeUI-69" transform="translate(4944.392578 0)"/>
    <use xlink:href="#SegoeUI-74" transform="translate(4968.611328 0)"/>
    <use xlink:href="#SegoeUI-6c" transform="translate(5002.498047 0)"/>
    <use xlink:href="#SegoeUI-79" transform="translate(5026.716797 0)"/>
    <use xlink:href="#SegoeUI-20" transform="translate(5075.105469 0)"/>
    <use xlink:href="#SegoeUI-6c" transform="translate(5102.498047 0)"/>
    <use xlink:href="#SegoeUI-61" transform="translate(5126.716797 0)"/>
    <use xlink:href="#SegoeUI-62" transform="translate(5177.595703 0)"/>
    <use xlink:href="#SegoeUI-65" transform="translate(5236.384766 0)"/>
    <use xlink:href="#SegoeUI-6c" transform="translate(5288.679688 0)"/>
    <use xlink:href="#SegoeUI-65" transform="translate(5312.898438 0)"/>
    <use xlink:href="#SegoeUI-64" transform="translate(5365.193359 0)"/>
    <use xlink:href="#SegoeUI-20" transform="translate(5424.080078 0)"/>
    <use xlink:href="#SegoeUI-6f" transform="translate(5451.472656 0)"/>
    <use xlink:href="#SegoeUI-74" transform="translate(5510.066406 0)"/>
    <use xlink:href="#SegoeUI-68" transform="translate(5543.953125 0)"/>
    <use xlink:href="#SegoeUI-65" transform="translate(5600.544922 0)"/>
    <use xlink:href="#SegoeUI-72" transform="translate(5652.839844 0)"/>
    <use xlink:href="#SegoeUI-77" transform="translate(5691.605469 0)"/>
    <use xlink:href="#SegoeUI-69" transform="translate(5763.871094 0)"/>
    <use xlink:href="#SegoeUI-73" transform="translate(5788.089844 0)"/>
    <use xlink:href="#SegoeUI-65" transform="translate(5830.521484 0)"/>
    <use xlink:href="#SegoeUI-2e" transform="translate(5882.816406 0)"/>
   </g>
  </g>
  <g id="text_12">
   <!-- COVERAGE -->
   <g style="fill: #94a3b8" transform="translate(63.36 113.805) scale(0.069 -0.069)">
    <defs>
     <path id="SegoeUI-4f" d="M 2394 -75 
Q 1441 -75 867 553 
Q 294 1181 294 2188 
Q 294 3269 878 3912 
Q 1463 4556 2469 4556 
Q 3397 4556 3964 3931 
Q 4531 3306 4531 2297 
Q 4531 1200 3950 562 
Q 3369 -75 2394 -75 
z
M 2431 4081 
Q 1725 4081 1284 3572 
Q 844 3063 844 2234 
Q 844 1406 1273 901 
Q 1703 397 2394 397 
Q 3131 397 3556 878 
Q 3981 1359 3981 2225 
Q 3981 3113 3568 3597 
Q 3156 4081 2431 4081 
z
" transform="scale(0.015625)"/>
     <path id="SegoeUI-47" d="M 3938 306 
Q 3263 -75 2438 -75 
Q 1478 -75 886 544 
Q 294 1163 294 2181 
Q 294 3222 951 3889 
Q 1609 4556 2619 4556 
Q 3350 4556 3847 4319 
L 3847 3738 
Q 3303 4081 2559 4081 
Q 1806 4081 1325 3562 
Q 844 3044 844 2219 
Q 844 1369 1291 883 
Q 1738 397 2503 397 
Q 3028 397 3413 606 
L 3413 1863 
L 2431 1863 
L 2431 2338 
L 3938 2338 
L 3938 306 
z
" transform="scale(0.015625)"/>
    </defs>
    <use xlink:href="#SegoeUI-43"/>
    <use xlink:href="#SegoeUI-4f" transform="translate(60.539062 0)"/>
    <use xlink:href="#SegoeUI-56" transform="translate(135.929688 0)"/>
    <use xlink:href="#SegoeUI-45" transform="translate(198.039062 0)"/>
    <use xlink:href="#SegoeUI-52" transform="translate(248.625 0)"/>
    <use xlink:href="#SegoeUI-41" transform="translate(308.439453 0)"/>
    <use xlink:href="#SegoeUI-47" transform="translate(371.566406 0)"/>
    <use xlink:href="#SegoeUI-45" transform="translate(440.169922 0)"/>
   </g>
  </g>
  <g id="text_13">
   <!-- 2020-2026 -->
   <g style="fill: #f7931a" transform="translate(63.36 133.245) scale(0.13 -0.13)">
    <defs>
     <path id="SegoeUI-Semibold-32" d="M 3119 0 
L 306 0 
L 306 347 
Q 306 559 365 745 
Q 425 931 525 1095 
Q 625 1259 759 1404 
Q 894 1550 1047 1686 
Q 1200 1822 1359 1948 
Q 1519 2075 1672 2203 
Q 1816 2325 1934 2442 
Q 2053 2559 2137 2684 
Q 2222 2809 2269 2948 
Q 2316 3088 2316 3250 
Q 2316 3428 2261 3561 
Q 2206 3694 2107 3783 
Q 2009 3872 1875 3917 
Q 1741 3963 1581 3963 
Q 1306 3963 1022 3834 
Q 738 3706 475 3450 
L 475 4147 
Q 613 4250 753 4326 
Q 894 4403 1044 4454 
Q 1194 4506 1359 4531 
Q 1525 4556 1713 4556 
Q 2016 4556 2262 4476 
Q 2509 4397 2684 4242 
Q 2859 4088 2954 3856 
Q 3050 3625 3050 3325 
Q 3050 3053 2983 2836 
Q 2916 2619 2792 2431 
Q 2669 2244 2494 2075 
Q 2319 1906 2103 1728 
Q 1922 1581 1742 1442 
Q 1563 1303 1419 1170 
Q 1275 1038 1186 905 
Q 1097 772 1097 638 
L 1097 622 
L 3119 622 
L 3119 0 
z
" transform="scale(0.015625)"/>
     <path id="SegoeUI-Semibold-30" d="M 1728 -75 
Q 1028 -75 636 497 
Q 244 1069 244 2150 
Q 244 3338 653 3947 
Q 1063 4556 1834 4556 
Q 3313 4556 3313 2259 
Q 3313 1122 2895 523 
Q 2478 -75 1728 -75 
z
M 1800 3978 
Q 984 3978 984 2181 
Q 984 500 1784 500 
Q 2572 500 2572 2209 
Q 2572 3978 1800 3978 
z
" transform="scale(0.015625)"/>
     <path id="SegoeUI-Semibold-36" d="M 3328 1441 
Q 3328 1103 3217 825 
Q 3106 547 2909 345 
Q 2713 144 2442 33 
Q 2172 -78 1856 -78 
Q 1519 -78 1236 53 
Q 953 184 748 443 
Q 544 703 431 1089 
Q 319 1475 319 1984 
Q 319 2606 467 3087 
Q 616 3569 875 3894 
Q 1134 4219 1484 4387 
Q 1834 4556 2241 4556 
Q 2494 4556 2701 4522 
Q 2909 4488 3034 4428 
L 3034 3775 
Q 2875 3856 2694 3912 
Q 2513 3969 2278 3969 
Q 2016 3969 1794 3862 
Q 1572 3756 1411 3551 
Q 1250 3347 1158 3045 
Q 1066 2744 1063 2350 
L 1081 2350 
Q 1225 2572 1470 2700 
Q 1716 2828 2047 2828 
Q 2341 2828 2577 2733 
Q 2813 2638 2980 2458 
Q 3147 2278 3237 2020 
Q 3328 1763 3328 1441 
z
M 2597 1381 
Q 2597 1575 2551 1734 
Q 2506 1894 2414 2008 
Q 2322 2122 2183 2184 
Q 2044 2247 1856 2247 
Q 1669 2247 1526 2180 
Q 1384 2113 1287 2003 
Q 1191 1894 1142 1753 
Q 1094 1613 1094 1466 
Q 1094 1306 1139 1139 
Q 1184 972 1278 834 
Q 1372 697 1517 608 
Q 1663 519 1863 519 
Q 2041 519 2178 584 
Q 2316 650 2408 765 
Q 2500 881 2548 1039 
Q 2597 1197 2597 1381 
z
" transform="scale(0.015625)"/>
    </defs>
    <use xlink:href="#SegoeUI-Semibold-32"/>
    <use xlink:href="#SegoeUI-Semibold-30" transform="translate(55.517578 0)"/>
    <use xlink:href="#SegoeUI-Semibold-32" transform="translate(111.035156 0)"/>
    <use xlink:href="#SegoeUI-Semibold-30" transform="translate(166.552734 0)"/>
    <use xlink:href="#SegoeUI-Semibold-2d" transform="translate(222.070312 0)"/>
    <use xlink:href="#SegoeUI-Semibold-32" transform="translate(262.255859 0)"/>
    <use xlink:href="#SegoeUI-Semibold-30" transform="translate(317.773438 0)"/>
    <use xlink:href="#SegoeUI-Semibold-32" transform="translate(373.291016 0)"/>
    <use xlink:href="#SegoeUI-Semibold-36" transform="translate(428.808594 0)"/>
   </g>
  </g>
  <g id="text_14">
   <!-- DAILY ROWS -->
   <g style="fill: #94a3b8" transform="translate(190.08 113.805) scale(0.069 -0.069)">
    <defs>
     <path id="SegoeUI-4c" d="M 2913 0 
L 588 0 
L 588 4481 
L 1113 4481 
L 1113 475 
L 2913 475 
L 2913 0 
z
" transform="scale(0.015625)"/>
     <path id="SegoeUI-59" d="M 3500 4481 
L 2022 1656 
L 2022 0 
L 1497 0 
L 1497 1644 
L 56 4481 
L 653 4481 
L 1656 2456 
Q 1675 2419 1766 2181 
L 1775 2181 
Q 1806 2288 1894 2456 
L 2944 4481 
L 3500 4481 
z
" transform="scale(0.015625)"/>
     <path id="SegoeUI-57" d="M 5900 4481 
L 4634 0 
L 4019 0 
L 3097 3275 
Q 3038 3484 3025 3731 
L 3013 3731 
Q 2994 3500 2931 3281 
L 2003 0 
L 1394 0 
L 81 4481 
L 659 4481 
L 1613 1044 
Q 1672 828 1688 594 
L 1703 594 
Q 1719 759 1800 1044 
L 2791 4481 
L 3294 4481 
L 4244 1019 
Q 4294 841 4319 600 
L 4331 600 
Q 4344 763 4416 1031 
L 5331 4481 
L 5900 4481 
z
" transform="scale(0.015625)"/>
    </defs>
    <use xlink:href="#SegoeUI-44"/>
    <use xlink:href="#SegoeUI-41" transform="translate(68.492188 0)"/>
    <use xlink:href="#SegoeUI-49" transform="translate(132.994141 0)"/>
    <use xlink:href="#SegoeUI-4c" transform="translate(159.605469 0)"/>
    <use xlink:href="#SegoeUI-59" transform="translate(200.425781 0)"/>
    <use xlink:href="#SegoeUI-20" transform="translate(255.699219 0)"/>
    <use xlink:href="#SegoeUI-52" transform="translate(283.091797 0)"/>
    <use xlink:href="#SegoeUI-4f" transform="translate(341.90625 0)"/>
    <use xlink:href="#SegoeUI-57" transform="translate(417.296875 0)"/>
    <use xlink:href="#SegoeUI-53" transform="translate(510.705078 0)"/>
   </g>
  </g>
  <g id="text_15">
   <!-- 2,293 -->
   <g style="fill: #2dd4bf" transform="translate(190.08 133.245) scale(0.13 -0.13)">
    <defs>
     <path id="SegoeUI-Semibold-39" d="M 3272 2484 
Q 3272 1813 3126 1328 
Q 2981 844 2726 531 
Q 2472 219 2130 70 
Q 1788 -78 1394 -78 
Q 1266 -78 1136 -62 
Q 1006 -47 889 -22 
Q 772 3 676 33 
Q 581 63 519 91 
L 519 744 
Q 584 703 681 661 
Q 778 619 892 586 
Q 1006 553 1129 533 
Q 1253 513 1369 513 
Q 1634 513 1851 616 
Q 2069 719 2222 922 
Q 2375 1125 2458 1426 
Q 2541 1728 2541 2125 
L 2528 2125 
Q 2472 2025 2380 1936 
Q 2288 1847 2169 1780 
Q 2050 1713 1904 1672 
Q 1759 1631 1594 1631 
Q 1313 1631 1070 1729 
Q 828 1828 650 2009 
Q 472 2191 370 2450 
Q 269 2709 269 3028 
Q 269 3378 384 3661 
Q 500 3944 703 4142 
Q 906 4341 1181 4448 
Q 1456 4556 1778 4556 
Q 2081 4556 2351 4442 
Q 2622 4328 2826 4079 
Q 3031 3831 3151 3437 
Q 3272 3044 3272 2484 
z
M 2516 2963 
Q 2516 3188 2458 3372 
Q 2400 3556 2297 3687 
Q 2194 3819 2051 3891 
Q 1909 3963 1741 3963 
Q 1591 3963 1455 3902 
Q 1319 3841 1217 3728 
Q 1116 3616 1056 3456 
Q 997 3297 997 3103 
Q 997 2891 1055 2728 
Q 1113 2566 1216 2455 
Q 1319 2344 1464 2286 
Q 1609 2228 1784 2228 
Q 1941 2228 2073 2286 
Q 2206 2344 2304 2442 
Q 2403 2541 2459 2675 
Q 2516 2809 2516 2963 
z
" transform="scale(0.015625)"/>
     <path id="SegoeUI-Semibold-33" d="M 384 166 
L 384 847 
Q 822 500 1372 500 
Q 1819 500 2086 703 
Q 2353 906 2353 1253 
Q 2353 2016 1188 2016 
L 841 2016 
L 841 2597 
L 1172 2597 
Q 2206 2597 2206 3316 
Q 2206 3978 1400 3978 
Q 950 3978 553 3656 
L 553 4300 
Q 1009 4556 1631 4556 
Q 2228 4556 2587 4256 
Q 2947 3956 2947 3488 
Q 2947 2603 2047 2350 
L 2047 2338 
Q 2531 2291 2812 1998 
Q 3094 1706 3094 1269 
Q 3094 666 2641 295 
Q 2188 -75 1447 -75 
Q 781 -75 384 166 
z
" transform="scale(0.015625)"/>
    </defs>
    <use xlink:href="#SegoeUI-Semibold-32"/>
    <use xlink:href="#SegoeUI-Semibold-2c" transform="translate(55.517578 0)"/>
    <use xlink:href="#SegoeUI-Semibold-32" transform="translate(79.638672 0)"/>
    <use xlink:href="#SegoeUI-Semibold-39" transform="translate(135.15625 0)"/>
    <use xlink:href="#SegoeUI-Semibold-33" transform="translate(190.966797 0)"/>
   </g>
  </g>
  <g id="text_16">
   <!-- FEATURES -->
   <g style="fill: #94a3b8" transform="translate(316.8 113.805) scale(0.069 -0.069)">
    <defs>
     <path id="SegoeUI-55" d="M 3866 1813 
Q 3866 -75 2163 -75 
Q 531 -75 531 1741 
L 531 4481 
L 1056 4481 
L 1056 1775 
Q 1056 397 2219 397 
Q 3341 397 3341 1728 
L 3341 4481 
L 3866 4481 
L 3866 1813 
z
" transform="scale(0.015625)"/>
    </defs>
    <use xlink:href="#SegoeUI-46"/>
    <use xlink:href="#SegoeUI-45" transform="translate(48.828125 0)"/>
    <use xlink:href="#SegoeUI-41" transform="translate(99.914062 0)"/>
    <use xlink:href="#SegoeUI-54" transform="translate(157.291016 0)"/>
    <use xlink:href="#SegoeUI-55" transform="translate(209.683594 0)"/>
    <use xlink:href="#SegoeUI-52" transform="translate(278.384766 0)"/>
    <use xlink:href="#SegoeUI-45" transform="translate(338.199219 0)"/>
    <use xlink:href="#SegoeUI-53" transform="translate(388.785156 0)"/>
   </g>
  </g>
  <g id="text_17">
   <!-- 63 -->
   <g style="fill: #a78bfa" transform="translate(316.8 133.245) scale(0.13 -0.13)">
    <use xlink:href="#SegoeUI-Semibold-36"/>
    <use xlink:href="#SegoeUI-Semibold-33" transform="translate(55.810547 0)"/>
   </g>
  </g>
  <g id="text_18">
   <!-- SOURCE FAMILIES -->
   <g style="fill: #94a3b8" transform="translate(443.52 113.805) scale(0.069 -0.069)">
    <defs>
     <path id="SegoeUI-4d" d="M 5156 0 
L 4634 0 
L 4634 3006 
Q 4634 3363 4678 3878 
L 4666 3878 
Q 4591 3575 4531 3444 
L 3000 0 
L 2744 0 
L 1216 3419 
Q 1150 3569 1081 3878 
L 1069 3878 
Q 1094 3609 1094 3000 
L 1094 0 
L 588 0 
L 588 4481 
L 1281 4481 
L 2656 1356 
Q 2816 997 2863 819 
L 2881 819 
Q 3016 1188 3097 1369 
L 4500 4481 
L 5156 4481 
L 5156 0 
z
" transform="scale(0.015625)"/>
    </defs>
    <use xlink:href="#SegoeUI-53"/>
    <use xlink:href="#SegoeUI-4f" transform="translate(53.125 0)"/>
    <use xlink:href="#SegoeUI-55" transform="translate(128.515625 0)"/>
    <use xlink:href="#SegoeUI-52" transform="translate(197.216797 0)"/>
    <use xlink:href="#SegoeUI-43" transform="translate(255.65625 0)"/>
    <use xlink:href="#SegoeUI-45" transform="translate(317.570312 0)"/>
    <use xlink:href="#SegoeUI-20" transform="translate(368.15625 0)"/>
    <use xlink:href="#SegoeUI-46" transform="translate(395.548828 0)"/>
    <use xlink:href="#SegoeUI-41" transform="translate(437.876953 0)"/>
    <use xlink:href="#SegoeUI-4d" transform="translate(502.378906 0)"/>
    <use xlink:href="#SegoeUI-49" transform="translate(592.173828 0)"/>
    <use xlink:href="#SegoeUI-4c" transform="translate(618.785156 0)"/>
    <use xlink:href="#SegoeUI-49" transform="translate(665.855469 0)"/>
    <use xlink:href="#SegoeUI-45" transform="translate(692.466797 0)"/>
    <use xlink:href="#SegoeUI-53" transform="translate(743.052734 0)"/>
   </g>
  </g>
  <g id="text_19">
   <!-- 7 -->
   <g style="fill: #22c55e" transform="translate(443.52 133.245) scale(0.13 -0.13)">
    <defs>
     <path id="SegoeUI-Semibold-37" d="M 3213 4119 
Q 2931 3603 2681 3098 
Q 2431 2594 2228 2084 
Q 2025 1575 1875 1058 
Q 1725 541 1644 0 
L 884 0 
Q 959 481 1098 961 
Q 1238 1441 1425 1920 
Q 1613 2400 1845 2884 
Q 2078 3369 2341 3863 
L 219 3863 
L 219 4481 
L 3213 4481 
L 3213 4119 
z
" transform="scale(0.015625)"/>
    </defs>
    <use xlink:href="#SegoeUI-Semibold-37"/>
   </g>
  </g>
  <g id="text_20">
   <!-- CURATED FILES -->
   <g style="fill: #94a3b8" transform="translate(570.24 113.805) scale(0.069 -0.069)">
    <use xlink:href="#SegoeUI-43"/>
    <use xlink:href="#SegoeUI-55" transform="translate(61.914062 0)"/>
    <use xlink:href="#SegoeUI-52" transform="translate(130.615234 0)"/>
    <use xlink:href="#SegoeUI-41" transform="translate(190.429688 0)"/>
    <use xlink:href="#SegoeUI-54" transform="translate(247.806641 0)"/>
    <use xlink:href="#SegoeUI-45" transform="translate(300.199219 0)"/>
    <use xlink:href="#SegoeUI-44" transform="translate(350.785156 0)"/>
    <use xlink:href="#SegoeUI-20" transform="translate(420.902344 0)"/>
    <use xlink:href="#SegoeUI-46" transform="translate(448.294922 0)"/>
    <use xlink:href="#SegoeUI-49" transform="translate(497.123047 0)"/>
    <use xlink:href="#SegoeUI-4c" transform="translate(523.734375 0)"/>
    <use xlink:href="#SegoeUI-45" transform="translate(570.804688 0)"/>
    <use xlink:href="#SegoeUI-53" transform="translate(621.390625 0)"/>
   </g>
  </g>
  <g id="text_21">
   <!-- 490 -->
   <g style="fill: #fbbf24" transform="translate(570.24 133.245) scale(0.13 -0.13)">
    <defs>
     <path id="SegoeUI-Semibold-34" d="M 2894 4481 
L 2894 1588 
L 3559 1588 
L 3559 984 
L 2894 984 
L 2894 0 
L 2191 0 
L 2191 984 
L 163 984 
L 163 1594 
Q 438 1903 727 2264 
Q 1016 2625 1283 3001 
Q 1550 3378 1778 3756 
Q 2006 4134 2163 4481 
L 2894 4481 
z
M 2191 1588 
L 2191 3469 
Q 1850 2856 1517 2400 
Q 1184 1944 894 1588 
L 2191 1588 
z
" transform="scale(0.015625)"/>
    </defs>
    <use xlink:href="#SegoeUI-Semibold-34"/>
    <use xlink:href="#SegoeUI-Semibold-39" transform="translate(57.617188 0)"/>
    <use xlink:href="#SegoeUI-Semibold-30" transform="translate(113.427734 0)"/>
   </g>
  </g>
 </g>
</svg>
