<?xml version="1.0" encoding="utf-8" standalone="no"?>
<!DOCTYPE svg PUBLIC "-//W3C//DTD SVG 1.1//EN"
  "http://www.w3.org/Graphics/SVG/1.1/DTD/svg11.dtd">
<svg xmlns:xlink="http://www.w3.org/1999/xlink" width="685.770469pt" height="386.55pt" viewBox="0 0 685.770469 386.55" xmlns="http://www.w3.org/2000/svg" version="1.1">
 <metadata>
  <rdf:RDF xmlns:dc="http://purl.org/dc/elements/1.1/" xmlns:cc="http://creativecommons.org/ns#" xmlns:rdf="http://www.w3.org/1999/02/22-rdf-syntax-ns#">
   <cc:Work>
    <dc:type rdf:resource="http://purl.org/dc/dcmitype/StillImage"/>
    <dc:date>2026-06-18T20:27:28.814211</dc:date>
    <dc:format>image/svg+xml</dc:format>
    <dc:creator>
     <cc:Agent>
      <dc:title>Matplotlib v3.10.8, https://matplotlib.org/</dc:title>
     </cc:Agent>
    </dc:creator>
   </cc:Work>
  </rdf:RDF>
 </metadata>
 <defs>
  <style type="text/css">*{stroke-linejoin: round; stroke-linecap: butt}</style>
 </defs>
 <g id="figure_1">
  <g id="patch_1">
   <path d="M 0 386.55
L 685.770469 386.55
L 685.770469 0
L 0 0
z
" style="fill: #fafaf7"/>
  </g>
  <g id="axes_1">
   <g id="patch_2">
    <path d="M 72.923594 321.28
L 334.942031 321.28
L 334.942031 75.861094
L 72.923594 75.861094
z
" style="fill: #fafaf7"/>
   </g>
   <g id="patch_3">
    <path d="M 72.923594 290.723891
L 302.676332 290.723891
L 302.676332 281.023539
L 72.923594 281.023539
z
" clip-path="url(#pded3145eb2)" style="fill: #7c3aed"/>
   </g>
   <g id="patch_4">
    <path d="M 72.923594 251.922483
L 298.608808 251.922483
L 298.608808 242.222131
L 72.923594 242.222131
z
" clip-path="url(#pded3145eb2)" style="fill: #7c3aed"/>
   </g>
   <g id="patch_5">
    <path d="M 72.923594 213.121075
L 315.153401 213.121075
L 315.153401 203.420723
L 72.923594 203.420723
z
" clip-path="url(#pded3145eb2)" style="fill: #7c3aed"/>
   </g>
   <g id="patch_6">
    <path d="M 72.923594 174.319667
L 317.49909 174.319667
L 317.49909 164.619315
L 72.923594 164.619315
z
" clip-path="url(#pded3145eb2)" style="fill: #7c3aed"/>
   </g>
   <g id="patch_7">
    <path d="M 72.923594 135.518259
L 319.096154 135.518259
L 319.096154 125.817907
L 72.923594 125.817907
z
" clip-path="url(#pded3145eb2)" style="fill: #7c3aed"/>
   </g>
   <g id="patch_8">
    <path d="M 72.923594 96.716851
L 316.950099 96.716851
L 316.950099 87.016499
L 72.923594 87.016499
z
" clip-path="url(#pded3145eb2)" style="fill: #7c3aed"/>
   </g>
   <g id="patch_9">
    <path d="M 72.923594 300.424243
L 301.353763 300.424243
L 301.353763 290.723891
L 72.923594 290.723891
z
" clip-path="url(#pded3145eb2)" style="fill: #f7931a"/>
   </g>
   <g id="patch_10">
    <path d="M 72.923594 261.622835
L 296.637431 261.622835
L 296.637431 251.922483
L 72.923594 251.922483
z
" clip-path="url(#pded3145eb2)" style="fill: #f7931a"/>
   </g>
   <g id="patch_11">
    <path d="M 72.923594 222.821427
L 314.504593 222.821427
L 314.504593 213.121075
L 72.923594 213.121075
z
" clip-path="url(#pded3145eb2)" style="fill: #f7931a"/>
   </g>
   <g id="patch_12">
    <path d="M 72.923594 184.020019
L 317.000007 184.020019
L 317.000007 174.319667
L 72.923594 174.319667
z
" clip-path="url(#pded3145eb2)" style="fill: #f7931a"/>
   </g>
   <g id="patch_13">
    <path d="M 72.923594 145.218611
L 318.796705 145.218611
L 318.796705 135.518259
L 72.923594 135.518259
z
" clip-path="url(#pded3145eb2)" style="fill: #f7931a"/>
   </g>
   <g id="patch_14">
    <path d="M 72.923594 106.417203
L 314.180189 106.417203
L 314.180189 96.716851
L 72.923594 96.716851
z
" clip-path="url(#pded3145eb2)" style="fill: #f7931a"/>
   </g>
   <g id="patch_15">
    <path d="M 72.923594 310.124595
L 109.356634 310.124595
L 109.356634 300.424243
L 72.923594 300.424243
z
" clip-path="url(#pded3145eb2)" style="fill: #2563eb"/>
   </g>
   <g id="patch_16">
    <path d="M 72.923594 271.323187
L 109.231863 271.323187
L 109.231863 261.622835
L 72.923594 261.622835
z
" clip-path="url(#pded3145eb2)" style="fill: #2563eb"/>
   </g>
   <g id="patch_17">
    <path d="M 72.923594 232.521779
L 114.896452 232.521779
L 114.896452 222.821427
L 72.923594 222.821427
z
" clip-path="url(#pded3145eb2)" style="fill: #2563eb"/>
   </g>
   <g id="patch_18">
    <path d="M 72.923594 193.720371
L 113.823424 193.720371
L 113.823424 184.020019
L 72.923594 184.020019
z
" clip-path="url(#pded3145eb2)" style="fill: #2563eb"/>
   </g>
   <g id="patch_19">
    <path d="M 72.923594 154.918963
L 127.847649 154.918963
L 127.847649 145.218611
L 72.923594 145.218611
z
" clip-path="url(#pded3145eb2)" style="fill: #2563eb"/>
   </g>
   <g id="patch_20">
    <path d="M 72.923594 116.117555
L 180.051703 116.117555
L 180.051703 106.417203
L 72.923594 106.417203
z
" clip-path="url(#pded3145eb2)" style="fill: #2563eb"/>
   </g>
   <g id="matplotlib.axis_1">
    <g id="xtick_1">
     <g id="line2d_1">
      <path d="M 72.923594 321.28
L 72.923594 75.861094
" clip-path="url(#pded3145eb2)" style="fill: none; stroke: #d9dee7; stroke-opacity: 0.55; stroke-width: 0.7; stroke-linecap: square"/>
     </g>
     <g id="line2d_2">
      <defs>
       <path id="m3db6b3ffaa" d="M 0 0
L 0 3.5
" style="stroke: #111827; stroke-width: 0.8"/>
      </defs>
      <g>
       <use xlink:href="#m3db6b3ffaa" x="72.923594" y="321.28" style="fill: #111827; stroke: #111827; stroke-width: 0.8"/>
      </g>
     </g>
     <g id="text_1">
      <!-- 0.0 -->
      <g style="fill: #111827" transform="translate(67.096094 334.942812) scale(0.09 -0.09)">
       <defs>
        <path id="SegoeUI-30" d="M 3188 2259
Q 3188 1697 3086 1262
Q 2984 828 2792 529
Q 2600 231 2320 76
Q 2041 -78 1684 -78
Q 1347 -78 1083 70
Q 819 219 637 503
Q 456 788 362 1202
Q 269 1616 269 2150
Q 269 2738 367 3188
Q 466 3638 656 3942
Q 847 4247 1130 4401
Q 1413 4556 1778 4556
Q 3188 4556 3188 2259
z
M 2663 2209
Q 2663 4122 1753 4122
Q 794 4122 794 2175
Q 794 359 1734 359
Q 2663 359 2663 2209
z
" transform="scale(0.015625)"/>
        <path id="SegoeUI-2e" d="M 697 -69
Q 553 -69 451 34
Q 350 138 350 281
Q 350 425 451 529
Q 553 634 697 634
Q 844 634 947 529
Q 1050 425 1050 281
Q 1050 138 947 34
Q 844 -69 697 -69
z
" transform="scale(0.015625)"/>
       </defs>
       <use xlink:href="#SegoeUI-30"/>
       <use xlink:href="#SegoeUI-2e" transform="translate(53.90625 0)"/>
       <use xlink:href="#SegoeUI-30" transform="translate(75.585938 0)"/>
      </g>
     </g>
    </g>
    <g id="xtick_2">
     <g id="line2d_3">
      <path d="M 122.831868 321.28
L 122.831868 75.861094
" clip-path="url(#pded3145eb2)" style="fill: none; stroke: #d9dee7; stroke-opacity: 0.55; stroke-width: 0.7; stroke-linecap: square"/>
     </g>
     <g id="line2d_4">
      <g>
       <use xlink:href="#m3db6b3ffaa" x="122.831868" y="321.28" style="fill: #111827; stroke: #111827; stroke-width: 0.8"/>
      </g>
     </g>
     <g id="text_2">
      <!-- 0.2 -->
      <g style="fill: #111827" transform="translate(117.004368 334.942812) scale(0.09 -0.09)">
       <defs>
        <path id="SegoeUI-32" d="M 2413 3306
Q 2413 3513 2348 3666
Q 2284 3819 2173 3920
Q 2063 4022 1913 4072
Q 1763 4122 1588 4122
Q 1438 4122 1294 4081
Q 1150 4041 1014 3969
Q 878 3897 751 3797
Q 625 3697 516 3575
L 516 4125
Q 731 4334 998 4445
Q 1266 4556 1650 4556
Q 1925 4556 2159 4476
Q 2394 4397 2566 4244
Q 2738 4091 2836 3866
Q 2934 3641 2934 3350
Q 2934 3084 2873 2868
Q 2813 2653 2689 2462
Q 2566 2272 2378 2097
Q 2191 1922 1938 1741
Q 1622 1516 1417 1356
Q 1213 1197 1092 1058
Q 972 919 923 780
Q 875 641 875 459
L 3106 459
L 3106 0
L 341 0
L 341 222
Q 341 509 403 728
Q 466 947 609 1144
Q 753 1341 986 1537
Q 1219 1734 1556 1981
Q 1800 2156 1964 2315
Q 2128 2475 2228 2634
Q 2328 2794 2370 2958
Q 2413 3122 2413 3306
z
" transform="scale(0.015625)"/>
       </defs>
       <use xlink:href="#SegoeUI-30"/>
       <use xlink:href="#SegoeUI-2e" transform="translate(53.90625 0)"/>
       <use xlink:href="#SegoeUI-32" transform="translate(75.585938 0)"/>
      </g>
     </g>
    </g>
    <g id="xtick_3">
     <g id="line2d_5">
      <path d="M 172.740141 321.28
L 172.740141 75.861094
" clip-path="url(#pded3145eb2)" style="fill: none; stroke: #d9dee7; stroke-opacity: 0.55; stroke-width: 0.7; stroke-linecap: square"/>
     </g>
     <g id="line2d_6">
      <g>
       <use xlink:href="#m3db6b3ffaa" x="172.740141" y="321.28" style="fill: #111827; stroke: #111827; stroke-width: 0.8"/>
      </g>
     </g>
     <g id="text_3">
      <!-- 0.4 -->
      <g style="fill: #111827" transform="translate(166.912641 334.942812) scale(0.09 -0.09)">
       <defs>
        <path id="SegoeUI-34" d="M 2656 4481
L 2656 1522
L 3231 1522
L 3231 1053
L 2656 1053
L 2656 0
L 2150 0
L 2150 1053
L 44 1053
L 44 1497
Q 338 1828 638 2204
Q 938 2581 1211 2968
Q 1484 3356 1717 3742
Q 1950 4128 2109 4481
L 2656 4481
z
M 622 1522
L 2150 1522
L 2150 3716
Q 1916 3306 1706 2984
Q 1497 2663 1308 2400
Q 1119 2138 947 1925
Q 775 1713 622 1522
z
" transform="scale(0.015625)"/>
       </defs>
       <use xlink:href="#SegoeUI-30"/>
       <use xlink:href="#SegoeUI-2e" transform="translate(53.90625 0)"/>
       <use xlink:href="#SegoeUI-34" transform="translate(75.585938 0)"/>
      </g>
     </g>
    </g>
    <g id="xtick_4">
     <g id="line2d_7">
      <path d="M 222.648415 321.28
L 222.648415 75.861094
" clip-path="url(#pded3145eb2)" style="fill: none; stroke: #d9dee7; stroke-opacity: 0.55; stroke-width: 0.7; stroke-linecap: square"/>
     </g>
     <g id="line2d_8">
      <g>
       <use xlink:href="#m3db6b3ffaa" x="222.648415" y="321.28" style="fill: #111827; stroke: #111827; stroke-width: 0.8"/>
      </g>
     </g>
     <g id="text_4">
      <!-- 0.6 -->
      <g style="fill: #111827" transform="translate(216.820915 334.942812) scale(0.09 -0.09)">
       <defs>
        <path id="SegoeUI-36" d="M 3194 1422
Q 3194 1094 3087 819
Q 2981 544 2793 344
Q 2606 144 2347 33
Q 2088 -78 1784 -78
Q 1447 -78 1180 62
Q 913 203 727 467
Q 541 731 444 1112
Q 347 1494 347 1972
Q 347 2556 476 3032
Q 606 3509 845 3848
Q 1084 4188 1421 4372
Q 1759 4556 2175 4556
Q 2638 4556 2919 4428
L 2919 3944
Q 2572 4122 2188 4122
Q 1888 4122 1647 3987
Q 1406 3853 1234 3608
Q 1063 3363 970 3016
Q 878 2669 878 2244
L 891 2244
Q 1200 2803 1913 2803
Q 2206 2803 2442 2703
Q 2678 2603 2845 2420
Q 3013 2238 3103 1984
Q 3194 1731 3194 1422
z
M 2669 1356
Q 2669 1591 2609 1778
Q 2550 1966 2439 2097
Q 2328 2228 2165 2298
Q 2003 2369 1797 2369
Q 1606 2369 1443 2297
Q 1281 2225 1162 2101
Q 1044 1978 976 1814
Q 909 1650 909 1466
Q 909 1234 975 1032
Q 1041 831 1159 681
Q 1278 531 1442 445
Q 1606 359 1806 359
Q 2000 359 2159 432
Q 2319 506 2431 637
Q 2544 769 2606 951
Q 2669 1134 2669 1356
z
" transform="scale(0.015625)"/>
       </defs>
       <use xlink:href="#SegoeUI-30"/>
       <use xlink:href="#SegoeUI-2e" transform="translate(53.90625 0)"/>
       <use xlink:href="#SegoeUI-36" transform="translate(75.585938 0)"/>
      </g>
     </g>
    </g>
    <g id="xtick_5">
     <g id="line2d_9">
      <path d="M 272.556689 321.28
L 272.556689 75.861094
" clip-path="url(#pded3145eb2)" style="fill: none; stroke: #d9dee7; stroke-opacity: 0.55; stroke-width: 0.7; stroke-linecap: square"/>
     </g>
     <g id="line2d_10">
      <g>
       <use xlink:href="#m3db6b3ffaa" x="272.556689" y="321.28" style="fill: #111827; stroke: #111827; stroke-width: 0.8"/>
      </g>
     </g>
     <g id="text_5">
      <!-- 0.8 -->
      <g style="fill: #111827" transform="translate(266.729189 334.942812) scale(0.09 -0.09)">
       <defs>
        <path id="SegoeUI-38" d="M 281 1250
Q 281 1428 337 1608
Q 394 1788 498 1944
Q 603 2100 758 2228
Q 913 2356 1109 2431
Q 819 2594 647 2848
Q 475 3103 475 3413
Q 475 3659 570 3868
Q 666 4078 834 4231
Q 1003 4384 1234 4470
Q 1466 4556 1734 4556
Q 2006 4556 2237 4468
Q 2469 4381 2637 4228
Q 2806 4075 2900 3865
Q 2994 3656 2994 3413
Q 2994 3103 2822 2848
Q 2650 2594 2366 2431
Q 2559 2356 2712 2228
Q 2866 2100 2970 1944
Q 3075 1788 3131 1608
Q 3188 1428 3188 1250
Q 3188 956 3081 712
Q 2975 469 2783 295
Q 2591 122 2323 25
Q 2056 -72 1734 -72
Q 1416 -72 1150 25
Q 884 122 690 295
Q 497 469 389 712
Q 281 956 281 1250
z
M 838 1294
Q 838 1084 902 915
Q 966 747 1083 628
Q 1200 509 1367 445
Q 1534 381 1738 381
Q 1934 381 2100 447
Q 2266 513 2386 631
Q 2506 750 2573 919
Q 2641 1088 2641 1294
Q 2641 1481 2577 1645
Q 2513 1809 2394 1934
Q 2275 2059 2109 2131
Q 1944 2203 1738 2203
Q 1544 2203 1380 2136
Q 1216 2069 1095 1948
Q 975 1828 906 1661
Q 838 1494 838 1294
z
M 997 3372
Q 997 3213 1055 3077
Q 1113 2941 1214 2839
Q 1316 2738 1450 2680
Q 1584 2622 1738 2622
Q 1891 2622 2027 2681
Q 2163 2741 2263 2842
Q 2363 2944 2422 3080
Q 2481 3216 2481 3372
Q 2481 3534 2423 3671
Q 2366 3809 2266 3909
Q 2166 4009 2030 4067
Q 1894 4125 1738 4125
Q 1572 4125 1436 4065
Q 1300 4006 1201 3904
Q 1103 3803 1050 3665
Q 997 3528 997 3372
z
" transform="scale(0.015625)"/>
       </defs>
       <use xlink:href="#SegoeUI-30"/>
       <use xlink:href="#SegoeUI-2e" transform="translate(53.90625 0)"/>
       <use xlink:href="#SegoeUI-38" transform="translate(75.585938 0)"/>
      </g>
     </g>
    </g>
    <g id="xtick_6">
     <g id="line2d_11">
      <path d="M 322.464963 321.28
L 322.464963 75.861094
" clip-path="url(#pded3145eb2)" style="fill: none; stroke: #d9dee7; stroke-opacity: 0.55; stroke-width: 0.7; stroke-linecap: square"/>
     </g>
     <g id="line2d_12">
      <g>
       <use xlink:href="#m3db6b3ffaa" x="322.464963" y="321.28" style="fill: #111827; stroke: #111827; stroke-width: 0.8"/>
      </g>
     </g>
     <g id="text_6">
      <!-- 1.0 -->
      <g style="fill: #111827" transform="translate(316.637463 334.942812) scale(0.09 -0.09)">
       <defs>
        <path id="SegoeUI-31" d="M 2263 0
L 1750 0
L 1750 3872
Q 1691 3813 1577 3736
Q 1463 3659 1320 3584
Q 1178 3509 1020 3443
Q 863 3378 713 3341
L 713 3859
Q 881 3906 1070 3986
Q 1259 4066 1442 4164
Q 1625 4263 1787 4370
Q 1950 4478 2069 4581
L 2263 4581
L 2263 0
z
" transform="scale(0.015625)"/>
       </defs>
       <use xlink:href="#SegoeUI-31"/>
       <use xlink:href="#SegoeUI-2e" transform="translate(53.90625 0)"/>
       <use xlink:href="#SegoeUI-30" transform="translate(75.585938 0)"/>
      </g>
     </g>
    </g>
    <g id="text_7">
     <!-- R² -->
     <g style="fill: #6b7280" transform="translate(199.110937 348.415937) scale(0.1 -0.1)">
      <defs>
       <path id="SegoeUI-52" d="M 3800 0
L 3175 0
L 2425 1256
Q 2322 1431 2225 1554
Q 2128 1678 2026 1756
Q 1925 1834 1808 1870
Q 1691 1906 1544 1906
L 1113 1906
L 1113 0
L 588 0
L 588 4481
L 1925 4481
Q 2219 4481 2467 4407
Q 2716 4334 2898 4184
Q 3081 4034 3184 3811
Q 3288 3588 3288 3288
Q 3288 3053 3217 2858
Q 3147 2663 3017 2509
Q 2888 2356 2705 2248
Q 2522 2141 2294 2081
L 2294 2069
Q 2406 2019 2489 1955
Q 2572 1891 2647 1803
Q 2722 1716 2795 1605
Q 2869 1494 2959 1347
L 3800 0
z
M 1113 4006
L 1113 2381
L 1825 2381
Q 2022 2381 2189 2440
Q 2356 2500 2478 2611
Q 2600 2722 2669 2883
Q 2738 3044 2738 3244
Q 2738 3603 2505 3804
Q 2272 4006 1831 4006
L 1113 4006
z
" transform="scale(0.015625)"/>
       <path id="SegoeUI-b2" d="M 2056 2785
L 325 2785
L 325 3041
Q 325 3232 417 3383
Q 509 3535 648 3666
Q 788 3798 950 3915
Q 1113 4032 1252 4157
Q 1391 4282 1483 4422
Q 1575 4563 1575 4738
Q 1575 4919 1458 5019
Q 1341 5119 1144 5119
Q 772 5119 469 4801
L 469 5266
Q 728 5504 1203 5504
Q 1378 5504 1525 5451
Q 1672 5398 1778 5299
Q 1884 5201 1943 5063
Q 2003 4926 2003 4754
Q 2003 4523 1914 4343
Q 1825 4163 1690 4019
Q 1556 3876 1400 3763
Q 1244 3651 1109 3555
Q 975 3460 886 3374
Q 797 3288 797 3201
L 797 3166
L 2056 3166
L 2056 2785
z
" transform="scale(0.015625)"/>
      </defs>
      <use xlink:href="#SegoeUI-52"/>
      <use xlink:href="#SegoeUI-b2" transform="translate(59.814453 0)"/>
     </g>
    </g>
   </g>
   <g id="matplotlib.axis_2">
    <g id="ytick_1">
     <g id="line2d_13">
      <path d="M 72.923594 295.574067
L 334.942031 295.574067
" clip-path="url(#pded3145eb2)" style="fill: none; stroke: #d9dee7; stroke-opacity: 0.55; stroke-width: 0.7; stroke-linecap: square"/>
     </g>
     <g id="line2d_14">
      <defs>
       <path id="md640689d5f" d="M 0 0
L -3.5 0
" style="stroke: #111827; stroke-width: 0.8"/>
      </defs>
      <g>
       <use xlink:href="#md640689d5f" x="72.923594" y="295.574067" style="fill: #111827; stroke: #111827; stroke-width: 0.8"/>
      </g>
     </g>
     <g id="text_8">
      <!-- Full 2020-2026 -->
      <g style="fill: #111827" transform="translate(7.2 298.905473) scale(0.09 -0.09)">
       <defs>
        <path id="SegoeUI-46" d="M 2863 4006
L 1113 4006
L 1113 2456
L 2731 2456
L 2731 1984
L 1113 1984
L 1113 0
L 588 0
L 588 4481
L 2863 4481
L 2863 4006
z
" transform="scale(0.015625)"/>
        <path id="SegoeUI-75" d="M 3106 0
L 2594 0
L 2594 506
L 2581 506
Q 2263 -75 1594 -75
Q 450 -75 450 1288
L 450 3200
L 959 3200
L 959 1369
Q 959 356 1734 356
Q 2109 356 2351 632
Q 2594 909 2594 1356
L 2594 3200
L 3106 3200
L 3106 0
z
" transform="scale(0.015625)"/>
        <path id="SegoeUI-6c" d="M 1031 0
L 519 0
L 519 4738
L 1031 4738
L 1031 0
z
" transform="scale(0.015625)"/>
        <path id="SegoeUI-20" transform="scale(0.015625)"/>
        <path id="SegoeUI-2d" d="M 2156 1581
L 450 1581
L 450 1984
L 2156 1984
L 2156 1581
z
" transform="scale(0.015625)"/>
       </defs>
       <use xlink:href="#SegoeUI-46"/>
       <use xlink:href="#SegoeUI-75" transform="translate(48.828125 0)"/>
       <use xlink:href="#SegoeUI-6c" transform="translate(105.419922 0)"/>
       <use xlink:href="#SegoeUI-6c" transform="translate(129.638672 0)"/>
       <use xlink:href="#SegoeUI-20" transform="translate(153.857422 0)"/>
       <use xlink:href="#SegoeUI-32" transform="translate(181.25 0)"/>
       <use xlink:href="#SegoeUI-30" transform="translate(235.15625 0)"/>
       <use xlink:href="#SegoeUI-32" transform="translate(289.0625 0)"/>
       <use xlink:href="#SegoeUI-30" transform="translate(342.96875 0)"/>
       <use xlink:href="#SegoeUI-2d" transform="translate(396.875 0)"/>
       <use xlink:href="#SegoeUI-32" transform="translate(436.865234 0)"/>
       <use xlink:href="#SegoeUI-30" transform="translate(490.771484 0)"/>
       <use xlink:href="#SegoeUI-32" transform="translate(544.677734 0)"/>
       <use xlink:href="#SegoeUI-36" transform="translate(598.583984 0)"/>
      </g>
     </g>
    </g>
    <g id="ytick_2">
     <g id="line2d_15">
      <path d="M 72.923594 256.772659
L 334.942031 256.772659
" clip-path="url(#pded3145eb2)" style="fill: none; stroke: #d9dee7; stroke-opacity: 0.55; stroke-width: 0.7; stroke-linecap: square"/>
     </g>
     <g id="line2d_16">
      <g>
       <use xlink:href="#md640689d5f" x="72.923594" y="256.772659" style="fill: #111827; stroke: #111827; stroke-width: 0.8"/>
      </g>
     </g>
     <g id="text_9">
      <!-- Pre-BTC ETF -->
      <g style="fill: #111827" transform="translate(18.784688 260.104065) scale(0.09 -0.09)">
       <defs>
        <path id="SegoeUI-50" d="M 1113 1694
L 1113 0
L 588 0
L 588 4481
L 1819 4481
Q 2538 4481 2933 4131
Q 3328 3781 3328 3144
Q 3328 2506 2889 2100
Q 2450 1694 1703 1694
L 1113 1694
z
M 1113 4006
L 1113 2169
L 1663 2169
Q 2206 2169 2492 2417
Q 2778 2666 2778 3119
Q 2778 4006 1728 4006
L 1113 4006
z
" transform="scale(0.015625)"/>
        <path id="SegoeUI-72" d="M 2188 2681
Q 2053 2784 1800 2784
Q 1472 2784 1251 2475
Q 1031 2166 1031 1631
L 1031 0
L 519 0
L 519 3200
L 1031 3200
L 1031 2541
L 1044 2541
Q 1153 2878 1378 3067
Q 1603 3256 1881 3256
Q 2081 3256 2188 3213
L 2188 2681
z
" transform="scale(0.015625)"/>
        <path id="SegoeUI-65" d="M 3091 1472
L 831 1472
Q 844 938 1119 647
Q 1394 356 1875 356
Q 2416 356 2869 713
L 2869 231
Q 2447 -75 1753 -75
Q 1075 -75 687 361
Q 300 797 300 1588
Q 300 2334 723 2804
Q 1147 3275 1775 3275
Q 2403 3275 2747 2869
Q 3091 2463 3091 1741
L 3091 1472
z
M 2566 1906
Q 2563 2350 2352 2597
Q 2141 2844 1766 2844
Q 1403 2844 1150 2584
Q 897 2325 838 1906
L 2566 1906
z
" transform="scale(0.015625)"/>
        <path id="SegoeUI-42" d="M 588 0
L 588 4481
L 1863 4481
Q 2444 4481 2784 4197
Q 3125 3913 3125 3456
Q 3125 3075 2919 2794
Q 2713 2513 2350 2394
L 2350 2381
Q 2803 2328 3075 2039
Q 3347 1750 3347 1288
Q 3347 713 2934 356
Q 2522 0 1894 0
L 588 0
z
M 1113 4006
L 1113 2559
L 1650 2559
Q 2081 2559 2328 2767
Q 2575 2975 2575 3353
Q 2575 4006 1716 4006
L 1113 4006
z
M 1113 2088
L 1113 475
L 1825 475
Q 2288 475 2542 694
Q 2797 913 2797 1294
Q 2797 2088 1716 2088
L 1113 2088
z
" transform="scale(0.015625)"/>
        <path id="SegoeUI-54" d="M 3238 4006
L 1944 4006
L 1944 0
L 1419 0
L 1419 4006
L 128 4006
L 128 4481
L 3238 4481
L 3238 4006
z
" transform="scale(0.015625)"/>
        <path id="SegoeUI-43" d="M 3638 188
Q 3141 -75 2400 -75
Q 1444 -75 869 540
Q 294 1156 294 2156
Q 294 3231 941 3893
Q 1588 4556 2581 4556
Q 3219 4556 3638 4372
L 3638 3813
Q 3156 4081 2575 4081
Q 1803 4081 1323 3565
Q 844 3050 844 2188
Q 844 1369 1292 883
Q 1741 397 2469 397
Q 3144 397 3638 697
L 3638 188
z
" transform="scale(0.015625)"/>
        <path id="SegoeUI-45" d="M 2963 0
L 588 0
L 588 4481
L 2863 4481
L 2863 4006
L 1113 4006
L 1113 2516
L 2731 2516
L 2731 2044
L 1113 2044
L 1113 475
L 2963 475
L 2963 0
z
" transform="scale(0.015625)"/>
       </defs>
       <use xlink:href="#SegoeUI-50"/>
       <use xlink:href="#SegoeUI-72" transform="translate(56.005859 0)"/>
       <use xlink:href="#SegoeUI-65" transform="translate(89.396484 0)"/>
       <use xlink:href="#SegoeUI-2d" transform="translate(141.691406 0)"/>
       <use xlink:href="#SegoeUI-42" transform="translate(181.681641 0)"/>
       <use xlink:href="#SegoeUI-54" transform="translate(234.505859 0)"/>
       <use xlink:href="#SegoeUI-43" transform="translate(282.398438 0)"/>
       <use xlink:href="#SegoeUI-20" transform="translate(344.3125 0)"/>
       <use xlink:href="#SegoeUI-45" transform="translate(371.705078 0)"/>
       <use xlink:href="#SegoeUI-54" transform="translate(422.541016 0)"/>
       <use xlink:href="#SegoeUI-46" transform="translate(474.933594 0)"/>
      </g>
     </g>
    </g>
    <g id="ytick_3">
     <g id="line2d_17">
      <path d="M 72.923594 217.971251
L 334.942031 217.971251
" clip-path="url(#pded3145eb2)" style="fill: none; stroke: #d9dee7; stroke-opacity: 0.55; stroke-width: 0.7; stroke-linecap: square"/>
     </g>
     <g id="line2d_18">
      <g>
       <use xlink:href="#md640689d5f" x="72.923594" y="217.971251" style="fill: #111827; stroke: #111827; stroke-width: 0.8"/>
      </g>
     </g>
     <g id="text_10">
      <!-- Post-BTC ETF -->
      <g style="fill: #111827" transform="translate(15.186094 221.302657) scale(0.09 -0.09)">
       <defs>
        <path id="SegoeUI-6f" d="M 1856 -75
Q 1147 -75 723 373
Q 300 822 300 1563
Q 300 2369 740 2822
Q 1181 3275 1931 3275
Q 2647 3275 3048 2834
Q 3450 2394 3450 1613
Q 3450 847 3017 386
Q 2584 -75 1856 -75
z
M 1894 2844
Q 1400 2844 1112 2508
Q 825 2172 825 1581
Q 825 1013 1115 684
Q 1406 356 1894 356
Q 2391 356 2658 678
Q 2925 1000 2925 1594
Q 2925 2194 2658 2519
Q 2391 2844 1894 2844
z
" transform="scale(0.015625)"/>
        <path id="SegoeUI-73" d="M 325 116
L 325 666
Q 744 356 1247 356
Q 1922 356 1922 806
Q 1922 934 1864 1023
Q 1806 1113 1707 1181
Q 1609 1250 1476 1304
Q 1344 1359 1191 1419
Q 978 1503 817 1589
Q 656 1675 548 1783
Q 441 1891 386 2028
Q 331 2166 331 2350
Q 331 2575 434 2748
Q 538 2922 709 3039
Q 881 3156 1101 3215
Q 1322 3275 1556 3275
Q 1972 3275 2300 3131
L 2300 2613
Q 1947 2844 1488 2844
Q 1344 2844 1228 2811
Q 1113 2778 1030 2718
Q 947 2659 901 2576
Q 856 2494 856 2394
Q 856 2269 901 2184
Q 947 2100 1034 2034
Q 1122 1969 1247 1916
Q 1372 1863 1531 1800
Q 1744 1719 1912 1633
Q 2081 1547 2200 1439
Q 2319 1331 2383 1190
Q 2447 1050 2447 856
Q 2447 619 2342 444
Q 2238 269 2063 153
Q 1888 38 1659 -18
Q 1431 -75 1181 -75
Q 688 -75 325 116
z
" transform="scale(0.015625)"/>
        <path id="SegoeUI-74" d="M 2003 31
Q 1822 -69 1525 -69
Q 684 -69 684 869
L 684 2763
L 134 2763
L 134 3200
L 684 3200
L 684 3981
L 1197 4147
L 1197 3200
L 2003 3200
L 2003 2763
L 1197 2763
L 1197 959
Q 1197 638 1306 500
Q 1416 363 1669 363
Q 1863 363 2003 469
L 2003 31
z
" transform="scale(0.015625)"/>
       </defs>
       <use xlink:href="#SegoeUI-50"/>
       <use xlink:href="#SegoeUI-6f" transform="translate(52.255859 0)"/>
       <use xlink:href="#SegoeUI-73" transform="translate(110.849609 0)"/>
       <use xlink:href="#SegoeUI-74" transform="translate(153.28125 0)"/>
       <use xlink:href="#SegoeUI-2d" transform="translate(181.667969 0)"/>
       <use xlink:href="#SegoeUI-42" transform="translate(221.658203 0)"/>
       <use xlink:href="#SegoeUI-54" transform="translate(274.482422 0)"/>
       <use xlink:href="#SegoeUI-43" transform="translate(322.375 0)"/>
       <use xlink:href="#SegoeUI-20" transform="translate(384.289062 0)"/>
       <use xlink:href="#SegoeUI-45" transform="translate(411.681641 0)"/>
       <use xlink:href="#SegoeUI-54" transform="translate(462.517578 0)"/>
       <use xlink:href="#SegoeUI-46" transform="translate(514.910156 0)"/>
      </g>
     </g>
    </g>
    <g id="ytick_4">
     <g id="line2d_19">
      <path d="M 72.923594 179.169843
L 334.942031 179.169843
" clip-path="url(#pded3145eb2)" style="fill: none; stroke: #d9dee7; stroke-opacity: 0.55; stroke-width: 0.7; stroke-linecap: square"/>
     </g>
     <g id="line2d_20">
      <g>
       <use xlink:href="#md640689d5f" x="72.923594" y="179.169843" style="fill: #111827; stroke: #111827; stroke-width: 0.8"/>
      </g>
     </g>
     <g id="text_11">
      <!-- 2024 -->
      <g style="fill: #111827" transform="translate(46.517344 182.501249) scale(0.09 -0.09)">
       <use xlink:href="#SegoeUI-32"/>
       <use xlink:href="#SegoeUI-30" transform="translate(53.90625 0)"/>
       <use xlink:href="#SegoeUI-32" transform="translate(107.8125 0)"/>
       <use xlink:href="#SegoeUI-34" transform="translate(161.71875 0)"/>
      </g>
     </g>
    </g>
    <g id="ytick_5">
     <g id="line2d_21">
      <path d="M 72.923594 140.368435
L 334.942031 140.368435
" clip-path="url(#pded3145eb2)" style="fill: none; stroke: #d9dee7; stroke-opacity: 0.55; stroke-width: 0.7; stroke-linecap: square"/>
     </g>
     <g id="line2d_22">
      <g>
       <use xlink:href="#md640689d5f" x="72.923594" y="140.368435" style="fill: #111827; stroke: #111827; stroke-width: 0.8"/>
      </g>
     </g>
     <g id="text_12">
      <!-- 2025 -->
      <g style="fill: #111827" transform="translate(46.517344 143.699841) scale(0.09 -0.09)">
       <defs>
        <path id="SegoeUI-35" d="M 3028 1369
Q 3028 1041 2915 775
Q 2803 509 2595 318
Q 2388 128 2094 25
Q 1800 -78 1441 -78
Q 816 -78 513 109
L 513 653
Q 969 359 1447 359
Q 1691 359 1886 431
Q 2081 503 2218 631
Q 2356 759 2429 940
Q 2503 1122 2503 1338
Q 2503 1775 2209 2023
Q 1916 2272 1356 2272
Q 1266 2272 1166 2269
Q 1066 2266 966 2261
Q 866 2256 770 2250
Q 675 2244 597 2234
L 750 4481
L 2822 4481
L 2822 4019
L 1194 4019
L 1103 2703
Q 1203 2709 1315 2714
Q 1428 2719 1516 2719
Q 1872 2719 2153 2625
Q 2434 2531 2629 2357
Q 2825 2184 2926 1932
Q 3028 1681 3028 1369
z
" transform="scale(0.015625)"/>
       </defs>
       <use xlink:href="#SegoeUI-32"/>
       <use xlink:href="#SegoeUI-30" transform="translate(53.90625 0)"/>
       <use xlink:href="#SegoeUI-32" transform="translate(107.8125 0)"/>
       <use xlink:href="#SegoeUI-35" transform="translate(161.71875 0)"/>
      </g>
     </g>
    </g>
    <g id="ytick_6">
     <g id="line2d_23">
      <path d="M 72.923594 101.567027
L 334.942031 101.567027
" clip-path="url(#pded3145eb2)" style="fill: none; stroke: #d9dee7; stroke-opacity: 0.55; stroke-width: 0.7; stroke-linecap: square"/>
     </g>
     <g id="line2d_24">
      <g>
       <use xlink:href="#md640689d5f" x="72.923594" y="101.567027" style="fill: #111827; stroke: #111827; stroke-width: 0.8"/>
      </g>
     </g>
     <g id="text_13">
      <!-- 2026 YTD -->
      <g style="fill: #111827" transform="translate(27.881719 104.898433) scale(0.09 -0.09)">
       <defs>
        <path id="SegoeUI-59" d="M 3500 4481
L 2022 1656
L 2022 0
L 1497 0
L 1497 1644
L 56 4481
L 653 4481
L 1656 2456
Q 1675 2419 1766 2181
L 1775 2181
Q 1806 2288 1894 2456
L 2944 4481
L 3500 4481
z
" transform="scale(0.015625)"/>
        <path id="SegoeUI-44" d="M 588 0
L 588 4481
L 1825 4481
Q 4194 4481 4194 2297
Q 4194 1259 3536 629
Q 2878 0 1775 0
L 588 0
z
M 1113 4006
L 1113 475
L 1781 475
Q 2663 475 3153 947
Q 3644 1419 3644 2284
Q 3644 4006 1813 4006
L 1113 4006
z
" transform="scale(0.015625)"/>
       </defs>
       <use xlink:href="#SegoeUI-32"/>
       <use xlink:href="#SegoeUI-30" transform="translate(53.90625 0)"/>
       <use xlink:href="#SegoeUI-32" transform="translate(107.8125 0)"/>
       <use xlink:href="#SegoeUI-36" transform="translate(161.71875 0)"/>
       <use xlink:href="#SegoeUI-20" transform="translate(215.625 0)"/>
       <use xlink:href="#SegoeUI-59" transform="translate(243.017578 0)"/>
       <use xlink:href="#SegoeUI-54" transform="translate(300.166016 0)"/>
       <use xlink:href="#SegoeUI-44" transform="translate(352.558594 0)"/>
      </g>
     </g>
    </g>
   </g>
   <g id="text_14">
    <!-- A. Standalone Model R² -->
    <g style="fill: #111827" transform="translate(72.923594 69.861094) scale(0.11 -0.11)">
     <defs>
      <path id="SegoeUI-41" d="M 4056 0
L 3475 0
L 3000 1256
L 1100 1256
L 653 0
L 69 0
L 1788 4481
L 2331 4481
L 4056 0
z
M 2828 1728
L 2125 3638
Q 2091 3731 2056 3938
L 2044 3938
Q 2013 3747 1972 3638
L 1275 1728
L 2828 1728
z
" transform="scale(0.015625)"/>
      <path id="SegoeUI-53" d="M 378 181
L 378 800
Q 484 706 632 631
Q 781 556 945 504
Q 1109 453 1275 425
Q 1441 397 1581 397
Q 2066 397 2305 576
Q 2544 756 2544 1094
Q 2544 1275 2464 1409
Q 2384 1544 2243 1655
Q 2103 1766 1911 1867
Q 1719 1969 1497 2081
Q 1263 2200 1059 2322
Q 856 2444 706 2591
Q 556 2738 470 2923
Q 384 3109 384 3359
Q 384 3666 518 3892
Q 653 4119 872 4266
Q 1091 4413 1370 4484
Q 1650 4556 1941 4556
Q 2603 4556 2906 4397
L 2906 3806
Q 2509 4081 1888 4081
Q 1716 4081 1544 4045
Q 1372 4009 1237 3928
Q 1103 3847 1018 3719
Q 934 3591 934 3406
Q 934 3234 998 3109
Q 1063 2984 1188 2881
Q 1313 2778 1492 2681
Q 1672 2584 1906 2469
Q 2147 2350 2362 2219
Q 2578 2088 2740 1928
Q 2903 1769 2998 1575
Q 3094 1381 3094 1131
Q 3094 800 2964 570
Q 2834 341 2614 197
Q 2394 53 2106 -11
Q 1819 -75 1500 -75
Q 1394 -75 1237 -58
Q 1081 -41 918 -8
Q 756 25 611 73
Q 466 122 378 181
z
" transform="scale(0.015625)"/>
      <path id="SegoeUI-61" d="M 2809 0
L 2297 0
L 2297 500
L 2284 500
Q 1950 -75 1300 -75
Q 822 -75 551 178
Q 281 431 281 850
Q 281 1747 1338 1894
L 2297 2028
Q 2297 2844 1638 2844
Q 1059 2844 594 2450
L 594 2975
Q 1066 3275 1681 3275
Q 2809 3275 2809 2081
L 2809 0
z
M 2297 1619
L 1525 1513
Q 1169 1463 987 1336
Q 806 1209 806 888
Q 806 653 973 504
Q 1141 356 1419 356
Q 1800 356 2048 623
Q 2297 891 2297 1300
L 2297 1619
z
" transform="scale(0.015625)"/>
      <path id="SegoeUI-6e" d="M 3175 0
L 2663 0
L 2663 1825
Q 2663 2844 1919 2844
Q 1534 2844 1282 2555
Q 1031 2266 1031 1825
L 1031 0
L 519 0
L 519 3200
L 1031 3200
L 1031 2669
L 1044 2669
Q 1406 3275 2094 3275
Q 2619 3275 2897 2936
Q 3175 2597 3175 1956
L 3175 0
z
" transform="scale(0.015625)"/>
      <path id="SegoeUI-64" d="M 3250 0
L 2738 0
L 2738 544
L 2725 544
Q 2369 -75 1625 -75
Q 1022 -75 661 354
Q 300 784 300 1525
Q 300 2319 700 2797
Q 1100 3275 1766 3275
Q 2425 3275 2725 2756
L 2738 2756
L 2738 4738
L 3250 4738
L 3250 0
z
M 2738 1447
L 2738 1919
Q 2738 2306 2481 2575
Q 2225 2844 1831 2844
Q 1363 2844 1094 2500
Q 825 2156 825 1550
Q 825 997 1083 676
Q 1341 356 1775 356
Q 2203 356 2470 665
Q 2738 975 2738 1447
z
" transform="scale(0.015625)"/>
      <path id="SegoeUI-4d" d="M 5156 0
L 4634 0
L 4634 3006
Q 4634 3363 4678 3878
L 4666 3878
Q 4591 3575 4531 3444
L 3000 0
L 2744 0
L 1216 3419
Q 1150 3569 1081 3878
L 1069 3878
Q 1094 3609 1094 3000
L 1094 0
L 588 0
L 588 4481
L 1281 4481
L 2656 1356
Q 2816 997 2863 819
L 2881 819
Q 3016 1188 3097 1369
L 4500 4481
L 5156 4481
L 5156 0
z
" transform="scale(0.015625)"/>
     </defs>
     <use xlink:href="#SegoeUI-41"/>
     <use xlink:href="#SegoeUI-2e" transform="translate(64.501953 0)"/>
     <use xlink:href="#SegoeUI-20" transform="translate(86.181641 0)"/>
     <use xlink:href="#SegoeUI-53" transform="translate(113.574219 0)"/>
     <use xlink:href="#SegoeUI-74" transform="translate(163.449219 0)"/>
     <use xlink:href="#SegoeUI-61" transform="translate(197.335938 0)"/>
     <use xlink:href="#SegoeUI-6e" transform="translate(248.214844 0)"/>
     <use xlink:href="#SegoeUI-64" transform="translate(304.806641 0)"/>
     <use xlink:href="#SegoeUI-61" transform="translate(363.693359 0)"/>
     <use xlink:href="#SegoeUI-6c" transform="translate(414.572266 0)"/>
     <use xlink:href="#SegoeUI-6f" transform="translate(438.791016 0)"/>
     <use xlink:href="#SegoeUI-6e" transform="translate(497.384766 0)"/>
     <use xlink:href="#SegoeUI-65" transform="translate(553.976562 0)"/>
     <use xlink:href="#SegoeUI-20" transform="translate(606.271484 0)"/>
     <use xlink:href="#SegoeUI-4d" transform="translate(633.664062 0)"/>
     <use xlink:href="#SegoeUI-6f" transform="translate(723.458984 0)"/>
     <use xlink:href="#SegoeUI-64" transform="translate(782.052734 0)"/>
     <use xlink:href="#SegoeUI-65" transform="translate(840.939453 0)"/>
     <use xlink:href="#SegoeUI-6c" transform="translate(893.234375 0)"/>
     <use xlink:href="#SegoeUI-20" transform="translate(917.453125 0)"/>
     <use xlink:href="#SegoeUI-52" transform="translate(944.845703 0)"/>
     <use xlink:href="#SegoeUI-b2" transform="translate(1004.660156 0)"/>
    </g>
   </g>
  </g>
  <g id="axes_2">
   <g id="patch_21">
    <path d="M 410.724531 321.28
L 672.742969 321.28
L 672.742969 75.861094
L 410.724531 75.861094
z
" style="fill: #fafaf7"/>
   </g>
   <g id="patch_22">
    <path d="M 410.724531 310.124595
L 613.736417 310.124595
L 613.736417 289.842041
L 410.724531 289.842041
z
" clip-path="url(#pf930fab727)" style="fill: #f7931a"/>
   </g>
   <g id="patch_23">
    <path d="M 410.724531 269.559487
L 609.570323 269.559487
L 609.570323 249.276932
L 410.724531 249.276932
z
" clip-path="url(#pf930fab727)" style="fill: #f7931a"/>
   </g>
   <g id="patch_24">
    <path d="M 410.724531 228.994378
L 621.020529 228.994378
L 621.020529 208.711824
L 410.724531 208.711824
z
" clip-path="url(#pf930fab727)" style="fill: #f7931a"/>
   </g>
   <g id="patch_25">
    <path d="M 410.724531 188.42927
L 624.58398 188.42927
L 624.58398 168.146716
L 410.724531 168.146716
z
" clip-path="url(#pf930fab727)" style="fill: #f7931a"/>
   </g>
   <g id="patch_26">
    <path d="M 410.724531 147.864161
L 611.535462 147.864161
L 611.535462 127.581607
L 410.724531 127.581607
z
" clip-path="url(#pf930fab727)" style="fill: #f7931a"/>
   </g>
   <g id="patch_27">
    <path d="M 410.724531 107.299053
L 554.441644 107.299053
L 554.441644 87.016499
L 410.724531 87.016499
z
" clip-path="url(#pf930fab727)" style="fill: #f7931a"/>
   </g>
   <g id="matplotlib.axis_3">
    <g id="xtick_7">
     <g id="line2d_25">
      <path d="M 410.724531 321.28
L 410.724531 75.861094
" clip-path="url(#pf930fab727)" style="fill: none; stroke: #d9dee7; stroke-opacity: 0.55; stroke-width: 0.7; stroke-linecap: square"/>
     </g>
     <g id="line2d_26">
      <g>
       <use xlink:href="#m3db6b3ffaa" x="410.724531" y="321.28" style="fill: #111827; stroke: #111827; stroke-width: 0.8"/>
      </g>
     </g>
     <g id="text_15">
      <!-- 0.0 -->
      <g style="fill: #111827" transform="translate(404.897031 334.942812) scale(0.09 -0.09)">
       <use xlink:href="#SegoeUI-30"/>
       <use xlink:href="#SegoeUI-2e" transform="translate(53.90625 0)"/>
       <use xlink:href="#SegoeUI-30" transform="translate(75.585938 0)"/>
      </g>
     </g>
    </g>
    <g id="xtick_8">
     <g id="line2d_27">
      <path d="M 463.128219 321.28
L 463.128219 75.861094
" clip-path="url(#pf930fab727)" style="fill: none; stroke: #d9dee7; stroke-opacity: 0.55; stroke-width: 0.7; stroke-linecap: square"/>
     </g>
     <g id="line2d_28">
      <g>
       <use xlink:href="#m3db6b3ffaa" x="463.128219" y="321.28" style="fill: #111827; stroke: #111827; stroke-width: 0.8"/>
      </g>
     </g>
     <g id="text_16">
      <!-- 0.2 -->
      <g style="fill: #111827" transform="translate(457.300719 334.942812) scale(0.09 -0.09)">
       <use xlink:href="#SegoeUI-30"/>
       <use xlink:href="#SegoeUI-2e" transform="translate(53.90625 0)"/>
       <use xlink:href="#SegoeUI-32" transform="translate(75.585938 0)"/>
      </g>
     </g>
    </g>
    <g id="xtick_9">
     <g id="line2d_29">
      <path d="M 515.531906 321.28
L 515.531906 75.861094
" clip-path="url(#pf930fab727)" style="fill: none; stroke: #d9dee7; stroke-opacity: 0.55; stroke-width: 0.7; stroke-linecap: square"/>
     </g>
     <g id="line2d_30">
      <g>
       <use xlink:href="#m3db6b3ffaa" x="515.531906" y="321.28" style="fill: #111827; stroke: #111827; stroke-width: 0.8"/>
      </g>
     </g>
     <g id="text_17">
      <!-- 0.4 -->
      <g style="fill: #111827" transform="translate(509.704406 334.942812) scale(0.09 -0.09)">
       <use xlink:href="#SegoeUI-30"/>
       <use xlink:href="#SegoeUI-2e" transform="translate(53.90625 0)"/>
       <use xlink:href="#SegoeUI-34" transform="translate(75.585938 0)"/>
      </g>
     </g>
    </g>
    <g id="xtick_10">
     <g id="line2d_31">
      <path d="M 567.935594 321.28
L 567.935594 75.861094
" clip-path="url(#pf930fab727)" style="fill: none; stroke: #d9dee7; stroke-opacity: 0.55; stroke-width: 0.7; stroke-linecap: square"/>
     </g>
     <g id="line2d_32">
      <g>
       <use xlink:href="#m3db6b3ffaa" x="567.935594" y="321.28" style="fill: #111827; stroke: #111827; stroke-width: 0.8"/>
      </g>
     </g>
     <g id="text_18">
      <!-- 0.6 -->
      <g style="fill: #111827" transform="translate(562.108094 334.942812) scale(0.09 -0.09)">
       <use xlink:href="#SegoeUI-30"/>
       <use xlink:href="#SegoeUI-2e" transform="translate(53.90625 0)"/>
       <use xlink:href="#SegoeUI-36" transform="translate(75.585938 0)"/>
      </g>
     </g>
    </g>
    <g id="xtick_11">
     <g id="line2d_33">
      <path d="M 620.339281 321.28
L 620.339281 75.861094
" clip-path="url(#pf930fab727)" style="fill: none; stroke: #d9dee7; stroke-opacity: 0.55; stroke-width: 0.7; stroke-linecap: square"/>
     </g>
     <g id="line2d_34">
      <g>
       <use xlink:href="#m3db6b3ffaa" x="620.339281" y="321.28" style="fill: #111827; stroke: #111827; stroke-width: 0.8"/>
      </g>
     </g>
     <g id="text_19">
      <!-- 0.8 -->
      <g style="fill: #111827" transform="translate(614.511781 334.942812) scale(0.09 -0.09)">
       <use xlink:href="#SegoeUI-30"/>
       <use xlink:href="#SegoeUI-2e" transform="translate(53.90625 0)"/>
       <use xlink:href="#SegoeUI-38" transform="translate(75.585938 0)"/>
      </g>
     </g>
    </g>
    <g id="xtick_12">
     <g id="line2d_35">
      <path d="M 672.742969 321.28
L 672.742969 75.861094
" clip-path="url(#pf930fab727)" style="fill: none; stroke: #d9dee7; stroke-opacity: 0.55; stroke-width: 0.7; stroke-linecap: square"/>
     </g>
     <g id="line2d_36">
      <g>
       <use xlink:href="#m3db6b3ffaa" x="672.742969" y="321.28" style="fill: #111827; stroke: #111827; stroke-width: 0.8"/>
      </g>
     </g>
     <g id="text_20">
      <!-- 1.0 -->
      <g style="fill: #111827" transform="translate(666.915469 334.942812) scale(0.09 -0.09)">
       <use xlink:href="#SegoeUI-31"/>
       <use xlink:href="#SegoeUI-2e" transform="translate(53.90625 0)"/>
       <use xlink:href="#SegoeUI-30" transform="translate(75.585938 0)"/>
      </g>
     </g>
    </g>
    <g id="text_21">
     <!-- ΔR² -->
     <g style="fill: #6b7280" transform="translate(533.689219 348.415937) scale(0.1 -0.1)">
      <defs>
       <path id="SegoeUI-394" d="M 3975 0
L 159 0
L 159 238
L 1788 4481
L 2331 4481
L 3975 238
L 3975 0
z
M 3303 475
L 2175 3500
Q 2072 3775 2056 3944
L 2044 3944
Q 2025 3794 1919 3500
L 819 475
L 3303 475
z
" transform="scale(0.015625)"/>
      </defs>
      <use xlink:href="#SegoeUI-394"/>
      <use xlink:href="#SegoeUI-52" transform="translate(64.453125 0)"/>
      <use xlink:href="#SegoeUI-b2" transform="translate(124.267578 0)"/>
     </g>
    </g>
   </g>
   <g id="matplotlib.axis_4">
    <g id="ytick_7">
     <g id="line2d_37">
      <path d="M 410.724531 299.983318
L 672.742969 299.983318
" clip-path="url(#pf930fab727)" style="fill: none; stroke: #d9dee7; stroke-opacity: 0.55; stroke-width: 0.7; stroke-linecap: square"/>
     </g>
     <g id="line2d_38">
      <g>
       <use xlink:href="#md640689d5f" x="410.724531" y="299.983318" style="fill: #111827; stroke: #111827; stroke-width: 0.8"/>
      </g>
     </g>
     <g id="text_22">
      <!-- Full 2020-2026 -->
      <g style="fill: #111827" transform="translate(345.000937 303.314724) scale(0.09 -0.09)">
       <use xlink:href="#SegoeUI-46"/>
       <use xlink:href="#SegoeUI-75" transform="translate(48.828125 0)"/>
       <use xlink:href="#SegoeUI-6c" transform="translate(105.419922 0)"/>
       <use xlink:href="#SegoeUI-6c" transform="translate(129.638672 0)"/>
       <use xlink:href="#SegoeUI-20" transform="translate(153.857422 0)"/>
       <use xlink:href="#SegoeUI-32" transform="translate(181.25 0)"/>
       <use xlink:href="#SegoeUI-30" transform="translate(235.15625 0)"/>
       <use xlink:href="#SegoeUI-32" transform="translate(289.0625 0)"/>
       <use xlink:href="#SegoeUI-30" transform="translate(342.96875 0)"/>
       <use xlink:href="#SegoeUI-2d" transform="translate(396.875 0)"/>
       <use xlink:href="#SegoeUI-32" transform="translate(436.865234 0)"/>
       <use xlink:href="#SegoeUI-30" transform="translate(490.771484 0)"/>
       <use xlink:href="#SegoeUI-32" transform="translate(544.677734 0)"/>
       <use xlink:href="#SegoeUI-36" transform="translate(598.583984 0)"/>
      </g>
     </g>
    </g>
    <g id="ytick_8">
     <g id="line2d_39">
      <path d="M 410.724531 259.41821
L 672.742969 259.41821
" clip-path="url(#pf930fab727)" style="fill: none; stroke: #d9dee7; stroke-opacity: 0.55; stroke-width: 0.7; stroke-linecap: square"/>
     </g>
     <g id="line2d_40">
      <g>
       <use xlink:href="#md640689d5f" x="410.724531" y="259.41821" style="fill: #111827; stroke: #111827; stroke-width: 0.8"/>
      </g>
     </g>
     <g id="text_23">
      <!-- Pre-BTC ETF -->
      <g style="fill: #111827" transform="translate(356.585625 262.749616) scale(0.09 -0.09)">
       <use xlink:href="#SegoeUI-50"/>
       <use xlink:href="#SegoeUI-72" transform="translate(56.005859 0)"/>
       <use xlink:href="#SegoeUI-65" transform="translate(89.396484 0)"/>
       <use xlink:href="#SegoeUI-2d" transform="translate(141.691406 0)"/>
       <use xlink:href="#SegoeUI-42" transform="translate(181.681641 0)"/>
       <use xlink:href="#SegoeUI-54" transform="translate(234.505859 0)"/>
       <use xlink:href="#SegoeUI-43" transform="translate(282.398438 0)"/>
       <use xlink:href="#SegoeUI-20" transform="translate(344.3125 0)"/>
       <use xlink:href="#SegoeUI-45" transform="translate(371.705078 0)"/>
       <use xlink:href="#SegoeUI-54" transform="translate(422.541016 0)"/>
       <use xlink:href="#SegoeUI-46" transform="translate(474.933594 0)"/>
      </g>
     </g>
    </g>
    <g id="ytick_9">
     <g id="line2d_41">
      <path d="M 410.724531 218.853101
L 672.742969 218.853101
" clip-path="url(#pf930fab727)" style="fill: none; stroke: #d9dee7; stroke-opacity: 0.55; stroke-width: 0.7; stroke-linecap: square"/>
     </g>
     <g id="line2d_42">
      <g>
       <use xlink:href="#md640689d5f" x="410.724531" y="218.853101" style="fill: #111827; stroke: #111827; stroke-width: 0.8"/>
      </g>
     </g>
     <g id="text_24">
      <!-- Post-BTC ETF -->
      <g style="fill: #111827" transform="translate(352.987031 222.184507) scale(0.09 -0.09)">
       <use xlink:href="#SegoeUI-50"/>
       <use xlink:href="#SegoeUI-6f" transform="translate(52.255859 0)"/>
       <use xlink:href="#SegoeUI-73" transform="translate(110.849609 0)"/>
       <use xlink:href="#SegoeUI-74" transform="translate(153.28125 0)"/>
       <use xlink:href="#SegoeUI-2d" transform="translate(181.667969 0)"/>
       <use xlink:href="#SegoeUI-42" transform="translate(221.658203 0)"/>
       <use xlink:href="#SegoeUI-54" transform="translate(274.482422 0)"/>
       <use xlink:href="#SegoeUI-43" transform="translate(322.375 0)"/>
       <use xlink:href="#SegoeUI-20" transform="translate(384.289062 0)"/>
       <use xlink:href="#SegoeUI-45" transform="translate(411.681641 0)"/>
       <use xlink:href="#SegoeUI-54" transform="translate(462.517578 0)"/>
       <use xlink:href="#SegoeUI-46" transform="translate(514.910156 0)"/>
      </g>
     </g>
    </g>
    <g id="ytick_10">
     <g id="line2d_43">
      <path d="M 410.724531 178.287993
L 672.742969 178.287993
" clip-path="url(#pf930fab727)" style="fill: none; stroke: #d9dee7; stroke-opacity: 0.55; stroke-width: 0.7; stroke-linecap: square"/>
     </g>
     <g id="line2d_44">
      <g>
       <use xlink:href="#md640689d5f" x="410.724531" y="178.287993" style="fill: #111827; stroke: #111827; stroke-width: 0.8"/>
      </g>
     </g>
     <g id="text_25">
      <!-- 2024 -->
      <g style="fill: #111827" transform="translate(384.318281 181.619399) scale(0.09 -0.09)">
       <use xlink:href="#SegoeUI-32"/>
       <use xlink:href="#SegoeUI-30" transform="translate(53.90625 0)"/>
       <use xlink:href="#SegoeUI-32" transform="translate(107.8125 0)"/>
       <use xlink:href="#SegoeUI-34" transform="translate(161.71875 0)"/>
      </g>
     </g>
    </g>
    <g id="ytick_11">
     <g id="line2d_45">
      <path d="M 410.724531 137.722884
L 672.742969 137.722884
" clip-path="url(#pf930fab727)" style="fill: none; stroke: #d9dee7; stroke-opacity: 0.55; stroke-width: 0.7; stroke-linecap: square"/>
     </g>
     <g id="line2d_46">
      <g>
       <use xlink:href="#md640689d5f" x="410.724531" y="137.722884" style="fill: #111827; stroke: #111827; stroke-width: 0.8"/>
      </g>
     </g>
     <g id="text_26">
      <!-- 2025 -->
      <g style="fill: #111827" transform="translate(384.318281 141.05429) scale(0.09 -0.09)">
       <use xlink:href="#SegoeUI-32"/>
       <use xlink:href="#SegoeUI-30" transform="translate(53.90625 0)"/>
       <use xlink:href="#SegoeUI-32" transform="translate(107.8125 0)"/>
       <use xlink:href="#SegoeUI-35" transform="translate(161.71875 0)"/>
      </g>
     </g>
    </g>
    <g id="ytick_12">
     <g id="line2d_47">
      <path d="M 410.724531 97.157776
L 672.742969 97.157776
" clip-path="url(#pf930fab727)" style="fill: none; stroke: #d9dee7; stroke-opacity: 0.55; stroke-width: 0.7; stroke-linecap: square"/>
     </g>
     <g id="line2d_48">
      <g>
       <use xlink:href="#md640689d5f" x="410.724531" y="97.157776" style="fill: #111827; stroke: #111827; stroke-width: 0.8"/>
      </g>
     </g>
     <g id="text_27">
      <!-- 2026 YTD -->
      <g style="fill: #111827" transform="translate(365.682656 100.489182) scale(0.09 -0.09)">
       <use xlink:href="#SegoeUI-32"/>
       <use xlink:href="#SegoeUI-30" transform="translate(53.90625 0)"/>
       <use xlink:href="#SegoeUI-32" transform="translate(107.8125 0)"/>
       <use xlink:href="#SegoeUI-36" transform="translate(161.71875 0)"/>
       <use xlink:href="#SegoeUI-20" transform="translate(215.625 0)"/>
       <use xlink:href="#SegoeUI-59" transform="translate(243.017578 0)"/>
       <use xlink:href="#SegoeUI-54" transform="translate(300.166016 0)"/>
       <use xlink:href="#SegoeUI-44" transform="translate(352.558594 0)"/>
      </g>
     </g>
    </g>
   </g>
   <g id="text_28">
    <!-- 0.775 -->
    <g style="fill: #111827" transform="translate(616.356601 302.279724) scale(0.09 -0.09)">
     <defs>
      <path id="SegoeUI-37" d="M 3156 4184
Q 3053 4006 2908 3740
Q 2763 3475 2600 3144
Q 2438 2813 2269 2431
Q 2100 2050 1953 1644
Q 1806 1238 1695 820
Q 1584 403 1534 0
L 984 0
Q 1041 400 1158 817
Q 1275 1234 1423 1636
Q 1572 2038 1737 2409
Q 1903 2781 2059 3093
Q 2216 3406 2345 3645
Q 2475 3884 2553 4019
L 306 4019
L 306 4481
L 3156 4481
L 3156 4184
z
" transform="scale(0.015625)"/>
     </defs>
     <use xlink:href="#SegoeUI-30"/>
     <use xlink:href="#SegoeUI-2e" transform="translate(53.90625 0)"/>
     <use xlink:href="#SegoeUI-37" transform="translate(75.585938 0)"/>
     <use xlink:href="#SegoeUI-37" transform="translate(129.492188 0)"/>
     <use xlink:href="#SegoeUI-35" transform="translate(183.398438 0)"/>
    </g>
   </g>
   <g id="text_29">
    <!-- 0.759 -->
    <g style="fill: #111827" transform="translate(612.190508 261.714616) scale(0.09 -0.09)">
     <defs>
      <path id="SegoeUI-39" d="M 3138 2509
Q 3138 1894 3016 1414
Q 2894 934 2659 601
Q 2425 269 2087 95
Q 1750 -78 1319 -78
Q 875 -78 538 78
L 538 569
Q 909 359 1331 359
Q 1634 359 1873 484
Q 2113 609 2278 848
Q 2444 1088 2531 1438
Q 2619 1788 2619 2241
L 2606 2241
Q 2319 1663 1606 1663
Q 1319 1663 1078 1764
Q 838 1866 663 2052
Q 488 2238 391 2494
Q 294 2750 294 3059
Q 294 3391 401 3666
Q 509 3941 701 4139
Q 894 4338 1158 4447
Q 1422 4556 1734 4556
Q 2072 4556 2333 4420
Q 2594 4284 2772 4023
Q 2950 3763 3044 3381
Q 3138 3000 3138 2509
z
M 2584 2969
Q 2584 3228 2517 3440
Q 2450 3653 2331 3804
Q 2213 3956 2048 4039
Q 1884 4122 1691 4122
Q 1506 4122 1347 4048
Q 1188 3975 1070 3842
Q 953 3709 886 3526
Q 819 3344 819 3128
Q 819 2891 883 2703
Q 947 2516 1065 2386
Q 1184 2256 1351 2187
Q 1519 2119 1722 2119
Q 1900 2119 2058 2186
Q 2216 2253 2333 2367
Q 2450 2481 2517 2636
Q 2584 2791 2584 2969
z
" transform="scale(0.015625)"/>
     </defs>
     <use xlink:href="#SegoeUI-30"/>
     <use xlink:href="#SegoeUI-2e" transform="translate(53.90625 0)"/>
     <use xlink:href="#SegoeUI-37" transform="translate(75.585938 0)"/>
     <use xlink:href="#SegoeUI-35" transform="translate(129.492188 0)"/>
     <use xlink:href="#SegoeUI-39" transform="translate(183.398438 0)"/>
    </g>
   </g>
   <g id="text_30">
    <!-- 0.803 -->
    <g style="fill: #111827" transform="translate(623.640714 221.149507) scale(0.09 -0.09)">
     <defs>
      <path id="SegoeUI-33" d="M 2978 1269
Q 2978 966 2864 717
Q 2750 469 2542 292
Q 2334 116 2043 19
Q 1753 -78 1403 -78
Q 763 -78 384 166
L 384 716
Q 838 359 1422 359
Q 1656 359 1845 418
Q 2034 478 2170 590
Q 2306 703 2379 862
Q 2453 1022 2453 1222
Q 2453 2100 1203 2100
L 831 2100
L 831 2534
L 1184 2534
Q 2291 2534 2291 3359
Q 2291 4122 1447 4122
Q 972 4122 556 3803
L 556 4300
Q 984 4556 1575 4556
Q 1856 4556 2084 4478
Q 2313 4400 2475 4259
Q 2638 4119 2727 3922
Q 2816 3725 2816 3488
Q 2816 2603 1922 2350
L 1922 2338
Q 2150 2313 2344 2227
Q 2538 2141 2678 2003
Q 2819 1866 2898 1680
Q 2978 1494 2978 1269
z
" transform="scale(0.015625)"/>
     </defs>
     <use xlink:href="#SegoeUI-30"/>
     <use xlink:href="#SegoeUI-2e" transform="translate(53.90625 0)"/>
     <use xlink:href="#SegoeUI-38" transform="translate(75.585938 0)"/>
     <use xlink:href="#SegoeUI-30" transform="translate(129.492188 0)"/>
     <use xlink:href="#SegoeUI-33" transform="translate(183.398438 0)"/>
    </g>
   </g>
   <g id="text_31">
    <!-- 0.816 -->
    <g style="fill: #111827" transform="translate(627.204164 180.584399) scale(0.09 -0.09)">
     <use xlink:href="#SegoeUI-30"/>
     <use xlink:href="#SegoeUI-2e" transform="translate(53.90625 0)"/>
     <use xlink:href="#SegoeUI-38" transform="translate(75.585938 0)"/>
     <use xlink:href="#SegoeUI-31" transform="translate(129.492188 0)"/>
     <use xlink:href="#SegoeUI-36" transform="translate(183.398438 0)"/>
    </g>
   </g>
   <g id="text_32">
    <!-- 0.766 -->
    <g style="fill: #111827" transform="translate(614.155646 140.01929) scale(0.09 -0.09)">
     <use xlink:href="#SegoeUI-30"/>
     <use xlink:href="#SegoeUI-2e" transform="translate(53.90625 0)"/>
     <use xlink:href="#SegoeUI-37" transform="translate(75.585938 0)"/>
     <use xlink:href="#SegoeUI-36" transform="translate(129.492188 0)"/>
     <use xlink:href="#SegoeUI-36" transform="translate(183.398438 0)"/>
    </g>
   </g>
   <g id="text_33">
    <!-- 0.548 -->
    <g style="fill: #111827" transform="translate(557.061829 99.454182) scale(0.09 -0.09)">
     <use xlink:href="#SegoeUI-30"/>
     <use xlink:href="#SegoeUI-2e" transform="translate(53.90625 0)"/>
     <use xlink:href="#SegoeUI-35" transform="translate(75.585938 0)"/>
     <use xlink:href="#SegoeUI-34" transform="translate(129.492188 0)"/>
     <use xlink:href="#SegoeUI-38" transform="translate(183.398438 0)"/>
    </g>
   </g>
   <g id="text_34">
    <!-- B. ΔR² from Removing MVRV -->
    <g style="fill: #111827" transform="translate(410.724531 69.861094) scale(0.11 -0.11)">
     <defs>
      <path id="SegoeUI-66" d="M 2100 4288
Q 1950 4372 1759 4372
Q 1222 4372 1222 3694
L 1222 3200
L 1972 3200
L 1972 2763
L 1222 2763
L 1222 0
L 713 0
L 713 2763
L 166 2763
L 166 3200
L 713 3200
L 713 3719
Q 713 4222 1003 4514
Q 1294 4806 1728 4806
Q 1963 4806 2100 4750
L 2100 4288
z
" transform="scale(0.015625)"/>
      <path id="SegoeUI-6d" d="M 5063 0
L 4550 0
L 4550 1838
Q 4550 2369 4386 2606
Q 4222 2844 3834 2844
Q 3506 2844 3276 2544
Q 3047 2244 3047 1825
L 3047 0
L 2534 0
L 2534 1900
Q 2534 2844 1806 2844
Q 1469 2844 1250 2561
Q 1031 2278 1031 1825
L 1031 0
L 519 0
L 519 3200
L 1031 3200
L 1031 2694
L 1044 2694
Q 1384 3275 2038 3275
Q 2366 3275 2609 3092
Q 2853 2909 2944 2613
Q 3300 3275 4006 3275
Q 5063 3275 5063 1972
L 5063 0
z
" transform="scale(0.015625)"/>
      <path id="SegoeUI-76" d="M 3034 3200
L 1759 0
L 1256 0
L 44 3200
L 606 3200
L 1419 875
Q 1509 619 1531 428
L 1544 428
Q 1575 669 1644 863
L 2494 3200
L 3034 3200
z
" transform="scale(0.015625)"/>
      <path id="SegoeUI-69" d="M 781 4013
Q 644 4013 547 4106
Q 450 4200 450 4344
Q 450 4488 547 4583
Q 644 4678 781 4678
Q 922 4678 1020 4583
Q 1119 4488 1119 4344
Q 1119 4206 1020 4109
Q 922 4013 781 4013
z
M 1031 0
L 519 0
L 519 3200
L 1031 3200
L 1031 0
z
" transform="scale(0.015625)"/>
      <path id="SegoeUI-67" d="M 3250 256
Q 3250 -1506 1563 -1506
Q 969 -1506 525 -1281
L 525 -769
Q 1066 -1069 1556 -1069
Q 2738 -1069 2738 188
L 2738 538
L 2725 538
Q 2359 -75 1625 -75
Q 1028 -75 664 351
Q 300 778 300 1497
Q 300 2313 692 2794
Q 1084 3275 1766 3275
Q 2413 3275 2725 2756
L 2738 2756
L 2738 3200
L 3250 3200
L 3250 256
z
M 2738 1447
L 2738 1919
Q 2738 2300 2480 2572
Q 2222 2844 1838 2844
Q 1363 2844 1094 2498
Q 825 2153 825 1531
Q 825 997 1083 676
Q 1341 356 1766 356
Q 2197 356 2467 662
Q 2738 969 2738 1447
z
" transform="scale(0.015625)"/>
      <path id="SegoeUI-56" d="M 3919 4481
L 2259 0
L 1681 0
L 56 4481
L 641 4481
L 1881 928
Q 1941 756 1972 531
L 1984 531
Q 2009 719 2088 934
L 3353 4481
L 3919 4481
z
" transform="scale(0.015625)"/>
     </defs>
     <use xlink:href="#SegoeUI-42"/>
     <use xlink:href="#SegoeUI-2e" transform="translate(57.324219 0)"/>
     <use xlink:href="#SegoeUI-20" transform="translate(79.003906 0)"/>
     <use xlink:href="#SegoeUI-394" transform="translate(106.396484 0)"/>
     <use xlink:href="#SegoeUI-52" transform="translate(170.849609 0)"/>
     <use xlink:href="#SegoeUI-b2" transform="translate(230.664062 0)"/>
     <use xlink:href="#SegoeUI-20" transform="translate(267.285156 0)"/>
     <use xlink:href="#SegoeUI-66" transform="translate(294.677734 0)"/>
     <use xlink:href="#SegoeUI-72" transform="translate(325.976562 0)"/>
     <use xlink:href="#SegoeUI-6f" transform="translate(359.367188 0)"/>
     <use xlink:href="#SegoeUI-6d" transform="translate(417.960938 0)"/>
     <use xlink:href="#SegoeUI-20" transform="translate(504.09375 0)"/>
     <use xlink:href="#SegoeUI-52" transform="translate(531.486328 0)"/>
     <use xlink:href="#SegoeUI-65" transform="translate(588.550781 0)"/>
     <use xlink:href="#SegoeUI-6d" transform="translate(640.845703 0)"/>
     <use xlink:href="#SegoeUI-6f" transform="translate(726.978516 0)"/>
     <use xlink:href="#SegoeUI-76" transform="translate(785.572266 0)"/>
     <use xlink:href="#SegoeUI-69" transform="translate(833.472656 0)"/>
     <use xlink:href="#SegoeUI-6e" transform="translate(857.691406 0)"/>
     <use xlink:href="#SegoeUI-67" transform="translate(914.283203 0)"/>
     <use xlink:href="#SegoeUI-20" transform="translate(973.169922 0)"/>
     <use xlink:href="#SegoeUI-4d" transform="translate(1000.5625 0)"/>
     <use xlink:href="#SegoeUI-56" transform="translate(1090.357422 0)"/>
     <use xlink:href="#SegoeUI-52" transform="translate(1152.466797 0)"/>
     <use xlink:href="#SegoeUI-56" transform="translate(1212.28125 0)"/>
    </g>
   </g>
  </g>
  <g id="text_35">
   <!-- BTC MVRV Sensitivity by Regime -->
   <g style="fill: #111827" transform="translate(235.040625 17.564375) scale(0.14 -0.14)">
    <defs>
     <path id="SegoeUI-Bold-42" d="M 513 0
L 513 4481
L 2144 4481
Q 2894 4481 3297 4206
Q 3700 3931 3700 3431
Q 3700 3069 3454 2797
Q 3209 2525 2828 2419
L 2828 2406
Q 3306 2347 3592 2053
Q 3878 1759 3878 1338
Q 3878 722 3437 361
Q 2997 0 2234 0
L 513 0
z
M 1522 3738
L 1522 2675
L 1966 2675
Q 2278 2675 2458 2826
Q 2638 2978 2638 3244
Q 2638 3738 1900 3738
L 1522 3738
z
M 1522 1925
L 1522 744
L 2069 744
Q 2419 744 2617 906
Q 2816 1069 2816 1350
Q 2816 1619 2620 1772
Q 2425 1925 2075 1925
L 1522 1925
z
" transform="scale(0.015625)"/>
     <path id="SegoeUI-Bold-54" d="M 3659 3659
L 2381 3659
L 2381 0
L 1369 0
L 1369 3659
L 97 3659
L 97 4481
L 3659 4481
L 3659 3659
z
" transform="scale(0.015625)"/>
     <path id="SegoeUI-Bold-43" d="M 3725 159
Q 3234 -78 2444 -78
Q 1413 -78 822 528
Q 231 1134 231 2144
Q 231 3219 895 3887
Q 1559 4556 2619 4556
Q 3275 4556 3725 4391
L 3725 3419
Q 3275 3688 2700 3688
Q 2069 3688 1681 3291
Q 1294 2894 1294 2216
Q 1294 1566 1659 1180
Q 2025 794 2644 794
Q 3234 794 3725 1081
L 3725 159
z
" transform="scale(0.015625)"/>
     <path id="SegoeUI-Bold-20" transform="scale(0.015625)"/>
     <path id="SegoeUI-Bold-4d" d="M 5619 0
L 4622 0
L 4622 2681
Q 4622 3116 4659 3641
L 4634 3641
Q 4556 3228 4494 3047
L 3444 0
L 2619 0
L 1550 3016
Q 1506 3138 1409 3641
L 1381 3641
Q 1422 2978 1422 2478
L 1422 0
L 513 0
L 513 4481
L 1991 4481
L 2906 1825
Q 3016 1506 3066 1184
L 3084 1184
Q 3169 1556 3263 1831
L 4178 4481
L 5619 4481
L 5619 0
z
" transform="scale(0.015625)"/>
     <path id="SegoeUI-Bold-56" d="M 4244 4481
L 2700 0
L 1556 0
L 31 4481
L 1119 4481
L 2053 1363
Q 2128 1109 2144 916
L 2163 916
Q 2184 1125 2259 1375
L 3188 4481
L 4244 4481
z
" transform="scale(0.015625)"/>
     <path id="SegoeUI-Bold-52" d="M 4272 0
L 3113 0
L 2416 1153
Q 2338 1284 2266 1387
Q 2194 1491 2120 1564
Q 2047 1638 1967 1677
Q 1888 1716 1794 1716
L 1522 1716
L 1522 0
L 513 0
L 513 4481
L 2113 4481
Q 3744 4481 3744 3263
Q 3744 3028 3672 2829
Q 3600 2631 3469 2472
Q 3338 2313 3152 2197
Q 2966 2081 2738 2016
L 2738 2003
Q 2838 1972 2931 1901
Q 3025 1831 3112 1737
Q 3200 1644 3279 1536
Q 3359 1428 3425 1325
L 4272 0
z
M 1522 3725
L 1522 2478
L 1959 2478
Q 2284 2478 2481 2666
Q 2681 2856 2681 3138
Q 2681 3725 1978 3725
L 1522 3725
z
" transform="scale(0.015625)"/>
     <path id="SegoeUI-Bold-53" d="M 306 172
L 306 1172
Q 578 944 897 830
Q 1216 716 1541 716
Q 1731 716 1873 750
Q 2016 784 2111 845
Q 2206 906 2253 989
Q 2300 1072 2300 1169
Q 2300 1300 2225 1403
Q 2150 1506 2020 1593
Q 1891 1681 1712 1762
Q 1534 1844 1328 1928
Q 803 2147 545 2462
Q 288 2778 288 3225
Q 288 3575 428 3826
Q 569 4078 811 4240
Q 1053 4403 1372 4479
Q 1691 4556 2047 4556
Q 2397 4556 2667 4514
Q 2938 4472 3166 4384
L 3166 3450
Q 3053 3528 2920 3587
Q 2788 3647 2647 3686
Q 2506 3725 2367 3744
Q 2228 3763 2103 3763
Q 1931 3763 1790 3730
Q 1650 3697 1553 3637
Q 1456 3578 1403 3495
Q 1350 3413 1350 3309
Q 1350 3197 1409 3108
Q 1469 3019 1578 2939
Q 1688 2859 1844 2782
Q 2000 2706 2197 2625
Q 2466 2513 2680 2386
Q 2894 2259 3047 2100
Q 3200 1941 3281 1736
Q 3363 1531 3363 1259
Q 3363 884 3220 629
Q 3078 375 2834 217
Q 2591 59 2267 -9
Q 1944 -78 1584 -78
Q 1216 -78 883 -15
Q 550 47 306 172
z
" transform="scale(0.015625)"/>
     <path id="SegoeUI-Bold-65" d="M 3291 1319
L 1203 1319
Q 1253 622 2081 622
Q 2609 622 3009 872
L 3009 159
Q 2566 -78 1856 -78
Q 1081 -78 653 351
Q 225 781 225 1550
Q 225 2347 687 2812
Q 1150 3278 1825 3278
Q 2525 3278 2908 2862
Q 3291 2447 3291 1734
L 3291 1319
z
M 2375 1925
Q 2375 2613 1819 2613
Q 1581 2613 1407 2416
Q 1234 2219 1197 1925
L 2375 1925
z
" transform="scale(0.015625)"/>
     <path id="SegoeUI-Bold-6e" d="M 3506 0
L 2522 0
L 2522 1778
Q 2522 2522 1991 2522
Q 1734 2522 1568 2325
Q 1403 2128 1403 1825
L 1403 0
L 416 0
L 416 3200
L 1403 3200
L 1403 2694
L 1416 2694
Q 1769 3278 2444 3278
Q 3506 3278 3506 1959
L 3506 0
z
" transform="scale(0.015625)"/>
     <path id="SegoeUI-Bold-73" d="M 206 84
L 206 884
Q 450 738 692 666
Q 934 594 1150 594
Q 1413 594 1564 666
Q 1716 738 1716 884
Q 1716 978 1647 1040
Q 1578 1103 1470 1150
Q 1363 1197 1234 1234
Q 1106 1272 988 1319
Q 797 1391 651 1473
Q 506 1556 407 1665
Q 309 1775 257 1919
Q 206 2063 206 2259
Q 206 2528 323 2722
Q 441 2916 636 3039
Q 831 3163 1082 3220
Q 1334 3278 1606 3278
Q 1819 3278 2037 3245
Q 2256 3213 2469 3150
L 2469 2388
Q 2281 2497 2067 2551
Q 1853 2606 1647 2606
Q 1550 2606 1464 2589
Q 1378 2572 1312 2539
Q 1247 2506 1209 2454
Q 1172 2403 1172 2338
Q 1172 2250 1228 2187
Q 1284 2125 1375 2079
Q 1466 2034 1577 1998
Q 1688 1963 1797 1925
Q 1994 1856 2153 1775
Q 2313 1694 2427 1584
Q 2541 1475 2602 1328
Q 2663 1181 2663 978
Q 2663 694 2539 492
Q 2416 291 2211 164
Q 2006 38 1739 -20
Q 1472 -78 1184 -78
Q 656 -78 206 84
z
" transform="scale(0.015625)"/>
     <path id="SegoeUI-Bold-69" d="M 916 3706
Q 666 3706 506 3854
Q 347 4003 347 4219
Q 347 4441 506 4581
Q 666 4722 916 4722
Q 1169 4722 1326 4581
Q 1484 4441 1484 4219
Q 1484 3994 1326 3850
Q 1169 3706 916 3706
z
M 1403 0
L 416 0
L 416 3200
L 1403 3200
L 1403 0
z
" transform="scale(0.015625)"/>
     <path id="SegoeUI-Bold-74" d="M 2350 38
Q 2131 -78 1691 -78
Q 647 -78 647 1006
L 647 2472
L 128 2472
L 128 3200
L 647 3200
L 647 3891
L 1631 4172
L 1631 3200
L 2350 3200
L 2350 2472
L 1631 2472
L 1631 1178
Q 1631 678 2028 678
Q 2184 678 2350 769
L 2350 38
z
" transform="scale(0.015625)"/>
     <path id="SegoeUI-Bold-76" d="M 3463 3200
L 2272 0
L 1147 0
L 13 3200
L 1069 3200
L 1625 1228
Q 1719 894 1734 659
L 1747 659
Q 1769 881 1863 1209
L 2431 3200
L 3463 3200
z
" transform="scale(0.015625)"/>
     <path id="SegoeUI-Bold-79" d="M 3463 3200
L 2163 -256
Q 1694 -1503 750 -1503
Q 391 -1503 159 -1422
L 159 -634
Q 356 -750 588 -750
Q 969 -750 1119 -391
L 1288 6
L -13 3200
L 1081 3200
L 1678 1253
Q 1734 1072 1766 825
L 1778 825
Q 1806 1006 1881 1247
L 2484 3200
L 3463 3200
z
" transform="scale(0.015625)"/>
     <path id="SegoeUI-Bold-62" d="M 1416 372
L 1403 372
L 1403 0
L 416 0
L 416 4738
L 1403 4738
L 1403 2719
L 1416 2719
Q 1781 3278 2456 3278
Q 3075 3278 3409 2853
Q 3744 2428 3744 1691
Q 3744 891 3353 406
Q 2963 -78 2309 -78
Q 1719 -78 1416 372
z
M 1388 1722
L 1388 1394
Q 1388 1084 1566 881
Q 1744 678 2022 678
Q 2359 678 2545 939
Q 2731 1200 2731 1678
Q 2731 2075 2561 2298
Q 2391 2522 2075 2522
Q 1778 2522 1583 2300
Q 1388 2078 1388 1722
z
" transform="scale(0.015625)"/>
     <path id="SegoeUI-Bold-67" d="M 3553 366
Q 3553 -525 3037 -1014
Q 2522 -1503 1544 -1503
Q 897 -1503 519 -1319
L 519 -488
Q 1013 -775 1516 -775
Q 2016 -775 2291 -511
Q 2566 -247 2566 206
L 2566 459
L 2553 459
Q 2216 -78 1556 -78
Q 944 -78 584 353
Q 225 784 225 1509
Q 225 2322 625 2800
Q 1025 3278 1678 3278
Q 2263 3278 2553 2828
L 2566 2828
L 2566 3200
L 3553 3200
L 3553 366
z
M 2578 1538
L 2578 1791
Q 2578 2094 2398 2308
Q 2219 2522 1931 2522
Q 1603 2522 1415 2265
Q 1228 2009 1228 1544
Q 1228 1144 1406 911
Q 1584 678 1894 678
Q 2200 678 2389 914
Q 2578 1150 2578 1538
z
" transform="scale(0.015625)"/>
     <path id="SegoeUI-Bold-6d" d="M 5497 0
L 4513 0
L 4513 1825
Q 4513 2522 4000 2522
Q 3756 2522 3603 2312
Q 3450 2103 3450 1791
L 3450 0
L 2463 0
L 2463 1844
Q 2463 2522 1959 2522
Q 1706 2522 1554 2322
Q 1403 2122 1403 1778
L 1403 0
L 416 0
L 416 3200
L 1403 3200
L 1403 2700
L 1416 2700
Q 1569 2956 1845 3117
Q 2122 3278 2450 3278
Q 3128 3278 3378 2681
Q 3744 3278 4453 3278
Q 5497 3278 5497 1991
L 5497 0
z
" transform="scale(0.015625)"/>
    </defs>
    <use xlink:href="#SegoeUI-Bold-42"/>
    <use xlink:href="#SegoeUI-Bold-54" transform="translate(61.736328 0)"/>
    <use xlink:href="#SegoeUI-Bold-43" transform="translate(116.830078 0)"/>
    <use xlink:href="#SegoeUI-Bold-20" transform="translate(179.232422 0)"/>
    <use xlink:href="#SegoeUI-Bold-4d" transform="translate(206.820312 0)"/>
    <use xlink:href="#SegoeUI-Bold-56" transform="translate(302.523438 0)"/>
    <use xlink:href="#SegoeUI-Bold-52" transform="translate(369.222656 0)"/>
    <use xlink:href="#SegoeUI-Bold-56" transform="translate(434.505859 0)"/>
    <use xlink:href="#SegoeUI-Bold-20" transform="translate(501.205078 0)"/>
    <use xlink:href="#SegoeUI-Bold-53" transform="translate(528.792969 0)"/>
    <use xlink:href="#SegoeUI-Bold-65" transform="translate(584.847656 0)"/>
    <use xlink:href="#SegoeUI-Bold-6e" transform="translate(638.949219 0)"/>
    <use xlink:href="#SegoeUI-Bold-73" transform="translate(699.447266 0)"/>
    <use xlink:href="#SegoeUI-Bold-69" transform="translate(743.441406 0)"/>
    <use xlink:href="#SegoeUI-Bold-74" transform="translate(771.859375 0)"/>
    <use xlink:href="#SegoeUI-Bold-69" transform="translate(810.775391 0)"/>
    <use xlink:href="#SegoeUI-Bold-76" transform="translate(839.193359 0)"/>
    <use xlink:href="#SegoeUI-Bold-69" transform="translate(893.392578 0)"/>
    <use xlink:href="#SegoeUI-Bold-74" transform="translate(921.810547 0)"/>
    <use xlink:href="#SegoeUI-Bold-79" transform="translate(960.726562 0)"/>
    <use xlink:href="#SegoeUI-Bold-20" transform="translate(1014.535156 0)"/>
    <use xlink:href="#SegoeUI-Bold-62" transform="translate(1042.123047 0)"/>
    <use xlink:href="#SegoeUI-Bold-79" transform="translate(1104.134766 0)"/>
    <use xlink:href="#SegoeUI-Bold-20" transform="translate(1157.943359 0)"/>
    <use xlink:href="#SegoeUI-Bold-52" transform="translate(1185.53125 0)"/>
    <use xlink:href="#SegoeUI-Bold-65" transform="translate(1248.314453 0)"/>
    <use xlink:href="#SegoeUI-Bold-67" transform="translate(1302.416016 0)"/>
    <use xlink:href="#SegoeUI-Bold-69" transform="translate(1364.330078 0)"/>
    <use xlink:href="#SegoeUI-Bold-6d" transform="translate(1392.748047 0)"/>
    <use xlink:href="#SegoeUI-Bold-65" transform="translate(1484.349609 0)"/>
   </g>
  </g>
  <g id="legend_1">
   <g id="patch_28">
    <path d="M 216.346641 373.632187
L 234.346641 373.632187
L 234.346641 367.332187
L 216.346641 367.332187
z
" style="fill: #7c3aed"/>
   </g>
   <g id="text_36">
    <!-- Full with MVRV -->
    <g style="fill: #111827" transform="translate(241.546641 373.632187) scale(0.09 -0.09)">
     <defs>
      <path id="SegoeUI-77" d="M 4550 3200
L 3591 0
L 3059 0
L 2400 2291
Q 2363 2422 2350 2588
L 2338 2588
Q 2328 2475 2272 2297
L 1556 0
L 1044 0
L 75 3200
L 613 3200
L 1275 794
Q 1306 684 1319 506
L 1344 506
Q 1353 644 1400 800
L 2138 3200
L 2606 3200
L 3269 788
Q 3300 672 3316 500
L 3341 500
Q 3347 622 3394 788
L 4044 3200
L 4550 3200
z
" transform="scale(0.015625)"/>
      <path id="SegoeUI-68" d="M 3175 0
L 2663 0
L 2663 1844
Q 2663 2844 1919 2844
Q 1544 2844 1287 2555
Q 1031 2266 1031 1813
L 1031 0
L 519 0
L 519 4738
L 1031 4738
L 1031 2669
L 1044 2669
Q 1413 3275 2094 3275
Q 3175 3275 3175 1972
L 3175 0
z
" transform="scale(0.015625)"/>
     </defs>
     <use xlink:href="#SegoeUI-46"/>
     <use xlink:href="#SegoeUI-75" transform="translate(48.828125 0)"/>
     <use xlink:href="#SegoeUI-6c" transform="translate(105.419922 0)"/>
     <use xlink:href="#SegoeUI-6c" transform="translate(129.638672 0)"/>
     <use xlink:href="#SegoeUI-20" transform="translate(153.857422 0)"/>
     <use xlink:href="#SegoeUI-77" transform="translate(181.25 0)"/>
     <use xlink:href="#SegoeUI-69" transform="translate(253.515625 0)"/>
     <use xlink:href="#SegoeUI-74" transform="translate(277.734375 0)"/>
     <use xlink:href="#SegoeUI-68" transform="translate(311.621094 0)"/>
     <use xlink:href="#SegoeUI-20" transform="translate(368.212891 0)"/>
     <use xlink:href="#SegoeUI-4d" transform="translate(395.605469 0)"/>
     <use xlink:href="#SegoeUI-56" transform="translate(485.400391 0)"/>
     <use xlink:href="#SegoeUI-52" transform="translate(547.509766 0)"/>
     <use xlink:href="#SegoeUI-56" transform="translate(607.324219 0)"/>
    </g>
   </g>
   <g id="patch_29">
    <path d="M 319.796016 373.632187
L 337.796016 373.632187
L 337.796016 367.332187
L 319.796016 367.332187
z
" style="fill: #f7931a"/>
   </g>
   <g id="text_37">
    <!-- MVRV only -->
    <g style="fill: #111827" transform="translate(344.996016 373.632187) scale(0.09 -0.09)">
     <defs>
      <path id="SegoeUI-79" d="M 3066 3200
L 1594 -513
Q 1200 -1506 488 -1506
Q 288 -1506 153 -1466
L 153 -1006
Q 319 -1063 456 -1063
Q 844 -1063 1038 -600
L 1294 6
L 44 3200
L 613 3200
L 1478 738
Q 1494 691 1544 494
L 1563 494
Q 1578 569 1625 731
L 2534 3200
L 3066 3200
z
" transform="scale(0.015625)"/>
     </defs>
     <use xlink:href="#SegoeUI-4d"/>
     <use xlink:href="#SegoeUI-56" transform="translate(89.794922 0)"/>
     <use xlink:href="#SegoeUI-52" transform="translate(151.904297 0)"/>
     <use xlink:href="#SegoeUI-56" transform="translate(211.71875 0)"/>
     <use xlink:href="#SegoeUI-20" transform="translate(273.828125 0)"/>
     <use xlink:href="#SegoeUI-6f" transform="translate(301.220703 0)"/>
     <use xlink:href="#SegoeUI-6e" transform="translate(359.814453 0)"/>
     <use xlink:href="#SegoeUI-6c" transform="translate(416.40625 0)"/>
     <use xlink:href="#SegoeUI-79" transform="translate(440.625 0)"/>
    </g>
   </g>
   <g id="patch_30">
    <path d="M 407.007422 373.632187
L 425.007422 373.632187
L 425.007422 367.332187
L 407.007422 367.332187
z
" style="fill: #2563eb"/>
   </g>
   <g id="text_38">
    <!-- Ex-MVRV -->
    <g style="fill: #111827" transform="translate(432.207422 373.632187) scale(0.09 -0.09)">
     <defs>
      <path id="SegoeUI-78" d="M 2856 3200
L 1781 1581
L 2838 0
L 2241 0
L 1613 1038
Q 1553 1134 1472 1281
L 1459 1281
Q 1444 1253 1313 1038
L 672 0
L 81 0
L 1172 1569
L 128 3200
L 725 3200
L 1344 2106
Q 1413 1984 1478 1856
L 1491 1856
L 2291 3200
L 2856 3200
z
" transform="scale(0.015625)"/>
     </defs>
     <use xlink:href="#SegoeUI-45"/>
     <use xlink:href="#SegoeUI-78" transform="translate(50.585938 0)"/>
     <use xlink:href="#SegoeUI-2d" transform="translate(96.484375 0)"/>
     <use xlink:href="#SegoeUI-4d" transform="translate(136.474609 0)"/>
     <use xlink:href="#SegoeUI-56" transform="translate(226.269531 0)"/>
     <use xlink:href="#SegoeUI-52" transform="translate(288.378906 0)"/>
     <use xlink:href="#SegoeUI-56" transform="translate(348.193359 0)"/>
    </g>
   </g>
  </g>
 </g>
 <defs>
  <clipPath id="pded3145eb2">
   <rect x="72.923594" y="75.861094" width="262.018437" height="245.418906"/>
  </clipPath>
  <clipPath id="pf930fab727">
   <rect x="410.724531" y="75.861094" width="262.018437" height="245.418906"/>
  </clipPath>
 </defs>
</svg>
