<?xml version="1.0" encoding="utf-8" standalone="no"?>
<!DOCTYPE svg PUBLIC "-//W3C//DTD SVG 1.1//EN"
  "http://www.w3.org/Graphics/SVG/1.1/DTD/svg11.dtd">
<svg xmlns:xlink="http://www.w3.org/1999/xlink" width="720pt" height="405pt" viewBox="0 0 720 405" xmlns="http://www.w3.org/2000/svg" version="1.1">
 <metadata>
  <rdf:RDF xmlns:dc="http://purl.org/dc/elements/1.1/" xmlns:cc="http://creativecommons.org/ns#" xmlns:rdf="http://www.w3.org/1999/02/22-rdf-syntax-ns#">
   <cc:Work>
    <dc:type rdf:resource="http://purl.org/dc/dcmitype/StillImage"/>
    <dc:date>2026-06-16T14:04:23.264943</dc:date>
    <dc:format>image/svg+xml</dc:format>
    <dc:creator>
     <cc:Agent>
      <dc:title>Matplotlib v3.10.8, https://matplotlib.org/</dc:title>
     </cc:Agent>
    </dc:creator>
   </cc:Work>
  </rdf:RDF>
 </metadata>
 <defs>
  <style type="text/css">*{stroke-linejoin: round; stroke-linecap: butt}</style>
 </defs>
 <g id="figure_1">
  <g id="patch_1">
   <path d="M 0 405 
L 720 405 
L 720 0 
L 0 0 
z
" style="fill: #fafaf7"/>
  </g>
  <g id="patch_2">
   <path d="M 22.32 391.635 
L 697.68 391.635 
Q 710.64 391.635 710.64 384.345 
L 710.64 24.705 
Q 710.64 17.415 697.68 17.415 
L 22.32 17.415 
Q 9.36 17.415 9.36 24.705 
L 9.36 384.345 
Q 9.36 391.635 22.32 391.635 
z
" style="fill: #ffffff; stroke: #d9dee7; stroke-linejoin: miter"/>
  </g>
  <g id="axes_1">
   <g id="patch_3">
    <path d="M 54 336.15 
L 666 336.15 
L 666 89.1 
L 54 89.1 
z
" style="fill: #ffffff"/>
   </g>
   <g id="patch_4">
    <path d="M -6376.361045 105.678355 
L 640.31829 105.678355 
L 640.31829 124.532171 
L -6376.361045 124.532171 
z
" clip-path="url(#p2cba927482)" style="fill: #f7931a; opacity: 0.86"/>
   </g>
   <g id="patch_5">
    <path d="M -4599.719715 138.184934 
L 640.80285 138.184934 
L 640.80285 157.03875 
L -4599.719715 157.03875 
z
" clip-path="url(#p2cba927482)" style="fill: #627eea; opacity: 0.86"/>
   </g>
   <g id="patch_6">
    <path d="M -1130.992874 170.691513 
L 639.106888 170.691513 
L 639.106888 189.545329 
L -1130.992874 189.545329 
z
" clip-path="url(#p2cba927482)" style="fill: #0f766e; opacity: 0.86"/>
   </g>
   <g id="patch_7">
    <path d="M -801.249406 203.198092 
L 643.467933 203.198092 
L 643.467933 222.051908 
L -801.249406 222.051908 
z
" clip-path="url(#p2cba927482)" style="fill: #16a34a; opacity: 0.86"/>
   </g>
   <g id="patch_8">
    <path d="M -244.004751 235.704671 
L 640.80285 235.704671 
L 640.80285 254.558487 
L -244.004751 254.558487 
z
" clip-path="url(#p2cba927482)" style="fill: #2563eb; opacity: 0.86"/>
   </g>
   <g id="patch_9">
    <path d="M -85.795724 268.21125 
L 640.31829 268.21125 
L 640.31829 287.065066 
L -85.795724 287.065066 
z
" clip-path="url(#p2cba927482)" style="fill: #7c3aed; opacity: 0.86"/>
   </g>
   <g id="patch_10">
    <path d="M 439.952494 300.717829 
L 638.622328 300.717829 
L 638.622328 319.571645 
L 439.952494 319.571645 
z
" clip-path="url(#p2cba927482)" style="fill: #d97706; opacity: 0.86"/>
   </g>
   <g id="matplotlib.axis_1">
    <g id="xtick_1">
     <g id="line2d_1">
      <path d="M 83.558195 336.15 
L 83.558195 89.1 
" clip-path="url(#p2cba927482)" style="fill: none; stroke: #d9dee7; stroke-opacity: 0.45; stroke-width: 0.7; stroke-linecap: square"/>
     </g>
     <g id="line2d_2"/>
     <g id="text_1">
      <!-- 2020 -->
      <g style="fill: #6b7280" transform="translate(74.933195 345.5725) scale(0.08 -0.08)">
       <defs>
        <path id="SegoeUI-32" d="M 2413 3306 
Q 2413 3513 2348 3666 
Q 2284 3819 2173 3920 
Q 2063 4022 1913 4072 
Q 1763 4122 1588 4122 
Q 1438 4122 1294 4081 
Q 1150 4041 1014 3969 
Q 878 3897 751 3797 
Q 625 3697 516 3575 
L 516 4125 
Q 731 4334 998 4445 
Q 1266 4556 1650 4556 
Q 1925 4556 2159 4476 
Q 2394 4397 2566 4244 
Q 2738 4091 2836 3866 
Q 2934 3641 2934 3350 
Q 2934 3084 2873 2868 
Q 2813 2653 2689 2462 
Q 2566 2272 2378 2097 
Q 2191 1922 1938 1741 
Q 1622 1516 1417 1356 
Q 1213 1197 1092 1058 
Q 972 919 923 780 
Q 875 641 875 459 
L 3106 459 
L 3106 0 
L 341 0 
L 341 222 
Q 341 509 403 728 
Q 466 947 609 1144 
Q 753 1341 986 1537 
Q 1219 1734 1556 1981 
Q 1800 2156 1964 2315 
Q 2128 2475 2228 2634 
Q 2328 2794 2370 2958 
Q 2413 3122 2413 3306 
z
" transform="scale(0.015625)"/>
        <path id="SegoeUI-30" d="M 3188 2259 
Q 3188 1697 3086 1262 
Q 2984 828 2792 529 
Q 2600 231 2320 76 
Q 2041 -78 1684 -78 
Q 1347 -78 1083 70 
Q 819 219 637 503 
Q 456 788 362 1202 
Q 269 1616 269 2150 
Q 269 2738 367 3188 
Q 466 3638 656 3942 
Q 847 4247 1130 4401 
Q 1413 4556 1778 4556 
Q 3188 4556 3188 2259 
z
M 2663 2209 
Q 2663 4122 1753 4122 
Q 794 4122 794 2175 
Q 794 359 1734 359 
Q 2663 359 2663 2209 
z
" transform="scale(0.015625)"/>
       </defs>
       <use xlink:href="#SegoeUI-32"/>
       <use xlink:href="#SegoeUI-30" transform="translate(53.90625 0)"/>
       <use xlink:href="#SegoeUI-32" transform="translate(107.8125 0)"/>
       <use xlink:href="#SegoeUI-30" transform="translate(161.71875 0)"/>
      </g>
     </g>
    </g>
    <g id="xtick_2">
     <g id="line2d_3">
      <path d="M 172.232779 336.15 
L 172.232779 89.1 
" clip-path="url(#p2cba927482)" style="fill: none; stroke: #d9dee7; stroke-opacity: 0.45; stroke-width: 0.7; stroke-linecap: square"/>
     </g>
     <g id="line2d_4"/>
     <g id="text_2">
      <!-- 2021 -->
      <g style="fill: #6b7280" transform="translate(163.607779 345.5725) scale(0.08 -0.08)">
       <defs>
        <path id="SegoeUI-31" d="M 2263 0 
L 1750 0 
L 1750 3872 
Q 1691 3813 1577 3736 
Q 1463 3659 1320 3584 
Q 1178 3509 1020 3443 
Q 863 3378 713 3341 
L 713 3859 
Q 881 3906 1070 3986 
Q 1259 4066 1442 4164 
Q 1625 4263 1787 4370 
Q 1950 4478 2069 4581 
L 2263 4581 
L 2263 0 
z
" transform="scale(0.015625)"/>
       </defs>
       <use xlink:href="#SegoeUI-32"/>
       <use xlink:href="#SegoeUI-30" transform="translate(53.90625 0)"/>
       <use xlink:href="#SegoeUI-32" transform="translate(107.8125 0)"/>
       <use xlink:href="#SegoeUI-31" transform="translate(161.71875 0)"/>
      </g>
     </g>
    </g>
    <g id="xtick_3">
     <g id="line2d_5">
      <path d="M 260.665083 336.15 
L 260.665083 89.1 
" clip-path="url(#p2cba927482)" style="fill: none; stroke: #d9dee7; stroke-opacity: 0.45; stroke-width: 0.7; stroke-linecap: square"/>
     </g>
     <g id="line2d_6"/>
     <g id="text_3">
      <!-- 2022 -->
      <g style="fill: #6b7280" transform="translate(252.040083 345.5725) scale(0.08 -0.08)">
       <use xlink:href="#SegoeUI-32"/>
       <use xlink:href="#SegoeUI-30" transform="translate(53.90625 0)"/>
       <use xlink:href="#SegoeUI-32" transform="translate(107.8125 0)"/>
       <use xlink:href="#SegoeUI-32" transform="translate(161.71875 0)"/>
      </g>
     </g>
    </g>
    <g id="xtick_4">
     <g id="line2d_7">
      <path d="M 349.097387 336.15 
L 349.097387 89.1 
" clip-path="url(#p2cba927482)" style="fill: none; stroke: #d9dee7; stroke-opacity: 0.45; stroke-width: 0.7; stroke-linecap: square"/>
     </g>
     <g id="line2d_8"/>
     <g id="text_4">
      <!-- 2023 -->
      <g style="fill: #6b7280" transform="translate(340.472387 345.5725) scale(0.08 -0.08)">
       <defs>
        <path id="SegoeUI-33" d="M 2978 1269 
Q 2978 966 2864 717 
Q 2750 469 2542 292 
Q 2334 116 2043 19 
Q 1753 -78 1403 -78 
Q 763 -78 384 166 
L 384 716 
Q 838 359 1422 359 
Q 1656 359 1845 418 
Q 2034 478 2170 590 
Q 2306 703 2379 862 
Q 2453 1022 2453 1222 
Q 2453 2100 1203 2100 
L 831 2100 
L 831 2534 
L 1184 2534 
Q 2291 2534 2291 3359 
Q 2291 4122 1447 4122 
Q 972 4122 556 3803 
L 556 4300 
Q 984 4556 1575 4556 
Q 1856 4556 2084 4478 
Q 2313 4400 2475 4259 
Q 2638 4119 2727 3922 
Q 2816 3725 2816 3488 
Q 2816 2603 1922 2350 
L 1922 2338 
Q 2150 2313 2344 2227 
Q 2538 2141 2678 2003 
Q 2819 1866 2898 1680 
Q 2978 1494 2978 1269 
z
" transform="scale(0.015625)"/>
       </defs>
       <use xlink:href="#SegoeUI-32"/>
       <use xlink:href="#SegoeUI-30" transform="translate(53.90625 0)"/>
       <use xlink:href="#SegoeUI-32" transform="translate(107.8125 0)"/>
       <use xlink:href="#SegoeUI-33" transform="translate(161.71875 0)"/>
      </g>
     </g>
    </g>
    <g id="xtick_5">
     <g id="line2d_9">
      <path d="M 437.529691 336.15 
L 437.529691 89.1 
" clip-path="url(#p2cba927482)" style="fill: none; stroke: #d9dee7; stroke-opacity: 0.45; stroke-width: 0.7; stroke-linecap: square"/>
     </g>
     <g id="line2d_10"/>
     <g id="text_5">
      <!-- 2024 -->
      <g style="fill: #6b7280" transform="translate(428.904691 345.5725) scale(0.08 -0.08)">
       <defs>
        <path id="SegoeUI-34" d="M 2656 4481 
L 2656 1522 
L 3231 1522 
L 3231 1053 
L 2656 1053 
L 2656 0 
L 2150 0 
L 2150 1053 
L 44 1053 
L 44 1497 
Q 338 1828 638 2204 
Q 938 2581 1211 2968 
Q 1484 3356 1717 3742 
Q 1950 4128 2109 4481 
L 2656 4481 
z
M 622 1522 
L 2150 1522 
L 2150 3716 
Q 1916 3306 1706 2984 
Q 1497 2663 1308 2400 
Q 1119 2138 947 1925 
Q 775 1713 622 1522 
z
" transform="scale(0.015625)"/>
       </defs>
       <use xlink:href="#SegoeUI-32"/>
       <use xlink:href="#SegoeUI-30" transform="translate(53.90625 0)"/>
       <use xlink:href="#SegoeUI-32" transform="translate(107.8125 0)"/>
       <use xlink:href="#SegoeUI-34" transform="translate(161.71875 0)"/>
      </g>
     </g>
    </g>
    <g id="xtick_6">
     <g id="line2d_11">
      <path d="M 526.204276 336.15 
L 526.204276 89.1 
" clip-path="url(#p2cba927482)" style="fill: none; stroke: #d9dee7; stroke-opacity: 0.45; stroke-width: 0.7; stroke-linecap: square"/>
     </g>
     <g id="line2d_12"/>
     <g id="text_6">
      <!-- 2025 -->
      <g style="fill: #6b7280" transform="translate(517.579276 345.5725) scale(0.08 -0.08)">
       <defs>
        <path id="SegoeUI-35" d="M 3028 1369 
Q 3028 1041 2915 775 
Q 2803 509 2595 318 
Q 2388 128 2094 25 
Q 1800 -78 1441 -78 
Q 816 -78 513 109 
L 513 653 
Q 969 359 1447 359 
Q 1691 359 1886 431 
Q 2081 503 2218 631 
Q 2356 759 2429 940 
Q 2503 1122 2503 1338 
Q 2503 1775 2209 2023 
Q 1916 2272 1356 2272 
Q 1266 2272 1166 2269 
Q 1066 2266 966 2261 
Q 866 2256 770 2250 
Q 675 2244 597 2234 
L 750 4481 
L 2822 4481 
L 2822 4019 
L 1194 4019 
L 1103 2703 
Q 1203 2709 1315 2714 
Q 1428 2719 1516 2719 
Q 1872 2719 2153 2625 
Q 2434 2531 2629 2357 
Q 2825 2184 2926 1932 
Q 3028 1681 3028 1369 
z
" transform="scale(0.015625)"/>
       </defs>
       <use xlink:href="#SegoeUI-32"/>
       <use xlink:href="#SegoeUI-30" transform="translate(53.90625 0)"/>
       <use xlink:href="#SegoeUI-32" transform="translate(107.8125 0)"/>
       <use xlink:href="#SegoeUI-35" transform="translate(161.71875 0)"/>
      </g>
     </g>
    </g>
    <g id="xtick_7">
     <g id="line2d_13">
      <path d="M 614.63658 336.15 
L 614.63658 89.1 
" clip-path="url(#p2cba927482)" style="fill: none; stroke: #d9dee7; stroke-opacity: 0.45; stroke-width: 0.7; stroke-linecap: square"/>
     </g>
     <g id="line2d_14"/>
     <g id="text_7">
      <!-- 2026 -->
      <g style="fill: #6b7280" transform="translate(606.01158 345.5725) scale(0.08 -0.08)">
       <defs>
        <path id="SegoeUI-36" d="M 3194 1422 
Q 3194 1094 3087 819 
Q 2981 544 2793 344 
Q 2606 144 2347 33 
Q 2088 -78 1784 -78 
Q 1447 -78 1180 62 
Q 913 203 727 467 
Q 541 731 444 1112 
Q 347 1494 347 1972 
Q 347 2556 476 3032 
Q 606 3509 845 3848 
Q 1084 4188 1421 4372 
Q 1759 4556 2175 4556 
Q 2638 4556 2919 4428 
L 2919 3944 
Q 2572 4122 2188 4122 
Q 1888 4122 1647 3987 
Q 1406 3853 1234 3608 
Q 1063 3363 970 3016 
Q 878 2669 878 2244 
L 891 2244 
Q 1200 2803 1913 2803 
Q 2206 2803 2442 2703 
Q 2678 2603 2845 2420 
Q 3013 2238 3103 1984 
Q 3194 1731 3194 1422 
z
M 2669 1356 
Q 2669 1591 2609 1778 
Q 2550 1966 2439 2097 
Q 2328 2228 2165 2298 
Q 2003 2369 1797 2369 
Q 1606 2369 1443 2297 
Q 1281 2225 1162 2101 
Q 1044 1978 976 1814 
Q 909 1650 909 1466 
Q 909 1234 975 1032 
Q 1041 831 1159 681 
Q 1278 531 1442 445 
Q 1606 359 1806 359 
Q 2000 359 2159 432 
Q 2319 506 2431 637 
Q 2544 769 2606 951 
Q 2669 1134 2669 1356 
z
" transform="scale(0.015625)"/>
       </defs>
       <use xlink:href="#SegoeUI-32"/>
       <use xlink:href="#SegoeUI-30" transform="translate(53.90625 0)"/>
       <use xlink:href="#SegoeUI-32" transform="translate(107.8125 0)"/>
       <use xlink:href="#SegoeUI-36" transform="translate(161.71875 0)"/>
      </g>
     </g>
    </g>
    <g id="text_8">
     <!-- Source coverage window -->
     <g style="fill: #6b7280" transform="translate(310.545703 358.075312) scale(0.09 -0.09)">
      <defs>
       <path id="SegoeUI-53" d="M 378 181 
L 378 800 
Q 484 706 632 631 
Q 781 556 945 504 
Q 1109 453 1275 425 
Q 1441 397 1581 397 
Q 2066 397 2305 576 
Q 2544 756 2544 1094 
Q 2544 1275 2464 1409 
Q 2384 1544 2243 1655 
Q 2103 1766 1911 1867 
Q 1719 1969 1497 2081 
Q 1263 2200 1059 2322 
Q 856 2444 706 2591 
Q 556 2738 470 2923 
Q 384 3109 384 3359 
Q 384 3666 518 3892 
Q 653 4119 872 4266 
Q 1091 4413 1370 4484 
Q 1650 4556 1941 4556 
Q 2603 4556 2906 4397 
L 2906 3806 
Q 2509 4081 1888 4081 
Q 1716 4081 1544 4045 
Q 1372 4009 1237 3928 
Q 1103 3847 1018 3719 
Q 934 3591 934 3406 
Q 934 3234 998 3109 
Q 1063 2984 1188 2881 
Q 1313 2778 1492 2681 
Q 1672 2584 1906 2469 
Q 2147 2350 2362 2219 
Q 2578 2088 2740 1928 
Q 2903 1769 2998 1575 
Q 3094 1381 3094 1131 
Q 3094 800 2964 570 
Q 2834 341 2614 197 
Q 2394 53 2106 -11 
Q 1819 -75 1500 -75 
Q 1394 -75 1237 -58 
Q 1081 -41 918 -8 
Q 756 25 611 73 
Q 466 122 378 181 
z
" transform="scale(0.015625)"/>
       <path id="SegoeUI-6f" d="M 1856 -75 
Q 1147 -75 723 373 
Q 300 822 300 1563 
Q 300 2369 740 2822 
Q 1181 3275 1931 3275 
Q 2647 3275 3048 2834 
Q 3450 2394 3450 1613 
Q 3450 847 3017 386 
Q 2584 -75 1856 -75 
z
M 1894 2844 
Q 1400 2844 1112 2508 
Q 825 2172 825 1581 
Q 825 1013 1115 684 
Q 1406 356 1894 356 
Q 2391 356 2658 678 
Q 2925 1000 2925 1594 
Q 2925 2194 2658 2519 
Q 2391 2844 1894 2844 
z
" transform="scale(0.015625)"/>
       <path id="SegoeUI-75" d="M 3106 0 
L 2594 0 
L 2594 506 
L 2581 506 
Q 2263 -75 1594 -75 
Q 450 -75 450 1288 
L 450 3200 
L 959 3200 
L 959 1369 
Q 959 356 1734 356 
Q 2109 356 2351 632 
Q 2594 909 2594 1356 
L 2594 3200 
L 3106 3200 
L 3106 0 
z
" transform="scale(0.015625)"/>
       <path id="SegoeUI-72" d="M 2188 2681 
Q 2053 2784 1800 2784 
Q 1472 2784 1251 2475 
Q 1031 2166 1031 1631 
L 1031 0 
L 519 0 
L 519 3200 
L 1031 3200 
L 1031 2541 
L 1044 2541 
Q 1153 2878 1378 3067 
Q 1603 3256 1881 3256 
Q 2081 3256 2188 3213 
L 2188 2681 
z
" transform="scale(0.015625)"/>
       <path id="SegoeUI-63" d="M 2700 147 
Q 2331 -75 1825 -75 
Q 1141 -75 720 370 
Q 300 816 300 1525 
Q 300 2316 753 2795 
Q 1206 3275 1963 3275 
Q 2384 3275 2706 3119 
L 2706 2594 
Q 2350 2844 1944 2844 
Q 1453 2844 1139 2492 
Q 825 2141 825 1569 
Q 825 1006 1120 681 
Q 1416 356 1913 356 
Q 2331 356 2700 634 
L 2700 147 
z
" transform="scale(0.015625)"/>
       <path id="SegoeUI-65" d="M 3091 1472 
L 831 1472 
Q 844 938 1119 647 
Q 1394 356 1875 356 
Q 2416 356 2869 713 
L 2869 231 
Q 2447 -75 1753 -75 
Q 1075 -75 687 361 
Q 300 797 300 1588 
Q 300 2334 723 2804 
Q 1147 3275 1775 3275 
Q 2403 3275 2747 2869 
Q 3091 2463 3091 1741 
L 3091 1472 
z
M 2566 1906 
Q 2563 2350 2352 2597 
Q 2141 2844 1766 2844 
Q 1403 2844 1150 2584 
Q 897 2325 838 1906 
L 2566 1906 
z
" transform="scale(0.015625)"/>
       <path id="SegoeUI-20" transform="scale(0.015625)"/>
       <path id="SegoeUI-76" d="M 3034 3200 
L 1759 0 
L 1256 0 
L 44 3200 
L 606 3200 
L 1419 875 
Q 1509 619 1531 428 
L 1544 428 
Q 1575 669 1644 863 
L 2494 3200 
L 3034 3200 
z
" transform="scale(0.015625)"/>
       <path id="SegoeUI-61" d="M 2809 0 
L 2297 0 
L 2297 500 
L 2284 500 
Q 1950 -75 1300 -75 
Q 822 -75 551 178 
Q 281 431 281 850 
Q 281 1747 1338 1894 
L 2297 2028 
Q 2297 2844 1638 2844 
Q 1059 2844 594 2450 
L 594 2975 
Q 1066 3275 1681 3275 
Q 2809 3275 2809 2081 
L 2809 0 
z
M 2297 1619 
L 1525 1513 
Q 1169 1463 987 1336 
Q 806 1209 806 888 
Q 806 653 973 504 
Q 1141 356 1419 356 
Q 1800 356 2048 623 
Q 2297 891 2297 1300 
L 2297 1619 
z
" transform="scale(0.015625)"/>
       <path id="SegoeUI-67" d="M 3250 256 
Q 3250 -1506 1563 -1506 
Q 969 -1506 525 -1281 
L 525 -769 
Q 1066 -1069 1556 -1069 
Q 2738 -1069 2738 188 
L 2738 538 
L 2725 538 
Q 2359 -75 1625 -75 
Q 1028 -75 664 351 
Q 300 778 300 1497 
Q 300 2313 692 2794 
Q 1084 3275 1766 3275 
Q 2413 3275 2725 2756 
L 2738 2756 
L 2738 3200 
L 3250 3200 
L 3250 256 
z
M 2738 1447 
L 2738 1919 
Q 2738 2300 2480 2572 
Q 2222 2844 1838 2844 
Q 1363 2844 1094 2498 
Q 825 2153 825 1531 
Q 825 997 1083 676 
Q 1341 356 1766 356 
Q 2197 356 2467 662 
Q 2738 969 2738 1447 
z
" transform="scale(0.015625)"/>
       <path id="SegoeUI-77" d="M 4550 3200 
L 3591 0 
L 3059 0 
L 2400 2291 
Q 2363 2422 2350 2588 
L 2338 2588 
Q 2328 2475 2272 2297 
L 1556 0 
L 1044 0 
L 75 3200 
L 613 3200 
L 1275 794 
Q 1306 684 1319 506 
L 1344 506 
Q 1353 644 1400 800 
L 2138 3200 
L 2606 3200 
L 3269 788 
Q 3300 672 3316 500 
L 3341 500 
Q 3347 622 3394 788 
L 4044 3200 
L 4550 3200 
z
" transform="scale(0.015625)"/>
       <path id="SegoeUI-69" d="M 781 4013 
Q 644 4013 547 4106 
Q 450 4200 450 4344 
Q 450 4488 547 4583 
Q 644 4678 781 4678 
Q 922 4678 1020 4583 
Q 1119 4488 1119 4344 
Q 1119 4206 1020 4109 
Q 922 4013 781 4013 
z
M 1031 0 
L 519 0 
L 519 3200 
L 1031 3200 
L 1031 0 
z
" transform="scale(0.015625)"/>
       <path id="SegoeUI-6e" d="M 3175 0 
L 2663 0 
L 2663 1825 
Q 2663 2844 1919 2844 
Q 1534 2844 1282 2555 
Q 1031 2266 1031 1825 
L 1031 0 
L 519 0 
L 519 3200 
L 1031 3200 
L 1031 2669 
L 1044 2669 
Q 1406 3275 2094 3275 
Q 2619 3275 2897 2936 
Q 3175 2597 3175 1956 
L 3175 0 
z
" transform="scale(0.015625)"/>
       <path id="SegoeUI-64" d="M 3250 0 
L 2738 0 
L 2738 544 
L 2725 544 
Q 2369 -75 1625 -75 
Q 1022 -75 661 354 
Q 300 784 300 1525 
Q 300 2319 700 2797 
Q 1100 3275 1766 3275 
Q 2425 3275 2725 2756 
L 2738 2756 
L 2738 4738 
L 3250 4738 
L 3250 0 
z
M 2738 1447 
L 2738 1919 
Q 2738 2306 2481 2575 
Q 2225 2844 1831 2844 
Q 1363 2844 1094 2500 
Q 825 2156 825 1550 
Q 825 997 1083 676 
Q 1341 356 1775 356 
Q 2203 356 2470 665 
Q 2738 975 2738 1447 
z
" transform="scale(0.015625)"/>
      </defs>
      <use xlink:href="#SegoeUI-53"/>
      <use xlink:href="#SegoeUI-6f" transform="translate(53.125 0)"/>
      <use xlink:href="#SegoeUI-75" transform="translate(111.71875 0)"/>
      <use xlink:href="#SegoeUI-72" transform="translate(168.310547 0)"/>
      <use xlink:href="#SegoeUI-63" transform="translate(201.701172 0)"/>
      <use xlink:href="#SegoeUI-65" transform="translate(247.892578 0)"/>
      <use xlink:href="#SegoeUI-20" transform="translate(300.1875 0)"/>
      <use xlink:href="#SegoeUI-63" transform="translate(327.580078 0)"/>
      <use xlink:href="#SegoeUI-6f" transform="translate(373.771484 0)"/>
      <use xlink:href="#SegoeUI-76" transform="translate(432.365234 0)"/>
      <use xlink:href="#SegoeUI-65" transform="translate(479.640625 0)"/>
      <use xlink:href="#SegoeUI-72" transform="translate(531.935547 0)"/>
      <use xlink:href="#SegoeUI-61" transform="translate(566.701172 0)"/>
      <use xlink:href="#SegoeUI-67" transform="translate(617.580078 0)"/>
      <use xlink:href="#SegoeUI-65" transform="translate(676.466797 0)"/>
      <use xlink:href="#SegoeUI-20" transform="translate(728.761719 0)"/>
      <use xlink:href="#SegoeUI-77" transform="translate(756.154297 0)"/>
      <use xlink:href="#SegoeUI-69" transform="translate(828.419922 0)"/>
      <use xlink:href="#SegoeUI-6e" transform="translate(852.638672 0)"/>
      <use xlink:href="#SegoeUI-64" transform="translate(909.230469 0)"/>
      <use xlink:href="#SegoeUI-6f" transform="translate(968.117188 0)"/>
      <use xlink:href="#SegoeUI-77" transform="translate(1026.710938 0)"/>
     </g>
    </g>
   </g>
   <g id="matplotlib.axis_2">
    <g id="ytick_1">
     <g id="line2d_15">
      <path d="M 54 115.105263 
L 666 115.105263 
" clip-path="url(#p2cba927482)" style="fill: none; stroke: #d9dee7; stroke-opacity: 0.45; stroke-width: 0.7; stroke-linecap: square"/>
     </g>
     <g id="line2d_16"/>
     <g id="text_9">
      <!-- FRED -->
      <g style="fill: #6b7280" transform="translate(32.15125 118.066513) scale(0.08 -0.08)">
       <defs>
        <path id="SegoeUI-46" d="M 2863 4006 
L 1113 4006 
L 1113 2456 
L 2731 2456 
L 2731 1984 
L 1113 1984 
L 1113 0 
L 588 0 
L 588 4481 
L 2863 4481 
L 2863 4006 
z
" transform="scale(0.015625)"/>
        <path id="SegoeUI-52" d="M 3800 0 
L 3175 0 
L 2425 1256 
Q 2322 1431 2225 1554 
Q 2128 1678 2026 1756 
Q 1925 1834 1808 1870 
Q 1691 1906 1544 1906 
L 1113 1906 
L 1113 0 
L 588 0 
L 588 4481 
L 1925 4481 
Q 2219 4481 2467 4407 
Q 2716 4334 2898 4184 
Q 3081 4034 3184 3811 
Q 3288 3588 3288 3288 
Q 3288 3053 3217 2858 
Q 3147 2663 3017 2509 
Q 2888 2356 2705 2248 
Q 2522 2141 2294 2081 
L 2294 2069 
Q 2406 2019 2489 1955 
Q 2572 1891 2647 1803 
Q 2722 1716 2795 1605 
Q 2869 1494 2959 1347 
L 3800 0 
z
M 1113 4006 
L 1113 2381 
L 1825 2381 
Q 2022 2381 2189 2440 
Q 2356 2500 2478 2611 
Q 2600 2722 2669 2883 
Q 2738 3044 2738 3244 
Q 2738 3603 2505 3804 
Q 2272 4006 1831 4006 
L 1113 4006 
z
" transform="scale(0.015625)"/>
        <path id="SegoeUI-45" d="M 2963 0 
L 588 0 
L 588 4481 
L 2863 4481 
L 2863 4006 
L 1113 4006 
L 1113 2516 
L 2731 2516 
L 2731 2044 
L 1113 2044 
L 1113 475 
L 2963 475 
L 2963 0 
z
" transform="scale(0.015625)"/>
        <path id="SegoeUI-44" d="M 588 0 
L 588 4481 
L 1825 4481 
Q 4194 4481 4194 2297 
Q 4194 1259 3536 629 
Q 2878 0 1775 0 
L 588 0 
z
M 1113 4006 
L 1113 475 
L 1781 475 
Q 2663 475 3153 947 
Q 3644 1419 3644 2284 
Q 3644 4006 1813 4006 
L 1113 4006 
z
" transform="scale(0.015625)"/>
       </defs>
       <use xlink:href="#SegoeUI-46"/>
       <use xlink:href="#SegoeUI-52" transform="translate(48.828125 0)"/>
       <use xlink:href="#SegoeUI-45" transform="translate(108.642578 0)"/>
       <use xlink:href="#SegoeUI-44" transform="translate(159.228516 0)"/>
      </g>
     </g>
    </g>
    <g id="ytick_2">
     <g id="line2d_17">
      <path d="M 54 147.611842 
L 666 147.611842 
" clip-path="url(#p2cba927482)" style="fill: none; stroke: #d9dee7; stroke-opacity: 0.45; stroke-width: 0.7; stroke-linecap: square"/>
     </g>
     <g id="line2d_18"/>
     <g id="text_10">
      <!-- Tradingview -->
      <g style="fill: #6b7280" transform="translate(8.535 150.573092) scale(0.08 -0.08)">
       <defs>
        <path id="SegoeUI-54" d="M 3238 4006 
L 1944 4006 
L 1944 0 
L 1419 0 
L 1419 4006 
L 128 4006 
L 128 4481 
L 3238 4481 
L 3238 4006 
z
" transform="scale(0.015625)"/>
       </defs>
       <use xlink:href="#SegoeUI-54"/>
       <use xlink:href="#SegoeUI-72" transform="translate(43.642578 0)"/>
       <use xlink:href="#SegoeUI-61" transform="translate(78.408203 0)"/>
       <use xlink:href="#SegoeUI-64" transform="translate(129.287109 0)"/>
       <use xlink:href="#SegoeUI-69" transform="translate(188.173828 0)"/>
       <use xlink:href="#SegoeUI-6e" transform="translate(212.392578 0)"/>
       <use xlink:href="#SegoeUI-67" transform="translate(268.984375 0)"/>
       <use xlink:href="#SegoeUI-76" transform="translate(327.871094 0)"/>
       <use xlink:href="#SegoeUI-69" transform="translate(375.771484 0)"/>
       <use xlink:href="#SegoeUI-65" transform="translate(399.990234 0)"/>
       <use xlink:href="#SegoeUI-77" transform="translate(452.285156 0)"/>
      </g>
     </g>
    </g>
    <g id="ytick_3">
     <g id="line2d_19">
      <path d="M 54 180.118421 
L 666 180.118421 
" clip-path="url(#p2cba927482)" style="fill: none; stroke: #d9dee7; stroke-opacity: 0.45; stroke-width: 0.7; stroke-linecap: square"/>
     </g>
     <g id="line2d_20"/>
     <g id="text_11">
      <!-- CryptoQuant -->
      <g style="fill: #6b7280" transform="translate(4.66375 183.058421) scale(0.08 -0.08)">
       <defs>
        <path id="SegoeUI-43" d="M 3638 188 
Q 3141 -75 2400 -75 
Q 1444 -75 869 540 
Q 294 1156 294 2156 
Q 294 3231 941 3893 
Q 1588 4556 2581 4556 
Q 3219 4556 3638 4372 
L 3638 3813 
Q 3156 4081 2575 4081 
Q 1803 4081 1323 3565 
Q 844 3050 844 2188 
Q 844 1369 1292 883 
Q 1741 397 2469 397 
Q 3144 397 3638 697 
L 3638 188 
z
" transform="scale(0.015625)"/>
        <path id="SegoeUI-79" d="M 3066 3200 
L 1594 -513 
Q 1200 -1506 488 -1506 
Q 288 -1506 153 -1466 
L 153 -1006 
Q 319 -1063 456 -1063 
Q 844 -1063 1038 -600 
L 1294 6 
L 44 3200 
L 613 3200 
L 1478 738 
Q 1494 691 1544 494 
L 1563 494 
Q 1578 569 1625 731 
L 2534 3200 
L 3066 3200 
z
" transform="scale(0.015625)"/>
        <path id="SegoeUI-70" d="M 1044 463 
L 1031 463 
L 1031 -1472 
L 519 -1472 
L 519 3200 
L 1031 3200 
L 1031 2638 
L 1044 2638 
Q 1422 3275 2150 3275 
Q 2769 3275 3116 2845 
Q 3463 2416 3463 1694 
Q 3463 891 3072 408 
Q 2681 -75 2003 -75 
Q 1381 -75 1044 463 
z
M 1031 1753 
L 1031 1306 
Q 1031 909 1289 632 
Q 1547 356 1944 356 
Q 2409 356 2673 712 
Q 2938 1069 2938 1703 
Q 2938 2238 2691 2541 
Q 2444 2844 2022 2844 
Q 1575 2844 1303 2533 
Q 1031 2222 1031 1753 
z
" transform="scale(0.015625)"/>
        <path id="SegoeUI-74" d="M 2003 31 
Q 1822 -69 1525 -69 
Q 684 -69 684 869 
L 684 2763 
L 134 2763 
L 134 3200 
L 684 3200 
L 684 3981 
L 1197 4147 
L 1197 3200 
L 2003 3200 
L 2003 2763 
L 1197 2763 
L 1197 959 
Q 1197 638 1306 500 
Q 1416 363 1669 363 
Q 1863 363 2003 469 
L 2003 31 
z
" transform="scale(0.015625)"/>
        <path id="SegoeUI-51" d="M 2394 -75 
Q 1444 -75 866 553 
Q 294 1181 294 2188 
Q 294 3272 878 3913 
Q 1466 4556 2469 4556 
Q 3394 4556 3963 3931 
Q 4531 3306 4531 2297 
Q 4531 1200 3950 563 
Q 3813 409 3656 300 
L 4916 -603 
L 3963 -603 
L 3119 28 
Q 2788 -75 2394 -75 
z
M 2431 4081 
Q 1725 4081 1284 3572 
Q 844 3063 844 2234 
Q 844 1409 1272 900 
Q 1703 397 2394 397 
Q 3131 397 3556 878 
Q 3981 1359 3981 2225 
Q 3981 3116 3569 3597 
Q 3156 4081 2431 4081 
z
" transform="scale(0.015625)"/>
       </defs>
       <use xlink:href="#SegoeUI-43"/>
       <use xlink:href="#SegoeUI-72" transform="translate(61.914062 0)"/>
       <use xlink:href="#SegoeUI-79" transform="translate(100.679688 0)"/>
       <use xlink:href="#SegoeUI-70" transform="translate(149.068359 0)"/>
       <use xlink:href="#SegoeUI-74" transform="translate(207.857422 0)"/>
       <use xlink:href="#SegoeUI-6f" transform="translate(240.994141 0)"/>
       <use xlink:href="#SegoeUI-51" transform="translate(299.587891 0)"/>
       <use xlink:href="#SegoeUI-75" transform="translate(374.978516 0)"/>
       <use xlink:href="#SegoeUI-61" transform="translate(431.570312 0)"/>
       <use xlink:href="#SegoeUI-6e" transform="translate(482.449219 0)"/>
       <use xlink:href="#SegoeUI-74" transform="translate(539.041016 0)"/>
      </g>
     </g>
    </g>
    <g id="ytick_4">
     <g id="line2d_21">
      <path d="M 54 212.625 
L 666 212.625 
" clip-path="url(#p2cba927482)" style="fill: none; stroke: #d9dee7; stroke-opacity: 0.45; stroke-width: 0.7; stroke-linecap: square"/>
     </g>
     <g id="line2d_22"/>
     <g id="text_12">
      <!-- Artemis -->
      <g style="fill: #6b7280" transform="translate(23.27 215.58625) scale(0.08 -0.08)">
       <defs>
        <path id="SegoeUI-41" d="M 4056 0 
L 3475 0 
L 3000 1256 
L 1100 1256 
L 653 0 
L 69 0 
L 1788 4481 
L 2331 4481 
L 4056 0 
z
M 2828 1728 
L 2125 3638 
Q 2091 3731 2056 3938 
L 2044 3938 
Q 2013 3747 1972 3638 
L 1275 1728 
L 2828 1728 
z
" transform="scale(0.015625)"/>
        <path id="SegoeUI-6d" d="M 5063 0 
L 4550 0 
L 4550 1838 
Q 4550 2369 4386 2606 
Q 4222 2844 3834 2844 
Q 3506 2844 3276 2544 
Q 3047 2244 3047 1825 
L 3047 0 
L 2534 0 
L 2534 1900 
Q 2534 2844 1806 2844 
Q 1469 2844 1250 2561 
Q 1031 2278 1031 1825 
L 1031 0 
L 519 0 
L 519 3200 
L 1031 3200 
L 1031 2694 
L 1044 2694 
Q 1384 3275 2038 3275 
Q 2366 3275 2609 3092 
Q 2853 2909 2944 2613 
Q 3300 3275 4006 3275 
Q 5063 3275 5063 1972 
L 5063 0 
z
" transform="scale(0.015625)"/>
        <path id="SegoeUI-73" d="M 325 116 
L 325 666 
Q 744 356 1247 356 
Q 1922 356 1922 806 
Q 1922 934 1864 1023 
Q 1806 1113 1707 1181 
Q 1609 1250 1476 1304 
Q 1344 1359 1191 1419 
Q 978 1503 817 1589 
Q 656 1675 548 1783 
Q 441 1891 386 2028 
Q 331 2166 331 2350 
Q 331 2575 434 2748 
Q 538 2922 709 3039 
Q 881 3156 1101 3215 
Q 1322 3275 1556 3275 
Q 1972 3275 2300 3131 
L 2300 2613 
Q 1947 2844 1488 2844 
Q 1344 2844 1228 2811 
Q 1113 2778 1030 2718 
Q 947 2659 901 2576 
Q 856 2494 856 2394 
Q 856 2269 901 2184 
Q 947 2100 1034 2034 
Q 1122 1969 1247 1916 
Q 1372 1863 1531 1800 
Q 1744 1719 1912 1633 
Q 2081 1547 2200 1439 
Q 2319 1331 2383 1190 
Q 2447 1050 2447 856 
Q 2447 619 2342 444 
Q 2238 269 2063 153 
Q 1888 38 1659 -18 
Q 1431 -75 1181 -75 
Q 688 -75 325 116 
z
" transform="scale(0.015625)"/>
       </defs>
       <use xlink:href="#SegoeUI-41"/>
       <use xlink:href="#SegoeUI-72" transform="translate(64.501953 0)"/>
       <use xlink:href="#SegoeUI-74" transform="translate(102.142578 0)"/>
       <use xlink:href="#SegoeUI-65" transform="translate(135.279297 0)"/>
       <use xlink:href="#SegoeUI-6d" transform="translate(187.574219 0)"/>
       <use xlink:href="#SegoeUI-69" transform="translate(273.707031 0)"/>
       <use xlink:href="#SegoeUI-73" transform="translate(297.925781 0)"/>
      </g>
     </g>
    </g>
    <g id="ytick_5">
     <g id="line2d_23">
      <path d="M 54 245.131579 
L 666 245.131579 
" clip-path="url(#p2cba927482)" style="fill: none; stroke: #d9dee7; stroke-opacity: 0.45; stroke-width: 0.7; stroke-linecap: square"/>
     </g>
     <g id="line2d_24"/>
     <g id="text_13">
      <!-- DefiLlama -->
      <g style="fill: #6b7280" transform="translate(15.53 248.092829) scale(0.08 -0.08)">
       <defs>
        <path id="SegoeUI-66" d="M 2100 4288 
Q 1950 4372 1759 4372 
Q 1222 4372 1222 3694 
L 1222 3200 
L 1972 3200 
L 1972 2763 
L 1222 2763 
L 1222 0 
L 713 0 
L 713 2763 
L 166 2763 
L 166 3200 
L 713 3200 
L 713 3719 
Q 713 4222 1003 4514 
Q 1294 4806 1728 4806 
Q 1963 4806 2100 4750 
L 2100 4288 
z
" transform="scale(0.015625)"/>
        <path id="SegoeUI-4c" d="M 2913 0 
L 588 0 
L 588 4481 
L 1113 4481 
L 1113 475 
L 2913 475 
L 2913 0 
z
" transform="scale(0.015625)"/>
        <path id="SegoeUI-6c" d="M 1031 0 
L 519 0 
L 519 4738 
L 1031 4738 
L 1031 0 
z
" transform="scale(0.015625)"/>
       </defs>
       <use xlink:href="#SegoeUI-44"/>
       <use xlink:href="#SegoeUI-65" transform="translate(70.117188 0)"/>
       <use xlink:href="#SegoeUI-66" transform="translate(122.412109 0)"/>
       <use xlink:href="#SegoeUI-69" transform="translate(153.710938 0)"/>
       <use xlink:href="#SegoeUI-4c" transform="translate(177.929688 0)"/>
       <use xlink:href="#SegoeUI-6c" transform="translate(225 0)"/>
       <use xlink:href="#SegoeUI-61" transform="translate(249.21875 0)"/>
       <use xlink:href="#SegoeUI-6d" transform="translate(300.097656 0)"/>
       <use xlink:href="#SegoeUI-61" transform="translate(386.230469 0)"/>
      </g>
     </g>
    </g>
    <g id="ytick_6">
     <g id="line2d_25">
      <path d="M 54 277.638158 
L 666 277.638158 
" clip-path="url(#p2cba927482)" style="fill: none; stroke: #d9dee7; stroke-opacity: 0.45; stroke-width: 0.7; stroke-linecap: square"/>
     </g>
     <g id="line2d_26"/>
     <g id="text_14">
      <!-- AlternativeMe -->
      <g style="fill: #6b7280" transform="translate(1.22625 280.599408) scale(0.08 -0.08)">
       <defs>
        <path id="SegoeUI-4d" d="M 5156 0 
L 4634 0 
L 4634 3006 
Q 4634 3363 4678 3878 
L 4666 3878 
Q 4591 3575 4531 3444 
L 3000 0 
L 2744 0 
L 1216 3419 
Q 1150 3569 1081 3878 
L 1069 3878 
Q 1094 3609 1094 3000 
L 1094 0 
L 588 0 
L 588 4481 
L 1281 4481 
L 2656 1356 
Q 2816 997 2863 819 
L 2881 819 
Q 3016 1188 3097 1369 
L 4500 4481 
L 5156 4481 
L 5156 0 
z
" transform="scale(0.015625)"/>
       </defs>
       <use xlink:href="#SegoeUI-41"/>
       <use xlink:href="#SegoeUI-6c" transform="translate(64.501953 0)"/>
       <use xlink:href="#SegoeUI-74" transform="translate(88.720703 0)"/>
       <use xlink:href="#SegoeUI-65" transform="translate(121.857422 0)"/>
       <use xlink:href="#SegoeUI-72" transform="translate(174.152344 0)"/>
       <use xlink:href="#SegoeUI-6e" transform="translate(208.667969 0)"/>
       <use xlink:href="#SegoeUI-61" transform="translate(265.259766 0)"/>
       <use xlink:href="#SegoeUI-74" transform="translate(316.138672 0)"/>
       <use xlink:href="#SegoeUI-69" transform="translate(350.025391 0)"/>
       <use xlink:href="#SegoeUI-76" transform="translate(374.244141 0)"/>
       <use xlink:href="#SegoeUI-65" transform="translate(421.519531 0)"/>
       <use xlink:href="#SegoeUI-4d" transform="translate(473.814453 0)"/>
       <use xlink:href="#SegoeUI-65" transform="translate(563.609375 0)"/>
      </g>
     </g>
    </g>
    <g id="ytick_7">
     <g id="line2d_27">
      <path d="M 54 310.144737 
L 666 310.144737 
" clip-path="url(#p2cba927482)" style="fill: none; stroke: #d9dee7; stroke-opacity: 0.45; stroke-width: 0.7; stroke-linecap: square"/>
     </g>
     <g id="line2d_28"/>
     <g id="text_15">
      <!-- Farside ETF Data -->
      <g style="fill: #6b7280" transform="translate(-7.24375 313.105987) scale(0.08 -0.08)">
       <use xlink:href="#SegoeUI-46"/>
       <use xlink:href="#SegoeUI-61" transform="translate(45.078125 0)"/>
       <use xlink:href="#SegoeUI-72" transform="translate(95.957031 0)"/>
       <use xlink:href="#SegoeUI-73" transform="translate(131.347656 0)"/>
       <use xlink:href="#SegoeUI-69" transform="translate(173.779297 0)"/>
       <use xlink:href="#SegoeUI-64" transform="translate(197.998047 0)"/>
       <use xlink:href="#SegoeUI-65" transform="translate(256.884766 0)"/>
       <use xlink:href="#SegoeUI-20" transform="translate(309.179688 0)"/>
       <use xlink:href="#SegoeUI-45" transform="translate(336.572266 0)"/>
       <use xlink:href="#SegoeUI-54" transform="translate(387.408203 0)"/>
       <use xlink:href="#SegoeUI-46" transform="translate(439.800781 0)"/>
       <use xlink:href="#SegoeUI-20" transform="translate(488.628906 0)"/>
       <use xlink:href="#SegoeUI-44" transform="translate(516.021484 0)"/>
       <use xlink:href="#SegoeUI-61" transform="translate(586.138672 0)"/>
       <use xlink:href="#SegoeUI-74" transform="translate(637.017578 0)"/>
       <use xlink:href="#SegoeUI-61" transform="translate(670.904297 0)"/>
      </g>
     </g>
    </g>
   </g>
   <g id="line2d_29">
    <path d="M 336.014252 336.15 
L 336.014252 89.1 
" clip-path="url(#p2cba927482)" style="fill: none; stroke-dasharray: 1,1.65; stroke-dashoffset: 0; stroke: #dc2626; stroke-opacity: 0.78"/>
   </g>
   <g id="line2d_30">
    <path d="M 365.572447 336.15 
L 365.572447 89.1 
" clip-path="url(#p2cba927482)" style="fill: none; stroke-dasharray: 1,1.65; stroke-dashoffset: 0; stroke: #d97706; stroke-opacity: 0.78"/>
   </g>
   <g id="line2d_31">
    <path d="M 439.952494 336.15 
L 439.952494 89.1 
" clip-path="url(#p2cba927482)" style="fill: none; stroke-dasharray: 1,1.65; stroke-dashoffset: 0; stroke: #0f766e; stroke-opacity: 0.78"/>
   </g>
   <g id="line2d_32">
    <path d="M 464.180523 336.15 
L 464.180523 89.1 
" clip-path="url(#p2cba927482)" style="fill: none; stroke-dasharray: 1,1.65; stroke-dashoffset: 0; stroke: #7c3aed; stroke-opacity: 0.78"/>
   </g>
   <g id="line2d_33">
    <path d="M 486.954869 336.15 
L 486.954869 89.1 
" clip-path="url(#p2cba927482)" style="fill: none; stroke-dasharray: 1,1.65; stroke-dashoffset: 0; stroke: #627eea; stroke-opacity: 0.78"/>
   </g>
   <g id="text_16">
    <!-- 20 files -->
    <g style="fill: #6b7280" transform="translate(647.102138 117.018935) scale(0.075 -0.075)">
     <use xlink:href="#SegoeUI-32"/>
     <use xlink:href="#SegoeUI-30" transform="translate(53.90625 0)"/>
     <use xlink:href="#SegoeUI-20" transform="translate(107.8125 0)"/>
     <use xlink:href="#SegoeUI-66" transform="translate(135.205078 0)"/>
     <use xlink:href="#SegoeUI-69" transform="translate(166.503906 0)"/>
     <use xlink:href="#SegoeUI-6c" transform="translate(190.722656 0)"/>
     <use xlink:href="#SegoeUI-65" transform="translate(214.941406 0)"/>
     <use xlink:href="#SegoeUI-73" transform="translate(267.236328 0)"/>
    </g>
   </g>
   <g id="text_17">
    <!-- 44 files -->
    <g style="fill: #6b7280" transform="translate(647.586698 149.525514) scale(0.075 -0.075)">
     <use xlink:href="#SegoeUI-34"/>
     <use xlink:href="#SegoeUI-34" transform="translate(53.90625 0)"/>
     <use xlink:href="#SegoeUI-20" transform="translate(107.8125 0)"/>
     <use xlink:href="#SegoeUI-66" transform="translate(135.205078 0)"/>
     <use xlink:href="#SegoeUI-69" transform="translate(166.503906 0)"/>
     <use xlink:href="#SegoeUI-6c" transform="translate(190.722656 0)"/>
     <use xlink:href="#SegoeUI-65" transform="translate(214.941406 0)"/>
     <use xlink:href="#SegoeUI-73" transform="translate(267.236328 0)"/>
    </g>
   </g>
   <g id="text_18">
    <!-- 345 files -->
    <g style="fill: #6b7280" transform="translate(645.890736 182.032093) scale(0.075 -0.075)">
     <use xlink:href="#SegoeUI-33"/>
     <use xlink:href="#SegoeUI-34" transform="translate(53.90625 0)"/>
     <use xlink:href="#SegoeUI-35" transform="translate(107.8125 0)"/>
     <use xlink:href="#SegoeUI-20" transform="translate(161.71875 0)"/>
     <use xlink:href="#SegoeUI-66" transform="translate(189.111328 0)"/>
     <use xlink:href="#SegoeUI-69" transform="translate(220.410156 0)"/>
     <use xlink:href="#SegoeUI-6c" transform="translate(244.628906 0)"/>
     <use xlink:href="#SegoeUI-65" transform="translate(268.847656 0)"/>
     <use xlink:href="#SegoeUI-73" transform="translate(321.142578 0)"/>
    </g>
   </g>
   <g id="text_19">
    <!-- 47 files -->
    <g style="fill: #6b7280" transform="translate(650.251781 214.538672) scale(0.075 -0.075)">
     <defs>
      <path id="SegoeUI-37" d="M 3156 4184 
Q 3053 4006 2908 3740 
Q 2763 3475 2600 3144 
Q 2438 2813 2269 2431 
Q 2100 2050 1953 1644 
Q 1806 1238 1695 820 
Q 1584 403 1534 0 
L 984 0 
Q 1041 400 1158 817 
Q 1275 1234 1423 1636 
Q 1572 2038 1737 2409 
Q 1903 2781 2059 3093 
Q 2216 3406 2345 3645 
Q 2475 3884 2553 4019 
L 306 4019 
L 306 4481 
L 3156 4481 
L 3156 4184 
z
" transform="scale(0.015625)"/>
     </defs>
     <use xlink:href="#SegoeUI-34"/>
     <use xlink:href="#SegoeUI-37" transform="translate(53.90625 0)"/>
     <use xlink:href="#SegoeUI-20" transform="translate(107.8125 0)"/>
     <use xlink:href="#SegoeUI-66" transform="translate(135.205078 0)"/>
     <use xlink:href="#SegoeUI-69" transform="translate(166.503906 0)"/>
     <use xlink:href="#SegoeUI-6c" transform="translate(190.722656 0)"/>
     <use xlink:href="#SegoeUI-65" transform="translate(214.941406 0)"/>
     <use xlink:href="#SegoeUI-73" transform="translate(267.236328 0)"/>
    </g>
   </g>
   <g id="text_20">
    <!-- 21 files -->
    <g style="fill: #6b7280" transform="translate(647.586698 247.045251) scale(0.075 -0.075)">
     <use xlink:href="#SegoeUI-32"/>
     <use xlink:href="#SegoeUI-31" transform="translate(53.90625 0)"/>
     <use xlink:href="#SegoeUI-20" transform="translate(107.8125 0)"/>
     <use xlink:href="#SegoeUI-66" transform="translate(135.205078 0)"/>
     <use xlink:href="#SegoeUI-69" transform="translate(166.503906 0)"/>
     <use xlink:href="#SegoeUI-6c" transform="translate(190.722656 0)"/>
     <use xlink:href="#SegoeUI-65" transform="translate(214.941406 0)"/>
     <use xlink:href="#SegoeUI-73" transform="translate(267.236328 0)"/>
    </g>
   </g>
   <g id="text_21">
    <!-- 1 files -->
    <g style="fill: #6b7280" transform="translate(647.102138 279.55183) scale(0.075 -0.075)">
     <use xlink:href="#SegoeUI-31"/>
     <use xlink:href="#SegoeUI-20" transform="translate(53.90625 0)"/>
     <use xlink:href="#SegoeUI-66" transform="translate(81.298828 0)"/>
     <use xlink:href="#SegoeUI-69" transform="translate(112.597656 0)"/>
     <use xlink:href="#SegoeUI-6c" transform="translate(136.816406 0)"/>
     <use xlink:href="#SegoeUI-65" transform="translate(161.035156 0)"/>
     <use xlink:href="#SegoeUI-73" transform="translate(213.330078 0)"/>
    </g>
   </g>
   <g id="text_22">
    <!-- 3 files -->
    <g style="fill: #6b7280" transform="translate(645.406176 312.058409) scale(0.075 -0.075)">
     <use xlink:href="#SegoeUI-33"/>
     <use xlink:href="#SegoeUI-20" transform="translate(53.90625 0)"/>
     <use xlink:href="#SegoeUI-66" transform="translate(81.298828 0)"/>
     <use xlink:href="#SegoeUI-69" transform="translate(112.597656 0)"/>
     <use xlink:href="#SegoeUI-6c" transform="translate(136.816406 0)"/>
     <use xlink:href="#SegoeUI-65" transform="translate(161.035156 0)"/>
     <use xlink:href="#SegoeUI-73" transform="translate(213.330078 0)"/>
    </g>
   </g>
   <g id="text_23">
    <!-- FTX -->
    <g style="fill: #dc2626; opacity: 0.95" transform="translate(334.404252 115.163469) rotate(-90) scale(0.07 -0.07)">
     <defs>
      <path id="SegoeUI-58" d="M 3681 0 
L 3041 0 
L 2009 1716 
Q 1963 1794 1906 1938 
L 1894 1938 
Q 1863 1866 1788 1716 
L 725 0 
L 81 0 
L 1581 2253 
L 200 4481 
L 844 4481 
L 1759 2906 
Q 1850 2750 1919 2594 
L 1931 2594 
Q 2031 2800 2106 2919 
L 3059 4481 
L 3663 4481 
L 2253 2259 
L 3681 0 
z
" transform="scale(0.015625)"/>
     </defs>
     <use xlink:href="#SegoeUI-46"/>
     <use xlink:href="#SegoeUI-54" transform="translate(49.453125 0)"/>
     <use xlink:href="#SegoeUI-58" transform="translate(101.595703 0)"/>
    </g>
   </g>
   <g id="text_24">
    <!-- SVB -->
    <g style="fill: #d97706; opacity: 0.95" transform="translate(363.962447 116.002375) rotate(-90) scale(0.07 -0.07)">
     <defs>
      <path id="SegoeUI-56" d="M 3919 4481 
L 2259 0 
L 1681 0 
L 56 4481 
L 641 4481 
L 1881 928 
Q 1941 756 1972 531 
L 1984 531 
Q 2009 719 2088 934 
L 3353 4481 
L 3919 4481 
z
" transform="scale(0.015625)"/>
      <path id="SegoeUI-42" d="M 588 0 
L 588 4481 
L 1863 4481 
Q 2444 4481 2784 4197 
Q 3125 3913 3125 3456 
Q 3125 3075 2919 2794 
Q 2713 2513 2350 2394 
L 2350 2381 
Q 2803 2328 3075 2039 
Q 3347 1750 3347 1288 
Q 3347 713 2934 356 
Q 2522 0 1894 0 
L 588 0 
z
M 1113 4006 
L 1113 2559 
L 1650 2559 
Q 2081 2559 2328 2767 
Q 2575 2975 2575 3353 
Q 2575 4006 1716 4006 
L 1113 4006 
z
M 1113 2088 
L 1113 475 
L 1825 475 
Q 2288 475 2542 694 
Q 2797 913 2797 1294 
Q 2797 2088 1716 2088 
L 1113 2088 
z
" transform="scale(0.015625)"/>
     </defs>
     <use xlink:href="#SegoeUI-53"/>
     <use xlink:href="#SegoeUI-56" transform="translate(53.125 0)"/>
     <use xlink:href="#SegoeUI-42" transform="translate(115.234375 0)"/>
    </g>
   </g>
   <g id="text_25">
    <!-- BTC ETF -->
    <g style="fill: #0f766e; opacity: 0.95" transform="translate(438.342494 127.869563) rotate(-90) scale(0.07 -0.07)">
     <use xlink:href="#SegoeUI-42"/>
     <use xlink:href="#SegoeUI-54" transform="translate(52.824219 0)"/>
     <use xlink:href="#SegoeUI-43" transform="translate(100.716797 0)"/>
     <use xlink:href="#SegoeUI-20" transform="translate(162.630859 0)"/>
     <use xlink:href="#SegoeUI-45" transform="translate(190.023438 0)"/>
     <use xlink:href="#SegoeUI-54" transform="translate(240.859375 0)"/>
     <use xlink:href="#SegoeUI-46" transform="translate(293.251953 0)"/>
    </g>
   </g>
   <g id="text_26">
    <!-- Halving -->
    <g style="fill: #7c3aed; opacity: 0.95" transform="translate(462.533335 127.282219) rotate(-90) scale(0.07 -0.07)">
     <defs>
      <path id="SegoeUI-48" d="M 3956 0 
L 3431 0 
L 3431 2044 
L 1113 2044 
L 1113 0 
L 588 0 
L 588 4481 
L 1113 4481 
L 1113 2516 
L 3431 2516 
L 3431 4481 
L 3956 4481 
L 3956 0 
z
" transform="scale(0.015625)"/>
     </defs>
     <use xlink:href="#SegoeUI-48"/>
     <use xlink:href="#SegoeUI-61" transform="translate(70.996094 0)"/>
     <use xlink:href="#SegoeUI-6c" transform="translate(121.875 0)"/>
     <use xlink:href="#SegoeUI-76" transform="translate(146.09375 0)"/>
     <use xlink:href="#SegoeUI-69" transform="translate(193.994141 0)"/>
     <use xlink:href="#SegoeUI-6e" transform="translate(218.212891 0)"/>
     <use xlink:href="#SegoeUI-67" transform="translate(274.804688 0)"/>
    </g>
   </g>
   <g id="text_27">
    <!-- ETH ETF -->
    <g style="fill: #627eea; opacity: 0.95" transform="translate(485.344869 128.681125) rotate(-90) scale(0.07 -0.07)">
     <use xlink:href="#SegoeUI-45"/>
     <use xlink:href="#SegoeUI-54" transform="translate(50.835938 0)"/>
     <use xlink:href="#SegoeUI-48" transform="translate(103.228516 0)"/>
     <use xlink:href="#SegoeUI-20" transform="translate(174.224609 0)"/>
     <use xlink:href="#SegoeUI-45" transform="translate(201.617188 0)"/>
     <use xlink:href="#SegoeUI-54" transform="translate(252.453125 0)"/>
     <use xlink:href="#SegoeUI-46" transform="translate(304.845703 0)"/>
    </g>
   </g>
  </g>
  <g id="text_28">
   <!-- Data Coverage -->
   <g style="fill: #111827" transform="translate(39.6 39.555) scale(0.18 -0.18)">
    <defs>
     <path id="SegoeUI-Semibold-44" d="M 553 0 
L 553 4481 
L 1847 4481 
Q 4325 4481 4325 2297 
Q 4325 1259 3637 629 
Q 2950 0 1794 0 
L 553 0 
z
M 1294 3850 
L 1294 628 
L 1888 628 
Q 2672 628 3108 1059 
Q 3544 1491 3544 2278 
Q 3544 3850 1916 3850 
L 1294 3850 
z
" transform="scale(0.015625)"/>
     <path id="SegoeUI-Semibold-61" d="M 2928 0 
L 2225 0 
L 2225 500 
L 2213 500 
Q 1881 -75 1241 -75 
Q 769 -75 501 181 
Q 234 438 234 859 
Q 234 1766 1278 1916 
L 2228 2050 
Q 2228 2734 1578 2734 
Q 1006 2734 547 2341 
L 547 2975 
Q 1053 3275 1716 3275 
Q 2928 3275 2928 2081 
L 2928 0 
z
M 2228 1572 
L 1556 1478 
Q 1244 1438 1086 1327 
Q 928 1216 928 938 
Q 928 734 1073 604 
Q 1219 475 1463 475 
Q 1794 475 2011 708 
Q 2228 941 2228 1294 
L 2228 1572 
z
" transform="scale(0.015625)"/>
     <path id="SegoeUI-Semibold-74" d="M 2159 34 
Q 1947 -72 1600 -72 
Q 669 -72 669 822 
L 669 2631 
L 134 2631 
L 134 3200 
L 669 3200 
L 669 3941 
L 1394 4147 
L 1394 3200 
L 2159 3200 
L 2159 2631 
L 1394 2631 
L 1394 1031 
Q 1394 747 1497 625 
Q 1600 503 1841 503 
Q 2025 503 2159 609 
L 2159 34 
z
" transform="scale(0.015625)"/>
     <path id="SegoeUI-Semibold-20" transform="scale(0.015625)"/>
     <path id="SegoeUI-Semibold-43" d="M 3678 188 
Q 3172 -75 2419 -75 
Q 1444 -75 856 540 
Q 269 1156 269 2156 
Q 269 3231 930 3893 
Q 1591 4556 2600 4556 
Q 3250 4556 3678 4372 
L 3678 3634 
Q 3225 3903 2678 3903 
Q 1950 3903 1498 3437 
Q 1047 2972 1047 2194 
Q 1047 1453 1469 1014 
Q 1891 575 2578 575 
Q 3213 575 3678 875 
L 3678 188 
z
" transform="scale(0.015625)"/>
     <path id="SegoeUI-Semibold-6f" d="M 1891 -75 
Q 1150 -75 708 373 
Q 266 822 266 1563 
Q 266 2369 727 2822 
Q 1188 3275 1969 3275 
Q 2719 3275 3137 2834 
Q 3556 2394 3556 1613 
Q 3556 847 3104 386 
Q 2653 -75 1891 -75 
z
M 1925 2697 
Q 1500 2697 1253 2400 
Q 1006 2103 1006 1581 
Q 1006 1078 1256 789 
Q 1506 500 1925 500 
Q 2353 500 2583 784 
Q 2813 1069 2813 1594 
Q 2813 2122 2583 2409 
Q 2353 2697 1925 2697 
z
" transform="scale(0.015625)"/>
     <path id="SegoeUI-Semibold-76" d="M 3228 3200 
L 1991 0 
L 1206 0 
L 28 3200 
L 816 3200 
L 1525 963 
Q 1606 716 1625 531 
L 1634 531 
Q 1663 763 1722 950 
L 2466 3200 
L 3228 3200 
z
" transform="scale(0.015625)"/>
     <path id="SegoeUI-Semibold-65" d="M 3181 1403 
L 1000 1403 
Q 1013 959 1273 718 
Q 1534 478 1991 478 
Q 2503 478 2931 784 
L 2931 200 
Q 2494 -75 1775 -75 
Q 1069 -75 667 361 
Q 266 797 266 1588 
Q 266 2334 708 2804 
Q 1150 3275 1806 3275 
Q 2463 3275 2822 2853 
Q 3181 2431 3181 1681 
L 3181 1403 
z
M 2481 1916 
Q 2478 2306 2297 2523 
Q 2116 2741 1797 2741 
Q 1484 2741 1267 2512 
Q 1050 2284 1000 1916 
L 2481 1916 
z
" transform="scale(0.015625)"/>
     <path id="SegoeUI-Semibold-72" d="M 2328 2509 
Q 2197 2613 1950 2613 
Q 1628 2613 1412 2322 
Q 1197 2031 1197 1531 
L 1197 0 
L 472 0 
L 472 3200 
L 1197 3200 
L 1197 2541 
L 1209 2541 
Q 1316 2878 1536 3067 
Q 1756 3256 2028 3256 
Q 2225 3256 2328 3197 
L 2328 2509 
z
" transform="scale(0.015625)"/>
     <path id="SegoeUI-Semibold-67" d="M 3384 256 
Q 3384 -1506 1613 -1506 
Q 988 -1506 522 -1297 
L 522 -634 
Q 1047 -934 1519 -934 
Q 2659 -934 2659 188 
L 2659 538 
L 2647 538 
Q 2288 -75 1566 -75 
Q 981 -75 623 351 
Q 266 778 266 1497 
Q 266 2313 650 2794 
Q 1034 3275 1706 3275 
Q 2341 3275 2647 2756 
L 2659 2756 
L 2659 3200 
L 3384 3200 
L 3384 256 
z
M 2666 1466 
L 2666 1881 
Q 2666 2219 2442 2458 
Q 2219 2697 1884 2697 
Q 1472 2697 1239 2392 
Q 1006 2088 1006 1541 
Q 1006 1069 1229 786 
Q 1453 503 1822 503 
Q 2197 503 2431 773 
Q 2666 1044 2666 1466 
z
" transform="scale(0.015625)"/>
    </defs>
    <use xlink:href="#SegoeUI-Semibold-44"/>
    <use xlink:href="#SegoeUI-Semibold-61" transform="translate(71.728516 0)"/>
    <use xlink:href="#SegoeUI-Semibold-74" transform="translate(123.925781 0)"/>
    <use xlink:href="#SegoeUI-Semibold-61" transform="translate(160.058594 0)"/>
    <use xlink:href="#SegoeUI-Semibold-20" transform="translate(212.255859 0)"/>
    <use xlink:href="#SegoeUI-Semibold-43" transform="translate(239.746094 0)"/>
    <use xlink:href="#SegoeUI-Semibold-6f" transform="translate(301.855469 0)"/>
    <use xlink:href="#SegoeUI-Semibold-76" transform="translate(361.572266 0)"/>
    <use xlink:href="#SegoeUI-Semibold-65" transform="translate(411.554688 0)"/>
    <use xlink:href="#SegoeUI-Semibold-72" transform="translate(464.679688 0)"/>
    <use xlink:href="#SegoeUI-Semibold-61" transform="translate(501.691406 0)"/>
    <use xlink:href="#SegoeUI-Semibold-67" transform="translate(553.888672 0)"/>
    <use xlink:href="#SegoeUI-Semibold-65" transform="translate(614.142578 0)"/>
   </g>
  </g>
 </g>
 <defs>
  <clipPath id="p2cba927482">
   <rect x="54" y="89.1" width="612" height="247.05"/>
  </clipPath>
 </defs>
</svg>
