<?xml version="1.0" encoding="utf-8" standalone="no"?>
<!DOCTYPE svg PUBLIC "-//W3C//DTD SVG 1.1//EN"
  "http://www.w3.org/Graphics/SVG/1.1/DTD/svg11.dtd">
<svg xmlns:xlink="http://www.w3.org/1999/xlink" width="626.163347pt" height="356.320312pt" viewBox="0 0 626.163347 356.320312" xmlns="http://www.w3.org/2000/svg" version="1.1">
 <metadata>
  <rdf:RDF xmlns:dc="http://purl.org/dc/elements/1.1/" xmlns:cc="http://creativecommons.org/ns#" xmlns:rdf="http://www.w3.org/1999/02/22-rdf-syntax-ns#">
   <cc:Work>
    <dc:type rdf:resource="http://purl.org/dc/dcmitype/StillImage"/>
    <dc:date>2026-06-16T14:42:02.374095</dc:date>
    <dc:format>image/svg+xml</dc:format>
    <dc:creator>
     <cc:Agent>
      <dc:title>Matplotlib v3.10.8, https://matplotlib.org/</dc:title>
     </cc:Agent>
    </dc:creator>
   </cc:Work>
  </rdf:RDF>
 </metadata>
 <defs>
  <style type="text/css">*{stroke-linejoin: round; stroke-linecap: butt}</style>
 </defs>
 <g id="figure_1">
  <g id="patch_1">
   <path d="M 0 356.320312 
L 626.163347 356.320312 
L 626.163347 0 
L 0 0 
z
" style="fill: #fafaf7"/>
  </g>
  <g id="axes_1">
   <g id="patch_2">
    <path d="M 147.6 325.125 
L 615.6 325.125 
L 615.6 61.875 
L 147.6 61.875 
z
" style="fill: #ffffff"/>
   </g>
   <g id="matplotlib.axis_1">
    <g id="xtick_1">
     <g id="line2d_1">
      <path d="M 147.6 325.125 
L 147.6 61.875 
" clip-path="url(#p0d7259ccbb)" style="fill: none; stroke: #d9dee7; stroke-opacity: 0.45; stroke-width: 0.7; stroke-linecap: square"/>
     </g>
     <g id="line2d_2"/>
     <g id="text_1">
      <!-- 0.0 -->
      <g style="fill: #6b7280" transform="translate(142.42 334.5475) scale(0.08 -0.08)">
       <defs>
        <path id="SegoeUI-30" d="M 3188 2259 
Q 3188 1697 3086 1262 
Q 2984 828 2792 529 
Q 2600 231 2320 76 
Q 2041 -78 1684 -78 
Q 1347 -78 1083 70 
Q 819 219 637 503 
Q 456 788 362 1202 
Q 269 1616 269 2150 
Q 269 2738 367 3188 
Q 466 3638 656 3942 
Q 847 4247 1130 4401 
Q 1413 4556 1778 4556 
Q 3188 4556 3188 2259 
z
M 2663 2209 
Q 2663 4122 1753 4122 
Q 794 4122 794 2175 
Q 794 359 1734 359 
Q 2663 359 2663 2209 
z
" transform="scale(0.015625)"/>
        <path id="SegoeUI-2e" d="M 697 -69 
Q 553 -69 451 34 
Q 350 138 350 281 
Q 350 425 451 529 
Q 553 634 697 634 
Q 844 634 947 529 
Q 1050 425 1050 281 
Q 1050 138 947 34 
Q 844 -69 697 -69 
z
" transform="scale(0.015625)"/>
       </defs>
       <use xlink:href="#SegoeUI-30"/>
       <use xlink:href="#SegoeUI-2e" transform="translate(53.90625 0)"/>
       <use xlink:href="#SegoeUI-30" transform="translate(75.585938 0)"/>
      </g>
     </g>
    </g>
    <g id="xtick_2">
     <g id="line2d_3">
      <path d="M 244.415601 325.125 
L 244.415601 61.875 
" clip-path="url(#p0d7259ccbb)" style="fill: none; stroke: #d9dee7; stroke-opacity: 0.45; stroke-width: 0.7; stroke-linecap: square"/>
     </g>
     <g id="line2d_4"/>
     <g id="text_2">
      <!-- 0.2 -->
      <g style="fill: #6b7280" transform="translate(239.235601 334.5475) scale(0.08 -0.08)">
       <defs>
        <path id="SegoeUI-32" d="M 2413 3306 
Q 2413 3513 2348 3666 
Q 2284 3819 2173 3920 
Q 2063 4022 1913 4072 
Q 1763 4122 1588 4122 
Q 1438 4122 1294 4081 
Q 1150 4041 1014 3969 
Q 878 3897 751 3797 
Q 625 3697 516 3575 
L 516 4125 
Q 731 4334 998 4445 
Q 1266 4556 1650 4556 
Q 1925 4556 2159 4476 
Q 2394 4397 2566 4244 
Q 2738 4091 2836 3866 
Q 2934 3641 2934 3350 
Q 2934 3084 2873 2868 
Q 2813 2653 2689 2462 
Q 2566 2272 2378 2097 
Q 2191 1922 1938 1741 
Q 1622 1516 1417 1356 
Q 1213 1197 1092 1058 
Q 972 919 923 780 
Q 875 641 875 459 
L 3106 459 
L 3106 0 
L 341 0 
L 341 222 
Q 341 509 403 728 
Q 466 947 609 1144 
Q 753 1341 986 1537 
Q 1219 1734 1556 1981 
Q 1800 2156 1964 2315 
Q 2128 2475 2228 2634 
Q 2328 2794 2370 2958 
Q 2413 3122 2413 3306 
z
" transform="scale(0.015625)"/>
       </defs>
       <use xlink:href="#SegoeUI-30"/>
       <use xlink:href="#SegoeUI-2e" transform="translate(53.90625 0)"/>
       <use xlink:href="#SegoeUI-32" transform="translate(75.585938 0)"/>
      </g>
     </g>
    </g>
    <g id="xtick_3">
     <g id="line2d_5">
      <path d="M 341.231202 325.125 
L 341.231202 61.875 
" clip-path="url(#p0d7259ccbb)" style="fill: none; stroke: #d9dee7; stroke-opacity: 0.45; stroke-width: 0.7; stroke-linecap: square"/>
     </g>
     <g id="line2d_6"/>
     <g id="text_3">
      <!-- 0.4 -->
      <g style="fill: #6b7280" transform="translate(336.051202 334.5475) scale(0.08 -0.08)">
       <defs>
        <path id="SegoeUI-34" d="M 2656 4481 
L 2656 1522 
L 3231 1522 
L 3231 1053 
L 2656 1053 
L 2656 0 
L 2150 0 
L 2150 1053 
L 44 1053 
L 44 1497 
Q 338 1828 638 2204 
Q 938 2581 1211 2968 
Q 1484 3356 1717 3742 
Q 1950 4128 2109 4481 
L 2656 4481 
z
M 622 1522 
L 2150 1522 
L 2150 3716 
Q 1916 3306 1706 2984 
Q 1497 2663 1308 2400 
Q 1119 2138 947 1925 
Q 775 1713 622 1522 
z
" transform="scale(0.015625)"/>
       </defs>
       <use xlink:href="#SegoeUI-30"/>
       <use xlink:href="#SegoeUI-2e" transform="translate(53.90625 0)"/>
       <use xlink:href="#SegoeUI-34" transform="translate(75.585938 0)"/>
      </g>
     </g>
    </g>
    <g id="xtick_4">
     <g id="line2d_7">
      <path d="M 438.046803 325.125 
L 438.046803 61.875 
" clip-path="url(#p0d7259ccbb)" style="fill: none; stroke: #d9dee7; stroke-opacity: 0.45; stroke-width: 0.7; stroke-linecap: square"/>
     </g>
     <g id="line2d_8"/>
     <g id="text_4">
      <!-- 0.6 -->
      <g style="fill: #6b7280" transform="translate(432.866803 334.5475) scale(0.08 -0.08)">
       <defs>
        <path id="SegoeUI-36" d="M 3194 1422 
Q 3194 1094 3087 819 
Q 2981 544 2793 344 
Q 2606 144 2347 33 
Q 2088 -78 1784 -78 
Q 1447 -78 1180 62 
Q 913 203 727 467 
Q 541 731 444 1112 
Q 347 1494 347 1972 
Q 347 2556 476 3032 
Q 606 3509 845 3848 
Q 1084 4188 1421 4372 
Q 1759 4556 2175 4556 
Q 2638 4556 2919 4428 
L 2919 3944 
Q 2572 4122 2188 4122 
Q 1888 4122 1647 3987 
Q 1406 3853 1234 3608 
Q 1063 3363 970 3016 
Q 878 2669 878 2244 
L 891 2244 
Q 1200 2803 1913 2803 
Q 2206 2803 2442 2703 
Q 2678 2603 2845 2420 
Q 3013 2238 3103 1984 
Q 3194 1731 3194 1422 
z
M 2669 1356 
Q 2669 1591 2609 1778 
Q 2550 1966 2439 2097 
Q 2328 2228 2165 2298 
Q 2003 2369 1797 2369 
Q 1606 2369 1443 2297 
Q 1281 2225 1162 2101 
Q 1044 1978 976 1814 
Q 909 1650 909 1466 
Q 909 1234 975 1032 
Q 1041 831 1159 681 
Q 1278 531 1442 445 
Q 1606 359 1806 359 
Q 2000 359 2159 432 
Q 2319 506 2431 637 
Q 2544 769 2606 951 
Q 2669 1134 2669 1356 
z
" transform="scale(0.015625)"/>
       </defs>
       <use xlink:href="#SegoeUI-30"/>
       <use xlink:href="#SegoeUI-2e" transform="translate(53.90625 0)"/>
       <use xlink:href="#SegoeUI-36" transform="translate(75.585938 0)"/>
      </g>
     </g>
    </g>
    <g id="xtick_5">
     <g id="line2d_9">
      <path d="M 534.862404 325.125 
L 534.862404 61.875 
" clip-path="url(#p0d7259ccbb)" style="fill: none; stroke: #d9dee7; stroke-opacity: 0.45; stroke-width: 0.7; stroke-linecap: square"/>
     </g>
     <g id="line2d_10"/>
     <g id="text_5">
      <!-- 0.8 -->
      <g style="fill: #6b7280" transform="translate(529.682404 334.5475) scale(0.08 -0.08)">
       <defs>
        <path id="SegoeUI-38" d="M 281 1250 
Q 281 1428 337 1608 
Q 394 1788 498 1944 
Q 603 2100 758 2228 
Q 913 2356 1109 2431 
Q 819 2594 647 2848 
Q 475 3103 475 3413 
Q 475 3659 570 3868 
Q 666 4078 834 4231 
Q 1003 4384 1234 4470 
Q 1466 4556 1734 4556 
Q 2006 4556 2237 4468 
Q 2469 4381 2637 4228 
Q 2806 4075 2900 3865 
Q 2994 3656 2994 3413 
Q 2994 3103 2822 2848 
Q 2650 2594 2366 2431 
Q 2559 2356 2712 2228 
Q 2866 2100 2970 1944 
Q 3075 1788 3131 1608 
Q 3188 1428 3188 1250 
Q 3188 956 3081 712 
Q 2975 469 2783 295 
Q 2591 122 2323 25 
Q 2056 -72 1734 -72 
Q 1416 -72 1150 25 
Q 884 122 690 295 
Q 497 469 389 712 
Q 281 956 281 1250 
z
M 838 1294 
Q 838 1084 902 915 
Q 966 747 1083 628 
Q 1200 509 1367 445 
Q 1534 381 1738 381 
Q 1934 381 2100 447 
Q 2266 513 2386 631 
Q 2506 750 2573 919 
Q 2641 1088 2641 1294 
Q 2641 1481 2577 1645 
Q 2513 1809 2394 1934 
Q 2275 2059 2109 2131 
Q 1944 2203 1738 2203 
Q 1544 2203 1380 2136 
Q 1216 2069 1095 1948 
Q 975 1828 906 1661 
Q 838 1494 838 1294 
z
M 997 3372 
Q 997 3213 1055 3077 
Q 1113 2941 1214 2839 
Q 1316 2738 1450 2680 
Q 1584 2622 1738 2622 
Q 1891 2622 2027 2681 
Q 2163 2741 2263 2842 
Q 2363 2944 2422 3080 
Q 2481 3216 2481 3372 
Q 2481 3534 2423 3671 
Q 2366 3809 2266 3909 
Q 2166 4009 2030 4067 
Q 1894 4125 1738 4125 
Q 1572 4125 1436 4065 
Q 1300 4006 1201 3904 
Q 1103 3803 1050 3665 
Q 997 3528 997 3372 
z
" transform="scale(0.015625)"/>
       </defs>
       <use xlink:href="#SegoeUI-30"/>
       <use xlink:href="#SegoeUI-2e" transform="translate(53.90625 0)"/>
       <use xlink:href="#SegoeUI-38" transform="translate(75.585938 0)"/>
      </g>
     </g>
    </g>
    <g id="text_6">
     <!-- R-squared -->
     <g style="fill: #6b7280" transform="translate(361.207266 347.050312) scale(0.09 -0.09)">
      <defs>
       <path id="SegoeUI-52" d="M 3800 0 
L 3175 0 
L 2425 1256 
Q 2322 1431 2225 1554 
Q 2128 1678 2026 1756 
Q 1925 1834 1808 1870 
Q 1691 1906 1544 1906 
L 1113 1906 
L 1113 0 
L 588 0 
L 588 4481 
L 1925 4481 
Q 2219 4481 2467 4407 
Q 2716 4334 2898 4184 
Q 3081 4034 3184 3811 
Q 3288 3588 3288 3288 
Q 3288 3053 3217 2858 
Q 3147 2663 3017 2509 
Q 2888 2356 2705 2248 
Q 2522 2141 2294 2081 
L 2294 2069 
Q 2406 2019 2489 1955 
Q 2572 1891 2647 1803 
Q 2722 1716 2795 1605 
Q 2869 1494 2959 1347 
L 3800 0 
z
M 1113 4006 
L 1113 2381 
L 1825 2381 
Q 2022 2381 2189 2440 
Q 2356 2500 2478 2611 
Q 2600 2722 2669 2883 
Q 2738 3044 2738 3244 
Q 2738 3603 2505 3804 
Q 2272 4006 1831 4006 
L 1113 4006 
z
" transform="scale(0.015625)"/>
       <path id="SegoeUI-2d" d="M 2156 1581 
L 450 1581 
L 450 1984 
L 2156 1984 
L 2156 1581 
z
" transform="scale(0.015625)"/>
       <path id="SegoeUI-73" d="M 325 116 
L 325 666 
Q 744 356 1247 356 
Q 1922 356 1922 806 
Q 1922 934 1864 1023 
Q 1806 1113 1707 1181 
Q 1609 1250 1476 1304 
Q 1344 1359 1191 1419 
Q 978 1503 817 1589 
Q 656 1675 548 1783 
Q 441 1891 386 2028 
Q 331 2166 331 2350 
Q 331 2575 434 2748 
Q 538 2922 709 3039 
Q 881 3156 1101 3215 
Q 1322 3275 1556 3275 
Q 1972 3275 2300 3131 
L 2300 2613 
Q 1947 2844 1488 2844 
Q 1344 2844 1228 2811 
Q 1113 2778 1030 2718 
Q 947 2659 901 2576 
Q 856 2494 856 2394 
Q 856 2269 901 2184 
Q 947 2100 1034 2034 
Q 1122 1969 1247 1916 
Q 1372 1863 1531 1800 
Q 1744 1719 1912 1633 
Q 2081 1547 2200 1439 
Q 2319 1331 2383 1190 
Q 2447 1050 2447 856 
Q 2447 619 2342 444 
Q 2238 269 2063 153 
Q 1888 38 1659 -18 
Q 1431 -75 1181 -75 
Q 688 -75 325 116 
z
" transform="scale(0.015625)"/>
       <path id="SegoeUI-71" d="M 3250 -1472 
L 2738 -1472 
L 2738 550 
L 2725 550 
Q 2391 -75 1631 -75 
Q 1028 -75 664 354 
Q 300 784 300 1525 
Q 300 2322 700 2798 
Q 1100 3275 1775 3275 
Q 2431 3275 2725 2756 
L 2738 2756 
L 2738 3200 
L 3250 3200 
L 3250 -1472 
z
M 2738 1441 
L 2738 1906 
Q 2738 2300 2480 2572 
Q 2222 2844 1825 2844 
Q 1363 2844 1094 2501 
Q 825 2159 825 1538 
Q 825 984 1084 670 
Q 1344 356 1753 356 
Q 2203 356 2470 664 
Q 2738 972 2738 1441 
z
" transform="scale(0.015625)"/>
       <path id="SegoeUI-75" d="M 3106 0 
L 2594 0 
L 2594 506 
L 2581 506 
Q 2263 -75 1594 -75 
Q 450 -75 450 1288 
L 450 3200 
L 959 3200 
L 959 1369 
Q 959 356 1734 356 
Q 2109 356 2351 632 
Q 2594 909 2594 1356 
L 2594 3200 
L 3106 3200 
L 3106 0 
z
" transform="scale(0.015625)"/>
       <path id="SegoeUI-61" d="M 2809 0 
L 2297 0 
L 2297 500 
L 2284 500 
Q 1950 -75 1300 -75 
Q 822 -75 551 178 
Q 281 431 281 850 
Q 281 1747 1338 1894 
L 2297 2028 
Q 2297 2844 1638 2844 
Q 1059 2844 594 2450 
L 594 2975 
Q 1066 3275 1681 3275 
Q 2809 3275 2809 2081 
L 2809 0 
z
M 2297 1619 
L 1525 1513 
Q 1169 1463 987 1336 
Q 806 1209 806 888 
Q 806 653 973 504 
Q 1141 356 1419 356 
Q 1800 356 2048 623 
Q 2297 891 2297 1300 
L 2297 1619 
z
" transform="scale(0.015625)"/>
       <path id="SegoeUI-72" d="M 2188 2681 
Q 2053 2784 1800 2784 
Q 1472 2784 1251 2475 
Q 1031 2166 1031 1631 
L 1031 0 
L 519 0 
L 519 3200 
L 1031 3200 
L 1031 2541 
L 1044 2541 
Q 1153 2878 1378 3067 
Q 1603 3256 1881 3256 
Q 2081 3256 2188 3213 
L 2188 2681 
z
" transform="scale(0.015625)"/>
       <path id="SegoeUI-65" d="M 3091 1472 
L 831 1472 
Q 844 938 1119 647 
Q 1394 356 1875 356 
Q 2416 356 2869 713 
L 2869 231 
Q 2447 -75 1753 -75 
Q 1075 -75 687 361 
Q 300 797 300 1588 
Q 300 2334 723 2804 
Q 1147 3275 1775 3275 
Q 2403 3275 2747 2869 
Q 3091 2463 3091 1741 
L 3091 1472 
z
M 2566 1906 
Q 2563 2350 2352 2597 
Q 2141 2844 1766 2844 
Q 1403 2844 1150 2584 
Q 897 2325 838 1906 
L 2566 1906 
z
" transform="scale(0.015625)"/>
       <path id="SegoeUI-64" d="M 3250 0 
L 2738 0 
L 2738 544 
L 2725 544 
Q 2369 -75 1625 -75 
Q 1022 -75 661 354 
Q 300 784 300 1525 
Q 300 2319 700 2797 
Q 1100 3275 1766 3275 
Q 2425 3275 2725 2756 
L 2738 2756 
L 2738 4738 
L 3250 4738 
L 3250 0 
z
M 2738 1447 
L 2738 1919 
Q 2738 2306 2481 2575 
Q 2225 2844 1831 2844 
Q 1363 2844 1094 2500 
Q 825 2156 825 1550 
Q 825 997 1083 676 
Q 1341 356 1775 356 
Q 2203 356 2470 665 
Q 2738 975 2738 1447 
z
" transform="scale(0.015625)"/>
      </defs>
      <use xlink:href="#SegoeUI-52"/>
      <use xlink:href="#SegoeUI-2d" transform="translate(59.814453 0)"/>
      <use xlink:href="#SegoeUI-73" transform="translate(99.804688 0)"/>
      <use xlink:href="#SegoeUI-71" transform="translate(142.236328 0)"/>
      <use xlink:href="#SegoeUI-75" transform="translate(201.123047 0)"/>
      <use xlink:href="#SegoeUI-61" transform="translate(257.714844 0)"/>
      <use xlink:href="#SegoeUI-72" transform="translate(308.59375 0)"/>
      <use xlink:href="#SegoeUI-65" transform="translate(341.984375 0)"/>
      <use xlink:href="#SegoeUI-64" transform="translate(394.279297 0)"/>
     </g>
    </g>
   </g>
   <g id="matplotlib.axis_2">
    <g id="ytick_1">
     <g id="line2d_11">
      <path d="M 147.6 89.448617 
L 615.6 89.448617 
" clip-path="url(#p0d7259ccbb)" style="fill: none; stroke: #d9dee7; stroke-opacity: 0.45; stroke-width: 0.7; stroke-linecap: square"/>
     </g>
     <g id="line2d_12"/>
     <g id="text_7">
      <!-- Full model -->
      <g style="fill: #6b7280" transform="translate(107.18875 92.409867) scale(0.08 -0.08)">
       <defs>
        <path id="SegoeUI-46" d="M 2863 4006 
L 1113 4006 
L 1113 2456 
L 2731 2456 
L 2731 1984 
L 1113 1984 
L 1113 0 
L 588 0 
L 588 4481 
L 2863 4481 
L 2863 4006 
z
" transform="scale(0.015625)"/>
        <path id="SegoeUI-6c" d="M 1031 0 
L 519 0 
L 519 4738 
L 1031 4738 
L 1031 0 
z
" transform="scale(0.015625)"/>
        <path id="SegoeUI-20" transform="scale(0.015625)"/>
        <path id="SegoeUI-6d" d="M 5063 0 
L 4550 0 
L 4550 1838 
Q 4550 2369 4386 2606 
Q 4222 2844 3834 2844 
Q 3506 2844 3276 2544 
Q 3047 2244 3047 1825 
L 3047 0 
L 2534 0 
L 2534 1900 
Q 2534 2844 1806 2844 
Q 1469 2844 1250 2561 
Q 1031 2278 1031 1825 
L 1031 0 
L 519 0 
L 519 3200 
L 1031 3200 
L 1031 2694 
L 1044 2694 
Q 1384 3275 2038 3275 
Q 2366 3275 2609 3092 
Q 2853 2909 2944 2613 
Q 3300 3275 4006 3275 
Q 5063 3275 5063 1972 
L 5063 0 
z
" transform="scale(0.015625)"/>
        <path id="SegoeUI-6f" d="M 1856 -75 
Q 1147 -75 723 373 
Q 300 822 300 1563 
Q 300 2369 740 2822 
Q 1181 3275 1931 3275 
Q 2647 3275 3048 2834 
Q 3450 2394 3450 1613 
Q 3450 847 3017 386 
Q 2584 -75 1856 -75 
z
M 1894 2844 
Q 1400 2844 1112 2508 
Q 825 2172 825 1581 
Q 825 1013 1115 684 
Q 1406 356 1894 356 
Q 2391 356 2658 678 
Q 2925 1000 2925 1594 
Q 2925 2194 2658 2519 
Q 2391 2844 1894 2844 
z
" transform="scale(0.015625)"/>
       </defs>
       <use xlink:href="#SegoeUI-46"/>
       <use xlink:href="#SegoeUI-75" transform="translate(48.828125 0)"/>
       <use xlink:href="#SegoeUI-6c" transform="translate(105.419922 0)"/>
       <use xlink:href="#SegoeUI-6c" transform="translate(129.638672 0)"/>
       <use xlink:href="#SegoeUI-20" transform="translate(153.857422 0)"/>
       <use xlink:href="#SegoeUI-6d" transform="translate(181.25 0)"/>
       <use xlink:href="#SegoeUI-6f" transform="translate(267.382812 0)"/>
       <use xlink:href="#SegoeUI-64" transform="translate(325.976562 0)"/>
       <use xlink:href="#SegoeUI-65" transform="translate(384.863281 0)"/>
       <use xlink:href="#SegoeUI-6c" transform="translate(437.158203 0)"/>
      </g>
     </g>
    </g>
    <g id="ytick_2">
     <g id="line2d_13">
      <path d="M 147.6 141.474308 
L 615.6 141.474308 
" clip-path="url(#p0d7259ccbb)" style="fill: none; stroke: #d9dee7; stroke-opacity: 0.45; stroke-width: 0.7; stroke-linecap: square"/>
     </g>
     <g id="line2d_14"/>
     <g id="text_8">
      <!-- Without MVRV -->
      <g style="fill: #6b7280" transform="translate(91.4275 144.435558) scale(0.08 -0.08)">
       <defs>
        <path id="SegoeUI-57" d="M 5900 4481 
L 4634 0 
L 4019 0 
L 3097 3275 
Q 3038 3484 3025 3731 
L 3013 3731 
Q 2994 3500 2931 3281 
L 2003 0 
L 1394 0 
L 81 4481 
L 659 4481 
L 1613 1044 
Q 1672 828 1688 594 
L 1703 594 
Q 1719 759 1800 1044 
L 2791 4481 
L 3294 4481 
L 4244 1019 
Q 4294 841 4319 600 
L 4331 600 
Q 4344 763 4416 1031 
L 5331 4481 
L 5900 4481 
z
" transform="scale(0.015625)"/>
        <path id="SegoeUI-69" d="M 781 4013 
Q 644 4013 547 4106 
Q 450 4200 450 4344 
Q 450 4488 547 4583 
Q 644 4678 781 4678 
Q 922 4678 1020 4583 
Q 1119 4488 1119 4344 
Q 1119 4206 1020 4109 
Q 922 4013 781 4013 
z
M 1031 0 
L 519 0 
L 519 3200 
L 1031 3200 
L 1031 0 
z
" transform="scale(0.015625)"/>
        <path id="SegoeUI-74" d="M 2003 31 
Q 1822 -69 1525 -69 
Q 684 -69 684 869 
L 684 2763 
L 134 2763 
L 134 3200 
L 684 3200 
L 684 3981 
L 1197 4147 
L 1197 3200 
L 2003 3200 
L 2003 2763 
L 1197 2763 
L 1197 959 
Q 1197 638 1306 500 
Q 1416 363 1669 363 
Q 1863 363 2003 469 
L 2003 31 
z
" transform="scale(0.015625)"/>
        <path id="SegoeUI-68" d="M 3175 0 
L 2663 0 
L 2663 1844 
Q 2663 2844 1919 2844 
Q 1544 2844 1287 2555 
Q 1031 2266 1031 1813 
L 1031 0 
L 519 0 
L 519 4738 
L 1031 4738 
L 1031 2669 
L 1044 2669 
Q 1413 3275 2094 3275 
Q 3175 3275 3175 1972 
L 3175 0 
z
" transform="scale(0.015625)"/>
        <path id="SegoeUI-4d" d="M 5156 0 
L 4634 0 
L 4634 3006 
Q 4634 3363 4678 3878 
L 4666 3878 
Q 4591 3575 4531 3444 
L 3000 0 
L 2744 0 
L 1216 3419 
Q 1150 3569 1081 3878 
L 1069 3878 
Q 1094 3609 1094 3000 
L 1094 0 
L 588 0 
L 588 4481 
L 1281 4481 
L 2656 1356 
Q 2816 997 2863 819 
L 2881 819 
Q 3016 1188 3097 1369 
L 4500 4481 
L 5156 4481 
L 5156 0 
z
" transform="scale(0.015625)"/>
        <path id="SegoeUI-56" d="M 3919 4481 
L 2259 0 
L 1681 0 
L 56 4481 
L 641 4481 
L 1881 928 
Q 1941 756 1972 531 
L 1984 531 
Q 2009 719 2088 934 
L 3353 4481 
L 3919 4481 
z
" transform="scale(0.015625)"/>
       </defs>
       <use xlink:href="#SegoeUI-57"/>
       <use xlink:href="#SegoeUI-69" transform="translate(93.408203 0)"/>
       <use xlink:href="#SegoeUI-74" transform="translate(117.626953 0)"/>
       <use xlink:href="#SegoeUI-68" transform="translate(151.513672 0)"/>
       <use xlink:href="#SegoeUI-6f" transform="translate(208.105469 0)"/>
       <use xlink:href="#SegoeUI-75" transform="translate(266.699219 0)"/>
       <use xlink:href="#SegoeUI-74" transform="translate(323.291016 0)"/>
       <use xlink:href="#SegoeUI-20" transform="translate(357.177734 0)"/>
       <use xlink:href="#SegoeUI-4d" transform="translate(384.570312 0)"/>
       <use xlink:href="#SegoeUI-56" transform="translate(474.365234 0)"/>
       <use xlink:href="#SegoeUI-52" transform="translate(536.474609 0)"/>
       <use xlink:href="#SegoeUI-56" transform="translate(596.289062 0)"/>
      </g>
     </g>
    </g>
    <g id="ytick_3">
     <g id="line2d_15">
      <path d="M 147.6 193.5 
L 615.6 193.5 
" clip-path="url(#p0d7259ccbb)" style="fill: none; stroke: #d9dee7; stroke-opacity: 0.45; stroke-width: 0.7; stroke-linecap: square"/>
     </g>
     <g id="line2d_16"/>
     <g id="text_9">
      <!-- Native ex-MVRV -->
      <g style="fill: #6b7280" transform="translate(86.2775 196.46125) scale(0.08 -0.08)">
       <defs>
        <path id="SegoeUI-4e" d="M 4200 0 
L 3556 0 
L 1250 3572 
Q 1163 3706 1106 3853 
L 1088 3853 
Q 1113 3709 1113 3238 
L 1113 0 
L 588 0 
L 588 4481 
L 1269 4481 
L 3513 966 
Q 3653 747 3694 666 
L 3706 666 
Q 3675 859 3675 1325 
L 3675 4481 
L 4200 4481 
L 4200 0 
z
" transform="scale(0.015625)"/>
        <path id="SegoeUI-76" d="M 3034 3200 
L 1759 0 
L 1256 0 
L 44 3200 
L 606 3200 
L 1419 875 
Q 1509 619 1531 428 
L 1544 428 
Q 1575 669 1644 863 
L 2494 3200 
L 3034 3200 
z
" transform="scale(0.015625)"/>
        <path id="SegoeUI-78" d="M 2856 3200 
L 1781 1581 
L 2838 0 
L 2241 0 
L 1613 1038 
Q 1553 1134 1472 1281 
L 1459 1281 
Q 1444 1253 1313 1038 
L 672 0 
L 81 0 
L 1172 1569 
L 128 3200 
L 725 3200 
L 1344 2106 
Q 1413 1984 1478 1856 
L 1491 1856 
L 2291 3200 
L 2856 3200 
z
" transform="scale(0.015625)"/>
       </defs>
       <use xlink:href="#SegoeUI-4e"/>
       <use xlink:href="#SegoeUI-61" transform="translate(74.804688 0)"/>
       <use xlink:href="#SegoeUI-74" transform="translate(125.683594 0)"/>
       <use xlink:href="#SegoeUI-69" transform="translate(159.570312 0)"/>
       <use xlink:href="#SegoeUI-76" transform="translate(183.789062 0)"/>
       <use xlink:href="#SegoeUI-65" transform="translate(231.064453 0)"/>
       <use xlink:href="#SegoeUI-20" transform="translate(283.359375 0)"/>
       <use xlink:href="#SegoeUI-65" transform="translate(310.751953 0)"/>
       <use xlink:href="#SegoeUI-78" transform="translate(363.046875 0)"/>
       <use xlink:href="#SegoeUI-2d" transform="translate(408.945312 0)"/>
       <use xlink:href="#SegoeUI-4d" transform="translate(448.935547 0)"/>
       <use xlink:href="#SegoeUI-56" transform="translate(538.730469 0)"/>
       <use xlink:href="#SegoeUI-52" transform="translate(600.839844 0)"/>
       <use xlink:href="#SegoeUI-56" transform="translate(660.654297 0)"/>
      </g>
     </g>
    </g>
    <g id="ytick_4">
     <g id="line2d_17">
      <path d="M 147.6 245.525692 
L 615.6 245.525692 
" clip-path="url(#p0d7259ccbb)" style="fill: none; stroke: #d9dee7; stroke-opacity: 0.45; stroke-width: 0.7; stroke-linecap: square"/>
     </g>
     <g id="line2d_18"/>
     <g id="text_10">
      <!-- MVRV only -->
      <g style="fill: #6b7280" transform="translate(104.97875 248.486942) scale(0.08 -0.08)">
       <defs>
        <path id="SegoeUI-6e" d="M 3175 0 
L 2663 0 
L 2663 1825 
Q 2663 2844 1919 2844 
Q 1534 2844 1282 2555 
Q 1031 2266 1031 1825 
L 1031 0 
L 519 0 
L 519 3200 
L 1031 3200 
L 1031 2669 
L 1044 2669 
Q 1406 3275 2094 3275 
Q 2619 3275 2897 2936 
Q 3175 2597 3175 1956 
L 3175 0 
z
" transform="scale(0.015625)"/>
        <path id="SegoeUI-79" d="M 3066 3200 
L 1594 -513 
Q 1200 -1506 488 -1506 
Q 288 -1506 153 -1466 
L 153 -1006 
Q 319 -1063 456 -1063 
Q 844 -1063 1038 -600 
L 1294 6 
L 44 3200 
L 613 3200 
L 1478 738 
Q 1494 691 1544 494 
L 1563 494 
Q 1578 569 1625 731 
L 2534 3200 
L 3066 3200 
z
" transform="scale(0.015625)"/>
       </defs>
       <use xlink:href="#SegoeUI-4d"/>
       <use xlink:href="#SegoeUI-56" transform="translate(89.794922 0)"/>
       <use xlink:href="#SegoeUI-52" transform="translate(151.904297 0)"/>
       <use xlink:href="#SegoeUI-56" transform="translate(211.71875 0)"/>
       <use xlink:href="#SegoeUI-20" transform="translate(273.828125 0)"/>
       <use xlink:href="#SegoeUI-6f" transform="translate(301.220703 0)"/>
       <use xlink:href="#SegoeUI-6e" transform="translate(359.814453 0)"/>
       <use xlink:href="#SegoeUI-6c" transform="translate(416.40625 0)"/>
       <use xlink:href="#SegoeUI-79" transform="translate(440.625 0)"/>
      </g>
     </g>
    </g>
    <g id="ytick_5">
     <g id="line2d_19">
      <path d="M 147.6 297.551383 
L 615.6 297.551383 
" clip-path="url(#p0d7259ccbb)" style="fill: none; stroke: #d9dee7; stroke-opacity: 0.45; stroke-width: 0.7; stroke-linecap: square"/>
     </g>
     <g id="line2d_20"/>
     <g id="text_11">
      <!-- Macro + TradFi + Liquidity -->
      <g style="fill: #6b7280" transform="translate(51.07375 300.512633) scale(0.08 -0.08)">
       <defs>
        <path id="SegoeUI-63" d="M 2700 147 
Q 2331 -75 1825 -75 
Q 1141 -75 720 370 
Q 300 816 300 1525 
Q 300 2316 753 2795 
Q 1206 3275 1963 3275 
Q 2384 3275 2706 3119 
L 2706 2594 
Q 2350 2844 1944 2844 
Q 1453 2844 1139 2492 
Q 825 2141 825 1569 
Q 825 1006 1120 681 
Q 1416 356 1913 356 
Q 2331 356 2700 634 
L 2700 147 
z
" transform="scale(0.015625)"/>
        <path id="SegoeUI-2b" d="M 3663 1656 
L 2400 1656 
L 2400 397 
L 1984 397 
L 1984 1656 
L 725 1656 
L 725 2075 
L 1984 2075 
L 1984 3334 
L 2400 3334 
L 2400 2075 
L 3663 2075 
L 3663 1656 
z
" transform="scale(0.015625)"/>
        <path id="SegoeUI-54" d="M 3238 4006 
L 1944 4006 
L 1944 0 
L 1419 0 
L 1419 4006 
L 128 4006 
L 128 4481 
L 3238 4481 
L 3238 4006 
z
" transform="scale(0.015625)"/>
        <path id="SegoeUI-4c" d="M 2913 0 
L 588 0 
L 588 4481 
L 1113 4481 
L 1113 475 
L 2913 475 
L 2913 0 
z
" transform="scale(0.015625)"/>
       </defs>
       <use xlink:href="#SegoeUI-4d"/>
       <use xlink:href="#SegoeUI-61" transform="translate(89.794922 0)"/>
       <use xlink:href="#SegoeUI-63" transform="translate(140.673828 0)"/>
       <use xlink:href="#SegoeUI-72" transform="translate(186.865234 0)"/>
       <use xlink:href="#SegoeUI-6f" transform="translate(220.255859 0)"/>
       <use xlink:href="#SegoeUI-20" transform="translate(278.849609 0)"/>
       <use xlink:href="#SegoeUI-2b" transform="translate(306.242188 0)"/>
       <use xlink:href="#SegoeUI-20" transform="translate(374.650391 0)"/>
       <use xlink:href="#SegoeUI-54" transform="translate(402.042969 0)"/>
       <use xlink:href="#SegoeUI-72" transform="translate(445.685547 0)"/>
       <use xlink:href="#SegoeUI-61" transform="translate(480.451172 0)"/>
       <use xlink:href="#SegoeUI-64" transform="translate(531.330078 0)"/>
       <use xlink:href="#SegoeUI-46" transform="translate(590.216797 0)"/>
       <use xlink:href="#SegoeUI-69" transform="translate(639.044922 0)"/>
       <use xlink:href="#SegoeUI-20" transform="translate(663.263672 0)"/>
       <use xlink:href="#SegoeUI-2b" transform="translate(690.65625 0)"/>
       <use xlink:href="#SegoeUI-20" transform="translate(759.064453 0)"/>
       <use xlink:href="#SegoeUI-4c" transform="translate(786.457031 0)"/>
       <use xlink:href="#SegoeUI-69" transform="translate(833.527344 0)"/>
       <use xlink:href="#SegoeUI-71" transform="translate(857.746094 0)"/>
       <use xlink:href="#SegoeUI-75" transform="translate(916.632812 0)"/>
       <use xlink:href="#SegoeUI-69" transform="translate(973.224609 0)"/>
       <use xlink:href="#SegoeUI-64" transform="translate(997.443359 0)"/>
       <use xlink:href="#SegoeUI-69" transform="translate(1056.330078 0)"/>
       <use xlink:href="#SegoeUI-74" transform="translate(1080.548828 0)"/>
       <use xlink:href="#SegoeUI-79" transform="translate(1114.435547 0)"/>
      </g>
     </g>
    </g>
   </g>
   <g id="patch_3">
    <path d="M 147.6 73.840909 
L 593.314286 73.840909 
L 593.314286 105.056324 
L 147.6 105.056324 
z
" clip-path="url(#p0d7259ccbb)" style="fill: #0f766e; opacity: 0.9"/>
   </g>
   <g id="patch_4">
    <path d="M 147.6 125.866601 
L 218.272227 125.866601 
L 218.272227 157.082016 
L 147.6 157.082016 
z
" clip-path="url(#p0d7259ccbb)" style="fill: #f7931a; opacity: 0.9"/>
   </g>
   <g id="patch_5">
    <path d="M 147.6 177.892292 
L 147.694842 177.892292 
L 147.694842 209.107708 
L 147.6 209.107708 
z
" clip-path="url(#p0d7259ccbb)" style="fill: #0f766e; opacity: 0.9"/>
   </g>
   <g id="patch_6">
    <path d="M 147.6 229.917984 
L 522.642059 229.917984 
L 522.642059 261.133399 
L 147.6 261.133399 
z
" clip-path="url(#p0d7259ccbb)" style="fill: #0f766e; opacity: 0.9"/>
   </g>
   <g id="patch_7">
    <path d="M 147.6 281.943676 
L 149.194856 281.943676 
L 149.194856 313.159091 
L 147.6 313.159091 
z
" clip-path="url(#p0d7259ccbb)" style="fill: #0f766e; opacity: 0.9"/>
   </g>
   <g id="text_12">
    <!-- 0.921 -->
    <g style="fill: #111827" transform="translate(598.155066 91.745023) scale(0.09 -0.09)">
     <defs>
      <path id="SegoeUI-Semibold-30" d="M 1728 -75 
Q 1028 -75 636 497 
Q 244 1069 244 2150 
Q 244 3338 653 3947 
Q 1063 4556 1834 4556 
Q 3313 4556 3313 2259 
Q 3313 1122 2895 523 
Q 2478 -75 1728 -75 
z
M 1800 3978 
Q 984 3978 984 2181 
Q 984 500 1784 500 
Q 2572 500 2572 2209 
Q 2572 3978 1800 3978 
z
" transform="scale(0.015625)"/>
      <path id="SegoeUI-Semibold-2e" d="M 772 -69 
Q 584 -69 453 54 
Q 322 178 322 350 
Q 322 525 453 650 
Q 584 775 772 775 
Q 963 775 1095 650 
Q 1228 525 1228 350 
Q 1228 178 1095 54 
Q 963 -69 772 -69 
z
" transform="scale(0.015625)"/>
      <path id="SegoeUI-Semibold-39" d="M 3272 2484 
Q 3272 1813 3126 1328 
Q 2981 844 2726 531 
Q 2472 219 2130 70 
Q 1788 -78 1394 -78 
Q 1266 -78 1136 -62 
Q 1006 -47 889 -22 
Q 772 3 676 33 
Q 581 63 519 91 
L 519 744 
Q 584 703 681 661 
Q 778 619 892 586 
Q 1006 553 1129 533 
Q 1253 513 1369 513 
Q 1634 513 1851 616 
Q 2069 719 2222 922 
Q 2375 1125 2458 1426 
Q 2541 1728 2541 2125 
L 2528 2125 
Q 2472 2025 2380 1936 
Q 2288 1847 2169 1780 
Q 2050 1713 1904 1672 
Q 1759 1631 1594 1631 
Q 1313 1631 1070 1729 
Q 828 1828 650 2009 
Q 472 2191 370 2450 
Q 269 2709 269 3028 
Q 269 3378 384 3661 
Q 500 3944 703 4142 
Q 906 4341 1181 4448 
Q 1456 4556 1778 4556 
Q 2081 4556 2351 4442 
Q 2622 4328 2826 4079 
Q 3031 3831 3151 3437 
Q 3272 3044 3272 2484 
z
M 2516 2963 
Q 2516 3188 2458 3372 
Q 2400 3556 2297 3687 
Q 2194 3819 2051 3891 
Q 1909 3963 1741 3963 
Q 1591 3963 1455 3902 
Q 1319 3841 1217 3728 
Q 1116 3616 1056 3456 
Q 997 3297 997 3103 
Q 997 2891 1055 2728 
Q 1113 2566 1216 2455 
Q 1319 2344 1464 2286 
Q 1609 2228 1784 2228 
Q 1941 2228 2073 2286 
Q 2206 2344 2304 2442 
Q 2403 2541 2459 2675 
Q 2516 2809 2516 2963 
z
" transform="scale(0.015625)"/>
      <path id="SegoeUI-Semibold-32" d="M 3119 0 
L 306 0 
L 306 347 
Q 306 559 365 745 
Q 425 931 525 1095 
Q 625 1259 759 1404 
Q 894 1550 1047 1686 
Q 1200 1822 1359 1948 
Q 1519 2075 1672 2203 
Q 1816 2325 1934 2442 
Q 2053 2559 2137 2684 
Q 2222 2809 2269 2948 
Q 2316 3088 2316 3250 
Q 2316 3428 2261 3561 
Q 2206 3694 2107 3783 
Q 2009 3872 1875 3917 
Q 1741 3963 1581 3963 
Q 1306 3963 1022 3834 
Q 738 3706 475 3450 
L 475 4147 
Q 613 4250 753 4326 
Q 894 4403 1044 4454 
Q 1194 4506 1359 4531 
Q 1525 4556 1713 4556 
Q 2016 4556 2262 4476 
Q 2509 4397 2684 4242 
Q 2859 4088 2954 3856 
Q 3050 3625 3050 3325 
Q 3050 3053 2983 2836 
Q 2916 2619 2792 2431 
Q 2669 2244 2494 2075 
Q 2319 1906 2103 1728 
Q 1922 1581 1742 1442 
Q 1563 1303 1419 1170 
Q 1275 1038 1186 905 
Q 1097 772 1097 638 
L 1097 622 
L 3119 622 
L 3119 0 
z
" transform="scale(0.015625)"/>
      <path id="SegoeUI-Semibold-31" d="M 1922 4581 
L 1922 0 
L 1197 0 
L 1197 3694 
Q 1000 3553 773 3454 
Q 547 3356 256 3281 
L 256 3900 
Q 438 3959 606 4025 
Q 775 4091 939 4172 
Q 1103 4253 1270 4353 
Q 1438 4453 1616 4581 
L 1922 4581 
z
" transform="scale(0.015625)"/>
     </defs>
     <use xlink:href="#SegoeUI-Semibold-30"/>
     <use xlink:href="#SegoeUI-Semibold-2e" transform="translate(55.517578 0)"/>
     <use xlink:href="#SegoeUI-Semibold-39" transform="translate(79.638672 0)"/>
     <use xlink:href="#SegoeUI-Semibold-32" transform="translate(135.449219 0)"/>
     <use xlink:href="#SegoeUI-Semibold-31" transform="translate(190.966797 0)"/>
    </g>
   </g>
   <g id="text_13">
    <!-- 0.146 -->
    <g style="fill: #111827" transform="translate(223.113007 143.770715) scale(0.09 -0.09)">
     <defs>
      <path id="SegoeUI-Semibold-34" d="M 2894 4481 
L 2894 1588 
L 3559 1588 
L 3559 984 
L 2894 984 
L 2894 0 
L 2191 0 
L 2191 984 
L 163 984 
L 163 1594 
Q 438 1903 727 2264 
Q 1016 2625 1283 3001 
Q 1550 3378 1778 3756 
Q 2006 4134 2163 4481 
L 2894 4481 
z
M 2191 1588 
L 2191 3469 
Q 1850 2856 1517 2400 
Q 1184 1944 894 1588 
L 2191 1588 
z
" transform="scale(0.015625)"/>
      <path id="SegoeUI-Semibold-36" d="M 3328 1441 
Q 3328 1103 3217 825 
Q 3106 547 2909 345 
Q 2713 144 2442 33 
Q 2172 -78 1856 -78 
Q 1519 -78 1236 53 
Q 953 184 748 443 
Q 544 703 431 1089 
Q 319 1475 319 1984 
Q 319 2606 467 3087 
Q 616 3569 875 3894 
Q 1134 4219 1484 4387 
Q 1834 4556 2241 4556 
Q 2494 4556 2701 4522 
Q 2909 4488 3034 4428 
L 3034 3775 
Q 2875 3856 2694 3912 
Q 2513 3969 2278 3969 
Q 2016 3969 1794 3862 
Q 1572 3756 1411 3551 
Q 1250 3347 1158 3045 
Q 1066 2744 1063 2350 
L 1081 2350 
Q 1225 2572 1470 2700 
Q 1716 2828 2047 2828 
Q 2341 2828 2577 2733 
Q 2813 2638 2980 2458 
Q 3147 2278 3237 2020 
Q 3328 1763 3328 1441 
z
M 2597 1381 
Q 2597 1575 2551 1734 
Q 2506 1894 2414 2008 
Q 2322 2122 2183 2184 
Q 2044 2247 1856 2247 
Q 1669 2247 1526 2180 
Q 1384 2113 1287 2003 
Q 1191 1894 1142 1753 
Q 1094 1613 1094 1466 
Q 1094 1306 1139 1139 
Q 1184 972 1278 834 
Q 1372 697 1517 608 
Q 1663 519 1863 519 
Q 2041 519 2178 584 
Q 2316 650 2408 765 
Q 2500 881 2548 1039 
Q 2597 1197 2597 1381 
z
" transform="scale(0.015625)"/>
     </defs>
     <use xlink:href="#SegoeUI-Semibold-30"/>
     <use xlink:href="#SegoeUI-Semibold-2e" transform="translate(55.517578 0)"/>
     <use xlink:href="#SegoeUI-Semibold-31" transform="translate(79.638672 0)"/>
     <use xlink:href="#SegoeUI-Semibold-34" transform="translate(119.873047 0)"/>
     <use xlink:href="#SegoeUI-Semibold-36" transform="translate(177.490234 0)"/>
    </g>
   </g>
   <g id="text_14">
    <!-- 0.000 -->
    <g style="fill: #111827" transform="translate(152.535622 195.796406) scale(0.09 -0.09)">
     <use xlink:href="#SegoeUI-Semibold-30"/>
     <use xlink:href="#SegoeUI-Semibold-2e" transform="translate(55.517578 0)"/>
     <use xlink:href="#SegoeUI-Semibold-30" transform="translate(79.638672 0)"/>
     <use xlink:href="#SegoeUI-Semibold-30" transform="translate(135.15625 0)"/>
     <use xlink:href="#SegoeUI-Semibold-30" transform="translate(190.673828 0)"/>
    </g>
   </g>
   <g id="text_15">
    <!-- 0.775 -->
    <g style="fill: #111827" transform="translate(527.482839 247.822098) scale(0.09 -0.09)">
     <defs>
      <path id="SegoeUI-Semibold-37" d="M 3213 4119 
Q 2931 3603 2681 3098 
Q 2431 2594 2228 2084 
Q 2025 1575 1875 1058 
Q 1725 541 1644 0 
L 884 0 
Q 959 481 1098 961 
Q 1238 1441 1425 1920 
Q 1613 2400 1845 2884 
Q 2078 3369 2341 3863 
L 219 3863 
L 219 4481 
L 3213 4481 
L 3213 4119 
z
" transform="scale(0.015625)"/>
      <path id="SegoeUI-Semibold-35" d="M 484 103 
L 484 800 
Q 925 503 1378 503 
Q 1834 503 2112 736 
Q 2391 969 2391 1356 
Q 2391 1738 2108 1950 
Q 1825 2163 1297 2163 
Q 1116 2163 563 2125 
L 722 4481 
L 2928 4481 
L 2928 3863 
L 1325 3863 
L 1250 2741 
Q 1466 2753 1641 2753 
Q 2353 2753 2742 2387 
Q 3131 2022 3131 1388 
Q 3131 722 2686 320 
Q 2241 -81 1463 -81 
Q 806 -81 484 103 
z
" transform="scale(0.015625)"/>
     </defs>
     <use xlink:href="#SegoeUI-Semibold-30"/>
     <use xlink:href="#SegoeUI-Semibold-2e" transform="translate(55.517578 0)"/>
     <use xlink:href="#SegoeUI-Semibold-37" transform="translate(79.638672 0)"/>
     <use xlink:href="#SegoeUI-Semibold-37" transform="translate(133.251953 0)"/>
     <use xlink:href="#SegoeUI-Semibold-35" transform="translate(186.865234 0)"/>
    </g>
   </g>
   <g id="text_16">
    <!-- 0.003 -->
    <g style="fill: #111827" transform="translate(154.035636 299.84779) scale(0.09 -0.09)">
     <defs>
      <path id="SegoeUI-Semibold-33" d="M 384 166 
L 384 847 
Q 822 500 1372 500 
Q 1819 500 2086 703 
Q 2353 906 2353 1253 
Q 2353 2016 1188 2016 
L 841 2016 
L 841 2597 
L 1172 2597 
Q 2206 2597 2206 3316 
Q 2206 3978 1400 3978 
Q 950 3978 553 3656 
L 553 4300 
Q 1009 4556 1631 4556 
Q 2228 4556 2587 4256 
Q 2947 3956 2947 3488 
Q 2947 2603 2047 2350 
L 2047 2338 
Q 2531 2291 2812 1998 
Q 3094 1706 3094 1269 
Q 3094 666 2641 295 
Q 2188 -75 1447 -75 
Q 781 -75 384 166 
z
" transform="scale(0.015625)"/>
     </defs>
     <use xlink:href="#SegoeUI-Semibold-30"/>
     <use xlink:href="#SegoeUI-Semibold-2e" transform="translate(55.517578 0)"/>
     <use xlink:href="#SegoeUI-Semibold-30" transform="translate(79.638672 0)"/>
     <use xlink:href="#SegoeUI-Semibold-30" transform="translate(135.15625 0)"/>
     <use xlink:href="#SegoeUI-Semibold-33" transform="translate(190.673828 0)"/>
    </g>
   </g>
  </g>
  <g id="text_17">
   <!-- BTC Model Sensitivity -->
   <g style="fill: #111827" transform="translate(7.2 20.525625) scale(0.18 -0.18)">
    <defs>
     <path id="SegoeUI-Semibold-42" d="M 553 0 
L 553 4481 
L 1975 4481 
Q 2625 4481 3004 4197 
Q 3384 3913 3384 3456 
Q 3384 3075 3168 2794 
Q 2953 2513 2572 2394 
L 2572 2381 
Q 3034 2328 3311 2039 
Q 3588 1750 3588 1288 
Q 3588 713 3134 356 
Q 2681 0 1991 0 
L 553 0 
z
M 1294 3884 
L 1294 2609 
L 1775 2609 
Q 2163 2609 2383 2792 
Q 2603 2975 2603 3309 
Q 2603 3884 1834 3884 
L 1294 3884 
z
M 1294 2013 
L 1294 594 
L 1928 594 
Q 2344 594 2570 786 
Q 2797 978 2797 1316 
Q 2797 2013 1831 2013 
L 1294 2013 
z
" transform="scale(0.015625)"/>
     <path id="SegoeUI-Semibold-54" d="M 3428 3850 
L 2141 3850 
L 2141 0 
L 1397 0 
L 1397 3850 
L 113 3850 
L 113 4481 
L 3428 4481 
L 3428 3850 
z
" transform="scale(0.015625)"/>
     <path id="SegoeUI-Semibold-43" d="M 3678 188 
Q 3172 -75 2419 -75 
Q 1444 -75 856 540 
Q 269 1156 269 2156 
Q 269 3231 930 3893 
Q 1591 4556 2600 4556 
Q 3250 4556 3678 4372 
L 3678 3634 
Q 3225 3903 2678 3903 
Q 1950 3903 1498 3437 
Q 1047 2972 1047 2194 
Q 1047 1453 1469 1014 
Q 1891 575 2578 575 
Q 3213 575 3678 875 
L 3678 188 
z
" transform="scale(0.015625)"/>
     <path id="SegoeUI-Semibold-20" transform="scale(0.015625)"/>
     <path id="SegoeUI-Semibold-4d" d="M 5366 0 
L 4628 0 
L 4628 2900 
Q 4628 3256 4672 3772 
L 4659 3772 
Q 4591 3478 4538 3350 
L 3200 0 
L 2688 0 
L 1347 3325 
Q 1291 3472 1228 3772 
L 1216 3772 
Q 1241 3503 1241 2894 
L 1241 0 
L 553 0 
L 553 4481 
L 1600 4481 
L 2778 1497 
Q 2913 1153 2953 984 
L 2969 984 
Q 3084 1338 3156 1509 
L 4356 4481 
L 5366 4481 
L 5366 0 
z
" transform="scale(0.015625)"/>
     <path id="SegoeUI-Semibold-6f" d="M 1891 -75 
Q 1150 -75 708 373 
Q 266 822 266 1563 
Q 266 2369 727 2822 
Q 1188 3275 1969 3275 
Q 2719 3275 3137 2834 
Q 3556 2394 3556 1613 
Q 3556 847 3104 386 
Q 2653 -75 1891 -75 
z
M 1925 2697 
Q 1500 2697 1253 2400 
Q 1006 2103 1006 1581 
Q 1006 1078 1256 789 
Q 1506 500 1925 500 
Q 2353 500 2583 784 
Q 2813 1069 2813 1594 
Q 2813 2122 2583 2409 
Q 2353 2697 1925 2697 
z
" transform="scale(0.015625)"/>
     <path id="SegoeUI-Semibold-64" d="M 3381 0 
L 2656 0 
L 2656 544 
L 2644 544 
Q 2294 -75 1566 -75 
Q 975 -75 620 354 
Q 266 784 266 1525 
Q 266 2319 658 2797 
Q 1050 3275 1703 3275 
Q 2350 3275 2644 2756 
L 2656 2756 
L 2656 4738 
L 3381 4738 
L 3381 0 
z
M 2666 1463 
L 2666 1881 
Q 2666 2222 2444 2459 
Q 2222 2697 1878 2697 
Q 1472 2697 1239 2394 
Q 1006 2091 1006 1553 
Q 1006 1066 1229 783 
Q 1453 500 1831 500 
Q 2203 500 2434 773 
Q 2666 1047 2666 1463 
z
" transform="scale(0.015625)"/>
     <path id="SegoeUI-Semibold-65" d="M 3181 1403 
L 1000 1403 
Q 1013 959 1273 718 
Q 1534 478 1991 478 
Q 2503 478 2931 784 
L 2931 200 
Q 2494 -75 1775 -75 
Q 1069 -75 667 361 
Q 266 797 266 1588 
Q 266 2334 708 2804 
Q 1150 3275 1806 3275 
Q 2463 3275 2822 2853 
Q 3181 2431 3181 1681 
L 3181 1403 
z
M 2481 1916 
Q 2478 2306 2297 2523 
Q 2116 2741 1797 2741 
Q 1484 2741 1267 2512 
Q 1050 2284 1000 1916 
L 2481 1916 
z
" transform="scale(0.015625)"/>
     <path id="SegoeUI-Semibold-6c" d="M 1200 0 
L 472 0 
L 472 4738 
L 1200 4738 
L 1200 0 
z
" transform="scale(0.015625)"/>
     <path id="SegoeUI-Semibold-53" d="M 347 178 
L 347 944 
Q 450 850 592 775 
Q 734 700 893 648 
Q 1053 597 1212 569 
Q 1372 541 1506 541 
Q 1975 541 2204 697 
Q 2434 853 2434 1150 
Q 2434 1309 2357 1426 
Q 2281 1544 2143 1641 
Q 2006 1738 1820 1827 
Q 1634 1916 1422 2013 
Q 1194 2134 997 2259 
Q 800 2384 654 2536 
Q 509 2688 426 2878 
Q 344 3069 344 3325 
Q 344 3641 486 3873 
Q 628 4106 861 4257 
Q 1094 4409 1391 4482 
Q 1688 4556 1997 4556 
Q 2700 4556 3022 4397 
L 3022 3663 
Q 2641 3938 2041 3938 
Q 1875 3938 1711 3906 
Q 1547 3875 1417 3803 
Q 1288 3731 1206 3618 
Q 1125 3506 1125 3347 
Q 1125 3197 1187 3087 
Q 1250 2978 1370 2887 
Q 1491 2797 1664 2711 
Q 1838 2625 2066 2525 
Q 2300 2403 2508 2268 
Q 2716 2134 2873 1971 
Q 3031 1809 3123 1611 
Q 3216 1413 3216 1159 
Q 3216 819 3078 584 
Q 2941 350 2708 203 
Q 2475 56 2172 -9 
Q 1869 -75 1531 -75 
Q 1419 -75 1255 -58 
Q 1091 -41 919 -8 
Q 747 25 594 72 
Q 441 119 347 178 
z
" transform="scale(0.015625)"/>
     <path id="SegoeUI-Semibold-6e" d="M 3322 0 
L 2597 0 
L 2597 1803 
Q 2597 2700 1963 2700 
Q 1631 2700 1415 2451 
Q 1200 2203 1200 1825 
L 1200 0 
L 472 0 
L 472 3200 
L 1200 3200 
L 1200 2669 
L 1213 2669 
Q 1572 3275 2250 3275 
Q 2772 3275 3047 2936 
Q 3322 2597 3322 1956 
L 3322 0 
z
" transform="scale(0.015625)"/>
     <path id="SegoeUI-Semibold-73" d="M 272 100 
L 272 772 
Q 678 463 1169 463 
Q 1825 463 1825 850 
Q 1825 959 1769 1036 
Q 1713 1113 1617 1172 
Q 1522 1231 1392 1278 
Q 1263 1325 1103 1384 
Q 906 1463 748 1550 
Q 591 1638 486 1748 
Q 381 1859 328 2000 
Q 275 2141 275 2328 
Q 275 2559 384 2736 
Q 494 2913 678 3033 
Q 863 3153 1097 3214 
Q 1331 3275 1581 3275 
Q 2025 3275 2375 3141 
L 2375 2506 
Q 2038 2738 1600 2738 
Q 1463 2738 1352 2709 
Q 1241 2681 1162 2631 
Q 1084 2581 1040 2511 
Q 997 2441 997 2356 
Q 997 2253 1040 2181 
Q 1084 2109 1170 2054 
Q 1256 2000 1376 1954 
Q 1497 1909 1653 1856 
Q 1859 1772 2023 1684 
Q 2188 1597 2303 1486 
Q 2419 1375 2481 1229 
Q 2544 1084 2544 884 
Q 2544 641 2431 459 
Q 2319 278 2131 159 
Q 1944 41 1698 -17 
Q 1453 -75 1181 -75 
Q 656 -75 272 100 
z
" transform="scale(0.015625)"/>
     <path id="SegoeUI-Semibold-69" d="M 838 3872 
Q 659 3872 532 3987 
Q 406 4103 406 4281 
Q 406 4459 532 4578 
Q 659 4697 838 4697 
Q 1022 4697 1150 4578 
Q 1278 4459 1278 4281 
Q 1278 4113 1150 3992 
Q 1022 3872 838 3872 
z
M 1197 0 
L 472 0 
L 472 3200 
L 1197 3200 
L 1197 0 
z
" transform="scale(0.015625)"/>
     <path id="SegoeUI-Semibold-74" d="M 2159 34 
Q 1947 -72 1600 -72 
Q 669 -72 669 822 
L 669 2631 
L 134 2631 
L 134 3200 
L 669 3200 
L 669 3941 
L 1394 4147 
L 1394 3200 
L 2159 3200 
L 2159 2631 
L 1394 2631 
L 1394 1031 
Q 1394 747 1497 625 
Q 1600 503 1841 503 
Q 2025 503 2159 609 
L 2159 34 
z
" transform="scale(0.015625)"/>
     <path id="SegoeUI-Semibold-76" d="M 3228 3200 
L 1991 0 
L 1206 0 
L 28 3200 
L 816 3200 
L 1525 963 
Q 1606 716 1625 531 
L 1634 531 
Q 1663 763 1722 950 
L 2466 3200 
L 3228 3200 
z
" transform="scale(0.015625)"/>
     <path id="SegoeUI-Semibold-79" d="M 3244 3200 
L 1800 -513 
Q 1350 -1506 538 -1506 
Q 309 -1506 156 -1466 
L 156 -863 
Q 328 -919 469 -919 
Q 875 -919 1075 -519 
L 1291 6 
L 19 3200 
L 822 3200 
L 1584 875 
Q 1597 831 1641 644 
L 1656 644 
Q 1672 716 1713 869 
L 2513 3200 
L 3244 3200 
z
" transform="scale(0.015625)"/>
    </defs>
    <use xlink:href="#SegoeUI-Semibold-42"/>
    <use xlink:href="#SegoeUI-Semibold-54" transform="translate(56.775391 0)"/>
    <use xlink:href="#SegoeUI-Semibold-43" transform="translate(107.951172 0)"/>
    <use xlink:href="#SegoeUI-Semibold-20" transform="translate(170.060547 0)"/>
    <use xlink:href="#SegoeUI-Semibold-4d" transform="translate(197.550781 0)"/>
    <use xlink:href="#SegoeUI-Semibold-6f" transform="translate(289.982422 0)"/>
    <use xlink:href="#SegoeUI-Semibold-64" transform="translate(349.699219 0)"/>
    <use xlink:href="#SegoeUI-Semibold-65" transform="translate(409.953125 0)"/>
    <use xlink:href="#SegoeUI-Semibold-6c" transform="translate(463.078125 0)"/>
    <use xlink:href="#SegoeUI-Semibold-20" transform="translate(489.201172 0)"/>
    <use xlink:href="#SegoeUI-Semibold-53" transform="translate(516.691406 0)"/>
    <use xlink:href="#SegoeUI-Semibold-65" transform="translate(571.134766 0)"/>
    <use xlink:href="#SegoeUI-Semibold-6e" transform="translate(624.259766 0)"/>
    <use xlink:href="#SegoeUI-Semibold-73" transform="translate(682.609375 0)"/>
    <use xlink:href="#SegoeUI-Semibold-69" transform="translate(725.724609 0)"/>
    <use xlink:href="#SegoeUI-Semibold-74" transform="translate(751.847656 0)"/>
    <use xlink:href="#SegoeUI-Semibold-69" transform="translate(787.980469 0)"/>
    <use xlink:href="#SegoeUI-Semibold-76" transform="translate(814.103516 0)"/>
    <use xlink:href="#SegoeUI-Semibold-69" transform="translate(864.835938 0)"/>
    <use xlink:href="#SegoeUI-Semibold-74" transform="translate(890.958984 0)"/>
    <use xlink:href="#SegoeUI-Semibold-79" transform="translate(927.091797 0)"/>
   </g>
  </g>
 </g>
 <defs>
  <clipPath id="p0d7259ccbb">
   <rect x="147.6" y="61.875" width="468" height="263.25"/>
  </clipPath>
 </defs>
</svg>
