<?xml version="1.0" encoding="utf-8" standalone="no"?>
<!DOCTYPE svg PUBLIC "-//W3C//DTD SVG 1.1//EN"
  "http://www.w3.org/Graphics/SVG/1.1/DTD/svg11.dtd">
<svg xmlns:xlink="http://www.w3.org/1999/xlink" width="720pt" height="405pt" viewBox="0 0 720 405" xmlns="http://www.w3.org/2000/svg" version="1.1">
 <metadata>
  <rdf:RDF xmlns:dc="http://purl.org/dc/elements/1.1/" xmlns:cc="http://creativecommons.org/ns#" xmlns:rdf="http://www.w3.org/1999/02/22-rdf-syntax-ns#">
   <cc:Work>
    <dc:type rdf:resource="http://purl.org/dc/dcmitype/StillImage"/>
    <dc:date>2026-06-16T14:04:23.494928</dc:date>
    <dc:format>image/svg+xml</dc:format>
    <dc:creator>
     <cc:Agent>
      <dc:title>Matplotlib v3.10.8, https://matplotlib.org/</dc:title>
     </cc:Agent>
    </dc:creator>
   </cc:Work>
  </rdf:RDF>
 </metadata>
 <defs>
  <style type="text/css">*{stroke-linejoin: round; stroke-linecap: butt}</style>
 </defs>
 <g id="figure_1">
  <g id="patch_1">
   <path d="M 0 405 
L 720 405 
L 720 0 
L 0 0 
z
" style="fill: #fafaf7"/>
  </g>
  <g id="patch_2">
   <path d="M 22.32 391.635 
L 697.68 391.635 
Q 710.64 391.635 710.64 384.345 
L 710.64 24.705 
Q 710.64 17.415 697.68 17.415 
L 22.32 17.415 
Q 9.36 17.415 9.36 24.705 
L 9.36 384.345 
Q 9.36 391.635 22.32 391.635 
z
" style="fill: #ffffff; stroke: #d9dee7; stroke-linejoin: miter"/>
  </g>
  <g id="axes_1">
   <g id="patch_3">
    <path d="M 50.4 332.1 
L 468 332.1 
L 468 97.2 
L 50.4 97.2 
z
" style="fill: #ffffff"/>
   </g>
   <g id="FillBetweenPolyCollection_1">
    <path d="M 69.381818 161.116208 
L 69.381818 332.1 
L 74.985974 332.1 
L 80.59013 332.1 
L 86.013506 332.1 
L 91.617662 332.1 
L 97.041039 332.1 
L 102.645195 332.1 
L 108.249351 332.1 
L 113.311169 332.1 
L 118.915325 332.1 
L 124.338701 332.1 
L 129.942857 332.1 
L 135.366234 332.1 
L 140.97039 332.1 
L 146.574545 332.1 
L 151.997922 332.1 
L 157.602078 332.1 
L 163.025455 332.1 
L 168.62961 332.1 
L 174.233766 332.1 
L 179.295584 332.1 
L 184.89974 332.1 
L 190.323117 332.1 
L 195.927273 332.1 
L 201.350649 332.1 
L 206.954805 332.1 
L 212.558961 332.1 
L 217.982338 332.1 
L 223.586494 332.1 
L 229.00987 332.1 
L 234.614026 332.1 
L 240.218182 332.1 
L 245.28 332.1 
L 250.884156 332.1 
L 256.307532 332.1 
L 261.911688 332.1 
L 267.335065 332.1 
L 272.939221 332.1 
L 278.543377 332.1 
L 283.966753 332.1 
L 289.570909 332.1 
L 294.994286 332.1 
L 300.598442 332.1 
L 306.202597 332.1 
L 311.445195 332.1 
L 317.049351 332.1 
L 322.472727 332.1 
L 328.076883 332.1 
L 333.50026 332.1 
L 339.104416 332.1 
L 344.708571 332.1 
L 350.131948 332.1 
L 355.736104 332.1 
L 361.159481 332.1 
L 366.763636 332.1 
L 372.367792 332.1 
L 377.42961 332.1 
L 383.033766 332.1 
L 388.457143 332.1 
L 394.061299 332.1 
L 399.484675 332.1 
L 405.088831 332.1 
L 410.692987 332.1 
L 416.116364 332.1 
L 421.720519 332.1 
L 427.143896 332.1 
L 432.748052 332.1 
L 438.352208 332.1 
L 443.414026 332.1 
L 449.018182 332.1 
L 449.018182 186.374392 
L 449.018182 186.374392 
L 443.414026 194.319444 
L 438.352208 196.816637 
L 432.748052 174.437943 
L 427.143896 168.962436 
L 421.720519 159.643283 
L 416.116364 151.369965 
L 410.692987 149.876365 
L 405.088831 148.412521 
L 399.484675 150.917095 
L 394.061299 153.16642 
L 388.457143 146.362825 
L 383.033766 147.170065 
L 377.42961 150.865344 
L 372.367792 165.609664 
L 366.763636 173.338118 
L 361.159481 164.928705 
L 355.736104 160.627078 
L 350.131948 151.836087 
L 344.708571 141.718751 
L 339.104416 129.144109 
L 333.50026 116.809551 
L 328.076883 121.460525 
L 322.472727 118.998264 
L 317.049351 123.085858 
L 311.445195 119.565643 
L 306.202597 119.377303 
L 300.598442 117.872567 
L 294.994286 113.222735 
L 289.570909 108.535093 
L 283.966753 118.198566 
L 278.543377 128.166557 
L 272.939221 134.263292 
L 267.335065 147.766196 
L 261.911688 171.167563 
L 256.307532 185.296605 
L 250.884156 187.766817 
L 245.28 184.112489 
L 240.218182 184.657808 
L 234.614026 195.846217 
L 229.00987 202.106057 
L 223.586494 203.196206 
L 217.982338 207.646145 
L 212.558961 204.92872 
L 206.954805 202.321502 
L 201.350649 200.523356 
L 195.927273 194.781802 
L 190.323117 183.333697 
L 184.89974 167.943343 
L 179.295584 165.649828 
L 174.233766 158.513319 
L 168.62961 152.769428 
L 163.025455 151.295413 
L 157.602078 146.421177 
L 151.997922 148.139074 
L 146.574545 145.207185 
L 140.97039 144.902278 
L 135.366234 150.087913 
L 129.942857 148.622764 
L 124.338701 146.218105 
L 118.915325 147.730705 
L 113.311169 159.441039 
L 108.249351 161.222702 
L 102.645195 155.070442 
L 97.041039 171.307746 
L 91.617662 179.214195 
L 86.013506 170.96953 
L 80.59013 171.932551 
L 74.985974 162.043732 
L 69.381818 161.116208 
z
" clip-path="url(#pd305811ad5)" style="fill: #7c3aed; fill-opacity: 0.86"/>
   </g>
   <g id="FillBetweenPolyCollection_2">
    <path d="M 69.381818 160.302191 
L 69.381818 161.116208 
L 74.985974 162.043732 
L 80.59013 171.932551 
L 86.013506 170.96953 
L 91.617662 179.214195 
L 97.041039 171.307746 
L 102.645195 155.070442 
L 108.249351 161.222702 
L 113.311169 159.441039 
L 118.915325 147.730705 
L 124.338701 146.218105 
L 129.942857 148.622764 
L 135.366234 150.087913 
L 140.97039 144.902278 
L 146.574545 145.207185 
L 151.997922 148.139074 
L 157.602078 146.421177 
L 163.025455 151.295413 
L 168.62961 152.769428 
L 174.233766 158.513319 
L 179.295584 165.649828 
L 184.89974 167.943343 
L 190.323117 183.333697 
L 195.927273 194.781802 
L 201.350649 200.523356 
L 206.954805 202.321502 
L 212.558961 204.92872 
L 217.982338 207.646145 
L 223.586494 203.196206 
L 229.00987 202.106057 
L 234.614026 195.846217 
L 240.218182 184.657808 
L 245.28 184.112489 
L 250.884156 187.766817 
L 256.307532 185.296605 
L 261.911688 171.167563 
L 267.335065 147.766196 
L 272.939221 134.263292 
L 278.543377 128.166557 
L 283.966753 118.198566 
L 289.570909 108.535093 
L 294.994286 113.222735 
L 300.598442 117.872567 
L 306.202597 119.377303 
L 311.445195 119.565643 
L 317.049351 123.085858 
L 322.472727 118.998264 
L 328.076883 121.460525 
L 333.50026 116.809551 
L 339.104416 129.144109 
L 344.708571 141.718751 
L 350.131948 151.836087 
L 355.736104 160.627078 
L 361.159481 164.928705 
L 366.763636 173.338118 
L 372.367792 165.609664 
L 377.42961 150.865344 
L 383.033766 147.170065 
L 388.457143 146.362825 
L 394.061299 153.16642 
L 399.484675 150.917095 
L 405.088831 148.412521 
L 410.692987 149.876365 
L 416.116364 151.369965 
L 421.720519 159.643283 
L 427.143896 168.962436 
L 432.748052 174.437943 
L 438.352208 196.816637 
L 443.414026 194.319444 
L 449.018182 186.374392 
L 449.018182 185.799026 
L 449.018182 185.799026 
L 443.414026 193.74003 
L 438.352208 196.646138 
L 432.748052 174.372813 
L 427.143896 168.914891 
L 421.720519 159.60413 
L 416.116364 151.320524 
L 410.692987 149.820677 
L 405.088831 148.357305 
L 399.484675 150.859486 
L 394.061299 152.941278 
L 388.457143 146.052544 
L 383.033766 146.889785 
L 377.42961 150.561481 
L 372.367792 165.30621 
L 366.763636 173.17618 
L 361.159481 164.813054 
L 355.736104 160.530791 
L 350.131948 151.770933 
L 344.708571 141.642294 
L 339.104416 128.994807 
L 333.50026 116.637376 
L 328.076883 121.194262 
L 322.472727 118.839604 
L 317.049351 122.908755 
L 311.445195 119.365689 
L 306.202597 119.261171 
L 300.598442 117.760475 
L 294.994286 113.176669 
L 289.570909 108.522141 
L 283.966753 118.191946 
L 278.543377 128.132119 
L 272.939221 134.188315 
L 267.335065 147.702596 
L 261.911688 171.020022 
L 256.307532 185.094409 
L 250.884156 187.486711 
L 245.28 183.816271 
L 240.218182 184.267611 
L 234.614026 195.437993 
L 229.00987 201.522612 
L 223.586494 202.38167 
L 217.982338 206.870157 
L 212.558961 204.489373 
L 206.954805 202.110388 
L 201.350649 200.07297 
L 195.927273 194.390303 
L 190.323117 182.919266 
L 184.89974 167.72595 
L 179.295584 165.481957 
L 174.233766 158.265278 
L 168.62961 152.508455 
L 163.025455 151.072622 
L 157.602078 146.203368 
L 151.997922 147.88548 
L 146.574545 144.739711 
L 140.97039 144.322109 
L 135.366234 149.481948 
L 129.942857 148.107215 
L 124.338701 146.096408 
L 118.915325 147.670437 
L 113.311169 159.304553 
L 108.249351 160.897703 
L 102.645195 155.024308 
L 97.041039 171.187682 
L 91.617662 179.120614 
L 86.013506 170.840355 
L 80.59013 171.098042 
L 74.985974 161.301339 
L 69.381818 160.302191 
z
" clip-path="url(#pd305811ad5)" style="fill: #c084fc; fill-opacity: 0.86"/>
   </g>
   <g id="FillBetweenPolyCollection_3">
    <path d="M 69.381818 159.356218 
L 69.381818 160.302191 
L 74.985974 161.301339 
L 80.59013 171.098042 
L 86.013506 170.840355 
L 91.617662 179.120614 
L 97.041039 171.187682 
L 102.645195 155.024308 
L 108.249351 160.897703 
L 113.311169 159.304553 
L 118.915325 147.670437 
L 124.338701 146.096408 
L 129.942857 148.107215 
L 135.366234 149.481948 
L 140.97039 144.322109 
L 146.574545 144.739711 
L 151.997922 147.88548 
L 157.602078 146.203368 
L 163.025455 151.072622 
L 168.62961 152.508455 
L 174.233766 158.265278 
L 179.295584 165.481957 
L 184.89974 167.72595 
L 190.323117 182.919266 
L 195.927273 194.390303 
L 201.350649 200.07297 
L 206.954805 202.110388 
L 212.558961 204.489373 
L 217.982338 206.870157 
L 223.586494 202.38167 
L 229.00987 201.522612 
L 234.614026 195.437993 
L 240.218182 184.267611 
L 245.28 183.816271 
L 250.884156 187.486711 
L 256.307532 185.094409 
L 261.911688 171.020022 
L 267.335065 147.702596 
L 272.939221 134.188315 
L 278.543377 128.132119 
L 283.966753 118.191946 
L 289.570909 108.522141 
L 294.994286 113.176669 
L 300.598442 117.760475 
L 306.202597 119.261171 
L 311.445195 119.365689 
L 317.049351 122.908755 
L 322.472727 118.839604 
L 328.076883 121.194262 
L 333.50026 116.637376 
L 339.104416 128.994807 
L 344.708571 141.642294 
L 350.131948 151.770933 
L 355.736104 160.530791 
L 361.159481 164.813054 
L 366.763636 173.17618 
L 372.367792 165.30621 
L 377.42961 150.561481 
L 383.033766 146.889785 
L 388.457143 146.052544 
L 394.061299 152.941278 
L 399.484675 150.859486 
L 405.088831 148.357305 
L 410.692987 149.820677 
L 416.116364 151.320524 
L 421.720519 159.60413 
L 427.143896 168.914891 
L 432.748052 174.372813 
L 438.352208 196.646138 
L 443.414026 193.74003 
L 449.018182 185.799026 
L 449.018182 185.366749 
L 449.018182 185.366749 
L 443.414026 193.385221 
L 438.352208 196.312991 
L 432.748052 174.171859 
L 427.143896 168.723781 
L 421.720519 159.510198 
L 416.116364 151.226299 
L 410.692987 149.718517 
L 405.088831 148.304815 
L 399.484675 150.747219 
L 394.061299 152.576681 
L 388.457143 145.723799 
L 383.033766 146.623948 
L 377.42961 150.386178 
L 372.367792 165.16483 
L 366.763636 172.994709 
L 361.159481 164.673433 
L 355.736104 160.413834 
L 350.131948 151.584699 
L 344.708571 141.441563 
L 339.104416 128.786146 
L 333.50026 116.599065 
L 328.076883 121.150323 
L 322.472727 118.781299 
L 317.049351 122.771426 
L 311.445195 119.273219 
L 306.202597 119.104019 
L 300.598442 117.627947 
L 294.994286 113.107473 
L 289.570909 108.485003 
L 283.966753 118.165801 
L 278.543377 128.056074 
L 272.939221 134.018978 
L 267.335065 147.513932 
L 261.911688 170.86745 
L 256.307532 184.889669 
L 250.884156 187.323606 
L 245.28 183.719893 
L 240.218182 183.462015 
L 234.614026 193.564686 
L 229.00987 199.551134 
L 223.586494 200.986099 
L 217.982338 205.785807 
L 212.558961 203.426943 
L 206.954805 201.040632 
L 201.350649 199.062414 
L 195.927273 194.018577 
L 190.323117 182.784412 
L 184.89974 167.558855 
L 179.295584 165.307248 
L 174.233766 158.07063 
L 168.62961 152.395937 
L 163.025455 150.982533 
L 157.602078 146.144829 
L 151.997922 147.70142 
L 146.574545 144.662552 
L 140.97039 144.233247 
L 135.366234 149.337984 
L 129.942857 147.828491 
L 124.338701 145.535038 
L 118.915325 147.148083 
L 113.311169 158.706118 
L 108.249351 160.429011 
L 102.645195 154.497612 
L 97.041039 170.624192 
L 91.617662 178.893649 
L 86.013506 170.608446 
L 80.59013 169.890246 
L 74.985974 160.116338 
L 69.381818 159.356218 
z
" clip-path="url(#pd305811ad5)" style="fill: #2563eb; fill-opacity: 0.86"/>
   </g>
   <g id="FillBetweenPolyCollection_4">
    <path d="M 69.381818 159.198851 
L 69.381818 159.356218 
L 74.985974 160.116338 
L 80.59013 169.890246 
L 86.013506 170.608446 
L 91.617662 178.893649 
L 97.041039 170.624192 
L 102.645195 154.497612 
L 108.249351 160.429011 
L 113.311169 158.706118 
L 118.915325 147.148083 
L 124.338701 145.535038 
L 129.942857 147.828491 
L 135.366234 149.337984 
L 140.97039 144.233247 
L 146.574545 144.662552 
L 151.997922 147.70142 
L 157.602078 146.144829 
L 163.025455 150.982533 
L 168.62961 152.395937 
L 174.233766 158.07063 
L 179.295584 165.307248 
L 184.89974 167.558855 
L 190.323117 182.784412 
L 195.927273 194.018577 
L 201.350649 199.062414 
L 206.954805 201.040632 
L 212.558961 203.426943 
L 217.982338 205.785807 
L 223.586494 200.986099 
L 229.00987 199.551134 
L 234.614026 193.564686 
L 240.218182 183.462015 
L 245.28 183.719893 
L 250.884156 187.323606 
L 256.307532 184.889669 
L 261.911688 170.86745 
L 267.335065 147.513932 
L 272.939221 134.018978 
L 278.543377 128.056074 
L 283.966753 118.165801 
L 289.570909 108.485003 
L 294.994286 113.107473 
L 300.598442 117.627947 
L 306.202597 119.104019 
L 311.445195 119.273219 
L 317.049351 122.771426 
L 322.472727 118.781299 
L 328.076883 121.150323 
L 333.50026 116.599065 
L 339.104416 128.786146 
L 344.708571 141.441563 
L 350.131948 151.584699 
L 355.736104 160.413834 
L 361.159481 164.673433 
L 366.763636 172.994709 
L 372.367792 165.16483 
L 377.42961 150.386178 
L 383.033766 146.623948 
L 388.457143 145.723799 
L 394.061299 152.576681 
L 399.484675 150.747219 
L 405.088831 148.304815 
L 410.692987 149.718517 
L 416.116364 151.226299 
L 421.720519 159.510198 
L 427.143896 168.723781 
L 432.748052 174.171859 
L 438.352208 196.312991 
L 443.414026 193.385221 
L 449.018182 185.366749 
L 449.018182 185.083104 
L 449.018182 185.083104 
L 443.414026 193.081008 
L 438.352208 195.997391 
L 432.748052 173.952807 
L 427.143896 168.444714 
L 421.720519 159.33908 
L 416.116364 151.132054 
L 410.692987 149.638495 
L 405.088831 148.238269 
L 399.484675 150.714775 
L 394.061299 152.56313 
L 388.457143 145.669742 
L 383.033766 146.54547 
L 377.42961 150.348006 
L 372.367792 165.125394 
L 366.763636 172.951622 
L 361.159481 164.649179 
L 355.736104 160.383543 
L 350.131948 151.520255 
L 344.708571 141.355069 
L 339.104416 128.718531 
L 333.50026 116.555273 
L 328.076883 121.119949 
L 322.472727 118.771688 
L 317.049351 122.705806 
L 311.445195 119.207381 
L 306.202597 119.04757 
L 300.598442 117.578055 
L 294.994286 113.039856 
L 289.570909 108.419765 
L 283.966753 118.131362 
L 278.543377 128.040433 
L 272.939221 133.988728 
L 267.335065 147.393465 
L 261.911688 170.793457 
L 256.307532 184.808299 
L 250.884156 187.251125 
L 245.28 183.669154 
L 240.218182 183.148885 
L 234.614026 192.960574 
L 229.00987 198.949339 
L 223.586494 200.579979 
L 217.982338 205.191798 
L 212.558961 202.727866 
L 206.954805 200.448624 
L 201.350649 198.439335 
L 195.927273 193.168383 
L 190.323117 181.848375 
L 184.89974 166.856094 
L 179.295584 164.63398 
L 174.233766 157.70442 
L 168.62961 152.135221 
L 163.025455 150.888746 
L 157.602078 146.07448 
L 151.997922 147.529593 
L 146.574545 144.573817 
L 140.97039 144.048513 
L 135.366234 149.136276 
L 129.942857 147.605942 
L 124.338701 145.302851 
L 118.915325 147.013618 
L 113.311169 158.562452 
L 108.249351 160.276232 
L 102.645195 154.27272 
L 97.041039 170.48426 
L 91.617662 178.828675 
L 86.013506 170.531673 
L 80.59013 169.616923 
L 74.985974 159.897578 
L 69.381818 159.198851 
z
" clip-path="url(#pd305811ad5)" style="fill: #d97706; fill-opacity: 0.86"/>
   </g>
   <g id="FillBetweenPolyCollection_5">
    <path d="M 69.381818 158.932132 
L 69.381818 159.198851 
L 74.985974 159.897578 
L 80.59013 169.616923 
L 86.013506 170.531673 
L 91.617662 178.828675 
L 97.041039 170.48426 
L 102.645195 154.27272 
L 108.249351 160.276232 
L 113.311169 158.562452 
L 118.915325 147.013618 
L 124.338701 145.302851 
L 129.942857 147.605942 
L 135.366234 149.136276 
L 140.97039 144.048513 
L 146.574545 144.573817 
L 151.997922 147.529593 
L 157.602078 146.07448 
L 163.025455 150.888746 
L 168.62961 152.135221 
L 174.233766 157.70442 
L 179.295584 164.63398 
L 184.89974 166.856094 
L 190.323117 181.848375 
L 195.927273 193.168383 
L 201.350649 198.439335 
L 206.954805 200.448624 
L 212.558961 202.727866 
L 217.982338 205.191798 
L 223.586494 200.579979 
L 229.00987 198.949339 
L 234.614026 192.960574 
L 240.218182 183.148885 
L 245.28 183.669154 
L 250.884156 187.251125 
L 256.307532 184.808299 
L 261.911688 170.793457 
L 267.335065 147.393465 
L 272.939221 133.988728 
L 278.543377 128.040433 
L 283.966753 118.131362 
L 289.570909 108.419765 
L 294.994286 113.039856 
L 300.598442 117.578055 
L 306.202597 119.04757 
L 311.445195 119.207381 
L 317.049351 122.705806 
L 322.472727 118.771688 
L 328.076883 121.119949 
L 333.50026 116.555273 
L 339.104416 128.718531 
L 344.708571 141.355069 
L 350.131948 151.520255 
L 355.736104 160.383543 
L 361.159481 164.649179 
L 366.763636 172.951622 
L 372.367792 165.125394 
L 377.42961 150.348006 
L 383.033766 146.54547 
L 388.457143 145.669742 
L 394.061299 152.56313 
L 399.484675 150.714775 
L 405.088831 148.238269 
L 410.692987 149.638495 
L 416.116364 151.132054 
L 421.720519 159.33908 
L 427.143896 168.444714 
L 432.748052 173.952807 
L 438.352208 195.997391 
L 443.414026 193.081008 
L 449.018182 185.083104 
L 449.018182 184.777896 
L 449.018182 184.777896 
L 443.414026 192.587591 
L 438.352208 195.530638 
L 432.748052 173.742399 
L 427.143896 168.29428 
L 421.720519 159.280008 
L 416.116364 151.089608 
L 410.692987 149.591689 
L 405.088831 148.17936 
L 399.484675 150.656165 
L 394.061299 152.453226 
L 388.457143 145.360154 
L 383.033766 146.18788 
L 377.42961 149.987751 
L 372.367792 164.696371 
L 366.763636 172.60841 
L 361.159481 164.274839 
L 355.736104 160.231231 
L 350.131948 151.431768 
L 344.708571 141.235712 
L 339.104416 128.533588 
L 333.50026 116.480108 
L 328.076883 121.08913 
L 322.472727 118.7515 
L 317.049351 122.649066 
L 311.445195 119.01575 
L 306.202597 118.943557 
L 300.598442 117.397072 
L 294.994286 112.970502 
L 289.570909 108.400698 
L 283.966753 118.125043 
L 278.543377 128.019336 
L 272.939221 133.947526 
L 267.335065 147.291452 
L 261.911688 170.550661 
L 256.307532 184.573317 
L 250.884156 187.092501 
L 245.28 183.394736 
L 240.218182 182.549437 
L 234.614026 192.367003 
L 229.00987 198.294567 
L 223.586494 200.220574 
L 217.982338 205.023092 
L 212.558961 202.606137 
L 206.954805 200.192603 
L 201.350649 197.996094 
L 195.927273 192.936935 
L 190.323117 181.728336 
L 184.89974 166.667521 
L 179.295584 164.438692 
L 174.233766 157.426846 
L 168.62961 151.872048 
L 163.025455 150.637106 
L 157.602078 145.643175 
L 151.997922 146.861204 
L 146.574545 143.248769 
L 140.97039 142.714104 
L 135.366234 147.668818 
L 129.942857 146.345109 
L 124.338701 144.515369 
L 118.915325 146.034563 
L 113.311169 158.020953 
L 108.249351 159.856803 
L 102.645195 154.074334 
L 97.041039 170.432767 
L 91.617662 178.805802 
L 86.013506 170.492125 
L 80.59013 169.281355 
L 74.985974 159.568858 
L 69.381818 158.932132 
z
" clip-path="url(#pd305811ad5)" style="fill: #16a34a; fill-opacity: 0.86"/>
   </g>
   <g id="FillBetweenPolyCollection_6">
    <path d="M 69.381818 158.9246 
L 69.381818 158.932132 
L 74.985974 159.568858 
L 80.59013 169.281355 
L 86.013506 170.492125 
L 91.617662 178.805802 
L 97.041039 170.432767 
L 102.645195 154.074334 
L 108.249351 159.856803 
L 113.311169 158.020953 
L 118.915325 146.034563 
L 124.338701 144.515369 
L 129.942857 146.345109 
L 135.366234 147.668818 
L 140.97039 142.714104 
L 146.574545 143.248769 
L 151.997922 146.861204 
L 157.602078 145.643175 
L 163.025455 150.637106 
L 168.62961 151.872048 
L 174.233766 157.426846 
L 179.295584 164.438692 
L 184.89974 166.667521 
L 190.323117 181.728336 
L 195.927273 192.936935 
L 201.350649 197.996094 
L 206.954805 200.192603 
L 212.558961 202.606137 
L 217.982338 205.023092 
L 223.586494 200.220574 
L 229.00987 198.294567 
L 234.614026 192.367003 
L 240.218182 182.549437 
L 245.28 183.394736 
L 250.884156 187.092501 
L 256.307532 184.573317 
L 261.911688 170.550661 
L 267.335065 147.291452 
L 272.939221 133.947526 
L 278.543377 128.019336 
L 283.966753 118.125043 
L 289.570909 108.400698 
L 294.994286 112.970502 
L 300.598442 117.397072 
L 306.202597 118.943557 
L 311.445195 119.01575 
L 317.049351 122.649066 
L 322.472727 118.7515 
L 328.076883 121.08913 
L 333.50026 116.480108 
L 339.104416 128.533588 
L 344.708571 141.235712 
L 350.131948 151.431768 
L 355.736104 160.231231 
L 361.159481 164.274839 
L 366.763636 172.60841 
L 372.367792 164.696371 
L 377.42961 149.987751 
L 383.033766 146.18788 
L 388.457143 145.360154 
L 394.061299 152.453226 
L 399.484675 150.656165 
L 405.088831 148.17936 
L 410.692987 149.591689 
L 416.116364 151.089608 
L 421.720519 159.280008 
L 427.143896 168.29428 
L 432.748052 173.742399 
L 438.352208 195.530638 
L 443.414026 192.587591 
L 449.018182 184.777896 
L 449.018182 184.770644 
L 449.018182 184.770644 
L 443.414026 192.583886 
L 438.352208 195.506414 
L 432.748052 173.73865 
L 427.143896 168.286429 
L 421.720519 159.277811 
L 416.116364 151.058284 
L 410.692987 149.55443 
L 405.088831 148.152388 
L 399.484675 150.639609 
L 394.061299 152.452671 
L 388.457143 145.353973 
L 383.033766 146.164506 
L 377.42961 149.918764 
L 372.367792 164.659569 
L 366.763636 172.596838 
L 361.159481 164.268188 
L 355.736104 160.225933 
L 350.131948 151.427282 
L 344.708571 141.219864 
L 339.104416 128.504353 
L 333.50026 116.475177 
L 328.076883 121.072808 
L 322.472727 118.737142 
L 317.049351 122.64776 
L 311.445195 119.004938 
L 306.202597 118.93978 
L 300.598442 117.39411 
L 294.994286 112.94758 
L 289.570909 108.385714 
L 283.966753 118.122385 
L 278.543377 128.010913 
L 272.939221 133.937996 
L 267.335065 147.263145 
L 261.911688 170.242516 
L 256.307532 184.304026 
L 250.884156 186.981271 
L 245.28 183.258213 
L 240.218182 182.365162 
L 234.614026 192.296584 
L 229.00987 198.18744 
L 223.586494 200.141506 
L 217.982338 205.016263 
L 212.558961 202.60409 
L 206.954805 200.132818 
L 201.350649 197.841995 
L 195.927273 192.886441 
L 190.323117 181.651147 
L 184.89974 166.618809 
L 179.295584 164.399028 
L 174.233766 157.397653 
L 168.62961 151.825498 
L 163.025455 150.594926 
L 157.602078 145.600248 
L 151.997922 146.834364 
L 146.574545 143.051715 
L 140.97039 142.560096 
L 135.366234 147.393166 
L 129.942857 146.076056 
L 124.338701 144.366632 
L 118.915325 145.856628 
L 113.311169 157.885163 
L 108.249351 159.828471 
L 102.645195 154.048667 
L 97.041039 170.381196 
L 91.617662 178.766417 
L 86.013506 170.45334 
L 80.59013 169.240404 
L 74.985974 159.516839 
L 69.381818 158.9246 
z
" clip-path="url(#pd305811ad5)" style="fill: #6b7280; fill-opacity: 0.86"/>
   </g>
   <g id="matplotlib.axis_1">
    <g id="xtick_1">
     <g id="line2d_1">
      <path d="M 102.645195 332.1 
L 102.645195 97.2 
" clip-path="url(#pd305811ad5)" style="fill: none; stroke: #d9dee7; stroke-opacity: 0.45; stroke-width: 0.7; stroke-linecap: square"/>
     </g>
     <g id="line2d_2"/>
     <g id="text_1">
      <!-- 2021 -->
      <g style="fill: #6b7280" transform="translate(94.020195 341.5225) scale(0.08 -0.08)">
       <defs>
        <path id="SegoeUI-32" d="M 2413 3306 
Q 2413 3513 2348 3666 
Q 2284 3819 2173 3920 
Q 2063 4022 1913 4072 
Q 1763 4122 1588 4122 
Q 1438 4122 1294 4081 
Q 1150 4041 1014 3969 
Q 878 3897 751 3797 
Q 625 3697 516 3575 
L 516 4125 
Q 731 4334 998 4445 
Q 1266 4556 1650 4556 
Q 1925 4556 2159 4476 
Q 2394 4397 2566 4244 
Q 2738 4091 2836 3866 
Q 2934 3641 2934 3350 
Q 2934 3084 2873 2868 
Q 2813 2653 2689 2462 
Q 2566 2272 2378 2097 
Q 2191 1922 1938 1741 
Q 1622 1516 1417 1356 
Q 1213 1197 1092 1058 
Q 972 919 923 780 
Q 875 641 875 459 
L 3106 459 
L 3106 0 
L 341 0 
L 341 222 
Q 341 509 403 728 
Q 466 947 609 1144 
Q 753 1341 986 1537 
Q 1219 1734 1556 1981 
Q 1800 2156 1964 2315 
Q 2128 2475 2228 2634 
Q 2328 2794 2370 2958 
Q 2413 3122 2413 3306 
z
" transform="scale(0.015625)"/>
        <path id="SegoeUI-30" d="M 3188 2259 
Q 3188 1697 3086 1262 
Q 2984 828 2792 529 
Q 2600 231 2320 76 
Q 2041 -78 1684 -78 
Q 1347 -78 1083 70 
Q 819 219 637 503 
Q 456 788 362 1202 
Q 269 1616 269 2150 
Q 269 2738 367 3188 
Q 466 3638 656 3942 
Q 847 4247 1130 4401 
Q 1413 4556 1778 4556 
Q 3188 4556 3188 2259 
z
M 2663 2209 
Q 2663 4122 1753 4122 
Q 794 4122 794 2175 
Q 794 359 1734 359 
Q 2663 359 2663 2209 
z
" transform="scale(0.015625)"/>
        <path id="SegoeUI-31" d="M 2263 0 
L 1750 0 
L 1750 3872 
Q 1691 3813 1577 3736 
Q 1463 3659 1320 3584 
Q 1178 3509 1020 3443 
Q 863 3378 713 3341 
L 713 3859 
Q 881 3906 1070 3986 
Q 1259 4066 1442 4164 
Q 1625 4263 1787 4370 
Q 1950 4478 2069 4581 
L 2263 4581 
L 2263 0 
z
" transform="scale(0.015625)"/>
       </defs>
       <use xlink:href="#SegoeUI-32"/>
       <use xlink:href="#SegoeUI-30" transform="translate(53.90625 0)"/>
       <use xlink:href="#SegoeUI-32" transform="translate(107.8125 0)"/>
       <use xlink:href="#SegoeUI-31" transform="translate(161.71875 0)"/>
      </g>
     </g>
    </g>
    <g id="xtick_2">
     <g id="line2d_3">
      <path d="M 168.62961 332.1 
L 168.62961 97.2 
" clip-path="url(#pd305811ad5)" style="fill: none; stroke: #d9dee7; stroke-opacity: 0.45; stroke-width: 0.7; stroke-linecap: square"/>
     </g>
     <g id="line2d_4"/>
     <g id="text_2">
      <!-- 2022 -->
      <g style="fill: #6b7280" transform="translate(160.00461 341.5225) scale(0.08 -0.08)">
       <use xlink:href="#SegoeUI-32"/>
       <use xlink:href="#SegoeUI-30" transform="translate(53.90625 0)"/>
       <use xlink:href="#SegoeUI-32" transform="translate(107.8125 0)"/>
       <use xlink:href="#SegoeUI-32" transform="translate(161.71875 0)"/>
      </g>
     </g>
    </g>
    <g id="xtick_3">
     <g id="line2d_5">
      <path d="M 234.614026 332.1 
L 234.614026 97.2 
" clip-path="url(#pd305811ad5)" style="fill: none; stroke: #d9dee7; stroke-opacity: 0.45; stroke-width: 0.7; stroke-linecap: square"/>
     </g>
     <g id="line2d_6"/>
     <g id="text_3">
      <!-- 2023 -->
      <g style="fill: #6b7280" transform="translate(225.989026 341.5225) scale(0.08 -0.08)">
       <defs>
        <path id="SegoeUI-33" d="M 2978 1269 
Q 2978 966 2864 717 
Q 2750 469 2542 292 
Q 2334 116 2043 19 
Q 1753 -78 1403 -78 
Q 763 -78 384 166 
L 384 716 
Q 838 359 1422 359 
Q 1656 359 1845 418 
Q 2034 478 2170 590 
Q 2306 703 2379 862 
Q 2453 1022 2453 1222 
Q 2453 2100 1203 2100 
L 831 2100 
L 831 2534 
L 1184 2534 
Q 2291 2534 2291 3359 
Q 2291 4122 1447 4122 
Q 972 4122 556 3803 
L 556 4300 
Q 984 4556 1575 4556 
Q 1856 4556 2084 4478 
Q 2313 4400 2475 4259 
Q 2638 4119 2727 3922 
Q 2816 3725 2816 3488 
Q 2816 2603 1922 2350 
L 1922 2338 
Q 2150 2313 2344 2227 
Q 2538 2141 2678 2003 
Q 2819 1866 2898 1680 
Q 2978 1494 2978 1269 
z
" transform="scale(0.015625)"/>
       </defs>
       <use xlink:href="#SegoeUI-32"/>
       <use xlink:href="#SegoeUI-30" transform="translate(53.90625 0)"/>
       <use xlink:href="#SegoeUI-32" transform="translate(107.8125 0)"/>
       <use xlink:href="#SegoeUI-33" transform="translate(161.71875 0)"/>
      </g>
     </g>
    </g>
    <g id="xtick_4">
     <g id="line2d_7">
      <path d="M 300.598442 332.1 
L 300.598442 97.2 
" clip-path="url(#pd305811ad5)" style="fill: none; stroke: #d9dee7; stroke-opacity: 0.45; stroke-width: 0.7; stroke-linecap: square"/>
     </g>
     <g id="line2d_8"/>
     <g id="text_4">
      <!-- 2024 -->
      <g style="fill: #6b7280" transform="translate(291.973442 341.5225) scale(0.08 -0.08)">
       <defs>
        <path id="SegoeUI-34" d="M 2656 4481 
L 2656 1522 
L 3231 1522 
L 3231 1053 
L 2656 1053 
L 2656 0 
L 2150 0 
L 2150 1053 
L 44 1053 
L 44 1497 
Q 338 1828 638 2204 
Q 938 2581 1211 2968 
Q 1484 3356 1717 3742 
Q 1950 4128 2109 4481 
L 2656 4481 
z
M 622 1522 
L 2150 1522 
L 2150 3716 
Q 1916 3306 1706 2984 
Q 1497 2663 1308 2400 
Q 1119 2138 947 1925 
Q 775 1713 622 1522 
z
" transform="scale(0.015625)"/>
       </defs>
       <use xlink:href="#SegoeUI-32"/>
       <use xlink:href="#SegoeUI-30" transform="translate(53.90625 0)"/>
       <use xlink:href="#SegoeUI-32" transform="translate(107.8125 0)"/>
       <use xlink:href="#SegoeUI-34" transform="translate(161.71875 0)"/>
      </g>
     </g>
    </g>
    <g id="xtick_5">
     <g id="line2d_9">
      <path d="M 366.763636 332.1 
L 366.763636 97.2 
" clip-path="url(#pd305811ad5)" style="fill: none; stroke: #d9dee7; stroke-opacity: 0.45; stroke-width: 0.7; stroke-linecap: square"/>
     </g>
     <g id="line2d_10"/>
     <g id="text_5">
      <!-- 2025 -->
      <g style="fill: #6b7280" transform="translate(358.138636 341.5225) scale(0.08 -0.08)">
       <defs>
        <path id="SegoeUI-35" d="M 3028 1369 
Q 3028 1041 2915 775 
Q 2803 509 2595 318 
Q 2388 128 2094 25 
Q 1800 -78 1441 -78 
Q 816 -78 513 109 
L 513 653 
Q 969 359 1447 359 
Q 1691 359 1886 431 
Q 2081 503 2218 631 
Q 2356 759 2429 940 
Q 2503 1122 2503 1338 
Q 2503 1775 2209 2023 
Q 1916 2272 1356 2272 
Q 1266 2272 1166 2269 
Q 1066 2266 966 2261 
Q 866 2256 770 2250 
Q 675 2244 597 2234 
L 750 4481 
L 2822 4481 
L 2822 4019 
L 1194 4019 
L 1103 2703 
Q 1203 2709 1315 2714 
Q 1428 2719 1516 2719 
Q 1872 2719 2153 2625 
Q 2434 2531 2629 2357 
Q 2825 2184 2926 1932 
Q 3028 1681 3028 1369 
z
" transform="scale(0.015625)"/>
       </defs>
       <use xlink:href="#SegoeUI-32"/>
       <use xlink:href="#SegoeUI-30" transform="translate(53.90625 0)"/>
       <use xlink:href="#SegoeUI-32" transform="translate(107.8125 0)"/>
       <use xlink:href="#SegoeUI-35" transform="translate(161.71875 0)"/>
      </g>
     </g>
    </g>
    <g id="xtick_6">
     <g id="line2d_11">
      <path d="M 432.748052 332.1 
L 432.748052 97.2 
" clip-path="url(#pd305811ad5)" style="fill: none; stroke: #d9dee7; stroke-opacity: 0.45; stroke-width: 0.7; stroke-linecap: square"/>
     </g>
     <g id="line2d_12"/>
     <g id="text_6">
      <!-- 2026 -->
      <g style="fill: #6b7280" transform="translate(424.123052 341.5225) scale(0.08 -0.08)">
       <defs>
        <path id="SegoeUI-36" d="M 3194 1422 
Q 3194 1094 3087 819 
Q 2981 544 2793 344 
Q 2606 144 2347 33 
Q 2088 -78 1784 -78 
Q 1447 -78 1180 62 
Q 913 203 727 467 
Q 541 731 444 1112 
Q 347 1494 347 1972 
Q 347 2556 476 3032 
Q 606 3509 845 3848 
Q 1084 4188 1421 4372 
Q 1759 4556 2175 4556 
Q 2638 4556 2919 4428 
L 2919 3944 
Q 2572 4122 2188 4122 
Q 1888 4122 1647 3987 
Q 1406 3853 1234 3608 
Q 1063 3363 970 3016 
Q 878 2669 878 2244 
L 891 2244 
Q 1200 2803 1913 2803 
Q 2206 2803 2442 2703 
Q 2678 2603 2845 2420 
Q 3013 2238 3103 1984 
Q 3194 1731 3194 1422 
z
M 2669 1356 
Q 2669 1591 2609 1778 
Q 2550 1966 2439 2097 
Q 2328 2228 2165 2298 
Q 2003 2369 1797 2369 
Q 1606 2369 1443 2297 
Q 1281 2225 1162 2101 
Q 1044 1978 976 1814 
Q 909 1650 909 1466 
Q 909 1234 975 1032 
Q 1041 831 1159 681 
Q 1278 531 1442 445 
Q 1606 359 1806 359 
Q 2000 359 2159 432 
Q 2319 506 2431 637 
Q 2544 769 2606 951 
Q 2669 1134 2669 1356 
z
" transform="scale(0.015625)"/>
       </defs>
       <use xlink:href="#SegoeUI-32"/>
       <use xlink:href="#SegoeUI-30" transform="translate(53.90625 0)"/>
       <use xlink:href="#SegoeUI-32" transform="translate(107.8125 0)"/>
       <use xlink:href="#SegoeUI-36" transform="translate(161.71875 0)"/>
      </g>
     </g>
    </g>
   </g>
   <g id="matplotlib.axis_2">
    <g id="ytick_1">
     <g id="line2d_13">
      <path d="M 50.4 332.1 
L 468 332.1 
" clip-path="url(#pd305811ad5)" style="fill: none; stroke: #d9dee7; stroke-opacity: 0.45; stroke-width: 0.7; stroke-linecap: square"/>
     </g>
     <g id="line2d_14"/>
     <g id="text_7">
      <!-- 0.0 -->
      <g style="fill: #6b7280" transform="translate(36.54 335.06125) scale(0.08 -0.08)">
       <defs>
        <path id="SegoeUI-2e" d="M 697 -69 
Q 553 -69 451 34 
Q 350 138 350 281 
Q 350 425 451 529 
Q 553 634 697 634 
Q 844 634 947 529 
Q 1050 425 1050 281 
Q 1050 138 947 34 
Q 844 -69 697 -69 
z
" transform="scale(0.015625)"/>
       </defs>
       <use xlink:href="#SegoeUI-30"/>
       <use xlink:href="#SegoeUI-2e" transform="translate(53.90625 0)"/>
       <use xlink:href="#SegoeUI-30" transform="translate(75.585938 0)"/>
      </g>
     </g>
    </g>
    <g id="ytick_2">
     <g id="line2d_15">
      <path d="M 50.4 284.359218 
L 468 284.359218 
" clip-path="url(#pd305811ad5)" style="fill: none; stroke: #d9dee7; stroke-opacity: 0.45; stroke-width: 0.7; stroke-linecap: square"/>
     </g>
     <g id="line2d_16"/>
     <g id="text_8">
      <!-- 0.2 -->
      <g style="fill: #6b7280" transform="translate(36.54 287.320468) scale(0.08 -0.08)">
       <use xlink:href="#SegoeUI-30"/>
       <use xlink:href="#SegoeUI-2e" transform="translate(53.90625 0)"/>
       <use xlink:href="#SegoeUI-32" transform="translate(75.585938 0)"/>
      </g>
     </g>
    </g>
    <g id="ytick_3">
     <g id="line2d_17">
      <path d="M 50.4 236.618437 
L 468 236.618437 
" clip-path="url(#pd305811ad5)" style="fill: none; stroke: #d9dee7; stroke-opacity: 0.45; stroke-width: 0.7; stroke-linecap: square"/>
     </g>
     <g id="line2d_18"/>
     <g id="text_9">
      <!-- 0.4 -->
      <g style="fill: #6b7280" transform="translate(36.54 239.579687) scale(0.08 -0.08)">
       <use xlink:href="#SegoeUI-30"/>
       <use xlink:href="#SegoeUI-2e" transform="translate(53.90625 0)"/>
       <use xlink:href="#SegoeUI-34" transform="translate(75.585938 0)"/>
      </g>
     </g>
    </g>
    <g id="ytick_4">
     <g id="line2d_19">
      <path d="M 50.4 188.877655 
L 468 188.877655 
" clip-path="url(#pd305811ad5)" style="fill: none; stroke: #d9dee7; stroke-opacity: 0.45; stroke-width: 0.7; stroke-linecap: square"/>
     </g>
     <g id="line2d_20"/>
     <g id="text_10">
      <!-- 0.6 -->
      <g style="fill: #6b7280" transform="translate(36.54 191.838905) scale(0.08 -0.08)">
       <use xlink:href="#SegoeUI-30"/>
       <use xlink:href="#SegoeUI-2e" transform="translate(53.90625 0)"/>
       <use xlink:href="#SegoeUI-36" transform="translate(75.585938 0)"/>
      </g>
     </g>
    </g>
    <g id="ytick_5">
     <g id="line2d_21">
      <path d="M 50.4 141.136873 
L 468 141.136873 
" clip-path="url(#pd305811ad5)" style="fill: none; stroke: #d9dee7; stroke-opacity: 0.45; stroke-width: 0.7; stroke-linecap: square"/>
     </g>
     <g id="line2d_22"/>
     <g id="text_11">
      <!-- 0.8 -->
      <g style="fill: #6b7280" transform="translate(36.54 144.098123) scale(0.08 -0.08)">
       <defs>
        <path id="SegoeUI-38" d="M 281 1250 
Q 281 1428 337 1608 
Q 394 1788 498 1944 
Q 603 2100 758 2228 
Q 913 2356 1109 2431 
Q 819 2594 647 2848 
Q 475 3103 475 3413 
Q 475 3659 570 3868 
Q 666 4078 834 4231 
Q 1003 4384 1234 4470 
Q 1466 4556 1734 4556 
Q 2006 4556 2237 4468 
Q 2469 4381 2637 4228 
Q 2806 4075 2900 3865 
Q 2994 3656 2994 3413 
Q 2994 3103 2822 2848 
Q 2650 2594 2366 2431 
Q 2559 2356 2712 2228 
Q 2866 2100 2970 1944 
Q 3075 1788 3131 1608 
Q 3188 1428 3188 1250 
Q 3188 956 3081 712 
Q 2975 469 2783 295 
Q 2591 122 2323 25 
Q 2056 -72 1734 -72 
Q 1416 -72 1150 25 
Q 884 122 690 295 
Q 497 469 389 712 
Q 281 956 281 1250 
z
M 838 1294 
Q 838 1084 902 915 
Q 966 747 1083 628 
Q 1200 509 1367 445 
Q 1534 381 1738 381 
Q 1934 381 2100 447 
Q 2266 513 2386 631 
Q 2506 750 2573 919 
Q 2641 1088 2641 1294 
Q 2641 1481 2577 1645 
Q 2513 1809 2394 1934 
Q 2275 2059 2109 2131 
Q 1944 2203 1738 2203 
Q 1544 2203 1380 2136 
Q 1216 2069 1095 1948 
Q 975 1828 906 1661 
Q 838 1494 838 1294 
z
M 997 3372 
Q 997 3213 1055 3077 
Q 1113 2941 1214 2839 
Q 1316 2738 1450 2680 
Q 1584 2622 1738 2622 
Q 1891 2622 2027 2681 
Q 2163 2741 2263 2842 
Q 2363 2944 2422 3080 
Q 2481 3216 2481 3372 
Q 2481 3534 2423 3671 
Q 2366 3809 2266 3909 
Q 2166 4009 2030 4067 
Q 1894 4125 1738 4125 
Q 1572 4125 1436 4065 
Q 1300 4006 1201 3904 
Q 1103 3803 1050 3665 
Q 997 3528 997 3372 
z
" transform="scale(0.015625)"/>
       </defs>
       <use xlink:href="#SegoeUI-30"/>
       <use xlink:href="#SegoeUI-2e" transform="translate(53.90625 0)"/>
       <use xlink:href="#SegoeUI-38" transform="translate(75.585938 0)"/>
      </g>
     </g>
    </g>
    <g id="text_12">
     <!-- Rolling block partial R2 -->
     <g style="fill: #6b7280" transform="translate(30.422188 260.379141) rotate(-90) scale(0.09 -0.09)">
      <defs>
       <path id="SegoeUI-52" d="M 3800 0 
L 3175 0 
L 2425 1256 
Q 2322 1431 2225 1554 
Q 2128 1678 2026 1756 
Q 1925 1834 1808 1870 
Q 1691 1906 1544 1906 
L 1113 1906 
L 1113 0 
L 588 0 
L 588 4481 
L 1925 4481 
Q 2219 4481 2467 4407 
Q 2716 4334 2898 4184 
Q 3081 4034 3184 3811 
Q 3288 3588 3288 3288 
Q 3288 3053 3217 2858 
Q 3147 2663 3017 2509 
Q 2888 2356 2705 2248 
Q 2522 2141 2294 2081 
L 2294 2069 
Q 2406 2019 2489 1955 
Q 2572 1891 2647 1803 
Q 2722 1716 2795 1605 
Q 2869 1494 2959 1347 
L 3800 0 
z
M 1113 4006 
L 1113 2381 
L 1825 2381 
Q 2022 2381 2189 2440 
Q 2356 2500 2478 2611 
Q 2600 2722 2669 2883 
Q 2738 3044 2738 3244 
Q 2738 3603 2505 3804 
Q 2272 4006 1831 4006 
L 1113 4006 
z
" transform="scale(0.015625)"/>
       <path id="SegoeUI-6f" d="M 1856 -75 
Q 1147 -75 723 373 
Q 300 822 300 1563 
Q 300 2369 740 2822 
Q 1181 3275 1931 3275 
Q 2647 3275 3048 2834 
Q 3450 2394 3450 1613 
Q 3450 847 3017 386 
Q 2584 -75 1856 -75 
z
M 1894 2844 
Q 1400 2844 1112 2508 
Q 825 2172 825 1581 
Q 825 1013 1115 684 
Q 1406 356 1894 356 
Q 2391 356 2658 678 
Q 2925 1000 2925 1594 
Q 2925 2194 2658 2519 
Q 2391 2844 1894 2844 
z
" transform="scale(0.015625)"/>
       <path id="SegoeUI-6c" d="M 1031 0 
L 519 0 
L 519 4738 
L 1031 4738 
L 1031 0 
z
" transform="scale(0.015625)"/>
       <path id="SegoeUI-69" d="M 781 4013 
Q 644 4013 547 4106 
Q 450 4200 450 4344 
Q 450 4488 547 4583 
Q 644 4678 781 4678 
Q 922 4678 1020 4583 
Q 1119 4488 1119 4344 
Q 1119 4206 1020 4109 
Q 922 4013 781 4013 
z
M 1031 0 
L 519 0 
L 519 3200 
L 1031 3200 
L 1031 0 
z
" transform="scale(0.015625)"/>
       <path id="SegoeUI-6e" d="M 3175 0 
L 2663 0 
L 2663 1825 
Q 2663 2844 1919 2844 
Q 1534 2844 1282 2555 
Q 1031 2266 1031 1825 
L 1031 0 
L 519 0 
L 519 3200 
L 1031 3200 
L 1031 2669 
L 1044 2669 
Q 1406 3275 2094 3275 
Q 2619 3275 2897 2936 
Q 3175 2597 3175 1956 
L 3175 0 
z
" transform="scale(0.015625)"/>
       <path id="SegoeUI-67" d="M 3250 256 
Q 3250 -1506 1563 -1506 
Q 969 -1506 525 -1281 
L 525 -769 
Q 1066 -1069 1556 -1069 
Q 2738 -1069 2738 188 
L 2738 538 
L 2725 538 
Q 2359 -75 1625 -75 
Q 1028 -75 664 351 
Q 300 778 300 1497 
Q 300 2313 692 2794 
Q 1084 3275 1766 3275 
Q 2413 3275 2725 2756 
L 2738 2756 
L 2738 3200 
L 3250 3200 
L 3250 256 
z
M 2738 1447 
L 2738 1919 
Q 2738 2300 2480 2572 
Q 2222 2844 1838 2844 
Q 1363 2844 1094 2498 
Q 825 2153 825 1531 
Q 825 997 1083 676 
Q 1341 356 1766 356 
Q 2197 356 2467 662 
Q 2738 969 2738 1447 
z
" transform="scale(0.015625)"/>
       <path id="SegoeUI-20" transform="scale(0.015625)"/>
       <path id="SegoeUI-62" d="M 1044 463 
L 1031 463 
L 1031 0 
L 519 0 
L 519 4738 
L 1031 4738 
L 1031 2638 
L 1044 2638 
Q 1422 3275 2150 3275 
Q 2766 3275 3114 2845 
Q 3463 2416 3463 1694 
Q 3463 891 3072 408 
Q 2681 -75 2003 -75 
Q 1369 -75 1044 463 
z
M 1031 1753 
L 1031 1306 
Q 1031 909 1289 632 
Q 1547 356 1944 356 
Q 2409 356 2673 712 
Q 2938 1069 2938 1703 
Q 2938 2238 2691 2541 
Q 2444 2844 2022 2844 
Q 1575 2844 1303 2533 
Q 1031 2222 1031 1753 
z
" transform="scale(0.015625)"/>
       <path id="SegoeUI-63" d="M 2700 147 
Q 2331 -75 1825 -75 
Q 1141 -75 720 370 
Q 300 816 300 1525 
Q 300 2316 753 2795 
Q 1206 3275 1963 3275 
Q 2384 3275 2706 3119 
L 2706 2594 
Q 2350 2844 1944 2844 
Q 1453 2844 1139 2492 
Q 825 2141 825 1569 
Q 825 1006 1120 681 
Q 1416 356 1913 356 
Q 2331 356 2700 634 
L 2700 147 
z
" transform="scale(0.015625)"/>
       <path id="SegoeUI-6b" d="M 3175 0 
L 2456 0 
L 1044 1538 
L 1031 1538 
L 1031 0 
L 519 0 
L 519 4738 
L 1031 4738 
L 1031 1734 
L 1044 1734 
L 2388 3200 
L 3059 3200 
L 1575 1656 
L 3175 0 
z
" transform="scale(0.015625)"/>
       <path id="SegoeUI-70" d="M 1044 463 
L 1031 463 
L 1031 -1472 
L 519 -1472 
L 519 3200 
L 1031 3200 
L 1031 2638 
L 1044 2638 
Q 1422 3275 2150 3275 
Q 2769 3275 3116 2845 
Q 3463 2416 3463 1694 
Q 3463 891 3072 408 
Q 2681 -75 2003 -75 
Q 1381 -75 1044 463 
z
M 1031 1753 
L 1031 1306 
Q 1031 909 1289 632 
Q 1547 356 1944 356 
Q 2409 356 2673 712 
Q 2938 1069 2938 1703 
Q 2938 2238 2691 2541 
Q 2444 2844 2022 2844 
Q 1575 2844 1303 2533 
Q 1031 2222 1031 1753 
z
" transform="scale(0.015625)"/>
       <path id="SegoeUI-61" d="M 2809 0 
L 2297 0 
L 2297 500 
L 2284 500 
Q 1950 -75 1300 -75 
Q 822 -75 551 178 
Q 281 431 281 850 
Q 281 1747 1338 1894 
L 2297 2028 
Q 2297 2844 1638 2844 
Q 1059 2844 594 2450 
L 594 2975 
Q 1066 3275 1681 3275 
Q 2809 3275 2809 2081 
L 2809 0 
z
M 2297 1619 
L 1525 1513 
Q 1169 1463 987 1336 
Q 806 1209 806 888 
Q 806 653 973 504 
Q 1141 356 1419 356 
Q 1800 356 2048 623 
Q 2297 891 2297 1300 
L 2297 1619 
z
" transform="scale(0.015625)"/>
       <path id="SegoeUI-72" d="M 2188 2681 
Q 2053 2784 1800 2784 
Q 1472 2784 1251 2475 
Q 1031 2166 1031 1631 
L 1031 0 
L 519 0 
L 519 3200 
L 1031 3200 
L 1031 2541 
L 1044 2541 
Q 1153 2878 1378 3067 
Q 1603 3256 1881 3256 
Q 2081 3256 2188 3213 
L 2188 2681 
z
" transform="scale(0.015625)"/>
       <path id="SegoeUI-74" d="M 2003 31 
Q 1822 -69 1525 -69 
Q 684 -69 684 869 
L 684 2763 
L 134 2763 
L 134 3200 
L 684 3200 
L 684 3981 
L 1197 4147 
L 1197 3200 
L 2003 3200 
L 2003 2763 
L 1197 2763 
L 1197 959 
Q 1197 638 1306 500 
Q 1416 363 1669 363 
Q 1863 363 2003 469 
L 2003 31 
z
" transform="scale(0.015625)"/>
      </defs>
      <use xlink:href="#SegoeUI-52"/>
      <use xlink:href="#SegoeUI-6f" transform="translate(56.939453 0)"/>
      <use xlink:href="#SegoeUI-6c" transform="translate(115.533203 0)"/>
      <use xlink:href="#SegoeUI-6c" transform="translate(139.751953 0)"/>
      <use xlink:href="#SegoeUI-69" transform="translate(163.970703 0)"/>
      <use xlink:href="#SegoeUI-6e" transform="translate(188.189453 0)"/>
      <use xlink:href="#SegoeUI-67" transform="translate(244.78125 0)"/>
      <use xlink:href="#SegoeUI-20" transform="translate(303.667969 0)"/>
      <use xlink:href="#SegoeUI-62" transform="translate(331.060547 0)"/>
      <use xlink:href="#SegoeUI-6c" transform="translate(389.849609 0)"/>
      <use xlink:href="#SegoeUI-6f" transform="translate(414.068359 0)"/>
      <use xlink:href="#SegoeUI-63" transform="translate(472.662109 0)"/>
      <use xlink:href="#SegoeUI-6b" transform="translate(518.853516 0)"/>
      <use xlink:href="#SegoeUI-20" transform="translate(568.560547 0)"/>
      <use xlink:href="#SegoeUI-70" transform="translate(595.953125 0)"/>
      <use xlink:href="#SegoeUI-61" transform="translate(653.367188 0)"/>
      <use xlink:href="#SegoeUI-72" transform="translate(704.246094 0)"/>
      <use xlink:href="#SegoeUI-74" transform="translate(741.886719 0)"/>
      <use xlink:href="#SegoeUI-69" transform="translate(775.773438 0)"/>
      <use xlink:href="#SegoeUI-61" transform="translate(799.992188 0)"/>
      <use xlink:href="#SegoeUI-6c" transform="translate(850.871094 0)"/>
      <use xlink:href="#SegoeUI-20" transform="translate(875.089844 0)"/>
      <use xlink:href="#SegoeUI-52" transform="translate(902.482422 0)"/>
      <use xlink:href="#SegoeUI-32" transform="translate(962.296875 0)"/>
     </g>
    </g>
   </g>
   <g id="line2d_23">
    <path d="M 224.851948 332.1 
L 224.851948 97.2 
" clip-path="url(#pd305811ad5)" style="fill: none; stroke-dasharray: 1,1.65; stroke-dashoffset: 0; stroke: #dc2626; stroke-opacity: 0.78"/>
   </g>
   <g id="line2d_24">
    <path d="M 246.907013 332.1 
L 246.907013 97.2 
" clip-path="url(#pd305811ad5)" style="fill: none; stroke-dasharray: 1,1.65; stroke-dashoffset: 0; stroke: #d97706; stroke-opacity: 0.78"/>
   </g>
   <g id="line2d_25">
    <path d="M 302.406234 332.1 
L 302.406234 97.2 
" clip-path="url(#pd305811ad5)" style="fill: none; stroke-dasharray: 1,1.65; stroke-dashoffset: 0; stroke: #0f766e; stroke-opacity: 0.78"/>
   </g>
   <g id="line2d_26">
    <path d="M 320.484156 332.1 
L 320.484156 97.2 
" clip-path="url(#pd305811ad5)" style="fill: none; stroke-dasharray: 1,1.65; stroke-dashoffset: 0; stroke: #7c3aed; stroke-opacity: 0.78"/>
   </g>
   <g id="line2d_27">
    <path d="M 337.477403 332.1 
L 337.477403 97.2 
" clip-path="url(#pd305811ad5)" style="fill: none; stroke-dasharray: 1,1.65; stroke-dashoffset: 0; stroke: #627eea; stroke-opacity: 0.78"/>
   </g>
   <g id="text_13">
    <!-- FTX -->
    <g style="fill: #dc2626; opacity: 0.95" transform="translate(223.241948 115.487469) rotate(-90) scale(0.07 -0.07)">
     <defs>
      <path id="SegoeUI-46" d="M 2863 4006 
L 1113 4006 
L 1113 2456 
L 2731 2456 
L 2731 1984 
L 1113 1984 
L 1113 0 
L 588 0 
L 588 4481 
L 2863 4481 
L 2863 4006 
z
" transform="scale(0.015625)"/>
      <path id="SegoeUI-54" d="M 3238 4006 
L 1944 4006 
L 1944 0 
L 1419 0 
L 1419 4006 
L 128 4006 
L 128 4481 
L 3238 4481 
L 3238 4006 
z
" transform="scale(0.015625)"/>
      <path id="SegoeUI-58" d="M 3681 0 
L 3041 0 
L 2009 1716 
Q 1963 1794 1906 1938 
L 1894 1938 
Q 1863 1866 1788 1716 
L 725 0 
L 81 0 
L 1581 2253 
L 200 4481 
L 844 4481 
L 1759 2906 
Q 1850 2750 1919 2594 
L 1931 2594 
Q 2031 2800 2106 2919 
L 3059 4481 
L 3663 4481 
L 2253 2259 
L 3681 0 
z
" transform="scale(0.015625)"/>
     </defs>
     <use xlink:href="#SegoeUI-46"/>
     <use xlink:href="#SegoeUI-54" transform="translate(49.453125 0)"/>
     <use xlink:href="#SegoeUI-58" transform="translate(101.595703 0)"/>
    </g>
   </g>
   <g id="text_14">
    <!-- SVB -->
    <g style="fill: #d97706; opacity: 0.95" transform="translate(245.297013 116.326375) rotate(-90) scale(0.07 -0.07)">
     <defs>
      <path id="SegoeUI-53" d="M 378 181 
L 378 800 
Q 484 706 632 631 
Q 781 556 945 504 
Q 1109 453 1275 425 
Q 1441 397 1581 397 
Q 2066 397 2305 576 
Q 2544 756 2544 1094 
Q 2544 1275 2464 1409 
Q 2384 1544 2243 1655 
Q 2103 1766 1911 1867 
Q 1719 1969 1497 2081 
Q 1263 2200 1059 2322 
Q 856 2444 706 2591 
Q 556 2738 470 2923 
Q 384 3109 384 3359 
Q 384 3666 518 3892 
Q 653 4119 872 4266 
Q 1091 4413 1370 4484 
Q 1650 4556 1941 4556 
Q 2603 4556 2906 4397 
L 2906 3806 
Q 2509 4081 1888 4081 
Q 1716 4081 1544 4045 
Q 1372 4009 1237 3928 
Q 1103 3847 1018 3719 
Q 934 3591 934 3406 
Q 934 3234 998 3109 
Q 1063 2984 1188 2881 
Q 1313 2778 1492 2681 
Q 1672 2584 1906 2469 
Q 2147 2350 2362 2219 
Q 2578 2088 2740 1928 
Q 2903 1769 2998 1575 
Q 3094 1381 3094 1131 
Q 3094 800 2964 570 
Q 2834 341 2614 197 
Q 2394 53 2106 -11 
Q 1819 -75 1500 -75 
Q 1394 -75 1237 -58 
Q 1081 -41 918 -8 
Q 756 25 611 73 
Q 466 122 378 181 
z
" transform="scale(0.015625)"/>
      <path id="SegoeUI-56" d="M 3919 4481 
L 2259 0 
L 1681 0 
L 56 4481 
L 641 4481 
L 1881 928 
Q 1941 756 1972 531 
L 1984 531 
Q 2009 719 2088 934 
L 3353 4481 
L 3919 4481 
z
" transform="scale(0.015625)"/>
      <path id="SegoeUI-42" d="M 588 0 
L 588 4481 
L 1863 4481 
Q 2444 4481 2784 4197 
Q 3125 3913 3125 3456 
Q 3125 3075 2919 2794 
Q 2713 2513 2350 2394 
L 2350 2381 
Q 2803 2328 3075 2039 
Q 3347 1750 3347 1288 
Q 3347 713 2934 356 
Q 2522 0 1894 0 
L 588 0 
z
M 1113 4006 
L 1113 2559 
L 1650 2559 
Q 2081 2559 2328 2767 
Q 2575 2975 2575 3353 
Q 2575 4006 1716 4006 
L 1113 4006 
z
M 1113 2088 
L 1113 475 
L 1825 475 
Q 2288 475 2542 694 
Q 2797 913 2797 1294 
Q 2797 2088 1716 2088 
L 1113 2088 
z
" transform="scale(0.015625)"/>
     </defs>
     <use xlink:href="#SegoeUI-53"/>
     <use xlink:href="#SegoeUI-56" transform="translate(53.125 0)"/>
     <use xlink:href="#SegoeUI-42" transform="translate(115.234375 0)"/>
    </g>
   </g>
   <g id="text_15">
    <!-- BTC ETF -->
    <g style="fill: #0f766e; opacity: 0.95" transform="translate(300.796234 128.193562) rotate(-90) scale(0.07 -0.07)">
     <defs>
      <path id="SegoeUI-43" d="M 3638 188 
Q 3141 -75 2400 -75 
Q 1444 -75 869 540 
Q 294 1156 294 2156 
Q 294 3231 941 3893 
Q 1588 4556 2581 4556 
Q 3219 4556 3638 4372 
L 3638 3813 
Q 3156 4081 2575 4081 
Q 1803 4081 1323 3565 
Q 844 3050 844 2188 
Q 844 1369 1292 883 
Q 1741 397 2469 397 
Q 3144 397 3638 697 
L 3638 188 
z
" transform="scale(0.015625)"/>
      <path id="SegoeUI-45" d="M 2963 0 
L 588 0 
L 588 4481 
L 2863 4481 
L 2863 4006 
L 1113 4006 
L 1113 2516 
L 2731 2516 
L 2731 2044 
L 1113 2044 
L 1113 475 
L 2963 475 
L 2963 0 
z
" transform="scale(0.015625)"/>
     </defs>
     <use xlink:href="#SegoeUI-42"/>
     <use xlink:href="#SegoeUI-54" transform="translate(52.824219 0)"/>
     <use xlink:href="#SegoeUI-43" transform="translate(100.716797 0)"/>
     <use xlink:href="#SegoeUI-20" transform="translate(162.630859 0)"/>
     <use xlink:href="#SegoeUI-45" transform="translate(190.023438 0)"/>
     <use xlink:href="#SegoeUI-54" transform="translate(240.859375 0)"/>
     <use xlink:href="#SegoeUI-46" transform="translate(293.251953 0)"/>
    </g>
   </g>
   <g id="text_16">
    <!-- Halving -->
    <g style="fill: #7c3aed; opacity: 0.95" transform="translate(318.836968 127.606219) rotate(-90) scale(0.07 -0.07)">
     <defs>
      <path id="SegoeUI-48" d="M 3956 0 
L 3431 0 
L 3431 2044 
L 1113 2044 
L 1113 0 
L 588 0 
L 588 4481 
L 1113 4481 
L 1113 2516 
L 3431 2516 
L 3431 4481 
L 3956 4481 
L 3956 0 
z
" transform="scale(0.015625)"/>
      <path id="SegoeUI-76" d="M 3034 3200 
L 1759 0 
L 1256 0 
L 44 3200 
L 606 3200 
L 1419 875 
Q 1509 619 1531 428 
L 1544 428 
Q 1575 669 1644 863 
L 2494 3200 
L 3034 3200 
z
" transform="scale(0.015625)"/>
     </defs>
     <use xlink:href="#SegoeUI-48"/>
     <use xlink:href="#SegoeUI-61" transform="translate(70.996094 0)"/>
     <use xlink:href="#SegoeUI-6c" transform="translate(121.875 0)"/>
     <use xlink:href="#SegoeUI-76" transform="translate(146.09375 0)"/>
     <use xlink:href="#SegoeUI-69" transform="translate(193.994141 0)"/>
     <use xlink:href="#SegoeUI-6e" transform="translate(218.212891 0)"/>
     <use xlink:href="#SegoeUI-67" transform="translate(274.804688 0)"/>
    </g>
   </g>
   <g id="text_17">
    <!-- ETH ETF -->
    <g style="fill: #627eea; opacity: 0.95" transform="translate(335.867403 129.005125) rotate(-90) scale(0.07 -0.07)">
     <use xlink:href="#SegoeUI-45"/>
     <use xlink:href="#SegoeUI-54" transform="translate(50.835938 0)"/>
     <use xlink:href="#SegoeUI-48" transform="translate(103.228516 0)"/>
     <use xlink:href="#SegoeUI-20" transform="translate(174.224609 0)"/>
     <use xlink:href="#SegoeUI-45" transform="translate(201.617188 0)"/>
     <use xlink:href="#SegoeUI-54" transform="translate(252.453125 0)"/>
     <use xlink:href="#SegoeUI-46" transform="translate(304.845703 0)"/>
    </g>
   </g>
   <g id="legend_1">
    <g id="patch_4">
     <path d="M 57.6 110.3225 
L 73.6 110.3225 
L 73.6 104.7225 
L 57.6 104.7225 
z
" style="fill: #7c3aed; fill-opacity: 0.86"/>
    </g>
    <g id="text_18">
     <!-- BTC MVRV -->
     <g style="fill: #6b7280" transform="translate(80 110.3225) scale(0.08 -0.08)">
      <defs>
       <path id="SegoeUI-4d" d="M 5156 0 
L 4634 0 
L 4634 3006 
Q 4634 3363 4678 3878 
L 4666 3878 
Q 4591 3575 4531 3444 
L 3000 0 
L 2744 0 
L 1216 3419 
Q 1150 3569 1081 3878 
L 1069 3878 
Q 1094 3609 1094 3000 
L 1094 0 
L 588 0 
L 588 4481 
L 1281 4481 
L 2656 1356 
Q 2816 997 2863 819 
L 2881 819 
Q 3016 1188 3097 1369 
L 4500 4481 
L 5156 4481 
L 5156 0 
z
" transform="scale(0.015625)"/>
      </defs>
      <use xlink:href="#SegoeUI-42"/>
      <use xlink:href="#SegoeUI-54" transform="translate(52.824219 0)"/>
      <use xlink:href="#SegoeUI-43" transform="translate(100.716797 0)"/>
      <use xlink:href="#SegoeUI-20" transform="translate(162.630859 0)"/>
      <use xlink:href="#SegoeUI-4d" transform="translate(190.023438 0)"/>
      <use xlink:href="#SegoeUI-56" transform="translate(279.818359 0)"/>
      <use xlink:href="#SegoeUI-52" transform="translate(341.927734 0)"/>
      <use xlink:href="#SegoeUI-56" transform="translate(401.742188 0)"/>
     </g>
    </g>
    <g id="patch_5">
     <path d="M 57.6 122.085 
L 73.6 122.085 
L 73.6 116.485 
L 57.6 116.485 
z
" style="fill: #c084fc; fill-opacity: 0.86"/>
    </g>
    <g id="text_19">
     <!-- BTC Native ex MVRV -->
     <g style="fill: #6b7280" transform="translate(80 122.085) scale(0.08 -0.08)">
      <defs>
       <path id="SegoeUI-4e" d="M 4200 0 
L 3556 0 
L 1250 3572 
Q 1163 3706 1106 3853 
L 1088 3853 
Q 1113 3709 1113 3238 
L 1113 0 
L 588 0 
L 588 4481 
L 1269 4481 
L 3513 966 
Q 3653 747 3694 666 
L 3706 666 
Q 3675 859 3675 1325 
L 3675 4481 
L 4200 4481 
L 4200 0 
z
" transform="scale(0.015625)"/>
       <path id="SegoeUI-65" d="M 3091 1472 
L 831 1472 
Q 844 938 1119 647 
Q 1394 356 1875 356 
Q 2416 356 2869 713 
L 2869 231 
Q 2447 -75 1753 -75 
Q 1075 -75 687 361 
Q 300 797 300 1588 
Q 300 2334 723 2804 
Q 1147 3275 1775 3275 
Q 2403 3275 2747 2869 
Q 3091 2463 3091 1741 
L 3091 1472 
z
M 2566 1906 
Q 2563 2350 2352 2597 
Q 2141 2844 1766 2844 
Q 1403 2844 1150 2584 
Q 897 2325 838 1906 
L 2566 1906 
z
" transform="scale(0.015625)"/>
       <path id="SegoeUI-78" d="M 2856 3200 
L 1781 1581 
L 2838 0 
L 2241 0 
L 1613 1038 
Q 1553 1134 1472 1281 
L 1459 1281 
Q 1444 1253 1313 1038 
L 672 0 
L 81 0 
L 1172 1569 
L 128 3200 
L 725 3200 
L 1344 2106 
Q 1413 1984 1478 1856 
L 1491 1856 
L 2291 3200 
L 2856 3200 
z
" transform="scale(0.015625)"/>
      </defs>
      <use xlink:href="#SegoeUI-42"/>
      <use xlink:href="#SegoeUI-54" transform="translate(52.824219 0)"/>
      <use xlink:href="#SegoeUI-43" transform="translate(100.716797 0)"/>
      <use xlink:href="#SegoeUI-20" transform="translate(162.630859 0)"/>
      <use xlink:href="#SegoeUI-4e" transform="translate(190.023438 0)"/>
      <use xlink:href="#SegoeUI-61" transform="translate(264.828125 0)"/>
      <use xlink:href="#SegoeUI-74" transform="translate(315.707031 0)"/>
      <use xlink:href="#SegoeUI-69" transform="translate(349.59375 0)"/>
      <use xlink:href="#SegoeUI-76" transform="translate(373.8125 0)"/>
      <use xlink:href="#SegoeUI-65" transform="translate(421.087891 0)"/>
      <use xlink:href="#SegoeUI-20" transform="translate(473.382812 0)"/>
      <use xlink:href="#SegoeUI-65" transform="translate(500.775391 0)"/>
      <use xlink:href="#SegoeUI-78" transform="translate(553.070312 0)"/>
      <use xlink:href="#SegoeUI-20" transform="translate(598.96875 0)"/>
      <use xlink:href="#SegoeUI-4d" transform="translate(626.361328 0)"/>
      <use xlink:href="#SegoeUI-56" transform="translate(716.15625 0)"/>
      <use xlink:href="#SegoeUI-52" transform="translate(778.265625 0)"/>
      <use xlink:href="#SegoeUI-56" transform="translate(838.080078 0)"/>
     </g>
    </g>
    <g id="patch_6">
     <path d="M 57.6 133.8475 
L 73.6 133.8475 
L 73.6 128.2475 
L 57.6 128.2475 
z
" style="fill: #2563eb; fill-opacity: 0.86"/>
    </g>
    <g id="text_20">
     <!-- Macro -->
     <g style="fill: #6b7280" transform="translate(80 133.8475) scale(0.08 -0.08)">
      <use xlink:href="#SegoeUI-4d"/>
      <use xlink:href="#SegoeUI-61" transform="translate(89.794922 0)"/>
      <use xlink:href="#SegoeUI-63" transform="translate(140.673828 0)"/>
      <use xlink:href="#SegoeUI-72" transform="translate(186.865234 0)"/>
      <use xlink:href="#SegoeUI-6f" transform="translate(220.255859 0)"/>
     </g>
    </g>
    <g id="patch_7">
     <path d="M 168.0175 110.3225 
L 184.0175 110.3225 
L 184.0175 104.7225 
L 168.0175 104.7225 
z
" style="fill: #d97706; fill-opacity: 0.86"/>
    </g>
    <g id="text_21">
     <!-- TradFi -->
     <g style="fill: #6b7280" transform="translate(190.4175 110.3225) scale(0.08 -0.08)">
      <defs>
       <path id="SegoeUI-64" d="M 3250 0 
L 2738 0 
L 2738 544 
L 2725 544 
Q 2369 -75 1625 -75 
Q 1022 -75 661 354 
Q 300 784 300 1525 
Q 300 2319 700 2797 
Q 1100 3275 1766 3275 
Q 2425 3275 2725 2756 
L 2738 2756 
L 2738 4738 
L 3250 4738 
L 3250 0 
z
M 2738 1447 
L 2738 1919 
Q 2738 2306 2481 2575 
Q 2225 2844 1831 2844 
Q 1363 2844 1094 2500 
Q 825 2156 825 1550 
Q 825 997 1083 676 
Q 1341 356 1775 356 
Q 2203 356 2470 665 
Q 2738 975 2738 1447 
z
" transform="scale(0.015625)"/>
      </defs>
      <use xlink:href="#SegoeUI-54"/>
      <use xlink:href="#SegoeUI-72" transform="translate(43.642578 0)"/>
      <use xlink:href="#SegoeUI-61" transform="translate(78.408203 0)"/>
      <use xlink:href="#SegoeUI-64" transform="translate(129.287109 0)"/>
      <use xlink:href="#SegoeUI-46" transform="translate(188.173828 0)"/>
      <use xlink:href="#SegoeUI-69" transform="translate(237.001953 0)"/>
     </g>
    </g>
    <g id="patch_8">
     <path d="M 168.0175 122.085 
L 184.0175 122.085 
L 184.0175 116.485 
L 168.0175 116.485 
z
" style="fill: #16a34a; fill-opacity: 0.86"/>
    </g>
    <g id="text_22">
     <!-- Liquidity -->
     <g style="fill: #6b7280" transform="translate(190.4175 122.085) scale(0.08 -0.08)">
      <defs>
       <path id="SegoeUI-4c" d="M 2913 0 
L 588 0 
L 588 4481 
L 1113 4481 
L 1113 475 
L 2913 475 
L 2913 0 
z
" transform="scale(0.015625)"/>
       <path id="SegoeUI-71" d="M 3250 -1472 
L 2738 -1472 
L 2738 550 
L 2725 550 
Q 2391 -75 1631 -75 
Q 1028 -75 664 354 
Q 300 784 300 1525 
Q 300 2322 700 2798 
Q 1100 3275 1775 3275 
Q 2431 3275 2725 2756 
L 2738 2756 
L 2738 3200 
L 3250 3200 
L 3250 -1472 
z
M 2738 1441 
L 2738 1906 
Q 2738 2300 2480 2572 
Q 2222 2844 1825 2844 
Q 1363 2844 1094 2501 
Q 825 2159 825 1538 
Q 825 984 1084 670 
Q 1344 356 1753 356 
Q 2203 356 2470 664 
Q 2738 972 2738 1441 
z
" transform="scale(0.015625)"/>
       <path id="SegoeUI-75" d="M 3106 0 
L 2594 0 
L 2594 506 
L 2581 506 
Q 2263 -75 1594 -75 
Q 450 -75 450 1288 
L 450 3200 
L 959 3200 
L 959 1369 
Q 959 356 1734 356 
Q 2109 356 2351 632 
Q 2594 909 2594 1356 
L 2594 3200 
L 3106 3200 
L 3106 0 
z
" transform="scale(0.015625)"/>
       <path id="SegoeUI-79" d="M 3066 3200 
L 1594 -513 
Q 1200 -1506 488 -1506 
Q 288 -1506 153 -1466 
L 153 -1006 
Q 319 -1063 456 -1063 
Q 844 -1063 1038 -600 
L 1294 6 
L 44 3200 
L 613 3200 
L 1478 738 
Q 1494 691 1544 494 
L 1563 494 
Q 1578 569 1625 731 
L 2534 3200 
L 3066 3200 
z
" transform="scale(0.015625)"/>
      </defs>
      <use xlink:href="#SegoeUI-4c"/>
      <use xlink:href="#SegoeUI-69" transform="translate(47.070312 0)"/>
      <use xlink:href="#SegoeUI-71" transform="translate(71.289062 0)"/>
      <use xlink:href="#SegoeUI-75" transform="translate(130.175781 0)"/>
      <use xlink:href="#SegoeUI-69" transform="translate(186.767578 0)"/>
      <use xlink:href="#SegoeUI-64" transform="translate(210.986328 0)"/>
      <use xlink:href="#SegoeUI-69" transform="translate(269.873047 0)"/>
      <use xlink:href="#SegoeUI-74" transform="translate(294.091797 0)"/>
      <use xlink:href="#SegoeUI-79" transform="translate(327.978516 0)"/>
     </g>
    </g>
    <g id="patch_9">
     <path d="M 168.0175 133.89 
L 184.0175 133.89 
L 184.0175 128.29 
L 168.0175 128.29 
z
" style="fill: #6b7280; fill-opacity: 0.86"/>
    </g>
    <g id="text_23">
     <!-- Sentiment -->
     <g style="fill: #6b7280" transform="translate(190.4175 133.89) scale(0.08 -0.08)">
      <defs>
       <path id="SegoeUI-6d" d="M 5063 0 
L 4550 0 
L 4550 1838 
Q 4550 2369 4386 2606 
Q 4222 2844 3834 2844 
Q 3506 2844 3276 2544 
Q 3047 2244 3047 1825 
L 3047 0 
L 2534 0 
L 2534 1900 
Q 2534 2844 1806 2844 
Q 1469 2844 1250 2561 
Q 1031 2278 1031 1825 
L 1031 0 
L 519 0 
L 519 3200 
L 1031 3200 
L 1031 2694 
L 1044 2694 
Q 1384 3275 2038 3275 
Q 2366 3275 2609 3092 
Q 2853 2909 2944 2613 
Q 3300 3275 4006 3275 
Q 5063 3275 5063 1972 
L 5063 0 
z
" transform="scale(0.015625)"/>
      </defs>
      <use xlink:href="#SegoeUI-53"/>
      <use xlink:href="#SegoeUI-65" transform="translate(53.125 0)"/>
      <use xlink:href="#SegoeUI-6e" transform="translate(105.419922 0)"/>
      <use xlink:href="#SegoeUI-74" transform="translate(162.011719 0)"/>
      <use xlink:href="#SegoeUI-69" transform="translate(195.898438 0)"/>
      <use xlink:href="#SegoeUI-6d" transform="translate(220.117188 0)"/>
      <use xlink:href="#SegoeUI-65" transform="translate(306.25 0)"/>
      <use xlink:href="#SegoeUI-6e" transform="translate(358.544922 0)"/>
      <use xlink:href="#SegoeUI-74" transform="translate(415.136719 0)"/>
     </g>
    </g>
   </g>
  </g>
  <g id="axes_2">
   <g id="patch_10">
    <path d="M 511.2 332.1 
L 669.6 332.1 
L 669.6 97.2 
L 511.2 97.2 
z
" style="fill: #ffffff"/>
   </g>
   <g id="patch_11">
    <path d="M 511.2 321.422727 
L 511.206989 321.422727 
L 511.206989 291.968182 
L 511.2 291.968182 
z
" clip-path="url(#p104c89121d)" style="fill: #6b7280; opacity: 0.9"/>
   </g>
   <g id="patch_12">
    <path d="M 511.2 284.604545 
L 511.226199 284.604545 
L 511.226199 255.15 
L 511.2 255.15 
z
" clip-path="url(#p104c89121d)" style="fill: #2563eb; opacity: 0.9"/>
   </g>
   <g id="patch_13">
    <path d="M 511.2 247.786364 
L 511.238149 247.786364 
L 511.238149 218.331818 
L 511.2 218.331818 
z
" clip-path="url(#p104c89121d)" style="fill: #c084fc; opacity: 0.9"/>
   </g>
   <g id="patch_14">
    <path d="M 511.2 210.968182 
L 511.376866 210.968182 
L 511.376866 181.513636 
L 511.2 181.513636 
z
" clip-path="url(#p104c89121d)" style="fill: #16a34a; opacity: 0.9"/>
   </g>
   <g id="patch_15">
    <path d="M 511.2 174.15 
L 511.638451 174.15 
L 511.638451 144.695455 
L 511.2 144.695455 
z
" clip-path="url(#p104c89121d)" style="fill: #d97706; opacity: 0.9"/>
   </g>
   <g id="patch_16">
    <path d="M 511.2 137.331818 
L 662.057143 137.331818 
L 662.057143 107.877273 
L 511.2 107.877273 
z
" clip-path="url(#p104c89121d)" style="fill: #7c3aed; opacity: 0.9"/>
   </g>
   <g id="matplotlib.axis_3">
    <g id="xtick_7">
     <g id="line2d_28">
      <path d="M 511.2 332.1 
L 511.2 97.2 
" clip-path="url(#p104c89121d)" style="fill: none; stroke: #d9dee7; stroke-opacity: 0.55; stroke-width: 0.7; stroke-linecap: square"/>
     </g>
     <g id="line2d_29"/>
     <g id="text_24">
      <!-- 0% -->
      <g style="fill: #6b7280" transform="translate(505.77 341.5225) scale(0.08 -0.08)">
       <defs>
        <path id="SegoeUI-25" d="M 1263 2234 
Q 800 2234 525 2539 
Q 250 2844 250 3353 
Q 250 3909 540 4229 
Q 831 4550 1325 4550 
Q 1803 4550 2067 4253 
Q 2331 3956 2331 3419 
Q 2331 2881 2036 2557 
Q 1741 2234 1263 2234 
z
M 1306 4206 
Q 1009 4206 837 3986 
Q 666 3766 666 3381 
Q 666 3003 834 2792 
Q 1003 2581 1294 2581 
Q 1588 2581 1753 2800 
Q 1919 3019 1919 3406 
Q 1919 3784 1755 3995 
Q 1591 4206 1306 4206 
z
M 4263 4481 
L 1388 -31 
L 941 -31 
L 3813 4481 
L 4263 4481 
z
M 3931 -69 
Q 3469 -69 3194 237 
Q 2919 544 2919 1050 
Q 2919 1606 3212 1929 
Q 3506 2253 3994 2253 
Q 4469 2253 4734 1953 
Q 5000 1653 5000 1113 
Q 5000 578 4704 254 
Q 4409 -69 3931 -69 
z
M 3975 1900 
Q 3675 1900 3504 1681 
Q 3334 1463 3334 1075 
Q 3334 703 3503 492 
Q 3672 281 3963 281 
Q 4256 281 4422 501 
Q 4588 722 4588 1106 
Q 4588 1488 4423 1694 
Q 4259 1900 3975 1900 
z
" transform="scale(0.015625)"/>
       </defs>
       <use xlink:href="#SegoeUI-30"/>
       <use xlink:href="#SegoeUI-25" transform="translate(53.90625 0)"/>
      </g>
     </g>
    </g>
    <g id="xtick_8">
     <g id="line2d_30">
      <path d="M 550.143165 332.1 
L 550.143165 97.2 
" clip-path="url(#p104c89121d)" style="fill: none; stroke: #d9dee7; stroke-opacity: 0.55; stroke-width: 0.7; stroke-linecap: square"/>
     </g>
     <g id="line2d_31"/>
     <g id="text_25">
      <!-- 20% -->
      <g style="fill: #6b7280" transform="translate(542.556915 341.5225) scale(0.08 -0.08)">
       <use xlink:href="#SegoeUI-32"/>
       <use xlink:href="#SegoeUI-30" transform="translate(53.90625 0)"/>
       <use xlink:href="#SegoeUI-25" transform="translate(107.8125 0)"/>
      </g>
     </g>
    </g>
    <g id="xtick_9">
     <g id="line2d_32">
      <path d="M 589.086331 332.1 
L 589.086331 97.2 
" clip-path="url(#p104c89121d)" style="fill: none; stroke: #d9dee7; stroke-opacity: 0.55; stroke-width: 0.7; stroke-linecap: square"/>
     </g>
     <g id="line2d_33"/>
     <g id="text_26">
      <!-- 40% -->
      <g style="fill: #6b7280" transform="translate(581.500081 341.5225) scale(0.08 -0.08)">
       <use xlink:href="#SegoeUI-34"/>
       <use xlink:href="#SegoeUI-30" transform="translate(53.90625 0)"/>
       <use xlink:href="#SegoeUI-25" transform="translate(107.8125 0)"/>
      </g>
     </g>
    </g>
    <g id="xtick_10">
     <g id="line2d_34">
      <path d="M 628.029496 332.1 
L 628.029496 97.2 
" clip-path="url(#p104c89121d)" style="fill: none; stroke: #d9dee7; stroke-opacity: 0.55; stroke-width: 0.7; stroke-linecap: square"/>
     </g>
     <g id="line2d_35"/>
     <g id="text_27">
      <!-- 60% -->
      <g style="fill: #6b7280" transform="translate(620.443246 341.5225) scale(0.08 -0.08)">
       <use xlink:href="#SegoeUI-36"/>
       <use xlink:href="#SegoeUI-30" transform="translate(53.90625 0)"/>
       <use xlink:href="#SegoeUI-25" transform="translate(107.8125 0)"/>
      </g>
     </g>
    </g>
    <g id="xtick_11">
     <g id="line2d_36">
      <path d="M 666.972662 332.1 
L 666.972662 97.2 
" clip-path="url(#p104c89121d)" style="fill: none; stroke: #d9dee7; stroke-opacity: 0.55; stroke-width: 0.7; stroke-linecap: square"/>
     </g>
     <g id="line2d_37"/>
     <g id="text_28">
      <!-- 80% -->
      <g style="fill: #6b7280" transform="translate(659.386412 341.5225) scale(0.08 -0.08)">
       <use xlink:href="#SegoeUI-38"/>
       <use xlink:href="#SegoeUI-30" transform="translate(53.90625 0)"/>
       <use xlink:href="#SegoeUI-25" transform="translate(107.8125 0)"/>
      </g>
     </g>
    </g>
    <g id="text_29">
     <!-- Full-sample drop -->
     <g style="fill: #6b7280" transform="translate(556.844766 354.025313) scale(0.09 -0.09)">
      <defs>
       <path id="SegoeUI-2d" d="M 2156 1581 
L 450 1581 
L 450 1984 
L 2156 1984 
L 2156 1581 
z
" transform="scale(0.015625)"/>
       <path id="SegoeUI-73" d="M 325 116 
L 325 666 
Q 744 356 1247 356 
Q 1922 356 1922 806 
Q 1922 934 1864 1023 
Q 1806 1113 1707 1181 
Q 1609 1250 1476 1304 
Q 1344 1359 1191 1419 
Q 978 1503 817 1589 
Q 656 1675 548 1783 
Q 441 1891 386 2028 
Q 331 2166 331 2350 
Q 331 2575 434 2748 
Q 538 2922 709 3039 
Q 881 3156 1101 3215 
Q 1322 3275 1556 3275 
Q 1972 3275 2300 3131 
L 2300 2613 
Q 1947 2844 1488 2844 
Q 1344 2844 1228 2811 
Q 1113 2778 1030 2718 
Q 947 2659 901 2576 
Q 856 2494 856 2394 
Q 856 2269 901 2184 
Q 947 2100 1034 2034 
Q 1122 1969 1247 1916 
Q 1372 1863 1531 1800 
Q 1744 1719 1912 1633 
Q 2081 1547 2200 1439 
Q 2319 1331 2383 1190 
Q 2447 1050 2447 856 
Q 2447 619 2342 444 
Q 2238 269 2063 153 
Q 1888 38 1659 -18 
Q 1431 -75 1181 -75 
Q 688 -75 325 116 
z
" transform="scale(0.015625)"/>
      </defs>
      <use xlink:href="#SegoeUI-46"/>
      <use xlink:href="#SegoeUI-75" transform="translate(48.828125 0)"/>
      <use xlink:href="#SegoeUI-6c" transform="translate(105.419922 0)"/>
      <use xlink:href="#SegoeUI-6c" transform="translate(129.638672 0)"/>
      <use xlink:href="#SegoeUI-2d" transform="translate(153.857422 0)"/>
      <use xlink:href="#SegoeUI-73" transform="translate(193.847656 0)"/>
      <use xlink:href="#SegoeUI-61" transform="translate(236.279297 0)"/>
      <use xlink:href="#SegoeUI-6d" transform="translate(287.158203 0)"/>
      <use xlink:href="#SegoeUI-70" transform="translate(373.291016 0)"/>
      <use xlink:href="#SegoeUI-6c" transform="translate(432.080078 0)"/>
      <use xlink:href="#SegoeUI-65" transform="translate(456.298828 0)"/>
      <use xlink:href="#SegoeUI-20" transform="translate(508.59375 0)"/>
      <use xlink:href="#SegoeUI-64" transform="translate(535.986328 0)"/>
      <use xlink:href="#SegoeUI-72" transform="translate(594.873047 0)"/>
      <use xlink:href="#SegoeUI-6f" transform="translate(628.263672 0)"/>
      <use xlink:href="#SegoeUI-70" transform="translate(686.857422 0)"/>
     </g>
    </g>
   </g>
   <g id="matplotlib.axis_4">
    <g id="ytick_6">
     <g id="line2d_38"/>
     <g id="text_30">
      <!-- Sentiment -->
      <g style="fill: #6b7280" transform="translate(471.77625 309.656705) scale(0.08 -0.08)">
       <use xlink:href="#SegoeUI-53"/>
       <use xlink:href="#SegoeUI-65" transform="translate(53.125 0)"/>
       <use xlink:href="#SegoeUI-6e" transform="translate(105.419922 0)"/>
       <use xlink:href="#SegoeUI-74" transform="translate(162.011719 0)"/>
       <use xlink:href="#SegoeUI-69" transform="translate(195.898438 0)"/>
       <use xlink:href="#SegoeUI-6d" transform="translate(220.117188 0)"/>
       <use xlink:href="#SegoeUI-65" transform="translate(306.25 0)"/>
       <use xlink:href="#SegoeUI-6e" transform="translate(358.544922 0)"/>
       <use xlink:href="#SegoeUI-74" transform="translate(415.136719 0)"/>
      </g>
     </g>
    </g>
    <g id="ytick_7">
     <g id="line2d_39"/>
     <g id="text_31">
      <!-- Macro -->
      <g style="fill: #6b7280" transform="translate(485.3925 272.838523) scale(0.08 -0.08)">
       <use xlink:href="#SegoeUI-4d"/>
       <use xlink:href="#SegoeUI-61" transform="translate(89.794922 0)"/>
       <use xlink:href="#SegoeUI-63" transform="translate(140.673828 0)"/>
       <use xlink:href="#SegoeUI-72" transform="translate(186.865234 0)"/>
       <use xlink:href="#SegoeUI-6f" transform="translate(220.255859 0)"/>
      </g>
     </g>
    </g>
    <g id="ytick_8">
     <g id="line2d_40"/>
     <g id="text_32">
      <!-- BTC Native ex MVRV -->
      <g style="fill: #6b7280" transform="translate(435.6825 236.020341) scale(0.08 -0.08)">
       <use xlink:href="#SegoeUI-42"/>
       <use xlink:href="#SegoeUI-54" transform="translate(52.824219 0)"/>
       <use xlink:href="#SegoeUI-43" transform="translate(100.716797 0)"/>
       <use xlink:href="#SegoeUI-20" transform="translate(162.630859 0)"/>
       <use xlink:href="#SegoeUI-4e" transform="translate(190.023438 0)"/>
       <use xlink:href="#SegoeUI-61" transform="translate(264.828125 0)"/>
       <use xlink:href="#SegoeUI-74" transform="translate(315.707031 0)"/>
       <use xlink:href="#SegoeUI-69" transform="translate(349.59375 0)"/>
       <use xlink:href="#SegoeUI-76" transform="translate(373.8125 0)"/>
       <use xlink:href="#SegoeUI-65" transform="translate(421.087891 0)"/>
       <use xlink:href="#SegoeUI-20" transform="translate(473.382812 0)"/>
       <use xlink:href="#SegoeUI-65" transform="translate(500.775391 0)"/>
       <use xlink:href="#SegoeUI-78" transform="translate(553.070312 0)"/>
       <use xlink:href="#SegoeUI-20" transform="translate(598.96875 0)"/>
       <use xlink:href="#SegoeUI-4d" transform="translate(626.361328 0)"/>
       <use xlink:href="#SegoeUI-56" transform="translate(716.15625 0)"/>
       <use xlink:href="#SegoeUI-52" transform="translate(778.265625 0)"/>
       <use xlink:href="#SegoeUI-56" transform="translate(838.080078 0)"/>
      </g>
     </g>
    </g>
    <g id="ytick_9">
     <g id="line2d_41"/>
     <g id="text_33">
      <!-- Liquidity -->
      <g style="fill: #6b7280" transform="translate(477.58875 199.202159) scale(0.08 -0.08)">
       <use xlink:href="#SegoeUI-4c"/>
       <use xlink:href="#SegoeUI-69" transform="translate(47.070312 0)"/>
       <use xlink:href="#SegoeUI-71" transform="translate(71.289062 0)"/>
       <use xlink:href="#SegoeUI-75" transform="translate(130.175781 0)"/>
       <use xlink:href="#SegoeUI-69" transform="translate(186.767578 0)"/>
       <use xlink:href="#SegoeUI-64" transform="translate(210.986328 0)"/>
       <use xlink:href="#SegoeUI-69" transform="translate(269.873047 0)"/>
       <use xlink:href="#SegoeUI-74" transform="translate(294.091797 0)"/>
       <use xlink:href="#SegoeUI-79" transform="translate(327.978516 0)"/>
      </g>
     </g>
    </g>
    <g id="ytick_10">
     <g id="line2d_42"/>
     <g id="text_34">
      <!-- TradFi -->
      <g style="fill: #6b7280" transform="translate(486.8025 162.383977) scale(0.08 -0.08)">
       <use xlink:href="#SegoeUI-54"/>
       <use xlink:href="#SegoeUI-72" transform="translate(43.642578 0)"/>
       <use xlink:href="#SegoeUI-61" transform="translate(78.408203 0)"/>
       <use xlink:href="#SegoeUI-64" transform="translate(129.287109 0)"/>
       <use xlink:href="#SegoeUI-46" transform="translate(188.173828 0)"/>
       <use xlink:href="#SegoeUI-69" transform="translate(237.001953 0)"/>
      </g>
     </g>
    </g>
    <g id="ytick_11">
     <g id="line2d_43"/>
     <g id="text_35">
      <!-- BTC MVRV -->
      <g style="fill: #6b7280" transform="translate(470.59125 125.565795) scale(0.08 -0.08)">
       <use xlink:href="#SegoeUI-42"/>
       <use xlink:href="#SegoeUI-54" transform="translate(52.824219 0)"/>
       <use xlink:href="#SegoeUI-43" transform="translate(100.716797 0)"/>
       <use xlink:href="#SegoeUI-20" transform="translate(162.630859 0)"/>
       <use xlink:href="#SegoeUI-4d" transform="translate(190.023438 0)"/>
       <use xlink:href="#SegoeUI-56" transform="translate(279.818359 0)"/>
       <use xlink:href="#SegoeUI-52" transform="translate(341.927734 0)"/>
       <use xlink:href="#SegoeUI-56" transform="translate(401.742188 0)"/>
      </g>
     </g>
    </g>
   </g>
   <g id="text_36">
    <!--   77.5% -->
    <g style="fill: #111827" transform="translate(662.057143 124.645795) scale(0.08 -0.08)">
     <defs>
      <path id="SegoeUI-37" d="M 3156 4184 
Q 3053 4006 2908 3740 
Q 2763 3475 2600 3144 
Q 2438 2813 2269 2431 
Q 2100 2050 1953 1644 
Q 1806 1238 1695 820 
Q 1584 403 1534 0 
L 984 0 
Q 1041 400 1158 817 
Q 1275 1234 1423 1636 
Q 1572 2038 1737 2409 
Q 1903 2781 2059 3093 
Q 2216 3406 2345 3645 
Q 2475 3884 2553 4019 
L 306 4019 
L 306 4481 
L 3156 4481 
L 3156 4184 
z
" transform="scale(0.015625)"/>
     </defs>
     <use xlink:href="#SegoeUI-20"/>
     <use xlink:href="#SegoeUI-20" transform="translate(27.392578 0)"/>
     <use xlink:href="#SegoeUI-37" transform="translate(54.785156 0)"/>
     <use xlink:href="#SegoeUI-37" transform="translate(108.691406 0)"/>
     <use xlink:href="#SegoeUI-2e" transform="translate(162.597656 0)"/>
     <use xlink:href="#SegoeUI-35" transform="translate(184.277344 0)"/>
     <use xlink:href="#SegoeUI-25" transform="translate(238.183594 0)"/>
    </g>
   </g>
   <g id="text_37">
    <!-- Static block removal -->
    <g style="fill: #111827" transform="translate(511.2 87.2) scale(0.09 -0.09)">
     <use xlink:href="#SegoeUI-53"/>
     <use xlink:href="#SegoeUI-74" transform="translate(49.875 0)"/>
     <use xlink:href="#SegoeUI-61" transform="translate(83.761719 0)"/>
     <use xlink:href="#SegoeUI-74" transform="translate(134.640625 0)"/>
     <use xlink:href="#SegoeUI-69" transform="translate(168.527344 0)"/>
     <use xlink:href="#SegoeUI-63" transform="translate(192.746094 0)"/>
     <use xlink:href="#SegoeUI-20" transform="translate(238.9375 0)"/>
     <use xlink:href="#SegoeUI-62" transform="translate(266.330078 0)"/>
     <use xlink:href="#SegoeUI-6c" transform="translate(325.119141 0)"/>
     <use xlink:href="#SegoeUI-6f" transform="translate(349.337891 0)"/>
     <use xlink:href="#SegoeUI-63" transform="translate(407.931641 0)"/>
     <use xlink:href="#SegoeUI-6b" transform="translate(454.123047 0)"/>
     <use xlink:href="#SegoeUI-20" transform="translate(503.830078 0)"/>
     <use xlink:href="#SegoeUI-72" transform="translate(531.222656 0)"/>
     <use xlink:href="#SegoeUI-65" transform="translate(564.613281 0)"/>
     <use xlink:href="#SegoeUI-6d" transform="translate(616.908203 0)"/>
     <use xlink:href="#SegoeUI-6f" transform="translate(703.041016 0)"/>
     <use xlink:href="#SegoeUI-76" transform="translate(761.634766 0)"/>
     <use xlink:href="#SegoeUI-61" transform="translate(807.785156 0)"/>
     <use xlink:href="#SegoeUI-6c" transform="translate(858.664062 0)"/>
    </g>
   </g>
  </g>
  <g id="text_38">
   <!-- BTC Factor Attribution -->
   <g style="fill: #111827" transform="translate(39.6 39.650625) scale(0.18 -0.18)">
    <defs>
     <path id="SegoeUI-Semibold-42" d="M 553 0 
L 553 4481 
L 1975 4481 
Q 2625 4481 3004 4197 
Q 3384 3913 3384 3456 
Q 3384 3075 3168 2794 
Q 2953 2513 2572 2394 
L 2572 2381 
Q 3034 2328 3311 2039 
Q 3588 1750 3588 1288 
Q 3588 713 3134 356 
Q 2681 0 1991 0 
L 553 0 
z
M 1294 3884 
L 1294 2609 
L 1775 2609 
Q 2163 2609 2383 2792 
Q 2603 2975 2603 3309 
Q 2603 3884 1834 3884 
L 1294 3884 
z
M 1294 2013 
L 1294 594 
L 1928 594 
Q 2344 594 2570 786 
Q 2797 978 2797 1316 
Q 2797 2013 1831 2013 
L 1294 2013 
z
" transform="scale(0.015625)"/>
     <path id="SegoeUI-Semibold-54" d="M 3428 3850 
L 2141 3850 
L 2141 0 
L 1397 0 
L 1397 3850 
L 113 3850 
L 113 4481 
L 3428 4481 
L 3428 3850 
z
" transform="scale(0.015625)"/>
     <path id="SegoeUI-Semibold-43" d="M 3678 188 
Q 3172 -75 2419 -75 
Q 1444 -75 856 540 
Q 269 1156 269 2156 
Q 269 3231 930 3893 
Q 1591 4556 2600 4556 
Q 3250 4556 3678 4372 
L 3678 3634 
Q 3225 3903 2678 3903 
Q 1950 3903 1498 3437 
Q 1047 2972 1047 2194 
Q 1047 1453 1469 1014 
Q 1891 575 2578 575 
Q 3213 575 3678 875 
L 3678 188 
z
" transform="scale(0.015625)"/>
     <path id="SegoeUI-Semibold-20" transform="scale(0.015625)"/>
     <path id="SegoeUI-Semibold-46" d="M 2972 3850 
L 1297 3850 
L 1297 2503 
L 2841 2503 
L 2841 1875 
L 1297 1875 
L 1297 0 
L 553 0 
L 553 4481 
L 2972 4481 
L 2972 3850 
z
" transform="scale(0.015625)"/>
     <path id="SegoeUI-Semibold-61" d="M 2928 0 
L 2225 0 
L 2225 500 
L 2213 500 
Q 1881 -75 1241 -75 
Q 769 -75 501 181 
Q 234 438 234 859 
Q 234 1766 1278 1916 
L 2228 2050 
Q 2228 2734 1578 2734 
Q 1006 2734 547 2341 
L 547 2975 
Q 1053 3275 1716 3275 
Q 2928 3275 2928 2081 
L 2928 0 
z
M 2228 1572 
L 1556 1478 
Q 1244 1438 1086 1327 
Q 928 1216 928 938 
Q 928 734 1073 604 
Q 1219 475 1463 475 
Q 1794 475 2011 708 
Q 2228 941 2228 1294 
L 2228 1572 
z
" transform="scale(0.015625)"/>
     <path id="SegoeUI-Semibold-63" d="M 2763 147 
Q 2378 -75 1853 -75 
Q 1141 -75 703 370 
Q 266 816 266 1525 
Q 266 2316 736 2795 
Q 1206 3275 1994 3275 
Q 2431 3275 2766 3122 
L 2766 2447 
Q 2431 2697 2053 2697 
Q 1594 2697 1300 2386 
Q 1006 2075 1006 1572 
Q 1006 1075 1282 787 
Q 1559 500 2025 500 
Q 2416 500 2763 778 
L 2763 147 
z
" transform="scale(0.015625)"/>
     <path id="SegoeUI-Semibold-74" d="M 2159 34 
Q 1947 -72 1600 -72 
Q 669 -72 669 822 
L 669 2631 
L 134 2631 
L 134 3200 
L 669 3200 
L 669 3941 
L 1394 4147 
L 1394 3200 
L 2159 3200 
L 2159 2631 
L 1394 2631 
L 1394 1031 
Q 1394 747 1497 625 
Q 1600 503 1841 503 
Q 2025 503 2159 609 
L 2159 34 
z
" transform="scale(0.015625)"/>
     <path id="SegoeUI-Semibold-6f" d="M 1891 -75 
Q 1150 -75 708 373 
Q 266 822 266 1563 
Q 266 2369 727 2822 
Q 1188 3275 1969 3275 
Q 2719 3275 3137 2834 
Q 3556 2394 3556 1613 
Q 3556 847 3104 386 
Q 2653 -75 1891 -75 
z
M 1925 2697 
Q 1500 2697 1253 2400 
Q 1006 2103 1006 1581 
Q 1006 1078 1256 789 
Q 1506 500 1925 500 
Q 2353 500 2583 784 
Q 2813 1069 2813 1594 
Q 2813 2122 2583 2409 
Q 2353 2697 1925 2697 
z
" transform="scale(0.015625)"/>
     <path id="SegoeUI-Semibold-72" d="M 2328 2509 
Q 2197 2613 1950 2613 
Q 1628 2613 1412 2322 
Q 1197 2031 1197 1531 
L 1197 0 
L 472 0 
L 472 3200 
L 1197 3200 
L 1197 2541 
L 1209 2541 
Q 1316 2878 1536 3067 
Q 1756 3256 2028 3256 
Q 2225 3256 2328 3197 
L 2328 2509 
z
" transform="scale(0.015625)"/>
     <path id="SegoeUI-Semibold-41" d="M 4234 0 
L 3419 0 
L 3016 1141 
L 1253 1141 
L 866 0 
L 53 0 
L 1731 4481 
L 2569 4481 
L 4234 0 
z
M 2819 1747 
L 2197 3534 
Q 2169 3622 2138 3816 
L 2125 3816 
Q 2097 3638 2063 3534 
L 1447 1747 
L 2819 1747 
z
" transform="scale(0.015625)"/>
     <path id="SegoeUI-Semibold-69" d="M 838 3872 
Q 659 3872 532 3987 
Q 406 4103 406 4281 
Q 406 4459 532 4578 
Q 659 4697 838 4697 
Q 1022 4697 1150 4578 
Q 1278 4459 1278 4281 
Q 1278 4113 1150 3992 
Q 1022 3872 838 3872 
z
M 1197 0 
L 472 0 
L 472 3200 
L 1197 3200 
L 1197 0 
z
" transform="scale(0.015625)"/>
     <path id="SegoeUI-Semibold-62" d="M 1209 463 
L 1197 463 
L 1197 0 
L 472 0 
L 472 4738 
L 1197 4738 
L 1197 2638 
L 1209 2638 
Q 1581 3275 2297 3275 
Q 2903 3275 3245 2845 
Q 3588 2416 3588 1694 
Q 3588 891 3203 408 
Q 2819 -75 2153 -75 
Q 1528 -75 1209 463 
z
M 1191 1734 
L 1191 1338 
Q 1191 988 1414 744 
Q 1638 500 1981 500 
Q 2384 500 2614 814 
Q 2844 1128 2844 1691 
Q 2844 2163 2630 2430 
Q 2416 2697 2050 2697 
Q 1663 2697 1427 2422 
Q 1191 2147 1191 1734 
z
" transform="scale(0.015625)"/>
     <path id="SegoeUI-Semibold-75" d="M 3263 0 
L 2538 0 
L 2538 506 
L 2525 506 
Q 2209 -75 1544 -75 
Q 409 -75 409 1288 
L 409 3200 
L 1134 3200 
L 1134 1363 
Q 1134 500 1800 500 
Q 2122 500 2330 737 
Q 2538 975 2538 1359 
L 2538 3200 
L 3263 3200 
L 3263 0 
z
" transform="scale(0.015625)"/>
     <path id="SegoeUI-Semibold-6e" d="M 3322 0 
L 2597 0 
L 2597 1803 
Q 2597 2700 1963 2700 
Q 1631 2700 1415 2451 
Q 1200 2203 1200 1825 
L 1200 0 
L 472 0 
L 472 3200 
L 1200 3200 
L 1200 2669 
L 1213 2669 
Q 1572 3275 2250 3275 
Q 2772 3275 3047 2936 
Q 3322 2597 3322 1956 
L 3322 0 
z
" transform="scale(0.015625)"/>
    </defs>
    <use xlink:href="#SegoeUI-Semibold-42"/>
    <use xlink:href="#SegoeUI-Semibold-54" transform="translate(56.775391 0)"/>
    <use xlink:href="#SegoeUI-Semibold-43" transform="translate(107.951172 0)"/>
    <use xlink:href="#SegoeUI-Semibold-20" transform="translate(170.060547 0)"/>
    <use xlink:href="#SegoeUI-Semibold-46" transform="translate(197.550781 0)"/>
    <use xlink:href="#SegoeUI-Semibold-61" transform="translate(244.419922 0)"/>
    <use xlink:href="#SegoeUI-Semibold-63" transform="translate(296.617188 0)"/>
    <use xlink:href="#SegoeUI-Semibold-74" transform="translate(343.638672 0)"/>
    <use xlink:href="#SegoeUI-Semibold-6f" transform="translate(379.146484 0)"/>
    <use xlink:href="#SegoeUI-Semibold-72" transform="translate(438.863281 0)"/>
    <use xlink:href="#SegoeUI-Semibold-20" transform="translate(475.875 0)"/>
    <use xlink:href="#SegoeUI-Semibold-41" transform="translate(503.365234 0)"/>
    <use xlink:href="#SegoeUI-Semibold-74" transform="translate(568.878906 0)"/>
    <use xlink:href="#SegoeUI-Semibold-74" transform="translate(605.011719 0)"/>
    <use xlink:href="#SegoeUI-Semibold-72" transform="translate(641.144531 0)"/>
    <use xlink:href="#SegoeUI-Semibold-69" transform="translate(678.15625 0)"/>
    <use xlink:href="#SegoeUI-Semibold-62" transform="translate(704.279297 0)"/>
    <use xlink:href="#SegoeUI-Semibold-75" transform="translate(764.533203 0)"/>
    <use xlink:href="#SegoeUI-Semibold-74" transform="translate(822.882812 0)"/>
    <use xlink:href="#SegoeUI-Semibold-69" transform="translate(859.015625 0)"/>
    <use xlink:href="#SegoeUI-Semibold-6f" transform="translate(885.138672 0)"/>
    <use xlink:href="#SegoeUI-Semibold-6e" transform="translate(944.855469 0)"/>
   </g>
  </g>
 </g>
 <defs>
  <clipPath id="pd305811ad5">
   <rect x="50.4" y="97.2" width="417.6" height="234.9"/>
  </clipPath>
  <clipPath id="p104c89121d">
   <rect x="511.2" y="97.2" width="158.4" height="234.9"/>
  </clipPath>
 </defs>
</svg>
