<?xml version="1.0" encoding="utf-8" standalone="no"?>
<!DOCTYPE svg PUBLIC "-//W3C//DTD SVG 1.1//EN"
  "http://www.w3.org/Graphics/SVG/1.1/DTD/svg11.dtd">
<svg xmlns:xlink="http://www.w3.org/1999/xlink" width="571.002187pt" height="370.376875pt" viewBox="0 0 571.002187 370.376875" xmlns="http://www.w3.org/2000/svg" version="1.1">
 <metadata>
  <rdf:RDF xmlns:dc="http://purl.org/dc/elements/1.1/" xmlns:cc="http://creativecommons.org/ns#" xmlns:rdf="http://www.w3.org/1999/02/22-rdf-syntax-ns#">
   <cc:Work>
    <dc:type rdf:resource="http://purl.org/dc/dcmitype/StillImage"/>
    <dc:date>2026-06-16T15:56:32.613866</dc:date>
    <dc:format>image/svg+xml</dc:format>
    <dc:creator>
     <cc:Agent>
      <dc:title>Matplotlib v3.10.8, https://matplotlib.org/</dc:title>
     </cc:Agent>
    </dc:creator>
   </cc:Work>
  </rdf:RDF>
 </metadata>
 <defs>
  <style type="text/css">*{stroke-linejoin: round; stroke-linecap: butt}</style>
 </defs>
 <g id="figure_1">
  <g id="patch_1">
   <path d="M -0 370.376875 
L 571.002187 370.376875 
L 571.002187 0 
L -0 0 
z
" style="fill: #fafaf7"/>
  </g>
  <g id="axes_1">
   <g id="patch_2">
    <path d="M 98.617188 332.544062 
L 563.802187 332.544062 
L 563.802187 60.39 
L 98.617188 60.39 
z
" style="fill: #fafaf7"/>
   </g>
   <g id="patch_3">
    <path d="M 98.617188 72.760639 
L 98.617188 72.760639 
L 98.617188 90.021996 
L 98.617188 90.021996 
z
" clip-path="url(#p7087e415b3)" style="fill: #6b7280"/>
   </g>
   <g id="patch_4">
    <path d="M 98.617188 101.529568 
L 151.090942 101.529568 
L 151.090942 118.790925 
L 98.617188 118.790925 
z
" clip-path="url(#p7087e415b3)" style="fill: #6b7280"/>
   </g>
   <g id="patch_5">
    <path d="M 98.617188 130.298496 
L 160.925395 130.298496 
L 160.925395 147.559853 
L 98.617188 147.559853 
z
" clip-path="url(#p7087e415b3)" style="fill: #6b7280"/>
   </g>
   <g id="patch_6">
    <path d="M 98.617188 159.067424 
L 161.019319 159.067424 
L 161.019319 176.328781 
L 98.617188 176.328781 
z
" clip-path="url(#p7087e415b3)" style="fill: #6b7280"/>
   </g>
   <g id="patch_7">
    <path d="M 98.617188 187.836353 
L 162.227027 187.836353 
L 162.227027 205.09771 
L 98.617188 205.09771 
z
" clip-path="url(#p7087e415b3)" style="fill: #6b7280"/>
   </g>
   <g id="patch_8">
    <path d="M 98.617188 216.605281 
L 163.296953 216.605281 
L 163.296953 233.866638 
L 98.617188 233.866638 
z
" clip-path="url(#p7087e415b3)" style="fill: #6b7280"/>
   </g>
   <g id="patch_9">
    <path d="M 98.617188 245.37421 
L 506.539686 245.37421 
L 506.539686 262.635567 
L 98.617188 262.635567 
z
" clip-path="url(#p7087e415b3)" style="fill: #7c3aed"/>
   </g>
   <g id="patch_10">
    <path d="M 98.617188 274.143138 
L 504.158825 274.143138 
L 504.158825 291.404495 
L 98.617188 291.404495 
z
" clip-path="url(#p7087e415b3)" style="fill: #7c3aed"/>
   </g>
   <g id="patch_11">
    <path d="M 98.617188 302.912066 
L 100.187298 302.912066 
L 100.187298 320.173423 
L 98.617188 320.173423 
z
" clip-path="url(#p7087e415b3)" style="fill: #6b7280"/>
   </g>
   <g id="matplotlib.axis_1">
    <g id="xtick_1">
     <g id="line2d_1">
      <path d="M 98.617188 332.544062 
L 98.617188 60.39 
" clip-path="url(#p7087e415b3)" style="fill: none; stroke: #d9dee7; stroke-opacity: 0.55; stroke-width: 0.7; stroke-linecap: square"/>
     </g>
     <g id="line2d_2">
      <defs>
       <path id="mb7e541fd2d" d="M 0 0 
L 0 3.5 
" style="stroke: #111827; stroke-width: 0.8"/>
      </defs>
      <g>
       <use xlink:href="#mb7e541fd2d" x="98.617188" y="332.544062" style="fill: #111827; stroke: #111827; stroke-width: 0.8"/>
      </g>
     </g>
     <g id="text_1">
      <!-- 0.0 -->
      <g style="fill: #111827" transform="translate(92.789688 346.206875) scale(0.09 -0.09)">
       <defs>
        <path id="SegoeUI-30" d="M 3188 2259 
Q 3188 1697 3086 1262 
Q 2984 828 2792 529 
Q 2600 231 2320 76 
Q 2041 -78 1684 -78 
Q 1347 -78 1083 70 
Q 819 219 637 503 
Q 456 788 362 1202 
Q 269 1616 269 2150 
Q 269 2738 367 3188 
Q 466 3638 656 3942 
Q 847 4247 1130 4401 
Q 1413 4556 1778 4556 
Q 3188 4556 3188 2259 
z
M 2663 2209 
Q 2663 4122 1753 4122 
Q 794 4122 794 2175 
Q 794 359 1734 359 
Q 2663 359 2663 2209 
z
" transform="scale(0.015625)"/>
        <path id="SegoeUI-2e" d="M 697 -69 
Q 553 -69 451 34 
Q 350 138 350 281 
Q 350 425 451 529 
Q 553 634 697 634 
Q 844 634 947 529 
Q 1050 425 1050 281 
Q 1050 138 947 34 
Q 844 -69 697 -69 
z
" transform="scale(0.015625)"/>
       </defs>
       <use xlink:href="#SegoeUI-30"/>
       <use xlink:href="#SegoeUI-2e" transform="translate(53.90625 0)"/>
       <use xlink:href="#SegoeUI-30" transform="translate(75.585938 0)"/>
      </g>
     </g>
    </g>
    <g id="xtick_2">
     <g id="line2d_3">
      <path d="M 187.223854 332.544062 
L 187.223854 60.39 
" clip-path="url(#p7087e415b3)" style="fill: none; stroke: #d9dee7; stroke-opacity: 0.55; stroke-width: 0.7; stroke-linecap: square"/>
     </g>
     <g id="line2d_4">
      <g>
       <use xlink:href="#mb7e541fd2d" x="187.223854" y="332.544062" style="fill: #111827; stroke: #111827; stroke-width: 0.8"/>
      </g>
     </g>
     <g id="text_2">
      <!-- 0.2 -->
      <g style="fill: #111827" transform="translate(181.396354 346.206875) scale(0.09 -0.09)">
       <defs>
        <path id="SegoeUI-32" d="M 2413 3306 
Q 2413 3513 2348 3666 
Q 2284 3819 2173 3920 
Q 2063 4022 1913 4072 
Q 1763 4122 1588 4122 
Q 1438 4122 1294 4081 
Q 1150 4041 1014 3969 
Q 878 3897 751 3797 
Q 625 3697 516 3575 
L 516 4125 
Q 731 4334 998 4445 
Q 1266 4556 1650 4556 
Q 1925 4556 2159 4476 
Q 2394 4397 2566 4244 
Q 2738 4091 2836 3866 
Q 2934 3641 2934 3350 
Q 2934 3084 2873 2868 
Q 2813 2653 2689 2462 
Q 2566 2272 2378 2097 
Q 2191 1922 1938 1741 
Q 1622 1516 1417 1356 
Q 1213 1197 1092 1058 
Q 972 919 923 780 
Q 875 641 875 459 
L 3106 459 
L 3106 0 
L 341 0 
L 341 222 
Q 341 509 403 728 
Q 466 947 609 1144 
Q 753 1341 986 1537 
Q 1219 1734 1556 1981 
Q 1800 2156 1964 2315 
Q 2128 2475 2228 2634 
Q 2328 2794 2370 2958 
Q 2413 3122 2413 3306 
z
" transform="scale(0.015625)"/>
       </defs>
       <use xlink:href="#SegoeUI-30"/>
       <use xlink:href="#SegoeUI-2e" transform="translate(53.90625 0)"/>
       <use xlink:href="#SegoeUI-32" transform="translate(75.585938 0)"/>
      </g>
     </g>
    </g>
    <g id="xtick_3">
     <g id="line2d_5">
      <path d="M 275.830521 332.544062 
L 275.830521 60.39 
" clip-path="url(#p7087e415b3)" style="fill: none; stroke: #d9dee7; stroke-opacity: 0.55; stroke-width: 0.7; stroke-linecap: square"/>
     </g>
     <g id="line2d_6">
      <g>
       <use xlink:href="#mb7e541fd2d" x="275.830521" y="332.544062" style="fill: #111827; stroke: #111827; stroke-width: 0.8"/>
      </g>
     </g>
     <g id="text_3">
      <!-- 0.4 -->
      <g style="fill: #111827" transform="translate(270.003021 346.206875) scale(0.09 -0.09)">
       <defs>
        <path id="SegoeUI-34" d="M 2656 4481 
L 2656 1522 
L 3231 1522 
L 3231 1053 
L 2656 1053 
L 2656 0 
L 2150 0 
L 2150 1053 
L 44 1053 
L 44 1497 
Q 338 1828 638 2204 
Q 938 2581 1211 2968 
Q 1484 3356 1717 3742 
Q 1950 4128 2109 4481 
L 2656 4481 
z
M 622 1522 
L 2150 1522 
L 2150 3716 
Q 1916 3306 1706 2984 
Q 1497 2663 1308 2400 
Q 1119 2138 947 1925 
Q 775 1713 622 1522 
z
" transform="scale(0.015625)"/>
       </defs>
       <use xlink:href="#SegoeUI-30"/>
       <use xlink:href="#SegoeUI-2e" transform="translate(53.90625 0)"/>
       <use xlink:href="#SegoeUI-34" transform="translate(75.585938 0)"/>
      </g>
     </g>
    </g>
    <g id="xtick_4">
     <g id="line2d_7">
      <path d="M 364.437187 332.544062 
L 364.437187 60.39 
" clip-path="url(#p7087e415b3)" style="fill: none; stroke: #d9dee7; stroke-opacity: 0.55; stroke-width: 0.7; stroke-linecap: square"/>
     </g>
     <g id="line2d_8">
      <g>
       <use xlink:href="#mb7e541fd2d" x="364.437187" y="332.544062" style="fill: #111827; stroke: #111827; stroke-width: 0.8"/>
      </g>
     </g>
     <g id="text_4">
      <!-- 0.6 -->
      <g style="fill: #111827" transform="translate(358.609688 346.206875) scale(0.09 -0.09)">
       <defs>
        <path id="SegoeUI-36" d="M 3194 1422 
Q 3194 1094 3087 819 
Q 2981 544 2793 344 
Q 2606 144 2347 33 
Q 2088 -78 1784 -78 
Q 1447 -78 1180 62 
Q 913 203 727 467 
Q 541 731 444 1112 
Q 347 1494 347 1972 
Q 347 2556 476 3032 
Q 606 3509 845 3848 
Q 1084 4188 1421 4372 
Q 1759 4556 2175 4556 
Q 2638 4556 2919 4428 
L 2919 3944 
Q 2572 4122 2188 4122 
Q 1888 4122 1647 3987 
Q 1406 3853 1234 3608 
Q 1063 3363 970 3016 
Q 878 2669 878 2244 
L 891 2244 
Q 1200 2803 1913 2803 
Q 2206 2803 2442 2703 
Q 2678 2603 2845 2420 
Q 3013 2238 3103 1984 
Q 3194 1731 3194 1422 
z
M 2669 1356 
Q 2669 1591 2609 1778 
Q 2550 1966 2439 2097 
Q 2328 2228 2165 2298 
Q 2003 2369 1797 2369 
Q 1606 2369 1443 2297 
Q 1281 2225 1162 2101 
Q 1044 1978 976 1814 
Q 909 1650 909 1466 
Q 909 1234 975 1032 
Q 1041 831 1159 681 
Q 1278 531 1442 445 
Q 1606 359 1806 359 
Q 2000 359 2159 432 
Q 2319 506 2431 637 
Q 2544 769 2606 951 
Q 2669 1134 2669 1356 
z
" transform="scale(0.015625)"/>
       </defs>
       <use xlink:href="#SegoeUI-30"/>
       <use xlink:href="#SegoeUI-2e" transform="translate(53.90625 0)"/>
       <use xlink:href="#SegoeUI-36" transform="translate(75.585938 0)"/>
      </g>
     </g>
    </g>
    <g id="xtick_5">
     <g id="line2d_9">
      <path d="M 453.043854 332.544062 
L 453.043854 60.39 
" clip-path="url(#p7087e415b3)" style="fill: none; stroke: #d9dee7; stroke-opacity: 0.55; stroke-width: 0.7; stroke-linecap: square"/>
     </g>
     <g id="line2d_10">
      <g>
       <use xlink:href="#mb7e541fd2d" x="453.043854" y="332.544062" style="fill: #111827; stroke: #111827; stroke-width: 0.8"/>
      </g>
     </g>
     <g id="text_5">
      <!-- 0.8 -->
      <g style="fill: #111827" transform="translate(447.216354 346.206875) scale(0.09 -0.09)">
       <defs>
        <path id="SegoeUI-38" d="M 281 1250 
Q 281 1428 337 1608 
Q 394 1788 498 1944 
Q 603 2100 758 2228 
Q 913 2356 1109 2431 
Q 819 2594 647 2848 
Q 475 3103 475 3413 
Q 475 3659 570 3868 
Q 666 4078 834 4231 
Q 1003 4384 1234 4470 
Q 1466 4556 1734 4556 
Q 2006 4556 2237 4468 
Q 2469 4381 2637 4228 
Q 2806 4075 2900 3865 
Q 2994 3656 2994 3413 
Q 2994 3103 2822 2848 
Q 2650 2594 2366 2431 
Q 2559 2356 2712 2228 
Q 2866 2100 2970 1944 
Q 3075 1788 3131 1608 
Q 3188 1428 3188 1250 
Q 3188 956 3081 712 
Q 2975 469 2783 295 
Q 2591 122 2323 25 
Q 2056 -72 1734 -72 
Q 1416 -72 1150 25 
Q 884 122 690 295 
Q 497 469 389 712 
Q 281 956 281 1250 
z
M 838 1294 
Q 838 1084 902 915 
Q 966 747 1083 628 
Q 1200 509 1367 445 
Q 1534 381 1738 381 
Q 1934 381 2100 447 
Q 2266 513 2386 631 
Q 2506 750 2573 919 
Q 2641 1088 2641 1294 
Q 2641 1481 2577 1645 
Q 2513 1809 2394 1934 
Q 2275 2059 2109 2131 
Q 1944 2203 1738 2203 
Q 1544 2203 1380 2136 
Q 1216 2069 1095 1948 
Q 975 1828 906 1661 
Q 838 1494 838 1294 
z
M 997 3372 
Q 997 3213 1055 3077 
Q 1113 2941 1214 2839 
Q 1316 2738 1450 2680 
Q 1584 2622 1738 2622 
Q 1891 2622 2027 2681 
Q 2163 2741 2263 2842 
Q 2363 2944 2422 3080 
Q 2481 3216 2481 3372 
Q 2481 3534 2423 3671 
Q 2366 3809 2266 3909 
Q 2166 4009 2030 4067 
Q 1894 4125 1738 4125 
Q 1572 4125 1436 4065 
Q 1300 4006 1201 3904 
Q 1103 3803 1050 3665 
Q 997 3528 997 3372 
z
" transform="scale(0.015625)"/>
       </defs>
       <use xlink:href="#SegoeUI-30"/>
       <use xlink:href="#SegoeUI-2e" transform="translate(53.90625 0)"/>
       <use xlink:href="#SegoeUI-38" transform="translate(75.585938 0)"/>
      </g>
     </g>
    </g>
    <g id="xtick_6">
     <g id="line2d_11">
      <path d="M 541.650521 332.544062 
L 541.650521 60.39 
" clip-path="url(#p7087e415b3)" style="fill: none; stroke: #d9dee7; stroke-opacity: 0.55; stroke-width: 0.7; stroke-linecap: square"/>
     </g>
     <g id="line2d_12">
      <g>
       <use xlink:href="#mb7e541fd2d" x="541.650521" y="332.544062" style="fill: #111827; stroke: #111827; stroke-width: 0.8"/>
      </g>
     </g>
     <g id="text_6">
      <!-- 1.0 -->
      <g style="fill: #111827" transform="translate(535.823021 346.206875) scale(0.09 -0.09)">
       <defs>
        <path id="SegoeUI-31" d="M 2263 0 
L 1750 0 
L 1750 3872 
Q 1691 3813 1577 3736 
Q 1463 3659 1320 3584 
Q 1178 3509 1020 3443 
Q 863 3378 713 3341 
L 713 3859 
Q 881 3906 1070 3986 
Q 1259 4066 1442 4164 
Q 1625 4263 1787 4370 
Q 1950 4478 2069 4581 
L 2263 4581 
L 2263 0 
z
" transform="scale(0.015625)"/>
       </defs>
       <use xlink:href="#SegoeUI-31"/>
       <use xlink:href="#SegoeUI-2e" transform="translate(53.90625 0)"/>
       <use xlink:href="#SegoeUI-30" transform="translate(75.585938 0)"/>
      </g>
     </g>
    </g>
    <g id="text_7">
     <!-- R² (same support, n = 1940) -->
     <g style="fill: #6b7280" transform="translate(269.482344 360.876875) scale(0.1 -0.1)">
      <defs>
       <path id="SegoeUI-52" d="M 3800 0 
L 3175 0 
L 2425 1256 
Q 2322 1431 2225 1554 
Q 2128 1678 2026 1756 
Q 1925 1834 1808 1870 
Q 1691 1906 1544 1906 
L 1113 1906 
L 1113 0 
L 588 0 
L 588 4481 
L 1925 4481 
Q 2219 4481 2467 4407 
Q 2716 4334 2898 4184 
Q 3081 4034 3184 3811 
Q 3288 3588 3288 3288 
Q 3288 3053 3217 2858 
Q 3147 2663 3017 2509 
Q 2888 2356 2705 2248 
Q 2522 2141 2294 2081 
L 2294 2069 
Q 2406 2019 2489 1955 
Q 2572 1891 2647 1803 
Q 2722 1716 2795 1605 
Q 2869 1494 2959 1347 
L 3800 0 
z
M 1113 4006 
L 1113 2381 
L 1825 2381 
Q 2022 2381 2189 2440 
Q 2356 2500 2478 2611 
Q 2600 2722 2669 2883 
Q 2738 3044 2738 3244 
Q 2738 3603 2505 3804 
Q 2272 4006 1831 4006 
L 1113 4006 
z
" transform="scale(0.015625)"/>
       <path id="SegoeUI-b2" d="M 2056 2785 
L 325 2785 
L 325 3041 
Q 325 3232 417 3383 
Q 509 3535 648 3666 
Q 788 3798 950 3915 
Q 1113 4032 1252 4157 
Q 1391 4282 1483 4422 
Q 1575 4563 1575 4738 
Q 1575 4919 1458 5019 
Q 1341 5119 1144 5119 
Q 772 5119 469 4801 
L 469 5266 
Q 728 5504 1203 5504 
Q 1378 5504 1525 5451 
Q 1672 5398 1778 5299 
Q 1884 5201 1943 5063 
Q 2003 4926 2003 4754 
Q 2003 4523 1914 4343 
Q 1825 4163 1690 4019 
Q 1556 3876 1400 3763 
Q 1244 3651 1109 3555 
Q 975 3460 886 3374 
Q 797 3288 797 3201 
L 797 3166 
L 2056 3166 
L 2056 2785 
z
" transform="scale(0.015625)"/>
       <path id="SegoeUI-20" transform="scale(0.015625)"/>
       <path id="SegoeUI-28" d="M 1863 -1019 
L 1406 -1019 
Q 438 88 438 1709 
Q 438 3338 1406 4481 
L 1869 4481 
Q 888 3294 888 1716 
Q 888 150 1863 -1019 
z
" transform="scale(0.015625)"/>
       <path id="SegoeUI-73" d="M 325 116 
L 325 666 
Q 744 356 1247 356 
Q 1922 356 1922 806 
Q 1922 934 1864 1023 
Q 1806 1113 1707 1181 
Q 1609 1250 1476 1304 
Q 1344 1359 1191 1419 
Q 978 1503 817 1589 
Q 656 1675 548 1783 
Q 441 1891 386 2028 
Q 331 2166 331 2350 
Q 331 2575 434 2748 
Q 538 2922 709 3039 
Q 881 3156 1101 3215 
Q 1322 3275 1556 3275 
Q 1972 3275 2300 3131 
L 2300 2613 
Q 1947 2844 1488 2844 
Q 1344 2844 1228 2811 
Q 1113 2778 1030 2718 
Q 947 2659 901 2576 
Q 856 2494 856 2394 
Q 856 2269 901 2184 
Q 947 2100 1034 2034 
Q 1122 1969 1247 1916 
Q 1372 1863 1531 1800 
Q 1744 1719 1912 1633 
Q 2081 1547 2200 1439 
Q 2319 1331 2383 1190 
Q 2447 1050 2447 856 
Q 2447 619 2342 444 
Q 2238 269 2063 153 
Q 1888 38 1659 -18 
Q 1431 -75 1181 -75 
Q 688 -75 325 116 
z
" transform="scale(0.015625)"/>
       <path id="SegoeUI-61" d="M 2809 0 
L 2297 0 
L 2297 500 
L 2284 500 
Q 1950 -75 1300 -75 
Q 822 -75 551 178 
Q 281 431 281 850 
Q 281 1747 1338 1894 
L 2297 2028 
Q 2297 2844 1638 2844 
Q 1059 2844 594 2450 
L 594 2975 
Q 1066 3275 1681 3275 
Q 2809 3275 2809 2081 
L 2809 0 
z
M 2297 1619 
L 1525 1513 
Q 1169 1463 987 1336 
Q 806 1209 806 888 
Q 806 653 973 504 
Q 1141 356 1419 356 
Q 1800 356 2048 623 
Q 2297 891 2297 1300 
L 2297 1619 
z
" transform="scale(0.015625)"/>
       <path id="SegoeUI-6d" d="M 5063 0 
L 4550 0 
L 4550 1838 
Q 4550 2369 4386 2606 
Q 4222 2844 3834 2844 
Q 3506 2844 3276 2544 
Q 3047 2244 3047 1825 
L 3047 0 
L 2534 0 
L 2534 1900 
Q 2534 2844 1806 2844 
Q 1469 2844 1250 2561 
Q 1031 2278 1031 1825 
L 1031 0 
L 519 0 
L 519 3200 
L 1031 3200 
L 1031 2694 
L 1044 2694 
Q 1384 3275 2038 3275 
Q 2366 3275 2609 3092 
Q 2853 2909 2944 2613 
Q 3300 3275 4006 3275 
Q 5063 3275 5063 1972 
L 5063 0 
z
" transform="scale(0.015625)"/>
       <path id="SegoeUI-65" d="M 3091 1472 
L 831 1472 
Q 844 938 1119 647 
Q 1394 356 1875 356 
Q 2416 356 2869 713 
L 2869 231 
Q 2447 -75 1753 -75 
Q 1075 -75 687 361 
Q 300 797 300 1588 
Q 300 2334 723 2804 
Q 1147 3275 1775 3275 
Q 2403 3275 2747 2869 
Q 3091 2463 3091 1741 
L 3091 1472 
z
M 2566 1906 
Q 2563 2350 2352 2597 
Q 2141 2844 1766 2844 
Q 1403 2844 1150 2584 
Q 897 2325 838 1906 
L 2566 1906 
z
" transform="scale(0.015625)"/>
       <path id="SegoeUI-75" d="M 3106 0 
L 2594 0 
L 2594 506 
L 2581 506 
Q 2263 -75 1594 -75 
Q 450 -75 450 1288 
L 450 3200 
L 959 3200 
L 959 1369 
Q 959 356 1734 356 
Q 2109 356 2351 632 
Q 2594 909 2594 1356 
L 2594 3200 
L 3106 3200 
L 3106 0 
z
" transform="scale(0.015625)"/>
       <path id="SegoeUI-70" d="M 1044 463 
L 1031 463 
L 1031 -1472 
L 519 -1472 
L 519 3200 
L 1031 3200 
L 1031 2638 
L 1044 2638 
Q 1422 3275 2150 3275 
Q 2769 3275 3116 2845 
Q 3463 2416 3463 1694 
Q 3463 891 3072 408 
Q 2681 -75 2003 -75 
Q 1381 -75 1044 463 
z
M 1031 1753 
L 1031 1306 
Q 1031 909 1289 632 
Q 1547 356 1944 356 
Q 2409 356 2673 712 
Q 2938 1069 2938 1703 
Q 2938 2238 2691 2541 
Q 2444 2844 2022 2844 
Q 1575 2844 1303 2533 
Q 1031 2222 1031 1753 
z
" transform="scale(0.015625)"/>
       <path id="SegoeUI-6f" d="M 1856 -75 
Q 1147 -75 723 373 
Q 300 822 300 1563 
Q 300 2369 740 2822 
Q 1181 3275 1931 3275 
Q 2647 3275 3048 2834 
Q 3450 2394 3450 1613 
Q 3450 847 3017 386 
Q 2584 -75 1856 -75 
z
M 1894 2844 
Q 1400 2844 1112 2508 
Q 825 2172 825 1581 
Q 825 1013 1115 684 
Q 1406 356 1894 356 
Q 2391 356 2658 678 
Q 2925 1000 2925 1594 
Q 2925 2194 2658 2519 
Q 2391 2844 1894 2844 
z
" transform="scale(0.015625)"/>
       <path id="SegoeUI-72" d="M 2188 2681 
Q 2053 2784 1800 2784 
Q 1472 2784 1251 2475 
Q 1031 2166 1031 1631 
L 1031 0 
L 519 0 
L 519 3200 
L 1031 3200 
L 1031 2541 
L 1044 2541 
Q 1153 2878 1378 3067 
Q 1603 3256 1881 3256 
Q 2081 3256 2188 3213 
L 2188 2681 
z
" transform="scale(0.015625)"/>
       <path id="SegoeUI-74" d="M 2003 31 
Q 1822 -69 1525 -69 
Q 684 -69 684 869 
L 684 2763 
L 134 2763 
L 134 3200 
L 684 3200 
L 684 3981 
L 1197 4147 
L 1197 3200 
L 2003 3200 
L 2003 2763 
L 1197 2763 
L 1197 959 
Q 1197 638 1306 500 
Q 1416 363 1669 363 
Q 1863 363 2003 469 
L 2003 31 
z
" transform="scale(0.015625)"/>
       <path id="SegoeUI-2c" d="M 988 713 
L 488 -825 
L 122 -825 
L 488 713 
L 988 713 
z
" transform="scale(0.015625)"/>
       <path id="SegoeUI-6e" d="M 3175 0 
L 2663 0 
L 2663 1825 
Q 2663 2844 1919 2844 
Q 1534 2844 1282 2555 
Q 1031 2266 1031 1825 
L 1031 0 
L 519 0 
L 519 3200 
L 1031 3200 
L 1031 2669 
L 1044 2669 
Q 1406 3275 2094 3275 
Q 2619 3275 2897 2936 
Q 3175 2597 3175 1956 
L 3175 0 
z
" transform="scale(0.015625)"/>
       <path id="SegoeUI-3d" d="M 3663 2325 
L 725 2325 
L 725 2738 
L 3663 2738 
L 3663 2325 
z
M 3663 994 
L 725 994 
L 725 1406 
L 3663 1406 
L 3663 994 
z
" transform="scale(0.015625)"/>
       <path id="SegoeUI-39" d="M 3138 2509 
Q 3138 1894 3016 1414 
Q 2894 934 2659 601 
Q 2425 269 2087 95 
Q 1750 -78 1319 -78 
Q 875 -78 538 78 
L 538 569 
Q 909 359 1331 359 
Q 1634 359 1873 484 
Q 2113 609 2278 848 
Q 2444 1088 2531 1438 
Q 2619 1788 2619 2241 
L 2606 2241 
Q 2319 1663 1606 1663 
Q 1319 1663 1078 1764 
Q 838 1866 663 2052 
Q 488 2238 391 2494 
Q 294 2750 294 3059 
Q 294 3391 401 3666 
Q 509 3941 701 4139 
Q 894 4338 1158 4447 
Q 1422 4556 1734 4556 
Q 2072 4556 2333 4420 
Q 2594 4284 2772 4023 
Q 2950 3763 3044 3381 
Q 3138 3000 3138 2509 
z
M 2584 2969 
Q 2584 3228 2517 3440 
Q 2450 3653 2331 3804 
Q 2213 3956 2048 4039 
Q 1884 4122 1691 4122 
Q 1506 4122 1347 4048 
Q 1188 3975 1070 3842 
Q 953 3709 886 3526 
Q 819 3344 819 3128 
Q 819 2891 883 2703 
Q 947 2516 1065 2386 
Q 1184 2256 1351 2187 
Q 1519 2119 1722 2119 
Q 1900 2119 2058 2186 
Q 2216 2253 2333 2367 
Q 2450 2481 2517 2636 
Q 2584 2791 2584 2969 
z
" transform="scale(0.015625)"/>
       <path id="SegoeUI-29" d="M 531 -1019 
L 75 -1019 
Q 1050 150 1050 1716 
Q 1050 3294 69 4481 
L 531 4481 
Q 1506 3338 1506 1709 
Q 1506 88 531 -1019 
z
" transform="scale(0.015625)"/>
      </defs>
      <use xlink:href="#SegoeUI-52"/>
      <use xlink:href="#SegoeUI-b2" transform="translate(59.814453 0)"/>
      <use xlink:href="#SegoeUI-20" transform="translate(96.435547 0)"/>
      <use xlink:href="#SegoeUI-28" transform="translate(123.828125 0)"/>
      <use xlink:href="#SegoeUI-73" transform="translate(154.003906 0)"/>
      <use xlink:href="#SegoeUI-61" transform="translate(196.435547 0)"/>
      <use xlink:href="#SegoeUI-6d" transform="translate(247.314453 0)"/>
      <use xlink:href="#SegoeUI-65" transform="translate(333.447266 0)"/>
      <use xlink:href="#SegoeUI-20" transform="translate(385.742188 0)"/>
      <use xlink:href="#SegoeUI-73" transform="translate(413.134766 0)"/>
      <use xlink:href="#SegoeUI-75" transform="translate(455.566406 0)"/>
      <use xlink:href="#SegoeUI-70" transform="translate(512.158203 0)"/>
      <use xlink:href="#SegoeUI-70" transform="translate(570.947266 0)"/>
      <use xlink:href="#SegoeUI-6f" transform="translate(629.736328 0)"/>
      <use xlink:href="#SegoeUI-72" transform="translate(688.330078 0)"/>
      <use xlink:href="#SegoeUI-74" transform="translate(725.970703 0)"/>
      <use xlink:href="#SegoeUI-2c" transform="translate(759.857422 0)"/>
      <use xlink:href="#SegoeUI-20" transform="translate(781.537109 0)"/>
      <use xlink:href="#SegoeUI-6e" transform="translate(808.929688 0)"/>
      <use xlink:href="#SegoeUI-20" transform="translate(865.521484 0)"/>
      <use xlink:href="#SegoeUI-3d" transform="translate(892.914062 0)"/>
      <use xlink:href="#SegoeUI-20" transform="translate(961.322266 0)"/>
      <use xlink:href="#SegoeUI-31" transform="translate(988.714844 0)"/>
      <use xlink:href="#SegoeUI-39" transform="translate(1042.621094 0)"/>
      <use xlink:href="#SegoeUI-34" transform="translate(1096.527344 0)"/>
      <use xlink:href="#SegoeUI-30" transform="translate(1150.433594 0)"/>
      <use xlink:href="#SegoeUI-29" transform="translate(1204.339844 0)"/>
     </g>
    </g>
   </g>
   <g id="matplotlib.axis_2">
    <g id="ytick_1">
     <g id="line2d_13">
      <path d="M 98.617188 81.391318 
L 563.802187 81.391318 
" clip-path="url(#p7087e415b3)" style="fill: none; stroke: #d9dee7; stroke-opacity: 0.55; stroke-width: 0.7; stroke-linecap: square"/>
     </g>
     <g id="line2d_14">
      <defs>
       <path id="m4cb1174f69" d="M 0 0 
L -3.5 0 
" style="stroke: #111827; stroke-width: 0.8"/>
      </defs>
      <g>
       <use xlink:href="#m4cb1174f69" x="98.617188" y="81.391318" style="fill: #111827; stroke: #111827; stroke-width: 0.8"/>
      </g>
     </g>
     <g id="text_8">
      <!-- Intercept only -->
      <g style="fill: #111827" transform="translate(36.862031 84.722724) scale(0.09 -0.09)">
       <defs>
        <path id="SegoeUI-49" d="M 1113 0 
L 588 0 
L 588 4481 
L 1113 4481 
L 1113 0 
z
" transform="scale(0.015625)"/>
        <path id="SegoeUI-63" d="M 2700 147 
Q 2331 -75 1825 -75 
Q 1141 -75 720 370 
Q 300 816 300 1525 
Q 300 2316 753 2795 
Q 1206 3275 1963 3275 
Q 2384 3275 2706 3119 
L 2706 2594 
Q 2350 2844 1944 2844 
Q 1453 2844 1139 2492 
Q 825 2141 825 1569 
Q 825 1006 1120 681 
Q 1416 356 1913 356 
Q 2331 356 2700 634 
L 2700 147 
z
" transform="scale(0.015625)"/>
        <path id="SegoeUI-6c" d="M 1031 0 
L 519 0 
L 519 4738 
L 1031 4738 
L 1031 0 
z
" transform="scale(0.015625)"/>
        <path id="SegoeUI-79" d="M 3066 3200 
L 1594 -513 
Q 1200 -1506 488 -1506 
Q 288 -1506 153 -1466 
L 153 -1006 
Q 319 -1063 456 -1063 
Q 844 -1063 1038 -600 
L 1294 6 
L 44 3200 
L 613 3200 
L 1478 738 
Q 1494 691 1544 494 
L 1563 494 
Q 1578 569 1625 731 
L 2534 3200 
L 3066 3200 
z
" transform="scale(0.015625)"/>
       </defs>
       <use xlink:href="#SegoeUI-49"/>
       <use xlink:href="#SegoeUI-6e" transform="translate(26.611328 0)"/>
       <use xlink:href="#SegoeUI-74" transform="translate(83.203125 0)"/>
       <use xlink:href="#SegoeUI-65" transform="translate(116.339844 0)"/>
       <use xlink:href="#SegoeUI-72" transform="translate(168.634766 0)"/>
       <use xlink:href="#SegoeUI-63" transform="translate(202.025391 0)"/>
       <use xlink:href="#SegoeUI-65" transform="translate(248.216797 0)"/>
       <use xlink:href="#SegoeUI-70" transform="translate(300.511719 0)"/>
       <use xlink:href="#SegoeUI-74" transform="translate(359.300781 0)"/>
       <use xlink:href="#SegoeUI-20" transform="translate(393.1875 0)"/>
       <use xlink:href="#SegoeUI-6f" transform="translate(420.580078 0)"/>
       <use xlink:href="#SegoeUI-6e" transform="translate(479.173828 0)"/>
       <use xlink:href="#SegoeUI-6c" transform="translate(535.765625 0)"/>
       <use xlink:href="#SegoeUI-79" transform="translate(559.984375 0)"/>
      </g>
     </g>
    </g>
    <g id="ytick_2">
     <g id="line2d_15">
      <path d="M 98.617188 110.160246 
L 563.802187 110.160246 
" clip-path="url(#p7087e415b3)" style="fill: none; stroke: #d9dee7; stroke-opacity: 0.55; stroke-width: 0.7; stroke-linecap: square"/>
     </g>
     <g id="line2d_16">
      <g>
       <use xlink:href="#m4cb1174f69" x="98.617188" y="110.160246" style="fill: #111827; stroke: #111827; stroke-width: 0.8"/>
      </g>
     </g>
     <g id="text_9">
      <!-- Macro -->
      <g style="fill: #111827" transform="translate(66.52125 113.491652) scale(0.09 -0.09)">
       <defs>
        <path id="SegoeUI-4d" d="M 5156 0 
L 4634 0 
L 4634 3006 
Q 4634 3363 4678 3878 
L 4666 3878 
Q 4591 3575 4531 3444 
L 3000 0 
L 2744 0 
L 1216 3419 
Q 1150 3569 1081 3878 
L 1069 3878 
Q 1094 3609 1094 3000 
L 1094 0 
L 588 0 
L 588 4481 
L 1281 4481 
L 2656 1356 
Q 2816 997 2863 819 
L 2881 819 
Q 3016 1188 3097 1369 
L 4500 4481 
L 5156 4481 
L 5156 0 
z
" transform="scale(0.015625)"/>
       </defs>
       <use xlink:href="#SegoeUI-4d"/>
       <use xlink:href="#SegoeUI-61" transform="translate(89.794922 0)"/>
       <use xlink:href="#SegoeUI-63" transform="translate(140.673828 0)"/>
       <use xlink:href="#SegoeUI-72" transform="translate(186.865234 0)"/>
       <use xlink:href="#SegoeUI-6f" transform="translate(220.255859 0)"/>
      </g>
     </g>
    </g>
    <g id="ytick_3">
     <g id="line2d_17">
      <path d="M 98.617188 138.929174 
L 563.802187 138.929174 
" clip-path="url(#p7087e415b3)" style="fill: none; stroke: #d9dee7; stroke-opacity: 0.55; stroke-width: 0.7; stroke-linecap: square"/>
     </g>
     <g id="line2d_18">
      <g>
       <use xlink:href="#m4cb1174f69" x="98.617188" y="138.929174" style="fill: #111827; stroke: #111827; stroke-width: 0.8"/>
      </g>
     </g>
     <g id="text_10">
      <!-- + TradFi -->
      <g style="fill: #111827" transform="translate(59.485781 142.260581) scale(0.09 -0.09)">
       <defs>
        <path id="SegoeUI-2b" d="M 3663 1656 
L 2400 1656 
L 2400 397 
L 1984 397 
L 1984 1656 
L 725 1656 
L 725 2075 
L 1984 2075 
L 1984 3334 
L 2400 3334 
L 2400 2075 
L 3663 2075 
L 3663 1656 
z
" transform="scale(0.015625)"/>
        <path id="SegoeUI-54" d="M 3238 4006 
L 1944 4006 
L 1944 0 
L 1419 0 
L 1419 4006 
L 128 4006 
L 128 4481 
L 3238 4481 
L 3238 4006 
z
" transform="scale(0.015625)"/>
        <path id="SegoeUI-64" d="M 3250 0 
L 2738 0 
L 2738 544 
L 2725 544 
Q 2369 -75 1625 -75 
Q 1022 -75 661 354 
Q 300 784 300 1525 
Q 300 2319 700 2797 
Q 1100 3275 1766 3275 
Q 2425 3275 2725 2756 
L 2738 2756 
L 2738 4738 
L 3250 4738 
L 3250 0 
z
M 2738 1447 
L 2738 1919 
Q 2738 2306 2481 2575 
Q 2225 2844 1831 2844 
Q 1363 2844 1094 2500 
Q 825 2156 825 1550 
Q 825 997 1083 676 
Q 1341 356 1775 356 
Q 2203 356 2470 665 
Q 2738 975 2738 1447 
z
" transform="scale(0.015625)"/>
        <path id="SegoeUI-46" d="M 2863 4006 
L 1113 4006 
L 1113 2456 
L 2731 2456 
L 2731 1984 
L 1113 1984 
L 1113 0 
L 588 0 
L 588 4481 
L 2863 4481 
L 2863 4006 
z
" transform="scale(0.015625)"/>
        <path id="SegoeUI-69" d="M 781 4013 
Q 644 4013 547 4106 
Q 450 4200 450 4344 
Q 450 4488 547 4583 
Q 644 4678 781 4678 
Q 922 4678 1020 4583 
Q 1119 4488 1119 4344 
Q 1119 4206 1020 4109 
Q 922 4013 781 4013 
z
M 1031 0 
L 519 0 
L 519 3200 
L 1031 3200 
L 1031 0 
z
" transform="scale(0.015625)"/>
       </defs>
       <use xlink:href="#SegoeUI-2b"/>
       <use xlink:href="#SegoeUI-20" transform="translate(68.408203 0)"/>
       <use xlink:href="#SegoeUI-54" transform="translate(95.800781 0)"/>
       <use xlink:href="#SegoeUI-72" transform="translate(139.443359 0)"/>
       <use xlink:href="#SegoeUI-61" transform="translate(174.208984 0)"/>
       <use xlink:href="#SegoeUI-64" transform="translate(225.087891 0)"/>
       <use xlink:href="#SegoeUI-46" transform="translate(283.974609 0)"/>
       <use xlink:href="#SegoeUI-69" transform="translate(332.802734 0)"/>
      </g>
     </g>
    </g>
    <g id="ytick_4">
     <g id="line2d_19">
      <path d="M 98.617188 167.698103 
L 563.802187 167.698103 
" clip-path="url(#p7087e415b3)" style="fill: none; stroke: #d9dee7; stroke-opacity: 0.55; stroke-width: 0.7; stroke-linecap: square"/>
     </g>
     <g id="line2d_20">
      <g>
       <use xlink:href="#m4cb1174f69" x="98.617188" y="167.698103" style="fill: #111827; stroke: #111827; stroke-width: 0.8"/>
      </g>
     </g>
     <g id="text_11">
      <!-- + Liquidity -->
      <g style="fill: #111827" transform="translate(49.120313 171.029509) scale(0.09 -0.09)">
       <defs>
        <path id="SegoeUI-4c" d="M 2913 0 
L 588 0 
L 588 4481 
L 1113 4481 
L 1113 475 
L 2913 475 
L 2913 0 
z
" transform="scale(0.015625)"/>
        <path id="SegoeUI-71" d="M 3250 -1472 
L 2738 -1472 
L 2738 550 
L 2725 550 
Q 2391 -75 1631 -75 
Q 1028 -75 664 354 
Q 300 784 300 1525 
Q 300 2322 700 2798 
Q 1100 3275 1775 3275 
Q 2431 3275 2725 2756 
L 2738 2756 
L 2738 3200 
L 3250 3200 
L 3250 -1472 
z
M 2738 1441 
L 2738 1906 
Q 2738 2300 2480 2572 
Q 2222 2844 1825 2844 
Q 1363 2844 1094 2501 
Q 825 2159 825 1538 
Q 825 984 1084 670 
Q 1344 356 1753 356 
Q 2203 356 2470 664 
Q 2738 972 2738 1441 
z
" transform="scale(0.015625)"/>
       </defs>
       <use xlink:href="#SegoeUI-2b"/>
       <use xlink:href="#SegoeUI-20" transform="translate(68.408203 0)"/>
       <use xlink:href="#SegoeUI-4c" transform="translate(95.800781 0)"/>
       <use xlink:href="#SegoeUI-69" transform="translate(142.871094 0)"/>
       <use xlink:href="#SegoeUI-71" transform="translate(167.089844 0)"/>
       <use xlink:href="#SegoeUI-75" transform="translate(225.976562 0)"/>
       <use xlink:href="#SegoeUI-69" transform="translate(282.568359 0)"/>
       <use xlink:href="#SegoeUI-64" transform="translate(306.787109 0)"/>
       <use xlink:href="#SegoeUI-69" transform="translate(365.673828 0)"/>
       <use xlink:href="#SegoeUI-74" transform="translate(389.892578 0)"/>
       <use xlink:href="#SegoeUI-79" transform="translate(423.779297 0)"/>
      </g>
     </g>
    </g>
    <g id="ytick_5">
     <g id="line2d_21">
      <path d="M 98.617188 196.467031 
L 563.802187 196.467031 
" clip-path="url(#p7087e415b3)" style="fill: none; stroke: #d9dee7; stroke-opacity: 0.55; stroke-width: 0.7; stroke-linecap: square"/>
     </g>
     <g id="line2d_22">
      <g>
       <use xlink:href="#m4cb1174f69" x="98.617188" y="196.467031" style="fill: #111827; stroke: #111827; stroke-width: 0.8"/>
      </g>
     </g>
     <g id="text_12">
      <!-- + Sentiment -->
      <g style="fill: #111827" transform="translate(42.58125 199.798437) scale(0.09 -0.09)">
       <defs>
        <path id="SegoeUI-53" d="M 378 181 
L 378 800 
Q 484 706 632 631 
Q 781 556 945 504 
Q 1109 453 1275 425 
Q 1441 397 1581 397 
Q 2066 397 2305 576 
Q 2544 756 2544 1094 
Q 2544 1275 2464 1409 
Q 2384 1544 2243 1655 
Q 2103 1766 1911 1867 
Q 1719 1969 1497 2081 
Q 1263 2200 1059 2322 
Q 856 2444 706 2591 
Q 556 2738 470 2923 
Q 384 3109 384 3359 
Q 384 3666 518 3892 
Q 653 4119 872 4266 
Q 1091 4413 1370 4484 
Q 1650 4556 1941 4556 
Q 2603 4556 2906 4397 
L 2906 3806 
Q 2509 4081 1888 4081 
Q 1716 4081 1544 4045 
Q 1372 4009 1237 3928 
Q 1103 3847 1018 3719 
Q 934 3591 934 3406 
Q 934 3234 998 3109 
Q 1063 2984 1188 2881 
Q 1313 2778 1492 2681 
Q 1672 2584 1906 2469 
Q 2147 2350 2362 2219 
Q 2578 2088 2740 1928 
Q 2903 1769 2998 1575 
Q 3094 1381 3094 1131 
Q 3094 800 2964 570 
Q 2834 341 2614 197 
Q 2394 53 2106 -11 
Q 1819 -75 1500 -75 
Q 1394 -75 1237 -58 
Q 1081 -41 918 -8 
Q 756 25 611 73 
Q 466 122 378 181 
z
" transform="scale(0.015625)"/>
       </defs>
       <use xlink:href="#SegoeUI-2b"/>
       <use xlink:href="#SegoeUI-20" transform="translate(68.408203 0)"/>
       <use xlink:href="#SegoeUI-53" transform="translate(95.800781 0)"/>
       <use xlink:href="#SegoeUI-65" transform="translate(148.925781 0)"/>
       <use xlink:href="#SegoeUI-6e" transform="translate(201.220703 0)"/>
       <use xlink:href="#SegoeUI-74" transform="translate(257.8125 0)"/>
       <use xlink:href="#SegoeUI-69" transform="translate(291.699219 0)"/>
       <use xlink:href="#SegoeUI-6d" transform="translate(315.917969 0)"/>
       <use xlink:href="#SegoeUI-65" transform="translate(402.050781 0)"/>
       <use xlink:href="#SegoeUI-6e" transform="translate(454.345703 0)"/>
       <use xlink:href="#SegoeUI-74" transform="translate(510.9375 0)"/>
      </g>
     </g>
    </g>
    <g id="ytick_6">
     <g id="line2d_23">
      <path d="M 98.617188 225.23596 
L 563.802187 225.23596 
" clip-path="url(#p7087e415b3)" style="fill: none; stroke: #d9dee7; stroke-opacity: 0.55; stroke-width: 0.7; stroke-linecap: square"/>
     </g>
     <g id="line2d_24">
      <g>
       <use xlink:href="#m4cb1174f69" x="98.617188" y="225.23596" style="fill: #111827; stroke: #111827; stroke-width: 0.8"/>
      </g>
     </g>
     <g id="text_13">
      <!-- + Native ex-MVRV -->
      <g style="fill: #111827" transform="translate(17.945156 228.567366) scale(0.09 -0.09)">
       <defs>
        <path id="SegoeUI-4e" d="M 4200 0 
L 3556 0 
L 1250 3572 
Q 1163 3706 1106 3853 
L 1088 3853 
Q 1113 3709 1113 3238 
L 1113 0 
L 588 0 
L 588 4481 
L 1269 4481 
L 3513 966 
Q 3653 747 3694 666 
L 3706 666 
Q 3675 859 3675 1325 
L 3675 4481 
L 4200 4481 
L 4200 0 
z
" transform="scale(0.015625)"/>
        <path id="SegoeUI-76" d="M 3034 3200 
L 1759 0 
L 1256 0 
L 44 3200 
L 606 3200 
L 1419 875 
Q 1509 619 1531 428 
L 1544 428 
Q 1575 669 1644 863 
L 2494 3200 
L 3034 3200 
z
" transform="scale(0.015625)"/>
        <path id="SegoeUI-78" d="M 2856 3200 
L 1781 1581 
L 2838 0 
L 2241 0 
L 1613 1038 
Q 1553 1134 1472 1281 
L 1459 1281 
Q 1444 1253 1313 1038 
L 672 0 
L 81 0 
L 1172 1569 
L 128 3200 
L 725 3200 
L 1344 2106 
Q 1413 1984 1478 1856 
L 1491 1856 
L 2291 3200 
L 2856 3200 
z
" transform="scale(0.015625)"/>
        <path id="SegoeUI-2d" d="M 2156 1581 
L 450 1581 
L 450 1984 
L 2156 1984 
L 2156 1581 
z
" transform="scale(0.015625)"/>
        <path id="SegoeUI-56" d="M 3919 4481 
L 2259 0 
L 1681 0 
L 56 4481 
L 641 4481 
L 1881 928 
Q 1941 756 1972 531 
L 1984 531 
Q 2009 719 2088 934 
L 3353 4481 
L 3919 4481 
z
" transform="scale(0.015625)"/>
       </defs>
       <use xlink:href="#SegoeUI-2b"/>
       <use xlink:href="#SegoeUI-20" transform="translate(68.408203 0)"/>
       <use xlink:href="#SegoeUI-4e" transform="translate(95.800781 0)"/>
       <use xlink:href="#SegoeUI-61" transform="translate(170.605469 0)"/>
       <use xlink:href="#SegoeUI-74" transform="translate(221.484375 0)"/>
       <use xlink:href="#SegoeUI-69" transform="translate(255.371094 0)"/>
       <use xlink:href="#SegoeUI-76" transform="translate(279.589844 0)"/>
       <use xlink:href="#SegoeUI-65" transform="translate(326.865234 0)"/>
       <use xlink:href="#SegoeUI-20" transform="translate(379.160156 0)"/>
       <use xlink:href="#SegoeUI-65" transform="translate(406.552734 0)"/>
       <use xlink:href="#SegoeUI-78" transform="translate(458.847656 0)"/>
       <use xlink:href="#SegoeUI-2d" transform="translate(504.746094 0)"/>
       <use xlink:href="#SegoeUI-4d" transform="translate(544.736328 0)"/>
       <use xlink:href="#SegoeUI-56" transform="translate(634.53125 0)"/>
       <use xlink:href="#SegoeUI-52" transform="translate(696.640625 0)"/>
       <use xlink:href="#SegoeUI-56" transform="translate(756.455078 0)"/>
      </g>
     </g>
    </g>
    <g id="ytick_7">
     <g id="line2d_25">
      <path d="M 98.617188 254.004888 
L 563.802187 254.004888 
" clip-path="url(#p7087e415b3)" style="fill: none; stroke: #d9dee7; stroke-opacity: 0.55; stroke-width: 0.7; stroke-linecap: square"/>
     </g>
     <g id="line2d_26">
      <g>
       <use xlink:href="#m4cb1174f69" x="98.617188" y="254.004888" style="fill: #111827; stroke: #111827; stroke-width: 0.8"/>
      </g>
     </g>
     <g id="text_14">
      <!-- + MVRV -->
      <g style="fill: #111827" transform="translate(58.350938 257.336294) scale(0.09 -0.09)">
       <use xlink:href="#SegoeUI-2b"/>
       <use xlink:href="#SegoeUI-20" transform="translate(68.408203 0)"/>
       <use xlink:href="#SegoeUI-4d" transform="translate(95.800781 0)"/>
       <use xlink:href="#SegoeUI-56" transform="translate(185.595703 0)"/>
       <use xlink:href="#SegoeUI-52" transform="translate(247.705078 0)"/>
       <use xlink:href="#SegoeUI-56" transform="translate(307.519531 0)"/>
      </g>
     </g>
    </g>
    <g id="ytick_8">
     <g id="line2d_27">
      <path d="M 98.617188 282.773816 
L 563.802187 282.773816 
" clip-path="url(#p7087e415b3)" style="fill: none; stroke: #d9dee7; stroke-opacity: 0.55; stroke-width: 0.7; stroke-linecap: square"/>
     </g>
     <g id="line2d_28">
      <g>
       <use xlink:href="#m4cb1174f69" x="98.617188" y="282.773816" style="fill: #111827; stroke: #111827; stroke-width: 0.8"/>
      </g>
     </g>
     <g id="text_15">
      <!-- MVRV only -->
      <g style="fill: #111827" transform="translate(47.605781 286.105223) scale(0.09 -0.09)">
       <use xlink:href="#SegoeUI-4d"/>
       <use xlink:href="#SegoeUI-56" transform="translate(89.794922 0)"/>
       <use xlink:href="#SegoeUI-52" transform="translate(151.904297 0)"/>
       <use xlink:href="#SegoeUI-56" transform="translate(211.71875 0)"/>
       <use xlink:href="#SegoeUI-20" transform="translate(273.828125 0)"/>
       <use xlink:href="#SegoeUI-6f" transform="translate(301.220703 0)"/>
       <use xlink:href="#SegoeUI-6e" transform="translate(359.814453 0)"/>
       <use xlink:href="#SegoeUI-6c" transform="translate(416.40625 0)"/>
       <use xlink:href="#SegoeUI-79" transform="translate(440.625 0)"/>
      </g>
     </g>
    </g>
    <g id="ytick_9">
     <g id="line2d_29">
      <path d="M 98.617188 311.542745 
L 563.802187 311.542745 
" clip-path="url(#p7087e415b3)" style="fill: none; stroke: #d9dee7; stroke-opacity: 0.55; stroke-width: 0.7; stroke-linecap: square"/>
     </g>
     <g id="line2d_30">
      <g>
       <use xlink:href="#m4cb1174f69" x="98.617188" y="311.542745" style="fill: #111827; stroke: #111827; stroke-width: 0.8"/>
      </g>
     </g>
     <g id="text_16">
      <!-- Native ex-MVRV only -->
      <g style="fill: #111827" transform="translate(7.2 314.874151) scale(0.09 -0.09)">
       <use xlink:href="#SegoeUI-4e"/>
       <use xlink:href="#SegoeUI-61" transform="translate(74.804688 0)"/>
       <use xlink:href="#SegoeUI-74" transform="translate(125.683594 0)"/>
       <use xlink:href="#SegoeUI-69" transform="translate(159.570312 0)"/>
       <use xlink:href="#SegoeUI-76" transform="translate(183.789062 0)"/>
       <use xlink:href="#SegoeUI-65" transform="translate(231.064453 0)"/>
       <use xlink:href="#SegoeUI-20" transform="translate(283.359375 0)"/>
       <use xlink:href="#SegoeUI-65" transform="translate(310.751953 0)"/>
       <use xlink:href="#SegoeUI-78" transform="translate(363.046875 0)"/>
       <use xlink:href="#SegoeUI-2d" transform="translate(408.945312 0)"/>
       <use xlink:href="#SegoeUI-4d" transform="translate(448.935547 0)"/>
       <use xlink:href="#SegoeUI-56" transform="translate(538.730469 0)"/>
       <use xlink:href="#SegoeUI-52" transform="translate(600.839844 0)"/>
       <use xlink:href="#SegoeUI-56" transform="translate(660.654297 0)"/>
       <use xlink:href="#SegoeUI-20" transform="translate(722.763672 0)"/>
       <use xlink:href="#SegoeUI-6f" transform="translate(750.15625 0)"/>
       <use xlink:href="#SegoeUI-6e" transform="translate(808.75 0)"/>
       <use xlink:href="#SegoeUI-6c" transform="translate(865.341797 0)"/>
       <use xlink:href="#SegoeUI-79" transform="translate(889.560547 0)"/>
      </g>
     </g>
    </g>
   </g>
   <g id="text_17">
    <!-- 0.000 -->
    <g style="fill: #111827" transform="translate(103.047521 83.687724) scale(0.09 -0.09)">
     <use xlink:href="#SegoeUI-30"/>
     <use xlink:href="#SegoeUI-2e" transform="translate(53.90625 0)"/>
     <use xlink:href="#SegoeUI-30" transform="translate(75.585938 0)"/>
     <use xlink:href="#SegoeUI-30" transform="translate(129.492188 0)"/>
     <use xlink:href="#SegoeUI-30" transform="translate(183.398438 0)"/>
    </g>
   </g>
   <g id="text_18">
    <!-- 0.118 -->
    <g style="fill: #111827" transform="translate(155.521275 112.456652) scale(0.09 -0.09)">
     <use xlink:href="#SegoeUI-30"/>
     <use xlink:href="#SegoeUI-2e" transform="translate(53.90625 0)"/>
     <use xlink:href="#SegoeUI-31" transform="translate(75.585938 0)"/>
     <use xlink:href="#SegoeUI-31" transform="translate(129.492188 0)"/>
     <use xlink:href="#SegoeUI-38" transform="translate(183.398438 0)"/>
    </g>
   </g>
   <g id="text_19">
    <!-- 0.141 -->
    <g style="fill: #111827" transform="translate(165.355729 141.225581) scale(0.09 -0.09)">
     <use xlink:href="#SegoeUI-30"/>
     <use xlink:href="#SegoeUI-2e" transform="translate(53.90625 0)"/>
     <use xlink:href="#SegoeUI-31" transform="translate(75.585938 0)"/>
     <use xlink:href="#SegoeUI-34" transform="translate(129.492188 0)"/>
     <use xlink:href="#SegoeUI-31" transform="translate(183.398438 0)"/>
    </g>
   </g>
   <g id="text_20">
    <!-- 0.141 -->
    <g style="fill: #111827" transform="translate(165.449652 169.994509) scale(0.09 -0.09)">
     <use xlink:href="#SegoeUI-30"/>
     <use xlink:href="#SegoeUI-2e" transform="translate(53.90625 0)"/>
     <use xlink:href="#SegoeUI-31" transform="translate(75.585938 0)"/>
     <use xlink:href="#SegoeUI-34" transform="translate(129.492188 0)"/>
     <use xlink:href="#SegoeUI-31" transform="translate(183.398438 0)"/>
    </g>
   </g>
   <g id="text_21">
    <!-- 0.144 -->
    <g style="fill: #111827" transform="translate(166.657361 198.763437) scale(0.09 -0.09)">
     <use xlink:href="#SegoeUI-30"/>
     <use xlink:href="#SegoeUI-2e" transform="translate(53.90625 0)"/>
     <use xlink:href="#SegoeUI-31" transform="translate(75.585938 0)"/>
     <use xlink:href="#SegoeUI-34" transform="translate(129.492188 0)"/>
     <use xlink:href="#SegoeUI-34" transform="translate(183.398438 0)"/>
    </g>
   </g>
   <g id="text_22">
    <!-- 0.146 -->
    <g style="fill: #111827" transform="translate(167.727286 227.532366) scale(0.09 -0.09)">
     <use xlink:href="#SegoeUI-30"/>
     <use xlink:href="#SegoeUI-2e" transform="translate(53.90625 0)"/>
     <use xlink:href="#SegoeUI-31" transform="translate(75.585938 0)"/>
     <use xlink:href="#SegoeUI-34" transform="translate(129.492188 0)"/>
     <use xlink:href="#SegoeUI-36" transform="translate(183.398438 0)"/>
    </g>
   </g>
   <g id="text_23">
    <!-- 0.921 -->
    <g style="fill: #111827" transform="translate(510.970019 256.301294) scale(0.09 -0.09)">
     <use xlink:href="#SegoeUI-30"/>
     <use xlink:href="#SegoeUI-2e" transform="translate(53.90625 0)"/>
     <use xlink:href="#SegoeUI-39" transform="translate(75.585938 0)"/>
     <use xlink:href="#SegoeUI-32" transform="translate(129.492188 0)"/>
     <use xlink:href="#SegoeUI-31" transform="translate(183.398438 0)"/>
    </g>
   </g>
   <g id="text_24">
    <!-- 0.915 -->
    <g style="fill: #111827" transform="translate(508.589158 285.070223) scale(0.09 -0.09)">
     <defs>
      <path id="SegoeUI-35" d="M 3028 1369 
Q 3028 1041 2915 775 
Q 2803 509 2595 318 
Q 2388 128 2094 25 
Q 1800 -78 1441 -78 
Q 816 -78 513 109 
L 513 653 
Q 969 359 1447 359 
Q 1691 359 1886 431 
Q 2081 503 2218 631 
Q 2356 759 2429 940 
Q 2503 1122 2503 1338 
Q 2503 1775 2209 2023 
Q 1916 2272 1356 2272 
Q 1266 2272 1166 2269 
Q 1066 2266 966 2261 
Q 866 2256 770 2250 
Q 675 2244 597 2234 
L 750 4481 
L 2822 4481 
L 2822 4019 
L 1194 4019 
L 1103 2703 
Q 1203 2709 1315 2714 
Q 1428 2719 1516 2719 
Q 1872 2719 2153 2625 
Q 2434 2531 2629 2357 
Q 2825 2184 2926 1932 
Q 3028 1681 3028 1369 
z
" transform="scale(0.015625)"/>
     </defs>
     <use xlink:href="#SegoeUI-30"/>
     <use xlink:href="#SegoeUI-2e" transform="translate(53.90625 0)"/>
     <use xlink:href="#SegoeUI-39" transform="translate(75.585938 0)"/>
     <use xlink:href="#SegoeUI-31" transform="translate(129.492188 0)"/>
     <use xlink:href="#SegoeUI-35" transform="translate(183.398438 0)"/>
    </g>
   </g>
   <g id="text_25">
    <!-- 0.004 -->
    <g style="fill: #111827" transform="translate(104.617631 313.839151) scale(0.09 -0.09)">
     <use xlink:href="#SegoeUI-30"/>
     <use xlink:href="#SegoeUI-2e" transform="translate(53.90625 0)"/>
     <use xlink:href="#SegoeUI-30" transform="translate(75.585938 0)"/>
     <use xlink:href="#SegoeUI-30" transform="translate(129.492188 0)"/>
     <use xlink:href="#SegoeUI-34" transform="translate(183.398438 0)"/>
    </g>
   </g>
  </g>
  <g id="text_26">
   <!-- BTC Same-Support Model Ablation -->
   <g style="fill: #111827" transform="translate(134.286875 17.564375) scale(0.14 -0.14)">
    <defs>
     <path id="SegoeUI-Bold-42" d="M 513 0 
L 513 4481 
L 2144 4481 
Q 2894 4481 3297 4206 
Q 3700 3931 3700 3431 
Q 3700 3069 3454 2797 
Q 3209 2525 2828 2419 
L 2828 2406 
Q 3306 2347 3592 2053 
Q 3878 1759 3878 1338 
Q 3878 722 3437 361 
Q 2997 0 2234 0 
L 513 0 
z
M 1522 3738 
L 1522 2675 
L 1966 2675 
Q 2278 2675 2458 2826 
Q 2638 2978 2638 3244 
Q 2638 3738 1900 3738 
L 1522 3738 
z
M 1522 1925 
L 1522 744 
L 2069 744 
Q 2419 744 2617 906 
Q 2816 1069 2816 1350 
Q 2816 1619 2620 1772 
Q 2425 1925 2075 1925 
L 1522 1925 
z
" transform="scale(0.015625)"/>
     <path id="SegoeUI-Bold-54" d="M 3659 3659 
L 2381 3659 
L 2381 0 
L 1369 0 
L 1369 3659 
L 97 3659 
L 97 4481 
L 3659 4481 
L 3659 3659 
z
" transform="scale(0.015625)"/>
     <path id="SegoeUI-Bold-43" d="M 3725 159 
Q 3234 -78 2444 -78 
Q 1413 -78 822 528 
Q 231 1134 231 2144 
Q 231 3219 895 3887 
Q 1559 4556 2619 4556 
Q 3275 4556 3725 4391 
L 3725 3419 
Q 3275 3688 2700 3688 
Q 2069 3688 1681 3291 
Q 1294 2894 1294 2216 
Q 1294 1566 1659 1180 
Q 2025 794 2644 794 
Q 3234 794 3725 1081 
L 3725 159 
z
" transform="scale(0.015625)"/>
     <path id="SegoeUI-Bold-20" transform="scale(0.015625)"/>
     <path id="SegoeUI-Bold-53" d="M 306 172 
L 306 1172 
Q 578 944 897 830 
Q 1216 716 1541 716 
Q 1731 716 1873 750 
Q 2016 784 2111 845 
Q 2206 906 2253 989 
Q 2300 1072 2300 1169 
Q 2300 1300 2225 1403 
Q 2150 1506 2020 1593 
Q 1891 1681 1712 1762 
Q 1534 1844 1328 1928 
Q 803 2147 545 2462 
Q 288 2778 288 3225 
Q 288 3575 428 3826 
Q 569 4078 811 4240 
Q 1053 4403 1372 4479 
Q 1691 4556 2047 4556 
Q 2397 4556 2667 4514 
Q 2938 4472 3166 4384 
L 3166 3450 
Q 3053 3528 2920 3587 
Q 2788 3647 2647 3686 
Q 2506 3725 2367 3744 
Q 2228 3763 2103 3763 
Q 1931 3763 1790 3730 
Q 1650 3697 1553 3637 
Q 1456 3578 1403 3495 
Q 1350 3413 1350 3309 
Q 1350 3197 1409 3108 
Q 1469 3019 1578 2939 
Q 1688 2859 1844 2782 
Q 2000 2706 2197 2625 
Q 2466 2513 2680 2386 
Q 2894 2259 3047 2100 
Q 3200 1941 3281 1736 
Q 3363 1531 3363 1259 
Q 3363 884 3220 629 
Q 3078 375 2834 217 
Q 2591 59 2267 -9 
Q 1944 -78 1584 -78 
Q 1216 -78 883 -15 
Q 550 47 306 172 
z
" transform="scale(0.015625)"/>
     <path id="SegoeUI-Bold-61" d="M 3078 0 
L 2144 0 
L 2144 459 
L 2131 459 
Q 1809 -78 1178 -78 
Q 713 -78 445 186 
Q 178 450 178 891 
Q 178 1822 1281 1966 
L 2150 2081 
Q 2150 2606 1581 2606 
Q 1009 2606 494 2266 
L 494 3009 
Q 700 3116 1058 3197 
Q 1416 3278 1709 3278 
Q 3078 3278 3078 1913 
L 3078 0 
z
M 2150 1300 
L 2150 1516 
L 1569 1441 
Q 1088 1378 1088 1006 
Q 1088 838 1205 730 
Q 1322 622 1522 622 
Q 1800 622 1975 814 
Q 2150 1006 2150 1300 
z
" transform="scale(0.015625)"/>
     <path id="SegoeUI-Bold-6d" d="M 5497 0 
L 4513 0 
L 4513 1825 
Q 4513 2522 4000 2522 
Q 3756 2522 3603 2312 
Q 3450 2103 3450 1791 
L 3450 0 
L 2463 0 
L 2463 1844 
Q 2463 2522 1959 2522 
Q 1706 2522 1554 2322 
Q 1403 2122 1403 1778 
L 1403 0 
L 416 0 
L 416 3200 
L 1403 3200 
L 1403 2700 
L 1416 2700 
Q 1569 2956 1845 3117 
Q 2122 3278 2450 3278 
Q 3128 3278 3378 2681 
Q 3744 3278 4453 3278 
Q 5497 3278 5497 1991 
L 5497 0 
z
" transform="scale(0.015625)"/>
     <path id="SegoeUI-Bold-65" d="M 3291 1319 
L 1203 1319 
Q 1253 622 2081 622 
Q 2609 622 3009 872 
L 3009 159 
Q 2566 -78 1856 -78 
Q 1081 -78 653 351 
Q 225 781 225 1550 
Q 225 2347 687 2812 
Q 1150 3278 1825 3278 
Q 2525 3278 2908 2862 
Q 3291 2447 3291 1734 
L 3291 1319 
z
M 2375 1925 
Q 2375 2613 1819 2613 
Q 1581 2613 1407 2416 
Q 1234 2219 1197 1925 
L 2375 1925 
z
" transform="scale(0.015625)"/>
     <path id="SegoeUI-Bold-2d" d="M 2156 1363 
L 447 1363 
L 447 2053 
L 2156 2053 
L 2156 1363 
z
" transform="scale(0.015625)"/>
     <path id="SegoeUI-Bold-75" d="M 3456 0 
L 2472 0 
L 2472 488 
L 2456 488 
Q 2091 -78 1478 -78 
Q 366 -78 366 1269 
L 366 3200 
L 1350 3200 
L 1350 1356 
Q 1350 678 1888 678 
Q 2153 678 2312 864 
Q 2472 1050 2472 1369 
L 2472 3200 
L 3456 3200 
L 3456 0 
z
" transform="scale(0.015625)"/>
     <path id="SegoeUI-Bold-70" d="M 1416 372 
L 1403 372 
L 1403 -1472 
L 416 -1472 
L 416 3200 
L 1403 3200 
L 1403 2719 
L 1416 2719 
Q 1781 3278 2444 3278 
Q 3066 3278 3405 2851 
Q 3744 2425 3744 1691 
Q 3744 891 3348 406 
Q 2953 -78 2297 -78 
Q 1719 -78 1416 372 
z
M 1388 1684 
L 1388 1428 
Q 1388 1097 1563 887 
Q 1738 678 2022 678 
Q 2359 678 2545 939 
Q 2731 1200 2731 1678 
Q 2731 2522 2075 2522 
Q 1772 2522 1580 2292 
Q 1388 2063 1388 1684 
z
" transform="scale(0.015625)"/>
     <path id="SegoeUI-Bold-6f" d="M 1941 -78 
Q 1141 -78 683 370 
Q 225 819 225 1588 
Q 225 2381 700 2829 
Q 1175 3278 1984 3278 
Q 2781 3278 3234 2829 
Q 3688 2381 3688 1644 
Q 3688 847 3220 384 
Q 2753 -78 1941 -78 
z
M 1966 2522 
Q 1616 2522 1422 2281 
Q 1228 2041 1228 1600 
Q 1228 678 1972 678 
Q 2681 678 2681 1625 
Q 2681 2522 1966 2522 
z
" transform="scale(0.015625)"/>
     <path id="SegoeUI-Bold-72" d="M 2503 2309 
Q 2325 2406 2088 2406 
Q 1766 2406 1584 2170 
Q 1403 1934 1403 1528 
L 1403 0 
L 416 0 
L 416 3200 
L 1403 3200 
L 1403 2606 
L 1416 2606 
Q 1650 3256 2259 3256 
Q 2416 3256 2503 3219 
L 2503 2309 
z
" transform="scale(0.015625)"/>
     <path id="SegoeUI-Bold-74" d="M 2350 38 
Q 2131 -78 1691 -78 
Q 647 -78 647 1006 
L 647 2472 
L 128 2472 
L 128 3200 
L 647 3200 
L 647 3891 
L 1631 4172 
L 1631 3200 
L 2350 3200 
L 2350 2472 
L 1631 2472 
L 1631 1178 
Q 1631 678 2028 678 
Q 2184 678 2350 769 
L 2350 38 
z
" transform="scale(0.015625)"/>
     <path id="SegoeUI-Bold-4d" d="M 5619 0 
L 4622 0 
L 4622 2681 
Q 4622 3116 4659 3641 
L 4634 3641 
Q 4556 3228 4494 3047 
L 3444 0 
L 2619 0 
L 1550 3016 
Q 1506 3138 1409 3641 
L 1381 3641 
Q 1422 2978 1422 2478 
L 1422 0 
L 513 0 
L 513 4481 
L 1991 4481 
L 2906 1825 
Q 3016 1506 3066 1184 
L 3084 1184 
Q 3169 1556 3263 1831 
L 4178 4481 
L 5619 4481 
L 5619 0 
z
" transform="scale(0.015625)"/>
     <path id="SegoeUI-Bold-64" d="M 3547 0 
L 2559 0 
L 2559 441 
L 2547 441 
Q 2209 -78 1556 -78 
Q 956 -78 590 345 
Q 225 769 225 1528 
Q 225 2322 628 2800 
Q 1031 3278 1684 3278 
Q 2303 3278 2547 2834 
L 2559 2834 
L 2559 4738 
L 3547 4738 
L 3547 0 
z
M 2578 1556 
L 2578 1797 
Q 2578 2109 2397 2315 
Q 2216 2522 1925 2522 
Q 1597 2522 1412 2264 
Q 1228 2006 1228 1556 
Q 1228 1134 1406 906 
Q 1584 678 1900 678 
Q 2200 678 2389 918 
Q 2578 1159 2578 1556 
z
" transform="scale(0.015625)"/>
     <path id="SegoeUI-Bold-6c" d="M 1403 0 
L 416 0 
L 416 4738 
L 1403 4738 
L 1403 0 
z
" transform="scale(0.015625)"/>
     <path id="SegoeUI-Bold-41" d="M 4453 0 
L 3353 0 
L 3034 997 
L 1441 997 
L 1125 0 
L 31 0 
L 1663 4481 
L 2859 4481 
L 4453 0 
z
M 2803 1772 
L 2322 3278 
Q 2269 3447 2247 3681 
L 2222 3681 
Q 2206 3484 2144 3291 
L 1656 1772 
L 2803 1772 
z
" transform="scale(0.015625)"/>
     <path id="SegoeUI-Bold-62" d="M 1416 372 
L 1403 372 
L 1403 0 
L 416 0 
L 416 4738 
L 1403 4738 
L 1403 2719 
L 1416 2719 
Q 1781 3278 2456 3278 
Q 3075 3278 3409 2853 
Q 3744 2428 3744 1691 
Q 3744 891 3353 406 
Q 2963 -78 2309 -78 
Q 1719 -78 1416 372 
z
M 1388 1722 
L 1388 1394 
Q 1388 1084 1566 881 
Q 1744 678 2022 678 
Q 2359 678 2545 939 
Q 2731 1200 2731 1678 
Q 2731 2075 2561 2298 
Q 2391 2522 2075 2522 
Q 1778 2522 1583 2300 
Q 1388 2078 1388 1722 
z
" transform="scale(0.015625)"/>
     <path id="SegoeUI-Bold-69" d="M 916 3706 
Q 666 3706 506 3854 
Q 347 4003 347 4219 
Q 347 4441 506 4581 
Q 666 4722 916 4722 
Q 1169 4722 1326 4581 
Q 1484 4441 1484 4219 
Q 1484 3994 1326 3850 
Q 1169 3706 916 3706 
z
M 1403 0 
L 416 0 
L 416 3200 
L 1403 3200 
L 1403 0 
z
" transform="scale(0.015625)"/>
     <path id="SegoeUI-Bold-6e" d="M 3506 0 
L 2522 0 
L 2522 1778 
Q 2522 2522 1991 2522 
Q 1734 2522 1568 2325 
Q 1403 2128 1403 1825 
L 1403 0 
L 416 0 
L 416 3200 
L 1403 3200 
L 1403 2694 
L 1416 2694 
Q 1769 3278 2444 3278 
Q 3506 3278 3506 1959 
L 3506 0 
z
" transform="scale(0.015625)"/>
    </defs>
    <use xlink:href="#SegoeUI-Bold-42"/>
    <use xlink:href="#SegoeUI-Bold-54" transform="translate(61.736328 0)"/>
    <use xlink:href="#SegoeUI-Bold-43" transform="translate(116.830078 0)"/>
    <use xlink:href="#SegoeUI-Bold-20" transform="translate(179.232422 0)"/>
    <use xlink:href="#SegoeUI-Bold-53" transform="translate(206.820312 0)"/>
    <use xlink:href="#SegoeUI-Bold-61" transform="translate(262.875 0)"/>
    <use xlink:href="#SegoeUI-Bold-6d" transform="translate(316.683594 0)"/>
    <use xlink:href="#SegoeUI-Bold-65" transform="translate(408.285156 0)"/>
    <use xlink:href="#SegoeUI-Bold-2d" transform="translate(462.386719 0)"/>
    <use xlink:href="#SegoeUI-Bold-53" transform="translate(502.816406 0)"/>
    <use xlink:href="#SegoeUI-Bold-75" transform="translate(558.871094 0)"/>
    <use xlink:href="#SegoeUI-Bold-70" transform="translate(619.369141 0)"/>
    <use xlink:href="#SegoeUI-Bold-70" transform="translate(681.380859 0)"/>
    <use xlink:href="#SegoeUI-Bold-6f" transform="translate(743.392578 0)"/>
    <use xlink:href="#SegoeUI-Bold-72" transform="translate(804.525391 0)"/>
    <use xlink:href="#SegoeUI-Bold-74" transform="translate(847.195312 0)"/>
    <use xlink:href="#SegoeUI-Bold-20" transform="translate(886.111328 0)"/>
    <use xlink:href="#SegoeUI-Bold-4d" transform="translate(913.699219 0)"/>
    <use xlink:href="#SegoeUI-Bold-6f" transform="translate(1009.402344 0)"/>
    <use xlink:href="#SegoeUI-Bold-64" transform="translate(1070.535156 0)"/>
    <use xlink:href="#SegoeUI-Bold-65" transform="translate(1132.449219 0)"/>
    <use xlink:href="#SegoeUI-Bold-6c" transform="translate(1186.550781 0)"/>
    <use xlink:href="#SegoeUI-Bold-20" transform="translate(1214.96875 0)"/>
    <use xlink:href="#SegoeUI-Bold-41" transform="translate(1242.556641 0)"/>
    <use xlink:href="#SegoeUI-Bold-62" transform="translate(1312.869141 0)"/>
    <use xlink:href="#SegoeUI-Bold-6c" transform="translate(1374.880859 0)"/>
    <use xlink:href="#SegoeUI-Bold-61" transform="translate(1403.298828 0)"/>
    <use xlink:href="#SegoeUI-Bold-74" transform="translate(1457.107422 0)"/>
    <use xlink:href="#SegoeUI-Bold-69" transform="translate(1496.023438 0)"/>
    <use xlink:href="#SegoeUI-Bold-6f" transform="translate(1524.441406 0)"/>
    <use xlink:href="#SegoeUI-Bold-6e" transform="translate(1585.574219 0)"/>
   </g>
  </g>
 </g>
 <defs>
  <clipPath id="p7087e415b3">
   <rect x="98.617188" y="60.39" width="465.185" height="272.154063"/>
  </clipPath>
 </defs>
</svg>
