<?xml version="1.0" encoding="utf-8" standalone="no"?>
<!DOCTYPE svg PUBLIC "-//W3C//DTD SVG 1.1//EN"
  "http://www.w3.org/Graphics/SVG/1.1/DTD/svg11.dtd">
<svg xmlns:xlink="http://www.w3.org/1999/xlink" width="686.334375pt" height="382.287812pt" viewBox="0 0 686.334375 382.287812" xmlns="http://www.w3.org/2000/svg" version="1.1">
 <metadata>
  <rdf:RDF xmlns:dc="http://purl.org/dc/elements/1.1/" xmlns:cc="http://creativecommons.org/ns#" xmlns:rdf="http://www.w3.org/1999/02/22-rdf-syntax-ns#">
   <cc:Work>
    <dc:type rdf:resource="http://purl.org/dc/dcmitype/StillImage"/>
    <dc:date>2026-06-16T15:56:32.929501</dc:date>
    <dc:format>image/svg+xml</dc:format>
    <dc:creator>
     <cc:Agent>
      <dc:title>Matplotlib v3.10.8, https://matplotlib.org/</dc:title>
     </cc:Agent>
    </dc:creator>
   </cc:Work>
  </rdf:RDF>
 </metadata>
 <defs>
  <style type="text/css">*{stroke-linejoin: round; stroke-linecap: butt}</style>
 </defs>
 <g id="figure_1">
  <g id="patch_1">
   <path d="M 0 382.287812 
L 686.334375 382.287812 
L 686.334375 0 
L 0 0 
z
" style="fill: #fafaf7"/>
  </g>
  <g id="axes_1">
   <g id="patch_2">
    <path d="M 132.724375 345.355 
L 337.013507 345.355 
L 337.013507 74.715 
L 132.724375 74.715 
z
" style="fill: #fafaf7"/>
   </g>
   <g id="patch_3">
    <path d="M 132.724375 333.053182 
L 139.765274 333.053182 
L 139.765274 322.198636 
L 132.724375 322.198636 
z
" clip-path="url(#pa0a643c41b)" style="fill: #6b7280"/>
   </g>
   <g id="patch_4">
    <path d="M 132.724375 314.962273 
L 140.379611 314.962273 
L 140.379611 304.107727 
L 132.724375 304.107727 
z
" clip-path="url(#pa0a643c41b)" style="fill: #6b7280"/>
   </g>
   <g id="patch_5">
    <path d="M 132.724375 296.871364 
L 143.920044 296.871364 
L 143.920044 286.016818 
L 132.724375 286.016818 
z
" clip-path="url(#pa0a643c41b)" style="fill: #6b7280"/>
   </g>
   <g id="patch_6">
    <path d="M 132.724375 278.780455 
L 144.389932 278.780455 
L 144.389932 267.925909 
L 132.724375 267.925909 
z
" clip-path="url(#pa0a643c41b)" style="fill: #6b7280"/>
   </g>
   <g id="patch_7">
    <path d="M 132.724375 260.689545 
L 144.580628 260.689545 
L 144.580628 249.835 
L 132.724375 249.835 
z
" clip-path="url(#pa0a643c41b)" style="fill: #6b7280"/>
   </g>
   <g id="patch_8">
    <path d="M 132.724375 242.598636 
L 149.169887 242.598636 
L 149.169887 231.744091 
L 132.724375 231.744091 
z
" clip-path="url(#pa0a643c41b)" style="fill: #6b7280"/>
   </g>
   <g id="patch_9">
    <path d="M 132.724375 224.507727 
L 149.681455 224.507727 
L 149.681455 213.653182 
L 132.724375 213.653182 
z
" clip-path="url(#pa0a643c41b)" style="fill: #6b7280"/>
   </g>
   <g id="patch_10">
    <path d="M 132.724375 206.416818 
L 152.266125 206.416818 
L 152.266125 195.562273 
L 132.724375 195.562273 
z
" clip-path="url(#pa0a643c41b)" style="fill: #6b7280"/>
   </g>
   <g id="patch_11">
    <path d="M 132.724375 188.325909 
L 158.692686 188.325909 
L 158.692686 177.471364 
L 132.724375 177.471364 
z
" clip-path="url(#pa0a643c41b)" style="fill: #6b7280"/>
   </g>
   <g id="patch_12">
    <path d="M 132.724375 170.235 
L 198.565232 170.235 
L 198.565232 159.380455 
L 132.724375 159.380455 
z
" clip-path="url(#pa0a643c41b)" style="fill: #2563eb"/>
   </g>
   <g id="patch_13">
    <path d="M 132.724375 152.144091 
L 210.492853 152.144091 
L 210.492853 141.289545 
L 132.724375 141.289545 
z
" clip-path="url(#pa0a643c41b)" style="fill: #2563eb"/>
   </g>
   <g id="patch_14">
    <path d="M 132.724375 134.053182 
L 323.965405 134.053182 
L 323.965405 123.198636 
L 132.724375 123.198636 
z
" clip-path="url(#pa0a643c41b)" style="fill: #2563eb"/>
   </g>
   <g id="patch_15">
    <path d="M 132.724375 115.962273 
L 326.49869 115.962273 
L 326.49869 105.107727 
L 132.724375 105.107727 
z
" clip-path="url(#pa0a643c41b)" style="fill: #2563eb"/>
   </g>
   <g id="patch_16">
    <path d="M 132.724375 97.871364 
L 327.285453 97.871364 
L 327.285453 87.016818 
L 132.724375 87.016818 
z
" clip-path="url(#pa0a643c41b)" style="fill: #2563eb"/>
   </g>
   <g id="matplotlib.axis_1">
    <g id="xtick_1">
     <g id="line2d_1">
      <path d="M 132.724375 345.355 
L 132.724375 74.715 
" clip-path="url(#pa0a643c41b)" style="fill: none; stroke: #d9dee7; stroke-opacity: 0.55; stroke-width: 0.7; stroke-linecap: square"/>
     </g>
     <g id="line2d_2">
      <defs>
       <path id="m0d2557617a" d="M 0 0 
L 0 3.5 
" style="stroke: #111827; stroke-width: 0.8"/>
      </defs>
      <g>
       <use xlink:href="#m0d2557617a" x="132.724375" y="345.355" style="fill: #111827; stroke: #111827; stroke-width: 0.8"/>
      </g>
     </g>
     <g id="text_1">
      <!-- 0.0 -->
      <g style="fill: #111827" transform="translate(126.896875 359.017812) scale(0.09 -0.09)">
       <defs>
        <path id="SegoeUI-30" d="M 3188 2259 
Q 3188 1697 3086 1262 
Q 2984 828 2792 529 
Q 2600 231 2320 76 
Q 2041 -78 1684 -78 
Q 1347 -78 1083 70 
Q 819 219 637 503 
Q 456 788 362 1202 
Q 269 1616 269 2150 
Q 269 2738 367 3188 
Q 466 3638 656 3942 
Q 847 4247 1130 4401 
Q 1413 4556 1778 4556 
Q 3188 4556 3188 2259 
z
M 2663 2209 
Q 2663 4122 1753 4122 
Q 794 4122 794 2175 
Q 794 359 1734 359 
Q 2663 359 2663 2209 
z
" transform="scale(0.015625)"/>
        <path id="SegoeUI-2e" d="M 697 -69 
Q 553 -69 451 34 
Q 350 138 350 281 
Q 350 425 451 529 
Q 553 634 697 634 
Q 844 634 947 529 
Q 1050 425 1050 281 
Q 1050 138 947 34 
Q 844 -69 697 -69 
z
" transform="scale(0.015625)"/>
       </defs>
       <use xlink:href="#SegoeUI-30"/>
       <use xlink:href="#SegoeUI-2e" transform="translate(53.90625 0)"/>
       <use xlink:href="#SegoeUI-30" transform="translate(75.585938 0)"/>
      </g>
     </g>
    </g>
    <g id="xtick_2">
     <g id="line2d_3">
      <path d="M 189.818919 345.355 
L 189.818919 74.715 
" clip-path="url(#pa0a643c41b)" style="fill: none; stroke: #d9dee7; stroke-opacity: 0.55; stroke-width: 0.7; stroke-linecap: square"/>
     </g>
     <g id="line2d_4">
      <g>
       <use xlink:href="#m0d2557617a" x="189.818919" y="345.355" style="fill: #111827; stroke: #111827; stroke-width: 0.8"/>
      </g>
     </g>
     <g id="text_2">
      <!-- 0.1 -->
      <g style="fill: #111827" transform="translate(183.991419 359.017812) scale(0.09 -0.09)">
       <defs>
        <path id="SegoeUI-31" d="M 2263 0 
L 1750 0 
L 1750 3872 
Q 1691 3813 1577 3736 
Q 1463 3659 1320 3584 
Q 1178 3509 1020 3443 
Q 863 3378 713 3341 
L 713 3859 
Q 881 3906 1070 3986 
Q 1259 4066 1442 4164 
Q 1625 4263 1787 4370 
Q 1950 4478 2069 4581 
L 2263 4581 
L 2263 0 
z
" transform="scale(0.015625)"/>
       </defs>
       <use xlink:href="#SegoeUI-30"/>
       <use xlink:href="#SegoeUI-2e" transform="translate(53.90625 0)"/>
       <use xlink:href="#SegoeUI-31" transform="translate(75.585938 0)"/>
      </g>
     </g>
    </g>
    <g id="xtick_3">
     <g id="line2d_5">
      <path d="M 246.913463 345.355 
L 246.913463 74.715 
" clip-path="url(#pa0a643c41b)" style="fill: none; stroke: #d9dee7; stroke-opacity: 0.55; stroke-width: 0.7; stroke-linecap: square"/>
     </g>
     <g id="line2d_6">
      <g>
       <use xlink:href="#m0d2557617a" x="246.913463" y="345.355" style="fill: #111827; stroke: #111827; stroke-width: 0.8"/>
      </g>
     </g>
     <g id="text_3">
      <!-- 0.2 -->
      <g style="fill: #111827" transform="translate(241.085963 359.017812) scale(0.09 -0.09)">
       <defs>
        <path id="SegoeUI-32" d="M 2413 3306 
Q 2413 3513 2348 3666 
Q 2284 3819 2173 3920 
Q 2063 4022 1913 4072 
Q 1763 4122 1588 4122 
Q 1438 4122 1294 4081 
Q 1150 4041 1014 3969 
Q 878 3897 751 3797 
Q 625 3697 516 3575 
L 516 4125 
Q 731 4334 998 4445 
Q 1266 4556 1650 4556 
Q 1925 4556 2159 4476 
Q 2394 4397 2566 4244 
Q 2738 4091 2836 3866 
Q 2934 3641 2934 3350 
Q 2934 3084 2873 2868 
Q 2813 2653 2689 2462 
Q 2566 2272 2378 2097 
Q 2191 1922 1938 1741 
Q 1622 1516 1417 1356 
Q 1213 1197 1092 1058 
Q 972 919 923 780 
Q 875 641 875 459 
L 3106 459 
L 3106 0 
L 341 0 
L 341 222 
Q 341 509 403 728 
Q 466 947 609 1144 
Q 753 1341 986 1537 
Q 1219 1734 1556 1981 
Q 1800 2156 1964 2315 
Q 2128 2475 2228 2634 
Q 2328 2794 2370 2958 
Q 2413 3122 2413 3306 
z
" transform="scale(0.015625)"/>
       </defs>
       <use xlink:href="#SegoeUI-30"/>
       <use xlink:href="#SegoeUI-2e" transform="translate(53.90625 0)"/>
       <use xlink:href="#SegoeUI-32" transform="translate(75.585938 0)"/>
      </g>
     </g>
    </g>
    <g id="xtick_4">
     <g id="line2d_7">
      <path d="M 304.008007 345.355 
L 304.008007 74.715 
" clip-path="url(#pa0a643c41b)" style="fill: none; stroke: #d9dee7; stroke-opacity: 0.55; stroke-width: 0.7; stroke-linecap: square"/>
     </g>
     <g id="line2d_8">
      <g>
       <use xlink:href="#m0d2557617a" x="304.008007" y="345.355" style="fill: #111827; stroke: #111827; stroke-width: 0.8"/>
      </g>
     </g>
     <g id="text_4">
      <!-- 0.3 -->
      <g style="fill: #111827" transform="translate(298.180507 359.017812) scale(0.09 -0.09)">
       <defs>
        <path id="SegoeUI-33" d="M 2978 1269 
Q 2978 966 2864 717 
Q 2750 469 2542 292 
Q 2334 116 2043 19 
Q 1753 -78 1403 -78 
Q 763 -78 384 166 
L 384 716 
Q 838 359 1422 359 
Q 1656 359 1845 418 
Q 2034 478 2170 590 
Q 2306 703 2379 862 
Q 2453 1022 2453 1222 
Q 2453 2100 1203 2100 
L 831 2100 
L 831 2534 
L 1184 2534 
Q 2291 2534 2291 3359 
Q 2291 4122 1447 4122 
Q 972 4122 556 3803 
L 556 4300 
Q 984 4556 1575 4556 
Q 1856 4556 2084 4478 
Q 2313 4400 2475 4259 
Q 2638 4119 2727 3922 
Q 2816 3725 2816 3488 
Q 2816 2603 1922 2350 
L 1922 2338 
Q 2150 2313 2344 2227 
Q 2538 2141 2678 2003 
Q 2819 1866 2898 1680 
Q 2978 1494 2978 1269 
z
" transform="scale(0.015625)"/>
       </defs>
       <use xlink:href="#SegoeUI-30"/>
       <use xlink:href="#SegoeUI-2e" transform="translate(53.90625 0)"/>
       <use xlink:href="#SegoeUI-33" transform="translate(75.585938 0)"/>
      </g>
     </g>
    </g>
    <g id="text_5">
     <!-- |Correlation| -->
     <g style="fill: #6b7280" transform="translate(208.008785 372.734687) scale(0.1 -0.1)">
      <defs>
       <path id="SegoeUI-7c" d="M 1000 -1506 
L 538 -1506 
L 538 4894 
L 1000 4894 
L 1000 -1506 
z
" transform="scale(0.015625)"/>
       <path id="SegoeUI-43" d="M 3638 188 
Q 3141 -75 2400 -75 
Q 1444 -75 869 540 
Q 294 1156 294 2156 
Q 294 3231 941 3893 
Q 1588 4556 2581 4556 
Q 3219 4556 3638 4372 
L 3638 3813 
Q 3156 4081 2575 4081 
Q 1803 4081 1323 3565 
Q 844 3050 844 2188 
Q 844 1369 1292 883 
Q 1741 397 2469 397 
Q 3144 397 3638 697 
L 3638 188 
z
" transform="scale(0.015625)"/>
       <path id="SegoeUI-6f" d="M 1856 -75 
Q 1147 -75 723 373 
Q 300 822 300 1563 
Q 300 2369 740 2822 
Q 1181 3275 1931 3275 
Q 2647 3275 3048 2834 
Q 3450 2394 3450 1613 
Q 3450 847 3017 386 
Q 2584 -75 1856 -75 
z
M 1894 2844 
Q 1400 2844 1112 2508 
Q 825 2172 825 1581 
Q 825 1013 1115 684 
Q 1406 356 1894 356 
Q 2391 356 2658 678 
Q 2925 1000 2925 1594 
Q 2925 2194 2658 2519 
Q 2391 2844 1894 2844 
z
" transform="scale(0.015625)"/>
       <path id="SegoeUI-72" d="M 2188 2681 
Q 2053 2784 1800 2784 
Q 1472 2784 1251 2475 
Q 1031 2166 1031 1631 
L 1031 0 
L 519 0 
L 519 3200 
L 1031 3200 
L 1031 2541 
L 1044 2541 
Q 1153 2878 1378 3067 
Q 1603 3256 1881 3256 
Q 2081 3256 2188 3213 
L 2188 2681 
z
" transform="scale(0.015625)"/>
       <path id="SegoeUI-65" d="M 3091 1472 
L 831 1472 
Q 844 938 1119 647 
Q 1394 356 1875 356 
Q 2416 356 2869 713 
L 2869 231 
Q 2447 -75 1753 -75 
Q 1075 -75 687 361 
Q 300 797 300 1588 
Q 300 2334 723 2804 
Q 1147 3275 1775 3275 
Q 2403 3275 2747 2869 
Q 3091 2463 3091 1741 
L 3091 1472 
z
M 2566 1906 
Q 2563 2350 2352 2597 
Q 2141 2844 1766 2844 
Q 1403 2844 1150 2584 
Q 897 2325 838 1906 
L 2566 1906 
z
" transform="scale(0.015625)"/>
       <path id="SegoeUI-6c" d="M 1031 0 
L 519 0 
L 519 4738 
L 1031 4738 
L 1031 0 
z
" transform="scale(0.015625)"/>
       <path id="SegoeUI-61" d="M 2809 0 
L 2297 0 
L 2297 500 
L 2284 500 
Q 1950 -75 1300 -75 
Q 822 -75 551 178 
Q 281 431 281 850 
Q 281 1747 1338 1894 
L 2297 2028 
Q 2297 2844 1638 2844 
Q 1059 2844 594 2450 
L 594 2975 
Q 1066 3275 1681 3275 
Q 2809 3275 2809 2081 
L 2809 0 
z
M 2297 1619 
L 1525 1513 
Q 1169 1463 987 1336 
Q 806 1209 806 888 
Q 806 653 973 504 
Q 1141 356 1419 356 
Q 1800 356 2048 623 
Q 2297 891 2297 1300 
L 2297 1619 
z
" transform="scale(0.015625)"/>
       <path id="SegoeUI-74" d="M 2003 31 
Q 1822 -69 1525 -69 
Q 684 -69 684 869 
L 684 2763 
L 134 2763 
L 134 3200 
L 684 3200 
L 684 3981 
L 1197 4147 
L 1197 3200 
L 2003 3200 
L 2003 2763 
L 1197 2763 
L 1197 959 
Q 1197 638 1306 500 
Q 1416 363 1669 363 
Q 1863 363 2003 469 
L 2003 31 
z
" transform="scale(0.015625)"/>
       <path id="SegoeUI-69" d="M 781 4013 
Q 644 4013 547 4106 
Q 450 4200 450 4344 
Q 450 4488 547 4583 
Q 644 4678 781 4678 
Q 922 4678 1020 4583 
Q 1119 4488 1119 4344 
Q 1119 4206 1020 4109 
Q 922 4013 781 4013 
z
M 1031 0 
L 519 0 
L 519 3200 
L 1031 3200 
L 1031 0 
z
" transform="scale(0.015625)"/>
       <path id="SegoeUI-6e" d="M 3175 0 
L 2663 0 
L 2663 1825 
Q 2663 2844 1919 2844 
Q 1534 2844 1282 2555 
Q 1031 2266 1031 1825 
L 1031 0 
L 519 0 
L 519 3200 
L 1031 3200 
L 1031 2669 
L 1044 2669 
Q 1406 3275 2094 3275 
Q 2619 3275 2897 2936 
Q 3175 2597 3175 1956 
L 3175 0 
z
" transform="scale(0.015625)"/>
      </defs>
      <use xlink:href="#SegoeUI-7c"/>
      <use xlink:href="#SegoeUI-43" transform="translate(23.925781 0)"/>
      <use xlink:href="#SegoeUI-6f" transform="translate(85.839844 0)"/>
      <use xlink:href="#SegoeUI-72" transform="translate(144.433594 0)"/>
      <use xlink:href="#SegoeUI-72" transform="translate(179.199219 0)"/>
      <use xlink:href="#SegoeUI-65" transform="translate(212.589844 0)"/>
      <use xlink:href="#SegoeUI-6c" transform="translate(264.884766 0)"/>
      <use xlink:href="#SegoeUI-61" transform="translate(289.103516 0)"/>
      <use xlink:href="#SegoeUI-74" transform="translate(339.982422 0)"/>
      <use xlink:href="#SegoeUI-69" transform="translate(373.869141 0)"/>
      <use xlink:href="#SegoeUI-6f" transform="translate(398.087891 0)"/>
      <use xlink:href="#SegoeUI-6e" transform="translate(456.681641 0)"/>
      <use xlink:href="#SegoeUI-7c" transform="translate(513.273438 0)"/>
     </g>
    </g>
   </g>
   <g id="matplotlib.axis_2">
    <g id="ytick_1">
     <g id="line2d_9">
      <path d="M 132.724375 327.625909 
L 337.013507 327.625909 
" clip-path="url(#pa0a643c41b)" style="fill: none; stroke: #d9dee7; stroke-opacity: 0.55; stroke-width: 0.7; stroke-linecap: square"/>
     </g>
     <g id="line2d_10">
      <defs>
       <path id="mb16bc59bf8" d="M 0 0 
L -3.5 0 
" style="stroke: #111827; stroke-width: 0.8"/>
      </defs>
      <g>
       <use xlink:href="#mb16bc59bf8" x="132.724375" y="327.625909" style="fill: #111827; stroke: #111827; stroke-width: 0.8"/>
      </g>
     </g>
     <g id="text_6">
      <!-- Dgs2 Δ -->
      <g style="fill: #111827" transform="translate(97.176094 330.933409) scale(0.09 -0.09)">
       <defs>
        <path id="SegoeUI-44" d="M 588 0 
L 588 4481 
L 1825 4481 
Q 4194 4481 4194 2297 
Q 4194 1259 3536 629 
Q 2878 0 1775 0 
L 588 0 
z
M 1113 4006 
L 1113 475 
L 1781 475 
Q 2663 475 3153 947 
Q 3644 1419 3644 2284 
Q 3644 4006 1813 4006 
L 1113 4006 
z
" transform="scale(0.015625)"/>
        <path id="SegoeUI-67" d="M 3250 256 
Q 3250 -1506 1563 -1506 
Q 969 -1506 525 -1281 
L 525 -769 
Q 1066 -1069 1556 -1069 
Q 2738 -1069 2738 188 
L 2738 538 
L 2725 538 
Q 2359 -75 1625 -75 
Q 1028 -75 664 351 
Q 300 778 300 1497 
Q 300 2313 692 2794 
Q 1084 3275 1766 3275 
Q 2413 3275 2725 2756 
L 2738 2756 
L 2738 3200 
L 3250 3200 
L 3250 256 
z
M 2738 1447 
L 2738 1919 
Q 2738 2300 2480 2572 
Q 2222 2844 1838 2844 
Q 1363 2844 1094 2498 
Q 825 2153 825 1531 
Q 825 997 1083 676 
Q 1341 356 1766 356 
Q 2197 356 2467 662 
Q 2738 969 2738 1447 
z
" transform="scale(0.015625)"/>
        <path id="SegoeUI-73" d="M 325 116 
L 325 666 
Q 744 356 1247 356 
Q 1922 356 1922 806 
Q 1922 934 1864 1023 
Q 1806 1113 1707 1181 
Q 1609 1250 1476 1304 
Q 1344 1359 1191 1419 
Q 978 1503 817 1589 
Q 656 1675 548 1783 
Q 441 1891 386 2028 
Q 331 2166 331 2350 
Q 331 2575 434 2748 
Q 538 2922 709 3039 
Q 881 3156 1101 3215 
Q 1322 3275 1556 3275 
Q 1972 3275 2300 3131 
L 2300 2613 
Q 1947 2844 1488 2844 
Q 1344 2844 1228 2811 
Q 1113 2778 1030 2718 
Q 947 2659 901 2576 
Q 856 2494 856 2394 
Q 856 2269 901 2184 
Q 947 2100 1034 2034 
Q 1122 1969 1247 1916 
Q 1372 1863 1531 1800 
Q 1744 1719 1912 1633 
Q 2081 1547 2200 1439 
Q 2319 1331 2383 1190 
Q 2447 1050 2447 856 
Q 2447 619 2342 444 
Q 2238 269 2063 153 
Q 1888 38 1659 -18 
Q 1431 -75 1181 -75 
Q 688 -75 325 116 
z
" transform="scale(0.015625)"/>
        <path id="SegoeUI-20" transform="scale(0.015625)"/>
        <path id="SegoeUI-394" d="M 3975 0 
L 159 0 
L 159 238 
L 1788 4481 
L 2331 4481 
L 3975 238 
L 3975 0 
z
M 3303 475 
L 2175 3500 
Q 2072 3775 2056 3944 
L 2044 3944 
Q 2025 3794 1919 3500 
L 819 475 
L 3303 475 
z
" transform="scale(0.015625)"/>
       </defs>
       <use xlink:href="#SegoeUI-44"/>
       <use xlink:href="#SegoeUI-67" transform="translate(70.117188 0)"/>
       <use xlink:href="#SegoeUI-73" transform="translate(129.003906 0)"/>
       <use xlink:href="#SegoeUI-32" transform="translate(171.435547 0)"/>
       <use xlink:href="#SegoeUI-20" transform="translate(225.341797 0)"/>
       <use xlink:href="#SegoeUI-394" transform="translate(252.734375 0)"/>
      </g>
     </g>
    </g>
    <g id="ytick_2">
     <g id="line2d_11">
      <path d="M 132.724375 309.535 
L 337.013507 309.535 
" clip-path="url(#pa0a643c41b)" style="fill: none; stroke: #d9dee7; stroke-opacity: 0.55; stroke-width: 0.7; stroke-linecap: square"/>
     </g>
     <g id="line2d_12">
      <g>
       <use xlink:href="#mb16bc59bf8" x="132.724375" y="309.535" style="fill: #111827; stroke: #111827; stroke-width: 0.8"/>
      </g>
     </g>
     <g id="text_7">
      <!-- Stables Total Usd -->
      <g style="fill: #111827" transform="translate(58.501406 312.866406) scale(0.09 -0.09)">
       <defs>
        <path id="SegoeUI-53" d="M 378 181 
L 378 800 
Q 484 706 632 631 
Q 781 556 945 504 
Q 1109 453 1275 425 
Q 1441 397 1581 397 
Q 2066 397 2305 576 
Q 2544 756 2544 1094 
Q 2544 1275 2464 1409 
Q 2384 1544 2243 1655 
Q 2103 1766 1911 1867 
Q 1719 1969 1497 2081 
Q 1263 2200 1059 2322 
Q 856 2444 706 2591 
Q 556 2738 470 2923 
Q 384 3109 384 3359 
Q 384 3666 518 3892 
Q 653 4119 872 4266 
Q 1091 4413 1370 4484 
Q 1650 4556 1941 4556 
Q 2603 4556 2906 4397 
L 2906 3806 
Q 2509 4081 1888 4081 
Q 1716 4081 1544 4045 
Q 1372 4009 1237 3928 
Q 1103 3847 1018 3719 
Q 934 3591 934 3406 
Q 934 3234 998 3109 
Q 1063 2984 1188 2881 
Q 1313 2778 1492 2681 
Q 1672 2584 1906 2469 
Q 2147 2350 2362 2219 
Q 2578 2088 2740 1928 
Q 2903 1769 2998 1575 
Q 3094 1381 3094 1131 
Q 3094 800 2964 570 
Q 2834 341 2614 197 
Q 2394 53 2106 -11 
Q 1819 -75 1500 -75 
Q 1394 -75 1237 -58 
Q 1081 -41 918 -8 
Q 756 25 611 73 
Q 466 122 378 181 
z
" transform="scale(0.015625)"/>
        <path id="SegoeUI-62" d="M 1044 463 
L 1031 463 
L 1031 0 
L 519 0 
L 519 4738 
L 1031 4738 
L 1031 2638 
L 1044 2638 
Q 1422 3275 2150 3275 
Q 2766 3275 3114 2845 
Q 3463 2416 3463 1694 
Q 3463 891 3072 408 
Q 2681 -75 2003 -75 
Q 1369 -75 1044 463 
z
M 1031 1753 
L 1031 1306 
Q 1031 909 1289 632 
Q 1547 356 1944 356 
Q 2409 356 2673 712 
Q 2938 1069 2938 1703 
Q 2938 2238 2691 2541 
Q 2444 2844 2022 2844 
Q 1575 2844 1303 2533 
Q 1031 2222 1031 1753 
z
" transform="scale(0.015625)"/>
        <path id="SegoeUI-54" d="M 3238 4006 
L 1944 4006 
L 1944 0 
L 1419 0 
L 1419 4006 
L 128 4006 
L 128 4481 
L 3238 4481 
L 3238 4006 
z
" transform="scale(0.015625)"/>
        <path id="SegoeUI-55" d="M 3866 1813 
Q 3866 -75 2163 -75 
Q 531 -75 531 1741 
L 531 4481 
L 1056 4481 
L 1056 1775 
Q 1056 397 2219 397 
Q 3341 397 3341 1728 
L 3341 4481 
L 3866 4481 
L 3866 1813 
z
" transform="scale(0.015625)"/>
        <path id="SegoeUI-64" d="M 3250 0 
L 2738 0 
L 2738 544 
L 2725 544 
Q 2369 -75 1625 -75 
Q 1022 -75 661 354 
Q 300 784 300 1525 
Q 300 2319 700 2797 
Q 1100 3275 1766 3275 
Q 2425 3275 2725 2756 
L 2738 2756 
L 2738 4738 
L 3250 4738 
L 3250 0 
z
M 2738 1447 
L 2738 1919 
Q 2738 2306 2481 2575 
Q 2225 2844 1831 2844 
Q 1363 2844 1094 2500 
Q 825 2156 825 1550 
Q 825 997 1083 676 
Q 1341 356 1775 356 
Q 2203 356 2470 665 
Q 2738 975 2738 1447 
z
" transform="scale(0.015625)"/>
       </defs>
       <use xlink:href="#SegoeUI-53"/>
       <use xlink:href="#SegoeUI-74" transform="translate(49.875 0)"/>
       <use xlink:href="#SegoeUI-61" transform="translate(83.761719 0)"/>
       <use xlink:href="#SegoeUI-62" transform="translate(134.640625 0)"/>
       <use xlink:href="#SegoeUI-6c" transform="translate(193.429688 0)"/>
       <use xlink:href="#SegoeUI-65" transform="translate(217.648438 0)"/>
       <use xlink:href="#SegoeUI-73" transform="translate(269.943359 0)"/>
       <use xlink:href="#SegoeUI-20" transform="translate(312.375 0)"/>
       <use xlink:href="#SegoeUI-54" transform="translate(339.767578 0)"/>
       <use xlink:href="#SegoeUI-6f" transform="translate(381.910156 0)"/>
       <use xlink:href="#SegoeUI-74" transform="translate(440.503906 0)"/>
       <use xlink:href="#SegoeUI-61" transform="translate(474.390625 0)"/>
       <use xlink:href="#SegoeUI-6c" transform="translate(525.269531 0)"/>
       <use xlink:href="#SegoeUI-20" transform="translate(549.488281 0)"/>
       <use xlink:href="#SegoeUI-55" transform="translate(576.880859 0)"/>
       <use xlink:href="#SegoeUI-73" transform="translate(645.582031 0)"/>
       <use xlink:href="#SegoeUI-64" transform="translate(688.013672 0)"/>
      </g>
     </g>
    </g>
    <g id="ytick_3">
     <g id="line2d_13">
      <path d="M 132.724375 291.444091 
L 337.013507 291.444091 
" clip-path="url(#pa0a643c41b)" style="fill: none; stroke: #d9dee7; stroke-opacity: 0.55; stroke-width: 0.7; stroke-linecap: square"/>
     </g>
     <g id="line2d_14">
      <g>
       <use xlink:href="#mb16bc59bf8" x="132.724375" y="291.444091" style="fill: #111827; stroke: #111827; stroke-width: 0.8"/>
      </g>
     </g>
     <g id="text_8">
      <!-- Dgs10 Δ -->
      <g style="fill: #111827" transform="translate(92.324531 294.751591) scale(0.09 -0.09)">
       <use xlink:href="#SegoeUI-44"/>
       <use xlink:href="#SegoeUI-67" transform="translate(70.117188 0)"/>
       <use xlink:href="#SegoeUI-73" transform="translate(129.003906 0)"/>
       <use xlink:href="#SegoeUI-31" transform="translate(171.435547 0)"/>
       <use xlink:href="#SegoeUI-30" transform="translate(225.341797 0)"/>
       <use xlink:href="#SegoeUI-20" transform="translate(279.248047 0)"/>
       <use xlink:href="#SegoeUI-394" transform="translate(306.640625 0)"/>
      </g>
     </g>
    </g>
    <g id="ytick_4">
     <g id="line2d_15">
      <path d="M 132.724375 273.353182 
L 337.013507 273.353182 
" clip-path="url(#pa0a643c41b)" style="fill: none; stroke: #d9dee7; stroke-opacity: 0.55; stroke-width: 0.7; stroke-linecap: square"/>
     </g>
     <g id="line2d_16">
      <g>
       <use xlink:href="#mb16bc59bf8" x="132.724375" y="273.353182" style="fill: #111827; stroke: #111827; stroke-width: 0.8"/>
      </g>
     </g>
     <g id="text_9">
      <!-- Btc Exchange Netflow Δ -->
      <g style="fill: #111827" transform="translate(31.474688 276.732401) scale(0.09 -0.09)">
       <defs>
        <path id="SegoeUI-42" d="M 588 0 
L 588 4481 
L 1863 4481 
Q 2444 4481 2784 4197 
Q 3125 3913 3125 3456 
Q 3125 3075 2919 2794 
Q 2713 2513 2350 2394 
L 2350 2381 
Q 2803 2328 3075 2039 
Q 3347 1750 3347 1288 
Q 3347 713 2934 356 
Q 2522 0 1894 0 
L 588 0 
z
M 1113 4006 
L 1113 2559 
L 1650 2559 
Q 2081 2559 2328 2767 
Q 2575 2975 2575 3353 
Q 2575 4006 1716 4006 
L 1113 4006 
z
M 1113 2088 
L 1113 475 
L 1825 475 
Q 2288 475 2542 694 
Q 2797 913 2797 1294 
Q 2797 2088 1716 2088 
L 1113 2088 
z
" transform="scale(0.015625)"/>
        <path id="SegoeUI-63" d="M 2700 147 
Q 2331 -75 1825 -75 
Q 1141 -75 720 370 
Q 300 816 300 1525 
Q 300 2316 753 2795 
Q 1206 3275 1963 3275 
Q 2384 3275 2706 3119 
L 2706 2594 
Q 2350 2844 1944 2844 
Q 1453 2844 1139 2492 
Q 825 2141 825 1569 
Q 825 1006 1120 681 
Q 1416 356 1913 356 
Q 2331 356 2700 634 
L 2700 147 
z
" transform="scale(0.015625)"/>
        <path id="SegoeUI-45" d="M 2963 0 
L 588 0 
L 588 4481 
L 2863 4481 
L 2863 4006 
L 1113 4006 
L 1113 2516 
L 2731 2516 
L 2731 2044 
L 1113 2044 
L 1113 475 
L 2963 475 
L 2963 0 
z
" transform="scale(0.015625)"/>
        <path id="SegoeUI-78" d="M 2856 3200 
L 1781 1581 
L 2838 0 
L 2241 0 
L 1613 1038 
Q 1553 1134 1472 1281 
L 1459 1281 
Q 1444 1253 1313 1038 
L 672 0 
L 81 0 
L 1172 1569 
L 128 3200 
L 725 3200 
L 1344 2106 
Q 1413 1984 1478 1856 
L 1491 1856 
L 2291 3200 
L 2856 3200 
z
" transform="scale(0.015625)"/>
        <path id="SegoeUI-68" d="M 3175 0 
L 2663 0 
L 2663 1844 
Q 2663 2844 1919 2844 
Q 1544 2844 1287 2555 
Q 1031 2266 1031 1813 
L 1031 0 
L 519 0 
L 519 4738 
L 1031 4738 
L 1031 2669 
L 1044 2669 
Q 1413 3275 2094 3275 
Q 3175 3275 3175 1972 
L 3175 0 
z
" transform="scale(0.015625)"/>
        <path id="SegoeUI-4e" d="M 4200 0 
L 3556 0 
L 1250 3572 
Q 1163 3706 1106 3853 
L 1088 3853 
Q 1113 3709 1113 3238 
L 1113 0 
L 588 0 
L 588 4481 
L 1269 4481 
L 3513 966 
Q 3653 747 3694 666 
L 3706 666 
Q 3675 859 3675 1325 
L 3675 4481 
L 4200 4481 
L 4200 0 
z
" transform="scale(0.015625)"/>
        <path id="SegoeUI-66" d="M 2100 4288 
Q 1950 4372 1759 4372 
Q 1222 4372 1222 3694 
L 1222 3200 
L 1972 3200 
L 1972 2763 
L 1222 2763 
L 1222 0 
L 713 0 
L 713 2763 
L 166 2763 
L 166 3200 
L 713 3200 
L 713 3719 
Q 713 4222 1003 4514 
Q 1294 4806 1728 4806 
Q 1963 4806 2100 4750 
L 2100 4288 
z
" transform="scale(0.015625)"/>
        <path id="SegoeUI-77" d="M 4550 3200 
L 3591 0 
L 3059 0 
L 2400 2291 
Q 2363 2422 2350 2588 
L 2338 2588 
Q 2328 2475 2272 2297 
L 1556 0 
L 1044 0 
L 75 3200 
L 613 3200 
L 1275 794 
Q 1306 684 1319 506 
L 1344 506 
Q 1353 644 1400 800 
L 2138 3200 
L 2606 3200 
L 3269 788 
Q 3300 672 3316 500 
L 3341 500 
Q 3347 622 3394 788 
L 4044 3200 
L 4550 3200 
z
" transform="scale(0.015625)"/>
       </defs>
       <use xlink:href="#SegoeUI-42"/>
       <use xlink:href="#SegoeUI-74" transform="translate(57.324219 0)"/>
       <use xlink:href="#SegoeUI-63" transform="translate(89.835938 0)"/>
       <use xlink:href="#SegoeUI-20" transform="translate(136.027344 0)"/>
       <use xlink:href="#SegoeUI-45" transform="translate(163.419922 0)"/>
       <use xlink:href="#SegoeUI-78" transform="translate(214.005859 0)"/>
       <use xlink:href="#SegoeUI-63" transform="translate(259.154297 0)"/>
       <use xlink:href="#SegoeUI-68" transform="translate(305.345703 0)"/>
       <use xlink:href="#SegoeUI-61" transform="translate(361.9375 0)"/>
       <use xlink:href="#SegoeUI-6e" transform="translate(412.816406 0)"/>
       <use xlink:href="#SegoeUI-67" transform="translate(469.408203 0)"/>
       <use xlink:href="#SegoeUI-65" transform="translate(528.294922 0)"/>
       <use xlink:href="#SegoeUI-20" transform="translate(580.589844 0)"/>
       <use xlink:href="#SegoeUI-4e" transform="translate(607.982422 0)"/>
       <use xlink:href="#SegoeUI-65" transform="translate(682.787109 0)"/>
       <use xlink:href="#SegoeUI-74" transform="translate(735.082031 0)"/>
       <use xlink:href="#SegoeUI-66" transform="translate(768.96875 0)"/>
       <use xlink:href="#SegoeUI-6c" transform="translate(800.267578 0)"/>
       <use xlink:href="#SegoeUI-6f" transform="translate(824.486328 0)"/>
       <use xlink:href="#SegoeUI-77" transform="translate(883.080078 0)"/>
       <use xlink:href="#SegoeUI-20" transform="translate(955.345703 0)"/>
       <use xlink:href="#SegoeUI-394" transform="translate(982.738281 0)"/>
      </g>
     </g>
    </g>
    <g id="ytick_5">
     <g id="line2d_17">
      <path d="M 132.724375 255.262273 
L 337.013507 255.262273 
" clip-path="url(#pa0a643c41b)" style="fill: none; stroke: #d9dee7; stroke-opacity: 0.55; stroke-width: 0.7; stroke-linecap: square"/>
     </g>
     <g id="line2d_18">
      <g>
       <use xlink:href="#mb16bc59bf8" x="132.724375" y="255.262273" style="fill: #111827; stroke: #111827; stroke-width: 0.8"/>
      </g>
     </g>
     <g id="text_10">
      <!-- Defi Tvl Usd -->
      <g style="fill: #111827" transform="translate(78.720469 258.593679) scale(0.09 -0.09)">
       <defs>
        <path id="SegoeUI-76" d="M 3034 3200 
L 1759 0 
L 1256 0 
L 44 3200 
L 606 3200 
L 1419 875 
Q 1509 619 1531 428 
L 1544 428 
Q 1575 669 1644 863 
L 2494 3200 
L 3034 3200 
z
" transform="scale(0.015625)"/>
       </defs>
       <use xlink:href="#SegoeUI-44"/>
       <use xlink:href="#SegoeUI-65" transform="translate(70.117188 0)"/>
       <use xlink:href="#SegoeUI-66" transform="translate(122.412109 0)"/>
       <use xlink:href="#SegoeUI-69" transform="translate(153.710938 0)"/>
       <use xlink:href="#SegoeUI-20" transform="translate(177.929688 0)"/>
       <use xlink:href="#SegoeUI-54" transform="translate(205.322266 0)"/>
       <use xlink:href="#SegoeUI-76" transform="translate(252.714844 0)"/>
       <use xlink:href="#SegoeUI-6c" transform="translate(300.615234 0)"/>
       <use xlink:href="#SegoeUI-20" transform="translate(324.833984 0)"/>
       <use xlink:href="#SegoeUI-55" transform="translate(352.226562 0)"/>
       <use xlink:href="#SegoeUI-73" transform="translate(420.927734 0)"/>
       <use xlink:href="#SegoeUI-64" transform="translate(463.359375 0)"/>
      </g>
     </g>
    </g>
    <g id="ytick_6">
     <g id="line2d_19">
      <path d="M 132.724375 237.171364 
L 337.013507 237.171364 
" clip-path="url(#pa0a643c41b)" style="fill: none; stroke: #d9dee7; stroke-opacity: 0.55; stroke-width: 0.7; stroke-linecap: square"/>
     </g>
     <g id="line2d_20">
      <g>
       <use xlink:href="#mb16bc59bf8" x="132.724375" y="237.171364" style="fill: #111827; stroke: #111827; stroke-width: 0.8"/>
      </g>
     </g>
     <g id="text_11">
      <!-- Dff Δ -->
      <g style="fill: #111827" transform="translate(105.51375 240.50277) scale(0.09 -0.09)">
       <use xlink:href="#SegoeUI-44"/>
       <use xlink:href="#SegoeUI-66" transform="translate(70.117188 0)"/>
       <use xlink:href="#SegoeUI-66" transform="translate(101.416016 0)"/>
       <use xlink:href="#SegoeUI-20" transform="translate(132.714844 0)"/>
       <use xlink:href="#SegoeUI-394" transform="translate(160.107422 0)"/>
      </g>
     </g>
    </g>
    <g id="ytick_7">
     <g id="line2d_21">
      <path d="M 132.724375 219.080455 
L 337.013507 219.080455 
" clip-path="url(#pa0a643c41b)" style="fill: none; stroke: #d9dee7; stroke-opacity: 0.55; stroke-width: 0.7; stroke-linecap: square"/>
     </g>
     <g id="line2d_22">
      <g>
       <use xlink:href="#mb16bc59bf8" x="132.724375" y="219.080455" style="fill: #111827; stroke: #111827; stroke-width: 0.8"/>
      </g>
     </g>
     <g id="text_12">
      <!-- Fng Value Δ -->
      <g style="fill: #111827" transform="translate(78.697969 222.411861) scale(0.09 -0.09)">
       <defs>
        <path id="SegoeUI-46" d="M 2863 4006 
L 1113 4006 
L 1113 2456 
L 2731 2456 
L 2731 1984 
L 1113 1984 
L 1113 0 
L 588 0 
L 588 4481 
L 2863 4481 
L 2863 4006 
z
" transform="scale(0.015625)"/>
        <path id="SegoeUI-56" d="M 3919 4481 
L 2259 0 
L 1681 0 
L 56 4481 
L 641 4481 
L 1881 928 
Q 1941 756 1972 531 
L 1984 531 
Q 2009 719 2088 934 
L 3353 4481 
L 3919 4481 
z
" transform="scale(0.015625)"/>
        <path id="SegoeUI-75" d="M 3106 0 
L 2594 0 
L 2594 506 
L 2581 506 
Q 2263 -75 1594 -75 
Q 450 -75 450 1288 
L 450 3200 
L 959 3200 
L 959 1369 
Q 959 356 1734 356 
Q 2109 356 2351 632 
Q 2594 909 2594 1356 
L 2594 3200 
L 3106 3200 
L 3106 0 
z
" transform="scale(0.015625)"/>
       </defs>
       <use xlink:href="#SegoeUI-46"/>
       <use xlink:href="#SegoeUI-6e" transform="translate(48.828125 0)"/>
       <use xlink:href="#SegoeUI-67" transform="translate(105.419922 0)"/>
       <use xlink:href="#SegoeUI-20" transform="translate(164.306641 0)"/>
       <use xlink:href="#SegoeUI-56" transform="translate(191.699219 0)"/>
       <use xlink:href="#SegoeUI-61" transform="translate(246.683594 0)"/>
       <use xlink:href="#SegoeUI-6c" transform="translate(297.5625 0)"/>
       <use xlink:href="#SegoeUI-75" transform="translate(321.78125 0)"/>
       <use xlink:href="#SegoeUI-65" transform="translate(378.373047 0)"/>
       <use xlink:href="#SegoeUI-20" transform="translate(430.667969 0)"/>
       <use xlink:href="#SegoeUI-394" transform="translate(458.060547 0)"/>
      </g>
     </g>
    </g>
    <g id="ytick_8">
     <g id="line2d_23">
      <path d="M 132.724375 200.989545 
L 337.013507 200.989545 
" clip-path="url(#pa0a643c41b)" style="fill: none; stroke: #d9dee7; stroke-opacity: 0.55; stroke-width: 0.7; stroke-linecap: square"/>
     </g>
     <g id="line2d_24">
      <g>
       <use xlink:href="#mb16bc59bf8" x="132.724375" y="200.989545" style="fill: #111827; stroke: #111827; stroke-width: 0.8"/>
      </g>
     </g>
     <g id="text_13">
      <!-- Btc Miner To Exchange Flow Δ -->
      <g style="fill: #111827" transform="translate(7.2 204.320952) scale(0.09 -0.09)">
       <defs>
        <path id="SegoeUI-4d" d="M 5156 0 
L 4634 0 
L 4634 3006 
Q 4634 3363 4678 3878 
L 4666 3878 
Q 4591 3575 4531 3444 
L 3000 0 
L 2744 0 
L 1216 3419 
Q 1150 3569 1081 3878 
L 1069 3878 
Q 1094 3609 1094 3000 
L 1094 0 
L 588 0 
L 588 4481 
L 1281 4481 
L 2656 1356 
Q 2816 997 2863 819 
L 2881 819 
Q 3016 1188 3097 1369 
L 4500 4481 
L 5156 4481 
L 5156 0 
z
" transform="scale(0.015625)"/>
       </defs>
       <use xlink:href="#SegoeUI-42"/>
       <use xlink:href="#SegoeUI-74" transform="translate(57.324219 0)"/>
       <use xlink:href="#SegoeUI-63" transform="translate(89.835938 0)"/>
       <use xlink:href="#SegoeUI-20" transform="translate(136.027344 0)"/>
       <use xlink:href="#SegoeUI-4d" transform="translate(163.419922 0)"/>
       <use xlink:href="#SegoeUI-69" transform="translate(253.214844 0)"/>
       <use xlink:href="#SegoeUI-6e" transform="translate(277.433594 0)"/>
       <use xlink:href="#SegoeUI-65" transform="translate(334.025391 0)"/>
       <use xlink:href="#SegoeUI-72" transform="translate(386.320312 0)"/>
       <use xlink:href="#SegoeUI-20" transform="translate(421.085938 0)"/>
       <use xlink:href="#SegoeUI-54" transform="translate(448.478516 0)"/>
       <use xlink:href="#SegoeUI-6f" transform="translate(490.621094 0)"/>
       <use xlink:href="#SegoeUI-20" transform="translate(549.214844 0)"/>
       <use xlink:href="#SegoeUI-45" transform="translate(576.607422 0)"/>
       <use xlink:href="#SegoeUI-78" transform="translate(627.193359 0)"/>
       <use xlink:href="#SegoeUI-63" transform="translate(672.341797 0)"/>
       <use xlink:href="#SegoeUI-68" transform="translate(718.533203 0)"/>
       <use xlink:href="#SegoeUI-61" transform="translate(775.125 0)"/>
       <use xlink:href="#SegoeUI-6e" transform="translate(826.003906 0)"/>
       <use xlink:href="#SegoeUI-67" transform="translate(882.595703 0)"/>
       <use xlink:href="#SegoeUI-65" transform="translate(941.482422 0)"/>
       <use xlink:href="#SegoeUI-20" transform="translate(993.777344 0)"/>
       <use xlink:href="#SegoeUI-46" transform="translate(1021.169922 0)"/>
       <use xlink:href="#SegoeUI-6c" transform="translate(1069.998047 0)"/>
       <use xlink:href="#SegoeUI-6f" transform="translate(1094.216797 0)"/>
       <use xlink:href="#SegoeUI-77" transform="translate(1152.810547 0)"/>
       <use xlink:href="#SegoeUI-20" transform="translate(1225.076172 0)"/>
       <use xlink:href="#SegoeUI-394" transform="translate(1252.46875 0)"/>
      </g>
     </g>
    </g>
    <g id="ytick_9">
     <g id="line2d_25">
      <path d="M 132.724375 182.898636 
L 337.013507 182.898636 
" clip-path="url(#pa0a643c41b)" style="fill: none; stroke: #d9dee7; stroke-opacity: 0.55; stroke-width: 0.7; stroke-linecap: square"/>
     </g>
     <g id="line2d_26">
      <g>
       <use xlink:href="#mb16bc59bf8" x="132.724375" y="182.898636" style="fill: #111827; stroke: #111827; stroke-width: 0.8"/>
      </g>
     </g>
     <g id="text_14">
      <!-- Cme Btc Basis Close Δ -->
      <g style="fill: #111827" transform="translate(38.678906 186.230043) scale(0.09 -0.09)">
       <defs>
        <path id="SegoeUI-6d" d="M 5063 0 
L 4550 0 
L 4550 1838 
Q 4550 2369 4386 2606 
Q 4222 2844 3834 2844 
Q 3506 2844 3276 2544 
Q 3047 2244 3047 1825 
L 3047 0 
L 2534 0 
L 2534 1900 
Q 2534 2844 1806 2844 
Q 1469 2844 1250 2561 
Q 1031 2278 1031 1825 
L 1031 0 
L 519 0 
L 519 3200 
L 1031 3200 
L 1031 2694 
L 1044 2694 
Q 1384 3275 2038 3275 
Q 2366 3275 2609 3092 
Q 2853 2909 2944 2613 
Q 3300 3275 4006 3275 
Q 5063 3275 5063 1972 
L 5063 0 
z
" transform="scale(0.015625)"/>
       </defs>
       <use xlink:href="#SegoeUI-43"/>
       <use xlink:href="#SegoeUI-6d" transform="translate(61.914062 0)"/>
       <use xlink:href="#SegoeUI-65" transform="translate(148.046875 0)"/>
       <use xlink:href="#SegoeUI-20" transform="translate(200.341797 0)"/>
       <use xlink:href="#SegoeUI-42" transform="translate(227.734375 0)"/>
       <use xlink:href="#SegoeUI-74" transform="translate(285.058594 0)"/>
       <use xlink:href="#SegoeUI-63" transform="translate(317.570312 0)"/>
       <use xlink:href="#SegoeUI-20" transform="translate(363.761719 0)"/>
       <use xlink:href="#SegoeUI-42" transform="translate(391.154297 0)"/>
       <use xlink:href="#SegoeUI-61" transform="translate(448.478516 0)"/>
       <use xlink:href="#SegoeUI-73" transform="translate(499.357422 0)"/>
       <use xlink:href="#SegoeUI-69" transform="translate(541.789062 0)"/>
       <use xlink:href="#SegoeUI-73" transform="translate(566.007812 0)"/>
       <use xlink:href="#SegoeUI-20" transform="translate(608.439453 0)"/>
       <use xlink:href="#SegoeUI-43" transform="translate(635.832031 0)"/>
       <use xlink:href="#SegoeUI-6c" transform="translate(697.746094 0)"/>
       <use xlink:href="#SegoeUI-6f" transform="translate(721.964844 0)"/>
       <use xlink:href="#SegoeUI-73" transform="translate(780.558594 0)"/>
       <use xlink:href="#SegoeUI-65" transform="translate(822.990234 0)"/>
       <use xlink:href="#SegoeUI-20" transform="translate(875.285156 0)"/>
       <use xlink:href="#SegoeUI-394" transform="translate(902.677734 0)"/>
      </g>
     </g>
    </g>
    <g id="ytick_10">
     <g id="line2d_27">
      <path d="M 132.724375 164.807727 
L 337.013507 164.807727 
" clip-path="url(#pa0a643c41b)" style="fill: none; stroke: #d9dee7; stroke-opacity: 0.55; stroke-width: 0.7; stroke-linecap: square"/>
     </g>
     <g id="line2d_28">
      <g>
       <use xlink:href="#mb16bc59bf8" x="132.724375" y="164.807727" style="fill: #111827; stroke: #111827; stroke-width: 0.8"/>
      </g>
     </g>
     <g id="text_15">
      <!-- Gld -->
      <g style="fill: #111827" transform="translate(112.069688 168.139134) scale(0.09 -0.09)">
       <defs>
        <path id="SegoeUI-47" d="M 3938 306 
Q 3263 -75 2438 -75 
Q 1478 -75 886 544 
Q 294 1163 294 2181 
Q 294 3222 951 3889 
Q 1609 4556 2619 4556 
Q 3350 4556 3847 4319 
L 3847 3738 
Q 3303 4081 2559 4081 
Q 1806 4081 1325 3562 
Q 844 3044 844 2219 
Q 844 1369 1291 883 
Q 1738 397 2503 397 
Q 3028 397 3413 606 
L 3413 1863 
L 2431 1863 
L 2431 2338 
L 3938 2338 
L 3938 306 
z
" transform="scale(0.015625)"/>
       </defs>
       <use xlink:href="#SegoeUI-47"/>
       <use xlink:href="#SegoeUI-6c" transform="translate(68.603516 0)"/>
       <use xlink:href="#SegoeUI-64" transform="translate(92.822266 0)"/>
      </g>
     </g>
    </g>
    <g id="ytick_11">
     <g id="line2d_29">
      <path d="M 132.724375 146.716818 
L 337.013507 146.716818 
" clip-path="url(#pa0a643c41b)" style="fill: none; stroke: #d9dee7; stroke-opacity: 0.55; stroke-width: 0.7; stroke-linecap: square"/>
     </g>
     <g id="line2d_30">
      <g>
       <use xlink:href="#mb16bc59bf8" x="132.724375" y="146.716818" style="fill: #111827; stroke: #111827; stroke-width: 0.8"/>
      </g>
     </g>
     <g id="text_16">
      <!-- Dtwexbgs Δ -->
      <g style="fill: #111827" transform="translate(78.388594 150.048224) scale(0.09 -0.09)">
       <use xlink:href="#SegoeUI-44"/>
       <use xlink:href="#SegoeUI-74" transform="translate(70.117188 0)"/>
       <use xlink:href="#SegoeUI-77" transform="translate(104.003906 0)"/>
       <use xlink:href="#SegoeUI-65" transform="translate(175.769531 0)"/>
       <use xlink:href="#SegoeUI-78" transform="translate(228.064453 0)"/>
       <use xlink:href="#SegoeUI-62" transform="translate(273.962891 0)"/>
       <use xlink:href="#SegoeUI-67" transform="translate(332.751953 0)"/>
       <use xlink:href="#SegoeUI-73" transform="translate(391.638672 0)"/>
       <use xlink:href="#SegoeUI-20" transform="translate(434.070312 0)"/>
       <use xlink:href="#SegoeUI-394" transform="translate(461.462891 0)"/>
      </g>
     </g>
    </g>
    <g id="ytick_12">
     <g id="line2d_31">
      <path d="M 132.724375 128.625909 
L 337.013507 128.625909 
" clip-path="url(#pa0a643c41b)" style="fill: none; stroke: #d9dee7; stroke-opacity: 0.55; stroke-width: 0.7; stroke-linecap: square"/>
     </g>
     <g id="line2d_32">
      <g>
       <use xlink:href="#mb16bc59bf8" x="132.724375" y="128.625909" style="fill: #111827; stroke: #111827; stroke-width: 0.8"/>
      </g>
     </g>
     <g id="text_17">
      <!-- Vixcls Δ -->
      <g style="fill: #111827" transform="translate(95.468906 131.957315) scale(0.09 -0.09)">
       <use xlink:href="#SegoeUI-56"/>
       <use xlink:href="#SegoeUI-69" transform="translate(62.109375 0)"/>
       <use xlink:href="#SegoeUI-78" transform="translate(86.328125 0)"/>
       <use xlink:href="#SegoeUI-63" transform="translate(131.476562 0)"/>
       <use xlink:href="#SegoeUI-6c" transform="translate(177.667969 0)"/>
       <use xlink:href="#SegoeUI-73" transform="translate(201.886719 0)"/>
       <use xlink:href="#SegoeUI-20" transform="translate(244.318359 0)"/>
       <use xlink:href="#SegoeUI-394" transform="translate(271.710938 0)"/>
      </g>
     </g>
    </g>
    <g id="ytick_13">
     <g id="line2d_33">
      <path d="M 132.724375 110.535 
L 337.013507 110.535 
" clip-path="url(#pa0a643c41b)" style="fill: none; stroke: #d9dee7; stroke-opacity: 0.55; stroke-width: 0.7; stroke-linecap: square"/>
     </g>
     <g id="line2d_34">
      <g>
       <use xlink:href="#mb16bc59bf8" x="132.724375" y="110.535" style="fill: #111827; stroke: #111827; stroke-width: 0.8"/>
      </g>
     </g>
     <g id="text_18">
      <!-- Spy -->
      <g style="fill: #111827" transform="translate(111.29625 113.8425) scale(0.09 -0.09)">
       <defs>
        <path id="SegoeUI-70" d="M 1044 463 
L 1031 463 
L 1031 -1472 
L 519 -1472 
L 519 3200 
L 1031 3200 
L 1031 2638 
L 1044 2638 
Q 1422 3275 2150 3275 
Q 2769 3275 3116 2845 
Q 3463 2416 3463 1694 
Q 3463 891 3072 408 
Q 2681 -75 2003 -75 
Q 1381 -75 1044 463 
z
M 1031 1753 
L 1031 1306 
Q 1031 909 1289 632 
Q 1547 356 1944 356 
Q 2409 356 2673 712 
Q 2938 1069 2938 1703 
Q 2938 2238 2691 2541 
Q 2444 2844 2022 2844 
Q 1575 2844 1303 2533 
Q 1031 2222 1031 1753 
z
" transform="scale(0.015625)"/>
        <path id="SegoeUI-79" d="M 3066 3200 
L 1594 -513 
Q 1200 -1506 488 -1506 
Q 288 -1506 153 -1466 
L 153 -1006 
Q 319 -1063 456 -1063 
Q 844 -1063 1038 -600 
L 1294 6 
L 44 3200 
L 613 3200 
L 1478 738 
Q 1494 691 1544 494 
L 1563 494 
Q 1578 569 1625 731 
L 2534 3200 
L 3066 3200 
z
" transform="scale(0.015625)"/>
       </defs>
       <use xlink:href="#SegoeUI-53"/>
       <use xlink:href="#SegoeUI-70" transform="translate(53.125 0)"/>
       <use xlink:href="#SegoeUI-79" transform="translate(111.914062 0)"/>
      </g>
     </g>
    </g>
    <g id="ytick_14">
     <g id="line2d_35">
      <path d="M 132.724375 92.444091 
L 337.013507 92.444091 
" clip-path="url(#pa0a643c41b)" style="fill: none; stroke: #d9dee7; stroke-opacity: 0.55; stroke-width: 0.7; stroke-linecap: square"/>
     </g>
     <g id="line2d_36">
      <g>
       <use xlink:href="#mb16bc59bf8" x="132.724375" y="92.444091" style="fill: #111827; stroke: #111827; stroke-width: 0.8"/>
      </g>
     </g>
     <g id="text_19">
      <!-- Qqq -->
      <g style="fill: #111827" transform="translate(108.338906 95.775497) scale(0.09 -0.09)">
       <defs>
        <path id="SegoeUI-51" d="M 2394 -75 
Q 1444 -75 866 553 
Q 294 1181 294 2188 
Q 294 3272 878 3913 
Q 1466 4556 2469 4556 
Q 3394 4556 3963 3931 
Q 4531 3306 4531 2297 
Q 4531 1200 3950 563 
Q 3813 409 3656 300 
L 4916 -603 
L 3963 -603 
L 3119 28 
Q 2788 -75 2394 -75 
z
M 2431 4081 
Q 1725 4081 1284 3572 
Q 844 3063 844 2234 
Q 844 1409 1272 900 
Q 1703 397 2394 397 
Q 3131 397 3556 878 
Q 3981 1359 3981 2225 
Q 3981 3116 3569 3597 
Q 3156 4081 2431 4081 
z
" transform="scale(0.015625)"/>
        <path id="SegoeUI-71" d="M 3250 -1472 
L 2738 -1472 
L 2738 550 
L 2725 550 
Q 2391 -75 1631 -75 
Q 1028 -75 664 354 
Q 300 784 300 1525 
Q 300 2322 700 2798 
Q 1100 3275 1775 3275 
Q 2431 3275 2725 2756 
L 2738 2756 
L 2738 3200 
L 3250 3200 
L 3250 -1472 
z
M 2738 1441 
L 2738 1906 
Q 2738 2300 2480 2572 
Q 2222 2844 1825 2844 
Q 1363 2844 1094 2501 
Q 825 2159 825 1538 
Q 825 984 1084 670 
Q 1344 356 1753 356 
Q 2203 356 2470 664 
Q 2738 972 2738 1441 
z
" transform="scale(0.015625)"/>
       </defs>
       <use xlink:href="#SegoeUI-51"/>
       <use xlink:href="#SegoeUI-71" transform="translate(75.390625 0)"/>
       <use xlink:href="#SegoeUI-71" transform="translate(134.277344 0)"/>
      </g>
     </g>
    </g>
   </g>
   <g id="text_20">
    <!-- A. Absolute Correlation -->
    <g style="fill: #111827" transform="translate(132.724375 68.715) scale(0.11 -0.11)">
     <defs>
      <path id="SegoeUI-41" d="M 4056 0 
L 3475 0 
L 3000 1256 
L 1100 1256 
L 653 0 
L 69 0 
L 1788 4481 
L 2331 4481 
L 4056 0 
z
M 2828 1728 
L 2125 3638 
Q 2091 3731 2056 3938 
L 2044 3938 
Q 2013 3747 1972 3638 
L 1275 1728 
L 2828 1728 
z
" transform="scale(0.015625)"/>
     </defs>
     <use xlink:href="#SegoeUI-41"/>
     <use xlink:href="#SegoeUI-2e" transform="translate(64.501953 0)"/>
     <use xlink:href="#SegoeUI-20" transform="translate(86.181641 0)"/>
     <use xlink:href="#SegoeUI-41" transform="translate(113.574219 0)"/>
     <use xlink:href="#SegoeUI-62" transform="translate(178.076172 0)"/>
     <use xlink:href="#SegoeUI-73" transform="translate(236.865234 0)"/>
     <use xlink:href="#SegoeUI-6f" transform="translate(279.296875 0)"/>
     <use xlink:href="#SegoeUI-6c" transform="translate(337.890625 0)"/>
     <use xlink:href="#SegoeUI-75" transform="translate(362.109375 0)"/>
     <use xlink:href="#SegoeUI-74" transform="translate(418.701172 0)"/>
     <use xlink:href="#SegoeUI-65" transform="translate(451.837891 0)"/>
     <use xlink:href="#SegoeUI-20" transform="translate(504.132812 0)"/>
     <use xlink:href="#SegoeUI-43" transform="translate(531.525391 0)"/>
     <use xlink:href="#SegoeUI-6f" transform="translate(593.439453 0)"/>
     <use xlink:href="#SegoeUI-72" transform="translate(652.033203 0)"/>
     <use xlink:href="#SegoeUI-72" transform="translate(686.798828 0)"/>
     <use xlink:href="#SegoeUI-65" transform="translate(720.189453 0)"/>
     <use xlink:href="#SegoeUI-6c" transform="translate(772.484375 0)"/>
     <use xlink:href="#SegoeUI-61" transform="translate(796.703125 0)"/>
     <use xlink:href="#SegoeUI-74" transform="translate(847.582031 0)"/>
     <use xlink:href="#SegoeUI-69" transform="translate(881.46875 0)"/>
     <use xlink:href="#SegoeUI-6f" transform="translate(905.6875 0)"/>
     <use xlink:href="#SegoeUI-6e" transform="translate(964.28125 0)"/>
    </g>
   </g>
  </g>
  <g id="axes_2">
   <g id="patch_17">
    <path d="M 474.845243 345.355 
L 679.134375 345.355 
L 679.134375 74.715 
L 474.845243 74.715 
z
" style="fill: #fafaf7"/>
   </g>
   <g id="patch_18">
    <path d="M 474.845243 333.053182 
L 491.41137 333.053182 
L 491.41137 322.198636 
L 474.845243 322.198636 
z
" clip-path="url(#p3f6057d8fe)" style="fill: #6b7280"/>
   </g>
   <g id="patch_19">
    <path d="M 474.845243 314.962273 
L 485.094424 314.962273 
L 485.094424 304.107727 
L 474.845243 304.107727 
z
" clip-path="url(#p3f6057d8fe)" style="fill: #6b7280"/>
   </g>
   <g id="patch_20">
    <path d="M 474.845243 296.871364 
L 529.236935 296.871364 
L 529.236935 286.016818 
L 474.845243 286.016818 
z
" clip-path="url(#p3f6057d8fe)" style="fill: #6b7280"/>
   </g>
   <g id="patch_21">
    <path d="M 474.845243 278.780455 
L 477.741567 278.780455 
L 477.741567 267.925909 
L 474.845243 267.925909 
z
" clip-path="url(#p3f6057d8fe)" style="fill: #6b7280"/>
   </g>
   <g id="patch_22">
    <path d="M 474.845243 260.689545 
L 529.786603 260.689545 
L 529.786603 249.835 
L 474.845243 249.835 
z
" clip-path="url(#p3f6057d8fe)" style="fill: #6b7280"/>
   </g>
   <g id="patch_23">
    <path d="M 474.845243 242.598636 
L 511.816711 242.598636 
L 511.816711 231.744091 
L 474.845243 231.744091 
z
" clip-path="url(#p3f6057d8fe)" style="fill: #6b7280"/>
   </g>
   <g id="patch_24">
    <path d="M 474.845243 224.507727 
L 580.030421 224.507727 
L 580.030421 213.653182 
L 474.845243 213.653182 
z
" clip-path="url(#p3f6057d8fe)" style="fill: #dc2626"/>
   </g>
   <g id="patch_25">
    <path d="M 474.845243 206.416818 
L 514.087259 206.416818 
L 514.087259 195.562273 
L 474.845243 195.562273 
z
" clip-path="url(#p3f6057d8fe)" style="fill: #6b7280"/>
   </g>
   <g id="patch_26">
    <path d="M 474.845243 188.325909 
L 553.041757 188.325909 
L 553.041757 177.471364 
L 474.845243 177.471364 
z
" clip-path="url(#p3f6057d8fe)" style="fill: #6b7280"/>
   </g>
   <g id="patch_27">
    <path d="M 474.845243 170.235 
L 585.442529 170.235 
L 585.442529 159.380455 
L 474.845243 159.380455 
z
" clip-path="url(#p3f6057d8fe)" style="fill: #dc2626"/>
   </g>
   <g id="patch_28">
    <path d="M 474.845243 152.144091 
L 548.619049 152.144091 
L 548.619049 141.289545 
L 474.845243 141.289545 
z
" clip-path="url(#p3f6057d8fe)" style="fill: #6b7280"/>
   </g>
   <g id="patch_29">
    <path d="M 474.845243 134.053182 
L 669.406321 134.053182 
L 669.406321 123.198636 
L 474.845243 123.198636 
z
" clip-path="url(#p3f6057d8fe)" style="fill: #dc2626"/>
   </g>
   <g id="patch_30">
    <path d="M 474.845243 115.962273 
L 480.654804 115.962273 
L 480.654804 105.107727 
L 474.845243 105.107727 
z
" clip-path="url(#p3f6057d8fe)" style="fill: #6b7280"/>
   </g>
   <g id="patch_31">
    <path d="M 474.845243 97.871364 
L 616.249266 97.871364 
L 616.249266 87.016818 
L 474.845243 87.016818 
z
" clip-path="url(#p3f6057d8fe)" style="fill: #dc2626"/>
   </g>
   <g id="matplotlib.axis_3">
    <g id="xtick_5">
     <g id="line2d_37">
      <path d="M 474.845243 345.355 
L 474.845243 74.715 
" clip-path="url(#p3f6057d8fe)" style="fill: none; stroke: #d9dee7; stroke-opacity: 0.55; stroke-width: 0.7; stroke-linecap: square"/>
     </g>
     <g id="line2d_38">
      <g>
       <use xlink:href="#m0d2557617a" x="474.845243" y="345.355" style="fill: #111827; stroke: #111827; stroke-width: 0.8"/>
      </g>
     </g>
     <g id="text_21">
      <!-- 0 -->
      <g style="fill: #111827" transform="translate(472.419462 359.017812) scale(0.09 -0.09)">
       <use xlink:href="#SegoeUI-30"/>
      </g>
     </g>
    </g>
    <g id="xtick_6">
     <g id="line2d_39">
      <path d="M 517.127342 345.355 
L 517.127342 74.715 
" clip-path="url(#p3f6057d8fe)" style="fill: none; stroke: #d9dee7; stroke-opacity: 0.55; stroke-width: 0.7; stroke-linecap: square"/>
     </g>
     <g id="line2d_40">
      <g>
       <use xlink:href="#m0d2557617a" x="517.127342" y="345.355" style="fill: #111827; stroke: #111827; stroke-width: 0.8"/>
      </g>
     </g>
     <g id="text_22">
      <!-- 1 -->
      <g style="fill: #111827" transform="translate(514.701561 359.017812) scale(0.09 -0.09)">
       <use xlink:href="#SegoeUI-31"/>
      </g>
     </g>
    </g>
    <g id="xtick_7">
     <g id="line2d_41">
      <path d="M 559.409441 345.355 
L 559.409441 74.715 
" clip-path="url(#p3f6057d8fe)" style="fill: none; stroke: #d9dee7; stroke-opacity: 0.55; stroke-width: 0.7; stroke-linecap: square"/>
     </g>
     <g id="line2d_42">
      <g>
       <use xlink:href="#m0d2557617a" x="559.409441" y="345.355" style="fill: #111827; stroke: #111827; stroke-width: 0.8"/>
      </g>
     </g>
     <g id="text_23">
      <!-- 2 -->
      <g style="fill: #111827" transform="translate(556.98366 359.017812) scale(0.09 -0.09)">
       <use xlink:href="#SegoeUI-32"/>
      </g>
     </g>
    </g>
    <g id="xtick_8">
     <g id="line2d_43">
      <path d="M 601.69154 345.355 
L 601.69154 74.715 
" clip-path="url(#p3f6057d8fe)" style="fill: none; stroke: #d9dee7; stroke-opacity: 0.55; stroke-width: 0.7; stroke-linecap: square"/>
     </g>
     <g id="line2d_44">
      <g>
       <use xlink:href="#m0d2557617a" x="601.69154" y="345.355" style="fill: #111827; stroke: #111827; stroke-width: 0.8"/>
      </g>
     </g>
     <g id="text_24">
      <!-- 3 -->
      <g style="fill: #111827" transform="translate(599.265759 359.017812) scale(0.09 -0.09)">
       <use xlink:href="#SegoeUI-33"/>
      </g>
     </g>
    </g>
    <g id="xtick_9">
     <g id="line2d_45">
      <path d="M 643.973639 345.355 
L 643.973639 74.715 
" clip-path="url(#p3f6057d8fe)" style="fill: none; stroke: #d9dee7; stroke-opacity: 0.55; stroke-width: 0.7; stroke-linecap: square"/>
     </g>
     <g id="line2d_46">
      <g>
       <use xlink:href="#m0d2557617a" x="643.973639" y="345.355" style="fill: #111827; stroke: #111827; stroke-width: 0.8"/>
      </g>
     </g>
     <g id="text_25">
      <!-- 4 -->
      <g style="fill: #111827" transform="translate(641.547857 359.017812) scale(0.09 -0.09)">
       <defs>
        <path id="SegoeUI-34" d="M 2656 4481 
L 2656 1522 
L 3231 1522 
L 3231 1053 
L 2656 1053 
L 2656 0 
L 2150 0 
L 2150 1053 
L 44 1053 
L 44 1497 
Q 338 1828 638 2204 
Q 938 2581 1211 2968 
Q 1484 3356 1717 3742 
Q 1950 4128 2109 4481 
L 2656 4481 
z
M 622 1522 
L 2150 1522 
L 2150 3716 
Q 1916 3306 1706 2984 
Q 1497 2663 1308 2400 
Q 1119 2138 947 1925 
Q 775 1713 622 1522 
z
" transform="scale(0.015625)"/>
       </defs>
       <use xlink:href="#SegoeUI-34"/>
      </g>
     </g>
    </g>
    <g id="text_26">
     <!-- |HAC t-stat| -->
     <g style="fill: #6b7280" transform="translate(551.952309 372.734687) scale(0.1 -0.1)">
      <defs>
       <path id="SegoeUI-48" d="M 3956 0 
L 3431 0 
L 3431 2044 
L 1113 2044 
L 1113 0 
L 588 0 
L 588 4481 
L 1113 4481 
L 1113 2516 
L 3431 2516 
L 3431 4481 
L 3956 4481 
L 3956 0 
z
" transform="scale(0.015625)"/>
       <path id="SegoeUI-2d" d="M 2156 1581 
L 450 1581 
L 450 1984 
L 2156 1984 
L 2156 1581 
z
" transform="scale(0.015625)"/>
      </defs>
      <use xlink:href="#SegoeUI-7c"/>
      <use xlink:href="#SegoeUI-48" transform="translate(23.925781 0)"/>
      <use xlink:href="#SegoeUI-41" transform="translate(94.921875 0)"/>
      <use xlink:href="#SegoeUI-43" transform="translate(158.048828 0)"/>
      <use xlink:href="#SegoeUI-20" transform="translate(219.962891 0)"/>
      <use xlink:href="#SegoeUI-74" transform="translate(247.355469 0)"/>
      <use xlink:href="#SegoeUI-2d" transform="translate(275.742188 0)"/>
      <use xlink:href="#SegoeUI-73" transform="translate(315.732422 0)"/>
      <use xlink:href="#SegoeUI-74" transform="translate(358.164062 0)"/>
      <use xlink:href="#SegoeUI-61" transform="translate(392.050781 0)"/>
      <use xlink:href="#SegoeUI-74" transform="translate(442.929688 0)"/>
      <use xlink:href="#SegoeUI-7c" transform="translate(476.816406 0)"/>
     </g>
    </g>
   </g>
   <g id="matplotlib.axis_4">
    <g id="ytick_15">
     <g id="line2d_47">
      <path d="M 474.845243 327.625909 
L 679.134375 327.625909 
" clip-path="url(#p3f6057d8fe)" style="fill: none; stroke: #d9dee7; stroke-opacity: 0.55; stroke-width: 0.7; stroke-linecap: square"/>
     </g>
     <g id="line2d_48">
      <g>
       <use xlink:href="#mb16bc59bf8" x="474.845243" y="327.625909" style="fill: #111827; stroke: #111827; stroke-width: 0.8"/>
      </g>
     </g>
     <g id="text_27">
      <!-- Dgs2 Δ -->
      <g style="fill: #111827" transform="translate(439.296962 330.933409) scale(0.09 -0.09)">
       <use xlink:href="#SegoeUI-44"/>
       <use xlink:href="#SegoeUI-67" transform="translate(70.117188 0)"/>
       <use xlink:href="#SegoeUI-73" transform="translate(129.003906 0)"/>
       <use xlink:href="#SegoeUI-32" transform="translate(171.435547 0)"/>
       <use xlink:href="#SegoeUI-20" transform="translate(225.341797 0)"/>
       <use xlink:href="#SegoeUI-394" transform="translate(252.734375 0)"/>
      </g>
     </g>
    </g>
    <g id="ytick_16">
     <g id="line2d_49">
      <path d="M 474.845243 309.535 
L 679.134375 309.535 
" clip-path="url(#p3f6057d8fe)" style="fill: none; stroke: #d9dee7; stroke-opacity: 0.55; stroke-width: 0.7; stroke-linecap: square"/>
     </g>
     <g id="line2d_50">
      <g>
       <use xlink:href="#mb16bc59bf8" x="474.845243" y="309.535" style="fill: #111827; stroke: #111827; stroke-width: 0.8"/>
      </g>
     </g>
     <g id="text_28">
      <!-- Stables Total Usd -->
      <g style="fill: #111827" transform="translate(400.622275 312.866406) scale(0.09 -0.09)">
       <use xlink:href="#SegoeUI-53"/>
       <use xlink:href="#SegoeUI-74" transform="translate(49.875 0)"/>
       <use xlink:href="#SegoeUI-61" transform="translate(83.761719 0)"/>
       <use xlink:href="#SegoeUI-62" transform="translate(134.640625 0)"/>
       <use xlink:href="#SegoeUI-6c" transform="translate(193.429688 0)"/>
       <use xlink:href="#SegoeUI-65" transform="translate(217.648438 0)"/>
       <use xlink:href="#SegoeUI-73" transform="translate(269.943359 0)"/>
       <use xlink:href="#SegoeUI-20" transform="translate(312.375 0)"/>
       <use xlink:href="#SegoeUI-54" transform="translate(339.767578 0)"/>
       <use xlink:href="#SegoeUI-6f" transform="translate(381.910156 0)"/>
       <use xlink:href="#SegoeUI-74" transform="translate(440.503906 0)"/>
       <use xlink:href="#SegoeUI-61" transform="translate(474.390625 0)"/>
       <use xlink:href="#SegoeUI-6c" transform="translate(525.269531 0)"/>
       <use xlink:href="#SegoeUI-20" transform="translate(549.488281 0)"/>
       <use xlink:href="#SegoeUI-55" transform="translate(576.880859 0)"/>
       <use xlink:href="#SegoeUI-73" transform="translate(645.582031 0)"/>
       <use xlink:href="#SegoeUI-64" transform="translate(688.013672 0)"/>
      </g>
     </g>
    </g>
    <g id="ytick_17">
     <g id="line2d_51">
      <path d="M 474.845243 291.444091 
L 679.134375 291.444091 
" clip-path="url(#p3f6057d8fe)" style="fill: none; stroke: #d9dee7; stroke-opacity: 0.55; stroke-width: 0.7; stroke-linecap: square"/>
     </g>
     <g id="line2d_52">
      <g>
       <use xlink:href="#mb16bc59bf8" x="474.845243" y="291.444091" style="fill: #111827; stroke: #111827; stroke-width: 0.8"/>
      </g>
     </g>
     <g id="text_29">
      <!-- Dgs10 Δ -->
      <g style="fill: #111827" transform="translate(434.4454 294.751591) scale(0.09 -0.09)">
       <use xlink:href="#SegoeUI-44"/>
       <use xlink:href="#SegoeUI-67" transform="translate(70.117188 0)"/>
       <use xlink:href="#SegoeUI-73" transform="translate(129.003906 0)"/>
       <use xlink:href="#SegoeUI-31" transform="translate(171.435547 0)"/>
       <use xlink:href="#SegoeUI-30" transform="translate(225.341797 0)"/>
       <use xlink:href="#SegoeUI-20" transform="translate(279.248047 0)"/>
       <use xlink:href="#SegoeUI-394" transform="translate(306.640625 0)"/>
      </g>
     </g>
    </g>
    <g id="ytick_18">
     <g id="line2d_53">
      <path d="M 474.845243 273.353182 
L 679.134375 273.353182 
" clip-path="url(#p3f6057d8fe)" style="fill: none; stroke: #d9dee7; stroke-opacity: 0.55; stroke-width: 0.7; stroke-linecap: square"/>
     </g>
     <g id="line2d_54">
      <g>
       <use xlink:href="#mb16bc59bf8" x="474.845243" y="273.353182" style="fill: #111827; stroke: #111827; stroke-width: 0.8"/>
      </g>
     </g>
     <g id="text_30">
      <!-- Btc Exchange Netflow Δ -->
      <g style="fill: #111827" transform="translate(373.595556 276.732401) scale(0.09 -0.09)">
       <use xlink:href="#SegoeUI-42"/>
       <use xlink:href="#SegoeUI-74" transform="translate(57.324219 0)"/>
       <use xlink:href="#SegoeUI-63" transform="translate(89.835938 0)"/>
       <use xlink:href="#SegoeUI-20" transform="translate(136.027344 0)"/>
       <use xlink:href="#SegoeUI-45" transform="translate(163.419922 0)"/>
       <use xlink:href="#SegoeUI-78" transform="translate(214.005859 0)"/>
       <use xlink:href="#SegoeUI-63" transform="translate(259.154297 0)"/>
       <use xlink:href="#SegoeUI-68" transform="translate(305.345703 0)"/>
       <use xlink:href="#SegoeUI-61" transform="translate(361.9375 0)"/>
       <use xlink:href="#SegoeUI-6e" transform="translate(412.816406 0)"/>
       <use xlink:href="#SegoeUI-67" transform="translate(469.408203 0)"/>
       <use xlink:href="#SegoeUI-65" transform="translate(528.294922 0)"/>
       <use xlink:href="#SegoeUI-20" transform="translate(580.589844 0)"/>
       <use xlink:href="#SegoeUI-4e" transform="translate(607.982422 0)"/>
       <use xlink:href="#SegoeUI-65" transform="translate(682.787109 0)"/>
       <use xlink:href="#SegoeUI-74" transform="translate(735.082031 0)"/>
       <use xlink:href="#SegoeUI-66" transform="translate(768.96875 0)"/>
       <use xlink:href="#SegoeUI-6c" transform="translate(800.267578 0)"/>
       <use xlink:href="#SegoeUI-6f" transform="translate(824.486328 0)"/>
       <use xlink:href="#SegoeUI-77" transform="translate(883.080078 0)"/>
       <use xlink:href="#SegoeUI-20" transform="translate(955.345703 0)"/>
       <use xlink:href="#SegoeUI-394" transform="translate(982.738281 0)"/>
      </g>
     </g>
    </g>
    <g id="ytick_19">
     <g id="line2d_55">
      <path d="M 474.845243 255.262273 
L 679.134375 255.262273 
" clip-path="url(#p3f6057d8fe)" style="fill: none; stroke: #d9dee7; stroke-opacity: 0.55; stroke-width: 0.7; stroke-linecap: square"/>
     </g>
     <g id="line2d_56">
      <g>
       <use xlink:href="#mb16bc59bf8" x="474.845243" y="255.262273" style="fill: #111827; stroke: #111827; stroke-width: 0.8"/>
      </g>
     </g>
     <g id="text_31">
      <!-- Defi Tvl Usd -->
      <g style="fill: #111827" transform="translate(420.841337 258.593679) scale(0.09 -0.09)">
       <use xlink:href="#SegoeUI-44"/>
       <use xlink:href="#SegoeUI-65" transform="translate(70.117188 0)"/>
       <use xlink:href="#SegoeUI-66" transform="translate(122.412109 0)"/>
       <use xlink:href="#SegoeUI-69" transform="translate(153.710938 0)"/>
       <use xlink:href="#SegoeUI-20" transform="translate(177.929688 0)"/>
       <use xlink:href="#SegoeUI-54" transform="translate(205.322266 0)"/>
       <use xlink:href="#SegoeUI-76" transform="translate(252.714844 0)"/>
       <use xlink:href="#SegoeUI-6c" transform="translate(300.615234 0)"/>
       <use xlink:href="#SegoeUI-20" transform="translate(324.833984 0)"/>
       <use xlink:href="#SegoeUI-55" transform="translate(352.226562 0)"/>
       <use xlink:href="#SegoeUI-73" transform="translate(420.927734 0)"/>
       <use xlink:href="#SegoeUI-64" transform="translate(463.359375 0)"/>
      </g>
     </g>
    </g>
    <g id="ytick_20">
     <g id="line2d_57">
      <path d="M 474.845243 237.171364 
L 679.134375 237.171364 
" clip-path="url(#p3f6057d8fe)" style="fill: none; stroke: #d9dee7; stroke-opacity: 0.55; stroke-width: 0.7; stroke-linecap: square"/>
     </g>
     <g id="line2d_58">
      <g>
       <use xlink:href="#mb16bc59bf8" x="474.845243" y="237.171364" style="fill: #111827; stroke: #111827; stroke-width: 0.8"/>
      </g>
     </g>
     <g id="text_32">
      <!-- Dff Δ -->
      <g style="fill: #111827" transform="translate(447.634618 240.50277) scale(0.09 -0.09)">
       <use xlink:href="#SegoeUI-44"/>
       <use xlink:href="#SegoeUI-66" transform="translate(70.117188 0)"/>
       <use xlink:href="#SegoeUI-66" transform="translate(101.416016 0)"/>
       <use xlink:href="#SegoeUI-20" transform="translate(132.714844 0)"/>
       <use xlink:href="#SegoeUI-394" transform="translate(160.107422 0)"/>
      </g>
     </g>
    </g>
    <g id="ytick_21">
     <g id="line2d_59">
      <path d="M 474.845243 219.080455 
L 679.134375 219.080455 
" clip-path="url(#p3f6057d8fe)" style="fill: none; stroke: #d9dee7; stroke-opacity: 0.55; stroke-width: 0.7; stroke-linecap: square"/>
     </g>
     <g id="line2d_60">
      <g>
       <use xlink:href="#mb16bc59bf8" x="474.845243" y="219.080455" style="fill: #111827; stroke: #111827; stroke-width: 0.8"/>
      </g>
     </g>
     <g id="text_33">
      <!-- Fng Value Δ -->
      <g style="fill: #111827" transform="translate(420.818837 222.411861) scale(0.09 -0.09)">
       <use xlink:href="#SegoeUI-46"/>
       <use xlink:href="#SegoeUI-6e" transform="translate(48.828125 0)"/>
       <use xlink:href="#SegoeUI-67" transform="translate(105.419922 0)"/>
       <use xlink:href="#SegoeUI-20" transform="translate(164.306641 0)"/>
       <use xlink:href="#SegoeUI-56" transform="translate(191.699219 0)"/>
       <use xlink:href="#SegoeUI-61" transform="translate(246.683594 0)"/>
       <use xlink:href="#SegoeUI-6c" transform="translate(297.5625 0)"/>
       <use xlink:href="#SegoeUI-75" transform="translate(321.78125 0)"/>
       <use xlink:href="#SegoeUI-65" transform="translate(378.373047 0)"/>
       <use xlink:href="#SegoeUI-20" transform="translate(430.667969 0)"/>
       <use xlink:href="#SegoeUI-394" transform="translate(458.060547 0)"/>
      </g>
     </g>
    </g>
    <g id="ytick_22">
     <g id="line2d_61">
      <path d="M 474.845243 200.989545 
L 679.134375 200.989545 
" clip-path="url(#p3f6057d8fe)" style="fill: none; stroke: #d9dee7; stroke-opacity: 0.55; stroke-width: 0.7; stroke-linecap: square"/>
     </g>
     <g id="line2d_62">
      <g>
       <use xlink:href="#mb16bc59bf8" x="474.845243" y="200.989545" style="fill: #111827; stroke: #111827; stroke-width: 0.8"/>
      </g>
     </g>
     <g id="text_34">
      <!-- Btc Miner To Exchange Flow Δ -->
      <g style="fill: #111827" transform="translate(349.320868 204.320952) scale(0.09 -0.09)">
       <use xlink:href="#SegoeUI-42"/>
       <use xlink:href="#SegoeUI-74" transform="translate(57.324219 0)"/>
       <use xlink:href="#SegoeUI-63" transform="translate(89.835938 0)"/>
       <use xlink:href="#SegoeUI-20" transform="translate(136.027344 0)"/>
       <use xlink:href="#SegoeUI-4d" transform="translate(163.419922 0)"/>
       <use xlink:href="#SegoeUI-69" transform="translate(253.214844 0)"/>
       <use xlink:href="#SegoeUI-6e" transform="translate(277.433594 0)"/>
       <use xlink:href="#SegoeUI-65" transform="translate(334.025391 0)"/>
       <use xlink:href="#SegoeUI-72" transform="translate(386.320312 0)"/>
       <use xlink:href="#SegoeUI-20" transform="translate(421.085938 0)"/>
       <use xlink:href="#SegoeUI-54" transform="translate(448.478516 0)"/>
       <use xlink:href="#SegoeUI-6f" transform="translate(490.621094 0)"/>
       <use xlink:href="#SegoeUI-20" transform="translate(549.214844 0)"/>
       <use xlink:href="#SegoeUI-45" transform="translate(576.607422 0)"/>
       <use xlink:href="#SegoeUI-78" transform="translate(627.193359 0)"/>
       <use xlink:href="#SegoeUI-63" transform="translate(672.341797 0)"/>
       <use xlink:href="#SegoeUI-68" transform="translate(718.533203 0)"/>
       <use xlink:href="#SegoeUI-61" transform="translate(775.125 0)"/>
       <use xlink:href="#SegoeUI-6e" transform="translate(826.003906 0)"/>
       <use xlink:href="#SegoeUI-67" transform="translate(882.595703 0)"/>
       <use xlink:href="#SegoeUI-65" transform="translate(941.482422 0)"/>
       <use xlink:href="#SegoeUI-20" transform="translate(993.777344 0)"/>
       <use xlink:href="#SegoeUI-46" transform="translate(1021.169922 0)"/>
       <use xlink:href="#SegoeUI-6c" transform="translate(1069.998047 0)"/>
       <use xlink:href="#SegoeUI-6f" transform="translate(1094.216797 0)"/>
       <use xlink:href="#SegoeUI-77" transform="translate(1152.810547 0)"/>
       <use xlink:href="#SegoeUI-20" transform="translate(1225.076172 0)"/>
       <use xlink:href="#SegoeUI-394" transform="translate(1252.46875 0)"/>
      </g>
     </g>
    </g>
    <g id="ytick_23">
     <g id="line2d_63">
      <path d="M 474.845243 182.898636 
L 679.134375 182.898636 
" clip-path="url(#p3f6057d8fe)" style="fill: none; stroke: #d9dee7; stroke-opacity: 0.55; stroke-width: 0.7; stroke-linecap: square"/>
     </g>
     <g id="line2d_64">
      <g>
       <use xlink:href="#mb16bc59bf8" x="474.845243" y="182.898636" style="fill: #111827; stroke: #111827; stroke-width: 0.8"/>
      </g>
     </g>
     <g id="text_35">
      <!-- Cme Btc Basis Close Δ -->
      <g style="fill: #111827" transform="translate(380.799775 186.230043) scale(0.09 -0.09)">
       <use xlink:href="#SegoeUI-43"/>
       <use xlink:href="#SegoeUI-6d" transform="translate(61.914062 0)"/>
       <use xlink:href="#SegoeUI-65" transform="translate(148.046875 0)"/>
       <use xlink:href="#SegoeUI-20" transform="translate(200.341797 0)"/>
       <use xlink:href="#SegoeUI-42" transform="translate(227.734375 0)"/>
       <use xlink:href="#SegoeUI-74" transform="translate(285.058594 0)"/>
       <use xlink:href="#SegoeUI-63" transform="translate(317.570312 0)"/>
       <use xlink:href="#SegoeUI-20" transform="translate(363.761719 0)"/>
       <use xlink:href="#SegoeUI-42" transform="translate(391.154297 0)"/>
       <use xlink:href="#SegoeUI-61" transform="translate(448.478516 0)"/>
       <use xlink:href="#SegoeUI-73" transform="translate(499.357422 0)"/>
       <use xlink:href="#SegoeUI-69" transform="translate(541.789062 0)"/>
       <use xlink:href="#SegoeUI-73" transform="translate(566.007812 0)"/>
       <use xlink:href="#SegoeUI-20" transform="translate(608.439453 0)"/>
       <use xlink:href="#SegoeUI-43" transform="translate(635.832031 0)"/>
       <use xlink:href="#SegoeUI-6c" transform="translate(697.746094 0)"/>
       <use xlink:href="#SegoeUI-6f" transform="translate(721.964844 0)"/>
       <use xlink:href="#SegoeUI-73" transform="translate(780.558594 0)"/>
       <use xlink:href="#SegoeUI-65" transform="translate(822.990234 0)"/>
       <use xlink:href="#SegoeUI-20" transform="translate(875.285156 0)"/>
       <use xlink:href="#SegoeUI-394" transform="translate(902.677734 0)"/>
      </g>
     </g>
    </g>
    <g id="ytick_24">
     <g id="line2d_65">
      <path d="M 474.845243 164.807727 
L 679.134375 164.807727 
" clip-path="url(#p3f6057d8fe)" style="fill: none; stroke: #d9dee7; stroke-opacity: 0.55; stroke-width: 0.7; stroke-linecap: square"/>
     </g>
     <g id="line2d_66">
      <g>
       <use xlink:href="#mb16bc59bf8" x="474.845243" y="164.807727" style="fill: #111827; stroke: #111827; stroke-width: 0.8"/>
      </g>
     </g>
     <g id="text_36">
      <!-- Gld -->
      <g style="fill: #111827" transform="translate(454.190556 168.139134) scale(0.09 -0.09)">
       <use xlink:href="#SegoeUI-47"/>
       <use xlink:href="#SegoeUI-6c" transform="translate(68.603516 0)"/>
       <use xlink:href="#SegoeUI-64" transform="translate(92.822266 0)"/>
      </g>
     </g>
    </g>
    <g id="ytick_25">
     <g id="line2d_67">
      <path d="M 474.845243 146.716818 
L 679.134375 146.716818 
" clip-path="url(#p3f6057d8fe)" style="fill: none; stroke: #d9dee7; stroke-opacity: 0.55; stroke-width: 0.7; stroke-linecap: square"/>
     </g>
     <g id="line2d_68">
      <g>
       <use xlink:href="#mb16bc59bf8" x="474.845243" y="146.716818" style="fill: #111827; stroke: #111827; stroke-width: 0.8"/>
      </g>
     </g>
     <g id="text_37">
      <!-- Dtwexbgs Δ -->
      <g style="fill: #111827" transform="translate(420.509462 150.048224) scale(0.09 -0.09)">
       <use xlink:href="#SegoeUI-44"/>
       <use xlink:href="#SegoeUI-74" transform="translate(70.117188 0)"/>
       <use xlink:href="#SegoeUI-77" transform="translate(104.003906 0)"/>
       <use xlink:href="#SegoeUI-65" transform="translate(175.769531 0)"/>
       <use xlink:href="#SegoeUI-78" transform="translate(228.064453 0)"/>
       <use xlink:href="#SegoeUI-62" transform="translate(273.962891 0)"/>
       <use xlink:href="#SegoeUI-67" transform="translate(332.751953 0)"/>
       <use xlink:href="#SegoeUI-73" transform="translate(391.638672 0)"/>
       <use xlink:href="#SegoeUI-20" transform="translate(434.070312 0)"/>
       <use xlink:href="#SegoeUI-394" transform="translate(461.462891 0)"/>
      </g>
     </g>
    </g>
    <g id="ytick_26">
     <g id="line2d_69">
      <path d="M 474.845243 128.625909 
L 679.134375 128.625909 
" clip-path="url(#p3f6057d8fe)" style="fill: none; stroke: #d9dee7; stroke-opacity: 0.55; stroke-width: 0.7; stroke-linecap: square"/>
     </g>
     <g id="line2d_70">
      <g>
       <use xlink:href="#mb16bc59bf8" x="474.845243" y="128.625909" style="fill: #111827; stroke: #111827; stroke-width: 0.8"/>
      </g>
     </g>
     <g id="text_38">
      <!-- Vixcls Δ -->
      <g style="fill: #111827" transform="translate(437.589775 131.957315) scale(0.09 -0.09)">
       <use xlink:href="#SegoeUI-56"/>
       <use xlink:href="#SegoeUI-69" transform="translate(62.109375 0)"/>
       <use xlink:href="#SegoeUI-78" transform="translate(86.328125 0)"/>
       <use xlink:href="#SegoeUI-63" transform="translate(131.476562 0)"/>
       <use xlink:href="#SegoeUI-6c" transform="translate(177.667969 0)"/>
       <use xlink:href="#SegoeUI-73" transform="translate(201.886719 0)"/>
       <use xlink:href="#SegoeUI-20" transform="translate(244.318359 0)"/>
       <use xlink:href="#SegoeUI-394" transform="translate(271.710938 0)"/>
      </g>
     </g>
    </g>
    <g id="ytick_27">
     <g id="line2d_71">
      <path d="M 474.845243 110.535 
L 679.134375 110.535 
" clip-path="url(#p3f6057d8fe)" style="fill: none; stroke: #d9dee7; stroke-opacity: 0.55; stroke-width: 0.7; stroke-linecap: square"/>
     </g>
     <g id="line2d_72">
      <g>
       <use xlink:href="#mb16bc59bf8" x="474.845243" y="110.535" style="fill: #111827; stroke: #111827; stroke-width: 0.8"/>
      </g>
     </g>
     <g id="text_39">
      <!-- Spy -->
      <g style="fill: #111827" transform="translate(453.417118 113.8425) scale(0.09 -0.09)">
       <use xlink:href="#SegoeUI-53"/>
       <use xlink:href="#SegoeUI-70" transform="translate(53.125 0)"/>
       <use xlink:href="#SegoeUI-79" transform="translate(111.914062 0)"/>
      </g>
     </g>
    </g>
    <g id="ytick_28">
     <g id="line2d_73">
      <path d="M 474.845243 92.444091 
L 679.134375 92.444091 
" clip-path="url(#p3f6057d8fe)" style="fill: none; stroke: #d9dee7; stroke-opacity: 0.55; stroke-width: 0.7; stroke-linecap: square"/>
     </g>
     <g id="line2d_74">
      <g>
       <use xlink:href="#mb16bc59bf8" x="474.845243" y="92.444091" style="fill: #111827; stroke: #111827; stroke-width: 0.8"/>
      </g>
     </g>
     <g id="text_40">
      <!-- Qqq -->
      <g style="fill: #111827" transform="translate(450.459775 95.775497) scale(0.09 -0.09)">
       <use xlink:href="#SegoeUI-51"/>
       <use xlink:href="#SegoeUI-71" transform="translate(75.390625 0)"/>
       <use xlink:href="#SegoeUI-71" transform="translate(134.277344 0)"/>
      </g>
     </g>
    </g>
   </g>
   <g id="line2d_75">
    <path d="M 559.409441 345.355 
L 559.409441 74.715 
" clip-path="url(#p3f6057d8fe)" style="fill: none; stroke-dasharray: 3.7,1.6; stroke-dashoffset: 0; stroke: #dc2626; stroke-opacity: 0.4"/>
   </g>
   <g id="text_41">
    <!-- B. Multivariate HAC |t| -->
    <g style="fill: #111827" transform="translate(474.845243 68.715) scale(0.11 -0.11)">
     <use xlink:href="#SegoeUI-42"/>
     <use xlink:href="#SegoeUI-2e" transform="translate(57.324219 0)"/>
     <use xlink:href="#SegoeUI-20" transform="translate(79.003906 0)"/>
     <use xlink:href="#SegoeUI-4d" transform="translate(106.396484 0)"/>
     <use xlink:href="#SegoeUI-75" transform="translate(196.191406 0)"/>
     <use xlink:href="#SegoeUI-6c" transform="translate(252.783203 0)"/>
     <use xlink:href="#SegoeUI-74" transform="translate(277.001953 0)"/>
     <use xlink:href="#SegoeUI-69" transform="translate(310.888672 0)"/>
     <use xlink:href="#SegoeUI-76" transform="translate(335.107422 0)"/>
     <use xlink:href="#SegoeUI-61" transform="translate(381.257812 0)"/>
     <use xlink:href="#SegoeUI-72" transform="translate(432.136719 0)"/>
     <use xlink:href="#SegoeUI-69" transform="translate(466.902344 0)"/>
     <use xlink:href="#SegoeUI-61" transform="translate(491.121094 0)"/>
     <use xlink:href="#SegoeUI-74" transform="translate(542 0)"/>
     <use xlink:href="#SegoeUI-65" transform="translate(575.136719 0)"/>
     <use xlink:href="#SegoeUI-20" transform="translate(627.431641 0)"/>
     <use xlink:href="#SegoeUI-48" transform="translate(654.824219 0)"/>
     <use xlink:href="#SegoeUI-41" transform="translate(725.820312 0)"/>
     <use xlink:href="#SegoeUI-43" transform="translate(788.947266 0)"/>
     <use xlink:href="#SegoeUI-20" transform="translate(850.861328 0)"/>
     <use xlink:href="#SegoeUI-7c" transform="translate(878.253906 0)"/>
     <use xlink:href="#SegoeUI-74" transform="translate(902.179688 0)"/>
     <use xlink:href="#SegoeUI-7c" transform="translate(936.066406 0)"/>
    </g>
   </g>
  </g>
  <g id="text_42">
   <!-- BTC Feature Strength (ex-MVRV Model) -->
   <g style="fill: #111827" transform="translate(212.400312 17.564375) scale(0.14 -0.14)">
    <defs>
     <path id="SegoeUI-Bold-42" d="M 513 0 
L 513 4481 
L 2144 4481 
Q 2894 4481 3297 4206 
Q 3700 3931 3700 3431 
Q 3700 3069 3454 2797 
Q 3209 2525 2828 2419 
L 2828 2406 
Q 3306 2347 3592 2053 
Q 3878 1759 3878 1338 
Q 3878 722 3437 361 
Q 2997 0 2234 0 
L 513 0 
z
M 1522 3738 
L 1522 2675 
L 1966 2675 
Q 2278 2675 2458 2826 
Q 2638 2978 2638 3244 
Q 2638 3738 1900 3738 
L 1522 3738 
z
M 1522 1925 
L 1522 744 
L 2069 744 
Q 2419 744 2617 906 
Q 2816 1069 2816 1350 
Q 2816 1619 2620 1772 
Q 2425 1925 2075 1925 
L 1522 1925 
z
" transform="scale(0.015625)"/>
     <path id="SegoeUI-Bold-54" d="M 3659 3659 
L 2381 3659 
L 2381 0 
L 1369 0 
L 1369 3659 
L 97 3659 
L 97 4481 
L 3659 4481 
L 3659 3659 
z
" transform="scale(0.015625)"/>
     <path id="SegoeUI-Bold-43" d="M 3725 159 
Q 3234 -78 2444 -78 
Q 1413 -78 822 528 
Q 231 1134 231 2144 
Q 231 3219 895 3887 
Q 1559 4556 2619 4556 
Q 3275 4556 3725 4391 
L 3725 3419 
Q 3275 3688 2700 3688 
Q 2069 3688 1681 3291 
Q 1294 2894 1294 2216 
Q 1294 1566 1659 1180 
Q 2025 794 2644 794 
Q 3234 794 3725 1081 
L 3725 159 
z
" transform="scale(0.015625)"/>
     <path id="SegoeUI-Bold-20" transform="scale(0.015625)"/>
     <path id="SegoeUI-Bold-46" d="M 3103 3659 
L 1522 3659 
L 1522 2559 
L 2975 2559 
L 2975 1741 
L 1522 1741 
L 1522 0 
L 513 0 
L 513 4481 
L 3103 4481 
L 3103 3659 
z
" transform="scale(0.015625)"/>
     <path id="SegoeUI-Bold-65" d="M 3291 1319 
L 1203 1319 
Q 1253 622 2081 622 
Q 2609 622 3009 872 
L 3009 159 
Q 2566 -78 1856 -78 
Q 1081 -78 653 351 
Q 225 781 225 1550 
Q 225 2347 687 2812 
Q 1150 3278 1825 3278 
Q 2525 3278 2908 2862 
Q 3291 2447 3291 1734 
L 3291 1319 
z
M 2375 1925 
Q 2375 2613 1819 2613 
Q 1581 2613 1407 2416 
Q 1234 2219 1197 1925 
L 2375 1925 
z
" transform="scale(0.015625)"/>
     <path id="SegoeUI-Bold-61" d="M 3078 0 
L 2144 0 
L 2144 459 
L 2131 459 
Q 1809 -78 1178 -78 
Q 713 -78 445 186 
Q 178 450 178 891 
Q 178 1822 1281 1966 
L 2150 2081 
Q 2150 2606 1581 2606 
Q 1009 2606 494 2266 
L 494 3009 
Q 700 3116 1058 3197 
Q 1416 3278 1709 3278 
Q 3078 3278 3078 1913 
L 3078 0 
z
M 2150 1300 
L 2150 1516 
L 1569 1441 
Q 1088 1378 1088 1006 
Q 1088 838 1205 730 
Q 1322 622 1522 622 
Q 1800 622 1975 814 
Q 2150 1006 2150 1300 
z
" transform="scale(0.015625)"/>
     <path id="SegoeUI-Bold-74" d="M 2350 38 
Q 2131 -78 1691 -78 
Q 647 -78 647 1006 
L 647 2472 
L 128 2472 
L 128 3200 
L 647 3200 
L 647 3891 
L 1631 4172 
L 1631 3200 
L 2350 3200 
L 2350 2472 
L 1631 2472 
L 1631 1178 
Q 1631 678 2028 678 
Q 2184 678 2350 769 
L 2350 38 
z
" transform="scale(0.015625)"/>
     <path id="SegoeUI-Bold-75" d="M 3456 0 
L 2472 0 
L 2472 488 
L 2456 488 
Q 2091 -78 1478 -78 
Q 366 -78 366 1269 
L 366 3200 
L 1350 3200 
L 1350 1356 
Q 1350 678 1888 678 
Q 2153 678 2312 864 
Q 2472 1050 2472 1369 
L 2472 3200 
L 3456 3200 
L 3456 0 
z
" transform="scale(0.015625)"/>
     <path id="SegoeUI-Bold-72" d="M 2503 2309 
Q 2325 2406 2088 2406 
Q 1766 2406 1584 2170 
Q 1403 1934 1403 1528 
L 1403 0 
L 416 0 
L 416 3200 
L 1403 3200 
L 1403 2606 
L 1416 2606 
Q 1650 3256 2259 3256 
Q 2416 3256 2503 3219 
L 2503 2309 
z
" transform="scale(0.015625)"/>
     <path id="SegoeUI-Bold-53" d="M 306 172 
L 306 1172 
Q 578 944 897 830 
Q 1216 716 1541 716 
Q 1731 716 1873 750 
Q 2016 784 2111 845 
Q 2206 906 2253 989 
Q 2300 1072 2300 1169 
Q 2300 1300 2225 1403 
Q 2150 1506 2020 1593 
Q 1891 1681 1712 1762 
Q 1534 1844 1328 1928 
Q 803 2147 545 2462 
Q 288 2778 288 3225 
Q 288 3575 428 3826 
Q 569 4078 811 4240 
Q 1053 4403 1372 4479 
Q 1691 4556 2047 4556 
Q 2397 4556 2667 4514 
Q 2938 4472 3166 4384 
L 3166 3450 
Q 3053 3528 2920 3587 
Q 2788 3647 2647 3686 
Q 2506 3725 2367 3744 
Q 2228 3763 2103 3763 
Q 1931 3763 1790 3730 
Q 1650 3697 1553 3637 
Q 1456 3578 1403 3495 
Q 1350 3413 1350 3309 
Q 1350 3197 1409 3108 
Q 1469 3019 1578 2939 
Q 1688 2859 1844 2782 
Q 2000 2706 2197 2625 
Q 2466 2513 2680 2386 
Q 2894 2259 3047 2100 
Q 3200 1941 3281 1736 
Q 3363 1531 3363 1259 
Q 3363 884 3220 629 
Q 3078 375 2834 217 
Q 2591 59 2267 -9 
Q 1944 -78 1584 -78 
Q 1216 -78 883 -15 
Q 550 47 306 172 
z
" transform="scale(0.015625)"/>
     <path id="SegoeUI-Bold-6e" d="M 3506 0 
L 2522 0 
L 2522 1778 
Q 2522 2522 1991 2522 
Q 1734 2522 1568 2325 
Q 1403 2128 1403 1825 
L 1403 0 
L 416 0 
L 416 3200 
L 1403 3200 
L 1403 2694 
L 1416 2694 
Q 1769 3278 2444 3278 
Q 3506 3278 3506 1959 
L 3506 0 
z
" transform="scale(0.015625)"/>
     <path id="SegoeUI-Bold-67" d="M 3553 366 
Q 3553 -525 3037 -1014 
Q 2522 -1503 1544 -1503 
Q 897 -1503 519 -1319 
L 519 -488 
Q 1013 -775 1516 -775 
Q 2016 -775 2291 -511 
Q 2566 -247 2566 206 
L 2566 459 
L 2553 459 
Q 2216 -78 1556 -78 
Q 944 -78 584 353 
Q 225 784 225 1509 
Q 225 2322 625 2800 
Q 1025 3278 1678 3278 
Q 2263 3278 2553 2828 
L 2566 2828 
L 2566 3200 
L 3553 3200 
L 3553 366 
z
M 2578 1538 
L 2578 1791 
Q 2578 2094 2398 2308 
Q 2219 2522 1931 2522 
Q 1603 2522 1415 2265 
Q 1228 2009 1228 1544 
Q 1228 1144 1406 911 
Q 1584 678 1894 678 
Q 2200 678 2389 914 
Q 2578 1150 2578 1538 
z
" transform="scale(0.015625)"/>
     <path id="SegoeUI-Bold-68" d="M 3488 0 
L 2503 0 
L 2503 1819 
Q 2503 2522 1991 2522 
Q 1728 2522 1565 2325 
Q 1403 2128 1403 1825 
L 1403 0 
L 416 0 
L 416 4738 
L 1403 4738 
L 1403 2725 
L 1416 2725 
Q 1778 3278 2400 3278 
Q 3488 3278 3488 1966 
L 3488 0 
z
" transform="scale(0.015625)"/>
     <path id="SegoeUI-Bold-28" d="M 2309 -1019 
L 1503 -1019 
Q 494 94 494 1716 
Q 494 3281 1503 4481 
L 2303 4481 
Q 1356 3225 1356 1716 
Q 1356 206 2309 -1019 
z
" transform="scale(0.015625)"/>
     <path id="SegoeUI-Bold-78" d="M 3506 3200 
L 2450 1650 
L 3500 0 
L 2363 0 
L 1900 863 
Q 1844 966 1766 1153 
L 1753 1153 
Q 1706 1022 1625 872 
L 1159 0 
L 25 0 
L 1106 1594 
L 91 3200 
L 1234 3200 
L 1691 2303 
Q 1781 2125 1819 2003 
L 1831 2003 
Q 1881 2150 1966 2309 
L 2431 3200 
L 3506 3200 
z
" transform="scale(0.015625)"/>
     <path id="SegoeUI-Bold-2d" d="M 2156 1363 
L 447 1363 
L 447 2053 
L 2156 2053 
L 2156 1363 
z
" transform="scale(0.015625)"/>
     <path id="SegoeUI-Bold-4d" d="M 5619 0 
L 4622 0 
L 4622 2681 
Q 4622 3116 4659 3641 
L 4634 3641 
Q 4556 3228 4494 3047 
L 3444 0 
L 2619 0 
L 1550 3016 
Q 1506 3138 1409 3641 
L 1381 3641 
Q 1422 2978 1422 2478 
L 1422 0 
L 513 0 
L 513 4481 
L 1991 4481 
L 2906 1825 
Q 3016 1506 3066 1184 
L 3084 1184 
Q 3169 1556 3263 1831 
L 4178 4481 
L 5619 4481 
L 5619 0 
z
" transform="scale(0.015625)"/>
     <path id="SegoeUI-Bold-56" d="M 4244 4481 
L 2700 0 
L 1556 0 
L 31 4481 
L 1119 4481 
L 2053 1363 
Q 2128 1109 2144 916 
L 2163 916 
Q 2184 1125 2259 1375 
L 3188 4481 
L 4244 4481 
z
" transform="scale(0.015625)"/>
     <path id="SegoeUI-Bold-52" d="M 4272 0 
L 3113 0 
L 2416 1153 
Q 2338 1284 2266 1387 
Q 2194 1491 2120 1564 
Q 2047 1638 1967 1677 
Q 1888 1716 1794 1716 
L 1522 1716 
L 1522 0 
L 513 0 
L 513 4481 
L 2113 4481 
Q 3744 4481 3744 3263 
Q 3744 3028 3672 2829 
Q 3600 2631 3469 2472 
Q 3338 2313 3152 2197 
Q 2966 2081 2738 2016 
L 2738 2003 
Q 2838 1972 2931 1901 
Q 3025 1831 3112 1737 
Q 3200 1644 3279 1536 
Q 3359 1428 3425 1325 
L 4272 0 
z
M 1522 3725 
L 1522 2478 
L 1959 2478 
Q 2284 2478 2481 2666 
Q 2681 2856 2681 3138 
Q 2681 3725 1978 3725 
L 1522 3725 
z
" transform="scale(0.015625)"/>
     <path id="SegoeUI-Bold-6f" d="M 1941 -78 
Q 1141 -78 683 370 
Q 225 819 225 1588 
Q 225 2381 700 2829 
Q 1175 3278 1984 3278 
Q 2781 3278 3234 2829 
Q 3688 2381 3688 1644 
Q 3688 847 3220 384 
Q 2753 -78 1941 -78 
z
M 1966 2522 
Q 1616 2522 1422 2281 
Q 1228 2041 1228 1600 
Q 1228 678 1972 678 
Q 2681 678 2681 1625 
Q 2681 2522 1966 2522 
z
" transform="scale(0.015625)"/>
     <path id="SegoeUI-Bold-64" d="M 3547 0 
L 2559 0 
L 2559 441 
L 2547 441 
Q 2209 -78 1556 -78 
Q 956 -78 590 345 
Q 225 769 225 1528 
Q 225 2322 628 2800 
Q 1031 3278 1684 3278 
Q 2303 3278 2547 2834 
L 2559 2834 
L 2559 4738 
L 3547 4738 
L 3547 0 
z
M 2578 1556 
L 2578 1797 
Q 2578 2109 2397 2315 
Q 2216 2522 1925 2522 
Q 1597 2522 1412 2264 
Q 1228 2006 1228 1556 
Q 1228 1134 1406 906 
Q 1584 678 1900 678 
Q 2200 678 2389 918 
Q 2578 1159 2578 1556 
z
" transform="scale(0.015625)"/>
     <path id="SegoeUI-Bold-6c" d="M 1403 0 
L 416 0 
L 416 4738 
L 1403 4738 
L 1403 0 
z
" transform="scale(0.015625)"/>
     <path id="SegoeUI-Bold-29" d="M 856 -1019 
L 56 -1019 
Q 1013 200 1013 1716 
Q 1013 3219 56 4481 
L 863 4481 
Q 1875 3278 1875 1716 
Q 1875 106 856 -1019 
z
" transform="scale(0.015625)"/>
    </defs>
    <use xlink:href="#SegoeUI-Bold-42"/>
    <use xlink:href="#SegoeUI-Bold-54" transform="translate(61.736328 0)"/>
    <use xlink:href="#SegoeUI-Bold-43" transform="translate(116.830078 0)"/>
    <use xlink:href="#SegoeUI-Bold-20" transform="translate(179.232422 0)"/>
    <use xlink:href="#SegoeUI-Bold-46" transform="translate(206.820312 0)"/>
    <use xlink:href="#SegoeUI-Bold-65" transform="translate(258.822266 0)"/>
    <use xlink:href="#SegoeUI-Bold-61" transform="translate(312.923828 0)"/>
    <use xlink:href="#SegoeUI-Bold-74" transform="translate(366.732422 0)"/>
    <use xlink:href="#SegoeUI-Bold-75" transform="translate(405.648438 0)"/>
    <use xlink:href="#SegoeUI-Bold-72" transform="translate(466.146484 0)"/>
    <use xlink:href="#SegoeUI-Bold-65" transform="translate(505.566406 0)"/>
    <use xlink:href="#SegoeUI-Bold-20" transform="translate(559.667969 0)"/>
    <use xlink:href="#SegoeUI-Bold-53" transform="translate(587.255859 0)"/>
    <use xlink:href="#SegoeUI-Bold-74" transform="translate(640.810547 0)"/>
    <use xlink:href="#SegoeUI-Bold-72" transform="translate(679.726562 0)"/>
    <use xlink:href="#SegoeUI-Bold-65" transform="translate(719.146484 0)"/>
    <use xlink:href="#SegoeUI-Bold-6e" transform="translate(773.248047 0)"/>
    <use xlink:href="#SegoeUI-Bold-67" transform="translate(833.746094 0)"/>
    <use xlink:href="#SegoeUI-Bold-74" transform="translate(895.660156 0)"/>
    <use xlink:href="#SegoeUI-Bold-68" transform="translate(934.576172 0)"/>
    <use xlink:href="#SegoeUI-Bold-20" transform="translate(994.78125 0)"/>
    <use xlink:href="#SegoeUI-Bold-28" transform="translate(1022.369141 0)"/>
    <use xlink:href="#SegoeUI-Bold-65" transform="translate(1059.283203 0)"/>
    <use xlink:href="#SegoeUI-Bold-78" transform="translate(1113.384766 0)"/>
    <use xlink:href="#SegoeUI-Bold-2d" transform="translate(1168.609375 0)"/>
    <use xlink:href="#SegoeUI-Bold-4d" transform="translate(1209.039062 0)"/>
    <use xlink:href="#SegoeUI-Bold-56" transform="translate(1304.742188 0)"/>
    <use xlink:href="#SegoeUI-Bold-52" transform="translate(1371.441406 0)"/>
    <use xlink:href="#SegoeUI-Bold-56" transform="translate(1436.724609 0)"/>
    <use xlink:href="#SegoeUI-Bold-20" transform="translate(1503.423828 0)"/>
    <use xlink:href="#SegoeUI-Bold-4d" transform="translate(1531.011719 0)"/>
    <use xlink:href="#SegoeUI-Bold-6f" transform="translate(1626.714844 0)"/>
    <use xlink:href="#SegoeUI-Bold-64" transform="translate(1687.847656 0)"/>
    <use xlink:href="#SegoeUI-Bold-65" transform="translate(1749.761719 0)"/>
    <use xlink:href="#SegoeUI-Bold-6c" transform="translate(1803.863281 0)"/>
    <use xlink:href="#SegoeUI-Bold-29" transform="translate(1832.28125 0)"/>
   </g>
  </g>
 </g>
 <defs>
  <clipPath id="pa0a643c41b">
   <rect x="132.724375" y="74.715" width="204.289132" height="270.64"/>
  </clipPath>
  <clipPath id="p3f6057d8fe">
   <rect x="474.845243" y="74.715" width="204.289132" height="270.64"/>
  </clipPath>
 </defs>
</svg>
