<?xml version="1.0" encoding="utf-8" standalone="no"?>
<!DOCTYPE svg PUBLIC "-//W3C//DTD SVG 1.1//EN"
  "http://www.w3.org/Graphics/SVG/1.1/DTD/svg11.dtd">
<svg xmlns:xlink="http://www.w3.org/1999/xlink" width="720pt" height="405pt" viewBox="0 0 720 405" xmlns="http://www.w3.org/2000/svg" version="1.1">
 <metadata>
  <rdf:RDF xmlns:dc="http://purl.org/dc/elements/1.1/" xmlns:cc="http://creativecommons.org/ns#" xmlns:rdf="http://www.w3.org/1999/02/22-rdf-syntax-ns#">
   <cc:Work>
    <dc:type rdf:resource="http://purl.org/dc/dcmitype/StillImage"/>
    <dc:date>2026-06-16T14:04:23.675976</dc:date>
    <dc:format>image/svg+xml</dc:format>
    <dc:creator>
     <cc:Agent>
      <dc:title>Matplotlib v3.10.8, https://matplotlib.org/</dc:title>
     </cc:Agent>
    </dc:creator>
   </cc:Work>
  </rdf:RDF>
 </metadata>
 <defs>
  <style type="text/css">*{stroke-linejoin: round; stroke-linecap: butt}</style>
 </defs>
 <g id="figure_1">
  <g id="patch_1">
   <path d="M 0 405 
L 720 405 
L 720 0 
L 0 0 
z
" style="fill: #fafaf7"/>
  </g>
  <g id="patch_2">
   <path d="M 22.32 391.635 
L 697.68 391.635 
Q 710.64 391.635 710.64 384.345 
L 710.64 24.705 
Q 710.64 17.415 697.68 17.415 
L 22.32 17.415 
Q 9.36 17.415 9.36 24.705 
L 9.36 384.345 
Q 9.36 391.635 22.32 391.635 
z
" style="fill: #ffffff; stroke: #d9dee7; stroke-linejoin: miter"/>
  </g>
  <g id="axes_1">
   <g id="patch_3">
    <path d="M 54 336.15 
L 666 336.15 
L 666 89.1 
L 54 89.1 
z
" style="fill: #ffffff"/>
   </g>
   <g id="patch_4">
    <path d="M 81.818182 294.683379 
L 123.030303 294.683379 
L 123.030303 278.228871 
L 81.818182 278.228871 
z
" clip-path="url(#pe397620d97)" style="fill: #6b7280; opacity: 0.92; stroke: #f3f4f6; stroke-width: 0.8; stroke-linejoin: miter"/>
   </g>
   <g id="patch_5">
    <path d="M 133.333333 294.683379 
L 174.545455 294.683379 
L 174.545455 282.434215 
L 133.333333 282.434215 
z
" clip-path="url(#pe397620d97)" style="fill: #6b7280; opacity: 0.92; stroke: #f3f4f6; stroke-width: 0.8; stroke-linejoin: miter"/>
   </g>
   <g id="patch_6">
    <path d="M 184.848485 294.683379 
L 226.060606 294.683379 
L 226.060606 300.343235 
L 184.848485 300.343235 
z
" clip-path="url(#pe397620d97)" style="fill: #6b7280; opacity: 0.92; stroke: #f3f4f6; stroke-width: 0.8; stroke-linejoin: miter"/>
   </g>
   <g id="patch_7">
    <path d="M 236.363636 294.683379 
L 277.575758 294.683379 
L 277.575758 285.934961 
L 236.363636 285.934961 
z
" clip-path="url(#pe397620d97)" style="fill: #6b7280; opacity: 0.92; stroke: #f3f4f6; stroke-width: 0.8; stroke-linejoin: miter"/>
   </g>
   <g id="patch_8">
    <path d="M 287.878788 294.683379 
L 329.090909 294.683379 
L 329.090909 263.658054 
L 287.878788 263.658054 
z
" clip-path="url(#pe397620d97)" style="fill: #6b7280; opacity: 0.92; stroke: #f3f4f6; stroke-width: 0.8; stroke-linejoin: miter"/>
   </g>
   <g id="patch_9">
    <path d="M 339.393939 294.683379 
L 380.606061 294.683379 
L 380.606061 125.095894 
L 339.393939 125.095894 
z
" clip-path="url(#pe397620d97)" style="fill: #0f766e; opacity: 0.92; stroke: #f3f4f6; stroke-width: 0.8; stroke-linejoin: miter"/>
   </g>
   <g id="patch_10">
    <path d="M 390.909091 294.683379 
L 432.121212 294.683379 
L 432.121212 112.321308 
L 390.909091 112.321308 
z
" clip-path="url(#pe397620d97)" style="fill: #f7931a; opacity: 0.92; stroke: #f3f4f6; stroke-width: 0.8; stroke-linejoin: miter"/>
   </g>
   <g id="patch_11">
    <path d="M 442.424242 294.683379 
L 483.636364 294.683379 
L 483.636364 200.028 
L 442.424242 200.028 
z
" clip-path="url(#pe397620d97)" style="fill: #f7931a; opacity: 0.92; stroke: #f3f4f6; stroke-width: 0.8; stroke-linejoin: miter"/>
   </g>
   <g id="patch_12">
    <path d="M 493.939394 294.683379 
L 535.151515 294.683379 
L 535.151515 229.029958 
L 493.939394 229.029958 
z
" clip-path="url(#pe397620d97)" style="fill: #f7931a; opacity: 0.92; stroke: #f3f4f6; stroke-width: 0.8; stroke-linejoin: miter"/>
   </g>
   <g id="patch_13">
    <path d="M 545.454545 294.683379 
L 586.666667 294.683379 
L 586.666667 259.916829 
L 545.454545 259.916829 
z
" clip-path="url(#pe397620d97)" style="fill: #f7931a; opacity: 0.92; stroke: #f3f4f6; stroke-width: 0.8; stroke-linejoin: miter"/>
   </g>
   <g id="patch_14">
    <path d="M 596.969697 294.683379 
L 638.181818 294.683379 
L 638.181818 284.74393 
L 596.969697 284.74393 
z
" clip-path="url(#pe397620d97)" style="fill: #f7931a; opacity: 0.92; stroke: #f3f4f6; stroke-width: 0.8; stroke-linejoin: miter"/>
   </g>
   <g id="matplotlib.axis_1">
    <g id="xtick_1">
     <g id="line2d_1">
      <path d="M 102.424242 336.15 
L 102.424242 89.1 
" clip-path="url(#pe397620d97)" style="fill: none; stroke: #d9dee7; stroke-opacity: 0.45; stroke-width: 0.7; stroke-linecap: square"/>
     </g>
     <g id="line2d_2"/>
     <g id="text_1">
      <!-- −5 -->
      <g style="fill: #6b7280" transform="translate(97.531742 345.5725) scale(0.08 -0.08)">
       <defs>
        <path id="SegoeUI-2212" d="M 3663 1656 
L 725 1656 
L 725 2075 
L 3663 2075 
L 3663 1656 
z
" transform="scale(0.015625)"/>
        <path id="SegoeUI-35" d="M 3028 1369 
Q 3028 1041 2915 775 
Q 2803 509 2595 318 
Q 2388 128 2094 25 
Q 1800 -78 1441 -78 
Q 816 -78 513 109 
L 513 653 
Q 969 359 1447 359 
Q 1691 359 1886 431 
Q 2081 503 2218 631 
Q 2356 759 2429 940 
Q 2503 1122 2503 1338 
Q 2503 1775 2209 2023 
Q 1916 2272 1356 2272 
Q 1266 2272 1166 2269 
Q 1066 2266 966 2261 
Q 866 2256 770 2250 
Q 675 2244 597 2234 
L 750 4481 
L 2822 4481 
L 2822 4019 
L 1194 4019 
L 1103 2703 
Q 1203 2709 1315 2714 
Q 1428 2719 1516 2719 
Q 1872 2719 2153 2625 
Q 2434 2531 2629 2357 
Q 2825 2184 2926 1932 
Q 3028 1681 3028 1369 
z
" transform="scale(0.015625)"/>
       </defs>
       <use xlink:href="#SegoeUI-2212"/>
       <use xlink:href="#SegoeUI-35" transform="translate(68.408203 0)"/>
      </g>
     </g>
    </g>
    <g id="xtick_2">
     <g id="line2d_3">
      <path d="M 153.939394 336.15 
L 153.939394 89.1 
" clip-path="url(#pe397620d97)" style="fill: none; stroke: #d9dee7; stroke-opacity: 0.45; stroke-width: 0.7; stroke-linecap: square"/>
     </g>
     <g id="line2d_4"/>
     <g id="text_2">
      <!-- −4 -->
      <g style="fill: #6b7280" transform="translate(149.046894 345.5725) scale(0.08 -0.08)">
       <defs>
        <path id="SegoeUI-34" d="M 2656 4481 
L 2656 1522 
L 3231 1522 
L 3231 1053 
L 2656 1053 
L 2656 0 
L 2150 0 
L 2150 1053 
L 44 1053 
L 44 1497 
Q 338 1828 638 2204 
Q 938 2581 1211 2968 
Q 1484 3356 1717 3742 
Q 1950 4128 2109 4481 
L 2656 4481 
z
M 622 1522 
L 2150 1522 
L 2150 3716 
Q 1916 3306 1706 2984 
Q 1497 2663 1308 2400 
Q 1119 2138 947 1925 
Q 775 1713 622 1522 
z
" transform="scale(0.015625)"/>
       </defs>
       <use xlink:href="#SegoeUI-2212"/>
       <use xlink:href="#SegoeUI-34" transform="translate(68.408203 0)"/>
      </g>
     </g>
    </g>
    <g id="xtick_3">
     <g id="line2d_5">
      <path d="M 205.454545 336.15 
L 205.454545 89.1 
" clip-path="url(#pe397620d97)" style="fill: none; stroke: #d9dee7; stroke-opacity: 0.45; stroke-width: 0.7; stroke-linecap: square"/>
     </g>
     <g id="line2d_6"/>
     <g id="text_3">
      <!-- −3 -->
      <g style="fill: #6b7280" transform="translate(200.562045 345.5725) scale(0.08 -0.08)">
       <defs>
        <path id="SegoeUI-33" d="M 2978 1269 
Q 2978 966 2864 717 
Q 2750 469 2542 292 
Q 2334 116 2043 19 
Q 1753 -78 1403 -78 
Q 763 -78 384 166 
L 384 716 
Q 838 359 1422 359 
Q 1656 359 1845 418 
Q 2034 478 2170 590 
Q 2306 703 2379 862 
Q 2453 1022 2453 1222 
Q 2453 2100 1203 2100 
L 831 2100 
L 831 2534 
L 1184 2534 
Q 2291 2534 2291 3359 
Q 2291 4122 1447 4122 
Q 972 4122 556 3803 
L 556 4300 
Q 984 4556 1575 4556 
Q 1856 4556 2084 4478 
Q 2313 4400 2475 4259 
Q 2638 4119 2727 3922 
Q 2816 3725 2816 3488 
Q 2816 2603 1922 2350 
L 1922 2338 
Q 2150 2313 2344 2227 
Q 2538 2141 2678 2003 
Q 2819 1866 2898 1680 
Q 2978 1494 2978 1269 
z
" transform="scale(0.015625)"/>
       </defs>
       <use xlink:href="#SegoeUI-2212"/>
       <use xlink:href="#SegoeUI-33" transform="translate(68.408203 0)"/>
      </g>
     </g>
    </g>
    <g id="xtick_4">
     <g id="line2d_7">
      <path d="M 256.969697 336.15 
L 256.969697 89.1 
" clip-path="url(#pe397620d97)" style="fill: none; stroke: #d9dee7; stroke-opacity: 0.45; stroke-width: 0.7; stroke-linecap: square"/>
     </g>
     <g id="line2d_8"/>
     <g id="text_4">
      <!-- −2 -->
      <g style="fill: #6b7280" transform="translate(252.077197 345.5725) scale(0.08 -0.08)">
       <defs>
        <path id="SegoeUI-32" d="M 2413 3306 
Q 2413 3513 2348 3666 
Q 2284 3819 2173 3920 
Q 2063 4022 1913 4072 
Q 1763 4122 1588 4122 
Q 1438 4122 1294 4081 
Q 1150 4041 1014 3969 
Q 878 3897 751 3797 
Q 625 3697 516 3575 
L 516 4125 
Q 731 4334 998 4445 
Q 1266 4556 1650 4556 
Q 1925 4556 2159 4476 
Q 2394 4397 2566 4244 
Q 2738 4091 2836 3866 
Q 2934 3641 2934 3350 
Q 2934 3084 2873 2868 
Q 2813 2653 2689 2462 
Q 2566 2272 2378 2097 
Q 2191 1922 1938 1741 
Q 1622 1516 1417 1356 
Q 1213 1197 1092 1058 
Q 972 919 923 780 
Q 875 641 875 459 
L 3106 459 
L 3106 0 
L 341 0 
L 341 222 
Q 341 509 403 728 
Q 466 947 609 1144 
Q 753 1341 986 1537 
Q 1219 1734 1556 1981 
Q 1800 2156 1964 2315 
Q 2128 2475 2228 2634 
Q 2328 2794 2370 2958 
Q 2413 3122 2413 3306 
z
" transform="scale(0.015625)"/>
       </defs>
       <use xlink:href="#SegoeUI-2212"/>
       <use xlink:href="#SegoeUI-32" transform="translate(68.408203 0)"/>
      </g>
     </g>
    </g>
    <g id="xtick_5">
     <g id="line2d_9">
      <path d="M 308.484848 336.15 
L 308.484848 89.1 
" clip-path="url(#pe397620d97)" style="fill: none; stroke: #d9dee7; stroke-opacity: 0.45; stroke-width: 0.7; stroke-linecap: square"/>
     </g>
     <g id="line2d_10"/>
     <g id="text_5">
      <!-- −1 -->
      <g style="fill: #6b7280" transform="translate(303.592348 345.5725) scale(0.08 -0.08)">
       <defs>
        <path id="SegoeUI-31" d="M 2263 0 
L 1750 0 
L 1750 3872 
Q 1691 3813 1577 3736 
Q 1463 3659 1320 3584 
Q 1178 3509 1020 3443 
Q 863 3378 713 3341 
L 713 3859 
Q 881 3906 1070 3986 
Q 1259 4066 1442 4164 
Q 1625 4263 1787 4370 
Q 1950 4478 2069 4581 
L 2263 4581 
L 2263 0 
z
" transform="scale(0.015625)"/>
       </defs>
       <use xlink:href="#SegoeUI-2212"/>
       <use xlink:href="#SegoeUI-31" transform="translate(68.408203 0)"/>
      </g>
     </g>
    </g>
    <g id="xtick_6">
     <g id="line2d_11">
      <path d="M 360 336.15 
L 360 89.1 
" clip-path="url(#pe397620d97)" style="fill: none; stroke: #d9dee7; stroke-opacity: 0.45; stroke-width: 0.7; stroke-linecap: square"/>
     </g>
     <g id="line2d_12"/>
     <g id="text_6">
      <!-- 0 -->
      <g style="fill: #6b7280" transform="translate(357.84375 345.5725) scale(0.08 -0.08)">
       <defs>
        <path id="SegoeUI-30" d="M 3188 2259 
Q 3188 1697 3086 1262 
Q 2984 828 2792 529 
Q 2600 231 2320 76 
Q 2041 -78 1684 -78 
Q 1347 -78 1083 70 
Q 819 219 637 503 
Q 456 788 362 1202 
Q 269 1616 269 2150 
Q 269 2738 367 3188 
Q 466 3638 656 3942 
Q 847 4247 1130 4401 
Q 1413 4556 1778 4556 
Q 3188 4556 3188 2259 
z
M 2663 2209 
Q 2663 4122 1753 4122 
Q 794 4122 794 2175 
Q 794 359 1734 359 
Q 2663 359 2663 2209 
z
" transform="scale(0.015625)"/>
       </defs>
       <use xlink:href="#SegoeUI-30"/>
      </g>
     </g>
    </g>
    <g id="xtick_7">
     <g id="line2d_13">
      <path d="M 411.515152 336.15 
L 411.515152 89.1 
" clip-path="url(#pe397620d97)" style="fill: none; stroke: #d9dee7; stroke-opacity: 0.45; stroke-width: 0.7; stroke-linecap: square"/>
     </g>
     <g id="line2d_14"/>
     <g id="text_7">
      <!-- 1 -->
      <g style="fill: #6b7280" transform="translate(409.358902 345.5725) scale(0.08 -0.08)">
       <use xlink:href="#SegoeUI-31"/>
      </g>
     </g>
    </g>
    <g id="xtick_8">
     <g id="line2d_15">
      <path d="M 463.030303 336.15 
L 463.030303 89.1 
" clip-path="url(#pe397620d97)" style="fill: none; stroke: #d9dee7; stroke-opacity: 0.45; stroke-width: 0.7; stroke-linecap: square"/>
     </g>
     <g id="line2d_16"/>
     <g id="text_8">
      <!-- 2 -->
      <g style="fill: #6b7280" transform="translate(460.874053 345.5725) scale(0.08 -0.08)">
       <use xlink:href="#SegoeUI-32"/>
      </g>
     </g>
    </g>
    <g id="xtick_9">
     <g id="line2d_17">
      <path d="M 514.545455 336.15 
L 514.545455 89.1 
" clip-path="url(#pe397620d97)" style="fill: none; stroke: #d9dee7; stroke-opacity: 0.45; stroke-width: 0.7; stroke-linecap: square"/>
     </g>
     <g id="line2d_18"/>
     <g id="text_9">
      <!-- 3 -->
      <g style="fill: #6b7280" transform="translate(512.389205 345.5725) scale(0.08 -0.08)">
       <use xlink:href="#SegoeUI-33"/>
      </g>
     </g>
    </g>
    <g id="xtick_10">
     <g id="line2d_19">
      <path d="M 566.060606 336.15 
L 566.060606 89.1 
" clip-path="url(#pe397620d97)" style="fill: none; stroke: #d9dee7; stroke-opacity: 0.45; stroke-width: 0.7; stroke-linecap: square"/>
     </g>
     <g id="line2d_20"/>
     <g id="text_10">
      <!-- 4 -->
      <g style="fill: #6b7280" transform="translate(563.904356 345.5725) scale(0.08 -0.08)">
       <use xlink:href="#SegoeUI-34"/>
      </g>
     </g>
    </g>
    <g id="xtick_11">
     <g id="line2d_21">
      <path d="M 617.575758 336.15 
L 617.575758 89.1 
" clip-path="url(#pe397620d97)" style="fill: none; stroke: #d9dee7; stroke-opacity: 0.45; stroke-width: 0.7; stroke-linecap: square"/>
     </g>
     <g id="line2d_22"/>
     <g id="text_11">
      <!-- 5 -->
      <g style="fill: #6b7280" transform="translate(615.419508 345.5725) scale(0.08 -0.08)">
       <use xlink:href="#SegoeUI-35"/>
      </g>
     </g>
    </g>
    <g id="text_12">
     <!-- Lag convention: lag &lt; 0 means flow leads return -->
     <g style="fill: #6b7280" transform="translate(264.801797 358.170937) scale(0.09 -0.09)">
      <defs>
       <path id="SegoeUI-4c" d="M 2913 0 
L 588 0 
L 588 4481 
L 1113 4481 
L 1113 475 
L 2913 475 
L 2913 0 
z
" transform="scale(0.015625)"/>
       <path id="SegoeUI-61" d="M 2809 0 
L 2297 0 
L 2297 500 
L 2284 500 
Q 1950 -75 1300 -75 
Q 822 -75 551 178 
Q 281 431 281 850 
Q 281 1747 1338 1894 
L 2297 2028 
Q 2297 2844 1638 2844 
Q 1059 2844 594 2450 
L 594 2975 
Q 1066 3275 1681 3275 
Q 2809 3275 2809 2081 
L 2809 0 
z
M 2297 1619 
L 1525 1513 
Q 1169 1463 987 1336 
Q 806 1209 806 888 
Q 806 653 973 504 
Q 1141 356 1419 356 
Q 1800 356 2048 623 
Q 2297 891 2297 1300 
L 2297 1619 
z
" transform="scale(0.015625)"/>
       <path id="SegoeUI-67" d="M 3250 256 
Q 3250 -1506 1563 -1506 
Q 969 -1506 525 -1281 
L 525 -769 
Q 1066 -1069 1556 -1069 
Q 2738 -1069 2738 188 
L 2738 538 
L 2725 538 
Q 2359 -75 1625 -75 
Q 1028 -75 664 351 
Q 300 778 300 1497 
Q 300 2313 692 2794 
Q 1084 3275 1766 3275 
Q 2413 3275 2725 2756 
L 2738 2756 
L 2738 3200 
L 3250 3200 
L 3250 256 
z
M 2738 1447 
L 2738 1919 
Q 2738 2300 2480 2572 
Q 2222 2844 1838 2844 
Q 1363 2844 1094 2498 
Q 825 2153 825 1531 
Q 825 997 1083 676 
Q 1341 356 1766 356 
Q 2197 356 2467 662 
Q 2738 969 2738 1447 
z
" transform="scale(0.015625)"/>
       <path id="SegoeUI-20" transform="scale(0.015625)"/>
       <path id="SegoeUI-63" d="M 2700 147 
Q 2331 -75 1825 -75 
Q 1141 -75 720 370 
Q 300 816 300 1525 
Q 300 2316 753 2795 
Q 1206 3275 1963 3275 
Q 2384 3275 2706 3119 
L 2706 2594 
Q 2350 2844 1944 2844 
Q 1453 2844 1139 2492 
Q 825 2141 825 1569 
Q 825 1006 1120 681 
Q 1416 356 1913 356 
Q 2331 356 2700 634 
L 2700 147 
z
" transform="scale(0.015625)"/>
       <path id="SegoeUI-6f" d="M 1856 -75 
Q 1147 -75 723 373 
Q 300 822 300 1563 
Q 300 2369 740 2822 
Q 1181 3275 1931 3275 
Q 2647 3275 3048 2834 
Q 3450 2394 3450 1613 
Q 3450 847 3017 386 
Q 2584 -75 1856 -75 
z
M 1894 2844 
Q 1400 2844 1112 2508 
Q 825 2172 825 1581 
Q 825 1013 1115 684 
Q 1406 356 1894 356 
Q 2391 356 2658 678 
Q 2925 1000 2925 1594 
Q 2925 2194 2658 2519 
Q 2391 2844 1894 2844 
z
" transform="scale(0.015625)"/>
       <path id="SegoeUI-6e" d="M 3175 0 
L 2663 0 
L 2663 1825 
Q 2663 2844 1919 2844 
Q 1534 2844 1282 2555 
Q 1031 2266 1031 1825 
L 1031 0 
L 519 0 
L 519 3200 
L 1031 3200 
L 1031 2669 
L 1044 2669 
Q 1406 3275 2094 3275 
Q 2619 3275 2897 2936 
Q 3175 2597 3175 1956 
L 3175 0 
z
" transform="scale(0.015625)"/>
       <path id="SegoeUI-76" d="M 3034 3200 
L 1759 0 
L 1256 0 
L 44 3200 
L 606 3200 
L 1419 875 
Q 1509 619 1531 428 
L 1544 428 
Q 1575 669 1644 863 
L 2494 3200 
L 3034 3200 
z
" transform="scale(0.015625)"/>
       <path id="SegoeUI-65" d="M 3091 1472 
L 831 1472 
Q 844 938 1119 647 
Q 1394 356 1875 356 
Q 2416 356 2869 713 
L 2869 231 
Q 2447 -75 1753 -75 
Q 1075 -75 687 361 
Q 300 797 300 1588 
Q 300 2334 723 2804 
Q 1147 3275 1775 3275 
Q 2403 3275 2747 2869 
Q 3091 2463 3091 1741 
L 3091 1472 
z
M 2566 1906 
Q 2563 2350 2352 2597 
Q 2141 2844 1766 2844 
Q 1403 2844 1150 2584 
Q 897 2325 838 1906 
L 2566 1906 
z
" transform="scale(0.015625)"/>
       <path id="SegoeUI-74" d="M 2003 31 
Q 1822 -69 1525 -69 
Q 684 -69 684 869 
L 684 2763 
L 134 2763 
L 134 3200 
L 684 3200 
L 684 3981 
L 1197 4147 
L 1197 3200 
L 2003 3200 
L 2003 2763 
L 1197 2763 
L 1197 959 
Q 1197 638 1306 500 
Q 1416 363 1669 363 
Q 1863 363 2003 469 
L 2003 31 
z
" transform="scale(0.015625)"/>
       <path id="SegoeUI-69" d="M 781 4013 
Q 644 4013 547 4106 
Q 450 4200 450 4344 
Q 450 4488 547 4583 
Q 644 4678 781 4678 
Q 922 4678 1020 4583 
Q 1119 4488 1119 4344 
Q 1119 4206 1020 4109 
Q 922 4013 781 4013 
z
M 1031 0 
L 519 0 
L 519 3200 
L 1031 3200 
L 1031 0 
z
" transform="scale(0.015625)"/>
       <path id="SegoeUI-3a" d="M 697 2575 
Q 553 2575 451 2678 
Q 350 2781 350 2925 
Q 350 3069 451 3169 
Q 553 3269 697 3269 
Q 844 3269 947 3169 
Q 1050 3069 1050 2925 
Q 1050 2781 947 2678 
Q 844 2575 697 2575 
z
M 697 -69 
Q 553 -69 451 34 
Q 350 138 350 281 
Q 350 425 451 529 
Q 553 634 697 634 
Q 844 634 947 529 
Q 1050 425 1050 281 
Q 1050 138 947 34 
Q 844 -69 697 -69 
z
" transform="scale(0.015625)"/>
       <path id="SegoeUI-6c" d="M 1031 0 
L 519 0 
L 519 4738 
L 1031 4738 
L 1031 0 
z
" transform="scale(0.015625)"/>
       <path id="SegoeUI-3c" d="M 3538 397 
L 850 1747 
L 850 1931 
L 3538 3438 
L 3538 2969 
L 1531 1856 
L 1531 1844 
L 3538 863 
L 3538 397 
z
" transform="scale(0.015625)"/>
       <path id="SegoeUI-6d" d="M 5063 0 
L 4550 0 
L 4550 1838 
Q 4550 2369 4386 2606 
Q 4222 2844 3834 2844 
Q 3506 2844 3276 2544 
Q 3047 2244 3047 1825 
L 3047 0 
L 2534 0 
L 2534 1900 
Q 2534 2844 1806 2844 
Q 1469 2844 1250 2561 
Q 1031 2278 1031 1825 
L 1031 0 
L 519 0 
L 519 3200 
L 1031 3200 
L 1031 2694 
L 1044 2694 
Q 1384 3275 2038 3275 
Q 2366 3275 2609 3092 
Q 2853 2909 2944 2613 
Q 3300 3275 4006 3275 
Q 5063 3275 5063 1972 
L 5063 0 
z
" transform="scale(0.015625)"/>
       <path id="SegoeUI-73" d="M 325 116 
L 325 666 
Q 744 356 1247 356 
Q 1922 356 1922 806 
Q 1922 934 1864 1023 
Q 1806 1113 1707 1181 
Q 1609 1250 1476 1304 
Q 1344 1359 1191 1419 
Q 978 1503 817 1589 
Q 656 1675 548 1783 
Q 441 1891 386 2028 
Q 331 2166 331 2350 
Q 331 2575 434 2748 
Q 538 2922 709 3039 
Q 881 3156 1101 3215 
Q 1322 3275 1556 3275 
Q 1972 3275 2300 3131 
L 2300 2613 
Q 1947 2844 1488 2844 
Q 1344 2844 1228 2811 
Q 1113 2778 1030 2718 
Q 947 2659 901 2576 
Q 856 2494 856 2394 
Q 856 2269 901 2184 
Q 947 2100 1034 2034 
Q 1122 1969 1247 1916 
Q 1372 1863 1531 1800 
Q 1744 1719 1912 1633 
Q 2081 1547 2200 1439 
Q 2319 1331 2383 1190 
Q 2447 1050 2447 856 
Q 2447 619 2342 444 
Q 2238 269 2063 153 
Q 1888 38 1659 -18 
Q 1431 -75 1181 -75 
Q 688 -75 325 116 
z
" transform="scale(0.015625)"/>
       <path id="SegoeUI-66" d="M 2100 4288 
Q 1950 4372 1759 4372 
Q 1222 4372 1222 3694 
L 1222 3200 
L 1972 3200 
L 1972 2763 
L 1222 2763 
L 1222 0 
L 713 0 
L 713 2763 
L 166 2763 
L 166 3200 
L 713 3200 
L 713 3719 
Q 713 4222 1003 4514 
Q 1294 4806 1728 4806 
Q 1963 4806 2100 4750 
L 2100 4288 
z
" transform="scale(0.015625)"/>
       <path id="SegoeUI-77" d="M 4550 3200 
L 3591 0 
L 3059 0 
L 2400 2291 
Q 2363 2422 2350 2588 
L 2338 2588 
Q 2328 2475 2272 2297 
L 1556 0 
L 1044 0 
L 75 3200 
L 613 3200 
L 1275 794 
Q 1306 684 1319 506 
L 1344 506 
Q 1353 644 1400 800 
L 2138 3200 
L 2606 3200 
L 3269 788 
Q 3300 672 3316 500 
L 3341 500 
Q 3347 622 3394 788 
L 4044 3200 
L 4550 3200 
z
" transform="scale(0.015625)"/>
       <path id="SegoeUI-64" d="M 3250 0 
L 2738 0 
L 2738 544 
L 2725 544 
Q 2369 -75 1625 -75 
Q 1022 -75 661 354 
Q 300 784 300 1525 
Q 300 2319 700 2797 
Q 1100 3275 1766 3275 
Q 2425 3275 2725 2756 
L 2738 2756 
L 2738 4738 
L 3250 4738 
L 3250 0 
z
M 2738 1447 
L 2738 1919 
Q 2738 2306 2481 2575 
Q 2225 2844 1831 2844 
Q 1363 2844 1094 2500 
Q 825 2156 825 1550 
Q 825 997 1083 676 
Q 1341 356 1775 356 
Q 2203 356 2470 665 
Q 2738 975 2738 1447 
z
" transform="scale(0.015625)"/>
       <path id="SegoeUI-72" d="M 2188 2681 
Q 2053 2784 1800 2784 
Q 1472 2784 1251 2475 
Q 1031 2166 1031 1631 
L 1031 0 
L 519 0 
L 519 3200 
L 1031 3200 
L 1031 2541 
L 1044 2541 
Q 1153 2878 1378 3067 
Q 1603 3256 1881 3256 
Q 2081 3256 2188 3213 
L 2188 2681 
z
" transform="scale(0.015625)"/>
       <path id="SegoeUI-75" d="M 3106 0 
L 2594 0 
L 2594 506 
L 2581 506 
Q 2263 -75 1594 -75 
Q 450 -75 450 1288 
L 450 3200 
L 959 3200 
L 959 1369 
Q 959 356 1734 356 
Q 2109 356 2351 632 
Q 2594 909 2594 1356 
L 2594 3200 
L 3106 3200 
L 3106 0 
z
" transform="scale(0.015625)"/>
      </defs>
      <use xlink:href="#SegoeUI-4c"/>
      <use xlink:href="#SegoeUI-61" transform="translate(47.070312 0)"/>
      <use xlink:href="#SegoeUI-67" transform="translate(97.949219 0)"/>
      <use xlink:href="#SegoeUI-20" transform="translate(156.835938 0)"/>
      <use xlink:href="#SegoeUI-63" transform="translate(184.228516 0)"/>
      <use xlink:href="#SegoeUI-6f" transform="translate(230.419922 0)"/>
      <use xlink:href="#SegoeUI-6e" transform="translate(289.013672 0)"/>
      <use xlink:href="#SegoeUI-76" transform="translate(345.605469 0)"/>
      <use xlink:href="#SegoeUI-65" transform="translate(392.880859 0)"/>
      <use xlink:href="#SegoeUI-6e" transform="translate(445.175781 0)"/>
      <use xlink:href="#SegoeUI-74" transform="translate(501.767578 0)"/>
      <use xlink:href="#SegoeUI-69" transform="translate(535.654297 0)"/>
      <use xlink:href="#SegoeUI-6f" transform="translate(559.873047 0)"/>
      <use xlink:href="#SegoeUI-6e" transform="translate(618.466797 0)"/>
      <use xlink:href="#SegoeUI-3a" transform="translate(675.058594 0)"/>
      <use xlink:href="#SegoeUI-20" transform="translate(696.738281 0)"/>
      <use xlink:href="#SegoeUI-6c" transform="translate(724.130859 0)"/>
      <use xlink:href="#SegoeUI-61" transform="translate(748.349609 0)"/>
      <use xlink:href="#SegoeUI-67" transform="translate(799.228516 0)"/>
      <use xlink:href="#SegoeUI-20" transform="translate(858.115234 0)"/>
      <use xlink:href="#SegoeUI-3c" transform="translate(885.507812 0)"/>
      <use xlink:href="#SegoeUI-20" transform="translate(953.916016 0)"/>
      <use xlink:href="#SegoeUI-30" transform="translate(981.308594 0)"/>
      <use xlink:href="#SegoeUI-20" transform="translate(1035.214844 0)"/>
      <use xlink:href="#SegoeUI-6d" transform="translate(1062.607422 0)"/>
      <use xlink:href="#SegoeUI-65" transform="translate(1148.740234 0)"/>
      <use xlink:href="#SegoeUI-61" transform="translate(1201.035156 0)"/>
      <use xlink:href="#SegoeUI-6e" transform="translate(1251.914062 0)"/>
      <use xlink:href="#SegoeUI-73" transform="translate(1308.505859 0)"/>
      <use xlink:href="#SegoeUI-20" transform="translate(1350.9375 0)"/>
      <use xlink:href="#SegoeUI-66" transform="translate(1378.330078 0)"/>
      <use xlink:href="#SegoeUI-6c" transform="translate(1409.628906 0)"/>
      <use xlink:href="#SegoeUI-6f" transform="translate(1433.847656 0)"/>
      <use xlink:href="#SegoeUI-77" transform="translate(1492.441406 0)"/>
      <use xlink:href="#SegoeUI-20" transform="translate(1564.707031 0)"/>
      <use xlink:href="#SegoeUI-6c" transform="translate(1592.099609 0)"/>
      <use xlink:href="#SegoeUI-65" transform="translate(1616.318359 0)"/>
      <use xlink:href="#SegoeUI-61" transform="translate(1668.613281 0)"/>
      <use xlink:href="#SegoeUI-64" transform="translate(1719.492188 0)"/>
      <use xlink:href="#SegoeUI-73" transform="translate(1778.378906 0)"/>
      <use xlink:href="#SegoeUI-20" transform="translate(1820.810547 0)"/>
      <use xlink:href="#SegoeUI-72" transform="translate(1848.203125 0)"/>
      <use xlink:href="#SegoeUI-65" transform="translate(1881.59375 0)"/>
      <use xlink:href="#SegoeUI-74" transform="translate(1933.888672 0)"/>
      <use xlink:href="#SegoeUI-75" transform="translate(1967.775391 0)"/>
      <use xlink:href="#SegoeUI-72" transform="translate(2024.367188 0)"/>
      <use xlink:href="#SegoeUI-6e" transform="translate(2058.882812 0)"/>
     </g>
    </g>
   </g>
   <g id="matplotlib.axis_2">
    <g id="ytick_1">
     <g id="line2d_23">
      <path d="M 54 327.856676 
L 666 327.856676 
" clip-path="url(#pe397620d97)" style="fill: none; stroke: #d9dee7; stroke-opacity: 0.45; stroke-width: 0.7; stroke-linecap: square"/>
     </g>
     <g id="line2d_24"/>
     <g id="text_13">
      <!-- −2 -->
      <g style="fill: #6b7280" transform="translate(40.715 330.817926) scale(0.08 -0.08)">
       <use xlink:href="#SegoeUI-2212"/>
       <use xlink:href="#SegoeUI-32" transform="translate(68.408203 0)"/>
      </g>
     </g>
    </g>
    <g id="ytick_2">
     <g id="line2d_25">
      <path d="M 54 294.683379 
L 666 294.683379 
" clip-path="url(#pe397620d97)" style="fill: none; stroke: #d9dee7; stroke-opacity: 0.45; stroke-width: 0.7; stroke-linecap: square"/>
     </g>
     <g id="line2d_26"/>
     <g id="text_14">
      <!-- 0 -->
      <g style="fill: #6b7280" transform="translate(46.1875 297.644629) scale(0.08 -0.08)">
       <use xlink:href="#SegoeUI-30"/>
      </g>
     </g>
    </g>
    <g id="ytick_3">
     <g id="line2d_27">
      <path d="M 54 261.510082 
L 666 261.510082 
" clip-path="url(#pe397620d97)" style="fill: none; stroke: #d9dee7; stroke-opacity: 0.45; stroke-width: 0.7; stroke-linecap: square"/>
     </g>
     <g id="line2d_28"/>
     <g id="text_15">
      <!-- 2 -->
      <g style="fill: #6b7280" transform="translate(46.1875 264.471332) scale(0.08 -0.08)">
       <use xlink:href="#SegoeUI-32"/>
      </g>
     </g>
    </g>
    <g id="ytick_4">
     <g id="line2d_29">
      <path d="M 54 228.336785 
L 666 228.336785 
" clip-path="url(#pe397620d97)" style="fill: none; stroke: #d9dee7; stroke-opacity: 0.45; stroke-width: 0.7; stroke-linecap: square"/>
     </g>
     <g id="line2d_30"/>
     <g id="text_16">
      <!-- 4 -->
      <g style="fill: #6b7280" transform="translate(46.1875 231.298035) scale(0.08 -0.08)">
       <use xlink:href="#SegoeUI-34"/>
      </g>
     </g>
    </g>
    <g id="ytick_5">
     <g id="line2d_31">
      <path d="M 54 195.163489 
L 666 195.163489 
" clip-path="url(#pe397620d97)" style="fill: none; stroke: #d9dee7; stroke-opacity: 0.45; stroke-width: 0.7; stroke-linecap: square"/>
     </g>
     <g id="line2d_32"/>
     <g id="text_17">
      <!-- 6 -->
      <g style="fill: #6b7280" transform="translate(46.1875 198.124739) scale(0.08 -0.08)">
       <defs>
        <path id="SegoeUI-36" d="M 3194 1422 
Q 3194 1094 3087 819 
Q 2981 544 2793 344 
Q 2606 144 2347 33 
Q 2088 -78 1784 -78 
Q 1447 -78 1180 62 
Q 913 203 727 467 
Q 541 731 444 1112 
Q 347 1494 347 1972 
Q 347 2556 476 3032 
Q 606 3509 845 3848 
Q 1084 4188 1421 4372 
Q 1759 4556 2175 4556 
Q 2638 4556 2919 4428 
L 2919 3944 
Q 2572 4122 2188 4122 
Q 1888 4122 1647 3987 
Q 1406 3853 1234 3608 
Q 1063 3363 970 3016 
Q 878 2669 878 2244 
L 891 2244 
Q 1200 2803 1913 2803 
Q 2206 2803 2442 2703 
Q 2678 2603 2845 2420 
Q 3013 2238 3103 1984 
Q 3194 1731 3194 1422 
z
M 2669 1356 
Q 2669 1591 2609 1778 
Q 2550 1966 2439 2097 
Q 2328 2228 2165 2298 
Q 2003 2369 1797 2369 
Q 1606 2369 1443 2297 
Q 1281 2225 1162 2101 
Q 1044 1978 976 1814 
Q 909 1650 909 1466 
Q 909 1234 975 1032 
Q 1041 831 1159 681 
Q 1278 531 1442 445 
Q 1606 359 1806 359 
Q 2000 359 2159 432 
Q 2319 506 2431 637 
Q 2544 769 2606 951 
Q 2669 1134 2669 1356 
z
" transform="scale(0.015625)"/>
       </defs>
       <use xlink:href="#SegoeUI-36"/>
      </g>
     </g>
    </g>
    <g id="ytick_6">
     <g id="line2d_33">
      <path d="M 54 161.990192 
L 666 161.990192 
" clip-path="url(#pe397620d97)" style="fill: none; stroke: #d9dee7; stroke-opacity: 0.45; stroke-width: 0.7; stroke-linecap: square"/>
     </g>
     <g id="line2d_34"/>
     <g id="text_18">
      <!-- 8 -->
      <g style="fill: #6b7280" transform="translate(46.1875 164.951442) scale(0.08 -0.08)">
       <defs>
        <path id="SegoeUI-38" d="M 281 1250 
Q 281 1428 337 1608 
Q 394 1788 498 1944 
Q 603 2100 758 2228 
Q 913 2356 1109 2431 
Q 819 2594 647 2848 
Q 475 3103 475 3413 
Q 475 3659 570 3868 
Q 666 4078 834 4231 
Q 1003 4384 1234 4470 
Q 1466 4556 1734 4556 
Q 2006 4556 2237 4468 
Q 2469 4381 2637 4228 
Q 2806 4075 2900 3865 
Q 2994 3656 2994 3413 
Q 2994 3103 2822 2848 
Q 2650 2594 2366 2431 
Q 2559 2356 2712 2228 
Q 2866 2100 2970 1944 
Q 3075 1788 3131 1608 
Q 3188 1428 3188 1250 
Q 3188 956 3081 712 
Q 2975 469 2783 295 
Q 2591 122 2323 25 
Q 2056 -72 1734 -72 
Q 1416 -72 1150 25 
Q 884 122 690 295 
Q 497 469 389 712 
Q 281 956 281 1250 
z
M 838 1294 
Q 838 1084 902 915 
Q 966 747 1083 628 
Q 1200 509 1367 445 
Q 1534 381 1738 381 
Q 1934 381 2100 447 
Q 2266 513 2386 631 
Q 2506 750 2573 919 
Q 2641 1088 2641 1294 
Q 2641 1481 2577 1645 
Q 2513 1809 2394 1934 
Q 2275 2059 2109 2131 
Q 1944 2203 1738 2203 
Q 1544 2203 1380 2136 
Q 1216 2069 1095 1948 
Q 975 1828 906 1661 
Q 838 1494 838 1294 
z
M 997 3372 
Q 997 3213 1055 3077 
Q 1113 2941 1214 2839 
Q 1316 2738 1450 2680 
Q 1584 2622 1738 2622 
Q 1891 2622 2027 2681 
Q 2163 2741 2263 2842 
Q 2363 2944 2422 3080 
Q 2481 3216 2481 3372 
Q 2481 3534 2423 3671 
Q 2366 3809 2266 3909 
Q 2166 4009 2030 4067 
Q 1894 4125 1738 4125 
Q 1572 4125 1436 4065 
Q 1300 4006 1201 3904 
Q 1103 3803 1050 3665 
Q 997 3528 997 3372 
z
" transform="scale(0.015625)"/>
       </defs>
       <use xlink:href="#SegoeUI-38"/>
      </g>
     </g>
    </g>
    <g id="ytick_7">
     <g id="line2d_35">
      <path d="M 54 128.816895 
L 666 128.816895 
" clip-path="url(#pe397620d97)" style="fill: none; stroke: #d9dee7; stroke-opacity: 0.45; stroke-width: 0.7; stroke-linecap: square"/>
     </g>
     <g id="line2d_36"/>
     <g id="text_19">
      <!-- 10 -->
      <g style="fill: #6b7280" transform="translate(41.875 131.778145) scale(0.08 -0.08)">
       <use xlink:href="#SegoeUI-31"/>
       <use xlink:href="#SegoeUI-30" transform="translate(53.90625 0)"/>
      </g>
     </g>
    </g>
    <g id="ytick_8">
     <g id="line2d_37">
      <path d="M 54 95.643598 
L 666 95.643598 
" clip-path="url(#pe397620d97)" style="fill: none; stroke: #d9dee7; stroke-opacity: 0.45; stroke-width: 0.7; stroke-linecap: square"/>
     </g>
     <g id="line2d_38"/>
     <g id="text_20">
      <!-- 12 -->
      <g style="fill: #6b7280" transform="translate(41.875 98.604848) scale(0.08 -0.08)">
       <use xlink:href="#SegoeUI-31"/>
       <use xlink:href="#SegoeUI-32" transform="translate(53.90625 0)"/>
      </g>
     </g>
    </g>
    <g id="text_21">
     <!-- HAC t-statistic -->
     <g style="fill: #6b7280" transform="translate(34.645 240.698672) rotate(-90) scale(0.09 -0.09)">
      <defs>
       <path id="SegoeUI-48" d="M 3956 0 
L 3431 0 
L 3431 2044 
L 1113 2044 
L 1113 0 
L 588 0 
L 588 4481 
L 1113 4481 
L 1113 2516 
L 3431 2516 
L 3431 4481 
L 3956 4481 
L 3956 0 
z
" transform="scale(0.015625)"/>
       <path id="SegoeUI-41" d="M 4056 0 
L 3475 0 
L 3000 1256 
L 1100 1256 
L 653 0 
L 69 0 
L 1788 4481 
L 2331 4481 
L 4056 0 
z
M 2828 1728 
L 2125 3638 
Q 2091 3731 2056 3938 
L 2044 3938 
Q 2013 3747 1972 3638 
L 1275 1728 
L 2828 1728 
z
" transform="scale(0.015625)"/>
       <path id="SegoeUI-43" d="M 3638 188 
Q 3141 -75 2400 -75 
Q 1444 -75 869 540 
Q 294 1156 294 2156 
Q 294 3231 941 3893 
Q 1588 4556 2581 4556 
Q 3219 4556 3638 4372 
L 3638 3813 
Q 3156 4081 2575 4081 
Q 1803 4081 1323 3565 
Q 844 3050 844 2188 
Q 844 1369 1292 883 
Q 1741 397 2469 397 
Q 3144 397 3638 697 
L 3638 188 
z
" transform="scale(0.015625)"/>
       <path id="SegoeUI-2d" d="M 2156 1581 
L 450 1581 
L 450 1984 
L 2156 1984 
L 2156 1581 
z
" transform="scale(0.015625)"/>
      </defs>
      <use xlink:href="#SegoeUI-48"/>
      <use xlink:href="#SegoeUI-41" transform="translate(70.996094 0)"/>
      <use xlink:href="#SegoeUI-43" transform="translate(134.123047 0)"/>
      <use xlink:href="#SegoeUI-20" transform="translate(196.037109 0)"/>
      <use xlink:href="#SegoeUI-74" transform="translate(223.429688 0)"/>
      <use xlink:href="#SegoeUI-2d" transform="translate(251.816406 0)"/>
      <use xlink:href="#SegoeUI-73" transform="translate(291.806641 0)"/>
      <use xlink:href="#SegoeUI-74" transform="translate(334.238281 0)"/>
      <use xlink:href="#SegoeUI-61" transform="translate(368.125 0)"/>
      <use xlink:href="#SegoeUI-74" transform="translate(419.003906 0)"/>
      <use xlink:href="#SegoeUI-69" transform="translate(452.890625 0)"/>
      <use xlink:href="#SegoeUI-73" transform="translate(477.109375 0)"/>
      <use xlink:href="#SegoeUI-74" transform="translate(519.541016 0)"/>
      <use xlink:href="#SegoeUI-69" transform="translate(553.427734 0)"/>
      <use xlink:href="#SegoeUI-63" transform="translate(577.646484 0)"/>
     </g>
    </g>
   </g>
   <g id="line2d_39">
    <path d="M 54 294.683379 
L 666 294.683379 
" clip-path="url(#pe397620d97)" style="fill: none; stroke: #e5e7eb; stroke-width: 0.8; stroke-linecap: square"/>
   </g>
   <g id="line2d_40">
    <path d="M 54 262.173548 
L 666 262.173548 
" clip-path="url(#pe397620d97)" style="fill: none; stroke-dasharray: 2.96,1.28; stroke-dashoffset: 0; stroke: #d9dee7; stroke-width: 0.8"/>
   </g>
   <g id="line2d_41">
    <path d="M 54 327.19321 
L 666 327.19321 
" clip-path="url(#pe397620d97)" style="fill: none; stroke-dasharray: 2.96,1.28; stroke-dashoffset: 0; stroke: #d9dee7; stroke-width: 0.8"/>
   </g>
   <g id="text_22">
    <g id="patch_15">
     <path d="M 378.030303 131.840894 
L 480.242803 131.840894 
Q 483.042803 131.840894 483.042803 129.040894 
L 483.042803 121.150894 
Q 483.042803 118.350894 480.242803 118.350894 
L 378.030303 118.350894 
Q 375.230303 118.350894 375.230303 121.150894 
L 375.230303 129.040894 
Q 375.230303 131.840894 378.030303 131.840894 
z
" style="fill: #f3f4f6; stroke: #0f766e; stroke-width: 0.8; stroke-linejoin: miter"/>
    </g>
    <!-- same-day t=10.2\ncoef=56.9 -->
    <g style="fill: #111827" transform="translate(378.030303 127.158394) scale(0.08 -0.08)">
     <defs>
      <path id="SegoeUI-79" d="M 3066 3200 
L 1594 -513 
Q 1200 -1506 488 -1506 
Q 288 -1506 153 -1466 
L 153 -1006 
Q 319 -1063 456 -1063 
Q 844 -1063 1038 -600 
L 1294 6 
L 44 3200 
L 613 3200 
L 1478 738 
Q 1494 691 1544 494 
L 1563 494 
Q 1578 569 1625 731 
L 2534 3200 
L 3066 3200 
z
" transform="scale(0.015625)"/>
      <path id="SegoeUI-3d" d="M 3663 2325 
L 725 2325 
L 725 2738 
L 3663 2738 
L 3663 2325 
z
M 3663 994 
L 725 994 
L 725 1406 
L 3663 1406 
L 3663 994 
z
" transform="scale(0.015625)"/>
      <path id="SegoeUI-2e" d="M 697 -69 
Q 553 -69 451 34 
Q 350 138 350 281 
Q 350 425 451 529 
Q 553 634 697 634 
Q 844 634 947 529 
Q 1050 425 1050 281 
Q 1050 138 947 34 
Q 844 -69 697 -69 
z
" transform="scale(0.015625)"/>
      <path id="SegoeUI-5c" d="M 2494 -750 
L 2022 -750 
L -81 4481 
L 403 4481 
L 2494 -750 
z
" transform="scale(0.015625)"/>
      <path id="SegoeUI-39" d="M 3138 2509 
Q 3138 1894 3016 1414 
Q 2894 934 2659 601 
Q 2425 269 2087 95 
Q 1750 -78 1319 -78 
Q 875 -78 538 78 
L 538 569 
Q 909 359 1331 359 
Q 1634 359 1873 484 
Q 2113 609 2278 848 
Q 2444 1088 2531 1438 
Q 2619 1788 2619 2241 
L 2606 2241 
Q 2319 1663 1606 1663 
Q 1319 1663 1078 1764 
Q 838 1866 663 2052 
Q 488 2238 391 2494 
Q 294 2750 294 3059 
Q 294 3391 401 3666 
Q 509 3941 701 4139 
Q 894 4338 1158 4447 
Q 1422 4556 1734 4556 
Q 2072 4556 2333 4420 
Q 2594 4284 2772 4023 
Q 2950 3763 3044 3381 
Q 3138 3000 3138 2509 
z
M 2584 2969 
Q 2584 3228 2517 3440 
Q 2450 3653 2331 3804 
Q 2213 3956 2048 4039 
Q 1884 4122 1691 4122 
Q 1506 4122 1347 4048 
Q 1188 3975 1070 3842 
Q 953 3709 886 3526 
Q 819 3344 819 3128 
Q 819 2891 883 2703 
Q 947 2516 1065 2386 
Q 1184 2256 1351 2187 
Q 1519 2119 1722 2119 
Q 1900 2119 2058 2186 
Q 2216 2253 2333 2367 
Q 2450 2481 2517 2636 
Q 2584 2791 2584 2969 
z
" transform="scale(0.015625)"/>
     </defs>
     <use xlink:href="#SegoeUI-73"/>
     <use xlink:href="#SegoeUI-61" transform="translate(42.431641 0)"/>
     <use xlink:href="#SegoeUI-6d" transform="translate(93.310547 0)"/>
     <use xlink:href="#SegoeUI-65" transform="translate(179.443359 0)"/>
     <use xlink:href="#SegoeUI-2d" transform="translate(231.738281 0)"/>
     <use xlink:href="#SegoeUI-64" transform="translate(271.728516 0)"/>
     <use xlink:href="#SegoeUI-61" transform="translate(330.615234 0)"/>
     <use xlink:href="#SegoeUI-79" transform="translate(381.494141 0)"/>
     <use xlink:href="#SegoeUI-20" transform="translate(429.882812 0)"/>
     <use xlink:href="#SegoeUI-74" transform="translate(457.275391 0)"/>
     <use xlink:href="#SegoeUI-3d" transform="translate(491.162109 0)"/>
     <use xlink:href="#SegoeUI-31" transform="translate(559.570312 0)"/>
     <use xlink:href="#SegoeUI-30" transform="translate(613.476562 0)"/>
     <use xlink:href="#SegoeUI-2e" transform="translate(667.382812 0)"/>
     <use xlink:href="#SegoeUI-32" transform="translate(689.0625 0)"/>
     <use xlink:href="#SegoeUI-5c" transform="translate(742.96875 0)"/>
     <use xlink:href="#SegoeUI-6e" transform="translate(780.859375 0)"/>
     <use xlink:href="#SegoeUI-63" transform="translate(837.451172 0)"/>
     <use xlink:href="#SegoeUI-6f" transform="translate(883.642578 0)"/>
     <use xlink:href="#SegoeUI-65" transform="translate(942.236328 0)"/>
     <use xlink:href="#SegoeUI-66" transform="translate(994.53125 0)"/>
     <use xlink:href="#SegoeUI-3d" transform="translate(1025.830078 0)"/>
     <use xlink:href="#SegoeUI-35" transform="translate(1094.238281 0)"/>
     <use xlink:href="#SegoeUI-36" transform="translate(1148.144531 0)"/>
     <use xlink:href="#SegoeUI-2e" transform="translate(1202.050781 0)"/>
     <use xlink:href="#SegoeUI-39" transform="translate(1223.730469 0)"/>
    </g>
   </g>
  </g>
  <g id="text_23">
   <!-- ETF Flow Lead-Lag -->
   <g style="fill: #111827" transform="translate(39.6 39.650625) scale(0.18 -0.18)">
    <defs>
     <path id="SegoeUI-Semibold-45" d="M 3069 0 
L 553 0 
L 553 4481 
L 2969 4481 
L 2969 3850 
L 1297 3850 
L 1297 2581 
L 2838 2581 
L 2838 1953 
L 1297 1953 
L 1297 628 
L 3069 628 
L 3069 0 
z
" transform="scale(0.015625)"/>
     <path id="SegoeUI-Semibold-54" d="M 3428 3850 
L 2141 3850 
L 2141 0 
L 1397 0 
L 1397 3850 
L 113 3850 
L 113 4481 
L 3428 4481 
L 3428 3850 
z
" transform="scale(0.015625)"/>
     <path id="SegoeUI-Semibold-46" d="M 2972 3850 
L 1297 3850 
L 1297 2503 
L 2841 2503 
L 2841 1875 
L 1297 1875 
L 1297 0 
L 553 0 
L 553 4481 
L 2972 4481 
L 2972 3850 
z
" transform="scale(0.015625)"/>
     <path id="SegoeUI-Semibold-20" transform="scale(0.015625)"/>
     <path id="SegoeUI-Semibold-6c" d="M 1200 0 
L 472 0 
L 472 4738 
L 1200 4738 
L 1200 0 
z
" transform="scale(0.015625)"/>
     <path id="SegoeUI-Semibold-6f" d="M 1891 -75 
Q 1150 -75 708 373 
Q 266 822 266 1563 
Q 266 2369 727 2822 
Q 1188 3275 1969 3275 
Q 2719 3275 3137 2834 
Q 3556 2394 3556 1613 
Q 3556 847 3104 386 
Q 2653 -75 1891 -75 
z
M 1925 2697 
Q 1500 2697 1253 2400 
Q 1006 2103 1006 1581 
Q 1006 1078 1256 789 
Q 1506 500 1925 500 
Q 2353 500 2583 784 
Q 2813 1069 2813 1594 
Q 2813 2122 2583 2409 
Q 2353 2697 1925 2697 
z
" transform="scale(0.015625)"/>
     <path id="SegoeUI-Semibold-77" d="M 4775 3200 
L 3831 0 
L 3072 0 
L 2491 2169 
Q 2456 2294 2447 2450 
L 2434 2450 
Q 2428 2344 2378 2175 
L 1747 0 
L 1003 0 
L 63 3200 
L 813 3200 
L 1394 894 
Q 1422 791 1431 619 
L 1453 619 
Q 1463 750 1503 900 
L 2150 3200 
L 2831 3200 
L 3406 884 
Q 3434 775 3447 609 
L 3469 609 
Q 3475 725 3516 884 
L 4084 3200 
L 4775 3200 
z
" transform="scale(0.015625)"/>
     <path id="SegoeUI-Semibold-4c" d="M 3034 0 
L 553 0 
L 553 4481 
L 1297 4481 
L 1297 628 
L 3034 628 
L 3034 0 
z
" transform="scale(0.015625)"/>
     <path id="SegoeUI-Semibold-65" d="M 3181 1403 
L 1000 1403 
Q 1013 959 1273 718 
Q 1534 478 1991 478 
Q 2503 478 2931 784 
L 2931 200 
Q 2494 -75 1775 -75 
Q 1069 -75 667 361 
Q 266 797 266 1588 
Q 266 2334 708 2804 
Q 1150 3275 1806 3275 
Q 2463 3275 2822 2853 
Q 3181 2431 3181 1681 
L 3181 1403 
z
M 2481 1916 
Q 2478 2306 2297 2523 
Q 2116 2741 1797 2741 
Q 1484 2741 1267 2512 
Q 1050 2284 1000 1916 
L 2481 1916 
z
" transform="scale(0.015625)"/>
     <path id="SegoeUI-Semibold-61" d="M 2928 0 
L 2225 0 
L 2225 500 
L 2213 500 
Q 1881 -75 1241 -75 
Q 769 -75 501 181 
Q 234 438 234 859 
Q 234 1766 1278 1916 
L 2228 2050 
Q 2228 2734 1578 2734 
Q 1006 2734 547 2341 
L 547 2975 
Q 1053 3275 1716 3275 
Q 2928 3275 2928 2081 
L 2928 0 
z
M 2228 1572 
L 1556 1478 
Q 1244 1438 1086 1327 
Q 928 1216 928 938 
Q 928 734 1073 604 
Q 1219 475 1463 475 
Q 1794 475 2011 708 
Q 2228 941 2228 1294 
L 2228 1572 
z
" transform="scale(0.015625)"/>
     <path id="SegoeUI-Semibold-64" d="M 3381 0 
L 2656 0 
L 2656 544 
L 2644 544 
Q 2294 -75 1566 -75 
Q 975 -75 620 354 
Q 266 784 266 1525 
Q 266 2319 658 2797 
Q 1050 3275 1703 3275 
Q 2350 3275 2644 2756 
L 2656 2756 
L 2656 4738 
L 3381 4738 
L 3381 0 
z
M 2666 1463 
L 2666 1881 
Q 2666 2222 2444 2459 
Q 2222 2697 1878 2697 
Q 1472 2697 1239 2394 
Q 1006 2091 1006 1553 
Q 1006 1066 1229 783 
Q 1453 500 1831 500 
Q 2203 500 2434 773 
Q 2666 1047 2666 1463 
z
" transform="scale(0.015625)"/>
     <path id="SegoeUI-Semibold-2d" d="M 2156 1481 
L 450 1481 
L 450 2016 
L 2156 2016 
L 2156 1481 
z
" transform="scale(0.015625)"/>
     <path id="SegoeUI-Semibold-67" d="M 3384 256 
Q 3384 -1506 1613 -1506 
Q 988 -1506 522 -1297 
L 522 -634 
Q 1047 -934 1519 -934 
Q 2659 -934 2659 188 
L 2659 538 
L 2647 538 
Q 2288 -75 1566 -75 
Q 981 -75 623 351 
Q 266 778 266 1497 
Q 266 2313 650 2794 
Q 1034 3275 1706 3275 
Q 2341 3275 2647 2756 
L 2659 2756 
L 2659 3200 
L 3384 3200 
L 3384 256 
z
M 2666 1466 
L 2666 1881 
Q 2666 2219 2442 2458 
Q 2219 2697 1884 2697 
Q 1472 2697 1239 2392 
Q 1006 2088 1006 1541 
Q 1006 1069 1229 786 
Q 1453 503 1822 503 
Q 2197 503 2431 773 
Q 2666 1044 2666 1466 
z
" transform="scale(0.015625)"/>
    </defs>
    <use xlink:href="#SegoeUI-Semibold-45"/>
    <use xlink:href="#SegoeUI-Semibold-54" transform="translate(52.257812 0)"/>
    <use xlink:href="#SegoeUI-Semibold-46" transform="translate(107.433594 0)"/>
    <use xlink:href="#SegoeUI-Semibold-20" transform="translate(157.677734 0)"/>
    <use xlink:href="#SegoeUI-Semibold-46" transform="translate(185.167969 0)"/>
    <use xlink:href="#SegoeUI-Semibold-6c" transform="translate(235.412109 0)"/>
    <use xlink:href="#SegoeUI-Semibold-6f" transform="translate(261.535156 0)"/>
    <use xlink:href="#SegoeUI-Semibold-77" transform="translate(321.251953 0)"/>
    <use xlink:href="#SegoeUI-Semibold-20" transform="translate(396.886719 0)"/>
    <use xlink:href="#SegoeUI-Semibold-4c" transform="translate(424.376953 0)"/>
    <use xlink:href="#SegoeUI-Semibold-65" transform="translate(473.253906 0)"/>
    <use xlink:href="#SegoeUI-Semibold-61" transform="translate(526.378906 0)"/>
    <use xlink:href="#SegoeUI-Semibold-64" transform="translate(578.576172 0)"/>
    <use xlink:href="#SegoeUI-Semibold-2d" transform="translate(638.830078 0)"/>
    <use xlink:href="#SegoeUI-Semibold-4c" transform="translate(679.015625 0)"/>
    <use xlink:href="#SegoeUI-Semibold-61" transform="translate(727.892578 0)"/>
    <use xlink:href="#SegoeUI-Semibold-67" transform="translate(780.089844 0)"/>
   </g>
  </g>
 </g>
 <defs>
  <clipPath id="pe397620d97">
   <rect x="54" y="89.1" width="612" height="247.05"/>
  </clipPath>
 </defs>
</svg>
