<?xml version="1.0" encoding="utf-8" standalone="no"?>
<!DOCTYPE svg PUBLIC "-//W3C//DTD SVG 1.1//EN"
  "http://www.w3.org/Graphics/SVG/1.1/DTD/svg11.dtd">
<svg xmlns:xlink="http://www.w3.org/1999/xlink" width="643.19625pt" height="370.225312pt" viewBox="0 0 643.19625 370.225312" xmlns="http://www.w3.org/2000/svg" version="1.1">
 <metadata>
  <rdf:RDF xmlns:dc="http://purl.org/dc/elements/1.1/" xmlns:cc="http://creativecommons.org/ns#" xmlns:rdf="http://www.w3.org/1999/02/22-rdf-syntax-ns#">
   <cc:Work>
    <dc:type rdf:resource="http://purl.org/dc/dcmitype/StillImage"/>
    <dc:date>2026-06-18T20:27:29.795045</dc:date>
    <dc:format>image/svg+xml</dc:format>
    <dc:creator>
     <cc:Agent>
      <dc:title>Matplotlib v3.10.8, https://matplotlib.org/</dc:title>
     </cc:Agent>
    </dc:creator>
   </cc:Work>
  </rdf:RDF>
 </metadata>
 <defs>
  <style type="text/css">*{stroke-linejoin: round; stroke-linecap: butt}</style>
 </defs>
 <g id="figure_1">
  <g id="patch_1">
   <path d="M 0 370.225312
L 643.19625 370.225312
L 643.19625 0
L 0 0
z
" style="fill: #fafaf7"/>
  </g>
  <g id="axes_1">
   <g id="patch_2">
    <path d="M 38.91125 333.43
L 635.99625 333.43
L 635.99625 60.39
L 38.91125 60.39
z
" style="fill: #fafaf7"/>
   </g>
   <g id="matplotlib.axis_1">
    <g id="xtick_1">
     <g id="line2d_1">
      <path d="M 120.331932 333.43
L 120.331932 60.39
" clip-path="url(#p989d8a5cca)" style="fill: none; stroke: #d9dee7; stroke-opacity: 0.55; stroke-width: 0.7; stroke-linecap: square"/>
     </g>
     <g id="line2d_2">
      <defs>
       <path id="m6191127f56" d="M 0 0
L 0 3.5
" style="stroke: #111827; stroke-width: 0.8"/>
      </defs>
      <g>
       <use xlink:href="#m6191127f56" x="120.331932" y="333.43" style="fill: #111827; stroke: #111827; stroke-width: 0.8"/>
      </g>
     </g>
     <g id="text_1">
      <!-- −4 -->
      <g style="fill: #111827" transform="translate(114.827869 347.092812) scale(0.09 -0.09)">
       <defs>
        <path id="SegoeUI-2212" d="M 3663 1656
L 725 1656
L 725 2075
L 3663 2075
L 3663 1656
z
" transform="scale(0.015625)"/>
        <path id="SegoeUI-34" d="M 2656 4481
L 2656 1522
L 3231 1522
L 3231 1053
L 2656 1053
L 2656 0
L 2150 0
L 2150 1053
L 44 1053
L 44 1497
Q 338 1828 638 2204
Q 938 2581 1211 2968
Q 1484 3356 1717 3742
Q 1950 4128 2109 4481
L 2656 4481
z
M 622 1522
L 2150 1522
L 2150 3716
Q 1916 3306 1706 2984
Q 1497 2663 1308 2400
Q 1119 2138 947 1925
Q 775 1713 622 1522
z
" transform="scale(0.015625)"/>
       </defs>
       <use xlink:href="#SegoeUI-2212"/>
       <use xlink:href="#SegoeUI-34" transform="translate(68.408203 0)"/>
      </g>
     </g>
    </g>
    <g id="xtick_2">
     <g id="line2d_3">
      <path d="M 228.892841 333.43
L 228.892841 60.39
" clip-path="url(#p989d8a5cca)" style="fill: none; stroke: #d9dee7; stroke-opacity: 0.55; stroke-width: 0.7; stroke-linecap: square"/>
     </g>
     <g id="line2d_4">
      <g>
       <use xlink:href="#m6191127f56" x="228.892841" y="333.43" style="fill: #111827; stroke: #111827; stroke-width: 0.8"/>
      </g>
     </g>
     <g id="text_2">
      <!-- −2 -->
      <g style="fill: #111827" transform="translate(223.388778 347.092812) scale(0.09 -0.09)">
       <defs>
        <path id="SegoeUI-32" d="M 2413 3306
Q 2413 3513 2348 3666
Q 2284 3819 2173 3920
Q 2063 4022 1913 4072
Q 1763 4122 1588 4122
Q 1438 4122 1294 4081
Q 1150 4041 1014 3969
Q 878 3897 751 3797
Q 625 3697 516 3575
L 516 4125
Q 731 4334 998 4445
Q 1266 4556 1650 4556
Q 1925 4556 2159 4476
Q 2394 4397 2566 4244
Q 2738 4091 2836 3866
Q 2934 3641 2934 3350
Q 2934 3084 2873 2868
Q 2813 2653 2689 2462
Q 2566 2272 2378 2097
Q 2191 1922 1938 1741
Q 1622 1516 1417 1356
Q 1213 1197 1092 1058
Q 972 919 923 780
Q 875 641 875 459
L 3106 459
L 3106 0
L 341 0
L 341 222
Q 341 509 403 728
Q 466 947 609 1144
Q 753 1341 986 1537
Q 1219 1734 1556 1981
Q 1800 2156 1964 2315
Q 2128 2475 2228 2634
Q 2328 2794 2370 2958
Q 2413 3122 2413 3306
z
" transform="scale(0.015625)"/>
       </defs>
       <use xlink:href="#SegoeUI-2212"/>
       <use xlink:href="#SegoeUI-32" transform="translate(68.408203 0)"/>
      </g>
     </g>
    </g>
    <g id="xtick_3">
     <g id="line2d_5">
      <path d="M 337.45375 333.43
L 337.45375 60.39
" clip-path="url(#p989d8a5cca)" style="fill: none; stroke: #d9dee7; stroke-opacity: 0.55; stroke-width: 0.7; stroke-linecap: square"/>
     </g>
     <g id="line2d_6">
      <g>
       <use xlink:href="#m6191127f56" x="337.45375" y="333.43" style="fill: #111827; stroke: #111827; stroke-width: 0.8"/>
      </g>
     </g>
     <g id="text_3">
      <!-- 0 -->
      <g style="fill: #111827" transform="translate(335.027969 347.092812) scale(0.09 -0.09)">
       <defs>
        <path id="SegoeUI-30" d="M 3188 2259
Q 3188 1697 3086 1262
Q 2984 828 2792 529
Q 2600 231 2320 76
Q 2041 -78 1684 -78
Q 1347 -78 1083 70
Q 819 219 637 503
Q 456 788 362 1202
Q 269 1616 269 2150
Q 269 2738 367 3188
Q 466 3638 656 3942
Q 847 4247 1130 4401
Q 1413 4556 1778 4556
Q 3188 4556 3188 2259
z
M 2663 2209
Q 2663 4122 1753 4122
Q 794 4122 794 2175
Q 794 359 1734 359
Q 2663 359 2663 2209
z
" transform="scale(0.015625)"/>
       </defs>
       <use xlink:href="#SegoeUI-30"/>
      </g>
     </g>
    </g>
    <g id="xtick_4">
     <g id="line2d_7">
      <path d="M 446.014659 333.43
L 446.014659 60.39
" clip-path="url(#p989d8a5cca)" style="fill: none; stroke: #d9dee7; stroke-opacity: 0.55; stroke-width: 0.7; stroke-linecap: square"/>
     </g>
     <g id="line2d_8">
      <g>
       <use xlink:href="#m6191127f56" x="446.014659" y="333.43" style="fill: #111827; stroke: #111827; stroke-width: 0.8"/>
      </g>
     </g>
     <g id="text_4">
      <!-- 2 -->
      <g style="fill: #111827" transform="translate(443.588878 347.092812) scale(0.09 -0.09)">
       <use xlink:href="#SegoeUI-32"/>
      </g>
     </g>
    </g>
    <g id="xtick_5">
     <g id="line2d_9">
      <path d="M 554.575568 333.43
L 554.575568 60.39
" clip-path="url(#p989d8a5cca)" style="fill: none; stroke: #d9dee7; stroke-opacity: 0.55; stroke-width: 0.7; stroke-linecap: square"/>
     </g>
     <g id="line2d_10">
      <g>
       <use xlink:href="#m6191127f56" x="554.575568" y="333.43" style="fill: #111827; stroke: #111827; stroke-width: 0.8"/>
      </g>
     </g>
     <g id="text_5">
      <!-- 4 -->
      <g style="fill: #111827" transform="translate(552.149787 347.092812) scale(0.09 -0.09)">
       <use xlink:href="#SegoeUI-34"/>
      </g>
     </g>
    </g>
    <g id="text_6">
     <!-- ETF-flow lag -->
     <g style="fill: #6b7280" transform="translate(310.463906 360.672187) scale(0.1 -0.1)">
      <defs>
       <path id="SegoeUI-45" d="M 2963 0
L 588 0
L 588 4481
L 2863 4481
L 2863 4006
L 1113 4006
L 1113 2516
L 2731 2516
L 2731 2044
L 1113 2044
L 1113 475
L 2963 475
L 2963 0
z
" transform="scale(0.015625)"/>
       <path id="SegoeUI-54" d="M 3238 4006
L 1944 4006
L 1944 0
L 1419 0
L 1419 4006
L 128 4006
L 128 4481
L 3238 4481
L 3238 4006
z
" transform="scale(0.015625)"/>
       <path id="SegoeUI-46" d="M 2863 4006
L 1113 4006
L 1113 2456
L 2731 2456
L 2731 1984
L 1113 1984
L 1113 0
L 588 0
L 588 4481
L 2863 4481
L 2863 4006
z
" transform="scale(0.015625)"/>
       <path id="SegoeUI-2d" d="M 2156 1581
L 450 1581
L 450 1984
L 2156 1984
L 2156 1581
z
" transform="scale(0.015625)"/>
       <path id="SegoeUI-66" d="M 2100 4288
Q 1950 4372 1759 4372
Q 1222 4372 1222 3694
L 1222 3200
L 1972 3200
L 1972 2763
L 1222 2763
L 1222 0
L 713 0
L 713 2763
L 166 2763
L 166 3200
L 713 3200
L 713 3719
Q 713 4222 1003 4514
Q 1294 4806 1728 4806
Q 1963 4806 2100 4750
L 2100 4288
z
" transform="scale(0.015625)"/>
       <path id="SegoeUI-6c" d="M 1031 0
L 519 0
L 519 4738
L 1031 4738
L 1031 0
z
" transform="scale(0.015625)"/>
       <path id="SegoeUI-6f" d="M 1856 -75
Q 1147 -75 723 373
Q 300 822 300 1563
Q 300 2369 740 2822
Q 1181 3275 1931 3275
Q 2647 3275 3048 2834
Q 3450 2394 3450 1613
Q 3450 847 3017 386
Q 2584 -75 1856 -75
z
M 1894 2844
Q 1400 2844 1112 2508
Q 825 2172 825 1581
Q 825 1013 1115 684
Q 1406 356 1894 356
Q 2391 356 2658 678
Q 2925 1000 2925 1594
Q 2925 2194 2658 2519
Q 2391 2844 1894 2844
z
" transform="scale(0.015625)"/>
       <path id="SegoeUI-77" d="M 4550 3200
L 3591 0
L 3059 0
L 2400 2291
Q 2363 2422 2350 2588
L 2338 2588
Q 2328 2475 2272 2297
L 1556 0
L 1044 0
L 75 3200
L 613 3200
L 1275 794
Q 1306 684 1319 506
L 1344 506
Q 1353 644 1400 800
L 2138 3200
L 2606 3200
L 3269 788
Q 3300 672 3316 500
L 3341 500
Q 3347 622 3394 788
L 4044 3200
L 4550 3200
z
" transform="scale(0.015625)"/>
       <path id="SegoeUI-20" transform="scale(0.015625)"/>
       <path id="SegoeUI-61" d="M 2809 0
L 2297 0
L 2297 500
L 2284 500
Q 1950 -75 1300 -75
Q 822 -75 551 178
Q 281 431 281 850
Q 281 1747 1338 1894
L 2297 2028
Q 2297 2844 1638 2844
Q 1059 2844 594 2450
L 594 2975
Q 1066 3275 1681 3275
Q 2809 3275 2809 2081
L 2809 0
z
M 2297 1619
L 1525 1513
Q 1169 1463 987 1336
Q 806 1209 806 888
Q 806 653 973 504
Q 1141 356 1419 356
Q 1800 356 2048 623
Q 2297 891 2297 1300
L 2297 1619
z
" transform="scale(0.015625)"/>
       <path id="SegoeUI-67" d="M 3250 256
Q 3250 -1506 1563 -1506
Q 969 -1506 525 -1281
L 525 -769
Q 1066 -1069 1556 -1069
Q 2738 -1069 2738 188
L 2738 538
L 2725 538
Q 2359 -75 1625 -75
Q 1028 -75 664 351
Q 300 778 300 1497
Q 300 2313 692 2794
Q 1084 3275 1766 3275
Q 2413 3275 2725 2756
L 2738 2756
L 2738 3200
L 3250 3200
L 3250 256
z
M 2738 1447
L 2738 1919
Q 2738 2300 2480 2572
Q 2222 2844 1838 2844
Q 1363 2844 1094 2498
Q 825 2153 825 1531
Q 825 997 1083 676
Q 1341 356 1766 356
Q 2197 356 2467 662
Q 2738 969 2738 1447
z
" transform="scale(0.015625)"/>
      </defs>
      <use xlink:href="#SegoeUI-45"/>
      <use xlink:href="#SegoeUI-54" transform="translate(50.835938 0)"/>
      <use xlink:href="#SegoeUI-46" transform="translate(103.228516 0)"/>
      <use xlink:href="#SegoeUI-2d" transform="translate(152.056641 0)"/>
      <use xlink:href="#SegoeUI-66" transform="translate(192.046875 0)"/>
      <use xlink:href="#SegoeUI-6c" transform="translate(223.345703 0)"/>
      <use xlink:href="#SegoeUI-6f" transform="translate(247.564453 0)"/>
      <use xlink:href="#SegoeUI-77" transform="translate(306.158203 0)"/>
      <use xlink:href="#SegoeUI-20" transform="translate(378.423828 0)"/>
      <use xlink:href="#SegoeUI-6c" transform="translate(405.816406 0)"/>
      <use xlink:href="#SegoeUI-61" transform="translate(430.035156 0)"/>
      <use xlink:href="#SegoeUI-67" transform="translate(480.914062 0)"/>
     </g>
    </g>
   </g>
   <g id="matplotlib.axis_2">
    <g id="ytick_1">
     <g id="line2d_11">
      <path d="M 38.91125 321.019091
L 635.99625 321.019091
" clip-path="url(#p989d8a5cca)" style="fill: none; stroke: #d9dee7; stroke-opacity: 0.55; stroke-width: 0.7; stroke-linecap: square"/>
     </g>
     <g id="line2d_12">
      <defs>
       <path id="maed7bf9416" d="M 0 0
L -3.5 0
" style="stroke: #111827; stroke-width: 0.8"/>
      </defs>
      <g>
       <use xlink:href="#maed7bf9416" x="38.91125" y="321.019091" style="fill: #111827; stroke: #111827; stroke-width: 0.8"/>
      </g>
     </g>
     <g id="text_7">
      <!-- −2 -->
      <g style="fill: #111827" transform="translate(20.903125 324.350497) scale(0.09 -0.09)">
       <use xlink:href="#SegoeUI-2212"/>
       <use xlink:href="#SegoeUI-32" transform="translate(68.408203 0)"/>
      </g>
     </g>
    </g>
    <g id="ytick_2">
     <g id="line2d_13">
      <path d="M 38.91125 282.815545
L 635.99625 282.815545
" clip-path="url(#p989d8a5cca)" style="fill: none; stroke: #d9dee7; stroke-opacity: 0.55; stroke-width: 0.7; stroke-linecap: square"/>
     </g>
     <g id="line2d_14">
      <g>
       <use xlink:href="#maed7bf9416" x="38.91125" y="282.815545" style="fill: #111827; stroke: #111827; stroke-width: 0.8"/>
      </g>
     </g>
     <g id="text_8">
      <!-- 0 -->
      <g style="fill: #111827" transform="translate(27.059688 286.146951) scale(0.09 -0.09)">
       <use xlink:href="#SegoeUI-30"/>
      </g>
     </g>
    </g>
    <g id="ytick_3">
     <g id="line2d_15">
      <path d="M 38.91125 244.611998
L 635.99625 244.611998
" clip-path="url(#p989d8a5cca)" style="fill: none; stroke: #d9dee7; stroke-opacity: 0.55; stroke-width: 0.7; stroke-linecap: square"/>
     </g>
     <g id="line2d_16">
      <g>
       <use xlink:href="#maed7bf9416" x="38.91125" y="244.611998" style="fill: #111827; stroke: #111827; stroke-width: 0.8"/>
      </g>
     </g>
     <g id="text_9">
      <!-- 2 -->
      <g style="fill: #111827" transform="translate(27.059688 247.943405) scale(0.09 -0.09)">
       <use xlink:href="#SegoeUI-32"/>
      </g>
     </g>
    </g>
    <g id="ytick_4">
     <g id="line2d_17">
      <path d="M 38.91125 206.408452
L 635.99625 206.408452
" clip-path="url(#p989d8a5cca)" style="fill: none; stroke: #d9dee7; stroke-opacity: 0.55; stroke-width: 0.7; stroke-linecap: square"/>
     </g>
     <g id="line2d_18">
      <g>
       <use xlink:href="#maed7bf9416" x="38.91125" y="206.408452" style="fill: #111827; stroke: #111827; stroke-width: 0.8"/>
      </g>
     </g>
     <g id="text_10">
      <!-- 4 -->
      <g style="fill: #111827" transform="translate(27.059688 209.739858) scale(0.09 -0.09)">
       <use xlink:href="#SegoeUI-34"/>
      </g>
     </g>
    </g>
    <g id="ytick_5">
     <g id="line2d_19">
      <path d="M 38.91125 168.204906
L 635.99625 168.204906
" clip-path="url(#p989d8a5cca)" style="fill: none; stroke: #d9dee7; stroke-opacity: 0.55; stroke-width: 0.7; stroke-linecap: square"/>
     </g>
     <g id="line2d_20">
      <g>
       <use xlink:href="#maed7bf9416" x="38.91125" y="168.204906" style="fill: #111827; stroke: #111827; stroke-width: 0.8"/>
      </g>
     </g>
     <g id="text_11">
      <!-- 6 -->
      <g style="fill: #111827" transform="translate(27.059688 171.536312) scale(0.09 -0.09)">
       <defs>
        <path id="SegoeUI-36" d="M 3194 1422
Q 3194 1094 3087 819
Q 2981 544 2793 344
Q 2606 144 2347 33
Q 2088 -78 1784 -78
Q 1447 -78 1180 62
Q 913 203 727 467
Q 541 731 444 1112
Q 347 1494 347 1972
Q 347 2556 476 3032
Q 606 3509 845 3848
Q 1084 4188 1421 4372
Q 1759 4556 2175 4556
Q 2638 4556 2919 4428
L 2919 3944
Q 2572 4122 2188 4122
Q 1888 4122 1647 3987
Q 1406 3853 1234 3608
Q 1063 3363 970 3016
Q 878 2669 878 2244
L 891 2244
Q 1200 2803 1913 2803
Q 2206 2803 2442 2703
Q 2678 2603 2845 2420
Q 3013 2238 3103 1984
Q 3194 1731 3194 1422
z
M 2669 1356
Q 2669 1591 2609 1778
Q 2550 1966 2439 2097
Q 2328 2228 2165 2298
Q 2003 2369 1797 2369
Q 1606 2369 1443 2297
Q 1281 2225 1162 2101
Q 1044 1978 976 1814
Q 909 1650 909 1466
Q 909 1234 975 1032
Q 1041 831 1159 681
Q 1278 531 1442 445
Q 1606 359 1806 359
Q 2000 359 2159 432
Q 2319 506 2431 637
Q 2544 769 2606 951
Q 2669 1134 2669 1356
z
" transform="scale(0.015625)"/>
       </defs>
       <use xlink:href="#SegoeUI-36"/>
      </g>
     </g>
    </g>
    <g id="ytick_6">
     <g id="line2d_21">
      <path d="M 38.91125 130.001359
L 635.99625 130.001359
" clip-path="url(#p989d8a5cca)" style="fill: none; stroke: #d9dee7; stroke-opacity: 0.55; stroke-width: 0.7; stroke-linecap: square"/>
     </g>
     <g id="line2d_22">
      <g>
       <use xlink:href="#maed7bf9416" x="38.91125" y="130.001359" style="fill: #111827; stroke: #111827; stroke-width: 0.8"/>
      </g>
     </g>
     <g id="text_12">
      <!-- 8 -->
      <g style="fill: #111827" transform="translate(27.059688 133.332766) scale(0.09 -0.09)">
       <defs>
        <path id="SegoeUI-38" d="M 281 1250
Q 281 1428 337 1608
Q 394 1788 498 1944
Q 603 2100 758 2228
Q 913 2356 1109 2431
Q 819 2594 647 2848
Q 475 3103 475 3413
Q 475 3659 570 3868
Q 666 4078 834 4231
Q 1003 4384 1234 4470
Q 1466 4556 1734 4556
Q 2006 4556 2237 4468
Q 2469 4381 2637 4228
Q 2806 4075 2900 3865
Q 2994 3656 2994 3413
Q 2994 3103 2822 2848
Q 2650 2594 2366 2431
Q 2559 2356 2712 2228
Q 2866 2100 2970 1944
Q 3075 1788 3131 1608
Q 3188 1428 3188 1250
Q 3188 956 3081 712
Q 2975 469 2783 295
Q 2591 122 2323 25
Q 2056 -72 1734 -72
Q 1416 -72 1150 25
Q 884 122 690 295
Q 497 469 389 712
Q 281 956 281 1250
z
M 838 1294
Q 838 1084 902 915
Q 966 747 1083 628
Q 1200 509 1367 445
Q 1534 381 1738 381
Q 1934 381 2100 447
Q 2266 513 2386 631
Q 2506 750 2573 919
Q 2641 1088 2641 1294
Q 2641 1481 2577 1645
Q 2513 1809 2394 1934
Q 2275 2059 2109 2131
Q 1944 2203 1738 2203
Q 1544 2203 1380 2136
Q 1216 2069 1095 1948
Q 975 1828 906 1661
Q 838 1494 838 1294
z
M 997 3372
Q 997 3213 1055 3077
Q 1113 2941 1214 2839
Q 1316 2738 1450 2680
Q 1584 2622 1738 2622
Q 1891 2622 2027 2681
Q 2163 2741 2263 2842
Q 2363 2944 2422 3080
Q 2481 3216 2481 3372
Q 2481 3534 2423 3671
Q 2366 3809 2266 3909
Q 2166 4009 2030 4067
Q 1894 4125 1738 4125
Q 1572 4125 1436 4065
Q 1300 4006 1201 3904
Q 1103 3803 1050 3665
Q 997 3528 997 3372
z
" transform="scale(0.015625)"/>
       </defs>
       <use xlink:href="#SegoeUI-38"/>
      </g>
     </g>
    </g>
    <g id="ytick_7">
     <g id="line2d_23">
      <path d="M 38.91125 91.797813
L 635.99625 91.797813
" clip-path="url(#p989d8a5cca)" style="fill: none; stroke: #d9dee7; stroke-opacity: 0.55; stroke-width: 0.7; stroke-linecap: square"/>
     </g>
     <g id="line2d_24">
      <g>
       <use xlink:href="#maed7bf9416" x="38.91125" y="91.797813" style="fill: #111827; stroke: #111827; stroke-width: 0.8"/>
      </g>
     </g>
     <g id="text_13">
      <!-- 10 -->
      <g style="fill: #111827" transform="translate(22.208125 95.129219) scale(0.09 -0.09)">
       <defs>
        <path id="SegoeUI-31" d="M 2263 0
L 1750 0
L 1750 3872
Q 1691 3813 1577 3736
Q 1463 3659 1320 3584
Q 1178 3509 1020 3443
Q 863 3378 713 3341
L 713 3859
Q 881 3906 1070 3986
Q 1259 4066 1442 4164
Q 1625 4263 1787 4370
Q 1950 4478 2069 4581
L 2263 4581
L 2263 0
z
" transform="scale(0.015625)"/>
       </defs>
       <use xlink:href="#SegoeUI-31"/>
       <use xlink:href="#SegoeUI-30" transform="translate(53.90625 0)"/>
      </g>
     </g>
    </g>
    <g id="text_14">
     <!-- HAC t-statistic -->
     <g style="fill: #6b7280" transform="translate(14.603125 228.102969) rotate(-90) scale(0.1 -0.1)">
      <defs>
       <path id="SegoeUI-48" d="M 3956 0
L 3431 0
L 3431 2044
L 1113 2044
L 1113 0
L 588 0
L 588 4481
L 1113 4481
L 1113 2516
L 3431 2516
L 3431 4481
L 3956 4481
L 3956 0
z
" transform="scale(0.015625)"/>
       <path id="SegoeUI-41" d="M 4056 0
L 3475 0
L 3000 1256
L 1100 1256
L 653 0
L 69 0
L 1788 4481
L 2331 4481
L 4056 0
z
M 2828 1728
L 2125 3638
Q 2091 3731 2056 3938
L 2044 3938
Q 2013 3747 1972 3638
L 1275 1728
L 2828 1728
z
" transform="scale(0.015625)"/>
       <path id="SegoeUI-43" d="M 3638 188
Q 3141 -75 2400 -75
Q 1444 -75 869 540
Q 294 1156 294 2156
Q 294 3231 941 3893
Q 1588 4556 2581 4556
Q 3219 4556 3638 4372
L 3638 3813
Q 3156 4081 2575 4081
Q 1803 4081 1323 3565
Q 844 3050 844 2188
Q 844 1369 1292 883
Q 1741 397 2469 397
Q 3144 397 3638 697
L 3638 188
z
" transform="scale(0.015625)"/>
       <path id="SegoeUI-74" d="M 2003 31
Q 1822 -69 1525 -69
Q 684 -69 684 869
L 684 2763
L 134 2763
L 134 3200
L 684 3200
L 684 3981
L 1197 4147
L 1197 3200
L 2003 3200
L 2003 2763
L 1197 2763
L 1197 959
Q 1197 638 1306 500
Q 1416 363 1669 363
Q 1863 363 2003 469
L 2003 31
z
" transform="scale(0.015625)"/>
       <path id="SegoeUI-73" d="M 325 116
L 325 666
Q 744 356 1247 356
Q 1922 356 1922 806
Q 1922 934 1864 1023
Q 1806 1113 1707 1181
Q 1609 1250 1476 1304
Q 1344 1359 1191 1419
Q 978 1503 817 1589
Q 656 1675 548 1783
Q 441 1891 386 2028
Q 331 2166 331 2350
Q 331 2575 434 2748
Q 538 2922 709 3039
Q 881 3156 1101 3215
Q 1322 3275 1556 3275
Q 1972 3275 2300 3131
L 2300 2613
Q 1947 2844 1488 2844
Q 1344 2844 1228 2811
Q 1113 2778 1030 2718
Q 947 2659 901 2576
Q 856 2494 856 2394
Q 856 2269 901 2184
Q 947 2100 1034 2034
Q 1122 1969 1247 1916
Q 1372 1863 1531 1800
Q 1744 1719 1912 1633
Q 2081 1547 2200 1439
Q 2319 1331 2383 1190
Q 2447 1050 2447 856
Q 2447 619 2342 444
Q 2238 269 2063 153
Q 1888 38 1659 -18
Q 1431 -75 1181 -75
Q 688 -75 325 116
z
" transform="scale(0.015625)"/>
       <path id="SegoeUI-69" d="M 781 4013
Q 644 4013 547 4106
Q 450 4200 450 4344
Q 450 4488 547 4583
Q 644 4678 781 4678
Q 922 4678 1020 4583
Q 1119 4488 1119 4344
Q 1119 4206 1020 4109
Q 922 4013 781 4013
z
M 1031 0
L 519 0
L 519 3200
L 1031 3200
L 1031 0
z
" transform="scale(0.015625)"/>
       <path id="SegoeUI-63" d="M 2700 147
Q 2331 -75 1825 -75
Q 1141 -75 720 370
Q 300 816 300 1525
Q 300 2316 753 2795
Q 1206 3275 1963 3275
Q 2384 3275 2706 3119
L 2706 2594
Q 2350 2844 1944 2844
Q 1453 2844 1139 2492
Q 825 2141 825 1569
Q 825 1006 1120 681
Q 1416 356 1913 356
Q 2331 356 2700 634
L 2700 147
z
" transform="scale(0.015625)"/>
      </defs>
      <use xlink:href="#SegoeUI-48"/>
      <use xlink:href="#SegoeUI-41" transform="translate(70.996094 0)"/>
      <use xlink:href="#SegoeUI-43" transform="translate(134.123047 0)"/>
      <use xlink:href="#SegoeUI-20" transform="translate(196.037109 0)"/>
      <use xlink:href="#SegoeUI-74" transform="translate(223.429688 0)"/>
      <use xlink:href="#SegoeUI-2d" transform="translate(251.816406 0)"/>
      <use xlink:href="#SegoeUI-73" transform="translate(291.806641 0)"/>
      <use xlink:href="#SegoeUI-74" transform="translate(334.238281 0)"/>
      <use xlink:href="#SegoeUI-61" transform="translate(368.125 0)"/>
      <use xlink:href="#SegoeUI-74" transform="translate(419.003906 0)"/>
      <use xlink:href="#SegoeUI-69" transform="translate(452.890625 0)"/>
      <use xlink:href="#SegoeUI-73" transform="translate(477.109375 0)"/>
      <use xlink:href="#SegoeUI-74" transform="translate(519.541016 0)"/>
      <use xlink:href="#SegoeUI-69" transform="translate(553.427734 0)"/>
      <use xlink:href="#SegoeUI-63" transform="translate(577.646484 0)"/>
     </g>
    </g>
   </g>
   <g id="LineCollection_1">
    <path d="M 66.051477 282.815545
L 66.051477 263.865949
" clip-path="url(#p989d8a5cca)" style="fill: none; stroke: #6b7280; stroke-width: 2"/>
    <path d="M 120.331932 282.815545
L 120.331932 268.708972
" clip-path="url(#p989d8a5cca)" style="fill: none; stroke: #6b7280; stroke-width: 2"/>
    <path d="M 174.612386 282.815545
L 174.612386 289.333636
" clip-path="url(#p989d8a5cca)" style="fill: none; stroke: #6b7280; stroke-width: 2"/>
    <path d="M 228.892841 282.815545
L 228.892841 272.740556
" clip-path="url(#p989d8a5cca)" style="fill: none; stroke: #6b7280; stroke-width: 2"/>
    <path d="M 283.173295 282.815545
L 283.173295 247.085678
" clip-path="url(#p989d8a5cca)" style="fill: none; stroke: #6b7280; stroke-width: 2"/>
    <path d="M 337.45375 282.815545
L 337.45375 87.512576
" clip-path="url(#p989d8a5cca)" style="fill: none; stroke: #f7931a; stroke-width: 2"/>
    <path d="M 391.734205 282.815545
L 391.734205 72.800909
" clip-path="url(#p989d8a5cca)" style="fill: none; stroke: #f7931a; stroke-width: 2"/>
    <path d="M 446.014659 282.815545
L 446.014659 173.80705
" clip-path="url(#p989d8a5cca)" style="fill: none; stroke: #f7931a; stroke-width: 2"/>
    <path d="M 500.295114 282.815545
L 500.295114 207.206734
" clip-path="url(#p989d8a5cca)" style="fill: none; stroke: #f7931a; stroke-width: 2"/>
    <path d="M 554.575568 282.815545
L 554.575568 242.777151
" clip-path="url(#p989d8a5cca)" style="fill: none; stroke: #f7931a; stroke-width: 2"/>
    <path d="M 608.856023 282.815545
L 608.856023 271.368922
" clip-path="url(#p989d8a5cca)" style="fill: none; stroke: #6b7280; stroke-width: 2"/>
   </g>
   <g id="line2d_25">
    <path d="M 38.91125 282.815545
L 635.99625 282.815545
" clip-path="url(#p989d8a5cca)" style="fill: none; stroke: #111827; stroke-opacity: 0.5; stroke-linecap: square"/>
   </g>
   <g id="line2d_26">
    <path d="M 38.91125 244.611998
L 635.99625 244.611998
" clip-path="url(#p989d8a5cca)" style="fill: none; stroke-dasharray: 5.55,2.4; stroke-dashoffset: 0; stroke: #dc2626; stroke-opacity: 0.3; stroke-width: 1.5"/>
   </g>
   <g id="line2d_27">
    <path d="M 38.91125 321.019091
L 635.99625 321.019091
" clip-path="url(#p989d8a5cca)" style="fill: none; stroke-dasharray: 5.55,2.4; stroke-dashoffset: 0; stroke: #dc2626; stroke-opacity: 0.3; stroke-width: 1.5"/>
   </g>
   <g id="PathCollection_1">
    <defs>
     <path id="C0_0_2cdebe16f9" d="M 0 3.535534
C 0.937635 3.535534 1.836992 3.163008 2.5 2.5
C 3.163008 1.836992 3.535534 0.937635 3.535534 -0
C 3.535534 -0.937635 3.163008 -1.836992 2.5 -2.5
C 1.836992 -3.163008 0.937635 -3.535534 0 -3.535534
C -0.937635 -3.535534 -1.836992 -3.163008 -2.5 -2.5
C -3.163008 -1.836992 -3.535534 -0.937635 -3.535534 0
C -3.535534 0.937635 -3.163008 1.836992 -2.5 2.5
C -1.836992 3.163008 -0.937635 3.535534 0 3.535534
z
"/>
    </defs>
    <g clip-path="url(#p989d8a5cca)">
     <use xlink:href="#C0_0_2cdebe16f9" x="66.051477" y="263.865949" style="fill: #6b7280; stroke: #6b7280; stroke-width: 0.8"/>
    </g>
    <g clip-path="url(#p989d8a5cca)">
     <use xlink:href="#C0_0_2cdebe16f9" x="120.331932" y="268.708972" style="fill: #6b7280; stroke: #6b7280; stroke-width: 0.8"/>
    </g>
    <g clip-path="url(#p989d8a5cca)">
     <use xlink:href="#C0_0_2cdebe16f9" x="174.612386" y="289.333636" style="fill: #6b7280; stroke: #6b7280; stroke-width: 0.8"/>
    </g>
    <g clip-path="url(#p989d8a5cca)">
     <use xlink:href="#C0_0_2cdebe16f9" x="228.892841" y="272.740556" style="fill: #6b7280; stroke: #6b7280; stroke-width: 0.8"/>
    </g>
    <g clip-path="url(#p989d8a5cca)">
     <use xlink:href="#C0_0_2cdebe16f9" x="283.173295" y="247.085678" style="fill: #6b7280; stroke: #6b7280; stroke-width: 0.8"/>
    </g>
    <g clip-path="url(#p989d8a5cca)">
     <use xlink:href="#C0_0_2cdebe16f9" x="337.45375" y="87.512576" style="fill: #f7931a; stroke: #f7931a; stroke-width: 0.8"/>
    </g>
    <g clip-path="url(#p989d8a5cca)">
     <use xlink:href="#C0_0_2cdebe16f9" x="391.734205" y="72.800909" style="fill: #f7931a; stroke: #f7931a; stroke-width: 0.8"/>
    </g>
    <g clip-path="url(#p989d8a5cca)">
     <use xlink:href="#C0_0_2cdebe16f9" x="446.014659" y="173.80705" style="fill: #f7931a; stroke: #f7931a; stroke-width: 0.8"/>
    </g>
    <g clip-path="url(#p989d8a5cca)">
     <use xlink:href="#C0_0_2cdebe16f9" x="500.295114" y="207.206734" style="fill: #f7931a; stroke: #f7931a; stroke-width: 0.8"/>
    </g>
    <g clip-path="url(#p989d8a5cca)">
     <use xlink:href="#C0_0_2cdebe16f9" x="554.575568" y="242.777151" style="fill: #f7931a; stroke: #f7931a; stroke-width: 0.8"/>
    </g>
    <g clip-path="url(#p989d8a5cca)">
     <use xlink:href="#C0_0_2cdebe16f9" x="608.856023" y="271.368922" style="fill: #6b7280; stroke: #6b7280; stroke-width: 0.8"/>
    </g>
   </g>
  </g>
  <g id="text_15">
   <!-- ETF Flow Lead-Lag -->
   <g style="fill: #111827" transform="translate(260.855625 17.564375) scale(0.14 -0.14)">
    <defs>
     <path id="SegoeUI-Bold-45" d="M 3200 0
L 513 0
L 513 4481
L 3097 4481
L 3097 3659
L 1522 3659
L 1522 2663
L 2988 2663
L 2988 1844
L 1522 1844
L 1522 819
L 3200 819
L 3200 0
z
" transform="scale(0.015625)"/>
     <path id="SegoeUI-Bold-54" d="M 3659 3659
L 2381 3659
L 2381 0
L 1369 0
L 1369 3659
L 97 3659
L 97 4481
L 3659 4481
L 3659 3659
z
" transform="scale(0.015625)"/>
     <path id="SegoeUI-Bold-46" d="M 3103 3659
L 1522 3659
L 1522 2559
L 2975 2559
L 2975 1741
L 1522 1741
L 1522 0
L 513 0
L 513 4481
L 3103 4481
L 3103 3659
z
" transform="scale(0.015625)"/>
     <path id="SegoeUI-Bold-20" transform="scale(0.015625)"/>
     <path id="SegoeUI-Bold-6c" d="M 1403 0
L 416 0
L 416 4738
L 1403 4738
L 1403 0
z
" transform="scale(0.015625)"/>
     <path id="SegoeUI-Bold-6f" d="M 1941 -78
Q 1141 -78 683 370
Q 225 819 225 1588
Q 225 2381 700 2829
Q 1175 3278 1984 3278
Q 2781 3278 3234 2829
Q 3688 2381 3688 1644
Q 3688 847 3220 384
Q 2753 -78 1941 -78
z
M 1966 2522
Q 1616 2522 1422 2281
Q 1228 2041 1228 1600
Q 1228 678 1972 678
Q 2681 678 2681 1625
Q 2681 2522 1966 2522
z
" transform="scale(0.015625)"/>
     <path id="SegoeUI-Bold-77" d="M 5050 3200
L 4128 0
L 3091 0
L 2619 1875
Q 2572 2063 2566 2284
L 2547 2284
Q 2525 2041 2484 1888
L 1978 0
L 953 0
L 50 3200
L 1056 3200
L 1497 1113
Q 1528 966 1544 756
L 1563 756
Q 1578 975 1619 1125
L 2169 3200
L 3109 3200
L 3603 1113
Q 3622 1034 3647 750
L 3669 750
Q 3684 931 3719 1113
L 4134 3200
L 5050 3200
z
" transform="scale(0.015625)"/>
     <path id="SegoeUI-Bold-4c" d="M 3181 0
L 513 0
L 513 4481
L 1522 4481
L 1522 819
L 3181 819
L 3181 0
z
" transform="scale(0.015625)"/>
     <path id="SegoeUI-Bold-65" d="M 3291 1319
L 1203 1319
Q 1253 622 2081 622
Q 2609 622 3009 872
L 3009 159
Q 2566 -78 1856 -78
Q 1081 -78 653 351
Q 225 781 225 1550
Q 225 2347 687 2812
Q 1150 3278 1825 3278
Q 2525 3278 2908 2862
Q 3291 2447 3291 1734
L 3291 1319
z
M 2375 1925
Q 2375 2613 1819 2613
Q 1581 2613 1407 2416
Q 1234 2219 1197 1925
L 2375 1925
z
" transform="scale(0.015625)"/>
     <path id="SegoeUI-Bold-61" d="M 3078 0
L 2144 0
L 2144 459
L 2131 459
Q 1809 -78 1178 -78
Q 713 -78 445 186
Q 178 450 178 891
Q 178 1822 1281 1966
L 2150 2081
Q 2150 2606 1581 2606
Q 1009 2606 494 2266
L 494 3009
Q 700 3116 1058 3197
Q 1416 3278 1709 3278
Q 3078 3278 3078 1913
L 3078 0
z
M 2150 1300
L 2150 1516
L 1569 1441
Q 1088 1378 1088 1006
Q 1088 838 1205 730
Q 1322 622 1522 622
Q 1800 622 1975 814
Q 2150 1006 2150 1300
z
" transform="scale(0.015625)"/>
     <path id="SegoeUI-Bold-64" d="M 3547 0
L 2559 0
L 2559 441
L 2547 441
Q 2209 -78 1556 -78
Q 956 -78 590 345
Q 225 769 225 1528
Q 225 2322 628 2800
Q 1031 3278 1684 3278
Q 2303 3278 2547 2834
L 2559 2834
L 2559 4738
L 3547 4738
L 3547 0
z
M 2578 1556
L 2578 1797
Q 2578 2109 2397 2315
Q 2216 2522 1925 2522
Q 1597 2522 1412 2264
Q 1228 2006 1228 1556
Q 1228 1134 1406 906
Q 1584 678 1900 678
Q 2200 678 2389 918
Q 2578 1159 2578 1556
z
" transform="scale(0.015625)"/>
     <path id="SegoeUI-Bold-2d" d="M 2156 1363
L 447 1363
L 447 2053
L 2156 2053
L 2156 1363
z
" transform="scale(0.015625)"/>
     <path id="SegoeUI-Bold-67" d="M 3553 366
Q 3553 -525 3037 -1014
Q 2522 -1503 1544 -1503
Q 897 -1503 519 -1319
L 519 -488
Q 1013 -775 1516 -775
Q 2016 -775 2291 -511
Q 2566 -247 2566 206
L 2566 459
L 2553 459
Q 2216 -78 1556 -78
Q 944 -78 584 353
Q 225 784 225 1509
Q 225 2322 625 2800
Q 1025 3278 1678 3278
Q 2263 3278 2553 2828
L 2566 2828
L 2566 3200
L 3553 3200
L 3553 366
z
M 2578 1538
L 2578 1791
Q 2578 2094 2398 2308
Q 2219 2522 1931 2522
Q 1603 2522 1415 2265
Q 1228 2009 1228 1544
Q 1228 1144 1406 911
Q 1584 678 1894 678
Q 2200 678 2389 914
Q 2578 1150 2578 1538
z
" transform="scale(0.015625)"/>
    </defs>
    <use xlink:href="#SegoeUI-Bold-45"/>
    <use xlink:href="#SegoeUI-Bold-54" transform="translate(54.097656 0)"/>
    <use xlink:href="#SegoeUI-Bold-46" transform="translate(112.691406 0)"/>
    <use xlink:href="#SegoeUI-Bold-20" transform="translate(164.693359 0)"/>
    <use xlink:href="#SegoeUI-Bold-46" transform="translate(192.28125 0)"/>
    <use xlink:href="#SegoeUI-Bold-6c" transform="translate(244.283203 0)"/>
    <use xlink:href="#SegoeUI-Bold-6f" transform="translate(272.701172 0)"/>
    <use xlink:href="#SegoeUI-Bold-77" transform="translate(333.833984 0)"/>
    <use xlink:href="#SegoeUI-Bold-20" transform="translate(413.570312 0)"/>
    <use xlink:href="#SegoeUI-Bold-4c" transform="translate(441.158203 0)"/>
    <use xlink:href="#SegoeUI-Bold-65" transform="translate(492.28125 0)"/>
    <use xlink:href="#SegoeUI-Bold-61" transform="translate(546.382812 0)"/>
    <use xlink:href="#SegoeUI-Bold-64" transform="translate(600.191406 0)"/>
    <use xlink:href="#SegoeUI-Bold-2d" transform="translate(662.105469 0)"/>
    <use xlink:href="#SegoeUI-Bold-4c" transform="translate(702.535156 0)"/>
    <use xlink:href="#SegoeUI-Bold-61" transform="translate(753.658203 0)"/>
    <use xlink:href="#SegoeUI-Bold-67" transform="translate(807.466797 0)"/>
   </g>
  </g>
 </g>
 <defs>
  <clipPath id="p989d8a5cca">
   <rect x="38.91125" y="60.39" width="597.085" height="273.04"/>
  </clipPath>
 </defs>
</svg>
