<?xml version="1.0" encoding="utf-8" standalone="no"?>
<!DOCTYPE svg PUBLIC "-//W3C//DTD SVG 1.1//EN"
  "http://www.w3.org/Graphics/SVG/1.1/DTD/svg11.dtd">
<svg xmlns:xlink="http://www.w3.org/1999/xlink" width="671.633437pt" height="355.966523pt" viewBox="0 0 671.633437 355.966523" xmlns="http://www.w3.org/2000/svg" version="1.1">
 <metadata>
  <rdf:RDF xmlns:dc="http://purl.org/dc/elements/1.1/" xmlns:cc="http://creativecommons.org/ns#" xmlns:rdf="http://www.w3.org/1999/02/22-rdf-syntax-ns#">
   <cc:Work>
    <dc:type rdf:resource="http://purl.org/dc/dcmitype/StillImage"/>
    <dc:date>2026-06-16T16:40:24.521353</dc:date>
    <dc:format>image/svg+xml</dc:format>
    <dc:creator>
     <cc:Agent>
      <dc:title>Matplotlib v3.10.8, https://matplotlib.org/</dc:title>
     </cc:Agent>
    </dc:creator>
   </cc:Work>
  </rdf:RDF>
 </metadata>
 <defs>
  <style type="text/css">*{stroke-linejoin: round; stroke-linecap: butt}</style>
 </defs>
 <g id="figure_1">
  <g id="patch_1">
   <path d="M 0 355.966523 
L 671.633438 355.966523 
L 671.633438 0 
L 0 0 
z
" style="fill: #fafaf7"/>
  </g>
  <g id="axes_1">
   <g id="patch_2">
    <path d="M 28.754688 295.4025 
L 332.355938 295.4025 
L 332.355938 75.861094 
L 28.754688 75.861094 
z
" style="fill: #fafaf7"/>
   </g>
   <g id="matplotlib.axis_1">
    <g id="xtick_1">
     <g id="line2d_1">
      <path d="M 58.071226 295.4025 
L 58.071226 75.861094 
" clip-path="url(#p55d3f29f10)" style="fill: none; stroke: #d9dee7; stroke-opacity: 0.55; stroke-width: 0.7; stroke-linecap: square"/>
     </g>
     <g id="line2d_2">
      <defs>
       <path id="m5919d2f3ae" d="M 0 0 
L 0 3.5 
" style="stroke: #111827; stroke-width: 0.8"/>
      </defs>
      <g>
       <use xlink:href="#m5919d2f3ae" x="58.071226" y="295.4025" style="fill: #111827; stroke: #111827; stroke-width: 0.8"/>
      </g>
     </g>
     <g id="text_1">
      <!-- 2021 -->
      <g style="fill: #111827" transform="translate(48.368101 309.065313) scale(0.09 -0.09)">
       <defs>
        <path id="SegoeUI-32" d="M 2413 3306 
Q 2413 3513 2348 3666 
Q 2284 3819 2173 3920 
Q 2063 4022 1913 4072 
Q 1763 4122 1588 4122 
Q 1438 4122 1294 4081 
Q 1150 4041 1014 3969 
Q 878 3897 751 3797 
Q 625 3697 516 3575 
L 516 4125 
Q 731 4334 998 4445 
Q 1266 4556 1650 4556 
Q 1925 4556 2159 4476 
Q 2394 4397 2566 4244 
Q 2738 4091 2836 3866 
Q 2934 3641 2934 3350 
Q 2934 3084 2873 2868 
Q 2813 2653 2689 2462 
Q 2566 2272 2378 2097 
Q 2191 1922 1938 1741 
Q 1622 1516 1417 1356 
Q 1213 1197 1092 1058 
Q 972 919 923 780 
Q 875 641 875 459 
L 3106 459 
L 3106 0 
L 341 0 
L 341 222 
Q 341 509 403 728 
Q 466 947 609 1144 
Q 753 1341 986 1537 
Q 1219 1734 1556 1981 
Q 1800 2156 1964 2315 
Q 2128 2475 2228 2634 
Q 2328 2794 2370 2958 
Q 2413 3122 2413 3306 
z
" transform="scale(0.015625)"/>
        <path id="SegoeUI-30" d="M 3188 2259 
Q 3188 1697 3086 1262 
Q 2984 828 2792 529 
Q 2600 231 2320 76 
Q 2041 -78 1684 -78 
Q 1347 -78 1083 70 
Q 819 219 637 503 
Q 456 788 362 1202 
Q 269 1616 269 2150 
Q 269 2738 367 3188 
Q 466 3638 656 3942 
Q 847 4247 1130 4401 
Q 1413 4556 1778 4556 
Q 3188 4556 3188 2259 
z
M 2663 2209 
Q 2663 4122 1753 4122 
Q 794 4122 794 2175 
Q 794 359 1734 359 
Q 2663 359 2663 2209 
z
" transform="scale(0.015625)"/>
        <path id="SegoeUI-31" d="M 2263 0 
L 1750 0 
L 1750 3872 
Q 1691 3813 1577 3736 
Q 1463 3659 1320 3584 
Q 1178 3509 1020 3443 
Q 863 3378 713 3341 
L 713 3859 
Q 881 3906 1070 3986 
Q 1259 4066 1442 4164 
Q 1625 4263 1787 4370 
Q 1950 4478 2069 4581 
L 2263 4581 
L 2263 0 
z
" transform="scale(0.015625)"/>
       </defs>
       <use xlink:href="#SegoeUI-32"/>
       <use xlink:href="#SegoeUI-30" transform="translate(53.90625 0)"/>
       <use xlink:href="#SegoeUI-32" transform="translate(107.8125 0)"/>
       <use xlink:href="#SegoeUI-31" transform="translate(161.71875 0)"/>
      </g>
     </g>
    </g>
    <g id="xtick_2">
     <g id="line2d_3">
      <path d="M 108.190835 295.4025 
L 108.190835 75.861094 
" clip-path="url(#p55d3f29f10)" style="fill: none; stroke: #d9dee7; stroke-opacity: 0.55; stroke-width: 0.7; stroke-linecap: square"/>
     </g>
     <g id="line2d_4">
      <g>
       <use xlink:href="#m5919d2f3ae" x="108.190835" y="295.4025" style="fill: #111827; stroke: #111827; stroke-width: 0.8"/>
      </g>
     </g>
     <g id="text_2">
      <!-- 2022 -->
      <g style="fill: #111827" transform="translate(98.48771 309.065313) scale(0.09 -0.09)">
       <use xlink:href="#SegoeUI-32"/>
       <use xlink:href="#SegoeUI-30" transform="translate(53.90625 0)"/>
       <use xlink:href="#SegoeUI-32" transform="translate(107.8125 0)"/>
       <use xlink:href="#SegoeUI-32" transform="translate(161.71875 0)"/>
      </g>
     </g>
    </g>
    <g id="xtick_3">
     <g id="line2d_5">
      <path d="M 158.310445 295.4025 
L 158.310445 75.861094 
" clip-path="url(#p55d3f29f10)" style="fill: none; stroke: #d9dee7; stroke-opacity: 0.55; stroke-width: 0.7; stroke-linecap: square"/>
     </g>
     <g id="line2d_6">
      <g>
       <use xlink:href="#m5919d2f3ae" x="158.310445" y="295.4025" style="fill: #111827; stroke: #111827; stroke-width: 0.8"/>
      </g>
     </g>
     <g id="text_3">
      <!-- 2023 -->
      <g style="fill: #111827" transform="translate(148.60732 309.065313) scale(0.09 -0.09)">
       <defs>
        <path id="SegoeUI-33" d="M 2978 1269 
Q 2978 966 2864 717 
Q 2750 469 2542 292 
Q 2334 116 2043 19 
Q 1753 -78 1403 -78 
Q 763 -78 384 166 
L 384 716 
Q 838 359 1422 359 
Q 1656 359 1845 418 
Q 2034 478 2170 590 
Q 2306 703 2379 862 
Q 2453 1022 2453 1222 
Q 2453 2100 1203 2100 
L 831 2100 
L 831 2534 
L 1184 2534 
Q 2291 2534 2291 3359 
Q 2291 4122 1447 4122 
Q 972 4122 556 3803 
L 556 4300 
Q 984 4556 1575 4556 
Q 1856 4556 2084 4478 
Q 2313 4400 2475 4259 
Q 2638 4119 2727 3922 
Q 2816 3725 2816 3488 
Q 2816 2603 1922 2350 
L 1922 2338 
Q 2150 2313 2344 2227 
Q 2538 2141 2678 2003 
Q 2819 1866 2898 1680 
Q 2978 1494 2978 1269 
z
" transform="scale(0.015625)"/>
       </defs>
       <use xlink:href="#SegoeUI-32"/>
       <use xlink:href="#SegoeUI-30" transform="translate(53.90625 0)"/>
       <use xlink:href="#SegoeUI-32" transform="translate(107.8125 0)"/>
       <use xlink:href="#SegoeUI-33" transform="translate(161.71875 0)"/>
      </g>
     </g>
    </g>
    <g id="xtick_4">
     <g id="line2d_7">
      <path d="M 208.430054 295.4025 
L 208.430054 75.861094 
" clip-path="url(#p55d3f29f10)" style="fill: none; stroke: #d9dee7; stroke-opacity: 0.55; stroke-width: 0.7; stroke-linecap: square"/>
     </g>
     <g id="line2d_8">
      <g>
       <use xlink:href="#m5919d2f3ae" x="208.430054" y="295.4025" style="fill: #111827; stroke: #111827; stroke-width: 0.8"/>
      </g>
     </g>
     <g id="text_4">
      <!-- 2024 -->
      <g style="fill: #111827" transform="translate(198.726929 309.065313) scale(0.09 -0.09)">
       <defs>
        <path id="SegoeUI-34" d="M 2656 4481 
L 2656 1522 
L 3231 1522 
L 3231 1053 
L 2656 1053 
L 2656 0 
L 2150 0 
L 2150 1053 
L 44 1053 
L 44 1497 
Q 338 1828 638 2204 
Q 938 2581 1211 2968 
Q 1484 3356 1717 3742 
Q 1950 4128 2109 4481 
L 2656 4481 
z
M 622 1522 
L 2150 1522 
L 2150 3716 
Q 1916 3306 1706 2984 
Q 1497 2663 1308 2400 
Q 1119 2138 947 1925 
Q 775 1713 622 1522 
z
" transform="scale(0.015625)"/>
       </defs>
       <use xlink:href="#SegoeUI-32"/>
       <use xlink:href="#SegoeUI-30" transform="translate(53.90625 0)"/>
       <use xlink:href="#SegoeUI-32" transform="translate(107.8125 0)"/>
       <use xlink:href="#SegoeUI-34" transform="translate(161.71875 0)"/>
      </g>
     </g>
    </g>
    <g id="xtick_5">
     <g id="line2d_9">
      <path d="M 258.686977 295.4025 
L 258.686977 75.861094 
" clip-path="url(#p55d3f29f10)" style="fill: none; stroke: #d9dee7; stroke-opacity: 0.55; stroke-width: 0.7; stroke-linecap: square"/>
     </g>
     <g id="line2d_10">
      <g>
       <use xlink:href="#m5919d2f3ae" x="258.686977" y="295.4025" style="fill: #111827; stroke: #111827; stroke-width: 0.8"/>
      </g>
     </g>
     <g id="text_5">
      <!-- 2025 -->
      <g style="fill: #111827" transform="translate(248.983852 309.065313) scale(0.09 -0.09)">
       <defs>
        <path id="SegoeUI-35" d="M 3028 1369 
Q 3028 1041 2915 775 
Q 2803 509 2595 318 
Q 2388 128 2094 25 
Q 1800 -78 1441 -78 
Q 816 -78 513 109 
L 513 653 
Q 969 359 1447 359 
Q 1691 359 1886 431 
Q 2081 503 2218 631 
Q 2356 759 2429 940 
Q 2503 1122 2503 1338 
Q 2503 1775 2209 2023 
Q 1916 2272 1356 2272 
Q 1266 2272 1166 2269 
Q 1066 2266 966 2261 
Q 866 2256 770 2250 
Q 675 2244 597 2234 
L 750 4481 
L 2822 4481 
L 2822 4019 
L 1194 4019 
L 1103 2703 
Q 1203 2709 1315 2714 
Q 1428 2719 1516 2719 
Q 1872 2719 2153 2625 
Q 2434 2531 2629 2357 
Q 2825 2184 2926 1932 
Q 3028 1681 3028 1369 
z
" transform="scale(0.015625)"/>
       </defs>
       <use xlink:href="#SegoeUI-32"/>
       <use xlink:href="#SegoeUI-30" transform="translate(53.90625 0)"/>
       <use xlink:href="#SegoeUI-32" transform="translate(107.8125 0)"/>
       <use xlink:href="#SegoeUI-35" transform="translate(161.71875 0)"/>
      </g>
     </g>
    </g>
    <g id="xtick_6">
     <g id="line2d_11">
      <path d="M 308.806587 295.4025 
L 308.806587 75.861094 
" clip-path="url(#p55d3f29f10)" style="fill: none; stroke: #d9dee7; stroke-opacity: 0.55; stroke-width: 0.7; stroke-linecap: square"/>
     </g>
     <g id="line2d_12">
      <g>
       <use xlink:href="#m5919d2f3ae" x="308.806587" y="295.4025" style="fill: #111827; stroke: #111827; stroke-width: 0.8"/>
      </g>
     </g>
     <g id="text_6">
      <!-- 2026 -->
      <g style="fill: #111827" transform="translate(299.103462 309.065313) scale(0.09 -0.09)">
       <defs>
        <path id="SegoeUI-36" d="M 3194 1422 
Q 3194 1094 3087 819 
Q 2981 544 2793 344 
Q 2606 144 2347 33 
Q 2088 -78 1784 -78 
Q 1447 -78 1180 62 
Q 913 203 727 467 
Q 541 731 444 1112 
Q 347 1494 347 1972 
Q 347 2556 476 3032 
Q 606 3509 845 3848 
Q 1084 4188 1421 4372 
Q 1759 4556 2175 4556 
Q 2638 4556 2919 4428 
L 2919 3944 
Q 2572 4122 2188 4122 
Q 1888 4122 1647 3987 
Q 1406 3853 1234 3608 
Q 1063 3363 970 3016 
Q 878 2669 878 2244 
L 891 2244 
Q 1200 2803 1913 2803 
Q 2206 2803 2442 2703 
Q 2678 2603 2845 2420 
Q 3013 2238 3103 1984 
Q 3194 1731 3194 1422 
z
M 2669 1356 
Q 2669 1591 2609 1778 
Q 2550 1966 2439 2097 
Q 2328 2228 2165 2298 
Q 2003 2369 1797 2369 
Q 1606 2369 1443 2297 
Q 1281 2225 1162 2101 
Q 1044 1978 976 1814 
Q 909 1650 909 1466 
Q 909 1234 975 1032 
Q 1041 831 1159 681 
Q 1278 531 1442 445 
Q 1606 359 1806 359 
Q 2000 359 2159 432 
Q 2319 506 2431 637 
Q 2544 769 2606 951 
Q 2669 1134 2669 1356 
z
" transform="scale(0.015625)"/>
       </defs>
       <use xlink:href="#SegoeUI-32"/>
       <use xlink:href="#SegoeUI-30" transform="translate(53.90625 0)"/>
       <use xlink:href="#SegoeUI-32" transform="translate(107.8125 0)"/>
       <use xlink:href="#SegoeUI-36" transform="translate(161.71875 0)"/>
      </g>
     </g>
    </g>
   </g>
   <g id="matplotlib.axis_2">
    <g id="ytick_1">
     <g id="line2d_13">
      <path d="M 28.754688 295.4025 
L 332.355938 295.4025 
" clip-path="url(#p55d3f29f10)" style="fill: none; stroke: #d9dee7; stroke-opacity: 0.55; stroke-width: 0.7; stroke-linecap: square"/>
     </g>
     <g id="line2d_14">
      <defs>
       <path id="m89562ffc5e" d="M 0 0 
L -3.5 0 
" style="stroke: #111827; stroke-width: 0.8"/>
      </defs>
      <g>
       <use xlink:href="#m89562ffc5e" x="28.754688" y="295.4025" style="fill: #111827; stroke: #111827; stroke-width: 0.8"/>
      </g>
     </g>
     <g id="text_7">
      <!-- 0 -->
      <g style="fill: #111827" transform="translate(16.903125 298.733906) scale(0.09 -0.09)">
       <use xlink:href="#SegoeUI-30"/>
      </g>
     </g>
    </g>
    <g id="ytick_2">
     <g id="line2d_15">
      <path d="M 28.754688 251.494219 
L 332.355938 251.494219 
" clip-path="url(#p55d3f29f10)" style="fill: none; stroke: #d9dee7; stroke-opacity: 0.55; stroke-width: 0.7; stroke-linecap: square"/>
     </g>
     <g id="line2d_16">
      <g>
       <use xlink:href="#m89562ffc5e" x="28.754688" y="251.494219" style="fill: #111827; stroke: #111827; stroke-width: 0.8"/>
      </g>
     </g>
     <g id="text_8">
      <!-- 20 -->
      <g style="fill: #111827" transform="translate(12.051563 254.825625) scale(0.09 -0.09)">
       <use xlink:href="#SegoeUI-32"/>
       <use xlink:href="#SegoeUI-30" transform="translate(53.90625 0)"/>
      </g>
     </g>
    </g>
    <g id="ytick_3">
     <g id="line2d_17">
      <path d="M 28.754688 207.585937 
L 332.355938 207.585937 
" clip-path="url(#p55d3f29f10)" style="fill: none; stroke: #d9dee7; stroke-opacity: 0.55; stroke-width: 0.7; stroke-linecap: square"/>
     </g>
     <g id="line2d_18">
      <g>
       <use xlink:href="#m89562ffc5e" x="28.754688" y="207.585937" style="fill: #111827; stroke: #111827; stroke-width: 0.8"/>
      </g>
     </g>
     <g id="text_9">
      <!-- 40 -->
      <g style="fill: #111827" transform="translate(12.051563 210.917344) scale(0.09 -0.09)">
       <use xlink:href="#SegoeUI-34"/>
       <use xlink:href="#SegoeUI-30" transform="translate(53.90625 0)"/>
      </g>
     </g>
    </g>
    <g id="ytick_4">
     <g id="line2d_19">
      <path d="M 28.754688 163.677656 
L 332.355938 163.677656 
" clip-path="url(#p55d3f29f10)" style="fill: none; stroke: #d9dee7; stroke-opacity: 0.55; stroke-width: 0.7; stroke-linecap: square"/>
     </g>
     <g id="line2d_20">
      <g>
       <use xlink:href="#m89562ffc5e" x="28.754688" y="163.677656" style="fill: #111827; stroke: #111827; stroke-width: 0.8"/>
      </g>
     </g>
     <g id="text_10">
      <!-- 60 -->
      <g style="fill: #111827" transform="translate(12.051563 167.009062) scale(0.09 -0.09)">
       <use xlink:href="#SegoeUI-36"/>
       <use xlink:href="#SegoeUI-30" transform="translate(53.90625 0)"/>
      </g>
     </g>
    </g>
    <g id="ytick_5">
     <g id="line2d_21">
      <path d="M 28.754688 119.769375 
L 332.355938 119.769375 
" clip-path="url(#p55d3f29f10)" style="fill: none; stroke: #d9dee7; stroke-opacity: 0.55; stroke-width: 0.7; stroke-linecap: square"/>
     </g>
     <g id="line2d_22">
      <g>
       <use xlink:href="#m89562ffc5e" x="28.754688" y="119.769375" style="fill: #111827; stroke: #111827; stroke-width: 0.8"/>
      </g>
     </g>
     <g id="text_11">
      <!-- 80 -->
      <g style="fill: #111827" transform="translate(12.051563 123.100781) scale(0.09 -0.09)">
       <defs>
        <path id="SegoeUI-38" d="M 281 1250 
Q 281 1428 337 1608 
Q 394 1788 498 1944 
Q 603 2100 758 2228 
Q 913 2356 1109 2431 
Q 819 2594 647 2848 
Q 475 3103 475 3413 
Q 475 3659 570 3868 
Q 666 4078 834 4231 
Q 1003 4384 1234 4470 
Q 1466 4556 1734 4556 
Q 2006 4556 2237 4468 
Q 2469 4381 2637 4228 
Q 2806 4075 2900 3865 
Q 2994 3656 2994 3413 
Q 2994 3103 2822 2848 
Q 2650 2594 2366 2431 
Q 2559 2356 2712 2228 
Q 2866 2100 2970 1944 
Q 3075 1788 3131 1608 
Q 3188 1428 3188 1250 
Q 3188 956 3081 712 
Q 2975 469 2783 295 
Q 2591 122 2323 25 
Q 2056 -72 1734 -72 
Q 1416 -72 1150 25 
Q 884 122 690 295 
Q 497 469 389 712 
Q 281 956 281 1250 
z
M 838 1294 
Q 838 1084 902 915 
Q 966 747 1083 628 
Q 1200 509 1367 445 
Q 1534 381 1738 381 
Q 1934 381 2100 447 
Q 2266 513 2386 631 
Q 2506 750 2573 919 
Q 2641 1088 2641 1294 
Q 2641 1481 2577 1645 
Q 2513 1809 2394 1934 
Q 2275 2059 2109 2131 
Q 1944 2203 1738 2203 
Q 1544 2203 1380 2136 
Q 1216 2069 1095 1948 
Q 975 1828 906 1661 
Q 838 1494 838 1294 
z
M 997 3372 
Q 997 3213 1055 3077 
Q 1113 2941 1214 2839 
Q 1316 2738 1450 2680 
Q 1584 2622 1738 2622 
Q 1891 2622 2027 2681 
Q 2163 2741 2263 2842 
Q 2363 2944 2422 3080 
Q 2481 3216 2481 3372 
Q 2481 3534 2423 3671 
Q 2366 3809 2266 3909 
Q 2166 4009 2030 4067 
Q 1894 4125 1738 4125 
Q 1572 4125 1436 4065 
Q 1300 4006 1201 3904 
Q 1103 3803 1050 3665 
Q 997 3528 997 3372 
z
" transform="scale(0.015625)"/>
       </defs>
       <use xlink:href="#SegoeUI-38"/>
       <use xlink:href="#SegoeUI-30" transform="translate(53.90625 0)"/>
      </g>
     </g>
    </g>
    <g id="ytick_6">
     <g id="line2d_23">
      <path d="M 28.754688 75.861094 
L 332.355938 75.861094 
" clip-path="url(#p55d3f29f10)" style="fill: none; stroke: #d9dee7; stroke-opacity: 0.55; stroke-width: 0.7; stroke-linecap: square"/>
     </g>
     <g id="line2d_24">
      <g>
       <use xlink:href="#m89562ffc5e" x="28.754688" y="75.861094" style="fill: #111827; stroke: #111827; stroke-width: 0.8"/>
      </g>
     </g>
     <g id="text_12">
      <!-- 100 -->
      <g style="fill: #111827" transform="translate(7.2 79.1925) scale(0.09 -0.09)">
       <use xlink:href="#SegoeUI-31"/>
       <use xlink:href="#SegoeUI-30" transform="translate(53.90625 0)"/>
       <use xlink:href="#SegoeUI-30" transform="translate(107.8125 0)"/>
      </g>
     </g>
    </g>
   </g>
   <g id="line2d_25">
    <path d="M 42.554744 218.053986 
L 46.674164 218.563726 
L 50.793584 221.525753 
L 54.913004 225.494046 
L 59.032424 231.0178 
L 63.151844 229.790296 
L 67.271264 228.72906 
L 71.390684 228.687536 
L 75.510104 230.314358 
L 79.629524 222.21751 
L 83.748944 222.787829 
L 87.868364 219.376735 
L 91.987784 216.07708 
L 96.107204 213.084601 
L 100.226624 214.429123 
L 104.346044 213.904061 
L 108.465463 209.767669 
L 112.584883 209.593519 
L 116.704303 205.356478 
L 120.823723 204.527168 
L 124.943143 199.297909 
L 129.062563 199.993395 
L 133.181983 197.035667 
L 137.301403 197.015673 
L 141.420823 195.363863 
L 145.540243 198.64273 
L 149.659663 201.471793 
L 153.779083 200.635479 
L 157.898503 203.663697 
L 162.017923 210.852444 
L 166.137343 211.16368 
L 170.256763 212.298794 
L 174.376183 216.046601 
L 178.495603 218.763804 
L 182.615022 221.68627 
L 186.734442 224.357669 
L 190.853862 221.074395 
L 194.973282 219.270061 
L 199.092702 219.199182 
L 203.212122 225.396227 
L 207.331542 226.829275 
L 211.450962 231.182053 
L 215.570382 231.933062 
L 219.689802 229.53732 
L 223.809222 227.191506 
L 227.928642 227.926272 
L 232.048062 231.066607 
L 236.167482 230.063263 
L 240.286902 221.667186 
L 244.406322 216.441262 
L 248.525742 214.700369 
L 252.645162 208.995722 
L 256.764581 208.41091 
L 260.884001 209.434904 
L 265.003421 210.962518 
L 269.122841 206.621449 
L 273.242261 205.714478 
L 277.361681 205.382108 
L 281.481101 206.195114 
L 285.600521 210.727501 
L 289.719941 207.35753 
L 293.839361 206.467597 
L 297.958781 202.996848 
L 302.078201 203.810143 
L 306.197621 206.251752 
L 310.317041 212.586042 
L 314.436461 203.571973 
L 318.555881 201.730823 
" clip-path="url(#p55d3f29f10)" style="fill: none; stroke: #0f766e; stroke-width: 1.5; stroke-linecap: square"/>
   </g>
   <g id="text_13">
    <!-- Total Connectedness Index -->
    <g style="fill: #111827" transform="translate(28.754688 69.861094) scale(0.11 -0.11)">
     <defs>
      <path id="SegoeUI-54" d="M 3238 4006 
L 1944 4006 
L 1944 0 
L 1419 0 
L 1419 4006 
L 128 4006 
L 128 4481 
L 3238 4481 
L 3238 4006 
z
" transform="scale(0.015625)"/>
      <path id="SegoeUI-6f" d="M 1856 -75 
Q 1147 -75 723 373 
Q 300 822 300 1563 
Q 300 2369 740 2822 
Q 1181 3275 1931 3275 
Q 2647 3275 3048 2834 
Q 3450 2394 3450 1613 
Q 3450 847 3017 386 
Q 2584 -75 1856 -75 
z
M 1894 2844 
Q 1400 2844 1112 2508 
Q 825 2172 825 1581 
Q 825 1013 1115 684 
Q 1406 356 1894 356 
Q 2391 356 2658 678 
Q 2925 1000 2925 1594 
Q 2925 2194 2658 2519 
Q 2391 2844 1894 2844 
z
" transform="scale(0.015625)"/>
      <path id="SegoeUI-74" d="M 2003 31 
Q 1822 -69 1525 -69 
Q 684 -69 684 869 
L 684 2763 
L 134 2763 
L 134 3200 
L 684 3200 
L 684 3981 
L 1197 4147 
L 1197 3200 
L 2003 3200 
L 2003 2763 
L 1197 2763 
L 1197 959 
Q 1197 638 1306 500 
Q 1416 363 1669 363 
Q 1863 363 2003 469 
L 2003 31 
z
" transform="scale(0.015625)"/>
      <path id="SegoeUI-61" d="M 2809 0 
L 2297 0 
L 2297 500 
L 2284 500 
Q 1950 -75 1300 -75 
Q 822 -75 551 178 
Q 281 431 281 850 
Q 281 1747 1338 1894 
L 2297 2028 
Q 2297 2844 1638 2844 
Q 1059 2844 594 2450 
L 594 2975 
Q 1066 3275 1681 3275 
Q 2809 3275 2809 2081 
L 2809 0 
z
M 2297 1619 
L 1525 1513 
Q 1169 1463 987 1336 
Q 806 1209 806 888 
Q 806 653 973 504 
Q 1141 356 1419 356 
Q 1800 356 2048 623 
Q 2297 891 2297 1300 
L 2297 1619 
z
" transform="scale(0.015625)"/>
      <path id="SegoeUI-6c" d="M 1031 0 
L 519 0 
L 519 4738 
L 1031 4738 
L 1031 0 
z
" transform="scale(0.015625)"/>
      <path id="SegoeUI-20" transform="scale(0.015625)"/>
      <path id="SegoeUI-43" d="M 3638 188 
Q 3141 -75 2400 -75 
Q 1444 -75 869 540 
Q 294 1156 294 2156 
Q 294 3231 941 3893 
Q 1588 4556 2581 4556 
Q 3219 4556 3638 4372 
L 3638 3813 
Q 3156 4081 2575 4081 
Q 1803 4081 1323 3565 
Q 844 3050 844 2188 
Q 844 1369 1292 883 
Q 1741 397 2469 397 
Q 3144 397 3638 697 
L 3638 188 
z
" transform="scale(0.015625)"/>
      <path id="SegoeUI-6e" d="M 3175 0 
L 2663 0 
L 2663 1825 
Q 2663 2844 1919 2844 
Q 1534 2844 1282 2555 
Q 1031 2266 1031 1825 
L 1031 0 
L 519 0 
L 519 3200 
L 1031 3200 
L 1031 2669 
L 1044 2669 
Q 1406 3275 2094 3275 
Q 2619 3275 2897 2936 
Q 3175 2597 3175 1956 
L 3175 0 
z
" transform="scale(0.015625)"/>
      <path id="SegoeUI-65" d="M 3091 1472 
L 831 1472 
Q 844 938 1119 647 
Q 1394 356 1875 356 
Q 2416 356 2869 713 
L 2869 231 
Q 2447 -75 1753 -75 
Q 1075 -75 687 361 
Q 300 797 300 1588 
Q 300 2334 723 2804 
Q 1147 3275 1775 3275 
Q 2403 3275 2747 2869 
Q 3091 2463 3091 1741 
L 3091 1472 
z
M 2566 1906 
Q 2563 2350 2352 2597 
Q 2141 2844 1766 2844 
Q 1403 2844 1150 2584 
Q 897 2325 838 1906 
L 2566 1906 
z
" transform="scale(0.015625)"/>
      <path id="SegoeUI-63" d="M 2700 147 
Q 2331 -75 1825 -75 
Q 1141 -75 720 370 
Q 300 816 300 1525 
Q 300 2316 753 2795 
Q 1206 3275 1963 3275 
Q 2384 3275 2706 3119 
L 2706 2594 
Q 2350 2844 1944 2844 
Q 1453 2844 1139 2492 
Q 825 2141 825 1569 
Q 825 1006 1120 681 
Q 1416 356 1913 356 
Q 2331 356 2700 634 
L 2700 147 
z
" transform="scale(0.015625)"/>
      <path id="SegoeUI-64" d="M 3250 0 
L 2738 0 
L 2738 544 
L 2725 544 
Q 2369 -75 1625 -75 
Q 1022 -75 661 354 
Q 300 784 300 1525 
Q 300 2319 700 2797 
Q 1100 3275 1766 3275 
Q 2425 3275 2725 2756 
L 2738 2756 
L 2738 4738 
L 3250 4738 
L 3250 0 
z
M 2738 1447 
L 2738 1919 
Q 2738 2306 2481 2575 
Q 2225 2844 1831 2844 
Q 1363 2844 1094 2500 
Q 825 2156 825 1550 
Q 825 997 1083 676 
Q 1341 356 1775 356 
Q 2203 356 2470 665 
Q 2738 975 2738 1447 
z
" transform="scale(0.015625)"/>
      <path id="SegoeUI-73" d="M 325 116 
L 325 666 
Q 744 356 1247 356 
Q 1922 356 1922 806 
Q 1922 934 1864 1023 
Q 1806 1113 1707 1181 
Q 1609 1250 1476 1304 
Q 1344 1359 1191 1419 
Q 978 1503 817 1589 
Q 656 1675 548 1783 
Q 441 1891 386 2028 
Q 331 2166 331 2350 
Q 331 2575 434 2748 
Q 538 2922 709 3039 
Q 881 3156 1101 3215 
Q 1322 3275 1556 3275 
Q 1972 3275 2300 3131 
L 2300 2613 
Q 1947 2844 1488 2844 
Q 1344 2844 1228 2811 
Q 1113 2778 1030 2718 
Q 947 2659 901 2576 
Q 856 2494 856 2394 
Q 856 2269 901 2184 
Q 947 2100 1034 2034 
Q 1122 1969 1247 1916 
Q 1372 1863 1531 1800 
Q 1744 1719 1912 1633 
Q 2081 1547 2200 1439 
Q 2319 1331 2383 1190 
Q 2447 1050 2447 856 
Q 2447 619 2342 444 
Q 2238 269 2063 153 
Q 1888 38 1659 -18 
Q 1431 -75 1181 -75 
Q 688 -75 325 116 
z
" transform="scale(0.015625)"/>
      <path id="SegoeUI-49" d="M 1113 0 
L 588 0 
L 588 4481 
L 1113 4481 
L 1113 0 
z
" transform="scale(0.015625)"/>
      <path id="SegoeUI-78" d="M 2856 3200 
L 1781 1581 
L 2838 0 
L 2241 0 
L 1613 1038 
Q 1553 1134 1472 1281 
L 1459 1281 
Q 1444 1253 1313 1038 
L 672 0 
L 81 0 
L 1172 1569 
L 128 3200 
L 725 3200 
L 1344 2106 
Q 1413 1984 1478 1856 
L 1491 1856 
L 2291 3200 
L 2856 3200 
z
" transform="scale(0.015625)"/>
     </defs>
     <use xlink:href="#SegoeUI-54"/>
     <use xlink:href="#SegoeUI-6f" transform="translate(42.142578 0)"/>
     <use xlink:href="#SegoeUI-74" transform="translate(100.736328 0)"/>
     <use xlink:href="#SegoeUI-61" transform="translate(134.623047 0)"/>
     <use xlink:href="#SegoeUI-6c" transform="translate(185.501953 0)"/>
     <use xlink:href="#SegoeUI-20" transform="translate(209.720703 0)"/>
     <use xlink:href="#SegoeUI-43" transform="translate(237.113281 0)"/>
     <use xlink:href="#SegoeUI-6f" transform="translate(299.027344 0)"/>
     <use xlink:href="#SegoeUI-6e" transform="translate(357.621094 0)"/>
     <use xlink:href="#SegoeUI-6e" transform="translate(414.212891 0)"/>
     <use xlink:href="#SegoeUI-65" transform="translate(470.804688 0)"/>
     <use xlink:href="#SegoeUI-63" transform="translate(523.099609 0)"/>
     <use xlink:href="#SegoeUI-74" transform="translate(569.291016 0)"/>
     <use xlink:href="#SegoeUI-65" transform="translate(602.427734 0)"/>
     <use xlink:href="#SegoeUI-64" transform="translate(654.722656 0)"/>
     <use xlink:href="#SegoeUI-6e" transform="translate(713.609375 0)"/>
     <use xlink:href="#SegoeUI-65" transform="translate(770.201172 0)"/>
     <use xlink:href="#SegoeUI-73" transform="translate(822.496094 0)"/>
     <use xlink:href="#SegoeUI-73" transform="translate(864.927734 0)"/>
     <use xlink:href="#SegoeUI-20" transform="translate(907.359375 0)"/>
     <use xlink:href="#SegoeUI-49" transform="translate(934.751953 0)"/>
     <use xlink:href="#SegoeUI-6e" transform="translate(961.363281 0)"/>
     <use xlink:href="#SegoeUI-64" transform="translate(1017.955078 0)"/>
     <use xlink:href="#SegoeUI-65" transform="translate(1076.841797 0)"/>
     <use xlink:href="#SegoeUI-78" transform="translate(1129.136719 0)"/>
    </g>
   </g>
  </g>
  <g id="axes_2">
   <g id="patch_3">
    <path d="M 360.832188 295.4025 
L 664.433438 295.4025 
L 664.433438 75.861094 
L 360.832188 75.861094 
z
" style="fill: #fafaf7"/>
   </g>
   <g id="patch_4">
    <path d="M 374.632244 295.4025 
L 410.410169 295.4025 
L 410.410169 78.385691 
L 374.632244 78.385691 
z
" clip-path="url(#p9dba0db7b4)" style="fill: #f7931a"/>
   </g>
   <g id="patch_5">
    <path d="M 476.854887 295.4025 
L 512.632813 295.4025 
L 512.632813 80.922964 
L 476.854887 80.922964 
z
" clip-path="url(#p9dba0db7b4)" style="fill: #f7931a"/>
   </g>
   <g id="patch_6">
    <path d="M 579.077531 295.4025 
L 614.855456 295.4025 
L 614.855456 84.580465 
L 579.077531 84.580465 
z
" clip-path="url(#p9dba0db7b4)" style="fill: #f7931a"/>
   </g>
   <g id="patch_7">
    <path d="M 410.410169 295.4025 
L 446.188094 295.4025 
L 446.188094 196.546291 
L 410.410169 196.546291 
z
" clip-path="url(#p9dba0db7b4)" style="fill: #2563eb"/>
   </g>
   <g id="patch_8">
    <path d="M 512.632813 295.4025 
L 548.410738 295.4025 
L 548.410738 222.723637 
L 512.632813 222.723637 
z
" clip-path="url(#p9dba0db7b4)" style="fill: #2563eb"/>
   </g>
   <g id="patch_9">
    <path d="M 614.855456 295.4025 
L 650.633381 295.4025 
L 650.633381 237.923725 
L 614.855456 237.923725 
z
" clip-path="url(#p9dba0db7b4)" style="fill: #2563eb"/>
   </g>
   <g id="matplotlib.axis_3">
    <g id="xtick_7">
     <g id="line2d_26">
      <path d="M 410.410169 295.4025 
L 410.410169 75.861094 
" clip-path="url(#p9dba0db7b4)" style="fill: none; stroke: #d9dee7; stroke-opacity: 0.55; stroke-width: 0.7; stroke-linecap: square"/>
     </g>
     <g id="line2d_27">
      <g>
       <use xlink:href="#m5919d2f3ae" x="410.410169" y="295.4025" style="fill: #111827; stroke: #111827; stroke-width: 0.8"/>
      </g>
     </g>
     <g id="text_14">
      <!-- 90d -->
      <g style="fill: #111827" transform="translate(402.908529 309.065313) scale(0.09 -0.09)">
       <defs>
        <path id="SegoeUI-39" d="M 3138 2509 
Q 3138 1894 3016 1414 
Q 2894 934 2659 601 
Q 2425 269 2087 95 
Q 1750 -78 1319 -78 
Q 875 -78 538 78 
L 538 569 
Q 909 359 1331 359 
Q 1634 359 1873 484 
Q 2113 609 2278 848 
Q 2444 1088 2531 1438 
Q 2619 1788 2619 2241 
L 2606 2241 
Q 2319 1663 1606 1663 
Q 1319 1663 1078 1764 
Q 838 1866 663 2052 
Q 488 2238 391 2494 
Q 294 2750 294 3059 
Q 294 3391 401 3666 
Q 509 3941 701 4139 
Q 894 4338 1158 4447 
Q 1422 4556 1734 4556 
Q 2072 4556 2333 4420 
Q 2594 4284 2772 4023 
Q 2950 3763 3044 3381 
Q 3138 3000 3138 2509 
z
M 2584 2969 
Q 2584 3228 2517 3440 
Q 2450 3653 2331 3804 
Q 2213 3956 2048 4039 
Q 1884 4122 1691 4122 
Q 1506 4122 1347 4048 
Q 1188 3975 1070 3842 
Q 953 3709 886 3526 
Q 819 3344 819 3128 
Q 819 2891 883 2703 
Q 947 2516 1065 2386 
Q 1184 2256 1351 2187 
Q 1519 2119 1722 2119 
Q 1900 2119 2058 2186 
Q 2216 2253 2333 2367 
Q 2450 2481 2517 2636 
Q 2584 2791 2584 2969 
z
" transform="scale(0.015625)"/>
       </defs>
       <use xlink:href="#SegoeUI-39"/>
       <use xlink:href="#SegoeUI-30" transform="translate(53.90625 0)"/>
       <use xlink:href="#SegoeUI-64" transform="translate(107.8125 0)"/>
      </g>
     </g>
    </g>
    <g id="xtick_8">
     <g id="line2d_28">
      <path d="M 512.632813 295.4025 
L 512.632813 75.861094 
" clip-path="url(#p9dba0db7b4)" style="fill: none; stroke: #d9dee7; stroke-opacity: 0.55; stroke-width: 0.7; stroke-linecap: square"/>
     </g>
     <g id="line2d_29">
      <g>
       <use xlink:href="#m5919d2f3ae" x="512.632813" y="295.4025" style="fill: #111827; stroke: #111827; stroke-width: 0.8"/>
      </g>
     </g>
     <g id="text_15">
      <!-- 180d -->
      <g style="fill: #111827" transform="translate(502.705391 309.065313) scale(0.09 -0.09)">
       <use xlink:href="#SegoeUI-31"/>
       <use xlink:href="#SegoeUI-38" transform="translate(53.90625 0)"/>
       <use xlink:href="#SegoeUI-30" transform="translate(107.8125 0)"/>
       <use xlink:href="#SegoeUI-64" transform="translate(161.71875 0)"/>
      </g>
     </g>
    </g>
    <g id="xtick_9">
     <g id="line2d_30">
      <path d="M 614.855456 295.4025 
L 614.855456 75.861094 
" clip-path="url(#p9dba0db7b4)" style="fill: none; stroke: #d9dee7; stroke-opacity: 0.55; stroke-width: 0.7; stroke-linecap: square"/>
     </g>
     <g id="line2d_31">
      <g>
       <use xlink:href="#m5919d2f3ae" x="614.855456" y="295.4025" style="fill: #111827; stroke: #111827; stroke-width: 0.8"/>
      </g>
     </g>
     <g id="text_16">
      <!-- 365d -->
      <g style="fill: #111827" transform="translate(604.928034 309.065313) scale(0.09 -0.09)">
       <use xlink:href="#SegoeUI-33"/>
       <use xlink:href="#SegoeUI-36" transform="translate(53.90625 0)"/>
       <use xlink:href="#SegoeUI-35" transform="translate(107.8125 0)"/>
       <use xlink:href="#SegoeUI-64" transform="translate(161.71875 0)"/>
      </g>
     </g>
    </g>
   </g>
   <g id="matplotlib.axis_4">
    <g id="ytick_7">
     <g id="line2d_32">
      <path d="M 360.832188 295.4025 
L 664.433438 295.4025 
" clip-path="url(#p9dba0db7b4)" style="fill: none; stroke: #d9dee7; stroke-opacity: 0.55; stroke-width: 0.7; stroke-linecap: square"/>
     </g>
     <g id="line2d_33">
      <g>
       <use xlink:href="#m89562ffc5e" x="360.832188" y="295.4025" style="fill: #111827; stroke: #111827; stroke-width: 0.8"/>
      </g>
     </g>
     <g id="text_17">
      <!-- 0.0 -->
      <g style="fill: #111827" transform="translate(342.177188 298.733906) scale(0.09 -0.09)">
       <defs>
        <path id="SegoeUI-2e" d="M 697 -69 
Q 553 -69 451 34 
Q 350 138 350 281 
Q 350 425 451 529 
Q 553 634 697 634 
Q 844 634 947 529 
Q 1050 425 1050 281 
Q 1050 138 947 34 
Q 844 -69 697 -69 
z
" transform="scale(0.015625)"/>
       </defs>
       <use xlink:href="#SegoeUI-30"/>
       <use xlink:href="#SegoeUI-2e" transform="translate(53.90625 0)"/>
       <use xlink:href="#SegoeUI-30" transform="translate(75.585938 0)"/>
      </g>
     </g>
    </g>
    <g id="ytick_8">
     <g id="line2d_34">
      <path d="M 360.832188 251.494219 
L 664.433438 251.494219 
" clip-path="url(#p9dba0db7b4)" style="fill: none; stroke: #d9dee7; stroke-opacity: 0.55; stroke-width: 0.7; stroke-linecap: square"/>
     </g>
     <g id="line2d_35">
      <g>
       <use xlink:href="#m89562ffc5e" x="360.832188" y="251.494219" style="fill: #111827; stroke: #111827; stroke-width: 0.8"/>
      </g>
     </g>
     <g id="text_18">
      <!-- 0.2 -->
      <g style="fill: #111827" transform="translate(342.177188 254.825625) scale(0.09 -0.09)">
       <use xlink:href="#SegoeUI-30"/>
       <use xlink:href="#SegoeUI-2e" transform="translate(53.90625 0)"/>
       <use xlink:href="#SegoeUI-32" transform="translate(75.585938 0)"/>
      </g>
     </g>
    </g>
    <g id="ytick_9">
     <g id="line2d_36">
      <path d="M 360.832188 207.585937 
L 664.433438 207.585937 
" clip-path="url(#p9dba0db7b4)" style="fill: none; stroke: #d9dee7; stroke-opacity: 0.55; stroke-width: 0.7; stroke-linecap: square"/>
     </g>
     <g id="line2d_37">
      <g>
       <use xlink:href="#m89562ffc5e" x="360.832188" y="207.585937" style="fill: #111827; stroke: #111827; stroke-width: 0.8"/>
      </g>
     </g>
     <g id="text_19">
      <!-- 0.4 -->
      <g style="fill: #111827" transform="translate(342.177188 210.917344) scale(0.09 -0.09)">
       <use xlink:href="#SegoeUI-30"/>
       <use xlink:href="#SegoeUI-2e" transform="translate(53.90625 0)"/>
       <use xlink:href="#SegoeUI-34" transform="translate(75.585938 0)"/>
      </g>
     </g>
    </g>
    <g id="ytick_10">
     <g id="line2d_38">
      <path d="M 360.832188 163.677656 
L 664.433438 163.677656 
" clip-path="url(#p9dba0db7b4)" style="fill: none; stroke: #d9dee7; stroke-opacity: 0.55; stroke-width: 0.7; stroke-linecap: square"/>
     </g>
     <g id="line2d_39">
      <g>
       <use xlink:href="#m89562ffc5e" x="360.832188" y="163.677656" style="fill: #111827; stroke: #111827; stroke-width: 0.8"/>
      </g>
     </g>
     <g id="text_20">
      <!-- 0.6 -->
      <g style="fill: #111827" transform="translate(342.177188 167.009062) scale(0.09 -0.09)">
       <use xlink:href="#SegoeUI-30"/>
       <use xlink:href="#SegoeUI-2e" transform="translate(53.90625 0)"/>
       <use xlink:href="#SegoeUI-36" transform="translate(75.585938 0)"/>
      </g>
     </g>
    </g>
    <g id="ytick_11">
     <g id="line2d_40">
      <path d="M 360.832188 119.769375 
L 664.433438 119.769375 
" clip-path="url(#p9dba0db7b4)" style="fill: none; stroke: #d9dee7; stroke-opacity: 0.55; stroke-width: 0.7; stroke-linecap: square"/>
     </g>
     <g id="line2d_41">
      <g>
       <use xlink:href="#m89562ffc5e" x="360.832188" y="119.769375" style="fill: #111827; stroke: #111827; stroke-width: 0.8"/>
      </g>
     </g>
     <g id="text_21">
      <!-- 0.8 -->
      <g style="fill: #111827" transform="translate(342.177188 123.100781) scale(0.09 -0.09)">
       <use xlink:href="#SegoeUI-30"/>
       <use xlink:href="#SegoeUI-2e" transform="translate(53.90625 0)"/>
       <use xlink:href="#SegoeUI-38" transform="translate(75.585938 0)"/>
      </g>
     </g>
    </g>
    <g id="ytick_12">
     <g id="line2d_42">
      <path d="M 360.832188 75.861094 
L 664.433438 75.861094 
" clip-path="url(#p9dba0db7b4)" style="fill: none; stroke: #d9dee7; stroke-opacity: 0.55; stroke-width: 0.7; stroke-linecap: square"/>
     </g>
     <g id="line2d_43">
      <g>
       <use xlink:href="#m89562ffc5e" x="360.832188" y="75.861094" style="fill: #111827; stroke: #111827; stroke-width: 0.8"/>
      </g>
     </g>
     <g id="text_22">
      <!-- 1.0 -->
      <g style="fill: #111827" transform="translate(342.177188 79.1925) scale(0.09 -0.09)">
       <use xlink:href="#SegoeUI-31"/>
       <use xlink:href="#SegoeUI-2e" transform="translate(53.90625 0)"/>
       <use xlink:href="#SegoeUI-30" transform="translate(75.585938 0)"/>
      </g>
     </g>
    </g>
   </g>
   <g id="text_23">
    <!-- Model R² by Window -->
    <g style="fill: #111827" transform="translate(360.832188 69.861094) scale(0.11 -0.11)">
     <defs>
      <path id="SegoeUI-4d" d="M 5156 0 
L 4634 0 
L 4634 3006 
Q 4634 3363 4678 3878 
L 4666 3878 
Q 4591 3575 4531 3444 
L 3000 0 
L 2744 0 
L 1216 3419 
Q 1150 3569 1081 3878 
L 1069 3878 
Q 1094 3609 1094 3000 
L 1094 0 
L 588 0 
L 588 4481 
L 1281 4481 
L 2656 1356 
Q 2816 997 2863 819 
L 2881 819 
Q 3016 1188 3097 1369 
L 4500 4481 
L 5156 4481 
L 5156 0 
z
" transform="scale(0.015625)"/>
      <path id="SegoeUI-52" d="M 3800 0 
L 3175 0 
L 2425 1256 
Q 2322 1431 2225 1554 
Q 2128 1678 2026 1756 
Q 1925 1834 1808 1870 
Q 1691 1906 1544 1906 
L 1113 1906 
L 1113 0 
L 588 0 
L 588 4481 
L 1925 4481 
Q 2219 4481 2467 4407 
Q 2716 4334 2898 4184 
Q 3081 4034 3184 3811 
Q 3288 3588 3288 3288 
Q 3288 3053 3217 2858 
Q 3147 2663 3017 2509 
Q 2888 2356 2705 2248 
Q 2522 2141 2294 2081 
L 2294 2069 
Q 2406 2019 2489 1955 
Q 2572 1891 2647 1803 
Q 2722 1716 2795 1605 
Q 2869 1494 2959 1347 
L 3800 0 
z
M 1113 4006 
L 1113 2381 
L 1825 2381 
Q 2022 2381 2189 2440 
Q 2356 2500 2478 2611 
Q 2600 2722 2669 2883 
Q 2738 3044 2738 3244 
Q 2738 3603 2505 3804 
Q 2272 4006 1831 4006 
L 1113 4006 
z
" transform="scale(0.015625)"/>
      <path id="SegoeUI-b2" d="M 2056 2785 
L 325 2785 
L 325 3041 
Q 325 3232 417 3383 
Q 509 3535 648 3666 
Q 788 3798 950 3915 
Q 1113 4032 1252 4157 
Q 1391 4282 1483 4422 
Q 1575 4563 1575 4738 
Q 1575 4919 1458 5019 
Q 1341 5119 1144 5119 
Q 772 5119 469 4801 
L 469 5266 
Q 728 5504 1203 5504 
Q 1378 5504 1525 5451 
Q 1672 5398 1778 5299 
Q 1884 5201 1943 5063 
Q 2003 4926 2003 4754 
Q 2003 4523 1914 4343 
Q 1825 4163 1690 4019 
Q 1556 3876 1400 3763 
Q 1244 3651 1109 3555 
Q 975 3460 886 3374 
Q 797 3288 797 3201 
L 797 3166 
L 2056 3166 
L 2056 2785 
z
" transform="scale(0.015625)"/>
      <path id="SegoeUI-62" d="M 1044 463 
L 1031 463 
L 1031 0 
L 519 0 
L 519 4738 
L 1031 4738 
L 1031 2638 
L 1044 2638 
Q 1422 3275 2150 3275 
Q 2766 3275 3114 2845 
Q 3463 2416 3463 1694 
Q 3463 891 3072 408 
Q 2681 -75 2003 -75 
Q 1369 -75 1044 463 
z
M 1031 1753 
L 1031 1306 
Q 1031 909 1289 632 
Q 1547 356 1944 356 
Q 2409 356 2673 712 
Q 2938 1069 2938 1703 
Q 2938 2238 2691 2541 
Q 2444 2844 2022 2844 
Q 1575 2844 1303 2533 
Q 1031 2222 1031 1753 
z
" transform="scale(0.015625)"/>
      <path id="SegoeUI-79" d="M 3066 3200 
L 1594 -513 
Q 1200 -1506 488 -1506 
Q 288 -1506 153 -1466 
L 153 -1006 
Q 319 -1063 456 -1063 
Q 844 -1063 1038 -600 
L 1294 6 
L 44 3200 
L 613 3200 
L 1478 738 
Q 1494 691 1544 494 
L 1563 494 
Q 1578 569 1625 731 
L 2534 3200 
L 3066 3200 
z
" transform="scale(0.015625)"/>
      <path id="SegoeUI-57" d="M 5900 4481 
L 4634 0 
L 4019 0 
L 3097 3275 
Q 3038 3484 3025 3731 
L 3013 3731 
Q 2994 3500 2931 3281 
L 2003 0 
L 1394 0 
L 81 4481 
L 659 4481 
L 1613 1044 
Q 1672 828 1688 594 
L 1703 594 
Q 1719 759 1800 1044 
L 2791 4481 
L 3294 4481 
L 4244 1019 
Q 4294 841 4319 600 
L 4331 600 
Q 4344 763 4416 1031 
L 5331 4481 
L 5900 4481 
z
" transform="scale(0.015625)"/>
      <path id="SegoeUI-69" d="M 781 4013 
Q 644 4013 547 4106 
Q 450 4200 450 4344 
Q 450 4488 547 4583 
Q 644 4678 781 4678 
Q 922 4678 1020 4583 
Q 1119 4488 1119 4344 
Q 1119 4206 1020 4109 
Q 922 4013 781 4013 
z
M 1031 0 
L 519 0 
L 519 3200 
L 1031 3200 
L 1031 0 
z
" transform="scale(0.015625)"/>
      <path id="SegoeUI-77" d="M 4550 3200 
L 3591 0 
L 3059 0 
L 2400 2291 
Q 2363 2422 2350 2588 
L 2338 2588 
Q 2328 2475 2272 2297 
L 1556 0 
L 1044 0 
L 75 3200 
L 613 3200 
L 1275 794 
Q 1306 684 1319 506 
L 1344 506 
Q 1353 644 1400 800 
L 2138 3200 
L 2606 3200 
L 3269 788 
Q 3300 672 3316 500 
L 3341 500 
Q 3347 622 3394 788 
L 4044 3200 
L 4550 3200 
z
" transform="scale(0.015625)"/>
     </defs>
     <use xlink:href="#SegoeUI-4d"/>
     <use xlink:href="#SegoeUI-6f" transform="translate(89.794922 0)"/>
     <use xlink:href="#SegoeUI-64" transform="translate(148.388672 0)"/>
     <use xlink:href="#SegoeUI-65" transform="translate(207.275391 0)"/>
     <use xlink:href="#SegoeUI-6c" transform="translate(259.570312 0)"/>
     <use xlink:href="#SegoeUI-20" transform="translate(283.789062 0)"/>
     <use xlink:href="#SegoeUI-52" transform="translate(311.181641 0)"/>
     <use xlink:href="#SegoeUI-b2" transform="translate(370.996094 0)"/>
     <use xlink:href="#SegoeUI-20" transform="translate(407.617188 0)"/>
     <use xlink:href="#SegoeUI-62" transform="translate(435.009766 0)"/>
     <use xlink:href="#SegoeUI-79" transform="translate(493.798828 0)"/>
     <use xlink:href="#SegoeUI-20" transform="translate(542.1875 0)"/>
     <use xlink:href="#SegoeUI-57" transform="translate(569.580078 0)"/>
     <use xlink:href="#SegoeUI-69" transform="translate(662.988281 0)"/>
     <use xlink:href="#SegoeUI-6e" transform="translate(687.207031 0)"/>
     <use xlink:href="#SegoeUI-64" transform="translate(743.798828 0)"/>
     <use xlink:href="#SegoeUI-6f" transform="translate(802.685547 0)"/>
     <use xlink:href="#SegoeUI-77" transform="translate(861.279297 0)"/>
    </g>
   </g>
   <g id="legend_1">
    <g id="patch_10">
     <path d="M 425.884766 343.096523 
L 443.884766 343.096523 
L 443.884766 336.796523 
L 425.884766 336.796523 
z
" style="fill: #f7931a"/>
    </g>
    <g id="text_24">
     <!-- With MVRV -->
     <g style="fill: #111827" transform="translate(451.084766 343.096523) scale(0.09 -0.09)">
      <defs>
       <path id="SegoeUI-68" d="M 3175 0 
L 2663 0 
L 2663 1844 
Q 2663 2844 1919 2844 
Q 1544 2844 1287 2555 
Q 1031 2266 1031 1813 
L 1031 0 
L 519 0 
L 519 4738 
L 1031 4738 
L 1031 2669 
L 1044 2669 
Q 1413 3275 2094 3275 
Q 3175 3275 3175 1972 
L 3175 0 
z
" transform="scale(0.015625)"/>
       <path id="SegoeUI-56" d="M 3919 4481 
L 2259 0 
L 1681 0 
L 56 4481 
L 641 4481 
L 1881 928 
Q 1941 756 1972 531 
L 1984 531 
Q 2009 719 2088 934 
L 3353 4481 
L 3919 4481 
z
" transform="scale(0.015625)"/>
      </defs>
      <use xlink:href="#SegoeUI-57"/>
      <use xlink:href="#SegoeUI-69" transform="translate(93.408203 0)"/>
      <use xlink:href="#SegoeUI-74" transform="translate(117.626953 0)"/>
      <use xlink:href="#SegoeUI-68" transform="translate(151.513672 0)"/>
      <use xlink:href="#SegoeUI-20" transform="translate(208.105469 0)"/>
      <use xlink:href="#SegoeUI-4d" transform="translate(235.498047 0)"/>
      <use xlink:href="#SegoeUI-56" transform="translate(325.292969 0)"/>
      <use xlink:href="#SegoeUI-52" transform="translate(387.402344 0)"/>
      <use xlink:href="#SegoeUI-56" transform="translate(447.216797 0)"/>
     </g>
    </g>
    <g id="patch_11">
     <path d="M 514.924297 343.096523 
L 532.924297 343.096523 
L 532.924297 336.796523 
L 514.924297 336.796523 
z
" style="fill: #2563eb"/>
    </g>
    <g id="text_25">
     <!-- Without MVRV -->
     <g style="fill: #111827" transform="translate(540.124297 343.096523) scale(0.09 -0.09)">
      <defs>
       <path id="SegoeUI-75" d="M 3106 0 
L 2594 0 
L 2594 506 
L 2581 506 
Q 2263 -75 1594 -75 
Q 450 -75 450 1288 
L 450 3200 
L 959 3200 
L 959 1369 
Q 959 356 1734 356 
Q 2109 356 2351 632 
Q 2594 909 2594 1356 
L 2594 3200 
L 3106 3200 
L 3106 0 
z
" transform="scale(0.015625)"/>
      </defs>
      <use xlink:href="#SegoeUI-57"/>
      <use xlink:href="#SegoeUI-69" transform="translate(93.408203 0)"/>
      <use xlink:href="#SegoeUI-74" transform="translate(117.626953 0)"/>
      <use xlink:href="#SegoeUI-68" transform="translate(151.513672 0)"/>
      <use xlink:href="#SegoeUI-6f" transform="translate(208.105469 0)"/>
      <use xlink:href="#SegoeUI-75" transform="translate(266.699219 0)"/>
      <use xlink:href="#SegoeUI-74" transform="translate(323.291016 0)"/>
      <use xlink:href="#SegoeUI-20" transform="translate(357.177734 0)"/>
      <use xlink:href="#SegoeUI-4d" transform="translate(384.570312 0)"/>
      <use xlink:href="#SegoeUI-56" transform="translate(474.365234 0)"/>
      <use xlink:href="#SegoeUI-52" transform="translate(536.474609 0)"/>
      <use xlink:href="#SegoeUI-56" transform="translate(596.289062 0)"/>
     </g>
    </g>
   </g>
  </g>
  <g id="text_26">
   <!-- Connectedness and Robustness -->
   <g style="fill: #111827" transform="translate(233.047031 17.564375) scale(0.14 -0.14)">
    <defs>
     <path id="SegoeUI-Bold-43" d="M 3725 159 
Q 3234 -78 2444 -78 
Q 1413 -78 822 528 
Q 231 1134 231 2144 
Q 231 3219 895 3887 
Q 1559 4556 2619 4556 
Q 3275 4556 3725 4391 
L 3725 3419 
Q 3275 3688 2700 3688 
Q 2069 3688 1681 3291 
Q 1294 2894 1294 2216 
Q 1294 1566 1659 1180 
Q 2025 794 2644 794 
Q 3234 794 3725 1081 
L 3725 159 
z
" transform="scale(0.015625)"/>
     <path id="SegoeUI-Bold-6f" d="M 1941 -78 
Q 1141 -78 683 370 
Q 225 819 225 1588 
Q 225 2381 700 2829 
Q 1175 3278 1984 3278 
Q 2781 3278 3234 2829 
Q 3688 2381 3688 1644 
Q 3688 847 3220 384 
Q 2753 -78 1941 -78 
z
M 1966 2522 
Q 1616 2522 1422 2281 
Q 1228 2041 1228 1600 
Q 1228 678 1972 678 
Q 2681 678 2681 1625 
Q 2681 2522 1966 2522 
z
" transform="scale(0.015625)"/>
     <path id="SegoeUI-Bold-6e" d="M 3506 0 
L 2522 0 
L 2522 1778 
Q 2522 2522 1991 2522 
Q 1734 2522 1568 2325 
Q 1403 2128 1403 1825 
L 1403 0 
L 416 0 
L 416 3200 
L 1403 3200 
L 1403 2694 
L 1416 2694 
Q 1769 3278 2444 3278 
Q 3506 3278 3506 1959 
L 3506 0 
z
" transform="scale(0.015625)"/>
     <path id="SegoeUI-Bold-65" d="M 3291 1319 
L 1203 1319 
Q 1253 622 2081 622 
Q 2609 622 3009 872 
L 3009 159 
Q 2566 -78 1856 -78 
Q 1081 -78 653 351 
Q 225 781 225 1550 
Q 225 2347 687 2812 
Q 1150 3278 1825 3278 
Q 2525 3278 2908 2862 
Q 3291 2447 3291 1734 
L 3291 1319 
z
M 2375 1925 
Q 2375 2613 1819 2613 
Q 1581 2613 1407 2416 
Q 1234 2219 1197 1925 
L 2375 1925 
z
" transform="scale(0.015625)"/>
     <path id="SegoeUI-Bold-63" d="M 2841 116 
Q 2506 -78 1875 -78 
Q 1138 -78 681 369 
Q 225 816 225 1522 
Q 225 2338 714 2808 
Q 1203 3278 2022 3278 
Q 2588 3278 2841 3128 
L 2841 2291 
Q 2531 2522 2150 2522 
Q 1725 2522 1476 2273 
Q 1228 2025 1228 1588 
Q 1228 1163 1465 920 
Q 1703 678 2119 678 
Q 2488 678 2841 909 
L 2841 116 
z
" transform="scale(0.015625)"/>
     <path id="SegoeUI-Bold-74" d="M 2350 38 
Q 2131 -78 1691 -78 
Q 647 -78 647 1006 
L 647 2472 
L 128 2472 
L 128 3200 
L 647 3200 
L 647 3891 
L 1631 4172 
L 1631 3200 
L 2350 3200 
L 2350 2472 
L 1631 2472 
L 1631 1178 
Q 1631 678 2028 678 
Q 2184 678 2350 769 
L 2350 38 
z
" transform="scale(0.015625)"/>
     <path id="SegoeUI-Bold-64" d="M 3547 0 
L 2559 0 
L 2559 441 
L 2547 441 
Q 2209 -78 1556 -78 
Q 956 -78 590 345 
Q 225 769 225 1528 
Q 225 2322 628 2800 
Q 1031 3278 1684 3278 
Q 2303 3278 2547 2834 
L 2559 2834 
L 2559 4738 
L 3547 4738 
L 3547 0 
z
M 2578 1556 
L 2578 1797 
Q 2578 2109 2397 2315 
Q 2216 2522 1925 2522 
Q 1597 2522 1412 2264 
Q 1228 2006 1228 1556 
Q 1228 1134 1406 906 
Q 1584 678 1900 678 
Q 2200 678 2389 918 
Q 2578 1159 2578 1556 
z
" transform="scale(0.015625)"/>
     <path id="SegoeUI-Bold-73" d="M 206 84 
L 206 884 
Q 450 738 692 666 
Q 934 594 1150 594 
Q 1413 594 1564 666 
Q 1716 738 1716 884 
Q 1716 978 1647 1040 
Q 1578 1103 1470 1150 
Q 1363 1197 1234 1234 
Q 1106 1272 988 1319 
Q 797 1391 651 1473 
Q 506 1556 407 1665 
Q 309 1775 257 1919 
Q 206 2063 206 2259 
Q 206 2528 323 2722 
Q 441 2916 636 3039 
Q 831 3163 1082 3220 
Q 1334 3278 1606 3278 
Q 1819 3278 2037 3245 
Q 2256 3213 2469 3150 
L 2469 2388 
Q 2281 2497 2067 2551 
Q 1853 2606 1647 2606 
Q 1550 2606 1464 2589 
Q 1378 2572 1312 2539 
Q 1247 2506 1209 2454 
Q 1172 2403 1172 2338 
Q 1172 2250 1228 2187 
Q 1284 2125 1375 2079 
Q 1466 2034 1577 1998 
Q 1688 1963 1797 1925 
Q 1994 1856 2153 1775 
Q 2313 1694 2427 1584 
Q 2541 1475 2602 1328 
Q 2663 1181 2663 978 
Q 2663 694 2539 492 
Q 2416 291 2211 164 
Q 2006 38 1739 -20 
Q 1472 -78 1184 -78 
Q 656 -78 206 84 
z
" transform="scale(0.015625)"/>
     <path id="SegoeUI-Bold-20" transform="scale(0.015625)"/>
     <path id="SegoeUI-Bold-61" d="M 3078 0 
L 2144 0 
L 2144 459 
L 2131 459 
Q 1809 -78 1178 -78 
Q 713 -78 445 186 
Q 178 450 178 891 
Q 178 1822 1281 1966 
L 2150 2081 
Q 2150 2606 1581 2606 
Q 1009 2606 494 2266 
L 494 3009 
Q 700 3116 1058 3197 
Q 1416 3278 1709 3278 
Q 3078 3278 3078 1913 
L 3078 0 
z
M 2150 1300 
L 2150 1516 
L 1569 1441 
Q 1088 1378 1088 1006 
Q 1088 838 1205 730 
Q 1322 622 1522 622 
Q 1800 622 1975 814 
Q 2150 1006 2150 1300 
z
" transform="scale(0.015625)"/>
     <path id="SegoeUI-Bold-52" d="M 4272 0 
L 3113 0 
L 2416 1153 
Q 2338 1284 2266 1387 
Q 2194 1491 2120 1564 
Q 2047 1638 1967 1677 
Q 1888 1716 1794 1716 
L 1522 1716 
L 1522 0 
L 513 0 
L 513 4481 
L 2113 4481 
Q 3744 4481 3744 3263 
Q 3744 3028 3672 2829 
Q 3600 2631 3469 2472 
Q 3338 2313 3152 2197 
Q 2966 2081 2738 2016 
L 2738 2003 
Q 2838 1972 2931 1901 
Q 3025 1831 3112 1737 
Q 3200 1644 3279 1536 
Q 3359 1428 3425 1325 
L 4272 0 
z
M 1522 3725 
L 1522 2478 
L 1959 2478 
Q 2284 2478 2481 2666 
Q 2681 2856 2681 3138 
Q 2681 3725 1978 3725 
L 1522 3725 
z
" transform="scale(0.015625)"/>
     <path id="SegoeUI-Bold-62" d="M 1416 372 
L 1403 372 
L 1403 0 
L 416 0 
L 416 4738 
L 1403 4738 
L 1403 2719 
L 1416 2719 
Q 1781 3278 2456 3278 
Q 3075 3278 3409 2853 
Q 3744 2428 3744 1691 
Q 3744 891 3353 406 
Q 2963 -78 2309 -78 
Q 1719 -78 1416 372 
z
M 1388 1722 
L 1388 1394 
Q 1388 1084 1566 881 
Q 1744 678 2022 678 
Q 2359 678 2545 939 
Q 2731 1200 2731 1678 
Q 2731 2075 2561 2298 
Q 2391 2522 2075 2522 
Q 1778 2522 1583 2300 
Q 1388 2078 1388 1722 
z
" transform="scale(0.015625)"/>
     <path id="SegoeUI-Bold-75" d="M 3456 0 
L 2472 0 
L 2472 488 
L 2456 488 
Q 2091 -78 1478 -78 
Q 366 -78 366 1269 
L 366 3200 
L 1350 3200 
L 1350 1356 
Q 1350 678 1888 678 
Q 2153 678 2312 864 
Q 2472 1050 2472 1369 
L 2472 3200 
L 3456 3200 
L 3456 0 
z
" transform="scale(0.015625)"/>
    </defs>
    <use xlink:href="#SegoeUI-Bold-43"/>
    <use xlink:href="#SegoeUI-Bold-6f" transform="translate(62.402344 0)"/>
    <use xlink:href="#SegoeUI-Bold-6e" transform="translate(123.535156 0)"/>
    <use xlink:href="#SegoeUI-Bold-6e" transform="translate(184.033203 0)"/>
    <use xlink:href="#SegoeUI-Bold-65" transform="translate(244.53125 0)"/>
    <use xlink:href="#SegoeUI-Bold-63" transform="translate(298.632812 0)"/>
    <use xlink:href="#SegoeUI-Bold-74" transform="translate(346.630859 0)"/>
    <use xlink:href="#SegoeUI-Bold-65" transform="translate(385.171875 0)"/>
    <use xlink:href="#SegoeUI-Bold-64" transform="translate(439.273438 0)"/>
    <use xlink:href="#SegoeUI-Bold-6e" transform="translate(501.1875 0)"/>
    <use xlink:href="#SegoeUI-Bold-65" transform="translate(561.685547 0)"/>
    <use xlink:href="#SegoeUI-Bold-73" transform="translate(615.787109 0)"/>
    <use xlink:href="#SegoeUI-Bold-73" transform="translate(659.78125 0)"/>
    <use xlink:href="#SegoeUI-Bold-20" transform="translate(703.775391 0)"/>
    <use xlink:href="#SegoeUI-Bold-61" transform="translate(731.363281 0)"/>
    <use xlink:href="#SegoeUI-Bold-6e" transform="translate(785.171875 0)"/>
    <use xlink:href="#SegoeUI-Bold-64" transform="translate(845.669922 0)"/>
    <use xlink:href="#SegoeUI-Bold-20" transform="translate(907.583984 0)"/>
    <use xlink:href="#SegoeUI-Bold-52" transform="translate(935.171875 0)"/>
    <use xlink:href="#SegoeUI-Bold-6f" transform="translate(997.955078 0)"/>
    <use xlink:href="#SegoeUI-Bold-62" transform="translate(1059.087891 0)"/>
    <use xlink:href="#SegoeUI-Bold-75" transform="translate(1121.099609 0)"/>
    <use xlink:href="#SegoeUI-Bold-73" transform="translate(1181.597656 0)"/>
    <use xlink:href="#SegoeUI-Bold-74" transform="translate(1225.591797 0)"/>
    <use xlink:href="#SegoeUI-Bold-6e" transform="translate(1264.507812 0)"/>
    <use xlink:href="#SegoeUI-Bold-65" transform="translate(1325.005859 0)"/>
    <use xlink:href="#SegoeUI-Bold-73" transform="translate(1379.107422 0)"/>
    <use xlink:href="#SegoeUI-Bold-73" transform="translate(1423.101562 0)"/>
   </g>
  </g>
 </g>
 <defs>
  <clipPath id="p55d3f29f10">
   <rect x="28.754688" y="75.861094" width="303.60125" height="219.541406"/>
  </clipPath>
  <clipPath id="p9dba0db7b4">
   <rect x="360.832188" y="75.861094" width="303.60125" height="219.541406"/>
  </clipPath>
 </defs>
</svg>
