<?xml version="1.0" encoding="utf-8" standalone="no"?>
<!DOCTYPE svg PUBLIC "-//W3C//DTD SVG 1.1//EN"
  "http://www.w3.org/Graphics/SVG/1.1/DTD/svg11.dtd">
<svg xmlns:xlink="http://www.w3.org/1999/xlink" width="813.718125pt" height="439.400625pt" viewBox="0 0 813.718125 439.400625" xmlns="http://www.w3.org/2000/svg" version="1.1">
 <metadata>
  <rdf:RDF xmlns:dc="http://purl.org/dc/elements/1.1/" xmlns:cc="http://creativecommons.org/ns#" xmlns:rdf="http://www.w3.org/1999/02/22-rdf-syntax-ns#">
   <cc:Work>
    <dc:type rdf:resource="http://purl.org/dc/dcmitype/StillImage"/>
    <dc:format>image/svg+xml</dc:format>
    <dc:creator>
     <cc:Agent>
      <dc:title>Matplotlib v3.10.8, https://matplotlib.org/</dc:title>
     </cc:Agent>
    </dc:creator>
   </cc:Work>
  </rdf:RDF>
 </metadata>
 <defs>
  <style type="text/css">*{stroke-linejoin: round; stroke-linecap: butt}</style>
 </defs>
 <g id="figure_1">
  <g id="patch_1">
   <path d="M 0 439.400625
L 813.718125 439.400625
L 813.718125 0
L 0 0
z
" style="fill: #ffffff"/>
  </g>
  <g id="axes_1">
   <g id="patch_2">
    <path d="M 46.198125 403.29
L 806.518125 403.29
L 806.518125 92.25
L 46.198125 92.25
z
" style="fill: #ffffff"/>
   </g>
   <g id="matplotlib.axis_1">
    <g id="xtick_1">
     <g id="text_1">
      <!-- 0 -->
      <g style="fill: #6f768a" transform="translate(78.062813 414.193125) scale(0.1 -0.1)">
       <defs>
        <path id="SegoeUI-30" d="M 3188 2259
Q 3188 1697 3086 1262
Q 2984 828 2792 529
Q 2600 231 2320 76
Q 2041 -78 1684 -78
Q 1347 -78 1083 70
Q 819 219 637 503
Q 456 788 362 1202
Q 269 1616 269 2150
Q 269 2738 367 3188
Q 466 3638 656 3942
Q 847 4247 1130 4401
Q 1413 4556 1778 4556
Q 3188 4556 3188 2259
z
M 2663 2209
Q 2663 4122 1753 4122
Q 794 4122 794 2175
Q 794 359 1734 359
Q 2663 359 2663 2209
z
" transform="scale(0.015625)"/>
       </defs>
       <use xlink:href="#SegoeUI-30"/>
      </g>
     </g>
    </g>
    <g id="xtick_2">
     <g id="text_2">
      <!-- 1 -->
      <g style="fill: #6f768a" transform="translate(216.302812 414.193125) scale(0.1 -0.1)">
       <defs>
        <path id="SegoeUI-31" d="M 2263 0
L 1750 0
L 1750 3872
Q 1691 3813 1577 3736
Q 1463 3659 1320 3584
Q 1178 3509 1020 3443
Q 863 3378 713 3341
L 713 3859
Q 881 3906 1070 3986
Q 1259 4066 1442 4164
Q 1625 4263 1787 4370
Q 1950 4478 2069 4581
L 2263 4581
L 2263 0
z
" transform="scale(0.015625)"/>
       </defs>
       <use xlink:href="#SegoeUI-31"/>
      </g>
     </g>
    </g>
    <g id="xtick_3">
     <g id="text_3">
      <!-- 2 -->
      <g style="fill: #6f768a" transform="translate(354.542812 414.193125) scale(0.1 -0.1)">
       <defs>
        <path id="SegoeUI-32" d="M 2413 3306
Q 2413 3513 2348 3666
Q 2284 3819 2173 3920
Q 2063 4022 1913 4072
Q 1763 4122 1588 4122
Q 1438 4122 1294 4081
Q 1150 4041 1014 3969
Q 878 3897 751 3797
Q 625 3697 516 3575
L 516 4125
Q 731 4334 998 4445
Q 1266 4556 1650 4556
Q 1925 4556 2159 4476
Q 2394 4397 2566 4244
Q 2738 4091 2836 3866
Q 2934 3641 2934 3350
Q 2934 3084 2873 2868
Q 2813 2653 2689 2462
Q 2566 2272 2378 2097
Q 2191 1922 1938 1741
Q 1622 1516 1417 1356
Q 1213 1197 1092 1058
Q 972 919 923 780
Q 875 641 875 459
L 3106 459
L 3106 0
L 341 0
L 341 222
Q 341 509 403 728
Q 466 947 609 1144
Q 753 1341 986 1537
Q 1219 1734 1556 1981
Q 1800 2156 1964 2315
Q 2128 2475 2228 2634
Q 2328 2794 2370 2958
Q 2413 3122 2413 3306
z
" transform="scale(0.015625)"/>
       </defs>
       <use xlink:href="#SegoeUI-32"/>
      </g>
     </g>
    </g>
    <g id="xtick_4">
     <g id="text_4">
      <!-- 3 -->
      <g style="fill: #6f768a" transform="translate(492.782812 414.193125) scale(0.1 -0.1)">
       <defs>
        <path id="SegoeUI-33" d="M 2978 1269
Q 2978 966 2864 717
Q 2750 469 2542 292
Q 2334 116 2043 19
Q 1753 -78 1403 -78
Q 763 -78 384 166
L 384 716
Q 838 359 1422 359
Q 1656 359 1845 418
Q 2034 478 2170 590
Q 2306 703 2379 862
Q 2453 1022 2453 1222
Q 2453 2100 1203 2100
L 831 2100
L 831 2534
L 1184 2534
Q 2291 2534 2291 3359
Q 2291 4122 1447 4122
Q 972 4122 556 3803
L 556 4300
Q 984 4556 1575 4556
Q 1856 4556 2084 4478
Q 2313 4400 2475 4259
Q 2638 4119 2727 3922
Q 2816 3725 2816 3488
Q 2816 2603 1922 2350
L 1922 2338
Q 2150 2313 2344 2227
Q 2538 2141 2678 2003
Q 2819 1866 2898 1680
Q 2978 1494 2978 1269
z
" transform="scale(0.015625)"/>
       </defs>
       <use xlink:href="#SegoeUI-33"/>
      </g>
     </g>
    </g>
    <g id="xtick_5">
     <g id="text_5">
      <!-- 4 -->
      <g style="fill: #6f768a" transform="translate(631.022812 414.193125) scale(0.1 -0.1)">
       <defs>
        <path id="SegoeUI-34" d="M 2656 4481
L 2656 1522
L 3231 1522
L 3231 1053
L 2656 1053
L 2656 0
L 2150 0
L 2150 1053
L 44 1053
L 44 1497
Q 338 1828 638 2204
Q 938 2581 1211 2968
Q 1484 3356 1717 3742
Q 1950 4128 2109 4481
L 2656 4481
z
M 622 1522
L 2150 1522
L 2150 3716
Q 1916 3306 1706 2984
Q 1497 2663 1308 2400
Q 1119 2138 947 1925
Q 775 1713 622 1522
z
" transform="scale(0.015625)"/>
       </defs>
       <use xlink:href="#SegoeUI-34"/>
      </g>
     </g>
    </g>
    <g id="xtick_6">
     <g id="text_6">
      <!-- 5 -->
      <g style="fill: #6f768a" transform="translate(769.262812 414.193125) scale(0.1 -0.1)">
       <defs>
        <path id="SegoeUI-35" d="M 3028 1369
Q 3028 1041 2915 775
Q 2803 509 2595 318
Q 2388 128 2094 25
Q 1800 -78 1441 -78
Q 816 -78 513 109
L 513 653
Q 969 359 1447 359
Q 1691 359 1886 431
Q 2081 503 2218 631
Q 2356 759 2429 940
Q 2503 1122 2503 1338
Q 2503 1775 2209 2023
Q 1916 2272 1356 2272
Q 1266 2272 1166 2269
Q 1066 2266 966 2261
Q 866 2256 770 2250
Q 675 2244 597 2234
L 750 4481
L 2822 4481
L 2822 4019
L 1194 4019
L 1103 2703
Q 1203 2709 1315 2714
Q 1428 2719 1516 2719
Q 1872 2719 2153 2625
Q 2434 2531 2629 2357
Q 2825 2184 2926 1932
Q 3028 1681 3028 1369
z
" transform="scale(0.015625)"/>
       </defs>
       <use xlink:href="#SegoeUI-35"/>
      </g>
     </g>
    </g>
    <g id="text_7">
     <!-- Flow lag in ETF trading days -->
     <g style="fill: #1f2430" transform="translate(352.771875 429.376875) scale(0.12 -0.12)">
      <defs>
       <path id="SegoeUI-46" d="M 2863 4006
L 1113 4006
L 1113 2456
L 2731 2456
L 2731 1984
L 1113 1984
L 1113 0
L 588 0
L 588 4481
L 2863 4481
L 2863 4006
z
" transform="scale(0.015625)"/>
       <path id="SegoeUI-6c" d="M 1031 0
L 519 0
L 519 4738
L 1031 4738
L 1031 0
z
" transform="scale(0.015625)"/>
       <path id="SegoeUI-6f" d="M 1856 -75
Q 1147 -75 723 373
Q 300 822 300 1563
Q 300 2369 740 2822
Q 1181 3275 1931 3275
Q 2647 3275 3048 2834
Q 3450 2394 3450 1613
Q 3450 847 3017 386
Q 2584 -75 1856 -75
z
M 1894 2844
Q 1400 2844 1112 2508
Q 825 2172 825 1581
Q 825 1013 1115 684
Q 1406 356 1894 356
Q 2391 356 2658 678
Q 2925 1000 2925 1594
Q 2925 2194 2658 2519
Q 2391 2844 1894 2844
z
" transform="scale(0.015625)"/>
       <path id="SegoeUI-77" d="M 4550 3200
L 3591 0
L 3059 0
L 2400 2291
Q 2363 2422 2350 2588
L 2338 2588
Q 2328 2475 2272 2297
L 1556 0
L 1044 0
L 75 3200
L 613 3200
L 1275 794
Q 1306 684 1319 506
L 1344 506
Q 1353 644 1400 800
L 2138 3200
L 2606 3200
L 3269 788
Q 3300 672 3316 500
L 3341 500
Q 3347 622 3394 788
L 4044 3200
L 4550 3200
z
" transform="scale(0.015625)"/>
       <path id="SegoeUI-20" transform="scale(0.015625)"/>
       <path id="SegoeUI-61" d="M 2809 0
L 2297 0
L 2297 500
L 2284 500
Q 1950 -75 1300 -75
Q 822 -75 551 178
Q 281 431 281 850
Q 281 1747 1338 1894
L 2297 2028
Q 2297 2844 1638 2844
Q 1059 2844 594 2450
L 594 2975
Q 1066 3275 1681 3275
Q 2809 3275 2809 2081
L 2809 0
z
M 2297 1619
L 1525 1513
Q 1169 1463 987 1336
Q 806 1209 806 888
Q 806 653 973 504
Q 1141 356 1419 356
Q 1800 356 2048 623
Q 2297 891 2297 1300
L 2297 1619
z
" transform="scale(0.015625)"/>
       <path id="SegoeUI-67" d="M 3250 256
Q 3250 -1506 1563 -1506
Q 969 -1506 525 -1281
L 525 -769
Q 1066 -1069 1556 -1069
Q 2738 -1069 2738 188
L 2738 538
L 2725 538
Q 2359 -75 1625 -75
Q 1028 -75 664 351
Q 300 778 300 1497
Q 300 2313 692 2794
Q 1084 3275 1766 3275
Q 2413 3275 2725 2756
L 2738 2756
L 2738 3200
L 3250 3200
L 3250 256
z
M 2738 1447
L 2738 1919
Q 2738 2300 2480 2572
Q 2222 2844 1838 2844
Q 1363 2844 1094 2498
Q 825 2153 825 1531
Q 825 997 1083 676
Q 1341 356 1766 356
Q 2197 356 2467 662
Q 2738 969 2738 1447
z
" transform="scale(0.015625)"/>
       <path id="SegoeUI-69" d="M 781 4013
Q 644 4013 547 4106
Q 450 4200 450 4344
Q 450 4488 547 4583
Q 644 4678 781 4678
Q 922 4678 1020 4583
Q 1119 4488 1119 4344
Q 1119 4206 1020 4109
Q 922 4013 781 4013
z
M 1031 0
L 519 0
L 519 3200
L 1031 3200
L 1031 0
z
" transform="scale(0.015625)"/>
       <path id="SegoeUI-6e" d="M 3175 0
L 2663 0
L 2663 1825
Q 2663 2844 1919 2844
Q 1534 2844 1282 2555
Q 1031 2266 1031 1825
L 1031 0
L 519 0
L 519 3200
L 1031 3200
L 1031 2669
L 1044 2669
Q 1406 3275 2094 3275
Q 2619 3275 2897 2936
Q 3175 2597 3175 1956
L 3175 0
z
" transform="scale(0.015625)"/>
       <path id="SegoeUI-45" d="M 2963 0
L 588 0
L 588 4481
L 2863 4481
L 2863 4006
L 1113 4006
L 1113 2516
L 2731 2516
L 2731 2044
L 1113 2044
L 1113 475
L 2963 475
L 2963 0
z
" transform="scale(0.015625)"/>
       <path id="SegoeUI-54" d="M 3238 4006
L 1944 4006
L 1944 0
L 1419 0
L 1419 4006
L 128 4006
L 128 4481
L 3238 4481
L 3238 4006
z
" transform="scale(0.015625)"/>
       <path id="SegoeUI-74" d="M 2003 31
Q 1822 -69 1525 -69
Q 684 -69 684 869
L 684 2763
L 134 2763
L 134 3200
L 684 3200
L 684 3981
L 1197 4147
L 1197 3200
L 2003 3200
L 2003 2763
L 1197 2763
L 1197 959
Q 1197 638 1306 500
Q 1416 363 1669 363
Q 1863 363 2003 469
L 2003 31
z
" transform="scale(0.015625)"/>
       <path id="SegoeUI-72" d="M 2188 2681
Q 2053 2784 1800 2784
Q 1472 2784 1251 2475
Q 1031 2166 1031 1631
L 1031 0
L 519 0
L 519 3200
L 1031 3200
L 1031 2541
L 1044 2541
Q 1153 2878 1378 3067
Q 1603 3256 1881 3256
Q 2081 3256 2188 3213
L 2188 2681
z
" transform="scale(0.015625)"/>
       <path id="SegoeUI-64" d="M 3250 0
L 2738 0
L 2738 544
L 2725 544
Q 2369 -75 1625 -75
Q 1022 -75 661 354
Q 300 784 300 1525
Q 300 2319 700 2797
Q 1100 3275 1766 3275
Q 2425 3275 2725 2756
L 2738 2756
L 2738 4738
L 3250 4738
L 3250 0
z
M 2738 1447
L 2738 1919
Q 2738 2306 2481 2575
Q 2225 2844 1831 2844
Q 1363 2844 1094 2500
Q 825 2156 825 1550
Q 825 997 1083 676
Q 1341 356 1775 356
Q 2203 356 2470 665
Q 2738 975 2738 1447
z
" transform="scale(0.015625)"/>
       <path id="SegoeUI-79" d="M 3066 3200
L 1594 -513
Q 1200 -1506 488 -1506
Q 288 -1506 153 -1466
L 153 -1006
Q 319 -1063 456 -1063
Q 844 -1063 1038 -600
L 1294 6
L 44 3200
L 613 3200
L 1478 738
Q 1494 691 1544 494
L 1563 494
Q 1578 569 1625 731
L 2534 3200
L 3066 3200
z
" transform="scale(0.015625)"/>
       <path id="SegoeUI-73" d="M 325 116
L 325 666
Q 744 356 1247 356
Q 1922 356 1922 806
Q 1922 934 1864 1023
Q 1806 1113 1707 1181
Q 1609 1250 1476 1304
Q 1344 1359 1191 1419
Q 978 1503 817 1589
Q 656 1675 548 1783
Q 441 1891 386 2028
Q 331 2166 331 2350
Q 331 2575 434 2748
Q 538 2922 709 3039
Q 881 3156 1101 3215
Q 1322 3275 1556 3275
Q 1972 3275 2300 3131
L 2300 2613
Q 1947 2844 1488 2844
Q 1344 2844 1228 2811
Q 1113 2778 1030 2718
Q 947 2659 901 2576
Q 856 2494 856 2394
Q 856 2269 901 2184
Q 947 2100 1034 2034
Q 1122 1969 1247 1916
Q 1372 1863 1531 1800
Q 1744 1719 1912 1633
Q 2081 1547 2200 1439
Q 2319 1331 2383 1190
Q 2447 1050 2447 856
Q 2447 619 2342 444
Q 2238 269 2063 153
Q 1888 38 1659 -18
Q 1431 -75 1181 -75
Q 688 -75 325 116
z
" transform="scale(0.015625)"/>
      </defs>
      <use xlink:href="#SegoeUI-46"/>
      <use xlink:href="#SegoeUI-6c" transform="translate(48.828125 0)"/>
      <use xlink:href="#SegoeUI-6f" transform="translate(73.046875 0)"/>
      <use xlink:href="#SegoeUI-77" transform="translate(131.640625 0)"/>
      <use xlink:href="#SegoeUI-20" transform="translate(203.90625 0)"/>
      <use xlink:href="#SegoeUI-6c" transform="translate(231.298828 0)"/>
      <use xlink:href="#SegoeUI-61" transform="translate(255.517578 0)"/>
      <use xlink:href="#SegoeUI-67" transform="translate(306.396484 0)"/>
      <use xlink:href="#SegoeUI-20" transform="translate(365.283203 0)"/>
      <use xlink:href="#SegoeUI-69" transform="translate(392.675781 0)"/>
      <use xlink:href="#SegoeUI-6e" transform="translate(416.894531 0)"/>
      <use xlink:href="#SegoeUI-20" transform="translate(473.486328 0)"/>
      <use xlink:href="#SegoeUI-45" transform="translate(500.878906 0)"/>
      <use xlink:href="#SegoeUI-54" transform="translate(551.714844 0)"/>
      <use xlink:href="#SegoeUI-46" transform="translate(604.107422 0)"/>
      <use xlink:href="#SegoeUI-20" transform="translate(652.935547 0)"/>
      <use xlink:href="#SegoeUI-74" transform="translate(680.328125 0)"/>
      <use xlink:href="#SegoeUI-72" transform="translate(714.214844 0)"/>
      <use xlink:href="#SegoeUI-61" transform="translate(748.980469 0)"/>
      <use xlink:href="#SegoeUI-64" transform="translate(799.859375 0)"/>
      <use xlink:href="#SegoeUI-69" transform="translate(858.746094 0)"/>
      <use xlink:href="#SegoeUI-6e" transform="translate(882.964844 0)"/>
      <use xlink:href="#SegoeUI-67" transform="translate(939.556641 0)"/>
      <use xlink:href="#SegoeUI-20" transform="translate(998.443359 0)"/>
      <use xlink:href="#SegoeUI-64" transform="translate(1025.835938 0)"/>
      <use xlink:href="#SegoeUI-61" transform="translate(1084.722656 0)"/>
      <use xlink:href="#SegoeUI-79" transform="translate(1135.601562 0)"/>
      <use xlink:href="#SegoeUI-73" transform="translate(1183.990234 0)"/>
     </g>
    </g>
   </g>
   <g id="matplotlib.axis_2">
    <g id="ytick_1">
     <g id="line2d_1">
      <path d="M 46.198125 370.465411
L 806.518125 370.465411
" clip-path="url(#pab436abe4f)" style="fill: none; stroke: #e8ebf2; stroke-width: 0.8; stroke-linecap: round"/>
     </g>
     <g id="text_8">
      <!-- −0.1 -->
      <g style="fill: #6f768a" transform="translate(22.9075 374.166973) scale(0.1 -0.1)">
       <defs>
        <path id="SegoeUI-2212" d="M 3663 1656
L 725 1656
L 725 2075
L 3663 2075
L 3663 1656
z
" transform="scale(0.015625)"/>
        <path id="SegoeUI-2e" d="M 697 -69
Q 553 -69 451 34
Q 350 138 350 281
Q 350 425 451 529
Q 553 634 697 634
Q 844 634 947 529
Q 1050 425 1050 281
Q 1050 138 947 34
Q 844 -69 697 -69
z
" transform="scale(0.015625)"/>
       </defs>
       <use xlink:href="#SegoeUI-2212"/>
       <use xlink:href="#SegoeUI-30" transform="translate(68.408203 0)"/>
       <use xlink:href="#SegoeUI-2e" transform="translate(122.314453 0)"/>
       <use xlink:href="#SegoeUI-31" transform="translate(143.994141 0)"/>
      </g>
     </g>
    </g>
    <g id="ytick_2">
     <g id="line2d_2">
      <path d="M 46.198125 322.696337
L 806.518125 322.696337
" clip-path="url(#pab436abe4f)" style="fill: none; stroke: #e8ebf2; stroke-width: 0.8; stroke-linecap: round"/>
     </g>
     <g id="text_9">
      <!-- 0.0 -->
      <g style="fill: #6f768a" transform="translate(29.748125 326.397899) scale(0.1 -0.1)">
       <use xlink:href="#SegoeUI-30"/>
       <use xlink:href="#SegoeUI-2e" transform="translate(53.90625 0)"/>
       <use xlink:href="#SegoeUI-30" transform="translate(75.585938 0)"/>
      </g>
     </g>
    </g>
    <g id="ytick_3">
     <g id="line2d_3">
      <path d="M 46.198125 274.927262
L 806.518125 274.927262
" clip-path="url(#pab436abe4f)" style="fill: none; stroke: #e8ebf2; stroke-width: 0.8; stroke-linecap: round"/>
     </g>
     <g id="text_10">
      <!-- 0.1 -->
      <g style="fill: #6f768a" transform="translate(29.748125 278.628825) scale(0.1 -0.1)">
       <use xlink:href="#SegoeUI-30"/>
       <use xlink:href="#SegoeUI-2e" transform="translate(53.90625 0)"/>
       <use xlink:href="#SegoeUI-31" transform="translate(75.585938 0)"/>
      </g>
     </g>
    </g>
    <g id="ytick_4">
     <g id="line2d_4">
      <path d="M 46.198125 227.158188
L 806.518125 227.158188
" clip-path="url(#pab436abe4f)" style="fill: none; stroke: #e8ebf2; stroke-width: 0.8; stroke-linecap: round"/>
     </g>
     <g id="text_11">
      <!-- 0.2 -->
      <g style="fill: #6f768a" transform="translate(29.748125 230.859751) scale(0.1 -0.1)">
       <use xlink:href="#SegoeUI-30"/>
       <use xlink:href="#SegoeUI-2e" transform="translate(53.90625 0)"/>
       <use xlink:href="#SegoeUI-32" transform="translate(75.585938 0)"/>
      </g>
     </g>
    </g>
    <g id="ytick_5">
     <g id="line2d_5">
      <path d="M 46.198125 179.389114
L 806.518125 179.389114
" clip-path="url(#pab436abe4f)" style="fill: none; stroke: #e8ebf2; stroke-width: 0.8; stroke-linecap: round"/>
     </g>
     <g id="text_12">
      <!-- 0.3 -->
      <g style="fill: #6f768a" transform="translate(29.748125 183.090676) scale(0.1 -0.1)">
       <use xlink:href="#SegoeUI-30"/>
       <use xlink:href="#SegoeUI-2e" transform="translate(53.90625 0)"/>
       <use xlink:href="#SegoeUI-33" transform="translate(75.585938 0)"/>
      </g>
     </g>
    </g>
    <g id="ytick_6">
     <g id="line2d_6">
      <path d="M 46.198125 131.62004
L 806.518125 131.62004
" clip-path="url(#pab436abe4f)" style="fill: none; stroke: #e8ebf2; stroke-width: 0.8; stroke-linecap: round"/>
     </g>
     <g id="text_13">
      <!-- 0.4 -->
      <g style="fill: #6f768a" transform="translate(29.748125 135.321602) scale(0.1 -0.1)">
       <use xlink:href="#SegoeUI-30"/>
       <use xlink:href="#SegoeUI-2e" transform="translate(53.90625 0)"/>
       <use xlink:href="#SegoeUI-34" transform="translate(75.585938 0)"/>
      </g>
     </g>
    </g>
    <g id="text_14">
     <!-- Correlation with same-day return -->
     <g style="fill: #1f2430" transform="translate(16.08375 335.110312) rotate(-90) scale(0.12 -0.12)">
      <defs>
       <path id="SegoeUI-43" d="M 3638 188
Q 3141 -75 2400 -75
Q 1444 -75 869 540
Q 294 1156 294 2156
Q 294 3231 941 3893
Q 1588 4556 2581 4556
Q 3219 4556 3638 4372
L 3638 3813
Q 3156 4081 2575 4081
Q 1803 4081 1323 3565
Q 844 3050 844 2188
Q 844 1369 1292 883
Q 1741 397 2469 397
Q 3144 397 3638 697
L 3638 188
z
" transform="scale(0.015625)"/>
       <path id="SegoeUI-65" d="M 3091 1472
L 831 1472
Q 844 938 1119 647
Q 1394 356 1875 356
Q 2416 356 2869 713
L 2869 231
Q 2447 -75 1753 -75
Q 1075 -75 687 361
Q 300 797 300 1588
Q 300 2334 723 2804
Q 1147 3275 1775 3275
Q 2403 3275 2747 2869
Q 3091 2463 3091 1741
L 3091 1472
z
M 2566 1906
Q 2563 2350 2352 2597
Q 2141 2844 1766 2844
Q 1403 2844 1150 2584
Q 897 2325 838 1906
L 2566 1906
z
" transform="scale(0.015625)"/>
       <path id="SegoeUI-68" d="M 3175 0
L 2663 0
L 2663 1844
Q 2663 2844 1919 2844
Q 1544 2844 1287 2555
Q 1031 2266 1031 1813
L 1031 0
L 519 0
L 519 4738
L 1031 4738
L 1031 2669
L 1044 2669
Q 1413 3275 2094 3275
Q 3175 3275 3175 1972
L 3175 0
z
" transform="scale(0.015625)"/>
       <path id="SegoeUI-6d" d="M 5063 0
L 4550 0
L 4550 1838
Q 4550 2369 4386 2606
Q 4222 2844 3834 2844
Q 3506 2844 3276 2544
Q 3047 2244 3047 1825
L 3047 0
L 2534 0
L 2534 1900
Q 2534 2844 1806 2844
Q 1469 2844 1250 2561
Q 1031 2278 1031 1825
L 1031 0
L 519 0
L 519 3200
L 1031 3200
L 1031 2694
L 1044 2694
Q 1384 3275 2038 3275
Q 2366 3275 2609 3092
Q 2853 2909 2944 2613
Q 3300 3275 4006 3275
Q 5063 3275 5063 1972
L 5063 0
z
" transform="scale(0.015625)"/>
       <path id="SegoeUI-2d" d="M 2156 1581
L 450 1581
L 450 1984
L 2156 1984
L 2156 1581
z
" transform="scale(0.015625)"/>
       <path id="SegoeUI-75" d="M 3106 0
L 2594 0
L 2594 506
L 2581 506
Q 2263 -75 1594 -75
Q 450 -75 450 1288
L 450 3200
L 959 3200
L 959 1369
Q 959 356 1734 356
Q 2109 356 2351 632
Q 2594 909 2594 1356
L 2594 3200
L 3106 3200
L 3106 0
z
" transform="scale(0.015625)"/>
      </defs>
      <use xlink:href="#SegoeUI-43"/>
      <use xlink:href="#SegoeUI-6f" transform="translate(61.914062 0)"/>
      <use xlink:href="#SegoeUI-72" transform="translate(120.507812 0)"/>
      <use xlink:href="#SegoeUI-72" transform="translate(155.273438 0)"/>
      <use xlink:href="#SegoeUI-65" transform="translate(188.664062 0)"/>
      <use xlink:href="#SegoeUI-6c" transform="translate(240.958984 0)"/>
      <use xlink:href="#SegoeUI-61" transform="translate(265.177734 0)"/>
      <use xlink:href="#SegoeUI-74" transform="translate(316.056641 0)"/>
      <use xlink:href="#SegoeUI-69" transform="translate(349.943359 0)"/>
      <use xlink:href="#SegoeUI-6f" transform="translate(374.162109 0)"/>
      <use xlink:href="#SegoeUI-6e" transform="translate(432.755859 0)"/>
      <use xlink:href="#SegoeUI-20" transform="translate(489.347656 0)"/>
      <use xlink:href="#SegoeUI-77" transform="translate(516.740234 0)"/>
      <use xlink:href="#SegoeUI-69" transform="translate(589.005859 0)"/>
      <use xlink:href="#SegoeUI-74" transform="translate(613.224609 0)"/>
      <use xlink:href="#SegoeUI-68" transform="translate(647.111328 0)"/>
      <use xlink:href="#SegoeUI-20" transform="translate(703.703125 0)"/>
      <use xlink:href="#SegoeUI-73" transform="translate(731.095703 0)"/>
      <use xlink:href="#SegoeUI-61" transform="translate(773.527344 0)"/>
      <use xlink:href="#SegoeUI-6d" transform="translate(824.40625 0)"/>
      <use xlink:href="#SegoeUI-65" transform="translate(910.539062 0)"/>
      <use xlink:href="#SegoeUI-2d" transform="translate(962.833984 0)"/>
      <use xlink:href="#SegoeUI-64" transform="translate(1002.824219 0)"/>
      <use xlink:href="#SegoeUI-61" transform="translate(1061.710938 0)"/>
      <use xlink:href="#SegoeUI-79" transform="translate(1112.589844 0)"/>
      <use xlink:href="#SegoeUI-20" transform="translate(1160.978516 0)"/>
      <use xlink:href="#SegoeUI-72" transform="translate(1188.371094 0)"/>
      <use xlink:href="#SegoeUI-65" transform="translate(1221.761719 0)"/>
      <use xlink:href="#SegoeUI-74" transform="translate(1274.056641 0)"/>
      <use xlink:href="#SegoeUI-75" transform="translate(1307.943359 0)"/>
      <use xlink:href="#SegoeUI-72" transform="translate(1364.535156 0)"/>
      <use xlink:href="#SegoeUI-6e" transform="translate(1399.050781 0)"/>
     </g>
    </g>
   </g>
   <g id="FillBetweenPolyCollection_1">
    <defs>
     <path id="md577233740" d="M 80.758125 -333.012443
L 80.758125 -266.314932
L 218.998125 -105.259131
L 357.238125 -87.353753
L 495.478125 -78.937071
L 633.718125 -82.552997
L 771.958125 -99.557522
L 771.958125 -157.659508
L 771.958125 -157.659508
L 633.718125 -165.529724
L 495.478125 -141.895887
L 357.238125 -149.217774
L 218.998125 -171.52703
L 80.758125 -333.012443
z
" style="stroke: #f0986e; stroke-opacity: 0.18"/>
    </defs>
    <g clip-path="url(#pab436abe4f)">
     <use xlink:href="#md577233740" x="0" y="439.400625" style="fill: #f0986e; fill-opacity: 0.18; stroke: #f0986e; stroke-opacity: 0.18"/>
    </g>
   </g>
   <g id="FillBetweenPolyCollection_2">
    <defs>
     <path id="m113b93dfd1" d="M 80.758125 -257.657922
L 80.758125 -189.606836
L 218.998125 -108.977121
L 357.238125 -77.151676
L 495.478125 -50.248807
L 633.718125 -87.108118
L 771.958125 -105.459305
L 771.958125 -164.037763
L 771.958125 -164.037763
L 633.718125 -147.502714
L 495.478125 -126.80224
L 357.238125 -149.078492
L 218.998125 -195.45642
L 80.758125 -257.657922
z
" style="stroke: #5477c4; stroke-opacity: 0.18"/>
    </defs>
    <g clip-path="url(#pab436abe4f)">
     <use xlink:href="#m113b93dfd1" x="0" y="439.400625" style="fill: #5477c4; fill-opacity: 0.18; stroke: #5477c4; stroke-opacity: 0.18"/>
    </g>
   </g>
   <g id="line2d_7">
    <path d="M 80.758125 141.731396
L 218.998125 299.224949
L 357.238125 319.700257
L 495.478125 331.691618
L 633.718125 317.644351
L 771.958125 309.708305
" clip-path="url(#pab436abe4f)" style="fill: none; stroke: #f0986e; stroke-width: 2; stroke-linecap: round"/>
    <defs>
     <path id="md0dbec302d" d="M 0 3
C 0.795609 3 1.55874 2.683901 2.12132 2.12132
C 2.683901 1.55874 3 0.795609 3 0
C 3 -0.795609 2.683901 -1.55874 2.12132 -2.12132
C 1.55874 -2.683901 0.795609 -3 0 -3
C -0.795609 -3 -1.55874 -2.683901 -2.12132 -2.12132
C -2.683901 -1.55874 -3 -0.795609 -3 0
C -3 0.795609 -2.683901 1.55874 -2.12132 2.12132
C -1.55874 2.683901 -0.795609 3 0 3
z
" style="stroke: #f0986e"/>
    </defs>
    <g clip-path="url(#pab436abe4f)">
     <use xlink:href="#md0dbec302d" x="80.758125" y="141.731396" style="fill: #f0986e; stroke: #f0986e"/>
     <use xlink:href="#md0dbec302d" x="218.998125" y="299.224949" style="fill: #f0986e; stroke: #f0986e"/>
     <use xlink:href="#md0dbec302d" x="357.238125" y="319.700257" style="fill: #f0986e; stroke: #f0986e"/>
     <use xlink:href="#md0dbec302d" x="495.478125" y="331.691618" style="fill: #f0986e; stroke: #f0986e"/>
     <use xlink:href="#md0dbec302d" x="633.718125" y="317.644351" style="fill: #f0986e; stroke: #f0986e"/>
     <use xlink:href="#md0dbec302d" x="771.958125" y="309.708305" style="fill: #f0986e; stroke: #f0986e"/>
    </g>
   </g>
   <g id="line2d_8">
    <path d="M 80.758125 214.789268
L 218.998125 281.650369
L 357.238125 326.329067
L 495.478125 349.184308
L 633.718125 320.389131
L 771.958125 306.432785
" clip-path="url(#pab436abe4f)" style="fill: none; stroke: #5477c4; stroke-width: 2; stroke-linecap: round"/>
    <defs>
     <path id="m698b153c71" d="M 0 3
C 0.795609 3 1.55874 2.683901 2.12132 2.12132
C 2.683901 1.55874 3 0.795609 3 0
C 3 -0.795609 2.683901 -1.55874 2.12132 -2.12132
C 1.55874 -2.683901 0.795609 -3 0 -3
C -0.795609 -3 -1.55874 -2.683901 -2.12132 -2.12132
C -2.683901 -1.55874 -3 -0.795609 -3 0
C -3 0.795609 -2.683901 1.55874 -2.12132 2.12132
C -1.55874 2.683901 -0.795609 3 0 3
z
" style="stroke: #5477c4"/>
    </defs>
    <g clip-path="url(#pab436abe4f)">
     <use xlink:href="#m698b153c71" x="80.758125" y="214.789268" style="fill: #5477c4; stroke: #5477c4"/>
     <use xlink:href="#m698b153c71" x="218.998125" y="281.650369" style="fill: #5477c4; stroke: #5477c4"/>
     <use xlink:href="#m698b153c71" x="357.238125" y="326.329067" style="fill: #5477c4; stroke: #5477c4"/>
     <use xlink:href="#m698b153c71" x="495.478125" y="349.184308" style="fill: #5477c4; stroke: #5477c4"/>
     <use xlink:href="#m698b153c71" x="633.718125" y="320.389131" style="fill: #5477c4; stroke: #5477c4"/>
     <use xlink:href="#m698b153c71" x="771.958125" y="306.432785" style="fill: #5477c4; stroke: #5477c4"/>
    </g>
   </g>
   <g id="line2d_9">
    <path d="M 46.198125 322.696337
L 806.518125 322.696337
" clip-path="url(#pab436abe4f)" style="fill: none; stroke: #d7dbe7; stroke-linecap: round"/>
   </g>
   <g id="patch_3">
    <path d="M 46.198125 403.29
L 46.198125 92.25
" style="fill: none; stroke: #d7dbe7; stroke-width: 1.25; stroke-linejoin: miter; stroke-linecap: square"/>
   </g>
   <g id="patch_4">
    <path d="M 46.198125 403.29
L 806.518125 403.29
" style="fill: none; stroke: #d7dbe7; stroke-width: 1.25; stroke-linejoin: miter; stroke-linecap: square"/>
   </g>
   <g id="legend_1">
    <g id="line2d_10">
     <path d="M 752.094687 105.153125
L 762.094687 105.153125
L 772.094687 105.153125
" style="fill: none; stroke: #f0986e; stroke-width: 2; stroke-linecap: round"/>
     <g>
      <use xlink:href="#md0dbec302d" x="762.094687" y="105.153125" style="fill: #f0986e; stroke: #f0986e"/>
     </g>
    </g>
    <g id="text_15">
     <!-- BTC -->
     <g style="fill: #1f2430" transform="translate(780.094687 108.653125) scale(0.1 -0.1)">
      <defs>
       <path id="SegoeUI-42" d="M 588 0
L 588 4481
L 1863 4481
Q 2444 4481 2784 4197
Q 3125 3913 3125 3456
Q 3125 3075 2919 2794
Q 2713 2513 2350 2394
L 2350 2381
Q 2803 2328 3075 2039
Q 3347 1750 3347 1288
Q 3347 713 2934 356
Q 2522 0 1894 0
L 588 0
z
M 1113 4006
L 1113 2559
L 1650 2559
Q 2081 2559 2328 2767
Q 2575 2975 2575 3353
Q 2575 4006 1716 4006
L 1113 4006
z
M 1113 2088
L 1113 475
L 1825 475
Q 2288 475 2542 694
Q 2797 913 2797 1294
Q 2797 2088 1716 2088
L 1113 2088
z
" transform="scale(0.015625)"/>
      </defs>
      <use xlink:href="#SegoeUI-42"/>
      <use xlink:href="#SegoeUI-54" transform="translate(52.824219 0)"/>
      <use xlink:href="#SegoeUI-43" transform="translate(100.716797 0)"/>
     </g>
    </g>
    <g id="line2d_11">
     <path d="M 752.094687 119.85625
L 762.094687 119.85625
L 772.094687 119.85625
" style="fill: none; stroke: #5477c4; stroke-width: 2; stroke-linecap: round"/>
     <g>
      <use xlink:href="#m698b153c71" x="762.094687" y="119.85625" style="fill: #5477c4; stroke: #5477c4"/>
     </g>
    </g>
    <g id="text_16">
     <!-- ETH -->
     <g style="fill: #1f2430" transform="translate(780.094687 123.35625) scale(0.1 -0.1)">
      <defs>
       <path id="SegoeUI-48" d="M 3956 0
L 3431 0
L 3431 2044
L 1113 2044
L 1113 0
L 588 0
L 588 4481
L 1113 4481
L 1113 2516
L 3431 2516
L 3431 4481
L 3956 4481
L 3956 0
z
" transform="scale(0.015625)"/>
      </defs>
      <use xlink:href="#SegoeUI-45"/>
      <use xlink:href="#SegoeUI-54" transform="translate(50.835938 0)"/>
      <use xlink:href="#SegoeUI-48" transform="translate(103.228516 0)"/>
     </g>
    </g>
   </g>
  </g>
  <g id="text_17">
   <!-- ETF flow-return association is a short-lag plumbing diagnostic -->
   <g style="fill: #1f2430" transform="translate(20.278125 19.2225) scale(0.16 -0.16)">
    <defs>
     <path id="SegoeUI-Semibold-45" d="M 3069 0
L 553 0
L 553 4481
L 2969 4481
L 2969 3850
L 1297 3850
L 1297 2581
L 2838 2581
L 2838 1953
L 1297 1953
L 1297 628
L 3069 628
L 3069 0
z
" transform="scale(0.015625)"/>
     <path id="SegoeUI-Semibold-54" d="M 3428 3850
L 2141 3850
L 2141 0
L 1397 0
L 1397 3850
L 113 3850
L 113 4481
L 3428 4481
L 3428 3850
z
" transform="scale(0.015625)"/>
     <path id="SegoeUI-Semibold-46" d="M 2972 3850
L 1297 3850
L 1297 2503
L 2841 2503
L 2841 1875
L 1297 1875
L 1297 0
L 553 0
L 553 4481
L 2972 4481
L 2972 3850
z
" transform="scale(0.015625)"/>
     <path id="SegoeUI-Semibold-20" transform="scale(0.015625)"/>
     <path id="SegoeUI-Semibold-66" d="M 2281 4147
Q 2134 4231 1947 4231
Q 1419 4231 1419 3634
L 1419 3200
L 2163 3200
L 2163 2631
L 1422 2631
L 1422 0
L 697 0
L 697 2631
L 150 2631
L 150 3200
L 697 3200
L 697 3719
Q 697 4225 1028 4517
Q 1359 4809 1856 4809
Q 2125 4809 2281 4750
L 2281 4147
z
" transform="scale(0.015625)"/>
     <path id="SegoeUI-Semibold-6c" d="M 1200 0
L 472 0
L 472 4738
L 1200 4738
L 1200 0
z
" transform="scale(0.015625)"/>
     <path id="SegoeUI-Semibold-6f" d="M 1891 -75
Q 1150 -75 708 373
Q 266 822 266 1563
Q 266 2369 727 2822
Q 1188 3275 1969 3275
Q 2719 3275 3137 2834
Q 3556 2394 3556 1613
Q 3556 847 3104 386
Q 2653 -75 1891 -75
z
M 1925 2697
Q 1500 2697 1253 2400
Q 1006 2103 1006 1581
Q 1006 1078 1256 789
Q 1506 500 1925 500
Q 2353 500 2583 784
Q 2813 1069 2813 1594
Q 2813 2122 2583 2409
Q 2353 2697 1925 2697
z
" transform="scale(0.015625)"/>
     <path id="SegoeUI-Semibold-77" d="M 4775 3200
L 3831 0
L 3072 0
L 2491 2169
Q 2456 2294 2447 2450
L 2434 2450
Q 2428 2344 2378 2175
L 1747 0
L 1003 0
L 63 3200
L 813 3200
L 1394 894
Q 1422 791 1431 619
L 1453 619
Q 1463 750 1503 900
L 2150 3200
L 2831 3200
L 3406 884
Q 3434 775 3447 609
L 3469 609
Q 3475 725 3516 884
L 4084 3200
L 4775 3200
z
" transform="scale(0.015625)"/>
     <path id="SegoeUI-Semibold-2d" d="M 2156 1481
L 450 1481
L 450 2016
L 2156 2016
L 2156 1481
z
" transform="scale(0.015625)"/>
     <path id="SegoeUI-Semibold-72" d="M 2328 2509
Q 2197 2613 1950 2613
Q 1628 2613 1412 2322
Q 1197 2031 1197 1531
L 1197 0
L 472 0
L 472 3200
L 1197 3200
L 1197 2541
L 1209 2541
Q 1316 2878 1536 3067
Q 1756 3256 2028 3256
Q 2225 3256 2328 3197
L 2328 2509
z
" transform="scale(0.015625)"/>
     <path id="SegoeUI-Semibold-65" d="M 3181 1403
L 1000 1403
Q 1013 959 1273 718
Q 1534 478 1991 478
Q 2503 478 2931 784
L 2931 200
Q 2494 -75 1775 -75
Q 1069 -75 667 361
Q 266 797 266 1588
Q 266 2334 708 2804
Q 1150 3275 1806 3275
Q 2463 3275 2822 2853
Q 3181 2431 3181 1681
L 3181 1403
z
M 2481 1916
Q 2478 2306 2297 2523
Q 2116 2741 1797 2741
Q 1484 2741 1267 2512
Q 1050 2284 1000 1916
L 2481 1916
z
" transform="scale(0.015625)"/>
     <path id="SegoeUI-Semibold-74" d="M 2159 34
Q 1947 -72 1600 -72
Q 669 -72 669 822
L 669 2631
L 134 2631
L 134 3200
L 669 3200
L 669 3941
L 1394 4147
L 1394 3200
L 2159 3200
L 2159 2631
L 1394 2631
L 1394 1031
Q 1394 747 1497 625
Q 1600 503 1841 503
Q 2025 503 2159 609
L 2159 34
z
" transform="scale(0.015625)"/>
     <path id="SegoeUI-Semibold-75" d="M 3263 0
L 2538 0
L 2538 506
L 2525 506
Q 2209 -75 1544 -75
Q 409 -75 409 1288
L 409 3200
L 1134 3200
L 1134 1363
Q 1134 500 1800 500
Q 2122 500 2330 737
Q 2538 975 2538 1359
L 2538 3200
L 3263 3200
L 3263 0
z
" transform="scale(0.015625)"/>
     <path id="SegoeUI-Semibold-6e" d="M 3322 0
L 2597 0
L 2597 1803
Q 2597 2700 1963 2700
Q 1631 2700 1415 2451
Q 1200 2203 1200 1825
L 1200 0
L 472 0
L 472 3200
L 1200 3200
L 1200 2669
L 1213 2669
Q 1572 3275 2250 3275
Q 2772 3275 3047 2936
Q 3322 2597 3322 1956
L 3322 0
z
" transform="scale(0.015625)"/>
     <path id="SegoeUI-Semibold-61" d="M 2928 0
L 2225 0
L 2225 500
L 2213 500
Q 1881 -75 1241 -75
Q 769 -75 501 181
Q 234 438 234 859
Q 234 1766 1278 1916
L 2228 2050
Q 2228 2734 1578 2734
Q 1006 2734 547 2341
L 547 2975
Q 1053 3275 1716 3275
Q 2928 3275 2928 2081
L 2928 0
z
M 2228 1572
L 1556 1478
Q 1244 1438 1086 1327
Q 928 1216 928 938
Q 928 734 1073 604
Q 1219 475 1463 475
Q 1794 475 2011 708
Q 2228 941 2228 1294
L 2228 1572
z
" transform="scale(0.015625)"/>
     <path id="SegoeUI-Semibold-73" d="M 272 100
L 272 772
Q 678 463 1169 463
Q 1825 463 1825 850
Q 1825 959 1769 1036
Q 1713 1113 1617 1172
Q 1522 1231 1392 1278
Q 1263 1325 1103 1384
Q 906 1463 748 1550
Q 591 1638 486 1748
Q 381 1859 328 2000
Q 275 2141 275 2328
Q 275 2559 384 2736
Q 494 2913 678 3033
Q 863 3153 1097 3214
Q 1331 3275 1581 3275
Q 2025 3275 2375 3141
L 2375 2506
Q 2038 2738 1600 2738
Q 1463 2738 1352 2709
Q 1241 2681 1162 2631
Q 1084 2581 1040 2511
Q 997 2441 997 2356
Q 997 2253 1040 2181
Q 1084 2109 1170 2054
Q 1256 2000 1376 1954
Q 1497 1909 1653 1856
Q 1859 1772 2023 1684
Q 2188 1597 2303 1486
Q 2419 1375 2481 1229
Q 2544 1084 2544 884
Q 2544 641 2431 459
Q 2319 278 2131 159
Q 1944 41 1698 -17
Q 1453 -75 1181 -75
Q 656 -75 272 100
z
" transform="scale(0.015625)"/>
     <path id="SegoeUI-Semibold-63" d="M 2763 147
Q 2378 -75 1853 -75
Q 1141 -75 703 370
Q 266 816 266 1525
Q 266 2316 736 2795
Q 1206 3275 1994 3275
Q 2431 3275 2766 3122
L 2766 2447
Q 2431 2697 2053 2697
Q 1594 2697 1300 2386
Q 1006 2075 1006 1572
Q 1006 1075 1282 787
Q 1559 500 2025 500
Q 2416 500 2763 778
L 2763 147
z
" transform="scale(0.015625)"/>
     <path id="SegoeUI-Semibold-69" d="M 838 3872
Q 659 3872 532 3987
Q 406 4103 406 4281
Q 406 4459 532 4578
Q 659 4697 838 4697
Q 1022 4697 1150 4578
Q 1278 4459 1278 4281
Q 1278 4113 1150 3992
Q 1022 3872 838 3872
z
M 1197 0
L 472 0
L 472 3200
L 1197 3200
L 1197 0
z
" transform="scale(0.015625)"/>
     <path id="SegoeUI-Semibold-68" d="M 3316 0
L 2591 0
L 2591 1750
Q 2591 2700 1956 2700
Q 1638 2700 1419 2425
Q 1200 2150 1200 1722
L 1200 0
L 472 0
L 472 4738
L 1200 4738
L 1200 2669
L 1213 2669
Q 1575 3275 2250 3275
Q 3316 3275 3316 1972
L 3316 0
z
" transform="scale(0.015625)"/>
     <path id="SegoeUI-Semibold-67" d="M 3384 256
Q 3384 -1506 1613 -1506
Q 988 -1506 522 -1297
L 522 -634
Q 1047 -934 1519 -934
Q 2659 -934 2659 188
L 2659 538
L 2647 538
Q 2288 -75 1566 -75
Q 981 -75 623 351
Q 266 778 266 1497
Q 266 2313 650 2794
Q 1034 3275 1706 3275
Q 2341 3275 2647 2756
L 2659 2756
L 2659 3200
L 3384 3200
L 3384 256
z
M 2666 1466
L 2666 1881
Q 2666 2219 2442 2458
Q 2219 2697 1884 2697
Q 1472 2697 1239 2392
Q 1006 2088 1006 1541
Q 1006 1069 1229 786
Q 1453 503 1822 503
Q 2197 503 2431 773
Q 2666 1044 2666 1466
z
" transform="scale(0.015625)"/>
     <path id="SegoeUI-Semibold-70" d="M 1209 472
L 1197 472
L 1197 -1472
L 472 -1472
L 472 3200
L 1197 3200
L 1197 2638
L 1209 2638
Q 1581 3275 2297 3275
Q 2906 3275 3247 2847
Q 3588 2419 3588 1697
Q 3588 897 3203 415
Q 2819 -66 2153 -66
Q 1541 -66 1209 472
z
M 1191 1734
L 1191 1338
Q 1191 988 1414 744
Q 1638 500 1981 500
Q 2384 500 2614 814
Q 2844 1128 2844 1691
Q 2844 2163 2630 2430
Q 2416 2697 2050 2697
Q 1663 2697 1427 2422
Q 1191 2147 1191 1734
z
" transform="scale(0.015625)"/>
     <path id="SegoeUI-Semibold-6d" d="M 5256 0
L 4531 0
L 4531 1744
Q 4531 2247 4389 2472
Q 4247 2697 3909 2697
Q 3625 2697 3426 2412
Q 3228 2128 3228 1731
L 3228 0
L 2500 0
L 2500 1803
Q 2500 2697 1869 2697
Q 1575 2697 1386 2428
Q 1197 2159 1197 1731
L 1197 0
L 472 0
L 472 3200
L 1197 3200
L 1197 2694
L 1209 2694
Q 1556 3275 2219 3275
Q 2550 3275 2798 3092
Q 3047 2909 3138 2613
Q 3494 3275 4200 3275
Q 5256 3275 5256 1972
L 5256 0
z
" transform="scale(0.015625)"/>
     <path id="SegoeUI-Semibold-62" d="M 1209 463
L 1197 463
L 1197 0
L 472 0
L 472 4738
L 1197 4738
L 1197 2638
L 1209 2638
Q 1581 3275 2297 3275
Q 2903 3275 3245 2845
Q 3588 2416 3588 1694
Q 3588 891 3203 408
Q 2819 -75 2153 -75
Q 1528 -75 1209 463
z
M 1191 1734
L 1191 1338
Q 1191 988 1414 744
Q 1638 500 1981 500
Q 2384 500 2614 814
Q 2844 1128 2844 1691
Q 2844 2163 2630 2430
Q 2416 2697 2050 2697
Q 1663 2697 1427 2422
Q 1191 2147 1191 1734
z
" transform="scale(0.015625)"/>
     <path id="SegoeUI-Semibold-64" d="M 3381 0
L 2656 0
L 2656 544
L 2644 544
Q 2294 -75 1566 -75
Q 975 -75 620 354
Q 266 784 266 1525
Q 266 2319 658 2797
Q 1050 3275 1703 3275
Q 2350 3275 2644 2756
L 2656 2756
L 2656 4738
L 3381 4738
L 3381 0
z
M 2666 1463
L 2666 1881
Q 2666 2222 2444 2459
Q 2222 2697 1878 2697
Q 1472 2697 1239 2394
Q 1006 2091 1006 1553
Q 1006 1066 1229 783
Q 1453 500 1831 500
Q 2203 500 2434 773
Q 2666 1047 2666 1463
z
" transform="scale(0.015625)"/>
    </defs>
    <use xlink:href="#SegoeUI-Semibold-45"/>
    <use xlink:href="#SegoeUI-Semibold-54" transform="translate(52.257812 0)"/>
    <use xlink:href="#SegoeUI-Semibold-46" transform="translate(107.433594 0)"/>
    <use xlink:href="#SegoeUI-Semibold-20" transform="translate(157.677734 0)"/>
    <use xlink:href="#SegoeUI-Semibold-66" transform="translate(185.167969 0)"/>
    <use xlink:href="#SegoeUI-Semibold-6c" transform="translate(219.640625 0)"/>
    <use xlink:href="#SegoeUI-Semibold-6f" transform="translate(245.763672 0)"/>
    <use xlink:href="#SegoeUI-Semibold-77" transform="translate(305.480469 0)"/>
    <use xlink:href="#SegoeUI-Semibold-2d" transform="translate(381.115234 0)"/>
    <use xlink:href="#SegoeUI-Semibold-72" transform="translate(421.300781 0)"/>
    <use xlink:href="#SegoeUI-Semibold-65" transform="translate(457.4375 0)"/>
    <use xlink:href="#SegoeUI-Semibold-74" transform="translate(510.5625 0)"/>
    <use xlink:href="#SegoeUI-Semibold-75" transform="translate(546.695312 0)"/>
    <use xlink:href="#SegoeUI-Semibold-72" transform="translate(605.044922 0)"/>
    <use xlink:href="#SegoeUI-Semibold-6e" transform="translate(642.056641 0)"/>
    <use xlink:href="#SegoeUI-Semibold-20" transform="translate(700.40625 0)"/>
    <use xlink:href="#SegoeUI-Semibold-61" transform="translate(727.896484 0)"/>
    <use xlink:href="#SegoeUI-Semibold-73" transform="translate(780.09375 0)"/>
    <use xlink:href="#SegoeUI-Semibold-73" transform="translate(823.208984 0)"/>
    <use xlink:href="#SegoeUI-Semibold-6f" transform="translate(866.324219 0)"/>
    <use xlink:href="#SegoeUI-Semibold-63" transform="translate(926.041016 0)"/>
    <use xlink:href="#SegoeUI-Semibold-69" transform="translate(973.0625 0)"/>
    <use xlink:href="#SegoeUI-Semibold-61" transform="translate(999.185547 0)"/>
    <use xlink:href="#SegoeUI-Semibold-74" transform="translate(1051.382812 0)"/>
    <use xlink:href="#SegoeUI-Semibold-69" transform="translate(1087.515625 0)"/>
    <use xlink:href="#SegoeUI-Semibold-6f" transform="translate(1113.638672 0)"/>
    <use xlink:href="#SegoeUI-Semibold-6e" transform="translate(1173.355469 0)"/>
    <use xlink:href="#SegoeUI-Semibold-20" transform="translate(1231.705078 0)"/>
    <use xlink:href="#SegoeUI-Semibold-69" transform="translate(1259.195312 0)"/>
    <use xlink:href="#SegoeUI-Semibold-73" transform="translate(1285.318359 0)"/>
    <use xlink:href="#SegoeUI-Semibold-20" transform="translate(1328.433594 0)"/>
    <use xlink:href="#SegoeUI-Semibold-61" transform="translate(1355.923828 0)"/>
    <use xlink:href="#SegoeUI-Semibold-20" transform="translate(1408.121094 0)"/>
    <use xlink:href="#SegoeUI-Semibold-73" transform="translate(1435.611328 0)"/>
    <use xlink:href="#SegoeUI-Semibold-68" transform="translate(1478.726562 0)"/>
    <use xlink:href="#SegoeUI-Semibold-6f" transform="translate(1536.929688 0)"/>
    <use xlink:href="#SegoeUI-Semibold-72" transform="translate(1596.646484 0)"/>
    <use xlink:href="#SegoeUI-Semibold-74" transform="translate(1636.533203 0)"/>
    <use xlink:href="#SegoeUI-Semibold-2d" transform="translate(1667.541016 0)"/>
    <use xlink:href="#SegoeUI-Semibold-6c" transform="translate(1707.726562 0)"/>
    <use xlink:href="#SegoeUI-Semibold-61" transform="translate(1733.849609 0)"/>
    <use xlink:href="#SegoeUI-Semibold-67" transform="translate(1786.046875 0)"/>
    <use xlink:href="#SegoeUI-Semibold-20" transform="translate(1846.300781 0)"/>
    <use xlink:href="#SegoeUI-Semibold-70" transform="translate(1873.791016 0)"/>
    <use xlink:href="#SegoeUI-Semibold-6c" transform="translate(1934.044922 0)"/>
    <use xlink:href="#SegoeUI-Semibold-75" transform="translate(1960.167969 0)"/>
    <use xlink:href="#SegoeUI-Semibold-6d" transform="translate(2018.517578 0)"/>
    <use xlink:href="#SegoeUI-Semibold-62" transform="translate(2107.091797 0)"/>
    <use xlink:href="#SegoeUI-Semibold-69" transform="translate(2167.345703 0)"/>
    <use xlink:href="#SegoeUI-Semibold-6e" transform="translate(2193.46875 0)"/>
    <use xlink:href="#SegoeUI-Semibold-67" transform="translate(2251.818359 0)"/>
    <use xlink:href="#SegoeUI-Semibold-20" transform="translate(2312.072266 0)"/>
    <use xlink:href="#SegoeUI-Semibold-64" transform="translate(2339.5625 0)"/>
    <use xlink:href="#SegoeUI-Semibold-69" transform="translate(2399.816406 0)"/>
    <use xlink:href="#SegoeUI-Semibold-61" transform="translate(2425.939453 0)"/>
    <use xlink:href="#SegoeUI-Semibold-67" transform="translate(2478.136719 0)"/>
    <use xlink:href="#SegoeUI-Semibold-6e" transform="translate(2538.390625 0)"/>
    <use xlink:href="#SegoeUI-Semibold-6f" transform="translate(2596.740234 0)"/>
    <use xlink:href="#SegoeUI-Semibold-73" transform="translate(2656.457031 0)"/>
    <use xlink:href="#SegoeUI-Semibold-74" transform="translate(2699.572266 0)"/>
    <use xlink:href="#SegoeUI-Semibold-69" transform="translate(2735.705078 0)"/>
    <use xlink:href="#SegoeUI-Semibold-63" transform="translate(2761.828125 0)"/>
   </g>
  </g>
  <g id="text_18">
   <!-- Lag 0-5 flow-intensity correlations with moving-block bootstrap intervals. -->
   <g style="fill: #6f768a" transform="translate(20.278125 39.760312) scale(0.11 -0.11)">
    <defs>
     <path id="SegoeUI-4c" d="M 2913 0
L 588 0
L 588 4481
L 1113 4481
L 1113 475
L 2913 475
L 2913 0
z
" transform="scale(0.015625)"/>
     <path id="SegoeUI-66" d="M 2100 4288
Q 1950 4372 1759 4372
Q 1222 4372 1222 3694
L 1222 3200
L 1972 3200
L 1972 2763
L 1222 2763
L 1222 0
L 713 0
L 713 2763
L 166 2763
L 166 3200
L 713 3200
L 713 3719
Q 713 4222 1003 4514
Q 1294 4806 1728 4806
Q 1963 4806 2100 4750
L 2100 4288
z
" transform="scale(0.015625)"/>
     <path id="SegoeUI-63" d="M 2700 147
Q 2331 -75 1825 -75
Q 1141 -75 720 370
Q 300 816 300 1525
Q 300 2316 753 2795
Q 1206 3275 1963 3275
Q 2384 3275 2706 3119
L 2706 2594
Q 2350 2844 1944 2844
Q 1453 2844 1139 2492
Q 825 2141 825 1569
Q 825 1006 1120 681
Q 1416 356 1913 356
Q 2331 356 2700 634
L 2700 147
z
" transform="scale(0.015625)"/>
     <path id="SegoeUI-76" d="M 3034 3200
L 1759 0
L 1256 0
L 44 3200
L 606 3200
L 1419 875
Q 1509 619 1531 428
L 1544 428
Q 1575 669 1644 863
L 2494 3200
L 3034 3200
z
" transform="scale(0.015625)"/>
     <path id="SegoeUI-62" d="M 1044 463
L 1031 463
L 1031 0
L 519 0
L 519 4738
L 1031 4738
L 1031 2638
L 1044 2638
Q 1422 3275 2150 3275
Q 2766 3275 3114 2845
Q 3463 2416 3463 1694
Q 3463 891 3072 408
Q 2681 -75 2003 -75
Q 1369 -75 1044 463
z
M 1031 1753
L 1031 1306
Q 1031 909 1289 632
Q 1547 356 1944 356
Q 2409 356 2673 712
Q 2938 1069 2938 1703
Q 2938 2238 2691 2541
Q 2444 2844 2022 2844
Q 1575 2844 1303 2533
Q 1031 2222 1031 1753
z
" transform="scale(0.015625)"/>
     <path id="SegoeUI-6b" d="M 3175 0
L 2456 0
L 1044 1538
L 1031 1538
L 1031 0
L 519 0
L 519 4738
L 1031 4738
L 1031 1734
L 1044 1734
L 2388 3200
L 3059 3200
L 1575 1656
L 3175 0
z
" transform="scale(0.015625)"/>
     <path id="SegoeUI-70" d="M 1044 463
L 1031 463
L 1031 -1472
L 519 -1472
L 519 3200
L 1031 3200
L 1031 2638
L 1044 2638
Q 1422 3275 2150 3275
Q 2769 3275 3116 2845
Q 3463 2416 3463 1694
Q 3463 891 3072 408
Q 2681 -75 2003 -75
Q 1381 -75 1044 463
z
M 1031 1753
L 1031 1306
Q 1031 909 1289 632
Q 1547 356 1944 356
Q 2409 356 2673 712
Q 2938 1069 2938 1703
Q 2938 2238 2691 2541
Q 2444 2844 2022 2844
Q 1575 2844 1303 2533
Q 1031 2222 1031 1753
z
" transform="scale(0.015625)"/>
    </defs>
    <use xlink:href="#SegoeUI-4c"/>
    <use xlink:href="#SegoeUI-61" transform="translate(47.070312 0)"/>
    <use xlink:href="#SegoeUI-67" transform="translate(97.949219 0)"/>
    <use xlink:href="#SegoeUI-20" transform="translate(156.835938 0)"/>
    <use xlink:href="#SegoeUI-30" transform="translate(184.228516 0)"/>
    <use xlink:href="#SegoeUI-2d" transform="translate(238.134766 0)"/>
    <use xlink:href="#SegoeUI-35" transform="translate(278.125 0)"/>
    <use xlink:href="#SegoeUI-20" transform="translate(332.03125 0)"/>
    <use xlink:href="#SegoeUI-66" transform="translate(359.423828 0)"/>
    <use xlink:href="#SegoeUI-6c" transform="translate(390.722656 0)"/>
    <use xlink:href="#SegoeUI-6f" transform="translate(414.941406 0)"/>
    <use xlink:href="#SegoeUI-77" transform="translate(473.535156 0)"/>
    <use xlink:href="#SegoeUI-2d" transform="translate(545.800781 0)"/>
    <use xlink:href="#SegoeUI-69" transform="translate(585.791016 0)"/>
    <use xlink:href="#SegoeUI-6e" transform="translate(610.009766 0)"/>
    <use xlink:href="#SegoeUI-74" transform="translate(666.601562 0)"/>
    <use xlink:href="#SegoeUI-65" transform="translate(699.738281 0)"/>
    <use xlink:href="#SegoeUI-6e" transform="translate(752.033203 0)"/>
    <use xlink:href="#SegoeUI-73" transform="translate(808.625 0)"/>
    <use xlink:href="#SegoeUI-69" transform="translate(851.056641 0)"/>
    <use xlink:href="#SegoeUI-74" transform="translate(875.275391 0)"/>
    <use xlink:href="#SegoeUI-79" transform="translate(909.162109 0)"/>
    <use xlink:href="#SegoeUI-20" transform="translate(957.550781 0)"/>
    <use xlink:href="#SegoeUI-63" transform="translate(984.943359 0)"/>
    <use xlink:href="#SegoeUI-6f" transform="translate(1031.134766 0)"/>
    <use xlink:href="#SegoeUI-72" transform="translate(1089.728516 0)"/>
    <use xlink:href="#SegoeUI-72" transform="translate(1124.494141 0)"/>
    <use xlink:href="#SegoeUI-65" transform="translate(1157.884766 0)"/>
    <use xlink:href="#SegoeUI-6c" transform="translate(1210.179688 0)"/>
    <use xlink:href="#SegoeUI-61" transform="translate(1234.398438 0)"/>
    <use xlink:href="#SegoeUI-74" transform="translate(1285.277344 0)"/>
    <use xlink:href="#SegoeUI-69" transform="translate(1319.164062 0)"/>
    <use xlink:href="#SegoeUI-6f" transform="translate(1343.382812 0)"/>
    <use xlink:href="#SegoeUI-6e" transform="translate(1401.976562 0)"/>
    <use xlink:href="#SegoeUI-73" transform="translate(1458.568359 0)"/>
    <use xlink:href="#SegoeUI-20" transform="translate(1501 0)"/>
    <use xlink:href="#SegoeUI-77" transform="translate(1528.392578 0)"/>
    <use xlink:href="#SegoeUI-69" transform="translate(1600.658203 0)"/>
    <use xlink:href="#SegoeUI-74" transform="translate(1624.876953 0)"/>
    <use xlink:href="#SegoeUI-68" transform="translate(1658.763672 0)"/>
    <use xlink:href="#SegoeUI-20" transform="translate(1715.355469 0)"/>
    <use xlink:href="#SegoeUI-6d" transform="translate(1742.748047 0)"/>
    <use xlink:href="#SegoeUI-6f" transform="translate(1828.880859 0)"/>
    <use xlink:href="#SegoeUI-76" transform="translate(1887.474609 0)"/>
    <use xlink:href="#SegoeUI-69" transform="translate(1935.375 0)"/>
    <use xlink:href="#SegoeUI-6e" transform="translate(1959.59375 0)"/>
    <use xlink:href="#SegoeUI-67" transform="translate(2016.185547 0)"/>
    <use xlink:href="#SegoeUI-2d" transform="translate(2075.072266 0)"/>
    <use xlink:href="#SegoeUI-62" transform="translate(2115.0625 0)"/>
    <use xlink:href="#SegoeUI-6c" transform="translate(2173.851562 0)"/>
    <use xlink:href="#SegoeUI-6f" transform="translate(2198.070312 0)"/>
    <use xlink:href="#SegoeUI-63" transform="translate(2256.664062 0)"/>
    <use xlink:href="#SegoeUI-6b" transform="translate(2302.855469 0)"/>
    <use xlink:href="#SegoeUI-20" transform="translate(2352.5625 0)"/>
    <use xlink:href="#SegoeUI-62" transform="translate(2379.955078 0)"/>
    <use xlink:href="#SegoeUI-6f" transform="translate(2438.744141 0)"/>
    <use xlink:href="#SegoeUI-6f" transform="translate(2497.337891 0)"/>
    <use xlink:href="#SegoeUI-74" transform="translate(2555.931641 0)"/>
    <use xlink:href="#SegoeUI-73" transform="translate(2589.818359 0)"/>
    <use xlink:href="#SegoeUI-74" transform="translate(2632.25 0)"/>
    <use xlink:href="#SegoeUI-72" transform="translate(2666.136719 0)"/>
    <use xlink:href="#SegoeUI-61" transform="translate(2700.902344 0)"/>
    <use xlink:href="#SegoeUI-70" transform="translate(2751.78125 0)"/>
    <use xlink:href="#SegoeUI-20" transform="translate(2810.570312 0)"/>
    <use xlink:href="#SegoeUI-69" transform="translate(2837.962891 0)"/>
    <use xlink:href="#SegoeUI-6e" transform="translate(2862.181641 0)"/>
    <use xlink:href="#SegoeUI-74" transform="translate(2918.773438 0)"/>
    <use xlink:href="#SegoeUI-65" transform="translate(2951.910156 0)"/>
    <use xlink:href="#SegoeUI-72" transform="translate(3004.205078 0)"/>
    <use xlink:href="#SegoeUI-76" transform="translate(3042.970703 0)"/>
    <use xlink:href="#SegoeUI-61" transform="translate(3089.121094 0)"/>
    <use xlink:href="#SegoeUI-6c" transform="translate(3140 0)"/>
    <use xlink:href="#SegoeUI-73" transform="translate(3164.21875 0)"/>
    <use xlink:href="#SegoeUI-2e" transform="translate(3206.650391 0)"/>
   </g>
  </g>
 </g>
 <defs>
  <clipPath id="pab436abe4f">
   <rect x="46.198125" y="92.25" width="760.32" height="311.04"/>
  </clipPath>
 </defs>
</svg>
