<?xml version="1.0" encoding="utf-8" standalone="no"?>
<!DOCTYPE svg PUBLIC "-//W3C//DTD SVG 1.1//EN"
  "http://www.w3.org/Graphics/SVG/1.1/DTD/svg11.dtd">
<svg xmlns:xlink="http://www.w3.org/1999/xlink" width="815.795625pt" height="423.693125pt" viewBox="0 0 815.795625 423.693125" xmlns="http://www.w3.org/2000/svg" version="1.1">
 <metadata>
  <rdf:RDF xmlns:dc="http://purl.org/dc/elements/1.1/" xmlns:cc="http://creativecommons.org/ns#" xmlns:rdf="http://www.w3.org/1999/02/22-rdf-syntax-ns#">
   <cc:Work>
    <dc:type rdf:resource="http://purl.org/dc/dcmitype/StillImage"/>
    <dc:format>image/svg+xml</dc:format>
    <dc:creator>
     <cc:Agent>
      <dc:title>Matplotlib v3.10.8, https://matplotlib.org/</dc:title>
     </cc:Agent>
    </dc:creator>
   </cc:Work>
  </rdf:RDF>
 </metadata>
 <defs>
  <style type="text/css">*{stroke-linejoin: round; stroke-linecap: butt}</style>
 </defs>
 <g id="figure_1">
  <g id="patch_1">
   <path d="M 0 423.693125
L 815.795625 423.693125
L 815.795625 0
L 0 0
z
" style="fill: #ffffff"/>
  </g>
  <g id="axes_1">
   <g id="patch_2">
    <path d="M 56.915625 403.29
L 808.595625 403.29
L 808.595625 92.25
L 56.915625 92.25
z
" style="fill: #ffffff"/>
   </g>
   <g id="matplotlib.axis_1">
    <g id="xtick_1">
     <g id="text_1">
      <!-- BTC -->
      <g style="fill: #6f768a" transform="translate(234.805412 414.193125) scale(0.1 -0.1)">
       <defs>
        <path id="SegoeUI-42" d="M 588 0
L 588 4481
L 1863 4481
Q 2444 4481 2784 4197
Q 3125 3913 3125 3456
Q 3125 3075 2919 2794
Q 2713 2513 2350 2394
L 2350 2381
Q 2803 2328 3075 2039
Q 3347 1750 3347 1288
Q 3347 713 2934 356
Q 2522 0 1894 0
L 588 0
z
M 1113 4006
L 1113 2559
L 1650 2559
Q 2081 2559 2328 2767
Q 2575 2975 2575 3353
Q 2575 4006 1716 4006
L 1113 4006
z
M 1113 2088
L 1113 475
L 1825 475
Q 2288 475 2542 694
Q 2797 913 2797 1294
Q 2797 2088 1716 2088
L 1113 2088
z
" transform="scale(0.015625)"/>
        <path id="SegoeUI-54" d="M 3238 4006
L 1944 4006
L 1944 0
L 1419 0
L 1419 4006
L 128 4006
L 128 4481
L 3238 4481
L 3238 4006
z
" transform="scale(0.015625)"/>
        <path id="SegoeUI-43" d="M 3638 188
Q 3141 -75 2400 -75
Q 1444 -75 869 540
Q 294 1156 294 2156
Q 294 3231 941 3893
Q 1588 4556 2581 4556
Q 3219 4556 3638 4372
L 3638 3813
Q 3156 4081 2575 4081
Q 1803 4081 1323 3565
Q 844 3050 844 2188
Q 844 1369 1292 883
Q 1741 397 2469 397
Q 3144 397 3638 697
L 3638 188
z
" transform="scale(0.015625)"/>
       </defs>
       <use xlink:href="#SegoeUI-42"/>
       <use xlink:href="#SegoeUI-54" transform="translate(52.824219 0)"/>
       <use xlink:href="#SegoeUI-43" transform="translate(100.716797 0)"/>
      </g>
     </g>
    </g>
    <g id="xtick_2">
     <g id="text_2">
      <!-- ETH -->
      <g style="fill: #6f768a" transform="translate(613.862088 414.193125) scale(0.1 -0.1)">
       <defs>
        <path id="SegoeUI-45" d="M 2963 0
L 588 0
L 588 4481
L 2863 4481
L 2863 4006
L 1113 4006
L 1113 2516
L 2731 2516
L 2731 2044
L 1113 2044
L 1113 475
L 2963 475
L 2963 0
z
" transform="scale(0.015625)"/>
        <path id="SegoeUI-48" d="M 3956 0
L 3431 0
L 3431 2044
L 1113 2044
L 1113 0
L 588 0
L 588 4481
L 1113 4481
L 1113 2516
L 3431 2516
L 3431 4481
L 3956 4481
L 3956 0
z
" transform="scale(0.015625)"/>
       </defs>
       <use xlink:href="#SegoeUI-45"/>
       <use xlink:href="#SegoeUI-54" transform="translate(50.835938 0)"/>
       <use xlink:href="#SegoeUI-48" transform="translate(103.228516 0)"/>
      </g>
     </g>
    </g>
   </g>
   <g id="matplotlib.axis_2">
    <g id="ytick_1">
     <g id="line2d_1">
      <path d="M 56.915625 348.001245
L 808.595625 348.001245
" clip-path="url(#pc73e4586e7)" style="fill: none; stroke: #e8ebf2; stroke-width: 0.8; stroke-linecap: round"/>
     </g>
     <g id="text_3">
      <!-- −0.005 -->
      <g style="fill: #6f768a" transform="translate(22.84375 351.702808) scale(0.1 -0.1)">
       <defs>
        <path id="SegoeUI-2212" d="M 3663 1656
L 725 1656
L 725 2075
L 3663 2075
L 3663 1656
z
" transform="scale(0.015625)"/>
        <path id="SegoeUI-30" d="M 3188 2259
Q 3188 1697 3086 1262
Q 2984 828 2792 529
Q 2600 231 2320 76
Q 2041 -78 1684 -78
Q 1347 -78 1083 70
Q 819 219 637 503
Q 456 788 362 1202
Q 269 1616 269 2150
Q 269 2738 367 3188
Q 466 3638 656 3942
Q 847 4247 1130 4401
Q 1413 4556 1778 4556
Q 3188 4556 3188 2259
z
M 2663 2209
Q 2663 4122 1753 4122
Q 794 4122 794 2175
Q 794 359 1734 359
Q 2663 359 2663 2209
z
" transform="scale(0.015625)"/>
        <path id="SegoeUI-2e" d="M 697 -69
Q 553 -69 451 34
Q 350 138 350 281
Q 350 425 451 529
Q 553 634 697 634
Q 844 634 947 529
Q 1050 425 1050 281
Q 1050 138 947 34
Q 844 -69 697 -69
z
" transform="scale(0.015625)"/>
        <path id="SegoeUI-35" d="M 3028 1369
Q 3028 1041 2915 775
Q 2803 509 2595 318
Q 2388 128 2094 25
Q 1800 -78 1441 -78
Q 816 -78 513 109
L 513 653
Q 969 359 1447 359
Q 1691 359 1886 431
Q 2081 503 2218 631
Q 2356 759 2429 940
Q 2503 1122 2503 1338
Q 2503 1775 2209 2023
Q 1916 2272 1356 2272
Q 1266 2272 1166 2269
Q 1066 2266 966 2261
Q 866 2256 770 2250
Q 675 2244 597 2234
L 750 4481
L 2822 4481
L 2822 4019
L 1194 4019
L 1103 2703
Q 1203 2709 1315 2714
Q 1428 2719 1516 2719
Q 1872 2719 2153 2625
Q 2434 2531 2629 2357
Q 2825 2184 2926 1932
Q 3028 1681 3028 1369
z
" transform="scale(0.015625)"/>
       </defs>
       <use xlink:href="#SegoeUI-2212"/>
       <use xlink:href="#SegoeUI-30" transform="translate(68.408203 0)"/>
       <use xlink:href="#SegoeUI-2e" transform="translate(122.314453 0)"/>
       <use xlink:href="#SegoeUI-30" transform="translate(143.994141 0)"/>
       <use xlink:href="#SegoeUI-30" transform="translate(197.900391 0)"/>
       <use xlink:href="#SegoeUI-35" transform="translate(251.806641 0)"/>
      </g>
     </g>
    </g>
    <g id="ytick_2">
     <g id="line2d_2">
      <path d="M 56.915625 286.8022
L 808.595625 286.8022
" clip-path="url(#pc73e4586e7)" style="fill: none; stroke: #e8ebf2; stroke-width: 0.8; stroke-linecap: round"/>
     </g>
     <g id="text_4">
      <!-- 0.000 -->
      <g style="fill: #6f768a" transform="translate(29.684375 290.503762) scale(0.1 -0.1)">
       <use xlink:href="#SegoeUI-30"/>
       <use xlink:href="#SegoeUI-2e" transform="translate(53.90625 0)"/>
       <use xlink:href="#SegoeUI-30" transform="translate(75.585938 0)"/>
       <use xlink:href="#SegoeUI-30" transform="translate(129.492188 0)"/>
       <use xlink:href="#SegoeUI-30" transform="translate(183.398438 0)"/>
      </g>
     </g>
    </g>
    <g id="ytick_3">
     <g id="line2d_3">
      <path d="M 56.915625 225.603154
L 808.595625 225.603154
" clip-path="url(#pc73e4586e7)" style="fill: none; stroke: #e8ebf2; stroke-width: 0.8; stroke-linecap: round"/>
     </g>
     <g id="text_5">
      <!-- 0.005 -->
      <g style="fill: #6f768a" transform="translate(29.684375 229.304716) scale(0.1 -0.1)">
       <use xlink:href="#SegoeUI-30"/>
       <use xlink:href="#SegoeUI-2e" transform="translate(53.90625 0)"/>
       <use xlink:href="#SegoeUI-30" transform="translate(75.585938 0)"/>
       <use xlink:href="#SegoeUI-30" transform="translate(129.492188 0)"/>
       <use xlink:href="#SegoeUI-35" transform="translate(183.398438 0)"/>
      </g>
     </g>
    </g>
    <g id="ytick_4">
     <g id="line2d_4">
      <path d="M 56.915625 164.404108
L 808.595625 164.404108
" clip-path="url(#pc73e4586e7)" style="fill: none; stroke: #e8ebf2; stroke-width: 0.8; stroke-linecap: round"/>
     </g>
     <g id="text_6">
      <!-- 0.010 -->
      <g style="fill: #6f768a" transform="translate(29.684375 168.105671) scale(0.1 -0.1)">
       <defs>
        <path id="SegoeUI-31" d="M 2263 0
L 1750 0
L 1750 3872
Q 1691 3813 1577 3736
Q 1463 3659 1320 3584
Q 1178 3509 1020 3443
Q 863 3378 713 3341
L 713 3859
Q 881 3906 1070 3986
Q 1259 4066 1442 4164
Q 1625 4263 1787 4370
Q 1950 4478 2069 4581
L 2263 4581
L 2263 0
z
" transform="scale(0.015625)"/>
       </defs>
       <use xlink:href="#SegoeUI-30"/>
       <use xlink:href="#SegoeUI-2e" transform="translate(53.90625 0)"/>
       <use xlink:href="#SegoeUI-30" transform="translate(75.585938 0)"/>
       <use xlink:href="#SegoeUI-31" transform="translate(129.492188 0)"/>
       <use xlink:href="#SegoeUI-30" transform="translate(183.398438 0)"/>
      </g>
     </g>
    </g>
    <g id="ytick_5">
     <g id="line2d_5">
      <path d="M 56.915625 103.205063
L 808.595625 103.205063
" clip-path="url(#pc73e4586e7)" style="fill: none; stroke: #e8ebf2; stroke-width: 0.8; stroke-linecap: round"/>
     </g>
     <g id="text_7">
      <!-- 0.015 -->
      <g style="fill: #6f768a" transform="translate(29.684375 106.906625) scale(0.1 -0.1)">
       <use xlink:href="#SegoeUI-30"/>
       <use xlink:href="#SegoeUI-2e" transform="translate(53.90625 0)"/>
       <use xlink:href="#SegoeUI-30" transform="translate(75.585938 0)"/>
       <use xlink:href="#SegoeUI-31" transform="translate(129.492188 0)"/>
       <use xlink:href="#SegoeUI-35" transform="translate(183.398438 0)"/>
      </g>
     </g>
    </g>
    <g id="text_8">
     <!-- Mean return -->
     <g style="fill: #1f2430" transform="translate(16.08375 280.424062) rotate(-90) scale(0.12 -0.12)">
      <defs>
       <path id="SegoeUI-4d" d="M 5156 0
L 4634 0
L 4634 3006
Q 4634 3363 4678 3878
L 4666 3878
Q 4591 3575 4531 3444
L 3000 0
L 2744 0
L 1216 3419
Q 1150 3569 1081 3878
L 1069 3878
Q 1094 3609 1094 3000
L 1094 0
L 588 0
L 588 4481
L 1281 4481
L 2656 1356
Q 2816 997 2863 819
L 2881 819
Q 3016 1188 3097 1369
L 4500 4481
L 5156 4481
L 5156 0
z
" transform="scale(0.015625)"/>
       <path id="SegoeUI-65" d="M 3091 1472
L 831 1472
Q 844 938 1119 647
Q 1394 356 1875 356
Q 2416 356 2869 713
L 2869 231
Q 2447 -75 1753 -75
Q 1075 -75 687 361
Q 300 797 300 1588
Q 300 2334 723 2804
Q 1147 3275 1775 3275
Q 2403 3275 2747 2869
Q 3091 2463 3091 1741
L 3091 1472
z
M 2566 1906
Q 2563 2350 2352 2597
Q 2141 2844 1766 2844
Q 1403 2844 1150 2584
Q 897 2325 838 1906
L 2566 1906
z
" transform="scale(0.015625)"/>
       <path id="SegoeUI-61" d="M 2809 0
L 2297 0
L 2297 500
L 2284 500
Q 1950 -75 1300 -75
Q 822 -75 551 178
Q 281 431 281 850
Q 281 1747 1338 1894
L 2297 2028
Q 2297 2844 1638 2844
Q 1059 2844 594 2450
L 594 2975
Q 1066 3275 1681 3275
Q 2809 3275 2809 2081
L 2809 0
z
M 2297 1619
L 1525 1513
Q 1169 1463 987 1336
Q 806 1209 806 888
Q 806 653 973 504
Q 1141 356 1419 356
Q 1800 356 2048 623
Q 2297 891 2297 1300
L 2297 1619
z
" transform="scale(0.015625)"/>
       <path id="SegoeUI-6e" d="M 3175 0
L 2663 0
L 2663 1825
Q 2663 2844 1919 2844
Q 1534 2844 1282 2555
Q 1031 2266 1031 1825
L 1031 0
L 519 0
L 519 3200
L 1031 3200
L 1031 2669
L 1044 2669
Q 1406 3275 2094 3275
Q 2619 3275 2897 2936
Q 3175 2597 3175 1956
L 3175 0
z
" transform="scale(0.015625)"/>
       <path id="SegoeUI-20" transform="scale(0.015625)"/>
       <path id="SegoeUI-72" d="M 2188 2681
Q 2053 2784 1800 2784
Q 1472 2784 1251 2475
Q 1031 2166 1031 1631
L 1031 0
L 519 0
L 519 3200
L 1031 3200
L 1031 2541
L 1044 2541
Q 1153 2878 1378 3067
Q 1603 3256 1881 3256
Q 2081 3256 2188 3213
L 2188 2681
z
" transform="scale(0.015625)"/>
       <path id="SegoeUI-74" d="M 2003 31
Q 1822 -69 1525 -69
Q 684 -69 684 869
L 684 2763
L 134 2763
L 134 3200
L 684 3200
L 684 3981
L 1197 4147
L 1197 3200
L 2003 3200
L 2003 2763
L 1197 2763
L 1197 959
Q 1197 638 1306 500
Q 1416 363 1669 363
Q 1863 363 2003 469
L 2003 31
z
" transform="scale(0.015625)"/>
       <path id="SegoeUI-75" d="M 3106 0
L 2594 0
L 2594 506
L 2581 506
Q 2263 -75 1594 -75
Q 450 -75 450 1288
L 450 3200
L 959 3200
L 959 1369
Q 959 356 1734 356
Q 2109 356 2351 632
Q 2594 909 2594 1356
L 2594 3200
L 3106 3200
L 3106 0
z
" transform="scale(0.015625)"/>
      </defs>
      <use xlink:href="#SegoeUI-4d"/>
      <use xlink:href="#SegoeUI-65" transform="translate(89.794922 0)"/>
      <use xlink:href="#SegoeUI-61" transform="translate(142.089844 0)"/>
      <use xlink:href="#SegoeUI-6e" transform="translate(192.96875 0)"/>
      <use xlink:href="#SegoeUI-20" transform="translate(249.560547 0)"/>
      <use xlink:href="#SegoeUI-72" transform="translate(276.953125 0)"/>
      <use xlink:href="#SegoeUI-65" transform="translate(310.34375 0)"/>
      <use xlink:href="#SegoeUI-74" transform="translate(362.638672 0)"/>
      <use xlink:href="#SegoeUI-75" transform="translate(396.525391 0)"/>
      <use xlink:href="#SegoeUI-72" transform="translate(453.117188 0)"/>
      <use xlink:href="#SegoeUI-6e" transform="translate(487.632812 0)"/>
     </g>
    </g>
   </g>
   <g id="patch_3">
    <path d="M 91.082898 286.8022
L 394.791989 286.8022
L 394.791989 106.388182
L 91.082898 106.388182
z
" clip-path="url(#pc73e4586e7)" style="fill: #f0986e; stroke: #1f2430; stroke-linejoin: miter"/>
   </g>
   <g id="patch_4">
    <path d="M 470.719261 286.8022
L 774.428352 286.8022
L 774.428352 234.541763
L 470.719261 234.541763
z
" clip-path="url(#pc73e4586e7)" style="fill: #5477c4; stroke: #1f2430; stroke-linejoin: miter"/>
   </g>
   <g id="LineCollection_1">
    <path d="M 242.937443 353.533118
L 242.937443 245.263631
" clip-path="url(#pc73e4586e7)" style="fill: none; stroke: #1f2430; stroke-width: 1.5"/>
    <path d="M 622.573807 389.151818
L 622.573807 204.504185
" clip-path="url(#pc73e4586e7)" style="fill: none; stroke: #1f2430; stroke-width: 1.5"/>
   </g>
   <g id="line2d_6">
    <defs>
     <path id="m1a97ba5143" d="M 5 0
L -5 -0
" style="stroke: #1f2430"/>
    </defs>
    <g clip-path="url(#pc73e4586e7)">
     <use xlink:href="#m1a97ba5143" x="242.937443" y="353.533118" style="fill: #1f2430; stroke: #1f2430"/>
     <use xlink:href="#m1a97ba5143" x="622.573807" y="389.151818" style="fill: #1f2430; stroke: #1f2430"/>
    </g>
   </g>
   <g id="line2d_7">
    <g clip-path="url(#pc73e4586e7)">
     <use xlink:href="#m1a97ba5143" x="242.937443" y="245.263631" style="fill: #1f2430; stroke: #1f2430"/>
     <use xlink:href="#m1a97ba5143" x="622.573807" y="204.504185" style="fill: #1f2430; stroke: #1f2430"/>
    </g>
   </g>
   <g id="line2d_8">
    <path d="M 56.915625 286.8022
L 808.595625 286.8022
" clip-path="url(#pc73e4586e7)" style="fill: none; stroke: #d7dbe7; stroke-linecap: round"/>
   </g>
   <g id="line2d_9">
    <defs>
     <path id="m347bc66dfc" d="M 0 3
C 0.795609 3 1.55874 2.683901 2.12132 2.12132
C 2.683901 1.55874 3 0.795609 3 0
C 3 -0.795609 2.683901 -1.55874 2.12132 -2.12132
C 1.55874 -2.683901 0.795609 -3 0 -3
C -0.795609 -3 -1.55874 -2.683901 -2.12132 -2.12132
C -2.683901 -1.55874 -3 -0.795609 -3 0
C -3 0.795609 -2.683901 1.55874 -2.12132 2.12132
C -1.55874 2.683901 -0.795609 3 0 3
z
" style="stroke: #1f2430"/>
    </defs>
    <g clip-path="url(#pc73e4586e7)">
     <use xlink:href="#m347bc66dfc" x="242.937443" y="301.283693" style="fill: #1f2430; stroke: #1f2430"/>
     <use xlink:href="#m347bc66dfc" x="622.573807" y="299.336182" style="fill: #1f2430; stroke: #1f2430"/>
    </g>
   </g>
   <g id="patch_5">
    <path d="M 56.915625 403.29
L 56.915625 92.25
" style="fill: none; stroke: #d7dbe7; stroke-width: 1.25; stroke-linejoin: miter; stroke-linecap: square"/>
   </g>
   <g id="patch_6">
    <path d="M 56.915625 403.29
L 808.595625 403.29
" style="fill: none; stroke: #d7dbe7; stroke-width: 1.25; stroke-linejoin: miter; stroke-linecap: square"/>
   </g>
   <g id="text_9">
    <!-- 1.47% -->
    <g style="fill: #1f2430" transform="translate(227.886662 103.141181) scale(0.1 -0.1)">
     <defs>
      <path id="DejaVuSansMono-31" d="M 844 531
L 1825 531
L 1825 4097
L 769 3859
L 769 4434
L 1819 4666
L 2450 4666
L 2450 531
L 3419 531
L 3419 0
L 844 0
L 844 531
z
" transform="scale(0.015625)"/>
      <path id="DejaVuSansMono-2e" d="M 1528 953
L 2316 953
L 2316 0
L 1528 0
L 1528 953
z
" transform="scale(0.015625)"/>
      <path id="DejaVuSansMono-34" d="M 2297 4091
L 825 1625
L 2297 1625
L 2297 4091
z
M 2194 4666
L 2925 4666
L 2925 1625
L 3547 1625
L 3547 1113
L 2925 1113
L 2925 0
L 2297 0
L 2297 1113
L 319 1113
L 319 1709
L 2194 4666
z
" transform="scale(0.015625)"/>
      <path id="DejaVuSansMono-37" d="M 434 4666
L 3372 4666
L 3372 4397
L 1703 0
L 1044 0
L 2669 4134
L 434 4134
L 434 4666
z
" transform="scale(0.015625)"/>
      <path id="DejaVuSansMono-25" d="M 2175 997
Q 2175 753 2339 587
Q 2503 422 2747 422
Q 2988 422 3155 589
Q 3322 756 3322 997
Q 3322 1238 3153 1406
Q 2984 1575 2747 1575
Q 2503 1575 2339 1409
Q 2175 1244 2175 997
z
M 1753 997
Q 1753 1419 2040 1708
Q 2328 1997 2747 1997
Q 2947 1997 3126 1922
Q 3306 1847 3450 1703
Q 3594 1556 3672 1375
Q 3750 1194 3750 997
Q 3750 581 3459 290
Q 3169 0 2747 0
Q 2322 0 2037 286
Q 1753 572 1753 997
z
M 378 1453
L 269 1753
L 3525 3059
L 3653 2759
L 378 1453
z
M 525 3475
Q 525 3228 689 3064
Q 853 2900 1100 2900
Q 1341 2900 1509 3067
Q 1678 3234 1678 3475
Q 1678 3716 1509 3883
Q 1341 4050 1100 4050
Q 859 4050 692 3884
Q 525 3719 525 3475
z
M 103 3475
Q 103 3897 390 4186
Q 678 4475 1100 4475
Q 1300 4475 1483 4400
Q 1666 4325 1806 4184
Q 1947 4044 2023 3861
Q 2100 3678 2100 3475
Q 2100 3056 1809 2767
Q 1519 2478 1100 2478
Q 678 2478 390 2765
Q 103 3053 103 3475
z
" transform="scale(0.015625)"/>
     </defs>
     <use xlink:href="#DejaVuSansMono-31"/>
     <use xlink:href="#DejaVuSansMono-2e" transform="translate(60.205078 0)"/>
     <use xlink:href="#DejaVuSansMono-34" transform="translate(120.410156 0)"/>
     <use xlink:href="#DejaVuSansMono-37" transform="translate(180.615234 0)"/>
     <use xlink:href="#DejaVuSansMono-25" transform="translate(240.820312 0)"/>
    </g>
   </g>
   <g id="text_10">
    <!-- 0.43% -->
    <g style="fill: #1f2430" transform="translate(607.523026 231.294762) scale(0.1 -0.1)">
     <defs>
      <path id="DejaVuSansMono-30" d="M 1509 2344
Q 1509 2516 1629 2641
Q 1750 2766 1919 2766
Q 2094 2766 2219 2641
Q 2344 2516 2344 2344
Q 2344 2169 2220 2047
Q 2097 1925 1919 1925
Q 1744 1925 1626 2044
Q 1509 2163 1509 2344
z
M 1925 4250
Q 1484 4250 1267 3775
Q 1050 3300 1050 2328
Q 1050 1359 1267 884
Q 1484 409 1925 409
Q 2369 409 2586 884
Q 2803 1359 2803 2328
Q 2803 3300 2586 3775
Q 2369 4250 1925 4250
z
M 1925 4750
Q 2672 4750 3055 4137
Q 3438 3525 3438 2328
Q 3438 1134 3055 521
Q 2672 -91 1925 -91
Q 1178 -91 797 521
Q 416 1134 416 2328
Q 416 3525 797 4137
Q 1178 4750 1925 4750
z
" transform="scale(0.015625)"/>
      <path id="DejaVuSansMono-33" d="M 2425 2497
Q 2884 2375 3128 2064
Q 3372 1753 3372 1288
Q 3372 644 2939 276
Q 2506 -91 1741 -91
Q 1419 -91 1084 -31
Q 750 28 428 141
L 428 769
Q 747 603 1056 522
Q 1366 441 1672 441
Q 2191 441 2469 675
Q 2747 909 2747 1350
Q 2747 1756 2469 1995
Q 2191 2234 1716 2234
L 1234 2234
L 1234 2753
L 1716 2753
Q 2150 2753 2394 2943
Q 2638 3134 2638 3475
Q 2638 3834 2411 4026
Q 2184 4219 1766 4219
Q 1488 4219 1191 4156
Q 894 4094 569 3969
L 569 4550
Q 947 4650 1242 4700
Q 1538 4750 1766 4750
Q 2447 4750 2855 4408
Q 3263 4066 3263 3500
Q 3263 3116 3048 2859
Q 2834 2603 2425 2497
z
" transform="scale(0.015625)"/>
     </defs>
     <use xlink:href="#DejaVuSansMono-30"/>
     <use xlink:href="#DejaVuSansMono-2e" transform="translate(60.205078 0)"/>
     <use xlink:href="#DejaVuSansMono-34" transform="translate(120.410156 0)"/>
     <use xlink:href="#DejaVuSansMono-33" transform="translate(180.615234 0)"/>
     <use xlink:href="#DejaVuSansMono-25" transform="translate(240.820312 0)"/>
    </g>
   </g>
   <g id="legend_1">
    <g id="LineCollection_2">
     <path d="M 660.789375 110.153125
L 660.789375 100.153125
" style="fill: none; stroke: #1f2430; stroke-width: 1.5"/>
    </g>
    <g id="line2d_10">
     <g>
      <use xlink:href="#m1a97ba5143" x="660.789375" y="110.153125" style="fill: #1f2430; stroke: #1f2430"/>
     </g>
    </g>
    <g id="line2d_11">
     <g>
      <use xlink:href="#m1a97ba5143" x="660.789375" y="100.153125" style="fill: #1f2430; stroke: #1f2430"/>
     </g>
    </g>
    <g id="line2d_12"/>
    <g id="line2d_13">
     <g>
      <use xlink:href="#m347bc66dfc" x="660.789375" y="105.153125" style="fill: #1f2430; stroke: #1f2430"/>
     </g>
    </g>
    <g id="text_11">
     <!-- Placebo median and 5-95% -->
     <g style="fill: #1f2430" transform="translate(678.789375 108.653125) scale(0.1 -0.1)">
      <defs>
       <path id="SegoeUI-50" d="M 1113 1694
L 1113 0
L 588 0
L 588 4481
L 1819 4481
Q 2538 4481 2933 4131
Q 3328 3781 3328 3144
Q 3328 2506 2889 2100
Q 2450 1694 1703 1694
L 1113 1694
z
M 1113 4006
L 1113 2169
L 1663 2169
Q 2206 2169 2492 2417
Q 2778 2666 2778 3119
Q 2778 4006 1728 4006
L 1113 4006
z
" transform="scale(0.015625)"/>
       <path id="SegoeUI-6c" d="M 1031 0
L 519 0
L 519 4738
L 1031 4738
L 1031 0
z
" transform="scale(0.015625)"/>
       <path id="SegoeUI-63" d="M 2700 147
Q 2331 -75 1825 -75
Q 1141 -75 720 370
Q 300 816 300 1525
Q 300 2316 753 2795
Q 1206 3275 1963 3275
Q 2384 3275 2706 3119
L 2706 2594
Q 2350 2844 1944 2844
Q 1453 2844 1139 2492
Q 825 2141 825 1569
Q 825 1006 1120 681
Q 1416 356 1913 356
Q 2331 356 2700 634
L 2700 147
z
" transform="scale(0.015625)"/>
       <path id="SegoeUI-62" d="M 1044 463
L 1031 463
L 1031 0
L 519 0
L 519 4738
L 1031 4738
L 1031 2638
L 1044 2638
Q 1422 3275 2150 3275
Q 2766 3275 3114 2845
Q 3463 2416 3463 1694
Q 3463 891 3072 408
Q 2681 -75 2003 -75
Q 1369 -75 1044 463
z
M 1031 1753
L 1031 1306
Q 1031 909 1289 632
Q 1547 356 1944 356
Q 2409 356 2673 712
Q 2938 1069 2938 1703
Q 2938 2238 2691 2541
Q 2444 2844 2022 2844
Q 1575 2844 1303 2533
Q 1031 2222 1031 1753
z
" transform="scale(0.015625)"/>
       <path id="SegoeUI-6f" d="M 1856 -75
Q 1147 -75 723 373
Q 300 822 300 1563
Q 300 2369 740 2822
Q 1181 3275 1931 3275
Q 2647 3275 3048 2834
Q 3450 2394 3450 1613
Q 3450 847 3017 386
Q 2584 -75 1856 -75
z
M 1894 2844
Q 1400 2844 1112 2508
Q 825 2172 825 1581
Q 825 1013 1115 684
Q 1406 356 1894 356
Q 2391 356 2658 678
Q 2925 1000 2925 1594
Q 2925 2194 2658 2519
Q 2391 2844 1894 2844
z
" transform="scale(0.015625)"/>
       <path id="SegoeUI-6d" d="M 5063 0
L 4550 0
L 4550 1838
Q 4550 2369 4386 2606
Q 4222 2844 3834 2844
Q 3506 2844 3276 2544
Q 3047 2244 3047 1825
L 3047 0
L 2534 0
L 2534 1900
Q 2534 2844 1806 2844
Q 1469 2844 1250 2561
Q 1031 2278 1031 1825
L 1031 0
L 519 0
L 519 3200
L 1031 3200
L 1031 2694
L 1044 2694
Q 1384 3275 2038 3275
Q 2366 3275 2609 3092
Q 2853 2909 2944 2613
Q 3300 3275 4006 3275
Q 5063 3275 5063 1972
L 5063 0
z
" transform="scale(0.015625)"/>
       <path id="SegoeUI-64" d="M 3250 0
L 2738 0
L 2738 544
L 2725 544
Q 2369 -75 1625 -75
Q 1022 -75 661 354
Q 300 784 300 1525
Q 300 2319 700 2797
Q 1100 3275 1766 3275
Q 2425 3275 2725 2756
L 2738 2756
L 2738 4738
L 3250 4738
L 3250 0
z
M 2738 1447
L 2738 1919
Q 2738 2306 2481 2575
Q 2225 2844 1831 2844
Q 1363 2844 1094 2500
Q 825 2156 825 1550
Q 825 997 1083 676
Q 1341 356 1775 356
Q 2203 356 2470 665
Q 2738 975 2738 1447
z
" transform="scale(0.015625)"/>
       <path id="SegoeUI-69" d="M 781 4013
Q 644 4013 547 4106
Q 450 4200 450 4344
Q 450 4488 547 4583
Q 644 4678 781 4678
Q 922 4678 1020 4583
Q 1119 4488 1119 4344
Q 1119 4206 1020 4109
Q 922 4013 781 4013
z
M 1031 0
L 519 0
L 519 3200
L 1031 3200
L 1031 0
z
" transform="scale(0.015625)"/>
       <path id="SegoeUI-2d" d="M 2156 1581
L 450 1581
L 450 1984
L 2156 1984
L 2156 1581
z
" transform="scale(0.015625)"/>
       <path id="SegoeUI-39" d="M 3138 2509
Q 3138 1894 3016 1414
Q 2894 934 2659 601
Q 2425 269 2087 95
Q 1750 -78 1319 -78
Q 875 -78 538 78
L 538 569
Q 909 359 1331 359
Q 1634 359 1873 484
Q 2113 609 2278 848
Q 2444 1088 2531 1438
Q 2619 1788 2619 2241
L 2606 2241
Q 2319 1663 1606 1663
Q 1319 1663 1078 1764
Q 838 1866 663 2052
Q 488 2238 391 2494
Q 294 2750 294 3059
Q 294 3391 401 3666
Q 509 3941 701 4139
Q 894 4338 1158 4447
Q 1422 4556 1734 4556
Q 2072 4556 2333 4420
Q 2594 4284 2772 4023
Q 2950 3763 3044 3381
Q 3138 3000 3138 2509
z
M 2584 2969
Q 2584 3228 2517 3440
Q 2450 3653 2331 3804
Q 2213 3956 2048 4039
Q 1884 4122 1691 4122
Q 1506 4122 1347 4048
Q 1188 3975 1070 3842
Q 953 3709 886 3526
Q 819 3344 819 3128
Q 819 2891 883 2703
Q 947 2516 1065 2386
Q 1184 2256 1351 2187
Q 1519 2119 1722 2119
Q 1900 2119 2058 2186
Q 2216 2253 2333 2367
Q 2450 2481 2517 2636
Q 2584 2791 2584 2969
z
" transform="scale(0.015625)"/>
       <path id="SegoeUI-25" d="M 1263 2234
Q 800 2234 525 2539
Q 250 2844 250 3353
Q 250 3909 540 4229
Q 831 4550 1325 4550
Q 1803 4550 2067 4253
Q 2331 3956 2331 3419
Q 2331 2881 2036 2557
Q 1741 2234 1263 2234
z
M 1306 4206
Q 1009 4206 837 3986
Q 666 3766 666 3381
Q 666 3003 834 2792
Q 1003 2581 1294 2581
Q 1588 2581 1753 2800
Q 1919 3019 1919 3406
Q 1919 3784 1755 3995
Q 1591 4206 1306 4206
z
M 4263 4481
L 1388 -31
L 941 -31
L 3813 4481
L 4263 4481
z
M 3931 -69
Q 3469 -69 3194 237
Q 2919 544 2919 1050
Q 2919 1606 3212 1929
Q 3506 2253 3994 2253
Q 4469 2253 4734 1953
Q 5000 1653 5000 1113
Q 5000 578 4704 254
Q 4409 -69 3931 -69
z
M 3975 1900
Q 3675 1900 3504 1681
Q 3334 1463 3334 1075
Q 3334 703 3503 492
Q 3672 281 3963 281
Q 4256 281 4422 501
Q 4588 722 4588 1106
Q 4588 1488 4423 1694
Q 4259 1900 3975 1900
z
" transform="scale(0.015625)"/>
      </defs>
      <use xlink:href="#SegoeUI-50"/>
      <use xlink:href="#SegoeUI-6c" transform="translate(56.005859 0)"/>
      <use xlink:href="#SegoeUI-61" transform="translate(80.224609 0)"/>
      <use xlink:href="#SegoeUI-63" transform="translate(131.103516 0)"/>
      <use xlink:href="#SegoeUI-65" transform="translate(177.294922 0)"/>
      <use xlink:href="#SegoeUI-62" transform="translate(229.589844 0)"/>
      <use xlink:href="#SegoeUI-6f" transform="translate(288.378906 0)"/>
      <use xlink:href="#SegoeUI-20" transform="translate(346.972656 0)"/>
      <use xlink:href="#SegoeUI-6d" transform="translate(374.365234 0)"/>
      <use xlink:href="#SegoeUI-65" transform="translate(460.498047 0)"/>
      <use xlink:href="#SegoeUI-64" transform="translate(512.792969 0)"/>
      <use xlink:href="#SegoeUI-69" transform="translate(571.679688 0)"/>
      <use xlink:href="#SegoeUI-61" transform="translate(595.898438 0)"/>
      <use xlink:href="#SegoeUI-6e" transform="translate(646.777344 0)"/>
      <use xlink:href="#SegoeUI-20" transform="translate(703.369141 0)"/>
      <use xlink:href="#SegoeUI-61" transform="translate(730.761719 0)"/>
      <use xlink:href="#SegoeUI-6e" transform="translate(781.640625 0)"/>
      <use xlink:href="#SegoeUI-64" transform="translate(838.232422 0)"/>
      <use xlink:href="#SegoeUI-20" transform="translate(897.119141 0)"/>
      <use xlink:href="#SegoeUI-35" transform="translate(924.511719 0)"/>
      <use xlink:href="#SegoeUI-2d" transform="translate(978.417969 0)"/>
      <use xlink:href="#SegoeUI-39" transform="translate(1018.408203 0)"/>
      <use xlink:href="#SegoeUI-35" transform="translate(1072.314453 0)"/>
      <use xlink:href="#SegoeUI-25" transform="translate(1126.220703 0)"/>
     </g>
    </g>
   </g>
  </g>
  <g id="text_12">
   <!-- Large ETF-flow days are compared with non-shock placebo samples -->
   <g style="fill: #1f2430" transform="translate(30.995625 19.2225) scale(0.16 -0.16)">
    <defs>
     <path id="SegoeUI-Semibold-4c" d="M 3034 0
L 553 0
L 553 4481
L 1297 4481
L 1297 628
L 3034 628
L 3034 0
z
" transform="scale(0.015625)"/>
     <path id="SegoeUI-Semibold-61" d="M 2928 0
L 2225 0
L 2225 500
L 2213 500
Q 1881 -75 1241 -75
Q 769 -75 501 181
Q 234 438 234 859
Q 234 1766 1278 1916
L 2228 2050
Q 2228 2734 1578 2734
Q 1006 2734 547 2341
L 547 2975
Q 1053 3275 1716 3275
Q 2928 3275 2928 2081
L 2928 0
z
M 2228 1572
L 1556 1478
Q 1244 1438 1086 1327
Q 928 1216 928 938
Q 928 734 1073 604
Q 1219 475 1463 475
Q 1794 475 2011 708
Q 2228 941 2228 1294
L 2228 1572
z
" transform="scale(0.015625)"/>
     <path id="SegoeUI-Semibold-72" d="M 2328 2509
Q 2197 2613 1950 2613
Q 1628 2613 1412 2322
Q 1197 2031 1197 1531
L 1197 0
L 472 0
L 472 3200
L 1197 3200
L 1197 2541
L 1209 2541
Q 1316 2878 1536 3067
Q 1756 3256 2028 3256
Q 2225 3256 2328 3197
L 2328 2509
z
" transform="scale(0.015625)"/>
     <path id="SegoeUI-Semibold-67" d="M 3384 256
Q 3384 -1506 1613 -1506
Q 988 -1506 522 -1297
L 522 -634
Q 1047 -934 1519 -934
Q 2659 -934 2659 188
L 2659 538
L 2647 538
Q 2288 -75 1566 -75
Q 981 -75 623 351
Q 266 778 266 1497
Q 266 2313 650 2794
Q 1034 3275 1706 3275
Q 2341 3275 2647 2756
L 2659 2756
L 2659 3200
L 3384 3200
L 3384 256
z
M 2666 1466
L 2666 1881
Q 2666 2219 2442 2458
Q 2219 2697 1884 2697
Q 1472 2697 1239 2392
Q 1006 2088 1006 1541
Q 1006 1069 1229 786
Q 1453 503 1822 503
Q 2197 503 2431 773
Q 2666 1044 2666 1466
z
" transform="scale(0.015625)"/>
     <path id="SegoeUI-Semibold-65" d="M 3181 1403
L 1000 1403
Q 1013 959 1273 718
Q 1534 478 1991 478
Q 2503 478 2931 784
L 2931 200
Q 2494 -75 1775 -75
Q 1069 -75 667 361
Q 266 797 266 1588
Q 266 2334 708 2804
Q 1150 3275 1806 3275
Q 2463 3275 2822 2853
Q 3181 2431 3181 1681
L 3181 1403
z
M 2481 1916
Q 2478 2306 2297 2523
Q 2116 2741 1797 2741
Q 1484 2741 1267 2512
Q 1050 2284 1000 1916
L 2481 1916
z
" transform="scale(0.015625)"/>
     <path id="SegoeUI-Semibold-20" transform="scale(0.015625)"/>
     <path id="SegoeUI-Semibold-45" d="M 3069 0
L 553 0
L 553 4481
L 2969 4481
L 2969 3850
L 1297 3850
L 1297 2581
L 2838 2581
L 2838 1953
L 1297 1953
L 1297 628
L 3069 628
L 3069 0
z
" transform="scale(0.015625)"/>
     <path id="SegoeUI-Semibold-54" d="M 3428 3850
L 2141 3850
L 2141 0
L 1397 0
L 1397 3850
L 113 3850
L 113 4481
L 3428 4481
L 3428 3850
z
" transform="scale(0.015625)"/>
     <path id="SegoeUI-Semibold-46" d="M 2972 3850
L 1297 3850
L 1297 2503
L 2841 2503
L 2841 1875
L 1297 1875
L 1297 0
L 553 0
L 553 4481
L 2972 4481
L 2972 3850
z
" transform="scale(0.015625)"/>
     <path id="SegoeUI-Semibold-2d" d="M 2156 1481
L 450 1481
L 450 2016
L 2156 2016
L 2156 1481
z
" transform="scale(0.015625)"/>
     <path id="SegoeUI-Semibold-66" d="M 2281 4147
Q 2134 4231 1947 4231
Q 1419 4231 1419 3634
L 1419 3200
L 2163 3200
L 2163 2631
L 1422 2631
L 1422 0
L 697 0
L 697 2631
L 150 2631
L 150 3200
L 697 3200
L 697 3719
Q 697 4225 1028 4517
Q 1359 4809 1856 4809
Q 2125 4809 2281 4750
L 2281 4147
z
" transform="scale(0.015625)"/>
     <path id="SegoeUI-Semibold-6c" d="M 1200 0
L 472 0
L 472 4738
L 1200 4738
L 1200 0
z
" transform="scale(0.015625)"/>
     <path id="SegoeUI-Semibold-6f" d="M 1891 -75
Q 1150 -75 708 373
Q 266 822 266 1563
Q 266 2369 727 2822
Q 1188 3275 1969 3275
Q 2719 3275 3137 2834
Q 3556 2394 3556 1613
Q 3556 847 3104 386
Q 2653 -75 1891 -75
z
M 1925 2697
Q 1500 2697 1253 2400
Q 1006 2103 1006 1581
Q 1006 1078 1256 789
Q 1506 500 1925 500
Q 2353 500 2583 784
Q 2813 1069 2813 1594
Q 2813 2122 2583 2409
Q 2353 2697 1925 2697
z
" transform="scale(0.015625)"/>
     <path id="SegoeUI-Semibold-77" d="M 4775 3200
L 3831 0
L 3072 0
L 2491 2169
Q 2456 2294 2447 2450
L 2434 2450
Q 2428 2344 2378 2175
L 1747 0
L 1003 0
L 63 3200
L 813 3200
L 1394 894
Q 1422 791 1431 619
L 1453 619
Q 1463 750 1503 900
L 2150 3200
L 2831 3200
L 3406 884
Q 3434 775 3447 609
L 3469 609
Q 3475 725 3516 884
L 4084 3200
L 4775 3200
z
" transform="scale(0.015625)"/>
     <path id="SegoeUI-Semibold-64" d="M 3381 0
L 2656 0
L 2656 544
L 2644 544
Q 2294 -75 1566 -75
Q 975 -75 620 354
Q 266 784 266 1525
Q 266 2319 658 2797
Q 1050 3275 1703 3275
Q 2350 3275 2644 2756
L 2656 2756
L 2656 4738
L 3381 4738
L 3381 0
z
M 2666 1463
L 2666 1881
Q 2666 2222 2444 2459
Q 2222 2697 1878 2697
Q 1472 2697 1239 2394
Q 1006 2091 1006 1553
Q 1006 1066 1229 783
Q 1453 500 1831 500
Q 2203 500 2434 773
Q 2666 1047 2666 1463
z
" transform="scale(0.015625)"/>
     <path id="SegoeUI-Semibold-79" d="M 3244 3200
L 1800 -513
Q 1350 -1506 538 -1506
Q 309 -1506 156 -1466
L 156 -863
Q 328 -919 469 -919
Q 875 -919 1075 -519
L 1291 6
L 19 3200
L 822 3200
L 1584 875
Q 1597 831 1641 644
L 1656 644
Q 1672 716 1713 869
L 2513 3200
L 3244 3200
z
" transform="scale(0.015625)"/>
     <path id="SegoeUI-Semibold-73" d="M 272 100
L 272 772
Q 678 463 1169 463
Q 1825 463 1825 850
Q 1825 959 1769 1036
Q 1713 1113 1617 1172
Q 1522 1231 1392 1278
Q 1263 1325 1103 1384
Q 906 1463 748 1550
Q 591 1638 486 1748
Q 381 1859 328 2000
Q 275 2141 275 2328
Q 275 2559 384 2736
Q 494 2913 678 3033
Q 863 3153 1097 3214
Q 1331 3275 1581 3275
Q 2025 3275 2375 3141
L 2375 2506
Q 2038 2738 1600 2738
Q 1463 2738 1352 2709
Q 1241 2681 1162 2631
Q 1084 2581 1040 2511
Q 997 2441 997 2356
Q 997 2253 1040 2181
Q 1084 2109 1170 2054
Q 1256 2000 1376 1954
Q 1497 1909 1653 1856
Q 1859 1772 2023 1684
Q 2188 1597 2303 1486
Q 2419 1375 2481 1229
Q 2544 1084 2544 884
Q 2544 641 2431 459
Q 2319 278 2131 159
Q 1944 41 1698 -17
Q 1453 -75 1181 -75
Q 656 -75 272 100
z
" transform="scale(0.015625)"/>
     <path id="SegoeUI-Semibold-63" d="M 2763 147
Q 2378 -75 1853 -75
Q 1141 -75 703 370
Q 266 816 266 1525
Q 266 2316 736 2795
Q 1206 3275 1994 3275
Q 2431 3275 2766 3122
L 2766 2447
Q 2431 2697 2053 2697
Q 1594 2697 1300 2386
Q 1006 2075 1006 1572
Q 1006 1075 1282 787
Q 1559 500 2025 500
Q 2416 500 2763 778
L 2763 147
z
" transform="scale(0.015625)"/>
     <path id="SegoeUI-Semibold-6d" d="M 5256 0
L 4531 0
L 4531 1744
Q 4531 2247 4389 2472
Q 4247 2697 3909 2697
Q 3625 2697 3426 2412
Q 3228 2128 3228 1731
L 3228 0
L 2500 0
L 2500 1803
Q 2500 2697 1869 2697
Q 1575 2697 1386 2428
Q 1197 2159 1197 1731
L 1197 0
L 472 0
L 472 3200
L 1197 3200
L 1197 2694
L 1209 2694
Q 1556 3275 2219 3275
Q 2550 3275 2798 3092
Q 3047 2909 3138 2613
Q 3494 3275 4200 3275
Q 5256 3275 5256 1972
L 5256 0
z
" transform="scale(0.015625)"/>
     <path id="SegoeUI-Semibold-70" d="M 1209 472
L 1197 472
L 1197 -1472
L 472 -1472
L 472 3200
L 1197 3200
L 1197 2638
L 1209 2638
Q 1581 3275 2297 3275
Q 2906 3275 3247 2847
Q 3588 2419 3588 1697
Q 3588 897 3203 415
Q 2819 -66 2153 -66
Q 1541 -66 1209 472
z
M 1191 1734
L 1191 1338
Q 1191 988 1414 744
Q 1638 500 1981 500
Q 2384 500 2614 814
Q 2844 1128 2844 1691
Q 2844 2163 2630 2430
Q 2416 2697 2050 2697
Q 1663 2697 1427 2422
Q 1191 2147 1191 1734
z
" transform="scale(0.015625)"/>
     <path id="SegoeUI-Semibold-69" d="M 838 3872
Q 659 3872 532 3987
Q 406 4103 406 4281
Q 406 4459 532 4578
Q 659 4697 838 4697
Q 1022 4697 1150 4578
Q 1278 4459 1278 4281
Q 1278 4113 1150 3992
Q 1022 3872 838 3872
z
M 1197 0
L 472 0
L 472 3200
L 1197 3200
L 1197 0
z
" transform="scale(0.015625)"/>
     <path id="SegoeUI-Semibold-74" d="M 2159 34
Q 1947 -72 1600 -72
Q 669 -72 669 822
L 669 2631
L 134 2631
L 134 3200
L 669 3200
L 669 3941
L 1394 4147
L 1394 3200
L 2159 3200
L 2159 2631
L 1394 2631
L 1394 1031
Q 1394 747 1497 625
Q 1600 503 1841 503
Q 2025 503 2159 609
L 2159 34
z
" transform="scale(0.015625)"/>
     <path id="SegoeUI-Semibold-68" d="M 3316 0
L 2591 0
L 2591 1750
Q 2591 2700 1956 2700
Q 1638 2700 1419 2425
Q 1200 2150 1200 1722
L 1200 0
L 472 0
L 472 4738
L 1200 4738
L 1200 2669
L 1213 2669
Q 1575 3275 2250 3275
Q 3316 3275 3316 1972
L 3316 0
z
" transform="scale(0.015625)"/>
     <path id="SegoeUI-Semibold-6e" d="M 3322 0
L 2597 0
L 2597 1803
Q 2597 2700 1963 2700
Q 1631 2700 1415 2451
Q 1200 2203 1200 1825
L 1200 0
L 472 0
L 472 3200
L 1200 3200
L 1200 2669
L 1213 2669
Q 1572 3275 2250 3275
Q 2772 3275 3047 2936
Q 3322 2597 3322 1956
L 3322 0
z
" transform="scale(0.015625)"/>
     <path id="SegoeUI-Semibold-6b" d="M 3375 0
L 2456 0
L 1213 1538
L 1200 1538
L 1200 0
L 472 0
L 472 4738
L 1200 4738
L 1200 1734
L 1213 1734
L 2388 3200
L 3259 3200
L 1938 1656
L 3375 0
z
" transform="scale(0.015625)"/>
     <path id="SegoeUI-Semibold-62" d="M 1209 463
L 1197 463
L 1197 0
L 472 0
L 472 4738
L 1197 4738
L 1197 2638
L 1209 2638
Q 1581 3275 2297 3275
Q 2903 3275 3245 2845
Q 3588 2416 3588 1694
Q 3588 891 3203 408
Q 2819 -75 2153 -75
Q 1528 -75 1209 463
z
M 1191 1734
L 1191 1338
Q 1191 988 1414 744
Q 1638 500 1981 500
Q 2384 500 2614 814
Q 2844 1128 2844 1691
Q 2844 2163 2630 2430
Q 2416 2697 2050 2697
Q 1663 2697 1427 2422
Q 1191 2147 1191 1734
z
" transform="scale(0.015625)"/>
    </defs>
    <use xlink:href="#SegoeUI-Semibold-4c"/>
    <use xlink:href="#SegoeUI-Semibold-61" transform="translate(48.876953 0)"/>
    <use xlink:href="#SegoeUI-Semibold-72" transform="translate(101.074219 0)"/>
    <use xlink:href="#SegoeUI-Semibold-67" transform="translate(137.210938 0)"/>
    <use xlink:href="#SegoeUI-Semibold-65" transform="translate(197.464844 0)"/>
    <use xlink:href="#SegoeUI-Semibold-20" transform="translate(250.589844 0)"/>
    <use xlink:href="#SegoeUI-Semibold-45" transform="translate(278.080078 0)"/>
    <use xlink:href="#SegoeUI-Semibold-54" transform="translate(330.337891 0)"/>
    <use xlink:href="#SegoeUI-Semibold-46" transform="translate(385.513672 0)"/>
    <use xlink:href="#SegoeUI-Semibold-2d" transform="translate(435.757812 0)"/>
    <use xlink:href="#SegoeUI-Semibold-66" transform="translate(475.943359 0)"/>
    <use xlink:href="#SegoeUI-Semibold-6c" transform="translate(510.416016 0)"/>
    <use xlink:href="#SegoeUI-Semibold-6f" transform="translate(536.539062 0)"/>
    <use xlink:href="#SegoeUI-Semibold-77" transform="translate(596.255859 0)"/>
    <use xlink:href="#SegoeUI-Semibold-20" transform="translate(671.890625 0)"/>
    <use xlink:href="#SegoeUI-Semibold-64" transform="translate(699.380859 0)"/>
    <use xlink:href="#SegoeUI-Semibold-61" transform="translate(759.634766 0)"/>
    <use xlink:href="#SegoeUI-Semibold-79" transform="translate(811.832031 0)"/>
    <use xlink:href="#SegoeUI-Semibold-73" transform="translate(862.662109 0)"/>
    <use xlink:href="#SegoeUI-Semibold-20" transform="translate(905.777344 0)"/>
    <use xlink:href="#SegoeUI-Semibold-61" transform="translate(933.267578 0)"/>
    <use xlink:href="#SegoeUI-Semibold-72" transform="translate(985.464844 0)"/>
    <use xlink:href="#SegoeUI-Semibold-65" transform="translate(1021.601562 0)"/>
    <use xlink:href="#SegoeUI-Semibold-20" transform="translate(1074.726562 0)"/>
    <use xlink:href="#SegoeUI-Semibold-63" transform="translate(1102.216797 0)"/>
    <use xlink:href="#SegoeUI-Semibold-6f" transform="translate(1149.238281 0)"/>
    <use xlink:href="#SegoeUI-Semibold-6d" transform="translate(1208.955078 0)"/>
    <use xlink:href="#SegoeUI-Semibold-70" transform="translate(1297.529297 0)"/>
    <use xlink:href="#SegoeUI-Semibold-61" transform="translate(1356.658203 0)"/>
    <use xlink:href="#SegoeUI-Semibold-72" transform="translate(1408.855469 0)"/>
    <use xlink:href="#SegoeUI-Semibold-65" transform="translate(1444.992188 0)"/>
    <use xlink:href="#SegoeUI-Semibold-64" transform="translate(1498.117188 0)"/>
    <use xlink:href="#SegoeUI-Semibold-20" transform="translate(1558.371094 0)"/>
    <use xlink:href="#SegoeUI-Semibold-77" transform="translate(1585.861328 0)"/>
    <use xlink:href="#SegoeUI-Semibold-69" transform="translate(1661.496094 0)"/>
    <use xlink:href="#SegoeUI-Semibold-74" transform="translate(1687.619141 0)"/>
    <use xlink:href="#SegoeUI-Semibold-68" transform="translate(1723.751953 0)"/>
    <use xlink:href="#SegoeUI-Semibold-20" transform="translate(1781.955078 0)"/>
    <use xlink:href="#SegoeUI-Semibold-6e" transform="translate(1809.445312 0)"/>
    <use xlink:href="#SegoeUI-Semibold-6f" transform="translate(1867.794922 0)"/>
    <use xlink:href="#SegoeUI-Semibold-6e" transform="translate(1927.511719 0)"/>
    <use xlink:href="#SegoeUI-Semibold-2d" transform="translate(1985.861328 0)"/>
    <use xlink:href="#SegoeUI-Semibold-73" transform="translate(2026.046875 0)"/>
    <use xlink:href="#SegoeUI-Semibold-68" transform="translate(2069.162109 0)"/>
    <use xlink:href="#SegoeUI-Semibold-6f" transform="translate(2127.365234 0)"/>
    <use xlink:href="#SegoeUI-Semibold-63" transform="translate(2187.082031 0)"/>
    <use xlink:href="#SegoeUI-Semibold-6b" transform="translate(2234.103516 0)"/>
    <use xlink:href="#SegoeUI-Semibold-20" transform="translate(2286.59375 0)"/>
    <use xlink:href="#SegoeUI-Semibold-70" transform="translate(2314.083984 0)"/>
    <use xlink:href="#SegoeUI-Semibold-6c" transform="translate(2374.337891 0)"/>
    <use xlink:href="#SegoeUI-Semibold-61" transform="translate(2400.460938 0)"/>
    <use xlink:href="#SegoeUI-Semibold-63" transform="translate(2452.658203 0)"/>
    <use xlink:href="#SegoeUI-Semibold-65" transform="translate(2499.679688 0)"/>
    <use xlink:href="#SegoeUI-Semibold-62" transform="translate(2552.804688 0)"/>
    <use xlink:href="#SegoeUI-Semibold-6f" transform="translate(2613.058594 0)"/>
    <use xlink:href="#SegoeUI-Semibold-20" transform="translate(2672.775391 0)"/>
    <use xlink:href="#SegoeUI-Semibold-73" transform="translate(2700.265625 0)"/>
    <use xlink:href="#SegoeUI-Semibold-61" transform="translate(2743.380859 0)"/>
    <use xlink:href="#SegoeUI-Semibold-6d" transform="translate(2795.578125 0)"/>
    <use xlink:href="#SegoeUI-Semibold-70" transform="translate(2884.152344 0)"/>
    <use xlink:href="#SegoeUI-Semibold-6c" transform="translate(2944.40625 0)"/>
    <use xlink:href="#SegoeUI-Semibold-65" transform="translate(2970.529297 0)"/>
    <use xlink:href="#SegoeUI-Semibold-73" transform="translate(3023.654297 0)"/>
   </g>
  </g>
  <g id="text_13">
   <!-- Bars show shock-day mean return; intervals show placebo 5th-95th percentiles. -->
   <g style="fill: #6f768a" transform="translate(30.995625 39.643437) scale(0.11 -0.11)">
    <defs>
     <path id="SegoeUI-73" d="M 325 116
L 325 666
Q 744 356 1247 356
Q 1922 356 1922 806
Q 1922 934 1864 1023
Q 1806 1113 1707 1181
Q 1609 1250 1476 1304
Q 1344 1359 1191 1419
Q 978 1503 817 1589
Q 656 1675 548 1783
Q 441 1891 386 2028
Q 331 2166 331 2350
Q 331 2575 434 2748
Q 538 2922 709 3039
Q 881 3156 1101 3215
Q 1322 3275 1556 3275
Q 1972 3275 2300 3131
L 2300 2613
Q 1947 2844 1488 2844
Q 1344 2844 1228 2811
Q 1113 2778 1030 2718
Q 947 2659 901 2576
Q 856 2494 856 2394
Q 856 2269 901 2184
Q 947 2100 1034 2034
Q 1122 1969 1247 1916
Q 1372 1863 1531 1800
Q 1744 1719 1912 1633
Q 2081 1547 2200 1439
Q 2319 1331 2383 1190
Q 2447 1050 2447 856
Q 2447 619 2342 444
Q 2238 269 2063 153
Q 1888 38 1659 -18
Q 1431 -75 1181 -75
Q 688 -75 325 116
z
" transform="scale(0.015625)"/>
     <path id="SegoeUI-68" d="M 3175 0
L 2663 0
L 2663 1844
Q 2663 2844 1919 2844
Q 1544 2844 1287 2555
Q 1031 2266 1031 1813
L 1031 0
L 519 0
L 519 4738
L 1031 4738
L 1031 2669
L 1044 2669
Q 1413 3275 2094 3275
Q 3175 3275 3175 1972
L 3175 0
z
" transform="scale(0.015625)"/>
     <path id="SegoeUI-77" d="M 4550 3200
L 3591 0
L 3059 0
L 2400 2291
Q 2363 2422 2350 2588
L 2338 2588
Q 2328 2475 2272 2297
L 1556 0
L 1044 0
L 75 3200
L 613 3200
L 1275 794
Q 1306 684 1319 506
L 1344 506
Q 1353 644 1400 800
L 2138 3200
L 2606 3200
L 3269 788
Q 3300 672 3316 500
L 3341 500
Q 3347 622 3394 788
L 4044 3200
L 4550 3200
z
" transform="scale(0.015625)"/>
     <path id="SegoeUI-6b" d="M 3175 0
L 2456 0
L 1044 1538
L 1031 1538
L 1031 0
L 519 0
L 519 4738
L 1031 4738
L 1031 1734
L 1044 1734
L 2388 3200
L 3059 3200
L 1575 1656
L 3175 0
z
" transform="scale(0.015625)"/>
     <path id="SegoeUI-79" d="M 3066 3200
L 1594 -513
Q 1200 -1506 488 -1506
Q 288 -1506 153 -1466
L 153 -1006
Q 319 -1063 456 -1063
Q 844 -1063 1038 -600
L 1294 6
L 44 3200
L 613 3200
L 1478 738
Q 1494 691 1544 494
L 1563 494
Q 1578 569 1625 731
L 2534 3200
L 3066 3200
z
" transform="scale(0.015625)"/>
     <path id="SegoeUI-3b" d="M 706 2575
Q 559 2575 457 2678
Q 356 2781 356 2925
Q 356 3069 457 3169
Q 559 3269 706 3269
Q 850 3269 953 3169
Q 1056 3069 1056 2925
Q 1056 2781 953 2678
Q 850 2575 706 2575
z
M 988 713
L 488 -825
L 122 -825
L 488 713
L 988 713
z
" transform="scale(0.015625)"/>
     <path id="SegoeUI-76" d="M 3034 3200
L 1759 0
L 1256 0
L 44 3200
L 606 3200
L 1419 875
Q 1509 619 1531 428
L 1544 428
Q 1575 669 1644 863
L 2494 3200
L 3034 3200
z
" transform="scale(0.015625)"/>
     <path id="SegoeUI-70" d="M 1044 463
L 1031 463
L 1031 -1472
L 519 -1472
L 519 3200
L 1031 3200
L 1031 2638
L 1044 2638
Q 1422 3275 2150 3275
Q 2769 3275 3116 2845
Q 3463 2416 3463 1694
Q 3463 891 3072 408
Q 2681 -75 2003 -75
Q 1381 -75 1044 463
z
M 1031 1753
L 1031 1306
Q 1031 909 1289 632
Q 1547 356 1944 356
Q 2409 356 2673 712
Q 2938 1069 2938 1703
Q 2938 2238 2691 2541
Q 2444 2844 2022 2844
Q 1575 2844 1303 2533
Q 1031 2222 1031 1753
z
" transform="scale(0.015625)"/>
    </defs>
    <use xlink:href="#SegoeUI-42"/>
    <use xlink:href="#SegoeUI-61" transform="translate(57.324219 0)"/>
    <use xlink:href="#SegoeUI-72" transform="translate(108.203125 0)"/>
    <use xlink:href="#SegoeUI-73" transform="translate(143.59375 0)"/>
    <use xlink:href="#SegoeUI-20" transform="translate(186.025391 0)"/>
    <use xlink:href="#SegoeUI-73" transform="translate(213.417969 0)"/>
    <use xlink:href="#SegoeUI-68" transform="translate(255.849609 0)"/>
    <use xlink:href="#SegoeUI-6f" transform="translate(312.441406 0)"/>
    <use xlink:href="#SegoeUI-77" transform="translate(371.035156 0)"/>
    <use xlink:href="#SegoeUI-20" transform="translate(443.300781 0)"/>
    <use xlink:href="#SegoeUI-73" transform="translate(470.693359 0)"/>
    <use xlink:href="#SegoeUI-68" transform="translate(513.125 0)"/>
    <use xlink:href="#SegoeUI-6f" transform="translate(569.716797 0)"/>
    <use xlink:href="#SegoeUI-63" transform="translate(628.310547 0)"/>
    <use xlink:href="#SegoeUI-6b" transform="translate(674.501953 0)"/>
    <use xlink:href="#SegoeUI-2d" transform="translate(717.458984 0)"/>
    <use xlink:href="#SegoeUI-64" transform="translate(757.449219 0)"/>
    <use xlink:href="#SegoeUI-61" transform="translate(816.335938 0)"/>
    <use xlink:href="#SegoeUI-79" transform="translate(867.214844 0)"/>
    <use xlink:href="#SegoeUI-20" transform="translate(915.603516 0)"/>
    <use xlink:href="#SegoeUI-6d" transform="translate(942.996094 0)"/>
    <use xlink:href="#SegoeUI-65" transform="translate(1029.128906 0)"/>
    <use xlink:href="#SegoeUI-61" transform="translate(1081.423828 0)"/>
    <use xlink:href="#SegoeUI-6e" transform="translate(1132.302734 0)"/>
    <use xlink:href="#SegoeUI-20" transform="translate(1188.894531 0)"/>
    <use xlink:href="#SegoeUI-72" transform="translate(1216.287109 0)"/>
    <use xlink:href="#SegoeUI-65" transform="translate(1249.677734 0)"/>
    <use xlink:href="#SegoeUI-74" transform="translate(1301.972656 0)"/>
    <use xlink:href="#SegoeUI-75" transform="translate(1335.859375 0)"/>
    <use xlink:href="#SegoeUI-72" transform="translate(1392.451172 0)"/>
    <use xlink:href="#SegoeUI-6e" transform="translate(1426.966797 0)"/>
    <use xlink:href="#SegoeUI-3b" transform="translate(1483.558594 0)"/>
    <use xlink:href="#SegoeUI-20" transform="translate(1505.238281 0)"/>
    <use xlink:href="#SegoeUI-69" transform="translate(1532.630859 0)"/>
    <use xlink:href="#SegoeUI-6e" transform="translate(1556.849609 0)"/>
    <use xlink:href="#SegoeUI-74" transform="translate(1613.441406 0)"/>
    <use xlink:href="#SegoeUI-65" transform="translate(1646.578125 0)"/>
    <use xlink:href="#SegoeUI-72" transform="translate(1698.873047 0)"/>
    <use xlink:href="#SegoeUI-76" transform="translate(1737.638672 0)"/>
    <use xlink:href="#SegoeUI-61" transform="translate(1783.789062 0)"/>
    <use xlink:href="#SegoeUI-6c" transform="translate(1834.667969 0)"/>
    <use xlink:href="#SegoeUI-73" transform="translate(1858.886719 0)"/>
    <use xlink:href="#SegoeUI-20" transform="translate(1901.318359 0)"/>
    <use xlink:href="#SegoeUI-73" transform="translate(1928.710938 0)"/>
    <use xlink:href="#SegoeUI-68" transform="translate(1971.142578 0)"/>
    <use xlink:href="#SegoeUI-6f" transform="translate(2027.734375 0)"/>
    <use xlink:href="#SegoeUI-77" transform="translate(2086.328125 0)"/>
    <use xlink:href="#SegoeUI-20" transform="translate(2158.59375 0)"/>
    <use xlink:href="#SegoeUI-70" transform="translate(2185.986328 0)"/>
    <use xlink:href="#SegoeUI-6c" transform="translate(2244.775391 0)"/>
    <use xlink:href="#SegoeUI-61" transform="translate(2268.994141 0)"/>
    <use xlink:href="#SegoeUI-63" transform="translate(2319.873047 0)"/>
    <use xlink:href="#SegoeUI-65" transform="translate(2366.064453 0)"/>
    <use xlink:href="#SegoeUI-62" transform="translate(2418.359375 0)"/>
    <use xlink:href="#SegoeUI-6f" transform="translate(2477.148438 0)"/>
    <use xlink:href="#SegoeUI-20" transform="translate(2535.742188 0)"/>
    <use xlink:href="#SegoeUI-35" transform="translate(2563.134766 0)"/>
    <use xlink:href="#SegoeUI-74" transform="translate(2617.041016 0)"/>
    <use xlink:href="#SegoeUI-68" transform="translate(2650.927734 0)"/>
    <use xlink:href="#SegoeUI-2d" transform="translate(2707.519531 0)"/>
    <use xlink:href="#SegoeUI-39" transform="translate(2747.509766 0)"/>
    <use xlink:href="#SegoeUI-35" transform="translate(2801.416016 0)"/>
    <use xlink:href="#SegoeUI-74" transform="translate(2855.322266 0)"/>
    <use xlink:href="#SegoeUI-68" transform="translate(2889.208984 0)"/>
    <use xlink:href="#SegoeUI-20" transform="translate(2945.800781 0)"/>
    <use xlink:href="#SegoeUI-70" transform="translate(2973.193359 0)"/>
    <use xlink:href="#SegoeUI-65" transform="translate(3031.982422 0)"/>
    <use xlink:href="#SegoeUI-72" transform="translate(3084.277344 0)"/>
    <use xlink:href="#SegoeUI-63" transform="translate(3117.667969 0)"/>
    <use xlink:href="#SegoeUI-65" transform="translate(3163.859375 0)"/>
    <use xlink:href="#SegoeUI-6e" transform="translate(3216.154297 0)"/>
    <use xlink:href="#SegoeUI-74" transform="translate(3272.746094 0)"/>
    <use xlink:href="#SegoeUI-69" transform="translate(3306.632812 0)"/>
    <use xlink:href="#SegoeUI-6c" transform="translate(3330.851562 0)"/>
    <use xlink:href="#SegoeUI-65" transform="translate(3355.070312 0)"/>
    <use xlink:href="#SegoeUI-73" transform="translate(3407.365234 0)"/>
    <use xlink:href="#SegoeUI-2e" transform="translate(3449.796875 0)"/>
   </g>
  </g>
 </g>
 <defs>
  <clipPath id="pc73e4586e7">
   <rect x="56.915625" y="92.25" width="751.68" height="311.04"/>
  </clipPath>
 </defs>
</svg>
