<?xml version="1.0" encoding="utf-8" standalone="no"?>
<!DOCTYPE svg PUBLIC "-//W3C//DTD SVG 1.1//EN"
  "http://www.w3.org/Graphics/SVG/1.1/DTD/svg11.dtd">
<svg xmlns:xlink="http://www.w3.org/1999/xlink" width="801.765pt" height="413.973125pt" viewBox="0 0 801.765 413.973125" xmlns="http://www.w3.org/2000/svg" version="1.1">
 <metadata>
  <rdf:RDF xmlns:dc="http://purl.org/dc/elements/1.1/" xmlns:cc="http://creativecommons.org/ns#" xmlns:rdf="http://www.w3.org/1999/02/22-rdf-syntax-ns#">
   <cc:Work>
    <dc:type rdf:resource="http://purl.org/dc/dcmitype/StillImage"/>
    <dc:format>image/svg+xml</dc:format>
    <dc:creator>
     <cc:Agent>
      <dc:title>Matplotlib v3.10.8, https://matplotlib.org/</dc:title>
     </cc:Agent>
    </dc:creator>
   </cc:Work>
  </rdf:RDF>
 </metadata>
 <defs>
  <style type="text/css">*{stroke-linejoin: round; stroke-linecap: butt}</style>
 </defs>
 <g id="figure_1">
  <g id="patch_1">
   <path d="M 0 413.973125
L 801.765 413.973125
L 801.765 0
L 0 0
z
" style="fill: #ffffff"/>
  </g>
  <g id="axes_1">
   <g id="patch_2">
    <path d="M 51.525 393.57
L 794.565 393.57
L 794.565 92.25
L 51.525 92.25
z
" style="fill: #ffffff"/>
   </g>
   <g id="matplotlib.axis_1">
    <g id="xtick_1">
     <g id="text_1">
      <!-- BTC -->
      <g style="fill: #6f768a" transform="translate(227.276605 404.473125) scale(0.1 -0.1)">
       <defs>
        <path id="SegoeUI-42" d="M 588 0
L 588 4481
L 1863 4481
Q 2444 4481 2784 4197
Q 3125 3913 3125 3456
Q 3125 3075 2919 2794
Q 2713 2513 2350 2394
L 2350 2381
Q 2803 2328 3075 2039
Q 3347 1750 3347 1288
Q 3347 713 2934 356
Q 2522 0 1894 0
L 588 0
z
M 1113 4006
L 1113 2559
L 1650 2559
Q 2081 2559 2328 2767
Q 2575 2975 2575 3353
Q 2575 4006 1716 4006
L 1113 4006
z
M 1113 2088
L 1113 475
L 1825 475
Q 2288 475 2542 694
Q 2797 913 2797 1294
Q 2797 2088 1716 2088
L 1113 2088
z
" transform="scale(0.015625)"/>
        <path id="SegoeUI-54" d="M 3238 4006
L 1944 4006
L 1944 0
L 1419 0
L 1419 4006
L 128 4006
L 128 4481
L 3238 4481
L 3238 4006
z
" transform="scale(0.015625)"/>
        <path id="SegoeUI-43" d="M 3638 188
Q 3141 -75 2400 -75
Q 1444 -75 869 540
Q 294 1156 294 2156
Q 294 3231 941 3893
Q 1588 4556 2581 4556
Q 3219 4556 3638 4372
L 3638 3813
Q 3156 4081 2575 4081
Q 1803 4081 1323 3565
Q 844 3050 844 2188
Q 844 1369 1292 883
Q 1741 397 2469 397
Q 3144 397 3638 697
L 3638 188
z
" transform="scale(0.015625)"/>
       </defs>
       <use xlink:href="#SegoeUI-42"/>
       <use xlink:href="#SegoeUI-54" transform="translate(52.824219 0)"/>
       <use xlink:href="#SegoeUI-43" transform="translate(100.716797 0)"/>
      </g>
     </g>
    </g>
    <g id="xtick_2">
     <g id="text_2">
      <!-- ETH -->
      <g style="fill: #6f768a" transform="translate(601.969645 404.473125) scale(0.1 -0.1)">
       <defs>
        <path id="SegoeUI-45" d="M 2963 0
L 588 0
L 588 4481
L 2863 4481
L 2863 4006
L 1113 4006
L 1113 2516
L 2731 2516
L 2731 2044
L 1113 2044
L 1113 475
L 2963 475
L 2963 0
z
" transform="scale(0.015625)"/>
        <path id="SegoeUI-48" d="M 3956 0
L 3431 0
L 3431 2044
L 1113 2044
L 1113 0
L 588 0
L 588 4481
L 1113 4481
L 1113 2516
L 3431 2516
L 3431 4481
L 3956 4481
L 3956 0
z
" transform="scale(0.015625)"/>
       </defs>
       <use xlink:href="#SegoeUI-45"/>
       <use xlink:href="#SegoeUI-54" transform="translate(50.835938 0)"/>
       <use xlink:href="#SegoeUI-48" transform="translate(103.228516 0)"/>
      </g>
     </g>
    </g>
   </g>
   <g id="matplotlib.axis_2">
    <g id="ytick_1">
     <g id="line2d_1">
      <path d="M 51.525 352.480909
L 794.565 352.480909
" clip-path="url(#pf81e731064)" style="fill: none; stroke: #e8ebf2; stroke-width: 0.8; stroke-linecap: round"/>
     </g>
     <g id="text_3">
      <!-- −0.04 -->
      <g style="fill: #6f768a" transform="translate(22.84375 356.182472) scale(0.1 -0.1)">
       <defs>
        <path id="SegoeUI-2212" d="M 3663 1656
L 725 1656
L 725 2075
L 3663 2075
L 3663 1656
z
" transform="scale(0.015625)"/>
        <path id="SegoeUI-30" d="M 3188 2259
Q 3188 1697 3086 1262
Q 2984 828 2792 529
Q 2600 231 2320 76
Q 2041 -78 1684 -78
Q 1347 -78 1083 70
Q 819 219 637 503
Q 456 788 362 1202
Q 269 1616 269 2150
Q 269 2738 367 3188
Q 466 3638 656 3942
Q 847 4247 1130 4401
Q 1413 4556 1778 4556
Q 3188 4556 3188 2259
z
M 2663 2209
Q 2663 4122 1753 4122
Q 794 4122 794 2175
Q 794 359 1734 359
Q 2663 359 2663 2209
z
" transform="scale(0.015625)"/>
        <path id="SegoeUI-2e" d="M 697 -69
Q 553 -69 451 34
Q 350 138 350 281
Q 350 425 451 529
Q 553 634 697 634
Q 844 634 947 529
Q 1050 425 1050 281
Q 1050 138 947 34
Q 844 -69 697 -69
z
" transform="scale(0.015625)"/>
        <path id="SegoeUI-34" d="M 2656 4481
L 2656 1522
L 3231 1522
L 3231 1053
L 2656 1053
L 2656 0
L 2150 0
L 2150 1053
L 44 1053
L 44 1497
Q 338 1828 638 2204
Q 938 2581 1211 2968
Q 1484 3356 1717 3742
Q 1950 4128 2109 4481
L 2656 4481
z
M 622 1522
L 2150 1522
L 2150 3716
Q 1916 3306 1706 2984
Q 1497 2663 1308 2400
Q 1119 2138 947 1925
Q 775 1713 622 1522
z
" transform="scale(0.015625)"/>
       </defs>
       <use xlink:href="#SegoeUI-2212"/>
       <use xlink:href="#SegoeUI-30" transform="translate(68.408203 0)"/>
       <use xlink:href="#SegoeUI-2e" transform="translate(122.314453 0)"/>
       <use xlink:href="#SegoeUI-30" transform="translate(143.994141 0)"/>
       <use xlink:href="#SegoeUI-34" transform="translate(197.900391 0)"/>
      </g>
     </g>
    </g>
    <g id="ytick_2">
     <g id="line2d_2">
      <path d="M 51.525 297.695455
L 794.565 297.695455
" clip-path="url(#pf81e731064)" style="fill: none; stroke: #e8ebf2; stroke-width: 0.8; stroke-linecap: round"/>
     </g>
     <g id="text_4">
      <!-- −0.02 -->
      <g style="fill: #6f768a" transform="translate(22.84375 301.397017) scale(0.1 -0.1)">
       <defs>
        <path id="SegoeUI-32" d="M 2413 3306
Q 2413 3513 2348 3666
Q 2284 3819 2173 3920
Q 2063 4022 1913 4072
Q 1763 4122 1588 4122
Q 1438 4122 1294 4081
Q 1150 4041 1014 3969
Q 878 3897 751 3797
Q 625 3697 516 3575
L 516 4125
Q 731 4334 998 4445
Q 1266 4556 1650 4556
Q 1925 4556 2159 4476
Q 2394 4397 2566 4244
Q 2738 4091 2836 3866
Q 2934 3641 2934 3350
Q 2934 3084 2873 2868
Q 2813 2653 2689 2462
Q 2566 2272 2378 2097
Q 2191 1922 1938 1741
Q 1622 1516 1417 1356
Q 1213 1197 1092 1058
Q 972 919 923 780
Q 875 641 875 459
L 3106 459
L 3106 0
L 341 0
L 341 222
Q 341 509 403 728
Q 466 947 609 1144
Q 753 1341 986 1537
Q 1219 1734 1556 1981
Q 1800 2156 1964 2315
Q 2128 2475 2228 2634
Q 2328 2794 2370 2958
Q 2413 3122 2413 3306
z
" transform="scale(0.015625)"/>
       </defs>
       <use xlink:href="#SegoeUI-2212"/>
       <use xlink:href="#SegoeUI-30" transform="translate(68.408203 0)"/>
       <use xlink:href="#SegoeUI-2e" transform="translate(122.314453 0)"/>
       <use xlink:href="#SegoeUI-30" transform="translate(143.994141 0)"/>
       <use xlink:href="#SegoeUI-32" transform="translate(197.900391 0)"/>
      </g>
     </g>
    </g>
    <g id="ytick_3">
     <g id="line2d_3">
      <path d="M 51.525 242.91
L 794.565 242.91
" clip-path="url(#pf81e731064)" style="fill: none; stroke: #e8ebf2; stroke-width: 0.8; stroke-linecap: round"/>
     </g>
     <g id="text_5">
      <!-- 0.00 -->
      <g style="fill: #6f768a" transform="translate(29.684375 246.611562) scale(0.1 -0.1)">
       <use xlink:href="#SegoeUI-30"/>
       <use xlink:href="#SegoeUI-2e" transform="translate(53.90625 0)"/>
       <use xlink:href="#SegoeUI-30" transform="translate(75.585938 0)"/>
       <use xlink:href="#SegoeUI-30" transform="translate(129.492188 0)"/>
      </g>
     </g>
    </g>
    <g id="ytick_4">
     <g id="line2d_4">
      <path d="M 51.525 188.124545
L 794.565 188.124545
" clip-path="url(#pf81e731064)" style="fill: none; stroke: #e8ebf2; stroke-width: 0.8; stroke-linecap: round"/>
     </g>
     <g id="text_6">
      <!-- 0.02 -->
      <g style="fill: #6f768a" transform="translate(29.684375 191.826108) scale(0.1 -0.1)">
       <use xlink:href="#SegoeUI-30"/>
       <use xlink:href="#SegoeUI-2e" transform="translate(53.90625 0)"/>
       <use xlink:href="#SegoeUI-30" transform="translate(75.585938 0)"/>
       <use xlink:href="#SegoeUI-32" transform="translate(129.492188 0)"/>
      </g>
     </g>
    </g>
    <g id="ytick_5">
     <g id="line2d_5">
      <path d="M 51.525 133.339091
L 794.565 133.339091
" clip-path="url(#pf81e731064)" style="fill: none; stroke: #e8ebf2; stroke-width: 0.8; stroke-linecap: round"/>
     </g>
     <g id="text_7">
      <!-- 0.04 -->
      <g style="fill: #6f768a" transform="translate(29.684375 137.040653) scale(0.1 -0.1)">
       <use xlink:href="#SegoeUI-30"/>
       <use xlink:href="#SegoeUI-2e" transform="translate(53.90625 0)"/>
       <use xlink:href="#SegoeUI-30" transform="translate(75.585938 0)"/>
       <use xlink:href="#SegoeUI-34" transform="translate(129.492188 0)"/>
      </g>
     </g>
    </g>
    <g id="text_8">
     <!-- Pre-inception plotted observations -->
     <g style="fill: #1f2430" transform="translate(16.08375 334.789687) rotate(-90) scale(0.12 -0.12)">
      <defs>
       <path id="SegoeUI-50" d="M 1113 1694
L 1113 0
L 588 0
L 588 4481
L 1819 4481
Q 2538 4481 2933 4131
Q 3328 3781 3328 3144
Q 3328 2506 2889 2100
Q 2450 1694 1703 1694
L 1113 1694
z
M 1113 4006
L 1113 2169
L 1663 2169
Q 2206 2169 2492 2417
Q 2778 2666 2778 3119
Q 2778 4006 1728 4006
L 1113 4006
z
" transform="scale(0.015625)"/>
       <path id="SegoeUI-72" d="M 2188 2681
Q 2053 2784 1800 2784
Q 1472 2784 1251 2475
Q 1031 2166 1031 1631
L 1031 0
L 519 0
L 519 3200
L 1031 3200
L 1031 2541
L 1044 2541
Q 1153 2878 1378 3067
Q 1603 3256 1881 3256
Q 2081 3256 2188 3213
L 2188 2681
z
" transform="scale(0.015625)"/>
       <path id="SegoeUI-65" d="M 3091 1472
L 831 1472
Q 844 938 1119 647
Q 1394 356 1875 356
Q 2416 356 2869 713
L 2869 231
Q 2447 -75 1753 -75
Q 1075 -75 687 361
Q 300 797 300 1588
Q 300 2334 723 2804
Q 1147 3275 1775 3275
Q 2403 3275 2747 2869
Q 3091 2463 3091 1741
L 3091 1472
z
M 2566 1906
Q 2563 2350 2352 2597
Q 2141 2844 1766 2844
Q 1403 2844 1150 2584
Q 897 2325 838 1906
L 2566 1906
z
" transform="scale(0.015625)"/>
       <path id="SegoeUI-2d" d="M 2156 1581
L 450 1581
L 450 1984
L 2156 1984
L 2156 1581
z
" transform="scale(0.015625)"/>
       <path id="SegoeUI-69" d="M 781 4013
Q 644 4013 547 4106
Q 450 4200 450 4344
Q 450 4488 547 4583
Q 644 4678 781 4678
Q 922 4678 1020 4583
Q 1119 4488 1119 4344
Q 1119 4206 1020 4109
Q 922 4013 781 4013
z
M 1031 0
L 519 0
L 519 3200
L 1031 3200
L 1031 0
z
" transform="scale(0.015625)"/>
       <path id="SegoeUI-6e" d="M 3175 0
L 2663 0
L 2663 1825
Q 2663 2844 1919 2844
Q 1534 2844 1282 2555
Q 1031 2266 1031 1825
L 1031 0
L 519 0
L 519 3200
L 1031 3200
L 1031 2669
L 1044 2669
Q 1406 3275 2094 3275
Q 2619 3275 2897 2936
Q 3175 2597 3175 1956
L 3175 0
z
" transform="scale(0.015625)"/>
       <path id="SegoeUI-63" d="M 2700 147
Q 2331 -75 1825 -75
Q 1141 -75 720 370
Q 300 816 300 1525
Q 300 2316 753 2795
Q 1206 3275 1963 3275
Q 2384 3275 2706 3119
L 2706 2594
Q 2350 2844 1944 2844
Q 1453 2844 1139 2492
Q 825 2141 825 1569
Q 825 1006 1120 681
Q 1416 356 1913 356
Q 2331 356 2700 634
L 2700 147
z
" transform="scale(0.015625)"/>
       <path id="SegoeUI-70" d="M 1044 463
L 1031 463
L 1031 -1472
L 519 -1472
L 519 3200
L 1031 3200
L 1031 2638
L 1044 2638
Q 1422 3275 2150 3275
Q 2769 3275 3116 2845
Q 3463 2416 3463 1694
Q 3463 891 3072 408
Q 2681 -75 2003 -75
Q 1381 -75 1044 463
z
M 1031 1753
L 1031 1306
Q 1031 909 1289 632
Q 1547 356 1944 356
Q 2409 356 2673 712
Q 2938 1069 2938 1703
Q 2938 2238 2691 2541
Q 2444 2844 2022 2844
Q 1575 2844 1303 2533
Q 1031 2222 1031 1753
z
" transform="scale(0.015625)"/>
       <path id="SegoeUI-74" d="M 2003 31
Q 1822 -69 1525 -69
Q 684 -69 684 869
L 684 2763
L 134 2763
L 134 3200
L 684 3200
L 684 3981
L 1197 4147
L 1197 3200
L 2003 3200
L 2003 2763
L 1197 2763
L 1197 959
Q 1197 638 1306 500
Q 1416 363 1669 363
Q 1863 363 2003 469
L 2003 31
z
" transform="scale(0.015625)"/>
       <path id="SegoeUI-6f" d="M 1856 -75
Q 1147 -75 723 373
Q 300 822 300 1563
Q 300 2369 740 2822
Q 1181 3275 1931 3275
Q 2647 3275 3048 2834
Q 3450 2394 3450 1613
Q 3450 847 3017 386
Q 2584 -75 1856 -75
z
M 1894 2844
Q 1400 2844 1112 2508
Q 825 2172 825 1581
Q 825 1013 1115 684
Q 1406 356 1894 356
Q 2391 356 2658 678
Q 2925 1000 2925 1594
Q 2925 2194 2658 2519
Q 2391 2844 1894 2844
z
" transform="scale(0.015625)"/>
       <path id="SegoeUI-20" transform="scale(0.015625)"/>
       <path id="SegoeUI-6c" d="M 1031 0
L 519 0
L 519 4738
L 1031 4738
L 1031 0
z
" transform="scale(0.015625)"/>
       <path id="SegoeUI-64" d="M 3250 0
L 2738 0
L 2738 544
L 2725 544
Q 2369 -75 1625 -75
Q 1022 -75 661 354
Q 300 784 300 1525
Q 300 2319 700 2797
Q 1100 3275 1766 3275
Q 2425 3275 2725 2756
L 2738 2756
L 2738 4738
L 3250 4738
L 3250 0
z
M 2738 1447
L 2738 1919
Q 2738 2306 2481 2575
Q 2225 2844 1831 2844
Q 1363 2844 1094 2500
Q 825 2156 825 1550
Q 825 997 1083 676
Q 1341 356 1775 356
Q 2203 356 2470 665
Q 2738 975 2738 1447
z
" transform="scale(0.015625)"/>
       <path id="SegoeUI-62" d="M 1044 463
L 1031 463
L 1031 0
L 519 0
L 519 4738
L 1031 4738
L 1031 2638
L 1044 2638
Q 1422 3275 2150 3275
Q 2766 3275 3114 2845
Q 3463 2416 3463 1694
Q 3463 891 3072 408
Q 2681 -75 2003 -75
Q 1369 -75 1044 463
z
M 1031 1753
L 1031 1306
Q 1031 909 1289 632
Q 1547 356 1944 356
Q 2409 356 2673 712
Q 2938 1069 2938 1703
Q 2938 2238 2691 2541
Q 2444 2844 2022 2844
Q 1575 2844 1303 2533
Q 1031 2222 1031 1753
z
" transform="scale(0.015625)"/>
       <path id="SegoeUI-73" d="M 325 116
L 325 666
Q 744 356 1247 356
Q 1922 356 1922 806
Q 1922 934 1864 1023
Q 1806 1113 1707 1181
Q 1609 1250 1476 1304
Q 1344 1359 1191 1419
Q 978 1503 817 1589
Q 656 1675 548 1783
Q 441 1891 386 2028
Q 331 2166 331 2350
Q 331 2575 434 2748
Q 538 2922 709 3039
Q 881 3156 1101 3215
Q 1322 3275 1556 3275
Q 1972 3275 2300 3131
L 2300 2613
Q 1947 2844 1488 2844
Q 1344 2844 1228 2811
Q 1113 2778 1030 2718
Q 947 2659 901 2576
Q 856 2494 856 2394
Q 856 2269 901 2184
Q 947 2100 1034 2034
Q 1122 1969 1247 1916
Q 1372 1863 1531 1800
Q 1744 1719 1912 1633
Q 2081 1547 2200 1439
Q 2319 1331 2383 1190
Q 2447 1050 2447 856
Q 2447 619 2342 444
Q 2238 269 2063 153
Q 1888 38 1659 -18
Q 1431 -75 1181 -75
Q 688 -75 325 116
z
" transform="scale(0.015625)"/>
       <path id="SegoeUI-76" d="M 3034 3200
L 1759 0
L 1256 0
L 44 3200
L 606 3200
L 1419 875
Q 1509 619 1531 428
L 1544 428
Q 1575 669 1644 863
L 2494 3200
L 3034 3200
z
" transform="scale(0.015625)"/>
       <path id="SegoeUI-61" d="M 2809 0
L 2297 0
L 2297 500
L 2284 500
Q 1950 -75 1300 -75
Q 822 -75 551 178
Q 281 431 281 850
Q 281 1747 1338 1894
L 2297 2028
Q 2297 2844 1638 2844
Q 1059 2844 594 2450
L 594 2975
Q 1066 3275 1681 3275
Q 2809 3275 2809 2081
L 2809 0
z
M 2297 1619
L 1525 1513
Q 1169 1463 987 1336
Q 806 1209 806 888
Q 806 653 973 504
Q 1141 356 1419 356
Q 1800 356 2048 623
Q 2297 891 2297 1300
L 2297 1619
z
" transform="scale(0.015625)"/>
      </defs>
      <use xlink:href="#SegoeUI-50"/>
      <use xlink:href="#SegoeUI-72" transform="translate(56.005859 0)"/>
      <use xlink:href="#SegoeUI-65" transform="translate(89.396484 0)"/>
      <use xlink:href="#SegoeUI-2d" transform="translate(141.691406 0)"/>
      <use xlink:href="#SegoeUI-69" transform="translate(181.681641 0)"/>
      <use xlink:href="#SegoeUI-6e" transform="translate(205.900391 0)"/>
      <use xlink:href="#SegoeUI-63" transform="translate(262.492188 0)"/>
      <use xlink:href="#SegoeUI-65" transform="translate(308.683594 0)"/>
      <use xlink:href="#SegoeUI-70" transform="translate(360.978516 0)"/>
      <use xlink:href="#SegoeUI-74" transform="translate(419.767578 0)"/>
      <use xlink:href="#SegoeUI-69" transform="translate(453.654297 0)"/>
      <use xlink:href="#SegoeUI-6f" transform="translate(477.873047 0)"/>
      <use xlink:href="#SegoeUI-6e" transform="translate(536.466797 0)"/>
      <use xlink:href="#SegoeUI-20" transform="translate(593.058594 0)"/>
      <use xlink:href="#SegoeUI-70" transform="translate(620.451172 0)"/>
      <use xlink:href="#SegoeUI-6c" transform="translate(679.240234 0)"/>
      <use xlink:href="#SegoeUI-6f" transform="translate(703.458984 0)"/>
      <use xlink:href="#SegoeUI-74" transform="translate(762.052734 0)"/>
      <use xlink:href="#SegoeUI-74" transform="translate(795.939453 0)"/>
      <use xlink:href="#SegoeUI-65" transform="translate(829.076172 0)"/>
      <use xlink:href="#SegoeUI-64" transform="translate(881.371094 0)"/>
      <use xlink:href="#SegoeUI-20" transform="translate(940.257812 0)"/>
      <use xlink:href="#SegoeUI-6f" transform="translate(967.650391 0)"/>
      <use xlink:href="#SegoeUI-62" transform="translate(1026.244141 0)"/>
      <use xlink:href="#SegoeUI-73" transform="translate(1085.033203 0)"/>
      <use xlink:href="#SegoeUI-65" transform="translate(1127.464844 0)"/>
      <use xlink:href="#SegoeUI-72" transform="translate(1179.759766 0)"/>
      <use xlink:href="#SegoeUI-76" transform="translate(1218.525391 0)"/>
      <use xlink:href="#SegoeUI-61" transform="translate(1264.675781 0)"/>
      <use xlink:href="#SegoeUI-74" transform="translate(1315.554688 0)"/>
      <use xlink:href="#SegoeUI-69" transform="translate(1349.441406 0)"/>
      <use xlink:href="#SegoeUI-6f" transform="translate(1373.660156 0)"/>
      <use xlink:href="#SegoeUI-6e" transform="translate(1432.253906 0)"/>
      <use xlink:href="#SegoeUI-73" transform="translate(1488.845703 0)"/>
     </g>
    </g>
   </g>
   <g id="patch_3">
    <path d="M 85.299545 242.91
L 385.517727 242.91
L 385.517727 242.91
L 85.299545 242.91
z
" clip-path="url(#pf81e731064)" style="fill: #71b436; stroke: #386411; stroke-linejoin: miter"/>
   </g>
   <g id="patch_4">
    <path d="M 460.572273 242.91
L 760.790455 242.91
L 760.790455 242.91
L 460.572273 242.91
z
" clip-path="url(#pf81e731064)" style="fill: #71b436; stroke: #386411; stroke-linejoin: miter"/>
   </g>
   <g id="patch_5">
    <path d="M 51.525 393.57
L 51.525 92.25
" style="fill: none; stroke: #d7dbe7; stroke-width: 1.25; stroke-linejoin: miter; stroke-linecap: square"/>
   </g>
   <g id="patch_6">
    <path d="M 51.525 393.57
L 794.565 393.57
" style="fill: none; stroke: #d7dbe7; stroke-width: 1.25; stroke-linejoin: miter; stroke-linecap: square"/>
   </g>
   <g id="text_9">
    <!-- 0 -->
    <g style="fill: #1f2430" transform="translate(232.39848 239.926352) scale(0.1 -0.1)">
     <defs>
      <path id="DejaVuSansMono-30" d="M 1509 2344
Q 1509 2516 1629 2641
Q 1750 2766 1919 2766
Q 2094 2766 2219 2641
Q 2344 2516 2344 2344
Q 2344 2169 2220 2047
Q 2097 1925 1919 1925
Q 1744 1925 1626 2044
Q 1509 2163 1509 2344
z
M 1925 4250
Q 1484 4250 1267 3775
Q 1050 3300 1050 2328
Q 1050 1359 1267 884
Q 1484 409 1925 409
Q 2369 409 2586 884
Q 2803 1359 2803 2328
Q 2803 3300 2586 3775
Q 2369 4250 1925 4250
z
M 1925 4750
Q 2672 4750 3055 4137
Q 3438 3525 3438 2328
Q 3438 1134 3055 521
Q 2672 -91 1925 -91
Q 1178 -91 797 521
Q 416 1134 416 2328
Q 416 3525 797 4137
Q 1178 4750 1925 4750
z
" transform="scale(0.015625)"/>
     </defs>
     <use xlink:href="#DejaVuSansMono-30"/>
    </g>
   </g>
   <g id="text_10">
    <!-- 0 -->
    <g style="fill: #1f2430" transform="translate(607.671207 239.926352) scale(0.1 -0.1)">
     <use xlink:href="#DejaVuSansMono-30"/>
    </g>
   </g>
  </g>
  <g id="text_11">
   <!-- ETF plots start at valid source dates -->
   <g style="fill: #1f2430" transform="translate(16.965 19.045) scale(0.16 -0.16)">
    <defs>
     <path id="SegoeUI-Semibold-45" d="M 3069 0
L 553 0
L 553 4481
L 2969 4481
L 2969 3850
L 1297 3850
L 1297 2581
L 2838 2581
L 2838 1953
L 1297 1953
L 1297 628
L 3069 628
L 3069 0
z
" transform="scale(0.015625)"/>
     <path id="SegoeUI-Semibold-54" d="M 3428 3850
L 2141 3850
L 2141 0
L 1397 0
L 1397 3850
L 113 3850
L 113 4481
L 3428 4481
L 3428 3850
z
" transform="scale(0.015625)"/>
     <path id="SegoeUI-Semibold-46" d="M 2972 3850
L 1297 3850
L 1297 2503
L 2841 2503
L 2841 1875
L 1297 1875
L 1297 0
L 553 0
L 553 4481
L 2972 4481
L 2972 3850
z
" transform="scale(0.015625)"/>
     <path id="SegoeUI-Semibold-20" transform="scale(0.015625)"/>
     <path id="SegoeUI-Semibold-70" d="M 1209 472
L 1197 472
L 1197 -1472
L 472 -1472
L 472 3200
L 1197 3200
L 1197 2638
L 1209 2638
Q 1581 3275 2297 3275
Q 2906 3275 3247 2847
Q 3588 2419 3588 1697
Q 3588 897 3203 415
Q 2819 -66 2153 -66
Q 1541 -66 1209 472
z
M 1191 1734
L 1191 1338
Q 1191 988 1414 744
Q 1638 500 1981 500
Q 2384 500 2614 814
Q 2844 1128 2844 1691
Q 2844 2163 2630 2430
Q 2416 2697 2050 2697
Q 1663 2697 1427 2422
Q 1191 2147 1191 1734
z
" transform="scale(0.015625)"/>
     <path id="SegoeUI-Semibold-6c" d="M 1200 0
L 472 0
L 472 4738
L 1200 4738
L 1200 0
z
" transform="scale(0.015625)"/>
     <path id="SegoeUI-Semibold-6f" d="M 1891 -75
Q 1150 -75 708 373
Q 266 822 266 1563
Q 266 2369 727 2822
Q 1188 3275 1969 3275
Q 2719 3275 3137 2834
Q 3556 2394 3556 1613
Q 3556 847 3104 386
Q 2653 -75 1891 -75
z
M 1925 2697
Q 1500 2697 1253 2400
Q 1006 2103 1006 1581
Q 1006 1078 1256 789
Q 1506 500 1925 500
Q 2353 500 2583 784
Q 2813 1069 2813 1594
Q 2813 2122 2583 2409
Q 2353 2697 1925 2697
z
" transform="scale(0.015625)"/>
     <path id="SegoeUI-Semibold-74" d="M 2159 34
Q 1947 -72 1600 -72
Q 669 -72 669 822
L 669 2631
L 134 2631
L 134 3200
L 669 3200
L 669 3941
L 1394 4147
L 1394 3200
L 2159 3200
L 2159 2631
L 1394 2631
L 1394 1031
Q 1394 747 1497 625
Q 1600 503 1841 503
Q 2025 503 2159 609
L 2159 34
z
" transform="scale(0.015625)"/>
     <path id="SegoeUI-Semibold-73" d="M 272 100
L 272 772
Q 678 463 1169 463
Q 1825 463 1825 850
Q 1825 959 1769 1036
Q 1713 1113 1617 1172
Q 1522 1231 1392 1278
Q 1263 1325 1103 1384
Q 906 1463 748 1550
Q 591 1638 486 1748
Q 381 1859 328 2000
Q 275 2141 275 2328
Q 275 2559 384 2736
Q 494 2913 678 3033
Q 863 3153 1097 3214
Q 1331 3275 1581 3275
Q 2025 3275 2375 3141
L 2375 2506
Q 2038 2738 1600 2738
Q 1463 2738 1352 2709
Q 1241 2681 1162 2631
Q 1084 2581 1040 2511
Q 997 2441 997 2356
Q 997 2253 1040 2181
Q 1084 2109 1170 2054
Q 1256 2000 1376 1954
Q 1497 1909 1653 1856
Q 1859 1772 2023 1684
Q 2188 1597 2303 1486
Q 2419 1375 2481 1229
Q 2544 1084 2544 884
Q 2544 641 2431 459
Q 2319 278 2131 159
Q 1944 41 1698 -17
Q 1453 -75 1181 -75
Q 656 -75 272 100
z
" transform="scale(0.015625)"/>
     <path id="SegoeUI-Semibold-61" d="M 2928 0
L 2225 0
L 2225 500
L 2213 500
Q 1881 -75 1241 -75
Q 769 -75 501 181
Q 234 438 234 859
Q 234 1766 1278 1916
L 2228 2050
Q 2228 2734 1578 2734
Q 1006 2734 547 2341
L 547 2975
Q 1053 3275 1716 3275
Q 2928 3275 2928 2081
L 2928 0
z
M 2228 1572
L 1556 1478
Q 1244 1438 1086 1327
Q 928 1216 928 938
Q 928 734 1073 604
Q 1219 475 1463 475
Q 1794 475 2011 708
Q 2228 941 2228 1294
L 2228 1572
z
" transform="scale(0.015625)"/>
     <path id="SegoeUI-Semibold-72" d="M 2328 2509
Q 2197 2613 1950 2613
Q 1628 2613 1412 2322
Q 1197 2031 1197 1531
L 1197 0
L 472 0
L 472 3200
L 1197 3200
L 1197 2541
L 1209 2541
Q 1316 2878 1536 3067
Q 1756 3256 2028 3256
Q 2225 3256 2328 3197
L 2328 2509
z
" transform="scale(0.015625)"/>
     <path id="SegoeUI-Semibold-76" d="M 3228 3200
L 1991 0
L 1206 0
L 28 3200
L 816 3200
L 1525 963
Q 1606 716 1625 531
L 1634 531
Q 1663 763 1722 950
L 2466 3200
L 3228 3200
z
" transform="scale(0.015625)"/>
     <path id="SegoeUI-Semibold-69" d="M 838 3872
Q 659 3872 532 3987
Q 406 4103 406 4281
Q 406 4459 532 4578
Q 659 4697 838 4697
Q 1022 4697 1150 4578
Q 1278 4459 1278 4281
Q 1278 4113 1150 3992
Q 1022 3872 838 3872
z
M 1197 0
L 472 0
L 472 3200
L 1197 3200
L 1197 0
z
" transform="scale(0.015625)"/>
     <path id="SegoeUI-Semibold-64" d="M 3381 0
L 2656 0
L 2656 544
L 2644 544
Q 2294 -75 1566 -75
Q 975 -75 620 354
Q 266 784 266 1525
Q 266 2319 658 2797
Q 1050 3275 1703 3275
Q 2350 3275 2644 2756
L 2656 2756
L 2656 4738
L 3381 4738
L 3381 0
z
M 2666 1463
L 2666 1881
Q 2666 2222 2444 2459
Q 2222 2697 1878 2697
Q 1472 2697 1239 2394
Q 1006 2091 1006 1553
Q 1006 1066 1229 783
Q 1453 500 1831 500
Q 2203 500 2434 773
Q 2666 1047 2666 1463
z
" transform="scale(0.015625)"/>
     <path id="SegoeUI-Semibold-75" d="M 3263 0
L 2538 0
L 2538 506
L 2525 506
Q 2209 -75 1544 -75
Q 409 -75 409 1288
L 409 3200
L 1134 3200
L 1134 1363
Q 1134 500 1800 500
Q 2122 500 2330 737
Q 2538 975 2538 1359
L 2538 3200
L 3263 3200
L 3263 0
z
" transform="scale(0.015625)"/>
     <path id="SegoeUI-Semibold-63" d="M 2763 147
Q 2378 -75 1853 -75
Q 1141 -75 703 370
Q 266 816 266 1525
Q 266 2316 736 2795
Q 1206 3275 1994 3275
Q 2431 3275 2766 3122
L 2766 2447
Q 2431 2697 2053 2697
Q 1594 2697 1300 2386
Q 1006 2075 1006 1572
Q 1006 1075 1282 787
Q 1559 500 2025 500
Q 2416 500 2763 778
L 2763 147
z
" transform="scale(0.015625)"/>
     <path id="SegoeUI-Semibold-65" d="M 3181 1403
L 1000 1403
Q 1013 959 1273 718
Q 1534 478 1991 478
Q 2503 478 2931 784
L 2931 200
Q 2494 -75 1775 -75
Q 1069 -75 667 361
Q 266 797 266 1588
Q 266 2334 708 2804
Q 1150 3275 1806 3275
Q 2463 3275 2822 2853
Q 3181 2431 3181 1681
L 3181 1403
z
M 2481 1916
Q 2478 2306 2297 2523
Q 2116 2741 1797 2741
Q 1484 2741 1267 2512
Q 1050 2284 1000 1916
L 2481 1916
z
" transform="scale(0.015625)"/>
    </defs>
    <use xlink:href="#SegoeUI-Semibold-45"/>
    <use xlink:href="#SegoeUI-Semibold-54" transform="translate(52.257812 0)"/>
    <use xlink:href="#SegoeUI-Semibold-46" transform="translate(107.433594 0)"/>
    <use xlink:href="#SegoeUI-Semibold-20" transform="translate(157.677734 0)"/>
    <use xlink:href="#SegoeUI-Semibold-70" transform="translate(185.167969 0)"/>
    <use xlink:href="#SegoeUI-Semibold-6c" transform="translate(245.421875 0)"/>
    <use xlink:href="#SegoeUI-Semibold-6f" transform="translate(271.544922 0)"/>
    <use xlink:href="#SegoeUI-Semibold-74" transform="translate(331.261719 0)"/>
    <use xlink:href="#SegoeUI-Semibold-73" transform="translate(367.394531 0)"/>
    <use xlink:href="#SegoeUI-Semibold-20" transform="translate(410.509766 0)"/>
    <use xlink:href="#SegoeUI-Semibold-73" transform="translate(438 0)"/>
    <use xlink:href="#SegoeUI-Semibold-74" transform="translate(481.115234 0)"/>
    <use xlink:href="#SegoeUI-Semibold-61" transform="translate(517.248047 0)"/>
    <use xlink:href="#SegoeUI-Semibold-72" transform="translate(569.445312 0)"/>
    <use xlink:href="#SegoeUI-Semibold-74" transform="translate(609.332031 0)"/>
    <use xlink:href="#SegoeUI-Semibold-20" transform="translate(645.464844 0)"/>
    <use xlink:href="#SegoeUI-Semibold-61" transform="translate(672.955078 0)"/>
    <use xlink:href="#SegoeUI-Semibold-74" transform="translate(725.152344 0)"/>
    <use xlink:href="#SegoeUI-Semibold-20" transform="translate(761.285156 0)"/>
    <use xlink:href="#SegoeUI-Semibold-76" transform="translate(788.775391 0)"/>
    <use xlink:href="#SegoeUI-Semibold-61" transform="translate(837.882812 0)"/>
    <use xlink:href="#SegoeUI-Semibold-6c" transform="translate(890.080078 0)"/>
    <use xlink:href="#SegoeUI-Semibold-69" transform="translate(916.203125 0)"/>
    <use xlink:href="#SegoeUI-Semibold-64" transform="translate(942.326172 0)"/>
    <use xlink:href="#SegoeUI-Semibold-20" transform="translate(1002.580078 0)"/>
    <use xlink:href="#SegoeUI-Semibold-73" transform="translate(1030.070312 0)"/>
    <use xlink:href="#SegoeUI-Semibold-6f" transform="translate(1073.185547 0)"/>
    <use xlink:href="#SegoeUI-Semibold-75" transform="translate(1132.902344 0)"/>
    <use xlink:href="#SegoeUI-Semibold-72" transform="translate(1191.251953 0)"/>
    <use xlink:href="#SegoeUI-Semibold-63" transform="translate(1227.388672 0)"/>
    <use xlink:href="#SegoeUI-Semibold-65" transform="translate(1274.410156 0)"/>
    <use xlink:href="#SegoeUI-Semibold-20" transform="translate(1327.535156 0)"/>
    <use xlink:href="#SegoeUI-Semibold-64" transform="translate(1355.025391 0)"/>
    <use xlink:href="#SegoeUI-Semibold-61" transform="translate(1415.279297 0)"/>
    <use xlink:href="#SegoeUI-Semibold-74" transform="translate(1467.476562 0)"/>
    <use xlink:href="#SegoeUI-Semibold-65" transform="translate(1502.984375 0)"/>
    <use xlink:href="#SegoeUI-Semibold-73" transform="translate(1556.109375 0)"/>
   </g>
  </g>
  <g id="text_12">
   <!-- Pre-inception plotted observations must remain zero. -->
   <g style="fill: #6f768a" transform="translate(16.965 39.643437) scale(0.11 -0.11)">
    <defs>
     <path id="SegoeUI-6d" d="M 5063 0
L 4550 0
L 4550 1838
Q 4550 2369 4386 2606
Q 4222 2844 3834 2844
Q 3506 2844 3276 2544
Q 3047 2244 3047 1825
L 3047 0
L 2534 0
L 2534 1900
Q 2534 2844 1806 2844
Q 1469 2844 1250 2561
Q 1031 2278 1031 1825
L 1031 0
L 519 0
L 519 3200
L 1031 3200
L 1031 2694
L 1044 2694
Q 1384 3275 2038 3275
Q 2366 3275 2609 3092
Q 2853 2909 2944 2613
Q 3300 3275 4006 3275
Q 5063 3275 5063 1972
L 5063 0
z
" transform="scale(0.015625)"/>
     <path id="SegoeUI-75" d="M 3106 0
L 2594 0
L 2594 506
L 2581 506
Q 2263 -75 1594 -75
Q 450 -75 450 1288
L 450 3200
L 959 3200
L 959 1369
Q 959 356 1734 356
Q 2109 356 2351 632
Q 2594 909 2594 1356
L 2594 3200
L 3106 3200
L 3106 0
z
" transform="scale(0.015625)"/>
     <path id="SegoeUI-7a" d="M 2750 3053
L 856 438
L 2731 438
L 2731 0
L 103 0
L 103 159
L 1997 2763
L 281 2763
L 281 3200
L 2750 3200
L 2750 3053
z
" transform="scale(0.015625)"/>
    </defs>
    <use xlink:href="#SegoeUI-50"/>
    <use xlink:href="#SegoeUI-72" transform="translate(56.005859 0)"/>
    <use xlink:href="#SegoeUI-65" transform="translate(89.396484 0)"/>
    <use xlink:href="#SegoeUI-2d" transform="translate(141.691406 0)"/>
    <use xlink:href="#SegoeUI-69" transform="translate(181.681641 0)"/>
    <use xlink:href="#SegoeUI-6e" transform="translate(205.900391 0)"/>
    <use xlink:href="#SegoeUI-63" transform="translate(262.492188 0)"/>
    <use xlink:href="#SegoeUI-65" transform="translate(308.683594 0)"/>
    <use xlink:href="#SegoeUI-70" transform="translate(360.978516 0)"/>
    <use xlink:href="#SegoeUI-74" transform="translate(419.767578 0)"/>
    <use xlink:href="#SegoeUI-69" transform="translate(453.654297 0)"/>
    <use xlink:href="#SegoeUI-6f" transform="translate(477.873047 0)"/>
    <use xlink:href="#SegoeUI-6e" transform="translate(536.466797 0)"/>
    <use xlink:href="#SegoeUI-20" transform="translate(593.058594 0)"/>
    <use xlink:href="#SegoeUI-70" transform="translate(620.451172 0)"/>
    <use xlink:href="#SegoeUI-6c" transform="translate(679.240234 0)"/>
    <use xlink:href="#SegoeUI-6f" transform="translate(703.458984 0)"/>
    <use xlink:href="#SegoeUI-74" transform="translate(762.052734 0)"/>
    <use xlink:href="#SegoeUI-74" transform="translate(795.939453 0)"/>
    <use xlink:href="#SegoeUI-65" transform="translate(829.076172 0)"/>
    <use xlink:href="#SegoeUI-64" transform="translate(881.371094 0)"/>
    <use xlink:href="#SegoeUI-20" transform="translate(940.257812 0)"/>
    <use xlink:href="#SegoeUI-6f" transform="translate(967.650391 0)"/>
    <use xlink:href="#SegoeUI-62" transform="translate(1026.244141 0)"/>
    <use xlink:href="#SegoeUI-73" transform="translate(1085.033203 0)"/>
    <use xlink:href="#SegoeUI-65" transform="translate(1127.464844 0)"/>
    <use xlink:href="#SegoeUI-72" transform="translate(1179.759766 0)"/>
    <use xlink:href="#SegoeUI-76" transform="translate(1218.525391 0)"/>
    <use xlink:href="#SegoeUI-61" transform="translate(1264.675781 0)"/>
    <use xlink:href="#SegoeUI-74" transform="translate(1315.554688 0)"/>
    <use xlink:href="#SegoeUI-69" transform="translate(1349.441406 0)"/>
    <use xlink:href="#SegoeUI-6f" transform="translate(1373.660156 0)"/>
    <use xlink:href="#SegoeUI-6e" transform="translate(1432.253906 0)"/>
    <use xlink:href="#SegoeUI-73" transform="translate(1488.845703 0)"/>
    <use xlink:href="#SegoeUI-20" transform="translate(1531.277344 0)"/>
    <use xlink:href="#SegoeUI-6d" transform="translate(1558.669922 0)"/>
    <use xlink:href="#SegoeUI-75" transform="translate(1644.802734 0)"/>
    <use xlink:href="#SegoeUI-73" transform="translate(1701.394531 0)"/>
    <use xlink:href="#SegoeUI-74" transform="translate(1743.826172 0)"/>
    <use xlink:href="#SegoeUI-20" transform="translate(1777.712891 0)"/>
    <use xlink:href="#SegoeUI-72" transform="translate(1805.105469 0)"/>
    <use xlink:href="#SegoeUI-65" transform="translate(1838.496094 0)"/>
    <use xlink:href="#SegoeUI-6d" transform="translate(1890.791016 0)"/>
    <use xlink:href="#SegoeUI-61" transform="translate(1976.923828 0)"/>
    <use xlink:href="#SegoeUI-69" transform="translate(2027.802734 0)"/>
    <use xlink:href="#SegoeUI-6e" transform="translate(2052.021484 0)"/>
    <use xlink:href="#SegoeUI-20" transform="translate(2108.613281 0)"/>
    <use xlink:href="#SegoeUI-7a" transform="translate(2136.005859 0)"/>
    <use xlink:href="#SegoeUI-65" transform="translate(2181.220703 0)"/>
    <use xlink:href="#SegoeUI-72" transform="translate(2233.515625 0)"/>
    <use xlink:href="#SegoeUI-6f" transform="translate(2266.90625 0)"/>
    <use xlink:href="#SegoeUI-2e" transform="translate(2325.5 0)"/>
   </g>
  </g>
 </g>
 <defs>
  <clipPath id="pf81e731064">
   <rect x="51.525" y="92.25" width="743.04" height="301.32"/>
  </clipPath>
 </defs>
</svg>
