<?xml version="1.0" encoding="utf-8" standalone="no"?>
<!DOCTYPE svg PUBLIC "-//W3C//DTD SVG 1.1//EN"
  "http://www.w3.org/Graphics/SVG/1.1/DTD/svg11.dtd">
<svg xmlns:xlink="http://www.w3.org/1999/xlink" width="720pt" height="405pt" viewBox="0 0 720 405" xmlns="http://www.w3.org/2000/svg" version="1.1">
 <metadata>
  <rdf:RDF xmlns:dc="http://purl.org/dc/elements/1.1/" xmlns:cc="http://creativecommons.org/ns#" xmlns:rdf="http://www.w3.org/1999/02/22-rdf-syntax-ns#">
   <cc:Work>
    <dc:type rdf:resource="http://purl.org/dc/dcmitype/StillImage"/>
    <dc:date>2026-06-16T14:04:23.079762</dc:date>
    <dc:format>image/svg+xml</dc:format>
    <dc:creator>
     <cc:Agent>
      <dc:title>Matplotlib v3.10.8, https://matplotlib.org/</dc:title>
     </cc:Agent>
    </dc:creator>
   </cc:Work>
  </rdf:RDF>
 </metadata>
 <defs>
  <style type="text/css">*{stroke-linejoin: round; stroke-linecap: butt}</style>
 </defs>
 <g id="figure_1">
  <g id="patch_1">
   <path d="M 0 405 
L 720 405 
L 720 0 
L 0 0 
z
" style="fill: #fafaf7"/>
  </g>
  <g id="patch_2">
   <path d="M 22.32 391.635 
L 697.68 391.635 
Q 710.64 391.635 710.64 384.345 
L 710.64 24.705 
Q 710.64 17.415 697.68 17.415 
L 22.32 17.415 
Q 9.36 17.415 9.36 24.705 
L 9.36 384.345 
Q 9.36 391.635 22.32 391.635 
z
" style="fill: #ffffff; stroke: #d9dee7; stroke-linejoin: miter"/>
  </g>
  <g id="axes_1">
   <g id="patch_3">
    <path d="M 167.60127 202.5 
Q 187.201093 202.5 204.564848 202.5 
" style="fill: none; stroke: #111827; stroke-width: 2; stroke-linecap: round"/>
    <path d="M 200.964848 200.7 
L 204.564848 202.5 
L 200.964848 204.3 
" style="fill: none; stroke: #111827; stroke-width: 2; stroke-linecap: round"/>
   </g>
   <g id="patch_4">
    <path d="M 326.00127 202.5 
Q 345.601093 202.5 362.964848 202.5 
" style="fill: none; stroke: #111827; stroke-width: 2; stroke-linecap: round"/>
    <path d="M 359.364848 200.7 
L 362.964848 202.5 
L 359.364848 204.3 
" style="fill: none; stroke: #111827; stroke-width: 2; stroke-linecap: round"/>
   </g>
   <g id="patch_5">
    <path d="M 484.40127 202.5 
Q 504.001093 202.5 521.364848 202.5 
" style="fill: none; stroke: #111827; stroke-width: 2; stroke-linecap: round"/>
    <path d="M 517.764848 200.7 
L 521.364848 202.5 
L 517.764848 204.3 
" style="fill: none; stroke: #111827; stroke-width: 2; stroke-linecap: round"/>
   </g>
  </g>
  <g id="text_1">
   <!-- Project Pipeline -->
   <g style="fill: #111827" transform="translate(39.6 39.650625) scale(0.18 -0.18)">
    <defs>
     <path id="SegoeUI-Semibold-50" d="M 1294 1625 
L 1294 0 
L 553 0 
L 553 4481 
L 1913 4481 
Q 2684 4481 3109 4122 
Q 3534 3763 3534 3109 
Q 3534 2456 3090 2040 
Q 2647 1625 1891 1625 
L 1294 1625 
z
M 1294 3869 
L 1294 2231 
L 1775 2231 
Q 2253 2231 2503 2453 
Q 2753 2675 2753 3078 
Q 2753 3869 1834 3869 
L 1294 3869 
z
" transform="scale(0.015625)"/>
     <path id="SegoeUI-Semibold-72" d="M 2328 2509 
Q 2197 2613 1950 2613 
Q 1628 2613 1412 2322 
Q 1197 2031 1197 1531 
L 1197 0 
L 472 0 
L 472 3200 
L 1197 3200 
L 1197 2541 
L 1209 2541 
Q 1316 2878 1536 3067 
Q 1756 3256 2028 3256 
Q 2225 3256 2328 3197 
L 2328 2509 
z
" transform="scale(0.015625)"/>
     <path id="SegoeUI-Semibold-6f" d="M 1891 -75 
Q 1150 -75 708 373 
Q 266 822 266 1563 
Q 266 2369 727 2822 
Q 1188 3275 1969 3275 
Q 2719 3275 3137 2834 
Q 3556 2394 3556 1613 
Q 3556 847 3104 386 
Q 2653 -75 1891 -75 
z
M 1925 2697 
Q 1500 2697 1253 2400 
Q 1006 2103 1006 1581 
Q 1006 1078 1256 789 
Q 1506 500 1925 500 
Q 2353 500 2583 784 
Q 2813 1069 2813 1594 
Q 2813 2122 2583 2409 
Q 2353 2697 1925 2697 
z
" transform="scale(0.015625)"/>
     <path id="SegoeUI-Semibold-6a" d="M 1197 134 
Q 1197 -653 865 -1079 
Q 534 -1506 -81 -1506 
Q -309 -1506 -525 -1406 
L -525 -784 
Q -322 -925 -141 -925 
Q 472 -925 472 156 
L 472 3200 
L 1197 3200 
L 1197 134 
z
M 841 3872 
Q 663 3872 536 3987 
Q 409 4103 409 4281 
Q 409 4459 536 4578 
Q 663 4697 841 4697 
Q 1022 4697 1150 4578 
Q 1278 4459 1278 4281 
Q 1278 4113 1150 3992 
Q 1022 3872 841 3872 
z
" transform="scale(0.015625)"/>
     <path id="SegoeUI-Semibold-65" d="M 3181 1403 
L 1000 1403 
Q 1013 959 1273 718 
Q 1534 478 1991 478 
Q 2503 478 2931 784 
L 2931 200 
Q 2494 -75 1775 -75 
Q 1069 -75 667 361 
Q 266 797 266 1588 
Q 266 2334 708 2804 
Q 1150 3275 1806 3275 
Q 2463 3275 2822 2853 
Q 3181 2431 3181 1681 
L 3181 1403 
z
M 2481 1916 
Q 2478 2306 2297 2523 
Q 2116 2741 1797 2741 
Q 1484 2741 1267 2512 
Q 1050 2284 1000 1916 
L 2481 1916 
z
" transform="scale(0.015625)"/>
     <path id="SegoeUI-Semibold-63" d="M 2763 147 
Q 2378 -75 1853 -75 
Q 1141 -75 703 370 
Q 266 816 266 1525 
Q 266 2316 736 2795 
Q 1206 3275 1994 3275 
Q 2431 3275 2766 3122 
L 2766 2447 
Q 2431 2697 2053 2697 
Q 1594 2697 1300 2386 
Q 1006 2075 1006 1572 
Q 1006 1075 1282 787 
Q 1559 500 2025 500 
Q 2416 500 2763 778 
L 2763 147 
z
" transform="scale(0.015625)"/>
     <path id="SegoeUI-Semibold-74" d="M 2159 34 
Q 1947 -72 1600 -72 
Q 669 -72 669 822 
L 669 2631 
L 134 2631 
L 134 3200 
L 669 3200 
L 669 3941 
L 1394 4147 
L 1394 3200 
L 2159 3200 
L 2159 2631 
L 1394 2631 
L 1394 1031 
Q 1394 747 1497 625 
Q 1600 503 1841 503 
Q 2025 503 2159 609 
L 2159 34 
z
" transform="scale(0.015625)"/>
     <path id="SegoeUI-Semibold-20" transform="scale(0.015625)"/>
     <path id="SegoeUI-Semibold-69" d="M 838 3872 
Q 659 3872 532 3987 
Q 406 4103 406 4281 
Q 406 4459 532 4578 
Q 659 4697 838 4697 
Q 1022 4697 1150 4578 
Q 1278 4459 1278 4281 
Q 1278 4113 1150 3992 
Q 1022 3872 838 3872 
z
M 1197 0 
L 472 0 
L 472 3200 
L 1197 3200 
L 1197 0 
z
" transform="scale(0.015625)"/>
     <path id="SegoeUI-Semibold-70" d="M 1209 472 
L 1197 472 
L 1197 -1472 
L 472 -1472 
L 472 3200 
L 1197 3200 
L 1197 2638 
L 1209 2638 
Q 1581 3275 2297 3275 
Q 2906 3275 3247 2847 
Q 3588 2419 3588 1697 
Q 3588 897 3203 415 
Q 2819 -66 2153 -66 
Q 1541 -66 1209 472 
z
M 1191 1734 
L 1191 1338 
Q 1191 988 1414 744 
Q 1638 500 1981 500 
Q 2384 500 2614 814 
Q 2844 1128 2844 1691 
Q 2844 2163 2630 2430 
Q 2416 2697 2050 2697 
Q 1663 2697 1427 2422 
Q 1191 2147 1191 1734 
z
" transform="scale(0.015625)"/>
     <path id="SegoeUI-Semibold-6c" d="M 1200 0 
L 472 0 
L 472 4738 
L 1200 4738 
L 1200 0 
z
" transform="scale(0.015625)"/>
     <path id="SegoeUI-Semibold-6e" d="M 3322 0 
L 2597 0 
L 2597 1803 
Q 2597 2700 1963 2700 
Q 1631 2700 1415 2451 
Q 1200 2203 1200 1825 
L 1200 0 
L 472 0 
L 472 3200 
L 1200 3200 
L 1200 2669 
L 1213 2669 
Q 1572 3275 2250 3275 
Q 2772 3275 3047 2936 
Q 3322 2597 3322 1956 
L 3322 0 
z
" transform="scale(0.015625)"/>
    </defs>
    <use xlink:href="#SegoeUI-Semibold-50"/>
    <use xlink:href="#SegoeUI-Semibold-72" transform="translate(58.447266 0)"/>
    <use xlink:href="#SegoeUI-Semibold-6f" transform="translate(94.583984 0)"/>
    <use xlink:href="#SegoeUI-Semibold-6a" transform="translate(154.300781 0)"/>
    <use xlink:href="#SegoeUI-Semibold-65" transform="translate(180.423828 0)"/>
    <use xlink:href="#SegoeUI-Semibold-63" transform="translate(233.548828 0)"/>
    <use xlink:href="#SegoeUI-Semibold-74" transform="translate(280.570312 0)"/>
    <use xlink:href="#SegoeUI-Semibold-20" transform="translate(316.703125 0)"/>
    <use xlink:href="#SegoeUI-Semibold-50" transform="translate(344.193359 0)"/>
    <use xlink:href="#SegoeUI-Semibold-69" transform="translate(402.640625 0)"/>
    <use xlink:href="#SegoeUI-Semibold-70" transform="translate(428.763672 0)"/>
    <use xlink:href="#SegoeUI-Semibold-65" transform="translate(489.017578 0)"/>
    <use xlink:href="#SegoeUI-Semibold-6c" transform="translate(542.142578 0)"/>
    <use xlink:href="#SegoeUI-Semibold-69" transform="translate(568.265625 0)"/>
    <use xlink:href="#SegoeUI-Semibold-6e" transform="translate(594.388672 0)"/>
    <use xlink:href="#SegoeUI-Semibold-65" transform="translate(652.738281 0)"/>
   </g>
  </g>
  <g id="text_2">
   <g id="patch_6">
    <path d="M 106.16 209.18125 
L 126.30125 209.18125 
Q 127.26125 209.18125 127.26125 208.22125 
L 127.26125 196.77875 
Q 127.26125 195.81875 126.30125 195.81875 
L 106.16 195.81875 
Q 105.2 195.81875 105.2 196.77875 
L 105.2 208.22125 
Q 105.2 209.18125 106.16 209.18125 
z
" style="fill: #f7931a; opacity: 0.82; stroke: #f7931a; stroke-width: 0.8; stroke-linejoin: miter"/>
   </g>
   <!-- Data -->
   <g style="fill: #111827" transform="translate(108 204.54125) scale(0.08 -0.08)">
    <defs>
     <path id="SegoeUI-44" d="M 588 0 
L 588 4481 
L 1825 4481 
Q 4194 4481 4194 2297 
Q 4194 1259 3536 629 
Q 2878 0 1775 0 
L 588 0 
z
M 1113 4006 
L 1113 475 
L 1781 475 
Q 2663 475 3153 947 
Q 3644 1419 3644 2284 
Q 3644 4006 1813 4006 
L 1113 4006 
z
" transform="scale(0.015625)"/>
     <path id="SegoeUI-61" d="M 2809 0 
L 2297 0 
L 2297 500 
L 2284 500 
Q 1950 -75 1300 -75 
Q 822 -75 551 178 
Q 281 431 281 850 
Q 281 1747 1338 1894 
L 2297 2028 
Q 2297 2844 1638 2844 
Q 1059 2844 594 2450 
L 594 2975 
Q 1066 3275 1681 3275 
Q 2809 3275 2809 2081 
L 2809 0 
z
M 2297 1619 
L 1525 1513 
Q 1169 1463 987 1336 
Q 806 1209 806 888 
Q 806 653 973 504 
Q 1141 356 1419 356 
Q 1800 356 2048 623 
Q 2297 891 2297 1300 
L 2297 1619 
z
" transform="scale(0.015625)"/>
     <path id="SegoeUI-74" d="M 2003 31 
Q 1822 -69 1525 -69 
Q 684 -69 684 869 
L 684 2763 
L 134 2763 
L 134 3200 
L 684 3200 
L 684 3981 
L 1197 4147 
L 1197 3200 
L 2003 3200 
L 2003 2763 
L 1197 2763 
L 1197 959 
Q 1197 638 1306 500 
Q 1416 363 1669 363 
Q 1863 363 2003 469 
L 2003 31 
z
" transform="scale(0.015625)"/>
    </defs>
    <use xlink:href="#SegoeUI-44"/>
    <use xlink:href="#SegoeUI-61" transform="translate(70.117188 0)"/>
    <use xlink:href="#SegoeUI-74" transform="translate(120.996094 0)"/>
    <use xlink:href="#SegoeUI-61" transform="translate(154.882812 0)"/>
   </g>
  </g>
  <g id="text_3">
   <g id="patch_7">
    <path d="M 264.56 209.18125 
L 297.88875 209.18125 
Q 298.84875 209.18125 298.84875 208.22125 
L 298.84875 196.77875 
Q 298.84875 195.81875 297.88875 195.81875 
L 264.56 195.81875 
Q 263.6 195.81875 263.6 196.77875 
L 263.6 208.22125 
Q 263.6 209.18125 264.56 209.18125 
z
" style="fill: #627eea; opacity: 0.82; stroke: #627eea; stroke-width: 0.8; stroke-linejoin: miter"/>
   </g>
   <!-- Features -->
   <g style="fill: #111827" transform="translate(266.4 204.54125) scale(0.08 -0.08)">
    <defs>
     <path id="SegoeUI-46" d="M 2863 4006 
L 1113 4006 
L 1113 2456 
L 2731 2456 
L 2731 1984 
L 1113 1984 
L 1113 0 
L 588 0 
L 588 4481 
L 2863 4481 
L 2863 4006 
z
" transform="scale(0.015625)"/>
     <path id="SegoeUI-65" d="M 3091 1472 
L 831 1472 
Q 844 938 1119 647 
Q 1394 356 1875 356 
Q 2416 356 2869 713 
L 2869 231 
Q 2447 -75 1753 -75 
Q 1075 -75 687 361 
Q 300 797 300 1588 
Q 300 2334 723 2804 
Q 1147 3275 1775 3275 
Q 2403 3275 2747 2869 
Q 3091 2463 3091 1741 
L 3091 1472 
z
M 2566 1906 
Q 2563 2350 2352 2597 
Q 2141 2844 1766 2844 
Q 1403 2844 1150 2584 
Q 897 2325 838 1906 
L 2566 1906 
z
" transform="scale(0.015625)"/>
     <path id="SegoeUI-75" d="M 3106 0 
L 2594 0 
L 2594 506 
L 2581 506 
Q 2263 -75 1594 -75 
Q 450 -75 450 1288 
L 450 3200 
L 959 3200 
L 959 1369 
Q 959 356 1734 356 
Q 2109 356 2351 632 
Q 2594 909 2594 1356 
L 2594 3200 
L 3106 3200 
L 3106 0 
z
" transform="scale(0.015625)"/>
     <path id="SegoeUI-72" d="M 2188 2681 
Q 2053 2784 1800 2784 
Q 1472 2784 1251 2475 
Q 1031 2166 1031 1631 
L 1031 0 
L 519 0 
L 519 3200 
L 1031 3200 
L 1031 2541 
L 1044 2541 
Q 1153 2878 1378 3067 
Q 1603 3256 1881 3256 
Q 2081 3256 2188 3213 
L 2188 2681 
z
" transform="scale(0.015625)"/>
     <path id="SegoeUI-73" d="M 325 116 
L 325 666 
Q 744 356 1247 356 
Q 1922 356 1922 806 
Q 1922 934 1864 1023 
Q 1806 1113 1707 1181 
Q 1609 1250 1476 1304 
Q 1344 1359 1191 1419 
Q 978 1503 817 1589 
Q 656 1675 548 1783 
Q 441 1891 386 2028 
Q 331 2166 331 2350 
Q 331 2575 434 2748 
Q 538 2922 709 3039 
Q 881 3156 1101 3215 
Q 1322 3275 1556 3275 
Q 1972 3275 2300 3131 
L 2300 2613 
Q 1947 2844 1488 2844 
Q 1344 2844 1228 2811 
Q 1113 2778 1030 2718 
Q 947 2659 901 2576 
Q 856 2494 856 2394 
Q 856 2269 901 2184 
Q 947 2100 1034 2034 
Q 1122 1969 1247 1916 
Q 1372 1863 1531 1800 
Q 1744 1719 1912 1633 
Q 2081 1547 2200 1439 
Q 2319 1331 2383 1190 
Q 2447 1050 2447 856 
Q 2447 619 2342 444 
Q 2238 269 2063 153 
Q 1888 38 1659 -18 
Q 1431 -75 1181 -75 
Q 688 -75 325 116 
z
" transform="scale(0.015625)"/>
    </defs>
    <use xlink:href="#SegoeUI-46"/>
    <use xlink:href="#SegoeUI-65" transform="translate(48.828125 0)"/>
    <use xlink:href="#SegoeUI-61" transform="translate(101.123047 0)"/>
    <use xlink:href="#SegoeUI-74" transform="translate(152.001953 0)"/>
    <use xlink:href="#SegoeUI-75" transform="translate(185.888672 0)"/>
    <use xlink:href="#SegoeUI-72" transform="translate(242.480469 0)"/>
    <use xlink:href="#SegoeUI-65" transform="translate(275.871094 0)"/>
    <use xlink:href="#SegoeUI-73" transform="translate(328.166016 0)"/>
   </g>
  </g>
  <g id="text_4">
   <g id="patch_8">
    <path d="M 422.96 209.18125 
L 452.73875 209.18125 
Q 453.69875 209.18125 453.69875 208.22125 
L 453.69875 196.77875 
Q 453.69875 195.81875 452.73875 195.81875 
L 422.96 195.81875 
Q 422 195.81875 422 196.77875 
L 422 208.22125 
Q 422 209.18125 422.96 209.18125 
z
" style="fill: #0f766e; opacity: 0.82; stroke: #0f766e; stroke-width: 0.8; stroke-linejoin: miter"/>
   </g>
   <!-- Models -->
   <g style="fill: #111827" transform="translate(424.8 204.54125) scale(0.08 -0.08)">
    <defs>
     <path id="SegoeUI-4d" d="M 5156 0 
L 4634 0 
L 4634 3006 
Q 4634 3363 4678 3878 
L 4666 3878 
Q 4591 3575 4531 3444 
L 3000 0 
L 2744 0 
L 1216 3419 
Q 1150 3569 1081 3878 
L 1069 3878 
Q 1094 3609 1094 3000 
L 1094 0 
L 588 0 
L 588 4481 
L 1281 4481 
L 2656 1356 
Q 2816 997 2863 819 
L 2881 819 
Q 3016 1188 3097 1369 
L 4500 4481 
L 5156 4481 
L 5156 0 
z
" transform="scale(0.015625)"/>
     <path id="SegoeUI-6f" d="M 1856 -75 
Q 1147 -75 723 373 
Q 300 822 300 1563 
Q 300 2369 740 2822 
Q 1181 3275 1931 3275 
Q 2647 3275 3048 2834 
Q 3450 2394 3450 1613 
Q 3450 847 3017 386 
Q 2584 -75 1856 -75 
z
M 1894 2844 
Q 1400 2844 1112 2508 
Q 825 2172 825 1581 
Q 825 1013 1115 684 
Q 1406 356 1894 356 
Q 2391 356 2658 678 
Q 2925 1000 2925 1594 
Q 2925 2194 2658 2519 
Q 2391 2844 1894 2844 
z
" transform="scale(0.015625)"/>
     <path id="SegoeUI-64" d="M 3250 0 
L 2738 0 
L 2738 544 
L 2725 544 
Q 2369 -75 1625 -75 
Q 1022 -75 661 354 
Q 300 784 300 1525 
Q 300 2319 700 2797 
Q 1100 3275 1766 3275 
Q 2425 3275 2725 2756 
L 2738 2756 
L 2738 4738 
L 3250 4738 
L 3250 0 
z
M 2738 1447 
L 2738 1919 
Q 2738 2306 2481 2575 
Q 2225 2844 1831 2844 
Q 1363 2844 1094 2500 
Q 825 2156 825 1550 
Q 825 997 1083 676 
Q 1341 356 1775 356 
Q 2203 356 2470 665 
Q 2738 975 2738 1447 
z
" transform="scale(0.015625)"/>
     <path id="SegoeUI-6c" d="M 1031 0 
L 519 0 
L 519 4738 
L 1031 4738 
L 1031 0 
z
" transform="scale(0.015625)"/>
    </defs>
    <use xlink:href="#SegoeUI-4d"/>
    <use xlink:href="#SegoeUI-6f" transform="translate(89.794922 0)"/>
    <use xlink:href="#SegoeUI-64" transform="translate(148.388672 0)"/>
    <use xlink:href="#SegoeUI-65" transform="translate(207.275391 0)"/>
    <use xlink:href="#SegoeUI-6c" transform="translate(259.570312 0)"/>
    <use xlink:href="#SegoeUI-73" transform="translate(283.789062 0)"/>
   </g>
  </g>
  <g id="text_5">
   <g id="patch_9">
    <path d="M 581.36 209.18125 
L 613.6475 209.18125 
Q 614.6075 209.18125 614.6075 208.22125 
L 614.6075 196.77875 
Q 614.6075 195.81875 613.6475 195.81875 
L 581.36 195.81875 
Q 580.4 195.81875 580.4 196.77875 
L 580.4 208.22125 
Q 580.4 209.18125 581.36 209.18125 
z
" style="fill: #d97706; opacity: 0.82; stroke: #d97706; stroke-width: 0.8; stroke-linejoin: miter"/>
   </g>
   <!-- Outputs -->
   <g style="fill: #111827" transform="translate(583.2 204.54125) scale(0.08 -0.08)">
    <defs>
     <path id="SegoeUI-4f" d="M 2394 -75 
Q 1441 -75 867 553 
Q 294 1181 294 2188 
Q 294 3269 878 3912 
Q 1463 4556 2469 4556 
Q 3397 4556 3964 3931 
Q 4531 3306 4531 2297 
Q 4531 1200 3950 562 
Q 3369 -75 2394 -75 
z
M 2431 4081 
Q 1725 4081 1284 3572 
Q 844 3063 844 2234 
Q 844 1406 1273 901 
Q 1703 397 2394 397 
Q 3131 397 3556 878 
Q 3981 1359 3981 2225 
Q 3981 3113 3568 3597 
Q 3156 4081 2431 4081 
z
" transform="scale(0.015625)"/>
     <path id="SegoeUI-70" d="M 1044 463 
L 1031 463 
L 1031 -1472 
L 519 -1472 
L 519 3200 
L 1031 3200 
L 1031 2638 
L 1044 2638 
Q 1422 3275 2150 3275 
Q 2769 3275 3116 2845 
Q 3463 2416 3463 1694 
Q 3463 891 3072 408 
Q 2681 -75 2003 -75 
Q 1381 -75 1044 463 
z
M 1031 1753 
L 1031 1306 
Q 1031 909 1289 632 
Q 1547 356 1944 356 
Q 2409 356 2673 712 
Q 2938 1069 2938 1703 
Q 2938 2238 2691 2541 
Q 2444 2844 2022 2844 
Q 1575 2844 1303 2533 
Q 1031 2222 1031 1753 
z
" transform="scale(0.015625)"/>
    </defs>
    <use xlink:href="#SegoeUI-4f"/>
    <use xlink:href="#SegoeUI-75" transform="translate(75.390625 0)"/>
    <use xlink:href="#SegoeUI-74" transform="translate(131.982422 0)"/>
    <use xlink:href="#SegoeUI-70" transform="translate(165.869141 0)"/>
    <use xlink:href="#SegoeUI-75" transform="translate(224.658203 0)"/>
    <use xlink:href="#SegoeUI-74" transform="translate(281.25 0)"/>
    <use xlink:href="#SegoeUI-73" transform="translate(315.136719 0)"/>
   </g>
  </g>
 </g>
</svg>
