<?xml version="1.0" encoding="utf-8" standalone="no"?>
<!DOCTYPE svg PUBLIC "-//W3C//DTD SVG 1.1//EN"
  "http://www.w3.org/Graphics/SVG/1.1/DTD/svg11.dtd">
<svg xmlns:xlink="http://www.w3.org/1999/xlink" width="633.929666pt" height="361.872162pt" viewBox="0 0 633.929666 361.872162" xmlns="http://www.w3.org/2000/svg" version="1.1">
 <metadata>
  <rdf:RDF xmlns:dc="http://purl.org/dc/elements/1.1/" xmlns:cc="http://creativecommons.org/ns#" xmlns:rdf="http://www.w3.org/1999/02/22-rdf-syntax-ns#">
   <cc:Work>
    <dc:type rdf:resource="http://purl.org/dc/dcmitype/StillImage"/>
    <dc:date>2026-06-16T14:42:02.220773</dc:date>
    <dc:format>image/svg+xml</dc:format>
    <dc:creator>
     <cc:Agent>
      <dc:title>Matplotlib v3.10.8, https://matplotlib.org/</dc:title>
     </cc:Agent>
    </dc:creator>
   </cc:Work>
  </rdf:RDF>
 </metadata>
 <defs>
  <style type="text/css">*{stroke-linejoin: round; stroke-linecap: butt}</style>
 </defs>
 <g id="figure_1">
  <g id="patch_1">
   <path d="M 0 361.872162 
L 633.929666 361.872162 
L 633.929666 0 
L 0 0 
z
" style="fill: #fafaf7"/>
  </g>
  <g id="axes_1">
   <g id="patch_2">
    <path d="M 75.6 325.125 
L 615.6 325.125 
L 615.6 61.875 
L 75.6 61.875 
z
" style="fill: #ffffff"/>
   </g>
   <g id="patch_3">
    <path d="M 536.458504 73.840909 
L 589.654966 73.840909 
L 589.654966 92.25 
L 536.458504 92.25 
z
" clip-path="url(#p5685ebbce2)" style="fill: #0f766e; opacity: 0.8"/>
   </g>
   <g id="patch_4">
    <path d="M 484.043038 110.659091 
L 589.885714 110.659091 
L 589.885714 129.068182 
L 484.043038 129.068182 
z
" clip-path="url(#p5685ebbce2)" style="fill: #0f766e; opacity: 0.8"/>
   </g>
   <g id="patch_5">
    <path d="M 459.885418 147.477273 
L 589.566216 147.477273 
L 589.566216 165.886364 
L 459.885418 165.886364 
z
" clip-path="url(#p5685ebbce2)" style="fill: #0f766e; opacity: 0.8"/>
   </g>
   <g id="patch_6">
    <path d="M 524.867816 184.295455 
L 589.690465 184.295455 
L 589.690465 202.704545 
L 524.867816 202.704545 
z
" clip-path="url(#p5685ebbce2)" style="fill: #0f766e; opacity: 0.8"/>
   </g>
   <g id="patch_7">
    <path d="M 75.6 221.113636 
L 589.654966 221.113636 
L 589.654966 239.522727 
L 75.6 239.522727 
z
" clip-path="url(#p5685ebbce2)" style="fill: #0f766e; opacity: 0.8"/>
   </g>
   <g id="patch_8">
    <path d="M 574.975795 257.931818 
L 589.530716 257.931818 
L 589.530716 276.340909 
L 574.975795 276.340909 
z
" clip-path="url(#p5685ebbce2)" style="fill: #0f766e; opacity: 0.8"/>
   </g>
   <g id="patch_9">
    <path d="M 205.760045 294.75 
L 589.690465 294.75 
L 589.690465 313.159091 
L 205.760045 313.159091 
z
" clip-path="url(#p5685ebbce2)" style="fill: #0f766e; opacity: 0.8"/>
   </g>
   <g id="matplotlib.axis_1">
    <g id="xtick_1">
     <g id="line2d_1">
      <path d="M 95.053895 325.125 
L 95.053895 61.875 
" clip-path="url(#p5685ebbce2)" style="fill: none; stroke: #d9dee7; stroke-opacity: 0.45; stroke-width: 0.7; stroke-linecap: square"/>
     </g>
     <g id="line2d_2"/>
     <g id="text_1">
      <!-- 1950-01 -->
      <g style="fill: #6b7280" transform="translate(86.218153 353.371086) rotate(-45) scale(0.08 -0.08)">
       <defs>
        <path id="SegoeUI-31" d="M 2263 0 
L 1750 0 
L 1750 3872 
Q 1691 3813 1577 3736 
Q 1463 3659 1320 3584 
Q 1178 3509 1020 3443 
Q 863 3378 713 3341 
L 713 3859 
Q 881 3906 1070 3986 
Q 1259 4066 1442 4164 
Q 1625 4263 1787 4370 
Q 1950 4478 2069 4581 
L 2263 4581 
L 2263 0 
z
" transform="scale(0.015625)"/>
        <path id="SegoeUI-39" d="M 3138 2509 
Q 3138 1894 3016 1414 
Q 2894 934 2659 601 
Q 2425 269 2087 95 
Q 1750 -78 1319 -78 
Q 875 -78 538 78 
L 538 569 
Q 909 359 1331 359 
Q 1634 359 1873 484 
Q 2113 609 2278 848 
Q 2444 1088 2531 1438 
Q 2619 1788 2619 2241 
L 2606 2241 
Q 2319 1663 1606 1663 
Q 1319 1663 1078 1764 
Q 838 1866 663 2052 
Q 488 2238 391 2494 
Q 294 2750 294 3059 
Q 294 3391 401 3666 
Q 509 3941 701 4139 
Q 894 4338 1158 4447 
Q 1422 4556 1734 4556 
Q 2072 4556 2333 4420 
Q 2594 4284 2772 4023 
Q 2950 3763 3044 3381 
Q 3138 3000 3138 2509 
z
M 2584 2969 
Q 2584 3228 2517 3440 
Q 2450 3653 2331 3804 
Q 2213 3956 2048 4039 
Q 1884 4122 1691 4122 
Q 1506 4122 1347 4048 
Q 1188 3975 1070 3842 
Q 953 3709 886 3526 
Q 819 3344 819 3128 
Q 819 2891 883 2703 
Q 947 2516 1065 2386 
Q 1184 2256 1351 2187 
Q 1519 2119 1722 2119 
Q 1900 2119 2058 2186 
Q 2216 2253 2333 2367 
Q 2450 2481 2517 2636 
Q 2584 2791 2584 2969 
z
" transform="scale(0.015625)"/>
        <path id="SegoeUI-35" d="M 3028 1369 
Q 3028 1041 2915 775 
Q 2803 509 2595 318 
Q 2388 128 2094 25 
Q 1800 -78 1441 -78 
Q 816 -78 513 109 
L 513 653 
Q 969 359 1447 359 
Q 1691 359 1886 431 
Q 2081 503 2218 631 
Q 2356 759 2429 940 
Q 2503 1122 2503 1338 
Q 2503 1775 2209 2023 
Q 1916 2272 1356 2272 
Q 1266 2272 1166 2269 
Q 1066 2266 966 2261 
Q 866 2256 770 2250 
Q 675 2244 597 2234 
L 750 4481 
L 2822 4481 
L 2822 4019 
L 1194 4019 
L 1103 2703 
Q 1203 2709 1315 2714 
Q 1428 2719 1516 2719 
Q 1872 2719 2153 2625 
Q 2434 2531 2629 2357 
Q 2825 2184 2926 1932 
Q 3028 1681 3028 1369 
z
" transform="scale(0.015625)"/>
        <path id="SegoeUI-30" d="M 3188 2259 
Q 3188 1697 3086 1262 
Q 2984 828 2792 529 
Q 2600 231 2320 76 
Q 2041 -78 1684 -78 
Q 1347 -78 1083 70 
Q 819 219 637 503 
Q 456 788 362 1202 
Q 269 1616 269 2150 
Q 269 2738 367 3188 
Q 466 3638 656 3942 
Q 847 4247 1130 4401 
Q 1413 4556 1778 4556 
Q 3188 4556 3188 2259 
z
M 2663 2209 
Q 2663 4122 1753 4122 
Q 794 4122 794 2175 
Q 794 359 1734 359 
Q 2663 359 2663 2209 
z
" transform="scale(0.015625)"/>
        <path id="SegoeUI-2d" d="M 2156 1581 
L 450 1581 
L 450 1984 
L 2156 1984 
L 2156 1581 
z
" transform="scale(0.015625)"/>
       </defs>
       <use xlink:href="#SegoeUI-31"/>
       <use xlink:href="#SegoeUI-39" transform="translate(53.90625 0)"/>
       <use xlink:href="#SegoeUI-35" transform="translate(107.8125 0)"/>
       <use xlink:href="#SegoeUI-30" transform="translate(161.71875 0)"/>
       <use xlink:href="#SegoeUI-2d" transform="translate(215.625 0)"/>
       <use xlink:href="#SegoeUI-30" transform="translate(255.615234 0)"/>
       <use xlink:href="#SegoeUI-31" transform="translate(309.521484 0)"/>
      </g>
     </g>
    </g>
    <g id="xtick_2">
     <g id="line2d_3">
      <path d="M 159.876544 325.125 
L 159.876544 61.875 
" clip-path="url(#p5685ebbce2)" style="fill: none; stroke: #d9dee7; stroke-opacity: 0.45; stroke-width: 0.7; stroke-linecap: square"/>
     </g>
     <g id="line2d_4"/>
     <g id="text_2">
      <!-- 1960-01 -->
      <g style="fill: #6b7280" transform="translate(151.040802 353.371086) rotate(-45) scale(0.08 -0.08)">
       <defs>
        <path id="SegoeUI-36" d="M 3194 1422 
Q 3194 1094 3087 819 
Q 2981 544 2793 344 
Q 2606 144 2347 33 
Q 2088 -78 1784 -78 
Q 1447 -78 1180 62 
Q 913 203 727 467 
Q 541 731 444 1112 
Q 347 1494 347 1972 
Q 347 2556 476 3032 
Q 606 3509 845 3848 
Q 1084 4188 1421 4372 
Q 1759 4556 2175 4556 
Q 2638 4556 2919 4428 
L 2919 3944 
Q 2572 4122 2188 4122 
Q 1888 4122 1647 3987 
Q 1406 3853 1234 3608 
Q 1063 3363 970 3016 
Q 878 2669 878 2244 
L 891 2244 
Q 1200 2803 1913 2803 
Q 2206 2803 2442 2703 
Q 2678 2603 2845 2420 
Q 3013 2238 3103 1984 
Q 3194 1731 3194 1422 
z
M 2669 1356 
Q 2669 1591 2609 1778 
Q 2550 1966 2439 2097 
Q 2328 2228 2165 2298 
Q 2003 2369 1797 2369 
Q 1606 2369 1443 2297 
Q 1281 2225 1162 2101 
Q 1044 1978 976 1814 
Q 909 1650 909 1466 
Q 909 1234 975 1032 
Q 1041 831 1159 681 
Q 1278 531 1442 445 
Q 1606 359 1806 359 
Q 2000 359 2159 432 
Q 2319 506 2431 637 
Q 2544 769 2606 951 
Q 2669 1134 2669 1356 
z
" transform="scale(0.015625)"/>
       </defs>
       <use xlink:href="#SegoeUI-31"/>
       <use xlink:href="#SegoeUI-39" transform="translate(53.90625 0)"/>
       <use xlink:href="#SegoeUI-36" transform="translate(107.8125 0)"/>
       <use xlink:href="#SegoeUI-30" transform="translate(161.71875 0)"/>
       <use xlink:href="#SegoeUI-2d" transform="translate(215.625 0)"/>
       <use xlink:href="#SegoeUI-30" transform="translate(255.615234 0)"/>
       <use xlink:href="#SegoeUI-31" transform="translate(309.521484 0)"/>
      </g>
     </g>
    </g>
    <g id="xtick_3">
     <g id="line2d_5">
      <path d="M 224.716942 325.125 
L 224.716942 61.875 
" clip-path="url(#p5685ebbce2)" style="fill: none; stroke: #d9dee7; stroke-opacity: 0.45; stroke-width: 0.7; stroke-linecap: square"/>
     </g>
     <g id="line2d_6"/>
     <g id="text_3">
      <!-- 1970-01 -->
      <g style="fill: #6b7280" transform="translate(215.881201 353.371086) rotate(-45) scale(0.08 -0.08)">
       <defs>
        <path id="SegoeUI-37" d="M 3156 4184 
Q 3053 4006 2908 3740 
Q 2763 3475 2600 3144 
Q 2438 2813 2269 2431 
Q 2100 2050 1953 1644 
Q 1806 1238 1695 820 
Q 1584 403 1534 0 
L 984 0 
Q 1041 400 1158 817 
Q 1275 1234 1423 1636 
Q 1572 2038 1737 2409 
Q 1903 2781 2059 3093 
Q 2216 3406 2345 3645 
Q 2475 3884 2553 4019 
L 306 4019 
L 306 4481 
L 3156 4481 
L 3156 4184 
z
" transform="scale(0.015625)"/>
       </defs>
       <use xlink:href="#SegoeUI-31"/>
       <use xlink:href="#SegoeUI-39" transform="translate(53.90625 0)"/>
       <use xlink:href="#SegoeUI-37" transform="translate(107.8125 0)"/>
       <use xlink:href="#SegoeUI-30" transform="translate(161.71875 0)"/>
       <use xlink:href="#SegoeUI-2d" transform="translate(215.625 0)"/>
       <use xlink:href="#SegoeUI-30" transform="translate(255.615234 0)"/>
       <use xlink:href="#SegoeUI-31" transform="translate(309.521484 0)"/>
      </g>
     </g>
    </g>
    <g id="xtick_4">
     <g id="line2d_7">
      <path d="M 289.539591 325.125 
L 289.539591 61.875 
" clip-path="url(#p5685ebbce2)" style="fill: none; stroke: #d9dee7; stroke-opacity: 0.45; stroke-width: 0.7; stroke-linecap: square"/>
     </g>
     <g id="line2d_8"/>
     <g id="text_4">
      <!-- 1980-01 -->
      <g style="fill: #6b7280" transform="translate(280.70385 353.371086) rotate(-45) scale(0.08 -0.08)">
       <defs>
        <path id="SegoeUI-38" d="M 281 1250 
Q 281 1428 337 1608 
Q 394 1788 498 1944 
Q 603 2100 758 2228 
Q 913 2356 1109 2431 
Q 819 2594 647 2848 
Q 475 3103 475 3413 
Q 475 3659 570 3868 
Q 666 4078 834 4231 
Q 1003 4384 1234 4470 
Q 1466 4556 1734 4556 
Q 2006 4556 2237 4468 
Q 2469 4381 2637 4228 
Q 2806 4075 2900 3865 
Q 2994 3656 2994 3413 
Q 2994 3103 2822 2848 
Q 2650 2594 2366 2431 
Q 2559 2356 2712 2228 
Q 2866 2100 2970 1944 
Q 3075 1788 3131 1608 
Q 3188 1428 3188 1250 
Q 3188 956 3081 712 
Q 2975 469 2783 295 
Q 2591 122 2323 25 
Q 2056 -72 1734 -72 
Q 1416 -72 1150 25 
Q 884 122 690 295 
Q 497 469 389 712 
Q 281 956 281 1250 
z
M 838 1294 
Q 838 1084 902 915 
Q 966 747 1083 628 
Q 1200 509 1367 445 
Q 1534 381 1738 381 
Q 1934 381 2100 447 
Q 2266 513 2386 631 
Q 2506 750 2573 919 
Q 2641 1088 2641 1294 
Q 2641 1481 2577 1645 
Q 2513 1809 2394 1934 
Q 2275 2059 2109 2131 
Q 1944 2203 1738 2203 
Q 1544 2203 1380 2136 
Q 1216 2069 1095 1948 
Q 975 1828 906 1661 
Q 838 1494 838 1294 
z
M 997 3372 
Q 997 3213 1055 3077 
Q 1113 2941 1214 2839 
Q 1316 2738 1450 2680 
Q 1584 2622 1738 2622 
Q 1891 2622 2027 2681 
Q 2163 2741 2263 2842 
Q 2363 2944 2422 3080 
Q 2481 3216 2481 3372 
Q 2481 3534 2423 3671 
Q 2366 3809 2266 3909 
Q 2166 4009 2030 4067 
Q 1894 4125 1738 4125 
Q 1572 4125 1436 4065 
Q 1300 4006 1201 3904 
Q 1103 3803 1050 3665 
Q 997 3528 997 3372 
z
" transform="scale(0.015625)"/>
       </defs>
       <use xlink:href="#SegoeUI-31"/>
       <use xlink:href="#SegoeUI-39" transform="translate(53.90625 0)"/>
       <use xlink:href="#SegoeUI-38" transform="translate(107.8125 0)"/>
       <use xlink:href="#SegoeUI-30" transform="translate(161.71875 0)"/>
       <use xlink:href="#SegoeUI-2d" transform="translate(215.625 0)"/>
       <use xlink:href="#SegoeUI-30" transform="translate(255.615234 0)"/>
       <use xlink:href="#SegoeUI-31" transform="translate(309.521484 0)"/>
      </g>
     </g>
    </g>
    <g id="xtick_5">
     <g id="line2d_9">
      <path d="M 354.37999 325.125 
L 354.37999 61.875 
" clip-path="url(#p5685ebbce2)" style="fill: none; stroke: #d9dee7; stroke-opacity: 0.45; stroke-width: 0.7; stroke-linecap: square"/>
     </g>
     <g id="line2d_10"/>
     <g id="text_5">
      <!-- 1990-01 -->
      <g style="fill: #6b7280" transform="translate(345.544249 353.371086) rotate(-45) scale(0.08 -0.08)">
       <use xlink:href="#SegoeUI-31"/>
       <use xlink:href="#SegoeUI-39" transform="translate(53.90625 0)"/>
       <use xlink:href="#SegoeUI-39" transform="translate(107.8125 0)"/>
       <use xlink:href="#SegoeUI-30" transform="translate(161.71875 0)"/>
       <use xlink:href="#SegoeUI-2d" transform="translate(215.625 0)"/>
       <use xlink:href="#SegoeUI-30" transform="translate(255.615234 0)"/>
       <use xlink:href="#SegoeUI-31" transform="translate(309.521484 0)"/>
      </g>
     </g>
    </g>
    <g id="xtick_6">
     <g id="line2d_11">
      <path d="M 419.202639 325.125 
L 419.202639 61.875 
" clip-path="url(#p5685ebbce2)" style="fill: none; stroke: #d9dee7; stroke-opacity: 0.45; stroke-width: 0.7; stroke-linecap: square"/>
     </g>
     <g id="line2d_12"/>
     <g id="text_6">
      <!-- 2000-01 -->
      <g style="fill: #6b7280" transform="translate(410.366898 353.371086) rotate(-45) scale(0.08 -0.08)">
       <defs>
        <path id="SegoeUI-32" d="M 2413 3306 
Q 2413 3513 2348 3666 
Q 2284 3819 2173 3920 
Q 2063 4022 1913 4072 
Q 1763 4122 1588 4122 
Q 1438 4122 1294 4081 
Q 1150 4041 1014 3969 
Q 878 3897 751 3797 
Q 625 3697 516 3575 
L 516 4125 
Q 731 4334 998 4445 
Q 1266 4556 1650 4556 
Q 1925 4556 2159 4476 
Q 2394 4397 2566 4244 
Q 2738 4091 2836 3866 
Q 2934 3641 2934 3350 
Q 2934 3084 2873 2868 
Q 2813 2653 2689 2462 
Q 2566 2272 2378 2097 
Q 2191 1922 1938 1741 
Q 1622 1516 1417 1356 
Q 1213 1197 1092 1058 
Q 972 919 923 780 
Q 875 641 875 459 
L 3106 459 
L 3106 0 
L 341 0 
L 341 222 
Q 341 509 403 728 
Q 466 947 609 1144 
Q 753 1341 986 1537 
Q 1219 1734 1556 1981 
Q 1800 2156 1964 2315 
Q 2128 2475 2228 2634 
Q 2328 2794 2370 2958 
Q 2413 3122 2413 3306 
z
" transform="scale(0.015625)"/>
       </defs>
       <use xlink:href="#SegoeUI-32"/>
       <use xlink:href="#SegoeUI-30" transform="translate(53.90625 0)"/>
       <use xlink:href="#SegoeUI-30" transform="translate(107.8125 0)"/>
       <use xlink:href="#SegoeUI-30" transform="translate(161.71875 0)"/>
       <use xlink:href="#SegoeUI-2d" transform="translate(215.625 0)"/>
       <use xlink:href="#SegoeUI-30" transform="translate(255.615234 0)"/>
       <use xlink:href="#SegoeUI-31" transform="translate(309.521484 0)"/>
      </g>
     </g>
    </g>
    <g id="xtick_7">
     <g id="line2d_13">
      <path d="M 484.043038 325.125 
L 484.043038 61.875 
" clip-path="url(#p5685ebbce2)" style="fill: none; stroke: #d9dee7; stroke-opacity: 0.45; stroke-width: 0.7; stroke-linecap: square"/>
     </g>
     <g id="line2d_14"/>
     <g id="text_7">
      <!-- 2010-01 -->
      <g style="fill: #6b7280" transform="translate(475.207296 353.371086) rotate(-45) scale(0.08 -0.08)">
       <use xlink:href="#SegoeUI-32"/>
       <use xlink:href="#SegoeUI-30" transform="translate(53.90625 0)"/>
       <use xlink:href="#SegoeUI-31" transform="translate(107.8125 0)"/>
       <use xlink:href="#SegoeUI-30" transform="translate(161.71875 0)"/>
       <use xlink:href="#SegoeUI-2d" transform="translate(215.625 0)"/>
       <use xlink:href="#SegoeUI-30" transform="translate(255.615234 0)"/>
       <use xlink:href="#SegoeUI-31" transform="translate(309.521484 0)"/>
      </g>
     </g>
    </g>
    <g id="xtick_8">
     <g id="line2d_15">
      <path d="M 548.865686 325.125 
L 548.865686 61.875 
" clip-path="url(#p5685ebbce2)" style="fill: none; stroke: #d9dee7; stroke-opacity: 0.45; stroke-width: 0.7; stroke-linecap: square"/>
     </g>
     <g id="line2d_16"/>
     <g id="text_8">
      <!-- 2020-01 -->
      <g style="fill: #6b7280" transform="translate(540.029945 353.371086) rotate(-45) scale(0.08 -0.08)">
       <use xlink:href="#SegoeUI-32"/>
       <use xlink:href="#SegoeUI-30" transform="translate(53.90625 0)"/>
       <use xlink:href="#SegoeUI-32" transform="translate(107.8125 0)"/>
       <use xlink:href="#SegoeUI-30" transform="translate(161.71875 0)"/>
       <use xlink:href="#SegoeUI-2d" transform="translate(215.625 0)"/>
       <use xlink:href="#SegoeUI-30" transform="translate(255.615234 0)"/>
       <use xlink:href="#SegoeUI-31" transform="translate(309.521484 0)"/>
      </g>
     </g>
    </g>
    <g id="xtick_9">
     <g id="line2d_17">
      <path d="M 613.706085 325.125 
L 613.706085 61.875 
" clip-path="url(#p5685ebbce2)" style="fill: none; stroke: #d9dee7; stroke-opacity: 0.45; stroke-width: 0.7; stroke-linecap: square"/>
     </g>
     <g id="line2d_18"/>
     <g id="text_9">
      <!-- 2030-01 -->
      <g style="fill: #6b7280" transform="translate(604.870344 353.371086) rotate(-45) scale(0.08 -0.08)">
       <defs>
        <path id="SegoeUI-33" d="M 2978 1269 
Q 2978 966 2864 717 
Q 2750 469 2542 292 
Q 2334 116 2043 19 
Q 1753 -78 1403 -78 
Q 763 -78 384 166 
L 384 716 
Q 838 359 1422 359 
Q 1656 359 1845 418 
Q 2034 478 2170 590 
Q 2306 703 2379 862 
Q 2453 1022 2453 1222 
Q 2453 2100 1203 2100 
L 831 2100 
L 831 2534 
L 1184 2534 
Q 2291 2534 2291 3359 
Q 2291 4122 1447 4122 
Q 972 4122 556 3803 
L 556 4300 
Q 984 4556 1575 4556 
Q 1856 4556 2084 4478 
Q 2313 4400 2475 4259 
Q 2638 4119 2727 3922 
Q 2816 3725 2816 3488 
Q 2816 2603 1922 2350 
L 1922 2338 
Q 2150 2313 2344 2227 
Q 2538 2141 2678 2003 
Q 2819 1866 2898 1680 
Q 2978 1494 2978 1269 
z
" transform="scale(0.015625)"/>
       </defs>
       <use xlink:href="#SegoeUI-32"/>
       <use xlink:href="#SegoeUI-30" transform="translate(53.90625 0)"/>
       <use xlink:href="#SegoeUI-33" transform="translate(107.8125 0)"/>
       <use xlink:href="#SegoeUI-30" transform="translate(161.71875 0)"/>
       <use xlink:href="#SegoeUI-2d" transform="translate(215.625 0)"/>
       <use xlink:href="#SegoeUI-30" transform="translate(255.615234 0)"/>
       <use xlink:href="#SegoeUI-31" transform="translate(309.521484 0)"/>
      </g>
     </g>
    </g>
   </g>
   <g id="matplotlib.axis_2">
    <g id="ytick_1">
     <g id="line2d_19">
      <path d="M 75.6 83.045455 
L 615.6 83.045455 
" clip-path="url(#p5685ebbce2)" style="fill: none; stroke: #d9dee7; stroke-opacity: 0.45; stroke-width: 0.7; stroke-linecap: square"/>
     </g>
     <g id="line2d_20"/>
     <g id="text_10">
      <!-- FRED -->
      <g style="fill: #6b7280" transform="translate(53.75125 86.006705) scale(0.08 -0.08)">
       <defs>
        <path id="SegoeUI-46" d="M 2863 4006 
L 1113 4006 
L 1113 2456 
L 2731 2456 
L 2731 1984 
L 1113 1984 
L 1113 0 
L 588 0 
L 588 4481 
L 2863 4481 
L 2863 4006 
z
" transform="scale(0.015625)"/>
        <path id="SegoeUI-52" d="M 3800 0 
L 3175 0 
L 2425 1256 
Q 2322 1431 2225 1554 
Q 2128 1678 2026 1756 
Q 1925 1834 1808 1870 
Q 1691 1906 1544 1906 
L 1113 1906 
L 1113 0 
L 588 0 
L 588 4481 
L 1925 4481 
Q 2219 4481 2467 4407 
Q 2716 4334 2898 4184 
Q 3081 4034 3184 3811 
Q 3288 3588 3288 3288 
Q 3288 3053 3217 2858 
Q 3147 2663 3017 2509 
Q 2888 2356 2705 2248 
Q 2522 2141 2294 2081 
L 2294 2069 
Q 2406 2019 2489 1955 
Q 2572 1891 2647 1803 
Q 2722 1716 2795 1605 
Q 2869 1494 2959 1347 
L 3800 0 
z
M 1113 4006 
L 1113 2381 
L 1825 2381 
Q 2022 2381 2189 2440 
Q 2356 2500 2478 2611 
Q 2600 2722 2669 2883 
Q 2738 3044 2738 3244 
Q 2738 3603 2505 3804 
Q 2272 4006 1831 4006 
L 1113 4006 
z
" transform="scale(0.015625)"/>
        <path id="SegoeUI-45" d="M 2963 0 
L 588 0 
L 588 4481 
L 2863 4481 
L 2863 4006 
L 1113 4006 
L 1113 2516 
L 2731 2516 
L 2731 2044 
L 1113 2044 
L 1113 475 
L 2963 475 
L 2963 0 
z
" transform="scale(0.015625)"/>
        <path id="SegoeUI-44" d="M 588 0 
L 588 4481 
L 1825 4481 
Q 4194 4481 4194 2297 
Q 4194 1259 3536 629 
Q 2878 0 1775 0 
L 588 0 
z
M 1113 4006 
L 1113 475 
L 1781 475 
Q 2663 475 3153 947 
Q 3644 1419 3644 2284 
Q 3644 4006 1813 4006 
L 1113 4006 
z
" transform="scale(0.015625)"/>
       </defs>
       <use xlink:href="#SegoeUI-46"/>
       <use xlink:href="#SegoeUI-52" transform="translate(48.828125 0)"/>
       <use xlink:href="#SegoeUI-45" transform="translate(108.642578 0)"/>
       <use xlink:href="#SegoeUI-44" transform="translate(159.228516 0)"/>
      </g>
     </g>
    </g>
    <g id="ytick_2">
     <g id="line2d_21">
      <path d="M 75.6 119.863636 
L 615.6 119.863636 
" clip-path="url(#p5685ebbce2)" style="fill: none; stroke: #d9dee7; stroke-opacity: 0.45; stroke-width: 0.7; stroke-linecap: square"/>
     </g>
     <g id="line2d_22"/>
     <g id="text_11">
      <!-- Tradingview -->
      <g style="fill: #6b7280" transform="translate(30.135 122.824886) scale(0.08 -0.08)">
       <defs>
        <path id="SegoeUI-54" d="M 3238 4006 
L 1944 4006 
L 1944 0 
L 1419 0 
L 1419 4006 
L 128 4006 
L 128 4481 
L 3238 4481 
L 3238 4006 
z
" transform="scale(0.015625)"/>
        <path id="SegoeUI-72" d="M 2188 2681 
Q 2053 2784 1800 2784 
Q 1472 2784 1251 2475 
Q 1031 2166 1031 1631 
L 1031 0 
L 519 0 
L 519 3200 
L 1031 3200 
L 1031 2541 
L 1044 2541 
Q 1153 2878 1378 3067 
Q 1603 3256 1881 3256 
Q 2081 3256 2188 3213 
L 2188 2681 
z
" transform="scale(0.015625)"/>
        <path id="SegoeUI-61" d="M 2809 0 
L 2297 0 
L 2297 500 
L 2284 500 
Q 1950 -75 1300 -75 
Q 822 -75 551 178 
Q 281 431 281 850 
Q 281 1747 1338 1894 
L 2297 2028 
Q 2297 2844 1638 2844 
Q 1059 2844 594 2450 
L 594 2975 
Q 1066 3275 1681 3275 
Q 2809 3275 2809 2081 
L 2809 0 
z
M 2297 1619 
L 1525 1513 
Q 1169 1463 987 1336 
Q 806 1209 806 888 
Q 806 653 973 504 
Q 1141 356 1419 356 
Q 1800 356 2048 623 
Q 2297 891 2297 1300 
L 2297 1619 
z
" transform="scale(0.015625)"/>
        <path id="SegoeUI-64" d="M 3250 0 
L 2738 0 
L 2738 544 
L 2725 544 
Q 2369 -75 1625 -75 
Q 1022 -75 661 354 
Q 300 784 300 1525 
Q 300 2319 700 2797 
Q 1100 3275 1766 3275 
Q 2425 3275 2725 2756 
L 2738 2756 
L 2738 4738 
L 3250 4738 
L 3250 0 
z
M 2738 1447 
L 2738 1919 
Q 2738 2306 2481 2575 
Q 2225 2844 1831 2844 
Q 1363 2844 1094 2500 
Q 825 2156 825 1550 
Q 825 997 1083 676 
Q 1341 356 1775 356 
Q 2203 356 2470 665 
Q 2738 975 2738 1447 
z
" transform="scale(0.015625)"/>
        <path id="SegoeUI-69" d="M 781 4013 
Q 644 4013 547 4106 
Q 450 4200 450 4344 
Q 450 4488 547 4583 
Q 644 4678 781 4678 
Q 922 4678 1020 4583 
Q 1119 4488 1119 4344 
Q 1119 4206 1020 4109 
Q 922 4013 781 4013 
z
M 1031 0 
L 519 0 
L 519 3200 
L 1031 3200 
L 1031 0 
z
" transform="scale(0.015625)"/>
        <path id="SegoeUI-6e" d="M 3175 0 
L 2663 0 
L 2663 1825 
Q 2663 2844 1919 2844 
Q 1534 2844 1282 2555 
Q 1031 2266 1031 1825 
L 1031 0 
L 519 0 
L 519 3200 
L 1031 3200 
L 1031 2669 
L 1044 2669 
Q 1406 3275 2094 3275 
Q 2619 3275 2897 2936 
Q 3175 2597 3175 1956 
L 3175 0 
z
" transform="scale(0.015625)"/>
        <path id="SegoeUI-67" d="M 3250 256 
Q 3250 -1506 1563 -1506 
Q 969 -1506 525 -1281 
L 525 -769 
Q 1066 -1069 1556 -1069 
Q 2738 -1069 2738 188 
L 2738 538 
L 2725 538 
Q 2359 -75 1625 -75 
Q 1028 -75 664 351 
Q 300 778 300 1497 
Q 300 2313 692 2794 
Q 1084 3275 1766 3275 
Q 2413 3275 2725 2756 
L 2738 2756 
L 2738 3200 
L 3250 3200 
L 3250 256 
z
M 2738 1447 
L 2738 1919 
Q 2738 2300 2480 2572 
Q 2222 2844 1838 2844 
Q 1363 2844 1094 2498 
Q 825 2153 825 1531 
Q 825 997 1083 676 
Q 1341 356 1766 356 
Q 2197 356 2467 662 
Q 2738 969 2738 1447 
z
" transform="scale(0.015625)"/>
        <path id="SegoeUI-76" d="M 3034 3200 
L 1759 0 
L 1256 0 
L 44 3200 
L 606 3200 
L 1419 875 
Q 1509 619 1531 428 
L 1544 428 
Q 1575 669 1644 863 
L 2494 3200 
L 3034 3200 
z
" transform="scale(0.015625)"/>
        <path id="SegoeUI-65" d="M 3091 1472 
L 831 1472 
Q 844 938 1119 647 
Q 1394 356 1875 356 
Q 2416 356 2869 713 
L 2869 231 
Q 2447 -75 1753 -75 
Q 1075 -75 687 361 
Q 300 797 300 1588 
Q 300 2334 723 2804 
Q 1147 3275 1775 3275 
Q 2403 3275 2747 2869 
Q 3091 2463 3091 1741 
L 3091 1472 
z
M 2566 1906 
Q 2563 2350 2352 2597 
Q 2141 2844 1766 2844 
Q 1403 2844 1150 2584 
Q 897 2325 838 1906 
L 2566 1906 
z
" transform="scale(0.015625)"/>
        <path id="SegoeUI-77" d="M 4550 3200 
L 3591 0 
L 3059 0 
L 2400 2291 
Q 2363 2422 2350 2588 
L 2338 2588 
Q 2328 2475 2272 2297 
L 1556 0 
L 1044 0 
L 75 3200 
L 613 3200 
L 1275 794 
Q 1306 684 1319 506 
L 1344 506 
Q 1353 644 1400 800 
L 2138 3200 
L 2606 3200 
L 3269 788 
Q 3300 672 3316 500 
L 3341 500 
Q 3347 622 3394 788 
L 4044 3200 
L 4550 3200 
z
" transform="scale(0.015625)"/>
       </defs>
       <use xlink:href="#SegoeUI-54"/>
       <use xlink:href="#SegoeUI-72" transform="translate(43.642578 0)"/>
       <use xlink:href="#SegoeUI-61" transform="translate(78.408203 0)"/>
       <use xlink:href="#SegoeUI-64" transform="translate(129.287109 0)"/>
       <use xlink:href="#SegoeUI-69" transform="translate(188.173828 0)"/>
       <use xlink:href="#SegoeUI-6e" transform="translate(212.392578 0)"/>
       <use xlink:href="#SegoeUI-67" transform="translate(268.984375 0)"/>
       <use xlink:href="#SegoeUI-76" transform="translate(327.871094 0)"/>
       <use xlink:href="#SegoeUI-69" transform="translate(375.771484 0)"/>
       <use xlink:href="#SegoeUI-65" transform="translate(399.990234 0)"/>
       <use xlink:href="#SegoeUI-77" transform="translate(452.285156 0)"/>
      </g>
     </g>
    </g>
    <g id="ytick_3">
     <g id="line2d_23">
      <path d="M 75.6 156.681818 
L 615.6 156.681818 
" clip-path="url(#p5685ebbce2)" style="fill: none; stroke: #d9dee7; stroke-opacity: 0.45; stroke-width: 0.7; stroke-linecap: square"/>
     </g>
     <g id="line2d_24"/>
     <g id="text_12">
      <!-- CryptoQuant -->
      <g style="fill: #6b7280" transform="translate(26.26375 159.621818) scale(0.08 -0.08)">
       <defs>
        <path id="SegoeUI-43" d="M 3638 188 
Q 3141 -75 2400 -75 
Q 1444 -75 869 540 
Q 294 1156 294 2156 
Q 294 3231 941 3893 
Q 1588 4556 2581 4556 
Q 3219 4556 3638 4372 
L 3638 3813 
Q 3156 4081 2575 4081 
Q 1803 4081 1323 3565 
Q 844 3050 844 2188 
Q 844 1369 1292 883 
Q 1741 397 2469 397 
Q 3144 397 3638 697 
L 3638 188 
z
" transform="scale(0.015625)"/>
        <path id="SegoeUI-79" d="M 3066 3200 
L 1594 -513 
Q 1200 -1506 488 -1506 
Q 288 -1506 153 -1466 
L 153 -1006 
Q 319 -1063 456 -1063 
Q 844 -1063 1038 -600 
L 1294 6 
L 44 3200 
L 613 3200 
L 1478 738 
Q 1494 691 1544 494 
L 1563 494 
Q 1578 569 1625 731 
L 2534 3200 
L 3066 3200 
z
" transform="scale(0.015625)"/>
        <path id="SegoeUI-70" d="M 1044 463 
L 1031 463 
L 1031 -1472 
L 519 -1472 
L 519 3200 
L 1031 3200 
L 1031 2638 
L 1044 2638 
Q 1422 3275 2150 3275 
Q 2769 3275 3116 2845 
Q 3463 2416 3463 1694 
Q 3463 891 3072 408 
Q 2681 -75 2003 -75 
Q 1381 -75 1044 463 
z
M 1031 1753 
L 1031 1306 
Q 1031 909 1289 632 
Q 1547 356 1944 356 
Q 2409 356 2673 712 
Q 2938 1069 2938 1703 
Q 2938 2238 2691 2541 
Q 2444 2844 2022 2844 
Q 1575 2844 1303 2533 
Q 1031 2222 1031 1753 
z
" transform="scale(0.015625)"/>
        <path id="SegoeUI-74" d="M 2003 31 
Q 1822 -69 1525 -69 
Q 684 -69 684 869 
L 684 2763 
L 134 2763 
L 134 3200 
L 684 3200 
L 684 3981 
L 1197 4147 
L 1197 3200 
L 2003 3200 
L 2003 2763 
L 1197 2763 
L 1197 959 
Q 1197 638 1306 500 
Q 1416 363 1669 363 
Q 1863 363 2003 469 
L 2003 31 
z
" transform="scale(0.015625)"/>
        <path id="SegoeUI-6f" d="M 1856 -75 
Q 1147 -75 723 373 
Q 300 822 300 1563 
Q 300 2369 740 2822 
Q 1181 3275 1931 3275 
Q 2647 3275 3048 2834 
Q 3450 2394 3450 1613 
Q 3450 847 3017 386 
Q 2584 -75 1856 -75 
z
M 1894 2844 
Q 1400 2844 1112 2508 
Q 825 2172 825 1581 
Q 825 1013 1115 684 
Q 1406 356 1894 356 
Q 2391 356 2658 678 
Q 2925 1000 2925 1594 
Q 2925 2194 2658 2519 
Q 2391 2844 1894 2844 
z
" transform="scale(0.015625)"/>
        <path id="SegoeUI-51" d="M 2394 -75 
Q 1444 -75 866 553 
Q 294 1181 294 2188 
Q 294 3272 878 3913 
Q 1466 4556 2469 4556 
Q 3394 4556 3963 3931 
Q 4531 3306 4531 2297 
Q 4531 1200 3950 563 
Q 3813 409 3656 300 
L 4916 -603 
L 3963 -603 
L 3119 28 
Q 2788 -75 2394 -75 
z
M 2431 4081 
Q 1725 4081 1284 3572 
Q 844 3063 844 2234 
Q 844 1409 1272 900 
Q 1703 397 2394 397 
Q 3131 397 3556 878 
Q 3981 1359 3981 2225 
Q 3981 3116 3569 3597 
Q 3156 4081 2431 4081 
z
" transform="scale(0.015625)"/>
        <path id="SegoeUI-75" d="M 3106 0 
L 2594 0 
L 2594 506 
L 2581 506 
Q 2263 -75 1594 -75 
Q 450 -75 450 1288 
L 450 3200 
L 959 3200 
L 959 1369 
Q 959 356 1734 356 
Q 2109 356 2351 632 
Q 2594 909 2594 1356 
L 2594 3200 
L 3106 3200 
L 3106 0 
z
" transform="scale(0.015625)"/>
       </defs>
       <use xlink:href="#SegoeUI-43"/>
       <use xlink:href="#SegoeUI-72" transform="translate(61.914062 0)"/>
       <use xlink:href="#SegoeUI-79" transform="translate(100.679688 0)"/>
       <use xlink:href="#SegoeUI-70" transform="translate(149.068359 0)"/>
       <use xlink:href="#SegoeUI-74" transform="translate(207.857422 0)"/>
       <use xlink:href="#SegoeUI-6f" transform="translate(240.994141 0)"/>
       <use xlink:href="#SegoeUI-51" transform="translate(299.587891 0)"/>
       <use xlink:href="#SegoeUI-75" transform="translate(374.978516 0)"/>
       <use xlink:href="#SegoeUI-61" transform="translate(431.570312 0)"/>
       <use xlink:href="#SegoeUI-6e" transform="translate(482.449219 0)"/>
       <use xlink:href="#SegoeUI-74" transform="translate(539.041016 0)"/>
      </g>
     </g>
    </g>
    <g id="ytick_4">
     <g id="line2d_25">
      <path d="M 75.6 193.5 
L 615.6 193.5 
" clip-path="url(#p5685ebbce2)" style="fill: none; stroke: #d9dee7; stroke-opacity: 0.45; stroke-width: 0.7; stroke-linecap: square"/>
     </g>
     <g id="line2d_26"/>
     <g id="text_13">
      <!-- Artemis -->
      <g style="fill: #6b7280" transform="translate(44.87 196.46125) scale(0.08 -0.08)">
       <defs>
        <path id="SegoeUI-41" d="M 4056 0 
L 3475 0 
L 3000 1256 
L 1100 1256 
L 653 0 
L 69 0 
L 1788 4481 
L 2331 4481 
L 4056 0 
z
M 2828 1728 
L 2125 3638 
Q 2091 3731 2056 3938 
L 2044 3938 
Q 2013 3747 1972 3638 
L 1275 1728 
L 2828 1728 
z
" transform="scale(0.015625)"/>
        <path id="SegoeUI-6d" d="M 5063 0 
L 4550 0 
L 4550 1838 
Q 4550 2369 4386 2606 
Q 4222 2844 3834 2844 
Q 3506 2844 3276 2544 
Q 3047 2244 3047 1825 
L 3047 0 
L 2534 0 
L 2534 1900 
Q 2534 2844 1806 2844 
Q 1469 2844 1250 2561 
Q 1031 2278 1031 1825 
L 1031 0 
L 519 0 
L 519 3200 
L 1031 3200 
L 1031 2694 
L 1044 2694 
Q 1384 3275 2038 3275 
Q 2366 3275 2609 3092 
Q 2853 2909 2944 2613 
Q 3300 3275 4006 3275 
Q 5063 3275 5063 1972 
L 5063 0 
z
" transform="scale(0.015625)"/>
        <path id="SegoeUI-73" d="M 325 116 
L 325 666 
Q 744 356 1247 356 
Q 1922 356 1922 806 
Q 1922 934 1864 1023 
Q 1806 1113 1707 1181 
Q 1609 1250 1476 1304 
Q 1344 1359 1191 1419 
Q 978 1503 817 1589 
Q 656 1675 548 1783 
Q 441 1891 386 2028 
Q 331 2166 331 2350 
Q 331 2575 434 2748 
Q 538 2922 709 3039 
Q 881 3156 1101 3215 
Q 1322 3275 1556 3275 
Q 1972 3275 2300 3131 
L 2300 2613 
Q 1947 2844 1488 2844 
Q 1344 2844 1228 2811 
Q 1113 2778 1030 2718 
Q 947 2659 901 2576 
Q 856 2494 856 2394 
Q 856 2269 901 2184 
Q 947 2100 1034 2034 
Q 1122 1969 1247 1916 
Q 1372 1863 1531 1800 
Q 1744 1719 1912 1633 
Q 2081 1547 2200 1439 
Q 2319 1331 2383 1190 
Q 2447 1050 2447 856 
Q 2447 619 2342 444 
Q 2238 269 2063 153 
Q 1888 38 1659 -18 
Q 1431 -75 1181 -75 
Q 688 -75 325 116 
z
" transform="scale(0.015625)"/>
       </defs>
       <use xlink:href="#SegoeUI-41"/>
       <use xlink:href="#SegoeUI-72" transform="translate(64.501953 0)"/>
       <use xlink:href="#SegoeUI-74" transform="translate(102.142578 0)"/>
       <use xlink:href="#SegoeUI-65" transform="translate(135.279297 0)"/>
       <use xlink:href="#SegoeUI-6d" transform="translate(187.574219 0)"/>
       <use xlink:href="#SegoeUI-69" transform="translate(273.707031 0)"/>
       <use xlink:href="#SegoeUI-73" transform="translate(297.925781 0)"/>
      </g>
     </g>
    </g>
    <g id="ytick_5">
     <g id="line2d_27">
      <path d="M 75.6 230.318182 
L 615.6 230.318182 
" clip-path="url(#p5685ebbce2)" style="fill: none; stroke: #d9dee7; stroke-opacity: 0.45; stroke-width: 0.7; stroke-linecap: square"/>
     </g>
     <g id="line2d_28"/>
     <g id="text_14">
      <!-- DefiLlama -->
      <g style="fill: #6b7280" transform="translate(37.13 233.279432) scale(0.08 -0.08)">
       <defs>
        <path id="SegoeUI-66" d="M 2100 4288 
Q 1950 4372 1759 4372 
Q 1222 4372 1222 3694 
L 1222 3200 
L 1972 3200 
L 1972 2763 
L 1222 2763 
L 1222 0 
L 713 0 
L 713 2763 
L 166 2763 
L 166 3200 
L 713 3200 
L 713 3719 
Q 713 4222 1003 4514 
Q 1294 4806 1728 4806 
Q 1963 4806 2100 4750 
L 2100 4288 
z
" transform="scale(0.015625)"/>
        <path id="SegoeUI-4c" d="M 2913 0 
L 588 0 
L 588 4481 
L 1113 4481 
L 1113 475 
L 2913 475 
L 2913 0 
z
" transform="scale(0.015625)"/>
        <path id="SegoeUI-6c" d="M 1031 0 
L 519 0 
L 519 4738 
L 1031 4738 
L 1031 0 
z
" transform="scale(0.015625)"/>
       </defs>
       <use xlink:href="#SegoeUI-44"/>
       <use xlink:href="#SegoeUI-65" transform="translate(70.117188 0)"/>
       <use xlink:href="#SegoeUI-66" transform="translate(122.412109 0)"/>
       <use xlink:href="#SegoeUI-69" transform="translate(153.710938 0)"/>
       <use xlink:href="#SegoeUI-4c" transform="translate(177.929688 0)"/>
       <use xlink:href="#SegoeUI-6c" transform="translate(225 0)"/>
       <use xlink:href="#SegoeUI-61" transform="translate(249.21875 0)"/>
       <use xlink:href="#SegoeUI-6d" transform="translate(300.097656 0)"/>
       <use xlink:href="#SegoeUI-61" transform="translate(386.230469 0)"/>
      </g>
     </g>
    </g>
    <g id="ytick_6">
     <g id="line2d_29">
      <path d="M 75.6 267.136364 
L 615.6 267.136364 
" clip-path="url(#p5685ebbce2)" style="fill: none; stroke: #d9dee7; stroke-opacity: 0.45; stroke-width: 0.7; stroke-linecap: square"/>
     </g>
     <g id="line2d_30"/>
     <g id="text_15">
      <!-- AlternativeMe -->
      <g style="fill: #6b7280" transform="translate(22.82625 270.097614) scale(0.08 -0.08)">
       <defs>
        <path id="SegoeUI-4d" d="M 5156 0 
L 4634 0 
L 4634 3006 
Q 4634 3363 4678 3878 
L 4666 3878 
Q 4591 3575 4531 3444 
L 3000 0 
L 2744 0 
L 1216 3419 
Q 1150 3569 1081 3878 
L 1069 3878 
Q 1094 3609 1094 3000 
L 1094 0 
L 588 0 
L 588 4481 
L 1281 4481 
L 2656 1356 
Q 2816 997 2863 819 
L 2881 819 
Q 3016 1188 3097 1369 
L 4500 4481 
L 5156 4481 
L 5156 0 
z
" transform="scale(0.015625)"/>
       </defs>
       <use xlink:href="#SegoeUI-41"/>
       <use xlink:href="#SegoeUI-6c" transform="translate(64.501953 0)"/>
       <use xlink:href="#SegoeUI-74" transform="translate(88.720703 0)"/>
       <use xlink:href="#SegoeUI-65" transform="translate(121.857422 0)"/>
       <use xlink:href="#SegoeUI-72" transform="translate(174.152344 0)"/>
       <use xlink:href="#SegoeUI-6e" transform="translate(208.667969 0)"/>
       <use xlink:href="#SegoeUI-61" transform="translate(265.259766 0)"/>
       <use xlink:href="#SegoeUI-74" transform="translate(316.138672 0)"/>
       <use xlink:href="#SegoeUI-69" transform="translate(350.025391 0)"/>
       <use xlink:href="#SegoeUI-76" transform="translate(374.244141 0)"/>
       <use xlink:href="#SegoeUI-65" transform="translate(421.519531 0)"/>
       <use xlink:href="#SegoeUI-4d" transform="translate(473.814453 0)"/>
       <use xlink:href="#SegoeUI-65" transform="translate(563.609375 0)"/>
      </g>
     </g>
    </g>
    <g id="ytick_7">
     <g id="line2d_31">
      <path d="M 75.6 303.954545 
L 615.6 303.954545 
" clip-path="url(#p5685ebbce2)" style="fill: none; stroke: #d9dee7; stroke-opacity: 0.45; stroke-width: 0.7; stroke-linecap: square"/>
     </g>
     <g id="line2d_32"/>
     <g id="text_16">
      <!-- Farside ETF Data -->
      <g style="fill: #6b7280" transform="translate(14.35625 306.915795) scale(0.08 -0.08)">
       <defs>
        <path id="SegoeUI-20" transform="scale(0.015625)"/>
       </defs>
       <use xlink:href="#SegoeUI-46"/>
       <use xlink:href="#SegoeUI-61" transform="translate(45.078125 0)"/>
       <use xlink:href="#SegoeUI-72" transform="translate(95.957031 0)"/>
       <use xlink:href="#SegoeUI-73" transform="translate(131.347656 0)"/>
       <use xlink:href="#SegoeUI-69" transform="translate(173.779297 0)"/>
       <use xlink:href="#SegoeUI-64" transform="translate(197.998047 0)"/>
       <use xlink:href="#SegoeUI-65" transform="translate(256.884766 0)"/>
       <use xlink:href="#SegoeUI-20" transform="translate(309.179688 0)"/>
       <use xlink:href="#SegoeUI-45" transform="translate(336.572266 0)"/>
       <use xlink:href="#SegoeUI-54" transform="translate(387.408203 0)"/>
       <use xlink:href="#SegoeUI-46" transform="translate(439.800781 0)"/>
       <use xlink:href="#SegoeUI-20" transform="translate(488.628906 0)"/>
       <use xlink:href="#SegoeUI-44" transform="translate(516.021484 0)"/>
       <use xlink:href="#SegoeUI-61" transform="translate(586.138672 0)"/>
       <use xlink:href="#SegoeUI-74" transform="translate(637.017578 0)"/>
       <use xlink:href="#SegoeUI-61" transform="translate(670.904297 0)"/>
      </g>
     </g>
    </g>
   </g>
   <g id="line2d_33">
    <path d="M 574.975795 325.125 
L 574.975795 61.875 
" clip-path="url(#p5685ebbce2)" style="fill: none; stroke-dasharray: 1.5,2.475; stroke-dashoffset: 0; stroke: #f7931a; stroke-opacity: 0.5; stroke-width: 1.5"/>
   </g>
   <g id="line2d_34">
    <path d="M 578.419276 325.125 
L 578.419276 61.875 
" clip-path="url(#p5685ebbce2)" style="fill: none; stroke-dasharray: 1.5,2.475; stroke-dashoffset: 0; stroke: #627eea; stroke-opacity: 0.5; stroke-width: 1.5"/>
   </g>
   <g id="text_17">
    <!-- 1 files -->
    <g style="fill: #6b7280" transform="translate(590.71996 85.341861) scale(0.09 -0.09)">
     <use xlink:href="#SegoeUI-31"/>
     <use xlink:href="#SegoeUI-20" transform="translate(53.90625 0)"/>
     <use xlink:href="#SegoeUI-66" transform="translate(81.298828 0)"/>
     <use xlink:href="#SegoeUI-69" transform="translate(112.597656 0)"/>
     <use xlink:href="#SegoeUI-6c" transform="translate(136.816406 0)"/>
     <use xlink:href="#SegoeUI-65" transform="translate(161.035156 0)"/>
     <use xlink:href="#SegoeUI-73" transform="translate(213.330078 0)"/>
    </g>
   </g>
   <g id="text_18">
    <!-- 47 files -->
    <g style="fill: #6b7280" transform="translate(590.950709 122.160043) scale(0.09 -0.09)">
     <defs>
      <path id="SegoeUI-34" d="M 2656 4481 
L 2656 1522 
L 3231 1522 
L 3231 1053 
L 2656 1053 
L 2656 0 
L 2150 0 
L 2150 1053 
L 44 1053 
L 44 1497 
Q 338 1828 638 2204 
Q 938 2581 1211 2968 
Q 1484 3356 1717 3742 
Q 1950 4128 2109 4481 
L 2656 4481 
z
M 622 1522 
L 2150 1522 
L 2150 3716 
Q 1916 3306 1706 2984 
Q 1497 2663 1308 2400 
Q 1119 2138 947 1925 
Q 775 1713 622 1522 
z
" transform="scale(0.015625)"/>
     </defs>
     <use xlink:href="#SegoeUI-34"/>
     <use xlink:href="#SegoeUI-37" transform="translate(53.90625 0)"/>
     <use xlink:href="#SegoeUI-20" transform="translate(107.8125 0)"/>
     <use xlink:href="#SegoeUI-66" transform="translate(135.205078 0)"/>
     <use xlink:href="#SegoeUI-69" transform="translate(166.503906 0)"/>
     <use xlink:href="#SegoeUI-6c" transform="translate(190.722656 0)"/>
     <use xlink:href="#SegoeUI-65" transform="translate(214.941406 0)"/>
     <use xlink:href="#SegoeUI-73" transform="translate(267.236328 0)"/>
    </g>
   </g>
   <g id="text_19">
    <!-- 345 files -->
    <g style="fill: #6b7280" transform="translate(590.63121 158.978224) scale(0.09 -0.09)">
     <use xlink:href="#SegoeUI-33"/>
     <use xlink:href="#SegoeUI-34" transform="translate(53.90625 0)"/>
     <use xlink:href="#SegoeUI-35" transform="translate(107.8125 0)"/>
     <use xlink:href="#SegoeUI-20" transform="translate(161.71875 0)"/>
     <use xlink:href="#SegoeUI-66" transform="translate(189.111328 0)"/>
     <use xlink:href="#SegoeUI-69" transform="translate(220.410156 0)"/>
     <use xlink:href="#SegoeUI-6c" transform="translate(244.628906 0)"/>
     <use xlink:href="#SegoeUI-65" transform="translate(268.847656 0)"/>
     <use xlink:href="#SegoeUI-73" transform="translate(321.142578 0)"/>
    </g>
   </g>
   <g id="text_20">
    <!-- 21 files -->
    <g style="fill: #6b7280" transform="translate(590.75546 195.796406) scale(0.09 -0.09)">
     <use xlink:href="#SegoeUI-32"/>
     <use xlink:href="#SegoeUI-31" transform="translate(53.90625 0)"/>
     <use xlink:href="#SegoeUI-20" transform="translate(107.8125 0)"/>
     <use xlink:href="#SegoeUI-66" transform="translate(135.205078 0)"/>
     <use xlink:href="#SegoeUI-69" transform="translate(166.503906 0)"/>
     <use xlink:href="#SegoeUI-6c" transform="translate(190.722656 0)"/>
     <use xlink:href="#SegoeUI-65" transform="translate(214.941406 0)"/>
     <use xlink:href="#SegoeUI-73" transform="translate(267.236328 0)"/>
    </g>
   </g>
   <g id="text_21">
    <!-- 20 files -->
    <g style="fill: #6b7280" transform="translate(590.71996 232.614588) scale(0.09 -0.09)">
     <use xlink:href="#SegoeUI-32"/>
     <use xlink:href="#SegoeUI-30" transform="translate(53.90625 0)"/>
     <use xlink:href="#SegoeUI-20" transform="translate(107.8125 0)"/>
     <use xlink:href="#SegoeUI-66" transform="translate(135.205078 0)"/>
     <use xlink:href="#SegoeUI-69" transform="translate(166.503906 0)"/>
     <use xlink:href="#SegoeUI-6c" transform="translate(190.722656 0)"/>
     <use xlink:href="#SegoeUI-65" transform="translate(214.941406 0)"/>
     <use xlink:href="#SegoeUI-73" transform="translate(267.236328 0)"/>
    </g>
   </g>
   <g id="text_22">
    <!-- 3 files -->
    <g style="fill: #6b7280" transform="translate(590.59571 269.43277) scale(0.09 -0.09)">
     <use xlink:href="#SegoeUI-33"/>
     <use xlink:href="#SegoeUI-20" transform="translate(53.90625 0)"/>
     <use xlink:href="#SegoeUI-66" transform="translate(81.298828 0)"/>
     <use xlink:href="#SegoeUI-69" transform="translate(112.597656 0)"/>
     <use xlink:href="#SegoeUI-6c" transform="translate(136.816406 0)"/>
     <use xlink:href="#SegoeUI-65" transform="translate(161.035156 0)"/>
     <use xlink:href="#SegoeUI-73" transform="translate(213.330078 0)"/>
    </g>
   </g>
   <g id="text_23">
    <!-- 44 files -->
    <g style="fill: #6b7280" transform="translate(590.75546 306.250952) scale(0.09 -0.09)">
     <use xlink:href="#SegoeUI-34"/>
     <use xlink:href="#SegoeUI-34" transform="translate(53.90625 0)"/>
     <use xlink:href="#SegoeUI-20" transform="translate(107.8125 0)"/>
     <use xlink:href="#SegoeUI-66" transform="translate(135.205078 0)"/>
     <use xlink:href="#SegoeUI-69" transform="translate(166.503906 0)"/>
     <use xlink:href="#SegoeUI-6c" transform="translate(190.722656 0)"/>
     <use xlink:href="#SegoeUI-65" transform="translate(214.941406 0)"/>
     <use xlink:href="#SegoeUI-73" transform="translate(267.236328 0)"/>
    </g>
   </g>
  </g>
  <g id="text_24">
   <!-- Data Inventory -->
   <g style="fill: #111827" transform="translate(7.2 20.43) scale(0.18 -0.18)">
    <defs>
     <path id="SegoeUI-Semibold-44" d="M 553 0 
L 553 4481 
L 1847 4481 
Q 4325 4481 4325 2297 
Q 4325 1259 3637 629 
Q 2950 0 1794 0 
L 553 0 
z
M 1294 3850 
L 1294 628 
L 1888 628 
Q 2672 628 3108 1059 
Q 3544 1491 3544 2278 
Q 3544 3850 1916 3850 
L 1294 3850 
z
" transform="scale(0.015625)"/>
     <path id="SegoeUI-Semibold-61" d="M 2928 0 
L 2225 0 
L 2225 500 
L 2213 500 
Q 1881 -75 1241 -75 
Q 769 -75 501 181 
Q 234 438 234 859 
Q 234 1766 1278 1916 
L 2228 2050 
Q 2228 2734 1578 2734 
Q 1006 2734 547 2341 
L 547 2975 
Q 1053 3275 1716 3275 
Q 2928 3275 2928 2081 
L 2928 0 
z
M 2228 1572 
L 1556 1478 
Q 1244 1438 1086 1327 
Q 928 1216 928 938 
Q 928 734 1073 604 
Q 1219 475 1463 475 
Q 1794 475 2011 708 
Q 2228 941 2228 1294 
L 2228 1572 
z
" transform="scale(0.015625)"/>
     <path id="SegoeUI-Semibold-74" d="M 2159 34 
Q 1947 -72 1600 -72 
Q 669 -72 669 822 
L 669 2631 
L 134 2631 
L 134 3200 
L 669 3200 
L 669 3941 
L 1394 4147 
L 1394 3200 
L 2159 3200 
L 2159 2631 
L 1394 2631 
L 1394 1031 
Q 1394 747 1497 625 
Q 1600 503 1841 503 
Q 2025 503 2159 609 
L 2159 34 
z
" transform="scale(0.015625)"/>
     <path id="SegoeUI-Semibold-20" transform="scale(0.015625)"/>
     <path id="SegoeUI-Semibold-49" d="M 1316 0 
L 550 0 
L 550 4481 
L 1316 4481 
L 1316 0 
z
" transform="scale(0.015625)"/>
     <path id="SegoeUI-Semibold-6e" d="M 3322 0 
L 2597 0 
L 2597 1803 
Q 2597 2700 1963 2700 
Q 1631 2700 1415 2451 
Q 1200 2203 1200 1825 
L 1200 0 
L 472 0 
L 472 3200 
L 1200 3200 
L 1200 2669 
L 1213 2669 
Q 1572 3275 2250 3275 
Q 2772 3275 3047 2936 
Q 3322 2597 3322 1956 
L 3322 0 
z
" transform="scale(0.015625)"/>
     <path id="SegoeUI-Semibold-76" d="M 3228 3200 
L 1991 0 
L 1206 0 
L 28 3200 
L 816 3200 
L 1525 963 
Q 1606 716 1625 531 
L 1634 531 
Q 1663 763 1722 950 
L 2466 3200 
L 3228 3200 
z
" transform="scale(0.015625)"/>
     <path id="SegoeUI-Semibold-65" d="M 3181 1403 
L 1000 1403 
Q 1013 959 1273 718 
Q 1534 478 1991 478 
Q 2503 478 2931 784 
L 2931 200 
Q 2494 -75 1775 -75 
Q 1069 -75 667 361 
Q 266 797 266 1588 
Q 266 2334 708 2804 
Q 1150 3275 1806 3275 
Q 2463 3275 2822 2853 
Q 3181 2431 3181 1681 
L 3181 1403 
z
M 2481 1916 
Q 2478 2306 2297 2523 
Q 2116 2741 1797 2741 
Q 1484 2741 1267 2512 
Q 1050 2284 1000 1916 
L 2481 1916 
z
" transform="scale(0.015625)"/>
     <path id="SegoeUI-Semibold-6f" d="M 1891 -75 
Q 1150 -75 708 373 
Q 266 822 266 1563 
Q 266 2369 727 2822 
Q 1188 3275 1969 3275 
Q 2719 3275 3137 2834 
Q 3556 2394 3556 1613 
Q 3556 847 3104 386 
Q 2653 -75 1891 -75 
z
M 1925 2697 
Q 1500 2697 1253 2400 
Q 1006 2103 1006 1581 
Q 1006 1078 1256 789 
Q 1506 500 1925 500 
Q 2353 500 2583 784 
Q 2813 1069 2813 1594 
Q 2813 2122 2583 2409 
Q 2353 2697 1925 2697 
z
" transform="scale(0.015625)"/>
     <path id="SegoeUI-Semibold-72" d="M 2328 2509 
Q 2197 2613 1950 2613 
Q 1628 2613 1412 2322 
Q 1197 2031 1197 1531 
L 1197 0 
L 472 0 
L 472 3200 
L 1197 3200 
L 1197 2541 
L 1209 2541 
Q 1316 2878 1536 3067 
Q 1756 3256 2028 3256 
Q 2225 3256 2328 3197 
L 2328 2509 
z
" transform="scale(0.015625)"/>
     <path id="SegoeUI-Semibold-79" d="M 3244 3200 
L 1800 -513 
Q 1350 -1506 538 -1506 
Q 309 -1506 156 -1466 
L 156 -863 
Q 328 -919 469 -919 
Q 875 -919 1075 -519 
L 1291 6 
L 19 3200 
L 822 3200 
L 1584 875 
Q 1597 831 1641 644 
L 1656 644 
Q 1672 716 1713 869 
L 2513 3200 
L 3244 3200 
z
" transform="scale(0.015625)"/>
    </defs>
    <use xlink:href="#SegoeUI-Semibold-44"/>
    <use xlink:href="#SegoeUI-Semibold-61" transform="translate(71.728516 0)"/>
    <use xlink:href="#SegoeUI-Semibold-74" transform="translate(123.925781 0)"/>
    <use xlink:href="#SegoeUI-Semibold-61" transform="translate(160.058594 0)"/>
    <use xlink:href="#SegoeUI-Semibold-20" transform="translate(212.255859 0)"/>
    <use xlink:href="#SegoeUI-Semibold-49" transform="translate(239.746094 0)"/>
    <use xlink:href="#SegoeUI-Semibold-6e" transform="translate(268.896484 0)"/>
    <use xlink:href="#SegoeUI-Semibold-76" transform="translate(327.246094 0)"/>
    <use xlink:href="#SegoeUI-Semibold-65" transform="translate(377.228516 0)"/>
    <use xlink:href="#SegoeUI-Semibold-6e" transform="translate(430.353516 0)"/>
    <use xlink:href="#SegoeUI-Semibold-74" transform="translate(488.703125 0)"/>
    <use xlink:href="#SegoeUI-Semibold-6f" transform="translate(524.210938 0)"/>
    <use xlink:href="#SegoeUI-Semibold-72" transform="translate(583.927734 0)"/>
    <use xlink:href="#SegoeUI-Semibold-79" transform="translate(624.939453 0)"/>
   </g>
  </g>
 </g>
 <defs>
  <clipPath id="p5685ebbce2">
   <rect x="75.6" y="61.875" width="540" height="263.25"/>
  </clipPath>
 </defs>
</svg>
