<?xml version="1.0" encoding="utf-8" standalone="no"?>
<!DOCTYPE svg PUBLIC "-//W3C//DTD SVG 1.1//EN"
  "http://www.w3.org/Graphics/SVG/1.1/DTD/svg11.dtd">
<svg xmlns:xlink="http://www.w3.org/1999/xlink" width="720pt" height="405pt" viewBox="0 0 720 405" xmlns="http://www.w3.org/2000/svg" version="1.1">
 <metadata>
  <rdf:RDF xmlns:dc="http://purl.org/dc/elements/1.1/" xmlns:cc="http://creativecommons.org/ns#" xmlns:rdf="http://www.w3.org/1999/02/22-rdf-syntax-ns#">
   <cc:Work>
    <dc:type rdf:resource="http://purl.org/dc/dcmitype/StillImage"/>
    <dc:date>2026-06-16T14:04:24.089330</dc:date>
    <dc:format>image/svg+xml</dc:format>
    <dc:creator>
     <cc:Agent>
      <dc:title>Matplotlib v3.10.8, https://matplotlib.org/</dc:title>
     </cc:Agent>
    </dc:creator>
   </cc:Work>
  </rdf:RDF>
 </metadata>
 <defs>
  <style type="text/css">*{stroke-linejoin: round; stroke-linecap: butt}</style>
 </defs>
 <g id="figure_1">
  <g id="patch_1">
   <path d="M 0 405 
L 720 405 
L 720 0 
L 0 0 
z
" style="fill: #fafaf7"/>
  </g>
  <g id="patch_2">
   <path d="M 22.32 391.635 
L 697.68 391.635 
Q 710.64 391.635 710.64 384.345 
L 710.64 24.705 
Q 710.64 17.415 697.68 17.415 
L 22.32 17.415 
Q 9.36 17.415 9.36 24.705 
L 9.36 384.345 
Q 9.36 391.635 22.32 391.635 
z
" style="fill: #ffffff; stroke: #d9dee7; stroke-linejoin: miter"/>
  </g>
  <g id="axes_1">
   <g id="patch_3">
    <path d="M 50.4 234.9 
L 669.6 234.9 
L 669.6 101.25 
L 50.4 101.25 
z
" style="fill: #ffffff"/>
   </g>
   <g id="matplotlib.axis_1">
    <g id="xtick_1">
     <g id="line2d_1">
      <path d="M 78.545455 234.9 
L 78.545455 101.25 
" clip-path="url(#pa9e8caba67)" style="fill: none; stroke: #d9dee7; stroke-opacity: 0.45; stroke-width: 0.7; stroke-linecap: square"/>
     </g>
     <g id="line2d_2"/>
     <g id="text_1">
      <!-- 2020 -->
      <g style="fill: #6b7280" transform="translate(69.920455 244.3225) scale(0.08 -0.08)">
       <defs>
        <path id="SegoeUI-32" d="M 2413 3306 
Q 2413 3513 2348 3666 
Q 2284 3819 2173 3920 
Q 2063 4022 1913 4072 
Q 1763 4122 1588 4122 
Q 1438 4122 1294 4081 
Q 1150 4041 1014 3969 
Q 878 3897 751 3797 
Q 625 3697 516 3575 
L 516 4125 
Q 731 4334 998 4445 
Q 1266 4556 1650 4556 
Q 1925 4556 2159 4476 
Q 2394 4397 2566 4244 
Q 2738 4091 2836 3866 
Q 2934 3641 2934 3350 
Q 2934 3084 2873 2868 
Q 2813 2653 2689 2462 
Q 2566 2272 2378 2097 
Q 2191 1922 1938 1741 
Q 1622 1516 1417 1356 
Q 1213 1197 1092 1058 
Q 972 919 923 780 
Q 875 641 875 459 
L 3106 459 
L 3106 0 
L 341 0 
L 341 222 
Q 341 509 403 728 
Q 466 947 609 1144 
Q 753 1341 986 1537 
Q 1219 1734 1556 1981 
Q 1800 2156 1964 2315 
Q 2128 2475 2228 2634 
Q 2328 2794 2370 2958 
Q 2413 3122 2413 3306 
z
" transform="scale(0.015625)"/>
        <path id="SegoeUI-30" d="M 3188 2259 
Q 3188 1697 3086 1262 
Q 2984 828 2792 529 
Q 2600 231 2320 76 
Q 2041 -78 1684 -78 
Q 1347 -78 1083 70 
Q 819 219 637 503 
Q 456 788 362 1202 
Q 269 1616 269 2150 
Q 269 2738 367 3188 
Q 466 3638 656 3942 
Q 847 4247 1130 4401 
Q 1413 4556 1778 4556 
Q 3188 4556 3188 2259 
z
M 2663 2209 
Q 2663 4122 1753 4122 
Q 794 4122 794 2175 
Q 794 359 1734 359 
Q 2663 359 2663 2209 
z
" transform="scale(0.015625)"/>
       </defs>
       <use xlink:href="#SegoeUI-32"/>
       <use xlink:href="#SegoeUI-30" transform="translate(53.90625 0)"/>
       <use xlink:href="#SegoeUI-32" transform="translate(107.8125 0)"/>
       <use xlink:href="#SegoeUI-30" transform="translate(161.71875 0)"/>
      </g>
     </g>
    </g>
    <g id="xtick_2">
     <g id="line2d_3">
      <path d="M 168.827982 234.9 
L 168.827982 101.25 
" clip-path="url(#pa9e8caba67)" style="fill: none; stroke: #d9dee7; stroke-opacity: 0.45; stroke-width: 0.7; stroke-linecap: square"/>
     </g>
     <g id="line2d_4"/>
     <g id="text_2">
      <!-- 2021 -->
      <g style="fill: #6b7280" transform="translate(160.202982 244.3225) scale(0.08 -0.08)">
       <defs>
        <path id="SegoeUI-31" d="M 2263 0 
L 1750 0 
L 1750 3872 
Q 1691 3813 1577 3736 
Q 1463 3659 1320 3584 
Q 1178 3509 1020 3443 
Q 863 3378 713 3341 
L 713 3859 
Q 881 3906 1070 3986 
Q 1259 4066 1442 4164 
Q 1625 4263 1787 4370 
Q 1950 4478 2069 4581 
L 2263 4581 
L 2263 0 
z
" transform="scale(0.015625)"/>
       </defs>
       <use xlink:href="#SegoeUI-32"/>
       <use xlink:href="#SegoeUI-30" transform="translate(53.90625 0)"/>
       <use xlink:href="#SegoeUI-32" transform="translate(107.8125 0)"/>
       <use xlink:href="#SegoeUI-31" transform="translate(161.71875 0)"/>
      </g>
     </g>
    </g>
    <g id="xtick_3">
     <g id="line2d_5">
      <path d="M 258.863836 234.9 
L 258.863836 101.25 
" clip-path="url(#pa9e8caba67)" style="fill: none; stroke: #d9dee7; stroke-opacity: 0.45; stroke-width: 0.7; stroke-linecap: square"/>
     </g>
     <g id="line2d_6"/>
     <g id="text_3">
      <!-- 2022 -->
      <g style="fill: #6b7280" transform="translate(250.238836 244.3225) scale(0.08 -0.08)">
       <use xlink:href="#SegoeUI-32"/>
       <use xlink:href="#SegoeUI-30" transform="translate(53.90625 0)"/>
       <use xlink:href="#SegoeUI-32" transform="translate(107.8125 0)"/>
       <use xlink:href="#SegoeUI-32" transform="translate(161.71875 0)"/>
      </g>
     </g>
    </g>
    <g id="xtick_4">
     <g id="line2d_7">
      <path d="M 348.899689 234.9 
L 348.899689 101.25 
" clip-path="url(#pa9e8caba67)" style="fill: none; stroke: #d9dee7; stroke-opacity: 0.45; stroke-width: 0.7; stroke-linecap: square"/>
     </g>
     <g id="line2d_8"/>
     <g id="text_4">
      <!-- 2023 -->
      <g style="fill: #6b7280" transform="translate(340.274689 244.3225) scale(0.08 -0.08)">
       <defs>
        <path id="SegoeUI-33" d="M 2978 1269 
Q 2978 966 2864 717 
Q 2750 469 2542 292 
Q 2334 116 2043 19 
Q 1753 -78 1403 -78 
Q 763 -78 384 166 
L 384 716 
Q 838 359 1422 359 
Q 1656 359 1845 418 
Q 2034 478 2170 590 
Q 2306 703 2379 862 
Q 2453 1022 2453 1222 
Q 2453 2100 1203 2100 
L 831 2100 
L 831 2534 
L 1184 2534 
Q 2291 2534 2291 3359 
Q 2291 4122 1447 4122 
Q 972 4122 556 3803 
L 556 4300 
Q 984 4556 1575 4556 
Q 1856 4556 2084 4478 
Q 2313 4400 2475 4259 
Q 2638 4119 2727 3922 
Q 2816 3725 2816 3488 
Q 2816 2603 1922 2350 
L 1922 2338 
Q 2150 2313 2344 2227 
Q 2538 2141 2678 2003 
Q 2819 1866 2898 1680 
Q 2978 1494 2978 1269 
z
" transform="scale(0.015625)"/>
       </defs>
       <use xlink:href="#SegoeUI-32"/>
       <use xlink:href="#SegoeUI-30" transform="translate(53.90625 0)"/>
       <use xlink:href="#SegoeUI-32" transform="translate(107.8125 0)"/>
       <use xlink:href="#SegoeUI-33" transform="translate(161.71875 0)"/>
      </g>
     </g>
    </g>
    <g id="xtick_5">
     <g id="line2d_9">
      <path d="M 438.935543 234.9 
L 438.935543 101.25 
" clip-path="url(#pa9e8caba67)" style="fill: none; stroke: #d9dee7; stroke-opacity: 0.45; stroke-width: 0.7; stroke-linecap: square"/>
     </g>
     <g id="line2d_10"/>
     <g id="text_5">
      <!-- 2024 -->
      <g style="fill: #6b7280" transform="translate(430.310543 244.3225) scale(0.08 -0.08)">
       <defs>
        <path id="SegoeUI-34" d="M 2656 4481 
L 2656 1522 
L 3231 1522 
L 3231 1053 
L 2656 1053 
L 2656 0 
L 2150 0 
L 2150 1053 
L 44 1053 
L 44 1497 
Q 338 1828 638 2204 
Q 938 2581 1211 2968 
Q 1484 3356 1717 3742 
Q 1950 4128 2109 4481 
L 2656 4481 
z
M 622 1522 
L 2150 1522 
L 2150 3716 
Q 1916 3306 1706 2984 
Q 1497 2663 1308 2400 
Q 1119 2138 947 1925 
Q 775 1713 622 1522 
z
" transform="scale(0.015625)"/>
       </defs>
       <use xlink:href="#SegoeUI-32"/>
       <use xlink:href="#SegoeUI-30" transform="translate(53.90625 0)"/>
       <use xlink:href="#SegoeUI-32" transform="translate(107.8125 0)"/>
       <use xlink:href="#SegoeUI-34" transform="translate(161.71875 0)"/>
      </g>
     </g>
    </g>
    <g id="xtick_6">
     <g id="line2d_11">
      <path d="M 529.21807 234.9 
L 529.21807 101.25 
" clip-path="url(#pa9e8caba67)" style="fill: none; stroke: #d9dee7; stroke-opacity: 0.45; stroke-width: 0.7; stroke-linecap: square"/>
     </g>
     <g id="line2d_12"/>
     <g id="text_6">
      <!-- 2025 -->
      <g style="fill: #6b7280" transform="translate(520.59307 244.3225) scale(0.08 -0.08)">
       <defs>
        <path id="SegoeUI-35" d="M 3028 1369 
Q 3028 1041 2915 775 
Q 2803 509 2595 318 
Q 2388 128 2094 25 
Q 1800 -78 1441 -78 
Q 816 -78 513 109 
L 513 653 
Q 969 359 1447 359 
Q 1691 359 1886 431 
Q 2081 503 2218 631 
Q 2356 759 2429 940 
Q 2503 1122 2503 1338 
Q 2503 1775 2209 2023 
Q 1916 2272 1356 2272 
Q 1266 2272 1166 2269 
Q 1066 2266 966 2261 
Q 866 2256 770 2250 
Q 675 2244 597 2234 
L 750 4481 
L 2822 4481 
L 2822 4019 
L 1194 4019 
L 1103 2703 
Q 1203 2709 1315 2714 
Q 1428 2719 1516 2719 
Q 1872 2719 2153 2625 
Q 2434 2531 2629 2357 
Q 2825 2184 2926 1932 
Q 3028 1681 3028 1369 
z
" transform="scale(0.015625)"/>
       </defs>
       <use xlink:href="#SegoeUI-32"/>
       <use xlink:href="#SegoeUI-30" transform="translate(53.90625 0)"/>
       <use xlink:href="#SegoeUI-32" transform="translate(107.8125 0)"/>
       <use xlink:href="#SegoeUI-35" transform="translate(161.71875 0)"/>
      </g>
     </g>
    </g>
    <g id="xtick_7">
     <g id="line2d_13">
      <path d="M 619.253924 234.9 
L 619.253924 101.25 
" clip-path="url(#pa9e8caba67)" style="fill: none; stroke: #d9dee7; stroke-opacity: 0.45; stroke-width: 0.7; stroke-linecap: square"/>
     </g>
     <g id="line2d_14"/>
     <g id="text_7">
      <!-- 2026 -->
      <g style="fill: #6b7280" transform="translate(610.628924 244.3225) scale(0.08 -0.08)">
       <defs>
        <path id="SegoeUI-36" d="M 3194 1422 
Q 3194 1094 3087 819 
Q 2981 544 2793 344 
Q 2606 144 2347 33 
Q 2088 -78 1784 -78 
Q 1447 -78 1180 62 
Q 913 203 727 467 
Q 541 731 444 1112 
Q 347 1494 347 1972 
Q 347 2556 476 3032 
Q 606 3509 845 3848 
Q 1084 4188 1421 4372 
Q 1759 4556 2175 4556 
Q 2638 4556 2919 4428 
L 2919 3944 
Q 2572 4122 2188 4122 
Q 1888 4122 1647 3987 
Q 1406 3853 1234 3608 
Q 1063 3363 970 3016 
Q 878 2669 878 2244 
L 891 2244 
Q 1200 2803 1913 2803 
Q 2206 2803 2442 2703 
Q 2678 2603 2845 2420 
Q 3013 2238 3103 1984 
Q 3194 1731 3194 1422 
z
M 2669 1356 
Q 2669 1591 2609 1778 
Q 2550 1966 2439 2097 
Q 2328 2228 2165 2298 
Q 2003 2369 1797 2369 
Q 1606 2369 1443 2297 
Q 1281 2225 1162 2101 
Q 1044 1978 976 1814 
Q 909 1650 909 1466 
Q 909 1234 975 1032 
Q 1041 831 1159 681 
Q 1278 531 1442 445 
Q 1606 359 1806 359 
Q 2000 359 2159 432 
Q 2319 506 2431 637 
Q 2544 769 2606 951 
Q 2669 1134 2669 1356 
z
" transform="scale(0.015625)"/>
       </defs>
       <use xlink:href="#SegoeUI-32"/>
       <use xlink:href="#SegoeUI-30" transform="translate(53.90625 0)"/>
       <use xlink:href="#SegoeUI-32" transform="translate(107.8125 0)"/>
       <use xlink:href="#SegoeUI-36" transform="translate(161.71875 0)"/>
      </g>
     </g>
    </g>
   </g>
   <g id="matplotlib.axis_2">
    <g id="ytick_1">
     <g id="line2d_15">
      <path d="M 50.4 229.269721 
L 669.6 229.269721 
" clip-path="url(#pa9e8caba67)" style="fill: none; stroke: #d9dee7; stroke-opacity: 0.45; stroke-width: 0.7; stroke-linecap: square"/>
     </g>
     <g id="line2d_16"/>
     <g id="text_8">
      <!-- 0 -->
      <g style="fill: #6b7280" transform="translate(42.5875 232.230971) scale(0.08 -0.08)">
       <use xlink:href="#SegoeUI-30"/>
      </g>
     </g>
    </g>
    <g id="ytick_2">
     <g id="line2d_17">
      <path d="M 50.4 205.119617 
L 669.6 205.119617 
" clip-path="url(#pa9e8caba67)" style="fill: none; stroke: #d9dee7; stroke-opacity: 0.45; stroke-width: 0.7; stroke-linecap: square"/>
     </g>
     <g id="line2d_18"/>
     <g id="text_9">
      <!-- 5,000 -->
      <g style="fill: #6b7280" transform="translate(27.915 208.080867) scale(0.08 -0.08)">
       <defs>
        <path id="SegoeUI-2c" d="M 988 713 
L 488 -825 
L 122 -825 
L 488 713 
L 988 713 
z
" transform="scale(0.015625)"/>
       </defs>
       <use xlink:href="#SegoeUI-35"/>
       <use xlink:href="#SegoeUI-2c" transform="translate(53.90625 0)"/>
       <use xlink:href="#SegoeUI-30" transform="translate(75.585938 0)"/>
       <use xlink:href="#SegoeUI-30" transform="translate(129.492188 0)"/>
       <use xlink:href="#SegoeUI-30" transform="translate(183.398438 0)"/>
      </g>
     </g>
    </g>
    <g id="ytick_3">
     <g id="line2d_19">
      <path d="M 50.4 180.969514 
L 669.6 180.969514 
" clip-path="url(#pa9e8caba67)" style="fill: none; stroke: #d9dee7; stroke-opacity: 0.45; stroke-width: 0.7; stroke-linecap: square"/>
     </g>
     <g id="line2d_20"/>
     <g id="text_10">
      <!-- 10,000 -->
      <g style="fill: #6b7280" transform="translate(23.6025 183.930764) scale(0.08 -0.08)">
       <use xlink:href="#SegoeUI-31"/>
       <use xlink:href="#SegoeUI-30" transform="translate(53.90625 0)"/>
       <use xlink:href="#SegoeUI-2c" transform="translate(107.8125 0)"/>
       <use xlink:href="#SegoeUI-30" transform="translate(129.492188 0)"/>
       <use xlink:href="#SegoeUI-30" transform="translate(183.398438 0)"/>
       <use xlink:href="#SegoeUI-30" transform="translate(237.304688 0)"/>
      </g>
     </g>
    </g>
    <g id="ytick_4">
     <g id="line2d_21">
      <path d="M 50.4 156.81941 
L 669.6 156.81941 
" clip-path="url(#pa9e8caba67)" style="fill: none; stroke: #d9dee7; stroke-opacity: 0.45; stroke-width: 0.7; stroke-linecap: square"/>
     </g>
     <g id="line2d_22"/>
     <g id="text_11">
      <!-- 15,000 -->
      <g style="fill: #6b7280" transform="translate(23.6025 159.78066) scale(0.08 -0.08)">
       <use xlink:href="#SegoeUI-31"/>
       <use xlink:href="#SegoeUI-35" transform="translate(53.90625 0)"/>
       <use xlink:href="#SegoeUI-2c" transform="translate(107.8125 0)"/>
       <use xlink:href="#SegoeUI-30" transform="translate(129.492188 0)"/>
       <use xlink:href="#SegoeUI-30" transform="translate(183.398438 0)"/>
       <use xlink:href="#SegoeUI-30" transform="translate(237.304688 0)"/>
      </g>
     </g>
    </g>
    <g id="ytick_5">
     <g id="line2d_23">
      <path d="M 50.4 132.669307 
L 669.6 132.669307 
" clip-path="url(#pa9e8caba67)" style="fill: none; stroke: #d9dee7; stroke-opacity: 0.45; stroke-width: 0.7; stroke-linecap: square"/>
     </g>
     <g id="line2d_24"/>
     <g id="text_12">
      <!-- 20,000 -->
      <g style="fill: #6b7280" transform="translate(23.6025 135.630557) scale(0.08 -0.08)">
       <use xlink:href="#SegoeUI-32"/>
       <use xlink:href="#SegoeUI-30" transform="translate(53.90625 0)"/>
       <use xlink:href="#SegoeUI-2c" transform="translate(107.8125 0)"/>
       <use xlink:href="#SegoeUI-30" transform="translate(129.492188 0)"/>
       <use xlink:href="#SegoeUI-30" transform="translate(183.398438 0)"/>
       <use xlink:href="#SegoeUI-30" transform="translate(237.304688 0)"/>
      </g>
     </g>
    </g>
    <g id="ytick_6">
     <g id="line2d_25">
      <path d="M 50.4 108.519204 
L 669.6 108.519204 
" clip-path="url(#pa9e8caba67)" style="fill: none; stroke: #d9dee7; stroke-opacity: 0.45; stroke-width: 0.7; stroke-linecap: square"/>
     </g>
     <g id="line2d_26"/>
     <g id="text_13">
      <!-- 25,000 -->
      <g style="fill: #6b7280" transform="translate(23.6025 111.480454) scale(0.08 -0.08)">
       <use xlink:href="#SegoeUI-32"/>
       <use xlink:href="#SegoeUI-35" transform="translate(53.90625 0)"/>
       <use xlink:href="#SegoeUI-2c" transform="translate(107.8125 0)"/>
       <use xlink:href="#SegoeUI-30" transform="translate(129.492188 0)"/>
       <use xlink:href="#SegoeUI-30" transform="translate(183.398438 0)"/>
       <use xlink:href="#SegoeUI-30" transform="translate(237.304688 0)"/>
      </g>
     </g>
    </g>
    <g id="text_14">
     <!-- Index, Jan 2020 = 100 -->
     <g style="fill: #6b7280" transform="translate(17.5325 211.233516) rotate(-90) scale(0.09 -0.09)">
      <defs>
       <path id="SegoeUI-49" d="M 1113 0 
L 588 0 
L 588 4481 
L 1113 4481 
L 1113 0 
z
" transform="scale(0.015625)"/>
       <path id="SegoeUI-6e" d="M 3175 0 
L 2663 0 
L 2663 1825 
Q 2663 2844 1919 2844 
Q 1534 2844 1282 2555 
Q 1031 2266 1031 1825 
L 1031 0 
L 519 0 
L 519 3200 
L 1031 3200 
L 1031 2669 
L 1044 2669 
Q 1406 3275 2094 3275 
Q 2619 3275 2897 2936 
Q 3175 2597 3175 1956 
L 3175 0 
z
" transform="scale(0.015625)"/>
       <path id="SegoeUI-64" d="M 3250 0 
L 2738 0 
L 2738 544 
L 2725 544 
Q 2369 -75 1625 -75 
Q 1022 -75 661 354 
Q 300 784 300 1525 
Q 300 2319 700 2797 
Q 1100 3275 1766 3275 
Q 2425 3275 2725 2756 
L 2738 2756 
L 2738 4738 
L 3250 4738 
L 3250 0 
z
M 2738 1447 
L 2738 1919 
Q 2738 2306 2481 2575 
Q 2225 2844 1831 2844 
Q 1363 2844 1094 2500 
Q 825 2156 825 1550 
Q 825 997 1083 676 
Q 1341 356 1775 356 
Q 2203 356 2470 665 
Q 2738 975 2738 1447 
z
" transform="scale(0.015625)"/>
       <path id="SegoeUI-65" d="M 3091 1472 
L 831 1472 
Q 844 938 1119 647 
Q 1394 356 1875 356 
Q 2416 356 2869 713 
L 2869 231 
Q 2447 -75 1753 -75 
Q 1075 -75 687 361 
Q 300 797 300 1588 
Q 300 2334 723 2804 
Q 1147 3275 1775 3275 
Q 2403 3275 2747 2869 
Q 3091 2463 3091 1741 
L 3091 1472 
z
M 2566 1906 
Q 2563 2350 2352 2597 
Q 2141 2844 1766 2844 
Q 1403 2844 1150 2584 
Q 897 2325 838 1906 
L 2566 1906 
z
" transform="scale(0.015625)"/>
       <path id="SegoeUI-78" d="M 2856 3200 
L 1781 1581 
L 2838 0 
L 2241 0 
L 1613 1038 
Q 1553 1134 1472 1281 
L 1459 1281 
Q 1444 1253 1313 1038 
L 672 0 
L 81 0 
L 1172 1569 
L 128 3200 
L 725 3200 
L 1344 2106 
Q 1413 1984 1478 1856 
L 1491 1856 
L 2291 3200 
L 2856 3200 
z
" transform="scale(0.015625)"/>
       <path id="SegoeUI-20" transform="scale(0.015625)"/>
       <path id="SegoeUI-4a" d="M 1734 1606 
Q 1734 809 1396 367 
Q 1059 -75 494 -75 
Q 231 -75 63 0 
L 63 519 
Q 231 397 500 397 
Q 1209 397 1209 1600 
L 1209 4481 
L 1734 4481 
L 1734 1606 
z
" transform="scale(0.015625)"/>
       <path id="SegoeUI-61" d="M 2809 0 
L 2297 0 
L 2297 500 
L 2284 500 
Q 1950 -75 1300 -75 
Q 822 -75 551 178 
Q 281 431 281 850 
Q 281 1747 1338 1894 
L 2297 2028 
Q 2297 2844 1638 2844 
Q 1059 2844 594 2450 
L 594 2975 
Q 1066 3275 1681 3275 
Q 2809 3275 2809 2081 
L 2809 0 
z
M 2297 1619 
L 1525 1513 
Q 1169 1463 987 1336 
Q 806 1209 806 888 
Q 806 653 973 504 
Q 1141 356 1419 356 
Q 1800 356 2048 623 
Q 2297 891 2297 1300 
L 2297 1619 
z
" transform="scale(0.015625)"/>
       <path id="SegoeUI-3d" d="M 3663 2325 
L 725 2325 
L 725 2738 
L 3663 2738 
L 3663 2325 
z
M 3663 994 
L 725 994 
L 725 1406 
L 3663 1406 
L 3663 994 
z
" transform="scale(0.015625)"/>
      </defs>
      <use xlink:href="#SegoeUI-49"/>
      <use xlink:href="#SegoeUI-6e" transform="translate(26.611328 0)"/>
      <use xlink:href="#SegoeUI-64" transform="translate(83.203125 0)"/>
      <use xlink:href="#SegoeUI-65" transform="translate(142.089844 0)"/>
      <use xlink:href="#SegoeUI-78" transform="translate(194.384766 0)"/>
      <use xlink:href="#SegoeUI-2c" transform="translate(240.283203 0)"/>
      <use xlink:href="#SegoeUI-20" transform="translate(261.962891 0)"/>
      <use xlink:href="#SegoeUI-4a" transform="translate(289.355469 0)"/>
      <use xlink:href="#SegoeUI-61" transform="translate(323.673828 0)"/>
      <use xlink:href="#SegoeUI-6e" transform="translate(374.552734 0)"/>
      <use xlink:href="#SegoeUI-20" transform="translate(431.144531 0)"/>
      <use xlink:href="#SegoeUI-32" transform="translate(458.537109 0)"/>
      <use xlink:href="#SegoeUI-30" transform="translate(512.443359 0)"/>
      <use xlink:href="#SegoeUI-32" transform="translate(566.349609 0)"/>
      <use xlink:href="#SegoeUI-30" transform="translate(620.255859 0)"/>
      <use xlink:href="#SegoeUI-20" transform="translate(674.162109 0)"/>
      <use xlink:href="#SegoeUI-3d" transform="translate(701.554688 0)"/>
      <use xlink:href="#SegoeUI-20" transform="translate(769.962891 0)"/>
      <use xlink:href="#SegoeUI-31" transform="translate(797.355469 0)"/>
      <use xlink:href="#SegoeUI-30" transform="translate(851.261719 0)"/>
      <use xlink:href="#SegoeUI-30" transform="translate(905.167969 0)"/>
     </g>
    </g>
   </g>
   <g id="line2d_27">
    <path d="M 78.545455 228.786719 
L 86.192335 228.782393 
L 93.345869 228.769517 
L 100.99275 228.543695 
L 108.392957 228.331857 
L 116.039837 228.239557 
L 123.440045 228.154504 
L 131.086925 227.896205 
L 138.733806 227.612021 
L 146.134013 227.384649 
L 153.780894 227.178347 
L 161.181101 226.905475 
L 168.827982 226.229947 
L 176.474863 225.116377 
L 183.381723 223.969185 
L 191.028603 222.404296 
L 198.42881 220.517185 
L 206.075691 219.313242 
L 213.475898 218.943771 
L 221.122779 218.628453 
L 228.76966 217.898654 
L 236.169867 217.413619 
L 243.816748 216.458871 
L 251.216955 215.357454 
L 258.863836 214.376518 
L 266.510716 213.536649 
L 273.417576 213.303612 
L 281.064457 213.393329 
L 288.464664 214.090045 
L 296.111545 214.605261 
L 303.511752 214.921433 
L 311.158633 214.949348 
L 318.805514 215.026234 
L 326.205721 215.486748 
L 333.852601 215.700552 
L 341.252809 216.146171 
L 348.899689 216.415732 
L 356.54657 216.496569 
L 363.45343 216.754489 
L 371.100311 216.963489 
L 378.500518 217.080134 
L 386.147399 217.221147 
L 393.547606 217.403354 
L 401.194486 217.46529 
L 408.841367 217.405505 
L 416.241574 217.440299 
L 423.888455 217.255122 
L 431.288662 216.958033 
L 438.935543 216.578452 
L 446.582424 216.202872 
L 453.735957 215.373393 
L 461.382838 214.425749 
L 468.783045 213.992087 
L 476.429926 213.892166 
L 483.830133 213.758751 
L 491.477014 213.362975 
L 499.123895 212.976858 
L 506.524102 212.830606 
L 514.170982 211.852368 
L 521.57119 210.190668 
L 529.21807 209.2773 
L 536.864951 207.977309 
L 543.771811 207.481768 
L 551.418692 207.002209 
L 558.818899 205.835626 
L 566.46578 204.548817 
L 573.865987 202.733618 
L 581.512868 199.823192 
L 589.159748 198.268668 
L 596.559955 196.8103 
L 604.206836 196.826247 
L 611.607043 196.462764 
L 619.253924 196.46096 
L 626.900805 196.561172 
L 633.807665 195.74736 
L 641.454545 195.252911 
" clip-path="url(#pa9e8caba67)" style="fill: none; stroke: #059669; stroke-width: 1.8; stroke-linecap: square"/>
   </g>
   <g id="line2d_28">
    <path d="M 78.545455 228.786719 
L 86.192335 228.617796 
L 93.345869 228.825 
L 100.99275 228.811537 
L 108.392957 228.655162 
L 116.039837 228.265321 
L 123.440045 227.348945 
L 131.086925 225.264322 
L 138.733806 222.794817 
L 146.134013 222.182111 
L 153.780894 221.109408 
L 161.181101 219.505244 
L 168.827982 213.371873 
L 176.474863 200.8108 
L 183.381723 193.69594 
L 191.028603 171.019405 
L 198.42881 156.191383 
L 206.075691 167.964201 
L 213.475898 168.170479 
L 221.122779 150.205694 
L 228.76966 139.612488 
L 236.169867 125.203596 
L 243.816748 107.325 
L 251.216955 110.888978 
L 258.863836 121.496028 
L 266.510716 130.278465 
L 273.417576 126.026151 
L 281.064457 121.060251 
L 288.464664 159.115563 
L 296.111545 184.197542 
L 303.511752 188.751892 
L 311.158633 185.82328 
L 318.805514 190.522696 
L 326.205721 191.694831 
L 333.852601 196.917803 
L 341.252809 200.371583 
L 348.899689 198.302764 
L 356.54657 194.50958 
L 363.45343 195.131578 
L 371.100311 193.538986 
L 378.500518 195.479206 
L 386.147399 197.769868 
L 393.547606 197.541211 
L 401.194486 200.728008 
L 408.841367 202.011966 
L 416.241574 201.473665 
L 423.888455 196.557824 
L 431.288662 192.74849 
L 438.935543 190.04289 
L 446.582424 182.651446 
L 453.735957 166.234328 
L 461.382838 166.598958 
L 468.783045 164.852658 
L 476.429926 160.682228 
L 483.830133 164.77533 
L 491.477014 171.481665 
L 499.123895 172.05752 
L 506.524102 169.962909 
L 514.170982 157.045974 
L 521.57119 140.848579 
L 529.21807 142.879086 
L 536.864951 151.716944 
L 543.771811 161.790681 
L 551.418692 164.74171 
L 558.818899 151.171436 
L 566.46578 150.585216 
L 573.865987 137.963102 
L 581.512868 123.118585 
L 589.159748 117.959065 
L 596.559955 117.509213 
L 604.206836 139.017974 
L 611.607043 145.246029 
L 619.253924 142.353275 
L 626.900805 160.506228 
L 633.807665 161.357251 
L 641.454545 161.927888 
" clip-path="url(#pa9e8caba67)" style="fill: none; stroke: #16a34a; stroke-width: 1.8; stroke-linecap: square"/>
   </g>
   <g id="line2d_29">
    <path d="M 335.579316 234.9 
L 335.579316 101.25 
" clip-path="url(#pa9e8caba67)" style="fill: none; stroke-dasharray: 1,1.65; stroke-dashoffset: 0; stroke: #dc2626; stroke-opacity: 0.55"/>
   </g>
   <g id="line2d_30">
    <path d="M 365.673492 234.9 
L 365.673492 101.25 
" clip-path="url(#pa9e8caba67)" style="fill: none; stroke-dasharray: 1,1.65; stroke-dashoffset: 0; stroke: #d97706; stroke-opacity: 0.55"/>
   </g>
   <g id="line2d_31">
    <path d="M 441.402279 234.9 
L 441.402279 101.25 
" clip-path="url(#pa9e8caba67)" style="fill: none; stroke-dasharray: 1,1.65; stroke-dashoffset: 0; stroke: #0f766e; stroke-opacity: 0.55"/>
   </g>
   <g id="line2d_32">
    <path d="M 466.069636 234.9 
L 466.069636 101.25 
" clip-path="url(#pa9e8caba67)" style="fill: none; stroke-dasharray: 1,1.65; stroke-dashoffset: 0; stroke: #7c3aed; stroke-opacity: 0.55"/>
   </g>
   <g id="line2d_33">
    <path d="M 489.256952 234.9 
L 489.256952 101.25 
" clip-path="url(#pa9e8caba67)" style="fill: none; stroke-dasharray: 1,1.65; stroke-dashoffset: 0; stroke: #627eea; stroke-opacity: 0.55"/>
   </g>
   <g id="text_15">
    <!-- FTX -->
    <g style="fill: #dc2626; opacity: 0.95" transform="translate(333.969316 120.509469) rotate(-90) scale(0.07 -0.07)">
     <defs>
      <path id="SegoeUI-46" d="M 2863 4006 
L 1113 4006 
L 1113 2456 
L 2731 2456 
L 2731 1984 
L 1113 1984 
L 1113 0 
L 588 0 
L 588 4481 
L 2863 4481 
L 2863 4006 
z
" transform="scale(0.015625)"/>
      <path id="SegoeUI-54" d="M 3238 4006 
L 1944 4006 
L 1944 0 
L 1419 0 
L 1419 4006 
L 128 4006 
L 128 4481 
L 3238 4481 
L 3238 4006 
z
" transform="scale(0.015625)"/>
      <path id="SegoeUI-58" d="M 3681 0 
L 3041 0 
L 2009 1716 
Q 1963 1794 1906 1938 
L 1894 1938 
Q 1863 1866 1788 1716 
L 725 0 
L 81 0 
L 1581 2253 
L 200 4481 
L 844 4481 
L 1759 2906 
Q 1850 2750 1919 2594 
L 1931 2594 
Q 2031 2800 2106 2919 
L 3059 4481 
L 3663 4481 
L 2253 2259 
L 3681 0 
z
" transform="scale(0.015625)"/>
     </defs>
     <use xlink:href="#SegoeUI-46"/>
     <use xlink:href="#SegoeUI-54" transform="translate(49.453125 0)"/>
     <use xlink:href="#SegoeUI-58" transform="translate(101.595703 0)"/>
    </g>
   </g>
   <g id="text_16">
    <!-- SVB -->
    <g style="fill: #d97706; opacity: 0.95" transform="translate(364.063492 121.348375) rotate(-90) scale(0.07 -0.07)">
     <defs>
      <path id="SegoeUI-53" d="M 378 181 
L 378 800 
Q 484 706 632 631 
Q 781 556 945 504 
Q 1109 453 1275 425 
Q 1441 397 1581 397 
Q 2066 397 2305 576 
Q 2544 756 2544 1094 
Q 2544 1275 2464 1409 
Q 2384 1544 2243 1655 
Q 2103 1766 1911 1867 
Q 1719 1969 1497 2081 
Q 1263 2200 1059 2322 
Q 856 2444 706 2591 
Q 556 2738 470 2923 
Q 384 3109 384 3359 
Q 384 3666 518 3892 
Q 653 4119 872 4266 
Q 1091 4413 1370 4484 
Q 1650 4556 1941 4556 
Q 2603 4556 2906 4397 
L 2906 3806 
Q 2509 4081 1888 4081 
Q 1716 4081 1544 4045 
Q 1372 4009 1237 3928 
Q 1103 3847 1018 3719 
Q 934 3591 934 3406 
Q 934 3234 998 3109 
Q 1063 2984 1188 2881 
Q 1313 2778 1492 2681 
Q 1672 2584 1906 2469 
Q 2147 2350 2362 2219 
Q 2578 2088 2740 1928 
Q 2903 1769 2998 1575 
Q 3094 1381 3094 1131 
Q 3094 800 2964 570 
Q 2834 341 2614 197 
Q 2394 53 2106 -11 
Q 1819 -75 1500 -75 
Q 1394 -75 1237 -58 
Q 1081 -41 918 -8 
Q 756 25 611 73 
Q 466 122 378 181 
z
" transform="scale(0.015625)"/>
      <path id="SegoeUI-56" d="M 3919 4481 
L 2259 0 
L 1681 0 
L 56 4481 
L 641 4481 
L 1881 928 
Q 1941 756 1972 531 
L 1984 531 
Q 2009 719 2088 934 
L 3353 4481 
L 3919 4481 
z
" transform="scale(0.015625)"/>
      <path id="SegoeUI-42" d="M 588 0 
L 588 4481 
L 1863 4481 
Q 2444 4481 2784 4197 
Q 3125 3913 3125 3456 
Q 3125 3075 2919 2794 
Q 2713 2513 2350 2394 
L 2350 2381 
Q 2803 2328 3075 2039 
Q 3347 1750 3347 1288 
Q 3347 713 2934 356 
Q 2522 0 1894 0 
L 588 0 
z
M 1113 4006 
L 1113 2559 
L 1650 2559 
Q 2081 2559 2328 2767 
Q 2575 2975 2575 3353 
Q 2575 4006 1716 4006 
L 1113 4006 
z
M 1113 2088 
L 1113 475 
L 1825 475 
Q 2288 475 2542 694 
Q 2797 913 2797 1294 
Q 2797 2088 1716 2088 
L 1113 2088 
z
" transform="scale(0.015625)"/>
     </defs>
     <use xlink:href="#SegoeUI-53"/>
     <use xlink:href="#SegoeUI-56" transform="translate(53.125 0)"/>
     <use xlink:href="#SegoeUI-42" transform="translate(115.234375 0)"/>
    </g>
   </g>
   <g id="text_17">
    <!-- BTC ETF -->
    <g style="fill: #0f766e; opacity: 0.95" transform="translate(439.792279 133.215563) rotate(-90) scale(0.07 -0.07)">
     <defs>
      <path id="SegoeUI-43" d="M 3638 188 
Q 3141 -75 2400 -75 
Q 1444 -75 869 540 
Q 294 1156 294 2156 
Q 294 3231 941 3893 
Q 1588 4556 2581 4556 
Q 3219 4556 3638 4372 
L 3638 3813 
Q 3156 4081 2575 4081 
Q 1803 4081 1323 3565 
Q 844 3050 844 2188 
Q 844 1369 1292 883 
Q 1741 397 2469 397 
Q 3144 397 3638 697 
L 3638 188 
z
" transform="scale(0.015625)"/>
      <path id="SegoeUI-45" d="M 2963 0 
L 588 0 
L 588 4481 
L 2863 4481 
L 2863 4006 
L 1113 4006 
L 1113 2516 
L 2731 2516 
L 2731 2044 
L 1113 2044 
L 1113 475 
L 2963 475 
L 2963 0 
z
" transform="scale(0.015625)"/>
     </defs>
     <use xlink:href="#SegoeUI-42"/>
     <use xlink:href="#SegoeUI-54" transform="translate(52.824219 0)"/>
     <use xlink:href="#SegoeUI-43" transform="translate(100.716797 0)"/>
     <use xlink:href="#SegoeUI-20" transform="translate(162.630859 0)"/>
     <use xlink:href="#SegoeUI-45" transform="translate(190.023438 0)"/>
     <use xlink:href="#SegoeUI-54" transform="translate(240.859375 0)"/>
     <use xlink:href="#SegoeUI-46" transform="translate(293.251953 0)"/>
    </g>
   </g>
   <g id="text_18">
    <!-- Halving -->
    <g style="fill: #7c3aed; opacity: 0.95" transform="translate(464.422448 132.628219) rotate(-90) scale(0.07 -0.07)">
     <defs>
      <path id="SegoeUI-48" d="M 3956 0 
L 3431 0 
L 3431 2044 
L 1113 2044 
L 1113 0 
L 588 0 
L 588 4481 
L 1113 4481 
L 1113 2516 
L 3431 2516 
L 3431 4481 
L 3956 4481 
L 3956 0 
z
" transform="scale(0.015625)"/>
      <path id="SegoeUI-6c" d="M 1031 0 
L 519 0 
L 519 4738 
L 1031 4738 
L 1031 0 
z
" transform="scale(0.015625)"/>
      <path id="SegoeUI-76" d="M 3034 3200 
L 1759 0 
L 1256 0 
L 44 3200 
L 606 3200 
L 1419 875 
Q 1509 619 1531 428 
L 1544 428 
Q 1575 669 1644 863 
L 2494 3200 
L 3034 3200 
z
" transform="scale(0.015625)"/>
      <path id="SegoeUI-69" d="M 781 4013 
Q 644 4013 547 4106 
Q 450 4200 450 4344 
Q 450 4488 547 4583 
Q 644 4678 781 4678 
Q 922 4678 1020 4583 
Q 1119 4488 1119 4344 
Q 1119 4206 1020 4109 
Q 922 4013 781 4013 
z
M 1031 0 
L 519 0 
L 519 3200 
L 1031 3200 
L 1031 0 
z
" transform="scale(0.015625)"/>
      <path id="SegoeUI-67" d="M 3250 256 
Q 3250 -1506 1563 -1506 
Q 969 -1506 525 -1281 
L 525 -769 
Q 1066 -1069 1556 -1069 
Q 2738 -1069 2738 188 
L 2738 538 
L 2725 538 
Q 2359 -75 1625 -75 
Q 1028 -75 664 351 
Q 300 778 300 1497 
Q 300 2313 692 2794 
Q 1084 3275 1766 3275 
Q 2413 3275 2725 2756 
L 2738 2756 
L 2738 3200 
L 3250 3200 
L 3250 256 
z
M 2738 1447 
L 2738 1919 
Q 2738 2300 2480 2572 
Q 2222 2844 1838 2844 
Q 1363 2844 1094 2498 
Q 825 2153 825 1531 
Q 825 997 1083 676 
Q 1341 356 1766 356 
Q 2197 356 2467 662 
Q 2738 969 2738 1447 
z
" transform="scale(0.015625)"/>
     </defs>
     <use xlink:href="#SegoeUI-48"/>
     <use xlink:href="#SegoeUI-61" transform="translate(70.996094 0)"/>
     <use xlink:href="#SegoeUI-6c" transform="translate(121.875 0)"/>
     <use xlink:href="#SegoeUI-76" transform="translate(146.09375 0)"/>
     <use xlink:href="#SegoeUI-69" transform="translate(193.994141 0)"/>
     <use xlink:href="#SegoeUI-6e" transform="translate(218.212891 0)"/>
     <use xlink:href="#SegoeUI-67" transform="translate(274.804688 0)"/>
    </g>
   </g>
   <g id="text_19">
    <!-- ETH ETF -->
    <g style="fill: #627eea; opacity: 0.95" transform="translate(487.646952 134.027125) rotate(-90) scale(0.07 -0.07)">
     <use xlink:href="#SegoeUI-45"/>
     <use xlink:href="#SegoeUI-54" transform="translate(50.835938 0)"/>
     <use xlink:href="#SegoeUI-48" transform="translate(103.228516 0)"/>
     <use xlink:href="#SegoeUI-20" transform="translate(174.224609 0)"/>
     <use xlink:href="#SegoeUI-45" transform="translate(201.617188 0)"/>
     <use xlink:href="#SegoeUI-54" transform="translate(252.453125 0)"/>
     <use xlink:href="#SegoeUI-46" transform="translate(304.845703 0)"/>
    </g>
   </g>
   <g id="text_20">
    <g id="patch_4">
     <path d="M 496.224 223.502 
L 716.194 223.502 
Q 718.994 223.502 718.994 220.702 
L 718.994 212.9395 
Q 718.994 210.1395 716.194 210.1395 
L 496.224 210.1395 
Q 493.424 210.1395 493.424 212.9395 
L 493.424 220.702 
Q 493.424 223.502 496.224 223.502 
z
" style="fill: #f3f4f6; stroke: #d9dee7; stroke-width: 0.8; stroke-linejoin: miter"/>
    </g>
    <!-- Apr 2026 context\nStablecoins: USD 363B\nDeFi TVL: USD 93B -->
    <g style="fill: #111827" transform="translate(496.224 218.862) scale(0.08 -0.08)">
     <defs>
      <path id="SegoeUI-41" d="M 4056 0 
L 3475 0 
L 3000 1256 
L 1100 1256 
L 653 0 
L 69 0 
L 1788 4481 
L 2331 4481 
L 4056 0 
z
M 2828 1728 
L 2125 3638 
Q 2091 3731 2056 3938 
L 2044 3938 
Q 2013 3747 1972 3638 
L 1275 1728 
L 2828 1728 
z
" transform="scale(0.015625)"/>
      <path id="SegoeUI-70" d="M 1044 463 
L 1031 463 
L 1031 -1472 
L 519 -1472 
L 519 3200 
L 1031 3200 
L 1031 2638 
L 1044 2638 
Q 1422 3275 2150 3275 
Q 2769 3275 3116 2845 
Q 3463 2416 3463 1694 
Q 3463 891 3072 408 
Q 2681 -75 2003 -75 
Q 1381 -75 1044 463 
z
M 1031 1753 
L 1031 1306 
Q 1031 909 1289 632 
Q 1547 356 1944 356 
Q 2409 356 2673 712 
Q 2938 1069 2938 1703 
Q 2938 2238 2691 2541 
Q 2444 2844 2022 2844 
Q 1575 2844 1303 2533 
Q 1031 2222 1031 1753 
z
" transform="scale(0.015625)"/>
      <path id="SegoeUI-72" d="M 2188 2681 
Q 2053 2784 1800 2784 
Q 1472 2784 1251 2475 
Q 1031 2166 1031 1631 
L 1031 0 
L 519 0 
L 519 3200 
L 1031 3200 
L 1031 2541 
L 1044 2541 
Q 1153 2878 1378 3067 
Q 1603 3256 1881 3256 
Q 2081 3256 2188 3213 
L 2188 2681 
z
" transform="scale(0.015625)"/>
      <path id="SegoeUI-63" d="M 2700 147 
Q 2331 -75 1825 -75 
Q 1141 -75 720 370 
Q 300 816 300 1525 
Q 300 2316 753 2795 
Q 1206 3275 1963 3275 
Q 2384 3275 2706 3119 
L 2706 2594 
Q 2350 2844 1944 2844 
Q 1453 2844 1139 2492 
Q 825 2141 825 1569 
Q 825 1006 1120 681 
Q 1416 356 1913 356 
Q 2331 356 2700 634 
L 2700 147 
z
" transform="scale(0.015625)"/>
      <path id="SegoeUI-6f" d="M 1856 -75 
Q 1147 -75 723 373 
Q 300 822 300 1563 
Q 300 2369 740 2822 
Q 1181 3275 1931 3275 
Q 2647 3275 3048 2834 
Q 3450 2394 3450 1613 
Q 3450 847 3017 386 
Q 2584 -75 1856 -75 
z
M 1894 2844 
Q 1400 2844 1112 2508 
Q 825 2172 825 1581 
Q 825 1013 1115 684 
Q 1406 356 1894 356 
Q 2391 356 2658 678 
Q 2925 1000 2925 1594 
Q 2925 2194 2658 2519 
Q 2391 2844 1894 2844 
z
" transform="scale(0.015625)"/>
      <path id="SegoeUI-74" d="M 2003 31 
Q 1822 -69 1525 -69 
Q 684 -69 684 869 
L 684 2763 
L 134 2763 
L 134 3200 
L 684 3200 
L 684 3981 
L 1197 4147 
L 1197 3200 
L 2003 3200 
L 2003 2763 
L 1197 2763 
L 1197 959 
Q 1197 638 1306 500 
Q 1416 363 1669 363 
Q 1863 363 2003 469 
L 2003 31 
z
" transform="scale(0.015625)"/>
      <path id="SegoeUI-5c" d="M 2494 -750 
L 2022 -750 
L -81 4481 
L 403 4481 
L 2494 -750 
z
" transform="scale(0.015625)"/>
      <path id="SegoeUI-62" d="M 1044 463 
L 1031 463 
L 1031 0 
L 519 0 
L 519 4738 
L 1031 4738 
L 1031 2638 
L 1044 2638 
Q 1422 3275 2150 3275 
Q 2766 3275 3114 2845 
Q 3463 2416 3463 1694 
Q 3463 891 3072 408 
Q 2681 -75 2003 -75 
Q 1369 -75 1044 463 
z
M 1031 1753 
L 1031 1306 
Q 1031 909 1289 632 
Q 1547 356 1944 356 
Q 2409 356 2673 712 
Q 2938 1069 2938 1703 
Q 2938 2238 2691 2541 
Q 2444 2844 2022 2844 
Q 1575 2844 1303 2533 
Q 1031 2222 1031 1753 
z
" transform="scale(0.015625)"/>
      <path id="SegoeUI-73" d="M 325 116 
L 325 666 
Q 744 356 1247 356 
Q 1922 356 1922 806 
Q 1922 934 1864 1023 
Q 1806 1113 1707 1181 
Q 1609 1250 1476 1304 
Q 1344 1359 1191 1419 
Q 978 1503 817 1589 
Q 656 1675 548 1783 
Q 441 1891 386 2028 
Q 331 2166 331 2350 
Q 331 2575 434 2748 
Q 538 2922 709 3039 
Q 881 3156 1101 3215 
Q 1322 3275 1556 3275 
Q 1972 3275 2300 3131 
L 2300 2613 
Q 1947 2844 1488 2844 
Q 1344 2844 1228 2811 
Q 1113 2778 1030 2718 
Q 947 2659 901 2576 
Q 856 2494 856 2394 
Q 856 2269 901 2184 
Q 947 2100 1034 2034 
Q 1122 1969 1247 1916 
Q 1372 1863 1531 1800 
Q 1744 1719 1912 1633 
Q 2081 1547 2200 1439 
Q 2319 1331 2383 1190 
Q 2447 1050 2447 856 
Q 2447 619 2342 444 
Q 2238 269 2063 153 
Q 1888 38 1659 -18 
Q 1431 -75 1181 -75 
Q 688 -75 325 116 
z
" transform="scale(0.015625)"/>
      <path id="SegoeUI-3a" d="M 697 2575 
Q 553 2575 451 2678 
Q 350 2781 350 2925 
Q 350 3069 451 3169 
Q 553 3269 697 3269 
Q 844 3269 947 3169 
Q 1050 3069 1050 2925 
Q 1050 2781 947 2678 
Q 844 2575 697 2575 
z
M 697 -69 
Q 553 -69 451 34 
Q 350 138 350 281 
Q 350 425 451 529 
Q 553 634 697 634 
Q 844 634 947 529 
Q 1050 425 1050 281 
Q 1050 138 947 34 
Q 844 -69 697 -69 
z
" transform="scale(0.015625)"/>
      <path id="SegoeUI-55" d="M 3866 1813 
Q 3866 -75 2163 -75 
Q 531 -75 531 1741 
L 531 4481 
L 1056 4481 
L 1056 1775 
Q 1056 397 2219 397 
Q 3341 397 3341 1728 
L 3341 4481 
L 3866 4481 
L 3866 1813 
z
" transform="scale(0.015625)"/>
      <path id="SegoeUI-44" d="M 588 0 
L 588 4481 
L 1825 4481 
Q 4194 4481 4194 2297 
Q 4194 1259 3536 629 
Q 2878 0 1775 0 
L 588 0 
z
M 1113 4006 
L 1113 475 
L 1781 475 
Q 2663 475 3153 947 
Q 3644 1419 3644 2284 
Q 3644 4006 1813 4006 
L 1113 4006 
z
" transform="scale(0.015625)"/>
      <path id="SegoeUI-4c" d="M 2913 0 
L 588 0 
L 588 4481 
L 1113 4481 
L 1113 475 
L 2913 475 
L 2913 0 
z
" transform="scale(0.015625)"/>
      <path id="SegoeUI-39" d="M 3138 2509 
Q 3138 1894 3016 1414 
Q 2894 934 2659 601 
Q 2425 269 2087 95 
Q 1750 -78 1319 -78 
Q 875 -78 538 78 
L 538 569 
Q 909 359 1331 359 
Q 1634 359 1873 484 
Q 2113 609 2278 848 
Q 2444 1088 2531 1438 
Q 2619 1788 2619 2241 
L 2606 2241 
Q 2319 1663 1606 1663 
Q 1319 1663 1078 1764 
Q 838 1866 663 2052 
Q 488 2238 391 2494 
Q 294 2750 294 3059 
Q 294 3391 401 3666 
Q 509 3941 701 4139 
Q 894 4338 1158 4447 
Q 1422 4556 1734 4556 
Q 2072 4556 2333 4420 
Q 2594 4284 2772 4023 
Q 2950 3763 3044 3381 
Q 3138 3000 3138 2509 
z
M 2584 2969 
Q 2584 3228 2517 3440 
Q 2450 3653 2331 3804 
Q 2213 3956 2048 4039 
Q 1884 4122 1691 4122 
Q 1506 4122 1347 4048 
Q 1188 3975 1070 3842 
Q 953 3709 886 3526 
Q 819 3344 819 3128 
Q 819 2891 883 2703 
Q 947 2516 1065 2386 
Q 1184 2256 1351 2187 
Q 1519 2119 1722 2119 
Q 1900 2119 2058 2186 
Q 2216 2253 2333 2367 
Q 2450 2481 2517 2636 
Q 2584 2791 2584 2969 
z
" transform="scale(0.015625)"/>
     </defs>
     <use xlink:href="#SegoeUI-41"/>
     <use xlink:href="#SegoeUI-70" transform="translate(64.501953 0)"/>
     <use xlink:href="#SegoeUI-72" transform="translate(123.291016 0)"/>
     <use xlink:href="#SegoeUI-20" transform="translate(158.056641 0)"/>
     <use xlink:href="#SegoeUI-32" transform="translate(185.449219 0)"/>
     <use xlink:href="#SegoeUI-30" transform="translate(239.355469 0)"/>
     <use xlink:href="#SegoeUI-32" transform="translate(293.261719 0)"/>
     <use xlink:href="#SegoeUI-36" transform="translate(347.167969 0)"/>
     <use xlink:href="#SegoeUI-20" transform="translate(401.074219 0)"/>
     <use xlink:href="#SegoeUI-63" transform="translate(428.466797 0)"/>
     <use xlink:href="#SegoeUI-6f" transform="translate(474.658203 0)"/>
     <use xlink:href="#SegoeUI-6e" transform="translate(533.251953 0)"/>
     <use xlink:href="#SegoeUI-74" transform="translate(589.84375 0)"/>
     <use xlink:href="#SegoeUI-65" transform="translate(622.980469 0)"/>
     <use xlink:href="#SegoeUI-78" transform="translate(675.275391 0)"/>
     <use xlink:href="#SegoeUI-74" transform="translate(721.173828 0)"/>
     <use xlink:href="#SegoeUI-5c" transform="translate(755.060547 0)"/>
     <use xlink:href="#SegoeUI-6e" transform="translate(792.951172 0)"/>
     <use xlink:href="#SegoeUI-53" transform="translate(849.542969 0)"/>
     <use xlink:href="#SegoeUI-74" transform="translate(899.417969 0)"/>
     <use xlink:href="#SegoeUI-61" transform="translate(933.304688 0)"/>
     <use xlink:href="#SegoeUI-62" transform="translate(984.183594 0)"/>
     <use xlink:href="#SegoeUI-6c" transform="translate(1042.972656 0)"/>
     <use xlink:href="#SegoeUI-65" transform="translate(1067.191406 0)"/>
     <use xlink:href="#SegoeUI-63" transform="translate(1119.486328 0)"/>
     <use xlink:href="#SegoeUI-6f" transform="translate(1165.677734 0)"/>
     <use xlink:href="#SegoeUI-69" transform="translate(1224.271484 0)"/>
     <use xlink:href="#SegoeUI-6e" transform="translate(1248.490234 0)"/>
     <use xlink:href="#SegoeUI-73" transform="translate(1305.082031 0)"/>
     <use xlink:href="#SegoeUI-3a" transform="translate(1347.513672 0)"/>
     <use xlink:href="#SegoeUI-20" transform="translate(1369.193359 0)"/>
     <use xlink:href="#SegoeUI-55" transform="translate(1396.585938 0)"/>
     <use xlink:href="#SegoeUI-53" transform="translate(1465.287109 0)"/>
     <use xlink:href="#SegoeUI-44" transform="translate(1518.412109 0)"/>
     <use xlink:href="#SegoeUI-20" transform="translate(1588.529297 0)"/>
     <use xlink:href="#SegoeUI-33" transform="translate(1615.921875 0)"/>
     <use xlink:href="#SegoeUI-36" transform="translate(1669.828125 0)"/>
     <use xlink:href="#SegoeUI-33" transform="translate(1723.734375 0)"/>
     <use xlink:href="#SegoeUI-42" transform="translate(1777.640625 0)"/>
     <use xlink:href="#SegoeUI-5c" transform="translate(1834.964844 0)"/>
     <use xlink:href="#SegoeUI-6e" transform="translate(1872.855469 0)"/>
     <use xlink:href="#SegoeUI-44" transform="translate(1929.447266 0)"/>
     <use xlink:href="#SegoeUI-65" transform="translate(1999.564453 0)"/>
     <use xlink:href="#SegoeUI-46" transform="translate(2051.859375 0)"/>
     <use xlink:href="#SegoeUI-69" transform="translate(2100.6875 0)"/>
     <use xlink:href="#SegoeUI-20" transform="translate(2124.90625 0)"/>
     <use xlink:href="#SegoeUI-54" transform="translate(2152.298828 0)"/>
     <use xlink:href="#SegoeUI-56" transform="translate(2206.816406 0)"/>
     <use xlink:href="#SegoeUI-4c" transform="translate(2268.925781 0)"/>
     <use xlink:href="#SegoeUI-3a" transform="translate(2315.996094 0)"/>
     <use xlink:href="#SegoeUI-20" transform="translate(2337.675781 0)"/>
     <use xlink:href="#SegoeUI-55" transform="translate(2365.068359 0)"/>
     <use xlink:href="#SegoeUI-53" transform="translate(2433.769531 0)"/>
     <use xlink:href="#SegoeUI-44" transform="translate(2486.894531 0)"/>
     <use xlink:href="#SegoeUI-20" transform="translate(2557.011719 0)"/>
     <use xlink:href="#SegoeUI-39" transform="translate(2584.404297 0)"/>
     <use xlink:href="#SegoeUI-33" transform="translate(2638.310547 0)"/>
     <use xlink:href="#SegoeUI-42" transform="translate(2692.216797 0)"/>
    </g>
   </g>
   <g id="legend_1">
    <g id="line2d_34">
     <path d="M 57.6 111.5725 
L 65.6 111.5725 
L 73.6 111.5725 
" style="fill: none; stroke: #059669; stroke-width: 1.8; stroke-linecap: square"/>
    </g>
    <g id="text_21">
     <!-- Stablecoin supply -->
     <g style="fill: #6b7280" transform="translate(80 114.3725) scale(0.08 -0.08)">
      <defs>
       <path id="SegoeUI-75" d="M 3106 0 
L 2594 0 
L 2594 506 
L 2581 506 
Q 2263 -75 1594 -75 
Q 450 -75 450 1288 
L 450 3200 
L 959 3200 
L 959 1369 
Q 959 356 1734 356 
Q 2109 356 2351 632 
Q 2594 909 2594 1356 
L 2594 3200 
L 3106 3200 
L 3106 0 
z
" transform="scale(0.015625)"/>
       <path id="SegoeUI-79" d="M 3066 3200 
L 1594 -513 
Q 1200 -1506 488 -1506 
Q 288 -1506 153 -1466 
L 153 -1006 
Q 319 -1063 456 -1063 
Q 844 -1063 1038 -600 
L 1294 6 
L 44 3200 
L 613 3200 
L 1478 738 
Q 1494 691 1544 494 
L 1563 494 
Q 1578 569 1625 731 
L 2534 3200 
L 3066 3200 
z
" transform="scale(0.015625)"/>
      </defs>
      <use xlink:href="#SegoeUI-53"/>
      <use xlink:href="#SegoeUI-74" transform="translate(49.875 0)"/>
      <use xlink:href="#SegoeUI-61" transform="translate(83.761719 0)"/>
      <use xlink:href="#SegoeUI-62" transform="translate(134.640625 0)"/>
      <use xlink:href="#SegoeUI-6c" transform="translate(193.429688 0)"/>
      <use xlink:href="#SegoeUI-65" transform="translate(217.648438 0)"/>
      <use xlink:href="#SegoeUI-63" transform="translate(269.943359 0)"/>
      <use xlink:href="#SegoeUI-6f" transform="translate(316.134766 0)"/>
      <use xlink:href="#SegoeUI-69" transform="translate(374.728516 0)"/>
      <use xlink:href="#SegoeUI-6e" transform="translate(398.947266 0)"/>
      <use xlink:href="#SegoeUI-20" transform="translate(455.539062 0)"/>
      <use xlink:href="#SegoeUI-73" transform="translate(482.931641 0)"/>
      <use xlink:href="#SegoeUI-75" transform="translate(525.363281 0)"/>
      <use xlink:href="#SegoeUI-70" transform="translate(581.955078 0)"/>
      <use xlink:href="#SegoeUI-70" transform="translate(640.744141 0)"/>
      <use xlink:href="#SegoeUI-6c" transform="translate(699.533203 0)"/>
      <use xlink:href="#SegoeUI-79" transform="translate(723.751953 0)"/>
     </g>
    </g>
    <g id="line2d_35">
     <path d="M 157.77375 111.5725 
L 165.77375 111.5725 
L 173.77375 111.5725 
" style="fill: none; stroke: #16a34a; stroke-width: 1.8; stroke-linecap: square"/>
    </g>
    <g id="text_22">
     <!-- DeFi TVL -->
     <g style="fill: #6b7280" transform="translate(180.17375 114.3725) scale(0.08 -0.08)">
      <use xlink:href="#SegoeUI-44"/>
      <use xlink:href="#SegoeUI-65" transform="translate(70.117188 0)"/>
      <use xlink:href="#SegoeUI-46" transform="translate(122.412109 0)"/>
      <use xlink:href="#SegoeUI-69" transform="translate(171.240234 0)"/>
      <use xlink:href="#SegoeUI-20" transform="translate(195.458984 0)"/>
      <use xlink:href="#SegoeUI-54" transform="translate(222.851562 0)"/>
      <use xlink:href="#SegoeUI-56" transform="translate(277.369141 0)"/>
      <use xlink:href="#SegoeUI-4c" transform="translate(339.478516 0)"/>
     </g>
    </g>
   </g>
  </g>
  <g id="axes_2">
   <g id="patch_5">
    <path d="M 50.4 336.15 
L 669.6 336.15 
L 669.6 267.3 
L 50.4 267.3 
z
" style="fill: #ffffff"/>
   </g>
   <g id="matplotlib.axis_3">
    <g id="xtick_8">
     <g id="line2d_36">
      <path d="M 78.545455 336.15 
L 78.545455 267.3 
" clip-path="url(#p2c02b4b7c5)" style="fill: none; stroke: #d9dee7; stroke-opacity: 0.45; stroke-width: 0.7; stroke-linecap: square"/>
     </g>
     <g id="line2d_37"/>
     <g id="text_23">
      <!-- 2020 -->
      <g style="fill: #6b7280" transform="translate(69.920455 345.5725) scale(0.08 -0.08)">
       <use xlink:href="#SegoeUI-32"/>
       <use xlink:href="#SegoeUI-30" transform="translate(53.90625 0)"/>
       <use xlink:href="#SegoeUI-32" transform="translate(107.8125 0)"/>
       <use xlink:href="#SegoeUI-30" transform="translate(161.71875 0)"/>
      </g>
     </g>
    </g>
    <g id="xtick_9">
     <g id="line2d_38">
      <path d="M 168.827982 336.15 
L 168.827982 267.3 
" clip-path="url(#p2c02b4b7c5)" style="fill: none; stroke: #d9dee7; stroke-opacity: 0.45; stroke-width: 0.7; stroke-linecap: square"/>
     </g>
     <g id="line2d_39"/>
     <g id="text_24">
      <!-- 2021 -->
      <g style="fill: #6b7280" transform="translate(160.202982 345.5725) scale(0.08 -0.08)">
       <use xlink:href="#SegoeUI-32"/>
       <use xlink:href="#SegoeUI-30" transform="translate(53.90625 0)"/>
       <use xlink:href="#SegoeUI-32" transform="translate(107.8125 0)"/>
       <use xlink:href="#SegoeUI-31" transform="translate(161.71875 0)"/>
      </g>
     </g>
    </g>
    <g id="xtick_10">
     <g id="line2d_40">
      <path d="M 258.863836 336.15 
L 258.863836 267.3 
" clip-path="url(#p2c02b4b7c5)" style="fill: none; stroke: #d9dee7; stroke-opacity: 0.45; stroke-width: 0.7; stroke-linecap: square"/>
     </g>
     <g id="line2d_41"/>
     <g id="text_25">
      <!-- 2022 -->
      <g style="fill: #6b7280" transform="translate(250.238836 345.5725) scale(0.08 -0.08)">
       <use xlink:href="#SegoeUI-32"/>
       <use xlink:href="#SegoeUI-30" transform="translate(53.90625 0)"/>
       <use xlink:href="#SegoeUI-32" transform="translate(107.8125 0)"/>
       <use xlink:href="#SegoeUI-32" transform="translate(161.71875 0)"/>
      </g>
     </g>
    </g>
    <g id="xtick_11">
     <g id="line2d_42">
      <path d="M 348.899689 336.15 
L 348.899689 267.3 
" clip-path="url(#p2c02b4b7c5)" style="fill: none; stroke: #d9dee7; stroke-opacity: 0.45; stroke-width: 0.7; stroke-linecap: square"/>
     </g>
     <g id="line2d_43"/>
     <g id="text_26">
      <!-- 2023 -->
      <g style="fill: #6b7280" transform="translate(340.274689 345.5725) scale(0.08 -0.08)">
       <use xlink:href="#SegoeUI-32"/>
       <use xlink:href="#SegoeUI-30" transform="translate(53.90625 0)"/>
       <use xlink:href="#SegoeUI-32" transform="translate(107.8125 0)"/>
       <use xlink:href="#SegoeUI-33" transform="translate(161.71875 0)"/>
      </g>
     </g>
    </g>
    <g id="xtick_12">
     <g id="line2d_44">
      <path d="M 438.935543 336.15 
L 438.935543 267.3 
" clip-path="url(#p2c02b4b7c5)" style="fill: none; stroke: #d9dee7; stroke-opacity: 0.45; stroke-width: 0.7; stroke-linecap: square"/>
     </g>
     <g id="line2d_45"/>
     <g id="text_27">
      <!-- 2024 -->
      <g style="fill: #6b7280" transform="translate(430.310543 345.5725) scale(0.08 -0.08)">
       <use xlink:href="#SegoeUI-32"/>
       <use xlink:href="#SegoeUI-30" transform="translate(53.90625 0)"/>
       <use xlink:href="#SegoeUI-32" transform="translate(107.8125 0)"/>
       <use xlink:href="#SegoeUI-34" transform="translate(161.71875 0)"/>
      </g>
     </g>
    </g>
    <g id="xtick_13">
     <g id="line2d_46">
      <path d="M 529.21807 336.15 
L 529.21807 267.3 
" clip-path="url(#p2c02b4b7c5)" style="fill: none; stroke: #d9dee7; stroke-opacity: 0.45; stroke-width: 0.7; stroke-linecap: square"/>
     </g>
     <g id="line2d_47"/>
     <g id="text_28">
      <!-- 2025 -->
      <g style="fill: #6b7280" transform="translate(520.59307 345.5725) scale(0.08 -0.08)">
       <use xlink:href="#SegoeUI-32"/>
       <use xlink:href="#SegoeUI-30" transform="translate(53.90625 0)"/>
       <use xlink:href="#SegoeUI-32" transform="translate(107.8125 0)"/>
       <use xlink:href="#SegoeUI-35" transform="translate(161.71875 0)"/>
      </g>
     </g>
    </g>
    <g id="xtick_14">
     <g id="line2d_48">
      <path d="M 619.253924 336.15 
L 619.253924 267.3 
" clip-path="url(#p2c02b4b7c5)" style="fill: none; stroke: #d9dee7; stroke-opacity: 0.45; stroke-width: 0.7; stroke-linecap: square"/>
     </g>
     <g id="line2d_49"/>
     <g id="text_29">
      <!-- 2026 -->
      <g style="fill: #6b7280" transform="translate(610.628924 345.5725) scale(0.08 -0.08)">
       <use xlink:href="#SegoeUI-32"/>
       <use xlink:href="#SegoeUI-30" transform="translate(53.90625 0)"/>
       <use xlink:href="#SegoeUI-32" transform="translate(107.8125 0)"/>
       <use xlink:href="#SegoeUI-36" transform="translate(161.71875 0)"/>
      </g>
     </g>
    </g>
   </g>
   <g id="matplotlib.axis_4">
    <g id="ytick_7">
     <g id="line2d_50">
      <path d="M 50.4 319.428455 
L 669.6 319.428455 
" clip-path="url(#p2c02b4b7c5)" style="fill: none; stroke: #d9dee7; stroke-opacity: 0.45; stroke-width: 0.7; stroke-linecap: square"/>
     </g>
     <g id="line2d_51"/>
     <g id="text_30">
      <!-- 50% -->
      <g style="fill: #6b7280" transform="translate(31.7275 322.389705) scale(0.08 -0.08)">
       <defs>
        <path id="SegoeUI-25" d="M 1263 2234 
Q 800 2234 525 2539 
Q 250 2844 250 3353 
Q 250 3909 540 4229 
Q 831 4550 1325 4550 
Q 1803 4550 2067 4253 
Q 2331 3956 2331 3419 
Q 2331 2881 2036 2557 
Q 1741 2234 1263 2234 
z
M 1306 4206 
Q 1009 4206 837 3986 
Q 666 3766 666 3381 
Q 666 3003 834 2792 
Q 1003 2581 1294 2581 
Q 1588 2581 1753 2800 
Q 1919 3019 1919 3406 
Q 1919 3784 1755 3995 
Q 1591 4206 1306 4206 
z
M 4263 4481 
L 1388 -31 
L 941 -31 
L 3813 4481 
L 4263 4481 
z
M 3931 -69 
Q 3469 -69 3194 237 
Q 2919 544 2919 1050 
Q 2919 1606 3212 1929 
Q 3506 2253 3994 2253 
Q 4469 2253 4734 1953 
Q 5000 1653 5000 1113 
Q 5000 578 4704 254 
Q 4409 -69 3931 -69 
z
M 3975 1900 
Q 3675 1900 3504 1681 
Q 3334 1463 3334 1075 
Q 3334 703 3503 492 
Q 3672 281 3963 281 
Q 4256 281 4422 501 
Q 4588 722 4588 1106 
Q 4588 1488 4423 1694 
Q 4259 1900 3975 1900 
z
" transform="scale(0.015625)"/>
       </defs>
       <use xlink:href="#SegoeUI-35"/>
       <use xlink:href="#SegoeUI-30" transform="translate(53.90625 0)"/>
       <use xlink:href="#SegoeUI-25" transform="translate(107.8125 0)"/>
      </g>
     </g>
    </g>
    <g id="ytick_8">
     <g id="line2d_52">
      <path d="M 50.4 287.608152 
L 669.6 287.608152 
" clip-path="url(#p2c02b4b7c5)" style="fill: none; stroke: #d9dee7; stroke-opacity: 0.45; stroke-width: 0.7; stroke-linecap: square"/>
     </g>
     <g id="line2d_53"/>
     <g id="text_31">
      <!-- 100% -->
      <g style="fill: #6b7280" transform="translate(27.415 290.569402) scale(0.08 -0.08)">
       <use xlink:href="#SegoeUI-31"/>
       <use xlink:href="#SegoeUI-30" transform="translate(53.90625 0)"/>
       <use xlink:href="#SegoeUI-30" transform="translate(107.8125 0)"/>
       <use xlink:href="#SegoeUI-25" transform="translate(161.71875 0)"/>
      </g>
     </g>
    </g>
    <g id="text_32">
     <!-- 30d RV -->
     <g style="fill: #6b7280" transform="translate(21.345 315.945703) rotate(-90) scale(0.09 -0.09)">
      <defs>
       <path id="SegoeUI-52" d="M 3800 0 
L 3175 0 
L 2425 1256 
Q 2322 1431 2225 1554 
Q 2128 1678 2026 1756 
Q 1925 1834 1808 1870 
Q 1691 1906 1544 1906 
L 1113 1906 
L 1113 0 
L 588 0 
L 588 4481 
L 1925 4481 
Q 2219 4481 2467 4407 
Q 2716 4334 2898 4184 
Q 3081 4034 3184 3811 
Q 3288 3588 3288 3288 
Q 3288 3053 3217 2858 
Q 3147 2663 3017 2509 
Q 2888 2356 2705 2248 
Q 2522 2141 2294 2081 
L 2294 2069 
Q 2406 2019 2489 1955 
Q 2572 1891 2647 1803 
Q 2722 1716 2795 1605 
Q 2869 1494 2959 1347 
L 3800 0 
z
M 1113 4006 
L 1113 2381 
L 1825 2381 
Q 2022 2381 2189 2440 
Q 2356 2500 2478 2611 
Q 2600 2722 2669 2883 
Q 2738 3044 2738 3244 
Q 2738 3603 2505 3804 
Q 2272 4006 1831 4006 
L 1113 4006 
z
" transform="scale(0.015625)"/>
      </defs>
      <use xlink:href="#SegoeUI-33"/>
      <use xlink:href="#SegoeUI-30" transform="translate(53.90625 0)"/>
      <use xlink:href="#SegoeUI-64" transform="translate(107.8125 0)"/>
      <use xlink:href="#SegoeUI-20" transform="translate(166.699219 0)"/>
      <use xlink:href="#SegoeUI-52" transform="translate(194.091797 0)"/>
      <use xlink:href="#SegoeUI-56" transform="translate(253.90625 0)"/>
     </g>
    </g>
   </g>
   <g id="line2d_54">
    <path d="M 78.545455 314.622246 
L 86.192335 319.033755 
L 93.345869 301.978502 
L 100.99275 297.03017 
L 108.392957 306.451876 
L 116.039837 310.904588 
L 123.440045 330.421727 
L 131.086925 319.266926 
L 138.733806 319.796085 
L 146.134013 328.805327 
L 153.780894 317.227471 
L 161.181101 307.125913 
L 168.827982 298.450787 
L 176.474863 296.226241 
L 183.381723 300.834411 
L 191.028603 313.598654 
L 198.42881 297.789122 
L 206.075691 289.851918 
L 213.475898 304.169023 
L 221.122779 311.16353 
L 228.76966 310.749215 
L 236.169867 304.629706 
L 243.816748 314.261303 
L 251.216955 308.183442 
L 258.863836 317.907841 
L 266.510716 313.38112 
L 273.417576 305.003329 
L 281.064457 319.187392 
L 288.464664 309.070815 
L 296.111545 303.480342 
L 303.511752 309.025127 
L 311.158633 316.374177 
L 318.805514 313.282159 
L 326.205721 324.429979 
L 333.852601 315.403904 
L 341.252809 324.808619 
L 348.899689 329.258313 
L 356.54657 319.942394 
L 363.45343 311.609866 
L 371.100311 318.745959 
L 378.500518 326.800637 
L 386.147399 324.647608 
L 393.547606 323.613173 
L 401.194486 331.668894 
L 408.841367 327.312993 
L 416.241574 330.839146 
L 423.888455 323.813337 
L 431.288662 321.577733 
L 438.935543 318.591196 
L 446.582424 325.11948 
L 453.735957 308.50911 
L 461.382838 310.282581 
L 468.783045 316.65892 
L 476.429926 326.894411 
L 483.830133 323.448771 
L 491.477014 312.661048 
L 499.123895 319.894899 
L 506.524102 326.996189 
L 514.170982 317.946535 
L 521.57119 319.839144 
L 529.21807 322.629555 
L 536.864951 326.516654 
L 543.771811 309.932146 
L 551.418692 316.216426 
L 558.818899 325.720303 
L 566.46578 329.975127 
L 573.865987 332.779992 
L 581.512868 333.020455 
L 589.159748 331.835445 
L 596.559955 326.39568 
L 604.206836 324.195497 
L 611.607043 323.552218 
L 619.253924 332.526409 
L 626.900805 312.512073 
L 633.807665 316.70002 
L 641.454545 324.678586 
" clip-path="url(#p2c02b4b7c5)" style="fill: none; stroke: #f7931a; stroke-width: 1.1; stroke-linecap: square"/>
   </g>
   <g id="line2d_55">
    <path d="M 78.545455 307.750836 
L 86.192335 302.297612 
L 93.345869 279.240149 
L 100.99275 284.154661 
L 108.392957 298.012366 
L 116.039837 304.607649 
L 123.440045 319.828521 
L 131.086925 304.926195 
L 138.733806 288.134746 
L 146.134013 310.694903 
L 153.780894 309.482991 
L 161.181101 294.074915 
L 168.827982 286.23885 
L 176.474863 278.528715 
L 183.381723 290.972756 
L 191.028603 299.523406 
L 198.42881 277.691029 
L 206.075691 270.429545 
L 213.475898 290.979634 
L 221.122779 302.685157 
L 228.76966 292.888844 
L 236.169867 296.070414 
L 243.816748 306.439841 
L 251.216955 298.240796 
L 258.863836 308.502246 
L 266.510716 299.21277 
L 273.417576 299.326782 
L 281.064457 314.595305 
L 288.464664 298.457592 
L 296.111545 287.022543 
L 303.511752 286.694501 
L 311.158633 292.701462 
L 318.805514 295.961374 
L 326.205721 312.619873 
L 333.852601 297.93465 
L 341.252809 310.288209 
L 348.899689 323.365929 
L 356.54657 315.412018 
L 363.45343 313.73376 
L 371.100311 316.807704 
L 378.500518 321.198455 
L 386.147399 325.17947 
L 393.547606 318.566693 
L 401.194486 330.3764 
L 408.841367 329.415981 
L 416.241574 329.059068 
L 423.888455 319.547444 
L 431.288662 317.897892 
L 438.935543 313.798784 
L 446.582424 321.986357 
L 453.735957 313.579533 
L 461.382838 302.327303 
L 468.783045 313.288446 
L 476.429926 320.380305 
L 483.830133 319.767254 
L 491.477014 302.174975 
L 499.123895 311.455467 
L 506.524102 320.413916 
L 514.170982 308.288938 
L 521.57119 305.449182 
L 529.21807 310.975752 
L 536.864951 309.527215 
L 543.771811 294.039387 
L 551.418692 297.873163 
L 558.818899 303.877161 
L 566.46578 310.886093 
L 573.865987 313.258864 
L 581.512868 306.371253 
L 589.159748 308.377104 
L 596.559955 307.110795 
L 604.206836 305.940414 
L 611.607043 309.607782 
L 619.253924 321.059035 
L 626.900805 294.227228 
L 633.807665 304.348122 
L 641.454545 314.098213 
" clip-path="url(#p2c02b4b7c5)" style="fill: none; stroke: #627eea; stroke-width: 1.1; stroke-linecap: square"/>
   </g>
   <g id="line2d_56">
    <path d="M 335.579316 336.15 
L 335.579316 267.3 
" clip-path="url(#p2c02b4b7c5)" style="fill: none; stroke-dasharray: 1,1.65; stroke-dashoffset: 0; stroke: #dc2626; stroke-opacity: 0.55"/>
   </g>
   <g id="line2d_57">
    <path d="M 365.673492 336.15 
L 365.673492 267.3 
" clip-path="url(#p2c02b4b7c5)" style="fill: none; stroke-dasharray: 1,1.65; stroke-dashoffset: 0; stroke: #d97706; stroke-opacity: 0.55"/>
   </g>
   <g id="line2d_58">
    <path d="M 441.402279 336.15 
L 441.402279 267.3 
" clip-path="url(#p2c02b4b7c5)" style="fill: none; stroke-dasharray: 1,1.65; stroke-dashoffset: 0; stroke: #0f766e; stroke-opacity: 0.55"/>
   </g>
   <g id="line2d_59">
    <path d="M 466.069636 336.15 
L 466.069636 267.3 
" clip-path="url(#p2c02b4b7c5)" style="fill: none; stroke-dasharray: 1,1.65; stroke-dashoffset: 0; stroke: #7c3aed; stroke-opacity: 0.55"/>
   </g>
   <g id="line2d_60">
    <path d="M 489.256952 336.15 
L 489.256952 267.3 
" clip-path="url(#p2c02b4b7c5)" style="fill: none; stroke-dasharray: 1,1.65; stroke-dashoffset: 0; stroke: #627eea; stroke-opacity: 0.55"/>
   </g>
   <g id="text_33">
    <!-- FTX -->
    <g style="fill: #dc2626; opacity: 0.95" transform="translate(333.969316 282.671469) rotate(-90) scale(0.07 -0.07)">
     <use xlink:href="#SegoeUI-46"/>
     <use xlink:href="#SegoeUI-54" transform="translate(49.453125 0)"/>
     <use xlink:href="#SegoeUI-58" transform="translate(101.595703 0)"/>
    </g>
   </g>
   <g id="text_34">
    <!-- SVB -->
    <g style="fill: #d97706; opacity: 0.95" transform="translate(364.063492 283.510375) rotate(-90) scale(0.07 -0.07)">
     <use xlink:href="#SegoeUI-53"/>
     <use xlink:href="#SegoeUI-56" transform="translate(53.125 0)"/>
     <use xlink:href="#SegoeUI-42" transform="translate(115.234375 0)"/>
    </g>
   </g>
   <g id="text_35">
    <!-- BTC ETF -->
    <g style="fill: #0f766e; opacity: 0.95" transform="translate(439.792279 295.377562) rotate(-90) scale(0.07 -0.07)">
     <use xlink:href="#SegoeUI-42"/>
     <use xlink:href="#SegoeUI-54" transform="translate(52.824219 0)"/>
     <use xlink:href="#SegoeUI-43" transform="translate(100.716797 0)"/>
     <use xlink:href="#SegoeUI-20" transform="translate(162.630859 0)"/>
     <use xlink:href="#SegoeUI-45" transform="translate(190.023438 0)"/>
     <use xlink:href="#SegoeUI-54" transform="translate(240.859375 0)"/>
     <use xlink:href="#SegoeUI-46" transform="translate(293.251953 0)"/>
    </g>
   </g>
   <g id="text_36">
    <!-- Halving -->
    <g style="fill: #7c3aed; opacity: 0.95" transform="translate(464.422448 294.790219) rotate(-90) scale(0.07 -0.07)">
     <use xlink:href="#SegoeUI-48"/>
     <use xlink:href="#SegoeUI-61" transform="translate(70.996094 0)"/>
     <use xlink:href="#SegoeUI-6c" transform="translate(121.875 0)"/>
     <use xlink:href="#SegoeUI-76" transform="translate(146.09375 0)"/>
     <use xlink:href="#SegoeUI-69" transform="translate(193.994141 0)"/>
     <use xlink:href="#SegoeUI-6e" transform="translate(218.212891 0)"/>
     <use xlink:href="#SegoeUI-67" transform="translate(274.804688 0)"/>
    </g>
   </g>
   <g id="text_37">
    <!-- ETH ETF -->
    <g style="fill: #627eea; opacity: 0.95" transform="translate(487.646952 296.189125) rotate(-90) scale(0.07 -0.07)">
     <use xlink:href="#SegoeUI-45"/>
     <use xlink:href="#SegoeUI-54" transform="translate(50.835938 0)"/>
     <use xlink:href="#SegoeUI-48" transform="translate(103.228516 0)"/>
     <use xlink:href="#SegoeUI-20" transform="translate(174.224609 0)"/>
     <use xlink:href="#SegoeUI-45" transform="translate(201.617188 0)"/>
     <use xlink:href="#SegoeUI-54" transform="translate(252.453125 0)"/>
     <use xlink:href="#SegoeUI-46" transform="translate(304.845703 0)"/>
    </g>
   </g>
   <g id="legend_2">
    <g id="line2d_61">
     <path d="M 57.6 277.6225 
L 65.6 277.6225 
L 73.6 277.6225 
" style="fill: none; stroke: #f7931a; stroke-width: 1.1; stroke-linecap: square"/>
    </g>
    <g id="text_38">
     <!-- BTC RV -->
     <g style="fill: #6b7280" transform="translate(80 280.4225) scale(0.08 -0.08)">
      <use xlink:href="#SegoeUI-42"/>
      <use xlink:href="#SegoeUI-54" transform="translate(52.824219 0)"/>
      <use xlink:href="#SegoeUI-43" transform="translate(100.716797 0)"/>
      <use xlink:href="#SegoeUI-20" transform="translate(162.630859 0)"/>
      <use xlink:href="#SegoeUI-52" transform="translate(190.023438 0)"/>
      <use xlink:href="#SegoeUI-56" transform="translate(249.837891 0)"/>
     </g>
    </g>
    <g id="line2d_62">
     <path d="M 120.95625 277.6225 
L 128.95625 277.6225 
L 136.95625 277.6225 
" style="fill: none; stroke: #627eea; stroke-width: 1.1; stroke-linecap: square"/>
    </g>
    <g id="text_39">
     <!-- ETH RV -->
     <g style="fill: #6b7280" transform="translate(143.35625 280.4225) scale(0.08 -0.08)">
      <use xlink:href="#SegoeUI-45"/>
      <use xlink:href="#SegoeUI-54" transform="translate(50.835938 0)"/>
      <use xlink:href="#SegoeUI-48" transform="translate(103.228516 0)"/>
      <use xlink:href="#SegoeUI-20" transform="translate(174.224609 0)"/>
      <use xlink:href="#SegoeUI-52" transform="translate(201.617188 0)"/>
      <use xlink:href="#SegoeUI-56" transform="translate(261.431641 0)"/>
     </g>
    </g>
   </g>
  </g>
  <g id="text_40">
   <!-- Stablecoins and TVL -->
   <g style="fill: #111827" transform="translate(39.6 39.650625) scale(0.18 -0.18)">
    <defs>
     <path id="SegoeUI-Semibold-53" d="M 347 178 
L 347 944 
Q 450 850 592 775 
Q 734 700 893 648 
Q 1053 597 1212 569 
Q 1372 541 1506 541 
Q 1975 541 2204 697 
Q 2434 853 2434 1150 
Q 2434 1309 2357 1426 
Q 2281 1544 2143 1641 
Q 2006 1738 1820 1827 
Q 1634 1916 1422 2013 
Q 1194 2134 997 2259 
Q 800 2384 654 2536 
Q 509 2688 426 2878 
Q 344 3069 344 3325 
Q 344 3641 486 3873 
Q 628 4106 861 4257 
Q 1094 4409 1391 4482 
Q 1688 4556 1997 4556 
Q 2700 4556 3022 4397 
L 3022 3663 
Q 2641 3938 2041 3938 
Q 1875 3938 1711 3906 
Q 1547 3875 1417 3803 
Q 1288 3731 1206 3618 
Q 1125 3506 1125 3347 
Q 1125 3197 1187 3087 
Q 1250 2978 1370 2887 
Q 1491 2797 1664 2711 
Q 1838 2625 2066 2525 
Q 2300 2403 2508 2268 
Q 2716 2134 2873 1971 
Q 3031 1809 3123 1611 
Q 3216 1413 3216 1159 
Q 3216 819 3078 584 
Q 2941 350 2708 203 
Q 2475 56 2172 -9 
Q 1869 -75 1531 -75 
Q 1419 -75 1255 -58 
Q 1091 -41 919 -8 
Q 747 25 594 72 
Q 441 119 347 178 
z
" transform="scale(0.015625)"/>
     <path id="SegoeUI-Semibold-74" d="M 2159 34 
Q 1947 -72 1600 -72 
Q 669 -72 669 822 
L 669 2631 
L 134 2631 
L 134 3200 
L 669 3200 
L 669 3941 
L 1394 4147 
L 1394 3200 
L 2159 3200 
L 2159 2631 
L 1394 2631 
L 1394 1031 
Q 1394 747 1497 625 
Q 1600 503 1841 503 
Q 2025 503 2159 609 
L 2159 34 
z
" transform="scale(0.015625)"/>
     <path id="SegoeUI-Semibold-61" d="M 2928 0 
L 2225 0 
L 2225 500 
L 2213 500 
Q 1881 -75 1241 -75 
Q 769 -75 501 181 
Q 234 438 234 859 
Q 234 1766 1278 1916 
L 2228 2050 
Q 2228 2734 1578 2734 
Q 1006 2734 547 2341 
L 547 2975 
Q 1053 3275 1716 3275 
Q 2928 3275 2928 2081 
L 2928 0 
z
M 2228 1572 
L 1556 1478 
Q 1244 1438 1086 1327 
Q 928 1216 928 938 
Q 928 734 1073 604 
Q 1219 475 1463 475 
Q 1794 475 2011 708 
Q 2228 941 2228 1294 
L 2228 1572 
z
" transform="scale(0.015625)"/>
     <path id="SegoeUI-Semibold-62" d="M 1209 463 
L 1197 463 
L 1197 0 
L 472 0 
L 472 4738 
L 1197 4738 
L 1197 2638 
L 1209 2638 
Q 1581 3275 2297 3275 
Q 2903 3275 3245 2845 
Q 3588 2416 3588 1694 
Q 3588 891 3203 408 
Q 2819 -75 2153 -75 
Q 1528 -75 1209 463 
z
M 1191 1734 
L 1191 1338 
Q 1191 988 1414 744 
Q 1638 500 1981 500 
Q 2384 500 2614 814 
Q 2844 1128 2844 1691 
Q 2844 2163 2630 2430 
Q 2416 2697 2050 2697 
Q 1663 2697 1427 2422 
Q 1191 2147 1191 1734 
z
" transform="scale(0.015625)"/>
     <path id="SegoeUI-Semibold-6c" d="M 1200 0 
L 472 0 
L 472 4738 
L 1200 4738 
L 1200 0 
z
" transform="scale(0.015625)"/>
     <path id="SegoeUI-Semibold-65" d="M 3181 1403 
L 1000 1403 
Q 1013 959 1273 718 
Q 1534 478 1991 478 
Q 2503 478 2931 784 
L 2931 200 
Q 2494 -75 1775 -75 
Q 1069 -75 667 361 
Q 266 797 266 1588 
Q 266 2334 708 2804 
Q 1150 3275 1806 3275 
Q 2463 3275 2822 2853 
Q 3181 2431 3181 1681 
L 3181 1403 
z
M 2481 1916 
Q 2478 2306 2297 2523 
Q 2116 2741 1797 2741 
Q 1484 2741 1267 2512 
Q 1050 2284 1000 1916 
L 2481 1916 
z
" transform="scale(0.015625)"/>
     <path id="SegoeUI-Semibold-63" d="M 2763 147 
Q 2378 -75 1853 -75 
Q 1141 -75 703 370 
Q 266 816 266 1525 
Q 266 2316 736 2795 
Q 1206 3275 1994 3275 
Q 2431 3275 2766 3122 
L 2766 2447 
Q 2431 2697 2053 2697 
Q 1594 2697 1300 2386 
Q 1006 2075 1006 1572 
Q 1006 1075 1282 787 
Q 1559 500 2025 500 
Q 2416 500 2763 778 
L 2763 147 
z
" transform="scale(0.015625)"/>
     <path id="SegoeUI-Semibold-6f" d="M 1891 -75 
Q 1150 -75 708 373 
Q 266 822 266 1563 
Q 266 2369 727 2822 
Q 1188 3275 1969 3275 
Q 2719 3275 3137 2834 
Q 3556 2394 3556 1613 
Q 3556 847 3104 386 
Q 2653 -75 1891 -75 
z
M 1925 2697 
Q 1500 2697 1253 2400 
Q 1006 2103 1006 1581 
Q 1006 1078 1256 789 
Q 1506 500 1925 500 
Q 2353 500 2583 784 
Q 2813 1069 2813 1594 
Q 2813 2122 2583 2409 
Q 2353 2697 1925 2697 
z
" transform="scale(0.015625)"/>
     <path id="SegoeUI-Semibold-69" d="M 838 3872 
Q 659 3872 532 3987 
Q 406 4103 406 4281 
Q 406 4459 532 4578 
Q 659 4697 838 4697 
Q 1022 4697 1150 4578 
Q 1278 4459 1278 4281 
Q 1278 4113 1150 3992 
Q 1022 3872 838 3872 
z
M 1197 0 
L 472 0 
L 472 3200 
L 1197 3200 
L 1197 0 
z
" transform="scale(0.015625)"/>
     <path id="SegoeUI-Semibold-6e" d="M 3322 0 
L 2597 0 
L 2597 1803 
Q 2597 2700 1963 2700 
Q 1631 2700 1415 2451 
Q 1200 2203 1200 1825 
L 1200 0 
L 472 0 
L 472 3200 
L 1200 3200 
L 1200 2669 
L 1213 2669 
Q 1572 3275 2250 3275 
Q 2772 3275 3047 2936 
Q 3322 2597 3322 1956 
L 3322 0 
z
" transform="scale(0.015625)"/>
     <path id="SegoeUI-Semibold-73" d="M 272 100 
L 272 772 
Q 678 463 1169 463 
Q 1825 463 1825 850 
Q 1825 959 1769 1036 
Q 1713 1113 1617 1172 
Q 1522 1231 1392 1278 
Q 1263 1325 1103 1384 
Q 906 1463 748 1550 
Q 591 1638 486 1748 
Q 381 1859 328 2000 
Q 275 2141 275 2328 
Q 275 2559 384 2736 
Q 494 2913 678 3033 
Q 863 3153 1097 3214 
Q 1331 3275 1581 3275 
Q 2025 3275 2375 3141 
L 2375 2506 
Q 2038 2738 1600 2738 
Q 1463 2738 1352 2709 
Q 1241 2681 1162 2631 
Q 1084 2581 1040 2511 
Q 997 2441 997 2356 
Q 997 2253 1040 2181 
Q 1084 2109 1170 2054 
Q 1256 2000 1376 1954 
Q 1497 1909 1653 1856 
Q 1859 1772 2023 1684 
Q 2188 1597 2303 1486 
Q 2419 1375 2481 1229 
Q 2544 1084 2544 884 
Q 2544 641 2431 459 
Q 2319 278 2131 159 
Q 1944 41 1698 -17 
Q 1453 -75 1181 -75 
Q 656 -75 272 100 
z
" transform="scale(0.015625)"/>
     <path id="SegoeUI-Semibold-20" transform="scale(0.015625)"/>
     <path id="SegoeUI-Semibold-64" d="M 3381 0 
L 2656 0 
L 2656 544 
L 2644 544 
Q 2294 -75 1566 -75 
Q 975 -75 620 354 
Q 266 784 266 1525 
Q 266 2319 658 2797 
Q 1050 3275 1703 3275 
Q 2350 3275 2644 2756 
L 2656 2756 
L 2656 4738 
L 3381 4738 
L 3381 0 
z
M 2666 1463 
L 2666 1881 
Q 2666 2222 2444 2459 
Q 2222 2697 1878 2697 
Q 1472 2697 1239 2394 
Q 1006 2091 1006 1553 
Q 1006 1066 1229 783 
Q 1453 500 1831 500 
Q 2203 500 2434 773 
Q 2666 1047 2666 1463 
z
" transform="scale(0.015625)"/>
     <path id="SegoeUI-Semibold-54" d="M 3428 3850 
L 2141 3850 
L 2141 0 
L 1397 0 
L 1397 3850 
L 113 3850 
L 113 4481 
L 3428 4481 
L 3428 3850 
z
" transform="scale(0.015625)"/>
     <path id="SegoeUI-Semibold-56" d="M 4066 4481 
L 2456 0 
L 1625 0 
L 44 4481 
L 856 4481 
L 1963 1081 
Q 2016 919 2044 703 
L 2056 703 
Q 2078 881 2147 1088 
L 3278 4481 
L 4066 4481 
z
" transform="scale(0.015625)"/>
     <path id="SegoeUI-Semibold-4c" d="M 3034 0 
L 553 0 
L 553 4481 
L 1297 4481 
L 1297 628 
L 3034 628 
L 3034 0 
z
" transform="scale(0.015625)"/>
    </defs>
    <use xlink:href="#SegoeUI-Semibold-53"/>
    <use xlink:href="#SegoeUI-Semibold-74" transform="translate(51.568359 0)"/>
    <use xlink:href="#SegoeUI-Semibold-61" transform="translate(87.701172 0)"/>
    <use xlink:href="#SegoeUI-Semibold-62" transform="translate(139.898438 0)"/>
    <use xlink:href="#SegoeUI-Semibold-6c" transform="translate(200.152344 0)"/>
    <use xlink:href="#SegoeUI-Semibold-65" transform="translate(226.275391 0)"/>
    <use xlink:href="#SegoeUI-Semibold-63" transform="translate(279.400391 0)"/>
    <use xlink:href="#SegoeUI-Semibold-6f" transform="translate(326.421875 0)"/>
    <use xlink:href="#SegoeUI-Semibold-69" transform="translate(386.138672 0)"/>
    <use xlink:href="#SegoeUI-Semibold-6e" transform="translate(412.261719 0)"/>
    <use xlink:href="#SegoeUI-Semibold-73" transform="translate(470.611328 0)"/>
    <use xlink:href="#SegoeUI-Semibold-20" transform="translate(513.726562 0)"/>
    <use xlink:href="#SegoeUI-Semibold-61" transform="translate(541.216797 0)"/>
    <use xlink:href="#SegoeUI-Semibold-6e" transform="translate(593.414062 0)"/>
    <use xlink:href="#SegoeUI-Semibold-64" transform="translate(651.763672 0)"/>
    <use xlink:href="#SegoeUI-Semibold-20" transform="translate(712.017578 0)"/>
    <use xlink:href="#SegoeUI-Semibold-54" transform="translate(739.507812 0)"/>
    <use xlink:href="#SegoeUI-Semibold-56" transform="translate(797.183594 0)"/>
    <use xlink:href="#SegoeUI-Semibold-4c" transform="translate(861.34375 0)"/>
   </g>
  </g>
 </g>
 <defs>
  <clipPath id="pa9e8caba67">
   <rect x="50.4" y="101.25" width="619.2" height="133.65"/>
  </clipPath>
  <clipPath id="p2c02b4b7c5">
   <rect x="50.4" y="267.3" width="619.2" height="68.85"/>
  </clipPath>
 </defs>
</svg>
