<?xml version="1.0" encoding="utf-8" standalone="no"?>
<!DOCTYPE svg PUBLIC "-//W3C//DTD SVG 1.1//EN"
  "http://www.w3.org/Graphics/SVG/1.1/DTD/svg11.dtd">
<svg xmlns:xlink="http://www.w3.org/1999/xlink" width="720pt" height="504pt" viewBox="0 0 720 504" xmlns="http://www.w3.org/2000/svg" version="1.1">
 <metadata>
  <rdf:RDF xmlns:dc="http://purl.org/dc/elements/1.1/" xmlns:cc="http://creativecommons.org/ns#" xmlns:rdf="http://www.w3.org/1999/02/22-rdf-syntax-ns#">
   <cc:Work>
    <dc:type rdf:resource="http://purl.org/dc/dcmitype/StillImage"/>
    <dc:date>2026-06-21T18:30:44.364012</dc:date>
    <dc:format>image/svg+xml</dc:format>
    <dc:creator>
     <cc:Agent>
      <dc:title>Matplotlib v3.10.8, https://matplotlib.org/</dc:title>
     </cc:Agent>
    </dc:creator>
   </cc:Work>
  </rdf:RDF>
 </metadata>
 <defs>
  <style type="text/css">*{stroke-linejoin: round; stroke-linecap: butt}</style>
 </defs>
 <g id="figure_1">
  <g id="patch_1">
   <path d="M 0 504 
L 720 504 
L 720 0 
L 0 0 
z
" style="fill: #ffffff"/>
  </g>
  <g id="axes_1">
   <g id="patch_2">
    <path d="M 61.285263 259.035263 
L 708.12 259.035263 
L 708.12 71.898947 
L 61.285263 71.898947 
z
" style="fill: #ffffff"/>
   </g>
   <g id="matplotlib.axis_1">
    <g id="xtick_1">
     <g id="line2d_1">
      <path d="M 90.686842 259.035263 
L 90.686842 71.898947 
" clip-path="url(#p032e8a5c72)" style="fill: none; stroke: #e8ebf2; stroke-width: 0.8; stroke-linecap: round"/>
     </g>
    </g>
    <g id="xtick_2">
     <g id="line2d_2">
      <path d="M 182.543248 259.035263 
L 182.543248 71.898947 
" clip-path="url(#p032e8a5c72)" style="fill: none; stroke: #e8ebf2; stroke-width: 0.8; stroke-linecap: round"/>
     </g>
    </g>
    <g id="xtick_3">
     <g id="line2d_3">
      <path d="M 274.148679 259.035263 
L 274.148679 71.898947 
" clip-path="url(#p032e8a5c72)" style="fill: none; stroke: #e8ebf2; stroke-width: 0.8; stroke-linecap: round"/>
     </g>
    </g>
    <g id="xtick_4">
     <g id="line2d_4">
      <path d="M 365.754111 259.035263 
L 365.754111 71.898947 
" clip-path="url(#p032e8a5c72)" style="fill: none; stroke: #e8ebf2; stroke-width: 0.8; stroke-linecap: round"/>
     </g>
    </g>
    <g id="xtick_5">
     <g id="line2d_5">
      <path d="M 457.359542 259.035263 
L 457.359542 71.898947 
" clip-path="url(#p032e8a5c72)" style="fill: none; stroke: #e8ebf2; stroke-width: 0.8; stroke-linecap: round"/>
     </g>
    </g>
    <g id="xtick_6">
     <g id="line2d_6">
      <path d="M 549.215948 259.035263 
L 549.215948 71.898947 
" clip-path="url(#p032e8a5c72)" style="fill: none; stroke: #e8ebf2; stroke-width: 0.8; stroke-linecap: round"/>
     </g>
    </g>
    <g id="xtick_7">
     <g id="line2d_7">
      <path d="M 640.821379 259.035263 
L 640.821379 71.898947 
" clip-path="url(#p032e8a5c72)" style="fill: none; stroke: #e8ebf2; stroke-width: 0.8; stroke-linecap: round"/>
     </g>
    </g>
   </g>
   <g id="matplotlib.axis_2">
    <g id="ytick_1">
     <g id="line2d_8">
      <path d="M 61.285263 247.90195 
L 708.12 247.90195 
" clip-path="url(#p032e8a5c72)" style="fill: none; stroke: #e8ebf2; stroke-opacity: 0.25; stroke-width: 0.8; stroke-linecap: round"/>
     </g>
     <g id="text_1">
      <!-- 0.20 -->
      <g style="fill: #6f768a" transform="translate(33.444638 251.603513) scale(0.1 -0.1)">
       <defs>
        <path id="SegoeUI-30" d="M 3188 2259 
Q 3188 1697 3086 1262 
Q 2984 828 2792 529 
Q 2600 231 2320 76 
Q 2041 -78 1684 -78 
Q 1347 -78 1083 70 
Q 819 219 637 503 
Q 456 788 362 1202 
Q 269 1616 269 2150 
Q 269 2738 367 3188 
Q 466 3638 656 3942 
Q 847 4247 1130 4401 
Q 1413 4556 1778 4556 
Q 3188 4556 3188 2259 
z
M 2663 2209 
Q 2663 4122 1753 4122 
Q 794 4122 794 2175 
Q 794 359 1734 359 
Q 2663 359 2663 2209 
z
" transform="scale(0.015625)"/>
        <path id="SegoeUI-2e" d="M 697 -69 
Q 553 -69 451 34 
Q 350 138 350 281 
Q 350 425 451 529 
Q 553 634 697 634 
Q 844 634 947 529 
Q 1050 425 1050 281 
Q 1050 138 947 34 
Q 844 -69 697 -69 
z
" transform="scale(0.015625)"/>
        <path id="SegoeUI-32" d="M 2413 3306 
Q 2413 3513 2348 3666 
Q 2284 3819 2173 3920 
Q 2063 4022 1913 4072 
Q 1763 4122 1588 4122 
Q 1438 4122 1294 4081 
Q 1150 4041 1014 3969 
Q 878 3897 751 3797 
Q 625 3697 516 3575 
L 516 4125 
Q 731 4334 998 4445 
Q 1266 4556 1650 4556 
Q 1925 4556 2159 4476 
Q 2394 4397 2566 4244 
Q 2738 4091 2836 3866 
Q 2934 3641 2934 3350 
Q 2934 3084 2873 2868 
Q 2813 2653 2689 2462 
Q 2566 2272 2378 2097 
Q 2191 1922 1938 1741 
Q 1622 1516 1417 1356 
Q 1213 1197 1092 1058 
Q 972 919 923 780 
Q 875 641 875 459 
L 3106 459 
L 3106 0 
L 341 0 
L 341 222 
Q 341 509 403 728 
Q 466 947 609 1144 
Q 753 1341 986 1537 
Q 1219 1734 1556 1981 
Q 1800 2156 1964 2315 
Q 2128 2475 2228 2634 
Q 2328 2794 2370 2958 
Q 2413 3122 2413 3306 
z
" transform="scale(0.015625)"/>
       </defs>
       <use xlink:href="#SegoeUI-30"/>
       <use xlink:href="#SegoeUI-2e" transform="translate(53.90625 0)"/>
       <use xlink:href="#SegoeUI-32" transform="translate(75.585938 0)"/>
       <use xlink:href="#SegoeUI-30" transform="translate(129.492188 0)"/>
      </g>
     </g>
    </g>
    <g id="ytick_2">
     <g id="line2d_9">
      <path d="M 61.285263 221.520241 
L 708.12 221.520241 
" clip-path="url(#p032e8a5c72)" style="fill: none; stroke: #e8ebf2; stroke-opacity: 0.25; stroke-width: 0.8; stroke-linecap: round"/>
     </g>
     <g id="text_2">
      <!-- 0.25 -->
      <g style="fill: #6f768a" transform="translate(33.444638 225.221804) scale(0.1 -0.1)">
       <defs>
        <path id="SegoeUI-35" d="M 3028 1369 
Q 3028 1041 2915 775 
Q 2803 509 2595 318 
Q 2388 128 2094 25 
Q 1800 -78 1441 -78 
Q 816 -78 513 109 
L 513 653 
Q 969 359 1447 359 
Q 1691 359 1886 431 
Q 2081 503 2218 631 
Q 2356 759 2429 940 
Q 2503 1122 2503 1338 
Q 2503 1775 2209 2023 
Q 1916 2272 1356 2272 
Q 1266 2272 1166 2269 
Q 1066 2266 966 2261 
Q 866 2256 770 2250 
Q 675 2244 597 2234 
L 750 4481 
L 2822 4481 
L 2822 4019 
L 1194 4019 
L 1103 2703 
Q 1203 2709 1315 2714 
Q 1428 2719 1516 2719 
Q 1872 2719 2153 2625 
Q 2434 2531 2629 2357 
Q 2825 2184 2926 1932 
Q 3028 1681 3028 1369 
z
" transform="scale(0.015625)"/>
       </defs>
       <use xlink:href="#SegoeUI-30"/>
       <use xlink:href="#SegoeUI-2e" transform="translate(53.90625 0)"/>
       <use xlink:href="#SegoeUI-32" transform="translate(75.585938 0)"/>
       <use xlink:href="#SegoeUI-35" transform="translate(129.492188 0)"/>
      </g>
     </g>
    </g>
    <g id="ytick_3">
     <g id="line2d_10">
      <path d="M 61.285263 195.138532 
L 708.12 195.138532 
" clip-path="url(#p032e8a5c72)" style="fill: none; stroke: #e8ebf2; stroke-opacity: 0.25; stroke-width: 0.8; stroke-linecap: round"/>
     </g>
     <g id="text_3">
      <!-- 0.30 -->
      <g style="fill: #6f768a" transform="translate(33.444638 198.840095) scale(0.1 -0.1)">
       <defs>
        <path id="SegoeUI-33" d="M 2978 1269 
Q 2978 966 2864 717 
Q 2750 469 2542 292 
Q 2334 116 2043 19 
Q 1753 -78 1403 -78 
Q 763 -78 384 166 
L 384 716 
Q 838 359 1422 359 
Q 1656 359 1845 418 
Q 2034 478 2170 590 
Q 2306 703 2379 862 
Q 2453 1022 2453 1222 
Q 2453 2100 1203 2100 
L 831 2100 
L 831 2534 
L 1184 2534 
Q 2291 2534 2291 3359 
Q 2291 4122 1447 4122 
Q 972 4122 556 3803 
L 556 4300 
Q 984 4556 1575 4556 
Q 1856 4556 2084 4478 
Q 2313 4400 2475 4259 
Q 2638 4119 2727 3922 
Q 2816 3725 2816 3488 
Q 2816 2603 1922 2350 
L 1922 2338 
Q 2150 2313 2344 2227 
Q 2538 2141 2678 2003 
Q 2819 1866 2898 1680 
Q 2978 1494 2978 1269 
z
" transform="scale(0.015625)"/>
       </defs>
       <use xlink:href="#SegoeUI-30"/>
       <use xlink:href="#SegoeUI-2e" transform="translate(53.90625 0)"/>
       <use xlink:href="#SegoeUI-33" transform="translate(75.585938 0)"/>
       <use xlink:href="#SegoeUI-30" transform="translate(129.492188 0)"/>
      </g>
     </g>
    </g>
    <g id="ytick_4">
     <g id="line2d_11">
      <path d="M 61.285263 168.756823 
L 708.12 168.756823 
" clip-path="url(#p032e8a5c72)" style="fill: none; stroke: #e8ebf2; stroke-opacity: 0.25; stroke-width: 0.8; stroke-linecap: round"/>
     </g>
     <g id="text_4">
      <!-- 0.35 -->
      <g style="fill: #6f768a" transform="translate(33.444638 172.458385) scale(0.1 -0.1)">
       <use xlink:href="#SegoeUI-30"/>
       <use xlink:href="#SegoeUI-2e" transform="translate(53.90625 0)"/>
       <use xlink:href="#SegoeUI-33" transform="translate(75.585938 0)"/>
       <use xlink:href="#SegoeUI-35" transform="translate(129.492188 0)"/>
      </g>
     </g>
    </g>
    <g id="ytick_5">
     <g id="line2d_12">
      <path d="M 61.285263 142.375114 
L 708.12 142.375114 
" clip-path="url(#p032e8a5c72)" style="fill: none; stroke: #e8ebf2; stroke-opacity: 0.25; stroke-width: 0.8; stroke-linecap: round"/>
     </g>
     <g id="text_5">
      <!-- 0.40 -->
      <g style="fill: #6f768a" transform="translate(33.444638 146.076676) scale(0.1 -0.1)">
       <defs>
        <path id="SegoeUI-34" d="M 2656 4481 
L 2656 1522 
L 3231 1522 
L 3231 1053 
L 2656 1053 
L 2656 0 
L 2150 0 
L 2150 1053 
L 44 1053 
L 44 1497 
Q 338 1828 638 2204 
Q 938 2581 1211 2968 
Q 1484 3356 1717 3742 
Q 1950 4128 2109 4481 
L 2656 4481 
z
M 622 1522 
L 2150 1522 
L 2150 3716 
Q 1916 3306 1706 2984 
Q 1497 2663 1308 2400 
Q 1119 2138 947 1925 
Q 775 1713 622 1522 
z
" transform="scale(0.015625)"/>
       </defs>
       <use xlink:href="#SegoeUI-30"/>
       <use xlink:href="#SegoeUI-2e" transform="translate(53.90625 0)"/>
       <use xlink:href="#SegoeUI-34" transform="translate(75.585938 0)"/>
       <use xlink:href="#SegoeUI-30" transform="translate(129.492188 0)"/>
      </g>
     </g>
    </g>
    <g id="ytick_6">
     <g id="line2d_13">
      <path d="M 61.285263 115.993404 
L 708.12 115.993404 
" clip-path="url(#p032e8a5c72)" style="fill: none; stroke: #e8ebf2; stroke-opacity: 0.25; stroke-width: 0.8; stroke-linecap: round"/>
     </g>
     <g id="text_6">
      <!-- 0.45 -->
      <g style="fill: #6f768a" transform="translate(33.444638 119.694967) scale(0.1 -0.1)">
       <use xlink:href="#SegoeUI-30"/>
       <use xlink:href="#SegoeUI-2e" transform="translate(53.90625 0)"/>
       <use xlink:href="#SegoeUI-34" transform="translate(75.585938 0)"/>
       <use xlink:href="#SegoeUI-35" transform="translate(129.492188 0)"/>
      </g>
     </g>
    </g>
    <g id="ytick_7">
     <g id="line2d_14">
      <path d="M 61.285263 89.611695 
L 708.12 89.611695 
" clip-path="url(#p032e8a5c72)" style="fill: none; stroke: #e8ebf2; stroke-opacity: 0.25; stroke-width: 0.8; stroke-linecap: round"/>
     </g>
     <g id="text_7">
      <!-- 0.50 -->
      <g style="fill: #6f768a" transform="translate(33.444638 93.313258) scale(0.1 -0.1)">
       <use xlink:href="#SegoeUI-30"/>
       <use xlink:href="#SegoeUI-2e" transform="translate(53.90625 0)"/>
       <use xlink:href="#SegoeUI-35" transform="translate(75.585938 0)"/>
       <use xlink:href="#SegoeUI-30" transform="translate(129.492188 0)"/>
      </g>
     </g>
    </g>
    <g id="text_8">
     <!-- HHI -->
     <g style="fill: #1f2430" transform="translate(26.684638 175.583668) rotate(-90) scale(0.12 -0.12)">
      <defs>
       <path id="SegoeUI-48" d="M 3956 0 
L 3431 0 
L 3431 2044 
L 1113 2044 
L 1113 0 
L 588 0 
L 588 4481 
L 1113 4481 
L 1113 2516 
L 3431 2516 
L 3431 4481 
L 3956 4481 
L 3956 0 
z
" transform="scale(0.015625)"/>
       <path id="SegoeUI-49" d="M 1113 0 
L 588 0 
L 588 4481 
L 1113 4481 
L 1113 0 
z
" transform="scale(0.015625)"/>
      </defs>
      <use xlink:href="#SegoeUI-48"/>
      <use xlink:href="#SegoeUI-48" transform="translate(70.996094 0)"/>
      <use xlink:href="#SegoeUI-49" transform="translate(141.992188 0)"/>
     </g>
    </g>
   </g>
   <g id="line2d_15">
    <path d="M 90.686842 108.399035 
L 98.467029 122.42243 
L 105.745269 111.19435 
L 113.525457 119.451753 
L 121.05467 115.649574 
L 128.834857 120.362065 
L 136.364071 135.105554 
L 144.144258 166.576819 
L 151.924446 160.121001 
L 159.453659 128.376663 
L 167.233847 136.646924 
L 174.76306 80.405144 
L 182.543248 128.339514 
L 190.323435 143.789527 
L 197.350701 148.310723 
L 205.130888 209.404919 
L 212.660102 229.802939 
L 220.440289 216.956657 
L 227.969503 206.510916 
L 235.74969 228.011849 
L 243.529877 233.165326 
L 251.059091 222.767185 
L 258.839278 232.232354 
L 266.368492 239.623344 
L 274.148679 235.384593 
L 281.928867 235.446639 
L 288.956132 234.693121 
L 296.73632 234.287149 
L 304.265533 217.413816 
L 312.045721 235.286253 
L 319.574934 236.351477 
L 327.355122 244.02244 
L 335.135309 245.176402 
L 342.664523 244.892197 
L 350.44471 250.529067 
L 357.973923 241.029531 
L 365.754111 230.52793 
L 373.534298 231.333867 
L 380.561564 211.906377 
L 388.341751 208.830921 
L 395.870965 210.901414 
L 403.651152 192.71582 
L 411.180366 204.60048 
L 418.960553 201.227715 
L 426.740741 201.368595 
L 434.269954 183.765707 
L 442.050142 188.06135 
L 449.579355 198.462045 
L 457.359542 193.918149 
L 465.13973 178.000541 
L 472.41797 187.510219 
L 480.198157 181.564481 
L 487.72737 182.993582 
L 495.507558 182.709404 
L 503.036771 174.889414 
L 510.816959 173.623921 
L 518.597146 172.505717 
L 526.12636 159.121517 
L 533.906547 172.34294 
L 541.43576 172.802983 
L 549.215948 165.613027 
L 556.996135 157.886555 
L 564.023401 150.916606 
L 571.803589 137.134021 
L 579.332802 132.056651 
L 587.112989 132.144065 
L 594.642203 154.623386 
L 602.42239 173.688294 
L 610.202578 172.324083 
L 617.731791 166.619333 
L 625.511979 171.803725 
L 633.041192 170.921733 
L 640.821379 171.272696 
L 648.601567 179.760692 
L 655.628833 181.531223 
L 663.40902 169.069938 
L 670.938234 172.955175 
L 678.718421 177.399202 
" clip-path="url(#p032e8a5c72)" style="fill: none; stroke: #2f5d62; stroke-width: 2; stroke-linecap: round"/>
   </g>
   <g id="patch_3">
    <path d="M 61.285263 259.035263 
L 61.285263 71.898947 
" style="fill: none; stroke: #d7dbe7; stroke-width: 1.25; stroke-linejoin: miter; stroke-linecap: square"/>
   </g>
   <g id="patch_4">
    <path d="M 61.285263 259.035263 
L 708.12 259.035263 
" style="fill: none; stroke: #d7dbe7; stroke-width: 1.25; stroke-linejoin: miter; stroke-linecap: square"/>
   </g>
   <g id="text_9">
    <!-- Monthly point-in-time concentration -->
    <g style="fill: #1f2430" transform="translate(61.285263 65.898947) scale(0.12 -0.12)">
     <defs>
      <path id="SegoeUI-4d" d="M 5156 0 
L 4634 0 
L 4634 3006 
Q 4634 3363 4678 3878 
L 4666 3878 
Q 4591 3575 4531 3444 
L 3000 0 
L 2744 0 
L 1216 3419 
Q 1150 3569 1081 3878 
L 1069 3878 
Q 1094 3609 1094 3000 
L 1094 0 
L 588 0 
L 588 4481 
L 1281 4481 
L 2656 1356 
Q 2816 997 2863 819 
L 2881 819 
Q 3016 1188 3097 1369 
L 4500 4481 
L 5156 4481 
L 5156 0 
z
" transform="scale(0.015625)"/>
      <path id="SegoeUI-6f" d="M 1856 -75 
Q 1147 -75 723 373 
Q 300 822 300 1563 
Q 300 2369 740 2822 
Q 1181 3275 1931 3275 
Q 2647 3275 3048 2834 
Q 3450 2394 3450 1613 
Q 3450 847 3017 386 
Q 2584 -75 1856 -75 
z
M 1894 2844 
Q 1400 2844 1112 2508 
Q 825 2172 825 1581 
Q 825 1013 1115 684 
Q 1406 356 1894 356 
Q 2391 356 2658 678 
Q 2925 1000 2925 1594 
Q 2925 2194 2658 2519 
Q 2391 2844 1894 2844 
z
" transform="scale(0.015625)"/>
      <path id="SegoeUI-6e" d="M 3175 0 
L 2663 0 
L 2663 1825 
Q 2663 2844 1919 2844 
Q 1534 2844 1282 2555 
Q 1031 2266 1031 1825 
L 1031 0 
L 519 0 
L 519 3200 
L 1031 3200 
L 1031 2669 
L 1044 2669 
Q 1406 3275 2094 3275 
Q 2619 3275 2897 2936 
Q 3175 2597 3175 1956 
L 3175 0 
z
" transform="scale(0.015625)"/>
      <path id="SegoeUI-74" d="M 2003 31 
Q 1822 -69 1525 -69 
Q 684 -69 684 869 
L 684 2763 
L 134 2763 
L 134 3200 
L 684 3200 
L 684 3981 
L 1197 4147 
L 1197 3200 
L 2003 3200 
L 2003 2763 
L 1197 2763 
L 1197 959 
Q 1197 638 1306 500 
Q 1416 363 1669 363 
Q 1863 363 2003 469 
L 2003 31 
z
" transform="scale(0.015625)"/>
      <path id="SegoeUI-68" d="M 3175 0 
L 2663 0 
L 2663 1844 
Q 2663 2844 1919 2844 
Q 1544 2844 1287 2555 
Q 1031 2266 1031 1813 
L 1031 0 
L 519 0 
L 519 4738 
L 1031 4738 
L 1031 2669 
L 1044 2669 
Q 1413 3275 2094 3275 
Q 3175 3275 3175 1972 
L 3175 0 
z
" transform="scale(0.015625)"/>
      <path id="SegoeUI-6c" d="M 1031 0 
L 519 0 
L 519 4738 
L 1031 4738 
L 1031 0 
z
" transform="scale(0.015625)"/>
      <path id="SegoeUI-79" d="M 3066 3200 
L 1594 -513 
Q 1200 -1506 488 -1506 
Q 288 -1506 153 -1466 
L 153 -1006 
Q 319 -1063 456 -1063 
Q 844 -1063 1038 -600 
L 1294 6 
L 44 3200 
L 613 3200 
L 1478 738 
Q 1494 691 1544 494 
L 1563 494 
Q 1578 569 1625 731 
L 2534 3200 
L 3066 3200 
z
" transform="scale(0.015625)"/>
      <path id="SegoeUI-20" transform="scale(0.015625)"/>
      <path id="SegoeUI-70" d="M 1044 463 
L 1031 463 
L 1031 -1472 
L 519 -1472 
L 519 3200 
L 1031 3200 
L 1031 2638 
L 1044 2638 
Q 1422 3275 2150 3275 
Q 2769 3275 3116 2845 
Q 3463 2416 3463 1694 
Q 3463 891 3072 408 
Q 2681 -75 2003 -75 
Q 1381 -75 1044 463 
z
M 1031 1753 
L 1031 1306 
Q 1031 909 1289 632 
Q 1547 356 1944 356 
Q 2409 356 2673 712 
Q 2938 1069 2938 1703 
Q 2938 2238 2691 2541 
Q 2444 2844 2022 2844 
Q 1575 2844 1303 2533 
Q 1031 2222 1031 1753 
z
" transform="scale(0.015625)"/>
      <path id="SegoeUI-69" d="M 781 4013 
Q 644 4013 547 4106 
Q 450 4200 450 4344 
Q 450 4488 547 4583 
Q 644 4678 781 4678 
Q 922 4678 1020 4583 
Q 1119 4488 1119 4344 
Q 1119 4206 1020 4109 
Q 922 4013 781 4013 
z
M 1031 0 
L 519 0 
L 519 3200 
L 1031 3200 
L 1031 0 
z
" transform="scale(0.015625)"/>
      <path id="SegoeUI-2d" d="M 2156 1581 
L 450 1581 
L 450 1984 
L 2156 1984 
L 2156 1581 
z
" transform="scale(0.015625)"/>
      <path id="SegoeUI-6d" d="M 5063 0 
L 4550 0 
L 4550 1838 
Q 4550 2369 4386 2606 
Q 4222 2844 3834 2844 
Q 3506 2844 3276 2544 
Q 3047 2244 3047 1825 
L 3047 0 
L 2534 0 
L 2534 1900 
Q 2534 2844 1806 2844 
Q 1469 2844 1250 2561 
Q 1031 2278 1031 1825 
L 1031 0 
L 519 0 
L 519 3200 
L 1031 3200 
L 1031 2694 
L 1044 2694 
Q 1384 3275 2038 3275 
Q 2366 3275 2609 3092 
Q 2853 2909 2944 2613 
Q 3300 3275 4006 3275 
Q 5063 3275 5063 1972 
L 5063 0 
z
" transform="scale(0.015625)"/>
      <path id="SegoeUI-65" d="M 3091 1472 
L 831 1472 
Q 844 938 1119 647 
Q 1394 356 1875 356 
Q 2416 356 2869 713 
L 2869 231 
Q 2447 -75 1753 -75 
Q 1075 -75 687 361 
Q 300 797 300 1588 
Q 300 2334 723 2804 
Q 1147 3275 1775 3275 
Q 2403 3275 2747 2869 
Q 3091 2463 3091 1741 
L 3091 1472 
z
M 2566 1906 
Q 2563 2350 2352 2597 
Q 2141 2844 1766 2844 
Q 1403 2844 1150 2584 
Q 897 2325 838 1906 
L 2566 1906 
z
" transform="scale(0.015625)"/>
      <path id="SegoeUI-63" d="M 2700 147 
Q 2331 -75 1825 -75 
Q 1141 -75 720 370 
Q 300 816 300 1525 
Q 300 2316 753 2795 
Q 1206 3275 1963 3275 
Q 2384 3275 2706 3119 
L 2706 2594 
Q 2350 2844 1944 2844 
Q 1453 2844 1139 2492 
Q 825 2141 825 1569 
Q 825 1006 1120 681 
Q 1416 356 1913 356 
Q 2331 356 2700 634 
L 2700 147 
z
" transform="scale(0.015625)"/>
      <path id="SegoeUI-72" d="M 2188 2681 
Q 2053 2784 1800 2784 
Q 1472 2784 1251 2475 
Q 1031 2166 1031 1631 
L 1031 0 
L 519 0 
L 519 3200 
L 1031 3200 
L 1031 2541 
L 1044 2541 
Q 1153 2878 1378 3067 
Q 1603 3256 1881 3256 
Q 2081 3256 2188 3213 
L 2188 2681 
z
" transform="scale(0.015625)"/>
      <path id="SegoeUI-61" d="M 2809 0 
L 2297 0 
L 2297 500 
L 2284 500 
Q 1950 -75 1300 -75 
Q 822 -75 551 178 
Q 281 431 281 850 
Q 281 1747 1338 1894 
L 2297 2028 
Q 2297 2844 1638 2844 
Q 1059 2844 594 2450 
L 594 2975 
Q 1066 3275 1681 3275 
Q 2809 3275 2809 2081 
L 2809 0 
z
M 2297 1619 
L 1525 1513 
Q 1169 1463 987 1336 
Q 806 1209 806 888 
Q 806 653 973 504 
Q 1141 356 1419 356 
Q 1800 356 2048 623 
Q 2297 891 2297 1300 
L 2297 1619 
z
" transform="scale(0.015625)"/>
     </defs>
     <use xlink:href="#SegoeUI-4d"/>
     <use xlink:href="#SegoeUI-6f" transform="translate(89.794922 0)"/>
     <use xlink:href="#SegoeUI-6e" transform="translate(148.388672 0)"/>
     <use xlink:href="#SegoeUI-74" transform="translate(204.980469 0)"/>
     <use xlink:href="#SegoeUI-68" transform="translate(238.867188 0)"/>
     <use xlink:href="#SegoeUI-6c" transform="translate(295.458984 0)"/>
     <use xlink:href="#SegoeUI-79" transform="translate(319.677734 0)"/>
     <use xlink:href="#SegoeUI-20" transform="translate(368.066406 0)"/>
     <use xlink:href="#SegoeUI-70" transform="translate(395.458984 0)"/>
     <use xlink:href="#SegoeUI-6f" transform="translate(454.248047 0)"/>
     <use xlink:href="#SegoeUI-69" transform="translate(512.841797 0)"/>
     <use xlink:href="#SegoeUI-6e" transform="translate(537.060547 0)"/>
     <use xlink:href="#SegoeUI-74" transform="translate(593.652344 0)"/>
     <use xlink:href="#SegoeUI-2d" transform="translate(622.039062 0)"/>
     <use xlink:href="#SegoeUI-69" transform="translate(662.029297 0)"/>
     <use xlink:href="#SegoeUI-6e" transform="translate(686.248047 0)"/>
     <use xlink:href="#SegoeUI-2d" transform="translate(742.839844 0)"/>
     <use xlink:href="#SegoeUI-74" transform="translate(782.830078 0)"/>
     <use xlink:href="#SegoeUI-69" transform="translate(816.716797 0)"/>
     <use xlink:href="#SegoeUI-6d" transform="translate(840.935547 0)"/>
     <use xlink:href="#SegoeUI-65" transform="translate(927.068359 0)"/>
     <use xlink:href="#SegoeUI-20" transform="translate(979.363281 0)"/>
     <use xlink:href="#SegoeUI-63" transform="translate(1006.755859 0)"/>
     <use xlink:href="#SegoeUI-6f" transform="translate(1052.947266 0)"/>
     <use xlink:href="#SegoeUI-6e" transform="translate(1111.541016 0)"/>
     <use xlink:href="#SegoeUI-63" transform="translate(1168.132812 0)"/>
     <use xlink:href="#SegoeUI-65" transform="translate(1214.324219 0)"/>
     <use xlink:href="#SegoeUI-6e" transform="translate(1266.619141 0)"/>
     <use xlink:href="#SegoeUI-74" transform="translate(1323.210938 0)"/>
     <use xlink:href="#SegoeUI-72" transform="translate(1357.097656 0)"/>
     <use xlink:href="#SegoeUI-61" transform="translate(1391.863281 0)"/>
     <use xlink:href="#SegoeUI-74" transform="translate(1442.742188 0)"/>
     <use xlink:href="#SegoeUI-69" transform="translate(1476.628906 0)"/>
     <use xlink:href="#SegoeUI-6f" transform="translate(1500.847656 0)"/>
     <use xlink:href="#SegoeUI-6e" transform="translate(1559.441406 0)"/>
    </g>
   </g>
  </g>
  <g id="axes_2">
   <g id="patch_5">
    <path d="M 61.285263 473.146316 
L 708.12 473.146316 
L 708.12 286.01 
L 61.285263 286.01 
z
" style="fill: #ffffff"/>
   </g>
   <g id="matplotlib.axis_3">
    <g id="xtick_8">
     <g id="line2d_16">
      <path d="M 90.686842 473.146316 
L 90.686842 286.01 
" clip-path="url(#p014f1111b7)" style="fill: none; stroke: #e8ebf2; stroke-width: 0.8; stroke-linecap: round"/>
     </g>
     <g id="text_10">
      <!-- 2020 -->
      <g style="fill: #6f768a" transform="translate(79.905592 490.049441) scale(0.1 -0.1)">
       <use xlink:href="#SegoeUI-32"/>
       <use xlink:href="#SegoeUI-30" transform="translate(53.90625 0)"/>
       <use xlink:href="#SegoeUI-32" transform="translate(107.8125 0)"/>
       <use xlink:href="#SegoeUI-30" transform="translate(161.71875 0)"/>
      </g>
     </g>
    </g>
    <g id="xtick_9">
     <g id="line2d_17">
      <path d="M 182.543248 473.146316 
L 182.543248 286.01 
" clip-path="url(#p014f1111b7)" style="fill: none; stroke: #e8ebf2; stroke-width: 0.8; stroke-linecap: round"/>
     </g>
     <g id="text_11">
      <!-- 2021 -->
      <g style="fill: #6f768a" transform="translate(171.761998 490.049441) scale(0.1 -0.1)">
       <defs>
        <path id="SegoeUI-31" d="M 2263 0 
L 1750 0 
L 1750 3872 
Q 1691 3813 1577 3736 
Q 1463 3659 1320 3584 
Q 1178 3509 1020 3443 
Q 863 3378 713 3341 
L 713 3859 
Q 881 3906 1070 3986 
Q 1259 4066 1442 4164 
Q 1625 4263 1787 4370 
Q 1950 4478 2069 4581 
L 2263 4581 
L 2263 0 
z
" transform="scale(0.015625)"/>
       </defs>
       <use xlink:href="#SegoeUI-32"/>
       <use xlink:href="#SegoeUI-30" transform="translate(53.90625 0)"/>
       <use xlink:href="#SegoeUI-32" transform="translate(107.8125 0)"/>
       <use xlink:href="#SegoeUI-31" transform="translate(161.71875 0)"/>
      </g>
     </g>
    </g>
    <g id="xtick_10">
     <g id="line2d_18">
      <path d="M 274.148679 473.146316 
L 274.148679 286.01 
" clip-path="url(#p014f1111b7)" style="fill: none; stroke: #e8ebf2; stroke-width: 0.8; stroke-linecap: round"/>
     </g>
     <g id="text_12">
      <!-- 2022 -->
      <g style="fill: #6f768a" transform="translate(263.367429 490.049441) scale(0.1 -0.1)">
       <use xlink:href="#SegoeUI-32"/>
       <use xlink:href="#SegoeUI-30" transform="translate(53.90625 0)"/>
       <use xlink:href="#SegoeUI-32" transform="translate(107.8125 0)"/>
       <use xlink:href="#SegoeUI-32" transform="translate(161.71875 0)"/>
      </g>
     </g>
    </g>
    <g id="xtick_11">
     <g id="line2d_19">
      <path d="M 365.754111 473.146316 
L 365.754111 286.01 
" clip-path="url(#p014f1111b7)" style="fill: none; stroke: #e8ebf2; stroke-width: 0.8; stroke-linecap: round"/>
     </g>
     <g id="text_13">
      <!-- 2023 -->
      <g style="fill: #6f768a" transform="translate(354.972861 490.049441) scale(0.1 -0.1)">
       <use xlink:href="#SegoeUI-32"/>
       <use xlink:href="#SegoeUI-30" transform="translate(53.90625 0)"/>
       <use xlink:href="#SegoeUI-32" transform="translate(107.8125 0)"/>
       <use xlink:href="#SegoeUI-33" transform="translate(161.71875 0)"/>
      </g>
     </g>
    </g>
    <g id="xtick_12">
     <g id="line2d_20">
      <path d="M 457.359542 473.146316 
L 457.359542 286.01 
" clip-path="url(#p014f1111b7)" style="fill: none; stroke: #e8ebf2; stroke-width: 0.8; stroke-linecap: round"/>
     </g>
     <g id="text_14">
      <!-- 2024 -->
      <g style="fill: #6f768a" transform="translate(446.578292 490.049441) scale(0.1 -0.1)">
       <use xlink:href="#SegoeUI-32"/>
       <use xlink:href="#SegoeUI-30" transform="translate(53.90625 0)"/>
       <use xlink:href="#SegoeUI-32" transform="translate(107.8125 0)"/>
       <use xlink:href="#SegoeUI-34" transform="translate(161.71875 0)"/>
      </g>
     </g>
    </g>
    <g id="xtick_13">
     <g id="line2d_21">
      <path d="M 549.215948 473.146316 
L 549.215948 286.01 
" clip-path="url(#p014f1111b7)" style="fill: none; stroke: #e8ebf2; stroke-width: 0.8; stroke-linecap: round"/>
     </g>
     <g id="text_15">
      <!-- 2025 -->
      <g style="fill: #6f768a" transform="translate(538.434698 490.049441) scale(0.1 -0.1)">
       <use xlink:href="#SegoeUI-32"/>
       <use xlink:href="#SegoeUI-30" transform="translate(53.90625 0)"/>
       <use xlink:href="#SegoeUI-32" transform="translate(107.8125 0)"/>
       <use xlink:href="#SegoeUI-35" transform="translate(161.71875 0)"/>
      </g>
     </g>
    </g>
    <g id="xtick_14">
     <g id="line2d_22">
      <path d="M 640.821379 473.146316 
L 640.821379 286.01 
" clip-path="url(#p014f1111b7)" style="fill: none; stroke: #e8ebf2; stroke-width: 0.8; stroke-linecap: round"/>
     </g>
     <g id="text_16">
      <!-- 2026 -->
      <g style="fill: #6f768a" transform="translate(630.040129 490.049441) scale(0.1 -0.1)">
       <defs>
        <path id="SegoeUI-36" d="M 3194 1422 
Q 3194 1094 3087 819 
Q 2981 544 2793 344 
Q 2606 144 2347 33 
Q 2088 -78 1784 -78 
Q 1447 -78 1180 62 
Q 913 203 727 467 
Q 541 731 444 1112 
Q 347 1494 347 1972 
Q 347 2556 476 3032 
Q 606 3509 845 3848 
Q 1084 4188 1421 4372 
Q 1759 4556 2175 4556 
Q 2638 4556 2919 4428 
L 2919 3944 
Q 2572 4122 2188 4122 
Q 1888 4122 1647 3987 
Q 1406 3853 1234 3608 
Q 1063 3363 970 3016 
Q 878 2669 878 2244 
L 891 2244 
Q 1200 2803 1913 2803 
Q 2206 2803 2442 2703 
Q 2678 2603 2845 2420 
Q 3013 2238 3103 1984 
Q 3194 1731 3194 1422 
z
M 2669 1356 
Q 2669 1591 2609 1778 
Q 2550 1966 2439 2097 
Q 2328 2228 2165 2298 
Q 2003 2369 1797 2369 
Q 1606 2369 1443 2297 
Q 1281 2225 1162 2101 
Q 1044 1978 976 1814 
Q 909 1650 909 1466 
Q 909 1234 975 1032 
Q 1041 831 1159 681 
Q 1278 531 1442 445 
Q 1606 359 1806 359 
Q 2000 359 2159 432 
Q 2319 506 2431 637 
Q 2544 769 2606 951 
Q 2669 1134 2669 1356 
z
" transform="scale(0.015625)"/>
       </defs>
       <use xlink:href="#SegoeUI-32"/>
       <use xlink:href="#SegoeUI-30" transform="translate(53.90625 0)"/>
       <use xlink:href="#SegoeUI-32" transform="translate(107.8125 0)"/>
       <use xlink:href="#SegoeUI-36" transform="translate(161.71875 0)"/>
      </g>
     </g>
    </g>
   </g>
   <g id="matplotlib.axis_4">
    <g id="ytick_8">
     <g id="line2d_23">
      <path d="M 61.285263 464.64012 
L 708.12 464.64012 
" clip-path="url(#p014f1111b7)" style="fill: none; stroke: #e8ebf2; stroke-opacity: 0.25; stroke-width: 0.8; stroke-linecap: round"/>
     </g>
     <g id="text_17">
      <!-- 0.84 -->
      <g style="fill: #6f768a" transform="translate(33.444638 468.341682) scale(0.1 -0.1)">
       <defs>
        <path id="SegoeUI-38" d="M 281 1250 
Q 281 1428 337 1608 
Q 394 1788 498 1944 
Q 603 2100 758 2228 
Q 913 2356 1109 2431 
Q 819 2594 647 2848 
Q 475 3103 475 3413 
Q 475 3659 570 3868 
Q 666 4078 834 4231 
Q 1003 4384 1234 4470 
Q 1466 4556 1734 4556 
Q 2006 4556 2237 4468 
Q 2469 4381 2637 4228 
Q 2806 4075 2900 3865 
Q 2994 3656 2994 3413 
Q 2994 3103 2822 2848 
Q 2650 2594 2366 2431 
Q 2559 2356 2712 2228 
Q 2866 2100 2970 1944 
Q 3075 1788 3131 1608 
Q 3188 1428 3188 1250 
Q 3188 956 3081 712 
Q 2975 469 2783 295 
Q 2591 122 2323 25 
Q 2056 -72 1734 -72 
Q 1416 -72 1150 25 
Q 884 122 690 295 
Q 497 469 389 712 
Q 281 956 281 1250 
z
M 838 1294 
Q 838 1084 902 915 
Q 966 747 1083 628 
Q 1200 509 1367 445 
Q 1534 381 1738 381 
Q 1934 381 2100 447 
Q 2266 513 2386 631 
Q 2506 750 2573 919 
Q 2641 1088 2641 1294 
Q 2641 1481 2577 1645 
Q 2513 1809 2394 1934 
Q 2275 2059 2109 2131 
Q 1944 2203 1738 2203 
Q 1544 2203 1380 2136 
Q 1216 2069 1095 1948 
Q 975 1828 906 1661 
Q 838 1494 838 1294 
z
M 997 3372 
Q 997 3213 1055 3077 
Q 1113 2941 1214 2839 
Q 1316 2738 1450 2680 
Q 1584 2622 1738 2622 
Q 1891 2622 2027 2681 
Q 2163 2741 2263 2842 
Q 2363 2944 2422 3080 
Q 2481 3216 2481 3372 
Q 2481 3534 2423 3671 
Q 2366 3809 2266 3909 
Q 2166 4009 2030 4067 
Q 1894 4125 1738 4125 
Q 1572 4125 1436 4065 
Q 1300 4006 1201 3904 
Q 1103 3803 1050 3665 
Q 997 3528 997 3372 
z
" transform="scale(0.015625)"/>
       </defs>
       <use xlink:href="#SegoeUI-30"/>
       <use xlink:href="#SegoeUI-2e" transform="translate(53.90625 0)"/>
       <use xlink:href="#SegoeUI-38" transform="translate(75.585938 0)"/>
       <use xlink:href="#SegoeUI-34" transform="translate(129.492188 0)"/>
      </g>
     </g>
    </g>
    <g id="ytick_9">
     <g id="line2d_24">
      <path d="M 61.285263 441.95693 
L 708.12 441.95693 
" clip-path="url(#p014f1111b7)" style="fill: none; stroke: #e8ebf2; stroke-opacity: 0.25; stroke-width: 0.8; stroke-linecap: round"/>
     </g>
     <g id="text_18">
      <!-- 0.86 -->
      <g style="fill: #6f768a" transform="translate(33.444638 445.658492) scale(0.1 -0.1)">
       <use xlink:href="#SegoeUI-30"/>
       <use xlink:href="#SegoeUI-2e" transform="translate(53.90625 0)"/>
       <use xlink:href="#SegoeUI-38" transform="translate(75.585938 0)"/>
       <use xlink:href="#SegoeUI-36" transform="translate(129.492188 0)"/>
      </g>
     </g>
    </g>
    <g id="ytick_10">
     <g id="line2d_25">
      <path d="M 61.285263 419.27374 
L 708.12 419.27374 
" clip-path="url(#p014f1111b7)" style="fill: none; stroke: #e8ebf2; stroke-opacity: 0.25; stroke-width: 0.8; stroke-linecap: round"/>
     </g>
     <g id="text_19">
      <!-- 0.88 -->
      <g style="fill: #6f768a" transform="translate(33.444638 422.975303) scale(0.1 -0.1)">
       <use xlink:href="#SegoeUI-30"/>
       <use xlink:href="#SegoeUI-2e" transform="translate(53.90625 0)"/>
       <use xlink:href="#SegoeUI-38" transform="translate(75.585938 0)"/>
       <use xlink:href="#SegoeUI-38" transform="translate(129.492188 0)"/>
      </g>
     </g>
    </g>
    <g id="ytick_11">
     <g id="line2d_26">
      <path d="M 61.285263 396.59055 
L 708.12 396.59055 
" clip-path="url(#p014f1111b7)" style="fill: none; stroke: #e8ebf2; stroke-opacity: 0.25; stroke-width: 0.8; stroke-linecap: round"/>
     </g>
     <g id="text_20">
      <!-- 0.90 -->
      <g style="fill: #6f768a" transform="translate(33.444638 400.292113) scale(0.1 -0.1)">
       <defs>
        <path id="SegoeUI-39" d="M 3138 2509 
Q 3138 1894 3016 1414 
Q 2894 934 2659 601 
Q 2425 269 2087 95 
Q 1750 -78 1319 -78 
Q 875 -78 538 78 
L 538 569 
Q 909 359 1331 359 
Q 1634 359 1873 484 
Q 2113 609 2278 848 
Q 2444 1088 2531 1438 
Q 2619 1788 2619 2241 
L 2606 2241 
Q 2319 1663 1606 1663 
Q 1319 1663 1078 1764 
Q 838 1866 663 2052 
Q 488 2238 391 2494 
Q 294 2750 294 3059 
Q 294 3391 401 3666 
Q 509 3941 701 4139 
Q 894 4338 1158 4447 
Q 1422 4556 1734 4556 
Q 2072 4556 2333 4420 
Q 2594 4284 2772 4023 
Q 2950 3763 3044 3381 
Q 3138 3000 3138 2509 
z
M 2584 2969 
Q 2584 3228 2517 3440 
Q 2450 3653 2331 3804 
Q 2213 3956 2048 4039 
Q 1884 4122 1691 4122 
Q 1506 4122 1347 4048 
Q 1188 3975 1070 3842 
Q 953 3709 886 3526 
Q 819 3344 819 3128 
Q 819 2891 883 2703 
Q 947 2516 1065 2386 
Q 1184 2256 1351 2187 
Q 1519 2119 1722 2119 
Q 1900 2119 2058 2186 
Q 2216 2253 2333 2367 
Q 2450 2481 2517 2636 
Q 2584 2791 2584 2969 
z
" transform="scale(0.015625)"/>
       </defs>
       <use xlink:href="#SegoeUI-30"/>
       <use xlink:href="#SegoeUI-2e" transform="translate(53.90625 0)"/>
       <use xlink:href="#SegoeUI-39" transform="translate(75.585938 0)"/>
       <use xlink:href="#SegoeUI-30" transform="translate(129.492188 0)"/>
      </g>
     </g>
    </g>
    <g id="ytick_12">
     <g id="line2d_27">
      <path d="M 61.285263 373.90736 
L 708.12 373.90736 
" clip-path="url(#p014f1111b7)" style="fill: none; stroke: #e8ebf2; stroke-opacity: 0.25; stroke-width: 0.8; stroke-linecap: round"/>
     </g>
     <g id="text_21">
      <!-- 0.92 -->
      <g style="fill: #6f768a" transform="translate(33.444638 377.608923) scale(0.1 -0.1)">
       <use xlink:href="#SegoeUI-30"/>
       <use xlink:href="#SegoeUI-2e" transform="translate(53.90625 0)"/>
       <use xlink:href="#SegoeUI-39" transform="translate(75.585938 0)"/>
       <use xlink:href="#SegoeUI-32" transform="translate(129.492188 0)"/>
      </g>
     </g>
    </g>
    <g id="ytick_13">
     <g id="line2d_28">
      <path d="M 61.285263 351.224171 
L 708.12 351.224171 
" clip-path="url(#p014f1111b7)" style="fill: none; stroke: #e8ebf2; stroke-opacity: 0.25; stroke-width: 0.8; stroke-linecap: round"/>
     </g>
     <g id="text_22">
      <!-- 0.94 -->
      <g style="fill: #6f768a" transform="translate(33.444638 354.925733) scale(0.1 -0.1)">
       <use xlink:href="#SegoeUI-30"/>
       <use xlink:href="#SegoeUI-2e" transform="translate(53.90625 0)"/>
       <use xlink:href="#SegoeUI-39" transform="translate(75.585938 0)"/>
       <use xlink:href="#SegoeUI-34" transform="translate(129.492188 0)"/>
      </g>
     </g>
    </g>
    <g id="ytick_14">
     <g id="line2d_29">
      <path d="M 61.285263 328.540981 
L 708.12 328.540981 
" clip-path="url(#p014f1111b7)" style="fill: none; stroke: #e8ebf2; stroke-opacity: 0.25; stroke-width: 0.8; stroke-linecap: round"/>
     </g>
     <g id="text_23">
      <!-- 0.96 -->
      <g style="fill: #6f768a" transform="translate(33.444638 332.242543) scale(0.1 -0.1)">
       <use xlink:href="#SegoeUI-30"/>
       <use xlink:href="#SegoeUI-2e" transform="translate(53.90625 0)"/>
       <use xlink:href="#SegoeUI-39" transform="translate(75.585938 0)"/>
       <use xlink:href="#SegoeUI-36" transform="translate(129.492188 0)"/>
      </g>
     </g>
    </g>
    <g id="ytick_15">
     <g id="line2d_30">
      <path d="M 61.285263 305.857791 
L 708.12 305.857791 
" clip-path="url(#p014f1111b7)" style="fill: none; stroke: #e8ebf2; stroke-opacity: 0.25; stroke-width: 0.8; stroke-linecap: round"/>
     </g>
     <g id="text_24">
      <!-- 0.98 -->
      <g style="fill: #6f768a" transform="translate(33.444638 309.559354) scale(0.1 -0.1)">
       <use xlink:href="#SegoeUI-30"/>
       <use xlink:href="#SegoeUI-2e" transform="translate(53.90625 0)"/>
       <use xlink:href="#SegoeUI-39" transform="translate(75.585938 0)"/>
       <use xlink:href="#SegoeUI-38" transform="translate(129.492188 0)"/>
      </g>
     </g>
    </g>
    <g id="text_25">
     <!-- Rank persistence -->
     <g style="fill: #1f2430" transform="translate(26.684638 424.006283) rotate(-90) scale(0.12 -0.12)">
      <defs>
       <path id="SegoeUI-52" d="M 3800 0 
L 3175 0 
L 2425 1256 
Q 2322 1431 2225 1554 
Q 2128 1678 2026 1756 
Q 1925 1834 1808 1870 
Q 1691 1906 1544 1906 
L 1113 1906 
L 1113 0 
L 588 0 
L 588 4481 
L 1925 4481 
Q 2219 4481 2467 4407 
Q 2716 4334 2898 4184 
Q 3081 4034 3184 3811 
Q 3288 3588 3288 3288 
Q 3288 3053 3217 2858 
Q 3147 2663 3017 2509 
Q 2888 2356 2705 2248 
Q 2522 2141 2294 2081 
L 2294 2069 
Q 2406 2019 2489 1955 
Q 2572 1891 2647 1803 
Q 2722 1716 2795 1605 
Q 2869 1494 2959 1347 
L 3800 0 
z
M 1113 4006 
L 1113 2381 
L 1825 2381 
Q 2022 2381 2189 2440 
Q 2356 2500 2478 2611 
Q 2600 2722 2669 2883 
Q 2738 3044 2738 3244 
Q 2738 3603 2505 3804 
Q 2272 4006 1831 4006 
L 1113 4006 
z
" transform="scale(0.015625)"/>
       <path id="SegoeUI-6b" d="M 3175 0 
L 2456 0 
L 1044 1538 
L 1031 1538 
L 1031 0 
L 519 0 
L 519 4738 
L 1031 4738 
L 1031 1734 
L 1044 1734 
L 2388 3200 
L 3059 3200 
L 1575 1656 
L 3175 0 
z
" transform="scale(0.015625)"/>
       <path id="SegoeUI-73" d="M 325 116 
L 325 666 
Q 744 356 1247 356 
Q 1922 356 1922 806 
Q 1922 934 1864 1023 
Q 1806 1113 1707 1181 
Q 1609 1250 1476 1304 
Q 1344 1359 1191 1419 
Q 978 1503 817 1589 
Q 656 1675 548 1783 
Q 441 1891 386 2028 
Q 331 2166 331 2350 
Q 331 2575 434 2748 
Q 538 2922 709 3039 
Q 881 3156 1101 3215 
Q 1322 3275 1556 3275 
Q 1972 3275 2300 3131 
L 2300 2613 
Q 1947 2844 1488 2844 
Q 1344 2844 1228 2811 
Q 1113 2778 1030 2718 
Q 947 2659 901 2576 
Q 856 2494 856 2394 
Q 856 2269 901 2184 
Q 947 2100 1034 2034 
Q 1122 1969 1247 1916 
Q 1372 1863 1531 1800 
Q 1744 1719 1912 1633 
Q 2081 1547 2200 1439 
Q 2319 1331 2383 1190 
Q 2447 1050 2447 856 
Q 2447 619 2342 444 
Q 2238 269 2063 153 
Q 1888 38 1659 -18 
Q 1431 -75 1181 -75 
Q 688 -75 325 116 
z
" transform="scale(0.015625)"/>
      </defs>
      <use xlink:href="#SegoeUI-52"/>
      <use xlink:href="#SegoeUI-61" transform="translate(59.814453 0)"/>
      <use xlink:href="#SegoeUI-6e" transform="translate(110.693359 0)"/>
      <use xlink:href="#SegoeUI-6b" transform="translate(167.285156 0)"/>
      <use xlink:href="#SegoeUI-20" transform="translate(216.992188 0)"/>
      <use xlink:href="#SegoeUI-70" transform="translate(244.384766 0)"/>
      <use xlink:href="#SegoeUI-65" transform="translate(303.173828 0)"/>
      <use xlink:href="#SegoeUI-72" transform="translate(355.46875 0)"/>
      <use xlink:href="#SegoeUI-73" transform="translate(390.859375 0)"/>
      <use xlink:href="#SegoeUI-69" transform="translate(433.291016 0)"/>
      <use xlink:href="#SegoeUI-73" transform="translate(457.509766 0)"/>
      <use xlink:href="#SegoeUI-74" transform="translate(499.941406 0)"/>
      <use xlink:href="#SegoeUI-65" transform="translate(533.078125 0)"/>
      <use xlink:href="#SegoeUI-6e" transform="translate(585.373047 0)"/>
      <use xlink:href="#SegoeUI-63" transform="translate(641.964844 0)"/>
      <use xlink:href="#SegoeUI-65" transform="translate(688.15625 0)"/>
     </g>
    </g>
   </g>
   <g id="line2d_31">
    <path d="M 98.467029 351.224171 
L 105.745269 373.90736 
L 113.525457 385.248955 
L 121.05467 351.224171 
L 128.834857 385.248955 
L 136.364071 396.59055 
L 144.144258 464.64012 
L 151.924446 396.59055 
L 159.453659 407.932145 
L 167.233847 351.224171 
L 174.76306 385.248955 
L 182.543248 407.932145 
L 190.323435 419.27374 
L 197.350701 362.565766 
L 205.130888 396.59055 
L 212.660102 407.932145 
L 220.440289 339.882576 
L 227.969503 351.224171 
L 235.74969 351.224171 
L 243.529877 407.932145 
L 251.059091 373.90736 
L 258.839278 396.59055 
L 266.368492 373.90736 
L 274.148679 362.565766 
L 281.928867 351.224171 
L 288.956132 362.565766 
L 296.73632 339.882576 
L 304.265533 339.882576 
L 312.045721 351.224171 
L 319.574934 373.90736 
L 327.355122 373.90736 
L 335.135309 385.248955 
L 342.664523 373.90736 
L 350.44471 351.224171 
L 357.973923 339.882576 
L 365.754111 339.882576 
L 373.534298 385.248955 
L 380.561564 396.59055 
L 388.341751 351.224171 
L 395.870965 339.882576 
L 403.651152 294.516196 
L 411.180366 317.199386 
L 418.960553 317.199386 
L 426.740741 305.857791 
L 434.269954 317.199386 
L 442.050142 407.932145 
L 449.579355 396.59055 
L 457.359542 407.932145 
L 465.13973 419.27374 
L 472.41797 441.95693 
L 480.198157 396.59055 
L 487.72737 362.565766 
L 495.507558 351.224171 
L 503.036771 339.882576 
L 510.816959 373.90736 
L 518.597146 362.565766 
L 526.12636 351.224171 
L 533.906547 373.90736 
L 541.43576 407.932145 
L 549.215948 385.248955 
L 556.996135 339.882576 
L 564.023401 373.90736 
L 571.803589 362.565766 
L 579.332802 362.565766 
L 587.112989 373.90736 
L 594.642203 362.565766 
L 602.42239 339.882576 
L 610.202578 385.248955 
L 617.731791 373.90736 
L 625.511979 373.90736 
L 633.041192 339.882576 
L 640.821379 328.540981 
L 648.601567 373.90736 
L 655.628833 373.90736 
L 663.40902 373.90736 
L 670.938234 339.882576 
L 678.718421 328.540981 
" clip-path="url(#p014f1111b7)" style="fill: none; stroke: #7a4e2d; stroke-width: 2; stroke-linecap: round"/>
   </g>
   <g id="patch_6">
    <path d="M 61.285263 473.146316 
L 61.285263 286.01 
" style="fill: none; stroke: #d7dbe7; stroke-width: 1.25; stroke-linejoin: miter; stroke-linecap: square"/>
   </g>
   <g id="patch_7">
    <path d="M 61.285263 473.146316 
L 708.12 473.146316 
" style="fill: none; stroke: #d7dbe7; stroke-width: 1.25; stroke-linejoin: miter; stroke-linecap: square"/>
   </g>
   <g id="text_26">
    <!-- Top-100 rank persistence -->
    <g style="fill: #1f2430" transform="translate(61.285263 280.01) scale(0.12 -0.12)">
     <defs>
      <path id="SegoeUI-54" d="M 3238 4006 
L 1944 4006 
L 1944 0 
L 1419 0 
L 1419 4006 
L 128 4006 
L 128 4481 
L 3238 4481 
L 3238 4006 
z
" transform="scale(0.015625)"/>
     </defs>
     <use xlink:href="#SegoeUI-54"/>
     <use xlink:href="#SegoeUI-6f" transform="translate(42.142578 0)"/>
     <use xlink:href="#SegoeUI-70" transform="translate(100.736328 0)"/>
     <use xlink:href="#SegoeUI-2d" transform="translate(159.525391 0)"/>
     <use xlink:href="#SegoeUI-31" transform="translate(199.515625 0)"/>
     <use xlink:href="#SegoeUI-30" transform="translate(253.421875 0)"/>
     <use xlink:href="#SegoeUI-30" transform="translate(307.328125 0)"/>
     <use xlink:href="#SegoeUI-20" transform="translate(361.234375 0)"/>
     <use xlink:href="#SegoeUI-72" transform="translate(388.626953 0)"/>
     <use xlink:href="#SegoeUI-61" transform="translate(423.392578 0)"/>
     <use xlink:href="#SegoeUI-6e" transform="translate(474.271484 0)"/>
     <use xlink:href="#SegoeUI-6b" transform="translate(530.863281 0)"/>
     <use xlink:href="#SegoeUI-20" transform="translate(580.570312 0)"/>
     <use xlink:href="#SegoeUI-70" transform="translate(607.962891 0)"/>
     <use xlink:href="#SegoeUI-65" transform="translate(666.751953 0)"/>
     <use xlink:href="#SegoeUI-72" transform="translate(719.046875 0)"/>
     <use xlink:href="#SegoeUI-73" transform="translate(754.4375 0)"/>
     <use xlink:href="#SegoeUI-69" transform="translate(796.869141 0)"/>
     <use xlink:href="#SegoeUI-73" transform="translate(821.087891 0)"/>
     <use xlink:href="#SegoeUI-74" transform="translate(863.519531 0)"/>
     <use xlink:href="#SegoeUI-65" transform="translate(896.65625 0)"/>
     <use xlink:href="#SegoeUI-6e" transform="translate(948.951172 0)"/>
     <use xlink:href="#SegoeUI-63" transform="translate(1005.542969 0)"/>
     <use xlink:href="#SegoeUI-65" transform="translate(1051.734375 0)"/>
    </g>
   </g>
  </g>
  <g id="text_27">
   <!-- Monthly Concentration and Top-100 Rank Persistence -->
   <g style="fill: #1f2430" transform="translate(203.964656 19.852125) scale(0.132 -0.132)">
    <defs>
     <path id="SegoeUI-43" d="M 3638 188 
Q 3141 -75 2400 -75 
Q 1444 -75 869 540 
Q 294 1156 294 2156 
Q 294 3231 941 3893 
Q 1588 4556 2581 4556 
Q 3219 4556 3638 4372 
L 3638 3813 
Q 3156 4081 2575 4081 
Q 1803 4081 1323 3565 
Q 844 3050 844 2188 
Q 844 1369 1292 883 
Q 1741 397 2469 397 
Q 3144 397 3638 697 
L 3638 188 
z
" transform="scale(0.015625)"/>
     <path id="SegoeUI-64" d="M 3250 0 
L 2738 0 
L 2738 544 
L 2725 544 
Q 2369 -75 1625 -75 
Q 1022 -75 661 354 
Q 300 784 300 1525 
Q 300 2319 700 2797 
Q 1100 3275 1766 3275 
Q 2425 3275 2725 2756 
L 2738 2756 
L 2738 4738 
L 3250 4738 
L 3250 0 
z
M 2738 1447 
L 2738 1919 
Q 2738 2306 2481 2575 
Q 2225 2844 1831 2844 
Q 1363 2844 1094 2500 
Q 825 2156 825 1550 
Q 825 997 1083 676 
Q 1341 356 1775 356 
Q 2203 356 2470 665 
Q 2738 975 2738 1447 
z
" transform="scale(0.015625)"/>
     <path id="SegoeUI-50" d="M 1113 1694 
L 1113 0 
L 588 0 
L 588 4481 
L 1819 4481 
Q 2538 4481 2933 4131 
Q 3328 3781 3328 3144 
Q 3328 2506 2889 2100 
Q 2450 1694 1703 1694 
L 1113 1694 
z
M 1113 4006 
L 1113 2169 
L 1663 2169 
Q 2206 2169 2492 2417 
Q 2778 2666 2778 3119 
Q 2778 4006 1728 4006 
L 1113 4006 
z
" transform="scale(0.015625)"/>
    </defs>
    <use xlink:href="#SegoeUI-4d"/>
    <use xlink:href="#SegoeUI-6f" transform="translate(89.794922 0)"/>
    <use xlink:href="#SegoeUI-6e" transform="translate(148.388672 0)"/>
    <use xlink:href="#SegoeUI-74" transform="translate(204.980469 0)"/>
    <use xlink:href="#SegoeUI-68" transform="translate(238.867188 0)"/>
    <use xlink:href="#SegoeUI-6c" transform="translate(295.458984 0)"/>
    <use xlink:href="#SegoeUI-79" transform="translate(319.677734 0)"/>
    <use xlink:href="#SegoeUI-20" transform="translate(368.066406 0)"/>
    <use xlink:href="#SegoeUI-43" transform="translate(395.458984 0)"/>
    <use xlink:href="#SegoeUI-6f" transform="translate(457.373047 0)"/>
    <use xlink:href="#SegoeUI-6e" transform="translate(515.966797 0)"/>
    <use xlink:href="#SegoeUI-63" transform="translate(572.558594 0)"/>
    <use xlink:href="#SegoeUI-65" transform="translate(618.75 0)"/>
    <use xlink:href="#SegoeUI-6e" transform="translate(671.044922 0)"/>
    <use xlink:href="#SegoeUI-74" transform="translate(727.636719 0)"/>
    <use xlink:href="#SegoeUI-72" transform="translate(761.523438 0)"/>
    <use xlink:href="#SegoeUI-61" transform="translate(796.289062 0)"/>
    <use xlink:href="#SegoeUI-74" transform="translate(847.167969 0)"/>
    <use xlink:href="#SegoeUI-69" transform="translate(881.054688 0)"/>
    <use xlink:href="#SegoeUI-6f" transform="translate(905.273438 0)"/>
    <use xlink:href="#SegoeUI-6e" transform="translate(963.867188 0)"/>
    <use xlink:href="#SegoeUI-20" transform="translate(1020.458984 0)"/>
    <use xlink:href="#SegoeUI-61" transform="translate(1047.851562 0)"/>
    <use xlink:href="#SegoeUI-6e" transform="translate(1098.730469 0)"/>
    <use xlink:href="#SegoeUI-64" transform="translate(1155.322266 0)"/>
    <use xlink:href="#SegoeUI-20" transform="translate(1214.208984 0)"/>
    <use xlink:href="#SegoeUI-54" transform="translate(1241.601562 0)"/>
    <use xlink:href="#SegoeUI-6f" transform="translate(1283.744141 0)"/>
    <use xlink:href="#SegoeUI-70" transform="translate(1342.337891 0)"/>
    <use xlink:href="#SegoeUI-2d" transform="translate(1401.126953 0)"/>
    <use xlink:href="#SegoeUI-31" transform="translate(1441.117188 0)"/>
    <use xlink:href="#SegoeUI-30" transform="translate(1495.023438 0)"/>
    <use xlink:href="#SegoeUI-30" transform="translate(1548.929688 0)"/>
    <use xlink:href="#SegoeUI-20" transform="translate(1602.835938 0)"/>
    <use xlink:href="#SegoeUI-52" transform="translate(1630.228516 0)"/>
    <use xlink:href="#SegoeUI-61" transform="translate(1690.042969 0)"/>
    <use xlink:href="#SegoeUI-6e" transform="translate(1740.921875 0)"/>
    <use xlink:href="#SegoeUI-6b" transform="translate(1797.513672 0)"/>
    <use xlink:href="#SegoeUI-20" transform="translate(1847.220703 0)"/>
    <use xlink:href="#SegoeUI-50" transform="translate(1874.613281 0)"/>
    <use xlink:href="#SegoeUI-65" transform="translate(1926.869141 0)"/>
    <use xlink:href="#SegoeUI-72" transform="translate(1979.164062 0)"/>
    <use xlink:href="#SegoeUI-73" transform="translate(2014.554688 0)"/>
    <use xlink:href="#SegoeUI-69" transform="translate(2056.986328 0)"/>
    <use xlink:href="#SegoeUI-73" transform="translate(2081.205078 0)"/>
    <use xlink:href="#SegoeUI-74" transform="translate(2123.636719 0)"/>
    <use xlink:href="#SegoeUI-65" transform="translate(2156.773438 0)"/>
    <use xlink:href="#SegoeUI-6e" transform="translate(2209.068359 0)"/>
    <use xlink:href="#SegoeUI-63" transform="translate(2265.660156 0)"/>
    <use xlink:href="#SegoeUI-65" transform="translate(2311.851562 0)"/>
   </g>
  </g>
 </g>
 <defs>
  <clipPath id="p032e8a5c72">
   <rect x="61.285263" y="71.898947" width="646.834737" height="187.136316"/>
  </clipPath>
  <clipPath id="p014f1111b7">
   <rect x="61.285263" y="286.01" width="646.834737" height="187.136316"/>
  </clipPath>
 </defs>
</svg>
