<?xml version="1.0" encoding="utf-8" standalone="no"?>
<!DOCTYPE svg PUBLIC "-//W3C//DTD SVG 1.1//EN"
  "http://www.w3.org/Graphics/SVG/1.1/DTD/svg11.dtd">
<svg xmlns:xlink="http://www.w3.org/1999/xlink" width="807.155625pt" height="414.02625pt" viewBox="0 0 807.155625 414.02625" xmlns="http://www.w3.org/2000/svg" version="1.1">
 <metadata>
  <rdf:RDF xmlns:dc="http://purl.org/dc/elements/1.1/" xmlns:cc="http://creativecommons.org/ns#" xmlns:rdf="http://www.w3.org/1999/02/22-rdf-syntax-ns#">
   <cc:Work>
    <dc:type rdf:resource="http://purl.org/dc/dcmitype/StillImage"/>
    <dc:format>image/svg+xml</dc:format>
    <dc:creator>
     <cc:Agent>
      <dc:title>Matplotlib v3.10.8, https://matplotlib.org/</dc:title>
     </cc:Agent>
    </dc:creator>
   </cc:Work>
  </rdf:RDF>
 </metadata>
 <defs>
  <style type="text/css">*{stroke-linejoin: round; stroke-linecap: butt}</style>
 </defs>
 <g id="figure_1">
  <g id="patch_1">
   <path d="M 0 414.02625
L 807.155625 414.02625
L 807.155625 0
L 0 0
z
" style="fill: #ffffff"/>
  </g>
  <g id="axes_1">
   <g id="patch_2">
    <path d="M 56.915625 393.57
L 799.955625 393.57
L 799.955625 92.25
L 56.915625 92.25
z
" style="fill: #ffffff"/>
   </g>
   <g id="matplotlib.axis_1">
    <g id="xtick_1">
     <g id="text_1">
      <!-- contraction/low -->
      <g style="fill: #6f768a" transform="translate(152.466997 404.473125) scale(0.1 -0.1)">
       <defs>
        <path id="SegoeUI-63" d="M 2700 147
Q 2331 -75 1825 -75
Q 1141 -75 720 370
Q 300 816 300 1525
Q 300 2316 753 2795
Q 1206 3275 1963 3275
Q 2384 3275 2706 3119
L 2706 2594
Q 2350 2844 1944 2844
Q 1453 2844 1139 2492
Q 825 2141 825 1569
Q 825 1006 1120 681
Q 1416 356 1913 356
Q 2331 356 2700 634
L 2700 147
z
" transform="scale(0.015625)"/>
        <path id="SegoeUI-6f" d="M 1856 -75
Q 1147 -75 723 373
Q 300 822 300 1563
Q 300 2369 740 2822
Q 1181 3275 1931 3275
Q 2647 3275 3048 2834
Q 3450 2394 3450 1613
Q 3450 847 3017 386
Q 2584 -75 1856 -75
z
M 1894 2844
Q 1400 2844 1112 2508
Q 825 2172 825 1581
Q 825 1013 1115 684
Q 1406 356 1894 356
Q 2391 356 2658 678
Q 2925 1000 2925 1594
Q 2925 2194 2658 2519
Q 2391 2844 1894 2844
z
" transform="scale(0.015625)"/>
        <path id="SegoeUI-6e" d="M 3175 0
L 2663 0
L 2663 1825
Q 2663 2844 1919 2844
Q 1534 2844 1282 2555
Q 1031 2266 1031 1825
L 1031 0
L 519 0
L 519 3200
L 1031 3200
L 1031 2669
L 1044 2669
Q 1406 3275 2094 3275
Q 2619 3275 2897 2936
Q 3175 2597 3175 1956
L 3175 0
z
" transform="scale(0.015625)"/>
        <path id="SegoeUI-74" d="M 2003 31
Q 1822 -69 1525 -69
Q 684 -69 684 869
L 684 2763
L 134 2763
L 134 3200
L 684 3200
L 684 3981
L 1197 4147
L 1197 3200
L 2003 3200
L 2003 2763
L 1197 2763
L 1197 959
Q 1197 638 1306 500
Q 1416 363 1669 363
Q 1863 363 2003 469
L 2003 31
z
" transform="scale(0.015625)"/>
        <path id="SegoeUI-72" d="M 2188 2681
Q 2053 2784 1800 2784
Q 1472 2784 1251 2475
Q 1031 2166 1031 1631
L 1031 0
L 519 0
L 519 3200
L 1031 3200
L 1031 2541
L 1044 2541
Q 1153 2878 1378 3067
Q 1603 3256 1881 3256
Q 2081 3256 2188 3213
L 2188 2681
z
" transform="scale(0.015625)"/>
        <path id="SegoeUI-61" d="M 2809 0
L 2297 0
L 2297 500
L 2284 500
Q 1950 -75 1300 -75
Q 822 -75 551 178
Q 281 431 281 850
Q 281 1747 1338 1894
L 2297 2028
Q 2297 2844 1638 2844
Q 1059 2844 594 2450
L 594 2975
Q 1066 3275 1681 3275
Q 2809 3275 2809 2081
L 2809 0
z
M 2297 1619
L 1525 1513
Q 1169 1463 987 1336
Q 806 1209 806 888
Q 806 653 973 504
Q 1141 356 1419 356
Q 1800 356 2048 623
Q 2297 891 2297 1300
L 2297 1619
z
" transform="scale(0.015625)"/>
        <path id="SegoeUI-69" d="M 781 4013
Q 644 4013 547 4106
Q 450 4200 450 4344
Q 450 4488 547 4583
Q 644 4678 781 4678
Q 922 4678 1020 4583
Q 1119 4488 1119 4344
Q 1119 4206 1020 4109
Q 922 4013 781 4013
z
M 1031 0
L 519 0
L 519 3200
L 1031 3200
L 1031 0
z
" transform="scale(0.015625)"/>
        <path id="SegoeUI-2f" d="M 2541 4481
L 391 -744
L -88 -744
L 2056 4481
L 2541 4481
z
" transform="scale(0.015625)"/>
        <path id="SegoeUI-6c" d="M 1031 0
L 519 0
L 519 4738
L 1031 4738
L 1031 0
z
" transform="scale(0.015625)"/>
        <path id="SegoeUI-77" d="M 4550 3200
L 3591 0
L 3059 0
L 2400 2291
Q 2363 2422 2350 2588
L 2338 2588
Q 2328 2475 2272 2297
L 1556 0
L 1044 0
L 75 3200
L 613 3200
L 1275 794
Q 1306 684 1319 506
L 1344 506
Q 1353 644 1400 800
L 2138 3200
L 2606 3200
L 3269 788
Q 3300 672 3316 500
L 3341 500
Q 3347 622 3394 788
L 4044 3200
L 4550 3200
z
" transform="scale(0.015625)"/>
       </defs>
       <use xlink:href="#SegoeUI-63"/>
       <use xlink:href="#SegoeUI-6f" transform="translate(46.191406 0)"/>
       <use xlink:href="#SegoeUI-6e" transform="translate(104.785156 0)"/>
       <use xlink:href="#SegoeUI-74" transform="translate(161.376953 0)"/>
       <use xlink:href="#SegoeUI-72" transform="translate(195.263672 0)"/>
       <use xlink:href="#SegoeUI-61" transform="translate(230.029297 0)"/>
       <use xlink:href="#SegoeUI-63" transform="translate(280.908203 0)"/>
       <use xlink:href="#SegoeUI-74" transform="translate(327.099609 0)"/>
       <use xlink:href="#SegoeUI-69" transform="translate(360.986328 0)"/>
       <use xlink:href="#SegoeUI-6f" transform="translate(385.205078 0)"/>
       <use xlink:href="#SegoeUI-6e" transform="translate(443.798828 0)"/>
       <use xlink:href="#SegoeUI-2f" transform="translate(500.390625 0)"/>
       <use xlink:href="#SegoeUI-6c" transform="translate(539.355469 0)"/>
       <use xlink:href="#SegoeUI-6f" transform="translate(563.574219 0)"/>
       <use xlink:href="#SegoeUI-77" transform="translate(622.167969 0)"/>
      </g>
     </g>
    </g>
    <g id="xtick_2">
     <g id="text_2">
      <!-- middle -->
      <g style="fill: #6f768a" transform="translate(413.202812 404.473125) scale(0.1 -0.1)">
       <defs>
        <path id="SegoeUI-6d" d="M 5063 0
L 4550 0
L 4550 1838
Q 4550 2369 4386 2606
Q 4222 2844 3834 2844
Q 3506 2844 3276 2544
Q 3047 2244 3047 1825
L 3047 0
L 2534 0
L 2534 1900
Q 2534 2844 1806 2844
Q 1469 2844 1250 2561
Q 1031 2278 1031 1825
L 1031 0
L 519 0
L 519 3200
L 1031 3200
L 1031 2694
L 1044 2694
Q 1384 3275 2038 3275
Q 2366 3275 2609 3092
Q 2853 2909 2944 2613
Q 3300 3275 4006 3275
Q 5063 3275 5063 1972
L 5063 0
z
" transform="scale(0.015625)"/>
        <path id="SegoeUI-64" d="M 3250 0
L 2738 0
L 2738 544
L 2725 544
Q 2369 -75 1625 -75
Q 1022 -75 661 354
Q 300 784 300 1525
Q 300 2319 700 2797
Q 1100 3275 1766 3275
Q 2425 3275 2725 2756
L 2738 2756
L 2738 4738
L 3250 4738
L 3250 0
z
M 2738 1447
L 2738 1919
Q 2738 2306 2481 2575
Q 2225 2844 1831 2844
Q 1363 2844 1094 2500
Q 825 2156 825 1550
Q 825 997 1083 676
Q 1341 356 1775 356
Q 2203 356 2470 665
Q 2738 975 2738 1447
z
" transform="scale(0.015625)"/>
        <path id="SegoeUI-65" d="M 3091 1472
L 831 1472
Q 844 938 1119 647
Q 1394 356 1875 356
Q 2416 356 2869 713
L 2869 231
Q 2447 -75 1753 -75
Q 1075 -75 687 361
Q 300 797 300 1588
Q 300 2334 723 2804
Q 1147 3275 1775 3275
Q 2403 3275 2747 2869
Q 3091 2463 3091 1741
L 3091 1472
z
M 2566 1906
Q 2563 2350 2352 2597
Q 2141 2844 1766 2844
Q 1403 2844 1150 2584
Q 897 2325 838 1906
L 2566 1906
z
" transform="scale(0.015625)"/>
       </defs>
       <use xlink:href="#SegoeUI-6d"/>
       <use xlink:href="#SegoeUI-69" transform="translate(86.132812 0)"/>
       <use xlink:href="#SegoeUI-64" transform="translate(110.351562 0)"/>
       <use xlink:href="#SegoeUI-64" transform="translate(169.238281 0)"/>
       <use xlink:href="#SegoeUI-6c" transform="translate(228.125 0)"/>
       <use xlink:href="#SegoeUI-65" transform="translate(252.34375 0)"/>
      </g>
     </g>
    </g>
    <g id="xtick_3">
     <g id="text_3">
      <!-- expansion/high -->
      <g style="fill: #6f768a" transform="translate(635.672222 404.473125) scale(0.1 -0.1)">
       <defs>
        <path id="SegoeUI-78" d="M 2856 3200
L 1781 1581
L 2838 0
L 2241 0
L 1613 1038
Q 1553 1134 1472 1281
L 1459 1281
Q 1444 1253 1313 1038
L 672 0
L 81 0
L 1172 1569
L 128 3200
L 725 3200
L 1344 2106
Q 1413 1984 1478 1856
L 1491 1856
L 2291 3200
L 2856 3200
z
" transform="scale(0.015625)"/>
        <path id="SegoeUI-70" d="M 1044 463
L 1031 463
L 1031 -1472
L 519 -1472
L 519 3200
L 1031 3200
L 1031 2638
L 1044 2638
Q 1422 3275 2150 3275
Q 2769 3275 3116 2845
Q 3463 2416 3463 1694
Q 3463 891 3072 408
Q 2681 -75 2003 -75
Q 1381 -75 1044 463
z
M 1031 1753
L 1031 1306
Q 1031 909 1289 632
Q 1547 356 1944 356
Q 2409 356 2673 712
Q 2938 1069 2938 1703
Q 2938 2238 2691 2541
Q 2444 2844 2022 2844
Q 1575 2844 1303 2533
Q 1031 2222 1031 1753
z
" transform="scale(0.015625)"/>
        <path id="SegoeUI-73" d="M 325 116
L 325 666
Q 744 356 1247 356
Q 1922 356 1922 806
Q 1922 934 1864 1023
Q 1806 1113 1707 1181
Q 1609 1250 1476 1304
Q 1344 1359 1191 1419
Q 978 1503 817 1589
Q 656 1675 548 1783
Q 441 1891 386 2028
Q 331 2166 331 2350
Q 331 2575 434 2748
Q 538 2922 709 3039
Q 881 3156 1101 3215
Q 1322 3275 1556 3275
Q 1972 3275 2300 3131
L 2300 2613
Q 1947 2844 1488 2844
Q 1344 2844 1228 2811
Q 1113 2778 1030 2718
Q 947 2659 901 2576
Q 856 2494 856 2394
Q 856 2269 901 2184
Q 947 2100 1034 2034
Q 1122 1969 1247 1916
Q 1372 1863 1531 1800
Q 1744 1719 1912 1633
Q 2081 1547 2200 1439
Q 2319 1331 2383 1190
Q 2447 1050 2447 856
Q 2447 619 2342 444
Q 2238 269 2063 153
Q 1888 38 1659 -18
Q 1431 -75 1181 -75
Q 688 -75 325 116
z
" transform="scale(0.015625)"/>
        <path id="SegoeUI-68" d="M 3175 0
L 2663 0
L 2663 1844
Q 2663 2844 1919 2844
Q 1544 2844 1287 2555
Q 1031 2266 1031 1813
L 1031 0
L 519 0
L 519 4738
L 1031 4738
L 1031 2669
L 1044 2669
Q 1413 3275 2094 3275
Q 3175 3275 3175 1972
L 3175 0
z
" transform="scale(0.015625)"/>
        <path id="SegoeUI-67" d="M 3250 256
Q 3250 -1506 1563 -1506
Q 969 -1506 525 -1281
L 525 -769
Q 1066 -1069 1556 -1069
Q 2738 -1069 2738 188
L 2738 538
L 2725 538
Q 2359 -75 1625 -75
Q 1028 -75 664 351
Q 300 778 300 1497
Q 300 2313 692 2794
Q 1084 3275 1766 3275
Q 2413 3275 2725 2756
L 2738 2756
L 2738 3200
L 3250 3200
L 3250 256
z
M 2738 1447
L 2738 1919
Q 2738 2300 2480 2572
Q 2222 2844 1838 2844
Q 1363 2844 1094 2498
Q 825 2153 825 1531
Q 825 997 1083 676
Q 1341 356 1766 356
Q 2197 356 2467 662
Q 2738 969 2738 1447
z
" transform="scale(0.015625)"/>
       </defs>
       <use xlink:href="#SegoeUI-65"/>
       <use xlink:href="#SegoeUI-78" transform="translate(52.294922 0)"/>
       <use xlink:href="#SegoeUI-70" transform="translate(98.193359 0)"/>
       <use xlink:href="#SegoeUI-61" transform="translate(155.607422 0)"/>
       <use xlink:href="#SegoeUI-6e" transform="translate(206.486328 0)"/>
       <use xlink:href="#SegoeUI-73" transform="translate(263.078125 0)"/>
       <use xlink:href="#SegoeUI-69" transform="translate(305.509766 0)"/>
       <use xlink:href="#SegoeUI-6f" transform="translate(329.728516 0)"/>
       <use xlink:href="#SegoeUI-6e" transform="translate(388.322266 0)"/>
       <use xlink:href="#SegoeUI-2f" transform="translate(444.914062 0)"/>
       <use xlink:href="#SegoeUI-68" transform="translate(483.878906 0)"/>
       <use xlink:href="#SegoeUI-69" transform="translate(540.470703 0)"/>
       <use xlink:href="#SegoeUI-67" transform="translate(564.689453 0)"/>
       <use xlink:href="#SegoeUI-68" transform="translate(623.576172 0)"/>
      </g>
     </g>
    </g>
   </g>
   <g id="matplotlib.axis_2">
    <g id="ytick_1">
     <g id="line2d_1">
      <path d="M 56.915625 372.946915
L 799.955625 372.946915
" clip-path="url(#p9a8ec405f5)" style="fill: none; stroke: #e8ebf2; stroke-width: 0.8; stroke-linecap: round"/>
     </g>
     <g id="text_4">
      <!-- −0.010 -->
      <g style="fill: #6f768a" transform="translate(22.84375 376.648478) scale(0.1 -0.1)">
       <defs>
        <path id="SegoeUI-2212" d="M 3663 1656
L 725 1656
L 725 2075
L 3663 2075
L 3663 1656
z
" transform="scale(0.015625)"/>
        <path id="SegoeUI-30" d="M 3188 2259
Q 3188 1697 3086 1262
Q 2984 828 2792 529
Q 2600 231 2320 76
Q 2041 -78 1684 -78
Q 1347 -78 1083 70
Q 819 219 637 503
Q 456 788 362 1202
Q 269 1616 269 2150
Q 269 2738 367 3188
Q 466 3638 656 3942
Q 847 4247 1130 4401
Q 1413 4556 1778 4556
Q 3188 4556 3188 2259
z
M 2663 2209
Q 2663 4122 1753 4122
Q 794 4122 794 2175
Q 794 359 1734 359
Q 2663 359 2663 2209
z
" transform="scale(0.015625)"/>
        <path id="SegoeUI-2e" d="M 697 -69
Q 553 -69 451 34
Q 350 138 350 281
Q 350 425 451 529
Q 553 634 697 634
Q 844 634 947 529
Q 1050 425 1050 281
Q 1050 138 947 34
Q 844 -69 697 -69
z
" transform="scale(0.015625)"/>
        <path id="SegoeUI-31" d="M 2263 0
L 1750 0
L 1750 3872
Q 1691 3813 1577 3736
Q 1463 3659 1320 3584
Q 1178 3509 1020 3443
Q 863 3378 713 3341
L 713 3859
Q 881 3906 1070 3986
Q 1259 4066 1442 4164
Q 1625 4263 1787 4370
Q 1950 4478 2069 4581
L 2263 4581
L 2263 0
z
" transform="scale(0.015625)"/>
       </defs>
       <use xlink:href="#SegoeUI-2212"/>
       <use xlink:href="#SegoeUI-30" transform="translate(68.408203 0)"/>
       <use xlink:href="#SegoeUI-2e" transform="translate(122.314453 0)"/>
       <use xlink:href="#SegoeUI-30" transform="translate(143.994141 0)"/>
       <use xlink:href="#SegoeUI-31" transform="translate(197.900391 0)"/>
       <use xlink:href="#SegoeUI-30" transform="translate(251.806641 0)"/>
      </g>
     </g>
    </g>
    <g id="ytick_2">
     <g id="line2d_2">
      <path d="M 56.915625 331.971576
L 799.955625 331.971576
" clip-path="url(#p9a8ec405f5)" style="fill: none; stroke: #e8ebf2; stroke-width: 0.8; stroke-linecap: round"/>
     </g>
     <g id="text_5">
      <!-- −0.005 -->
      <g style="fill: #6f768a" transform="translate(22.84375 335.673138) scale(0.1 -0.1)">
       <defs>
        <path id="SegoeUI-35" d="M 3028 1369
Q 3028 1041 2915 775
Q 2803 509 2595 318
Q 2388 128 2094 25
Q 1800 -78 1441 -78
Q 816 -78 513 109
L 513 653
Q 969 359 1447 359
Q 1691 359 1886 431
Q 2081 503 2218 631
Q 2356 759 2429 940
Q 2503 1122 2503 1338
Q 2503 1775 2209 2023
Q 1916 2272 1356 2272
Q 1266 2272 1166 2269
Q 1066 2266 966 2261
Q 866 2256 770 2250
Q 675 2244 597 2234
L 750 4481
L 2822 4481
L 2822 4019
L 1194 4019
L 1103 2703
Q 1203 2709 1315 2714
Q 1428 2719 1516 2719
Q 1872 2719 2153 2625
Q 2434 2531 2629 2357
Q 2825 2184 2926 1932
Q 3028 1681 3028 1369
z
" transform="scale(0.015625)"/>
       </defs>
       <use xlink:href="#SegoeUI-2212"/>
       <use xlink:href="#SegoeUI-30" transform="translate(68.408203 0)"/>
       <use xlink:href="#SegoeUI-2e" transform="translate(122.314453 0)"/>
       <use xlink:href="#SegoeUI-30" transform="translate(143.994141 0)"/>
       <use xlink:href="#SegoeUI-30" transform="translate(197.900391 0)"/>
       <use xlink:href="#SegoeUI-35" transform="translate(251.806641 0)"/>
      </g>
     </g>
    </g>
    <g id="ytick_3">
     <g id="line2d_3">
      <path d="M 56.915625 290.996236
L 799.955625 290.996236
" clip-path="url(#p9a8ec405f5)" style="fill: none; stroke: #e8ebf2; stroke-width: 0.8; stroke-linecap: round"/>
     </g>
     <g id="text_6">
      <!-- 0.000 -->
      <g style="fill: #6f768a" transform="translate(29.684375 294.697798) scale(0.1 -0.1)">
       <use xlink:href="#SegoeUI-30"/>
       <use xlink:href="#SegoeUI-2e" transform="translate(53.90625 0)"/>
       <use xlink:href="#SegoeUI-30" transform="translate(75.585938 0)"/>
       <use xlink:href="#SegoeUI-30" transform="translate(129.492188 0)"/>
       <use xlink:href="#SegoeUI-30" transform="translate(183.398438 0)"/>
      </g>
     </g>
    </g>
    <g id="ytick_4">
     <g id="line2d_4">
      <path d="M 56.915625 250.020896
L 799.955625 250.020896
" clip-path="url(#p9a8ec405f5)" style="fill: none; stroke: #e8ebf2; stroke-width: 0.8; stroke-linecap: round"/>
     </g>
     <g id="text_7">
      <!-- 0.005 -->
      <g style="fill: #6f768a" transform="translate(29.684375 253.722459) scale(0.1 -0.1)">
       <use xlink:href="#SegoeUI-30"/>
       <use xlink:href="#SegoeUI-2e" transform="translate(53.90625 0)"/>
       <use xlink:href="#SegoeUI-30" transform="translate(75.585938 0)"/>
       <use xlink:href="#SegoeUI-30" transform="translate(129.492188 0)"/>
       <use xlink:href="#SegoeUI-35" transform="translate(183.398438 0)"/>
      </g>
     </g>
    </g>
    <g id="ytick_5">
     <g id="line2d_5">
      <path d="M 56.915625 209.045557
L 799.955625 209.045557
" clip-path="url(#p9a8ec405f5)" style="fill: none; stroke: #e8ebf2; stroke-width: 0.8; stroke-linecap: round"/>
     </g>
     <g id="text_8">
      <!-- 0.010 -->
      <g style="fill: #6f768a" transform="translate(29.684375 212.747119) scale(0.1 -0.1)">
       <use xlink:href="#SegoeUI-30"/>
       <use xlink:href="#SegoeUI-2e" transform="translate(53.90625 0)"/>
       <use xlink:href="#SegoeUI-30" transform="translate(75.585938 0)"/>
       <use xlink:href="#SegoeUI-31" transform="translate(129.492188 0)"/>
       <use xlink:href="#SegoeUI-30" transform="translate(183.398438 0)"/>
      </g>
     </g>
    </g>
    <g id="ytick_6">
     <g id="line2d_6">
      <path d="M 56.915625 168.070217
L 799.955625 168.070217
" clip-path="url(#p9a8ec405f5)" style="fill: none; stroke: #e8ebf2; stroke-width: 0.8; stroke-linecap: round"/>
     </g>
     <g id="text_9">
      <!-- 0.015 -->
      <g style="fill: #6f768a" transform="translate(29.684375 171.77178) scale(0.1 -0.1)">
       <use xlink:href="#SegoeUI-30"/>
       <use xlink:href="#SegoeUI-2e" transform="translate(53.90625 0)"/>
       <use xlink:href="#SegoeUI-30" transform="translate(75.585938 0)"/>
       <use xlink:href="#SegoeUI-31" transform="translate(129.492188 0)"/>
       <use xlink:href="#SegoeUI-35" transform="translate(183.398438 0)"/>
      </g>
     </g>
    </g>
    <g id="ytick_7">
     <g id="line2d_7">
      <path d="M 56.915625 127.094877
L 799.955625 127.094877
" clip-path="url(#p9a8ec405f5)" style="fill: none; stroke: #e8ebf2; stroke-width: 0.8; stroke-linecap: round"/>
     </g>
     <g id="text_10">
      <!-- 0.020 -->
      <g style="fill: #6f768a" transform="translate(29.684375 130.79644) scale(0.1 -0.1)">
       <defs>
        <path id="SegoeUI-32" d="M 2413 3306
Q 2413 3513 2348 3666
Q 2284 3819 2173 3920
Q 2063 4022 1913 4072
Q 1763 4122 1588 4122
Q 1438 4122 1294 4081
Q 1150 4041 1014 3969
Q 878 3897 751 3797
Q 625 3697 516 3575
L 516 4125
Q 731 4334 998 4445
Q 1266 4556 1650 4556
Q 1925 4556 2159 4476
Q 2394 4397 2566 4244
Q 2738 4091 2836 3866
Q 2934 3641 2934 3350
Q 2934 3084 2873 2868
Q 2813 2653 2689 2462
Q 2566 2272 2378 2097
Q 2191 1922 1938 1741
Q 1622 1516 1417 1356
Q 1213 1197 1092 1058
Q 972 919 923 780
Q 875 641 875 459
L 3106 459
L 3106 0
L 341 0
L 341 222
Q 341 509 403 728
Q 466 947 609 1144
Q 753 1341 986 1537
Q 1219 1734 1556 1981
Q 1800 2156 1964 2315
Q 2128 2475 2228 2634
Q 2328 2794 2370 2958
Q 2413 3122 2413 3306
z
" transform="scale(0.015625)"/>
       </defs>
       <use xlink:href="#SegoeUI-30"/>
       <use xlink:href="#SegoeUI-2e" transform="translate(53.90625 0)"/>
       <use xlink:href="#SegoeUI-30" transform="translate(75.585938 0)"/>
       <use xlink:href="#SegoeUI-32" transform="translate(129.492188 0)"/>
       <use xlink:href="#SegoeUI-30" transform="translate(183.398438 0)"/>
      </g>
     </g>
    </g>
    <g id="text_11">
     <!-- btc_return_mean -->
     <g style="fill: #1f2430" transform="translate(16.08375 286.93125) rotate(-90) scale(0.12 -0.12)">
      <defs>
       <path id="SegoeUI-62" d="M 1044 463
L 1031 463
L 1031 0
L 519 0
L 519 4738
L 1031 4738
L 1031 2638
L 1044 2638
Q 1422 3275 2150 3275
Q 2766 3275 3114 2845
Q 3463 2416 3463 1694
Q 3463 891 3072 408
Q 2681 -75 2003 -75
Q 1369 -75 1044 463
z
M 1031 1753
L 1031 1306
Q 1031 909 1289 632
Q 1547 356 1944 356
Q 2409 356 2673 712
Q 2938 1069 2938 1703
Q 2938 2238 2691 2541
Q 2444 2844 2022 2844
Q 1575 2844 1303 2533
Q 1031 2222 1031 1753
z
" transform="scale(0.015625)"/>
       <path id="SegoeUI-5f" d="M 2656 -928
L 0 -928
L 0 -556
L 2656 -556
L 2656 -928
z
" transform="scale(0.015625)"/>
       <path id="SegoeUI-75" d="M 3106 0
L 2594 0
L 2594 506
L 2581 506
Q 2263 -75 1594 -75
Q 450 -75 450 1288
L 450 3200
L 959 3200
L 959 1369
Q 959 356 1734 356
Q 2109 356 2351 632
Q 2594 909 2594 1356
L 2594 3200
L 3106 3200
L 3106 0
z
" transform="scale(0.015625)"/>
      </defs>
      <use xlink:href="#SegoeUI-62"/>
      <use xlink:href="#SegoeUI-74" transform="translate(58.789062 0)"/>
      <use xlink:href="#SegoeUI-63" transform="translate(91.300781 0)"/>
      <use xlink:href="#SegoeUI-5f" transform="translate(137.492188 0)"/>
      <use xlink:href="#SegoeUI-72" transform="translate(178.996094 0)"/>
      <use xlink:href="#SegoeUI-65" transform="translate(212.386719 0)"/>
      <use xlink:href="#SegoeUI-74" transform="translate(264.681641 0)"/>
      <use xlink:href="#SegoeUI-75" transform="translate(298.568359 0)"/>
      <use xlink:href="#SegoeUI-72" transform="translate(355.160156 0)"/>
      <use xlink:href="#SegoeUI-6e" transform="translate(389.675781 0)"/>
      <use xlink:href="#SegoeUI-5f" transform="translate(446.267578 0)"/>
      <use xlink:href="#SegoeUI-6d" transform="translate(487.771484 0)"/>
      <use xlink:href="#SegoeUI-65" transform="translate(573.904297 0)"/>
      <use xlink:href="#SegoeUI-61" transform="translate(626.199219 0)"/>
      <use xlink:href="#SegoeUI-6e" transform="translate(677.078125 0)"/>
     </g>
    </g>
   </g>
   <g id="patch_3">
    <path d="M 90.69017 290.996236
L 283.687573 290.996236
L 283.687573 379.873636
L 90.69017 379.873636
z
" clip-path="url(#p9a8ec405f5)" style="fill: #71b436; stroke: #386411; stroke-linejoin: miter"/>
   </g>
   <g id="patch_4">
    <path d="M 331.936924 290.996236
L 524.934326 290.996236
L 524.934326 214.145816
L 331.936924 214.145816
z
" clip-path="url(#p9a8ec405f5)" style="fill: #71b436; stroke: #386411; stroke-linejoin: miter"/>
   </g>
   <g id="patch_5">
    <path d="M 573.183677 290.996236
L 766.18108 290.996236
L 766.18108 105.946364
L 573.183677 105.946364
z
" clip-path="url(#p9a8ec405f5)" style="fill: #71b436; stroke: #386411; stroke-linejoin: miter"/>
   </g>
   <g id="line2d_8">
    <path d="M 56.915625 290.996236
L 799.955625 290.996236
" clip-path="url(#p9a8ec405f5)" style="fill: none; stroke: #d7dbe7; stroke-linecap: round"/>
   </g>
   <g id="patch_6">
    <path d="M 56.915625 393.57
L 56.915625 92.25
" style="fill: none; stroke: #d7dbe7; stroke-width: 1.25; stroke-linejoin: miter; stroke-linecap: square"/>
   </g>
   <g id="patch_7">
    <path d="M 56.915625 393.57
L 799.955625 393.57
" style="fill: none; stroke: #d7dbe7; stroke-width: 1.25; stroke-linejoin: miter; stroke-linecap: square"/>
   </g>
   <g id="text_12">
    <!-- -1.08% -->
    <g style="fill: #1f2430" transform="translate(169.127934 376.601471) scale(0.1 -0.1)">
     <defs>
      <path id="DejaVuSansMono-2d" d="M 1113 2009
L 2741 2009
L 2741 1497
L 1113 1497
L 1113 2009
z
" transform="scale(0.015625)"/>
      <path id="DejaVuSansMono-31" d="M 844 531
L 1825 531
L 1825 4097
L 769 3859
L 769 4434
L 1819 4666
L 2450 4666
L 2450 531
L 3419 531
L 3419 0
L 844 0
L 844 531
z
" transform="scale(0.015625)"/>
      <path id="DejaVuSansMono-2e" d="M 1528 953
L 2316 953
L 2316 0
L 1528 0
L 1528 953
z
" transform="scale(0.015625)"/>
      <path id="DejaVuSansMono-30" d="M 1509 2344
Q 1509 2516 1629 2641
Q 1750 2766 1919 2766
Q 2094 2766 2219 2641
Q 2344 2516 2344 2344
Q 2344 2169 2220 2047
Q 2097 1925 1919 1925
Q 1744 1925 1626 2044
Q 1509 2163 1509 2344
z
M 1925 4250
Q 1484 4250 1267 3775
Q 1050 3300 1050 2328
Q 1050 1359 1267 884
Q 1484 409 1925 409
Q 2369 409 2586 884
Q 2803 1359 2803 2328
Q 2803 3300 2586 3775
Q 2369 4250 1925 4250
z
M 1925 4750
Q 2672 4750 3055 4137
Q 3438 3525 3438 2328
Q 3438 1134 3055 521
Q 2672 -91 1925 -91
Q 1178 -91 797 521
Q 416 1134 416 2328
Q 416 3525 797 4137
Q 1178 4750 1925 4750
z
" transform="scale(0.015625)"/>
      <path id="DejaVuSansMono-38" d="M 1925 2216
Q 1503 2216 1273 1980
Q 1044 1744 1044 1313
Q 1044 881 1276 642
Q 1509 403 1925 403
Q 2350 403 2579 639
Q 2809 875 2809 1313
Q 2809 1741 2576 1978
Q 2344 2216 1925 2216
z
M 1375 2478
Q 972 2581 745 2862
Q 519 3144 519 3541
Q 519 4097 897 4423
Q 1275 4750 1925 4750
Q 2578 4750 2956 4423
Q 3334 4097 3334 3541
Q 3334 3144 3107 2862
Q 2881 2581 2478 2478
Q 2947 2375 3195 2062
Q 3444 1750 3444 1253
Q 3444 622 3041 265
Q 2638 -91 1925 -91
Q 1213 -91 811 264
Q 409 619 409 1247
Q 409 1747 657 2061
Q 906 2375 1375 2478
z
M 1147 3481
Q 1147 3106 1347 2909
Q 1547 2713 1925 2713
Q 2306 2713 2506 2909
Q 2706 3106 2706 3481
Q 2706 3863 2507 4063
Q 2309 4263 1925 4263
Q 1547 4263 1347 4061
Q 1147 3859 1147 3481
z
" transform="scale(0.015625)"/>
      <path id="DejaVuSansMono-25" d="M 2175 997
Q 2175 753 2339 587
Q 2503 422 2747 422
Q 2988 422 3155 589
Q 3322 756 3322 997
Q 3322 1238 3153 1406
Q 2984 1575 2747 1575
Q 2503 1575 2339 1409
Q 2175 1244 2175 997
z
M 1753 997
Q 1753 1419 2040 1708
Q 2328 1997 2747 1997
Q 2947 1997 3126 1922
Q 3306 1847 3450 1703
Q 3594 1556 3672 1375
Q 3750 1194 3750 997
Q 3750 581 3459 290
Q 3169 0 2747 0
Q 2322 0 2037 286
Q 1753 572 1753 997
z
M 378 1453
L 269 1753
L 3525 3059
L 3653 2759
L 378 1453
z
M 525 3475
Q 525 3228 689 3064
Q 853 2900 1100 2900
Q 1341 2900 1509 3067
Q 1678 3234 1678 3475
Q 1678 3716 1509 3883
Q 1341 4050 1100 4050
Q 859 4050 692 3884
Q 525 3719 525 3475
z
M 103 3475
Q 103 3897 390 4186
Q 678 4475 1100 4475
Q 1300 4475 1483 4400
Q 1666 4325 1806 4184
Q 1947 4044 2023 3861
Q 2100 3678 2100 3475
Q 2100 3056 1809 2767
Q 1519 2478 1100 2478
Q 678 2478 390 2765
Q 103 3053 103 3475
z
" transform="scale(0.015625)"/>
     </defs>
     <use xlink:href="#DejaVuSansMono-2d"/>
     <use xlink:href="#DejaVuSansMono-31" transform="translate(60.205078 0)"/>
     <use xlink:href="#DejaVuSansMono-2e" transform="translate(120.410156 0)"/>
     <use xlink:href="#DejaVuSansMono-30" transform="translate(180.615234 0)"/>
     <use xlink:href="#DejaVuSansMono-38" transform="translate(240.820312 0)"/>
     <use xlink:href="#DejaVuSansMono-25" transform="translate(301.025391 0)"/>
    </g>
   </g>
   <g id="text_13">
    <!-- 0.94% -->
    <g style="fill: #1f2430" transform="translate(413.384844 210.873651) scale(0.1 -0.1)">
     <defs>
      <path id="DejaVuSansMono-39" d="M 1863 2069
Q 2266 2069 2495 2359
Q 2725 2650 2725 3163
Q 2725 3675 2495 3965
Q 2266 4256 1863 4256
Q 1444 4256 1231 3979
Q 1019 3703 1019 3163
Q 1019 2619 1230 2344
Q 1441 2069 1863 2069
z
M 738 97
L 738 678
Q 934 563 1156 502
Q 1378 441 1619 441
Q 2219 441 2526 892
Q 2834 1344 2834 2222
Q 2688 1909 2422 1742
Q 2156 1575 1813 1575
Q 1138 1575 767 1990
Q 397 2406 397 3169
Q 397 3922 776 4336
Q 1156 4750 1850 4750
Q 2663 4750 3041 4165
Q 3419 3581 3419 2328
Q 3419 1150 2964 529
Q 2509 -91 1644 -91
Q 1416 -91 1184 -42
Q 953 6 738 97
z
" transform="scale(0.015625)"/>
      <path id="DejaVuSansMono-34" d="M 2297 4091
L 825 1625
L 2297 1625
L 2297 4091
z
M 2194 4666
L 2925 4666
L 2925 1625
L 3547 1625
L 3547 1113
L 2925 1113
L 2925 0
L 2297 0
L 2297 1113
L 319 1113
L 319 1709
L 2194 4666
z
" transform="scale(0.015625)"/>
     </defs>
     <use xlink:href="#DejaVuSansMono-30"/>
     <use xlink:href="#DejaVuSansMono-2e" transform="translate(60.205078 0)"/>
     <use xlink:href="#DejaVuSansMono-39" transform="translate(120.410156 0)"/>
     <use xlink:href="#DejaVuSansMono-34" transform="translate(180.615234 0)"/>
     <use xlink:href="#DejaVuSansMono-25" transform="translate(240.820312 0)"/>
    </g>
   </g>
   <g id="text_14">
    <!-- 2.26% -->
    <g style="fill: #1f2430" transform="translate(654.631597 102.674199) scale(0.1 -0.1)">
     <defs>
      <path id="DejaVuSansMono-32" d="M 1166 531
L 3309 531
L 3309 0
L 475 0
L 475 531
Q 1059 1147 1496 1619
Q 1934 2091 2100 2284
Q 2413 2666 2522 2902
Q 2631 3138 2631 3384
Q 2631 3775 2401 3997
Q 2172 4219 1772 4219
Q 1488 4219 1175 4116
Q 863 4013 513 3803
L 513 4441
Q 834 4594 1145 4672
Q 1456 4750 1759 4750
Q 2444 4750 2861 4386
Q 3278 4022 3278 3431
Q 3278 3131 3139 2831
Q 3000 2531 2688 2169
Q 2513 1966 2180 1606
Q 1847 1247 1166 531
z
" transform="scale(0.015625)"/>
      <path id="DejaVuSansMono-36" d="M 3097 4563
L 3097 3981
Q 2900 4097 2678 4158
Q 2456 4219 2216 4219
Q 1616 4219 1306 3767
Q 997 3316 997 2438
Q 1147 2750 1412 2917
Q 1678 3084 2022 3084
Q 2697 3084 3067 2670
Q 3438 2256 3438 1497
Q 3438 741 3056 325
Q 2675 -91 1984 -91
Q 1172 -91 794 492
Q 416 1075 416 2328
Q 416 3509 870 4129
Q 1325 4750 2188 4750
Q 2419 4750 2650 4701
Q 2881 4653 3097 4563
z
M 1972 2591
Q 1569 2591 1337 2300
Q 1106 2009 1106 1497
Q 1106 984 1337 693
Q 1569 403 1972 403
Q 2391 403 2603 679
Q 2816 956 2816 1497
Q 2816 2041 2603 2316
Q 2391 2591 1972 2591
z
" transform="scale(0.015625)"/>
     </defs>
     <use xlink:href="#DejaVuSansMono-32"/>
     <use xlink:href="#DejaVuSansMono-2e" transform="translate(60.205078 0)"/>
     <use xlink:href="#DejaVuSansMono-32" transform="translate(120.410156 0)"/>
     <use xlink:href="#DejaVuSansMono-36" transform="translate(180.615234 0)"/>
     <use xlink:href="#DejaVuSansMono-25" transform="translate(240.820312 0)"/>
    </g>
   </g>
  </g>
  <g id="text_15">
   <!-- Liquidity-state bins are weak state diagnostics -->
   <g style="fill: #1f2430" transform="translate(22.355625 19.045) scale(0.16 -0.16)">
    <defs>
     <path id="SegoeUI-Semibold-4c" d="M 3034 0
L 553 0
L 553 4481
L 1297 4481
L 1297 628
L 3034 628
L 3034 0
z
" transform="scale(0.015625)"/>
     <path id="SegoeUI-Semibold-69" d="M 838 3872
Q 659 3872 532 3987
Q 406 4103 406 4281
Q 406 4459 532 4578
Q 659 4697 838 4697
Q 1022 4697 1150 4578
Q 1278 4459 1278 4281
Q 1278 4113 1150 3992
Q 1022 3872 838 3872
z
M 1197 0
L 472 0
L 472 3200
L 1197 3200
L 1197 0
z
" transform="scale(0.015625)"/>
     <path id="SegoeUI-Semibold-71" d="M 3381 -1472
L 2656 -1472
L 2656 550
L 2644 550
Q 2316 -75 1572 -75
Q 981 -75 623 354
Q 266 784 266 1525
Q 266 2322 658 2798
Q 1050 3275 1713 3275
Q 2356 3275 2644 2756
L 2656 2756
L 2656 3200
L 3381 3200
L 3381 -1472
z
M 2666 1456
L 2666 1869
Q 2666 2216 2442 2456
Q 2219 2697 1875 2697
Q 1472 2697 1239 2395
Q 1006 2094 1006 1544
Q 1006 1056 1231 778
Q 1456 500 1813 500
Q 2203 500 2434 772
Q 2666 1044 2666 1456
z
" transform="scale(0.015625)"/>
     <path id="SegoeUI-Semibold-75" d="M 3263 0
L 2538 0
L 2538 506
L 2525 506
Q 2209 -75 1544 -75
Q 409 -75 409 1288
L 409 3200
L 1134 3200
L 1134 1363
Q 1134 500 1800 500
Q 2122 500 2330 737
Q 2538 975 2538 1359
L 2538 3200
L 3263 3200
L 3263 0
z
" transform="scale(0.015625)"/>
     <path id="SegoeUI-Semibold-64" d="M 3381 0
L 2656 0
L 2656 544
L 2644 544
Q 2294 -75 1566 -75
Q 975 -75 620 354
Q 266 784 266 1525
Q 266 2319 658 2797
Q 1050 3275 1703 3275
Q 2350 3275 2644 2756
L 2656 2756
L 2656 4738
L 3381 4738
L 3381 0
z
M 2666 1463
L 2666 1881
Q 2666 2222 2444 2459
Q 2222 2697 1878 2697
Q 1472 2697 1239 2394
Q 1006 2091 1006 1553
Q 1006 1066 1229 783
Q 1453 500 1831 500
Q 2203 500 2434 773
Q 2666 1047 2666 1463
z
" transform="scale(0.015625)"/>
     <path id="SegoeUI-Semibold-74" d="M 2159 34
Q 1947 -72 1600 -72
Q 669 -72 669 822
L 669 2631
L 134 2631
L 134 3200
L 669 3200
L 669 3941
L 1394 4147
L 1394 3200
L 2159 3200
L 2159 2631
L 1394 2631
L 1394 1031
Q 1394 747 1497 625
Q 1600 503 1841 503
Q 2025 503 2159 609
L 2159 34
z
" transform="scale(0.015625)"/>
     <path id="SegoeUI-Semibold-79" d="M 3244 3200
L 1800 -513
Q 1350 -1506 538 -1506
Q 309 -1506 156 -1466
L 156 -863
Q 328 -919 469 -919
Q 875 -919 1075 -519
L 1291 6
L 19 3200
L 822 3200
L 1584 875
Q 1597 831 1641 644
L 1656 644
Q 1672 716 1713 869
L 2513 3200
L 3244 3200
z
" transform="scale(0.015625)"/>
     <path id="SegoeUI-Semibold-2d" d="M 2156 1481
L 450 1481
L 450 2016
L 2156 2016
L 2156 1481
z
" transform="scale(0.015625)"/>
     <path id="SegoeUI-Semibold-73" d="M 272 100
L 272 772
Q 678 463 1169 463
Q 1825 463 1825 850
Q 1825 959 1769 1036
Q 1713 1113 1617 1172
Q 1522 1231 1392 1278
Q 1263 1325 1103 1384
Q 906 1463 748 1550
Q 591 1638 486 1748
Q 381 1859 328 2000
Q 275 2141 275 2328
Q 275 2559 384 2736
Q 494 2913 678 3033
Q 863 3153 1097 3214
Q 1331 3275 1581 3275
Q 2025 3275 2375 3141
L 2375 2506
Q 2038 2738 1600 2738
Q 1463 2738 1352 2709
Q 1241 2681 1162 2631
Q 1084 2581 1040 2511
Q 997 2441 997 2356
Q 997 2253 1040 2181
Q 1084 2109 1170 2054
Q 1256 2000 1376 1954
Q 1497 1909 1653 1856
Q 1859 1772 2023 1684
Q 2188 1597 2303 1486
Q 2419 1375 2481 1229
Q 2544 1084 2544 884
Q 2544 641 2431 459
Q 2319 278 2131 159
Q 1944 41 1698 -17
Q 1453 -75 1181 -75
Q 656 -75 272 100
z
" transform="scale(0.015625)"/>
     <path id="SegoeUI-Semibold-61" d="M 2928 0
L 2225 0
L 2225 500
L 2213 500
Q 1881 -75 1241 -75
Q 769 -75 501 181
Q 234 438 234 859
Q 234 1766 1278 1916
L 2228 2050
Q 2228 2734 1578 2734
Q 1006 2734 547 2341
L 547 2975
Q 1053 3275 1716 3275
Q 2928 3275 2928 2081
L 2928 0
z
M 2228 1572
L 1556 1478
Q 1244 1438 1086 1327
Q 928 1216 928 938
Q 928 734 1073 604
Q 1219 475 1463 475
Q 1794 475 2011 708
Q 2228 941 2228 1294
L 2228 1572
z
" transform="scale(0.015625)"/>
     <path id="SegoeUI-Semibold-65" d="M 3181 1403
L 1000 1403
Q 1013 959 1273 718
Q 1534 478 1991 478
Q 2503 478 2931 784
L 2931 200
Q 2494 -75 1775 -75
Q 1069 -75 667 361
Q 266 797 266 1588
Q 266 2334 708 2804
Q 1150 3275 1806 3275
Q 2463 3275 2822 2853
Q 3181 2431 3181 1681
L 3181 1403
z
M 2481 1916
Q 2478 2306 2297 2523
Q 2116 2741 1797 2741
Q 1484 2741 1267 2512
Q 1050 2284 1000 1916
L 2481 1916
z
" transform="scale(0.015625)"/>
     <path id="SegoeUI-Semibold-20" transform="scale(0.015625)"/>
     <path id="SegoeUI-Semibold-62" d="M 1209 463
L 1197 463
L 1197 0
L 472 0
L 472 4738
L 1197 4738
L 1197 2638
L 1209 2638
Q 1581 3275 2297 3275
Q 2903 3275 3245 2845
Q 3588 2416 3588 1694
Q 3588 891 3203 408
Q 2819 -75 2153 -75
Q 1528 -75 1209 463
z
M 1191 1734
L 1191 1338
Q 1191 988 1414 744
Q 1638 500 1981 500
Q 2384 500 2614 814
Q 2844 1128 2844 1691
Q 2844 2163 2630 2430
Q 2416 2697 2050 2697
Q 1663 2697 1427 2422
Q 1191 2147 1191 1734
z
" transform="scale(0.015625)"/>
     <path id="SegoeUI-Semibold-6e" d="M 3322 0
L 2597 0
L 2597 1803
Q 2597 2700 1963 2700
Q 1631 2700 1415 2451
Q 1200 2203 1200 1825
L 1200 0
L 472 0
L 472 3200
L 1200 3200
L 1200 2669
L 1213 2669
Q 1572 3275 2250 3275
Q 2772 3275 3047 2936
Q 3322 2597 3322 1956
L 3322 0
z
" transform="scale(0.015625)"/>
     <path id="SegoeUI-Semibold-72" d="M 2328 2509
Q 2197 2613 1950 2613
Q 1628 2613 1412 2322
Q 1197 2031 1197 1531
L 1197 0
L 472 0
L 472 3200
L 1197 3200
L 1197 2541
L 1209 2541
Q 1316 2878 1536 3067
Q 1756 3256 2028 3256
Q 2225 3256 2328 3197
L 2328 2509
z
" transform="scale(0.015625)"/>
     <path id="SegoeUI-Semibold-77" d="M 4775 3200
L 3831 0
L 3072 0
L 2491 2169
Q 2456 2294 2447 2450
L 2434 2450
Q 2428 2344 2378 2175
L 1747 0
L 1003 0
L 63 3200
L 813 3200
L 1394 894
Q 1422 791 1431 619
L 1453 619
Q 1463 750 1503 900
L 2150 3200
L 2831 3200
L 3406 884
Q 3434 775 3447 609
L 3469 609
Q 3475 725 3516 884
L 4084 3200
L 4775 3200
z
" transform="scale(0.015625)"/>
     <path id="SegoeUI-Semibold-6b" d="M 3375 0
L 2456 0
L 1213 1538
L 1200 1538
L 1200 0
L 472 0
L 472 4738
L 1200 4738
L 1200 1734
L 1213 1734
L 2388 3200
L 3259 3200
L 1938 1656
L 3375 0
z
" transform="scale(0.015625)"/>
     <path id="SegoeUI-Semibold-67" d="M 3384 256
Q 3384 -1506 1613 -1506
Q 988 -1506 522 -1297
L 522 -634
Q 1047 -934 1519 -934
Q 2659 -934 2659 188
L 2659 538
L 2647 538
Q 2288 -75 1566 -75
Q 981 -75 623 351
Q 266 778 266 1497
Q 266 2313 650 2794
Q 1034 3275 1706 3275
Q 2341 3275 2647 2756
L 2659 2756
L 2659 3200
L 3384 3200
L 3384 256
z
M 2666 1466
L 2666 1881
Q 2666 2219 2442 2458
Q 2219 2697 1884 2697
Q 1472 2697 1239 2392
Q 1006 2088 1006 1541
Q 1006 1069 1229 786
Q 1453 503 1822 503
Q 2197 503 2431 773
Q 2666 1044 2666 1466
z
" transform="scale(0.015625)"/>
     <path id="SegoeUI-Semibold-6f" d="M 1891 -75
Q 1150 -75 708 373
Q 266 822 266 1563
Q 266 2369 727 2822
Q 1188 3275 1969 3275
Q 2719 3275 3137 2834
Q 3556 2394 3556 1613
Q 3556 847 3104 386
Q 2653 -75 1891 -75
z
M 1925 2697
Q 1500 2697 1253 2400
Q 1006 2103 1006 1581
Q 1006 1078 1256 789
Q 1506 500 1925 500
Q 2353 500 2583 784
Q 2813 1069 2813 1594
Q 2813 2122 2583 2409
Q 2353 2697 1925 2697
z
" transform="scale(0.015625)"/>
     <path id="SegoeUI-Semibold-63" d="M 2763 147
Q 2378 -75 1853 -75
Q 1141 -75 703 370
Q 266 816 266 1525
Q 266 2316 736 2795
Q 1206 3275 1994 3275
Q 2431 3275 2766 3122
L 2766 2447
Q 2431 2697 2053 2697
Q 1594 2697 1300 2386
Q 1006 2075 1006 1572
Q 1006 1075 1282 787
Q 1559 500 2025 500
Q 2416 500 2763 778
L 2763 147
z
" transform="scale(0.015625)"/>
    </defs>
    <use xlink:href="#SegoeUI-Semibold-4c"/>
    <use xlink:href="#SegoeUI-Semibold-69" transform="translate(48.876953 0)"/>
    <use xlink:href="#SegoeUI-Semibold-71" transform="translate(75 0)"/>
    <use xlink:href="#SegoeUI-Semibold-75" transform="translate(135.253906 0)"/>
    <use xlink:href="#SegoeUI-Semibold-69" transform="translate(193.603516 0)"/>
    <use xlink:href="#SegoeUI-Semibold-64" transform="translate(219.726562 0)"/>
    <use xlink:href="#SegoeUI-Semibold-69" transform="translate(279.980469 0)"/>
    <use xlink:href="#SegoeUI-Semibold-74" transform="translate(306.103516 0)"/>
    <use xlink:href="#SegoeUI-Semibold-79" transform="translate(342.236328 0)"/>
    <use xlink:href="#SegoeUI-Semibold-2d" transform="translate(393.066406 0)"/>
    <use xlink:href="#SegoeUI-Semibold-73" transform="translate(433.251953 0)"/>
    <use xlink:href="#SegoeUI-Semibold-74" transform="translate(476.367188 0)"/>
    <use xlink:href="#SegoeUI-Semibold-61" transform="translate(512.5 0)"/>
    <use xlink:href="#SegoeUI-Semibold-74" transform="translate(564.697266 0)"/>
    <use xlink:href="#SegoeUI-Semibold-65" transform="translate(600.205078 0)"/>
    <use xlink:href="#SegoeUI-Semibold-20" transform="translate(653.330078 0)"/>
    <use xlink:href="#SegoeUI-Semibold-62" transform="translate(680.820312 0)"/>
    <use xlink:href="#SegoeUI-Semibold-69" transform="translate(741.074219 0)"/>
    <use xlink:href="#SegoeUI-Semibold-6e" transform="translate(767.197266 0)"/>
    <use xlink:href="#SegoeUI-Semibold-73" transform="translate(825.546875 0)"/>
    <use xlink:href="#SegoeUI-Semibold-20" transform="translate(868.662109 0)"/>
    <use xlink:href="#SegoeUI-Semibold-61" transform="translate(896.152344 0)"/>
    <use xlink:href="#SegoeUI-Semibold-72" transform="translate(948.349609 0)"/>
    <use xlink:href="#SegoeUI-Semibold-65" transform="translate(984.486328 0)"/>
    <use xlink:href="#SegoeUI-Semibold-20" transform="translate(1037.611328 0)"/>
    <use xlink:href="#SegoeUI-Semibold-77" transform="translate(1065.101562 0)"/>
    <use xlink:href="#SegoeUI-Semibold-65" transform="translate(1140.236328 0)"/>
    <use xlink:href="#SegoeUI-Semibold-61" transform="translate(1193.361328 0)"/>
    <use xlink:href="#SegoeUI-Semibold-6b" transform="translate(1245.558594 0)"/>
    <use xlink:href="#SegoeUI-Semibold-20" transform="translate(1298.048828 0)"/>
    <use xlink:href="#SegoeUI-Semibold-73" transform="translate(1325.539062 0)"/>
    <use xlink:href="#SegoeUI-Semibold-74" transform="translate(1368.654297 0)"/>
    <use xlink:href="#SegoeUI-Semibold-61" transform="translate(1404.787109 0)"/>
    <use xlink:href="#SegoeUI-Semibold-74" transform="translate(1456.984375 0)"/>
    <use xlink:href="#SegoeUI-Semibold-65" transform="translate(1492.492188 0)"/>
    <use xlink:href="#SegoeUI-Semibold-20" transform="translate(1545.617188 0)"/>
    <use xlink:href="#SegoeUI-Semibold-64" transform="translate(1573.107422 0)"/>
    <use xlink:href="#SegoeUI-Semibold-69" transform="translate(1633.361328 0)"/>
    <use xlink:href="#SegoeUI-Semibold-61" transform="translate(1659.484375 0)"/>
    <use xlink:href="#SegoeUI-Semibold-67" transform="translate(1711.681641 0)"/>
    <use xlink:href="#SegoeUI-Semibold-6e" transform="translate(1771.935547 0)"/>
    <use xlink:href="#SegoeUI-Semibold-6f" transform="translate(1830.285156 0)"/>
    <use xlink:href="#SegoeUI-Semibold-73" transform="translate(1890.001953 0)"/>
    <use xlink:href="#SegoeUI-Semibold-74" transform="translate(1933.117188 0)"/>
    <use xlink:href="#SegoeUI-Semibold-69" transform="translate(1969.25 0)"/>
    <use xlink:href="#SegoeUI-Semibold-63" transform="translate(1995.373047 0)"/>
    <use xlink:href="#SegoeUI-Semibold-73" transform="translate(2042.394531 0)"/>
   </g>
  </g>
  <g id="text_16">
   <!-- Weekly regime summaries retain endogenous-proxy caveats. -->
   <g style="fill: #6f768a" transform="translate(22.355625 39.643437) scale(0.11 -0.11)">
    <defs>
     <path id="SegoeUI-57" d="M 5900 4481
L 4634 0
L 4019 0
L 3097 3275
Q 3038 3484 3025 3731
L 3013 3731
Q 2994 3500 2931 3281
L 2003 0
L 1394 0
L 81 4481
L 659 4481
L 1613 1044
Q 1672 828 1688 594
L 1703 594
Q 1719 759 1800 1044
L 2791 4481
L 3294 4481
L 4244 1019
Q 4294 841 4319 600
L 4331 600
Q 4344 763 4416 1031
L 5331 4481
L 5900 4481
z
" transform="scale(0.015625)"/>
     <path id="SegoeUI-6b" d="M 3175 0
L 2456 0
L 1044 1538
L 1031 1538
L 1031 0
L 519 0
L 519 4738
L 1031 4738
L 1031 1734
L 1044 1734
L 2388 3200
L 3059 3200
L 1575 1656
L 3175 0
z
" transform="scale(0.015625)"/>
     <path id="SegoeUI-79" d="M 3066 3200
L 1594 -513
Q 1200 -1506 488 -1506
Q 288 -1506 153 -1466
L 153 -1006
Q 319 -1063 456 -1063
Q 844 -1063 1038 -600
L 1294 6
L 44 3200
L 613 3200
L 1478 738
Q 1494 691 1544 494
L 1563 494
Q 1578 569 1625 731
L 2534 3200
L 3066 3200
z
" transform="scale(0.015625)"/>
     <path id="SegoeUI-20" transform="scale(0.015625)"/>
     <path id="SegoeUI-2d" d="M 2156 1581
L 450 1581
L 450 1984
L 2156 1984
L 2156 1581
z
" transform="scale(0.015625)"/>
     <path id="SegoeUI-76" d="M 3034 3200
L 1759 0
L 1256 0
L 44 3200
L 606 3200
L 1419 875
Q 1509 619 1531 428
L 1544 428
Q 1575 669 1644 863
L 2494 3200
L 3034 3200
z
" transform="scale(0.015625)"/>
    </defs>
    <use xlink:href="#SegoeUI-57"/>
    <use xlink:href="#SegoeUI-65" transform="translate(91.033203 0)"/>
    <use xlink:href="#SegoeUI-65" transform="translate(143.328125 0)"/>
    <use xlink:href="#SegoeUI-6b" transform="translate(195.623047 0)"/>
    <use xlink:href="#SegoeUI-6c" transform="translate(245.330078 0)"/>
    <use xlink:href="#SegoeUI-79" transform="translate(269.548828 0)"/>
    <use xlink:href="#SegoeUI-20" transform="translate(317.9375 0)"/>
    <use xlink:href="#SegoeUI-72" transform="translate(345.330078 0)"/>
    <use xlink:href="#SegoeUI-65" transform="translate(378.720703 0)"/>
    <use xlink:href="#SegoeUI-67" transform="translate(431.015625 0)"/>
    <use xlink:href="#SegoeUI-69" transform="translate(489.902344 0)"/>
    <use xlink:href="#SegoeUI-6d" transform="translate(514.121094 0)"/>
    <use xlink:href="#SegoeUI-65" transform="translate(600.253906 0)"/>
    <use xlink:href="#SegoeUI-20" transform="translate(652.548828 0)"/>
    <use xlink:href="#SegoeUI-73" transform="translate(679.941406 0)"/>
    <use xlink:href="#SegoeUI-75" transform="translate(722.373047 0)"/>
    <use xlink:href="#SegoeUI-6d" transform="translate(778.964844 0)"/>
    <use xlink:href="#SegoeUI-6d" transform="translate(865.097656 0)"/>
    <use xlink:href="#SegoeUI-61" transform="translate(951.230469 0)"/>
    <use xlink:href="#SegoeUI-72" transform="translate(1002.109375 0)"/>
    <use xlink:href="#SegoeUI-69" transform="translate(1036.875 0)"/>
    <use xlink:href="#SegoeUI-65" transform="translate(1061.09375 0)"/>
    <use xlink:href="#SegoeUI-73" transform="translate(1113.388672 0)"/>
    <use xlink:href="#SegoeUI-20" transform="translate(1155.820312 0)"/>
    <use xlink:href="#SegoeUI-72" transform="translate(1183.212891 0)"/>
    <use xlink:href="#SegoeUI-65" transform="translate(1216.603516 0)"/>
    <use xlink:href="#SegoeUI-74" transform="translate(1268.898438 0)"/>
    <use xlink:href="#SegoeUI-61" transform="translate(1302.785156 0)"/>
    <use xlink:href="#SegoeUI-69" transform="translate(1353.664062 0)"/>
    <use xlink:href="#SegoeUI-6e" transform="translate(1377.882812 0)"/>
    <use xlink:href="#SegoeUI-20" transform="translate(1434.474609 0)"/>
    <use xlink:href="#SegoeUI-65" transform="translate(1461.867188 0)"/>
    <use xlink:href="#SegoeUI-6e" transform="translate(1514.162109 0)"/>
    <use xlink:href="#SegoeUI-64" transform="translate(1570.753906 0)"/>
    <use xlink:href="#SegoeUI-6f" transform="translate(1629.640625 0)"/>
    <use xlink:href="#SegoeUI-67" transform="translate(1688.234375 0)"/>
    <use xlink:href="#SegoeUI-65" transform="translate(1747.121094 0)"/>
    <use xlink:href="#SegoeUI-6e" transform="translate(1799.416016 0)"/>
    <use xlink:href="#SegoeUI-6f" transform="translate(1856.007812 0)"/>
    <use xlink:href="#SegoeUI-75" transform="translate(1914.601562 0)"/>
    <use xlink:href="#SegoeUI-73" transform="translate(1971.193359 0)"/>
    <use xlink:href="#SegoeUI-2d" transform="translate(2013.625 0)"/>
    <use xlink:href="#SegoeUI-70" transform="translate(2053.615234 0)"/>
    <use xlink:href="#SegoeUI-72" transform="translate(2112.404297 0)"/>
    <use xlink:href="#SegoeUI-6f" transform="translate(2145.794922 0)"/>
    <use xlink:href="#SegoeUI-78" transform="translate(2203.138672 0)"/>
    <use xlink:href="#SegoeUI-79" transform="translate(2249.037109 0)"/>
    <use xlink:href="#SegoeUI-20" transform="translate(2297.425781 0)"/>
    <use xlink:href="#SegoeUI-63" transform="translate(2324.818359 0)"/>
    <use xlink:href="#SegoeUI-61" transform="translate(2371.009766 0)"/>
    <use xlink:href="#SegoeUI-76" transform="translate(2421.888672 0)"/>
    <use xlink:href="#SegoeUI-65" transform="translate(2469.164062 0)"/>
    <use xlink:href="#SegoeUI-61" transform="translate(2521.458984 0)"/>
    <use xlink:href="#SegoeUI-74" transform="translate(2572.337891 0)"/>
    <use xlink:href="#SegoeUI-73" transform="translate(2606.224609 0)"/>
    <use xlink:href="#SegoeUI-2e" transform="translate(2648.65625 0)"/>
   </g>
  </g>
 </g>
 <defs>
  <clipPath id="p9a8ec405f5">
   <rect x="56.915625" y="92.25" width="743.04" height="301.32"/>
  </clipPath>
 </defs>
</svg>
