<?xml version="1.0" encoding="utf-8" standalone="no"?>
<!DOCTYPE svg PUBLIC "-//W3C//DTD SVG 1.1//EN"
  "http://www.w3.org/Graphics/SVG/1.1/DTD/svg11.dtd">
<svg xmlns:xlink="http://www.w3.org/1999/xlink" width="792pt" height="413.973125pt" viewBox="0 0 792 413.973125" xmlns="http://www.w3.org/2000/svg" version="1.1">
 <metadata>
  <rdf:RDF xmlns:dc="http://purl.org/dc/elements/1.1/" xmlns:cc="http://creativecommons.org/ns#" xmlns:rdf="http://www.w3.org/1999/02/22-rdf-syntax-ns#">
   <cc:Work>
    <dc:type rdf:resource="http://purl.org/dc/dcmitype/StillImage"/>
    <dc:format>image/svg+xml</dc:format>
    <dc:creator>
     <cc:Agent>
      <dc:title>Matplotlib v3.10.8, https://matplotlib.org/</dc:title>
     </cc:Agent>
    </dc:creator>
   </cc:Work>
  </rdf:RDF>
 </metadata>
 <defs>
  <style type="text/css">*{stroke-linejoin: round; stroke-linecap: butt}</style>
 </defs>
 <g id="figure_1">
  <g id="patch_1">
   <path d="M 0 413.973125
L 792 413.973125
L 792 0
L 0 0
z
" style="fill: #ffffff"/>
  </g>
  <g id="axes_1">
   <g id="patch_2">
    <path d="M 41.76 393.57
L 784.8 393.57
L 784.8 92.25
L 41.76 92.25
z
" style="fill: #ffffff"/>
   </g>
   <g id="matplotlib.axis_1">
    <g id="xtick_1">
     <g id="text_1">
      <!-- BTC -->
      <g style="fill: #6f768a" transform="translate(217.511605 404.473125) scale(0.1 -0.1)">
       <defs>
        <path id="SegoeUI-42" d="M 588 0
L 588 4481
L 1863 4481
Q 2444 4481 2784 4197
Q 3125 3913 3125 3456
Q 3125 3075 2919 2794
Q 2713 2513 2350 2394
L 2350 2381
Q 2803 2328 3075 2039
Q 3347 1750 3347 1288
Q 3347 713 2934 356
Q 2522 0 1894 0
L 588 0
z
M 1113 4006
L 1113 2559
L 1650 2559
Q 2081 2559 2328 2767
Q 2575 2975 2575 3353
Q 2575 4006 1716 4006
L 1113 4006
z
M 1113 2088
L 1113 475
L 1825 475
Q 2288 475 2542 694
Q 2797 913 2797 1294
Q 2797 2088 1716 2088
L 1113 2088
z
" transform="scale(0.015625)"/>
        <path id="SegoeUI-54" d="M 3238 4006
L 1944 4006
L 1944 0
L 1419 0
L 1419 4006
L 128 4006
L 128 4481
L 3238 4481
L 3238 4006
z
" transform="scale(0.015625)"/>
        <path id="SegoeUI-43" d="M 3638 188
Q 3141 -75 2400 -75
Q 1444 -75 869 540
Q 294 1156 294 2156
Q 294 3231 941 3893
Q 1588 4556 2581 4556
Q 3219 4556 3638 4372
L 3638 3813
Q 3156 4081 2575 4081
Q 1803 4081 1323 3565
Q 844 3050 844 2188
Q 844 1369 1292 883
Q 1741 397 2469 397
Q 3144 397 3638 697
L 3638 188
z
" transform="scale(0.015625)"/>
       </defs>
       <use xlink:href="#SegoeUI-42"/>
       <use xlink:href="#SegoeUI-54" transform="translate(52.824219 0)"/>
       <use xlink:href="#SegoeUI-43" transform="translate(100.716797 0)"/>
      </g>
     </g>
    </g>
    <g id="xtick_2">
     <g id="text_2">
      <!-- ETH -->
      <g style="fill: #6f768a" transform="translate(592.204645 404.473125) scale(0.1 -0.1)">
       <defs>
        <path id="SegoeUI-45" d="M 2963 0
L 588 0
L 588 4481
L 2863 4481
L 2863 4006
L 1113 4006
L 1113 2516
L 2731 2516
L 2731 2044
L 1113 2044
L 1113 475
L 2963 475
L 2963 0
z
" transform="scale(0.015625)"/>
        <path id="SegoeUI-48" d="M 3956 0
L 3431 0
L 3431 2044
L 1113 2044
L 1113 0
L 588 0
L 588 4481
L 1113 4481
L 1113 2516
L 3431 2516
L 3431 4481
L 3956 4481
L 3956 0
z
" transform="scale(0.015625)"/>
       </defs>
       <use xlink:href="#SegoeUI-45"/>
       <use xlink:href="#SegoeUI-54" transform="translate(50.835938 0)"/>
       <use xlink:href="#SegoeUI-48" transform="translate(103.228516 0)"/>
      </g>
     </g>
    </g>
   </g>
   <g id="matplotlib.axis_2">
    <g id="ytick_1">
     <g id="line2d_1">
      <path d="M 41.76 355.716649
L 784.8 355.716649
" clip-path="url(#p8343ad5ad8)" style="fill: none; stroke: #e8ebf2; stroke-width: 0.8; stroke-linecap: round"/>
     </g>
     <g id="text_3">
      <!-- 0.0 -->
      <g style="fill: #6f768a" transform="translate(25.31 359.418212) scale(0.1 -0.1)">
       <defs>
        <path id="SegoeUI-30" d="M 3188 2259
Q 3188 1697 3086 1262
Q 2984 828 2792 529
Q 2600 231 2320 76
Q 2041 -78 1684 -78
Q 1347 -78 1083 70
Q 819 219 637 503
Q 456 788 362 1202
Q 269 1616 269 2150
Q 269 2738 367 3188
Q 466 3638 656 3942
Q 847 4247 1130 4401
Q 1413 4556 1778 4556
Q 3188 4556 3188 2259
z
M 2663 2209
Q 2663 4122 1753 4122
Q 794 4122 794 2175
Q 794 359 1734 359
Q 2663 359 2663 2209
z
" transform="scale(0.015625)"/>
        <path id="SegoeUI-2e" d="M 697 -69
Q 553 -69 451 34
Q 350 138 350 281
Q 350 425 451 529
Q 553 634 697 634
Q 844 634 947 529
Q 1050 425 1050 281
Q 1050 138 947 34
Q 844 -69 697 -69
z
" transform="scale(0.015625)"/>
       </defs>
       <use xlink:href="#SegoeUI-30"/>
       <use xlink:href="#SegoeUI-2e" transform="translate(53.90625 0)"/>
       <use xlink:href="#SegoeUI-30" transform="translate(75.585938 0)"/>
      </g>
     </g>
    </g>
    <g id="ytick_2">
     <g id="line2d_2">
      <path d="M 41.76 291.491328
L 784.8 291.491328
" clip-path="url(#p8343ad5ad8)" style="fill: none; stroke: #e8ebf2; stroke-width: 0.8; stroke-linecap: round"/>
     </g>
     <g id="text_4">
      <!-- 0.2 -->
      <g style="fill: #6f768a" transform="translate(25.31 295.19289) scale(0.1 -0.1)">
       <defs>
        <path id="SegoeUI-32" d="M 2413 3306
Q 2413 3513 2348 3666
Q 2284 3819 2173 3920
Q 2063 4022 1913 4072
Q 1763 4122 1588 4122
Q 1438 4122 1294 4081
Q 1150 4041 1014 3969
Q 878 3897 751 3797
Q 625 3697 516 3575
L 516 4125
Q 731 4334 998 4445
Q 1266 4556 1650 4556
Q 1925 4556 2159 4476
Q 2394 4397 2566 4244
Q 2738 4091 2836 3866
Q 2934 3641 2934 3350
Q 2934 3084 2873 2868
Q 2813 2653 2689 2462
Q 2566 2272 2378 2097
Q 2191 1922 1938 1741
Q 1622 1516 1417 1356
Q 1213 1197 1092 1058
Q 972 919 923 780
Q 875 641 875 459
L 3106 459
L 3106 0
L 341 0
L 341 222
Q 341 509 403 728
Q 466 947 609 1144
Q 753 1341 986 1537
Q 1219 1734 1556 1981
Q 1800 2156 1964 2315
Q 2128 2475 2228 2634
Q 2328 2794 2370 2958
Q 2413 3122 2413 3306
z
" transform="scale(0.015625)"/>
       </defs>
       <use xlink:href="#SegoeUI-30"/>
       <use xlink:href="#SegoeUI-2e" transform="translate(53.90625 0)"/>
       <use xlink:href="#SegoeUI-32" transform="translate(75.585938 0)"/>
      </g>
     </g>
    </g>
    <g id="ytick_3">
     <g id="line2d_3">
      <path d="M 41.76 227.266006
L 784.8 227.266006
" clip-path="url(#p8343ad5ad8)" style="fill: none; stroke: #e8ebf2; stroke-width: 0.8; stroke-linecap: round"/>
     </g>
     <g id="text_5">
      <!-- 0.4 -->
      <g style="fill: #6f768a" transform="translate(25.31 230.967569) scale(0.1 -0.1)">
       <defs>
        <path id="SegoeUI-34" d="M 2656 4481
L 2656 1522
L 3231 1522
L 3231 1053
L 2656 1053
L 2656 0
L 2150 0
L 2150 1053
L 44 1053
L 44 1497
Q 338 1828 638 2204
Q 938 2581 1211 2968
Q 1484 3356 1717 3742
Q 1950 4128 2109 4481
L 2656 4481
z
M 622 1522
L 2150 1522
L 2150 3716
Q 1916 3306 1706 2984
Q 1497 2663 1308 2400
Q 1119 2138 947 1925
Q 775 1713 622 1522
z
" transform="scale(0.015625)"/>
       </defs>
       <use xlink:href="#SegoeUI-30"/>
       <use xlink:href="#SegoeUI-2e" transform="translate(53.90625 0)"/>
       <use xlink:href="#SegoeUI-34" transform="translate(75.585938 0)"/>
      </g>
     </g>
    </g>
    <g id="ytick_4">
     <g id="line2d_4">
      <path d="M 41.76 163.040685
L 784.8 163.040685
" clip-path="url(#p8343ad5ad8)" style="fill: none; stroke: #e8ebf2; stroke-width: 0.8; stroke-linecap: round"/>
     </g>
     <g id="text_6">
      <!-- 0.6 -->
      <g style="fill: #6f768a" transform="translate(25.31 166.742248) scale(0.1 -0.1)">
       <defs>
        <path id="SegoeUI-36" d="M 3194 1422
Q 3194 1094 3087 819
Q 2981 544 2793 344
Q 2606 144 2347 33
Q 2088 -78 1784 -78
Q 1447 -78 1180 62
Q 913 203 727 467
Q 541 731 444 1112
Q 347 1494 347 1972
Q 347 2556 476 3032
Q 606 3509 845 3848
Q 1084 4188 1421 4372
Q 1759 4556 2175 4556
Q 2638 4556 2919 4428
L 2919 3944
Q 2572 4122 2188 4122
Q 1888 4122 1647 3987
Q 1406 3853 1234 3608
Q 1063 3363 970 3016
Q 878 2669 878 2244
L 891 2244
Q 1200 2803 1913 2803
Q 2206 2803 2442 2703
Q 2678 2603 2845 2420
Q 3013 2238 3103 1984
Q 3194 1731 3194 1422
z
M 2669 1356
Q 2669 1591 2609 1778
Q 2550 1966 2439 2097
Q 2328 2228 2165 2298
Q 2003 2369 1797 2369
Q 1606 2369 1443 2297
Q 1281 2225 1162 2101
Q 1044 1978 976 1814
Q 909 1650 909 1466
Q 909 1234 975 1032
Q 1041 831 1159 681
Q 1278 531 1442 445
Q 1606 359 1806 359
Q 2000 359 2159 432
Q 2319 506 2431 637
Q 2544 769 2606 951
Q 2669 1134 2669 1356
z
" transform="scale(0.015625)"/>
       </defs>
       <use xlink:href="#SegoeUI-30"/>
       <use xlink:href="#SegoeUI-2e" transform="translate(53.90625 0)"/>
       <use xlink:href="#SegoeUI-36" transform="translate(75.585938 0)"/>
      </g>
     </g>
    </g>
    <g id="ytick_5">
     <g id="line2d_5">
      <path d="M 41.76 98.815364
L 784.8 98.815364
" clip-path="url(#p8343ad5ad8)" style="fill: none; stroke: #e8ebf2; stroke-width: 0.8; stroke-linecap: round"/>
     </g>
     <g id="text_7">
      <!-- 0.8 -->
      <g style="fill: #6f768a" transform="translate(25.31 102.516926) scale(0.1 -0.1)">
       <defs>
        <path id="SegoeUI-38" d="M 281 1250
Q 281 1428 337 1608
Q 394 1788 498 1944
Q 603 2100 758 2228
Q 913 2356 1109 2431
Q 819 2594 647 2848
Q 475 3103 475 3413
Q 475 3659 570 3868
Q 666 4078 834 4231
Q 1003 4384 1234 4470
Q 1466 4556 1734 4556
Q 2006 4556 2237 4468
Q 2469 4381 2637 4228
Q 2806 4075 2900 3865
Q 2994 3656 2994 3413
Q 2994 3103 2822 2848
Q 2650 2594 2366 2431
Q 2559 2356 2712 2228
Q 2866 2100 2970 1944
Q 3075 1788 3131 1608
Q 3188 1428 3188 1250
Q 3188 956 3081 712
Q 2975 469 2783 295
Q 2591 122 2323 25
Q 2056 -72 1734 -72
Q 1416 -72 1150 25
Q 884 122 690 295
Q 497 469 389 712
Q 281 956 281 1250
z
M 838 1294
Q 838 1084 902 915
Q 966 747 1083 628
Q 1200 509 1367 445
Q 1534 381 1738 381
Q 1934 381 2100 447
Q 2266 513 2386 631
Q 2506 750 2573 919
Q 2641 1088 2641 1294
Q 2641 1481 2577 1645
Q 2513 1809 2394 1934
Q 2275 2059 2109 2131
Q 1944 2203 1738 2203
Q 1544 2203 1380 2136
Q 1216 2069 1095 1948
Q 975 1828 906 1661
Q 838 1494 838 1294
z
M 997 3372
Q 997 3213 1055 3077
Q 1113 2941 1214 2839
Q 1316 2738 1450 2680
Q 1584 2622 1738 2622
Q 1891 2622 2027 2681
Q 2163 2741 2263 2842
Q 2363 2944 2422 3080
Q 2481 3216 2481 3372
Q 2481 3534 2423 3671
Q 2366 3809 2266 3909
Q 2166 4009 2030 4067
Q 1894 4125 1738 4125
Q 1572 4125 1436 4065
Q 1300 4006 1201 3904
Q 1103 3803 1050 3665
Q 997 3528 997 3372
z
" transform="scale(0.015625)"/>
       </defs>
       <use xlink:href="#SegoeUI-30"/>
       <use xlink:href="#SegoeUI-2e" transform="translate(53.90625 0)"/>
       <use xlink:href="#SegoeUI-38" transform="translate(75.585938 0)"/>
      </g>
     </g>
    </g>
    <g id="text_8">
     <!-- Correlation with return -->
     <g style="fill: #1f2430" transform="translate(18.55 302.813437) rotate(-90) scale(0.12 -0.12)">
      <defs>
       <path id="SegoeUI-6f" d="M 1856 -75
Q 1147 -75 723 373
Q 300 822 300 1563
Q 300 2369 740 2822
Q 1181 3275 1931 3275
Q 2647 3275 3048 2834
Q 3450 2394 3450 1613
Q 3450 847 3017 386
Q 2584 -75 1856 -75
z
M 1894 2844
Q 1400 2844 1112 2508
Q 825 2172 825 1581
Q 825 1013 1115 684
Q 1406 356 1894 356
Q 2391 356 2658 678
Q 2925 1000 2925 1594
Q 2925 2194 2658 2519
Q 2391 2844 1894 2844
z
" transform="scale(0.015625)"/>
       <path id="SegoeUI-72" d="M 2188 2681
Q 2053 2784 1800 2784
Q 1472 2784 1251 2475
Q 1031 2166 1031 1631
L 1031 0
L 519 0
L 519 3200
L 1031 3200
L 1031 2541
L 1044 2541
Q 1153 2878 1378 3067
Q 1603 3256 1881 3256
Q 2081 3256 2188 3213
L 2188 2681
z
" transform="scale(0.015625)"/>
       <path id="SegoeUI-65" d="M 3091 1472
L 831 1472
Q 844 938 1119 647
Q 1394 356 1875 356
Q 2416 356 2869 713
L 2869 231
Q 2447 -75 1753 -75
Q 1075 -75 687 361
Q 300 797 300 1588
Q 300 2334 723 2804
Q 1147 3275 1775 3275
Q 2403 3275 2747 2869
Q 3091 2463 3091 1741
L 3091 1472
z
M 2566 1906
Q 2563 2350 2352 2597
Q 2141 2844 1766 2844
Q 1403 2844 1150 2584
Q 897 2325 838 1906
L 2566 1906
z
" transform="scale(0.015625)"/>
       <path id="SegoeUI-6c" d="M 1031 0
L 519 0
L 519 4738
L 1031 4738
L 1031 0
z
" transform="scale(0.015625)"/>
       <path id="SegoeUI-61" d="M 2809 0
L 2297 0
L 2297 500
L 2284 500
Q 1950 -75 1300 -75
Q 822 -75 551 178
Q 281 431 281 850
Q 281 1747 1338 1894
L 2297 2028
Q 2297 2844 1638 2844
Q 1059 2844 594 2450
L 594 2975
Q 1066 3275 1681 3275
Q 2809 3275 2809 2081
L 2809 0
z
M 2297 1619
L 1525 1513
Q 1169 1463 987 1336
Q 806 1209 806 888
Q 806 653 973 504
Q 1141 356 1419 356
Q 1800 356 2048 623
Q 2297 891 2297 1300
L 2297 1619
z
" transform="scale(0.015625)"/>
       <path id="SegoeUI-74" d="M 2003 31
Q 1822 -69 1525 -69
Q 684 -69 684 869
L 684 2763
L 134 2763
L 134 3200
L 684 3200
L 684 3981
L 1197 4147
L 1197 3200
L 2003 3200
L 2003 2763
L 1197 2763
L 1197 959
Q 1197 638 1306 500
Q 1416 363 1669 363
Q 1863 363 2003 469
L 2003 31
z
" transform="scale(0.015625)"/>
       <path id="SegoeUI-69" d="M 781 4013
Q 644 4013 547 4106
Q 450 4200 450 4344
Q 450 4488 547 4583
Q 644 4678 781 4678
Q 922 4678 1020 4583
Q 1119 4488 1119 4344
Q 1119 4206 1020 4109
Q 922 4013 781 4013
z
M 1031 0
L 519 0
L 519 3200
L 1031 3200
L 1031 0
z
" transform="scale(0.015625)"/>
       <path id="SegoeUI-6e" d="M 3175 0
L 2663 0
L 2663 1825
Q 2663 2844 1919 2844
Q 1534 2844 1282 2555
Q 1031 2266 1031 1825
L 1031 0
L 519 0
L 519 3200
L 1031 3200
L 1031 2669
L 1044 2669
Q 1406 3275 2094 3275
Q 2619 3275 2897 2936
Q 3175 2597 3175 1956
L 3175 0
z
" transform="scale(0.015625)"/>
       <path id="SegoeUI-20" transform="scale(0.015625)"/>
       <path id="SegoeUI-77" d="M 4550 3200
L 3591 0
L 3059 0
L 2400 2291
Q 2363 2422 2350 2588
L 2338 2588
Q 2328 2475 2272 2297
L 1556 0
L 1044 0
L 75 3200
L 613 3200
L 1275 794
Q 1306 684 1319 506
L 1344 506
Q 1353 644 1400 800
L 2138 3200
L 2606 3200
L 3269 788
Q 3300 672 3316 500
L 3341 500
Q 3347 622 3394 788
L 4044 3200
L 4550 3200
z
" transform="scale(0.015625)"/>
       <path id="SegoeUI-68" d="M 3175 0
L 2663 0
L 2663 1844
Q 2663 2844 1919 2844
Q 1544 2844 1287 2555
Q 1031 2266 1031 1813
L 1031 0
L 519 0
L 519 4738
L 1031 4738
L 1031 2669
L 1044 2669
Q 1413 3275 2094 3275
Q 3175 3275 3175 1972
L 3175 0
z
" transform="scale(0.015625)"/>
       <path id="SegoeUI-75" d="M 3106 0
L 2594 0
L 2594 506
L 2581 506
Q 2263 -75 1594 -75
Q 450 -75 450 1288
L 450 3200
L 959 3200
L 959 1369
Q 959 356 1734 356
Q 2109 356 2351 632
Q 2594 909 2594 1356
L 2594 3200
L 3106 3200
L 3106 0
z
" transform="scale(0.015625)"/>
      </defs>
      <use xlink:href="#SegoeUI-43"/>
      <use xlink:href="#SegoeUI-6f" transform="translate(61.914062 0)"/>
      <use xlink:href="#SegoeUI-72" transform="translate(120.507812 0)"/>
      <use xlink:href="#SegoeUI-72" transform="translate(155.273438 0)"/>
      <use xlink:href="#SegoeUI-65" transform="translate(188.664062 0)"/>
      <use xlink:href="#SegoeUI-6c" transform="translate(240.958984 0)"/>
      <use xlink:href="#SegoeUI-61" transform="translate(265.177734 0)"/>
      <use xlink:href="#SegoeUI-74" transform="translate(316.056641 0)"/>
      <use xlink:href="#SegoeUI-69" transform="translate(349.943359 0)"/>
      <use xlink:href="#SegoeUI-6f" transform="translate(374.162109 0)"/>
      <use xlink:href="#SegoeUI-6e" transform="translate(432.755859 0)"/>
      <use xlink:href="#SegoeUI-20" transform="translate(489.347656 0)"/>
      <use xlink:href="#SegoeUI-77" transform="translate(516.740234 0)"/>
      <use xlink:href="#SegoeUI-69" transform="translate(589.005859 0)"/>
      <use xlink:href="#SegoeUI-74" transform="translate(613.224609 0)"/>
      <use xlink:href="#SegoeUI-68" transform="translate(647.111328 0)"/>
      <use xlink:href="#SegoeUI-20" transform="translate(703.703125 0)"/>
      <use xlink:href="#SegoeUI-72" transform="translate(731.095703 0)"/>
      <use xlink:href="#SegoeUI-65" transform="translate(764.486328 0)"/>
      <use xlink:href="#SegoeUI-74" transform="translate(816.78125 0)"/>
      <use xlink:href="#SegoeUI-75" transform="translate(850.667969 0)"/>
      <use xlink:href="#SegoeUI-72" transform="translate(907.259766 0)"/>
      <use xlink:href="#SegoeUI-6e" transform="translate(941.775391 0)"/>
     </g>
    </g>
   </g>
   <g id="patch_3">
    <path d="M 75.534545 355.716649
L 375.752727 355.716649
L 375.752727 137.763016
L 75.534545 137.763016
z
" clip-path="url(#p8343ad5ad8)" style="fill: #7a828f; stroke: #464c55; stroke-linejoin: miter"/>
   </g>
   <g id="patch_4">
    <path d="M 75.534545 355.716649
L 375.752727 355.716649
L 375.752727 137.099623
L 75.534545 137.099623
z
" clip-path="url(#p8343ad5ad8)" style="fill: #7a828f; stroke: #464c55; stroke-linejoin: miter"/>
   </g>
   <g id="patch_5">
    <path d="M 75.534545 355.716649
L 375.752727 355.716649
L 375.752727 379.873636
L 75.534545 379.873636
z
" clip-path="url(#p8343ad5ad8)" style="fill: #7a828f; stroke: #464c55; stroke-linejoin: miter"/>
   </g>
   <g id="patch_6">
    <path d="M 450.807273 355.716649
L 751.025455 355.716649
L 751.025455 111.264764
L 450.807273 111.264764
z
" clip-path="url(#p8343ad5ad8)" style="fill: #7a828f; stroke: #464c55; stroke-linejoin: miter"/>
   </g>
   <g id="patch_7">
    <path d="M 450.807273 355.716649
L 751.025455 355.716649
L 751.025455 105.946364
L 450.807273 105.946364
z
" clip-path="url(#p8343ad5ad8)" style="fill: #7a828f; stroke: #464c55; stroke-linejoin: miter"/>
   </g>
   <g id="patch_8">
    <path d="M 450.807273 355.716649
L 751.025455 355.716649
L 751.025455 331.284037
L 450.807273 331.284037
z
" clip-path="url(#p8343ad5ad8)" style="fill: #7a828f; stroke: #464c55; stroke-linejoin: miter"/>
   </g>
   <g id="line2d_6">
    <path d="M 41.76 355.716649
L 784.8 355.716649
" clip-path="url(#p8343ad5ad8)" style="fill: none; stroke: #d7dbe7; stroke-linecap: round"/>
   </g>
   <g id="patch_9">
    <path d="M 41.76 393.57
L 41.76 92.25
" style="fill: none; stroke: #d7dbe7; stroke-width: 1.25; stroke-linejoin: miter; stroke-linecap: square"/>
   </g>
   <g id="patch_10">
    <path d="M 41.76 393.57
L 784.8 393.57
" style="fill: none; stroke: #d7dbe7; stroke-width: 1.25; stroke-linejoin: miter; stroke-linecap: square"/>
   </g>
   <g id="text_9">
    <!-- 0.68 -->
    <g style="fill: #1f2430" transform="translate(213.603011 134.102529) scale(0.1 -0.1)">
     <defs>
      <path id="DejaVuSansMono-30" d="M 1509 2344
Q 1509 2516 1629 2641
Q 1750 2766 1919 2766
Q 2094 2766 2219 2641
Q 2344 2516 2344 2344
Q 2344 2169 2220 2047
Q 2097 1925 1919 1925
Q 1744 1925 1626 2044
Q 1509 2163 1509 2344
z
M 1925 4250
Q 1484 4250 1267 3775
Q 1050 3300 1050 2328
Q 1050 1359 1267 884
Q 1484 409 1925 409
Q 2369 409 2586 884
Q 2803 1359 2803 2328
Q 2803 3300 2586 3775
Q 2369 4250 1925 4250
z
M 1925 4750
Q 2672 4750 3055 4137
Q 3438 3525 3438 2328
Q 3438 1134 3055 521
Q 2672 -91 1925 -91
Q 1178 -91 797 521
Q 416 1134 416 2328
Q 416 3525 797 4137
Q 1178 4750 1925 4750
z
" transform="scale(0.015625)"/>
      <path id="DejaVuSansMono-2e" d="M 1528 953
L 2316 953
L 2316 0
L 1528 0
L 1528 953
z
" transform="scale(0.015625)"/>
      <path id="DejaVuSansMono-36" d="M 3097 4563
L 3097 3981
Q 2900 4097 2678 4158
Q 2456 4219 2216 4219
Q 1616 4219 1306 3767
Q 997 3316 997 2438
Q 1147 2750 1412 2917
Q 1678 3084 2022 3084
Q 2697 3084 3067 2670
Q 3438 2256 3438 1497
Q 3438 741 3056 325
Q 2675 -91 1984 -91
Q 1172 -91 794 492
Q 416 1075 416 2328
Q 416 3509 870 4129
Q 1325 4750 2188 4750
Q 2419 4750 2650 4701
Q 2881 4653 3097 4563
z
M 1972 2591
Q 1569 2591 1337 2300
Q 1106 2009 1106 1497
Q 1106 984 1337 693
Q 1569 403 1972 403
Q 2391 403 2603 679
Q 2816 956 2816 1497
Q 2816 2041 2603 2316
Q 2391 2591 1972 2591
z
" transform="scale(0.015625)"/>
      <path id="DejaVuSansMono-38" d="M 1925 2216
Q 1503 2216 1273 1980
Q 1044 1744 1044 1313
Q 1044 881 1276 642
Q 1509 403 1925 403
Q 2350 403 2579 639
Q 2809 875 2809 1313
Q 2809 1741 2576 1978
Q 2344 2216 1925 2216
z
M 1375 2478
Q 972 2581 745 2862
Q 519 3144 519 3541
Q 519 4097 897 4423
Q 1275 4750 1925 4750
Q 2578 4750 2956 4423
Q 3334 4097 3334 3541
Q 3334 3144 3107 2862
Q 2881 2581 2478 2478
Q 2947 2375 3195 2062
Q 3444 1750 3444 1253
Q 3444 622 3041 265
Q 2638 -91 1925 -91
Q 1213 -91 811 264
Q 409 619 409 1247
Q 409 1747 657 2061
Q 906 2375 1375 2478
z
M 1147 3481
Q 1147 3106 1347 2909
Q 1547 2713 1925 2713
Q 2306 2713 2506 2909
Q 2706 3106 2706 3481
Q 2706 3863 2507 4063
Q 2309 4263 1925 4263
Q 1547 4263 1347 4061
Q 1147 3859 1147 3481
z
" transform="scale(0.015625)"/>
     </defs>
     <use xlink:href="#DejaVuSansMono-30"/>
     <use xlink:href="#DejaVuSansMono-2e" transform="translate(60.205078 0)"/>
     <use xlink:href="#DejaVuSansMono-36" transform="translate(120.410156 0)"/>
     <use xlink:href="#DejaVuSansMono-38" transform="translate(180.615234 0)"/>
    </g>
   </g>
   <g id="text_10">
    <!-- 0.68 -->
    <g style="fill: #1f2430" transform="translate(213.603011 133.439135) scale(0.1 -0.1)">
     <use xlink:href="#DejaVuSansMono-30"/>
     <use xlink:href="#DejaVuSansMono-2e" transform="translate(60.205078 0)"/>
     <use xlink:href="#DejaVuSansMono-36" transform="translate(120.410156 0)"/>
     <use xlink:href="#DejaVuSansMono-38" transform="translate(180.615234 0)"/>
    </g>
   </g>
   <g id="text_11">
    <!-- -0.08 -->
    <g style="fill: #1f2430" transform="translate(210.592855 376.213149) scale(0.1 -0.1)">
     <defs>
      <path id="DejaVuSansMono-2d" d="M 1113 2009
L 2741 2009
L 2741 1497
L 1113 1497
L 1113 2009
z
" transform="scale(0.015625)"/>
     </defs>
     <use xlink:href="#DejaVuSansMono-2d"/>
     <use xlink:href="#DejaVuSansMono-30" transform="translate(60.205078 0)"/>
     <use xlink:href="#DejaVuSansMono-2e" transform="translate(120.410156 0)"/>
     <use xlink:href="#DejaVuSansMono-30" transform="translate(180.615234 0)"/>
     <use xlink:href="#DejaVuSansMono-38" transform="translate(240.820312 0)"/>
    </g>
   </g>
   <g id="text_12">
    <!-- 0.76 -->
    <g style="fill: #1f2430" transform="translate(588.875739 107.604277) scale(0.1 -0.1)">
     <defs>
      <path id="DejaVuSansMono-37" d="M 434 4666
L 3372 4666
L 3372 4397
L 1703 0
L 1044 0
L 2669 4134
L 434 4134
L 434 4666
z
" transform="scale(0.015625)"/>
     </defs>
     <use xlink:href="#DejaVuSansMono-30"/>
     <use xlink:href="#DejaVuSansMono-2e" transform="translate(60.205078 0)"/>
     <use xlink:href="#DejaVuSansMono-37" transform="translate(120.410156 0)"/>
     <use xlink:href="#DejaVuSansMono-36" transform="translate(180.615234 0)"/>
    </g>
   </g>
   <g id="text_13">
    <!-- 0.78 -->
    <g style="fill: #1f2430" transform="translate(588.875739 102.285876) scale(0.1 -0.1)">
     <use xlink:href="#DejaVuSansMono-30"/>
     <use xlink:href="#DejaVuSansMono-2e" transform="translate(60.205078 0)"/>
     <use xlink:href="#DejaVuSansMono-37" transform="translate(120.410156 0)"/>
     <use xlink:href="#DejaVuSansMono-38" transform="translate(180.615234 0)"/>
    </g>
   </g>
   <g id="text_14">
    <!-- 0.08 -->
    <g style="fill: #1f2430" transform="translate(588.875739 327.62355) scale(0.1 -0.1)">
     <use xlink:href="#DejaVuSansMono-30"/>
     <use xlink:href="#DejaVuSansMono-2e" transform="translate(60.205078 0)"/>
     <use xlink:href="#DejaVuSansMono-30" transform="translate(120.410156 0)"/>
     <use xlink:href="#DejaVuSansMono-38" transform="translate(180.615234 0)"/>
    </g>
   </g>
  </g>
  <g id="text_15">
   <!-- Raw USD TVL has explicit valuation-content risk -->
   <g style="fill: #1f2430" transform="translate(7.2 19.045) scale(0.16 -0.16)">
    <defs>
     <path id="SegoeUI-Semibold-52" d="M 4016 0
L 3147 0
L 2431 1200
Q 2334 1366 2242 1483
Q 2150 1600 2054 1675
Q 1959 1750 1846 1784
Q 1734 1819 1594 1819
L 1294 1819
L 1294 0
L 553 0
L 553 4481
L 2028 4481
Q 2344 4481 2609 4406
Q 2875 4331 3072 4179
Q 3269 4028 3380 3801
Q 3491 3575 3491 3272
Q 3491 3034 3420 2836
Q 3350 2638 3220 2483
Q 3091 2328 2908 2218
Q 2725 2109 2497 2050
L 2497 2038
Q 2619 1969 2709 1886
Q 2800 1803 2881 1715
Q 2963 1628 3042 1517
Q 3122 1406 3219 1259
L 4016 0
z
M 1294 3878
L 1294 2422
L 1913 2422
Q 2084 2422 2229 2475
Q 2375 2528 2481 2628
Q 2588 2728 2647 2872
Q 2706 3016 2706 3194
Q 2706 3516 2503 3697
Q 2300 3878 1919 3878
L 1294 3878
z
" transform="scale(0.015625)"/>
     <path id="SegoeUI-Semibold-61" d="M 2928 0
L 2225 0
L 2225 500
L 2213 500
Q 1881 -75 1241 -75
Q 769 -75 501 181
Q 234 438 234 859
Q 234 1766 1278 1916
L 2228 2050
Q 2228 2734 1578 2734
Q 1006 2734 547 2341
L 547 2975
Q 1053 3275 1716 3275
Q 2928 3275 2928 2081
L 2928 0
z
M 2228 1572
L 1556 1478
Q 1244 1438 1086 1327
Q 928 1216 928 938
Q 928 734 1073 604
Q 1219 475 1463 475
Q 1794 475 2011 708
Q 2228 941 2228 1294
L 2228 1572
z
" transform="scale(0.015625)"/>
     <path id="SegoeUI-Semibold-77" d="M 4775 3200
L 3831 0
L 3072 0
L 2491 2169
Q 2456 2294 2447 2450
L 2434 2450
Q 2428 2344 2378 2175
L 1747 0
L 1003 0
L 63 3200
L 813 3200
L 1394 894
Q 1422 791 1431 619
L 1453 619
Q 1463 750 1503 900
L 2150 3200
L 2831 3200
L 3406 884
Q 3434 775 3447 609
L 3469 609
Q 3475 725 3516 884
L 4084 3200
L 4775 3200
z
" transform="scale(0.015625)"/>
     <path id="SegoeUI-Semibold-20" transform="scale(0.015625)"/>
     <path id="SegoeUI-Semibold-55" d="M 4000 1813
Q 4000 -75 2213 -75
Q 500 -75 500 1741
L 500 4481
L 1244 4481
L 1244 1894
Q 1244 575 2269 575
Q 3256 575 3256 1847
L 3256 4481
L 4000 4481
L 4000 1813
z
" transform="scale(0.015625)"/>
     <path id="SegoeUI-Semibold-53" d="M 347 178
L 347 944
Q 450 850 592 775
Q 734 700 893 648
Q 1053 597 1212 569
Q 1372 541 1506 541
Q 1975 541 2204 697
Q 2434 853 2434 1150
Q 2434 1309 2357 1426
Q 2281 1544 2143 1641
Q 2006 1738 1820 1827
Q 1634 1916 1422 2013
Q 1194 2134 997 2259
Q 800 2384 654 2536
Q 509 2688 426 2878
Q 344 3069 344 3325
Q 344 3641 486 3873
Q 628 4106 861 4257
Q 1094 4409 1391 4482
Q 1688 4556 1997 4556
Q 2700 4556 3022 4397
L 3022 3663
Q 2641 3938 2041 3938
Q 1875 3938 1711 3906
Q 1547 3875 1417 3803
Q 1288 3731 1206 3618
Q 1125 3506 1125 3347
Q 1125 3197 1187 3087
Q 1250 2978 1370 2887
Q 1491 2797 1664 2711
Q 1838 2625 2066 2525
Q 2300 2403 2508 2268
Q 2716 2134 2873 1971
Q 3031 1809 3123 1611
Q 3216 1413 3216 1159
Q 3216 819 3078 584
Q 2941 350 2708 203
Q 2475 56 2172 -9
Q 1869 -75 1531 -75
Q 1419 -75 1255 -58
Q 1091 -41 919 -8
Q 747 25 594 72
Q 441 119 347 178
z
" transform="scale(0.015625)"/>
     <path id="SegoeUI-Semibold-44" d="M 553 0
L 553 4481
L 1847 4481
Q 4325 4481 4325 2297
Q 4325 1259 3637 629
Q 2950 0 1794 0
L 553 0
z
M 1294 3850
L 1294 628
L 1888 628
Q 2672 628 3108 1059
Q 3544 1491 3544 2278
Q 3544 3850 1916 3850
L 1294 3850
z
" transform="scale(0.015625)"/>
     <path id="SegoeUI-Semibold-54" d="M 3428 3850
L 2141 3850
L 2141 0
L 1397 0
L 1397 3850
L 113 3850
L 113 4481
L 3428 4481
L 3428 3850
z
" transform="scale(0.015625)"/>
     <path id="SegoeUI-Semibold-56" d="M 4066 4481
L 2456 0
L 1625 0
L 44 4481
L 856 4481
L 1963 1081
Q 2016 919 2044 703
L 2056 703
Q 2078 881 2147 1088
L 3278 4481
L 4066 4481
z
" transform="scale(0.015625)"/>
     <path id="SegoeUI-Semibold-4c" d="M 3034 0
L 553 0
L 553 4481
L 1297 4481
L 1297 628
L 3034 628
L 3034 0
z
" transform="scale(0.015625)"/>
     <path id="SegoeUI-Semibold-68" d="M 3316 0
L 2591 0
L 2591 1750
Q 2591 2700 1956 2700
Q 1638 2700 1419 2425
Q 1200 2150 1200 1722
L 1200 0
L 472 0
L 472 4738
L 1200 4738
L 1200 2669
L 1213 2669
Q 1575 3275 2250 3275
Q 3316 3275 3316 1972
L 3316 0
z
" transform="scale(0.015625)"/>
     <path id="SegoeUI-Semibold-73" d="M 272 100
L 272 772
Q 678 463 1169 463
Q 1825 463 1825 850
Q 1825 959 1769 1036
Q 1713 1113 1617 1172
Q 1522 1231 1392 1278
Q 1263 1325 1103 1384
Q 906 1463 748 1550
Q 591 1638 486 1748
Q 381 1859 328 2000
Q 275 2141 275 2328
Q 275 2559 384 2736
Q 494 2913 678 3033
Q 863 3153 1097 3214
Q 1331 3275 1581 3275
Q 2025 3275 2375 3141
L 2375 2506
Q 2038 2738 1600 2738
Q 1463 2738 1352 2709
Q 1241 2681 1162 2631
Q 1084 2581 1040 2511
Q 997 2441 997 2356
Q 997 2253 1040 2181
Q 1084 2109 1170 2054
Q 1256 2000 1376 1954
Q 1497 1909 1653 1856
Q 1859 1772 2023 1684
Q 2188 1597 2303 1486
Q 2419 1375 2481 1229
Q 2544 1084 2544 884
Q 2544 641 2431 459
Q 2319 278 2131 159
Q 1944 41 1698 -17
Q 1453 -75 1181 -75
Q 656 -75 272 100
z
" transform="scale(0.015625)"/>
     <path id="SegoeUI-Semibold-65" d="M 3181 1403
L 1000 1403
Q 1013 959 1273 718
Q 1534 478 1991 478
Q 2503 478 2931 784
L 2931 200
Q 2494 -75 1775 -75
Q 1069 -75 667 361
Q 266 797 266 1588
Q 266 2334 708 2804
Q 1150 3275 1806 3275
Q 2463 3275 2822 2853
Q 3181 2431 3181 1681
L 3181 1403
z
M 2481 1916
Q 2478 2306 2297 2523
Q 2116 2741 1797 2741
Q 1484 2741 1267 2512
Q 1050 2284 1000 1916
L 2481 1916
z
" transform="scale(0.015625)"/>
     <path id="SegoeUI-Semibold-78" d="M 3147 3200
L 2081 1581
L 3134 0
L 2294 0
L 1731 991
Q 1678 1081 1606 1222
L 1594 1222
Q 1581 1194 1463 991
L 891 0
L 53 0
L 1141 1569
L 109 3200
L 953 3200
L 1506 2159
Q 1569 2044 1628 1922
L 1638 1922
L 2353 3200
L 3147 3200
z
" transform="scale(0.015625)"/>
     <path id="SegoeUI-Semibold-70" d="M 1209 472
L 1197 472
L 1197 -1472
L 472 -1472
L 472 3200
L 1197 3200
L 1197 2638
L 1209 2638
Q 1581 3275 2297 3275
Q 2906 3275 3247 2847
Q 3588 2419 3588 1697
Q 3588 897 3203 415
Q 2819 -66 2153 -66
Q 1541 -66 1209 472
z
M 1191 1734
L 1191 1338
Q 1191 988 1414 744
Q 1638 500 1981 500
Q 2384 500 2614 814
Q 2844 1128 2844 1691
Q 2844 2163 2630 2430
Q 2416 2697 2050 2697
Q 1663 2697 1427 2422
Q 1191 2147 1191 1734
z
" transform="scale(0.015625)"/>
     <path id="SegoeUI-Semibold-6c" d="M 1200 0
L 472 0
L 472 4738
L 1200 4738
L 1200 0
z
" transform="scale(0.015625)"/>
     <path id="SegoeUI-Semibold-69" d="M 838 3872
Q 659 3872 532 3987
Q 406 4103 406 4281
Q 406 4459 532 4578
Q 659 4697 838 4697
Q 1022 4697 1150 4578
Q 1278 4459 1278 4281
Q 1278 4113 1150 3992
Q 1022 3872 838 3872
z
M 1197 0
L 472 0
L 472 3200
L 1197 3200
L 1197 0
z
" transform="scale(0.015625)"/>
     <path id="SegoeUI-Semibold-63" d="M 2763 147
Q 2378 -75 1853 -75
Q 1141 -75 703 370
Q 266 816 266 1525
Q 266 2316 736 2795
Q 1206 3275 1994 3275
Q 2431 3275 2766 3122
L 2766 2447
Q 2431 2697 2053 2697
Q 1594 2697 1300 2386
Q 1006 2075 1006 1572
Q 1006 1075 1282 787
Q 1559 500 2025 500
Q 2416 500 2763 778
L 2763 147
z
" transform="scale(0.015625)"/>
     <path id="SegoeUI-Semibold-74" d="M 2159 34
Q 1947 -72 1600 -72
Q 669 -72 669 822
L 669 2631
L 134 2631
L 134 3200
L 669 3200
L 669 3941
L 1394 4147
L 1394 3200
L 2159 3200
L 2159 2631
L 1394 2631
L 1394 1031
Q 1394 747 1497 625
Q 1600 503 1841 503
Q 2025 503 2159 609
L 2159 34
z
" transform="scale(0.015625)"/>
     <path id="SegoeUI-Semibold-76" d="M 3228 3200
L 1991 0
L 1206 0
L 28 3200
L 816 3200
L 1525 963
Q 1606 716 1625 531
L 1634 531
Q 1663 763 1722 950
L 2466 3200
L 3228 3200
z
" transform="scale(0.015625)"/>
     <path id="SegoeUI-Semibold-75" d="M 3263 0
L 2538 0
L 2538 506
L 2525 506
Q 2209 -75 1544 -75
Q 409 -75 409 1288
L 409 3200
L 1134 3200
L 1134 1363
Q 1134 500 1800 500
Q 2122 500 2330 737
Q 2538 975 2538 1359
L 2538 3200
L 3263 3200
L 3263 0
z
" transform="scale(0.015625)"/>
     <path id="SegoeUI-Semibold-6f" d="M 1891 -75
Q 1150 -75 708 373
Q 266 822 266 1563
Q 266 2369 727 2822
Q 1188 3275 1969 3275
Q 2719 3275 3137 2834
Q 3556 2394 3556 1613
Q 3556 847 3104 386
Q 2653 -75 1891 -75
z
M 1925 2697
Q 1500 2697 1253 2400
Q 1006 2103 1006 1581
Q 1006 1078 1256 789
Q 1506 500 1925 500
Q 2353 500 2583 784
Q 2813 1069 2813 1594
Q 2813 2122 2583 2409
Q 2353 2697 1925 2697
z
" transform="scale(0.015625)"/>
     <path id="SegoeUI-Semibold-6e" d="M 3322 0
L 2597 0
L 2597 1803
Q 2597 2700 1963 2700
Q 1631 2700 1415 2451
Q 1200 2203 1200 1825
L 1200 0
L 472 0
L 472 3200
L 1200 3200
L 1200 2669
L 1213 2669
Q 1572 3275 2250 3275
Q 2772 3275 3047 2936
Q 3322 2597 3322 1956
L 3322 0
z
" transform="scale(0.015625)"/>
     <path id="SegoeUI-Semibold-2d" d="M 2156 1481
L 450 1481
L 450 2016
L 2156 2016
L 2156 1481
z
" transform="scale(0.015625)"/>
     <path id="SegoeUI-Semibold-72" d="M 2328 2509
Q 2197 2613 1950 2613
Q 1628 2613 1412 2322
Q 1197 2031 1197 1531
L 1197 0
L 472 0
L 472 3200
L 1197 3200
L 1197 2541
L 1209 2541
Q 1316 2878 1536 3067
Q 1756 3256 2028 3256
Q 2225 3256 2328 3197
L 2328 2509
z
" transform="scale(0.015625)"/>
     <path id="SegoeUI-Semibold-6b" d="M 3375 0
L 2456 0
L 1213 1538
L 1200 1538
L 1200 0
L 472 0
L 472 4738
L 1200 4738
L 1200 1734
L 1213 1734
L 2388 3200
L 3259 3200
L 1938 1656
L 3375 0
z
" transform="scale(0.015625)"/>
    </defs>
    <use xlink:href="#SegoeUI-Semibold-52"/>
    <use xlink:href="#SegoeUI-Semibold-61" transform="translate(62.255859 0)"/>
    <use xlink:href="#SegoeUI-Semibold-77" transform="translate(114.453125 0)"/>
    <use xlink:href="#SegoeUI-Semibold-20" transform="translate(190.087891 0)"/>
    <use xlink:href="#SegoeUI-Semibold-55" transform="translate(217.578125 0)"/>
    <use xlink:href="#SegoeUI-Semibold-53" transform="translate(287.890625 0)"/>
    <use xlink:href="#SegoeUI-Semibold-44" transform="translate(342.333984 0)"/>
    <use xlink:href="#SegoeUI-Semibold-20" transform="translate(414.0625 0)"/>
    <use xlink:href="#SegoeUI-Semibold-54" transform="translate(441.552734 0)"/>
    <use xlink:href="#SegoeUI-Semibold-56" transform="translate(499.228516 0)"/>
    <use xlink:href="#SegoeUI-Semibold-4c" transform="translate(563.388672 0)"/>
    <use xlink:href="#SegoeUI-Semibold-20" transform="translate(612.265625 0)"/>
    <use xlink:href="#SegoeUI-Semibold-68" transform="translate(639.755859 0)"/>
    <use xlink:href="#SegoeUI-Semibold-61" transform="translate(697.958984 0)"/>
    <use xlink:href="#SegoeUI-Semibold-73" transform="translate(750.15625 0)"/>
    <use xlink:href="#SegoeUI-Semibold-20" transform="translate(793.271484 0)"/>
    <use xlink:href="#SegoeUI-Semibold-65" transform="translate(820.761719 0)"/>
    <use xlink:href="#SegoeUI-Semibold-78" transform="translate(873.886719 0)"/>
    <use xlink:href="#SegoeUI-Semibold-70" transform="translate(923.984375 0)"/>
    <use xlink:href="#SegoeUI-Semibold-6c" transform="translate(984.238281 0)"/>
    <use xlink:href="#SegoeUI-Semibold-69" transform="translate(1010.361328 0)"/>
    <use xlink:href="#SegoeUI-Semibold-63" transform="translate(1036.484375 0)"/>
    <use xlink:href="#SegoeUI-Semibold-69" transform="translate(1083.505859 0)"/>
    <use xlink:href="#SegoeUI-Semibold-74" transform="translate(1109.628906 0)"/>
    <use xlink:href="#SegoeUI-Semibold-20" transform="translate(1145.761719 0)"/>
    <use xlink:href="#SegoeUI-Semibold-76" transform="translate(1173.251953 0)"/>
    <use xlink:href="#SegoeUI-Semibold-61" transform="translate(1222.359375 0)"/>
    <use xlink:href="#SegoeUI-Semibold-6c" transform="translate(1274.556641 0)"/>
    <use xlink:href="#SegoeUI-Semibold-75" transform="translate(1300.679688 0)"/>
    <use xlink:href="#SegoeUI-Semibold-61" transform="translate(1359.029297 0)"/>
    <use xlink:href="#SegoeUI-Semibold-74" transform="translate(1411.226562 0)"/>
    <use xlink:href="#SegoeUI-Semibold-69" transform="translate(1447.359375 0)"/>
    <use xlink:href="#SegoeUI-Semibold-6f" transform="translate(1473.482422 0)"/>
    <use xlink:href="#SegoeUI-Semibold-6e" transform="translate(1533.199219 0)"/>
    <use xlink:href="#SegoeUI-Semibold-2d" transform="translate(1591.548828 0)"/>
    <use xlink:href="#SegoeUI-Semibold-63" transform="translate(1631.734375 0)"/>
    <use xlink:href="#SegoeUI-Semibold-6f" transform="translate(1678.755859 0)"/>
    <use xlink:href="#SegoeUI-Semibold-6e" transform="translate(1738.472656 0)"/>
    <use xlink:href="#SegoeUI-Semibold-74" transform="translate(1796.822266 0)"/>
    <use xlink:href="#SegoeUI-Semibold-65" transform="translate(1832.330078 0)"/>
    <use xlink:href="#SegoeUI-Semibold-6e" transform="translate(1885.455078 0)"/>
    <use xlink:href="#SegoeUI-Semibold-74" transform="translate(1943.804688 0)"/>
    <use xlink:href="#SegoeUI-Semibold-20" transform="translate(1979.9375 0)"/>
    <use xlink:href="#SegoeUI-Semibold-72" transform="translate(2007.427734 0)"/>
    <use xlink:href="#SegoeUI-Semibold-69" transform="translate(2044.439453 0)"/>
    <use xlink:href="#SegoeUI-Semibold-73" transform="translate(2070.5625 0)"/>
    <use xlink:href="#SegoeUI-Semibold-6b" transform="translate(2113.677734 0)"/>
   </g>
  </g>
  <g id="text_16">
   <!-- Correlations with returns are measurement-risk screens, not liquidity shocks. -->
   <g style="fill: #6f768a" transform="translate(7.2 39.643437) scale(0.11 -0.11)">
    <defs>
     <path id="SegoeUI-73" d="M 325 116
L 325 666
Q 744 356 1247 356
Q 1922 356 1922 806
Q 1922 934 1864 1023
Q 1806 1113 1707 1181
Q 1609 1250 1476 1304
Q 1344 1359 1191 1419
Q 978 1503 817 1589
Q 656 1675 548 1783
Q 441 1891 386 2028
Q 331 2166 331 2350
Q 331 2575 434 2748
Q 538 2922 709 3039
Q 881 3156 1101 3215
Q 1322 3275 1556 3275
Q 1972 3275 2300 3131
L 2300 2613
Q 1947 2844 1488 2844
Q 1344 2844 1228 2811
Q 1113 2778 1030 2718
Q 947 2659 901 2576
Q 856 2494 856 2394
Q 856 2269 901 2184
Q 947 2100 1034 2034
Q 1122 1969 1247 1916
Q 1372 1863 1531 1800
Q 1744 1719 1912 1633
Q 2081 1547 2200 1439
Q 2319 1331 2383 1190
Q 2447 1050 2447 856
Q 2447 619 2342 444
Q 2238 269 2063 153
Q 1888 38 1659 -18
Q 1431 -75 1181 -75
Q 688 -75 325 116
z
" transform="scale(0.015625)"/>
     <path id="SegoeUI-6d" d="M 5063 0
L 4550 0
L 4550 1838
Q 4550 2369 4386 2606
Q 4222 2844 3834 2844
Q 3506 2844 3276 2544
Q 3047 2244 3047 1825
L 3047 0
L 2534 0
L 2534 1900
Q 2534 2844 1806 2844
Q 1469 2844 1250 2561
Q 1031 2278 1031 1825
L 1031 0
L 519 0
L 519 3200
L 1031 3200
L 1031 2694
L 1044 2694
Q 1384 3275 2038 3275
Q 2366 3275 2609 3092
Q 2853 2909 2944 2613
Q 3300 3275 4006 3275
Q 5063 3275 5063 1972
L 5063 0
z
" transform="scale(0.015625)"/>
     <path id="SegoeUI-2d" d="M 2156 1581
L 450 1581
L 450 1984
L 2156 1984
L 2156 1581
z
" transform="scale(0.015625)"/>
     <path id="SegoeUI-6b" d="M 3175 0
L 2456 0
L 1044 1538
L 1031 1538
L 1031 0
L 519 0
L 519 4738
L 1031 4738
L 1031 1734
L 1044 1734
L 2388 3200
L 3059 3200
L 1575 1656
L 3175 0
z
" transform="scale(0.015625)"/>
     <path id="SegoeUI-63" d="M 2700 147
Q 2331 -75 1825 -75
Q 1141 -75 720 370
Q 300 816 300 1525
Q 300 2316 753 2795
Q 1206 3275 1963 3275
Q 2384 3275 2706 3119
L 2706 2594
Q 2350 2844 1944 2844
Q 1453 2844 1139 2492
Q 825 2141 825 1569
Q 825 1006 1120 681
Q 1416 356 1913 356
Q 2331 356 2700 634
L 2700 147
z
" transform="scale(0.015625)"/>
     <path id="SegoeUI-2c" d="M 988 713
L 488 -825
L 122 -825
L 488 713
L 988 713
z
" transform="scale(0.015625)"/>
     <path id="SegoeUI-71" d="M 3250 -1472
L 2738 -1472
L 2738 550
L 2725 550
Q 2391 -75 1631 -75
Q 1028 -75 664 354
Q 300 784 300 1525
Q 300 2322 700 2798
Q 1100 3275 1775 3275
Q 2431 3275 2725 2756
L 2738 2756
L 2738 3200
L 3250 3200
L 3250 -1472
z
M 2738 1441
L 2738 1906
Q 2738 2300 2480 2572
Q 2222 2844 1825 2844
Q 1363 2844 1094 2501
Q 825 2159 825 1538
Q 825 984 1084 670
Q 1344 356 1753 356
Q 2203 356 2470 664
Q 2738 972 2738 1441
z
" transform="scale(0.015625)"/>
     <path id="SegoeUI-64" d="M 3250 0
L 2738 0
L 2738 544
L 2725 544
Q 2369 -75 1625 -75
Q 1022 -75 661 354
Q 300 784 300 1525
Q 300 2319 700 2797
Q 1100 3275 1766 3275
Q 2425 3275 2725 2756
L 2738 2756
L 2738 4738
L 3250 4738
L 3250 0
z
M 2738 1447
L 2738 1919
Q 2738 2306 2481 2575
Q 2225 2844 1831 2844
Q 1363 2844 1094 2500
Q 825 2156 825 1550
Q 825 997 1083 676
Q 1341 356 1775 356
Q 2203 356 2470 665
Q 2738 975 2738 1447
z
" transform="scale(0.015625)"/>
     <path id="SegoeUI-79" d="M 3066 3200
L 1594 -513
Q 1200 -1506 488 -1506
Q 288 -1506 153 -1466
L 153 -1006
Q 319 -1063 456 -1063
Q 844 -1063 1038 -600
L 1294 6
L 44 3200
L 613 3200
L 1478 738
Q 1494 691 1544 494
L 1563 494
Q 1578 569 1625 731
L 2534 3200
L 3066 3200
z
" transform="scale(0.015625)"/>
    </defs>
    <use xlink:href="#SegoeUI-43"/>
    <use xlink:href="#SegoeUI-6f" transform="translate(61.914062 0)"/>
    <use xlink:href="#SegoeUI-72" transform="translate(120.507812 0)"/>
    <use xlink:href="#SegoeUI-72" transform="translate(155.273438 0)"/>
    <use xlink:href="#SegoeUI-65" transform="translate(188.664062 0)"/>
    <use xlink:href="#SegoeUI-6c" transform="translate(240.958984 0)"/>
    <use xlink:href="#SegoeUI-61" transform="translate(265.177734 0)"/>
    <use xlink:href="#SegoeUI-74" transform="translate(316.056641 0)"/>
    <use xlink:href="#SegoeUI-69" transform="translate(349.943359 0)"/>
    <use xlink:href="#SegoeUI-6f" transform="translate(374.162109 0)"/>
    <use xlink:href="#SegoeUI-6e" transform="translate(432.755859 0)"/>
    <use xlink:href="#SegoeUI-73" transform="translate(489.347656 0)"/>
    <use xlink:href="#SegoeUI-20" transform="translate(531.779297 0)"/>
    <use xlink:href="#SegoeUI-77" transform="translate(559.171875 0)"/>
    <use xlink:href="#SegoeUI-69" transform="translate(631.4375 0)"/>
    <use xlink:href="#SegoeUI-74" transform="translate(655.65625 0)"/>
    <use xlink:href="#SegoeUI-68" transform="translate(689.542969 0)"/>
    <use xlink:href="#SegoeUI-20" transform="translate(746.134766 0)"/>
    <use xlink:href="#SegoeUI-72" transform="translate(773.527344 0)"/>
    <use xlink:href="#SegoeUI-65" transform="translate(806.917969 0)"/>
    <use xlink:href="#SegoeUI-74" transform="translate(859.212891 0)"/>
    <use xlink:href="#SegoeUI-75" transform="translate(893.099609 0)"/>
    <use xlink:href="#SegoeUI-72" transform="translate(949.691406 0)"/>
    <use xlink:href="#SegoeUI-6e" transform="translate(984.207031 0)"/>
    <use xlink:href="#SegoeUI-73" transform="translate(1040.798828 0)"/>
    <use xlink:href="#SegoeUI-20" transform="translate(1083.230469 0)"/>
    <use xlink:href="#SegoeUI-61" transform="translate(1110.623047 0)"/>
    <use xlink:href="#SegoeUI-72" transform="translate(1161.501953 0)"/>
    <use xlink:href="#SegoeUI-65" transform="translate(1194.892578 0)"/>
    <use xlink:href="#SegoeUI-20" transform="translate(1247.1875 0)"/>
    <use xlink:href="#SegoeUI-6d" transform="translate(1274.580078 0)"/>
    <use xlink:href="#SegoeUI-65" transform="translate(1360.712891 0)"/>
    <use xlink:href="#SegoeUI-61" transform="translate(1413.007812 0)"/>
    <use xlink:href="#SegoeUI-73" transform="translate(1463.886719 0)"/>
    <use xlink:href="#SegoeUI-75" transform="translate(1506.318359 0)"/>
    <use xlink:href="#SegoeUI-72" transform="translate(1562.910156 0)"/>
    <use xlink:href="#SegoeUI-65" transform="translate(1596.300781 0)"/>
    <use xlink:href="#SegoeUI-6d" transform="translate(1648.595703 0)"/>
    <use xlink:href="#SegoeUI-65" transform="translate(1734.728516 0)"/>
    <use xlink:href="#SegoeUI-6e" transform="translate(1787.023438 0)"/>
    <use xlink:href="#SegoeUI-74" transform="translate(1843.615234 0)"/>
    <use xlink:href="#SegoeUI-2d" transform="translate(1872.001953 0)"/>
    <use xlink:href="#SegoeUI-72" transform="translate(1911.992188 0)"/>
    <use xlink:href="#SegoeUI-69" transform="translate(1946.757812 0)"/>
    <use xlink:href="#SegoeUI-73" transform="translate(1970.976562 0)"/>
    <use xlink:href="#SegoeUI-6b" transform="translate(2013.408203 0)"/>
    <use xlink:href="#SegoeUI-20" transform="translate(2063.115234 0)"/>
    <use xlink:href="#SegoeUI-73" transform="translate(2090.507812 0)"/>
    <use xlink:href="#SegoeUI-63" transform="translate(2132.939453 0)"/>
    <use xlink:href="#SegoeUI-72" transform="translate(2179.130859 0)"/>
    <use xlink:href="#SegoeUI-65" transform="translate(2212.521484 0)"/>
    <use xlink:href="#SegoeUI-65" transform="translate(2264.816406 0)"/>
    <use xlink:href="#SegoeUI-6e" transform="translate(2317.111328 0)"/>
    <use xlink:href="#SegoeUI-73" transform="translate(2373.703125 0)"/>
    <use xlink:href="#SegoeUI-2c" transform="translate(2416.134766 0)"/>
    <use xlink:href="#SegoeUI-20" transform="translate(2437.814453 0)"/>
    <use xlink:href="#SegoeUI-6e" transform="translate(2465.207031 0)"/>
    <use xlink:href="#SegoeUI-6f" transform="translate(2521.798828 0)"/>
    <use xlink:href="#SegoeUI-74" transform="translate(2580.392578 0)"/>
    <use xlink:href="#SegoeUI-20" transform="translate(2614.279297 0)"/>
    <use xlink:href="#SegoeUI-6c" transform="translate(2641.671875 0)"/>
    <use xlink:href="#SegoeUI-69" transform="translate(2665.890625 0)"/>
    <use xlink:href="#SegoeUI-71" transform="translate(2690.109375 0)"/>
    <use xlink:href="#SegoeUI-75" transform="translate(2748.996094 0)"/>
    <use xlink:href="#SegoeUI-69" transform="translate(2805.587891 0)"/>
    <use xlink:href="#SegoeUI-64" transform="translate(2829.806641 0)"/>
    <use xlink:href="#SegoeUI-69" transform="translate(2888.693359 0)"/>
    <use xlink:href="#SegoeUI-74" transform="translate(2912.912109 0)"/>
    <use xlink:href="#SegoeUI-79" transform="translate(2946.798828 0)"/>
    <use xlink:href="#SegoeUI-20" transform="translate(2995.1875 0)"/>
    <use xlink:href="#SegoeUI-73" transform="translate(3022.580078 0)"/>
    <use xlink:href="#SegoeUI-68" transform="translate(3065.011719 0)"/>
    <use xlink:href="#SegoeUI-6f" transform="translate(3121.603516 0)"/>
    <use xlink:href="#SegoeUI-63" transform="translate(3180.197266 0)"/>
    <use xlink:href="#SegoeUI-6b" transform="translate(3226.388672 0)"/>
    <use xlink:href="#SegoeUI-73" transform="translate(3276.095703 0)"/>
    <use xlink:href="#SegoeUI-2e" transform="translate(3318.527344 0)"/>
   </g>
  </g>
 </g>
 <defs>
  <clipPath id="p8343ad5ad8">
   <rect x="41.76" y="92.25" width="743.04" height="301.32"/>
  </clipPath>
 </defs>
</svg>
