<?xml version="1.0" encoding="utf-8" standalone="no"?>
<!DOCTYPE svg PUBLIC "-//W3C//DTD SVG 1.1//EN"
  "http://www.w3.org/Graphics/SVG/1.1/DTD/svg11.dtd">
<svg xmlns:xlink="http://www.w3.org/1999/xlink" width="817.587187pt" height="429.744375pt" viewBox="0 0 817.587187 429.744375" xmlns="http://www.w3.org/2000/svg" version="1.1">
 <metadata>
  <rdf:RDF xmlns:dc="http://purl.org/dc/elements/1.1/" xmlns:cc="http://creativecommons.org/ns#" xmlns:rdf="http://www.w3.org/1999/02/22-rdf-syntax-ns#">
   <cc:Work>
    <dc:type rdf:resource="http://purl.org/dc/dcmitype/StillImage"/>
    <dc:format>image/svg+xml</dc:format>
    <dc:creator>
     <cc:Agent>
      <dc:title>Matplotlib v3.10.8, https://matplotlib.org/</dc:title>
     </cc:Agent>
    </dc:creator>
   </cc:Work>
  </rdf:RDF>
 </metadata>
 <defs>
  <style type="text/css">*{stroke-linejoin: round; stroke-linecap: butt}</style>
 </defs>
 <g id="figure_1">
  <g id="patch_1">
   <path d="M 0 429.744375
L 817.587187 429.744375
L 817.587187 0
L 0 0
z
" style="fill: #ffffff"/>
  </g>
  <g id="axes_1">
   <g id="patch_2">
    <path d="M 93.267188 393.57
L 810.387187 393.57
L 810.387187 92.25
L 93.267188 92.25
z
" style="fill: #ffffff"/>
   </g>
   <g id="matplotlib.axis_1">
    <g id="xtick_1">
     <g id="text_1">
      <!-- 0 -->
      <g style="fill: #6f768a" transform="translate(90.571875 404.473125) scale(0.1 -0.1)">
       <defs>
        <path id="SegoeUI-30" d="M 3188 2259
Q 3188 1697 3086 1262
Q 2984 828 2792 529
Q 2600 231 2320 76
Q 2041 -78 1684 -78
Q 1347 -78 1083 70
Q 819 219 637 503
Q 456 788 362 1202
Q 269 1616 269 2150
Q 269 2738 367 3188
Q 466 3638 656 3942
Q 847 4247 1130 4401
Q 1413 4556 1778 4556
Q 3188 4556 3188 2259
z
M 2663 2209
Q 2663 4122 1753 4122
Q 794 4122 794 2175
Q 794 359 1734 359
Q 2663 359 2663 2209
z
" transform="scale(0.015625)"/>
       </defs>
       <use xlink:href="#SegoeUI-30"/>
      </g>
     </g>
    </g>
    <g id="xtick_2">
     <g id="text_2">
      <!-- 1 -->
      <g style="fill: #6f768a" transform="translate(227.166161 404.473125) scale(0.1 -0.1)">
       <defs>
        <path id="SegoeUI-31" d="M 2263 0
L 1750 0
L 1750 3872
Q 1691 3813 1577 3736
Q 1463 3659 1320 3584
Q 1178 3509 1020 3443
Q 863 3378 713 3341
L 713 3859
Q 881 3906 1070 3986
Q 1259 4066 1442 4164
Q 1625 4263 1787 4370
Q 1950 4478 2069 4581
L 2263 4581
L 2263 0
z
" transform="scale(0.015625)"/>
       </defs>
       <use xlink:href="#SegoeUI-31"/>
      </g>
     </g>
    </g>
    <g id="xtick_3">
     <g id="text_3">
      <!-- 2 -->
      <g style="fill: #6f768a" transform="translate(363.760446 404.473125) scale(0.1 -0.1)">
       <defs>
        <path id="SegoeUI-32" d="M 2413 3306
Q 2413 3513 2348 3666
Q 2284 3819 2173 3920
Q 2063 4022 1913 4072
Q 1763 4122 1588 4122
Q 1438 4122 1294 4081
Q 1150 4041 1014 3969
Q 878 3897 751 3797
Q 625 3697 516 3575
L 516 4125
Q 731 4334 998 4445
Q 1266 4556 1650 4556
Q 1925 4556 2159 4476
Q 2394 4397 2566 4244
Q 2738 4091 2836 3866
Q 2934 3641 2934 3350
Q 2934 3084 2873 2868
Q 2813 2653 2689 2462
Q 2566 2272 2378 2097
Q 2191 1922 1938 1741
Q 1622 1516 1417 1356
Q 1213 1197 1092 1058
Q 972 919 923 780
Q 875 641 875 459
L 3106 459
L 3106 0
L 341 0
L 341 222
Q 341 509 403 728
Q 466 947 609 1144
Q 753 1341 986 1537
Q 1219 1734 1556 1981
Q 1800 2156 1964 2315
Q 2128 2475 2228 2634
Q 2328 2794 2370 2958
Q 2413 3122 2413 3306
z
" transform="scale(0.015625)"/>
       </defs>
       <use xlink:href="#SegoeUI-32"/>
      </g>
     </g>
    </g>
    <g id="xtick_4">
     <g id="text_4">
      <!-- 3 -->
      <g style="fill: #6f768a" transform="translate(500.354732 404.473125) scale(0.1 -0.1)">
       <defs>
        <path id="SegoeUI-33" d="M 2978 1269
Q 2978 966 2864 717
Q 2750 469 2542 292
Q 2334 116 2043 19
Q 1753 -78 1403 -78
Q 763 -78 384 166
L 384 716
Q 838 359 1422 359
Q 1656 359 1845 418
Q 2034 478 2170 590
Q 2306 703 2379 862
Q 2453 1022 2453 1222
Q 2453 2100 1203 2100
L 831 2100
L 831 2534
L 1184 2534
Q 2291 2534 2291 3359
Q 2291 4122 1447 4122
Q 972 4122 556 3803
L 556 4300
Q 984 4556 1575 4556
Q 1856 4556 2084 4478
Q 2313 4400 2475 4259
Q 2638 4119 2727 3922
Q 2816 3725 2816 3488
Q 2816 2603 1922 2350
L 1922 2338
Q 2150 2313 2344 2227
Q 2538 2141 2678 2003
Q 2819 1866 2898 1680
Q 2978 1494 2978 1269
z
" transform="scale(0.015625)"/>
       </defs>
       <use xlink:href="#SegoeUI-33"/>
      </g>
     </g>
    </g>
    <g id="xtick_5">
     <g id="text_5">
      <!-- 4 -->
      <g style="fill: #6f768a" transform="translate(636.949018 404.473125) scale(0.1 -0.1)">
       <defs>
        <path id="SegoeUI-34" d="M 2656 4481
L 2656 1522
L 3231 1522
L 3231 1053
L 2656 1053
L 2656 0
L 2150 0
L 2150 1053
L 44 1053
L 44 1497
Q 338 1828 638 2204
Q 938 2581 1211 2968
Q 1484 3356 1717 3742
Q 1950 4128 2109 4481
L 2656 4481
z
M 622 1522
L 2150 1522
L 2150 3716
Q 1916 3306 1706 2984
Q 1497 2663 1308 2400
Q 1119 2138 947 1925
Q 775 1713 622 1522
z
" transform="scale(0.015625)"/>
       </defs>
       <use xlink:href="#SegoeUI-34"/>
      </g>
     </g>
    </g>
    <g id="xtick_6">
     <g id="text_6">
      <!-- 5 -->
      <g style="fill: #6f768a" transform="translate(773.543304 404.473125) scale(0.1 -0.1)">
       <defs>
        <path id="SegoeUI-35" d="M 3028 1369
Q 3028 1041 2915 775
Q 2803 509 2595 318
Q 2388 128 2094 25
Q 1800 -78 1441 -78
Q 816 -78 513 109
L 513 653
Q 969 359 1447 359
Q 1691 359 1886 431
Q 2081 503 2218 631
Q 2356 759 2429 940
Q 2503 1122 2503 1338
Q 2503 1775 2209 2023
Q 1916 2272 1356 2272
Q 1266 2272 1166 2269
Q 1066 2266 966 2261
Q 866 2256 770 2250
Q 675 2244 597 2234
L 750 4481
L 2822 4481
L 2822 4019
L 1194 4019
L 1103 2703
Q 1203 2709 1315 2714
Q 1428 2719 1516 2719
Q 1872 2719 2153 2625
Q 2434 2531 2629 2357
Q 2825 2184 2926 1932
Q 3028 1681 3028 1369
z
" transform="scale(0.015625)"/>
       </defs>
       <use xlink:href="#SegoeUI-35"/>
      </g>
     </g>
    </g>
    <g id="text_7">
     <!-- Adequate metric families -->
     <g style="fill: #1f2430" transform="translate(386.099063 419.784375) scale(0.12 -0.12)">
      <defs>
       <path id="SegoeUI-41" d="M 4056 0
L 3475 0
L 3000 1256
L 1100 1256
L 653 0
L 69 0
L 1788 4481
L 2331 4481
L 4056 0
z
M 2828 1728
L 2125 3638
Q 2091 3731 2056 3938
L 2044 3938
Q 2013 3747 1972 3638
L 1275 1728
L 2828 1728
z
" transform="scale(0.015625)"/>
       <path id="SegoeUI-64" d="M 3250 0
L 2738 0
L 2738 544
L 2725 544
Q 2369 -75 1625 -75
Q 1022 -75 661 354
Q 300 784 300 1525
Q 300 2319 700 2797
Q 1100 3275 1766 3275
Q 2425 3275 2725 2756
L 2738 2756
L 2738 4738
L 3250 4738
L 3250 0
z
M 2738 1447
L 2738 1919
Q 2738 2306 2481 2575
Q 2225 2844 1831 2844
Q 1363 2844 1094 2500
Q 825 2156 825 1550
Q 825 997 1083 676
Q 1341 356 1775 356
Q 2203 356 2470 665
Q 2738 975 2738 1447
z
" transform="scale(0.015625)"/>
       <path id="SegoeUI-65" d="M 3091 1472
L 831 1472
Q 844 938 1119 647
Q 1394 356 1875 356
Q 2416 356 2869 713
L 2869 231
Q 2447 -75 1753 -75
Q 1075 -75 687 361
Q 300 797 300 1588
Q 300 2334 723 2804
Q 1147 3275 1775 3275
Q 2403 3275 2747 2869
Q 3091 2463 3091 1741
L 3091 1472
z
M 2566 1906
Q 2563 2350 2352 2597
Q 2141 2844 1766 2844
Q 1403 2844 1150 2584
Q 897 2325 838 1906
L 2566 1906
z
" transform="scale(0.015625)"/>
       <path id="SegoeUI-71" d="M 3250 -1472
L 2738 -1472
L 2738 550
L 2725 550
Q 2391 -75 1631 -75
Q 1028 -75 664 354
Q 300 784 300 1525
Q 300 2322 700 2798
Q 1100 3275 1775 3275
Q 2431 3275 2725 2756
L 2738 2756
L 2738 3200
L 3250 3200
L 3250 -1472
z
M 2738 1441
L 2738 1906
Q 2738 2300 2480 2572
Q 2222 2844 1825 2844
Q 1363 2844 1094 2501
Q 825 2159 825 1538
Q 825 984 1084 670
Q 1344 356 1753 356
Q 2203 356 2470 664
Q 2738 972 2738 1441
z
" transform="scale(0.015625)"/>
       <path id="SegoeUI-75" d="M 3106 0
L 2594 0
L 2594 506
L 2581 506
Q 2263 -75 1594 -75
Q 450 -75 450 1288
L 450 3200
L 959 3200
L 959 1369
Q 959 356 1734 356
Q 2109 356 2351 632
Q 2594 909 2594 1356
L 2594 3200
L 3106 3200
L 3106 0
z
" transform="scale(0.015625)"/>
       <path id="SegoeUI-61" d="M 2809 0
L 2297 0
L 2297 500
L 2284 500
Q 1950 -75 1300 -75
Q 822 -75 551 178
Q 281 431 281 850
Q 281 1747 1338 1894
L 2297 2028
Q 2297 2844 1638 2844
Q 1059 2844 594 2450
L 594 2975
Q 1066 3275 1681 3275
Q 2809 3275 2809 2081
L 2809 0
z
M 2297 1619
L 1525 1513
Q 1169 1463 987 1336
Q 806 1209 806 888
Q 806 653 973 504
Q 1141 356 1419 356
Q 1800 356 2048 623
Q 2297 891 2297 1300
L 2297 1619
z
" transform="scale(0.015625)"/>
       <path id="SegoeUI-74" d="M 2003 31
Q 1822 -69 1525 -69
Q 684 -69 684 869
L 684 2763
L 134 2763
L 134 3200
L 684 3200
L 684 3981
L 1197 4147
L 1197 3200
L 2003 3200
L 2003 2763
L 1197 2763
L 1197 959
Q 1197 638 1306 500
Q 1416 363 1669 363
Q 1863 363 2003 469
L 2003 31
z
" transform="scale(0.015625)"/>
       <path id="SegoeUI-20" transform="scale(0.015625)"/>
       <path id="SegoeUI-6d" d="M 5063 0
L 4550 0
L 4550 1838
Q 4550 2369 4386 2606
Q 4222 2844 3834 2844
Q 3506 2844 3276 2544
Q 3047 2244 3047 1825
L 3047 0
L 2534 0
L 2534 1900
Q 2534 2844 1806 2844
Q 1469 2844 1250 2561
Q 1031 2278 1031 1825
L 1031 0
L 519 0
L 519 3200
L 1031 3200
L 1031 2694
L 1044 2694
Q 1384 3275 2038 3275
Q 2366 3275 2609 3092
Q 2853 2909 2944 2613
Q 3300 3275 4006 3275
Q 5063 3275 5063 1972
L 5063 0
z
" transform="scale(0.015625)"/>
       <path id="SegoeUI-72" d="M 2188 2681
Q 2053 2784 1800 2784
Q 1472 2784 1251 2475
Q 1031 2166 1031 1631
L 1031 0
L 519 0
L 519 3200
L 1031 3200
L 1031 2541
L 1044 2541
Q 1153 2878 1378 3067
Q 1603 3256 1881 3256
Q 2081 3256 2188 3213
L 2188 2681
z
" transform="scale(0.015625)"/>
       <path id="SegoeUI-69" d="M 781 4013
Q 644 4013 547 4106
Q 450 4200 450 4344
Q 450 4488 547 4583
Q 644 4678 781 4678
Q 922 4678 1020 4583
Q 1119 4488 1119 4344
Q 1119 4206 1020 4109
Q 922 4013 781 4013
z
M 1031 0
L 519 0
L 519 3200
L 1031 3200
L 1031 0
z
" transform="scale(0.015625)"/>
       <path id="SegoeUI-63" d="M 2700 147
Q 2331 -75 1825 -75
Q 1141 -75 720 370
Q 300 816 300 1525
Q 300 2316 753 2795
Q 1206 3275 1963 3275
Q 2384 3275 2706 3119
L 2706 2594
Q 2350 2844 1944 2844
Q 1453 2844 1139 2492
Q 825 2141 825 1569
Q 825 1006 1120 681
Q 1416 356 1913 356
Q 2331 356 2700 634
L 2700 147
z
" transform="scale(0.015625)"/>
       <path id="SegoeUI-66" d="M 2100 4288
Q 1950 4372 1759 4372
Q 1222 4372 1222 3694
L 1222 3200
L 1972 3200
L 1972 2763
L 1222 2763
L 1222 0
L 713 0
L 713 2763
L 166 2763
L 166 3200
L 713 3200
L 713 3719
Q 713 4222 1003 4514
Q 1294 4806 1728 4806
Q 1963 4806 2100 4750
L 2100 4288
z
" transform="scale(0.015625)"/>
       <path id="SegoeUI-6c" d="M 1031 0
L 519 0
L 519 4738
L 1031 4738
L 1031 0
z
" transform="scale(0.015625)"/>
       <path id="SegoeUI-73" d="M 325 116
L 325 666
Q 744 356 1247 356
Q 1922 356 1922 806
Q 1922 934 1864 1023
Q 1806 1113 1707 1181
Q 1609 1250 1476 1304
Q 1344 1359 1191 1419
Q 978 1503 817 1589
Q 656 1675 548 1783
Q 441 1891 386 2028
Q 331 2166 331 2350
Q 331 2575 434 2748
Q 538 2922 709 3039
Q 881 3156 1101 3215
Q 1322 3275 1556 3275
Q 1972 3275 2300 3131
L 2300 2613
Q 1947 2844 1488 2844
Q 1344 2844 1228 2811
Q 1113 2778 1030 2718
Q 947 2659 901 2576
Q 856 2494 856 2394
Q 856 2269 901 2184
Q 947 2100 1034 2034
Q 1122 1969 1247 1916
Q 1372 1863 1531 1800
Q 1744 1719 1912 1633
Q 2081 1547 2200 1439
Q 2319 1331 2383 1190
Q 2447 1050 2447 856
Q 2447 619 2342 444
Q 2238 269 2063 153
Q 1888 38 1659 -18
Q 1431 -75 1181 -75
Q 688 -75 325 116
z
" transform="scale(0.015625)"/>
      </defs>
      <use xlink:href="#SegoeUI-41"/>
      <use xlink:href="#SegoeUI-64" transform="translate(64.501953 0)"/>
      <use xlink:href="#SegoeUI-65" transform="translate(123.388672 0)"/>
      <use xlink:href="#SegoeUI-71" transform="translate(175.683594 0)"/>
      <use xlink:href="#SegoeUI-75" transform="translate(234.570312 0)"/>
      <use xlink:href="#SegoeUI-61" transform="translate(291.162109 0)"/>
      <use xlink:href="#SegoeUI-74" transform="translate(342.041016 0)"/>
      <use xlink:href="#SegoeUI-65" transform="translate(375.177734 0)"/>
      <use xlink:href="#SegoeUI-20" transform="translate(427.472656 0)"/>
      <use xlink:href="#SegoeUI-6d" transform="translate(454.865234 0)"/>
      <use xlink:href="#SegoeUI-65" transform="translate(540.998047 0)"/>
      <use xlink:href="#SegoeUI-74" transform="translate(593.292969 0)"/>
      <use xlink:href="#SegoeUI-72" transform="translate(627.179688 0)"/>
      <use xlink:href="#SegoeUI-69" transform="translate(661.945312 0)"/>
      <use xlink:href="#SegoeUI-63" transform="translate(686.164062 0)"/>
      <use xlink:href="#SegoeUI-20" transform="translate(732.355469 0)"/>
      <use xlink:href="#SegoeUI-66" transform="translate(759.748047 0)"/>
      <use xlink:href="#SegoeUI-61" transform="translate(791.046875 0)"/>
      <use xlink:href="#SegoeUI-6d" transform="translate(841.925781 0)"/>
      <use xlink:href="#SegoeUI-69" transform="translate(928.058594 0)"/>
      <use xlink:href="#SegoeUI-6c" transform="translate(952.277344 0)"/>
      <use xlink:href="#SegoeUI-69" transform="translate(976.496094 0)"/>
      <use xlink:href="#SegoeUI-65" transform="translate(1000.714844 0)"/>
      <use xlink:href="#SegoeUI-73" transform="translate(1053.009766 0)"/>
     </g>
    </g>
   </g>
   <g id="matplotlib.axis_2">
    <g id="ytick_1">
     <g id="line2d_1">
      <path d="M 93.267188 114.506591
L 810.387187 114.506591
" clip-path="url(#p701cf65da6)" style="fill: none; stroke: #e8ebf2; stroke-width: 0.8; stroke-linecap: round"/>
     </g>
     <g id="text_8">
      <!-- Sui -->
      <g style="fill: #6f768a" transform="translate(76.373438 118.208153) scale(0.1 -0.1)">
       <defs>
        <path id="SegoeUI-53" d="M 378 181
L 378 800
Q 484 706 632 631
Q 781 556 945 504
Q 1109 453 1275 425
Q 1441 397 1581 397
Q 2066 397 2305 576
Q 2544 756 2544 1094
Q 2544 1275 2464 1409
Q 2384 1544 2243 1655
Q 2103 1766 1911 1867
Q 1719 1969 1497 2081
Q 1263 2200 1059 2322
Q 856 2444 706 2591
Q 556 2738 470 2923
Q 384 3109 384 3359
Q 384 3666 518 3892
Q 653 4119 872 4266
Q 1091 4413 1370 4484
Q 1650 4556 1941 4556
Q 2603 4556 2906 4397
L 2906 3806
Q 2509 4081 1888 4081
Q 1716 4081 1544 4045
Q 1372 4009 1237 3928
Q 1103 3847 1018 3719
Q 934 3591 934 3406
Q 934 3234 998 3109
Q 1063 2984 1188 2881
Q 1313 2778 1492 2681
Q 1672 2584 1906 2469
Q 2147 2350 2362 2219
Q 2578 2088 2740 1928
Q 2903 1769 2998 1575
Q 3094 1381 3094 1131
Q 3094 800 2964 570
Q 2834 341 2614 197
Q 2394 53 2106 -11
Q 1819 -75 1500 -75
Q 1394 -75 1237 -58
Q 1081 -41 918 -8
Q 756 25 611 73
Q 466 122 378 181
z
" transform="scale(0.015625)"/>
       </defs>
       <use xlink:href="#SegoeUI-53"/>
       <use xlink:href="#SegoeUI-75" transform="translate(53.125 0)"/>
       <use xlink:href="#SegoeUI-69" transform="translate(109.716797 0)"/>
      </g>
     </g>
    </g>
    <g id="ytick_2">
     <g id="line2d_2">
      <path d="M 93.267188 135.907159
L 810.387187 135.907159
" clip-path="url(#p701cf65da6)" style="fill: none; stroke: #e8ebf2; stroke-width: 0.8; stroke-linecap: round"/>
     </g>
     <g id="text_9">
      <!-- Polygon PoS -->
      <g style="fill: #6f768a" transform="translate(34.928125 139.608722) scale(0.1 -0.1)">
       <defs>
        <path id="SegoeUI-50" d="M 1113 1694
L 1113 0
L 588 0
L 588 4481
L 1819 4481
Q 2538 4481 2933 4131
Q 3328 3781 3328 3144
Q 3328 2506 2889 2100
Q 2450 1694 1703 1694
L 1113 1694
z
M 1113 4006
L 1113 2169
L 1663 2169
Q 2206 2169 2492 2417
Q 2778 2666 2778 3119
Q 2778 4006 1728 4006
L 1113 4006
z
" transform="scale(0.015625)"/>
        <path id="SegoeUI-6f" d="M 1856 -75
Q 1147 -75 723 373
Q 300 822 300 1563
Q 300 2369 740 2822
Q 1181 3275 1931 3275
Q 2647 3275 3048 2834
Q 3450 2394 3450 1613
Q 3450 847 3017 386
Q 2584 -75 1856 -75
z
M 1894 2844
Q 1400 2844 1112 2508
Q 825 2172 825 1581
Q 825 1013 1115 684
Q 1406 356 1894 356
Q 2391 356 2658 678
Q 2925 1000 2925 1594
Q 2925 2194 2658 2519
Q 2391 2844 1894 2844
z
" transform="scale(0.015625)"/>
        <path id="SegoeUI-79" d="M 3066 3200
L 1594 -513
Q 1200 -1506 488 -1506
Q 288 -1506 153 -1466
L 153 -1006
Q 319 -1063 456 -1063
Q 844 -1063 1038 -600
L 1294 6
L 44 3200
L 613 3200
L 1478 738
Q 1494 691 1544 494
L 1563 494
Q 1578 569 1625 731
L 2534 3200
L 3066 3200
z
" transform="scale(0.015625)"/>
        <path id="SegoeUI-67" d="M 3250 256
Q 3250 -1506 1563 -1506
Q 969 -1506 525 -1281
L 525 -769
Q 1066 -1069 1556 -1069
Q 2738 -1069 2738 188
L 2738 538
L 2725 538
Q 2359 -75 1625 -75
Q 1028 -75 664 351
Q 300 778 300 1497
Q 300 2313 692 2794
Q 1084 3275 1766 3275
Q 2413 3275 2725 2756
L 2738 2756
L 2738 3200
L 3250 3200
L 3250 256
z
M 2738 1447
L 2738 1919
Q 2738 2300 2480 2572
Q 2222 2844 1838 2844
Q 1363 2844 1094 2498
Q 825 2153 825 1531
Q 825 997 1083 676
Q 1341 356 1766 356
Q 2197 356 2467 662
Q 2738 969 2738 1447
z
" transform="scale(0.015625)"/>
        <path id="SegoeUI-6e" d="M 3175 0
L 2663 0
L 2663 1825
Q 2663 2844 1919 2844
Q 1534 2844 1282 2555
Q 1031 2266 1031 1825
L 1031 0
L 519 0
L 519 3200
L 1031 3200
L 1031 2669
L 1044 2669
Q 1406 3275 2094 3275
Q 2619 3275 2897 2936
Q 3175 2597 3175 1956
L 3175 0
z
" transform="scale(0.015625)"/>
       </defs>
       <use xlink:href="#SegoeUI-50"/>
       <use xlink:href="#SegoeUI-6f" transform="translate(52.255859 0)"/>
       <use xlink:href="#SegoeUI-6c" transform="translate(110.849609 0)"/>
       <use xlink:href="#SegoeUI-79" transform="translate(135.068359 0)"/>
       <use xlink:href="#SegoeUI-67" transform="translate(182.957031 0)"/>
       <use xlink:href="#SegoeUI-6f" transform="translate(241.84375 0)"/>
       <use xlink:href="#SegoeUI-6e" transform="translate(300.4375 0)"/>
       <use xlink:href="#SegoeUI-20" transform="translate(357.029297 0)"/>
       <use xlink:href="#SegoeUI-50" transform="translate(384.421875 0)"/>
       <use xlink:href="#SegoeUI-6f" transform="translate(436.677734 0)"/>
       <use xlink:href="#SegoeUI-53" transform="translate(495.271484 0)"/>
      </g>
     </g>
    </g>
    <g id="ytick_3">
     <g id="line2d_3">
      <path d="M 93.267188 157.307727
L 810.387187 157.307727
" clip-path="url(#p701cf65da6)" style="fill: none; stroke: #e8ebf2; stroke-width: 0.8; stroke-linecap: round"/>
     </g>
     <g id="text_10">
      <!-- Near -->
      <g style="fill: #6f768a" transform="translate(68.492188 161.00929) scale(0.1 -0.1)">
       <defs>
        <path id="SegoeUI-4e" d="M 4200 0
L 3556 0
L 1250 3572
Q 1163 3706 1106 3853
L 1088 3853
Q 1113 3709 1113 3238
L 1113 0
L 588 0
L 588 4481
L 1269 4481
L 3513 966
Q 3653 747 3694 666
L 3706 666
Q 3675 859 3675 1325
L 3675 4481
L 4200 4481
L 4200 0
z
" transform="scale(0.015625)"/>
       </defs>
       <use xlink:href="#SegoeUI-4e"/>
       <use xlink:href="#SegoeUI-65" transform="translate(74.804688 0)"/>
       <use xlink:href="#SegoeUI-61" transform="translate(127.099609 0)"/>
       <use xlink:href="#SegoeUI-72" transform="translate(177.978516 0)"/>
      </g>
     </g>
    </g>
    <g id="ytick_4">
     <g id="line2d_4">
      <path d="M 93.267188 178.708295
L 810.387187 178.708295
" clip-path="url(#p701cf65da6)" style="fill: none; stroke: #e8ebf2; stroke-width: 0.8; stroke-linecap: round"/>
     </g>
     <g id="text_11">
      <!-- Ethereum -->
      <g style="fill: #6f768a" transform="translate(47.5875 182.409858) scale(0.1 -0.1)">
       <defs>
        <path id="SegoeUI-45" d="M 2963 0
L 588 0
L 588 4481
L 2863 4481
L 2863 4006
L 1113 4006
L 1113 2516
L 2731 2516
L 2731 2044
L 1113 2044
L 1113 475
L 2963 475
L 2963 0
z
" transform="scale(0.015625)"/>
        <path id="SegoeUI-68" d="M 3175 0
L 2663 0
L 2663 1844
Q 2663 2844 1919 2844
Q 1544 2844 1287 2555
Q 1031 2266 1031 1813
L 1031 0
L 519 0
L 519 4738
L 1031 4738
L 1031 2669
L 1044 2669
Q 1413 3275 2094 3275
Q 3175 3275 3175 1972
L 3175 0
z
" transform="scale(0.015625)"/>
       </defs>
       <use xlink:href="#SegoeUI-45"/>
       <use xlink:href="#SegoeUI-74" transform="translate(50.585938 0)"/>
       <use xlink:href="#SegoeUI-68" transform="translate(84.472656 0)"/>
       <use xlink:href="#SegoeUI-65" transform="translate(141.064453 0)"/>
       <use xlink:href="#SegoeUI-72" transform="translate(193.359375 0)"/>
       <use xlink:href="#SegoeUI-65" transform="translate(226.75 0)"/>
       <use xlink:href="#SegoeUI-75" transform="translate(279.044922 0)"/>
       <use xlink:href="#SegoeUI-6d" transform="translate(335.636719 0)"/>
      </g>
     </g>
    </g>
    <g id="ytick_5">
     <g id="line2d_5">
      <path d="M 93.267188 200.108864
L 810.387187 200.108864
" clip-path="url(#p701cf65da6)" style="fill: none; stroke: #e8ebf2; stroke-width: 0.8; stroke-linecap: round"/>
     </g>
     <g id="text_12">
      <!-- Avalanche C-Chain -->
      <g style="fill: #6f768a" transform="translate(7.2 203.810426) scale(0.1 -0.1)">
       <defs>
        <path id="SegoeUI-76" d="M 3034 3200
L 1759 0
L 1256 0
L 44 3200
L 606 3200
L 1419 875
Q 1509 619 1531 428
L 1544 428
Q 1575 669 1644 863
L 2494 3200
L 3034 3200
z
" transform="scale(0.015625)"/>
        <path id="SegoeUI-43" d="M 3638 188
Q 3141 -75 2400 -75
Q 1444 -75 869 540
Q 294 1156 294 2156
Q 294 3231 941 3893
Q 1588 4556 2581 4556
Q 3219 4556 3638 4372
L 3638 3813
Q 3156 4081 2575 4081
Q 1803 4081 1323 3565
Q 844 3050 844 2188
Q 844 1369 1292 883
Q 1741 397 2469 397
Q 3144 397 3638 697
L 3638 188
z
" transform="scale(0.015625)"/>
        <path id="SegoeUI-2d" d="M 2156 1581
L 450 1581
L 450 1984
L 2156 1984
L 2156 1581
z
" transform="scale(0.015625)"/>
       </defs>
       <use xlink:href="#SegoeUI-41"/>
       <use xlink:href="#SegoeUI-76" transform="translate(62.376953 0)"/>
       <use xlink:href="#SegoeUI-61" transform="translate(108.527344 0)"/>
       <use xlink:href="#SegoeUI-6c" transform="translate(159.40625 0)"/>
       <use xlink:href="#SegoeUI-61" transform="translate(183.625 0)"/>
       <use xlink:href="#SegoeUI-6e" transform="translate(234.503906 0)"/>
       <use xlink:href="#SegoeUI-63" transform="translate(291.095703 0)"/>
       <use xlink:href="#SegoeUI-68" transform="translate(337.287109 0)"/>
       <use xlink:href="#SegoeUI-65" transform="translate(393.878906 0)"/>
       <use xlink:href="#SegoeUI-20" transform="translate(446.173828 0)"/>
       <use xlink:href="#SegoeUI-43" transform="translate(473.566406 0)"/>
       <use xlink:href="#SegoeUI-2d" transform="translate(535.480469 0)"/>
       <use xlink:href="#SegoeUI-43" transform="translate(575.470703 0)"/>
       <use xlink:href="#SegoeUI-68" transform="translate(637.384766 0)"/>
       <use xlink:href="#SegoeUI-61" transform="translate(693.976562 0)"/>
       <use xlink:href="#SegoeUI-69" transform="translate(744.855469 0)"/>
       <use xlink:href="#SegoeUI-6e" transform="translate(769.074219 0)"/>
      </g>
     </g>
    </g>
    <g id="ytick_6">
     <g id="line2d_6">
      <path d="M 93.267188 221.509432
L 810.387187 221.509432
" clip-path="url(#p701cf65da6)" style="fill: none; stroke: #e8ebf2; stroke-width: 0.8; stroke-linecap: round"/>
     </g>
     <g id="text_13">
      <!-- Solana -->
      <g style="fill: #6f768a" transform="translate(60.339063 225.210994) scale(0.1 -0.1)">
       <use xlink:href="#SegoeUI-53"/>
       <use xlink:href="#SegoeUI-6f" transform="translate(53.125 0)"/>
       <use xlink:href="#SegoeUI-6c" transform="translate(111.71875 0)"/>
       <use xlink:href="#SegoeUI-61" transform="translate(135.9375 0)"/>
       <use xlink:href="#SegoeUI-6e" transform="translate(186.816406 0)"/>
       <use xlink:href="#SegoeUI-61" transform="translate(243.408203 0)"/>
      </g>
     </g>
    </g>
    <g id="ytick_7">
     <g id="line2d_7">
      <path d="M 93.267188 242.91
L 810.387187 242.91
" clip-path="url(#p701cf65da6)" style="fill: none; stroke: #e8ebf2; stroke-width: 0.8; stroke-linecap: round"/>
     </g>
     <g id="text_14">
      <!-- Aptos -->
      <g style="fill: #6f768a" transform="translate(64.020313 246.611562) scale(0.1 -0.1)">
       <defs>
        <path id="SegoeUI-70" d="M 1044 463
L 1031 463
L 1031 -1472
L 519 -1472
L 519 3200
L 1031 3200
L 1031 2638
L 1044 2638
Q 1422 3275 2150 3275
Q 2769 3275 3116 2845
Q 3463 2416 3463 1694
Q 3463 891 3072 408
Q 2681 -75 2003 -75
Q 1381 -75 1044 463
z
M 1031 1753
L 1031 1306
Q 1031 909 1289 632
Q 1547 356 1944 356
Q 2409 356 2673 712
Q 2938 1069 2938 1703
Q 2938 2238 2691 2541
Q 2444 2844 2022 2844
Q 1575 2844 1303 2533
Q 1031 2222 1031 1753
z
" transform="scale(0.015625)"/>
       </defs>
       <use xlink:href="#SegoeUI-41"/>
       <use xlink:href="#SegoeUI-70" transform="translate(64.501953 0)"/>
       <use xlink:href="#SegoeUI-74" transform="translate(123.291016 0)"/>
       <use xlink:href="#SegoeUI-6f" transform="translate(156.427734 0)"/>
       <use xlink:href="#SegoeUI-73" transform="translate(215.021484 0)"/>
      </g>
     </g>
    </g>
    <g id="ytick_8">
     <g id="line2d_8">
      <path d="M 93.267188 264.310568
L 810.387187 264.310568
" clip-path="url(#p701cf65da6)" style="fill: none; stroke: #e8ebf2; stroke-width: 0.8; stroke-linecap: round"/>
     </g>
     <g id="text_15">
      <!-- TON -->
      <g style="fill: #6f768a" transform="translate(69.957813 268.012131) scale(0.1 -0.1)">
       <defs>
        <path id="SegoeUI-54" d="M 3238 4006
L 1944 4006
L 1944 0
L 1419 0
L 1419 4006
L 128 4006
L 128 4481
L 3238 4481
L 3238 4006
z
" transform="scale(0.015625)"/>
        <path id="SegoeUI-4f" d="M 2394 -75
Q 1441 -75 867 553
Q 294 1181 294 2188
Q 294 3269 878 3912
Q 1463 4556 2469 4556
Q 3397 4556 3964 3931
Q 4531 3306 4531 2297
Q 4531 1200 3950 562
Q 3369 -75 2394 -75
z
M 2431 4081
Q 1725 4081 1284 3572
Q 844 3063 844 2234
Q 844 1406 1273 901
Q 1703 397 2394 397
Q 3131 397 3556 878
Q 3981 1359 3981 2225
Q 3981 3113 3568 3597
Q 3156 4081 2431 4081
z
" transform="scale(0.015625)"/>
       </defs>
       <use xlink:href="#SegoeUI-54"/>
       <use xlink:href="#SegoeUI-4f" transform="translate(47.892578 0)"/>
       <use xlink:href="#SegoeUI-4e" transform="translate(123.283203 0)"/>
      </g>
     </g>
    </g>
    <g id="ytick_9">
     <g id="line2d_9">
      <path d="M 93.267188 285.711136
L 810.387187 285.711136
" clip-path="url(#p701cf65da6)" style="fill: none; stroke: #e8ebf2; stroke-width: 0.8; stroke-linecap: round"/>
     </g>
     <g id="text_16">
      <!-- Acala -->
      <g style="fill: #6f768a" transform="translate(66.101562 289.412699) scale(0.1 -0.1)">
       <use xlink:href="#SegoeUI-41"/>
       <use xlink:href="#SegoeUI-63" transform="translate(64.501953 0)"/>
       <use xlink:href="#SegoeUI-61" transform="translate(110.693359 0)"/>
       <use xlink:href="#SegoeUI-6c" transform="translate(161.572266 0)"/>
       <use xlink:href="#SegoeUI-61" transform="translate(185.791016 0)"/>
      </g>
     </g>
    </g>
    <g id="ytick_10">
     <g id="line2d_10">
      <path d="M 93.267188 307.111705
L 810.387187 307.111705
" clip-path="url(#p701cf65da6)" style="fill: none; stroke: #e8ebf2; stroke-width: 0.8; stroke-linecap: round"/>
     </g>
     <g id="text_17">
      <!-- Aleo -->
      <g style="fill: #6f768a" transform="translate(69.80625 310.813267) scale(0.1 -0.1)">
       <use xlink:href="#SegoeUI-41"/>
       <use xlink:href="#SegoeUI-6c" transform="translate(64.501953 0)"/>
       <use xlink:href="#SegoeUI-65" transform="translate(88.720703 0)"/>
       <use xlink:href="#SegoeUI-6f" transform="translate(141.015625 0)"/>
      </g>
     </g>
    </g>
    <g id="ytick_11">
     <g id="line2d_11">
      <path d="M 93.267188 328.512273
L 810.387187 328.512273
" clip-path="url(#p701cf65da6)" style="fill: none; stroke: #e8ebf2; stroke-width: 0.8; stroke-linecap: round"/>
     </g>
     <g id="text_18">
      <!-- Algorand -->
      <g style="fill: #6f768a" transform="translate(49.034375 332.213835) scale(0.1 -0.1)">
       <use xlink:href="#SegoeUI-41"/>
       <use xlink:href="#SegoeUI-6c" transform="translate(64.501953 0)"/>
       <use xlink:href="#SegoeUI-67" transform="translate(88.720703 0)"/>
       <use xlink:href="#SegoeUI-6f" transform="translate(147.607422 0)"/>
       <use xlink:href="#SegoeUI-72" transform="translate(206.201172 0)"/>
       <use xlink:href="#SegoeUI-61" transform="translate(240.966797 0)"/>
       <use xlink:href="#SegoeUI-6e" transform="translate(291.845703 0)"/>
       <use xlink:href="#SegoeUI-64" transform="translate(348.4375 0)"/>
      </g>
     </g>
    </g>
    <g id="ytick_12">
     <g id="line2d_12">
      <path d="M 93.267188 349.912841
L 810.387187 349.912841
" clip-path="url(#p701cf65da6)" style="fill: none; stroke: #e8ebf2; stroke-width: 0.8; stroke-linecap: round"/>
     </g>
     <g id="text_19">
      <!-- Abstract -->
      <g style="fill: #6f768a" transform="translate(53.232813 353.614403) scale(0.1 -0.1)">
       <defs>
        <path id="SegoeUI-62" d="M 1044 463
L 1031 463
L 1031 0
L 519 0
L 519 4738
L 1031 4738
L 1031 2638
L 1044 2638
Q 1422 3275 2150 3275
Q 2766 3275 3114 2845
Q 3463 2416 3463 1694
Q 3463 891 3072 408
Q 2681 -75 2003 -75
Q 1369 -75 1044 463
z
M 1031 1753
L 1031 1306
Q 1031 909 1289 632
Q 1547 356 1944 356
Q 2409 356 2673 712
Q 2938 1069 2938 1703
Q 2938 2238 2691 2541
Q 2444 2844 2022 2844
Q 1575 2844 1303 2533
Q 1031 2222 1031 1753
z
" transform="scale(0.015625)"/>
       </defs>
       <use xlink:href="#SegoeUI-41"/>
       <use xlink:href="#SegoeUI-62" transform="translate(64.501953 0)"/>
       <use xlink:href="#SegoeUI-73" transform="translate(123.291016 0)"/>
       <use xlink:href="#SegoeUI-74" transform="translate(165.722656 0)"/>
       <use xlink:href="#SegoeUI-72" transform="translate(199.609375 0)"/>
       <use xlink:href="#SegoeUI-61" transform="translate(234.375 0)"/>
       <use xlink:href="#SegoeUI-63" transform="translate(285.253906 0)"/>
       <use xlink:href="#SegoeUI-74" transform="translate(331.445312 0)"/>
      </g>
     </g>
    </g>
    <g id="ytick_13">
     <g id="line2d_13">
      <path d="M 93.267188 371.313409
L 810.387187 371.313409
" clip-path="url(#p701cf65da6)" style="fill: none; stroke: #e8ebf2; stroke-width: 0.8; stroke-linecap: round"/>
     </g>
     <g id="text_20">
      <!-- Aioz Network -->
      <g style="fill: #6f768a" transform="translate(30.167188 375.014972) scale(0.1 -0.1)">
       <defs>
        <path id="SegoeUI-7a" d="M 2750 3053
L 856 438
L 2731 438
L 2731 0
L 103 0
L 103 159
L 1997 2763
L 281 2763
L 281 3200
L 2750 3200
L 2750 3053
z
" transform="scale(0.015625)"/>
        <path id="SegoeUI-77" d="M 4550 3200
L 3591 0
L 3059 0
L 2400 2291
Q 2363 2422 2350 2588
L 2338 2588
Q 2328 2475 2272 2297
L 1556 0
L 1044 0
L 75 3200
L 613 3200
L 1275 794
Q 1306 684 1319 506
L 1344 506
Q 1353 644 1400 800
L 2138 3200
L 2606 3200
L 3269 788
Q 3300 672 3316 500
L 3341 500
Q 3347 622 3394 788
L 4044 3200
L 4550 3200
z
" transform="scale(0.015625)"/>
        <path id="SegoeUI-6b" d="M 3175 0
L 2456 0
L 1044 1538
L 1031 1538
L 1031 0
L 519 0
L 519 4738
L 1031 4738
L 1031 1734
L 1044 1734
L 2388 3200
L 3059 3200
L 1575 1656
L 3175 0
z
" transform="scale(0.015625)"/>
       </defs>
       <use xlink:href="#SegoeUI-41"/>
       <use xlink:href="#SegoeUI-69" transform="translate(64.501953 0)"/>
       <use xlink:href="#SegoeUI-6f" transform="translate(88.720703 0)"/>
       <use xlink:href="#SegoeUI-7a" transform="translate(147.314453 0)"/>
       <use xlink:href="#SegoeUI-20" transform="translate(192.529297 0)"/>
       <use xlink:href="#SegoeUI-4e" transform="translate(219.921875 0)"/>
       <use xlink:href="#SegoeUI-65" transform="translate(294.726562 0)"/>
       <use xlink:href="#SegoeUI-74" transform="translate(347.021484 0)"/>
       <use xlink:href="#SegoeUI-77" transform="translate(380.908203 0)"/>
       <use xlink:href="#SegoeUI-6f" transform="translate(452.923828 0)"/>
       <use xlink:href="#SegoeUI-72" transform="translate(511.517578 0)"/>
       <use xlink:href="#SegoeUI-6b" transform="translate(546.283203 0)"/>
      </g>
     </g>
    </g>
   </g>
   <g id="patch_3">
    <path d="M 93.267188 105.946364
L 776.238616 105.946364
L 776.238616 123.066818
L 93.267188 123.066818
z
" clip-path="url(#p701cf65da6)" style="fill: #71b436; stroke: #386411; stroke-linejoin: miter"/>
   </g>
   <g id="patch_4">
    <path d="M 93.267188 127.346932
L 776.238616 127.346932
L 776.238616 144.467386
L 93.267188 144.467386
z
" clip-path="url(#p701cf65da6)" style="fill: #71b436; stroke: #386411; stroke-linejoin: miter"/>
   </g>
   <g id="patch_5">
    <path d="M 93.267188 148.7475
L 776.238616 148.7475
L 776.238616 165.867955
L 93.267188 165.867955
z
" clip-path="url(#p701cf65da6)" style="fill: #71b436; stroke: #386411; stroke-linejoin: miter"/>
   </g>
   <g id="patch_6">
    <path d="M 93.267188 170.148068
L 776.238616 170.148068
L 776.238616 187.268523
L 93.267188 187.268523
z
" clip-path="url(#p701cf65da6)" style="fill: #71b436; stroke: #386411; stroke-linejoin: miter"/>
   </g>
   <g id="patch_7">
    <path d="M 93.267188 191.548636
L 776.238616 191.548636
L 776.238616 208.669091
L 93.267188 208.669091
z
" clip-path="url(#p701cf65da6)" style="fill: #71b436; stroke: #386411; stroke-linejoin: miter"/>
   </g>
   <g id="patch_8">
    <path d="M 93.267188 212.949205
L 776.238616 212.949205
L 776.238616 230.069659
L 93.267188 230.069659
z
" clip-path="url(#p701cf65da6)" style="fill: #71b436; stroke: #386411; stroke-linejoin: miter"/>
   </g>
   <g id="patch_9">
    <path d="M 93.267188 234.349773
L 639.64433 234.349773
L 639.64433 251.470227
L 93.267188 251.470227
z
" clip-path="url(#p701cf65da6)" style="fill: #71b436; stroke: #386411; stroke-linejoin: miter"/>
   </g>
   <g id="patch_10">
    <path d="M 93.267188 255.750341
L 639.64433 255.750341
L 639.64433 272.870795
L 93.267188 272.870795
z
" clip-path="url(#p701cf65da6)" style="fill: #71b436; stroke: #386411; stroke-linejoin: miter"/>
   </g>
   <g id="patch_11">
    <path d="M 93.267188 277.150909
L 503.050045 277.150909
L 503.050045 294.271364
L 93.267188 294.271364
z
" clip-path="url(#p701cf65da6)" style="fill: #71b436; stroke: #386411; stroke-linejoin: miter"/>
   </g>
   <g id="patch_12">
    <path d="M 93.267188 298.551477
L 503.050045 298.551477
L 503.050045 315.671932
L 93.267188 315.671932
z
" clip-path="url(#p701cf65da6)" style="fill: #71b436; stroke: #386411; stroke-linejoin: miter"/>
   </g>
   <g id="patch_13">
    <path d="M 93.267188 319.952045
L 503.050045 319.952045
L 503.050045 337.0725
L 93.267188 337.0725
z
" clip-path="url(#p701cf65da6)" style="fill: #71b436; stroke: #386411; stroke-linejoin: miter"/>
   </g>
   <g id="patch_14">
    <path d="M 93.267188 341.352614
L 366.455759 341.352614
L 366.455759 358.473068
L 93.267188 358.473068
z
" clip-path="url(#p701cf65da6)" style="fill: #71b436; stroke: #386411; stroke-linejoin: miter"/>
   </g>
   <g id="patch_15">
    <path d="M 93.267188 362.753182
L 229.861473 362.753182
L 229.861473 379.873636
L 93.267188 379.873636
z
" clip-path="url(#p701cf65da6)" style="fill: #71b436; stroke: #386411; stroke-linejoin: miter"/>
   </g>
   <g id="patch_16">
    <path d="M 93.267188 393.57
L 93.267188 92.25
" style="fill: none; stroke: #d7dbe7; stroke-width: 1.25; stroke-linejoin: miter; stroke-linecap: square"/>
   </g>
   <g id="patch_17">
    <path d="M 93.267188 393.57
L 810.387187 393.57
" style="fill: none; stroke: #d7dbe7; stroke-width: 1.25; stroke-linejoin: miter; stroke-linecap: square"/>
   </g>
  </g>
  <g id="text_21">
   <!-- Chain metric coverage is uneven -->
   <g style="fill: #1f2430" transform="translate(75.987188 19.045) scale(0.16 -0.16)">
    <defs>
     <path id="SegoeUI-Semibold-43" d="M 3678 188
Q 3172 -75 2419 -75
Q 1444 -75 856 540
Q 269 1156 269 2156
Q 269 3231 930 3893
Q 1591 4556 2600 4556
Q 3250 4556 3678 4372
L 3678 3634
Q 3225 3903 2678 3903
Q 1950 3903 1498 3437
Q 1047 2972 1047 2194
Q 1047 1453 1469 1014
Q 1891 575 2578 575
Q 3213 575 3678 875
L 3678 188
z
" transform="scale(0.015625)"/>
     <path id="SegoeUI-Semibold-68" d="M 3316 0
L 2591 0
L 2591 1750
Q 2591 2700 1956 2700
Q 1638 2700 1419 2425
Q 1200 2150 1200 1722
L 1200 0
L 472 0
L 472 4738
L 1200 4738
L 1200 2669
L 1213 2669
Q 1575 3275 2250 3275
Q 3316 3275 3316 1972
L 3316 0
z
" transform="scale(0.015625)"/>
     <path id="SegoeUI-Semibold-61" d="M 2928 0
L 2225 0
L 2225 500
L 2213 500
Q 1881 -75 1241 -75
Q 769 -75 501 181
Q 234 438 234 859
Q 234 1766 1278 1916
L 2228 2050
Q 2228 2734 1578 2734
Q 1006 2734 547 2341
L 547 2975
Q 1053 3275 1716 3275
Q 2928 3275 2928 2081
L 2928 0
z
M 2228 1572
L 1556 1478
Q 1244 1438 1086 1327
Q 928 1216 928 938
Q 928 734 1073 604
Q 1219 475 1463 475
Q 1794 475 2011 708
Q 2228 941 2228 1294
L 2228 1572
z
" transform="scale(0.015625)"/>
     <path id="SegoeUI-Semibold-69" d="M 838 3872
Q 659 3872 532 3987
Q 406 4103 406 4281
Q 406 4459 532 4578
Q 659 4697 838 4697
Q 1022 4697 1150 4578
Q 1278 4459 1278 4281
Q 1278 4113 1150 3992
Q 1022 3872 838 3872
z
M 1197 0
L 472 0
L 472 3200
L 1197 3200
L 1197 0
z
" transform="scale(0.015625)"/>
     <path id="SegoeUI-Semibold-6e" d="M 3322 0
L 2597 0
L 2597 1803
Q 2597 2700 1963 2700
Q 1631 2700 1415 2451
Q 1200 2203 1200 1825
L 1200 0
L 472 0
L 472 3200
L 1200 3200
L 1200 2669
L 1213 2669
Q 1572 3275 2250 3275
Q 2772 3275 3047 2936
Q 3322 2597 3322 1956
L 3322 0
z
" transform="scale(0.015625)"/>
     <path id="SegoeUI-Semibold-20" transform="scale(0.015625)"/>
     <path id="SegoeUI-Semibold-6d" d="M 5256 0
L 4531 0
L 4531 1744
Q 4531 2247 4389 2472
Q 4247 2697 3909 2697
Q 3625 2697 3426 2412
Q 3228 2128 3228 1731
L 3228 0
L 2500 0
L 2500 1803
Q 2500 2697 1869 2697
Q 1575 2697 1386 2428
Q 1197 2159 1197 1731
L 1197 0
L 472 0
L 472 3200
L 1197 3200
L 1197 2694
L 1209 2694
Q 1556 3275 2219 3275
Q 2550 3275 2798 3092
Q 3047 2909 3138 2613
Q 3494 3275 4200 3275
Q 5256 3275 5256 1972
L 5256 0
z
" transform="scale(0.015625)"/>
     <path id="SegoeUI-Semibold-65" d="M 3181 1403
L 1000 1403
Q 1013 959 1273 718
Q 1534 478 1991 478
Q 2503 478 2931 784
L 2931 200
Q 2494 -75 1775 -75
Q 1069 -75 667 361
Q 266 797 266 1588
Q 266 2334 708 2804
Q 1150 3275 1806 3275
Q 2463 3275 2822 2853
Q 3181 2431 3181 1681
L 3181 1403
z
M 2481 1916
Q 2478 2306 2297 2523
Q 2116 2741 1797 2741
Q 1484 2741 1267 2512
Q 1050 2284 1000 1916
L 2481 1916
z
" transform="scale(0.015625)"/>
     <path id="SegoeUI-Semibold-74" d="M 2159 34
Q 1947 -72 1600 -72
Q 669 -72 669 822
L 669 2631
L 134 2631
L 134 3200
L 669 3200
L 669 3941
L 1394 4147
L 1394 3200
L 2159 3200
L 2159 2631
L 1394 2631
L 1394 1031
Q 1394 747 1497 625
Q 1600 503 1841 503
Q 2025 503 2159 609
L 2159 34
z
" transform="scale(0.015625)"/>
     <path id="SegoeUI-Semibold-72" d="M 2328 2509
Q 2197 2613 1950 2613
Q 1628 2613 1412 2322
Q 1197 2031 1197 1531
L 1197 0
L 472 0
L 472 3200
L 1197 3200
L 1197 2541
L 1209 2541
Q 1316 2878 1536 3067
Q 1756 3256 2028 3256
Q 2225 3256 2328 3197
L 2328 2509
z
" transform="scale(0.015625)"/>
     <path id="SegoeUI-Semibold-63" d="M 2763 147
Q 2378 -75 1853 -75
Q 1141 -75 703 370
Q 266 816 266 1525
Q 266 2316 736 2795
Q 1206 3275 1994 3275
Q 2431 3275 2766 3122
L 2766 2447
Q 2431 2697 2053 2697
Q 1594 2697 1300 2386
Q 1006 2075 1006 1572
Q 1006 1075 1282 787
Q 1559 500 2025 500
Q 2416 500 2763 778
L 2763 147
z
" transform="scale(0.015625)"/>
     <path id="SegoeUI-Semibold-6f" d="M 1891 -75
Q 1150 -75 708 373
Q 266 822 266 1563
Q 266 2369 727 2822
Q 1188 3275 1969 3275
Q 2719 3275 3137 2834
Q 3556 2394 3556 1613
Q 3556 847 3104 386
Q 2653 -75 1891 -75
z
M 1925 2697
Q 1500 2697 1253 2400
Q 1006 2103 1006 1581
Q 1006 1078 1256 789
Q 1506 500 1925 500
Q 2353 500 2583 784
Q 2813 1069 2813 1594
Q 2813 2122 2583 2409
Q 2353 2697 1925 2697
z
" transform="scale(0.015625)"/>
     <path id="SegoeUI-Semibold-76" d="M 3228 3200
L 1991 0
L 1206 0
L 28 3200
L 816 3200
L 1525 963
Q 1606 716 1625 531
L 1634 531
Q 1663 763 1722 950
L 2466 3200
L 3228 3200
z
" transform="scale(0.015625)"/>
     <path id="SegoeUI-Semibold-67" d="M 3384 256
Q 3384 -1506 1613 -1506
Q 988 -1506 522 -1297
L 522 -634
Q 1047 -934 1519 -934
Q 2659 -934 2659 188
L 2659 538
L 2647 538
Q 2288 -75 1566 -75
Q 981 -75 623 351
Q 266 778 266 1497
Q 266 2313 650 2794
Q 1034 3275 1706 3275
Q 2341 3275 2647 2756
L 2659 2756
L 2659 3200
L 3384 3200
L 3384 256
z
M 2666 1466
L 2666 1881
Q 2666 2219 2442 2458
Q 2219 2697 1884 2697
Q 1472 2697 1239 2392
Q 1006 2088 1006 1541
Q 1006 1069 1229 786
Q 1453 503 1822 503
Q 2197 503 2431 773
Q 2666 1044 2666 1466
z
" transform="scale(0.015625)"/>
     <path id="SegoeUI-Semibold-73" d="M 272 100
L 272 772
Q 678 463 1169 463
Q 1825 463 1825 850
Q 1825 959 1769 1036
Q 1713 1113 1617 1172
Q 1522 1231 1392 1278
Q 1263 1325 1103 1384
Q 906 1463 748 1550
Q 591 1638 486 1748
Q 381 1859 328 2000
Q 275 2141 275 2328
Q 275 2559 384 2736
Q 494 2913 678 3033
Q 863 3153 1097 3214
Q 1331 3275 1581 3275
Q 2025 3275 2375 3141
L 2375 2506
Q 2038 2738 1600 2738
Q 1463 2738 1352 2709
Q 1241 2681 1162 2631
Q 1084 2581 1040 2511
Q 997 2441 997 2356
Q 997 2253 1040 2181
Q 1084 2109 1170 2054
Q 1256 2000 1376 1954
Q 1497 1909 1653 1856
Q 1859 1772 2023 1684
Q 2188 1597 2303 1486
Q 2419 1375 2481 1229
Q 2544 1084 2544 884
Q 2544 641 2431 459
Q 2319 278 2131 159
Q 1944 41 1698 -17
Q 1453 -75 1181 -75
Q 656 -75 272 100
z
" transform="scale(0.015625)"/>
     <path id="SegoeUI-Semibold-75" d="M 3263 0
L 2538 0
L 2538 506
L 2525 506
Q 2209 -75 1544 -75
Q 409 -75 409 1288
L 409 3200
L 1134 3200
L 1134 1363
Q 1134 500 1800 500
Q 2122 500 2330 737
Q 2538 975 2538 1359
L 2538 3200
L 3263 3200
L 3263 0
z
" transform="scale(0.015625)"/>
    </defs>
    <use xlink:href="#SegoeUI-Semibold-43"/>
    <use xlink:href="#SegoeUI-Semibold-68" transform="translate(62.109375 0)"/>
    <use xlink:href="#SegoeUI-Semibold-61" transform="translate(120.3125 0)"/>
    <use xlink:href="#SegoeUI-Semibold-69" transform="translate(172.509766 0)"/>
    <use xlink:href="#SegoeUI-Semibold-6e" transform="translate(198.632812 0)"/>
    <use xlink:href="#SegoeUI-Semibold-20" transform="translate(256.982422 0)"/>
    <use xlink:href="#SegoeUI-Semibold-6d" transform="translate(284.472656 0)"/>
    <use xlink:href="#SegoeUI-Semibold-65" transform="translate(373.046875 0)"/>
    <use xlink:href="#SegoeUI-Semibold-74" transform="translate(426.171875 0)"/>
    <use xlink:href="#SegoeUI-Semibold-72" transform="translate(462.304688 0)"/>
    <use xlink:href="#SegoeUI-Semibold-69" transform="translate(499.316406 0)"/>
    <use xlink:href="#SegoeUI-Semibold-63" transform="translate(525.439453 0)"/>
    <use xlink:href="#SegoeUI-Semibold-20" transform="translate(572.460938 0)"/>
    <use xlink:href="#SegoeUI-Semibold-63" transform="translate(599.951172 0)"/>
    <use xlink:href="#SegoeUI-Semibold-6f" transform="translate(646.972656 0)"/>
    <use xlink:href="#SegoeUI-Semibold-76" transform="translate(706.689453 0)"/>
    <use xlink:href="#SegoeUI-Semibold-65" transform="translate(756.671875 0)"/>
    <use xlink:href="#SegoeUI-Semibold-72" transform="translate(809.796875 0)"/>
    <use xlink:href="#SegoeUI-Semibold-61" transform="translate(846.808594 0)"/>
    <use xlink:href="#SegoeUI-Semibold-67" transform="translate(899.005859 0)"/>
    <use xlink:href="#SegoeUI-Semibold-65" transform="translate(959.259766 0)"/>
    <use xlink:href="#SegoeUI-Semibold-20" transform="translate(1012.384766 0)"/>
    <use xlink:href="#SegoeUI-Semibold-69" transform="translate(1039.875 0)"/>
    <use xlink:href="#SegoeUI-Semibold-73" transform="translate(1065.998047 0)"/>
    <use xlink:href="#SegoeUI-Semibold-20" transform="translate(1109.113281 0)"/>
    <use xlink:href="#SegoeUI-Semibold-75" transform="translate(1136.603516 0)"/>
    <use xlink:href="#SegoeUI-Semibold-6e" transform="translate(1194.953125 0)"/>
    <use xlink:href="#SegoeUI-Semibold-65" transform="translate(1253.302734 0)"/>
    <use xlink:href="#SegoeUI-Semibold-76" transform="translate(1306.427734 0)"/>
    <use xlink:href="#SegoeUI-Semibold-65" transform="translate(1356.410156 0)"/>
    <use xlink:href="#SegoeUI-Semibold-6e" transform="translate(1409.535156 0)"/>
   </g>
  </g>
  <g id="text_22">
   <!-- Counts show metric families with adequate descriptive-panel status. -->
   <g style="fill: #6f768a" transform="translate(75.987188 39.760312) scale(0.11 -0.11)">
    <defs>
     <path id="SegoeUI-2e" d="M 697 -69
Q 553 -69 451 34
Q 350 138 350 281
Q 350 425 451 529
Q 553 634 697 634
Q 844 634 947 529
Q 1050 425 1050 281
Q 1050 138 947 34
Q 844 -69 697 -69
z
" transform="scale(0.015625)"/>
    </defs>
    <use xlink:href="#SegoeUI-43"/>
    <use xlink:href="#SegoeUI-6f" transform="translate(61.914062 0)"/>
    <use xlink:href="#SegoeUI-75" transform="translate(120.507812 0)"/>
    <use xlink:href="#SegoeUI-6e" transform="translate(177.099609 0)"/>
    <use xlink:href="#SegoeUI-74" transform="translate(233.691406 0)"/>
    <use xlink:href="#SegoeUI-73" transform="translate(267.578125 0)"/>
    <use xlink:href="#SegoeUI-20" transform="translate(310.009766 0)"/>
    <use xlink:href="#SegoeUI-73" transform="translate(337.402344 0)"/>
    <use xlink:href="#SegoeUI-68" transform="translate(379.833984 0)"/>
    <use xlink:href="#SegoeUI-6f" transform="translate(436.425781 0)"/>
    <use xlink:href="#SegoeUI-77" transform="translate(495.019531 0)"/>
    <use xlink:href="#SegoeUI-20" transform="translate(567.285156 0)"/>
    <use xlink:href="#SegoeUI-6d" transform="translate(594.677734 0)"/>
    <use xlink:href="#SegoeUI-65" transform="translate(680.810547 0)"/>
    <use xlink:href="#SegoeUI-74" transform="translate(733.105469 0)"/>
    <use xlink:href="#SegoeUI-72" transform="translate(766.992188 0)"/>
    <use xlink:href="#SegoeUI-69" transform="translate(801.757812 0)"/>
    <use xlink:href="#SegoeUI-63" transform="translate(825.976562 0)"/>
    <use xlink:href="#SegoeUI-20" transform="translate(872.167969 0)"/>
    <use xlink:href="#SegoeUI-66" transform="translate(899.560547 0)"/>
    <use xlink:href="#SegoeUI-61" transform="translate(930.859375 0)"/>
    <use xlink:href="#SegoeUI-6d" transform="translate(981.738281 0)"/>
    <use xlink:href="#SegoeUI-69" transform="translate(1067.871094 0)"/>
    <use xlink:href="#SegoeUI-6c" transform="translate(1092.089844 0)"/>
    <use xlink:href="#SegoeUI-69" transform="translate(1116.308594 0)"/>
    <use xlink:href="#SegoeUI-65" transform="translate(1140.527344 0)"/>
    <use xlink:href="#SegoeUI-73" transform="translate(1192.822266 0)"/>
    <use xlink:href="#SegoeUI-20" transform="translate(1235.253906 0)"/>
    <use xlink:href="#SegoeUI-77" transform="translate(1262.646484 0)"/>
    <use xlink:href="#SegoeUI-69" transform="translate(1334.912109 0)"/>
    <use xlink:href="#SegoeUI-74" transform="translate(1359.130859 0)"/>
    <use xlink:href="#SegoeUI-68" transform="translate(1393.017578 0)"/>
    <use xlink:href="#SegoeUI-20" transform="translate(1449.609375 0)"/>
    <use xlink:href="#SegoeUI-61" transform="translate(1477.001953 0)"/>
    <use xlink:href="#SegoeUI-64" transform="translate(1527.880859 0)"/>
    <use xlink:href="#SegoeUI-65" transform="translate(1586.767578 0)"/>
    <use xlink:href="#SegoeUI-71" transform="translate(1639.0625 0)"/>
    <use xlink:href="#SegoeUI-75" transform="translate(1697.949219 0)"/>
    <use xlink:href="#SegoeUI-61" transform="translate(1754.541016 0)"/>
    <use xlink:href="#SegoeUI-74" transform="translate(1805.419922 0)"/>
    <use xlink:href="#SegoeUI-65" transform="translate(1838.556641 0)"/>
    <use xlink:href="#SegoeUI-20" transform="translate(1890.851562 0)"/>
    <use xlink:href="#SegoeUI-64" transform="translate(1918.244141 0)"/>
    <use xlink:href="#SegoeUI-65" transform="translate(1977.130859 0)"/>
    <use xlink:href="#SegoeUI-73" transform="translate(2029.425781 0)"/>
    <use xlink:href="#SegoeUI-63" transform="translate(2071.857422 0)"/>
    <use xlink:href="#SegoeUI-72" transform="translate(2118.048828 0)"/>
    <use xlink:href="#SegoeUI-69" transform="translate(2152.814453 0)"/>
    <use xlink:href="#SegoeUI-70" transform="translate(2177.033203 0)"/>
    <use xlink:href="#SegoeUI-74" transform="translate(2235.822266 0)"/>
    <use xlink:href="#SegoeUI-69" transform="translate(2269.708984 0)"/>
    <use xlink:href="#SegoeUI-76" transform="translate(2293.927734 0)"/>
    <use xlink:href="#SegoeUI-65" transform="translate(2341.203125 0)"/>
    <use xlink:href="#SegoeUI-2d" transform="translate(2393.498047 0)"/>
    <use xlink:href="#SegoeUI-70" transform="translate(2433.488281 0)"/>
    <use xlink:href="#SegoeUI-61" transform="translate(2490.902344 0)"/>
    <use xlink:href="#SegoeUI-6e" transform="translate(2541.78125 0)"/>
    <use xlink:href="#SegoeUI-65" transform="translate(2598.373047 0)"/>
    <use xlink:href="#SegoeUI-6c" transform="translate(2650.667969 0)"/>
    <use xlink:href="#SegoeUI-20" transform="translate(2674.886719 0)"/>
    <use xlink:href="#SegoeUI-73" transform="translate(2702.279297 0)"/>
    <use xlink:href="#SegoeUI-74" transform="translate(2744.710938 0)"/>
    <use xlink:href="#SegoeUI-61" transform="translate(2778.597656 0)"/>
    <use xlink:href="#SegoeUI-74" transform="translate(2829.476562 0)"/>
    <use xlink:href="#SegoeUI-75" transform="translate(2863.363281 0)"/>
    <use xlink:href="#SegoeUI-73" transform="translate(2919.955078 0)"/>
    <use xlink:href="#SegoeUI-2e" transform="translate(2962.386719 0)"/>
   </g>
  </g>
 </g>
 <defs>
  <clipPath id="p701cf65da6">
   <rect x="93.267188" y="92.25" width="717.12" height="301.32"/>
  </clipPath>
 </defs>
</svg>
