<?xml version="1.0" encoding="utf-8" standalone="no"?>
<!DOCTYPE svg PUBLIC "-//W3C//DTD SVG 1.1//EN"
  "http://www.w3.org/Graphics/SVG/1.1/DTD/svg11.dtd">
<svg xmlns:xlink="http://www.w3.org/1999/xlink" width="792pt" height="413.973125pt" viewBox="0 0 792 413.973125" xmlns="http://www.w3.org/2000/svg" version="1.1">
 <metadata>
  <rdf:RDF xmlns:dc="http://purl.org/dc/elements/1.1/" xmlns:cc="http://creativecommons.org/ns#" xmlns:rdf="http://www.w3.org/1999/02/22-rdf-syntax-ns#">
   <cc:Work>
    <dc:type rdf:resource="http://purl.org/dc/dcmitype/StillImage"/>
    <dc:format>image/svg+xml</dc:format>
    <dc:creator>
     <cc:Agent>
      <dc:title>Matplotlib v3.10.8, https://matplotlib.org/</dc:title>
     </cc:Agent>
    </dc:creator>
   </cc:Work>
  </rdf:RDF>
 </metadata>
 <defs>
  <style type="text/css">*{stroke-linejoin: round; stroke-linecap: butt}</style>
 </defs>
 <g id="figure_1">
  <g id="patch_1">
   <path d="M 0 413.973125
L 792 413.973125
L 792 0
L 0 0
z
" style="fill: #ffffff"/>
  </g>
  <g id="axes_1">
   <g id="patch_2">
    <path d="M 41.76 393.57
L 784.8 393.57
L 784.8 92.25
L 41.76 92.25
z
" style="fill: #ffffff"/>
   </g>
   <g id="matplotlib.axis_1">
    <g id="xtick_1">
     <g id="text_1">
      <!-- ETH -->
      <g style="fill: #6f768a" transform="translate(94.393884 404.473125) scale(0.1 -0.1)">
       <defs>
        <path id="SegoeUI-45" d="M 2963 0
L 588 0
L 588 4481
L 2863 4481
L 2863 4006
L 1113 4006
L 1113 2516
L 2731 2516
L 2731 2044
L 1113 2044
L 1113 475
L 2963 475
L 2963 0
z
" transform="scale(0.015625)"/>
        <path id="SegoeUI-54" d="M 3238 4006
L 1944 4006
L 1944 0
L 1419 0
L 1419 4006
L 128 4006
L 128 4481
L 3238 4481
L 3238 4006
z
" transform="scale(0.015625)"/>
        <path id="SegoeUI-48" d="M 3956 0
L 3431 0
L 3431 2044
L 1113 2044
L 1113 0
L 588 0
L 588 4481
L 1113 4481
L 1113 2516
L 3431 2516
L 3431 4481
L 3956 4481
L 3956 0
z
" transform="scale(0.015625)"/>
       </defs>
       <use xlink:href="#SegoeUI-45"/>
       <use xlink:href="#SegoeUI-54" transform="translate(50.835938 0)"/>
       <use xlink:href="#SegoeUI-48" transform="translate(103.228516 0)"/>
      </g>
     </g>
    </g>
    <g id="xtick_2">
     <g id="text_2">
      <!-- DOGE -->
      <g style="fill: #6f768a" transform="translate(158.797309 404.473125) scale(0.1 -0.1)">
       <defs>
        <path id="SegoeUI-44" d="M 588 0
L 588 4481
L 1825 4481
Q 4194 4481 4194 2297
Q 4194 1259 3536 629
Q 2878 0 1775 0
L 588 0
z
M 1113 4006
L 1113 475
L 1781 475
Q 2663 475 3153 947
Q 3644 1419 3644 2284
Q 3644 4006 1813 4006
L 1113 4006
z
" transform="scale(0.015625)"/>
        <path id="SegoeUI-4f" d="M 2394 -75
Q 1441 -75 867 553
Q 294 1181 294 2188
Q 294 3269 878 3912
Q 1463 4556 2469 4556
Q 3397 4556 3964 3931
Q 4531 3306 4531 2297
Q 4531 1200 3950 562
Q 3369 -75 2394 -75
z
M 2431 4081
Q 1725 4081 1284 3572
Q 844 3063 844 2234
Q 844 1406 1273 901
Q 1703 397 2394 397
Q 3131 397 3556 878
Q 3981 1359 3981 2225
Q 3981 3113 3568 3597
Q 3156 4081 2431 4081
z
" transform="scale(0.015625)"/>
        <path id="SegoeUI-47" d="M 3938 306
Q 3263 -75 2438 -75
Q 1478 -75 886 544
Q 294 1163 294 2181
Q 294 3222 951 3889
Q 1609 4556 2619 4556
Q 3350 4556 3847 4319
L 3847 3738
Q 3303 4081 2559 4081
Q 1806 4081 1325 3562
Q 844 3044 844 2219
Q 844 1369 1291 883
Q 1738 397 2503 397
Q 3028 397 3413 606
L 3413 1863
L 2431 1863
L 2431 2338
L 3938 2338
L 3938 306
z
" transform="scale(0.015625)"/>
       </defs>
       <use xlink:href="#SegoeUI-44"/>
       <use xlink:href="#SegoeUI-4f" transform="translate(70.117188 0)"/>
       <use xlink:href="#SegoeUI-47" transform="translate(145.507812 0)"/>
       <use xlink:href="#SegoeUI-45" transform="translate(214.111328 0)"/>
      </g>
     </g>
    </g>
    <g id="xtick_3">
     <g id="text_3">
      <!-- SOL -->
      <g style="fill: #6f768a" transform="translate(232.181203 404.473125) scale(0.1 -0.1)">
       <defs>
        <path id="SegoeUI-53" d="M 378 181
L 378 800
Q 484 706 632 631
Q 781 556 945 504
Q 1109 453 1275 425
Q 1441 397 1581 397
Q 2066 397 2305 576
Q 2544 756 2544 1094
Q 2544 1275 2464 1409
Q 2384 1544 2243 1655
Q 2103 1766 1911 1867
Q 1719 1969 1497 2081
Q 1263 2200 1059 2322
Q 856 2444 706 2591
Q 556 2738 470 2923
Q 384 3109 384 3359
Q 384 3666 518 3892
Q 653 4119 872 4266
Q 1091 4413 1370 4484
Q 1650 4556 1941 4556
Q 2603 4556 2906 4397
L 2906 3806
Q 2509 4081 1888 4081
Q 1716 4081 1544 4045
Q 1372 4009 1237 3928
Q 1103 3847 1018 3719
Q 934 3591 934 3406
Q 934 3234 998 3109
Q 1063 2984 1188 2881
Q 1313 2778 1492 2681
Q 1672 2584 1906 2469
Q 2147 2350 2362 2219
Q 2578 2088 2740 1928
Q 2903 1769 2998 1575
Q 3094 1381 3094 1131
Q 3094 800 2964 570
Q 2834 341 2614 197
Q 2394 53 2106 -11
Q 1819 -75 1500 -75
Q 1394 -75 1237 -58
Q 1081 -41 918 -8
Q 756 25 611 73
Q 466 122 378 181
z
" transform="scale(0.015625)"/>
        <path id="SegoeUI-4c" d="M 2913 0
L 588 0
L 588 4481
L 1113 4481
L 1113 475
L 2913 475
L 2913 0
z
" transform="scale(0.015625)"/>
       </defs>
       <use xlink:href="#SegoeUI-53"/>
       <use xlink:href="#SegoeUI-4f" transform="translate(53.125 0)"/>
       <use xlink:href="#SegoeUI-4c" transform="translate(128.515625 0)"/>
      </g>
     </g>
    </g>
    <g id="xtick_4">
     <g id="text_4">
      <!-- ADA -->
      <g style="fill: #6f768a" transform="translate(300.013534 404.473125) scale(0.1 -0.1)">
       <defs>
        <path id="SegoeUI-41" d="M 4056 0
L 3475 0
L 3000 1256
L 1100 1256
L 653 0
L 69 0
L 1788 4481
L 2331 4481
L 4056 0
z
M 2828 1728
L 2125 3638
Q 2091 3731 2056 3938
L 2044 3938
Q 2013 3747 1972 3638
L 1275 1728
L 2828 1728
z
" transform="scale(0.015625)"/>
       </defs>
       <use xlink:href="#SegoeUI-41"/>
       <use xlink:href="#SegoeUI-44" transform="translate(64.501953 0)"/>
       <use xlink:href="#SegoeUI-41" transform="translate(132.994141 0)"/>
      </g>
     </g>
    </g>
    <g id="xtick_5">
     <g id="text_5">
      <!-- BTC -->
      <g style="fill: #6f768a" transform="translate(370.684147 404.473125) scale(0.1 -0.1)">
       <defs>
        <path id="SegoeUI-42" d="M 588 0
L 588 4481
L 1863 4481
Q 2444 4481 2784 4197
Q 3125 3913 3125 3456
Q 3125 3075 2919 2794
Q 2713 2513 2350 2394
L 2350 2381
Q 2803 2328 3075 2039
Q 3347 1750 3347 1288
Q 3347 713 2934 356
Q 2522 0 1894 0
L 588 0
z
M 1113 4006
L 1113 2559
L 1650 2559
Q 2081 2559 2328 2767
Q 2575 2975 2575 3353
Q 2575 4006 1716 4006
L 1113 4006
z
M 1113 2088
L 1113 475
L 1825 475
Q 2288 475 2542 694
Q 2797 913 2797 1294
Q 2797 2088 1716 2088
L 1113 2088
z
" transform="scale(0.015625)"/>
        <path id="SegoeUI-43" d="M 3638 188
Q 3141 -75 2400 -75
Q 1444 -75 869 540
Q 294 1156 294 2156
Q 294 3231 941 3893
Q 1588 4556 2581 4556
Q 3219 4556 3638 4372
L 3638 3813
Q 3156 4081 2575 4081
Q 1803 4081 1323 3565
Q 844 3050 844 2188
Q 844 1369 1292 883
Q 1741 397 2469 397
Q 3144 397 3638 697
L 3638 188
z
" transform="scale(0.015625)"/>
       </defs>
       <use xlink:href="#SegoeUI-42"/>
       <use xlink:href="#SegoeUI-54" transform="translate(52.824219 0)"/>
       <use xlink:href="#SegoeUI-43" transform="translate(100.716797 0)"/>
      </g>
     </g>
    </g>
    <g id="xtick_6">
     <g id="text_6">
      <!-- XRP -->
      <g style="fill: #6f768a" transform="translate(439.003978 404.473125) scale(0.1 -0.1)">
       <defs>
        <path id="SegoeUI-58" d="M 3681 0
L 3041 0
L 2009 1716
Q 1963 1794 1906 1938
L 1894 1938
Q 1863 1866 1788 1716
L 725 0
L 81 0
L 1581 2253
L 200 4481
L 844 4481
L 1759 2906
Q 1850 2750 1919 2594
L 1931 2594
Q 2031 2800 2106 2919
L 3059 4481
L 3663 4481
L 2253 2259
L 3681 0
z
" transform="scale(0.015625)"/>
        <path id="SegoeUI-52" d="M 3800 0
L 3175 0
L 2425 1256
Q 2322 1431 2225 1554
Q 2128 1678 2026 1756
Q 1925 1834 1808 1870
Q 1691 1906 1544 1906
L 1113 1906
L 1113 0
L 588 0
L 588 4481
L 1925 4481
Q 2219 4481 2467 4407
Q 2716 4334 2898 4184
Q 3081 4034 3184 3811
Q 3288 3588 3288 3288
Q 3288 3053 3217 2858
Q 3147 2663 3017 2509
Q 2888 2356 2705 2248
Q 2522 2141 2294 2081
L 2294 2069
Q 2406 2019 2489 1955
Q 2572 1891 2647 1803
Q 2722 1716 2795 1605
Q 2869 1494 2959 1347
L 3800 0
z
M 1113 4006
L 1113 2381
L 1825 2381
Q 2022 2381 2189 2440
Q 2356 2500 2478 2611
Q 2600 2722 2669 2883
Q 2738 3044 2738 3244
Q 2738 3603 2505 3804
Q 2272 4006 1831 4006
L 1113 4006
z
" transform="scale(0.015625)"/>
        <path id="SegoeUI-50" d="M 1113 1694
L 1113 0
L 588 0
L 588 4481
L 1819 4481
Q 2538 4481 2933 4131
Q 3328 3781 3328 3144
Q 3328 2506 2889 2100
Q 2450 1694 1703 1694
L 1113 1694
z
M 1113 4006
L 1113 2169
L 1663 2169
Q 2206 2169 2492 2417
Q 2778 2666 2778 3119
Q 2778 4006 1728 4006
L 1113 4006
z
" transform="scale(0.015625)"/>
       </defs>
       <use xlink:href="#SegoeUI-58"/>
       <use xlink:href="#SegoeUI-52" transform="translate(58.984375 0)"/>
       <use xlink:href="#SegoeUI-50" transform="translate(118.798828 0)"/>
      </g>
     </g>
    </g>
    <g id="xtick_7">
     <g id="text_7">
      <!-- BNB -->
      <g style="fill: #6f768a" transform="translate(507.198028 404.473125) scale(0.1 -0.1)">
       <defs>
        <path id="SegoeUI-4e" d="M 4200 0
L 3556 0
L 1250 3572
Q 1163 3706 1106 3853
L 1088 3853
Q 1113 3709 1113 3238
L 1113 0
L 588 0
L 588 4481
L 1269 4481
L 3513 966
Q 3653 747 3694 666
L 3706 666
Q 3675 859 3675 1325
L 3675 4481
L 4200 4481
L 4200 0
z
" transform="scale(0.015625)"/>
       </defs>
       <use xlink:href="#SegoeUI-42"/>
       <use xlink:href="#SegoeUI-4e" transform="translate(57.324219 0)"/>
       <use xlink:href="#SegoeUI-42" transform="translate(132.128906 0)"/>
      </g>
     </g>
    </g>
    <g id="xtick_8">
     <g id="text_8">
      <!-- TON -->
      <g style="fill: #6f768a" transform="translate(575.694422 404.473125) scale(0.1 -0.1)">
       <use xlink:href="#SegoeUI-54"/>
       <use xlink:href="#SegoeUI-4f" transform="translate(47.892578 0)"/>
       <use xlink:href="#SegoeUI-4e" transform="translate(123.283203 0)"/>
      </g>
     </g>
    </g>
    <g id="xtick_9">
     <g id="text_9">
      <!-- HYPE -->
      <g style="fill: #6f768a" transform="translate(642.883003 404.473125) scale(0.1 -0.1)">
       <defs>
        <path id="SegoeUI-59" d="M 3500 4481
L 2022 1656
L 2022 0
L 1497 0
L 1497 1644
L 56 4481
L 653 4481
L 1656 2456
Q 1675 2419 1766 2181
L 1775 2181
Q 1806 2288 1894 2456
L 2944 4481
L 3500 4481
z
" transform="scale(0.015625)"/>
       </defs>
       <use xlink:href="#SegoeUI-48"/>
       <use xlink:href="#SegoeUI-59" transform="translate(70.996094 0)"/>
       <use xlink:href="#SegoeUI-50" transform="translate(126.269531 0)"/>
       <use xlink:href="#SegoeUI-45" transform="translate(182.275391 0)"/>
      </g>
     </g>
    </g>
    <g id="xtick_10">
     <g id="text_10">
      <!-- TRX -->
      <g style="fill: #6f768a" transform="translate(714.895022 404.473125) scale(0.1 -0.1)">
       <use xlink:href="#SegoeUI-54"/>
       <use xlink:href="#SegoeUI-52" transform="translate(52.392578 0)"/>
       <use xlink:href="#SegoeUI-58" transform="translate(112.207031 0)"/>
      </g>
     </g>
    </g>
   </g>
   <g id="matplotlib.axis_2">
    <g id="ytick_1">
     <g id="line2d_1">
      <path d="M 41.76 393.57
L 784.8 393.57
" clip-path="url(#p8343ad5ad8)" style="fill: none; stroke: #e8ebf2; stroke-width: 0.8; stroke-linecap: round"/>
     </g>
     <g id="text_11">
      <!-- 0.0 -->
      <g style="fill: #6f768a" transform="translate(25.31 397.271562) scale(0.1 -0.1)">
       <defs>
        <path id="SegoeUI-30" d="M 3188 2259
Q 3188 1697 3086 1262
Q 2984 828 2792 529
Q 2600 231 2320 76
Q 2041 -78 1684 -78
Q 1347 -78 1083 70
Q 819 219 637 503
Q 456 788 362 1202
Q 269 1616 269 2150
Q 269 2738 367 3188
Q 466 3638 656 3942
Q 847 4247 1130 4401
Q 1413 4556 1778 4556
Q 3188 4556 3188 2259
z
M 2663 2209
Q 2663 4122 1753 4122
Q 794 4122 794 2175
Q 794 359 1734 359
Q 2663 359 2663 2209
z
" transform="scale(0.015625)"/>
        <path id="SegoeUI-2e" d="M 697 -69
Q 553 -69 451 34
Q 350 138 350 281
Q 350 425 451 529
Q 553 634 697 634
Q 844 634 947 529
Q 1050 425 1050 281
Q 1050 138 947 34
Q 844 -69 697 -69
z
" transform="scale(0.015625)"/>
       </defs>
       <use xlink:href="#SegoeUI-30"/>
       <use xlink:href="#SegoeUI-2e" transform="translate(53.90625 0)"/>
       <use xlink:href="#SegoeUI-30" transform="translate(75.585938 0)"/>
      </g>
     </g>
    </g>
    <g id="ytick_2">
     <g id="line2d_2">
      <path d="M 41.76 336.175714
L 784.8 336.175714
" clip-path="url(#p8343ad5ad8)" style="fill: none; stroke: #e8ebf2; stroke-width: 0.8; stroke-linecap: round"/>
     </g>
     <g id="text_12">
      <!-- 0.2 -->
      <g style="fill: #6f768a" transform="translate(25.31 339.877277) scale(0.1 -0.1)">
       <defs>
        <path id="SegoeUI-32" d="M 2413 3306
Q 2413 3513 2348 3666
Q 2284 3819 2173 3920
Q 2063 4022 1913 4072
Q 1763 4122 1588 4122
Q 1438 4122 1294 4081
Q 1150 4041 1014 3969
Q 878 3897 751 3797
Q 625 3697 516 3575
L 516 4125
Q 731 4334 998 4445
Q 1266 4556 1650 4556
Q 1925 4556 2159 4476
Q 2394 4397 2566 4244
Q 2738 4091 2836 3866
Q 2934 3641 2934 3350
Q 2934 3084 2873 2868
Q 2813 2653 2689 2462
Q 2566 2272 2378 2097
Q 2191 1922 1938 1741
Q 1622 1516 1417 1356
Q 1213 1197 1092 1058
Q 972 919 923 780
Q 875 641 875 459
L 3106 459
L 3106 0
L 341 0
L 341 222
Q 341 509 403 728
Q 466 947 609 1144
Q 753 1341 986 1537
Q 1219 1734 1556 1981
Q 1800 2156 1964 2315
Q 2128 2475 2228 2634
Q 2328 2794 2370 2958
Q 2413 3122 2413 3306
z
" transform="scale(0.015625)"/>
       </defs>
       <use xlink:href="#SegoeUI-30"/>
       <use xlink:href="#SegoeUI-2e" transform="translate(53.90625 0)"/>
       <use xlink:href="#SegoeUI-32" transform="translate(75.585938 0)"/>
      </g>
     </g>
    </g>
    <g id="ytick_3">
     <g id="line2d_3">
      <path d="M 41.76 278.781429
L 784.8 278.781429
" clip-path="url(#p8343ad5ad8)" style="fill: none; stroke: #e8ebf2; stroke-width: 0.8; stroke-linecap: round"/>
     </g>
     <g id="text_13">
      <!-- 0.4 -->
      <g style="fill: #6f768a" transform="translate(25.31 282.482991) scale(0.1 -0.1)">
       <defs>
        <path id="SegoeUI-34" d="M 2656 4481
L 2656 1522
L 3231 1522
L 3231 1053
L 2656 1053
L 2656 0
L 2150 0
L 2150 1053
L 44 1053
L 44 1497
Q 338 1828 638 2204
Q 938 2581 1211 2968
Q 1484 3356 1717 3742
Q 1950 4128 2109 4481
L 2656 4481
z
M 622 1522
L 2150 1522
L 2150 3716
Q 1916 3306 1706 2984
Q 1497 2663 1308 2400
Q 1119 2138 947 1925
Q 775 1713 622 1522
z
" transform="scale(0.015625)"/>
       </defs>
       <use xlink:href="#SegoeUI-30"/>
       <use xlink:href="#SegoeUI-2e" transform="translate(53.90625 0)"/>
       <use xlink:href="#SegoeUI-34" transform="translate(75.585938 0)"/>
      </g>
     </g>
    </g>
    <g id="ytick_4">
     <g id="line2d_4">
      <path d="M 41.76 221.387143
L 784.8 221.387143
" clip-path="url(#p8343ad5ad8)" style="fill: none; stroke: #e8ebf2; stroke-width: 0.8; stroke-linecap: round"/>
     </g>
     <g id="text_14">
      <!-- 0.6 -->
      <g style="fill: #6f768a" transform="translate(25.31 225.088705) scale(0.1 -0.1)">
       <defs>
        <path id="SegoeUI-36" d="M 3194 1422
Q 3194 1094 3087 819
Q 2981 544 2793 344
Q 2606 144 2347 33
Q 2088 -78 1784 -78
Q 1447 -78 1180 62
Q 913 203 727 467
Q 541 731 444 1112
Q 347 1494 347 1972
Q 347 2556 476 3032
Q 606 3509 845 3848
Q 1084 4188 1421 4372
Q 1759 4556 2175 4556
Q 2638 4556 2919 4428
L 2919 3944
Q 2572 4122 2188 4122
Q 1888 4122 1647 3987
Q 1406 3853 1234 3608
Q 1063 3363 970 3016
Q 878 2669 878 2244
L 891 2244
Q 1200 2803 1913 2803
Q 2206 2803 2442 2703
Q 2678 2603 2845 2420
Q 3013 2238 3103 1984
Q 3194 1731 3194 1422
z
M 2669 1356
Q 2669 1591 2609 1778
Q 2550 1966 2439 2097
Q 2328 2228 2165 2298
Q 2003 2369 1797 2369
Q 1606 2369 1443 2297
Q 1281 2225 1162 2101
Q 1044 1978 976 1814
Q 909 1650 909 1466
Q 909 1234 975 1032
Q 1041 831 1159 681
Q 1278 531 1442 445
Q 1606 359 1806 359
Q 2000 359 2159 432
Q 2319 506 2431 637
Q 2544 769 2606 951
Q 2669 1134 2669 1356
z
" transform="scale(0.015625)"/>
       </defs>
       <use xlink:href="#SegoeUI-30"/>
       <use xlink:href="#SegoeUI-2e" transform="translate(53.90625 0)"/>
       <use xlink:href="#SegoeUI-36" transform="translate(75.585938 0)"/>
      </g>
     </g>
    </g>
    <g id="ytick_5">
     <g id="line2d_5">
      <path d="M 41.76 163.992857
L 784.8 163.992857
" clip-path="url(#p8343ad5ad8)" style="fill: none; stroke: #e8ebf2; stroke-width: 0.8; stroke-linecap: round"/>
     </g>
     <g id="text_15">
      <!-- 0.8 -->
      <g style="fill: #6f768a" transform="translate(25.31 167.69442) scale(0.1 -0.1)">
       <defs>
        <path id="SegoeUI-38" d="M 281 1250
Q 281 1428 337 1608
Q 394 1788 498 1944
Q 603 2100 758 2228
Q 913 2356 1109 2431
Q 819 2594 647 2848
Q 475 3103 475 3413
Q 475 3659 570 3868
Q 666 4078 834 4231
Q 1003 4384 1234 4470
Q 1466 4556 1734 4556
Q 2006 4556 2237 4468
Q 2469 4381 2637 4228
Q 2806 4075 2900 3865
Q 2994 3656 2994 3413
Q 2994 3103 2822 2848
Q 2650 2594 2366 2431
Q 2559 2356 2712 2228
Q 2866 2100 2970 1944
Q 3075 1788 3131 1608
Q 3188 1428 3188 1250
Q 3188 956 3081 712
Q 2975 469 2783 295
Q 2591 122 2323 25
Q 2056 -72 1734 -72
Q 1416 -72 1150 25
Q 884 122 690 295
Q 497 469 389 712
Q 281 956 281 1250
z
M 838 1294
Q 838 1084 902 915
Q 966 747 1083 628
Q 1200 509 1367 445
Q 1534 381 1738 381
Q 1934 381 2100 447
Q 2266 513 2386 631
Q 2506 750 2573 919
Q 2641 1088 2641 1294
Q 2641 1481 2577 1645
Q 2513 1809 2394 1934
Q 2275 2059 2109 2131
Q 1944 2203 1738 2203
Q 1544 2203 1380 2136
Q 1216 2069 1095 1948
Q 975 1828 906 1661
Q 838 1494 838 1294
z
M 997 3372
Q 997 3213 1055 3077
Q 1113 2941 1214 2839
Q 1316 2738 1450 2680
Q 1584 2622 1738 2622
Q 1891 2622 2027 2681
Q 2163 2741 2263 2842
Q 2363 2944 2422 3080
Q 2481 3216 2481 3372
Q 2481 3534 2423 3671
Q 2366 3809 2266 3909
Q 2166 4009 2030 4067
Q 1894 4125 1738 4125
Q 1572 4125 1436 4065
Q 1300 4006 1201 3904
Q 1103 3803 1050 3665
Q 997 3528 997 3372
z
" transform="scale(0.015625)"/>
       </defs>
       <use xlink:href="#SegoeUI-30"/>
       <use xlink:href="#SegoeUI-2e" transform="translate(53.90625 0)"/>
       <use xlink:href="#SegoeUI-38" transform="translate(75.585938 0)"/>
      </g>
     </g>
    </g>
    <g id="ytick_6">
     <g id="line2d_6">
      <path d="M 41.76 106.598571
L 784.8 106.598571
" clip-path="url(#p8343ad5ad8)" style="fill: none; stroke: #e8ebf2; stroke-width: 0.8; stroke-linecap: round"/>
     </g>
     <g id="text_16">
      <!-- 1.0 -->
      <g style="fill: #6f768a" transform="translate(25.31 110.300134) scale(0.1 -0.1)">
       <defs>
        <path id="SegoeUI-31" d="M 2263 0
L 1750 0
L 1750 3872
Q 1691 3813 1577 3736
Q 1463 3659 1320 3584
Q 1178 3509 1020 3443
Q 863 3378 713 3341
L 713 3859
Q 881 3906 1070 3986
Q 1259 4066 1442 4164
Q 1625 4263 1787 4370
Q 1950 4478 2069 4581
L 2263 4581
L 2263 0
z
" transform="scale(0.015625)"/>
       </defs>
       <use xlink:href="#SegoeUI-31"/>
       <use xlink:href="#SegoeUI-2e" transform="translate(53.90625 0)"/>
       <use xlink:href="#SegoeUI-30" transform="translate(75.585938 0)"/>
      </g>
     </g>
    </g>
    <g id="text_17">
     <!-- Share of return variance -->
     <g style="fill: #1f2430" transform="translate(18.55 305.660625) rotate(-90) scale(0.12 -0.12)">
      <defs>
       <path id="SegoeUI-68" d="M 3175 0
L 2663 0
L 2663 1844
Q 2663 2844 1919 2844
Q 1544 2844 1287 2555
Q 1031 2266 1031 1813
L 1031 0
L 519 0
L 519 4738
L 1031 4738
L 1031 2669
L 1044 2669
Q 1413 3275 2094 3275
Q 3175 3275 3175 1972
L 3175 0
z
" transform="scale(0.015625)"/>
       <path id="SegoeUI-61" d="M 2809 0
L 2297 0
L 2297 500
L 2284 500
Q 1950 -75 1300 -75
Q 822 -75 551 178
Q 281 431 281 850
Q 281 1747 1338 1894
L 2297 2028
Q 2297 2844 1638 2844
Q 1059 2844 594 2450
L 594 2975
Q 1066 3275 1681 3275
Q 2809 3275 2809 2081
L 2809 0
z
M 2297 1619
L 1525 1513
Q 1169 1463 987 1336
Q 806 1209 806 888
Q 806 653 973 504
Q 1141 356 1419 356
Q 1800 356 2048 623
Q 2297 891 2297 1300
L 2297 1619
z
" transform="scale(0.015625)"/>
       <path id="SegoeUI-72" d="M 2188 2681
Q 2053 2784 1800 2784
Q 1472 2784 1251 2475
Q 1031 2166 1031 1631
L 1031 0
L 519 0
L 519 3200
L 1031 3200
L 1031 2541
L 1044 2541
Q 1153 2878 1378 3067
Q 1603 3256 1881 3256
Q 2081 3256 2188 3213
L 2188 2681
z
" transform="scale(0.015625)"/>
       <path id="SegoeUI-65" d="M 3091 1472
L 831 1472
Q 844 938 1119 647
Q 1394 356 1875 356
Q 2416 356 2869 713
L 2869 231
Q 2447 -75 1753 -75
Q 1075 -75 687 361
Q 300 797 300 1588
Q 300 2334 723 2804
Q 1147 3275 1775 3275
Q 2403 3275 2747 2869
Q 3091 2463 3091 1741
L 3091 1472
z
M 2566 1906
Q 2563 2350 2352 2597
Q 2141 2844 1766 2844
Q 1403 2844 1150 2584
Q 897 2325 838 1906
L 2566 1906
z
" transform="scale(0.015625)"/>
       <path id="SegoeUI-20" transform="scale(0.015625)"/>
       <path id="SegoeUI-6f" d="M 1856 -75
Q 1147 -75 723 373
Q 300 822 300 1563
Q 300 2369 740 2822
Q 1181 3275 1931 3275
Q 2647 3275 3048 2834
Q 3450 2394 3450 1613
Q 3450 847 3017 386
Q 2584 -75 1856 -75
z
M 1894 2844
Q 1400 2844 1112 2508
Q 825 2172 825 1581
Q 825 1013 1115 684
Q 1406 356 1894 356
Q 2391 356 2658 678
Q 2925 1000 2925 1594
Q 2925 2194 2658 2519
Q 2391 2844 1894 2844
z
" transform="scale(0.015625)"/>
       <path id="SegoeUI-66" d="M 2100 4288
Q 1950 4372 1759 4372
Q 1222 4372 1222 3694
L 1222 3200
L 1972 3200
L 1972 2763
L 1222 2763
L 1222 0
L 713 0
L 713 2763
L 166 2763
L 166 3200
L 713 3200
L 713 3719
Q 713 4222 1003 4514
Q 1294 4806 1728 4806
Q 1963 4806 2100 4750
L 2100 4288
z
" transform="scale(0.015625)"/>
       <path id="SegoeUI-74" d="M 2003 31
Q 1822 -69 1525 -69
Q 684 -69 684 869
L 684 2763
L 134 2763
L 134 3200
L 684 3200
L 684 3981
L 1197 4147
L 1197 3200
L 2003 3200
L 2003 2763
L 1197 2763
L 1197 959
Q 1197 638 1306 500
Q 1416 363 1669 363
Q 1863 363 2003 469
L 2003 31
z
" transform="scale(0.015625)"/>
       <path id="SegoeUI-75" d="M 3106 0
L 2594 0
L 2594 506
L 2581 506
Q 2263 -75 1594 -75
Q 450 -75 450 1288
L 450 3200
L 959 3200
L 959 1369
Q 959 356 1734 356
Q 2109 356 2351 632
Q 2594 909 2594 1356
L 2594 3200
L 3106 3200
L 3106 0
z
" transform="scale(0.015625)"/>
       <path id="SegoeUI-6e" d="M 3175 0
L 2663 0
L 2663 1825
Q 2663 2844 1919 2844
Q 1534 2844 1282 2555
Q 1031 2266 1031 1825
L 1031 0
L 519 0
L 519 3200
L 1031 3200
L 1031 2669
L 1044 2669
Q 1406 3275 2094 3275
Q 2619 3275 2897 2936
Q 3175 2597 3175 1956
L 3175 0
z
" transform="scale(0.015625)"/>
       <path id="SegoeUI-76" d="M 3034 3200
L 1759 0
L 1256 0
L 44 3200
L 606 3200
L 1419 875
Q 1509 619 1531 428
L 1544 428
Q 1575 669 1644 863
L 2494 3200
L 3034 3200
z
" transform="scale(0.015625)"/>
       <path id="SegoeUI-69" d="M 781 4013
Q 644 4013 547 4106
Q 450 4200 450 4344
Q 450 4488 547 4583
Q 644 4678 781 4678
Q 922 4678 1020 4583
Q 1119 4488 1119 4344
Q 1119 4206 1020 4109
Q 922 4013 781 4013
z
M 1031 0
L 519 0
L 519 3200
L 1031 3200
L 1031 0
z
" transform="scale(0.015625)"/>
       <path id="SegoeUI-63" d="M 2700 147
Q 2331 -75 1825 -75
Q 1141 -75 720 370
Q 300 816 300 1525
Q 300 2316 753 2795
Q 1206 3275 1963 3275
Q 2384 3275 2706 3119
L 2706 2594
Q 2350 2844 1944 2844
Q 1453 2844 1139 2492
Q 825 2141 825 1569
Q 825 1006 1120 681
Q 1416 356 1913 356
Q 2331 356 2700 634
L 2700 147
z
" transform="scale(0.015625)"/>
      </defs>
      <use xlink:href="#SegoeUI-53"/>
      <use xlink:href="#SegoeUI-68" transform="translate(53.125 0)"/>
      <use xlink:href="#SegoeUI-61" transform="translate(109.716797 0)"/>
      <use xlink:href="#SegoeUI-72" transform="translate(160.595703 0)"/>
      <use xlink:href="#SegoeUI-65" transform="translate(193.986328 0)"/>
      <use xlink:href="#SegoeUI-20" transform="translate(246.28125 0)"/>
      <use xlink:href="#SegoeUI-6f" transform="translate(273.673828 0)"/>
      <use xlink:href="#SegoeUI-66" transform="translate(330.517578 0)"/>
      <use xlink:href="#SegoeUI-20" transform="translate(361.816406 0)"/>
      <use xlink:href="#SegoeUI-72" transform="translate(389.208984 0)"/>
      <use xlink:href="#SegoeUI-65" transform="translate(422.599609 0)"/>
      <use xlink:href="#SegoeUI-74" transform="translate(474.894531 0)"/>
      <use xlink:href="#SegoeUI-75" transform="translate(508.78125 0)"/>
      <use xlink:href="#SegoeUI-72" transform="translate(565.373047 0)"/>
      <use xlink:href="#SegoeUI-6e" transform="translate(599.888672 0)"/>
      <use xlink:href="#SegoeUI-20" transform="translate(656.480469 0)"/>
      <use xlink:href="#SegoeUI-76" transform="translate(683.873047 0)"/>
      <use xlink:href="#SegoeUI-61" transform="translate(730.023438 0)"/>
      <use xlink:href="#SegoeUI-72" transform="translate(780.902344 0)"/>
      <use xlink:href="#SegoeUI-69" transform="translate(815.667969 0)"/>
      <use xlink:href="#SegoeUI-61" transform="translate(839.886719 0)"/>
      <use xlink:href="#SegoeUI-6e" transform="translate(890.765625 0)"/>
      <use xlink:href="#SegoeUI-63" transform="translate(947.357422 0)"/>
      <use xlink:href="#SegoeUI-65" transform="translate(993.548828 0)"/>
     </g>
    </g>
   </g>
   <g id="patch_3">
    <path d="M 75.534545 393.57
L 130.67666 393.57
L 130.67666 152.356
L 75.534545 152.356
z
" clip-path="url(#p8343ad5ad8)" style="fill: #5477c4; stroke: #2e4780; stroke-linejoin: miter"/>
   </g>
   <g id="patch_4">
    <path d="M 144.462189 393.57
L 199.604304 393.57
L 199.604304 157.550576
L 144.462189 157.550576
z
" clip-path="url(#p8343ad5ad8)" style="fill: #5477c4; stroke: #2e4780; stroke-linejoin: miter"/>
   </g>
   <g id="patch_5">
    <path d="M 213.389833 393.57
L 268.531948 393.57
L 268.531948 159.323861
L 213.389833 159.323861
z
" clip-path="url(#p8343ad5ad8)" style="fill: #5477c4; stroke: #2e4780; stroke-linejoin: miter"/>
   </g>
   <g id="patch_6">
    <path d="M 282.317477 393.57
L 337.459592 393.57
L 337.459592 163.524457
L 282.317477 163.524457
z
" clip-path="url(#p8343ad5ad8)" style="fill: #5477c4; stroke: #2e4780; stroke-linejoin: miter"/>
   </g>
   <g id="patch_7">
    <path d="M 351.245121 393.57
L 406.387236 393.57
L 406.387236 165.013639
L 351.245121 165.013639
z
" clip-path="url(#p8343ad5ad8)" style="fill: #5477c4; stroke: #2e4780; stroke-linejoin: miter"/>
   </g>
   <g id="patch_8">
    <path d="M 420.172764 393.57
L 475.314879 393.57
L 475.314879 185.067706
L 420.172764 185.067706
z
" clip-path="url(#p8343ad5ad8)" style="fill: #5477c4; stroke: #2e4780; stroke-linejoin: miter"/>
   </g>
   <g id="patch_9">
    <path d="M 489.100408 393.57
L 544.242523 393.57
L 544.242523 200.262167
L 489.100408 200.262167
z
" clip-path="url(#p8343ad5ad8)" style="fill: #5477c4; stroke: #2e4780; stroke-linejoin: miter"/>
   </g>
   <g id="patch_10">
    <path d="M 558.028052 393.57
L 613.170167 393.57
L 613.170167 249.122007
L 558.028052 249.122007
z
" clip-path="url(#p8343ad5ad8)" style="fill: #5477c4; stroke: #2e4780; stroke-linejoin: miter"/>
   </g>
   <g id="patch_11">
    <path d="M 626.955696 393.57
L 682.097811 393.57
L 682.097811 283.591962
L 626.955696 283.591962
z
" clip-path="url(#p8343ad5ad8)" style="fill: #5477c4; stroke: #2e4780; stroke-linejoin: miter"/>
   </g>
   <g id="patch_12">
    <path d="M 695.88334 393.57
L 751.025455 393.57
L 751.025455 350.758187
L 695.88334 350.758187
z
" clip-path="url(#p8343ad5ad8)" style="fill: #5477c4; stroke: #2e4780; stroke-linejoin: miter"/>
   </g>
   <g id="patch_13">
    <path d="M 75.534545 152.356
L 130.67666 152.356
L 130.67666 106.598571
L 75.534545 106.598571
z
" clip-path="url(#p8343ad5ad8)" style="fill: #c5cad3; stroke: #464c55; stroke-linejoin: miter"/>
   </g>
   <g id="patch_14">
    <path d="M 144.462189 157.550576
L 199.604304 157.550576
L 199.604304 106.598571
L 144.462189 106.598571
z
" clip-path="url(#p8343ad5ad8)" style="fill: #c5cad3; stroke: #464c55; stroke-linejoin: miter"/>
   </g>
   <g id="patch_15">
    <path d="M 213.389833 159.323861
L 268.531948 159.323861
L 268.531948 106.598571
L 213.389833 106.598571
z
" clip-path="url(#p8343ad5ad8)" style="fill: #c5cad3; stroke: #464c55; stroke-linejoin: miter"/>
   </g>
   <g id="patch_16">
    <path d="M 282.317477 163.524457
L 337.459592 163.524457
L 337.459592 106.598571
L 282.317477 106.598571
z
" clip-path="url(#p8343ad5ad8)" style="fill: #c5cad3; stroke: #464c55; stroke-linejoin: miter"/>
   </g>
   <g id="patch_17">
    <path d="M 351.245121 165.013639
L 406.387236 165.013639
L 406.387236 106.598571
L 351.245121 106.598571
z
" clip-path="url(#p8343ad5ad8)" style="fill: #c5cad3; stroke: #464c55; stroke-linejoin: miter"/>
   </g>
   <g id="patch_18">
    <path d="M 420.172764 185.067706
L 475.314879 185.067706
L 475.314879 106.598571
L 420.172764 106.598571
z
" clip-path="url(#p8343ad5ad8)" style="fill: #c5cad3; stroke: #464c55; stroke-linejoin: miter"/>
   </g>
   <g id="patch_19">
    <path d="M 489.100408 200.262167
L 544.242523 200.262167
L 544.242523 106.598571
L 489.100408 106.598571
z
" clip-path="url(#p8343ad5ad8)" style="fill: #c5cad3; stroke: #464c55; stroke-linejoin: miter"/>
   </g>
   <g id="patch_20">
    <path d="M 558.028052 249.122007
L 613.170167 249.122007
L 613.170167 106.598571
L 558.028052 106.598571
z
" clip-path="url(#p8343ad5ad8)" style="fill: #c5cad3; stroke: #464c55; stroke-linejoin: miter"/>
   </g>
   <g id="patch_21">
    <path d="M 626.955696 283.591962
L 682.097811 283.591962
L 682.097811 106.598571
L 626.955696 106.598571
z
" clip-path="url(#p8343ad5ad8)" style="fill: #c5cad3; stroke: #464c55; stroke-linejoin: miter"/>
   </g>
   <g id="patch_22">
    <path d="M 695.88334 350.758187
L 751.025455 350.758187
L 751.025455 106.598571
L 695.88334 106.598571
z
" clip-path="url(#p8343ad5ad8)" style="fill: #c5cad3; stroke: #464c55; stroke-linejoin: miter"/>
   </g>
   <g id="patch_23">
    <path d="M 41.76 393.57
L 41.76 92.25
" style="fill: none; stroke: #d7dbe7; stroke-width: 1.25; stroke-linejoin: miter; stroke-linecap: square"/>
   </g>
   <g id="patch_24">
    <path d="M 41.76 393.57
L 784.8 393.57
" style="fill: none; stroke: #d7dbe7; stroke-width: 1.25; stroke-linejoin: miter; stroke-linecap: square"/>
   </g>
   <g id="legend_1">
    <g id="patch_25">
     <path d="M 692.614062 108.653125
L 712.614062 108.653125
L 712.614062 101.653125
L 692.614062 101.653125
z
" style="fill: #5477c4; stroke: #2e4780; stroke-linejoin: miter"/>
    </g>
    <g id="text_18">
     <!-- Common -->
     <g style="fill: #1f2430" transform="translate(720.614062 108.653125) scale(0.1 -0.1)">
      <defs>
       <path id="SegoeUI-6d" d="M 5063 0
L 4550 0
L 4550 1838
Q 4550 2369 4386 2606
Q 4222 2844 3834 2844
Q 3506 2844 3276 2544
Q 3047 2244 3047 1825
L 3047 0
L 2534 0
L 2534 1900
Q 2534 2844 1806 2844
Q 1469 2844 1250 2561
Q 1031 2278 1031 1825
L 1031 0
L 519 0
L 519 3200
L 1031 3200
L 1031 2694
L 1044 2694
Q 1384 3275 2038 3275
Q 2366 3275 2609 3092
Q 2853 2909 2944 2613
Q 3300 3275 4006 3275
Q 5063 3275 5063 1972
L 5063 0
z
" transform="scale(0.015625)"/>
      </defs>
      <use xlink:href="#SegoeUI-43"/>
      <use xlink:href="#SegoeUI-6f" transform="translate(61.914062 0)"/>
      <use xlink:href="#SegoeUI-6d" transform="translate(120.507812 0)"/>
      <use xlink:href="#SegoeUI-6d" transform="translate(206.640625 0)"/>
      <use xlink:href="#SegoeUI-6f" transform="translate(292.773438 0)"/>
      <use xlink:href="#SegoeUI-6e" transform="translate(351.367188 0)"/>
     </g>
    </g>
    <g id="patch_26">
     <path d="M 692.614062 123.35625
L 712.614062 123.35625
L 712.614062 116.35625
L 692.614062 116.35625
z
" style="fill: #c5cad3; stroke: #464c55; stroke-linejoin: miter"/>
    </g>
    <g id="text_19">
     <!-- Idiosyncratic -->
     <g style="fill: #1f2430" transform="translate(720.614062 123.35625) scale(0.1 -0.1)">
      <defs>
       <path id="SegoeUI-49" d="M 1113 0
L 588 0
L 588 4481
L 1113 4481
L 1113 0
z
" transform="scale(0.015625)"/>
       <path id="SegoeUI-64" d="M 3250 0
L 2738 0
L 2738 544
L 2725 544
Q 2369 -75 1625 -75
Q 1022 -75 661 354
Q 300 784 300 1525
Q 300 2319 700 2797
Q 1100 3275 1766 3275
Q 2425 3275 2725 2756
L 2738 2756
L 2738 4738
L 3250 4738
L 3250 0
z
M 2738 1447
L 2738 1919
Q 2738 2306 2481 2575
Q 2225 2844 1831 2844
Q 1363 2844 1094 2500
Q 825 2156 825 1550
Q 825 997 1083 676
Q 1341 356 1775 356
Q 2203 356 2470 665
Q 2738 975 2738 1447
z
" transform="scale(0.015625)"/>
       <path id="SegoeUI-73" d="M 325 116
L 325 666
Q 744 356 1247 356
Q 1922 356 1922 806
Q 1922 934 1864 1023
Q 1806 1113 1707 1181
Q 1609 1250 1476 1304
Q 1344 1359 1191 1419
Q 978 1503 817 1589
Q 656 1675 548 1783
Q 441 1891 386 2028
Q 331 2166 331 2350
Q 331 2575 434 2748
Q 538 2922 709 3039
Q 881 3156 1101 3215
Q 1322 3275 1556 3275
Q 1972 3275 2300 3131
L 2300 2613
Q 1947 2844 1488 2844
Q 1344 2844 1228 2811
Q 1113 2778 1030 2718
Q 947 2659 901 2576
Q 856 2494 856 2394
Q 856 2269 901 2184
Q 947 2100 1034 2034
Q 1122 1969 1247 1916
Q 1372 1863 1531 1800
Q 1744 1719 1912 1633
Q 2081 1547 2200 1439
Q 2319 1331 2383 1190
Q 2447 1050 2447 856
Q 2447 619 2342 444
Q 2238 269 2063 153
Q 1888 38 1659 -18
Q 1431 -75 1181 -75
Q 688 -75 325 116
z
" transform="scale(0.015625)"/>
       <path id="SegoeUI-79" d="M 3066 3200
L 1594 -513
Q 1200 -1506 488 -1506
Q 288 -1506 153 -1466
L 153 -1006
Q 319 -1063 456 -1063
Q 844 -1063 1038 -600
L 1294 6
L 44 3200
L 613 3200
L 1478 738
Q 1494 691 1544 494
L 1563 494
Q 1578 569 1625 731
L 2534 3200
L 3066 3200
z
" transform="scale(0.015625)"/>
      </defs>
      <use xlink:href="#SegoeUI-49"/>
      <use xlink:href="#SegoeUI-64" transform="translate(26.611328 0)"/>
      <use xlink:href="#SegoeUI-69" transform="translate(85.498047 0)"/>
      <use xlink:href="#SegoeUI-6f" transform="translate(109.716797 0)"/>
      <use xlink:href="#SegoeUI-73" transform="translate(168.310547 0)"/>
      <use xlink:href="#SegoeUI-79" transform="translate(210.742188 0)"/>
      <use xlink:href="#SegoeUI-6e" transform="translate(259.130859 0)"/>
      <use xlink:href="#SegoeUI-63" transform="translate(315.722656 0)"/>
      <use xlink:href="#SegoeUI-72" transform="translate(361.914062 0)"/>
      <use xlink:href="#SegoeUI-61" transform="translate(396.679688 0)"/>
      <use xlink:href="#SegoeUI-74" transform="translate(447.558594 0)"/>
      <use xlink:href="#SegoeUI-69" transform="translate(481.445312 0)"/>
      <use xlink:href="#SegoeUI-63" transform="translate(505.664062 0)"/>
     </g>
    </g>
   </g>
  </g>
  <g id="text_20">
   <!-- Selected-major risk splits into common and idiosyncratic components -->
   <g style="fill: #1f2430" transform="translate(7.2 19.045) scale(0.16 -0.16)">
    <defs>
     <path id="SegoeUI-Semibold-53" d="M 347 178
L 347 944
Q 450 850 592 775
Q 734 700 893 648
Q 1053 597 1212 569
Q 1372 541 1506 541
Q 1975 541 2204 697
Q 2434 853 2434 1150
Q 2434 1309 2357 1426
Q 2281 1544 2143 1641
Q 2006 1738 1820 1827
Q 1634 1916 1422 2013
Q 1194 2134 997 2259
Q 800 2384 654 2536
Q 509 2688 426 2878
Q 344 3069 344 3325
Q 344 3641 486 3873
Q 628 4106 861 4257
Q 1094 4409 1391 4482
Q 1688 4556 1997 4556
Q 2700 4556 3022 4397
L 3022 3663
Q 2641 3938 2041 3938
Q 1875 3938 1711 3906
Q 1547 3875 1417 3803
Q 1288 3731 1206 3618
Q 1125 3506 1125 3347
Q 1125 3197 1187 3087
Q 1250 2978 1370 2887
Q 1491 2797 1664 2711
Q 1838 2625 2066 2525
Q 2300 2403 2508 2268
Q 2716 2134 2873 1971
Q 3031 1809 3123 1611
Q 3216 1413 3216 1159
Q 3216 819 3078 584
Q 2941 350 2708 203
Q 2475 56 2172 -9
Q 1869 -75 1531 -75
Q 1419 -75 1255 -58
Q 1091 -41 919 -8
Q 747 25 594 72
Q 441 119 347 178
z
" transform="scale(0.015625)"/>
     <path id="SegoeUI-Semibold-65" d="M 3181 1403
L 1000 1403
Q 1013 959 1273 718
Q 1534 478 1991 478
Q 2503 478 2931 784
L 2931 200
Q 2494 -75 1775 -75
Q 1069 -75 667 361
Q 266 797 266 1588
Q 266 2334 708 2804
Q 1150 3275 1806 3275
Q 2463 3275 2822 2853
Q 3181 2431 3181 1681
L 3181 1403
z
M 2481 1916
Q 2478 2306 2297 2523
Q 2116 2741 1797 2741
Q 1484 2741 1267 2512
Q 1050 2284 1000 1916
L 2481 1916
z
" transform="scale(0.015625)"/>
     <path id="SegoeUI-Semibold-6c" d="M 1200 0
L 472 0
L 472 4738
L 1200 4738
L 1200 0
z
" transform="scale(0.015625)"/>
     <path id="SegoeUI-Semibold-63" d="M 2763 147
Q 2378 -75 1853 -75
Q 1141 -75 703 370
Q 266 816 266 1525
Q 266 2316 736 2795
Q 1206 3275 1994 3275
Q 2431 3275 2766 3122
L 2766 2447
Q 2431 2697 2053 2697
Q 1594 2697 1300 2386
Q 1006 2075 1006 1572
Q 1006 1075 1282 787
Q 1559 500 2025 500
Q 2416 500 2763 778
L 2763 147
z
" transform="scale(0.015625)"/>
     <path id="SegoeUI-Semibold-74" d="M 2159 34
Q 1947 -72 1600 -72
Q 669 -72 669 822
L 669 2631
L 134 2631
L 134 3200
L 669 3200
L 669 3941
L 1394 4147
L 1394 3200
L 2159 3200
L 2159 2631
L 1394 2631
L 1394 1031
Q 1394 747 1497 625
Q 1600 503 1841 503
Q 2025 503 2159 609
L 2159 34
z
" transform="scale(0.015625)"/>
     <path id="SegoeUI-Semibold-64" d="M 3381 0
L 2656 0
L 2656 544
L 2644 544
Q 2294 -75 1566 -75
Q 975 -75 620 354
Q 266 784 266 1525
Q 266 2319 658 2797
Q 1050 3275 1703 3275
Q 2350 3275 2644 2756
L 2656 2756
L 2656 4738
L 3381 4738
L 3381 0
z
M 2666 1463
L 2666 1881
Q 2666 2222 2444 2459
Q 2222 2697 1878 2697
Q 1472 2697 1239 2394
Q 1006 2091 1006 1553
Q 1006 1066 1229 783
Q 1453 500 1831 500
Q 2203 500 2434 773
Q 2666 1047 2666 1463
z
" transform="scale(0.015625)"/>
     <path id="SegoeUI-Semibold-2d" d="M 2156 1481
L 450 1481
L 450 2016
L 2156 2016
L 2156 1481
z
" transform="scale(0.015625)"/>
     <path id="SegoeUI-Semibold-6d" d="M 5256 0
L 4531 0
L 4531 1744
Q 4531 2247 4389 2472
Q 4247 2697 3909 2697
Q 3625 2697 3426 2412
Q 3228 2128 3228 1731
L 3228 0
L 2500 0
L 2500 1803
Q 2500 2697 1869 2697
Q 1575 2697 1386 2428
Q 1197 2159 1197 1731
L 1197 0
L 472 0
L 472 3200
L 1197 3200
L 1197 2694
L 1209 2694
Q 1556 3275 2219 3275
Q 2550 3275 2798 3092
Q 3047 2909 3138 2613
Q 3494 3275 4200 3275
Q 5256 3275 5256 1972
L 5256 0
z
" transform="scale(0.015625)"/>
     <path id="SegoeUI-Semibold-61" d="M 2928 0
L 2225 0
L 2225 500
L 2213 500
Q 1881 -75 1241 -75
Q 769 -75 501 181
Q 234 438 234 859
Q 234 1766 1278 1916
L 2228 2050
Q 2228 2734 1578 2734
Q 1006 2734 547 2341
L 547 2975
Q 1053 3275 1716 3275
Q 2928 3275 2928 2081
L 2928 0
z
M 2228 1572
L 1556 1478
Q 1244 1438 1086 1327
Q 928 1216 928 938
Q 928 734 1073 604
Q 1219 475 1463 475
Q 1794 475 2011 708
Q 2228 941 2228 1294
L 2228 1572
z
" transform="scale(0.015625)"/>
     <path id="SegoeUI-Semibold-6a" d="M 1197 134
Q 1197 -653 865 -1079
Q 534 -1506 -81 -1506
Q -309 -1506 -525 -1406
L -525 -784
Q -322 -925 -141 -925
Q 472 -925 472 156
L 472 3200
L 1197 3200
L 1197 134
z
M 841 3872
Q 663 3872 536 3987
Q 409 4103 409 4281
Q 409 4459 536 4578
Q 663 4697 841 4697
Q 1022 4697 1150 4578
Q 1278 4459 1278 4281
Q 1278 4113 1150 3992
Q 1022 3872 841 3872
z
" transform="scale(0.015625)"/>
     <path id="SegoeUI-Semibold-6f" d="M 1891 -75
Q 1150 -75 708 373
Q 266 822 266 1563
Q 266 2369 727 2822
Q 1188 3275 1969 3275
Q 2719 3275 3137 2834
Q 3556 2394 3556 1613
Q 3556 847 3104 386
Q 2653 -75 1891 -75
z
M 1925 2697
Q 1500 2697 1253 2400
Q 1006 2103 1006 1581
Q 1006 1078 1256 789
Q 1506 500 1925 500
Q 2353 500 2583 784
Q 2813 1069 2813 1594
Q 2813 2122 2583 2409
Q 2353 2697 1925 2697
z
" transform="scale(0.015625)"/>
     <path id="SegoeUI-Semibold-72" d="M 2328 2509
Q 2197 2613 1950 2613
Q 1628 2613 1412 2322
Q 1197 2031 1197 1531
L 1197 0
L 472 0
L 472 3200
L 1197 3200
L 1197 2541
L 1209 2541
Q 1316 2878 1536 3067
Q 1756 3256 2028 3256
Q 2225 3256 2328 3197
L 2328 2509
z
" transform="scale(0.015625)"/>
     <path id="SegoeUI-Semibold-20" transform="scale(0.015625)"/>
     <path id="SegoeUI-Semibold-69" d="M 838 3872
Q 659 3872 532 3987
Q 406 4103 406 4281
Q 406 4459 532 4578
Q 659 4697 838 4697
Q 1022 4697 1150 4578
Q 1278 4459 1278 4281
Q 1278 4113 1150 3992
Q 1022 3872 838 3872
z
M 1197 0
L 472 0
L 472 3200
L 1197 3200
L 1197 0
z
" transform="scale(0.015625)"/>
     <path id="SegoeUI-Semibold-73" d="M 272 100
L 272 772
Q 678 463 1169 463
Q 1825 463 1825 850
Q 1825 959 1769 1036
Q 1713 1113 1617 1172
Q 1522 1231 1392 1278
Q 1263 1325 1103 1384
Q 906 1463 748 1550
Q 591 1638 486 1748
Q 381 1859 328 2000
Q 275 2141 275 2328
Q 275 2559 384 2736
Q 494 2913 678 3033
Q 863 3153 1097 3214
Q 1331 3275 1581 3275
Q 2025 3275 2375 3141
L 2375 2506
Q 2038 2738 1600 2738
Q 1463 2738 1352 2709
Q 1241 2681 1162 2631
Q 1084 2581 1040 2511
Q 997 2441 997 2356
Q 997 2253 1040 2181
Q 1084 2109 1170 2054
Q 1256 2000 1376 1954
Q 1497 1909 1653 1856
Q 1859 1772 2023 1684
Q 2188 1597 2303 1486
Q 2419 1375 2481 1229
Q 2544 1084 2544 884
Q 2544 641 2431 459
Q 2319 278 2131 159
Q 1944 41 1698 -17
Q 1453 -75 1181 -75
Q 656 -75 272 100
z
" transform="scale(0.015625)"/>
     <path id="SegoeUI-Semibold-6b" d="M 3375 0
L 2456 0
L 1213 1538
L 1200 1538
L 1200 0
L 472 0
L 472 4738
L 1200 4738
L 1200 1734
L 1213 1734
L 2388 3200
L 3259 3200
L 1938 1656
L 3375 0
z
" transform="scale(0.015625)"/>
     <path id="SegoeUI-Semibold-70" d="M 1209 472
L 1197 472
L 1197 -1472
L 472 -1472
L 472 3200
L 1197 3200
L 1197 2638
L 1209 2638
Q 1581 3275 2297 3275
Q 2906 3275 3247 2847
Q 3588 2419 3588 1697
Q 3588 897 3203 415
Q 2819 -66 2153 -66
Q 1541 -66 1209 472
z
M 1191 1734
L 1191 1338
Q 1191 988 1414 744
Q 1638 500 1981 500
Q 2384 500 2614 814
Q 2844 1128 2844 1691
Q 2844 2163 2630 2430
Q 2416 2697 2050 2697
Q 1663 2697 1427 2422
Q 1191 2147 1191 1734
z
" transform="scale(0.015625)"/>
     <path id="SegoeUI-Semibold-6e" d="M 3322 0
L 2597 0
L 2597 1803
Q 2597 2700 1963 2700
Q 1631 2700 1415 2451
Q 1200 2203 1200 1825
L 1200 0
L 472 0
L 472 3200
L 1200 3200
L 1200 2669
L 1213 2669
Q 1572 3275 2250 3275
Q 2772 3275 3047 2936
Q 3322 2597 3322 1956
L 3322 0
z
" transform="scale(0.015625)"/>
     <path id="SegoeUI-Semibold-79" d="M 3244 3200
L 1800 -513
Q 1350 -1506 538 -1506
Q 309 -1506 156 -1466
L 156 -863
Q 328 -919 469 -919
Q 875 -919 1075 -519
L 1291 6
L 19 3200
L 822 3200
L 1584 875
Q 1597 831 1641 644
L 1656 644
Q 1672 716 1713 869
L 2513 3200
L 3244 3200
z
" transform="scale(0.015625)"/>
    </defs>
    <use xlink:href="#SegoeUI-Semibold-53"/>
    <use xlink:href="#SegoeUI-Semibold-65" transform="translate(54.443359 0)"/>
    <use xlink:href="#SegoeUI-Semibold-6c" transform="translate(107.568359 0)"/>
    <use xlink:href="#SegoeUI-Semibold-65" transform="translate(133.691406 0)"/>
    <use xlink:href="#SegoeUI-Semibold-63" transform="translate(186.816406 0)"/>
    <use xlink:href="#SegoeUI-Semibold-74" transform="translate(233.837891 0)"/>
    <use xlink:href="#SegoeUI-Semibold-65" transform="translate(269.345703 0)"/>
    <use xlink:href="#SegoeUI-Semibold-64" transform="translate(322.470703 0)"/>
    <use xlink:href="#SegoeUI-Semibold-2d" transform="translate(382.724609 0)"/>
    <use xlink:href="#SegoeUI-Semibold-6d" transform="translate(422.910156 0)"/>
    <use xlink:href="#SegoeUI-Semibold-61" transform="translate(511.484375 0)"/>
    <use xlink:href="#SegoeUI-Semibold-6a" transform="translate(563.681641 0)"/>
    <use xlink:href="#SegoeUI-Semibold-6f" transform="translate(589.804688 0)"/>
    <use xlink:href="#SegoeUI-Semibold-72" transform="translate(649.521484 0)"/>
    <use xlink:href="#SegoeUI-Semibold-20" transform="translate(686.533203 0)"/>
    <use xlink:href="#SegoeUI-Semibold-72" transform="translate(714.023438 0)"/>
    <use xlink:href="#SegoeUI-Semibold-69" transform="translate(751.035156 0)"/>
    <use xlink:href="#SegoeUI-Semibold-73" transform="translate(777.158203 0)"/>
    <use xlink:href="#SegoeUI-Semibold-6b" transform="translate(820.273438 0)"/>
    <use xlink:href="#SegoeUI-Semibold-20" transform="translate(872.763672 0)"/>
    <use xlink:href="#SegoeUI-Semibold-73" transform="translate(900.253906 0)"/>
    <use xlink:href="#SegoeUI-Semibold-70" transform="translate(943.369141 0)"/>
    <use xlink:href="#SegoeUI-Semibold-6c" transform="translate(1003.623047 0)"/>
    <use xlink:href="#SegoeUI-Semibold-69" transform="translate(1029.746094 0)"/>
    <use xlink:href="#SegoeUI-Semibold-74" transform="translate(1055.869141 0)"/>
    <use xlink:href="#SegoeUI-Semibold-73" transform="translate(1092.001953 0)"/>
    <use xlink:href="#SegoeUI-Semibold-20" transform="translate(1135.117188 0)"/>
    <use xlink:href="#SegoeUI-Semibold-69" transform="translate(1162.607422 0)"/>
    <use xlink:href="#SegoeUI-Semibold-6e" transform="translate(1188.730469 0)"/>
    <use xlink:href="#SegoeUI-Semibold-74" transform="translate(1247.080078 0)"/>
    <use xlink:href="#SegoeUI-Semibold-6f" transform="translate(1282.587891 0)"/>
    <use xlink:href="#SegoeUI-Semibold-20" transform="translate(1342.304688 0)"/>
    <use xlink:href="#SegoeUI-Semibold-63" transform="translate(1369.794922 0)"/>
    <use xlink:href="#SegoeUI-Semibold-6f" transform="translate(1416.816406 0)"/>
    <use xlink:href="#SegoeUI-Semibold-6d" transform="translate(1476.533203 0)"/>
    <use xlink:href="#SegoeUI-Semibold-6d" transform="translate(1565.107422 0)"/>
    <use xlink:href="#SegoeUI-Semibold-6f" transform="translate(1653.681641 0)"/>
    <use xlink:href="#SegoeUI-Semibold-6e" transform="translate(1713.398438 0)"/>
    <use xlink:href="#SegoeUI-Semibold-20" transform="translate(1771.748047 0)"/>
    <use xlink:href="#SegoeUI-Semibold-61" transform="translate(1799.238281 0)"/>
    <use xlink:href="#SegoeUI-Semibold-6e" transform="translate(1851.435547 0)"/>
    <use xlink:href="#SegoeUI-Semibold-64" transform="translate(1909.785156 0)"/>
    <use xlink:href="#SegoeUI-Semibold-20" transform="translate(1970.039062 0)"/>
    <use xlink:href="#SegoeUI-Semibold-69" transform="translate(1997.529297 0)"/>
    <use xlink:href="#SegoeUI-Semibold-64" transform="translate(2023.652344 0)"/>
    <use xlink:href="#SegoeUI-Semibold-69" transform="translate(2083.90625 0)"/>
    <use xlink:href="#SegoeUI-Semibold-6f" transform="translate(2110.029297 0)"/>
    <use xlink:href="#SegoeUI-Semibold-73" transform="translate(2169.746094 0)"/>
    <use xlink:href="#SegoeUI-Semibold-79" transform="translate(2212.861328 0)"/>
    <use xlink:href="#SegoeUI-Semibold-6e" transform="translate(2263.691406 0)"/>
    <use xlink:href="#SegoeUI-Semibold-63" transform="translate(2322.041016 0)"/>
    <use xlink:href="#SegoeUI-Semibold-72" transform="translate(2369.0625 0)"/>
    <use xlink:href="#SegoeUI-Semibold-61" transform="translate(2406.074219 0)"/>
    <use xlink:href="#SegoeUI-Semibold-74" transform="translate(2458.271484 0)"/>
    <use xlink:href="#SegoeUI-Semibold-69" transform="translate(2494.404297 0)"/>
    <use xlink:href="#SegoeUI-Semibold-63" transform="translate(2520.527344 0)"/>
    <use xlink:href="#SegoeUI-Semibold-20" transform="translate(2567.548828 0)"/>
    <use xlink:href="#SegoeUI-Semibold-63" transform="translate(2595.039062 0)"/>
    <use xlink:href="#SegoeUI-Semibold-6f" transform="translate(2642.060547 0)"/>
    <use xlink:href="#SegoeUI-Semibold-6d" transform="translate(2701.777344 0)"/>
    <use xlink:href="#SegoeUI-Semibold-70" transform="translate(2790.351562 0)"/>
    <use xlink:href="#SegoeUI-Semibold-6f" transform="translate(2850.605469 0)"/>
    <use xlink:href="#SegoeUI-Semibold-6e" transform="translate(2910.322266 0)"/>
    <use xlink:href="#SegoeUI-Semibold-65" transform="translate(2968.671875 0)"/>
    <use xlink:href="#SegoeUI-Semibold-6e" transform="translate(3021.796875 0)"/>
    <use xlink:href="#SegoeUI-Semibold-74" transform="translate(3080.146484 0)"/>
    <use xlink:href="#SegoeUI-Semibold-73" transform="translate(3116.279297 0)"/>
   </g>
  </g>
  <g id="text_21">
   <!-- Matched-window PC1 regression variance shares; current-cohort caveat applies. -->
   <g style="fill: #6f768a" transform="translate(7.2 39.643437) scale(0.11 -0.11)">
    <defs>
     <path id="SegoeUI-4d" d="M 5156 0
L 4634 0
L 4634 3006
Q 4634 3363 4678 3878
L 4666 3878
Q 4591 3575 4531 3444
L 3000 0
L 2744 0
L 1216 3419
Q 1150 3569 1081 3878
L 1069 3878
Q 1094 3609 1094 3000
L 1094 0
L 588 0
L 588 4481
L 1281 4481
L 2656 1356
Q 2816 997 2863 819
L 2881 819
Q 3016 1188 3097 1369
L 4500 4481
L 5156 4481
L 5156 0
z
" transform="scale(0.015625)"/>
     <path id="SegoeUI-2d" d="M 2156 1581
L 450 1581
L 450 1984
L 2156 1984
L 2156 1581
z
" transform="scale(0.015625)"/>
     <path id="SegoeUI-77" d="M 4550 3200
L 3591 0
L 3059 0
L 2400 2291
Q 2363 2422 2350 2588
L 2338 2588
Q 2328 2475 2272 2297
L 1556 0
L 1044 0
L 75 3200
L 613 3200
L 1275 794
Q 1306 684 1319 506
L 1344 506
Q 1353 644 1400 800
L 2138 3200
L 2606 3200
L 3269 788
Q 3300 672 3316 500
L 3341 500
Q 3347 622 3394 788
L 4044 3200
L 4550 3200
z
" transform="scale(0.015625)"/>
     <path id="SegoeUI-67" d="M 3250 256
Q 3250 -1506 1563 -1506
Q 969 -1506 525 -1281
L 525 -769
Q 1066 -1069 1556 -1069
Q 2738 -1069 2738 188
L 2738 538
L 2725 538
Q 2359 -75 1625 -75
Q 1028 -75 664 351
Q 300 778 300 1497
Q 300 2313 692 2794
Q 1084 3275 1766 3275
Q 2413 3275 2725 2756
L 2738 2756
L 2738 3200
L 3250 3200
L 3250 256
z
M 2738 1447
L 2738 1919
Q 2738 2300 2480 2572
Q 2222 2844 1838 2844
Q 1363 2844 1094 2498
Q 825 2153 825 1531
Q 825 997 1083 676
Q 1341 356 1766 356
Q 2197 356 2467 662
Q 2738 969 2738 1447
z
" transform="scale(0.015625)"/>
     <path id="SegoeUI-3b" d="M 706 2575
Q 559 2575 457 2678
Q 356 2781 356 2925
Q 356 3069 457 3169
Q 559 3269 706 3269
Q 850 3269 953 3169
Q 1056 3069 1056 2925
Q 1056 2781 953 2678
Q 850 2575 706 2575
z
M 988 713
L 488 -825
L 122 -825
L 488 713
L 988 713
z
" transform="scale(0.015625)"/>
     <path id="SegoeUI-70" d="M 1044 463
L 1031 463
L 1031 -1472
L 519 -1472
L 519 3200
L 1031 3200
L 1031 2638
L 1044 2638
Q 1422 3275 2150 3275
Q 2769 3275 3116 2845
Q 3463 2416 3463 1694
Q 3463 891 3072 408
Q 2681 -75 2003 -75
Q 1381 -75 1044 463
z
M 1031 1753
L 1031 1306
Q 1031 909 1289 632
Q 1547 356 1944 356
Q 2409 356 2673 712
Q 2938 1069 2938 1703
Q 2938 2238 2691 2541
Q 2444 2844 2022 2844
Q 1575 2844 1303 2533
Q 1031 2222 1031 1753
z
" transform="scale(0.015625)"/>
     <path id="SegoeUI-6c" d="M 1031 0
L 519 0
L 519 4738
L 1031 4738
L 1031 0
z
" transform="scale(0.015625)"/>
    </defs>
    <use xlink:href="#SegoeUI-4d"/>
    <use xlink:href="#SegoeUI-61" transform="translate(89.794922 0)"/>
    <use xlink:href="#SegoeUI-74" transform="translate(140.673828 0)"/>
    <use xlink:href="#SegoeUI-63" transform="translate(173.185547 0)"/>
    <use xlink:href="#SegoeUI-68" transform="translate(219.376953 0)"/>
    <use xlink:href="#SegoeUI-65" transform="translate(275.96875 0)"/>
    <use xlink:href="#SegoeUI-64" transform="translate(328.263672 0)"/>
    <use xlink:href="#SegoeUI-2d" transform="translate(387.150391 0)"/>
    <use xlink:href="#SegoeUI-77" transform="translate(427.140625 0)"/>
    <use xlink:href="#SegoeUI-69" transform="translate(499.40625 0)"/>
    <use xlink:href="#SegoeUI-6e" transform="translate(523.625 0)"/>
    <use xlink:href="#SegoeUI-64" transform="translate(580.216797 0)"/>
    <use xlink:href="#SegoeUI-6f" transform="translate(639.103516 0)"/>
    <use xlink:href="#SegoeUI-77" transform="translate(697.697266 0)"/>
    <use xlink:href="#SegoeUI-20" transform="translate(769.962891 0)"/>
    <use xlink:href="#SegoeUI-50" transform="translate(797.355469 0)"/>
    <use xlink:href="#SegoeUI-43" transform="translate(853.361328 0)"/>
    <use xlink:href="#SegoeUI-31" transform="translate(915.275391 0)"/>
    <use xlink:href="#SegoeUI-20" transform="translate(969.181641 0)"/>
    <use xlink:href="#SegoeUI-72" transform="translate(996.574219 0)"/>
    <use xlink:href="#SegoeUI-65" transform="translate(1029.964844 0)"/>
    <use xlink:href="#SegoeUI-67" transform="translate(1082.259766 0)"/>
    <use xlink:href="#SegoeUI-72" transform="translate(1141.146484 0)"/>
    <use xlink:href="#SegoeUI-65" transform="translate(1174.537109 0)"/>
    <use xlink:href="#SegoeUI-73" transform="translate(1226.832031 0)"/>
    <use xlink:href="#SegoeUI-73" transform="translate(1269.263672 0)"/>
    <use xlink:href="#SegoeUI-69" transform="translate(1311.695312 0)"/>
    <use xlink:href="#SegoeUI-6f" transform="translate(1335.914062 0)"/>
    <use xlink:href="#SegoeUI-6e" transform="translate(1394.507812 0)"/>
    <use xlink:href="#SegoeUI-20" transform="translate(1451.099609 0)"/>
    <use xlink:href="#SegoeUI-76" transform="translate(1478.492188 0)"/>
    <use xlink:href="#SegoeUI-61" transform="translate(1524.642578 0)"/>
    <use xlink:href="#SegoeUI-72" transform="translate(1575.521484 0)"/>
    <use xlink:href="#SegoeUI-69" transform="translate(1610.287109 0)"/>
    <use xlink:href="#SegoeUI-61" transform="translate(1634.505859 0)"/>
    <use xlink:href="#SegoeUI-6e" transform="translate(1685.384766 0)"/>
    <use xlink:href="#SegoeUI-63" transform="translate(1741.976562 0)"/>
    <use xlink:href="#SegoeUI-65" transform="translate(1788.167969 0)"/>
    <use xlink:href="#SegoeUI-20" transform="translate(1840.462891 0)"/>
    <use xlink:href="#SegoeUI-73" transform="translate(1867.855469 0)"/>
    <use xlink:href="#SegoeUI-68" transform="translate(1910.287109 0)"/>
    <use xlink:href="#SegoeUI-61" transform="translate(1966.878906 0)"/>
    <use xlink:href="#SegoeUI-72" transform="translate(2017.757812 0)"/>
    <use xlink:href="#SegoeUI-65" transform="translate(2051.148438 0)"/>
    <use xlink:href="#SegoeUI-73" transform="translate(2103.443359 0)"/>
    <use xlink:href="#SegoeUI-3b" transform="translate(2145.875 0)"/>
    <use xlink:href="#SegoeUI-20" transform="translate(2167.554688 0)"/>
    <use xlink:href="#SegoeUI-63" transform="translate(2194.947266 0)"/>
    <use xlink:href="#SegoeUI-75" transform="translate(2241.138672 0)"/>
    <use xlink:href="#SegoeUI-72" transform="translate(2297.730469 0)"/>
    <use xlink:href="#SegoeUI-72" transform="translate(2332.496094 0)"/>
    <use xlink:href="#SegoeUI-65" transform="translate(2365.886719 0)"/>
    <use xlink:href="#SegoeUI-6e" transform="translate(2418.181641 0)"/>
    <use xlink:href="#SegoeUI-74" transform="translate(2474.773438 0)"/>
    <use xlink:href="#SegoeUI-2d" transform="translate(2503.160156 0)"/>
    <use xlink:href="#SegoeUI-63" transform="translate(2543.150391 0)"/>
    <use xlink:href="#SegoeUI-6f" transform="translate(2589.341797 0)"/>
    <use xlink:href="#SegoeUI-68" transform="translate(2647.935547 0)"/>
    <use xlink:href="#SegoeUI-6f" transform="translate(2704.527344 0)"/>
    <use xlink:href="#SegoeUI-72" transform="translate(2763.121094 0)"/>
    <use xlink:href="#SegoeUI-74" transform="translate(2800.761719 0)"/>
    <use xlink:href="#SegoeUI-20" transform="translate(2834.648438 0)"/>
    <use xlink:href="#SegoeUI-63" transform="translate(2862.041016 0)"/>
    <use xlink:href="#SegoeUI-61" transform="translate(2908.232422 0)"/>
    <use xlink:href="#SegoeUI-76" transform="translate(2959.111328 0)"/>
    <use xlink:href="#SegoeUI-65" transform="translate(3006.386719 0)"/>
    <use xlink:href="#SegoeUI-61" transform="translate(3058.681641 0)"/>
    <use xlink:href="#SegoeUI-74" transform="translate(3109.560547 0)"/>
    <use xlink:href="#SegoeUI-20" transform="translate(3143.447266 0)"/>
    <use xlink:href="#SegoeUI-61" transform="translate(3170.839844 0)"/>
    <use xlink:href="#SegoeUI-70" transform="translate(3221.71875 0)"/>
    <use xlink:href="#SegoeUI-70" transform="translate(3280.507812 0)"/>
    <use xlink:href="#SegoeUI-6c" transform="translate(3339.296875 0)"/>
    <use xlink:href="#SegoeUI-69" transform="translate(3363.515625 0)"/>
    <use xlink:href="#SegoeUI-65" transform="translate(3387.734375 0)"/>
    <use xlink:href="#SegoeUI-73" transform="translate(3440.029297 0)"/>
    <use xlink:href="#SegoeUI-2e" transform="translate(3482.460938 0)"/>
   </g>
  </g>
 </g>
 <defs>
  <clipPath id="p8343ad5ad8">
   <rect x="41.76" y="92.25" width="743.04" height="301.32"/>
  </clipPath>
 </defs>
</svg>
