<?xml version="1.0" encoding="utf-8" standalone="no"?>
<!DOCTYPE svg PUBLIC "-//W3C//DTD SVG 1.1//EN"
  "http://www.w3.org/Graphics/SVG/1.1/DTD/svg11.dtd">
<svg xmlns:xlink="http://www.w3.org/1999/xlink" width="792pt" height="429.744375pt" viewBox="0 0 792 429.744375" xmlns="http://www.w3.org/2000/svg" version="1.1">
 <metadata>
  <rdf:RDF xmlns:dc="http://purl.org/dc/elements/1.1/" xmlns:cc="http://creativecommons.org/ns#" xmlns:rdf="http://www.w3.org/1999/02/22-rdf-syntax-ns#">
   <cc:Work>
    <dc:type rdf:resource="http://purl.org/dc/dcmitype/StillImage"/>
    <dc:format>image/svg+xml</dc:format>
    <dc:creator>
     <cc:Agent>
      <dc:title>Matplotlib v3.10.8, https://matplotlib.org/</dc:title>
     </cc:Agent>
    </dc:creator>
   </cc:Work>
  </rdf:RDF>
 </metadata>
 <defs>
  <style type="text/css">*{stroke-linejoin: round; stroke-linecap: butt}</style>
 </defs>
 <g id="figure_1">
  <g id="patch_1">
   <path d="M 0 429.744375
L 792 429.744375
L 792 0
L 0 0
z
" style="fill: #ffffff"/>
  </g>
  <g id="axes_1">
   <g id="patch_2">
    <path d="M 41.76 393.57
L 784.8 393.57
L 784.8 92.25
L 41.76 92.25
z
" style="fill: #ffffff"/>
   </g>
   <g id="matplotlib.axis_1">
    <g id="xtick_1">
     <g id="line2d_1">
      <path d="M 65.532196 393.57
L 65.532196 92.25
" clip-path="url(#p8343ad5ad8)" style="fill: none; stroke: #e8ebf2; stroke-width: 0.8; stroke-linecap: round"/>
     </g>
     <g id="text_1">
      <!-- −0.12 -->
      <g style="fill: #6f768a" transform="translate(52.941571 404.473125) scale(0.1 -0.1)">
       <defs>
        <path id="SegoeUI-2212" d="M 3663 1656
L 725 1656
L 725 2075
L 3663 2075
L 3663 1656
z
" transform="scale(0.015625)"/>
        <path id="SegoeUI-30" d="M 3188 2259
Q 3188 1697 3086 1262
Q 2984 828 2792 529
Q 2600 231 2320 76
Q 2041 -78 1684 -78
Q 1347 -78 1083 70
Q 819 219 637 503
Q 456 788 362 1202
Q 269 1616 269 2150
Q 269 2738 367 3188
Q 466 3638 656 3942
Q 847 4247 1130 4401
Q 1413 4556 1778 4556
Q 3188 4556 3188 2259
z
M 2663 2209
Q 2663 4122 1753 4122
Q 794 4122 794 2175
Q 794 359 1734 359
Q 2663 359 2663 2209
z
" transform="scale(0.015625)"/>
        <path id="SegoeUI-2e" d="M 697 -69
Q 553 -69 451 34
Q 350 138 350 281
Q 350 425 451 529
Q 553 634 697 634
Q 844 634 947 529
Q 1050 425 1050 281
Q 1050 138 947 34
Q 844 -69 697 -69
z
" transform="scale(0.015625)"/>
        <path id="SegoeUI-31" d="M 2263 0
L 1750 0
L 1750 3872
Q 1691 3813 1577 3736
Q 1463 3659 1320 3584
Q 1178 3509 1020 3443
Q 863 3378 713 3341
L 713 3859
Q 881 3906 1070 3986
Q 1259 4066 1442 4164
Q 1625 4263 1787 4370
Q 1950 4478 2069 4581
L 2263 4581
L 2263 0
z
" transform="scale(0.015625)"/>
        <path id="SegoeUI-32" d="M 2413 3306
Q 2413 3513 2348 3666
Q 2284 3819 2173 3920
Q 2063 4022 1913 4072
Q 1763 4122 1588 4122
Q 1438 4122 1294 4081
Q 1150 4041 1014 3969
Q 878 3897 751 3797
Q 625 3697 516 3575
L 516 4125
Q 731 4334 998 4445
Q 1266 4556 1650 4556
Q 1925 4556 2159 4476
Q 2394 4397 2566 4244
Q 2738 4091 2836 3866
Q 2934 3641 2934 3350
Q 2934 3084 2873 2868
Q 2813 2653 2689 2462
Q 2566 2272 2378 2097
Q 2191 1922 1938 1741
Q 1622 1516 1417 1356
Q 1213 1197 1092 1058
Q 972 919 923 780
Q 875 641 875 459
L 3106 459
L 3106 0
L 341 0
L 341 222
Q 341 509 403 728
Q 466 947 609 1144
Q 753 1341 986 1537
Q 1219 1734 1556 1981
Q 1800 2156 1964 2315
Q 2128 2475 2228 2634
Q 2328 2794 2370 2958
Q 2413 3122 2413 3306
z
" transform="scale(0.015625)"/>
       </defs>
       <use xlink:href="#SegoeUI-2212"/>
       <use xlink:href="#SegoeUI-30" transform="translate(68.408203 0)"/>
       <use xlink:href="#SegoeUI-2e" transform="translate(122.314453 0)"/>
       <use xlink:href="#SegoeUI-31" transform="translate(143.994141 0)"/>
       <use xlink:href="#SegoeUI-32" transform="translate(197.900391 0)"/>
      </g>
     </g>
    </g>
    <g id="xtick_2">
     <g id="line2d_2">
      <path d="M 179.781072 393.57
L 179.781072 92.25
" clip-path="url(#p8343ad5ad8)" style="fill: none; stroke: #e8ebf2; stroke-width: 0.8; stroke-linecap: round"/>
     </g>
     <g id="text_2">
      <!-- −0.10 -->
      <g style="fill: #6f768a" transform="translate(167.190447 404.473125) scale(0.1 -0.1)">
       <use xlink:href="#SegoeUI-2212"/>
       <use xlink:href="#SegoeUI-30" transform="translate(68.408203 0)"/>
       <use xlink:href="#SegoeUI-2e" transform="translate(122.314453 0)"/>
       <use xlink:href="#SegoeUI-31" transform="translate(143.994141 0)"/>
       <use xlink:href="#SegoeUI-30" transform="translate(197.900391 0)"/>
      </g>
     </g>
    </g>
    <g id="xtick_3">
     <g id="line2d_3">
      <path d="M 294.029949 393.57
L 294.029949 92.25
" clip-path="url(#p8343ad5ad8)" style="fill: none; stroke: #e8ebf2; stroke-width: 0.8; stroke-linecap: round"/>
     </g>
     <g id="text_3">
      <!-- −0.08 -->
      <g style="fill: #6f768a" transform="translate(281.439324 404.473125) scale(0.1 -0.1)">
       <defs>
        <path id="SegoeUI-38" d="M 281 1250
Q 281 1428 337 1608
Q 394 1788 498 1944
Q 603 2100 758 2228
Q 913 2356 1109 2431
Q 819 2594 647 2848
Q 475 3103 475 3413
Q 475 3659 570 3868
Q 666 4078 834 4231
Q 1003 4384 1234 4470
Q 1466 4556 1734 4556
Q 2006 4556 2237 4468
Q 2469 4381 2637 4228
Q 2806 4075 2900 3865
Q 2994 3656 2994 3413
Q 2994 3103 2822 2848
Q 2650 2594 2366 2431
Q 2559 2356 2712 2228
Q 2866 2100 2970 1944
Q 3075 1788 3131 1608
Q 3188 1428 3188 1250
Q 3188 956 3081 712
Q 2975 469 2783 295
Q 2591 122 2323 25
Q 2056 -72 1734 -72
Q 1416 -72 1150 25
Q 884 122 690 295
Q 497 469 389 712
Q 281 956 281 1250
z
M 838 1294
Q 838 1084 902 915
Q 966 747 1083 628
Q 1200 509 1367 445
Q 1534 381 1738 381
Q 1934 381 2100 447
Q 2266 513 2386 631
Q 2506 750 2573 919
Q 2641 1088 2641 1294
Q 2641 1481 2577 1645
Q 2513 1809 2394 1934
Q 2275 2059 2109 2131
Q 1944 2203 1738 2203
Q 1544 2203 1380 2136
Q 1216 2069 1095 1948
Q 975 1828 906 1661
Q 838 1494 838 1294
z
M 997 3372
Q 997 3213 1055 3077
Q 1113 2941 1214 2839
Q 1316 2738 1450 2680
Q 1584 2622 1738 2622
Q 1891 2622 2027 2681
Q 2163 2741 2263 2842
Q 2363 2944 2422 3080
Q 2481 3216 2481 3372
Q 2481 3534 2423 3671
Q 2366 3809 2266 3909
Q 2166 4009 2030 4067
Q 1894 4125 1738 4125
Q 1572 4125 1436 4065
Q 1300 4006 1201 3904
Q 1103 3803 1050 3665
Q 997 3528 997 3372
z
" transform="scale(0.015625)"/>
       </defs>
       <use xlink:href="#SegoeUI-2212"/>
       <use xlink:href="#SegoeUI-30" transform="translate(68.408203 0)"/>
       <use xlink:href="#SegoeUI-2e" transform="translate(122.314453 0)"/>
       <use xlink:href="#SegoeUI-30" transform="translate(143.994141 0)"/>
       <use xlink:href="#SegoeUI-38" transform="translate(197.900391 0)"/>
      </g>
     </g>
    </g>
    <g id="xtick_4">
     <g id="line2d_4">
      <path d="M 408.278825 393.57
L 408.278825 92.25
" clip-path="url(#p8343ad5ad8)" style="fill: none; stroke: #e8ebf2; stroke-width: 0.8; stroke-linecap: round"/>
     </g>
     <g id="text_4">
      <!-- −0.06 -->
      <g style="fill: #6f768a" transform="translate(395.6882 404.473125) scale(0.1 -0.1)">
       <defs>
        <path id="SegoeUI-36" d="M 3194 1422
Q 3194 1094 3087 819
Q 2981 544 2793 344
Q 2606 144 2347 33
Q 2088 -78 1784 -78
Q 1447 -78 1180 62
Q 913 203 727 467
Q 541 731 444 1112
Q 347 1494 347 1972
Q 347 2556 476 3032
Q 606 3509 845 3848
Q 1084 4188 1421 4372
Q 1759 4556 2175 4556
Q 2638 4556 2919 4428
L 2919 3944
Q 2572 4122 2188 4122
Q 1888 4122 1647 3987
Q 1406 3853 1234 3608
Q 1063 3363 970 3016
Q 878 2669 878 2244
L 891 2244
Q 1200 2803 1913 2803
Q 2206 2803 2442 2703
Q 2678 2603 2845 2420
Q 3013 2238 3103 1984
Q 3194 1731 3194 1422
z
M 2669 1356
Q 2669 1591 2609 1778
Q 2550 1966 2439 2097
Q 2328 2228 2165 2298
Q 2003 2369 1797 2369
Q 1606 2369 1443 2297
Q 1281 2225 1162 2101
Q 1044 1978 976 1814
Q 909 1650 909 1466
Q 909 1234 975 1032
Q 1041 831 1159 681
Q 1278 531 1442 445
Q 1606 359 1806 359
Q 2000 359 2159 432
Q 2319 506 2431 637
Q 2544 769 2606 951
Q 2669 1134 2669 1356
z
" transform="scale(0.015625)"/>
       </defs>
       <use xlink:href="#SegoeUI-2212"/>
       <use xlink:href="#SegoeUI-30" transform="translate(68.408203 0)"/>
       <use xlink:href="#SegoeUI-2e" transform="translate(122.314453 0)"/>
       <use xlink:href="#SegoeUI-30" transform="translate(143.994141 0)"/>
       <use xlink:href="#SegoeUI-36" transform="translate(197.900391 0)"/>
      </g>
     </g>
    </g>
    <g id="xtick_5">
     <g id="line2d_5">
      <path d="M 522.527702 393.57
L 522.527702 92.25
" clip-path="url(#p8343ad5ad8)" style="fill: none; stroke: #e8ebf2; stroke-width: 0.8; stroke-linecap: round"/>
     </g>
     <g id="text_5">
      <!-- −0.04 -->
      <g style="fill: #6f768a" transform="translate(509.937077 404.473125) scale(0.1 -0.1)">
       <defs>
        <path id="SegoeUI-34" d="M 2656 4481
L 2656 1522
L 3231 1522
L 3231 1053
L 2656 1053
L 2656 0
L 2150 0
L 2150 1053
L 44 1053
L 44 1497
Q 338 1828 638 2204
Q 938 2581 1211 2968
Q 1484 3356 1717 3742
Q 1950 4128 2109 4481
L 2656 4481
z
M 622 1522
L 2150 1522
L 2150 3716
Q 1916 3306 1706 2984
Q 1497 2663 1308 2400
Q 1119 2138 947 1925
Q 775 1713 622 1522
z
" transform="scale(0.015625)"/>
       </defs>
       <use xlink:href="#SegoeUI-2212"/>
       <use xlink:href="#SegoeUI-30" transform="translate(68.408203 0)"/>
       <use xlink:href="#SegoeUI-2e" transform="translate(122.314453 0)"/>
       <use xlink:href="#SegoeUI-30" transform="translate(143.994141 0)"/>
       <use xlink:href="#SegoeUI-34" transform="translate(197.900391 0)"/>
      </g>
     </g>
    </g>
    <g id="xtick_6">
     <g id="line2d_6">
      <path d="M 636.776578 393.57
L 636.776578 92.25
" clip-path="url(#p8343ad5ad8)" style="fill: none; stroke: #e8ebf2; stroke-width: 0.8; stroke-linecap: round"/>
     </g>
     <g id="text_6">
      <!-- −0.02 -->
      <g style="fill: #6f768a" transform="translate(624.185953 404.473125) scale(0.1 -0.1)">
       <use xlink:href="#SegoeUI-2212"/>
       <use xlink:href="#SegoeUI-30" transform="translate(68.408203 0)"/>
       <use xlink:href="#SegoeUI-2e" transform="translate(122.314453 0)"/>
       <use xlink:href="#SegoeUI-30" transform="translate(143.994141 0)"/>
       <use xlink:href="#SegoeUI-32" transform="translate(197.900391 0)"/>
      </g>
     </g>
    </g>
    <g id="xtick_7">
     <g id="line2d_7">
      <path d="M 751.025455 393.57
L 751.025455 92.25
" clip-path="url(#p8343ad5ad8)" style="fill: none; stroke: #e8ebf2; stroke-width: 0.8; stroke-linecap: round"/>
     </g>
     <g id="text_7">
      <!-- 0.00 -->
      <g style="fill: #6f768a" transform="translate(741.855142 404.473125) scale(0.1 -0.1)">
       <use xlink:href="#SegoeUI-30"/>
       <use xlink:href="#SegoeUI-2e" transform="translate(53.90625 0)"/>
       <use xlink:href="#SegoeUI-30" transform="translate(75.585938 0)"/>
       <use xlink:href="#SegoeUI-30" transform="translate(129.492188 0)"/>
      </g>
     </g>
    </g>
    <g id="text_8">
     <!-- Expected shortfall 5% -->
     <g style="fill: #1f2430" transform="translate(356.375625 419.784375) scale(0.12 -0.12)">
      <defs>
       <path id="SegoeUI-45" d="M 2963 0
L 588 0
L 588 4481
L 2863 4481
L 2863 4006
L 1113 4006
L 1113 2516
L 2731 2516
L 2731 2044
L 1113 2044
L 1113 475
L 2963 475
L 2963 0
z
" transform="scale(0.015625)"/>
       <path id="SegoeUI-78" d="M 2856 3200
L 1781 1581
L 2838 0
L 2241 0
L 1613 1038
Q 1553 1134 1472 1281
L 1459 1281
Q 1444 1253 1313 1038
L 672 0
L 81 0
L 1172 1569
L 128 3200
L 725 3200
L 1344 2106
Q 1413 1984 1478 1856
L 1491 1856
L 2291 3200
L 2856 3200
z
" transform="scale(0.015625)"/>
       <path id="SegoeUI-70" d="M 1044 463
L 1031 463
L 1031 -1472
L 519 -1472
L 519 3200
L 1031 3200
L 1031 2638
L 1044 2638
Q 1422 3275 2150 3275
Q 2769 3275 3116 2845
Q 3463 2416 3463 1694
Q 3463 891 3072 408
Q 2681 -75 2003 -75
Q 1381 -75 1044 463
z
M 1031 1753
L 1031 1306
Q 1031 909 1289 632
Q 1547 356 1944 356
Q 2409 356 2673 712
Q 2938 1069 2938 1703
Q 2938 2238 2691 2541
Q 2444 2844 2022 2844
Q 1575 2844 1303 2533
Q 1031 2222 1031 1753
z
" transform="scale(0.015625)"/>
       <path id="SegoeUI-65" d="M 3091 1472
L 831 1472
Q 844 938 1119 647
Q 1394 356 1875 356
Q 2416 356 2869 713
L 2869 231
Q 2447 -75 1753 -75
Q 1075 -75 687 361
Q 300 797 300 1588
Q 300 2334 723 2804
Q 1147 3275 1775 3275
Q 2403 3275 2747 2869
Q 3091 2463 3091 1741
L 3091 1472
z
M 2566 1906
Q 2563 2350 2352 2597
Q 2141 2844 1766 2844
Q 1403 2844 1150 2584
Q 897 2325 838 1906
L 2566 1906
z
" transform="scale(0.015625)"/>
       <path id="SegoeUI-63" d="M 2700 147
Q 2331 -75 1825 -75
Q 1141 -75 720 370
Q 300 816 300 1525
Q 300 2316 753 2795
Q 1206 3275 1963 3275
Q 2384 3275 2706 3119
L 2706 2594
Q 2350 2844 1944 2844
Q 1453 2844 1139 2492
Q 825 2141 825 1569
Q 825 1006 1120 681
Q 1416 356 1913 356
Q 2331 356 2700 634
L 2700 147
z
" transform="scale(0.015625)"/>
       <path id="SegoeUI-74" d="M 2003 31
Q 1822 -69 1525 -69
Q 684 -69 684 869
L 684 2763
L 134 2763
L 134 3200
L 684 3200
L 684 3981
L 1197 4147
L 1197 3200
L 2003 3200
L 2003 2763
L 1197 2763
L 1197 959
Q 1197 638 1306 500
Q 1416 363 1669 363
Q 1863 363 2003 469
L 2003 31
z
" transform="scale(0.015625)"/>
       <path id="SegoeUI-64" d="M 3250 0
L 2738 0
L 2738 544
L 2725 544
Q 2369 -75 1625 -75
Q 1022 -75 661 354
Q 300 784 300 1525
Q 300 2319 700 2797
Q 1100 3275 1766 3275
Q 2425 3275 2725 2756
L 2738 2756
L 2738 4738
L 3250 4738
L 3250 0
z
M 2738 1447
L 2738 1919
Q 2738 2306 2481 2575
Q 2225 2844 1831 2844
Q 1363 2844 1094 2500
Q 825 2156 825 1550
Q 825 997 1083 676
Q 1341 356 1775 356
Q 2203 356 2470 665
Q 2738 975 2738 1447
z
" transform="scale(0.015625)"/>
       <path id="SegoeUI-20" transform="scale(0.015625)"/>
       <path id="SegoeUI-73" d="M 325 116
L 325 666
Q 744 356 1247 356
Q 1922 356 1922 806
Q 1922 934 1864 1023
Q 1806 1113 1707 1181
Q 1609 1250 1476 1304
Q 1344 1359 1191 1419
Q 978 1503 817 1589
Q 656 1675 548 1783
Q 441 1891 386 2028
Q 331 2166 331 2350
Q 331 2575 434 2748
Q 538 2922 709 3039
Q 881 3156 1101 3215
Q 1322 3275 1556 3275
Q 1972 3275 2300 3131
L 2300 2613
Q 1947 2844 1488 2844
Q 1344 2844 1228 2811
Q 1113 2778 1030 2718
Q 947 2659 901 2576
Q 856 2494 856 2394
Q 856 2269 901 2184
Q 947 2100 1034 2034
Q 1122 1969 1247 1916
Q 1372 1863 1531 1800
Q 1744 1719 1912 1633
Q 2081 1547 2200 1439
Q 2319 1331 2383 1190
Q 2447 1050 2447 856
Q 2447 619 2342 444
Q 2238 269 2063 153
Q 1888 38 1659 -18
Q 1431 -75 1181 -75
Q 688 -75 325 116
z
" transform="scale(0.015625)"/>
       <path id="SegoeUI-68" d="M 3175 0
L 2663 0
L 2663 1844
Q 2663 2844 1919 2844
Q 1544 2844 1287 2555
Q 1031 2266 1031 1813
L 1031 0
L 519 0
L 519 4738
L 1031 4738
L 1031 2669
L 1044 2669
Q 1413 3275 2094 3275
Q 3175 3275 3175 1972
L 3175 0
z
" transform="scale(0.015625)"/>
       <path id="SegoeUI-6f" d="M 1856 -75
Q 1147 -75 723 373
Q 300 822 300 1563
Q 300 2369 740 2822
Q 1181 3275 1931 3275
Q 2647 3275 3048 2834
Q 3450 2394 3450 1613
Q 3450 847 3017 386
Q 2584 -75 1856 -75
z
M 1894 2844
Q 1400 2844 1112 2508
Q 825 2172 825 1581
Q 825 1013 1115 684
Q 1406 356 1894 356
Q 2391 356 2658 678
Q 2925 1000 2925 1594
Q 2925 2194 2658 2519
Q 2391 2844 1894 2844
z
" transform="scale(0.015625)"/>
       <path id="SegoeUI-72" d="M 2188 2681
Q 2053 2784 1800 2784
Q 1472 2784 1251 2475
Q 1031 2166 1031 1631
L 1031 0
L 519 0
L 519 3200
L 1031 3200
L 1031 2541
L 1044 2541
Q 1153 2878 1378 3067
Q 1603 3256 1881 3256
Q 2081 3256 2188 3213
L 2188 2681
z
" transform="scale(0.015625)"/>
       <path id="SegoeUI-66" d="M 2100 4288
Q 1950 4372 1759 4372
Q 1222 4372 1222 3694
L 1222 3200
L 1972 3200
L 1972 2763
L 1222 2763
L 1222 0
L 713 0
L 713 2763
L 166 2763
L 166 3200
L 713 3200
L 713 3719
Q 713 4222 1003 4514
Q 1294 4806 1728 4806
Q 1963 4806 2100 4750
L 2100 4288
z
" transform="scale(0.015625)"/>
       <path id="SegoeUI-61" d="M 2809 0
L 2297 0
L 2297 500
L 2284 500
Q 1950 -75 1300 -75
Q 822 -75 551 178
Q 281 431 281 850
Q 281 1747 1338 1894
L 2297 2028
Q 2297 2844 1638 2844
Q 1059 2844 594 2450
L 594 2975
Q 1066 3275 1681 3275
Q 2809 3275 2809 2081
L 2809 0
z
M 2297 1619
L 1525 1513
Q 1169 1463 987 1336
Q 806 1209 806 888
Q 806 653 973 504
Q 1141 356 1419 356
Q 1800 356 2048 623
Q 2297 891 2297 1300
L 2297 1619
z
" transform="scale(0.015625)"/>
       <path id="SegoeUI-6c" d="M 1031 0
L 519 0
L 519 4738
L 1031 4738
L 1031 0
z
" transform="scale(0.015625)"/>
       <path id="SegoeUI-35" d="M 3028 1369
Q 3028 1041 2915 775
Q 2803 509 2595 318
Q 2388 128 2094 25
Q 1800 -78 1441 -78
Q 816 -78 513 109
L 513 653
Q 969 359 1447 359
Q 1691 359 1886 431
Q 2081 503 2218 631
Q 2356 759 2429 940
Q 2503 1122 2503 1338
Q 2503 1775 2209 2023
Q 1916 2272 1356 2272
Q 1266 2272 1166 2269
Q 1066 2266 966 2261
Q 866 2256 770 2250
Q 675 2244 597 2234
L 750 4481
L 2822 4481
L 2822 4019
L 1194 4019
L 1103 2703
Q 1203 2709 1315 2714
Q 1428 2719 1516 2719
Q 1872 2719 2153 2625
Q 2434 2531 2629 2357
Q 2825 2184 2926 1932
Q 3028 1681 3028 1369
z
" transform="scale(0.015625)"/>
       <path id="SegoeUI-25" d="M 1263 2234
Q 800 2234 525 2539
Q 250 2844 250 3353
Q 250 3909 540 4229
Q 831 4550 1325 4550
Q 1803 4550 2067 4253
Q 2331 3956 2331 3419
Q 2331 2881 2036 2557
Q 1741 2234 1263 2234
z
M 1306 4206
Q 1009 4206 837 3986
Q 666 3766 666 3381
Q 666 3003 834 2792
Q 1003 2581 1294 2581
Q 1588 2581 1753 2800
Q 1919 3019 1919 3406
Q 1919 3784 1755 3995
Q 1591 4206 1306 4206
z
M 4263 4481
L 1388 -31
L 941 -31
L 3813 4481
L 4263 4481
z
M 3931 -69
Q 3469 -69 3194 237
Q 2919 544 2919 1050
Q 2919 1606 3212 1929
Q 3506 2253 3994 2253
Q 4469 2253 4734 1953
Q 5000 1653 5000 1113
Q 5000 578 4704 254
Q 4409 -69 3931 -69
z
M 3975 1900
Q 3675 1900 3504 1681
Q 3334 1463 3334 1075
Q 3334 703 3503 492
Q 3672 281 3963 281
Q 4256 281 4422 501
Q 4588 722 4588 1106
Q 4588 1488 4423 1694
Q 4259 1900 3975 1900
z
" transform="scale(0.015625)"/>
      </defs>
      <use xlink:href="#SegoeUI-45"/>
      <use xlink:href="#SegoeUI-78" transform="translate(50.585938 0)"/>
      <use xlink:href="#SegoeUI-70" transform="translate(96.484375 0)"/>
      <use xlink:href="#SegoeUI-65" transform="translate(155.273438 0)"/>
      <use xlink:href="#SegoeUI-63" transform="translate(207.568359 0)"/>
      <use xlink:href="#SegoeUI-74" transform="translate(253.759766 0)"/>
      <use xlink:href="#SegoeUI-65" transform="translate(286.896484 0)"/>
      <use xlink:href="#SegoeUI-64" transform="translate(339.191406 0)"/>
      <use xlink:href="#SegoeUI-20" transform="translate(398.078125 0)"/>
      <use xlink:href="#SegoeUI-73" transform="translate(425.470703 0)"/>
      <use xlink:href="#SegoeUI-68" transform="translate(467.902344 0)"/>
      <use xlink:href="#SegoeUI-6f" transform="translate(524.494141 0)"/>
      <use xlink:href="#SegoeUI-72" transform="translate(583.087891 0)"/>
      <use xlink:href="#SegoeUI-74" transform="translate(620.728516 0)"/>
      <use xlink:href="#SegoeUI-66" transform="translate(654.615234 0)"/>
      <use xlink:href="#SegoeUI-61" transform="translate(685.914062 0)"/>
      <use xlink:href="#SegoeUI-6c" transform="translate(736.792969 0)"/>
      <use xlink:href="#SegoeUI-6c" transform="translate(761.011719 0)"/>
      <use xlink:href="#SegoeUI-20" transform="translate(785.230469 0)"/>
      <use xlink:href="#SegoeUI-35" transform="translate(812.623047 0)"/>
      <use xlink:href="#SegoeUI-25" transform="translate(866.529297 0)"/>
     </g>
    </g>
   </g>
   <g id="matplotlib.axis_2">
    <g id="ytick_1">
     <g id="line2d_8">
      <path d="M 41.76 379.873636
L 784.8 379.873636
" clip-path="url(#p8343ad5ad8)" style="fill: none; stroke: #e8ebf2; stroke-width: 0.8; stroke-linecap: round"/>
     </g>
     <g id="text_9">
      <!-- HYPE -->
      <g style="fill: #6f768a" transform="translate(14.9725 383.575199) scale(0.1 -0.1)">
       <defs>
        <path id="SegoeUI-48" d="M 3956 0
L 3431 0
L 3431 2044
L 1113 2044
L 1113 0
L 588 0
L 588 4481
L 1113 4481
L 1113 2516
L 3431 2516
L 3431 4481
L 3956 4481
L 3956 0
z
" transform="scale(0.015625)"/>
        <path id="SegoeUI-59" d="M 3500 4481
L 2022 1656
L 2022 0
L 1497 0
L 1497 1644
L 56 4481
L 653 4481
L 1656 2456
Q 1675 2419 1766 2181
L 1775 2181
Q 1806 2288 1894 2456
L 2944 4481
L 3500 4481
z
" transform="scale(0.015625)"/>
        <path id="SegoeUI-50" d="M 1113 1694
L 1113 0
L 588 0
L 588 4481
L 1819 4481
Q 2538 4481 2933 4131
Q 3328 3781 3328 3144
Q 3328 2506 2889 2100
Q 2450 1694 1703 1694
L 1113 1694
z
M 1113 4006
L 1113 2169
L 1663 2169
Q 2206 2169 2492 2417
Q 2778 2666 2778 3119
Q 2778 4006 1728 4006
L 1113 4006
z
" transform="scale(0.015625)"/>
       </defs>
       <use xlink:href="#SegoeUI-48"/>
       <use xlink:href="#SegoeUI-59" transform="translate(70.996094 0)"/>
       <use xlink:href="#SegoeUI-50" transform="translate(126.269531 0)"/>
       <use xlink:href="#SegoeUI-45" transform="translate(182.275391 0)"/>
      </g>
     </g>
    </g>
    <g id="ytick_2">
     <g id="line2d_9">
      <path d="M 41.76 349.437273
L 784.8 349.437273
" clip-path="url(#p8343ad5ad8)" style="fill: none; stroke: #e8ebf2; stroke-width: 0.8; stroke-linecap: round"/>
     </g>
     <g id="text_10">
      <!-- DOGE -->
      <g style="fill: #6f768a" transform="translate(11.788125 353.138835) scale(0.1 -0.1)">
       <defs>
        <path id="SegoeUI-44" d="M 588 0
L 588 4481
L 1825 4481
Q 4194 4481 4194 2297
Q 4194 1259 3536 629
Q 2878 0 1775 0
L 588 0
z
M 1113 4006
L 1113 475
L 1781 475
Q 2663 475 3153 947
Q 3644 1419 3644 2284
Q 3644 4006 1813 4006
L 1113 4006
z
" transform="scale(0.015625)"/>
        <path id="SegoeUI-4f" d="M 2394 -75
Q 1441 -75 867 553
Q 294 1181 294 2188
Q 294 3269 878 3912
Q 1463 4556 2469 4556
Q 3397 4556 3964 3931
Q 4531 3306 4531 2297
Q 4531 1200 3950 562
Q 3369 -75 2394 -75
z
M 2431 4081
Q 1725 4081 1284 3572
Q 844 3063 844 2234
Q 844 1406 1273 901
Q 1703 397 2394 397
Q 3131 397 3556 878
Q 3981 1359 3981 2225
Q 3981 3113 3568 3597
Q 3156 4081 2431 4081
z
" transform="scale(0.015625)"/>
        <path id="SegoeUI-47" d="M 3938 306
Q 3263 -75 2438 -75
Q 1478 -75 886 544
Q 294 1163 294 2181
Q 294 3222 951 3889
Q 1609 4556 2619 4556
Q 3350 4556 3847 4319
L 3847 3738
Q 3303 4081 2559 4081
Q 1806 4081 1325 3562
Q 844 3044 844 2219
Q 844 1369 1291 883
Q 1738 397 2503 397
Q 3028 397 3413 606
L 3413 1863
L 2431 1863
L 2431 2338
L 3938 2338
L 3938 306
z
" transform="scale(0.015625)"/>
       </defs>
       <use xlink:href="#SegoeUI-44"/>
       <use xlink:href="#SegoeUI-4f" transform="translate(70.117188 0)"/>
       <use xlink:href="#SegoeUI-47" transform="translate(145.507812 0)"/>
       <use xlink:href="#SegoeUI-45" transform="translate(214.111328 0)"/>
      </g>
     </g>
    </g>
    <g id="ytick_3">
     <g id="line2d_10">
      <path d="M 41.76 319.000909
L 784.8 319.000909
" clip-path="url(#p8343ad5ad8)" style="fill: none; stroke: #e8ebf2; stroke-width: 0.8; stroke-linecap: round"/>
     </g>
     <g id="text_11">
      <!-- ADA -->
      <g style="fill: #6f768a" transform="translate(18.51 322.702472) scale(0.1 -0.1)">
       <defs>
        <path id="SegoeUI-41" d="M 4056 0
L 3475 0
L 3000 1256
L 1100 1256
L 653 0
L 69 0
L 1788 4481
L 2331 4481
L 4056 0
z
M 2828 1728
L 2125 3638
Q 2091 3731 2056 3938
L 2044 3938
Q 2013 3747 1972 3638
L 1275 1728
L 2828 1728
z
" transform="scale(0.015625)"/>
       </defs>
       <use xlink:href="#SegoeUI-41"/>
       <use xlink:href="#SegoeUI-44" transform="translate(64.501953 0)"/>
       <use xlink:href="#SegoeUI-41" transform="translate(132.994141 0)"/>
      </g>
     </g>
    </g>
    <g id="ytick_4">
     <g id="line2d_11">
      <path d="M 41.76 288.564545
L 784.8 288.564545
" clip-path="url(#p8343ad5ad8)" style="fill: none; stroke: #e8ebf2; stroke-width: 0.8; stroke-linecap: round"/>
     </g>
     <g id="text_12">
      <!-- TON -->
      <g style="fill: #6f768a" transform="translate(18.450625 292.266108) scale(0.1 -0.1)">
       <defs>
        <path id="SegoeUI-54" d="M 3238 4006
L 1944 4006
L 1944 0
L 1419 0
L 1419 4006
L 128 4006
L 128 4481
L 3238 4481
L 3238 4006
z
" transform="scale(0.015625)"/>
        <path id="SegoeUI-4e" d="M 4200 0
L 3556 0
L 1250 3572
Q 1163 3706 1106 3853
L 1088 3853
Q 1113 3709 1113 3238
L 1113 0
L 588 0
L 588 4481
L 1269 4481
L 3513 966
Q 3653 747 3694 666
L 3706 666
Q 3675 859 3675 1325
L 3675 4481
L 4200 4481
L 4200 0
z
" transform="scale(0.015625)"/>
       </defs>
       <use xlink:href="#SegoeUI-54"/>
       <use xlink:href="#SegoeUI-4f" transform="translate(47.892578 0)"/>
       <use xlink:href="#SegoeUI-4e" transform="translate(123.283203 0)"/>
      </g>
     </g>
    </g>
    <g id="ytick_5">
     <g id="line2d_12">
      <path d="M 41.76 258.128182
L 784.8 258.128182
" clip-path="url(#p8343ad5ad8)" style="fill: none; stroke: #e8ebf2; stroke-width: 0.8; stroke-linecap: round"/>
     </g>
     <g id="text_13">
      <!-- SOL -->
      <g style="fill: #6f768a" transform="translate(20.700625 261.829744) scale(0.1 -0.1)">
       <defs>
        <path id="SegoeUI-53" d="M 378 181
L 378 800
Q 484 706 632 631
Q 781 556 945 504
Q 1109 453 1275 425
Q 1441 397 1581 397
Q 2066 397 2305 576
Q 2544 756 2544 1094
Q 2544 1275 2464 1409
Q 2384 1544 2243 1655
Q 2103 1766 1911 1867
Q 1719 1969 1497 2081
Q 1263 2200 1059 2322
Q 856 2444 706 2591
Q 556 2738 470 2923
Q 384 3109 384 3359
Q 384 3666 518 3892
Q 653 4119 872 4266
Q 1091 4413 1370 4484
Q 1650 4556 1941 4556
Q 2603 4556 2906 4397
L 2906 3806
Q 2509 4081 1888 4081
Q 1716 4081 1544 4045
Q 1372 4009 1237 3928
Q 1103 3847 1018 3719
Q 934 3591 934 3406
Q 934 3234 998 3109
Q 1063 2984 1188 2881
Q 1313 2778 1492 2681
Q 1672 2584 1906 2469
Q 2147 2350 2362 2219
Q 2578 2088 2740 1928
Q 2903 1769 2998 1575
Q 3094 1381 3094 1131
Q 3094 800 2964 570
Q 2834 341 2614 197
Q 2394 53 2106 -11
Q 1819 -75 1500 -75
Q 1394 -75 1237 -58
Q 1081 -41 918 -8
Q 756 25 611 73
Q 466 122 378 181
z
" transform="scale(0.015625)"/>
        <path id="SegoeUI-4c" d="M 2913 0
L 588 0
L 588 4481
L 1113 4481
L 1113 475
L 2913 475
L 2913 0
z
" transform="scale(0.015625)"/>
       </defs>
       <use xlink:href="#SegoeUI-53"/>
       <use xlink:href="#SegoeUI-4f" transform="translate(53.125 0)"/>
       <use xlink:href="#SegoeUI-4c" transform="translate(128.515625 0)"/>
      </g>
     </g>
    </g>
    <g id="ytick_6">
     <g id="line2d_13">
      <path d="M 41.76 227.691818
L 784.8 227.691818
" clip-path="url(#p8343ad5ad8)" style="fill: none; stroke: #e8ebf2; stroke-width: 0.8; stroke-linecap: round"/>
     </g>
     <g id="text_14">
      <!-- XRP -->
      <g style="fill: #6f768a" transform="translate(20.780313 231.393381) scale(0.1 -0.1)">
       <defs>
        <path id="SegoeUI-58" d="M 3681 0
L 3041 0
L 2009 1716
Q 1963 1794 1906 1938
L 1894 1938
Q 1863 1866 1788 1716
L 725 0
L 81 0
L 1581 2253
L 200 4481
L 844 4481
L 1759 2906
Q 1850 2750 1919 2594
L 1931 2594
Q 2031 2800 2106 2919
L 3059 4481
L 3663 4481
L 2253 2259
L 3681 0
z
" transform="scale(0.015625)"/>
        <path id="SegoeUI-52" d="M 3800 0
L 3175 0
L 2425 1256
Q 2322 1431 2225 1554
Q 2128 1678 2026 1756
Q 1925 1834 1808 1870
Q 1691 1906 1544 1906
L 1113 1906
L 1113 0
L 588 0
L 588 4481
L 1925 4481
Q 2219 4481 2467 4407
Q 2716 4334 2898 4184
Q 3081 4034 3184 3811
Q 3288 3588 3288 3288
Q 3288 3053 3217 2858
Q 3147 2663 3017 2509
Q 2888 2356 2705 2248
Q 2522 2141 2294 2081
L 2294 2069
Q 2406 2019 2489 1955
Q 2572 1891 2647 1803
Q 2722 1716 2795 1605
Q 2869 1494 2959 1347
L 3800 0
z
M 1113 4006
L 1113 2381
L 1825 2381
Q 2022 2381 2189 2440
Q 2356 2500 2478 2611
Q 2600 2722 2669 2883
Q 2738 3044 2738 3244
Q 2738 3603 2505 3804
Q 2272 4006 1831 4006
L 1113 4006
z
" transform="scale(0.015625)"/>
       </defs>
       <use xlink:href="#SegoeUI-58"/>
       <use xlink:href="#SegoeUI-52" transform="translate(58.984375 0)"/>
       <use xlink:href="#SegoeUI-50" transform="translate(118.798828 0)"/>
      </g>
     </g>
    </g>
    <g id="ytick_7">
     <g id="line2d_14">
      <path d="M 41.76 197.255455
L 784.8 197.255455
" clip-path="url(#p8343ad5ad8)" style="fill: none; stroke: #e8ebf2; stroke-width: 0.8; stroke-linecap: round"/>
     </g>
     <g id="text_15">
      <!-- ETH -->
      <g style="fill: #6f768a" transform="translate(20.836563 200.957017) scale(0.1 -0.1)">
       <use xlink:href="#SegoeUI-45"/>
       <use xlink:href="#SegoeUI-54" transform="translate(50.835938 0)"/>
       <use xlink:href="#SegoeUI-48" transform="translate(103.228516 0)"/>
      </g>
     </g>
    </g>
    <g id="ytick_8">
     <g id="line2d_15">
      <path d="M 41.76 166.819091
L 784.8 166.819091
" clip-path="url(#p8343ad5ad8)" style="fill: none; stroke: #e8ebf2; stroke-width: 0.8; stroke-linecap: round"/>
     </g>
     <g id="text_16">
      <!-- BNB -->
      <g style="fill: #6f768a" transform="translate(19.313125 170.520653) scale(0.1 -0.1)">
       <defs>
        <path id="SegoeUI-42" d="M 588 0
L 588 4481
L 1863 4481
Q 2444 4481 2784 4197
Q 3125 3913 3125 3456
Q 3125 3075 2919 2794
Q 2713 2513 2350 2394
L 2350 2381
Q 2803 2328 3075 2039
Q 3347 1750 3347 1288
Q 3347 713 2934 356
Q 2522 0 1894 0
L 588 0
z
M 1113 4006
L 1113 2559
L 1650 2559
Q 2081 2559 2328 2767
Q 2575 2975 2575 3353
Q 2575 4006 1716 4006
L 1113 4006
z
M 1113 2088
L 1113 475
L 1825 475
Q 2288 475 2542 694
Q 2797 913 2797 1294
Q 2797 2088 1716 2088
L 1113 2088
z
" transform="scale(0.015625)"/>
       </defs>
       <use xlink:href="#SegoeUI-42"/>
       <use xlink:href="#SegoeUI-4e" transform="translate(57.324219 0)"/>
       <use xlink:href="#SegoeUI-42" transform="translate(132.128906 0)"/>
      </g>
     </g>
    </g>
    <g id="ytick_9">
     <g id="line2d_16">
      <path d="M 41.76 136.382727
L 784.8 136.382727
" clip-path="url(#p8343ad5ad8)" style="fill: none; stroke: #e8ebf2; stroke-width: 0.8; stroke-linecap: round"/>
     </g>
     <g id="text_17">
      <!-- TRX -->
      <g style="fill: #6f768a" transform="translate(21.14125 140.08429) scale(0.1 -0.1)">
       <use xlink:href="#SegoeUI-54"/>
       <use xlink:href="#SegoeUI-52" transform="translate(52.392578 0)"/>
       <use xlink:href="#SegoeUI-58" transform="translate(112.207031 0)"/>
      </g>
     </g>
    </g>
    <g id="ytick_10">
     <g id="line2d_17">
      <path d="M 41.76 105.946364
L 784.8 105.946364
" clip-path="url(#p8343ad5ad8)" style="fill: none; stroke: #e8ebf2; stroke-width: 0.8; stroke-linecap: round"/>
     </g>
     <g id="text_18">
      <!-- BTC -->
      <g style="fill: #6f768a" transform="translate(21.995938 109.647926) scale(0.1 -0.1)">
       <defs>
        <path id="SegoeUI-43" d="M 3638 188
Q 3141 -75 2400 -75
Q 1444 -75 869 540
Q 294 1156 294 2156
Q 294 3231 941 3893
Q 1588 4556 2581 4556
Q 3219 4556 3638 4372
L 3638 3813
Q 3156 4081 2575 4081
Q 1803 4081 1323 3565
Q 844 3050 844 2188
Q 844 1369 1292 883
Q 1741 397 2469 397
Q 3144 397 3638 697
L 3638 188
z
" transform="scale(0.015625)"/>
       </defs>
       <use xlink:href="#SegoeUI-42"/>
       <use xlink:href="#SegoeUI-54" transform="translate(52.824219 0)"/>
       <use xlink:href="#SegoeUI-43" transform="translate(100.716797 0)"/>
      </g>
     </g>
    </g>
   </g>
   <g id="PathCollection_1">
    <defs>
     <path id="m2aaf2b1b73" d="M 0 5.244044
C 1.390737 5.244044 2.7247 4.691499 3.708099 3.708099
C 4.691499 2.7247 5.244044 1.390737 5.244044 0
C 5.244044 -1.390737 4.691499 -2.7247 3.708099 -3.708099
C 2.7247 -4.691499 1.390737 -5.244044 0 -5.244044
C -1.390737 -5.244044 -2.7247 -4.691499 -3.708099 -3.708099
C -4.691499 -2.7247 -5.244044 -1.390737 -5.244044 0
C -5.244044 1.390737 -4.691499 2.7247 -3.708099 3.708099
C -2.7247 4.691499 -1.390737 5.244044 0 5.244044
z
" style="stroke: #7a3333"/>
    </defs>
    <g clip-path="url(#p8343ad5ad8)">
     <use xlink:href="#m2aaf2b1b73" x="75.534545" y="379.873636" style="fill: #b85c5c; stroke: #7a3333"/>
     <use xlink:href="#m2aaf2b1b73" x="116.782757" y="349.437273" style="fill: #b85c5c; stroke: #7a3333"/>
     <use xlink:href="#m2aaf2b1b73" x="123.321573" y="319.000909" style="fill: #b85c5c; stroke: #7a3333"/>
     <use xlink:href="#m2aaf2b1b73" x="168.440611" y="288.564545" style="fill: #b85c5c; stroke: #7a3333"/>
     <use xlink:href="#m2aaf2b1b73" x="211.129447" y="258.128182" style="fill: #b85c5c; stroke: #7a3333"/>
     <use xlink:href="#m2aaf2b1b73" x="212.18348" y="227.691818" style="fill: #b85c5c; stroke: #7a3333"/>
     <use xlink:href="#m2aaf2b1b73" x="245.221727" y="197.255455" style="fill: #b85c5c; stroke: #7a3333"/>
     <use xlink:href="#m2aaf2b1b73" x="373.836781" y="166.819091" style="fill: #b85c5c; stroke: #7a3333"/>
     <use xlink:href="#m2aaf2b1b73" x="410.805892" y="136.382727" style="fill: #b85c5c; stroke: #7a3333"/>
     <use xlink:href="#m2aaf2b1b73" x="439.242154" y="105.946364" style="fill: #b85c5c; stroke: #7a3333"/>
    </g>
   </g>
   <g id="line2d_18">
    <path d="M 751.025455 393.57
L 751.025455 92.25
" clip-path="url(#p8343ad5ad8)" style="fill: none; stroke: #d7dbe7; stroke-linecap: round"/>
   </g>
   <g id="patch_3">
    <path d="M 41.76 393.57
L 41.76 92.25
" style="fill: none; stroke: #d7dbe7; stroke-width: 1.25; stroke-linejoin: miter; stroke-linecap: square"/>
   </g>
   <g id="patch_4">
    <path d="M 41.76 393.57
L 784.8 393.57
" style="fill: none; stroke: #d7dbe7; stroke-width: 1.25; stroke-linejoin: miter; stroke-linecap: square"/>
   </g>
  </g>
  <g id="text_19">
   <!-- Downside expected shortfall differs across selected majors -->
   <g style="fill: #1f2430" transform="translate(7.2 19.2225) scale(0.16 -0.16)">
    <defs>
     <path id="SegoeUI-Semibold-44" d="M 553 0
L 553 4481
L 1847 4481
Q 4325 4481 4325 2297
Q 4325 1259 3637 629
Q 2950 0 1794 0
L 553 0
z
M 1294 3850
L 1294 628
L 1888 628
Q 2672 628 3108 1059
Q 3544 1491 3544 2278
Q 3544 3850 1916 3850
L 1294 3850
z
" transform="scale(0.015625)"/>
     <path id="SegoeUI-Semibold-6f" d="M 1891 -75
Q 1150 -75 708 373
Q 266 822 266 1563
Q 266 2369 727 2822
Q 1188 3275 1969 3275
Q 2719 3275 3137 2834
Q 3556 2394 3556 1613
Q 3556 847 3104 386
Q 2653 -75 1891 -75
z
M 1925 2697
Q 1500 2697 1253 2400
Q 1006 2103 1006 1581
Q 1006 1078 1256 789
Q 1506 500 1925 500
Q 2353 500 2583 784
Q 2813 1069 2813 1594
Q 2813 2122 2583 2409
Q 2353 2697 1925 2697
z
" transform="scale(0.015625)"/>
     <path id="SegoeUI-Semibold-77" d="M 4775 3200
L 3831 0
L 3072 0
L 2491 2169
Q 2456 2294 2447 2450
L 2434 2450
Q 2428 2344 2378 2175
L 1747 0
L 1003 0
L 63 3200
L 813 3200
L 1394 894
Q 1422 791 1431 619
L 1453 619
Q 1463 750 1503 900
L 2150 3200
L 2831 3200
L 3406 884
Q 3434 775 3447 609
L 3469 609
Q 3475 725 3516 884
L 4084 3200
L 4775 3200
z
" transform="scale(0.015625)"/>
     <path id="SegoeUI-Semibold-6e" d="M 3322 0
L 2597 0
L 2597 1803
Q 2597 2700 1963 2700
Q 1631 2700 1415 2451
Q 1200 2203 1200 1825
L 1200 0
L 472 0
L 472 3200
L 1200 3200
L 1200 2669
L 1213 2669
Q 1572 3275 2250 3275
Q 2772 3275 3047 2936
Q 3322 2597 3322 1956
L 3322 0
z
" transform="scale(0.015625)"/>
     <path id="SegoeUI-Semibold-73" d="M 272 100
L 272 772
Q 678 463 1169 463
Q 1825 463 1825 850
Q 1825 959 1769 1036
Q 1713 1113 1617 1172
Q 1522 1231 1392 1278
Q 1263 1325 1103 1384
Q 906 1463 748 1550
Q 591 1638 486 1748
Q 381 1859 328 2000
Q 275 2141 275 2328
Q 275 2559 384 2736
Q 494 2913 678 3033
Q 863 3153 1097 3214
Q 1331 3275 1581 3275
Q 2025 3275 2375 3141
L 2375 2506
Q 2038 2738 1600 2738
Q 1463 2738 1352 2709
Q 1241 2681 1162 2631
Q 1084 2581 1040 2511
Q 997 2441 997 2356
Q 997 2253 1040 2181
Q 1084 2109 1170 2054
Q 1256 2000 1376 1954
Q 1497 1909 1653 1856
Q 1859 1772 2023 1684
Q 2188 1597 2303 1486
Q 2419 1375 2481 1229
Q 2544 1084 2544 884
Q 2544 641 2431 459
Q 2319 278 2131 159
Q 1944 41 1698 -17
Q 1453 -75 1181 -75
Q 656 -75 272 100
z
" transform="scale(0.015625)"/>
     <path id="SegoeUI-Semibold-69" d="M 838 3872
Q 659 3872 532 3987
Q 406 4103 406 4281
Q 406 4459 532 4578
Q 659 4697 838 4697
Q 1022 4697 1150 4578
Q 1278 4459 1278 4281
Q 1278 4113 1150 3992
Q 1022 3872 838 3872
z
M 1197 0
L 472 0
L 472 3200
L 1197 3200
L 1197 0
z
" transform="scale(0.015625)"/>
     <path id="SegoeUI-Semibold-64" d="M 3381 0
L 2656 0
L 2656 544
L 2644 544
Q 2294 -75 1566 -75
Q 975 -75 620 354
Q 266 784 266 1525
Q 266 2319 658 2797
Q 1050 3275 1703 3275
Q 2350 3275 2644 2756
L 2656 2756
L 2656 4738
L 3381 4738
L 3381 0
z
M 2666 1463
L 2666 1881
Q 2666 2222 2444 2459
Q 2222 2697 1878 2697
Q 1472 2697 1239 2394
Q 1006 2091 1006 1553
Q 1006 1066 1229 783
Q 1453 500 1831 500
Q 2203 500 2434 773
Q 2666 1047 2666 1463
z
" transform="scale(0.015625)"/>
     <path id="SegoeUI-Semibold-65" d="M 3181 1403
L 1000 1403
Q 1013 959 1273 718
Q 1534 478 1991 478
Q 2503 478 2931 784
L 2931 200
Q 2494 -75 1775 -75
Q 1069 -75 667 361
Q 266 797 266 1588
Q 266 2334 708 2804
Q 1150 3275 1806 3275
Q 2463 3275 2822 2853
Q 3181 2431 3181 1681
L 3181 1403
z
M 2481 1916
Q 2478 2306 2297 2523
Q 2116 2741 1797 2741
Q 1484 2741 1267 2512
Q 1050 2284 1000 1916
L 2481 1916
z
" transform="scale(0.015625)"/>
     <path id="SegoeUI-Semibold-20" transform="scale(0.015625)"/>
     <path id="SegoeUI-Semibold-78" d="M 3147 3200
L 2081 1581
L 3134 0
L 2294 0
L 1731 991
Q 1678 1081 1606 1222
L 1594 1222
Q 1581 1194 1463 991
L 891 0
L 53 0
L 1141 1569
L 109 3200
L 953 3200
L 1506 2159
Q 1569 2044 1628 1922
L 1638 1922
L 2353 3200
L 3147 3200
z
" transform="scale(0.015625)"/>
     <path id="SegoeUI-Semibold-70" d="M 1209 472
L 1197 472
L 1197 -1472
L 472 -1472
L 472 3200
L 1197 3200
L 1197 2638
L 1209 2638
Q 1581 3275 2297 3275
Q 2906 3275 3247 2847
Q 3588 2419 3588 1697
Q 3588 897 3203 415
Q 2819 -66 2153 -66
Q 1541 -66 1209 472
z
M 1191 1734
L 1191 1338
Q 1191 988 1414 744
Q 1638 500 1981 500
Q 2384 500 2614 814
Q 2844 1128 2844 1691
Q 2844 2163 2630 2430
Q 2416 2697 2050 2697
Q 1663 2697 1427 2422
Q 1191 2147 1191 1734
z
" transform="scale(0.015625)"/>
     <path id="SegoeUI-Semibold-63" d="M 2763 147
Q 2378 -75 1853 -75
Q 1141 -75 703 370
Q 266 816 266 1525
Q 266 2316 736 2795
Q 1206 3275 1994 3275
Q 2431 3275 2766 3122
L 2766 2447
Q 2431 2697 2053 2697
Q 1594 2697 1300 2386
Q 1006 2075 1006 1572
Q 1006 1075 1282 787
Q 1559 500 2025 500
Q 2416 500 2763 778
L 2763 147
z
" transform="scale(0.015625)"/>
     <path id="SegoeUI-Semibold-74" d="M 2159 34
Q 1947 -72 1600 -72
Q 669 -72 669 822
L 669 2631
L 134 2631
L 134 3200
L 669 3200
L 669 3941
L 1394 4147
L 1394 3200
L 2159 3200
L 2159 2631
L 1394 2631
L 1394 1031
Q 1394 747 1497 625
Q 1600 503 1841 503
Q 2025 503 2159 609
L 2159 34
z
" transform="scale(0.015625)"/>
     <path id="SegoeUI-Semibold-68" d="M 3316 0
L 2591 0
L 2591 1750
Q 2591 2700 1956 2700
Q 1638 2700 1419 2425
Q 1200 2150 1200 1722
L 1200 0
L 472 0
L 472 4738
L 1200 4738
L 1200 2669
L 1213 2669
Q 1575 3275 2250 3275
Q 3316 3275 3316 1972
L 3316 0
z
" transform="scale(0.015625)"/>
     <path id="SegoeUI-Semibold-72" d="M 2328 2509
Q 2197 2613 1950 2613
Q 1628 2613 1412 2322
Q 1197 2031 1197 1531
L 1197 0
L 472 0
L 472 3200
L 1197 3200
L 1197 2541
L 1209 2541
Q 1316 2878 1536 3067
Q 1756 3256 2028 3256
Q 2225 3256 2328 3197
L 2328 2509
z
" transform="scale(0.015625)"/>
     <path id="SegoeUI-Semibold-66" d="M 2281 4147
Q 2134 4231 1947 4231
Q 1419 4231 1419 3634
L 1419 3200
L 2163 3200
L 2163 2631
L 1422 2631
L 1422 0
L 697 0
L 697 2631
L 150 2631
L 150 3200
L 697 3200
L 697 3719
Q 697 4225 1028 4517
Q 1359 4809 1856 4809
Q 2125 4809 2281 4750
L 2281 4147
z
" transform="scale(0.015625)"/>
     <path id="SegoeUI-Semibold-61" d="M 2928 0
L 2225 0
L 2225 500
L 2213 500
Q 1881 -75 1241 -75
Q 769 -75 501 181
Q 234 438 234 859
Q 234 1766 1278 1916
L 2228 2050
Q 2228 2734 1578 2734
Q 1006 2734 547 2341
L 547 2975
Q 1053 3275 1716 3275
Q 2928 3275 2928 2081
L 2928 0
z
M 2228 1572
L 1556 1478
Q 1244 1438 1086 1327
Q 928 1216 928 938
Q 928 734 1073 604
Q 1219 475 1463 475
Q 1794 475 2011 708
Q 2228 941 2228 1294
L 2228 1572
z
" transform="scale(0.015625)"/>
     <path id="SegoeUI-Semibold-6c" d="M 1200 0
L 472 0
L 472 4738
L 1200 4738
L 1200 0
z
" transform="scale(0.015625)"/>
     <path id="SegoeUI-Semibold-6d" d="M 5256 0
L 4531 0
L 4531 1744
Q 4531 2247 4389 2472
Q 4247 2697 3909 2697
Q 3625 2697 3426 2412
Q 3228 2128 3228 1731
L 3228 0
L 2500 0
L 2500 1803
Q 2500 2697 1869 2697
Q 1575 2697 1386 2428
Q 1197 2159 1197 1731
L 1197 0
L 472 0
L 472 3200
L 1197 3200
L 1197 2694
L 1209 2694
Q 1556 3275 2219 3275
Q 2550 3275 2798 3092
Q 3047 2909 3138 2613
Q 3494 3275 4200 3275
Q 5256 3275 5256 1972
L 5256 0
z
" transform="scale(0.015625)"/>
     <path id="SegoeUI-Semibold-6a" d="M 1197 134
Q 1197 -653 865 -1079
Q 534 -1506 -81 -1506
Q -309 -1506 -525 -1406
L -525 -784
Q -322 -925 -141 -925
Q 472 -925 472 156
L 472 3200
L 1197 3200
L 1197 134
z
M 841 3872
Q 663 3872 536 3987
Q 409 4103 409 4281
Q 409 4459 536 4578
Q 663 4697 841 4697
Q 1022 4697 1150 4578
Q 1278 4459 1278 4281
Q 1278 4113 1150 3992
Q 1022 3872 841 3872
z
" transform="scale(0.015625)"/>
    </defs>
    <use xlink:href="#SegoeUI-Semibold-44"/>
    <use xlink:href="#SegoeUI-Semibold-6f" transform="translate(71.728516 0)"/>
    <use xlink:href="#SegoeUI-Semibold-77" transform="translate(131.445312 0)"/>
    <use xlink:href="#SegoeUI-Semibold-6e" transform="translate(207.080078 0)"/>
    <use xlink:href="#SegoeUI-Semibold-73" transform="translate(265.429688 0)"/>
    <use xlink:href="#SegoeUI-Semibold-69" transform="translate(308.544922 0)"/>
    <use xlink:href="#SegoeUI-Semibold-64" transform="translate(334.667969 0)"/>
    <use xlink:href="#SegoeUI-Semibold-65" transform="translate(394.921875 0)"/>
    <use xlink:href="#SegoeUI-Semibold-20" transform="translate(448.046875 0)"/>
    <use xlink:href="#SegoeUI-Semibold-65" transform="translate(475.537109 0)"/>
    <use xlink:href="#SegoeUI-Semibold-78" transform="translate(528.662109 0)"/>
    <use xlink:href="#SegoeUI-Semibold-70" transform="translate(578.759766 0)"/>
    <use xlink:href="#SegoeUI-Semibold-65" transform="translate(639.013672 0)"/>
    <use xlink:href="#SegoeUI-Semibold-63" transform="translate(692.138672 0)"/>
    <use xlink:href="#SegoeUI-Semibold-74" transform="translate(739.160156 0)"/>
    <use xlink:href="#SegoeUI-Semibold-65" transform="translate(774.667969 0)"/>
    <use xlink:href="#SegoeUI-Semibold-64" transform="translate(827.792969 0)"/>
    <use xlink:href="#SegoeUI-Semibold-20" transform="translate(888.046875 0)"/>
    <use xlink:href="#SegoeUI-Semibold-73" transform="translate(915.537109 0)"/>
    <use xlink:href="#SegoeUI-Semibold-68" transform="translate(958.652344 0)"/>
    <use xlink:href="#SegoeUI-Semibold-6f" transform="translate(1016.855469 0)"/>
    <use xlink:href="#SegoeUI-Semibold-72" transform="translate(1076.572266 0)"/>
    <use xlink:href="#SegoeUI-Semibold-74" transform="translate(1116.458984 0)"/>
    <use xlink:href="#SegoeUI-Semibold-66" transform="translate(1152.591797 0)"/>
    <use xlink:href="#SegoeUI-Semibold-61" transform="translate(1187.064453 0)"/>
    <use xlink:href="#SegoeUI-Semibold-6c" transform="translate(1239.261719 0)"/>
    <use xlink:href="#SegoeUI-Semibold-6c" transform="translate(1265.384766 0)"/>
    <use xlink:href="#SegoeUI-Semibold-20" transform="translate(1291.507812 0)"/>
    <use xlink:href="#SegoeUI-Semibold-64" transform="translate(1318.998047 0)"/>
    <use xlink:href="#SegoeUI-Semibold-69" transform="translate(1379.251953 0)"/>
    <use xlink:href="#SegoeUI-Semibold-66" transform="translate(1405.375 0)"/>
    <use xlink:href="#SegoeUI-Semibold-66" transform="translate(1439.847656 0)"/>
    <use xlink:href="#SegoeUI-Semibold-65" transform="translate(1474.320312 0)"/>
    <use xlink:href="#SegoeUI-Semibold-72" transform="translate(1527.445312 0)"/>
    <use xlink:href="#SegoeUI-Semibold-73" transform="translate(1565.082031 0)"/>
    <use xlink:href="#SegoeUI-Semibold-20" transform="translate(1608.197266 0)"/>
    <use xlink:href="#SegoeUI-Semibold-61" transform="translate(1635.6875 0)"/>
    <use xlink:href="#SegoeUI-Semibold-63" transform="translate(1687.884766 0)"/>
    <use xlink:href="#SegoeUI-Semibold-72" transform="translate(1734.90625 0)"/>
    <use xlink:href="#SegoeUI-Semibold-6f" transform="translate(1771.042969 0)"/>
    <use xlink:href="#SegoeUI-Semibold-73" transform="translate(1830.759766 0)"/>
    <use xlink:href="#SegoeUI-Semibold-73" transform="translate(1873.875 0)"/>
    <use xlink:href="#SegoeUI-Semibold-20" transform="translate(1916.990234 0)"/>
    <use xlink:href="#SegoeUI-Semibold-73" transform="translate(1944.480469 0)"/>
    <use xlink:href="#SegoeUI-Semibold-65" transform="translate(1987.595703 0)"/>
    <use xlink:href="#SegoeUI-Semibold-6c" transform="translate(2040.720703 0)"/>
    <use xlink:href="#SegoeUI-Semibold-65" transform="translate(2066.84375 0)"/>
    <use xlink:href="#SegoeUI-Semibold-63" transform="translate(2119.96875 0)"/>
    <use xlink:href="#SegoeUI-Semibold-74" transform="translate(2166.990234 0)"/>
    <use xlink:href="#SegoeUI-Semibold-65" transform="translate(2202.498047 0)"/>
    <use xlink:href="#SegoeUI-Semibold-64" transform="translate(2255.623047 0)"/>
    <use xlink:href="#SegoeUI-Semibold-20" transform="translate(2315.876953 0)"/>
    <use xlink:href="#SegoeUI-Semibold-6d" transform="translate(2343.367188 0)"/>
    <use xlink:href="#SegoeUI-Semibold-61" transform="translate(2431.941406 0)"/>
    <use xlink:href="#SegoeUI-Semibold-6a" transform="translate(2484.138672 0)"/>
    <use xlink:href="#SegoeUI-Semibold-6f" transform="translate(2510.261719 0)"/>
    <use xlink:href="#SegoeUI-Semibold-72" transform="translate(2569.978516 0)"/>
    <use xlink:href="#SegoeUI-Semibold-73" transform="translate(2607.615234 0)"/>
   </g>
  </g>
  <g id="text_20">
   <!-- Expected shortfall is the mean of returns below each asset's fifth percentile. -->
   <g style="fill: #6f768a" transform="translate(7.2 39.760312) scale(0.11 -0.11)">
    <defs>
     <path id="SegoeUI-69" d="M 781 4013
Q 644 4013 547 4106
Q 450 4200 450 4344
Q 450 4488 547 4583
Q 644 4678 781 4678
Q 922 4678 1020 4583
Q 1119 4488 1119 4344
Q 1119 4206 1020 4109
Q 922 4013 781 4013
z
M 1031 0
L 519 0
L 519 3200
L 1031 3200
L 1031 0
z
" transform="scale(0.015625)"/>
     <path id="SegoeUI-6d" d="M 5063 0
L 4550 0
L 4550 1838
Q 4550 2369 4386 2606
Q 4222 2844 3834 2844
Q 3506 2844 3276 2544
Q 3047 2244 3047 1825
L 3047 0
L 2534 0
L 2534 1900
Q 2534 2844 1806 2844
Q 1469 2844 1250 2561
Q 1031 2278 1031 1825
L 1031 0
L 519 0
L 519 3200
L 1031 3200
L 1031 2694
L 1044 2694
Q 1384 3275 2038 3275
Q 2366 3275 2609 3092
Q 2853 2909 2944 2613
Q 3300 3275 4006 3275
Q 5063 3275 5063 1972
L 5063 0
z
" transform="scale(0.015625)"/>
     <path id="SegoeUI-6e" d="M 3175 0
L 2663 0
L 2663 1825
Q 2663 2844 1919 2844
Q 1534 2844 1282 2555
Q 1031 2266 1031 1825
L 1031 0
L 519 0
L 519 3200
L 1031 3200
L 1031 2669
L 1044 2669
Q 1406 3275 2094 3275
Q 2619 3275 2897 2936
Q 3175 2597 3175 1956
L 3175 0
z
" transform="scale(0.015625)"/>
     <path id="SegoeUI-75" d="M 3106 0
L 2594 0
L 2594 506
L 2581 506
Q 2263 -75 1594 -75
Q 450 -75 450 1288
L 450 3200
L 959 3200
L 959 1369
Q 959 356 1734 356
Q 2109 356 2351 632
Q 2594 909 2594 1356
L 2594 3200
L 3106 3200
L 3106 0
z
" transform="scale(0.015625)"/>
     <path id="SegoeUI-62" d="M 1044 463
L 1031 463
L 1031 0
L 519 0
L 519 4738
L 1031 4738
L 1031 2638
L 1044 2638
Q 1422 3275 2150 3275
Q 2766 3275 3114 2845
Q 3463 2416 3463 1694
Q 3463 891 3072 408
Q 2681 -75 2003 -75
Q 1369 -75 1044 463
z
M 1031 1753
L 1031 1306
Q 1031 909 1289 632
Q 1547 356 1944 356
Q 2409 356 2673 712
Q 2938 1069 2938 1703
Q 2938 2238 2691 2541
Q 2444 2844 2022 2844
Q 1575 2844 1303 2533
Q 1031 2222 1031 1753
z
" transform="scale(0.015625)"/>
     <path id="SegoeUI-77" d="M 4550 3200
L 3591 0
L 3059 0
L 2400 2291
Q 2363 2422 2350 2588
L 2338 2588
Q 2328 2475 2272 2297
L 1556 0
L 1044 0
L 75 3200
L 613 3200
L 1275 794
Q 1306 684 1319 506
L 1344 506
Q 1353 644 1400 800
L 2138 3200
L 2606 3200
L 3269 788
Q 3300 672 3316 500
L 3341 500
Q 3347 622 3394 788
L 4044 3200
L 4550 3200
z
" transform="scale(0.015625)"/>
     <path id="SegoeUI-27" d="M 963 4481
L 963 3084
L 509 3084
L 509 4481
L 963 4481
z
" transform="scale(0.015625)"/>
    </defs>
    <use xlink:href="#SegoeUI-45"/>
    <use xlink:href="#SegoeUI-78" transform="translate(50.585938 0)"/>
    <use xlink:href="#SegoeUI-70" transform="translate(96.484375 0)"/>
    <use xlink:href="#SegoeUI-65" transform="translate(155.273438 0)"/>
    <use xlink:href="#SegoeUI-63" transform="translate(207.568359 0)"/>
    <use xlink:href="#SegoeUI-74" transform="translate(253.759766 0)"/>
    <use xlink:href="#SegoeUI-65" transform="translate(286.896484 0)"/>
    <use xlink:href="#SegoeUI-64" transform="translate(339.191406 0)"/>
    <use xlink:href="#SegoeUI-20" transform="translate(398.078125 0)"/>
    <use xlink:href="#SegoeUI-73" transform="translate(425.470703 0)"/>
    <use xlink:href="#SegoeUI-68" transform="translate(467.902344 0)"/>
    <use xlink:href="#SegoeUI-6f" transform="translate(524.494141 0)"/>
    <use xlink:href="#SegoeUI-72" transform="translate(583.087891 0)"/>
    <use xlink:href="#SegoeUI-74" transform="translate(620.728516 0)"/>
    <use xlink:href="#SegoeUI-66" transform="translate(654.615234 0)"/>
    <use xlink:href="#SegoeUI-61" transform="translate(685.914062 0)"/>
    <use xlink:href="#SegoeUI-6c" transform="translate(736.792969 0)"/>
    <use xlink:href="#SegoeUI-6c" transform="translate(761.011719 0)"/>
    <use xlink:href="#SegoeUI-20" transform="translate(785.230469 0)"/>
    <use xlink:href="#SegoeUI-69" transform="translate(812.623047 0)"/>
    <use xlink:href="#SegoeUI-73" transform="translate(836.841797 0)"/>
    <use xlink:href="#SegoeUI-20" transform="translate(879.273438 0)"/>
    <use xlink:href="#SegoeUI-74" transform="translate(906.666016 0)"/>
    <use xlink:href="#SegoeUI-68" transform="translate(940.552734 0)"/>
    <use xlink:href="#SegoeUI-65" transform="translate(997.144531 0)"/>
    <use xlink:href="#SegoeUI-20" transform="translate(1049.439453 0)"/>
    <use xlink:href="#SegoeUI-6d" transform="translate(1076.832031 0)"/>
    <use xlink:href="#SegoeUI-65" transform="translate(1162.964844 0)"/>
    <use xlink:href="#SegoeUI-61" transform="translate(1215.259766 0)"/>
    <use xlink:href="#SegoeUI-6e" transform="translate(1266.138672 0)"/>
    <use xlink:href="#SegoeUI-20" transform="translate(1322.730469 0)"/>
    <use xlink:href="#SegoeUI-6f" transform="translate(1350.123047 0)"/>
    <use xlink:href="#SegoeUI-66" transform="translate(1406.966797 0)"/>
    <use xlink:href="#SegoeUI-20" transform="translate(1438.265625 0)"/>
    <use xlink:href="#SegoeUI-72" transform="translate(1465.658203 0)"/>
    <use xlink:href="#SegoeUI-65" transform="translate(1499.048828 0)"/>
    <use xlink:href="#SegoeUI-74" transform="translate(1551.34375 0)"/>
    <use xlink:href="#SegoeUI-75" transform="translate(1585.230469 0)"/>
    <use xlink:href="#SegoeUI-72" transform="translate(1641.822266 0)"/>
    <use xlink:href="#SegoeUI-6e" transform="translate(1676.337891 0)"/>
    <use xlink:href="#SegoeUI-73" transform="translate(1732.929688 0)"/>
    <use xlink:href="#SegoeUI-20" transform="translate(1775.361328 0)"/>
    <use xlink:href="#SegoeUI-62" transform="translate(1802.753906 0)"/>
    <use xlink:href="#SegoeUI-65" transform="translate(1861.542969 0)"/>
    <use xlink:href="#SegoeUI-6c" transform="translate(1913.837891 0)"/>
    <use xlink:href="#SegoeUI-6f" transform="translate(1938.056641 0)"/>
    <use xlink:href="#SegoeUI-77" transform="translate(1996.650391 0)"/>
    <use xlink:href="#SegoeUI-20" transform="translate(2068.916016 0)"/>
    <use xlink:href="#SegoeUI-65" transform="translate(2096.308594 0)"/>
    <use xlink:href="#SegoeUI-61" transform="translate(2148.603516 0)"/>
    <use xlink:href="#SegoeUI-63" transform="translate(2199.482422 0)"/>
    <use xlink:href="#SegoeUI-68" transform="translate(2245.673828 0)"/>
    <use xlink:href="#SegoeUI-20" transform="translate(2302.265625 0)"/>
    <use xlink:href="#SegoeUI-61" transform="translate(2329.658203 0)"/>
    <use xlink:href="#SegoeUI-73" transform="translate(2380.537109 0)"/>
    <use xlink:href="#SegoeUI-73" transform="translate(2422.96875 0)"/>
    <use xlink:href="#SegoeUI-65" transform="translate(2465.400391 0)"/>
    <use xlink:href="#SegoeUI-74" transform="translate(2517.695312 0)"/>
    <use xlink:href="#SegoeUI-27" transform="translate(2551.582031 0)"/>
    <use xlink:href="#SegoeUI-73" transform="translate(2571.330078 0)"/>
    <use xlink:href="#SegoeUI-20" transform="translate(2613.761719 0)"/>
    <use xlink:href="#SegoeUI-66" transform="translate(2641.154297 0)"/>
    <use xlink:href="#SegoeUI-69" transform="translate(2672.453125 0)"/>
    <use xlink:href="#SegoeUI-66" transform="translate(2696.671875 0)"/>
    <use xlink:href="#SegoeUI-74" transform="translate(2729.720703 0)"/>
    <use xlink:href="#SegoeUI-68" transform="translate(2763.607422 0)"/>
    <use xlink:href="#SegoeUI-20" transform="translate(2820.199219 0)"/>
    <use xlink:href="#SegoeUI-70" transform="translate(2847.591797 0)"/>
    <use xlink:href="#SegoeUI-65" transform="translate(2906.380859 0)"/>
    <use xlink:href="#SegoeUI-72" transform="translate(2958.675781 0)"/>
    <use xlink:href="#SegoeUI-63" transform="translate(2992.066406 0)"/>
    <use xlink:href="#SegoeUI-65" transform="translate(3038.257812 0)"/>
    <use xlink:href="#SegoeUI-6e" transform="translate(3090.552734 0)"/>
    <use xlink:href="#SegoeUI-74" transform="translate(3147.144531 0)"/>
    <use xlink:href="#SegoeUI-69" transform="translate(3181.03125 0)"/>
    <use xlink:href="#SegoeUI-6c" transform="translate(3205.25 0)"/>
    <use xlink:href="#SegoeUI-65" transform="translate(3229.46875 0)"/>
    <use xlink:href="#SegoeUI-2e" transform="translate(3281.763672 0)"/>
   </g>
  </g>
 </g>
 <defs>
  <clipPath id="p8343ad5ad8">
   <rect x="41.76" y="92.25" width="743.04" height="301.32"/>
  </clipPath>
 </defs>
</svg>
