<?xml version="1.0" encoding="utf-8" standalone="no"?>
<!DOCTYPE svg PUBLIC "-//W3C//DTD SVG 1.1//EN"
  "http://www.w3.org/Graphics/SVG/1.1/DTD/svg11.dtd">
<svg xmlns:xlink="http://www.w3.org/1999/xlink" width="801.82875pt" height="411.382496pt" viewBox="0 0 801.82875 411.382496" xmlns="http://www.w3.org/2000/svg" version="1.1">
 <metadata>
  <rdf:RDF xmlns:dc="http://purl.org/dc/elements/1.1/" xmlns:cc="http://creativecommons.org/ns#" xmlns:rdf="http://www.w3.org/1999/02/22-rdf-syntax-ns#">
   <cc:Work>
    <dc:type rdf:resource="http://purl.org/dc/dcmitype/StillImage"/>
    <dc:format>image/svg+xml</dc:format>
    <dc:creator>
     <cc:Agent>
      <dc:title>Matplotlib v3.10.8, https://matplotlib.org/</dc:title>
     </cc:Agent>
    </dc:creator>
   </cc:Work>
  </rdf:RDF>
 </metadata>
 <defs>
  <style type="text/css">*{stroke-linejoin: round; stroke-linecap: butt}</style>
 </defs>
 <g id="figure_1">
  <g id="patch_1">
   <path d="M 0 411.382496
L 801.82875 411.382496
L 801.82875 0
L 0 0
z
" style="fill: #ffffff"/>
  </g>
  <g id="axes_1">
   <g id="patch_2">
    <path d="M 51.58875 383.85
L 794.62875 383.85
L 794.62875 92.25
L 51.58875 92.25
z
" style="fill: #ffffff"/>
   </g>
   <g id="matplotlib.axis_1">
    <g id="xtick_1">
     <g id="text_1">
      <!-- L01 -->
      <g style="fill: #6f768a" transform="translate(103.38086 402.298446) rotate(-35) scale(0.1 -0.1)">
       <defs>
        <path id="SegoeUI-4c" d="M 2913 0
L 588 0
L 588 4481
L 1113 4481
L 1113 475
L 2913 475
L 2913 0
z
" transform="scale(0.015625)"/>
        <path id="SegoeUI-30" d="M 3188 2259
Q 3188 1697 3086 1262
Q 2984 828 2792 529
Q 2600 231 2320 76
Q 2041 -78 1684 -78
Q 1347 -78 1083 70
Q 819 219 637 503
Q 456 788 362 1202
Q 269 1616 269 2150
Q 269 2738 367 3188
Q 466 3638 656 3942
Q 847 4247 1130 4401
Q 1413 4556 1778 4556
Q 3188 4556 3188 2259
z
M 2663 2209
Q 2663 4122 1753 4122
Q 794 4122 794 2175
Q 794 359 1734 359
Q 2663 359 2663 2209
z
" transform="scale(0.015625)"/>
        <path id="SegoeUI-31" d="M 2263 0
L 1750 0
L 1750 3872
Q 1691 3813 1577 3736
Q 1463 3659 1320 3584
Q 1178 3509 1020 3443
Q 863 3378 713 3341
L 713 3859
Q 881 3906 1070 3986
Q 1259 4066 1442 4164
Q 1625 4263 1787 4370
Q 1950 4478 2069 4581
L 2263 4581
L 2263 0
z
" transform="scale(0.015625)"/>
       </defs>
       <use xlink:href="#SegoeUI-4c"/>
       <use xlink:href="#SegoeUI-30" transform="translate(47.070312 0)"/>
       <use xlink:href="#SegoeUI-31" transform="translate(100.976562 0)"/>
      </g>
     </g>
    </g>
    <g id="xtick_2">
     <g id="text_2">
      <!-- L02 -->
      <g style="fill: #6f768a" transform="translate(160.625852 402.298446) rotate(-35) scale(0.1 -0.1)">
       <defs>
        <path id="SegoeUI-32" d="M 2413 3306
Q 2413 3513 2348 3666
Q 2284 3819 2173 3920
Q 2063 4022 1913 4072
Q 1763 4122 1588 4122
Q 1438 4122 1294 4081
Q 1150 4041 1014 3969
Q 878 3897 751 3797
Q 625 3697 516 3575
L 516 4125
Q 731 4334 998 4445
Q 1266 4556 1650 4556
Q 1925 4556 2159 4476
Q 2394 4397 2566 4244
Q 2738 4091 2836 3866
Q 2934 3641 2934 3350
Q 2934 3084 2873 2868
Q 2813 2653 2689 2462
Q 2566 2272 2378 2097
Q 2191 1922 1938 1741
Q 1622 1516 1417 1356
Q 1213 1197 1092 1058
Q 972 919 923 780
Q 875 641 875 459
L 3106 459
L 3106 0
L 341 0
L 341 222
Q 341 509 403 728
Q 466 947 609 1144
Q 753 1341 986 1537
Q 1219 1734 1556 1981
Q 1800 2156 1964 2315
Q 2128 2475 2228 2634
Q 2328 2794 2370 2958
Q 2413 3122 2413 3306
z
" transform="scale(0.015625)"/>
       </defs>
       <use xlink:href="#SegoeUI-4c"/>
       <use xlink:href="#SegoeUI-30" transform="translate(47.070312 0)"/>
       <use xlink:href="#SegoeUI-32" transform="translate(100.976562 0)"/>
      </g>
     </g>
    </g>
    <g id="xtick_3">
     <g id="text_3">
      <!-- L03 -->
      <g style="fill: #6f768a" transform="translate(217.870844 402.298446) rotate(-35) scale(0.1 -0.1)">
       <defs>
        <path id="SegoeUI-33" d="M 2978 1269
Q 2978 966 2864 717
Q 2750 469 2542 292
Q 2334 116 2043 19
Q 1753 -78 1403 -78
Q 763 -78 384 166
L 384 716
Q 838 359 1422 359
Q 1656 359 1845 418
Q 2034 478 2170 590
Q 2306 703 2379 862
Q 2453 1022 2453 1222
Q 2453 2100 1203 2100
L 831 2100
L 831 2534
L 1184 2534
Q 2291 2534 2291 3359
Q 2291 4122 1447 4122
Q 972 4122 556 3803
L 556 4300
Q 984 4556 1575 4556
Q 1856 4556 2084 4478
Q 2313 4400 2475 4259
Q 2638 4119 2727 3922
Q 2816 3725 2816 3488
Q 2816 2603 1922 2350
L 1922 2338
Q 2150 2313 2344 2227
Q 2538 2141 2678 2003
Q 2819 1866 2898 1680
Q 2978 1494 2978 1269
z
" transform="scale(0.015625)"/>
       </defs>
       <use xlink:href="#SegoeUI-4c"/>
       <use xlink:href="#SegoeUI-30" transform="translate(47.070312 0)"/>
       <use xlink:href="#SegoeUI-33" transform="translate(100.976562 0)"/>
      </g>
     </g>
    </g>
    <g id="xtick_4">
     <g id="text_4">
      <!-- L04 -->
      <g style="fill: #6f768a" transform="translate(275.115837 402.298446) rotate(-35) scale(0.1 -0.1)">
       <defs>
        <path id="SegoeUI-34" d="M 2656 4481
L 2656 1522
L 3231 1522
L 3231 1053
L 2656 1053
L 2656 0
L 2150 0
L 2150 1053
L 44 1053
L 44 1497
Q 338 1828 638 2204
Q 938 2581 1211 2968
Q 1484 3356 1717 3742
Q 1950 4128 2109 4481
L 2656 4481
z
M 622 1522
L 2150 1522
L 2150 3716
Q 1916 3306 1706 2984
Q 1497 2663 1308 2400
Q 1119 2138 947 1925
Q 775 1713 622 1522
z
" transform="scale(0.015625)"/>
       </defs>
       <use xlink:href="#SegoeUI-4c"/>
       <use xlink:href="#SegoeUI-30" transform="translate(47.070312 0)"/>
       <use xlink:href="#SegoeUI-34" transform="translate(100.976562 0)"/>
      </g>
     </g>
    </g>
    <g id="xtick_5">
     <g id="text_5">
      <!-- L05 -->
      <g style="fill: #6f768a" transform="translate(332.360829 402.298446) rotate(-35) scale(0.1 -0.1)">
       <defs>
        <path id="SegoeUI-35" d="M 3028 1369
Q 3028 1041 2915 775
Q 2803 509 2595 318
Q 2388 128 2094 25
Q 1800 -78 1441 -78
Q 816 -78 513 109
L 513 653
Q 969 359 1447 359
Q 1691 359 1886 431
Q 2081 503 2218 631
Q 2356 759 2429 940
Q 2503 1122 2503 1338
Q 2503 1775 2209 2023
Q 1916 2272 1356 2272
Q 1266 2272 1166 2269
Q 1066 2266 966 2261
Q 866 2256 770 2250
Q 675 2244 597 2234
L 750 4481
L 2822 4481
L 2822 4019
L 1194 4019
L 1103 2703
Q 1203 2709 1315 2714
Q 1428 2719 1516 2719
Q 1872 2719 2153 2625
Q 2434 2531 2629 2357
Q 2825 2184 2926 1932
Q 3028 1681 3028 1369
z
" transform="scale(0.015625)"/>
       </defs>
       <use xlink:href="#SegoeUI-4c"/>
       <use xlink:href="#SegoeUI-30" transform="translate(47.070312 0)"/>
       <use xlink:href="#SegoeUI-35" transform="translate(100.976562 0)"/>
      </g>
     </g>
    </g>
    <g id="xtick_6">
     <g id="text_6">
      <!-- L06 -->
      <g style="fill: #6f768a" transform="translate(389.605821 402.298446) rotate(-35) scale(0.1 -0.1)">
       <defs>
        <path id="SegoeUI-36" d="M 3194 1422
Q 3194 1094 3087 819
Q 2981 544 2793 344
Q 2606 144 2347 33
Q 2088 -78 1784 -78
Q 1447 -78 1180 62
Q 913 203 727 467
Q 541 731 444 1112
Q 347 1494 347 1972
Q 347 2556 476 3032
Q 606 3509 845 3848
Q 1084 4188 1421 4372
Q 1759 4556 2175 4556
Q 2638 4556 2919 4428
L 2919 3944
Q 2572 4122 2188 4122
Q 1888 4122 1647 3987
Q 1406 3853 1234 3608
Q 1063 3363 970 3016
Q 878 2669 878 2244
L 891 2244
Q 1200 2803 1913 2803
Q 2206 2803 2442 2703
Q 2678 2603 2845 2420
Q 3013 2238 3103 1984
Q 3194 1731 3194 1422
z
M 2669 1356
Q 2669 1591 2609 1778
Q 2550 1966 2439 2097
Q 2328 2228 2165 2298
Q 2003 2369 1797 2369
Q 1606 2369 1443 2297
Q 1281 2225 1162 2101
Q 1044 1978 976 1814
Q 909 1650 909 1466
Q 909 1234 975 1032
Q 1041 831 1159 681
Q 1278 531 1442 445
Q 1606 359 1806 359
Q 2000 359 2159 432
Q 2319 506 2431 637
Q 2544 769 2606 951
Q 2669 1134 2669 1356
z
" transform="scale(0.015625)"/>
       </defs>
       <use xlink:href="#SegoeUI-4c"/>
       <use xlink:href="#SegoeUI-30" transform="translate(47.070312 0)"/>
       <use xlink:href="#SegoeUI-36" transform="translate(100.976562 0)"/>
      </g>
     </g>
    </g>
    <g id="xtick_7">
     <g id="text_7">
      <!-- L07 -->
      <g style="fill: #6f768a" transform="translate(446.850814 402.298446) rotate(-35) scale(0.1 -0.1)">
       <defs>
        <path id="SegoeUI-37" d="M 3156 4184
Q 3053 4006 2908 3740
Q 2763 3475 2600 3144
Q 2438 2813 2269 2431
Q 2100 2050 1953 1644
Q 1806 1238 1695 820
Q 1584 403 1534 0
L 984 0
Q 1041 400 1158 817
Q 1275 1234 1423 1636
Q 1572 2038 1737 2409
Q 1903 2781 2059 3093
Q 2216 3406 2345 3645
Q 2475 3884 2553 4019
L 306 4019
L 306 4481
L 3156 4481
L 3156 4184
z
" transform="scale(0.015625)"/>
       </defs>
       <use xlink:href="#SegoeUI-4c"/>
       <use xlink:href="#SegoeUI-30" transform="translate(47.070312 0)"/>
       <use xlink:href="#SegoeUI-37" transform="translate(100.976562 0)"/>
      </g>
     </g>
    </g>
    <g id="xtick_8">
     <g id="text_8">
      <!-- L08 -->
      <g style="fill: #6f768a" transform="translate(504.095806 402.298446) rotate(-35) scale(0.1 -0.1)">
       <defs>
        <path id="SegoeUI-38" d="M 281 1250
Q 281 1428 337 1608
Q 394 1788 498 1944
Q 603 2100 758 2228
Q 913 2356 1109 2431
Q 819 2594 647 2848
Q 475 3103 475 3413
Q 475 3659 570 3868
Q 666 4078 834 4231
Q 1003 4384 1234 4470
Q 1466 4556 1734 4556
Q 2006 4556 2237 4468
Q 2469 4381 2637 4228
Q 2806 4075 2900 3865
Q 2994 3656 2994 3413
Q 2994 3103 2822 2848
Q 2650 2594 2366 2431
Q 2559 2356 2712 2228
Q 2866 2100 2970 1944
Q 3075 1788 3131 1608
Q 3188 1428 3188 1250
Q 3188 956 3081 712
Q 2975 469 2783 295
Q 2591 122 2323 25
Q 2056 -72 1734 -72
Q 1416 -72 1150 25
Q 884 122 690 295
Q 497 469 389 712
Q 281 956 281 1250
z
M 838 1294
Q 838 1084 902 915
Q 966 747 1083 628
Q 1200 509 1367 445
Q 1534 381 1738 381
Q 1934 381 2100 447
Q 2266 513 2386 631
Q 2506 750 2573 919
Q 2641 1088 2641 1294
Q 2641 1481 2577 1645
Q 2513 1809 2394 1934
Q 2275 2059 2109 2131
Q 1944 2203 1738 2203
Q 1544 2203 1380 2136
Q 1216 2069 1095 1948
Q 975 1828 906 1661
Q 838 1494 838 1294
z
M 997 3372
Q 997 3213 1055 3077
Q 1113 2941 1214 2839
Q 1316 2738 1450 2680
Q 1584 2622 1738 2622
Q 1891 2622 2027 2681
Q 2163 2741 2263 2842
Q 2363 2944 2422 3080
Q 2481 3216 2481 3372
Q 2481 3534 2423 3671
Q 2366 3809 2266 3909
Q 2166 4009 2030 4067
Q 1894 4125 1738 4125
Q 1572 4125 1436 4065
Q 1300 4006 1201 3904
Q 1103 3803 1050 3665
Q 997 3528 997 3372
z
" transform="scale(0.015625)"/>
       </defs>
       <use xlink:href="#SegoeUI-4c"/>
       <use xlink:href="#SegoeUI-30" transform="translate(47.070312 0)"/>
       <use xlink:href="#SegoeUI-38" transform="translate(100.976562 0)"/>
      </g>
     </g>
    </g>
    <g id="xtick_9">
     <g id="text_9">
      <!-- L09 -->
      <g style="fill: #6f768a" transform="translate(561.340798 402.298446) rotate(-35) scale(0.1 -0.1)">
       <defs>
        <path id="SegoeUI-39" d="M 3138 2509
Q 3138 1894 3016 1414
Q 2894 934 2659 601
Q 2425 269 2087 95
Q 1750 -78 1319 -78
Q 875 -78 538 78
L 538 569
Q 909 359 1331 359
Q 1634 359 1873 484
Q 2113 609 2278 848
Q 2444 1088 2531 1438
Q 2619 1788 2619 2241
L 2606 2241
Q 2319 1663 1606 1663
Q 1319 1663 1078 1764
Q 838 1866 663 2052
Q 488 2238 391 2494
Q 294 2750 294 3059
Q 294 3391 401 3666
Q 509 3941 701 4139
Q 894 4338 1158 4447
Q 1422 4556 1734 4556
Q 2072 4556 2333 4420
Q 2594 4284 2772 4023
Q 2950 3763 3044 3381
Q 3138 3000 3138 2509
z
M 2584 2969
Q 2584 3228 2517 3440
Q 2450 3653 2331 3804
Q 2213 3956 2048 4039
Q 1884 4122 1691 4122
Q 1506 4122 1347 4048
Q 1188 3975 1070 3842
Q 953 3709 886 3526
Q 819 3344 819 3128
Q 819 2891 883 2703
Q 947 2516 1065 2386
Q 1184 2256 1351 2187
Q 1519 2119 1722 2119
Q 1900 2119 2058 2186
Q 2216 2253 2333 2367
Q 2450 2481 2517 2636
Q 2584 2791 2584 2969
z
" transform="scale(0.015625)"/>
       </defs>
       <use xlink:href="#SegoeUI-4c"/>
       <use xlink:href="#SegoeUI-30" transform="translate(47.070312 0)"/>
       <use xlink:href="#SegoeUI-39" transform="translate(100.976562 0)"/>
      </g>
     </g>
    </g>
    <g id="xtick_10">
     <g id="text_10">
      <!-- L10 -->
      <g style="fill: #6f768a" transform="translate(618.585791 402.298446) rotate(-35) scale(0.1 -0.1)">
       <use xlink:href="#SegoeUI-4c"/>
       <use xlink:href="#SegoeUI-31" transform="translate(47.070312 0)"/>
       <use xlink:href="#SegoeUI-30" transform="translate(100.976562 0)"/>
      </g>
     </g>
    </g>
    <g id="xtick_11">
     <g id="text_11">
      <!-- L11 -->
      <g style="fill: #6f768a" transform="translate(675.830783 402.298446) rotate(-35) scale(0.1 -0.1)">
       <use xlink:href="#SegoeUI-4c"/>
       <use xlink:href="#SegoeUI-31" transform="translate(47.070312 0)"/>
       <use xlink:href="#SegoeUI-31" transform="translate(100.976562 0)"/>
      </g>
     </g>
    </g>
    <g id="xtick_12">
     <g id="text_12">
      <!-- L12 -->
      <g style="fill: #6f768a" transform="translate(733.075775 402.298446) rotate(-35) scale(0.1 -0.1)">
       <use xlink:href="#SegoeUI-4c"/>
       <use xlink:href="#SegoeUI-31" transform="translate(47.070312 0)"/>
       <use xlink:href="#SegoeUI-32" transform="translate(100.976562 0)"/>
      </g>
     </g>
    </g>
   </g>
   <g id="matplotlib.axis_2">
    <g id="ytick_1">
     <g id="line2d_1">
      <path d="M 51.58875 380.483224
L 794.62875 380.483224
" clip-path="url(#paa1a599979)" style="fill: none; stroke: #e8ebf2; stroke-width: 0.8; stroke-linecap: round"/>
     </g>
     <g id="text_13">
      <!-- −0.15 -->
      <g style="fill: #6f768a" transform="translate(22.9075 384.184786) scale(0.1 -0.1)">
       <defs>
        <path id="SegoeUI-2212" d="M 3663 1656
L 725 1656
L 725 2075
L 3663 2075
L 3663 1656
z
" transform="scale(0.015625)"/>
        <path id="SegoeUI-2e" d="M 697 -69
Q 553 -69 451 34
Q 350 138 350 281
Q 350 425 451 529
Q 553 634 697 634
Q 844 634 947 529
Q 1050 425 1050 281
Q 1050 138 947 34
Q 844 -69 697 -69
z
" transform="scale(0.015625)"/>
       </defs>
       <use xlink:href="#SegoeUI-2212"/>
       <use xlink:href="#SegoeUI-30" transform="translate(68.408203 0)"/>
       <use xlink:href="#SegoeUI-2e" transform="translate(122.314453 0)"/>
       <use xlink:href="#SegoeUI-31" transform="translate(143.994141 0)"/>
       <use xlink:href="#SegoeUI-35" transform="translate(197.900391 0)"/>
      </g>
     </g>
    </g>
    <g id="ytick_2">
     <g id="line2d_2">
      <path d="M 51.58875 339.272683
L 794.62875 339.272683
" clip-path="url(#paa1a599979)" style="fill: none; stroke: #e8ebf2; stroke-width: 0.8; stroke-linecap: round"/>
     </g>
     <g id="text_14">
      <!-- −0.10 -->
      <g style="fill: #6f768a" transform="translate(22.9075 342.974246) scale(0.1 -0.1)">
       <use xlink:href="#SegoeUI-2212"/>
       <use xlink:href="#SegoeUI-30" transform="translate(68.408203 0)"/>
       <use xlink:href="#SegoeUI-2e" transform="translate(122.314453 0)"/>
       <use xlink:href="#SegoeUI-31" transform="translate(143.994141 0)"/>
       <use xlink:href="#SegoeUI-30" transform="translate(197.900391 0)"/>
      </g>
     </g>
    </g>
    <g id="ytick_3">
     <g id="line2d_3">
      <path d="M 51.58875 298.062142
L 794.62875 298.062142
" clip-path="url(#paa1a599979)" style="fill: none; stroke: #e8ebf2; stroke-width: 0.8; stroke-linecap: round"/>
     </g>
     <g id="text_15">
      <!-- −0.05 -->
      <g style="fill: #6f768a" transform="translate(22.9075 301.763705) scale(0.1 -0.1)">
       <use xlink:href="#SegoeUI-2212"/>
       <use xlink:href="#SegoeUI-30" transform="translate(68.408203 0)"/>
       <use xlink:href="#SegoeUI-2e" transform="translate(122.314453 0)"/>
       <use xlink:href="#SegoeUI-30" transform="translate(143.994141 0)"/>
       <use xlink:href="#SegoeUI-35" transform="translate(197.900391 0)"/>
      </g>
     </g>
    </g>
    <g id="ytick_4">
     <g id="line2d_4">
      <path d="M 51.58875 256.851602
L 794.62875 256.851602
" clip-path="url(#paa1a599979)" style="fill: none; stroke: #e8ebf2; stroke-width: 0.8; stroke-linecap: round"/>
     </g>
     <g id="text_16">
      <!-- 0.00 -->
      <g style="fill: #6f768a" transform="translate(29.748125 260.553164) scale(0.1 -0.1)">
       <use xlink:href="#SegoeUI-30"/>
       <use xlink:href="#SegoeUI-2e" transform="translate(53.90625 0)"/>
       <use xlink:href="#SegoeUI-30" transform="translate(75.585938 0)"/>
       <use xlink:href="#SegoeUI-30" transform="translate(129.492188 0)"/>
      </g>
     </g>
    </g>
    <g id="ytick_5">
     <g id="line2d_5">
      <path d="M 51.58875 215.641061
L 794.62875 215.641061
" clip-path="url(#paa1a599979)" style="fill: none; stroke: #e8ebf2; stroke-width: 0.8; stroke-linecap: round"/>
     </g>
     <g id="text_17">
      <!-- 0.05 -->
      <g style="fill: #6f768a" transform="translate(29.748125 219.342623) scale(0.1 -0.1)">
       <use xlink:href="#SegoeUI-30"/>
       <use xlink:href="#SegoeUI-2e" transform="translate(53.90625 0)"/>
       <use xlink:href="#SegoeUI-30" transform="translate(75.585938 0)"/>
       <use xlink:href="#SegoeUI-35" transform="translate(129.492188 0)"/>
      </g>
     </g>
    </g>
    <g id="ytick_6">
     <g id="line2d_6">
      <path d="M 51.58875 174.43052
L 794.62875 174.43052
" clip-path="url(#paa1a599979)" style="fill: none; stroke: #e8ebf2; stroke-width: 0.8; stroke-linecap: round"/>
     </g>
     <g id="text_18">
      <!-- 0.10 -->
      <g style="fill: #6f768a" transform="translate(29.748125 178.132083) scale(0.1 -0.1)">
       <use xlink:href="#SegoeUI-30"/>
       <use xlink:href="#SegoeUI-2e" transform="translate(53.90625 0)"/>
       <use xlink:href="#SegoeUI-31" transform="translate(75.585938 0)"/>
       <use xlink:href="#SegoeUI-30" transform="translate(129.492188 0)"/>
      </g>
     </g>
    </g>
    <g id="ytick_7">
     <g id="line2d_7">
      <path d="M 51.58875 133.219979
L 794.62875 133.219979
" clip-path="url(#paa1a599979)" style="fill: none; stroke: #e8ebf2; stroke-width: 0.8; stroke-linecap: round"/>
     </g>
     <g id="text_19">
      <!-- 0.15 -->
      <g style="fill: #6f768a" transform="translate(29.748125 136.921542) scale(0.1 -0.1)">
       <use xlink:href="#SegoeUI-30"/>
       <use xlink:href="#SegoeUI-2e" transform="translate(53.90625 0)"/>
       <use xlink:href="#SegoeUI-31" transform="translate(75.585938 0)"/>
       <use xlink:href="#SegoeUI-35" transform="translate(129.492188 0)"/>
      </g>
     </g>
    </g>
    <g id="text_20">
     <!-- +1 to +10 day return -->
     <g style="fill: #1f2430" transform="translate(16.08375 293.565937) rotate(-90) scale(0.12 -0.12)">
      <defs>
       <path id="SegoeUI-2b" d="M 3663 1656
L 2400 1656
L 2400 397
L 1984 397
L 1984 1656
L 725 1656
L 725 2075
L 1984 2075
L 1984 3334
L 2400 3334
L 2400 2075
L 3663 2075
L 3663 1656
z
" transform="scale(0.015625)"/>
       <path id="SegoeUI-20" transform="scale(0.015625)"/>
       <path id="SegoeUI-74" d="M 2003 31
Q 1822 -69 1525 -69
Q 684 -69 684 869
L 684 2763
L 134 2763
L 134 3200
L 684 3200
L 684 3981
L 1197 4147
L 1197 3200
L 2003 3200
L 2003 2763
L 1197 2763
L 1197 959
Q 1197 638 1306 500
Q 1416 363 1669 363
Q 1863 363 2003 469
L 2003 31
z
" transform="scale(0.015625)"/>
       <path id="SegoeUI-6f" d="M 1856 -75
Q 1147 -75 723 373
Q 300 822 300 1563
Q 300 2369 740 2822
Q 1181 3275 1931 3275
Q 2647 3275 3048 2834
Q 3450 2394 3450 1613
Q 3450 847 3017 386
Q 2584 -75 1856 -75
z
M 1894 2844
Q 1400 2844 1112 2508
Q 825 2172 825 1581
Q 825 1013 1115 684
Q 1406 356 1894 356
Q 2391 356 2658 678
Q 2925 1000 2925 1594
Q 2925 2194 2658 2519
Q 2391 2844 1894 2844
z
" transform="scale(0.015625)"/>
       <path id="SegoeUI-64" d="M 3250 0
L 2738 0
L 2738 544
L 2725 544
Q 2369 -75 1625 -75
Q 1022 -75 661 354
Q 300 784 300 1525
Q 300 2319 700 2797
Q 1100 3275 1766 3275
Q 2425 3275 2725 2756
L 2738 2756
L 2738 4738
L 3250 4738
L 3250 0
z
M 2738 1447
L 2738 1919
Q 2738 2306 2481 2575
Q 2225 2844 1831 2844
Q 1363 2844 1094 2500
Q 825 2156 825 1550
Q 825 997 1083 676
Q 1341 356 1775 356
Q 2203 356 2470 665
Q 2738 975 2738 1447
z
" transform="scale(0.015625)"/>
       <path id="SegoeUI-61" d="M 2809 0
L 2297 0
L 2297 500
L 2284 500
Q 1950 -75 1300 -75
Q 822 -75 551 178
Q 281 431 281 850
Q 281 1747 1338 1894
L 2297 2028
Q 2297 2844 1638 2844
Q 1059 2844 594 2450
L 594 2975
Q 1066 3275 1681 3275
Q 2809 3275 2809 2081
L 2809 0
z
M 2297 1619
L 1525 1513
Q 1169 1463 987 1336
Q 806 1209 806 888
Q 806 653 973 504
Q 1141 356 1419 356
Q 1800 356 2048 623
Q 2297 891 2297 1300
L 2297 1619
z
" transform="scale(0.015625)"/>
       <path id="SegoeUI-79" d="M 3066 3200
L 1594 -513
Q 1200 -1506 488 -1506
Q 288 -1506 153 -1466
L 153 -1006
Q 319 -1063 456 -1063
Q 844 -1063 1038 -600
L 1294 6
L 44 3200
L 613 3200
L 1478 738
Q 1494 691 1544 494
L 1563 494
Q 1578 569 1625 731
L 2534 3200
L 3066 3200
z
" transform="scale(0.015625)"/>
       <path id="SegoeUI-72" d="M 2188 2681
Q 2053 2784 1800 2784
Q 1472 2784 1251 2475
Q 1031 2166 1031 1631
L 1031 0
L 519 0
L 519 3200
L 1031 3200
L 1031 2541
L 1044 2541
Q 1153 2878 1378 3067
Q 1603 3256 1881 3256
Q 2081 3256 2188 3213
L 2188 2681
z
" transform="scale(0.015625)"/>
       <path id="SegoeUI-65" d="M 3091 1472
L 831 1472
Q 844 938 1119 647
Q 1394 356 1875 356
Q 2416 356 2869 713
L 2869 231
Q 2447 -75 1753 -75
Q 1075 -75 687 361
Q 300 797 300 1588
Q 300 2334 723 2804
Q 1147 3275 1775 3275
Q 2403 3275 2747 2869
Q 3091 2463 3091 1741
L 3091 1472
z
M 2566 1906
Q 2563 2350 2352 2597
Q 2141 2844 1766 2844
Q 1403 2844 1150 2584
Q 897 2325 838 1906
L 2566 1906
z
" transform="scale(0.015625)"/>
       <path id="SegoeUI-75" d="M 3106 0
L 2594 0
L 2594 506
L 2581 506
Q 2263 -75 1594 -75
Q 450 -75 450 1288
L 450 3200
L 959 3200
L 959 1369
Q 959 356 1734 356
Q 2109 356 2351 632
Q 2594 909 2594 1356
L 2594 3200
L 3106 3200
L 3106 0
z
" transform="scale(0.015625)"/>
       <path id="SegoeUI-6e" d="M 3175 0
L 2663 0
L 2663 1825
Q 2663 2844 1919 2844
Q 1534 2844 1282 2555
Q 1031 2266 1031 1825
L 1031 0
L 519 0
L 519 3200
L 1031 3200
L 1031 2669
L 1044 2669
Q 1406 3275 2094 3275
Q 2619 3275 2897 2936
Q 3175 2597 3175 1956
L 3175 0
z
" transform="scale(0.015625)"/>
      </defs>
      <use xlink:href="#SegoeUI-2b"/>
      <use xlink:href="#SegoeUI-31" transform="translate(68.408203 0)"/>
      <use xlink:href="#SegoeUI-20" transform="translate(122.314453 0)"/>
      <use xlink:href="#SegoeUI-74" transform="translate(149.707031 0)"/>
      <use xlink:href="#SegoeUI-6f" transform="translate(182.84375 0)"/>
      <use xlink:href="#SegoeUI-20" transform="translate(241.4375 0)"/>
      <use xlink:href="#SegoeUI-2b" transform="translate(268.830078 0)"/>
      <use xlink:href="#SegoeUI-31" transform="translate(337.238281 0)"/>
      <use xlink:href="#SegoeUI-30" transform="translate(391.144531 0)"/>
      <use xlink:href="#SegoeUI-20" transform="translate(445.050781 0)"/>
      <use xlink:href="#SegoeUI-64" transform="translate(472.443359 0)"/>
      <use xlink:href="#SegoeUI-61" transform="translate(531.330078 0)"/>
      <use xlink:href="#SegoeUI-79" transform="translate(582.208984 0)"/>
      <use xlink:href="#SegoeUI-20" transform="translate(630.597656 0)"/>
      <use xlink:href="#SegoeUI-72" transform="translate(657.990234 0)"/>
      <use xlink:href="#SegoeUI-65" transform="translate(691.380859 0)"/>
      <use xlink:href="#SegoeUI-74" transform="translate(743.675781 0)"/>
      <use xlink:href="#SegoeUI-75" transform="translate(777.5625 0)"/>
      <use xlink:href="#SegoeUI-72" transform="translate(834.154297 0)"/>
      <use xlink:href="#SegoeUI-6e" transform="translate(868.669922 0)"/>
     </g>
    </g>
   </g>
   <g id="patch_3">
    <path d="M 85.363295 256.851602
L 131.159289 256.851602
L 131.159289 276.935137
L 85.363295 276.935137
z
" clip-path="url(#paa1a599979)" style="fill: #f0986e; stroke: #804126; stroke-linejoin: miter"/>
   </g>
   <g id="patch_4">
    <path d="M 142.608288 256.851602
L 188.404282 256.851602
L 188.404282 306.159814
L 142.608288 306.159814
z
" clip-path="url(#paa1a599979)" style="fill: #f0986e; stroke: #804126; stroke-linejoin: miter"/>
   </g>
   <g id="patch_5">
    <path d="M 199.85328 256.851602
L 245.649274 256.851602
L 245.649274 349.266804
L 199.85328 349.266804
z
" clip-path="url(#paa1a599979)" style="fill: #f0986e; stroke: #804126; stroke-linejoin: miter"/>
   </g>
   <g id="patch_6">
    <path d="M 257.098272 256.851602
L 302.894266 256.851602
L 302.894266 323.387544
L 257.098272 323.387544
z
" clip-path="url(#paa1a599979)" style="fill: #f0986e; stroke: #804126; stroke-linejoin: miter"/>
   </g>
   <g id="patch_7">
    <path d="M 314.343265 256.851602
L 360.139258 256.851602
L 360.139258 274.391536
L 314.343265 274.391536
z
" clip-path="url(#paa1a599979)" style="fill: #f0986e; stroke: #804126; stroke-linejoin: miter"/>
   </g>
   <g id="patch_8">
    <path d="M 371.588257 256.851602
L 417.384251 256.851602
L 417.384251 258.958399
L 371.588257 258.958399
z
" clip-path="url(#paa1a599979)" style="fill: #f0986e; stroke: #804126; stroke-linejoin: miter"/>
   </g>
   <g id="patch_9">
    <path d="M 428.833249 256.851602
L 474.629243 256.851602
L 474.629243 105.504545
L 428.833249 105.504545
z
" clip-path="url(#paa1a599979)" style="fill: #f0986e; stroke: #804126; stroke-linejoin: miter"/>
   </g>
   <g id="patch_10">
    <path d="M 486.078242 256.851602
L 531.874235 256.851602
L 531.874235 313.506751
L 486.078242 313.506751
z
" clip-path="url(#paa1a599979)" style="fill: #f0986e; stroke: #804126; stroke-linejoin: miter"/>
   </g>
   <g id="patch_11">
    <path d="M 543.323234 256.851602
L 589.119228 256.851602
L 589.119228 370.595455
L 543.323234 370.595455
z
" clip-path="url(#paa1a599979)" style="fill: #f0986e; stroke: #804126; stroke-linejoin: miter"/>
   </g>
   <g id="patch_12">
    <path d="M 600.568226 256.851602
L 646.36422 256.851602
L 646.36422 138.393572
L 600.568226 138.393572
z
" clip-path="url(#paa1a599979)" style="fill: #f0986e; stroke: #804126; stroke-linejoin: miter"/>
   </g>
   <g id="patch_13">
    <path d="M 657.813218 256.851602
L 703.609212 256.851602
L 703.609212 243.893466
L 657.813218 243.893466
z
" clip-path="url(#paa1a599979)" style="fill: #f0986e; stroke: #804126; stroke-linejoin: miter"/>
   </g>
   <g id="patch_14">
    <path d="M 715.058211 256.851602
L 760.854205 256.851602
L 760.854205 181.816077
L 715.058211 181.816077
z
" clip-path="url(#paa1a599979)" style="fill: #f0986e; stroke: #804126; stroke-linejoin: miter"/>
   </g>
   <g id="line2d_8">
    <path d="M 51.58875 256.851602
L 794.62875 256.851602
" clip-path="url(#paa1a599979)" style="fill: none; stroke: #d7dbe7; stroke-linecap: round"/>
   </g>
   <g id="patch_15">
    <path d="M 51.58875 383.85
L 51.58875 92.25
" style="fill: none; stroke: #d7dbe7; stroke-width: 1.25; stroke-linejoin: miter; stroke-linecap: square"/>
   </g>
   <g id="patch_16">
    <path d="M 51.58875 383.85
L 794.62875 383.85
" style="fill: none; stroke: #d7dbe7; stroke-width: 1.25; stroke-linejoin: miter; stroke-linecap: square"/>
   </g>
   <g id="text_21">
    <!-- -2.4% -->
    <g style="fill: #1f2430" transform="translate(93.210511 273.86784) scale(0.1 -0.1)">
     <defs>
      <path id="DejaVuSansMono-2d" d="M 1113 2009
L 2741 2009
L 2741 1497
L 1113 1497
L 1113 2009
z
" transform="scale(0.015625)"/>
      <path id="DejaVuSansMono-32" d="M 1166 531
L 3309 531
L 3309 0
L 475 0
L 475 531
Q 1059 1147 1496 1619
Q 1934 2091 2100 2284
Q 2413 2666 2522 2902
Q 2631 3138 2631 3384
Q 2631 3775 2401 3997
Q 2172 4219 1772 4219
Q 1488 4219 1175 4116
Q 863 4013 513 3803
L 513 4441
Q 834 4594 1145 4672
Q 1456 4750 1759 4750
Q 2444 4750 2861 4386
Q 3278 4022 3278 3431
Q 3278 3131 3139 2831
Q 3000 2531 2688 2169
Q 2513 1966 2180 1606
Q 1847 1247 1166 531
z
" transform="scale(0.015625)"/>
      <path id="DejaVuSansMono-2e" d="M 1528 953
L 2316 953
L 2316 0
L 1528 0
L 1528 953
z
" transform="scale(0.015625)"/>
      <path id="DejaVuSansMono-34" d="M 2297 4091
L 825 1625
L 2297 1625
L 2297 4091
z
M 2194 4666
L 2925 4666
L 2925 1625
L 3547 1625
L 3547 1113
L 2925 1113
L 2925 0
L 2297 0
L 2297 1113
L 319 1113
L 319 1709
L 2194 4666
z
" transform="scale(0.015625)"/>
      <path id="DejaVuSansMono-25" d="M 2175 997
Q 2175 753 2339 587
Q 2503 422 2747 422
Q 2988 422 3155 589
Q 3322 756 3322 997
Q 3322 1238 3153 1406
Q 2984 1575 2747 1575
Q 2503 1575 2339 1409
Q 2175 1244 2175 997
z
M 1753 997
Q 1753 1419 2040 1708
Q 2328 1997 2747 1997
Q 2947 1997 3126 1922
Q 3306 1847 3450 1703
Q 3594 1556 3672 1375
Q 3750 1194 3750 997
Q 3750 581 3459 290
Q 3169 0 2747 0
Q 2322 0 2037 286
Q 1753 572 1753 997
z
M 378 1453
L 269 1753
L 3525 3059
L 3653 2759
L 378 1453
z
M 525 3475
Q 525 3228 689 3064
Q 853 2900 1100 2900
Q 1341 2900 1509 3067
Q 1678 3234 1678 3475
Q 1678 3716 1509 3883
Q 1341 4050 1100 4050
Q 859 4050 692 3884
Q 525 3719 525 3475
z
M 103 3475
Q 103 3897 390 4186
Q 678 4475 1100 4475
Q 1300 4475 1483 4400
Q 1666 4325 1806 4184
Q 1947 4044 2023 3861
Q 2100 3678 2100 3475
Q 2100 3056 1809 2767
Q 1519 2478 1100 2478
Q 678 2478 390 2765
Q 103 3053 103 3475
z
" transform="scale(0.015625)"/>
     </defs>
     <use xlink:href="#DejaVuSansMono-2d"/>
     <use xlink:href="#DejaVuSansMono-32" transform="translate(60.205078 0)"/>
     <use xlink:href="#DejaVuSansMono-2e" transform="translate(120.410156 0)"/>
     <use xlink:href="#DejaVuSansMono-34" transform="translate(180.615234 0)"/>
     <use xlink:href="#DejaVuSansMono-25" transform="translate(240.820312 0)"/>
    </g>
   </g>
   <g id="text_22">
    <!-- -6.0% -->
    <g style="fill: #1f2430" transform="translate(150.455503 303.092517) scale(0.1 -0.1)">
     <defs>
      <path id="DejaVuSansMono-36" d="M 3097 4563
L 3097 3981
Q 2900 4097 2678 4158
Q 2456 4219 2216 4219
Q 1616 4219 1306 3767
Q 997 3316 997 2438
Q 1147 2750 1412 2917
Q 1678 3084 2022 3084
Q 2697 3084 3067 2670
Q 3438 2256 3438 1497
Q 3438 741 3056 325
Q 2675 -91 1984 -91
Q 1172 -91 794 492
Q 416 1075 416 2328
Q 416 3509 870 4129
Q 1325 4750 2188 4750
Q 2419 4750 2650 4701
Q 2881 4653 3097 4563
z
M 1972 2591
Q 1569 2591 1337 2300
Q 1106 2009 1106 1497
Q 1106 984 1337 693
Q 1569 403 1972 403
Q 2391 403 2603 679
Q 2816 956 2816 1497
Q 2816 2041 2603 2316
Q 2391 2591 1972 2591
z
" transform="scale(0.015625)"/>
      <path id="DejaVuSansMono-30" d="M 1509 2344
Q 1509 2516 1629 2641
Q 1750 2766 1919 2766
Q 2094 2766 2219 2641
Q 2344 2516 2344 2344
Q 2344 2169 2220 2047
Q 2097 1925 1919 1925
Q 1744 1925 1626 2044
Q 1509 2163 1509 2344
z
M 1925 4250
Q 1484 4250 1267 3775
Q 1050 3300 1050 2328
Q 1050 1359 1267 884
Q 1484 409 1925 409
Q 2369 409 2586 884
Q 2803 1359 2803 2328
Q 2803 3300 2586 3775
Q 2369 4250 1925 4250
z
M 1925 4750
Q 2672 4750 3055 4137
Q 3438 3525 3438 2328
Q 3438 1134 3055 521
Q 2672 -91 1925 -91
Q 1178 -91 797 521
Q 416 1134 416 2328
Q 416 3525 797 4137
Q 1178 4750 1925 4750
z
" transform="scale(0.015625)"/>
     </defs>
     <use xlink:href="#DejaVuSansMono-2d"/>
     <use xlink:href="#DejaVuSansMono-36" transform="translate(60.205078 0)"/>
     <use xlink:href="#DejaVuSansMono-2e" transform="translate(120.410156 0)"/>
     <use xlink:href="#DejaVuSansMono-30" transform="translate(180.615234 0)"/>
     <use xlink:href="#DejaVuSansMono-25" transform="translate(240.820312 0)"/>
    </g>
   </g>
   <g id="text_23">
    <!-- -11.2% -->
    <g style="fill: #1f2430" transform="translate(204.690339 346.199507) scale(0.1 -0.1)">
     <defs>
      <path id="DejaVuSansMono-31" d="M 844 531
L 1825 531
L 1825 4097
L 769 3859
L 769 4434
L 1819 4666
L 2450 4666
L 2450 531
L 3419 531
L 3419 0
L 844 0
L 844 531
z
" transform="scale(0.015625)"/>
     </defs>
     <use xlink:href="#DejaVuSansMono-2d"/>
     <use xlink:href="#DejaVuSansMono-31" transform="translate(60.205078 0)"/>
     <use xlink:href="#DejaVuSansMono-31" transform="translate(120.410156 0)"/>
     <use xlink:href="#DejaVuSansMono-2e" transform="translate(180.615234 0)"/>
     <use xlink:href="#DejaVuSansMono-32" transform="translate(240.820312 0)"/>
     <use xlink:href="#DejaVuSansMono-25" transform="translate(301.025391 0)"/>
    </g>
   </g>
   <g id="text_24">
    <!-- -8.1% -->
    <g style="fill: #1f2430" transform="translate(264.945488 320.320247) scale(0.1 -0.1)">
     <defs>
      <path id="DejaVuSansMono-38" d="M 1925 2216
Q 1503 2216 1273 1980
Q 1044 1744 1044 1313
Q 1044 881 1276 642
Q 1509 403 1925 403
Q 2350 403 2579 639
Q 2809 875 2809 1313
Q 2809 1741 2576 1978
Q 2344 2216 1925 2216
z
M 1375 2478
Q 972 2581 745 2862
Q 519 3144 519 3541
Q 519 4097 897 4423
Q 1275 4750 1925 4750
Q 2578 4750 2956 4423
Q 3334 4097 3334 3541
Q 3334 3144 3107 2862
Q 2881 2581 2478 2478
Q 2947 2375 3195 2062
Q 3444 1750 3444 1253
Q 3444 622 3041 265
Q 2638 -91 1925 -91
Q 1213 -91 811 264
Q 409 619 409 1247
Q 409 1747 657 2061
Q 906 2375 1375 2478
z
M 1147 3481
Q 1147 3106 1347 2909
Q 1547 2713 1925 2713
Q 2306 2713 2506 2909
Q 2706 3106 2706 3481
Q 2706 3863 2507 4063
Q 2309 4263 1925 4263
Q 1547 4263 1347 4061
Q 1147 3859 1147 3481
z
" transform="scale(0.015625)"/>
     </defs>
     <use xlink:href="#DejaVuSansMono-2d"/>
     <use xlink:href="#DejaVuSansMono-38" transform="translate(60.205078 0)"/>
     <use xlink:href="#DejaVuSansMono-2e" transform="translate(120.410156 0)"/>
     <use xlink:href="#DejaVuSansMono-31" transform="translate(180.615234 0)"/>
     <use xlink:href="#DejaVuSansMono-25" transform="translate(240.820312 0)"/>
    </g>
   </g>
   <g id="text_25">
    <!-- -2.1% -->
    <g style="fill: #1f2430" transform="translate(322.19048 271.324239) scale(0.1 -0.1)">
     <use xlink:href="#DejaVuSansMono-2d"/>
     <use xlink:href="#DejaVuSansMono-32" transform="translate(60.205078 0)"/>
     <use xlink:href="#DejaVuSansMono-2e" transform="translate(120.410156 0)"/>
     <use xlink:href="#DejaVuSansMono-31" transform="translate(180.615234 0)"/>
     <use xlink:href="#DejaVuSansMono-25" transform="translate(240.820312 0)"/>
    </g>
   </g>
   <g id="text_26">
    <!-- -0.3% -->
    <g style="fill: #1f2430" transform="translate(379.435473 255.891102) scale(0.1 -0.1)">
     <defs>
      <path id="DejaVuSansMono-33" d="M 2425 2497
Q 2884 2375 3128 2064
Q 3372 1753 3372 1288
Q 3372 644 2939 276
Q 2506 -91 1741 -91
Q 1419 -91 1084 -31
Q 750 28 428 141
L 428 769
Q 747 603 1056 522
Q 1366 441 1672 441
Q 2191 441 2469 675
Q 2747 909 2747 1350
Q 2747 1756 2469 1995
Q 2191 2234 1716 2234
L 1234 2234
L 1234 2753
L 1716 2753
Q 2150 2753 2394 2943
Q 2638 3134 2638 3475
Q 2638 3834 2411 4026
Q 2184 4219 1766 4219
Q 1488 4219 1191 4156
Q 894 4094 569 3969
L 569 4550
Q 947 4650 1242 4700
Q 1538 4750 1766 4750
Q 2447 4750 2855 4408
Q 3263 4066 3263 3500
Q 3263 3116 3048 2859
Q 2834 2603 2425 2497
z
" transform="scale(0.015625)"/>
     </defs>
     <use xlink:href="#DejaVuSansMono-2d"/>
     <use xlink:href="#DejaVuSansMono-30" transform="translate(60.205078 0)"/>
     <use xlink:href="#DejaVuSansMono-2e" transform="translate(120.410156 0)"/>
     <use xlink:href="#DejaVuSansMono-33" transform="translate(180.615234 0)"/>
     <use xlink:href="#DejaVuSansMono-25" transform="translate(240.820312 0)"/>
    </g>
   </g>
   <g id="text_27">
    <!-- 18.4% -->
    <g style="fill: #1f2430" transform="translate(436.680465 102.437248) scale(0.1 -0.1)">
     <use xlink:href="#DejaVuSansMono-31"/>
     <use xlink:href="#DejaVuSansMono-38" transform="translate(60.205078 0)"/>
     <use xlink:href="#DejaVuSansMono-2e" transform="translate(120.410156 0)"/>
     <use xlink:href="#DejaVuSansMono-34" transform="translate(180.615234 0)"/>
     <use xlink:href="#DejaVuSansMono-25" transform="translate(240.820312 0)"/>
    </g>
   </g>
   <g id="text_28">
    <!-- -6.9% -->
    <g style="fill: #1f2430" transform="translate(493.925457 310.439454) scale(0.1 -0.1)">
     <defs>
      <path id="DejaVuSansMono-39" d="M 1863 2069
Q 2266 2069 2495 2359
Q 2725 2650 2725 3163
Q 2725 3675 2495 3965
Q 2266 4256 1863 4256
Q 1444 4256 1231 3979
Q 1019 3703 1019 3163
Q 1019 2619 1230 2344
Q 1441 2069 1863 2069
z
M 738 97
L 738 678
Q 934 563 1156 502
Q 1378 441 1619 441
Q 2219 441 2526 892
Q 2834 1344 2834 2222
Q 2688 1909 2422 1742
Q 2156 1575 1813 1575
Q 1138 1575 767 1990
Q 397 2406 397 3169
Q 397 3922 776 4336
Q 1156 4750 1850 4750
Q 2663 4750 3041 4165
Q 3419 3581 3419 2328
Q 3419 1150 2964 529
Q 2509 -91 1644 -91
Q 1416 -91 1184 -42
Q 953 6 738 97
z
" transform="scale(0.015625)"/>
     </defs>
     <use xlink:href="#DejaVuSansMono-2d"/>
     <use xlink:href="#DejaVuSansMono-36" transform="translate(60.205078 0)"/>
     <use xlink:href="#DejaVuSansMono-2e" transform="translate(120.410156 0)"/>
     <use xlink:href="#DejaVuSansMono-39" transform="translate(180.615234 0)"/>
     <use xlink:href="#DejaVuSansMono-25" transform="translate(240.820312 0)"/>
    </g>
   </g>
   <g id="text_29">
    <!-- -13.8% -->
    <g style="fill: #1f2430" transform="translate(548.160293 367.528157) scale(0.1 -0.1)">
     <use xlink:href="#DejaVuSansMono-2d"/>
     <use xlink:href="#DejaVuSansMono-31" transform="translate(60.205078 0)"/>
     <use xlink:href="#DejaVuSansMono-33" transform="translate(120.410156 0)"/>
     <use xlink:href="#DejaVuSansMono-2e" transform="translate(180.615234 0)"/>
     <use xlink:href="#DejaVuSansMono-38" transform="translate(240.820312 0)"/>
     <use xlink:href="#DejaVuSansMono-25" transform="translate(301.025391 0)"/>
    </g>
   </g>
   <g id="text_30">
    <!-- 14.4% -->
    <g style="fill: #1f2430" transform="translate(608.415442 135.326275) scale(0.1 -0.1)">
     <use xlink:href="#DejaVuSansMono-31"/>
     <use xlink:href="#DejaVuSansMono-34" transform="translate(60.205078 0)"/>
     <use xlink:href="#DejaVuSansMono-2e" transform="translate(120.410156 0)"/>
     <use xlink:href="#DejaVuSansMono-34" transform="translate(180.615234 0)"/>
     <use xlink:href="#DejaVuSansMono-25" transform="translate(240.820312 0)"/>
    </g>
   </g>
   <g id="text_31">
    <!-- 1.6% -->
    <g style="fill: #1f2430" transform="translate(668.67059 240.826169) scale(0.1 -0.1)">
     <use xlink:href="#DejaVuSansMono-31"/>
     <use xlink:href="#DejaVuSansMono-2e" transform="translate(60.205078 0)"/>
     <use xlink:href="#DejaVuSansMono-36" transform="translate(120.410156 0)"/>
     <use xlink:href="#DejaVuSansMono-25" transform="translate(180.615234 0)"/>
    </g>
   </g>
   <g id="text_32">
    <!-- 9.1% -->
    <g style="fill: #1f2430" transform="translate(725.915583 178.74878) scale(0.1 -0.1)">
     <use xlink:href="#DejaVuSansMono-39"/>
     <use xlink:href="#DejaVuSansMono-2e" transform="translate(60.205078 0)"/>
     <use xlink:href="#DejaVuSansMono-31" transform="translate(120.410156 0)"/>
     <use xlink:href="#DejaVuSansMono-25" transform="translate(180.615234 0)"/>
    </g>
   </g>
  </g>
  <g id="text_33">
   <!-- Liquidation event windows are stress signatures -->
   <g style="fill: #1f2430" transform="translate(17.02875 19.045) scale(0.16 -0.16)">
    <defs>
     <path id="SegoeUI-Semibold-4c" d="M 3034 0
L 553 0
L 553 4481
L 1297 4481
L 1297 628
L 3034 628
L 3034 0
z
" transform="scale(0.015625)"/>
     <path id="SegoeUI-Semibold-69" d="M 838 3872
Q 659 3872 532 3987
Q 406 4103 406 4281
Q 406 4459 532 4578
Q 659 4697 838 4697
Q 1022 4697 1150 4578
Q 1278 4459 1278 4281
Q 1278 4113 1150 3992
Q 1022 3872 838 3872
z
M 1197 0
L 472 0
L 472 3200
L 1197 3200
L 1197 0
z
" transform="scale(0.015625)"/>
     <path id="SegoeUI-Semibold-71" d="M 3381 -1472
L 2656 -1472
L 2656 550
L 2644 550
Q 2316 -75 1572 -75
Q 981 -75 623 354
Q 266 784 266 1525
Q 266 2322 658 2798
Q 1050 3275 1713 3275
Q 2356 3275 2644 2756
L 2656 2756
L 2656 3200
L 3381 3200
L 3381 -1472
z
M 2666 1456
L 2666 1869
Q 2666 2216 2442 2456
Q 2219 2697 1875 2697
Q 1472 2697 1239 2395
Q 1006 2094 1006 1544
Q 1006 1056 1231 778
Q 1456 500 1813 500
Q 2203 500 2434 772
Q 2666 1044 2666 1456
z
" transform="scale(0.015625)"/>
     <path id="SegoeUI-Semibold-75" d="M 3263 0
L 2538 0
L 2538 506
L 2525 506
Q 2209 -75 1544 -75
Q 409 -75 409 1288
L 409 3200
L 1134 3200
L 1134 1363
Q 1134 500 1800 500
Q 2122 500 2330 737
Q 2538 975 2538 1359
L 2538 3200
L 3263 3200
L 3263 0
z
" transform="scale(0.015625)"/>
     <path id="SegoeUI-Semibold-64" d="M 3381 0
L 2656 0
L 2656 544
L 2644 544
Q 2294 -75 1566 -75
Q 975 -75 620 354
Q 266 784 266 1525
Q 266 2319 658 2797
Q 1050 3275 1703 3275
Q 2350 3275 2644 2756
L 2656 2756
L 2656 4738
L 3381 4738
L 3381 0
z
M 2666 1463
L 2666 1881
Q 2666 2222 2444 2459
Q 2222 2697 1878 2697
Q 1472 2697 1239 2394
Q 1006 2091 1006 1553
Q 1006 1066 1229 783
Q 1453 500 1831 500
Q 2203 500 2434 773
Q 2666 1047 2666 1463
z
" transform="scale(0.015625)"/>
     <path id="SegoeUI-Semibold-61" d="M 2928 0
L 2225 0
L 2225 500
L 2213 500
Q 1881 -75 1241 -75
Q 769 -75 501 181
Q 234 438 234 859
Q 234 1766 1278 1916
L 2228 2050
Q 2228 2734 1578 2734
Q 1006 2734 547 2341
L 547 2975
Q 1053 3275 1716 3275
Q 2928 3275 2928 2081
L 2928 0
z
M 2228 1572
L 1556 1478
Q 1244 1438 1086 1327
Q 928 1216 928 938
Q 928 734 1073 604
Q 1219 475 1463 475
Q 1794 475 2011 708
Q 2228 941 2228 1294
L 2228 1572
z
" transform="scale(0.015625)"/>
     <path id="SegoeUI-Semibold-74" d="M 2159 34
Q 1947 -72 1600 -72
Q 669 -72 669 822
L 669 2631
L 134 2631
L 134 3200
L 669 3200
L 669 3941
L 1394 4147
L 1394 3200
L 2159 3200
L 2159 2631
L 1394 2631
L 1394 1031
Q 1394 747 1497 625
Q 1600 503 1841 503
Q 2025 503 2159 609
L 2159 34
z
" transform="scale(0.015625)"/>
     <path id="SegoeUI-Semibold-6f" d="M 1891 -75
Q 1150 -75 708 373
Q 266 822 266 1563
Q 266 2369 727 2822
Q 1188 3275 1969 3275
Q 2719 3275 3137 2834
Q 3556 2394 3556 1613
Q 3556 847 3104 386
Q 2653 -75 1891 -75
z
M 1925 2697
Q 1500 2697 1253 2400
Q 1006 2103 1006 1581
Q 1006 1078 1256 789
Q 1506 500 1925 500
Q 2353 500 2583 784
Q 2813 1069 2813 1594
Q 2813 2122 2583 2409
Q 2353 2697 1925 2697
z
" transform="scale(0.015625)"/>
     <path id="SegoeUI-Semibold-6e" d="M 3322 0
L 2597 0
L 2597 1803
Q 2597 2700 1963 2700
Q 1631 2700 1415 2451
Q 1200 2203 1200 1825
L 1200 0
L 472 0
L 472 3200
L 1200 3200
L 1200 2669
L 1213 2669
Q 1572 3275 2250 3275
Q 2772 3275 3047 2936
Q 3322 2597 3322 1956
L 3322 0
z
" transform="scale(0.015625)"/>
     <path id="SegoeUI-Semibold-20" transform="scale(0.015625)"/>
     <path id="SegoeUI-Semibold-65" d="M 3181 1403
L 1000 1403
Q 1013 959 1273 718
Q 1534 478 1991 478
Q 2503 478 2931 784
L 2931 200
Q 2494 -75 1775 -75
Q 1069 -75 667 361
Q 266 797 266 1588
Q 266 2334 708 2804
Q 1150 3275 1806 3275
Q 2463 3275 2822 2853
Q 3181 2431 3181 1681
L 3181 1403
z
M 2481 1916
Q 2478 2306 2297 2523
Q 2116 2741 1797 2741
Q 1484 2741 1267 2512
Q 1050 2284 1000 1916
L 2481 1916
z
" transform="scale(0.015625)"/>
     <path id="SegoeUI-Semibold-76" d="M 3228 3200
L 1991 0
L 1206 0
L 28 3200
L 816 3200
L 1525 963
Q 1606 716 1625 531
L 1634 531
Q 1663 763 1722 950
L 2466 3200
L 3228 3200
z
" transform="scale(0.015625)"/>
     <path id="SegoeUI-Semibold-77" d="M 4775 3200
L 3831 0
L 3072 0
L 2491 2169
Q 2456 2294 2447 2450
L 2434 2450
Q 2428 2344 2378 2175
L 1747 0
L 1003 0
L 63 3200
L 813 3200
L 1394 894
Q 1422 791 1431 619
L 1453 619
Q 1463 750 1503 900
L 2150 3200
L 2831 3200
L 3406 884
Q 3434 775 3447 609
L 3469 609
Q 3475 725 3516 884
L 4084 3200
L 4775 3200
z
" transform="scale(0.015625)"/>
     <path id="SegoeUI-Semibold-73" d="M 272 100
L 272 772
Q 678 463 1169 463
Q 1825 463 1825 850
Q 1825 959 1769 1036
Q 1713 1113 1617 1172
Q 1522 1231 1392 1278
Q 1263 1325 1103 1384
Q 906 1463 748 1550
Q 591 1638 486 1748
Q 381 1859 328 2000
Q 275 2141 275 2328
Q 275 2559 384 2736
Q 494 2913 678 3033
Q 863 3153 1097 3214
Q 1331 3275 1581 3275
Q 2025 3275 2375 3141
L 2375 2506
Q 2038 2738 1600 2738
Q 1463 2738 1352 2709
Q 1241 2681 1162 2631
Q 1084 2581 1040 2511
Q 997 2441 997 2356
Q 997 2253 1040 2181
Q 1084 2109 1170 2054
Q 1256 2000 1376 1954
Q 1497 1909 1653 1856
Q 1859 1772 2023 1684
Q 2188 1597 2303 1486
Q 2419 1375 2481 1229
Q 2544 1084 2544 884
Q 2544 641 2431 459
Q 2319 278 2131 159
Q 1944 41 1698 -17
Q 1453 -75 1181 -75
Q 656 -75 272 100
z
" transform="scale(0.015625)"/>
     <path id="SegoeUI-Semibold-72" d="M 2328 2509
Q 2197 2613 1950 2613
Q 1628 2613 1412 2322
Q 1197 2031 1197 1531
L 1197 0
L 472 0
L 472 3200
L 1197 3200
L 1197 2541
L 1209 2541
Q 1316 2878 1536 3067
Q 1756 3256 2028 3256
Q 2225 3256 2328 3197
L 2328 2509
z
" transform="scale(0.015625)"/>
     <path id="SegoeUI-Semibold-67" d="M 3384 256
Q 3384 -1506 1613 -1506
Q 988 -1506 522 -1297
L 522 -634
Q 1047 -934 1519 -934
Q 2659 -934 2659 188
L 2659 538
L 2647 538
Q 2288 -75 1566 -75
Q 981 -75 623 351
Q 266 778 266 1497
Q 266 2313 650 2794
Q 1034 3275 1706 3275
Q 2341 3275 2647 2756
L 2659 2756
L 2659 3200
L 3384 3200
L 3384 256
z
M 2666 1466
L 2666 1881
Q 2666 2219 2442 2458
Q 2219 2697 1884 2697
Q 1472 2697 1239 2392
Q 1006 2088 1006 1541
Q 1006 1069 1229 786
Q 1453 503 1822 503
Q 2197 503 2431 773
Q 2666 1044 2666 1466
z
" transform="scale(0.015625)"/>
    </defs>
    <use xlink:href="#SegoeUI-Semibold-4c"/>
    <use xlink:href="#SegoeUI-Semibold-69" transform="translate(48.876953 0)"/>
    <use xlink:href="#SegoeUI-Semibold-71" transform="translate(75 0)"/>
    <use xlink:href="#SegoeUI-Semibold-75" transform="translate(135.253906 0)"/>
    <use xlink:href="#SegoeUI-Semibold-69" transform="translate(193.603516 0)"/>
    <use xlink:href="#SegoeUI-Semibold-64" transform="translate(219.726562 0)"/>
    <use xlink:href="#SegoeUI-Semibold-61" transform="translate(279.980469 0)"/>
    <use xlink:href="#SegoeUI-Semibold-74" transform="translate(332.177734 0)"/>
    <use xlink:href="#SegoeUI-Semibold-69" transform="translate(368.310547 0)"/>
    <use xlink:href="#SegoeUI-Semibold-6f" transform="translate(394.433594 0)"/>
    <use xlink:href="#SegoeUI-Semibold-6e" transform="translate(454.150391 0)"/>
    <use xlink:href="#SegoeUI-Semibold-20" transform="translate(512.5 0)"/>
    <use xlink:href="#SegoeUI-Semibold-65" transform="translate(539.990234 0)"/>
    <use xlink:href="#SegoeUI-Semibold-76" transform="translate(593.115234 0)"/>
    <use xlink:href="#SegoeUI-Semibold-65" transform="translate(643.097656 0)"/>
    <use xlink:href="#SegoeUI-Semibold-6e" transform="translate(696.222656 0)"/>
    <use xlink:href="#SegoeUI-Semibold-74" transform="translate(754.572266 0)"/>
    <use xlink:href="#SegoeUI-Semibold-20" transform="translate(790.705078 0)"/>
    <use xlink:href="#SegoeUI-Semibold-77" transform="translate(818.195312 0)"/>
    <use xlink:href="#SegoeUI-Semibold-69" transform="translate(893.830078 0)"/>
    <use xlink:href="#SegoeUI-Semibold-6e" transform="translate(919.953125 0)"/>
    <use xlink:href="#SegoeUI-Semibold-64" transform="translate(978.302734 0)"/>
    <use xlink:href="#SegoeUI-Semibold-6f" transform="translate(1038.556641 0)"/>
    <use xlink:href="#SegoeUI-Semibold-77" transform="translate(1098.273438 0)"/>
    <use xlink:href="#SegoeUI-Semibold-73" transform="translate(1173.908203 0)"/>
    <use xlink:href="#SegoeUI-Semibold-20" transform="translate(1217.023438 0)"/>
    <use xlink:href="#SegoeUI-Semibold-61" transform="translate(1244.513672 0)"/>
    <use xlink:href="#SegoeUI-Semibold-72" transform="translate(1296.710938 0)"/>
    <use xlink:href="#SegoeUI-Semibold-65" transform="translate(1332.847656 0)"/>
    <use xlink:href="#SegoeUI-Semibold-20" transform="translate(1385.972656 0)"/>
    <use xlink:href="#SegoeUI-Semibold-73" transform="translate(1413.462891 0)"/>
    <use xlink:href="#SegoeUI-Semibold-74" transform="translate(1456.578125 0)"/>
    <use xlink:href="#SegoeUI-Semibold-72" transform="translate(1492.710938 0)"/>
    <use xlink:href="#SegoeUI-Semibold-65" transform="translate(1528.847656 0)"/>
    <use xlink:href="#SegoeUI-Semibold-73" transform="translate(1581.972656 0)"/>
    <use xlink:href="#SegoeUI-Semibold-73" transform="translate(1625.087891 0)"/>
    <use xlink:href="#SegoeUI-Semibold-20" transform="translate(1668.203125 0)"/>
    <use xlink:href="#SegoeUI-Semibold-73" transform="translate(1695.693359 0)"/>
    <use xlink:href="#SegoeUI-Semibold-69" transform="translate(1738.808594 0)"/>
    <use xlink:href="#SegoeUI-Semibold-67" transform="translate(1764.931641 0)"/>
    <use xlink:href="#SegoeUI-Semibold-6e" transform="translate(1825.185547 0)"/>
    <use xlink:href="#SegoeUI-Semibold-61" transform="translate(1883.535156 0)"/>
    <use xlink:href="#SegoeUI-Semibold-74" transform="translate(1935.732422 0)"/>
    <use xlink:href="#SegoeUI-Semibold-75" transform="translate(1971.865234 0)"/>
    <use xlink:href="#SegoeUI-Semibold-72" transform="translate(2030.214844 0)"/>
    <use xlink:href="#SegoeUI-Semibold-65" transform="translate(2066.351562 0)"/>
    <use xlink:href="#SegoeUI-Semibold-73" transform="translate(2119.476562 0)"/>
   </g>
  </g>
  <g id="text_34">
   <!-- Post-event returns remain descriptive and timing-sensitive. -->
   <g style="fill: #6f768a" transform="translate(17.02875 39.643437) scale(0.11 -0.11)">
    <defs>
     <path id="SegoeUI-50" d="M 1113 1694
L 1113 0
L 588 0
L 588 4481
L 1819 4481
Q 2538 4481 2933 4131
Q 3328 3781 3328 3144
Q 3328 2506 2889 2100
Q 2450 1694 1703 1694
L 1113 1694
z
M 1113 4006
L 1113 2169
L 1663 2169
Q 2206 2169 2492 2417
Q 2778 2666 2778 3119
Q 2778 4006 1728 4006
L 1113 4006
z
" transform="scale(0.015625)"/>
     <path id="SegoeUI-73" d="M 325 116
L 325 666
Q 744 356 1247 356
Q 1922 356 1922 806
Q 1922 934 1864 1023
Q 1806 1113 1707 1181
Q 1609 1250 1476 1304
Q 1344 1359 1191 1419
Q 978 1503 817 1589
Q 656 1675 548 1783
Q 441 1891 386 2028
Q 331 2166 331 2350
Q 331 2575 434 2748
Q 538 2922 709 3039
Q 881 3156 1101 3215
Q 1322 3275 1556 3275
Q 1972 3275 2300 3131
L 2300 2613
Q 1947 2844 1488 2844
Q 1344 2844 1228 2811
Q 1113 2778 1030 2718
Q 947 2659 901 2576
Q 856 2494 856 2394
Q 856 2269 901 2184
Q 947 2100 1034 2034
Q 1122 1969 1247 1916
Q 1372 1863 1531 1800
Q 1744 1719 1912 1633
Q 2081 1547 2200 1439
Q 2319 1331 2383 1190
Q 2447 1050 2447 856
Q 2447 619 2342 444
Q 2238 269 2063 153
Q 1888 38 1659 -18
Q 1431 -75 1181 -75
Q 688 -75 325 116
z
" transform="scale(0.015625)"/>
     <path id="SegoeUI-2d" d="M 2156 1581
L 450 1581
L 450 1984
L 2156 1984
L 2156 1581
z
" transform="scale(0.015625)"/>
     <path id="SegoeUI-76" d="M 3034 3200
L 1759 0
L 1256 0
L 44 3200
L 606 3200
L 1419 875
Q 1509 619 1531 428
L 1544 428
Q 1575 669 1644 863
L 2494 3200
L 3034 3200
z
" transform="scale(0.015625)"/>
     <path id="SegoeUI-6d" d="M 5063 0
L 4550 0
L 4550 1838
Q 4550 2369 4386 2606
Q 4222 2844 3834 2844
Q 3506 2844 3276 2544
Q 3047 2244 3047 1825
L 3047 0
L 2534 0
L 2534 1900
Q 2534 2844 1806 2844
Q 1469 2844 1250 2561
Q 1031 2278 1031 1825
L 1031 0
L 519 0
L 519 3200
L 1031 3200
L 1031 2694
L 1044 2694
Q 1384 3275 2038 3275
Q 2366 3275 2609 3092
Q 2853 2909 2944 2613
Q 3300 3275 4006 3275
Q 5063 3275 5063 1972
L 5063 0
z
" transform="scale(0.015625)"/>
     <path id="SegoeUI-69" d="M 781 4013
Q 644 4013 547 4106
Q 450 4200 450 4344
Q 450 4488 547 4583
Q 644 4678 781 4678
Q 922 4678 1020 4583
Q 1119 4488 1119 4344
Q 1119 4206 1020 4109
Q 922 4013 781 4013
z
M 1031 0
L 519 0
L 519 3200
L 1031 3200
L 1031 0
z
" transform="scale(0.015625)"/>
     <path id="SegoeUI-63" d="M 2700 147
Q 2331 -75 1825 -75
Q 1141 -75 720 370
Q 300 816 300 1525
Q 300 2316 753 2795
Q 1206 3275 1963 3275
Q 2384 3275 2706 3119
L 2706 2594
Q 2350 2844 1944 2844
Q 1453 2844 1139 2492
Q 825 2141 825 1569
Q 825 1006 1120 681
Q 1416 356 1913 356
Q 2331 356 2700 634
L 2700 147
z
" transform="scale(0.015625)"/>
     <path id="SegoeUI-70" d="M 1044 463
L 1031 463
L 1031 -1472
L 519 -1472
L 519 3200
L 1031 3200
L 1031 2638
L 1044 2638
Q 1422 3275 2150 3275
Q 2769 3275 3116 2845
Q 3463 2416 3463 1694
Q 3463 891 3072 408
Q 2681 -75 2003 -75
Q 1381 -75 1044 463
z
M 1031 1753
L 1031 1306
Q 1031 909 1289 632
Q 1547 356 1944 356
Q 2409 356 2673 712
Q 2938 1069 2938 1703
Q 2938 2238 2691 2541
Q 2444 2844 2022 2844
Q 1575 2844 1303 2533
Q 1031 2222 1031 1753
z
" transform="scale(0.015625)"/>
     <path id="SegoeUI-67" d="M 3250 256
Q 3250 -1506 1563 -1506
Q 969 -1506 525 -1281
L 525 -769
Q 1066 -1069 1556 -1069
Q 2738 -1069 2738 188
L 2738 538
L 2725 538
Q 2359 -75 1625 -75
Q 1028 -75 664 351
Q 300 778 300 1497
Q 300 2313 692 2794
Q 1084 3275 1766 3275
Q 2413 3275 2725 2756
L 2738 2756
L 2738 3200
L 3250 3200
L 3250 256
z
M 2738 1447
L 2738 1919
Q 2738 2300 2480 2572
Q 2222 2844 1838 2844
Q 1363 2844 1094 2498
Q 825 2153 825 1531
Q 825 997 1083 676
Q 1341 356 1766 356
Q 2197 356 2467 662
Q 2738 969 2738 1447
z
" transform="scale(0.015625)"/>
    </defs>
    <use xlink:href="#SegoeUI-50"/>
    <use xlink:href="#SegoeUI-6f" transform="translate(52.255859 0)"/>
    <use xlink:href="#SegoeUI-73" transform="translate(110.849609 0)"/>
    <use xlink:href="#SegoeUI-74" transform="translate(153.28125 0)"/>
    <use xlink:href="#SegoeUI-2d" transform="translate(181.667969 0)"/>
    <use xlink:href="#SegoeUI-65" transform="translate(221.658203 0)"/>
    <use xlink:href="#SegoeUI-76" transform="translate(273.953125 0)"/>
    <use xlink:href="#SegoeUI-65" transform="translate(321.228516 0)"/>
    <use xlink:href="#SegoeUI-6e" transform="translate(373.523438 0)"/>
    <use xlink:href="#SegoeUI-74" transform="translate(430.115234 0)"/>
    <use xlink:href="#SegoeUI-20" transform="translate(464.001953 0)"/>
    <use xlink:href="#SegoeUI-72" transform="translate(491.394531 0)"/>
    <use xlink:href="#SegoeUI-65" transform="translate(524.785156 0)"/>
    <use xlink:href="#SegoeUI-74" transform="translate(577.080078 0)"/>
    <use xlink:href="#SegoeUI-75" transform="translate(610.966797 0)"/>
    <use xlink:href="#SegoeUI-72" transform="translate(667.558594 0)"/>
    <use xlink:href="#SegoeUI-6e" transform="translate(702.074219 0)"/>
    <use xlink:href="#SegoeUI-73" transform="translate(758.666016 0)"/>
    <use xlink:href="#SegoeUI-20" transform="translate(801.097656 0)"/>
    <use xlink:href="#SegoeUI-72" transform="translate(828.490234 0)"/>
    <use xlink:href="#SegoeUI-65" transform="translate(861.880859 0)"/>
    <use xlink:href="#SegoeUI-6d" transform="translate(914.175781 0)"/>
    <use xlink:href="#SegoeUI-61" transform="translate(1000.308594 0)"/>
    <use xlink:href="#SegoeUI-69" transform="translate(1051.1875 0)"/>
    <use xlink:href="#SegoeUI-6e" transform="translate(1075.40625 0)"/>
    <use xlink:href="#SegoeUI-20" transform="translate(1131.998047 0)"/>
    <use xlink:href="#SegoeUI-64" transform="translate(1159.390625 0)"/>
    <use xlink:href="#SegoeUI-65" transform="translate(1218.277344 0)"/>
    <use xlink:href="#SegoeUI-73" transform="translate(1270.572266 0)"/>
    <use xlink:href="#SegoeUI-63" transform="translate(1313.003906 0)"/>
    <use xlink:href="#SegoeUI-72" transform="translate(1359.195312 0)"/>
    <use xlink:href="#SegoeUI-69" transform="translate(1393.960938 0)"/>
    <use xlink:href="#SegoeUI-70" transform="translate(1418.179688 0)"/>
    <use xlink:href="#SegoeUI-74" transform="translate(1476.96875 0)"/>
    <use xlink:href="#SegoeUI-69" transform="translate(1510.855469 0)"/>
    <use xlink:href="#SegoeUI-76" transform="translate(1535.074219 0)"/>
    <use xlink:href="#SegoeUI-65" transform="translate(1582.349609 0)"/>
    <use xlink:href="#SegoeUI-20" transform="translate(1634.644531 0)"/>
    <use xlink:href="#SegoeUI-61" transform="translate(1662.037109 0)"/>
    <use xlink:href="#SegoeUI-6e" transform="translate(1712.916016 0)"/>
    <use xlink:href="#SegoeUI-64" transform="translate(1769.507812 0)"/>
    <use xlink:href="#SegoeUI-20" transform="translate(1828.394531 0)"/>
    <use xlink:href="#SegoeUI-74" transform="translate(1855.787109 0)"/>
    <use xlink:href="#SegoeUI-69" transform="translate(1889.673828 0)"/>
    <use xlink:href="#SegoeUI-6d" transform="translate(1913.892578 0)"/>
    <use xlink:href="#SegoeUI-69" transform="translate(2000.025391 0)"/>
    <use xlink:href="#SegoeUI-6e" transform="translate(2024.244141 0)"/>
    <use xlink:href="#SegoeUI-67" transform="translate(2080.835938 0)"/>
    <use xlink:href="#SegoeUI-2d" transform="translate(2139.722656 0)"/>
    <use xlink:href="#SegoeUI-73" transform="translate(2179.712891 0)"/>
    <use xlink:href="#SegoeUI-65" transform="translate(2222.144531 0)"/>
    <use xlink:href="#SegoeUI-6e" transform="translate(2274.439453 0)"/>
    <use xlink:href="#SegoeUI-73" transform="translate(2331.03125 0)"/>
    <use xlink:href="#SegoeUI-69" transform="translate(2373.462891 0)"/>
    <use xlink:href="#SegoeUI-74" transform="translate(2397.681641 0)"/>
    <use xlink:href="#SegoeUI-69" transform="translate(2431.568359 0)"/>
    <use xlink:href="#SegoeUI-76" transform="translate(2455.787109 0)"/>
    <use xlink:href="#SegoeUI-65" transform="translate(2503.0625 0)"/>
    <use xlink:href="#SegoeUI-2e" transform="translate(2555.357422 0)"/>
   </g>
  </g>
 </g>
 <defs>
  <clipPath id="paa1a599979">
   <rect x="51.58875" y="92.25" width="743.04" height="291.6"/>
  </clipPath>
 </defs>
</svg>
