<?xml version="1.0" encoding="utf-8" standalone="no"?>
<!DOCTYPE svg PUBLIC "-//W3C//DTD SVG 1.1//EN"
  "http://www.w3.org/Graphics/SVG/1.1/DTD/svg11.dtd">
<svg xmlns:xlink="http://www.w3.org/1999/xlink" width="961.941875pt" height="395.44375pt" viewBox="0 0 961.941875 395.44375" xmlns="http://www.w3.org/2000/svg" version="1.1">
 <metadata>
  <rdf:RDF xmlns:dc="http://purl.org/dc/elements/1.1/" xmlns:cc="http://creativecommons.org/ns#" xmlns:rdf="http://www.w3.org/1999/02/22-rdf-syntax-ns#">
   <cc:Work>
    <dc:type rdf:resource="http://purl.org/dc/dcmitype/StillImage"/>
    <dc:format>image/svg+xml</dc:format>
    <dc:creator>
     <cc:Agent>
      <dc:title>Matplotlib v3.10.8, https://matplotlib.org/</dc:title>
     </cc:Agent>
    </dc:creator>
   </cc:Work>
  </rdf:RDF>
 </metadata>
 <defs>
  <style type="text/css">*{stroke-linejoin: round; stroke-linecap: butt}</style>
 </defs>
 <g id="figure_1">
  <g id="patch_1">
   <path d="M 0 395.44375
L 961.941875 395.44375
L 961.941875 0
L 0 0
z
" style="fill: #ffffff"/>
  </g>
  <g id="axes_1">
   <g id="patch_2">
    <path d="M 47.541875 359.28
L 438.576358 359.28
L 438.576358 91.44
L 47.541875 91.44
z
" style="fill: #ffffff"/>
   </g>
   <g id="matplotlib.axis_1">
    <g id="xtick_1">
     <g id="text_1">
      <!-- Q1 low -->
      <g style="fill: #6f768a" transform="translate(79.351713 370.183125) scale(0.1 -0.1)">
       <defs>
        <path id="SegoeUI-51" d="M 2394 -75
Q 1444 -75 866 553
Q 294 1181 294 2188
Q 294 3272 878 3913
Q 1466 4556 2469 4556
Q 3394 4556 3963 3931
Q 4531 3306 4531 2297
Q 4531 1200 3950 563
Q 3813 409 3656 300
L 4916 -603
L 3963 -603
L 3119 28
Q 2788 -75 2394 -75
z
M 2431 4081
Q 1725 4081 1284 3572
Q 844 3063 844 2234
Q 844 1409 1272 900
Q 1703 397 2394 397
Q 3131 397 3556 878
Q 3981 1359 3981 2225
Q 3981 3116 3569 3597
Q 3156 4081 2431 4081
z
" transform="scale(0.015625)"/>
        <path id="SegoeUI-31" d="M 2263 0
L 1750 0
L 1750 3872
Q 1691 3813 1577 3736
Q 1463 3659 1320 3584
Q 1178 3509 1020 3443
Q 863 3378 713 3341
L 713 3859
Q 881 3906 1070 3986
Q 1259 4066 1442 4164
Q 1625 4263 1787 4370
Q 1950 4478 2069 4581
L 2263 4581
L 2263 0
z
" transform="scale(0.015625)"/>
        <path id="SegoeUI-20" transform="scale(0.015625)"/>
        <path id="SegoeUI-6c" d="M 1031 0
L 519 0
L 519 4738
L 1031 4738
L 1031 0
z
" transform="scale(0.015625)"/>
        <path id="SegoeUI-6f" d="M 1856 -75
Q 1147 -75 723 373
Q 300 822 300 1563
Q 300 2369 740 2822
Q 1181 3275 1931 3275
Q 2647 3275 3048 2834
Q 3450 2394 3450 1613
Q 3450 847 3017 386
Q 2584 -75 1856 -75
z
M 1894 2844
Q 1400 2844 1112 2508
Q 825 2172 825 1581
Q 825 1013 1115 684
Q 1406 356 1894 356
Q 2391 356 2658 678
Q 2925 1000 2925 1594
Q 2925 2194 2658 2519
Q 2391 2844 1894 2844
z
" transform="scale(0.015625)"/>
        <path id="SegoeUI-77" d="M 4550 3200
L 3591 0
L 3059 0
L 2400 2291
Q 2363 2422 2350 2588
L 2338 2588
Q 2328 2475 2272 2297
L 1556 0
L 1044 0
L 75 3200
L 613 3200
L 1275 794
Q 1306 684 1319 506
L 1344 506
Q 1353 644 1400 800
L 2138 3200
L 2606 3200
L 3269 788
Q 3300 672 3316 500
L 3341 500
Q 3347 622 3394 788
L 4044 3200
L 4550 3200
z
" transform="scale(0.015625)"/>
       </defs>
       <use xlink:href="#SegoeUI-51"/>
       <use xlink:href="#SegoeUI-31" transform="translate(75.390625 0)"/>
       <use xlink:href="#SegoeUI-20" transform="translate(129.296875 0)"/>
       <use xlink:href="#SegoeUI-6c" transform="translate(156.689453 0)"/>
       <use xlink:href="#SegoeUI-6f" transform="translate(180.908203 0)"/>
       <use xlink:href="#SegoeUI-77" transform="translate(239.501953 0)"/>
      </g>
     </g>
    </g>
    <g id="xtick_2">
     <g id="text_2">
      <!-- Q2 -->
      <g style="fill: #6f768a" transform="translate(162.534712 370.183125) scale(0.1 -0.1)">
       <defs>
        <path id="SegoeUI-32" d="M 2413 3306
Q 2413 3513 2348 3666
Q 2284 3819 2173 3920
Q 2063 4022 1913 4072
Q 1763 4122 1588 4122
Q 1438 4122 1294 4081
Q 1150 4041 1014 3969
Q 878 3897 751 3797
Q 625 3697 516 3575
L 516 4125
Q 731 4334 998 4445
Q 1266 4556 1650 4556
Q 1925 4556 2159 4476
Q 2394 4397 2566 4244
Q 2738 4091 2836 3866
Q 2934 3641 2934 3350
Q 2934 3084 2873 2868
Q 2813 2653 2689 2462
Q 2566 2272 2378 2097
Q 2191 1922 1938 1741
Q 1622 1516 1417 1356
Q 1213 1197 1092 1058
Q 972 919 923 780
Q 875 641 875 459
L 3106 459
L 3106 0
L 341 0
L 341 222
Q 341 509 403 728
Q 466 947 609 1144
Q 753 1341 986 1537
Q 1219 1734 1556 1981
Q 1800 2156 1964 2315
Q 2128 2475 2228 2634
Q 2328 2794 2370 2958
Q 2413 3122 2413 3306
z
" transform="scale(0.015625)"/>
       </defs>
       <use xlink:href="#SegoeUI-51"/>
       <use xlink:href="#SegoeUI-32" transform="translate(75.390625 0)"/>
      </g>
     </g>
    </g>
    <g id="xtick_3">
     <g id="text_3">
      <!-- Q3 -->
      <g style="fill: #6f768a" transform="translate(236.594273 370.183125) scale(0.1 -0.1)">
       <defs>
        <path id="SegoeUI-33" d="M 2978 1269
Q 2978 966 2864 717
Q 2750 469 2542 292
Q 2334 116 2043 19
Q 1753 -78 1403 -78
Q 763 -78 384 166
L 384 716
Q 838 359 1422 359
Q 1656 359 1845 418
Q 2034 478 2170 590
Q 2306 703 2379 862
Q 2453 1022 2453 1222
Q 2453 2100 1203 2100
L 831 2100
L 831 2534
L 1184 2534
Q 2291 2534 2291 3359
Q 2291 4122 1447 4122
Q 972 4122 556 3803
L 556 4300
Q 984 4556 1575 4556
Q 1856 4556 2084 4478
Q 2313 4400 2475 4259
Q 2638 4119 2727 3922
Q 2816 3725 2816 3488
Q 2816 2603 1922 2350
L 1922 2338
Q 2150 2313 2344 2227
Q 2538 2141 2678 2003
Q 2819 1866 2898 1680
Q 2978 1494 2978 1269
z
" transform="scale(0.015625)"/>
       </defs>
       <use xlink:href="#SegoeUI-51"/>
       <use xlink:href="#SegoeUI-33" transform="translate(75.390625 0)"/>
      </g>
     </g>
    </g>
    <g id="xtick_4">
     <g id="text_4">
      <!-- Q4 -->
      <g style="fill: #6f768a" transform="translate(310.653834 370.183125) scale(0.1 -0.1)">
       <defs>
        <path id="SegoeUI-34" d="M 2656 4481
L 2656 1522
L 3231 1522
L 3231 1053
L 2656 1053
L 2656 0
L 2150 0
L 2150 1053
L 44 1053
L 44 1497
Q 338 1828 638 2204
Q 938 2581 1211 2968
Q 1484 3356 1717 3742
Q 1950 4128 2109 4481
L 2656 4481
z
M 622 1522
L 2150 1522
L 2150 3716
Q 1916 3306 1706 2984
Q 1497 2663 1308 2400
Q 1119 2138 947 1925
Q 775 1713 622 1522
z
" transform="scale(0.015625)"/>
       </defs>
       <use xlink:href="#SegoeUI-51"/>
       <use xlink:href="#SegoeUI-34" transform="translate(75.390625 0)"/>
      </g>
     </g>
    </g>
    <g id="xtick_5">
     <g id="text_5">
      <!-- Q5 high -->
      <g style="fill: #6f768a" transform="translate(373.52902 370.183125) scale(0.1 -0.1)">
       <defs>
        <path id="SegoeUI-35" d="M 3028 1369
Q 3028 1041 2915 775
Q 2803 509 2595 318
Q 2388 128 2094 25
Q 1800 -78 1441 -78
Q 816 -78 513 109
L 513 653
Q 969 359 1447 359
Q 1691 359 1886 431
Q 2081 503 2218 631
Q 2356 759 2429 940
Q 2503 1122 2503 1338
Q 2503 1775 2209 2023
Q 1916 2272 1356 2272
Q 1266 2272 1166 2269
Q 1066 2266 966 2261
Q 866 2256 770 2250
Q 675 2244 597 2234
L 750 4481
L 2822 4481
L 2822 4019
L 1194 4019
L 1103 2703
Q 1203 2709 1315 2714
Q 1428 2719 1516 2719
Q 1872 2719 2153 2625
Q 2434 2531 2629 2357
Q 2825 2184 2926 1932
Q 3028 1681 3028 1369
z
" transform="scale(0.015625)"/>
        <path id="SegoeUI-68" d="M 3175 0
L 2663 0
L 2663 1844
Q 2663 2844 1919 2844
Q 1544 2844 1287 2555
Q 1031 2266 1031 1813
L 1031 0
L 519 0
L 519 4738
L 1031 4738
L 1031 2669
L 1044 2669
Q 1413 3275 2094 3275
Q 3175 3275 3175 1972
L 3175 0
z
" transform="scale(0.015625)"/>
        <path id="SegoeUI-69" d="M 781 4013
Q 644 4013 547 4106
Q 450 4200 450 4344
Q 450 4488 547 4583
Q 644 4678 781 4678
Q 922 4678 1020 4583
Q 1119 4488 1119 4344
Q 1119 4206 1020 4109
Q 922 4013 781 4013
z
M 1031 0
L 519 0
L 519 3200
L 1031 3200
L 1031 0
z
" transform="scale(0.015625)"/>
        <path id="SegoeUI-67" d="M 3250 256
Q 3250 -1506 1563 -1506
Q 969 -1506 525 -1281
L 525 -769
Q 1066 -1069 1556 -1069
Q 2738 -1069 2738 188
L 2738 538
L 2725 538
Q 2359 -75 1625 -75
Q 1028 -75 664 351
Q 300 778 300 1497
Q 300 2313 692 2794
Q 1084 3275 1766 3275
Q 2413 3275 2725 2756
L 2738 2756
L 2738 3200
L 3250 3200
L 3250 256
z
M 2738 1447
L 2738 1919
Q 2738 2300 2480 2572
Q 2222 2844 1838 2844
Q 1363 2844 1094 2498
Q 825 2153 825 1531
Q 825 997 1083 676
Q 1341 356 1766 356
Q 2197 356 2467 662
Q 2738 969 2738 1447
z
" transform="scale(0.015625)"/>
       </defs>
       <use xlink:href="#SegoeUI-51"/>
       <use xlink:href="#SegoeUI-35" transform="translate(75.390625 0)"/>
       <use xlink:href="#SegoeUI-20" transform="translate(129.296875 0)"/>
       <use xlink:href="#SegoeUI-68" transform="translate(156.689453 0)"/>
       <use xlink:href="#SegoeUI-69" transform="translate(213.28125 0)"/>
       <use xlink:href="#SegoeUI-67" transform="translate(237.5 0)"/>
       <use xlink:href="#SegoeUI-68" transform="translate(296.386719 0)"/>
      </g>
     </g>
    </g>
    <g id="text_6">
     <!-- Lagged leverage-state quintile -->
     <g style="fill: #1f2430" transform="translate(162.768804 385.42) scale(0.12 -0.12)">
      <defs>
       <path id="SegoeUI-4c" d="M 2913 0
L 588 0
L 588 4481
L 1113 4481
L 1113 475
L 2913 475
L 2913 0
z
" transform="scale(0.015625)"/>
       <path id="SegoeUI-61" d="M 2809 0
L 2297 0
L 2297 500
L 2284 500
Q 1950 -75 1300 -75
Q 822 -75 551 178
Q 281 431 281 850
Q 281 1747 1338 1894
L 2297 2028
Q 2297 2844 1638 2844
Q 1059 2844 594 2450
L 594 2975
Q 1066 3275 1681 3275
Q 2809 3275 2809 2081
L 2809 0
z
M 2297 1619
L 1525 1513
Q 1169 1463 987 1336
Q 806 1209 806 888
Q 806 653 973 504
Q 1141 356 1419 356
Q 1800 356 2048 623
Q 2297 891 2297 1300
L 2297 1619
z
" transform="scale(0.015625)"/>
       <path id="SegoeUI-65" d="M 3091 1472
L 831 1472
Q 844 938 1119 647
Q 1394 356 1875 356
Q 2416 356 2869 713
L 2869 231
Q 2447 -75 1753 -75
Q 1075 -75 687 361
Q 300 797 300 1588
Q 300 2334 723 2804
Q 1147 3275 1775 3275
Q 2403 3275 2747 2869
Q 3091 2463 3091 1741
L 3091 1472
z
M 2566 1906
Q 2563 2350 2352 2597
Q 2141 2844 1766 2844
Q 1403 2844 1150 2584
Q 897 2325 838 1906
L 2566 1906
z
" transform="scale(0.015625)"/>
       <path id="SegoeUI-64" d="M 3250 0
L 2738 0
L 2738 544
L 2725 544
Q 2369 -75 1625 -75
Q 1022 -75 661 354
Q 300 784 300 1525
Q 300 2319 700 2797
Q 1100 3275 1766 3275
Q 2425 3275 2725 2756
L 2738 2756
L 2738 4738
L 3250 4738
L 3250 0
z
M 2738 1447
L 2738 1919
Q 2738 2306 2481 2575
Q 2225 2844 1831 2844
Q 1363 2844 1094 2500
Q 825 2156 825 1550
Q 825 997 1083 676
Q 1341 356 1775 356
Q 2203 356 2470 665
Q 2738 975 2738 1447
z
" transform="scale(0.015625)"/>
       <path id="SegoeUI-76" d="M 3034 3200
L 1759 0
L 1256 0
L 44 3200
L 606 3200
L 1419 875
Q 1509 619 1531 428
L 1544 428
Q 1575 669 1644 863
L 2494 3200
L 3034 3200
z
" transform="scale(0.015625)"/>
       <path id="SegoeUI-72" d="M 2188 2681
Q 2053 2784 1800 2784
Q 1472 2784 1251 2475
Q 1031 2166 1031 1631
L 1031 0
L 519 0
L 519 3200
L 1031 3200
L 1031 2541
L 1044 2541
Q 1153 2878 1378 3067
Q 1603 3256 1881 3256
Q 2081 3256 2188 3213
L 2188 2681
z
" transform="scale(0.015625)"/>
       <path id="SegoeUI-2d" d="M 2156 1581
L 450 1581
L 450 1984
L 2156 1984
L 2156 1581
z
" transform="scale(0.015625)"/>
       <path id="SegoeUI-73" d="M 325 116
L 325 666
Q 744 356 1247 356
Q 1922 356 1922 806
Q 1922 934 1864 1023
Q 1806 1113 1707 1181
Q 1609 1250 1476 1304
Q 1344 1359 1191 1419
Q 978 1503 817 1589
Q 656 1675 548 1783
Q 441 1891 386 2028
Q 331 2166 331 2350
Q 331 2575 434 2748
Q 538 2922 709 3039
Q 881 3156 1101 3215
Q 1322 3275 1556 3275
Q 1972 3275 2300 3131
L 2300 2613
Q 1947 2844 1488 2844
Q 1344 2844 1228 2811
Q 1113 2778 1030 2718
Q 947 2659 901 2576
Q 856 2494 856 2394
Q 856 2269 901 2184
Q 947 2100 1034 2034
Q 1122 1969 1247 1916
Q 1372 1863 1531 1800
Q 1744 1719 1912 1633
Q 2081 1547 2200 1439
Q 2319 1331 2383 1190
Q 2447 1050 2447 856
Q 2447 619 2342 444
Q 2238 269 2063 153
Q 1888 38 1659 -18
Q 1431 -75 1181 -75
Q 688 -75 325 116
z
" transform="scale(0.015625)"/>
       <path id="SegoeUI-74" d="M 2003 31
Q 1822 -69 1525 -69
Q 684 -69 684 869
L 684 2763
L 134 2763
L 134 3200
L 684 3200
L 684 3981
L 1197 4147
L 1197 3200
L 2003 3200
L 2003 2763
L 1197 2763
L 1197 959
Q 1197 638 1306 500
Q 1416 363 1669 363
Q 1863 363 2003 469
L 2003 31
z
" transform="scale(0.015625)"/>
       <path id="SegoeUI-71" d="M 3250 -1472
L 2738 -1472
L 2738 550
L 2725 550
Q 2391 -75 1631 -75
Q 1028 -75 664 354
Q 300 784 300 1525
Q 300 2322 700 2798
Q 1100 3275 1775 3275
Q 2431 3275 2725 2756
L 2738 2756
L 2738 3200
L 3250 3200
L 3250 -1472
z
M 2738 1441
L 2738 1906
Q 2738 2300 2480 2572
Q 2222 2844 1825 2844
Q 1363 2844 1094 2501
Q 825 2159 825 1538
Q 825 984 1084 670
Q 1344 356 1753 356
Q 2203 356 2470 664
Q 2738 972 2738 1441
z
" transform="scale(0.015625)"/>
       <path id="SegoeUI-75" d="M 3106 0
L 2594 0
L 2594 506
L 2581 506
Q 2263 -75 1594 -75
Q 450 -75 450 1288
L 450 3200
L 959 3200
L 959 1369
Q 959 356 1734 356
Q 2109 356 2351 632
Q 2594 909 2594 1356
L 2594 3200
L 3106 3200
L 3106 0
z
" transform="scale(0.015625)"/>
       <path id="SegoeUI-6e" d="M 3175 0
L 2663 0
L 2663 1825
Q 2663 2844 1919 2844
Q 1534 2844 1282 2555
Q 1031 2266 1031 1825
L 1031 0
L 519 0
L 519 3200
L 1031 3200
L 1031 2669
L 1044 2669
Q 1406 3275 2094 3275
Q 2619 3275 2897 2936
Q 3175 2597 3175 1956
L 3175 0
z
" transform="scale(0.015625)"/>
      </defs>
      <use xlink:href="#SegoeUI-4c"/>
      <use xlink:href="#SegoeUI-61" transform="translate(47.070312 0)"/>
      <use xlink:href="#SegoeUI-67" transform="translate(97.949219 0)"/>
      <use xlink:href="#SegoeUI-67" transform="translate(156.835938 0)"/>
      <use xlink:href="#SegoeUI-65" transform="translate(215.722656 0)"/>
      <use xlink:href="#SegoeUI-64" transform="translate(268.017578 0)"/>
      <use xlink:href="#SegoeUI-20" transform="translate(326.904297 0)"/>
      <use xlink:href="#SegoeUI-6c" transform="translate(354.296875 0)"/>
      <use xlink:href="#SegoeUI-65" transform="translate(378.515625 0)"/>
      <use xlink:href="#SegoeUI-76" transform="translate(430.810547 0)"/>
      <use xlink:href="#SegoeUI-65" transform="translate(478.085938 0)"/>
      <use xlink:href="#SegoeUI-72" transform="translate(530.380859 0)"/>
      <use xlink:href="#SegoeUI-61" transform="translate(565.146484 0)"/>
      <use xlink:href="#SegoeUI-67" transform="translate(616.025391 0)"/>
      <use xlink:href="#SegoeUI-65" transform="translate(674.912109 0)"/>
      <use xlink:href="#SegoeUI-2d" transform="translate(727.207031 0)"/>
      <use xlink:href="#SegoeUI-73" transform="translate(767.197266 0)"/>
      <use xlink:href="#SegoeUI-74" transform="translate(809.628906 0)"/>
      <use xlink:href="#SegoeUI-61" transform="translate(843.515625 0)"/>
      <use xlink:href="#SegoeUI-74" transform="translate(894.394531 0)"/>
      <use xlink:href="#SegoeUI-65" transform="translate(927.53125 0)"/>
      <use xlink:href="#SegoeUI-20" transform="translate(979.826172 0)"/>
      <use xlink:href="#SegoeUI-71" transform="translate(1007.21875 0)"/>
      <use xlink:href="#SegoeUI-75" transform="translate(1066.105469 0)"/>
      <use xlink:href="#SegoeUI-69" transform="translate(1122.697266 0)"/>
      <use xlink:href="#SegoeUI-6e" transform="translate(1146.916016 0)"/>
      <use xlink:href="#SegoeUI-74" transform="translate(1203.507812 0)"/>
      <use xlink:href="#SegoeUI-69" transform="translate(1237.394531 0)"/>
      <use xlink:href="#SegoeUI-6c" transform="translate(1261.613281 0)"/>
      <use xlink:href="#SegoeUI-65" transform="translate(1285.832031 0)"/>
     </g>
    </g>
   </g>
   <g id="matplotlib.axis_2">
    <g id="ytick_1">
     <g id="line2d_1">
      <path d="M 47.541875 359.28
L 438.576358 359.28
" clip-path="url(#p3355238820)" style="fill: none; stroke: #e8ebf2; stroke-width: 0.8; stroke-linecap: round"/>
     </g>
     <g id="text_7">
      <!-- 0.0% -->
      <g style="fill: #6f768a" transform="translate(22.9075 362.981562) scale(0.1 -0.1)">
       <defs>
        <path id="SegoeUI-30" d="M 3188 2259
Q 3188 1697 3086 1262
Q 2984 828 2792 529
Q 2600 231 2320 76
Q 2041 -78 1684 -78
Q 1347 -78 1083 70
Q 819 219 637 503
Q 456 788 362 1202
Q 269 1616 269 2150
Q 269 2738 367 3188
Q 466 3638 656 3942
Q 847 4247 1130 4401
Q 1413 4556 1778 4556
Q 3188 4556 3188 2259
z
M 2663 2209
Q 2663 4122 1753 4122
Q 794 4122 794 2175
Q 794 359 1734 359
Q 2663 359 2663 2209
z
" transform="scale(0.015625)"/>
        <path id="SegoeUI-2e" d="M 697 -69
Q 553 -69 451 34
Q 350 138 350 281
Q 350 425 451 529
Q 553 634 697 634
Q 844 634 947 529
Q 1050 425 1050 281
Q 1050 138 947 34
Q 844 -69 697 -69
z
" transform="scale(0.015625)"/>
        <path id="SegoeUI-25" d="M 1263 2234
Q 800 2234 525 2539
Q 250 2844 250 3353
Q 250 3909 540 4229
Q 831 4550 1325 4550
Q 1803 4550 2067 4253
Q 2331 3956 2331 3419
Q 2331 2881 2036 2557
Q 1741 2234 1263 2234
z
M 1306 4206
Q 1009 4206 837 3986
Q 666 3766 666 3381
Q 666 3003 834 2792
Q 1003 2581 1294 2581
Q 1588 2581 1753 2800
Q 1919 3019 1919 3406
Q 1919 3784 1755 3995
Q 1591 4206 1306 4206
z
M 4263 4481
L 1388 -31
L 941 -31
L 3813 4481
L 4263 4481
z
M 3931 -69
Q 3469 -69 3194 237
Q 2919 544 2919 1050
Q 2919 1606 3212 1929
Q 3506 2253 3994 2253
Q 4469 2253 4734 1953
Q 5000 1653 5000 1113
Q 5000 578 4704 254
Q 4409 -69 3931 -69
z
M 3975 1900
Q 3675 1900 3504 1681
Q 3334 1463 3334 1075
Q 3334 703 3503 492
Q 3672 281 3963 281
Q 4256 281 4422 501
Q 4588 722 4588 1106
Q 4588 1488 4423 1694
Q 4259 1900 3975 1900
z
" transform="scale(0.015625)"/>
       </defs>
       <use xlink:href="#SegoeUI-30"/>
       <use xlink:href="#SegoeUI-2e" transform="translate(53.90625 0)"/>
       <use xlink:href="#SegoeUI-30" transform="translate(75.585938 0)"/>
       <use xlink:href="#SegoeUI-25" transform="translate(129.492188 0)"/>
      </g>
     </g>
    </g>
    <g id="ytick_2">
     <g id="line2d_2">
      <path d="M 47.541875 326.26462
L 438.576358 326.26462
" clip-path="url(#p3355238820)" style="fill: none; stroke: #e8ebf2; stroke-width: 0.8; stroke-linecap: round"/>
     </g>
     <g id="text_8">
      <!-- 1.0% -->
      <g style="fill: #6f768a" transform="translate(22.9075 329.966183) scale(0.1 -0.1)">
       <use xlink:href="#SegoeUI-31"/>
       <use xlink:href="#SegoeUI-2e" transform="translate(53.90625 0)"/>
       <use xlink:href="#SegoeUI-30" transform="translate(75.585938 0)"/>
       <use xlink:href="#SegoeUI-25" transform="translate(129.492188 0)"/>
      </g>
     </g>
    </g>
    <g id="ytick_3">
     <g id="line2d_3">
      <path d="M 47.541875 293.249241
L 438.576358 293.249241
" clip-path="url(#p3355238820)" style="fill: none; stroke: #e8ebf2; stroke-width: 0.8; stroke-linecap: round"/>
     </g>
     <g id="text_9">
      <!-- 2.0% -->
      <g style="fill: #6f768a" transform="translate(22.9075 296.950803) scale(0.1 -0.1)">
       <use xlink:href="#SegoeUI-32"/>
       <use xlink:href="#SegoeUI-2e" transform="translate(53.90625 0)"/>
       <use xlink:href="#SegoeUI-30" transform="translate(75.585938 0)"/>
       <use xlink:href="#SegoeUI-25" transform="translate(129.492188 0)"/>
      </g>
     </g>
    </g>
    <g id="ytick_4">
     <g id="line2d_4">
      <path d="M 47.541875 260.233861
L 438.576358 260.233861
" clip-path="url(#p3355238820)" style="fill: none; stroke: #e8ebf2; stroke-width: 0.8; stroke-linecap: round"/>
     </g>
     <g id="text_10">
      <!-- 3.0% -->
      <g style="fill: #6f768a" transform="translate(22.9075 263.935424) scale(0.1 -0.1)">
       <use xlink:href="#SegoeUI-33"/>
       <use xlink:href="#SegoeUI-2e" transform="translate(53.90625 0)"/>
       <use xlink:href="#SegoeUI-30" transform="translate(75.585938 0)"/>
       <use xlink:href="#SegoeUI-25" transform="translate(129.492188 0)"/>
      </g>
     </g>
    </g>
    <g id="ytick_5">
     <g id="line2d_5">
      <path d="M 47.541875 227.218482
L 438.576358 227.218482
" clip-path="url(#p3355238820)" style="fill: none; stroke: #e8ebf2; stroke-width: 0.8; stroke-linecap: round"/>
     </g>
     <g id="text_11">
      <!-- 4.0% -->
      <g style="fill: #6f768a" transform="translate(22.9075 230.920044) scale(0.1 -0.1)">
       <use xlink:href="#SegoeUI-34"/>
       <use xlink:href="#SegoeUI-2e" transform="translate(53.90625 0)"/>
       <use xlink:href="#SegoeUI-30" transform="translate(75.585938 0)"/>
       <use xlink:href="#SegoeUI-25" transform="translate(129.492188 0)"/>
      </g>
     </g>
    </g>
    <g id="ytick_6">
     <g id="line2d_6">
      <path d="M 47.541875 194.203102
L 438.576358 194.203102
" clip-path="url(#p3355238820)" style="fill: none; stroke: #e8ebf2; stroke-width: 0.8; stroke-linecap: round"/>
     </g>
     <g id="text_12">
      <!-- 5.0% -->
      <g style="fill: #6f768a" transform="translate(22.9075 197.904665) scale(0.1 -0.1)">
       <use xlink:href="#SegoeUI-35"/>
       <use xlink:href="#SegoeUI-2e" transform="translate(53.90625 0)"/>
       <use xlink:href="#SegoeUI-30" transform="translate(75.585938 0)"/>
       <use xlink:href="#SegoeUI-25" transform="translate(129.492188 0)"/>
      </g>
     </g>
    </g>
    <g id="ytick_7">
     <g id="line2d_7">
      <path d="M 47.541875 161.187722
L 438.576358 161.187722
" clip-path="url(#p3355238820)" style="fill: none; stroke: #e8ebf2; stroke-width: 0.8; stroke-linecap: round"/>
     </g>
     <g id="text_13">
      <!-- 6.0% -->
      <g style="fill: #6f768a" transform="translate(22.9075 164.889285) scale(0.1 -0.1)">
       <defs>
        <path id="SegoeUI-36" d="M 3194 1422
Q 3194 1094 3087 819
Q 2981 544 2793 344
Q 2606 144 2347 33
Q 2088 -78 1784 -78
Q 1447 -78 1180 62
Q 913 203 727 467
Q 541 731 444 1112
Q 347 1494 347 1972
Q 347 2556 476 3032
Q 606 3509 845 3848
Q 1084 4188 1421 4372
Q 1759 4556 2175 4556
Q 2638 4556 2919 4428
L 2919 3944
Q 2572 4122 2188 4122
Q 1888 4122 1647 3987
Q 1406 3853 1234 3608
Q 1063 3363 970 3016
Q 878 2669 878 2244
L 891 2244
Q 1200 2803 1913 2803
Q 2206 2803 2442 2703
Q 2678 2603 2845 2420
Q 3013 2238 3103 1984
Q 3194 1731 3194 1422
z
M 2669 1356
Q 2669 1591 2609 1778
Q 2550 1966 2439 2097
Q 2328 2228 2165 2298
Q 2003 2369 1797 2369
Q 1606 2369 1443 2297
Q 1281 2225 1162 2101
Q 1044 1978 976 1814
Q 909 1650 909 1466
Q 909 1234 975 1032
Q 1041 831 1159 681
Q 1278 531 1442 445
Q 1606 359 1806 359
Q 2000 359 2159 432
Q 2319 506 2431 637
Q 2544 769 2606 951
Q 2669 1134 2669 1356
z
" transform="scale(0.015625)"/>
       </defs>
       <use xlink:href="#SegoeUI-36"/>
       <use xlink:href="#SegoeUI-2e" transform="translate(53.90625 0)"/>
       <use xlink:href="#SegoeUI-30" transform="translate(75.585938 0)"/>
       <use xlink:href="#SegoeUI-25" transform="translate(129.492188 0)"/>
      </g>
     </g>
    </g>
    <g id="ytick_8">
     <g id="line2d_8">
      <path d="M 47.541875 128.172343
L 438.576358 128.172343
" clip-path="url(#p3355238820)" style="fill: none; stroke: #e8ebf2; stroke-width: 0.8; stroke-linecap: round"/>
     </g>
     <g id="text_14">
      <!-- 7.0% -->
      <g style="fill: #6f768a" transform="translate(22.9075 131.873905) scale(0.1 -0.1)">
       <defs>
        <path id="SegoeUI-37" d="M 3156 4184
Q 3053 4006 2908 3740
Q 2763 3475 2600 3144
Q 2438 2813 2269 2431
Q 2100 2050 1953 1644
Q 1806 1238 1695 820
Q 1584 403 1534 0
L 984 0
Q 1041 400 1158 817
Q 1275 1234 1423 1636
Q 1572 2038 1737 2409
Q 1903 2781 2059 3093
Q 2216 3406 2345 3645
Q 2475 3884 2553 4019
L 306 4019
L 306 4481
L 3156 4481
L 3156 4184
z
" transform="scale(0.015625)"/>
       </defs>
       <use xlink:href="#SegoeUI-37"/>
       <use xlink:href="#SegoeUI-2e" transform="translate(53.90625 0)"/>
       <use xlink:href="#SegoeUI-30" transform="translate(75.585938 0)"/>
       <use xlink:href="#SegoeUI-25" transform="translate(129.492188 0)"/>
      </g>
     </g>
    </g>
    <g id="ytick_9">
     <g id="line2d_9">
      <path d="M 47.541875 95.156963
L 438.576358 95.156963
" clip-path="url(#p3355238820)" style="fill: none; stroke: #e8ebf2; stroke-width: 0.8; stroke-linecap: round"/>
     </g>
     <g id="text_15">
      <!-- 8.0% -->
      <g style="fill: #6f768a" transform="translate(22.9075 98.858526) scale(0.1 -0.1)">
       <defs>
        <path id="SegoeUI-38" d="M 281 1250
Q 281 1428 337 1608
Q 394 1788 498 1944
Q 603 2100 758 2228
Q 913 2356 1109 2431
Q 819 2594 647 2848
Q 475 3103 475 3413
Q 475 3659 570 3868
Q 666 4078 834 4231
Q 1003 4384 1234 4470
Q 1466 4556 1734 4556
Q 2006 4556 2237 4468
Q 2469 4381 2637 4228
Q 2806 4075 2900 3865
Q 2994 3656 2994 3413
Q 2994 3103 2822 2848
Q 2650 2594 2366 2431
Q 2559 2356 2712 2228
Q 2866 2100 2970 1944
Q 3075 1788 3131 1608
Q 3188 1428 3188 1250
Q 3188 956 3081 712
Q 2975 469 2783 295
Q 2591 122 2323 25
Q 2056 -72 1734 -72
Q 1416 -72 1150 25
Q 884 122 690 295
Q 497 469 389 712
Q 281 956 281 1250
z
M 838 1294
Q 838 1084 902 915
Q 966 747 1083 628
Q 1200 509 1367 445
Q 1534 381 1738 381
Q 1934 381 2100 447
Q 2266 513 2386 631
Q 2506 750 2573 919
Q 2641 1088 2641 1294
Q 2641 1481 2577 1645
Q 2513 1809 2394 1934
Q 2275 2059 2109 2131
Q 1944 2203 1738 2203
Q 1544 2203 1380 2136
Q 1216 2069 1095 1948
Q 975 1828 906 1661
Q 838 1494 838 1294
z
M 997 3372
Q 997 3213 1055 3077
Q 1113 2941 1214 2839
Q 1316 2738 1450 2680
Q 1584 2622 1738 2622
Q 1891 2622 2027 2681
Q 2163 2741 2263 2842
Q 2363 2944 2422 3080
Q 2481 3216 2481 3372
Q 2481 3534 2423 3671
Q 2366 3809 2266 3909
Q 2166 4009 2030 4067
Q 1894 4125 1738 4125
Q 1572 4125 1436 4065
Q 1300 4006 1201 3904
Q 1103 3803 1050 3665
Q 997 3528 997 3372
z
" transform="scale(0.015625)"/>
       </defs>
       <use xlink:href="#SegoeUI-38"/>
       <use xlink:href="#SegoeUI-2e" transform="translate(53.90625 0)"/>
       <use xlink:href="#SegoeUI-30" transform="translate(75.585938 0)"/>
       <use xlink:href="#SegoeUI-25" transform="translate(129.492188 0)"/>
      </g>
     </g>
    </g>
    <g id="text_16">
     <!-- Bottom-5% BTC return day rate -->
     <g style="fill: #1f2430" transform="translate(16.08375 307.688437) rotate(-90) scale(0.12 -0.12)">
      <defs>
       <path id="SegoeUI-42" d="M 588 0
L 588 4481
L 1863 4481
Q 2444 4481 2784 4197
Q 3125 3913 3125 3456
Q 3125 3075 2919 2794
Q 2713 2513 2350 2394
L 2350 2381
Q 2803 2328 3075 2039
Q 3347 1750 3347 1288
Q 3347 713 2934 356
Q 2522 0 1894 0
L 588 0
z
M 1113 4006
L 1113 2559
L 1650 2559
Q 2081 2559 2328 2767
Q 2575 2975 2575 3353
Q 2575 4006 1716 4006
L 1113 4006
z
M 1113 2088
L 1113 475
L 1825 475
Q 2288 475 2542 694
Q 2797 913 2797 1294
Q 2797 2088 1716 2088
L 1113 2088
z
" transform="scale(0.015625)"/>
       <path id="SegoeUI-6d" d="M 5063 0
L 4550 0
L 4550 1838
Q 4550 2369 4386 2606
Q 4222 2844 3834 2844
Q 3506 2844 3276 2544
Q 3047 2244 3047 1825
L 3047 0
L 2534 0
L 2534 1900
Q 2534 2844 1806 2844
Q 1469 2844 1250 2561
Q 1031 2278 1031 1825
L 1031 0
L 519 0
L 519 3200
L 1031 3200
L 1031 2694
L 1044 2694
Q 1384 3275 2038 3275
Q 2366 3275 2609 3092
Q 2853 2909 2944 2613
Q 3300 3275 4006 3275
Q 5063 3275 5063 1972
L 5063 0
z
" transform="scale(0.015625)"/>
       <path id="SegoeUI-54" d="M 3238 4006
L 1944 4006
L 1944 0
L 1419 0
L 1419 4006
L 128 4006
L 128 4481
L 3238 4481
L 3238 4006
z
" transform="scale(0.015625)"/>
       <path id="SegoeUI-43" d="M 3638 188
Q 3141 -75 2400 -75
Q 1444 -75 869 540
Q 294 1156 294 2156
Q 294 3231 941 3893
Q 1588 4556 2581 4556
Q 3219 4556 3638 4372
L 3638 3813
Q 3156 4081 2575 4081
Q 1803 4081 1323 3565
Q 844 3050 844 2188
Q 844 1369 1292 883
Q 1741 397 2469 397
Q 3144 397 3638 697
L 3638 188
z
" transform="scale(0.015625)"/>
       <path id="SegoeUI-79" d="M 3066 3200
L 1594 -513
Q 1200 -1506 488 -1506
Q 288 -1506 153 -1466
L 153 -1006
Q 319 -1063 456 -1063
Q 844 -1063 1038 -600
L 1294 6
L 44 3200
L 613 3200
L 1478 738
Q 1494 691 1544 494
L 1563 494
Q 1578 569 1625 731
L 2534 3200
L 3066 3200
z
" transform="scale(0.015625)"/>
      </defs>
      <use xlink:href="#SegoeUI-42"/>
      <use xlink:href="#SegoeUI-6f" transform="translate(57.324219 0)"/>
      <use xlink:href="#SegoeUI-74" transform="translate(115.917969 0)"/>
      <use xlink:href="#SegoeUI-74" transform="translate(149.804688 0)"/>
      <use xlink:href="#SegoeUI-6f" transform="translate(182.941406 0)"/>
      <use xlink:href="#SegoeUI-6d" transform="translate(241.535156 0)"/>
      <use xlink:href="#SegoeUI-2d" transform="translate(327.667969 0)"/>
      <use xlink:href="#SegoeUI-35" transform="translate(367.658203 0)"/>
      <use xlink:href="#SegoeUI-25" transform="translate(421.564453 0)"/>
      <use xlink:href="#SegoeUI-20" transform="translate(503.400391 0)"/>
      <use xlink:href="#SegoeUI-42" transform="translate(530.792969 0)"/>
      <use xlink:href="#SegoeUI-54" transform="translate(583.617188 0)"/>
      <use xlink:href="#SegoeUI-43" transform="translate(631.509766 0)"/>
      <use xlink:href="#SegoeUI-20" transform="translate(693.423828 0)"/>
      <use xlink:href="#SegoeUI-72" transform="translate(720.816406 0)"/>
      <use xlink:href="#SegoeUI-65" transform="translate(754.207031 0)"/>
      <use xlink:href="#SegoeUI-74" transform="translate(806.501953 0)"/>
      <use xlink:href="#SegoeUI-75" transform="translate(840.388672 0)"/>
      <use xlink:href="#SegoeUI-72" transform="translate(896.980469 0)"/>
      <use xlink:href="#SegoeUI-6e" transform="translate(931.496094 0)"/>
      <use xlink:href="#SegoeUI-20" transform="translate(988.087891 0)"/>
      <use xlink:href="#SegoeUI-64" transform="translate(1015.480469 0)"/>
      <use xlink:href="#SegoeUI-61" transform="translate(1074.367188 0)"/>
      <use xlink:href="#SegoeUI-79" transform="translate(1125.246094 0)"/>
      <use xlink:href="#SegoeUI-20" transform="translate(1173.634766 0)"/>
      <use xlink:href="#SegoeUI-72" transform="translate(1201.027344 0)"/>
      <use xlink:href="#SegoeUI-61" transform="translate(1235.792969 0)"/>
      <use xlink:href="#SegoeUI-74" transform="translate(1286.671875 0)"/>
      <use xlink:href="#SegoeUI-65" transform="translate(1319.808594 0)"/>
     </g>
    </g>
   </g>
   <g id="patch_3">
    <path d="M 65.31617 359.28
L 124.563819 359.28
L 124.563819 126.058776
L 65.31617 126.058776
z
" clip-path="url(#p3355238820)" style="fill: #b85c5c; stroke: #7a3333; stroke-linejoin: miter"/>
   </g>
   <g id="patch_4">
    <path d="M 139.375731 359.28
L 198.62338 359.28
L 198.62338 242.4114
L 139.375731 242.4114
z
" clip-path="url(#p3355238820)" style="fill: #c5cad3; stroke: #464c55; stroke-linejoin: miter"/>
   </g>
   <g id="patch_5">
    <path d="M 213.435292 359.28
L 272.682941 359.28
L 272.682941 220.498537
L 213.435292 220.498537
z
" clip-path="url(#p3355238820)" style="fill: #c5cad3; stroke: #464c55; stroke-linejoin: miter"/>
   </g>
   <g id="patch_6">
    <path d="M 287.494853 359.28
L 346.742502 359.28
L 346.742502 264.324262
L 287.494853 264.324262
z
" clip-path="url(#p3355238820)" style="fill: #c5cad3; stroke: #464c55; stroke-linejoin: miter"/>
   </g>
   <g id="patch_7">
    <path d="M 361.554414 359.28
L 420.802063 359.28
L 420.802063 104.194286
L 361.554414 104.194286
z
" clip-path="url(#p3355238820)" style="fill: #b85c5c; stroke: #7a3333; stroke-linejoin: miter"/>
   </g>
   <g id="patch_8">
    <path d="M 47.541875 359.28
L 47.541875 91.44
" style="fill: none; stroke: #d7dbe7; stroke-width: 1.25; stroke-linejoin: miter; stroke-linecap: square"/>
   </g>
   <g id="patch_9">
    <path d="M 47.541875 359.28
L 438.576358 359.28
" style="fill: none; stroke: #d7dbe7; stroke-width: 1.25; stroke-linejoin: miter; stroke-linecap: square"/>
   </g>
   <g id="text_17">
    <!-- 7.1% -->
    <g style="fill: #1f2430" transform="translate(82.899369 122.372048) scale(0.1 -0.1)">
     <defs>
      <path id="DejaVuSansMono-37" d="M 434 4666
L 3372 4666
L 3372 4397
L 1703 0
L 1044 0
L 2669 4134
L 434 4134
L 434 4666
z
" transform="scale(0.015625)"/>
      <path id="DejaVuSansMono-2e" d="M 1528 953
L 2316 953
L 2316 0
L 1528 0
L 1528 953
z
" transform="scale(0.015625)"/>
      <path id="DejaVuSansMono-31" d="M 844 531
L 1825 531
L 1825 4097
L 769 3859
L 769 4434
L 1819 4666
L 2450 4666
L 2450 531
L 3419 531
L 3419 0
L 844 0
L 844 531
z
" transform="scale(0.015625)"/>
      <path id="DejaVuSansMono-25" d="M 2175 997
Q 2175 753 2339 587
Q 2503 422 2747 422
Q 2988 422 3155 589
Q 3322 756 3322 997
Q 3322 1238 3153 1406
Q 2984 1575 2747 1575
Q 2503 1575 2339 1409
Q 2175 1244 2175 997
z
M 1753 997
Q 1753 1419 2040 1708
Q 2328 1997 2747 1997
Q 2947 1997 3126 1922
Q 3306 1847 3450 1703
Q 3594 1556 3672 1375
Q 3750 1194 3750 997
Q 3750 581 3459 290
Q 3169 0 2747 0
Q 2322 0 2037 286
Q 1753 572 1753 997
z
M 378 1453
L 269 1753
L 3525 3059
L 3653 2759
L 378 1453
z
M 525 3475
Q 525 3228 689 3064
Q 853 2900 1100 2900
Q 1341 2900 1509 3067
Q 1678 3234 1678 3475
Q 1678 3716 1509 3883
Q 1341 4050 1100 4050
Q 859 4050 692 3884
Q 525 3719 525 3475
z
M 103 3475
Q 103 3897 390 4186
Q 678 4475 1100 4475
Q 1300 4475 1483 4400
Q 1666 4325 1806 4184
Q 1947 4044 2023 3861
Q 2100 3678 2100 3475
Q 2100 3056 1809 2767
Q 1519 2478 1100 2478
Q 678 2478 390 2765
Q 103 3053 103 3475
z
" transform="scale(0.015625)"/>
     </defs>
     <use xlink:href="#DejaVuSansMono-37"/>
     <use xlink:href="#DejaVuSansMono-2e" transform="translate(60.205078 0)"/>
     <use xlink:href="#DejaVuSansMono-31" transform="translate(120.410156 0)"/>
     <use xlink:href="#DejaVuSansMono-25" transform="translate(180.615234 0)"/>
    </g>
   </g>
   <g id="text_18">
    <!-- 3.5% -->
    <g style="fill: #1f2430" transform="translate(156.95893 238.724672) scale(0.1 -0.1)">
     <defs>
      <path id="DejaVuSansMono-33" d="M 2425 2497
Q 2884 2375 3128 2064
Q 3372 1753 3372 1288
Q 3372 644 2939 276
Q 2506 -91 1741 -91
Q 1419 -91 1084 -31
Q 750 28 428 141
L 428 769
Q 747 603 1056 522
Q 1366 441 1672 441
Q 2191 441 2469 675
Q 2747 909 2747 1350
Q 2747 1756 2469 1995
Q 2191 2234 1716 2234
L 1234 2234
L 1234 2753
L 1716 2753
Q 2150 2753 2394 2943
Q 2638 3134 2638 3475
Q 2638 3834 2411 4026
Q 2184 4219 1766 4219
Q 1488 4219 1191 4156
Q 894 4094 569 3969
L 569 4550
Q 947 4650 1242 4700
Q 1538 4750 1766 4750
Q 2447 4750 2855 4408
Q 3263 4066 3263 3500
Q 3263 3116 3048 2859
Q 2834 2603 2425 2497
z
" transform="scale(0.015625)"/>
      <path id="DejaVuSansMono-35" d="M 647 4666
L 3009 4666
L 3009 4134
L 1222 4134
L 1222 2988
Q 1356 3038 1492 3061
Q 1628 3084 1766 3084
Q 2491 3084 2916 2656
Q 3341 2228 3341 1497
Q 3341 759 2895 334
Q 2450 -91 1678 -91
Q 1306 -91 998 -41
Q 691 9 447 109
L 447 750
Q 734 594 1025 517
Q 1316 441 1619 441
Q 2141 441 2423 716
Q 2706 991 2706 1497
Q 2706 1997 2414 2275
Q 2122 2553 1600 2553
Q 1347 2553 1106 2495
Q 866 2438 647 2322
L 647 4666
z
" transform="scale(0.015625)"/>
     </defs>
     <use xlink:href="#DejaVuSansMono-33"/>
     <use xlink:href="#DejaVuSansMono-2e" transform="translate(60.205078 0)"/>
     <use xlink:href="#DejaVuSansMono-35" transform="translate(120.410156 0)"/>
     <use xlink:href="#DejaVuSansMono-25" transform="translate(180.615234 0)"/>
    </g>
   </g>
   <g id="text_19">
    <!-- 4.2% -->
    <g style="fill: #1f2430" transform="translate(231.018491 216.81181) scale(0.1 -0.1)">
     <defs>
      <path id="DejaVuSansMono-34" d="M 2297 4091
L 825 1625
L 2297 1625
L 2297 4091
z
M 2194 4666
L 2925 4666
L 2925 1625
L 3547 1625
L 3547 1113
L 2925 1113
L 2925 0
L 2297 0
L 2297 1113
L 319 1113
L 319 1709
L 2194 4666
z
" transform="scale(0.015625)"/>
      <path id="DejaVuSansMono-32" d="M 1166 531
L 3309 531
L 3309 0
L 475 0
L 475 531
Q 1059 1147 1496 1619
Q 1934 2091 2100 2284
Q 2413 2666 2522 2902
Q 2631 3138 2631 3384
Q 2631 3775 2401 3997
Q 2172 4219 1772 4219
Q 1488 4219 1175 4116
Q 863 4013 513 3803
L 513 4441
Q 834 4594 1145 4672
Q 1456 4750 1759 4750
Q 2444 4750 2861 4386
Q 3278 4022 3278 3431
Q 3278 3131 3139 2831
Q 3000 2531 2688 2169
Q 2513 1966 2180 1606
Q 1847 1247 1166 531
z
" transform="scale(0.015625)"/>
     </defs>
     <use xlink:href="#DejaVuSansMono-34"/>
     <use xlink:href="#DejaVuSansMono-2e" transform="translate(60.205078 0)"/>
     <use xlink:href="#DejaVuSansMono-32" transform="translate(120.410156 0)"/>
     <use xlink:href="#DejaVuSansMono-25" transform="translate(180.615234 0)"/>
    </g>
   </g>
   <g id="text_20">
    <!-- 2.9% -->
    <g style="fill: #1f2430" transform="translate(305.078053 260.637535) scale(0.1 -0.1)">
     <defs>
      <path id="DejaVuSansMono-39" d="M 1863 2069
Q 2266 2069 2495 2359
Q 2725 2650 2725 3163
Q 2725 3675 2495 3965
Q 2266 4256 1863 4256
Q 1444 4256 1231 3979
Q 1019 3703 1019 3163
Q 1019 2619 1230 2344
Q 1441 2069 1863 2069
z
M 738 97
L 738 678
Q 934 563 1156 502
Q 1378 441 1619 441
Q 2219 441 2526 892
Q 2834 1344 2834 2222
Q 2688 1909 2422 1742
Q 2156 1575 1813 1575
Q 1138 1575 767 1990
Q 397 2406 397 3169
Q 397 3922 776 4336
Q 1156 4750 1850 4750
Q 2663 4750 3041 4165
Q 3419 3581 3419 2328
Q 3419 1150 2964 529
Q 2509 -91 1644 -91
Q 1416 -91 1184 -42
Q 953 6 738 97
z
" transform="scale(0.015625)"/>
     </defs>
     <use xlink:href="#DejaVuSansMono-32"/>
     <use xlink:href="#DejaVuSansMono-2e" transform="translate(60.205078 0)"/>
     <use xlink:href="#DejaVuSansMono-39" transform="translate(120.410156 0)"/>
     <use xlink:href="#DejaVuSansMono-25" transform="translate(180.615234 0)"/>
    </g>
   </g>
   <g id="text_21">
    <!-- 7.7% -->
    <g style="fill: #1f2430" transform="translate(379.137614 100.507558) scale(0.1 -0.1)">
     <use xlink:href="#DejaVuSansMono-37"/>
     <use xlink:href="#DejaVuSansMono-2e" transform="translate(60.205078 0)"/>
     <use xlink:href="#DejaVuSansMono-37" transform="translate(120.410156 0)"/>
     <use xlink:href="#DejaVuSansMono-25" transform="translate(180.615234 0)"/>
    </g>
   </g>
   <g id="text_22">
    <!-- A. Tail-day rates -->
    <g style="fill: #1f2430" transform="translate(47.541875 85.44) scale(0.13 -0.13)">
     <defs>
      <path id="SegoeUI-Semibold-41" d="M 4234 0
L 3419 0
L 3016 1141
L 1253 1141
L 866 0
L 53 0
L 1731 4481
L 2569 4481
L 4234 0
z
M 2819 1747
L 2197 3534
Q 2169 3622 2138 3816
L 2125 3816
Q 2097 3638 2063 3534
L 1447 1747
L 2819 1747
z
" transform="scale(0.015625)"/>
      <path id="SegoeUI-Semibold-2e" d="M 772 -69
Q 584 -69 453 54
Q 322 178 322 350
Q 322 525 453 650
Q 584 775 772 775
Q 963 775 1095 650
Q 1228 525 1228 350
Q 1228 178 1095 54
Q 963 -69 772 -69
z
" transform="scale(0.015625)"/>
      <path id="SegoeUI-Semibold-20" transform="scale(0.015625)"/>
      <path id="SegoeUI-Semibold-54" d="M 3428 3850
L 2141 3850
L 2141 0
L 1397 0
L 1397 3850
L 113 3850
L 113 4481
L 3428 4481
L 3428 3850
z
" transform="scale(0.015625)"/>
      <path id="SegoeUI-Semibold-61" d="M 2928 0
L 2225 0
L 2225 500
L 2213 500
Q 1881 -75 1241 -75
Q 769 -75 501 181
Q 234 438 234 859
Q 234 1766 1278 1916
L 2228 2050
Q 2228 2734 1578 2734
Q 1006 2734 547 2341
L 547 2975
Q 1053 3275 1716 3275
Q 2928 3275 2928 2081
L 2928 0
z
M 2228 1572
L 1556 1478
Q 1244 1438 1086 1327
Q 928 1216 928 938
Q 928 734 1073 604
Q 1219 475 1463 475
Q 1794 475 2011 708
Q 2228 941 2228 1294
L 2228 1572
z
" transform="scale(0.015625)"/>
      <path id="SegoeUI-Semibold-69" d="M 838 3872
Q 659 3872 532 3987
Q 406 4103 406 4281
Q 406 4459 532 4578
Q 659 4697 838 4697
Q 1022 4697 1150 4578
Q 1278 4459 1278 4281
Q 1278 4113 1150 3992
Q 1022 3872 838 3872
z
M 1197 0
L 472 0
L 472 3200
L 1197 3200
L 1197 0
z
" transform="scale(0.015625)"/>
      <path id="SegoeUI-Semibold-6c" d="M 1200 0
L 472 0
L 472 4738
L 1200 4738
L 1200 0
z
" transform="scale(0.015625)"/>
      <path id="SegoeUI-Semibold-2d" d="M 2156 1481
L 450 1481
L 450 2016
L 2156 2016
L 2156 1481
z
" transform="scale(0.015625)"/>
      <path id="SegoeUI-Semibold-64" d="M 3381 0
L 2656 0
L 2656 544
L 2644 544
Q 2294 -75 1566 -75
Q 975 -75 620 354
Q 266 784 266 1525
Q 266 2319 658 2797
Q 1050 3275 1703 3275
Q 2350 3275 2644 2756
L 2656 2756
L 2656 4738
L 3381 4738
L 3381 0
z
M 2666 1463
L 2666 1881
Q 2666 2222 2444 2459
Q 2222 2697 1878 2697
Q 1472 2697 1239 2394
Q 1006 2091 1006 1553
Q 1006 1066 1229 783
Q 1453 500 1831 500
Q 2203 500 2434 773
Q 2666 1047 2666 1463
z
" transform="scale(0.015625)"/>
      <path id="SegoeUI-Semibold-79" d="M 3244 3200
L 1800 -513
Q 1350 -1506 538 -1506
Q 309 -1506 156 -1466
L 156 -863
Q 328 -919 469 -919
Q 875 -919 1075 -519
L 1291 6
L 19 3200
L 822 3200
L 1584 875
Q 1597 831 1641 644
L 1656 644
Q 1672 716 1713 869
L 2513 3200
L 3244 3200
z
" transform="scale(0.015625)"/>
      <path id="SegoeUI-Semibold-72" d="M 2328 2509
Q 2197 2613 1950 2613
Q 1628 2613 1412 2322
Q 1197 2031 1197 1531
L 1197 0
L 472 0
L 472 3200
L 1197 3200
L 1197 2541
L 1209 2541
Q 1316 2878 1536 3067
Q 1756 3256 2028 3256
Q 2225 3256 2328 3197
L 2328 2509
z
" transform="scale(0.015625)"/>
      <path id="SegoeUI-Semibold-74" d="M 2159 34
Q 1947 -72 1600 -72
Q 669 -72 669 822
L 669 2631
L 134 2631
L 134 3200
L 669 3200
L 669 3941
L 1394 4147
L 1394 3200
L 2159 3200
L 2159 2631
L 1394 2631
L 1394 1031
Q 1394 747 1497 625
Q 1600 503 1841 503
Q 2025 503 2159 609
L 2159 34
z
" transform="scale(0.015625)"/>
      <path id="SegoeUI-Semibold-65" d="M 3181 1403
L 1000 1403
Q 1013 959 1273 718
Q 1534 478 1991 478
Q 2503 478 2931 784
L 2931 200
Q 2494 -75 1775 -75
Q 1069 -75 667 361
Q 266 797 266 1588
Q 266 2334 708 2804
Q 1150 3275 1806 3275
Q 2463 3275 2822 2853
Q 3181 2431 3181 1681
L 3181 1403
z
M 2481 1916
Q 2478 2306 2297 2523
Q 2116 2741 1797 2741
Q 1484 2741 1267 2512
Q 1050 2284 1000 1916
L 2481 1916
z
" transform="scale(0.015625)"/>
      <path id="SegoeUI-Semibold-73" d="M 272 100
L 272 772
Q 678 463 1169 463
Q 1825 463 1825 850
Q 1825 959 1769 1036
Q 1713 1113 1617 1172
Q 1522 1231 1392 1278
Q 1263 1325 1103 1384
Q 906 1463 748 1550
Q 591 1638 486 1748
Q 381 1859 328 2000
Q 275 2141 275 2328
Q 275 2559 384 2736
Q 494 2913 678 3033
Q 863 3153 1097 3214
Q 1331 3275 1581 3275
Q 2025 3275 2375 3141
L 2375 2506
Q 2038 2738 1600 2738
Q 1463 2738 1352 2709
Q 1241 2681 1162 2631
Q 1084 2581 1040 2511
Q 997 2441 997 2356
Q 997 2253 1040 2181
Q 1084 2109 1170 2054
Q 1256 2000 1376 1954
Q 1497 1909 1653 1856
Q 1859 1772 2023 1684
Q 2188 1597 2303 1486
Q 2419 1375 2481 1229
Q 2544 1084 2544 884
Q 2544 641 2431 459
Q 2319 278 2131 159
Q 1944 41 1698 -17
Q 1453 -75 1181 -75
Q 656 -75 272 100
z
" transform="scale(0.015625)"/>
     </defs>
     <use xlink:href="#SegoeUI-Semibold-41"/>
     <use xlink:href="#SegoeUI-Semibold-2e" transform="translate(67.138672 0)"/>
     <use xlink:href="#SegoeUI-Semibold-20" transform="translate(91.259766 0)"/>
     <use xlink:href="#SegoeUI-Semibold-54" transform="translate(118.75 0)"/>
     <use xlink:href="#SegoeUI-Semibold-61" transform="translate(164.300781 0)"/>
     <use xlink:href="#SegoeUI-Semibold-69" transform="translate(216.498047 0)"/>
     <use xlink:href="#SegoeUI-Semibold-6c" transform="translate(242.621094 0)"/>
     <use xlink:href="#SegoeUI-Semibold-2d" transform="translate(268.744141 0)"/>
     <use xlink:href="#SegoeUI-Semibold-64" transform="translate(308.929688 0)"/>
     <use xlink:href="#SegoeUI-Semibold-61" transform="translate(369.183594 0)"/>
     <use xlink:href="#SegoeUI-Semibold-79" transform="translate(421.380859 0)"/>
     <use xlink:href="#SegoeUI-Semibold-20" transform="translate(472.210938 0)"/>
     <use xlink:href="#SegoeUI-Semibold-72" transform="translate(499.701172 0)"/>
     <use xlink:href="#SegoeUI-Semibold-61" transform="translate(536.712891 0)"/>
     <use xlink:href="#SegoeUI-Semibold-74" transform="translate(588.910156 0)"/>
     <use xlink:href="#SegoeUI-Semibold-65" transform="translate(624.417969 0)"/>
     <use xlink:href="#SegoeUI-Semibold-73" transform="translate(677.542969 0)"/>
    </g>
   </g>
  </g>
  <g id="axes_2">
   <g id="patch_10">
    <path d="M 563.707392 359.28
L 954.741875 359.28
L 954.741875 91.44
L 563.707392 91.44
z
" style="fill: #ffffff"/>
   </g>
   <g id="matplotlib.axis_3">
    <g id="xtick_6">
     <g id="text_23">
      <!-- Q1 low -->
      <g style="fill: #6f768a" transform="translate(595.51723 370.183125) scale(0.1 -0.1)">
       <use xlink:href="#SegoeUI-51"/>
       <use xlink:href="#SegoeUI-31" transform="translate(75.390625 0)"/>
       <use xlink:href="#SegoeUI-20" transform="translate(129.296875 0)"/>
       <use xlink:href="#SegoeUI-6c" transform="translate(156.689453 0)"/>
       <use xlink:href="#SegoeUI-6f" transform="translate(180.908203 0)"/>
       <use xlink:href="#SegoeUI-77" transform="translate(239.501953 0)"/>
      </g>
     </g>
    </g>
    <g id="xtick_7">
     <g id="text_24">
      <!-- Q2 -->
      <g style="fill: #6f768a" transform="translate(678.700229 370.183125) scale(0.1 -0.1)">
       <use xlink:href="#SegoeUI-51"/>
       <use xlink:href="#SegoeUI-32" transform="translate(75.390625 0)"/>
      </g>
     </g>
    </g>
    <g id="xtick_8">
     <g id="text_25">
      <!-- Q3 -->
      <g style="fill: #6f768a" transform="translate(752.75979 370.183125) scale(0.1 -0.1)">
       <use xlink:href="#SegoeUI-51"/>
       <use xlink:href="#SegoeUI-33" transform="translate(75.390625 0)"/>
      </g>
     </g>
    </g>
    <g id="xtick_9">
     <g id="text_26">
      <!-- Q4 -->
      <g style="fill: #6f768a" transform="translate(826.819351 370.183125) scale(0.1 -0.1)">
       <use xlink:href="#SegoeUI-51"/>
       <use xlink:href="#SegoeUI-34" transform="translate(75.390625 0)"/>
      </g>
     </g>
    </g>
    <g id="xtick_10">
     <g id="text_27">
      <!-- Q5 high -->
      <g style="fill: #6f768a" transform="translate(889.694537 370.183125) scale(0.1 -0.1)">
       <use xlink:href="#SegoeUI-51"/>
       <use xlink:href="#SegoeUI-35" transform="translate(75.390625 0)"/>
       <use xlink:href="#SegoeUI-20" transform="translate(129.296875 0)"/>
       <use xlink:href="#SegoeUI-68" transform="translate(156.689453 0)"/>
       <use xlink:href="#SegoeUI-69" transform="translate(213.28125 0)"/>
       <use xlink:href="#SegoeUI-67" transform="translate(237.5 0)"/>
       <use xlink:href="#SegoeUI-68" transform="translate(296.386719 0)"/>
      </g>
     </g>
    </g>
    <g id="text_28">
     <!-- Lagged leverage-state quintile -->
     <g style="fill: #1f2430" transform="translate(678.934321 385.42) scale(0.12 -0.12)">
      <use xlink:href="#SegoeUI-4c"/>
      <use xlink:href="#SegoeUI-61" transform="translate(47.070312 0)"/>
      <use xlink:href="#SegoeUI-67" transform="translate(97.949219 0)"/>
      <use xlink:href="#SegoeUI-67" transform="translate(156.835938 0)"/>
      <use xlink:href="#SegoeUI-65" transform="translate(215.722656 0)"/>
      <use xlink:href="#SegoeUI-64" transform="translate(268.017578 0)"/>
      <use xlink:href="#SegoeUI-20" transform="translate(326.904297 0)"/>
      <use xlink:href="#SegoeUI-6c" transform="translate(354.296875 0)"/>
      <use xlink:href="#SegoeUI-65" transform="translate(378.515625 0)"/>
      <use xlink:href="#SegoeUI-76" transform="translate(430.810547 0)"/>
      <use xlink:href="#SegoeUI-65" transform="translate(478.085938 0)"/>
      <use xlink:href="#SegoeUI-72" transform="translate(530.380859 0)"/>
      <use xlink:href="#SegoeUI-61" transform="translate(565.146484 0)"/>
      <use xlink:href="#SegoeUI-67" transform="translate(616.025391 0)"/>
      <use xlink:href="#SegoeUI-65" transform="translate(674.912109 0)"/>
      <use xlink:href="#SegoeUI-2d" transform="translate(727.207031 0)"/>
      <use xlink:href="#SegoeUI-73" transform="translate(767.197266 0)"/>
      <use xlink:href="#SegoeUI-74" transform="translate(809.628906 0)"/>
      <use xlink:href="#SegoeUI-61" transform="translate(843.515625 0)"/>
      <use xlink:href="#SegoeUI-74" transform="translate(894.394531 0)"/>
      <use xlink:href="#SegoeUI-65" transform="translate(927.53125 0)"/>
      <use xlink:href="#SegoeUI-20" transform="translate(979.826172 0)"/>
      <use xlink:href="#SegoeUI-71" transform="translate(1007.21875 0)"/>
      <use xlink:href="#SegoeUI-75" transform="translate(1066.105469 0)"/>
      <use xlink:href="#SegoeUI-69" transform="translate(1122.697266 0)"/>
      <use xlink:href="#SegoeUI-6e" transform="translate(1146.916016 0)"/>
      <use xlink:href="#SegoeUI-74" transform="translate(1203.507812 0)"/>
      <use xlink:href="#SegoeUI-69" transform="translate(1237.394531 0)"/>
      <use xlink:href="#SegoeUI-6c" transform="translate(1261.613281 0)"/>
      <use xlink:href="#SegoeUI-65" transform="translate(1285.832031 0)"/>
     </g>
    </g>
   </g>
   <g id="matplotlib.axis_4">
    <g id="ytick_10">
     <g id="line2d_10">
      <path d="M 563.707392 359.28
L 954.741875 359.28
" clip-path="url(#p4c14162422)" style="fill: none; stroke: #e8ebf2; stroke-width: 0.8; stroke-linecap: round"/>
     </g>
     <g id="text_29">
      <!-- 0% -->
      <g style="fill: #6f768a" transform="translate(546.632392 362.981562) scale(0.1 -0.1)">
       <use xlink:href="#SegoeUI-30"/>
       <use xlink:href="#SegoeUI-25" transform="translate(53.90625 0)"/>
      </g>
     </g>
    </g>
    <g id="ytick_11">
     <g id="line2d_11">
      <path d="M 563.707392 319.176346
L 954.741875 319.176346
" clip-path="url(#p4c14162422)" style="fill: none; stroke: #e8ebf2; stroke-width: 0.8; stroke-linecap: round"/>
     </g>
     <g id="text_30">
      <!-- 10% -->
      <g style="fill: #6f768a" transform="translate(541.241767 322.877908) scale(0.1 -0.1)">
       <use xlink:href="#SegoeUI-31"/>
       <use xlink:href="#SegoeUI-30" transform="translate(53.90625 0)"/>
       <use xlink:href="#SegoeUI-25" transform="translate(107.8125 0)"/>
      </g>
     </g>
    </g>
    <g id="ytick_12">
     <g id="line2d_12">
      <path d="M 563.707392 279.072692
L 954.741875 279.072692
" clip-path="url(#p4c14162422)" style="fill: none; stroke: #e8ebf2; stroke-width: 0.8; stroke-linecap: round"/>
     </g>
     <g id="text_31">
      <!-- 20% -->
      <g style="fill: #6f768a" transform="translate(541.241767 282.774254) scale(0.1 -0.1)">
       <use xlink:href="#SegoeUI-32"/>
       <use xlink:href="#SegoeUI-30" transform="translate(53.90625 0)"/>
       <use xlink:href="#SegoeUI-25" transform="translate(107.8125 0)"/>
      </g>
     </g>
    </g>
    <g id="ytick_13">
     <g id="line2d_13">
      <path d="M 563.707392 238.969038
L 954.741875 238.969038
" clip-path="url(#p4c14162422)" style="fill: none; stroke: #e8ebf2; stroke-width: 0.8; stroke-linecap: round"/>
     </g>
     <g id="text_32">
      <!-- 30% -->
      <g style="fill: #6f768a" transform="translate(541.241767 242.6706) scale(0.1 -0.1)">
       <use xlink:href="#SegoeUI-33"/>
       <use xlink:href="#SegoeUI-30" transform="translate(53.90625 0)"/>
       <use xlink:href="#SegoeUI-25" transform="translate(107.8125 0)"/>
      </g>
     </g>
    </g>
    <g id="ytick_14">
     <g id="line2d_14">
      <path d="M 563.707392 198.865384
L 954.741875 198.865384
" clip-path="url(#p4c14162422)" style="fill: none; stroke: #e8ebf2; stroke-width: 0.8; stroke-linecap: round"/>
     </g>
     <g id="text_33">
      <!-- 40% -->
      <g style="fill: #6f768a" transform="translate(541.241767 202.566946) scale(0.1 -0.1)">
       <use xlink:href="#SegoeUI-34"/>
       <use xlink:href="#SegoeUI-30" transform="translate(53.90625 0)"/>
       <use xlink:href="#SegoeUI-25" transform="translate(107.8125 0)"/>
      </g>
     </g>
    </g>
    <g id="ytick_15">
     <g id="line2d_15">
      <path d="M 563.707392 158.76173
L 954.741875 158.76173
" clip-path="url(#p4c14162422)" style="fill: none; stroke: #e8ebf2; stroke-width: 0.8; stroke-linecap: round"/>
     </g>
     <g id="text_34">
      <!-- 50% -->
      <g style="fill: #6f768a" transform="translate(541.241767 162.463292) scale(0.1 -0.1)">
       <use xlink:href="#SegoeUI-35"/>
       <use xlink:href="#SegoeUI-30" transform="translate(53.90625 0)"/>
       <use xlink:href="#SegoeUI-25" transform="translate(107.8125 0)"/>
      </g>
     </g>
    </g>
    <g id="ytick_16">
     <g id="line2d_16">
      <path d="M 563.707392 118.658075
L 954.741875 118.658075
" clip-path="url(#p4c14162422)" style="fill: none; stroke: #e8ebf2; stroke-width: 0.8; stroke-linecap: round"/>
     </g>
     <g id="text_35">
      <!-- 60% -->
      <g style="fill: #6f768a" transform="translate(541.241767 122.359638) scale(0.1 -0.1)">
       <use xlink:href="#SegoeUI-36"/>
       <use xlink:href="#SegoeUI-30" transform="translate(53.90625 0)"/>
       <use xlink:href="#SegoeUI-25" transform="translate(107.8125 0)"/>
      </g>
     </g>
    </g>
    <g id="text_36">
     <!-- Median 30-day realized volatility -->
     <g style="fill: #1f2430" transform="translate(534.418017 311.28) rotate(-90) scale(0.12 -0.12)">
      <defs>
       <path id="SegoeUI-4d" d="M 5156 0
L 4634 0
L 4634 3006
Q 4634 3363 4678 3878
L 4666 3878
Q 4591 3575 4531 3444
L 3000 0
L 2744 0
L 1216 3419
Q 1150 3569 1081 3878
L 1069 3878
Q 1094 3609 1094 3000
L 1094 0
L 588 0
L 588 4481
L 1281 4481
L 2656 1356
Q 2816 997 2863 819
L 2881 819
Q 3016 1188 3097 1369
L 4500 4481
L 5156 4481
L 5156 0
z
" transform="scale(0.015625)"/>
       <path id="SegoeUI-7a" d="M 2750 3053
L 856 438
L 2731 438
L 2731 0
L 103 0
L 103 159
L 1997 2763
L 281 2763
L 281 3200
L 2750 3200
L 2750 3053
z
" transform="scale(0.015625)"/>
      </defs>
      <use xlink:href="#SegoeUI-4d"/>
      <use xlink:href="#SegoeUI-65" transform="translate(89.794922 0)"/>
      <use xlink:href="#SegoeUI-64" transform="translate(142.089844 0)"/>
      <use xlink:href="#SegoeUI-69" transform="translate(200.976562 0)"/>
      <use xlink:href="#SegoeUI-61" transform="translate(225.195312 0)"/>
      <use xlink:href="#SegoeUI-6e" transform="translate(276.074219 0)"/>
      <use xlink:href="#SegoeUI-20" transform="translate(332.666016 0)"/>
      <use xlink:href="#SegoeUI-33" transform="translate(360.058594 0)"/>
      <use xlink:href="#SegoeUI-30" transform="translate(413.964844 0)"/>
      <use xlink:href="#SegoeUI-2d" transform="translate(467.871094 0)"/>
      <use xlink:href="#SegoeUI-64" transform="translate(507.861328 0)"/>
      <use xlink:href="#SegoeUI-61" transform="translate(566.748047 0)"/>
      <use xlink:href="#SegoeUI-79" transform="translate(617.626953 0)"/>
      <use xlink:href="#SegoeUI-20" transform="translate(666.015625 0)"/>
      <use xlink:href="#SegoeUI-72" transform="translate(693.408203 0)"/>
      <use xlink:href="#SegoeUI-65" transform="translate(726.798828 0)"/>
      <use xlink:href="#SegoeUI-61" transform="translate(779.09375 0)"/>
      <use xlink:href="#SegoeUI-6c" transform="translate(829.972656 0)"/>
      <use xlink:href="#SegoeUI-69" transform="translate(854.191406 0)"/>
      <use xlink:href="#SegoeUI-7a" transform="translate(878.410156 0)"/>
      <use xlink:href="#SegoeUI-65" transform="translate(923.625 0)"/>
      <use xlink:href="#SegoeUI-64" transform="translate(975.919922 0)"/>
      <use xlink:href="#SegoeUI-20" transform="translate(1034.806641 0)"/>
      <use xlink:href="#SegoeUI-76" transform="translate(1062.199219 0)"/>
      <use xlink:href="#SegoeUI-6f" transform="translate(1109.474609 0)"/>
      <use xlink:href="#SegoeUI-6c" transform="translate(1168.068359 0)"/>
      <use xlink:href="#SegoeUI-61" transform="translate(1192.287109 0)"/>
      <use xlink:href="#SegoeUI-74" transform="translate(1243.166016 0)"/>
      <use xlink:href="#SegoeUI-69" transform="translate(1277.052734 0)"/>
      <use xlink:href="#SegoeUI-6c" transform="translate(1301.271484 0)"/>
      <use xlink:href="#SegoeUI-69" transform="translate(1325.490234 0)"/>
      <use xlink:href="#SegoeUI-74" transform="translate(1349.708984 0)"/>
      <use xlink:href="#SegoeUI-79" transform="translate(1383.595703 0)"/>
     </g>
    </g>
   </g>
   <g id="patch_11">
    <path d="M 581.481687 359.28
L 640.729336 359.28
L 640.729336 104.194286
L 581.481687 104.194286
z
" clip-path="url(#p4c14162422)" style="fill: #b85c5c; stroke: #7a3333; stroke-linejoin: miter"/>
   </g>
   <g id="patch_12">
    <path d="M 655.541248 359.28
L 714.788897 359.28
L 714.788897 165.599849
L 655.541248 165.599849
z
" clip-path="url(#p4c14162422)" style="fill: #c5cad3; stroke: #464c55; stroke-linejoin: miter"/>
   </g>
   <g id="patch_13">
    <path d="M 729.600809 359.28
L 788.848458 359.28
L 788.848458 165.944433
L 729.600809 165.944433
z
" clip-path="url(#p4c14162422)" style="fill: #c5cad3; stroke: #464c55; stroke-linejoin: miter"/>
   </g>
   <g id="patch_14">
    <path d="M 803.66037 359.28
L 862.908019 359.28
L 862.908019 179.588012
L 803.66037 179.588012
z
" clip-path="url(#p4c14162422)" style="fill: #c5cad3; stroke: #464c55; stroke-linejoin: miter"/>
   </g>
   <g id="patch_15">
    <path d="M 877.719931 359.28
L 936.96758 359.28
L 936.96758 126.725721
L 877.719931 126.725721
z
" clip-path="url(#p4c14162422)" style="fill: #b85c5c; stroke: #7a3333; stroke-linejoin: miter"/>
   </g>
   <g id="patch_16">
    <path d="M 563.707392 359.28
L 563.707392 91.44
" style="fill: none; stroke: #d7dbe7; stroke-width: 1.25; stroke-linejoin: miter; stroke-linecap: square"/>
   </g>
   <g id="patch_17">
    <path d="M 563.707392 359.28
L 954.741875 359.28
" style="fill: none; stroke: #d7dbe7; stroke-width: 1.25; stroke-linejoin: miter; stroke-linecap: square"/>
   </g>
   <g id="text_37">
    <!-- 63.6% -->
    <g style="fill: #1f2430" transform="translate(596.05473 100.507558) scale(0.1 -0.1)">
     <defs>
      <path id="DejaVuSansMono-36" d="M 3097 4563
L 3097 3981
Q 2900 4097 2678 4158
Q 2456 4219 2216 4219
Q 1616 4219 1306 3767
Q 997 3316 997 2438
Q 1147 2750 1412 2917
Q 1678 3084 2022 3084
Q 2697 3084 3067 2670
Q 3438 2256 3438 1497
Q 3438 741 3056 325
Q 2675 -91 1984 -91
Q 1172 -91 794 492
Q 416 1075 416 2328
Q 416 3509 870 4129
Q 1325 4750 2188 4750
Q 2419 4750 2650 4701
Q 2881 4653 3097 4563
z
M 1972 2591
Q 1569 2591 1337 2300
Q 1106 2009 1106 1497
Q 1106 984 1337 693
Q 1569 403 1972 403
Q 2391 403 2603 679
Q 2816 956 2816 1497
Q 2816 2041 2603 2316
Q 2391 2591 1972 2591
z
" transform="scale(0.015625)"/>
     </defs>
     <use xlink:href="#DejaVuSansMono-36"/>
     <use xlink:href="#DejaVuSansMono-33" transform="translate(60.205078 0)"/>
     <use xlink:href="#DejaVuSansMono-2e" transform="translate(120.410156 0)"/>
     <use xlink:href="#DejaVuSansMono-36" transform="translate(180.615234 0)"/>
     <use xlink:href="#DejaVuSansMono-25" transform="translate(240.820312 0)"/>
    </g>
   </g>
   <g id="text_38">
    <!-- 48.3% -->
    <g style="fill: #1f2430" transform="translate(670.114291 161.913121) scale(0.1 -0.1)">
     <defs>
      <path id="DejaVuSansMono-38" d="M 1925 2216
Q 1503 2216 1273 1980
Q 1044 1744 1044 1313
Q 1044 881 1276 642
Q 1509 403 1925 403
Q 2350 403 2579 639
Q 2809 875 2809 1313
Q 2809 1741 2576 1978
Q 2344 2216 1925 2216
z
M 1375 2478
Q 972 2581 745 2862
Q 519 3144 519 3541
Q 519 4097 897 4423
Q 1275 4750 1925 4750
Q 2578 4750 2956 4423
Q 3334 4097 3334 3541
Q 3334 3144 3107 2862
Q 2881 2581 2478 2478
Q 2947 2375 3195 2062
Q 3444 1750 3444 1253
Q 3444 622 3041 265
Q 2638 -91 1925 -91
Q 1213 -91 811 264
Q 409 619 409 1247
Q 409 1747 657 2061
Q 906 2375 1375 2478
z
M 1147 3481
Q 1147 3106 1347 2909
Q 1547 2713 1925 2713
Q 2306 2713 2506 2909
Q 2706 3106 2706 3481
Q 2706 3863 2507 4063
Q 2309 4263 1925 4263
Q 1547 4263 1347 4061
Q 1147 3859 1147 3481
z
" transform="scale(0.015625)"/>
     </defs>
     <use xlink:href="#DejaVuSansMono-34"/>
     <use xlink:href="#DejaVuSansMono-38" transform="translate(60.205078 0)"/>
     <use xlink:href="#DejaVuSansMono-2e" transform="translate(120.410156 0)"/>
     <use xlink:href="#DejaVuSansMono-33" transform="translate(180.615234 0)"/>
     <use xlink:href="#DejaVuSansMono-25" transform="translate(240.820312 0)"/>
    </g>
   </g>
   <g id="text_39">
    <!-- 48.2% -->
    <g style="fill: #1f2430" transform="translate(744.173852 162.257706) scale(0.1 -0.1)">
     <use xlink:href="#DejaVuSansMono-34"/>
     <use xlink:href="#DejaVuSansMono-38" transform="translate(60.205078 0)"/>
     <use xlink:href="#DejaVuSansMono-2e" transform="translate(120.410156 0)"/>
     <use xlink:href="#DejaVuSansMono-32" transform="translate(180.615234 0)"/>
     <use xlink:href="#DejaVuSansMono-25" transform="translate(240.820312 0)"/>
    </g>
   </g>
   <g id="text_40">
    <!-- 44.8% -->
    <g style="fill: #1f2430" transform="translate(818.233413 175.901285) scale(0.1 -0.1)">
     <use xlink:href="#DejaVuSansMono-34"/>
     <use xlink:href="#DejaVuSansMono-34" transform="translate(60.205078 0)"/>
     <use xlink:href="#DejaVuSansMono-2e" transform="translate(120.410156 0)"/>
     <use xlink:href="#DejaVuSansMono-38" transform="translate(180.615234 0)"/>
     <use xlink:href="#DejaVuSansMono-25" transform="translate(240.820312 0)"/>
    </g>
   </g>
   <g id="text_41">
    <!-- 58.0% -->
    <g style="fill: #1f2430" transform="translate(892.292975 123.038994) scale(0.1 -0.1)">
     <defs>
      <path id="DejaVuSansMono-30" d="M 1509 2344
Q 1509 2516 1629 2641
Q 1750 2766 1919 2766
Q 2094 2766 2219 2641
Q 2344 2516 2344 2344
Q 2344 2169 2220 2047
Q 2097 1925 1919 1925
Q 1744 1925 1626 2044
Q 1509 2163 1509 2344
z
M 1925 4250
Q 1484 4250 1267 3775
Q 1050 3300 1050 2328
Q 1050 1359 1267 884
Q 1484 409 1925 409
Q 2369 409 2586 884
Q 2803 1359 2803 2328
Q 2803 3300 2586 3775
Q 2369 4250 1925 4250
z
M 1925 4750
Q 2672 4750 3055 4137
Q 3438 3525 3438 2328
Q 3438 1134 3055 521
Q 2672 -91 1925 -91
Q 1178 -91 797 521
Q 416 1134 416 2328
Q 416 3525 797 4137
Q 1178 4750 1925 4750
z
" transform="scale(0.015625)"/>
     </defs>
     <use xlink:href="#DejaVuSansMono-35"/>
     <use xlink:href="#DejaVuSansMono-38" transform="translate(60.205078 0)"/>
     <use xlink:href="#DejaVuSansMono-2e" transform="translate(120.410156 0)"/>
     <use xlink:href="#DejaVuSansMono-30" transform="translate(180.615234 0)"/>
     <use xlink:href="#DejaVuSansMono-25" transform="translate(240.820312 0)"/>
    </g>
   </g>
   <g id="text_42">
    <!-- n=453 -->
    <g style="fill: #6f768a" transform="translate(598.203168 357.21) scale(0.09 -0.09)">
     <defs>
      <path id="SegoeUI-3d" d="M 3663 2325
L 725 2325
L 725 2738
L 3663 2738
L 3663 2325
z
M 3663 994
L 725 994
L 725 1406
L 3663 1406
L 3663 994
z
" transform="scale(0.015625)"/>
     </defs>
     <use xlink:href="#SegoeUI-6e"/>
     <use xlink:href="#SegoeUI-3d" transform="translate(56.591797 0)"/>
     <use xlink:href="#SegoeUI-34" transform="translate(125 0)"/>
     <use xlink:href="#SegoeUI-35" transform="translate(178.90625 0)"/>
     <use xlink:href="#SegoeUI-33" transform="translate(232.8125 0)"/>
    </g>
   </g>
   <g id="text_43">
    <!-- n=452 -->
    <g style="fill: #6f768a" transform="translate(672.262729 357.21) scale(0.09 -0.09)">
     <use xlink:href="#SegoeUI-6e"/>
     <use xlink:href="#SegoeUI-3d" transform="translate(56.591797 0)"/>
     <use xlink:href="#SegoeUI-34" transform="translate(125 0)"/>
     <use xlink:href="#SegoeUI-35" transform="translate(178.90625 0)"/>
     <use xlink:href="#SegoeUI-32" transform="translate(232.8125 0)"/>
    </g>
   </g>
   <g id="text_44">
    <!-- n=452 -->
    <g style="fill: #6f768a" transform="translate(746.32229 357.21) scale(0.09 -0.09)">
     <use xlink:href="#SegoeUI-6e"/>
     <use xlink:href="#SegoeUI-3d" transform="translate(56.591797 0)"/>
     <use xlink:href="#SegoeUI-34" transform="translate(125 0)"/>
     <use xlink:href="#SegoeUI-35" transform="translate(178.90625 0)"/>
     <use xlink:href="#SegoeUI-32" transform="translate(232.8125 0)"/>
    </g>
   </g>
   <g id="text_45">
    <!-- n=452 -->
    <g style="fill: #6f768a" transform="translate(820.381851 357.21) scale(0.09 -0.09)">
     <use xlink:href="#SegoeUI-6e"/>
     <use xlink:href="#SegoeUI-3d" transform="translate(56.591797 0)"/>
     <use xlink:href="#SegoeUI-34" transform="translate(125 0)"/>
     <use xlink:href="#SegoeUI-35" transform="translate(178.90625 0)"/>
     <use xlink:href="#SegoeUI-32" transform="translate(232.8125 0)"/>
    </g>
   </g>
   <g id="text_46">
    <!-- n=453 -->
    <g style="fill: #6f768a" transform="translate(894.441412 357.21) scale(0.09 -0.09)">
     <use xlink:href="#SegoeUI-6e"/>
     <use xlink:href="#SegoeUI-3d" transform="translate(56.591797 0)"/>
     <use xlink:href="#SegoeUI-34" transform="translate(125 0)"/>
     <use xlink:href="#SegoeUI-35" transform="translate(178.90625 0)"/>
     <use xlink:href="#SegoeUI-33" transform="translate(232.8125 0)"/>
    </g>
   </g>
   <g id="text_47">
    <!-- B. Realized volatility by state -->
    <g style="fill: #1f2430" transform="translate(563.707392 85.44) scale(0.13 -0.13)">
     <defs>
      <path id="SegoeUI-Semibold-42" d="M 553 0
L 553 4481
L 1975 4481
Q 2625 4481 3004 4197
Q 3384 3913 3384 3456
Q 3384 3075 3168 2794
Q 2953 2513 2572 2394
L 2572 2381
Q 3034 2328 3311 2039
Q 3588 1750 3588 1288
Q 3588 713 3134 356
Q 2681 0 1991 0
L 553 0
z
M 1294 3884
L 1294 2609
L 1775 2609
Q 2163 2609 2383 2792
Q 2603 2975 2603 3309
Q 2603 3884 1834 3884
L 1294 3884
z
M 1294 2013
L 1294 594
L 1928 594
Q 2344 594 2570 786
Q 2797 978 2797 1316
Q 2797 2013 1831 2013
L 1294 2013
z
" transform="scale(0.015625)"/>
      <path id="SegoeUI-Semibold-52" d="M 4016 0
L 3147 0
L 2431 1200
Q 2334 1366 2242 1483
Q 2150 1600 2054 1675
Q 1959 1750 1846 1784
Q 1734 1819 1594 1819
L 1294 1819
L 1294 0
L 553 0
L 553 4481
L 2028 4481
Q 2344 4481 2609 4406
Q 2875 4331 3072 4179
Q 3269 4028 3380 3801
Q 3491 3575 3491 3272
Q 3491 3034 3420 2836
Q 3350 2638 3220 2483
Q 3091 2328 2908 2218
Q 2725 2109 2497 2050
L 2497 2038
Q 2619 1969 2709 1886
Q 2800 1803 2881 1715
Q 2963 1628 3042 1517
Q 3122 1406 3219 1259
L 4016 0
z
M 1294 3878
L 1294 2422
L 1913 2422
Q 2084 2422 2229 2475
Q 2375 2528 2481 2628
Q 2588 2728 2647 2872
Q 2706 3016 2706 3194
Q 2706 3516 2503 3697
Q 2300 3878 1919 3878
L 1294 3878
z
" transform="scale(0.015625)"/>
      <path id="SegoeUI-Semibold-7a" d="M 2834 2897
L 1106 566
L 2828 566
L 2828 0
L 91 0
L 91 272
L 1856 2634
L 259 2634
L 259 3200
L 2834 3200
L 2834 2897
z
" transform="scale(0.015625)"/>
      <path id="SegoeUI-Semibold-76" d="M 3228 3200
L 1991 0
L 1206 0
L 28 3200
L 816 3200
L 1525 963
Q 1606 716 1625 531
L 1634 531
Q 1663 763 1722 950
L 2466 3200
L 3228 3200
z
" transform="scale(0.015625)"/>
      <path id="SegoeUI-Semibold-6f" d="M 1891 -75
Q 1150 -75 708 373
Q 266 822 266 1563
Q 266 2369 727 2822
Q 1188 3275 1969 3275
Q 2719 3275 3137 2834
Q 3556 2394 3556 1613
Q 3556 847 3104 386
Q 2653 -75 1891 -75
z
M 1925 2697
Q 1500 2697 1253 2400
Q 1006 2103 1006 1581
Q 1006 1078 1256 789
Q 1506 500 1925 500
Q 2353 500 2583 784
Q 2813 1069 2813 1594
Q 2813 2122 2583 2409
Q 2353 2697 1925 2697
z
" transform="scale(0.015625)"/>
      <path id="SegoeUI-Semibold-62" d="M 1209 463
L 1197 463
L 1197 0
L 472 0
L 472 4738
L 1197 4738
L 1197 2638
L 1209 2638
Q 1581 3275 2297 3275
Q 2903 3275 3245 2845
Q 3588 2416 3588 1694
Q 3588 891 3203 408
Q 2819 -75 2153 -75
Q 1528 -75 1209 463
z
M 1191 1734
L 1191 1338
Q 1191 988 1414 744
Q 1638 500 1981 500
Q 2384 500 2614 814
Q 2844 1128 2844 1691
Q 2844 2163 2630 2430
Q 2416 2697 2050 2697
Q 1663 2697 1427 2422
Q 1191 2147 1191 1734
z
" transform="scale(0.015625)"/>
     </defs>
     <use xlink:href="#SegoeUI-Semibold-42"/>
     <use xlink:href="#SegoeUI-Semibold-2e" transform="translate(60.400391 0)"/>
     <use xlink:href="#SegoeUI-Semibold-20" transform="translate(84.521484 0)"/>
     <use xlink:href="#SegoeUI-Semibold-52" transform="translate(112.011719 0)"/>
     <use xlink:href="#SegoeUI-Semibold-65" transform="translate(171.642578 0)"/>
     <use xlink:href="#SegoeUI-Semibold-61" transform="translate(224.767578 0)"/>
     <use xlink:href="#SegoeUI-Semibold-6c" transform="translate(276.964844 0)"/>
     <use xlink:href="#SegoeUI-Semibold-69" transform="translate(303.087891 0)"/>
     <use xlink:href="#SegoeUI-Semibold-7a" transform="translate(329.210938 0)"/>
     <use xlink:href="#SegoeUI-Semibold-65" transform="translate(375.646484 0)"/>
     <use xlink:href="#SegoeUI-Semibold-64" transform="translate(428.771484 0)"/>
     <use xlink:href="#SegoeUI-Semibold-20" transform="translate(489.025391 0)"/>
     <use xlink:href="#SegoeUI-Semibold-76" transform="translate(516.515625 0)"/>
     <use xlink:href="#SegoeUI-Semibold-6f" transform="translate(566.498047 0)"/>
     <use xlink:href="#SegoeUI-Semibold-6c" transform="translate(626.214844 0)"/>
     <use xlink:href="#SegoeUI-Semibold-61" transform="translate(652.337891 0)"/>
     <use xlink:href="#SegoeUI-Semibold-74" transform="translate(704.535156 0)"/>
     <use xlink:href="#SegoeUI-Semibold-69" transform="translate(740.667969 0)"/>
     <use xlink:href="#SegoeUI-Semibold-6c" transform="translate(766.791016 0)"/>
     <use xlink:href="#SegoeUI-Semibold-69" transform="translate(792.914062 0)"/>
     <use xlink:href="#SegoeUI-Semibold-74" transform="translate(819.037109 0)"/>
     <use xlink:href="#SegoeUI-Semibold-79" transform="translate(855.169922 0)"/>
     <use xlink:href="#SegoeUI-Semibold-20" transform="translate(906 0)"/>
     <use xlink:href="#SegoeUI-Semibold-62" transform="translate(933.490234 0)"/>
     <use xlink:href="#SegoeUI-Semibold-79" transform="translate(993.744141 0)"/>
     <use xlink:href="#SegoeUI-Semibold-20" transform="translate(1044.574219 0)"/>
     <use xlink:href="#SegoeUI-Semibold-73" transform="translate(1072.064453 0)"/>
     <use xlink:href="#SegoeUI-Semibold-74" transform="translate(1115.179688 0)"/>
     <use xlink:href="#SegoeUI-Semibold-61" transform="translate(1151.3125 0)"/>
     <use xlink:href="#SegoeUI-Semibold-74" transform="translate(1203.509766 0)"/>
     <use xlink:href="#SegoeUI-Semibold-65" transform="translate(1239.017578 0)"/>
    </g>
   </g>
  </g>
  <g id="text_48">
   <!-- Tail stress is elevated at both low and high leverage states -->
   <g style="fill: #1f2430" transform="translate(27.381875 19.045) scale(0.16 -0.16)">
    <defs>
     <path id="SegoeUI-Semibold-68" d="M 3316 0
L 2591 0
L 2591 1750
Q 2591 2700 1956 2700
Q 1638 2700 1419 2425
Q 1200 2150 1200 1722
L 1200 0
L 472 0
L 472 4738
L 1200 4738
L 1200 2669
L 1213 2669
Q 1575 3275 2250 3275
Q 3316 3275 3316 1972
L 3316 0
z
" transform="scale(0.015625)"/>
     <path id="SegoeUI-Semibold-77" d="M 4775 3200
L 3831 0
L 3072 0
L 2491 2169
Q 2456 2294 2447 2450
L 2434 2450
Q 2428 2344 2378 2175
L 1747 0
L 1003 0
L 63 3200
L 813 3200
L 1394 894
Q 1422 791 1431 619
L 1453 619
Q 1463 750 1503 900
L 2150 3200
L 2831 3200
L 3406 884
Q 3434 775 3447 609
L 3469 609
Q 3475 725 3516 884
L 4084 3200
L 4775 3200
z
" transform="scale(0.015625)"/>
     <path id="SegoeUI-Semibold-6e" d="M 3322 0
L 2597 0
L 2597 1803
Q 2597 2700 1963 2700
Q 1631 2700 1415 2451
Q 1200 2203 1200 1825
L 1200 0
L 472 0
L 472 3200
L 1200 3200
L 1200 2669
L 1213 2669
Q 1572 3275 2250 3275
Q 2772 3275 3047 2936
Q 3322 2597 3322 1956
L 3322 0
z
" transform="scale(0.015625)"/>
     <path id="SegoeUI-Semibold-67" d="M 3384 256
Q 3384 -1506 1613 -1506
Q 988 -1506 522 -1297
L 522 -634
Q 1047 -934 1519 -934
Q 2659 -934 2659 188
L 2659 538
L 2647 538
Q 2288 -75 1566 -75
Q 981 -75 623 351
Q 266 778 266 1497
Q 266 2313 650 2794
Q 1034 3275 1706 3275
Q 2341 3275 2647 2756
L 2659 2756
L 2659 3200
L 3384 3200
L 3384 256
z
M 2666 1466
L 2666 1881
Q 2666 2219 2442 2458
Q 2219 2697 1884 2697
Q 1472 2697 1239 2392
Q 1006 2088 1006 1541
Q 1006 1069 1229 786
Q 1453 503 1822 503
Q 2197 503 2431 773
Q 2666 1044 2666 1466
z
" transform="scale(0.015625)"/>
    </defs>
    <use xlink:href="#SegoeUI-Semibold-54"/>
    <use xlink:href="#SegoeUI-Semibold-61" transform="translate(45.550781 0)"/>
    <use xlink:href="#SegoeUI-Semibold-69" transform="translate(97.748047 0)"/>
    <use xlink:href="#SegoeUI-Semibold-6c" transform="translate(123.871094 0)"/>
    <use xlink:href="#SegoeUI-Semibold-20" transform="translate(149.994141 0)"/>
    <use xlink:href="#SegoeUI-Semibold-73" transform="translate(177.484375 0)"/>
    <use xlink:href="#SegoeUI-Semibold-74" transform="translate(220.599609 0)"/>
    <use xlink:href="#SegoeUI-Semibold-72" transform="translate(256.732422 0)"/>
    <use xlink:href="#SegoeUI-Semibold-65" transform="translate(292.869141 0)"/>
    <use xlink:href="#SegoeUI-Semibold-73" transform="translate(345.994141 0)"/>
    <use xlink:href="#SegoeUI-Semibold-73" transform="translate(389.109375 0)"/>
    <use xlink:href="#SegoeUI-Semibold-20" transform="translate(432.224609 0)"/>
    <use xlink:href="#SegoeUI-Semibold-69" transform="translate(459.714844 0)"/>
    <use xlink:href="#SegoeUI-Semibold-73" transform="translate(485.837891 0)"/>
    <use xlink:href="#SegoeUI-Semibold-20" transform="translate(528.953125 0)"/>
    <use xlink:href="#SegoeUI-Semibold-65" transform="translate(556.443359 0)"/>
    <use xlink:href="#SegoeUI-Semibold-6c" transform="translate(609.568359 0)"/>
    <use xlink:href="#SegoeUI-Semibold-65" transform="translate(635.691406 0)"/>
    <use xlink:href="#SegoeUI-Semibold-76" transform="translate(688.816406 0)"/>
    <use xlink:href="#SegoeUI-Semibold-61" transform="translate(737.923828 0)"/>
    <use xlink:href="#SegoeUI-Semibold-74" transform="translate(790.121094 0)"/>
    <use xlink:href="#SegoeUI-Semibold-65" transform="translate(825.628906 0)"/>
    <use xlink:href="#SegoeUI-Semibold-64" transform="translate(878.753906 0)"/>
    <use xlink:href="#SegoeUI-Semibold-20" transform="translate(939.007812 0)"/>
    <use xlink:href="#SegoeUI-Semibold-61" transform="translate(966.498047 0)"/>
    <use xlink:href="#SegoeUI-Semibold-74" transform="translate(1018.695312 0)"/>
    <use xlink:href="#SegoeUI-Semibold-20" transform="translate(1054.828125 0)"/>
    <use xlink:href="#SegoeUI-Semibold-62" transform="translate(1082.318359 0)"/>
    <use xlink:href="#SegoeUI-Semibold-6f" transform="translate(1142.572266 0)"/>
    <use xlink:href="#SegoeUI-Semibold-74" transform="translate(1202.289062 0)"/>
    <use xlink:href="#SegoeUI-Semibold-68" transform="translate(1238.421875 0)"/>
    <use xlink:href="#SegoeUI-Semibold-20" transform="translate(1296.625 0)"/>
    <use xlink:href="#SegoeUI-Semibold-6c" transform="translate(1324.115234 0)"/>
    <use xlink:href="#SegoeUI-Semibold-6f" transform="translate(1350.238281 0)"/>
    <use xlink:href="#SegoeUI-Semibold-77" transform="translate(1409.955078 0)"/>
    <use xlink:href="#SegoeUI-Semibold-20" transform="translate(1485.589844 0)"/>
    <use xlink:href="#SegoeUI-Semibold-61" transform="translate(1513.080078 0)"/>
    <use xlink:href="#SegoeUI-Semibold-6e" transform="translate(1565.277344 0)"/>
    <use xlink:href="#SegoeUI-Semibold-64" transform="translate(1623.626953 0)"/>
    <use xlink:href="#SegoeUI-Semibold-20" transform="translate(1683.880859 0)"/>
    <use xlink:href="#SegoeUI-Semibold-68" transform="translate(1711.371094 0)"/>
    <use xlink:href="#SegoeUI-Semibold-69" transform="translate(1769.574219 0)"/>
    <use xlink:href="#SegoeUI-Semibold-67" transform="translate(1795.697266 0)"/>
    <use xlink:href="#SegoeUI-Semibold-68" transform="translate(1855.951172 0)"/>
    <use xlink:href="#SegoeUI-Semibold-20" transform="translate(1914.154297 0)"/>
    <use xlink:href="#SegoeUI-Semibold-6c" transform="translate(1941.644531 0)"/>
    <use xlink:href="#SegoeUI-Semibold-65" transform="translate(1967.767578 0)"/>
    <use xlink:href="#SegoeUI-Semibold-76" transform="translate(2020.892578 0)"/>
    <use xlink:href="#SegoeUI-Semibold-65" transform="translate(2070.875 0)"/>
    <use xlink:href="#SegoeUI-Semibold-72" transform="translate(2124 0)"/>
    <use xlink:href="#SegoeUI-Semibold-61" transform="translate(2161.011719 0)"/>
    <use xlink:href="#SegoeUI-Semibold-67" transform="translate(2213.208984 0)"/>
    <use xlink:href="#SegoeUI-Semibold-65" transform="translate(2273.462891 0)"/>
    <use xlink:href="#SegoeUI-Semibold-20" transform="translate(2326.587891 0)"/>
    <use xlink:href="#SegoeUI-Semibold-73" transform="translate(2354.078125 0)"/>
    <use xlink:href="#SegoeUI-Semibold-74" transform="translate(2397.193359 0)"/>
    <use xlink:href="#SegoeUI-Semibold-61" transform="translate(2433.326172 0)"/>
    <use xlink:href="#SegoeUI-Semibold-74" transform="translate(2485.523438 0)"/>
    <use xlink:href="#SegoeUI-Semibold-65" transform="translate(2521.03125 0)"/>
    <use xlink:href="#SegoeUI-Semibold-73" transform="translate(2574.15625 0)"/>
   </g>
  </g>
  <g id="text_49">
   <!-- Quintiles use lagged leverage state; rates and realized volatility are descriptive stress diagnostics. -->
   <g style="fill: #6f768a" transform="translate(27.381875 36.943437) scale(0.11 -0.11)">
    <defs>
     <path id="SegoeUI-3b" d="M 706 2575
Q 559 2575 457 2678
Q 356 2781 356 2925
Q 356 3069 457 3169
Q 559 3269 706 3269
Q 850 3269 953 3169
Q 1056 3069 1056 2925
Q 1056 2781 953 2678
Q 850 2575 706 2575
z
M 988 713
L 488 -825
L 122 -825
L 488 713
L 988 713
z
" transform="scale(0.015625)"/>
     <path id="SegoeUI-63" d="M 2700 147
Q 2331 -75 1825 -75
Q 1141 -75 720 370
Q 300 816 300 1525
Q 300 2316 753 2795
Q 1206 3275 1963 3275
Q 2384 3275 2706 3119
L 2706 2594
Q 2350 2844 1944 2844
Q 1453 2844 1139 2492
Q 825 2141 825 1569
Q 825 1006 1120 681
Q 1416 356 1913 356
Q 2331 356 2700 634
L 2700 147
z
" transform="scale(0.015625)"/>
     <path id="SegoeUI-70" d="M 1044 463
L 1031 463
L 1031 -1472
L 519 -1472
L 519 3200
L 1031 3200
L 1031 2638
L 1044 2638
Q 1422 3275 2150 3275
Q 2769 3275 3116 2845
Q 3463 2416 3463 1694
Q 3463 891 3072 408
Q 2681 -75 2003 -75
Q 1381 -75 1044 463
z
M 1031 1753
L 1031 1306
Q 1031 909 1289 632
Q 1547 356 1944 356
Q 2409 356 2673 712
Q 2938 1069 2938 1703
Q 2938 2238 2691 2541
Q 2444 2844 2022 2844
Q 1575 2844 1303 2533
Q 1031 2222 1031 1753
z
" transform="scale(0.015625)"/>
    </defs>
    <use xlink:href="#SegoeUI-51"/>
    <use xlink:href="#SegoeUI-75" transform="translate(75.390625 0)"/>
    <use xlink:href="#SegoeUI-69" transform="translate(131.982422 0)"/>
    <use xlink:href="#SegoeUI-6e" transform="translate(156.201172 0)"/>
    <use xlink:href="#SegoeUI-74" transform="translate(212.792969 0)"/>
    <use xlink:href="#SegoeUI-69" transform="translate(246.679688 0)"/>
    <use xlink:href="#SegoeUI-6c" transform="translate(270.898438 0)"/>
    <use xlink:href="#SegoeUI-65" transform="translate(295.117188 0)"/>
    <use xlink:href="#SegoeUI-73" transform="translate(347.412109 0)"/>
    <use xlink:href="#SegoeUI-20" transform="translate(389.84375 0)"/>
    <use xlink:href="#SegoeUI-75" transform="translate(417.236328 0)"/>
    <use xlink:href="#SegoeUI-73" transform="translate(473.828125 0)"/>
    <use xlink:href="#SegoeUI-65" transform="translate(516.259766 0)"/>
    <use xlink:href="#SegoeUI-20" transform="translate(568.554688 0)"/>
    <use xlink:href="#SegoeUI-6c" transform="translate(595.947266 0)"/>
    <use xlink:href="#SegoeUI-61" transform="translate(620.166016 0)"/>
    <use xlink:href="#SegoeUI-67" transform="translate(671.044922 0)"/>
    <use xlink:href="#SegoeUI-67" transform="translate(729.931641 0)"/>
    <use xlink:href="#SegoeUI-65" transform="translate(788.818359 0)"/>
    <use xlink:href="#SegoeUI-64" transform="translate(841.113281 0)"/>
    <use xlink:href="#SegoeUI-20" transform="translate(900 0)"/>
    <use xlink:href="#SegoeUI-6c" transform="translate(927.392578 0)"/>
    <use xlink:href="#SegoeUI-65" transform="translate(951.611328 0)"/>
    <use xlink:href="#SegoeUI-76" transform="translate(1003.90625 0)"/>
    <use xlink:href="#SegoeUI-65" transform="translate(1051.181641 0)"/>
    <use xlink:href="#SegoeUI-72" transform="translate(1103.476562 0)"/>
    <use xlink:href="#SegoeUI-61" transform="translate(1138.242188 0)"/>
    <use xlink:href="#SegoeUI-67" transform="translate(1189.121094 0)"/>
    <use xlink:href="#SegoeUI-65" transform="translate(1248.007812 0)"/>
    <use xlink:href="#SegoeUI-20" transform="translate(1300.302734 0)"/>
    <use xlink:href="#SegoeUI-73" transform="translate(1327.695312 0)"/>
    <use xlink:href="#SegoeUI-74" transform="translate(1370.126953 0)"/>
    <use xlink:href="#SegoeUI-61" transform="translate(1404.013672 0)"/>
    <use xlink:href="#SegoeUI-74" transform="translate(1454.892578 0)"/>
    <use xlink:href="#SegoeUI-65" transform="translate(1488.029297 0)"/>
    <use xlink:href="#SegoeUI-3b" transform="translate(1540.324219 0)"/>
    <use xlink:href="#SegoeUI-20" transform="translate(1562.003906 0)"/>
    <use xlink:href="#SegoeUI-72" transform="translate(1589.396484 0)"/>
    <use xlink:href="#SegoeUI-61" transform="translate(1624.162109 0)"/>
    <use xlink:href="#SegoeUI-74" transform="translate(1675.041016 0)"/>
    <use xlink:href="#SegoeUI-65" transform="translate(1708.177734 0)"/>
    <use xlink:href="#SegoeUI-73" transform="translate(1760.472656 0)"/>
    <use xlink:href="#SegoeUI-20" transform="translate(1802.904297 0)"/>
    <use xlink:href="#SegoeUI-61" transform="translate(1830.296875 0)"/>
    <use xlink:href="#SegoeUI-6e" transform="translate(1881.175781 0)"/>
    <use xlink:href="#SegoeUI-64" transform="translate(1937.767578 0)"/>
    <use xlink:href="#SegoeUI-20" transform="translate(1996.654297 0)"/>
    <use xlink:href="#SegoeUI-72" transform="translate(2024.046875 0)"/>
    <use xlink:href="#SegoeUI-65" transform="translate(2057.4375 0)"/>
    <use xlink:href="#SegoeUI-61" transform="translate(2109.732422 0)"/>
    <use xlink:href="#SegoeUI-6c" transform="translate(2160.611328 0)"/>
    <use xlink:href="#SegoeUI-69" transform="translate(2184.830078 0)"/>
    <use xlink:href="#SegoeUI-7a" transform="translate(2209.048828 0)"/>
    <use xlink:href="#SegoeUI-65" transform="translate(2254.263672 0)"/>
    <use xlink:href="#SegoeUI-64" transform="translate(2306.558594 0)"/>
    <use xlink:href="#SegoeUI-20" transform="translate(2365.445312 0)"/>
    <use xlink:href="#SegoeUI-76" transform="translate(2392.837891 0)"/>
    <use xlink:href="#SegoeUI-6f" transform="translate(2440.113281 0)"/>
    <use xlink:href="#SegoeUI-6c" transform="translate(2498.707031 0)"/>
    <use xlink:href="#SegoeUI-61" transform="translate(2522.925781 0)"/>
    <use xlink:href="#SegoeUI-74" transform="translate(2573.804688 0)"/>
    <use xlink:href="#SegoeUI-69" transform="translate(2607.691406 0)"/>
    <use xlink:href="#SegoeUI-6c" transform="translate(2631.910156 0)"/>
    <use xlink:href="#SegoeUI-69" transform="translate(2656.128906 0)"/>
    <use xlink:href="#SegoeUI-74" transform="translate(2680.347656 0)"/>
    <use xlink:href="#SegoeUI-79" transform="translate(2714.234375 0)"/>
    <use xlink:href="#SegoeUI-20" transform="translate(2762.623047 0)"/>
    <use xlink:href="#SegoeUI-61" transform="translate(2790.015625 0)"/>
    <use xlink:href="#SegoeUI-72" transform="translate(2840.894531 0)"/>
    <use xlink:href="#SegoeUI-65" transform="translate(2874.285156 0)"/>
    <use xlink:href="#SegoeUI-20" transform="translate(2926.580078 0)"/>
    <use xlink:href="#SegoeUI-64" transform="translate(2953.972656 0)"/>
    <use xlink:href="#SegoeUI-65" transform="translate(3012.859375 0)"/>
    <use xlink:href="#SegoeUI-73" transform="translate(3065.154297 0)"/>
    <use xlink:href="#SegoeUI-63" transform="translate(3107.585938 0)"/>
    <use xlink:href="#SegoeUI-72" transform="translate(3153.777344 0)"/>
    <use xlink:href="#SegoeUI-69" transform="translate(3188.542969 0)"/>
    <use xlink:href="#SegoeUI-70" transform="translate(3212.761719 0)"/>
    <use xlink:href="#SegoeUI-74" transform="translate(3271.550781 0)"/>
    <use xlink:href="#SegoeUI-69" transform="translate(3305.4375 0)"/>
    <use xlink:href="#SegoeUI-76" transform="translate(3329.65625 0)"/>
    <use xlink:href="#SegoeUI-65" transform="translate(3376.931641 0)"/>
    <use xlink:href="#SegoeUI-20" transform="translate(3429.226562 0)"/>
    <use xlink:href="#SegoeUI-73" transform="translate(3456.619141 0)"/>
    <use xlink:href="#SegoeUI-74" transform="translate(3499.050781 0)"/>
    <use xlink:href="#SegoeUI-72" transform="translate(3532.9375 0)"/>
    <use xlink:href="#SegoeUI-65" transform="translate(3566.328125 0)"/>
    <use xlink:href="#SegoeUI-73" transform="translate(3618.623047 0)"/>
    <use xlink:href="#SegoeUI-73" transform="translate(3661.054688 0)"/>
    <use xlink:href="#SegoeUI-20" transform="translate(3703.486328 0)"/>
    <use xlink:href="#SegoeUI-64" transform="translate(3730.878906 0)"/>
    <use xlink:href="#SegoeUI-69" transform="translate(3789.765625 0)"/>
    <use xlink:href="#SegoeUI-61" transform="translate(3813.984375 0)"/>
    <use xlink:href="#SegoeUI-67" transform="translate(3864.863281 0)"/>
    <use xlink:href="#SegoeUI-6e" transform="translate(3923.75 0)"/>
    <use xlink:href="#SegoeUI-6f" transform="translate(3980.341797 0)"/>
    <use xlink:href="#SegoeUI-73" transform="translate(4038.935547 0)"/>
    <use xlink:href="#SegoeUI-74" transform="translate(4081.367188 0)"/>
    <use xlink:href="#SegoeUI-69" transform="translate(4115.253906 0)"/>
    <use xlink:href="#SegoeUI-63" transform="translate(4139.472656 0)"/>
    <use xlink:href="#SegoeUI-73" transform="translate(4185.664062 0)"/>
    <use xlink:href="#SegoeUI-2e" transform="translate(4228.095703 0)"/>
   </g>
  </g>
 </g>
 <defs>
  <clipPath id="p3355238820">
   <rect x="47.541875" y="91.44" width="391.034483" height="267.84"/>
  </clipPath>
  <clipPath id="p4c14162422">
   <rect x="563.707392" y="91.44" width="391.034483" height="267.84"/>
  </clipPath>
 </defs>
</svg>
