<?xml version="1.0" encoding="utf-8" standalone="no"?>
<!DOCTYPE svg PUBLIC "-//W3C//DTD SVG 1.1//EN"
  "http://www.w3.org/Graphics/SVG/1.1/DTD/svg11.dtd">
<svg xmlns:xlink="http://www.w3.org/1999/xlink" width="786.234576pt" height="296.643796pt" viewBox="0 0 786.234576 296.643796" xmlns="http://www.w3.org/2000/svg" version="1.1">
 <metadata>
  <rdf:RDF xmlns:dc="http://purl.org/dc/elements/1.1/" xmlns:cc="http://creativecommons.org/ns#" xmlns:rdf="http://www.w3.org/1999/02/22-rdf-syntax-ns#">
   <cc:Work>
    <dc:type rdf:resource="http://purl.org/dc/dcmitype/StillImage"/>
    <dc:date>2026-06-19T21:25:30.020654</dc:date>
    <dc:format>image/svg+xml</dc:format>
    <dc:creator>
     <cc:Agent>
      <dc:title>Matplotlib v3.10.8, https://matplotlib.org/</dc:title>
     </cc:Agent>
    </dc:creator>
   </cc:Work>
  </rdf:RDF>
 </metadata>
 <defs>
  <style type="text/css">*{stroke-linejoin: round; stroke-linecap: butt}</style>
 </defs>
 <g id="figure_1">
  <g id="patch_1">
   <path d="M 0 296.643796
L 786.234576 296.643796
L 786.234576 0
L 0 0
z
" style="fill: #ffffff"/>
  </g>
  <g id="axes_1">
   <g id="patch_2">
    <path d="M 142.431719 259.634251
L 438.608862 259.634251
L 438.608862 22.318125
L 142.431719 22.318125
z
" style="fill: #ffffff"/>
   </g>
   <g id="patch_3">
    <path d="M 142.431719 248.847154
L 424.505188 248.847154
L 424.505188 187.206602
L 142.431719 187.206602
z
" clip-path="url(#pe4c2f9104e)" style="fill: #c07a2c"/>
   </g>
   <g id="patch_4">
    <path d="M 142.431719 171.796464
L 423.546275 171.796464
L 423.546275 110.155912
L 142.431719 110.155912
z
" clip-path="url(#pe4c2f9104e)" style="fill: #d9a441"/>
   </g>
   <g id="patch_5">
    <path d="M 142.431719 94.745774
L 149.236926 94.745774
L 149.236926 33.105222
L 142.431719 33.105222
z
" clip-path="url(#pe4c2f9104e)" style="fill: #6b7280"/>
   </g>
   <g id="matplotlib.axis_1">
    <g id="xtick_1">
     <g id="line2d_1">
      <path d="M 142.431719 259.634251
L 142.431719 22.318125
" clip-path="url(#pe4c2f9104e)" style="fill: none; stroke: #b0b0b0; stroke-opacity: 0.22; stroke-width: 0.8; stroke-linecap: square"/>
     </g>
     <g id="line2d_2">
      <defs>
       <path id="m2b15e8bb2c" d="M 0 0
L 0 3.5
" style="stroke: #000000; stroke-width: 0.8"/>
      </defs>
      <g>
       <use xlink:href="#m2b15e8bb2c" x="142.431719" y="259.634251" style="stroke: #000000; stroke-width: 0.8"/>
      </g>
     </g>
     <g id="text_1">
      <!-- 0.0 -->
      <g transform="translate(135.275312 273.472844) scale(0.09 -0.09)">
       <defs>
        <path id="DejaVuSans-30" d="M 2034 4250
Q 1547 4250 1301 3770
Q 1056 3291 1056 2328
Q 1056 1369 1301 889
Q 1547 409 2034 409
Q 2525 409 2770 889
Q 3016 1369 3016 2328
Q 3016 3291 2770 3770
Q 2525 4250 2034 4250
z
M 2034 4750
Q 2819 4750 3233 4129
Q 3647 3509 3647 2328
Q 3647 1150 3233 529
Q 2819 -91 2034 -91
Q 1250 -91 836 529
Q 422 1150 422 2328
Q 422 3509 836 4129
Q 1250 4750 2034 4750
z
" transform="scale(0.015625)"/>
        <path id="DejaVuSans-2e" d="M 684 794
L 1344 794
L 1344 0
L 684 0
L 684 794
z
" transform="scale(0.015625)"/>
       </defs>
       <use xlink:href="#DejaVuSans-30"/>
       <use xlink:href="#DejaVuSans-2e" transform="translate(63.623047 0)"/>
       <use xlink:href="#DejaVuSans-30" transform="translate(95.410156 0)"/>
      </g>
     </g>
    </g>
    <g id="xtick_2">
     <g id="line2d_3">
      <path d="M 199.038849 259.634251
L 199.038849 22.318125
" clip-path="url(#pe4c2f9104e)" style="fill: none; stroke: #b0b0b0; stroke-opacity: 0.22; stroke-width: 0.8; stroke-linecap: square"/>
     </g>
     <g id="line2d_4">
      <g>
       <use xlink:href="#m2b15e8bb2c" x="199.038849" y="259.634251" style="stroke: #000000; stroke-width: 0.8"/>
      </g>
     </g>
     <g id="text_2">
      <!-- 0.2 -->
      <g transform="translate(191.882443 273.472844) scale(0.09 -0.09)">
       <defs>
        <path id="DejaVuSans-32" d="M 1228 531
L 3431 531
L 3431 0
L 469 0
L 469 531
Q 828 903 1448 1529
Q 2069 2156 2228 2338
Q 2531 2678 2651 2914
Q 2772 3150 2772 3378
Q 2772 3750 2511 3984
Q 2250 4219 1831 4219
Q 1534 4219 1204 4116
Q 875 4013 500 3803
L 500 4441
Q 881 4594 1212 4672
Q 1544 4750 1819 4750
Q 2544 4750 2975 4387
Q 3406 4025 3406 3419
Q 3406 3131 3298 2873
Q 3191 2616 2906 2266
Q 2828 2175 2409 1742
Q 1991 1309 1228 531
z
" transform="scale(0.015625)"/>
       </defs>
       <use xlink:href="#DejaVuSans-30"/>
       <use xlink:href="#DejaVuSans-2e" transform="translate(63.623047 0)"/>
       <use xlink:href="#DejaVuSans-32" transform="translate(95.410156 0)"/>
      </g>
     </g>
    </g>
    <g id="xtick_3">
     <g id="line2d_5">
      <path d="M 255.64598 259.634251
L 255.64598 22.318125
" clip-path="url(#pe4c2f9104e)" style="fill: none; stroke: #b0b0b0; stroke-opacity: 0.22; stroke-width: 0.8; stroke-linecap: square"/>
     </g>
     <g id="line2d_6">
      <g>
       <use xlink:href="#m2b15e8bb2c" x="255.64598" y="259.634251" style="stroke: #000000; stroke-width: 0.8"/>
      </g>
     </g>
     <g id="text_3">
      <!-- 0.4 -->
      <g transform="translate(248.489574 273.472844) scale(0.09 -0.09)">
       <defs>
        <path id="DejaVuSans-34" d="M 2419 4116
L 825 1625
L 2419 1625
L 2419 4116
z
M 2253 4666
L 3047 4666
L 3047 1625
L 3713 1625
L 3713 1100
L 3047 1100
L 3047 0
L 2419 0
L 2419 1100
L 313 1100
L 313 1709
L 2253 4666
z
" transform="scale(0.015625)"/>
       </defs>
       <use xlink:href="#DejaVuSans-30"/>
       <use xlink:href="#DejaVuSans-2e" transform="translate(63.623047 0)"/>
       <use xlink:href="#DejaVuSans-34" transform="translate(95.410156 0)"/>
      </g>
     </g>
    </g>
    <g id="xtick_4">
     <g id="line2d_7">
      <path d="M 312.253111 259.634251
L 312.253111 22.318125
" clip-path="url(#pe4c2f9104e)" style="fill: none; stroke: #b0b0b0; stroke-opacity: 0.22; stroke-width: 0.8; stroke-linecap: square"/>
     </g>
     <g id="line2d_8">
      <g>
       <use xlink:href="#m2b15e8bb2c" x="312.253111" y="259.634251" style="stroke: #000000; stroke-width: 0.8"/>
      </g>
     </g>
     <g id="text_4">
      <!-- 0.6 -->
      <g transform="translate(305.096705 273.472844) scale(0.09 -0.09)">
       <defs>
        <path id="DejaVuSans-36" d="M 2113 2584
Q 1688 2584 1439 2293
Q 1191 2003 1191 1497
Q 1191 994 1439 701
Q 1688 409 2113 409
Q 2538 409 2786 701
Q 3034 994 3034 1497
Q 3034 2003 2786 2293
Q 2538 2584 2113 2584
z
M 3366 4563
L 3366 3988
Q 3128 4100 2886 4159
Q 2644 4219 2406 4219
Q 1781 4219 1451 3797
Q 1122 3375 1075 2522
Q 1259 2794 1537 2939
Q 1816 3084 2150 3084
Q 2853 3084 3261 2657
Q 3669 2231 3669 1497
Q 3669 778 3244 343
Q 2819 -91 2113 -91
Q 1303 -91 875 529
Q 447 1150 447 2328
Q 447 3434 972 4092
Q 1497 4750 2381 4750
Q 2619 4750 2861 4703
Q 3103 4656 3366 4563
z
" transform="scale(0.015625)"/>
       </defs>
       <use xlink:href="#DejaVuSans-30"/>
       <use xlink:href="#DejaVuSans-2e" transform="translate(63.623047 0)"/>
       <use xlink:href="#DejaVuSans-36" transform="translate(95.410156 0)"/>
      </g>
     </g>
    </g>
    <g id="xtick_5">
     <g id="line2d_9">
      <path d="M 368.860242 259.634251
L 368.860242 22.318125
" clip-path="url(#pe4c2f9104e)" style="fill: none; stroke: #b0b0b0; stroke-opacity: 0.22; stroke-width: 0.8; stroke-linecap: square"/>
     </g>
     <g id="line2d_10">
      <g>
       <use xlink:href="#m2b15e8bb2c" x="368.860242" y="259.634251" style="stroke: #000000; stroke-width: 0.8"/>
      </g>
     </g>
     <g id="text_5">
      <!-- 0.8 -->
      <g transform="translate(361.703835 273.472844) scale(0.09 -0.09)">
       <defs>
        <path id="DejaVuSans-38" d="M 2034 2216
Q 1584 2216 1326 1975
Q 1069 1734 1069 1313
Q 1069 891 1326 650
Q 1584 409 2034 409
Q 2484 409 2743 651
Q 3003 894 3003 1313
Q 3003 1734 2745 1975
Q 2488 2216 2034 2216
z
M 1403 2484
Q 997 2584 770 2862
Q 544 3141 544 3541
Q 544 4100 942 4425
Q 1341 4750 2034 4750
Q 2731 4750 3128 4425
Q 3525 4100 3525 3541
Q 3525 3141 3298 2862
Q 3072 2584 2669 2484
Q 3125 2378 3379 2068
Q 3634 1759 3634 1313
Q 3634 634 3220 271
Q 2806 -91 2034 -91
Q 1263 -91 848 271
Q 434 634 434 1313
Q 434 1759 690 2068
Q 947 2378 1403 2484
z
M 1172 3481
Q 1172 3119 1398 2916
Q 1625 2713 2034 2713
Q 2441 2713 2670 2916
Q 2900 3119 2900 3481
Q 2900 3844 2670 4047
Q 2441 4250 2034 4250
Q 1625 4250 1398 4047
Q 1172 3844 1172 3481
z
" transform="scale(0.015625)"/>
       </defs>
       <use xlink:href="#DejaVuSans-30"/>
       <use xlink:href="#DejaVuSans-2e" transform="translate(63.623047 0)"/>
       <use xlink:href="#DejaVuSans-38" transform="translate(95.410156 0)"/>
      </g>
     </g>
    </g>
    <g id="xtick_6">
     <g id="line2d_11">
      <path d="M 425.467372 259.634251
L 425.467372 22.318125
" clip-path="url(#pe4c2f9104e)" style="fill: none; stroke: #b0b0b0; stroke-opacity: 0.22; stroke-width: 0.8; stroke-linecap: square"/>
     </g>
     <g id="line2d_12">
      <g>
       <use xlink:href="#m2b15e8bb2c" x="425.467372" y="259.634251" style="stroke: #000000; stroke-width: 0.8"/>
      </g>
     </g>
     <g id="text_6">
      <!-- 1.0 -->
      <g transform="translate(418.310966 273.472844) scale(0.09 -0.09)">
       <defs>
        <path id="DejaVuSans-31" d="M 794 531
L 1825 531
L 1825 4091
L 703 3866
L 703 4441
L 1819 4666
L 2450 4666
L 2450 531
L 3481 531
L 3481 0
L 794 0
L 794 531
z
" transform="scale(0.015625)"/>
       </defs>
       <use xlink:href="#DejaVuSans-31"/>
       <use xlink:href="#DejaVuSans-2e" transform="translate(63.623047 0)"/>
       <use xlink:href="#DejaVuSans-30" transform="translate(95.410156 0)"/>
      </g>
     </g>
    </g>
    <g id="text_7">
     <!-- Statistic -->
     <g transform="translate(272.294587 286.183157) scale(0.09 -0.09)">
      <defs>
       <path id="DejaVuSans-53" d="M 3425 4513
L 3425 3897
Q 3066 4069 2747 4153
Q 2428 4238 2131 4238
Q 1616 4238 1336 4038
Q 1056 3838 1056 3469
Q 1056 3159 1242 3001
Q 1428 2844 1947 2747
L 2328 2669
Q 3034 2534 3370 2195
Q 3706 1856 3706 1288
Q 3706 609 3251 259
Q 2797 -91 1919 -91
Q 1588 -91 1214 -16
Q 841 59 441 206
L 441 856
Q 825 641 1194 531
Q 1563 422 1919 422
Q 2459 422 2753 634
Q 3047 847 3047 1241
Q 3047 1584 2836 1778
Q 2625 1972 2144 2069
L 1759 2144
Q 1053 2284 737 2584
Q 422 2884 422 3419
Q 422 4038 858 4394
Q 1294 4750 2059 4750
Q 2388 4750 2728 4690
Q 3069 4631 3425 4513
z
" transform="scale(0.015625)"/>
       <path id="DejaVuSans-74" d="M 1172 4494
L 1172 3500
L 2356 3500
L 2356 3053
L 1172 3053
L 1172 1153
Q 1172 725 1289 603
Q 1406 481 1766 481
L 2356 481
L 2356 0
L 1766 0
Q 1100 0 847 248
Q 594 497 594 1153
L 594 3053
L 172 3053
L 172 3500
L 594 3500
L 594 4494
L 1172 4494
z
" transform="scale(0.015625)"/>
       <path id="DejaVuSans-61" d="M 2194 1759
Q 1497 1759 1228 1600
Q 959 1441 959 1056
Q 959 750 1161 570
Q 1363 391 1709 391
Q 2188 391 2477 730
Q 2766 1069 2766 1631
L 2766 1759
L 2194 1759
z
M 3341 1997
L 3341 0
L 2766 0
L 2766 531
Q 2569 213 2275 61
Q 1981 -91 1556 -91
Q 1019 -91 701 211
Q 384 513 384 1019
Q 384 1609 779 1909
Q 1175 2209 1959 2209
L 2766 2209
L 2766 2266
Q 2766 2663 2505 2880
Q 2244 3097 1772 3097
Q 1472 3097 1187 3025
Q 903 2953 641 2809
L 641 3341
Q 956 3463 1253 3523
Q 1550 3584 1831 3584
Q 2591 3584 2966 3190
Q 3341 2797 3341 1997
z
" transform="scale(0.015625)"/>
       <path id="DejaVuSans-69" d="M 603 3500
L 1178 3500
L 1178 0
L 603 0
L 603 3500
z
M 603 4863
L 1178 4863
L 1178 4134
L 603 4134
L 603 4863
z
" transform="scale(0.015625)"/>
       <path id="DejaVuSans-73" d="M 2834 3397
L 2834 2853
Q 2591 2978 2328 3040
Q 2066 3103 1784 3103
Q 1356 3103 1142 2972
Q 928 2841 928 2578
Q 928 2378 1081 2264
Q 1234 2150 1697 2047
L 1894 2003
Q 2506 1872 2764 1633
Q 3022 1394 3022 966
Q 3022 478 2636 193
Q 2250 -91 1575 -91
Q 1294 -91 989 -36
Q 684 19 347 128
L 347 722
Q 666 556 975 473
Q 1284 391 1588 391
Q 1994 391 2212 530
Q 2431 669 2431 922
Q 2431 1156 2273 1281
Q 2116 1406 1581 1522
L 1381 1569
Q 847 1681 609 1914
Q 372 2147 372 2553
Q 372 3047 722 3315
Q 1072 3584 1716 3584
Q 2034 3584 2315 3537
Q 2597 3491 2834 3397
z
" transform="scale(0.015625)"/>
       <path id="DejaVuSans-63" d="M 3122 3366
L 3122 2828
Q 2878 2963 2633 3030
Q 2388 3097 2138 3097
Q 1578 3097 1268 2742
Q 959 2388 959 1747
Q 959 1106 1268 751
Q 1578 397 2138 397
Q 2388 397 2633 464
Q 2878 531 3122 666
L 3122 134
Q 2881 22 2623 -34
Q 2366 -91 2075 -91
Q 1284 -91 818 406
Q 353 903 353 1747
Q 353 2603 823 3093
Q 1294 3584 2113 3584
Q 2378 3584 2631 3529
Q 2884 3475 3122 3366
z
" transform="scale(0.015625)"/>
      </defs>
      <use xlink:href="#DejaVuSans-53"/>
      <use xlink:href="#DejaVuSans-74" transform="translate(63.476562 0)"/>
      <use xlink:href="#DejaVuSans-61" transform="translate(102.685547 0)"/>
      <use xlink:href="#DejaVuSans-74" transform="translate(163.964844 0)"/>
      <use xlink:href="#DejaVuSans-69" transform="translate(203.173828 0)"/>
      <use xlink:href="#DejaVuSans-73" transform="translate(230.957031 0)"/>
      <use xlink:href="#DejaVuSans-74" transform="translate(283.056641 0)"/>
      <use xlink:href="#DejaVuSans-69" transform="translate(322.265625 0)"/>
      <use xlink:href="#DejaVuSans-63" transform="translate(350.048828 0)"/>
     </g>
    </g>
   </g>
   <g id="matplotlib.axis_2">
    <g id="ytick_1">
     <g id="line2d_13">
      <path d="M 142.431719 218.026878
L 438.608862 218.026878
" clip-path="url(#pe4c2f9104e)" style="fill: none; stroke: #b0b0b0; stroke-opacity: 0.22; stroke-width: 0.8; stroke-linecap: square"/>
     </g>
     <g id="line2d_14">
      <defs>
       <path id="m97b7dc8412" d="M 0 0
L -3.5 0
" style="stroke: #000000; stroke-width: 0.8"/>
      </defs>
      <g>
       <use xlink:href="#m97b7dc8412" x="142.431719" y="218.026878" style="stroke: #000000; stroke-width: 0.8"/>
      </g>
     </g>
     <g id="text_8">
      <!-- corr d log mvrv btc return -->
      <g transform="translate(19.174219 221.446175) scale(0.09 -0.09)">
       <defs>
        <path id="DejaVuSans-6f" d="M 1959 3097
Q 1497 3097 1228 2736
Q 959 2375 959 1747
Q 959 1119 1226 758
Q 1494 397 1959 397
Q 2419 397 2687 759
Q 2956 1122 2956 1747
Q 2956 2369 2687 2733
Q 2419 3097 1959 3097
z
M 1959 3584
Q 2709 3584 3137 3096
Q 3566 2609 3566 1747
Q 3566 888 3137 398
Q 2709 -91 1959 -91
Q 1206 -91 779 398
Q 353 888 353 1747
Q 353 2609 779 3096
Q 1206 3584 1959 3584
z
" transform="scale(0.015625)"/>
        <path id="DejaVuSans-72" d="M 2631 2963
Q 2534 3019 2420 3045
Q 2306 3072 2169 3072
Q 1681 3072 1420 2755
Q 1159 2438 1159 1844
L 1159 0
L 581 0
L 581 3500
L 1159 3500
L 1159 2956
Q 1341 3275 1631 3429
Q 1922 3584 2338 3584
Q 2397 3584 2469 3576
Q 2541 3569 2628 3553
L 2631 2963
z
" transform="scale(0.015625)"/>
        <path id="DejaVuSans-20" transform="scale(0.015625)"/>
        <path id="DejaVuSans-64" d="M 2906 2969
L 2906 4863
L 3481 4863
L 3481 0
L 2906 0
L 2906 525
Q 2725 213 2448 61
Q 2172 -91 1784 -91
Q 1150 -91 751 415
Q 353 922 353 1747
Q 353 2572 751 3078
Q 1150 3584 1784 3584
Q 2172 3584 2448 3432
Q 2725 3281 2906 2969
z
M 947 1747
Q 947 1113 1208 752
Q 1469 391 1925 391
Q 2381 391 2643 752
Q 2906 1113 2906 1747
Q 2906 2381 2643 2742
Q 2381 3103 1925 3103
Q 1469 3103 1208 2742
Q 947 2381 947 1747
z
" transform="scale(0.015625)"/>
        <path id="DejaVuSans-6c" d="M 603 4863
L 1178 4863
L 1178 0
L 603 0
L 603 4863
z
" transform="scale(0.015625)"/>
        <path id="DejaVuSans-67" d="M 2906 1791
Q 2906 2416 2648 2759
Q 2391 3103 1925 3103
Q 1463 3103 1205 2759
Q 947 2416 947 1791
Q 947 1169 1205 825
Q 1463 481 1925 481
Q 2391 481 2648 825
Q 2906 1169 2906 1791
z
M 3481 434
Q 3481 -459 3084 -895
Q 2688 -1331 1869 -1331
Q 1566 -1331 1297 -1286
Q 1028 -1241 775 -1147
L 775 -588
Q 1028 -725 1275 -790
Q 1522 -856 1778 -856
Q 2344 -856 2625 -561
Q 2906 -266 2906 331
L 2906 616
Q 2728 306 2450 153
Q 2172 0 1784 0
Q 1141 0 747 490
Q 353 981 353 1791
Q 353 2603 747 3093
Q 1141 3584 1784 3584
Q 2172 3584 2450 3431
Q 2728 3278 2906 2969
L 2906 3500
L 3481 3500
L 3481 434
z
" transform="scale(0.015625)"/>
        <path id="DejaVuSans-6d" d="M 3328 2828
Q 3544 3216 3844 3400
Q 4144 3584 4550 3584
Q 5097 3584 5394 3201
Q 5691 2819 5691 2113
L 5691 0
L 5113 0
L 5113 2094
Q 5113 2597 4934 2840
Q 4756 3084 4391 3084
Q 3944 3084 3684 2787
Q 3425 2491 3425 1978
L 3425 0
L 2847 0
L 2847 2094
Q 2847 2600 2669 2842
Q 2491 3084 2119 3084
Q 1678 3084 1418 2786
Q 1159 2488 1159 1978
L 1159 0
L 581 0
L 581 3500
L 1159 3500
L 1159 2956
Q 1356 3278 1631 3431
Q 1906 3584 2284 3584
Q 2666 3584 2933 3390
Q 3200 3197 3328 2828
z
" transform="scale(0.015625)"/>
        <path id="DejaVuSans-76" d="M 191 3500
L 800 3500
L 1894 563
L 2988 3500
L 3597 3500
L 2284 0
L 1503 0
L 191 3500
z
" transform="scale(0.015625)"/>
        <path id="DejaVuSans-62" d="M 3116 1747
Q 3116 2381 2855 2742
Q 2594 3103 2138 3103
Q 1681 3103 1420 2742
Q 1159 2381 1159 1747
Q 1159 1113 1420 752
Q 1681 391 2138 391
Q 2594 391 2855 752
Q 3116 1113 3116 1747
z
M 1159 2969
Q 1341 3281 1617 3432
Q 1894 3584 2278 3584
Q 2916 3584 3314 3078
Q 3713 2572 3713 1747
Q 3713 922 3314 415
Q 2916 -91 2278 -91
Q 1894 -91 1617 61
Q 1341 213 1159 525
L 1159 0
L 581 0
L 581 4863
L 1159 4863
L 1159 2969
z
" transform="scale(0.015625)"/>
        <path id="DejaVuSans-65" d="M 3597 1894
L 3597 1613
L 953 1613
Q 991 1019 1311 708
Q 1631 397 2203 397
Q 2534 397 2845 478
Q 3156 559 3463 722
L 3463 178
Q 3153 47 2828 -22
Q 2503 -91 2169 -91
Q 1331 -91 842 396
Q 353 884 353 1716
Q 353 2575 817 3079
Q 1281 3584 2069 3584
Q 2775 3584 3186 3129
Q 3597 2675 3597 1894
z
M 3022 2063
Q 3016 2534 2758 2815
Q 2500 3097 2075 3097
Q 1594 3097 1305 2825
Q 1016 2553 972 2059
L 3022 2063
z
" transform="scale(0.015625)"/>
        <path id="DejaVuSans-75" d="M 544 1381
L 544 3500
L 1119 3500
L 1119 1403
Q 1119 906 1312 657
Q 1506 409 1894 409
Q 2359 409 2629 706
Q 2900 1003 2900 1516
L 2900 3500
L 3475 3500
L 3475 0
L 2900 0
L 2900 538
Q 2691 219 2414 64
Q 2138 -91 1772 -91
Q 1169 -91 856 284
Q 544 659 544 1381
z
M 1991 3584
L 1991 3584
z
" transform="scale(0.015625)"/>
        <path id="DejaVuSans-6e" d="M 3513 2113
L 3513 0
L 2938 0
L 2938 2094
Q 2938 2591 2744 2837
Q 2550 3084 2163 3084
Q 1697 3084 1428 2787
Q 1159 2491 1159 1978
L 1159 0
L 581 0
L 581 3500
L 1159 3500
L 1159 2956
Q 1366 3272 1645 3428
Q 1925 3584 2291 3584
Q 2894 3584 3203 3211
Q 3513 2838 3513 2113
z
" transform="scale(0.015625)"/>
       </defs>
       <use xlink:href="#DejaVuSans-63"/>
       <use xlink:href="#DejaVuSans-6f" transform="translate(54.980469 0)"/>
       <use xlink:href="#DejaVuSans-72" transform="translate(116.162109 0)"/>
       <use xlink:href="#DejaVuSans-72" transform="translate(155.525391 0)"/>
       <use xlink:href="#DejaVuSans-20" transform="translate(196.638672 0)"/>
       <use xlink:href="#DejaVuSans-64" transform="translate(228.425781 0)"/>
       <use xlink:href="#DejaVuSans-20" transform="translate(291.902344 0)"/>
       <use xlink:href="#DejaVuSans-6c" transform="translate(323.689453 0)"/>
       <use xlink:href="#DejaVuSans-6f" transform="translate(351.472656 0)"/>
       <use xlink:href="#DejaVuSans-67" transform="translate(412.654297 0)"/>
       <use xlink:href="#DejaVuSans-20" transform="translate(476.130859 0)"/>
       <use xlink:href="#DejaVuSans-6d" transform="translate(507.917969 0)"/>
       <use xlink:href="#DejaVuSans-76" transform="translate(605.330078 0)"/>
       <use xlink:href="#DejaVuSans-72" transform="translate(664.509766 0)"/>
       <use xlink:href="#DejaVuSans-76" transform="translate(705.623047 0)"/>
       <use xlink:href="#DejaVuSans-20" transform="translate(764.802734 0)"/>
       <use xlink:href="#DejaVuSans-62" transform="translate(796.589844 0)"/>
       <use xlink:href="#DejaVuSans-74" transform="translate(860.066406 0)"/>
       <use xlink:href="#DejaVuSans-63" transform="translate(899.275391 0)"/>
       <use xlink:href="#DejaVuSans-20" transform="translate(954.255859 0)"/>
       <use xlink:href="#DejaVuSans-72" transform="translate(986.042969 0)"/>
       <use xlink:href="#DejaVuSans-65" transform="translate(1024.90625 0)"/>
       <use xlink:href="#DejaVuSans-74" transform="translate(1086.429688 0)"/>
       <use xlink:href="#DejaVuSans-75" transform="translate(1125.638672 0)"/>
       <use xlink:href="#DejaVuSans-72" transform="translate(1189.017578 0)"/>
       <use xlink:href="#DejaVuSans-6e" transform="translate(1228.380859 0)"/>
      </g>
     </g>
    </g>
    <g id="ytick_2">
     <g id="line2d_15">
      <path d="M 142.431719 140.976188
L 438.608862 140.976188
" clip-path="url(#pe4c2f9104e)" style="fill: none; stroke: #b0b0b0; stroke-opacity: 0.22; stroke-width: 0.8; stroke-linecap: square"/>
     </g>
     <g id="line2d_16">
      <g>
       <use xlink:href="#m97b7dc8412" x="142.431719" y="140.976188" style="stroke: #000000; stroke-width: 0.8"/>
      </g>
     </g>
     <g id="text_9">
      <!-- same day mvrv r2 -->
      <g transform="translate(53.240625 144.395485) scale(0.09 -0.09)">
       <defs>
        <path id="DejaVuSans-79" d="M 2059 -325
Q 1816 -950 1584 -1140
Q 1353 -1331 966 -1331
L 506 -1331
L 506 -850
L 844 -850
Q 1081 -850 1212 -737
Q 1344 -625 1503 -206
L 1606 56
L 191 3500
L 800 3500
L 1894 763
L 2988 3500
L 3597 3500
L 2059 -325
z
" transform="scale(0.015625)"/>
       </defs>
       <use xlink:href="#DejaVuSans-73"/>
       <use xlink:href="#DejaVuSans-61" transform="translate(52.099609 0)"/>
       <use xlink:href="#DejaVuSans-6d" transform="translate(113.378906 0)"/>
       <use xlink:href="#DejaVuSans-65" transform="translate(210.791016 0)"/>
       <use xlink:href="#DejaVuSans-20" transform="translate(272.314453 0)"/>
       <use xlink:href="#DejaVuSans-64" transform="translate(304.101562 0)"/>
       <use xlink:href="#DejaVuSans-61" transform="translate(367.578125 0)"/>
       <use xlink:href="#DejaVuSans-79" transform="translate(428.857422 0)"/>
       <use xlink:href="#DejaVuSans-20" transform="translate(488.037109 0)"/>
       <use xlink:href="#DejaVuSans-6d" transform="translate(519.824219 0)"/>
       <use xlink:href="#DejaVuSans-76" transform="translate(617.236328 0)"/>
       <use xlink:href="#DejaVuSans-72" transform="translate(676.416016 0)"/>
       <use xlink:href="#DejaVuSans-76" transform="translate(717.529297 0)"/>
       <use xlink:href="#DejaVuSans-20" transform="translate(776.708984 0)"/>
       <use xlink:href="#DejaVuSans-72" transform="translate(808.496094 0)"/>
       <use xlink:href="#DejaVuSans-32" transform="translate(849.609375 0)"/>
      </g>
     </g>
    </g>
    <g id="ytick_3">
     <g id="line2d_17">
      <path d="M 142.431719 63.925498
L 438.608862 63.925498
" clip-path="url(#pe4c2f9104e)" style="fill: none; stroke: #b0b0b0; stroke-opacity: 0.22; stroke-width: 0.8; stroke-linecap: square"/>
     </g>
     <g id="line2d_18">
      <g>
       <use xlink:href="#m97b7dc8412" x="142.431719" y="63.925498" style="stroke: #000000; stroke-width: 0.8"/>
      </g>
     </g>
     <g id="text_10">
      <!-- identity residual abs median -->
      <g transform="translate(7.2 67.344795) scale(0.09 -0.09)">
       <use xlink:href="#DejaVuSans-69"/>
       <use xlink:href="#DejaVuSans-64" transform="translate(27.783203 0)"/>
       <use xlink:href="#DejaVuSans-65" transform="translate(91.259766 0)"/>
       <use xlink:href="#DejaVuSans-6e" transform="translate(152.783203 0)"/>
       <use xlink:href="#DejaVuSans-74" transform="translate(216.162109 0)"/>
       <use xlink:href="#DejaVuSans-69" transform="translate(255.371094 0)"/>
       <use xlink:href="#DejaVuSans-74" transform="translate(283.154297 0)"/>
       <use xlink:href="#DejaVuSans-79" transform="translate(322.363281 0)"/>
       <use xlink:href="#DejaVuSans-20" transform="translate(381.542969 0)"/>
       <use xlink:href="#DejaVuSans-72" transform="translate(413.330078 0)"/>
       <use xlink:href="#DejaVuSans-65" transform="translate(452.193359 0)"/>
       <use xlink:href="#DejaVuSans-73" transform="translate(513.716797 0)"/>
       <use xlink:href="#DejaVuSans-69" transform="translate(565.816406 0)"/>
       <use xlink:href="#DejaVuSans-64" transform="translate(593.599609 0)"/>
       <use xlink:href="#DejaVuSans-75" transform="translate(657.076172 0)"/>
       <use xlink:href="#DejaVuSans-61" transform="translate(720.455078 0)"/>
       <use xlink:href="#DejaVuSans-6c" transform="translate(781.734375 0)"/>
       <use xlink:href="#DejaVuSans-20" transform="translate(809.517578 0)"/>
       <use xlink:href="#DejaVuSans-61" transform="translate(841.304688 0)"/>
       <use xlink:href="#DejaVuSans-62" transform="translate(902.583984 0)"/>
       <use xlink:href="#DejaVuSans-73" transform="translate(966.060547 0)"/>
       <use xlink:href="#DejaVuSans-20" transform="translate(1018.160156 0)"/>
       <use xlink:href="#DejaVuSans-6d" transform="translate(1049.947266 0)"/>
       <use xlink:href="#DejaVuSans-65" transform="translate(1147.359375 0)"/>
       <use xlink:href="#DejaVuSans-64" transform="translate(1208.882812 0)"/>
       <use xlink:href="#DejaVuSans-69" transform="translate(1272.359375 0)"/>
       <use xlink:href="#DejaVuSans-61" transform="translate(1300.142578 0)"/>
       <use xlink:href="#DejaVuSans-6e" transform="translate(1361.421875 0)"/>
      </g>
     </g>
    </g>
   </g>
   <g id="patch_6">
    <path d="M 142.431719 259.634251
L 142.431719 22.318125
" style="fill: none; stroke: #000000; stroke-width: 0.8; stroke-linejoin: miter; stroke-linecap: square"/>
   </g>
   <g id="patch_7">
    <path d="M 142.431719 259.634251
L 438.608862 259.634251
" style="fill: none; stroke: #000000; stroke-width: 0.8; stroke-linejoin: miter; stroke-linecap: square"/>
   </g>
   <g id="text_11">
    <!-- MVRV Mechanical Link -->
    <g transform="translate(223.435603 16.318125) scale(0.12 -0.12)">
     <defs>
      <path id="DejaVuSans-4d" d="M 628 4666
L 1569 4666
L 2759 1491
L 3956 4666
L 4897 4666
L 4897 0
L 4281 0
L 4281 4097
L 3078 897
L 2444 897
L 1241 4097
L 1241 0
L 628 0
L 628 4666
z
" transform="scale(0.015625)"/>
      <path id="DejaVuSans-56" d="M 1831 0
L 50 4666
L 709 4666
L 2188 738
L 3669 4666
L 4325 4666
L 2547 0
L 1831 0
z
" transform="scale(0.015625)"/>
      <path id="DejaVuSans-52" d="M 2841 2188
Q 3044 2119 3236 1894
Q 3428 1669 3622 1275
L 4263 0
L 3584 0
L 2988 1197
Q 2756 1666 2539 1819
Q 2322 1972 1947 1972
L 1259 1972
L 1259 0
L 628 0
L 628 4666
L 2053 4666
Q 2853 4666 3247 4331
Q 3641 3997 3641 3322
Q 3641 2881 3436 2590
Q 3231 2300 2841 2188
z
M 1259 4147
L 1259 2491
L 2053 2491
Q 2509 2491 2742 2702
Q 2975 2913 2975 3322
Q 2975 3731 2742 3939
Q 2509 4147 2053 4147
L 1259 4147
z
" transform="scale(0.015625)"/>
      <path id="DejaVuSans-68" d="M 3513 2113
L 3513 0
L 2938 0
L 2938 2094
Q 2938 2591 2744 2837
Q 2550 3084 2163 3084
Q 1697 3084 1428 2787
Q 1159 2491 1159 1978
L 1159 0
L 581 0
L 581 4863
L 1159 4863
L 1159 2956
Q 1366 3272 1645 3428
Q 1925 3584 2291 3584
Q 2894 3584 3203 3211
Q 3513 2838 3513 2113
z
" transform="scale(0.015625)"/>
      <path id="DejaVuSans-4c" d="M 628 4666
L 1259 4666
L 1259 531
L 3531 531
L 3531 0
L 628 0
L 628 4666
z
" transform="scale(0.015625)"/>
      <path id="DejaVuSans-6b" d="M 581 4863
L 1159 4863
L 1159 1991
L 2875 3500
L 3609 3500
L 1753 1863
L 3688 0
L 2938 0
L 1159 1709
L 1159 0
L 581 0
L 581 4863
z
" transform="scale(0.015625)"/>
     </defs>
     <use xlink:href="#DejaVuSans-4d"/>
     <use xlink:href="#DejaVuSans-56" transform="translate(86.279297 0)"/>
     <use xlink:href="#DejaVuSans-52" transform="translate(154.6875 0)"/>
     <use xlink:href="#DejaVuSans-56" transform="translate(218.669922 0)"/>
     <use xlink:href="#DejaVuSans-20" transform="translate(287.078125 0)"/>
     <use xlink:href="#DejaVuSans-4d" transform="translate(318.865234 0)"/>
     <use xlink:href="#DejaVuSans-65" transform="translate(405.144531 0)"/>
     <use xlink:href="#DejaVuSans-63" transform="translate(466.667969 0)"/>
     <use xlink:href="#DejaVuSans-68" transform="translate(521.648438 0)"/>
     <use xlink:href="#DejaVuSans-61" transform="translate(585.027344 0)"/>
     <use xlink:href="#DejaVuSans-6e" transform="translate(646.306641 0)"/>
     <use xlink:href="#DejaVuSans-69" transform="translate(709.685547 0)"/>
     <use xlink:href="#DejaVuSans-63" transform="translate(737.46875 0)"/>
     <use xlink:href="#DejaVuSans-61" transform="translate(792.449219 0)"/>
     <use xlink:href="#DejaVuSans-6c" transform="translate(853.728516 0)"/>
     <use xlink:href="#DejaVuSans-20" transform="translate(881.511719 0)"/>
     <use xlink:href="#DejaVuSans-4c" transform="translate(913.298828 0)"/>
     <use xlink:href="#DejaVuSans-69" transform="translate(969.011719 0)"/>
     <use xlink:href="#DejaVuSans-6e" transform="translate(996.794922 0)"/>
     <use xlink:href="#DejaVuSans-6b" transform="translate(1060.173828 0)"/>
    </g>
   </g>
  </g>
  <g id="axes_2">
   <g id="patch_8">
    <path d="M 482.857433 259.634251
L 779.034576 259.634251
L 779.034576 22.318125
L 482.857433 22.318125
z
" style="fill: #ffffff"/>
   </g>
   <g id="patch_9">
    <path d="M 496.32003 259.634251
L 541.195355 259.634251
L 541.195355 33.618893
L 496.32003 33.618893
z
" clip-path="url(#pa241b71497)" style="fill: #2f6f9f"/>
   </g>
   <g id="patch_10">
    <path d="M 552.414186 259.634251
L 597.289511 259.634251
L 597.289511 101.745561
L 552.414186 101.745561
z
" clip-path="url(#pa241b71497)" style="fill: #2f6f9f"/>
   </g>
   <g id="patch_11">
    <path d="M 608.508342 259.634251
L 653.383667 259.634251
L 653.383667 36.042717
L 608.508342 36.042717
z
" clip-path="url(#pa241b71497)" style="fill: #2f6f9f"/>
   </g>
   <g id="patch_12">
    <path d="M 664.602498 259.634251
L 709.477823 259.634251
L 709.477823 86.824898
L 664.602498 86.824898
z
" clip-path="url(#pa241b71497)" style="fill: #2f6f9f"/>
   </g>
   <g id="patch_13">
    <path d="M 720.696654 259.634251
L 765.571978 259.634251
L 765.571978 53.478484
L 720.696654 53.478484
z
" clip-path="url(#pa241b71497)" style="fill: #2f6f9f"/>
   </g>
   <g id="matplotlib.axis_3">
    <g id="xtick_7">
     <g id="line2d_19">
      <path d="M 518.757693 259.634251
L 518.757693 22.318125
" clip-path="url(#pa241b71497)" style="fill: none; stroke: #b0b0b0; stroke-opacity: 0.22; stroke-width: 0.8; stroke-linecap: square"/>
     </g>
     <g id="line2d_20">
      <g>
       <use xlink:href="#m2b15e8bb2c" x="518.757693" y="259.634251" style="stroke: #000000; stroke-width: 0.8"/>
      </g>
     </g>
     <g id="text_12">
      <!-- Q1 low -->
      <g transform="translate(505.741908 285.949664) rotate(-25) scale(0.09 -0.09)">
       <defs>
        <path id="DejaVuSans-51" d="M 2522 4238
Q 1834 4238 1429 3725
Q 1025 3213 1025 2328
Q 1025 1447 1429 934
Q 1834 422 2522 422
Q 3209 422 3611 934
Q 4013 1447 4013 2328
Q 4013 3213 3611 3725
Q 3209 4238 2522 4238
z
M 3406 84
L 4238 -825
L 3475 -825
L 2784 -78
Q 2681 -84 2626 -87
Q 2572 -91 2522 -91
Q 1538 -91 948 567
Q 359 1225 359 2328
Q 359 3434 948 4092
Q 1538 4750 2522 4750
Q 3503 4750 4090 4092
Q 4678 3434 4678 2328
Q 4678 1516 4351 937
Q 4025 359 3406 84
z
" transform="scale(0.015625)"/>
        <path id="DejaVuSans-77" d="M 269 3500
L 844 3500
L 1563 769
L 2278 3500
L 2956 3500
L 3675 769
L 4391 3500
L 4966 3500
L 4050 0
L 3372 0
L 2619 2869
L 1863 0
L 1184 0
L 269 3500
z
" transform="scale(0.015625)"/>
       </defs>
       <use xlink:href="#DejaVuSans-51"/>
       <use xlink:href="#DejaVuSans-31" transform="translate(78.710938 0)"/>
       <use xlink:href="#DejaVuSans-20" transform="translate(142.333984 0)"/>
       <use xlink:href="#DejaVuSans-6c" transform="translate(174.121094 0)"/>
       <use xlink:href="#DejaVuSans-6f" transform="translate(201.904297 0)"/>
       <use xlink:href="#DejaVuSans-77" transform="translate(263.085938 0)"/>
      </g>
     </g>
    </g>
    <g id="xtick_8">
     <g id="line2d_21">
      <path d="M 574.851849 259.634251
L 574.851849 22.318125
" clip-path="url(#pa241b71497)" style="fill: none; stroke: #b0b0b0; stroke-opacity: 0.22; stroke-width: 0.8; stroke-linecap: square"/>
     </g>
     <g id="line2d_22">
      <g>
       <use xlink:href="#m2b15e8bb2c" x="574.851849" y="259.634251" style="stroke: #000000; stroke-width: 0.8"/>
      </g>
     </g>
     <g id="text_13">
      <!-- Q2 -->
      <g transform="translate(570.096068 278.246258) rotate(-25) scale(0.09 -0.09)">
       <use xlink:href="#DejaVuSans-51"/>
       <use xlink:href="#DejaVuSans-32" transform="translate(78.710938 0)"/>
      </g>
     </g>
    </g>
    <g id="xtick_9">
     <g id="line2d_23">
      <path d="M 630.946004 259.634251
L 630.946004 22.318125
" clip-path="url(#pa241b71497)" style="fill: none; stroke: #b0b0b0; stroke-opacity: 0.22; stroke-width: 0.8; stroke-linecap: square"/>
     </g>
     <g id="line2d_24">
      <g>
       <use xlink:href="#m2b15e8bb2c" x="630.946004" y="259.634251" style="stroke: #000000; stroke-width: 0.8"/>
      </g>
     </g>
     <g id="text_14">
      <!-- Q3 -->
      <g transform="translate(626.190224 278.246258) rotate(-25) scale(0.09 -0.09)">
       <defs>
        <path id="DejaVuSans-33" d="M 2597 2516
Q 3050 2419 3304 2112
Q 3559 1806 3559 1356
Q 3559 666 3084 287
Q 2609 -91 1734 -91
Q 1441 -91 1130 -33
Q 819 25 488 141
L 488 750
Q 750 597 1062 519
Q 1375 441 1716 441
Q 2309 441 2620 675
Q 2931 909 2931 1356
Q 2931 1769 2642 2001
Q 2353 2234 1838 2234
L 1294 2234
L 1294 2753
L 1863 2753
Q 2328 2753 2575 2939
Q 2822 3125 2822 3475
Q 2822 3834 2567 4026
Q 2313 4219 1838 4219
Q 1578 4219 1281 4162
Q 984 4106 628 3988
L 628 4550
Q 988 4650 1302 4700
Q 1616 4750 1894 4750
Q 2613 4750 3031 4423
Q 3450 4097 3450 3541
Q 3450 3153 3228 2886
Q 3006 2619 2597 2516
z
" transform="scale(0.015625)"/>
       </defs>
       <use xlink:href="#DejaVuSans-51"/>
       <use xlink:href="#DejaVuSans-33" transform="translate(78.710938 0)"/>
      </g>
     </g>
    </g>
    <g id="xtick_10">
     <g id="line2d_25">
      <path d="M 687.04016 259.634251
L 687.04016 22.318125
" clip-path="url(#pa241b71497)" style="fill: none; stroke: #b0b0b0; stroke-opacity: 0.22; stroke-width: 0.8; stroke-linecap: square"/>
     </g>
     <g id="line2d_26">
      <g>
       <use xlink:href="#m2b15e8bb2c" x="687.04016" y="259.634251" style="stroke: #000000; stroke-width: 0.8"/>
      </g>
     </g>
     <g id="text_15">
      <!-- Q4 -->
      <g transform="translate(682.28438 278.246258) rotate(-25) scale(0.09 -0.09)">
       <use xlink:href="#DejaVuSans-51"/>
       <use xlink:href="#DejaVuSans-34" transform="translate(78.710938 0)"/>
      </g>
     </g>
    </g>
    <g id="xtick_11">
     <g id="line2d_27">
      <path d="M 743.134316 259.634251
L 743.134316 22.318125
" clip-path="url(#pa241b71497)" style="fill: none; stroke: #b0b0b0; stroke-opacity: 0.22; stroke-width: 0.8; stroke-linecap: square"/>
     </g>
     <g id="line2d_28">
      <g>
       <use xlink:href="#m2b15e8bb2c" x="743.134316" y="259.634251" style="stroke: #000000; stroke-width: 0.8"/>
      </g>
     </g>
     <g id="text_16">
      <!-- Q5 high -->
      <g transform="translate(728.190858 287.747442) rotate(-25) scale(0.09 -0.09)">
       <defs>
        <path id="DejaVuSans-35" d="M 691 4666
L 3169 4666
L 3169 4134
L 1269 4134
L 1269 2991
Q 1406 3038 1543 3061
Q 1681 3084 1819 3084
Q 2600 3084 3056 2656
Q 3513 2228 3513 1497
Q 3513 744 3044 326
Q 2575 -91 1722 -91
Q 1428 -91 1123 -41
Q 819 9 494 109
L 494 744
Q 775 591 1075 516
Q 1375 441 1709 441
Q 2250 441 2565 725
Q 2881 1009 2881 1497
Q 2881 1984 2565 2268
Q 2250 2553 1709 2553
Q 1456 2553 1204 2497
Q 953 2441 691 2322
L 691 4666
z
" transform="scale(0.015625)"/>
       </defs>
       <use xlink:href="#DejaVuSans-51"/>
       <use xlink:href="#DejaVuSans-35" transform="translate(78.710938 0)"/>
       <use xlink:href="#DejaVuSans-20" transform="translate(142.333984 0)"/>
       <use xlink:href="#DejaVuSans-68" transform="translate(174.121094 0)"/>
       <use xlink:href="#DejaVuSans-69" transform="translate(237.5 0)"/>
       <use xlink:href="#DejaVuSans-67" transform="translate(265.283203 0)"/>
       <use xlink:href="#DejaVuSans-68" transform="translate(328.759766 0)"/>
      </g>
     </g>
    </g>
   </g>
   <g id="matplotlib.axis_4">
    <g id="ytick_4">
     <g id="line2d_29">
      <path d="M 482.857433 259.634251
L 779.034576 259.634251
" clip-path="url(#pa241b71497)" style="fill: none; stroke: #b0b0b0; stroke-opacity: 0.22; stroke-width: 0.8; stroke-linecap: square"/>
     </g>
     <g id="line2d_30">
      <g>
       <use xlink:href="#m97b7dc8412" x="482.857433" y="259.634251" style="stroke: #000000; stroke-width: 0.8"/>
      </g>
     </g>
     <g id="text_17">
      <!-- 0.0 -->
      <g transform="translate(461.544621 263.053547) scale(0.09 -0.09)">
       <use xlink:href="#DejaVuSans-30"/>
       <use xlink:href="#DejaVuSans-2e" transform="translate(63.623047 0)"/>
       <use xlink:href="#DejaVuSans-30" transform="translate(95.410156 0)"/>
      </g>
     </g>
    </g>
    <g id="ytick_5">
     <g id="line2d_31">
      <path d="M 482.857433 223.945414
L 779.034576 223.945414
" clip-path="url(#pa241b71497)" style="fill: none; stroke: #b0b0b0; stroke-opacity: 0.22; stroke-width: 0.8; stroke-linecap: square"/>
     </g>
     <g id="line2d_32">
      <g>
       <use xlink:href="#m97b7dc8412" x="482.857433" y="223.945414" style="stroke: #000000; stroke-width: 0.8"/>
      </g>
     </g>
     <g id="text_18">
      <!-- 0.1 -->
      <g transform="translate(461.544621 227.364711) scale(0.09 -0.09)">
       <use xlink:href="#DejaVuSans-30"/>
       <use xlink:href="#DejaVuSans-2e" transform="translate(63.623047 0)"/>
       <use xlink:href="#DejaVuSans-31" transform="translate(95.410156 0)"/>
      </g>
     </g>
    </g>
    <g id="ytick_6">
     <g id="line2d_33">
      <path d="M 482.857433 188.256578
L 779.034576 188.256578
" clip-path="url(#pa241b71497)" style="fill: none; stroke: #b0b0b0; stroke-opacity: 0.22; stroke-width: 0.8; stroke-linecap: square"/>
     </g>
     <g id="line2d_34">
      <g>
       <use xlink:href="#m97b7dc8412" x="482.857433" y="188.256578" style="stroke: #000000; stroke-width: 0.8"/>
      </g>
     </g>
     <g id="text_19">
      <!-- 0.2 -->
      <g transform="translate(461.544621 191.675875) scale(0.09 -0.09)">
       <use xlink:href="#DejaVuSans-30"/>
       <use xlink:href="#DejaVuSans-2e" transform="translate(63.623047 0)"/>
       <use xlink:href="#DejaVuSans-32" transform="translate(95.410156 0)"/>
      </g>
     </g>
    </g>
    <g id="ytick_7">
     <g id="line2d_35">
      <path d="M 482.857433 152.567742
L 779.034576 152.567742
" clip-path="url(#pa241b71497)" style="fill: none; stroke: #b0b0b0; stroke-opacity: 0.22; stroke-width: 0.8; stroke-linecap: square"/>
     </g>
     <g id="line2d_36">
      <g>
       <use xlink:href="#m97b7dc8412" x="482.857433" y="152.567742" style="stroke: #000000; stroke-width: 0.8"/>
      </g>
     </g>
     <g id="text_20">
      <!-- 0.3 -->
      <g transform="translate(461.544621 155.987039) scale(0.09 -0.09)">
       <use xlink:href="#DejaVuSans-30"/>
       <use xlink:href="#DejaVuSans-2e" transform="translate(63.623047 0)"/>
       <use xlink:href="#DejaVuSans-33" transform="translate(95.410156 0)"/>
      </g>
     </g>
    </g>
    <g id="ytick_8">
     <g id="line2d_37">
      <path d="M 482.857433 116.878906
L 779.034576 116.878906
" clip-path="url(#pa241b71497)" style="fill: none; stroke: #b0b0b0; stroke-opacity: 0.22; stroke-width: 0.8; stroke-linecap: square"/>
     </g>
     <g id="line2d_38">
      <g>
       <use xlink:href="#m97b7dc8412" x="482.857433" y="116.878906" style="stroke: #000000; stroke-width: 0.8"/>
      </g>
     </g>
     <g id="text_21">
      <!-- 0.4 -->
      <g transform="translate(461.544621 120.298203) scale(0.09 -0.09)">
       <use xlink:href="#DejaVuSans-30"/>
       <use xlink:href="#DejaVuSans-2e" transform="translate(63.623047 0)"/>
       <use xlink:href="#DejaVuSans-34" transform="translate(95.410156 0)"/>
      </g>
     </g>
    </g>
    <g id="ytick_9">
     <g id="line2d_39">
      <path d="M 482.857433 81.19007
L 779.034576 81.19007
" clip-path="url(#pa241b71497)" style="fill: none; stroke: #b0b0b0; stroke-opacity: 0.22; stroke-width: 0.8; stroke-linecap: square"/>
     </g>
     <g id="line2d_40">
      <g>
       <use xlink:href="#m97b7dc8412" x="482.857433" y="81.19007" style="stroke: #000000; stroke-width: 0.8"/>
      </g>
     </g>
     <g id="text_22">
      <!-- 0.5 -->
      <g transform="translate(461.544621 84.609367) scale(0.09 -0.09)">
       <use xlink:href="#DejaVuSans-30"/>
       <use xlink:href="#DejaVuSans-2e" transform="translate(63.623047 0)"/>
       <use xlink:href="#DejaVuSans-35" transform="translate(95.410156 0)"/>
      </g>
     </g>
    </g>
    <g id="ytick_10">
     <g id="line2d_41">
      <path d="M 482.857433 45.501234
L 779.034576 45.501234
" clip-path="url(#pa241b71497)" style="fill: none; stroke: #b0b0b0; stroke-opacity: 0.22; stroke-width: 0.8; stroke-linecap: square"/>
     </g>
     <g id="line2d_42">
      <g>
       <use xlink:href="#m97b7dc8412" x="482.857433" y="45.501234" style="stroke: #000000; stroke-width: 0.8"/>
      </g>
     </g>
     <g id="text_23">
      <!-- 0.6 -->
      <g transform="translate(461.544621 48.920531) scale(0.09 -0.09)">
       <use xlink:href="#DejaVuSans-30"/>
       <use xlink:href="#DejaVuSans-2e" transform="translate(63.623047 0)"/>
       <use xlink:href="#DejaVuSans-36" transform="translate(95.410156 0)"/>
      </g>
     </g>
    </g>
    <g id="text_24">
     <!-- Median 30d realized vol -->
     <g transform="translate(455.672902 194.647828) rotate(-90) scale(0.09 -0.09)">
      <defs>
       <path id="DejaVuSans-7a" d="M 353 3500
L 3084 3500
L 3084 2975
L 922 459
L 3084 459
L 3084 0
L 275 0
L 275 525
L 2438 3041
L 353 3041
L 353 3500
z
" transform="scale(0.015625)"/>
      </defs>
      <use xlink:href="#DejaVuSans-4d"/>
      <use xlink:href="#DejaVuSans-65" transform="translate(86.279297 0)"/>
      <use xlink:href="#DejaVuSans-64" transform="translate(147.802734 0)"/>
      <use xlink:href="#DejaVuSans-69" transform="translate(211.279297 0)"/>
      <use xlink:href="#DejaVuSans-61" transform="translate(239.0625 0)"/>
      <use xlink:href="#DejaVuSans-6e" transform="translate(300.341797 0)"/>
      <use xlink:href="#DejaVuSans-20" transform="translate(363.720703 0)"/>
      <use xlink:href="#DejaVuSans-33" transform="translate(395.507812 0)"/>
      <use xlink:href="#DejaVuSans-30" transform="translate(459.130859 0)"/>
      <use xlink:href="#DejaVuSans-64" transform="translate(522.753906 0)"/>
      <use xlink:href="#DejaVuSans-20" transform="translate(586.230469 0)"/>
      <use xlink:href="#DejaVuSans-72" transform="translate(618.017578 0)"/>
      <use xlink:href="#DejaVuSans-65" transform="translate(656.880859 0)"/>
      <use xlink:href="#DejaVuSans-61" transform="translate(718.404297 0)"/>
      <use xlink:href="#DejaVuSans-6c" transform="translate(779.683594 0)"/>
      <use xlink:href="#DejaVuSans-69" transform="translate(807.466797 0)"/>
      <use xlink:href="#DejaVuSans-7a" transform="translate(835.25 0)"/>
      <use xlink:href="#DejaVuSans-65" transform="translate(887.740234 0)"/>
      <use xlink:href="#DejaVuSans-64" transform="translate(949.263672 0)"/>
      <use xlink:href="#DejaVuSans-20" transform="translate(1012.740234 0)"/>
      <use xlink:href="#DejaVuSans-76" transform="translate(1044.527344 0)"/>
      <use xlink:href="#DejaVuSans-6f" transform="translate(1103.707031 0)"/>
      <use xlink:href="#DejaVuSans-6c" transform="translate(1164.888672 0)"/>
     </g>
    </g>
   </g>
   <g id="patch_14">
    <path d="M 482.857433 259.634251
L 482.857433 22.318125
" style="fill: none; stroke: #000000; stroke-width: 0.8; stroke-linejoin: miter; stroke-linecap: square"/>
   </g>
   <g id="patch_15">
    <path d="M 482.857433 259.634251
L 779.034576 259.634251
" style="fill: none; stroke: #000000; stroke-width: 0.8; stroke-linejoin: miter; stroke-linecap: square"/>
   </g>
   <g id="text_25">
    <!-- Lagged MVRV State And Volatility -->
    <g transform="translate(530.446004 16.318125) scale(0.12 -0.12)">
     <defs>
      <path id="DejaVuSans-41" d="M 2188 4044
L 1331 1722
L 3047 1722
L 2188 4044
z
M 1831 4666
L 2547 4666
L 4325 0
L 3669 0
L 3244 1197
L 1141 1197
L 716 0
L 50 0
L 1831 4666
z
" transform="scale(0.015625)"/>
     </defs>
     <use xlink:href="#DejaVuSans-4c"/>
     <use xlink:href="#DejaVuSans-61" transform="translate(55.712891 0)"/>
     <use xlink:href="#DejaVuSans-67" transform="translate(116.992188 0)"/>
     <use xlink:href="#DejaVuSans-67" transform="translate(180.46875 0)"/>
     <use xlink:href="#DejaVuSans-65" transform="translate(243.945312 0)"/>
     <use xlink:href="#DejaVuSans-64" transform="translate(305.46875 0)"/>
     <use xlink:href="#DejaVuSans-20" transform="translate(368.945312 0)"/>
     <use xlink:href="#DejaVuSans-4d" transform="translate(400.732422 0)"/>
     <use xlink:href="#DejaVuSans-56" transform="translate(487.011719 0)"/>
     <use xlink:href="#DejaVuSans-52" transform="translate(555.419922 0)"/>
     <use xlink:href="#DejaVuSans-56" transform="translate(619.402344 0)"/>
     <use xlink:href="#DejaVuSans-20" transform="translate(687.810547 0)"/>
     <use xlink:href="#DejaVuSans-53" transform="translate(719.597656 0)"/>
     <use xlink:href="#DejaVuSans-74" transform="translate(783.074219 0)"/>
     <use xlink:href="#DejaVuSans-61" transform="translate(822.283203 0)"/>
     <use xlink:href="#DejaVuSans-74" transform="translate(883.5625 0)"/>
     <use xlink:href="#DejaVuSans-65" transform="translate(922.771484 0)"/>
     <use xlink:href="#DejaVuSans-20" transform="translate(984.294922 0)"/>
     <use xlink:href="#DejaVuSans-41" transform="translate(1016.082031 0)"/>
     <use xlink:href="#DejaVuSans-6e" transform="translate(1084.490234 0)"/>
     <use xlink:href="#DejaVuSans-64" transform="translate(1147.869141 0)"/>
     <use xlink:href="#DejaVuSans-20" transform="translate(1211.345703 0)"/>
     <use xlink:href="#DejaVuSans-56" transform="translate(1243.132812 0)"/>
     <use xlink:href="#DejaVuSans-6f" transform="translate(1303.791016 0)"/>
     <use xlink:href="#DejaVuSans-6c" transform="translate(1364.972656 0)"/>
     <use xlink:href="#DejaVuSans-61" transform="translate(1392.755859 0)"/>
     <use xlink:href="#DejaVuSans-74" transform="translate(1454.035156 0)"/>
     <use xlink:href="#DejaVuSans-69" transform="translate(1493.244141 0)"/>
     <use xlink:href="#DejaVuSans-6c" transform="translate(1521.027344 0)"/>
     <use xlink:href="#DejaVuSans-69" transform="translate(1548.810547 0)"/>
     <use xlink:href="#DejaVuSans-74" transform="translate(1576.59375 0)"/>
     <use xlink:href="#DejaVuSans-79" transform="translate(1615.802734 0)"/>
    </g>
   </g>
  </g>
 </g>
 <defs>
  <clipPath id="pe4c2f9104e">
   <rect x="142.431719" y="22.318125" width="296.177143" height="237.316126"/>
  </clipPath>
  <clipPath id="pa241b71497">
   <rect x="482.857433" y="22.318125" width="296.177143" height="237.316126"/>
  </clipPath>
 </defs>
</svg>
