<?xml version="1.0" encoding="utf-8" standalone="no"?>
<!DOCTYPE svg PUBLIC "-//W3C//DTD SVG 1.1//EN"
  "http://www.w3.org/Graphics/SVG/1.1/DTD/svg11.dtd">
<svg xmlns:xlink="http://www.w3.org/1999/xlink" width="812.268125pt" height="423.693125pt" viewBox="0 0 812.268125 423.693125" xmlns="http://www.w3.org/2000/svg" version="1.1">
 <metadata>
  <rdf:RDF xmlns:dc="http://purl.org/dc/elements/1.1/" xmlns:cc="http://creativecommons.org/ns#" xmlns:rdf="http://www.w3.org/1999/02/22-rdf-syntax-ns#">
   <cc:Work>
    <dc:type rdf:resource="http://purl.org/dc/dcmitype/StillImage"/>
    <dc:format>image/svg+xml</dc:format>
    <dc:creator>
     <cc:Agent>
      <dc:title>Matplotlib v3.10.8, https://matplotlib.org/</dc:title>
     </cc:Agent>
    </dc:creator>
   </cc:Work>
  </rdf:RDF>
 </metadata>
 <defs>
  <style type="text/css">*{stroke-linejoin: round; stroke-linecap: butt}</style>
 </defs>
 <g id="figure_1">
  <g id="patch_1">
   <path d="M 0 423.693125
L 812.268125 423.693125
L 812.268125 0
L 0 0
z
" style="fill: #ffffff"/>
  </g>
  <g id="axes_1">
   <g id="patch_2">
    <path d="M 44.748125 403.29
L 805.068125 403.29
L 805.068125 92.25
L 44.748125 92.25
z
" style="fill: #ffffff"/>
   </g>
   <g id="matplotlib.axis_1">
    <g id="xtick_1">
     <g id="text_1">
      <!-- BTC -->
      <g style="fill: #6f768a" transform="translate(195.237632 414.193125) scale(0.1 -0.1)">
       <defs>
        <path id="SegoeUI-42" d="M 588 0
L 588 4481
L 1863 4481
Q 2444 4481 2784 4197
Q 3125 3913 3125 3456
Q 3125 3075 2919 2794
Q 2713 2513 2350 2394
L 2350 2381
Q 2803 2328 3075 2039
Q 3347 1750 3347 1288
Q 3347 713 2934 356
Q 2522 0 1894 0
L 588 0
z
M 1113 4006
L 1113 2559
L 1650 2559
Q 2081 2559 2328 2767
Q 2575 2975 2575 3353
Q 2575 4006 1716 4006
L 1113 4006
z
M 1113 2088
L 1113 475
L 1825 475
Q 2288 475 2542 694
Q 2797 913 2797 1294
Q 2797 2088 1716 2088
L 1113 2088
z
" transform="scale(0.015625)"/>
        <path id="SegoeUI-54" d="M 3238 4006
L 1944 4006
L 1944 0
L 1419 0
L 1419 4006
L 128 4006
L 128 4481
L 3238 4481
L 3238 4006
z
" transform="scale(0.015625)"/>
        <path id="SegoeUI-43" d="M 3638 188
Q 3141 -75 2400 -75
Q 1444 -75 869 540
Q 294 1156 294 2156
Q 294 3231 941 3893
Q 1588 4556 2581 4556
Q 3219 4556 3638 4372
L 3638 3813
Q 3156 4081 2575 4081
Q 1803 4081 1323 3565
Q 844 3050 844 2188
Q 844 1369 1292 883
Q 1741 397 2469 397
Q 3144 397 3638 697
L 3638 188
z
" transform="scale(0.015625)"/>
       </defs>
       <use xlink:href="#SegoeUI-42"/>
       <use xlink:href="#SegoeUI-54" transform="translate(52.824219 0)"/>
       <use xlink:href="#SegoeUI-43" transform="translate(100.716797 0)"/>
      </g>
     </g>
    </g>
    <g id="xtick_2">
     <g id="text_2">
      <!-- ETH -->
      <g style="fill: #6f768a" transform="translate(637.734868 414.193125) scale(0.1 -0.1)">
       <defs>
        <path id="SegoeUI-45" d="M 2963 0
L 588 0
L 588 4481
L 2863 4481
L 2863 4006
L 1113 4006
L 1113 2516
L 2731 2516
L 2731 2044
L 1113 2044
L 1113 475
L 2963 475
L 2963 0
z
" transform="scale(0.015625)"/>
        <path id="SegoeUI-48" d="M 3956 0
L 3431 0
L 3431 2044
L 1113 2044
L 1113 0
L 588 0
L 588 4481
L 1113 4481
L 1113 2516
L 3431 2516
L 3431 4481
L 3956 4481
L 3956 0
z
" transform="scale(0.015625)"/>
       </defs>
       <use xlink:href="#SegoeUI-45"/>
       <use xlink:href="#SegoeUI-54" transform="translate(50.835938 0)"/>
       <use xlink:href="#SegoeUI-48" transform="translate(103.228516 0)"/>
      </g>
     </g>
    </g>
   </g>
   <g id="matplotlib.axis_2">
    <g id="ytick_1">
     <g id="line2d_1">
      <path d="M 44.748125 403.29
L 805.068125 403.29
" clip-path="url(#peef7439c6b)" style="fill: none; stroke: #e8ebf2; stroke-width: 0.8; stroke-linecap: round"/>
     </g>
     <g id="text_3">
      <!-- 0.00 -->
      <g style="fill: #6f768a" transform="translate(22.9075 406.991562) scale(0.1 -0.1)">
       <defs>
        <path id="SegoeUI-30" d="M 3188 2259
Q 3188 1697 3086 1262
Q 2984 828 2792 529
Q 2600 231 2320 76
Q 2041 -78 1684 -78
Q 1347 -78 1083 70
Q 819 219 637 503
Q 456 788 362 1202
Q 269 1616 269 2150
Q 269 2738 367 3188
Q 466 3638 656 3942
Q 847 4247 1130 4401
Q 1413 4556 1778 4556
Q 3188 4556 3188 2259
z
M 2663 2209
Q 2663 4122 1753 4122
Q 794 4122 794 2175
Q 794 359 1734 359
Q 2663 359 2663 2209
z
" transform="scale(0.015625)"/>
        <path id="SegoeUI-2e" d="M 697 -69
Q 553 -69 451 34
Q 350 138 350 281
Q 350 425 451 529
Q 553 634 697 634
Q 844 634 947 529
Q 1050 425 1050 281
Q 1050 138 947 34
Q 844 -69 697 -69
z
" transform="scale(0.015625)"/>
       </defs>
       <use xlink:href="#SegoeUI-30"/>
       <use xlink:href="#SegoeUI-2e" transform="translate(53.90625 0)"/>
       <use xlink:href="#SegoeUI-30" transform="translate(75.585938 0)"/>
       <use xlink:href="#SegoeUI-30" transform="translate(129.492188 0)"/>
      </g>
     </g>
    </g>
    <g id="ytick_2">
     <g id="line2d_2">
      <path d="M 44.748125 358.125806
L 805.068125 358.125806
" clip-path="url(#peef7439c6b)" style="fill: none; stroke: #e8ebf2; stroke-width: 0.8; stroke-linecap: round"/>
     </g>
     <g id="text_4">
      <!-- 0.02 -->
      <g style="fill: #6f768a" transform="translate(22.9075 361.827368) scale(0.1 -0.1)">
       <defs>
        <path id="SegoeUI-32" d="M 2413 3306
Q 2413 3513 2348 3666
Q 2284 3819 2173 3920
Q 2063 4022 1913 4072
Q 1763 4122 1588 4122
Q 1438 4122 1294 4081
Q 1150 4041 1014 3969
Q 878 3897 751 3797
Q 625 3697 516 3575
L 516 4125
Q 731 4334 998 4445
Q 1266 4556 1650 4556
Q 1925 4556 2159 4476
Q 2394 4397 2566 4244
Q 2738 4091 2836 3866
Q 2934 3641 2934 3350
Q 2934 3084 2873 2868
Q 2813 2653 2689 2462
Q 2566 2272 2378 2097
Q 2191 1922 1938 1741
Q 1622 1516 1417 1356
Q 1213 1197 1092 1058
Q 972 919 923 780
Q 875 641 875 459
L 3106 459
L 3106 0
L 341 0
L 341 222
Q 341 509 403 728
Q 466 947 609 1144
Q 753 1341 986 1537
Q 1219 1734 1556 1981
Q 1800 2156 1964 2315
Q 2128 2475 2228 2634
Q 2328 2794 2370 2958
Q 2413 3122 2413 3306
z
" transform="scale(0.015625)"/>
       </defs>
       <use xlink:href="#SegoeUI-30"/>
       <use xlink:href="#SegoeUI-2e" transform="translate(53.90625 0)"/>
       <use xlink:href="#SegoeUI-30" transform="translate(75.585938 0)"/>
       <use xlink:href="#SegoeUI-32" transform="translate(129.492188 0)"/>
      </g>
     </g>
    </g>
    <g id="ytick_3">
     <g id="line2d_3">
      <path d="M 44.748125 312.961611
L 805.068125 312.961611
" clip-path="url(#peef7439c6b)" style="fill: none; stroke: #e8ebf2; stroke-width: 0.8; stroke-linecap: round"/>
     </g>
     <g id="text_5">
      <!-- 0.04 -->
      <g style="fill: #6f768a" transform="translate(22.9075 316.663174) scale(0.1 -0.1)">
       <defs>
        <path id="SegoeUI-34" d="M 2656 4481
L 2656 1522
L 3231 1522
L 3231 1053
L 2656 1053
L 2656 0
L 2150 0
L 2150 1053
L 44 1053
L 44 1497
Q 338 1828 638 2204
Q 938 2581 1211 2968
Q 1484 3356 1717 3742
Q 1950 4128 2109 4481
L 2656 4481
z
M 622 1522
L 2150 1522
L 2150 3716
Q 1916 3306 1706 2984
Q 1497 2663 1308 2400
Q 1119 2138 947 1925
Q 775 1713 622 1522
z
" transform="scale(0.015625)"/>
       </defs>
       <use xlink:href="#SegoeUI-30"/>
       <use xlink:href="#SegoeUI-2e" transform="translate(53.90625 0)"/>
       <use xlink:href="#SegoeUI-30" transform="translate(75.585938 0)"/>
       <use xlink:href="#SegoeUI-34" transform="translate(129.492188 0)"/>
      </g>
     </g>
    </g>
    <g id="ytick_4">
     <g id="line2d_4">
      <path d="M 44.748125 267.797417
L 805.068125 267.797417
" clip-path="url(#peef7439c6b)" style="fill: none; stroke: #e8ebf2; stroke-width: 0.8; stroke-linecap: round"/>
     </g>
     <g id="text_6">
      <!-- 0.06 -->
      <g style="fill: #6f768a" transform="translate(22.9075 271.498979) scale(0.1 -0.1)">
       <defs>
        <path id="SegoeUI-36" d="M 3194 1422
Q 3194 1094 3087 819
Q 2981 544 2793 344
Q 2606 144 2347 33
Q 2088 -78 1784 -78
Q 1447 -78 1180 62
Q 913 203 727 467
Q 541 731 444 1112
Q 347 1494 347 1972
Q 347 2556 476 3032
Q 606 3509 845 3848
Q 1084 4188 1421 4372
Q 1759 4556 2175 4556
Q 2638 4556 2919 4428
L 2919 3944
Q 2572 4122 2188 4122
Q 1888 4122 1647 3987
Q 1406 3853 1234 3608
Q 1063 3363 970 3016
Q 878 2669 878 2244
L 891 2244
Q 1200 2803 1913 2803
Q 2206 2803 2442 2703
Q 2678 2603 2845 2420
Q 3013 2238 3103 1984
Q 3194 1731 3194 1422
z
M 2669 1356
Q 2669 1591 2609 1778
Q 2550 1966 2439 2097
Q 2328 2228 2165 2298
Q 2003 2369 1797 2369
Q 1606 2369 1443 2297
Q 1281 2225 1162 2101
Q 1044 1978 976 1814
Q 909 1650 909 1466
Q 909 1234 975 1032
Q 1041 831 1159 681
Q 1278 531 1442 445
Q 1606 359 1806 359
Q 2000 359 2159 432
Q 2319 506 2431 637
Q 2544 769 2606 951
Q 2669 1134 2669 1356
z
" transform="scale(0.015625)"/>
       </defs>
       <use xlink:href="#SegoeUI-30"/>
       <use xlink:href="#SegoeUI-2e" transform="translate(53.90625 0)"/>
       <use xlink:href="#SegoeUI-30" transform="translate(75.585938 0)"/>
       <use xlink:href="#SegoeUI-36" transform="translate(129.492188 0)"/>
      </g>
     </g>
    </g>
    <g id="ytick_5">
     <g id="line2d_5">
      <path d="M 44.748125 222.633222
L 805.068125 222.633222
" clip-path="url(#peef7439c6b)" style="fill: none; stroke: #e8ebf2; stroke-width: 0.8; stroke-linecap: round"/>
     </g>
     <g id="text_7">
      <!-- 0.08 -->
      <g style="fill: #6f768a" transform="translate(22.9075 226.334785) scale(0.1 -0.1)">
       <defs>
        <path id="SegoeUI-38" d="M 281 1250
Q 281 1428 337 1608
Q 394 1788 498 1944
Q 603 2100 758 2228
Q 913 2356 1109 2431
Q 819 2594 647 2848
Q 475 3103 475 3413
Q 475 3659 570 3868
Q 666 4078 834 4231
Q 1003 4384 1234 4470
Q 1466 4556 1734 4556
Q 2006 4556 2237 4468
Q 2469 4381 2637 4228
Q 2806 4075 2900 3865
Q 2994 3656 2994 3413
Q 2994 3103 2822 2848
Q 2650 2594 2366 2431
Q 2559 2356 2712 2228
Q 2866 2100 2970 1944
Q 3075 1788 3131 1608
Q 3188 1428 3188 1250
Q 3188 956 3081 712
Q 2975 469 2783 295
Q 2591 122 2323 25
Q 2056 -72 1734 -72
Q 1416 -72 1150 25
Q 884 122 690 295
Q 497 469 389 712
Q 281 956 281 1250
z
M 838 1294
Q 838 1084 902 915
Q 966 747 1083 628
Q 1200 509 1367 445
Q 1534 381 1738 381
Q 1934 381 2100 447
Q 2266 513 2386 631
Q 2506 750 2573 919
Q 2641 1088 2641 1294
Q 2641 1481 2577 1645
Q 2513 1809 2394 1934
Q 2275 2059 2109 2131
Q 1944 2203 1738 2203
Q 1544 2203 1380 2136
Q 1216 2069 1095 1948
Q 975 1828 906 1661
Q 838 1494 838 1294
z
M 997 3372
Q 997 3213 1055 3077
Q 1113 2941 1214 2839
Q 1316 2738 1450 2680
Q 1584 2622 1738 2622
Q 1891 2622 2027 2681
Q 2163 2741 2263 2842
Q 2363 2944 2422 3080
Q 2481 3216 2481 3372
Q 2481 3534 2423 3671
Q 2366 3809 2266 3909
Q 2166 4009 2030 4067
Q 1894 4125 1738 4125
Q 1572 4125 1436 4065
Q 1300 4006 1201 3904
Q 1103 3803 1050 3665
Q 997 3528 997 3372
z
" transform="scale(0.015625)"/>
       </defs>
       <use xlink:href="#SegoeUI-30"/>
       <use xlink:href="#SegoeUI-2e" transform="translate(53.90625 0)"/>
       <use xlink:href="#SegoeUI-30" transform="translate(75.585938 0)"/>
       <use xlink:href="#SegoeUI-38" transform="translate(129.492188 0)"/>
      </g>
     </g>
    </g>
    <g id="ytick_6">
     <g id="line2d_6">
      <path d="M 44.748125 177.469028
L 805.068125 177.469028
" clip-path="url(#peef7439c6b)" style="fill: none; stroke: #e8ebf2; stroke-width: 0.8; stroke-linecap: round"/>
     </g>
     <g id="text_8">
      <!-- 0.10 -->
      <g style="fill: #6f768a" transform="translate(22.9075 181.17059) scale(0.1 -0.1)">
       <defs>
        <path id="SegoeUI-31" d="M 2263 0
L 1750 0
L 1750 3872
Q 1691 3813 1577 3736
Q 1463 3659 1320 3584
Q 1178 3509 1020 3443
Q 863 3378 713 3341
L 713 3859
Q 881 3906 1070 3986
Q 1259 4066 1442 4164
Q 1625 4263 1787 4370
Q 1950 4478 2069 4581
L 2263 4581
L 2263 0
z
" transform="scale(0.015625)"/>
       </defs>
       <use xlink:href="#SegoeUI-30"/>
       <use xlink:href="#SegoeUI-2e" transform="translate(53.90625 0)"/>
       <use xlink:href="#SegoeUI-31" transform="translate(75.585938 0)"/>
       <use xlink:href="#SegoeUI-30" transform="translate(129.492188 0)"/>
      </g>
     </g>
    </g>
    <g id="ytick_7">
     <g id="line2d_7">
      <path d="M 44.748125 132.304833
L 805.068125 132.304833
" clip-path="url(#peef7439c6b)" style="fill: none; stroke: #e8ebf2; stroke-width: 0.8; stroke-linecap: round"/>
     </g>
     <g id="text_9">
      <!-- 0.12 -->
      <g style="fill: #6f768a" transform="translate(22.9075 136.006396) scale(0.1 -0.1)">
       <use xlink:href="#SegoeUI-30"/>
       <use xlink:href="#SegoeUI-2e" transform="translate(53.90625 0)"/>
       <use xlink:href="#SegoeUI-31" transform="translate(75.585938 0)"/>
       <use xlink:href="#SegoeUI-32" transform="translate(129.492188 0)"/>
      </g>
     </g>
    </g>
    <g id="text_10">
     <!-- Equity block delta R-squared -->
     <g style="fill: #1f2430" transform="translate(16.08375 323.705625) rotate(-90) scale(0.12 -0.12)">
      <defs>
       <path id="SegoeUI-71" d="M 3250 -1472
L 2738 -1472
L 2738 550
L 2725 550
Q 2391 -75 1631 -75
Q 1028 -75 664 354
Q 300 784 300 1525
Q 300 2322 700 2798
Q 1100 3275 1775 3275
Q 2431 3275 2725 2756
L 2738 2756
L 2738 3200
L 3250 3200
L 3250 -1472
z
M 2738 1441
L 2738 1906
Q 2738 2300 2480 2572
Q 2222 2844 1825 2844
Q 1363 2844 1094 2501
Q 825 2159 825 1538
Q 825 984 1084 670
Q 1344 356 1753 356
Q 2203 356 2470 664
Q 2738 972 2738 1441
z
" transform="scale(0.015625)"/>
       <path id="SegoeUI-75" d="M 3106 0
L 2594 0
L 2594 506
L 2581 506
Q 2263 -75 1594 -75
Q 450 -75 450 1288
L 450 3200
L 959 3200
L 959 1369
Q 959 356 1734 356
Q 2109 356 2351 632
Q 2594 909 2594 1356
L 2594 3200
L 3106 3200
L 3106 0
z
" transform="scale(0.015625)"/>
       <path id="SegoeUI-69" d="M 781 4013
Q 644 4013 547 4106
Q 450 4200 450 4344
Q 450 4488 547 4583
Q 644 4678 781 4678
Q 922 4678 1020 4583
Q 1119 4488 1119 4344
Q 1119 4206 1020 4109
Q 922 4013 781 4013
z
M 1031 0
L 519 0
L 519 3200
L 1031 3200
L 1031 0
z
" transform="scale(0.015625)"/>
       <path id="SegoeUI-74" d="M 2003 31
Q 1822 -69 1525 -69
Q 684 -69 684 869
L 684 2763
L 134 2763
L 134 3200
L 684 3200
L 684 3981
L 1197 4147
L 1197 3200
L 2003 3200
L 2003 2763
L 1197 2763
L 1197 959
Q 1197 638 1306 500
Q 1416 363 1669 363
Q 1863 363 2003 469
L 2003 31
z
" transform="scale(0.015625)"/>
       <path id="SegoeUI-79" d="M 3066 3200
L 1594 -513
Q 1200 -1506 488 -1506
Q 288 -1506 153 -1466
L 153 -1006
Q 319 -1063 456 -1063
Q 844 -1063 1038 -600
L 1294 6
L 44 3200
L 613 3200
L 1478 738
Q 1494 691 1544 494
L 1563 494
Q 1578 569 1625 731
L 2534 3200
L 3066 3200
z
" transform="scale(0.015625)"/>
       <path id="SegoeUI-20" transform="scale(0.015625)"/>
       <path id="SegoeUI-62" d="M 1044 463
L 1031 463
L 1031 0
L 519 0
L 519 4738
L 1031 4738
L 1031 2638
L 1044 2638
Q 1422 3275 2150 3275
Q 2766 3275 3114 2845
Q 3463 2416 3463 1694
Q 3463 891 3072 408
Q 2681 -75 2003 -75
Q 1369 -75 1044 463
z
M 1031 1753
L 1031 1306
Q 1031 909 1289 632
Q 1547 356 1944 356
Q 2409 356 2673 712
Q 2938 1069 2938 1703
Q 2938 2238 2691 2541
Q 2444 2844 2022 2844
Q 1575 2844 1303 2533
Q 1031 2222 1031 1753
z
" transform="scale(0.015625)"/>
       <path id="SegoeUI-6c" d="M 1031 0
L 519 0
L 519 4738
L 1031 4738
L 1031 0
z
" transform="scale(0.015625)"/>
       <path id="SegoeUI-6f" d="M 1856 -75
Q 1147 -75 723 373
Q 300 822 300 1563
Q 300 2369 740 2822
Q 1181 3275 1931 3275
Q 2647 3275 3048 2834
Q 3450 2394 3450 1613
Q 3450 847 3017 386
Q 2584 -75 1856 -75
z
M 1894 2844
Q 1400 2844 1112 2508
Q 825 2172 825 1581
Q 825 1013 1115 684
Q 1406 356 1894 356
Q 2391 356 2658 678
Q 2925 1000 2925 1594
Q 2925 2194 2658 2519
Q 2391 2844 1894 2844
z
" transform="scale(0.015625)"/>
       <path id="SegoeUI-63" d="M 2700 147
Q 2331 -75 1825 -75
Q 1141 -75 720 370
Q 300 816 300 1525
Q 300 2316 753 2795
Q 1206 3275 1963 3275
Q 2384 3275 2706 3119
L 2706 2594
Q 2350 2844 1944 2844
Q 1453 2844 1139 2492
Q 825 2141 825 1569
Q 825 1006 1120 681
Q 1416 356 1913 356
Q 2331 356 2700 634
L 2700 147
z
" transform="scale(0.015625)"/>
       <path id="SegoeUI-6b" d="M 3175 0
L 2456 0
L 1044 1538
L 1031 1538
L 1031 0
L 519 0
L 519 4738
L 1031 4738
L 1031 1734
L 1044 1734
L 2388 3200
L 3059 3200
L 1575 1656
L 3175 0
z
" transform="scale(0.015625)"/>
       <path id="SegoeUI-64" d="M 3250 0
L 2738 0
L 2738 544
L 2725 544
Q 2369 -75 1625 -75
Q 1022 -75 661 354
Q 300 784 300 1525
Q 300 2319 700 2797
Q 1100 3275 1766 3275
Q 2425 3275 2725 2756
L 2738 2756
L 2738 4738
L 3250 4738
L 3250 0
z
M 2738 1447
L 2738 1919
Q 2738 2306 2481 2575
Q 2225 2844 1831 2844
Q 1363 2844 1094 2500
Q 825 2156 825 1550
Q 825 997 1083 676
Q 1341 356 1775 356
Q 2203 356 2470 665
Q 2738 975 2738 1447
z
" transform="scale(0.015625)"/>
       <path id="SegoeUI-65" d="M 3091 1472
L 831 1472
Q 844 938 1119 647
Q 1394 356 1875 356
Q 2416 356 2869 713
L 2869 231
Q 2447 -75 1753 -75
Q 1075 -75 687 361
Q 300 797 300 1588
Q 300 2334 723 2804
Q 1147 3275 1775 3275
Q 2403 3275 2747 2869
Q 3091 2463 3091 1741
L 3091 1472
z
M 2566 1906
Q 2563 2350 2352 2597
Q 2141 2844 1766 2844
Q 1403 2844 1150 2584
Q 897 2325 838 1906
L 2566 1906
z
" transform="scale(0.015625)"/>
       <path id="SegoeUI-61" d="M 2809 0
L 2297 0
L 2297 500
L 2284 500
Q 1950 -75 1300 -75
Q 822 -75 551 178
Q 281 431 281 850
Q 281 1747 1338 1894
L 2297 2028
Q 2297 2844 1638 2844
Q 1059 2844 594 2450
L 594 2975
Q 1066 3275 1681 3275
Q 2809 3275 2809 2081
L 2809 0
z
M 2297 1619
L 1525 1513
Q 1169 1463 987 1336
Q 806 1209 806 888
Q 806 653 973 504
Q 1141 356 1419 356
Q 1800 356 2048 623
Q 2297 891 2297 1300
L 2297 1619
z
" transform="scale(0.015625)"/>
       <path id="SegoeUI-52" d="M 3800 0
L 3175 0
L 2425 1256
Q 2322 1431 2225 1554
Q 2128 1678 2026 1756
Q 1925 1834 1808 1870
Q 1691 1906 1544 1906
L 1113 1906
L 1113 0
L 588 0
L 588 4481
L 1925 4481
Q 2219 4481 2467 4407
Q 2716 4334 2898 4184
Q 3081 4034 3184 3811
Q 3288 3588 3288 3288
Q 3288 3053 3217 2858
Q 3147 2663 3017 2509
Q 2888 2356 2705 2248
Q 2522 2141 2294 2081
L 2294 2069
Q 2406 2019 2489 1955
Q 2572 1891 2647 1803
Q 2722 1716 2795 1605
Q 2869 1494 2959 1347
L 3800 0
z
M 1113 4006
L 1113 2381
L 1825 2381
Q 2022 2381 2189 2440
Q 2356 2500 2478 2611
Q 2600 2722 2669 2883
Q 2738 3044 2738 3244
Q 2738 3603 2505 3804
Q 2272 4006 1831 4006
L 1113 4006
z
" transform="scale(0.015625)"/>
       <path id="SegoeUI-2d" d="M 2156 1581
L 450 1581
L 450 1984
L 2156 1984
L 2156 1581
z
" transform="scale(0.015625)"/>
       <path id="SegoeUI-73" d="M 325 116
L 325 666
Q 744 356 1247 356
Q 1922 356 1922 806
Q 1922 934 1864 1023
Q 1806 1113 1707 1181
Q 1609 1250 1476 1304
Q 1344 1359 1191 1419
Q 978 1503 817 1589
Q 656 1675 548 1783
Q 441 1891 386 2028
Q 331 2166 331 2350
Q 331 2575 434 2748
Q 538 2922 709 3039
Q 881 3156 1101 3215
Q 1322 3275 1556 3275
Q 1972 3275 2300 3131
L 2300 2613
Q 1947 2844 1488 2844
Q 1344 2844 1228 2811
Q 1113 2778 1030 2718
Q 947 2659 901 2576
Q 856 2494 856 2394
Q 856 2269 901 2184
Q 947 2100 1034 2034
Q 1122 1969 1247 1916
Q 1372 1863 1531 1800
Q 1744 1719 1912 1633
Q 2081 1547 2200 1439
Q 2319 1331 2383 1190
Q 2447 1050 2447 856
Q 2447 619 2342 444
Q 2238 269 2063 153
Q 1888 38 1659 -18
Q 1431 -75 1181 -75
Q 688 -75 325 116
z
" transform="scale(0.015625)"/>
       <path id="SegoeUI-72" d="M 2188 2681
Q 2053 2784 1800 2784
Q 1472 2784 1251 2475
Q 1031 2166 1031 1631
L 1031 0
L 519 0
L 519 3200
L 1031 3200
L 1031 2541
L 1044 2541
Q 1153 2878 1378 3067
Q 1603 3256 1881 3256
Q 2081 3256 2188 3213
L 2188 2681
z
" transform="scale(0.015625)"/>
      </defs>
      <use xlink:href="#SegoeUI-45"/>
      <use xlink:href="#SegoeUI-71" transform="translate(50.585938 0)"/>
      <use xlink:href="#SegoeUI-75" transform="translate(109.472656 0)"/>
      <use xlink:href="#SegoeUI-69" transform="translate(166.064453 0)"/>
      <use xlink:href="#SegoeUI-74" transform="translate(190.283203 0)"/>
      <use xlink:href="#SegoeUI-79" transform="translate(224.169922 0)"/>
      <use xlink:href="#SegoeUI-20" transform="translate(272.558594 0)"/>
      <use xlink:href="#SegoeUI-62" transform="translate(299.951172 0)"/>
      <use xlink:href="#SegoeUI-6c" transform="translate(358.740234 0)"/>
      <use xlink:href="#SegoeUI-6f" transform="translate(382.958984 0)"/>
      <use xlink:href="#SegoeUI-63" transform="translate(441.552734 0)"/>
      <use xlink:href="#SegoeUI-6b" transform="translate(487.744141 0)"/>
      <use xlink:href="#SegoeUI-20" transform="translate(537.451172 0)"/>
      <use xlink:href="#SegoeUI-64" transform="translate(564.84375 0)"/>
      <use xlink:href="#SegoeUI-65" transform="translate(623.730469 0)"/>
      <use xlink:href="#SegoeUI-6c" transform="translate(676.025391 0)"/>
      <use xlink:href="#SegoeUI-74" transform="translate(700.244141 0)"/>
      <use xlink:href="#SegoeUI-61" transform="translate(734.130859 0)"/>
      <use xlink:href="#SegoeUI-20" transform="translate(785.009766 0)"/>
      <use xlink:href="#SegoeUI-52" transform="translate(812.402344 0)"/>
      <use xlink:href="#SegoeUI-2d" transform="translate(872.216797 0)"/>
      <use xlink:href="#SegoeUI-73" transform="translate(912.207031 0)"/>
      <use xlink:href="#SegoeUI-71" transform="translate(954.638672 0)"/>
      <use xlink:href="#SegoeUI-75" transform="translate(1013.525391 0)"/>
      <use xlink:href="#SegoeUI-61" transform="translate(1070.117188 0)"/>
      <use xlink:href="#SegoeUI-72" transform="translate(1120.996094 0)"/>
      <use xlink:href="#SegoeUI-65" transform="translate(1154.386719 0)"/>
      <use xlink:href="#SegoeUI-64" transform="translate(1206.681641 0)"/>
     </g>
    </g>
   </g>
   <g id="patch_3">
    <path d="M 79.308125 403.29
L 203.369663 403.29
L 203.369663 347.149428
L 79.308125 347.149428
z
" clip-path="url(#peef7439c6b)" style="fill: #c5cad3; stroke: #464c55; stroke-linejoin: miter"/>
   </g>
   <g id="patch_4">
    <path d="M 522.385048 403.29
L 646.446587 403.29
L 646.446587 359.668223
L 522.385048 359.668223
z
" clip-path="url(#peef7439c6b)" style="fill: #c5cad3; stroke: #464c55; stroke-linejoin: miter"/>
   </g>
   <g id="patch_5">
    <path d="M 203.369663 403.29
L 327.431202 403.29
L 327.431202 203.763431
L 203.369663 203.763431
z
" clip-path="url(#peef7439c6b)" style="fill: #f0986e; stroke: #804126; stroke-linejoin: miter"/>
   </g>
   <g id="patch_6">
    <path d="M 646.446587 403.29
L 770.508125 403.29
L 770.508125 160.29
L 646.446587 160.29
z
" clip-path="url(#peef7439c6b)" style="fill: #f0986e; stroke: #804126; stroke-linejoin: miter"/>
   </g>
   <g id="patch_7">
    <path d="M 44.748125 403.29
L 44.748125 92.25
" style="fill: none; stroke: #d7dbe7; stroke-width: 1.25; stroke-linejoin: miter; stroke-linecap: square"/>
   </g>
   <g id="patch_8">
    <path d="M 44.748125 403.29
L 805.068125 403.29
" style="fill: none; stroke: #d7dbe7; stroke-width: 1.25; stroke-linejoin: miter; stroke-linecap: square"/>
   </g>
   <g id="text_11">
    <!-- 0.0249 -->
    <g style="fill: #1f2430" transform="translate(123.277957 344.716054) scale(0.1 -0.1)">
     <defs>
      <path id="DejaVuSansMono-30" d="M 1509 2344
Q 1509 2516 1629 2641
Q 1750 2766 1919 2766
Q 2094 2766 2219 2641
Q 2344 2516 2344 2344
Q 2344 2169 2220 2047
Q 2097 1925 1919 1925
Q 1744 1925 1626 2044
Q 1509 2163 1509 2344
z
M 1925 4250
Q 1484 4250 1267 3775
Q 1050 3300 1050 2328
Q 1050 1359 1267 884
Q 1484 409 1925 409
Q 2369 409 2586 884
Q 2803 1359 2803 2328
Q 2803 3300 2586 3775
Q 2369 4250 1925 4250
z
M 1925 4750
Q 2672 4750 3055 4137
Q 3438 3525 3438 2328
Q 3438 1134 3055 521
Q 2672 -91 1925 -91
Q 1178 -91 797 521
Q 416 1134 416 2328
Q 416 3525 797 4137
Q 1178 4750 1925 4750
z
" transform="scale(0.015625)"/>
      <path id="DejaVuSansMono-2e" d="M 1528 953
L 2316 953
L 2316 0
L 1528 0
L 1528 953
z
" transform="scale(0.015625)"/>
      <path id="DejaVuSansMono-32" d="M 1166 531
L 3309 531
L 3309 0
L 475 0
L 475 531
Q 1059 1147 1496 1619
Q 1934 2091 2100 2284
Q 2413 2666 2522 2902
Q 2631 3138 2631 3384
Q 2631 3775 2401 3997
Q 2172 4219 1772 4219
Q 1488 4219 1175 4116
Q 863 4013 513 3803
L 513 4441
Q 834 4594 1145 4672
Q 1456 4750 1759 4750
Q 2444 4750 2861 4386
Q 3278 4022 3278 3431
Q 3278 3131 3139 2831
Q 3000 2531 2688 2169
Q 2513 1966 2180 1606
Q 1847 1247 1166 531
z
" transform="scale(0.015625)"/>
      <path id="DejaVuSansMono-34" d="M 2297 4091
L 825 1625
L 2297 1625
L 2297 4091
z
M 2194 4666
L 2925 4666
L 2925 1625
L 3547 1625
L 3547 1113
L 2925 1113
L 2925 0
L 2297 0
L 2297 1113
L 319 1113
L 319 1709
L 2194 4666
z
" transform="scale(0.015625)"/>
      <path id="DejaVuSansMono-39" d="M 1863 2069
Q 2266 2069 2495 2359
Q 2725 2650 2725 3163
Q 2725 3675 2495 3965
Q 2266 4256 1863 4256
Q 1444 4256 1231 3979
Q 1019 3703 1019 3163
Q 1019 2619 1230 2344
Q 1441 2069 1863 2069
z
M 738 97
L 738 678
Q 934 563 1156 502
Q 1378 441 1619 441
Q 2219 441 2526 892
Q 2834 1344 2834 2222
Q 2688 1909 2422 1742
Q 2156 1575 1813 1575
Q 1138 1575 767 1990
Q 397 2406 397 3169
Q 397 3922 776 4336
Q 1156 4750 1850 4750
Q 2663 4750 3041 4165
Q 3419 3581 3419 2328
Q 3419 1150 2964 529
Q 2509 -91 1644 -91
Q 1416 -91 1184 -42
Q 953 6 738 97
z
" transform="scale(0.015625)"/>
     </defs>
     <use xlink:href="#DejaVuSansMono-30"/>
     <use xlink:href="#DejaVuSansMono-2e" transform="translate(60.205078 0)"/>
     <use xlink:href="#DejaVuSansMono-30" transform="translate(120.410156 0)"/>
     <use xlink:href="#DejaVuSansMono-32" transform="translate(180.615234 0)"/>
     <use xlink:href="#DejaVuSansMono-34" transform="translate(240.820312 0)"/>
     <use xlink:href="#DejaVuSansMono-39" transform="translate(301.025391 0)"/>
    </g>
   </g>
   <g id="text_12">
    <!-- 0.0193 -->
    <g style="fill: #1f2430" transform="translate(566.35488 357.234849) scale(0.1 -0.1)">
     <defs>
      <path id="DejaVuSansMono-31" d="M 844 531
L 1825 531
L 1825 4097
L 769 3859
L 769 4434
L 1819 4666
L 2450 4666
L 2450 531
L 3419 531
L 3419 0
L 844 0
L 844 531
z
" transform="scale(0.015625)"/>
      <path id="DejaVuSansMono-33" d="M 2425 2497
Q 2884 2375 3128 2064
Q 3372 1753 3372 1288
Q 3372 644 2939 276
Q 2506 -91 1741 -91
Q 1419 -91 1084 -31
Q 750 28 428 141
L 428 769
Q 747 603 1056 522
Q 1366 441 1672 441
Q 2191 441 2469 675
Q 2747 909 2747 1350
Q 2747 1756 2469 1995
Q 2191 2234 1716 2234
L 1234 2234
L 1234 2753
L 1716 2753
Q 2150 2753 2394 2943
Q 2638 3134 2638 3475
Q 2638 3834 2411 4026
Q 2184 4219 1766 4219
Q 1488 4219 1191 4156
Q 894 4094 569 3969
L 569 4550
Q 947 4650 1242 4700
Q 1538 4750 1766 4750
Q 2447 4750 2855 4408
Q 3263 4066 3263 3500
Q 3263 3116 3048 2859
Q 2834 2603 2425 2497
z
" transform="scale(0.015625)"/>
     </defs>
     <use xlink:href="#DejaVuSansMono-30"/>
     <use xlink:href="#DejaVuSansMono-2e" transform="translate(60.205078 0)"/>
     <use xlink:href="#DejaVuSansMono-30" transform="translate(120.410156 0)"/>
     <use xlink:href="#DejaVuSansMono-31" transform="translate(180.615234 0)"/>
     <use xlink:href="#DejaVuSansMono-39" transform="translate(240.820312 0)"/>
     <use xlink:href="#DejaVuSansMono-33" transform="translate(301.025391 0)"/>
    </g>
   </g>
   <g id="text_13">
    <!-- 0.0884 -->
    <g style="fill: #1f2430" transform="translate(247.339495 200.152843) scale(0.1 -0.1)">
     <defs>
      <path id="DejaVuSansMono-38" d="M 1925 2216
Q 1503 2216 1273 1980
Q 1044 1744 1044 1313
Q 1044 881 1276 642
Q 1509 403 1925 403
Q 2350 403 2579 639
Q 2809 875 2809 1313
Q 2809 1741 2576 1978
Q 2344 2216 1925 2216
z
M 1375 2478
Q 972 2581 745 2862
Q 519 3144 519 3541
Q 519 4097 897 4423
Q 1275 4750 1925 4750
Q 2578 4750 2956 4423
Q 3334 4097 3334 3541
Q 3334 3144 3107 2862
Q 2881 2581 2478 2478
Q 2947 2375 3195 2062
Q 3444 1750 3444 1253
Q 3444 622 3041 265
Q 2638 -91 1925 -91
Q 1213 -91 811 264
Q 409 619 409 1247
Q 409 1747 657 2061
Q 906 2375 1375 2478
z
M 1147 3481
Q 1147 3106 1347 2909
Q 1547 2713 1925 2713
Q 2306 2713 2506 2909
Q 2706 3106 2706 3481
Q 2706 3863 2507 4063
Q 2309 4263 1925 4263
Q 1547 4263 1347 4061
Q 1147 3859 1147 3481
z
" transform="scale(0.015625)"/>
     </defs>
     <use xlink:href="#DejaVuSansMono-30"/>
     <use xlink:href="#DejaVuSansMono-2e" transform="translate(60.205078 0)"/>
     <use xlink:href="#DejaVuSansMono-30" transform="translate(120.410156 0)"/>
     <use xlink:href="#DejaVuSansMono-38" transform="translate(180.615234 0)"/>
     <use xlink:href="#DejaVuSansMono-38" transform="translate(240.820312 0)"/>
     <use xlink:href="#DejaVuSansMono-34" transform="translate(301.025391 0)"/>
    </g>
   </g>
   <g id="text_14">
    <!-- 0.1076 -->
    <g style="fill: #1f2430" transform="translate(690.416418 156.679412) scale(0.1 -0.1)">
     <defs>
      <path id="DejaVuSansMono-37" d="M 434 4666
L 3372 4666
L 3372 4397
L 1703 0
L 1044 0
L 2669 4134
L 434 4134
L 434 4666
z
" transform="scale(0.015625)"/>
      <path id="DejaVuSansMono-36" d="M 3097 4563
L 3097 3981
Q 2900 4097 2678 4158
Q 2456 4219 2216 4219
Q 1616 4219 1306 3767
Q 997 3316 997 2438
Q 1147 2750 1412 2917
Q 1678 3084 2022 3084
Q 2697 3084 3067 2670
Q 3438 2256 3438 1497
Q 3438 741 3056 325
Q 2675 -91 1984 -91
Q 1172 -91 794 492
Q 416 1075 416 2328
Q 416 3509 870 4129
Q 1325 4750 2188 4750
Q 2419 4750 2650 4701
Q 2881 4653 3097 4563
z
M 1972 2591
Q 1569 2591 1337 2300
Q 1106 2009 1106 1497
Q 1106 984 1337 693
Q 1569 403 1972 403
Q 2391 403 2603 679
Q 2816 956 2816 1497
Q 2816 2041 2603 2316
Q 2391 2591 1972 2591
z
" transform="scale(0.015625)"/>
     </defs>
     <use xlink:href="#DejaVuSansMono-30"/>
     <use xlink:href="#DejaVuSansMono-2e" transform="translate(60.205078 0)"/>
     <use xlink:href="#DejaVuSansMono-31" transform="translate(120.410156 0)"/>
     <use xlink:href="#DejaVuSansMono-30" transform="translate(180.615234 0)"/>
     <use xlink:href="#DejaVuSansMono-37" transform="translate(240.820312 0)"/>
     <use xlink:href="#DejaVuSansMono-36" transform="translate(301.025391 0)"/>
    </g>
   </g>
   <g id="legend_1">
    <g id="patch_9">
     <path d="M 53.748125 108.653125
L 73.748125 108.653125
L 73.748125 101.653125
L 53.748125 101.653125
z
" style="fill: #c5cad3; stroke: #464c55; stroke-linejoin: miter"/>
    </g>
    <g id="text_15">
     <!-- Pre-BTC ETF -->
     <g style="fill: #1f2430" transform="translate(81.748125 108.653125) scale(0.1 -0.1)">
      <defs>
       <path id="SegoeUI-50" d="M 1113 1694
L 1113 0
L 588 0
L 588 4481
L 1819 4481
Q 2538 4481 2933 4131
Q 3328 3781 3328 3144
Q 3328 2506 2889 2100
Q 2450 1694 1703 1694
L 1113 1694
z
M 1113 4006
L 1113 2169
L 1663 2169
Q 2206 2169 2492 2417
Q 2778 2666 2778 3119
Q 2778 4006 1728 4006
L 1113 4006
z
" transform="scale(0.015625)"/>
       <path id="SegoeUI-46" d="M 2863 4006
L 1113 4006
L 1113 2456
L 2731 2456
L 2731 1984
L 1113 1984
L 1113 0
L 588 0
L 588 4481
L 2863 4481
L 2863 4006
z
" transform="scale(0.015625)"/>
      </defs>
      <use xlink:href="#SegoeUI-50"/>
      <use xlink:href="#SegoeUI-72" transform="translate(56.005859 0)"/>
      <use xlink:href="#SegoeUI-65" transform="translate(89.396484 0)"/>
      <use xlink:href="#SegoeUI-2d" transform="translate(141.691406 0)"/>
      <use xlink:href="#SegoeUI-42" transform="translate(181.681641 0)"/>
      <use xlink:href="#SegoeUI-54" transform="translate(234.505859 0)"/>
      <use xlink:href="#SegoeUI-43" transform="translate(282.398438 0)"/>
      <use xlink:href="#SegoeUI-20" transform="translate(344.3125 0)"/>
      <use xlink:href="#SegoeUI-45" transform="translate(371.705078 0)"/>
      <use xlink:href="#SegoeUI-54" transform="translate(422.541016 0)"/>
      <use xlink:href="#SegoeUI-46" transform="translate(474.933594 0)"/>
     </g>
    </g>
    <g id="patch_10">
     <path d="M 154.124687 108.653125
L 174.124687 108.653125
L 174.124687 101.653125
L 154.124687 101.653125
z
" style="fill: #f0986e; stroke: #804126; stroke-linejoin: miter"/>
    </g>
    <g id="text_16">
     <!-- BTC-ETF era -->
     <g style="fill: #1f2430" transform="translate(182.124687 108.653125) scale(0.1 -0.1)">
      <use xlink:href="#SegoeUI-42"/>
      <use xlink:href="#SegoeUI-54" transform="translate(52.824219 0)"/>
      <use xlink:href="#SegoeUI-43" transform="translate(100.716797 0)"/>
      <use xlink:href="#SegoeUI-2d" transform="translate(162.630859 0)"/>
      <use xlink:href="#SegoeUI-45" transform="translate(202.621094 0)"/>
      <use xlink:href="#SegoeUI-54" transform="translate(253.457031 0)"/>
      <use xlink:href="#SegoeUI-46" transform="translate(305.849609 0)"/>
      <use xlink:href="#SegoeUI-20" transform="translate(354.677734 0)"/>
      <use xlink:href="#SegoeUI-65" transform="translate(382.070312 0)"/>
      <use xlink:href="#SegoeUI-72" transform="translate(434.365234 0)"/>
      <use xlink:href="#SegoeUI-61" transform="translate(469.130859 0)"/>
     </g>
    </g>
   </g>
  </g>
  <g id="text_17">
   <!-- Equity block contribution rises in the BTC-ETF era -->
   <g style="fill: #1f2430" transform="translate(18.828125 19.045) scale(0.16 -0.16)">
    <defs>
     <path id="SegoeUI-Semibold-45" d="M 3069 0
L 553 0
L 553 4481
L 2969 4481
L 2969 3850
L 1297 3850
L 1297 2581
L 2838 2581
L 2838 1953
L 1297 1953
L 1297 628
L 3069 628
L 3069 0
z
" transform="scale(0.015625)"/>
     <path id="SegoeUI-Semibold-71" d="M 3381 -1472
L 2656 -1472
L 2656 550
L 2644 550
Q 2316 -75 1572 -75
Q 981 -75 623 354
Q 266 784 266 1525
Q 266 2322 658 2798
Q 1050 3275 1713 3275
Q 2356 3275 2644 2756
L 2656 2756
L 2656 3200
L 3381 3200
L 3381 -1472
z
M 2666 1456
L 2666 1869
Q 2666 2216 2442 2456
Q 2219 2697 1875 2697
Q 1472 2697 1239 2395
Q 1006 2094 1006 1544
Q 1006 1056 1231 778
Q 1456 500 1813 500
Q 2203 500 2434 772
Q 2666 1044 2666 1456
z
" transform="scale(0.015625)"/>
     <path id="SegoeUI-Semibold-75" d="M 3263 0
L 2538 0
L 2538 506
L 2525 506
Q 2209 -75 1544 -75
Q 409 -75 409 1288
L 409 3200
L 1134 3200
L 1134 1363
Q 1134 500 1800 500
Q 2122 500 2330 737
Q 2538 975 2538 1359
L 2538 3200
L 3263 3200
L 3263 0
z
" transform="scale(0.015625)"/>
     <path id="SegoeUI-Semibold-69" d="M 838 3872
Q 659 3872 532 3987
Q 406 4103 406 4281
Q 406 4459 532 4578
Q 659 4697 838 4697
Q 1022 4697 1150 4578
Q 1278 4459 1278 4281
Q 1278 4113 1150 3992
Q 1022 3872 838 3872
z
M 1197 0
L 472 0
L 472 3200
L 1197 3200
L 1197 0
z
" transform="scale(0.015625)"/>
     <path id="SegoeUI-Semibold-74" d="M 2159 34
Q 1947 -72 1600 -72
Q 669 -72 669 822
L 669 2631
L 134 2631
L 134 3200
L 669 3200
L 669 3941
L 1394 4147
L 1394 3200
L 2159 3200
L 2159 2631
L 1394 2631
L 1394 1031
Q 1394 747 1497 625
Q 1600 503 1841 503
Q 2025 503 2159 609
L 2159 34
z
" transform="scale(0.015625)"/>
     <path id="SegoeUI-Semibold-79" d="M 3244 3200
L 1800 -513
Q 1350 -1506 538 -1506
Q 309 -1506 156 -1466
L 156 -863
Q 328 -919 469 -919
Q 875 -919 1075 -519
L 1291 6
L 19 3200
L 822 3200
L 1584 875
Q 1597 831 1641 644
L 1656 644
Q 1672 716 1713 869
L 2513 3200
L 3244 3200
z
" transform="scale(0.015625)"/>
     <path id="SegoeUI-Semibold-20" transform="scale(0.015625)"/>
     <path id="SegoeUI-Semibold-62" d="M 1209 463
L 1197 463
L 1197 0
L 472 0
L 472 4738
L 1197 4738
L 1197 2638
L 1209 2638
Q 1581 3275 2297 3275
Q 2903 3275 3245 2845
Q 3588 2416 3588 1694
Q 3588 891 3203 408
Q 2819 -75 2153 -75
Q 1528 -75 1209 463
z
M 1191 1734
L 1191 1338
Q 1191 988 1414 744
Q 1638 500 1981 500
Q 2384 500 2614 814
Q 2844 1128 2844 1691
Q 2844 2163 2630 2430
Q 2416 2697 2050 2697
Q 1663 2697 1427 2422
Q 1191 2147 1191 1734
z
" transform="scale(0.015625)"/>
     <path id="SegoeUI-Semibold-6c" d="M 1200 0
L 472 0
L 472 4738
L 1200 4738
L 1200 0
z
" transform="scale(0.015625)"/>
     <path id="SegoeUI-Semibold-6f" d="M 1891 -75
Q 1150 -75 708 373
Q 266 822 266 1563
Q 266 2369 727 2822
Q 1188 3275 1969 3275
Q 2719 3275 3137 2834
Q 3556 2394 3556 1613
Q 3556 847 3104 386
Q 2653 -75 1891 -75
z
M 1925 2697
Q 1500 2697 1253 2400
Q 1006 2103 1006 1581
Q 1006 1078 1256 789
Q 1506 500 1925 500
Q 2353 500 2583 784
Q 2813 1069 2813 1594
Q 2813 2122 2583 2409
Q 2353 2697 1925 2697
z
" transform="scale(0.015625)"/>
     <path id="SegoeUI-Semibold-63" d="M 2763 147
Q 2378 -75 1853 -75
Q 1141 -75 703 370
Q 266 816 266 1525
Q 266 2316 736 2795
Q 1206 3275 1994 3275
Q 2431 3275 2766 3122
L 2766 2447
Q 2431 2697 2053 2697
Q 1594 2697 1300 2386
Q 1006 2075 1006 1572
Q 1006 1075 1282 787
Q 1559 500 2025 500
Q 2416 500 2763 778
L 2763 147
z
" transform="scale(0.015625)"/>
     <path id="SegoeUI-Semibold-6b" d="M 3375 0
L 2456 0
L 1213 1538
L 1200 1538
L 1200 0
L 472 0
L 472 4738
L 1200 4738
L 1200 1734
L 1213 1734
L 2388 3200
L 3259 3200
L 1938 1656
L 3375 0
z
" transform="scale(0.015625)"/>
     <path id="SegoeUI-Semibold-6e" d="M 3322 0
L 2597 0
L 2597 1803
Q 2597 2700 1963 2700
Q 1631 2700 1415 2451
Q 1200 2203 1200 1825
L 1200 0
L 472 0
L 472 3200
L 1200 3200
L 1200 2669
L 1213 2669
Q 1572 3275 2250 3275
Q 2772 3275 3047 2936
Q 3322 2597 3322 1956
L 3322 0
z
" transform="scale(0.015625)"/>
     <path id="SegoeUI-Semibold-72" d="M 2328 2509
Q 2197 2613 1950 2613
Q 1628 2613 1412 2322
Q 1197 2031 1197 1531
L 1197 0
L 472 0
L 472 3200
L 1197 3200
L 1197 2541
L 1209 2541
Q 1316 2878 1536 3067
Q 1756 3256 2028 3256
Q 2225 3256 2328 3197
L 2328 2509
z
" transform="scale(0.015625)"/>
     <path id="SegoeUI-Semibold-73" d="M 272 100
L 272 772
Q 678 463 1169 463
Q 1825 463 1825 850
Q 1825 959 1769 1036
Q 1713 1113 1617 1172
Q 1522 1231 1392 1278
Q 1263 1325 1103 1384
Q 906 1463 748 1550
Q 591 1638 486 1748
Q 381 1859 328 2000
Q 275 2141 275 2328
Q 275 2559 384 2736
Q 494 2913 678 3033
Q 863 3153 1097 3214
Q 1331 3275 1581 3275
Q 2025 3275 2375 3141
L 2375 2506
Q 2038 2738 1600 2738
Q 1463 2738 1352 2709
Q 1241 2681 1162 2631
Q 1084 2581 1040 2511
Q 997 2441 997 2356
Q 997 2253 1040 2181
Q 1084 2109 1170 2054
Q 1256 2000 1376 1954
Q 1497 1909 1653 1856
Q 1859 1772 2023 1684
Q 2188 1597 2303 1486
Q 2419 1375 2481 1229
Q 2544 1084 2544 884
Q 2544 641 2431 459
Q 2319 278 2131 159
Q 1944 41 1698 -17
Q 1453 -75 1181 -75
Q 656 -75 272 100
z
" transform="scale(0.015625)"/>
     <path id="SegoeUI-Semibold-65" d="M 3181 1403
L 1000 1403
Q 1013 959 1273 718
Q 1534 478 1991 478
Q 2503 478 2931 784
L 2931 200
Q 2494 -75 1775 -75
Q 1069 -75 667 361
Q 266 797 266 1588
Q 266 2334 708 2804
Q 1150 3275 1806 3275
Q 2463 3275 2822 2853
Q 3181 2431 3181 1681
L 3181 1403
z
M 2481 1916
Q 2478 2306 2297 2523
Q 2116 2741 1797 2741
Q 1484 2741 1267 2512
Q 1050 2284 1000 1916
L 2481 1916
z
" transform="scale(0.015625)"/>
     <path id="SegoeUI-Semibold-68" d="M 3316 0
L 2591 0
L 2591 1750
Q 2591 2700 1956 2700
Q 1638 2700 1419 2425
Q 1200 2150 1200 1722
L 1200 0
L 472 0
L 472 4738
L 1200 4738
L 1200 2669
L 1213 2669
Q 1575 3275 2250 3275
Q 3316 3275 3316 1972
L 3316 0
z
" transform="scale(0.015625)"/>
     <path id="SegoeUI-Semibold-42" d="M 553 0
L 553 4481
L 1975 4481
Q 2625 4481 3004 4197
Q 3384 3913 3384 3456
Q 3384 3075 3168 2794
Q 2953 2513 2572 2394
L 2572 2381
Q 3034 2328 3311 2039
Q 3588 1750 3588 1288
Q 3588 713 3134 356
Q 2681 0 1991 0
L 553 0
z
M 1294 3884
L 1294 2609
L 1775 2609
Q 2163 2609 2383 2792
Q 2603 2975 2603 3309
Q 2603 3884 1834 3884
L 1294 3884
z
M 1294 2013
L 1294 594
L 1928 594
Q 2344 594 2570 786
Q 2797 978 2797 1316
Q 2797 2013 1831 2013
L 1294 2013
z
" transform="scale(0.015625)"/>
     <path id="SegoeUI-Semibold-54" d="M 3428 3850
L 2141 3850
L 2141 0
L 1397 0
L 1397 3850
L 113 3850
L 113 4481
L 3428 4481
L 3428 3850
z
" transform="scale(0.015625)"/>
     <path id="SegoeUI-Semibold-43" d="M 3678 188
Q 3172 -75 2419 -75
Q 1444 -75 856 540
Q 269 1156 269 2156
Q 269 3231 930 3893
Q 1591 4556 2600 4556
Q 3250 4556 3678 4372
L 3678 3634
Q 3225 3903 2678 3903
Q 1950 3903 1498 3437
Q 1047 2972 1047 2194
Q 1047 1453 1469 1014
Q 1891 575 2578 575
Q 3213 575 3678 875
L 3678 188
z
" transform="scale(0.015625)"/>
     <path id="SegoeUI-Semibold-2d" d="M 2156 1481
L 450 1481
L 450 2016
L 2156 2016
L 2156 1481
z
" transform="scale(0.015625)"/>
     <path id="SegoeUI-Semibold-46" d="M 2972 3850
L 1297 3850
L 1297 2503
L 2841 2503
L 2841 1875
L 1297 1875
L 1297 0
L 553 0
L 553 4481
L 2972 4481
L 2972 3850
z
" transform="scale(0.015625)"/>
     <path id="SegoeUI-Semibold-61" d="M 2928 0
L 2225 0
L 2225 500
L 2213 500
Q 1881 -75 1241 -75
Q 769 -75 501 181
Q 234 438 234 859
Q 234 1766 1278 1916
L 2228 2050
Q 2228 2734 1578 2734
Q 1006 2734 547 2341
L 547 2975
Q 1053 3275 1716 3275
Q 2928 3275 2928 2081
L 2928 0
z
M 2228 1572
L 1556 1478
Q 1244 1438 1086 1327
Q 928 1216 928 938
Q 928 734 1073 604
Q 1219 475 1463 475
Q 1794 475 2011 708
Q 2228 941 2228 1294
L 2228 1572
z
" transform="scale(0.015625)"/>
    </defs>
    <use xlink:href="#SegoeUI-Semibold-45"/>
    <use xlink:href="#SegoeUI-Semibold-71" transform="translate(51.757812 0)"/>
    <use xlink:href="#SegoeUI-Semibold-75" transform="translate(112.011719 0)"/>
    <use xlink:href="#SegoeUI-Semibold-69" transform="translate(170.361328 0)"/>
    <use xlink:href="#SegoeUI-Semibold-74" transform="translate(196.484375 0)"/>
    <use xlink:href="#SegoeUI-Semibold-79" transform="translate(232.617188 0)"/>
    <use xlink:href="#SegoeUI-Semibold-20" transform="translate(283.447266 0)"/>
    <use xlink:href="#SegoeUI-Semibold-62" transform="translate(310.9375 0)"/>
    <use xlink:href="#SegoeUI-Semibold-6c" transform="translate(371.191406 0)"/>
    <use xlink:href="#SegoeUI-Semibold-6f" transform="translate(397.314453 0)"/>
    <use xlink:href="#SegoeUI-Semibold-63" transform="translate(457.03125 0)"/>
    <use xlink:href="#SegoeUI-Semibold-6b" transform="translate(504.052734 0)"/>
    <use xlink:href="#SegoeUI-Semibold-20" transform="translate(556.542969 0)"/>
    <use xlink:href="#SegoeUI-Semibold-63" transform="translate(584.033203 0)"/>
    <use xlink:href="#SegoeUI-Semibold-6f" transform="translate(631.054688 0)"/>
    <use xlink:href="#SegoeUI-Semibold-6e" transform="translate(690.771484 0)"/>
    <use xlink:href="#SegoeUI-Semibold-74" transform="translate(749.121094 0)"/>
    <use xlink:href="#SegoeUI-Semibold-72" transform="translate(785.253906 0)"/>
    <use xlink:href="#SegoeUI-Semibold-69" transform="translate(822.265625 0)"/>
    <use xlink:href="#SegoeUI-Semibold-62" transform="translate(848.388672 0)"/>
    <use xlink:href="#SegoeUI-Semibold-75" transform="translate(908.642578 0)"/>
    <use xlink:href="#SegoeUI-Semibold-74" transform="translate(966.992188 0)"/>
    <use xlink:href="#SegoeUI-Semibold-69" transform="translate(1003.125 0)"/>
    <use xlink:href="#SegoeUI-Semibold-6f" transform="translate(1029.248047 0)"/>
    <use xlink:href="#SegoeUI-Semibold-6e" transform="translate(1088.964844 0)"/>
    <use xlink:href="#SegoeUI-Semibold-20" transform="translate(1147.314453 0)"/>
    <use xlink:href="#SegoeUI-Semibold-72" transform="translate(1174.804688 0)"/>
    <use xlink:href="#SegoeUI-Semibold-69" transform="translate(1211.816406 0)"/>
    <use xlink:href="#SegoeUI-Semibold-73" transform="translate(1237.939453 0)"/>
    <use xlink:href="#SegoeUI-Semibold-65" transform="translate(1281.054688 0)"/>
    <use xlink:href="#SegoeUI-Semibold-73" transform="translate(1334.179688 0)"/>
    <use xlink:href="#SegoeUI-Semibold-20" transform="translate(1377.294922 0)"/>
    <use xlink:href="#SegoeUI-Semibold-69" transform="translate(1404.785156 0)"/>
    <use xlink:href="#SegoeUI-Semibold-6e" transform="translate(1430.908203 0)"/>
    <use xlink:href="#SegoeUI-Semibold-20" transform="translate(1489.257812 0)"/>
    <use xlink:href="#SegoeUI-Semibold-74" transform="translate(1516.748047 0)"/>
    <use xlink:href="#SegoeUI-Semibold-68" transform="translate(1552.880859 0)"/>
    <use xlink:href="#SegoeUI-Semibold-65" transform="translate(1611.083984 0)"/>
    <use xlink:href="#SegoeUI-Semibold-20" transform="translate(1664.208984 0)"/>
    <use xlink:href="#SegoeUI-Semibold-42" transform="translate(1691.699219 0)"/>
    <use xlink:href="#SegoeUI-Semibold-54" transform="translate(1748.474609 0)"/>
    <use xlink:href="#SegoeUI-Semibold-43" transform="translate(1799.650391 0)"/>
    <use xlink:href="#SegoeUI-Semibold-2d" transform="translate(1861.759766 0)"/>
    <use xlink:href="#SegoeUI-Semibold-45" transform="translate(1901.945312 0)"/>
    <use xlink:href="#SegoeUI-Semibold-54" transform="translate(1954.203125 0)"/>
    <use xlink:href="#SegoeUI-Semibold-46" transform="translate(2009.378906 0)"/>
    <use xlink:href="#SegoeUI-Semibold-20" transform="translate(2059.623047 0)"/>
    <use xlink:href="#SegoeUI-Semibold-65" transform="translate(2087.113281 0)"/>
    <use xlink:href="#SegoeUI-Semibold-72" transform="translate(2140.238281 0)"/>
    <use xlink:href="#SegoeUI-Semibold-61" transform="translate(2177.25 0)"/>
   </g>
  </g>
  <g id="text_18">
   <!-- Daily synchronized business-date model; drop-block delta R-squared for QQQ/SPY/IWM. -->
   <g style="fill: #6f768a" transform="translate(18.828125 39.760312) scale(0.11 -0.11)">
    <defs>
     <path id="SegoeUI-44" d="M 588 0
L 588 4481
L 1825 4481
Q 4194 4481 4194 2297
Q 4194 1259 3536 629
Q 2878 0 1775 0
L 588 0
z
M 1113 4006
L 1113 475
L 1781 475
Q 2663 475 3153 947
Q 3644 1419 3644 2284
Q 3644 4006 1813 4006
L 1113 4006
z
" transform="scale(0.015625)"/>
     <path id="SegoeUI-6e" d="M 3175 0
L 2663 0
L 2663 1825
Q 2663 2844 1919 2844
Q 1534 2844 1282 2555
Q 1031 2266 1031 1825
L 1031 0
L 519 0
L 519 3200
L 1031 3200
L 1031 2669
L 1044 2669
Q 1406 3275 2094 3275
Q 2619 3275 2897 2936
Q 3175 2597 3175 1956
L 3175 0
z
" transform="scale(0.015625)"/>
     <path id="SegoeUI-68" d="M 3175 0
L 2663 0
L 2663 1844
Q 2663 2844 1919 2844
Q 1544 2844 1287 2555
Q 1031 2266 1031 1813
L 1031 0
L 519 0
L 519 4738
L 1031 4738
L 1031 2669
L 1044 2669
Q 1413 3275 2094 3275
Q 3175 3275 3175 1972
L 3175 0
z
" transform="scale(0.015625)"/>
     <path id="SegoeUI-7a" d="M 2750 3053
L 856 438
L 2731 438
L 2731 0
L 103 0
L 103 159
L 1997 2763
L 281 2763
L 281 3200
L 2750 3200
L 2750 3053
z
" transform="scale(0.015625)"/>
     <path id="SegoeUI-6d" d="M 5063 0
L 4550 0
L 4550 1838
Q 4550 2369 4386 2606
Q 4222 2844 3834 2844
Q 3506 2844 3276 2544
Q 3047 2244 3047 1825
L 3047 0
L 2534 0
L 2534 1900
Q 2534 2844 1806 2844
Q 1469 2844 1250 2561
Q 1031 2278 1031 1825
L 1031 0
L 519 0
L 519 3200
L 1031 3200
L 1031 2694
L 1044 2694
Q 1384 3275 2038 3275
Q 2366 3275 2609 3092
Q 2853 2909 2944 2613
Q 3300 3275 4006 3275
Q 5063 3275 5063 1972
L 5063 0
z
" transform="scale(0.015625)"/>
     <path id="SegoeUI-3b" d="M 706 2575
Q 559 2575 457 2678
Q 356 2781 356 2925
Q 356 3069 457 3169
Q 559 3269 706 3269
Q 850 3269 953 3169
Q 1056 3069 1056 2925
Q 1056 2781 953 2678
Q 850 2575 706 2575
z
M 988 713
L 488 -825
L 122 -825
L 488 713
L 988 713
z
" transform="scale(0.015625)"/>
     <path id="SegoeUI-70" d="M 1044 463
L 1031 463
L 1031 -1472
L 519 -1472
L 519 3200
L 1031 3200
L 1031 2638
L 1044 2638
Q 1422 3275 2150 3275
Q 2769 3275 3116 2845
Q 3463 2416 3463 1694
Q 3463 891 3072 408
Q 2681 -75 2003 -75
Q 1381 -75 1044 463
z
M 1031 1753
L 1031 1306
Q 1031 909 1289 632
Q 1547 356 1944 356
Q 2409 356 2673 712
Q 2938 1069 2938 1703
Q 2938 2238 2691 2541
Q 2444 2844 2022 2844
Q 1575 2844 1303 2533
Q 1031 2222 1031 1753
z
" transform="scale(0.015625)"/>
     <path id="SegoeUI-66" d="M 2100 4288
Q 1950 4372 1759 4372
Q 1222 4372 1222 3694
L 1222 3200
L 1972 3200
L 1972 2763
L 1222 2763
L 1222 0
L 713 0
L 713 2763
L 166 2763
L 166 3200
L 713 3200
L 713 3719
Q 713 4222 1003 4514
Q 1294 4806 1728 4806
Q 1963 4806 2100 4750
L 2100 4288
z
" transform="scale(0.015625)"/>
     <path id="SegoeUI-51" d="M 2394 -75
Q 1444 -75 866 553
Q 294 1181 294 2188
Q 294 3272 878 3913
Q 1466 4556 2469 4556
Q 3394 4556 3963 3931
Q 4531 3306 4531 2297
Q 4531 1200 3950 563
Q 3813 409 3656 300
L 4916 -603
L 3963 -603
L 3119 28
Q 2788 -75 2394 -75
z
M 2431 4081
Q 1725 4081 1284 3572
Q 844 3063 844 2234
Q 844 1409 1272 900
Q 1703 397 2394 397
Q 3131 397 3556 878
Q 3981 1359 3981 2225
Q 3981 3116 3569 3597
Q 3156 4081 2431 4081
z
" transform="scale(0.015625)"/>
     <path id="SegoeUI-2f" d="M 2541 4481
L 391 -744
L -88 -744
L 2056 4481
L 2541 4481
z
" transform="scale(0.015625)"/>
     <path id="SegoeUI-53" d="M 378 181
L 378 800
Q 484 706 632 631
Q 781 556 945 504
Q 1109 453 1275 425
Q 1441 397 1581 397
Q 2066 397 2305 576
Q 2544 756 2544 1094
Q 2544 1275 2464 1409
Q 2384 1544 2243 1655
Q 2103 1766 1911 1867
Q 1719 1969 1497 2081
Q 1263 2200 1059 2322
Q 856 2444 706 2591
Q 556 2738 470 2923
Q 384 3109 384 3359
Q 384 3666 518 3892
Q 653 4119 872 4266
Q 1091 4413 1370 4484
Q 1650 4556 1941 4556
Q 2603 4556 2906 4397
L 2906 3806
Q 2509 4081 1888 4081
Q 1716 4081 1544 4045
Q 1372 4009 1237 3928
Q 1103 3847 1018 3719
Q 934 3591 934 3406
Q 934 3234 998 3109
Q 1063 2984 1188 2881
Q 1313 2778 1492 2681
Q 1672 2584 1906 2469
Q 2147 2350 2362 2219
Q 2578 2088 2740 1928
Q 2903 1769 2998 1575
Q 3094 1381 3094 1131
Q 3094 800 2964 570
Q 2834 341 2614 197
Q 2394 53 2106 -11
Q 1819 -75 1500 -75
Q 1394 -75 1237 -58
Q 1081 -41 918 -8
Q 756 25 611 73
Q 466 122 378 181
z
" transform="scale(0.015625)"/>
     <path id="SegoeUI-59" d="M 3500 4481
L 2022 1656
L 2022 0
L 1497 0
L 1497 1644
L 56 4481
L 653 4481
L 1656 2456
Q 1675 2419 1766 2181
L 1775 2181
Q 1806 2288 1894 2456
L 2944 4481
L 3500 4481
z
" transform="scale(0.015625)"/>
     <path id="SegoeUI-49" d="M 1113 0
L 588 0
L 588 4481
L 1113 4481
L 1113 0
z
" transform="scale(0.015625)"/>
     <path id="SegoeUI-57" d="M 5900 4481
L 4634 0
L 4019 0
L 3097 3275
Q 3038 3484 3025 3731
L 3013 3731
Q 2994 3500 2931 3281
L 2003 0
L 1394 0
L 81 4481
L 659 4481
L 1613 1044
Q 1672 828 1688 594
L 1703 594
Q 1719 759 1800 1044
L 2791 4481
L 3294 4481
L 4244 1019
Q 4294 841 4319 600
L 4331 600
Q 4344 763 4416 1031
L 5331 4481
L 5900 4481
z
" transform="scale(0.015625)"/>
     <path id="SegoeUI-4d" d="M 5156 0
L 4634 0
L 4634 3006
Q 4634 3363 4678 3878
L 4666 3878
Q 4591 3575 4531 3444
L 3000 0
L 2744 0
L 1216 3419
Q 1150 3569 1081 3878
L 1069 3878
Q 1094 3609 1094 3000
L 1094 0
L 588 0
L 588 4481
L 1281 4481
L 2656 1356
Q 2816 997 2863 819
L 2881 819
Q 3016 1188 3097 1369
L 4500 4481
L 5156 4481
L 5156 0
z
" transform="scale(0.015625)"/>
    </defs>
    <use xlink:href="#SegoeUI-44"/>
    <use xlink:href="#SegoeUI-61" transform="translate(70.117188 0)"/>
    <use xlink:href="#SegoeUI-69" transform="translate(120.996094 0)"/>
    <use xlink:href="#SegoeUI-6c" transform="translate(145.214844 0)"/>
    <use xlink:href="#SegoeUI-79" transform="translate(169.433594 0)"/>
    <use xlink:href="#SegoeUI-20" transform="translate(217.822266 0)"/>
    <use xlink:href="#SegoeUI-73" transform="translate(245.214844 0)"/>
    <use xlink:href="#SegoeUI-79" transform="translate(287.646484 0)"/>
    <use xlink:href="#SegoeUI-6e" transform="translate(336.035156 0)"/>
    <use xlink:href="#SegoeUI-63" transform="translate(392.626953 0)"/>
    <use xlink:href="#SegoeUI-68" transform="translate(438.818359 0)"/>
    <use xlink:href="#SegoeUI-72" transform="translate(495.410156 0)"/>
    <use xlink:href="#SegoeUI-6f" transform="translate(528.800781 0)"/>
    <use xlink:href="#SegoeUI-6e" transform="translate(587.394531 0)"/>
    <use xlink:href="#SegoeUI-69" transform="translate(643.986328 0)"/>
    <use xlink:href="#SegoeUI-7a" transform="translate(668.205078 0)"/>
    <use xlink:href="#SegoeUI-65" transform="translate(713.419922 0)"/>
    <use xlink:href="#SegoeUI-64" transform="translate(765.714844 0)"/>
    <use xlink:href="#SegoeUI-20" transform="translate(824.601562 0)"/>
    <use xlink:href="#SegoeUI-62" transform="translate(851.994141 0)"/>
    <use xlink:href="#SegoeUI-75" transform="translate(910.783203 0)"/>
    <use xlink:href="#SegoeUI-73" transform="translate(967.375 0)"/>
    <use xlink:href="#SegoeUI-69" transform="translate(1009.806641 0)"/>
    <use xlink:href="#SegoeUI-6e" transform="translate(1034.025391 0)"/>
    <use xlink:href="#SegoeUI-65" transform="translate(1090.617188 0)"/>
    <use xlink:href="#SegoeUI-73" transform="translate(1142.912109 0)"/>
    <use xlink:href="#SegoeUI-73" transform="translate(1185.34375 0)"/>
    <use xlink:href="#SegoeUI-2d" transform="translate(1227.775391 0)"/>
    <use xlink:href="#SegoeUI-64" transform="translate(1267.765625 0)"/>
    <use xlink:href="#SegoeUI-61" transform="translate(1326.652344 0)"/>
    <use xlink:href="#SegoeUI-74" transform="translate(1377.53125 0)"/>
    <use xlink:href="#SegoeUI-65" transform="translate(1410.667969 0)"/>
    <use xlink:href="#SegoeUI-20" transform="translate(1462.962891 0)"/>
    <use xlink:href="#SegoeUI-6d" transform="translate(1490.355469 0)"/>
    <use xlink:href="#SegoeUI-6f" transform="translate(1576.488281 0)"/>
    <use xlink:href="#SegoeUI-64" transform="translate(1635.082031 0)"/>
    <use xlink:href="#SegoeUI-65" transform="translate(1693.96875 0)"/>
    <use xlink:href="#SegoeUI-6c" transform="translate(1746.263672 0)"/>
    <use xlink:href="#SegoeUI-3b" transform="translate(1770.482422 0)"/>
    <use xlink:href="#SegoeUI-20" transform="translate(1792.162109 0)"/>
    <use xlink:href="#SegoeUI-64" transform="translate(1819.554688 0)"/>
    <use xlink:href="#SegoeUI-72" transform="translate(1878.441406 0)"/>
    <use xlink:href="#SegoeUI-6f" transform="translate(1911.832031 0)"/>
    <use xlink:href="#SegoeUI-70" transform="translate(1970.425781 0)"/>
    <use xlink:href="#SegoeUI-2d" transform="translate(2029.214844 0)"/>
    <use xlink:href="#SegoeUI-62" transform="translate(2069.205078 0)"/>
    <use xlink:href="#SegoeUI-6c" transform="translate(2127.994141 0)"/>
    <use xlink:href="#SegoeUI-6f" transform="translate(2152.212891 0)"/>
    <use xlink:href="#SegoeUI-63" transform="translate(2210.806641 0)"/>
    <use xlink:href="#SegoeUI-6b" transform="translate(2256.998047 0)"/>
    <use xlink:href="#SegoeUI-20" transform="translate(2306.705078 0)"/>
    <use xlink:href="#SegoeUI-64" transform="translate(2334.097656 0)"/>
    <use xlink:href="#SegoeUI-65" transform="translate(2392.984375 0)"/>
    <use xlink:href="#SegoeUI-6c" transform="translate(2445.279297 0)"/>
    <use xlink:href="#SegoeUI-74" transform="translate(2469.498047 0)"/>
    <use xlink:href="#SegoeUI-61" transform="translate(2503.384766 0)"/>
    <use xlink:href="#SegoeUI-20" transform="translate(2554.263672 0)"/>
    <use xlink:href="#SegoeUI-52" transform="translate(2581.65625 0)"/>
    <use xlink:href="#SegoeUI-2d" transform="translate(2641.470703 0)"/>
    <use xlink:href="#SegoeUI-73" transform="translate(2681.460938 0)"/>
    <use xlink:href="#SegoeUI-71" transform="translate(2723.892578 0)"/>
    <use xlink:href="#SegoeUI-75" transform="translate(2782.779297 0)"/>
    <use xlink:href="#SegoeUI-61" transform="translate(2839.371094 0)"/>
    <use xlink:href="#SegoeUI-72" transform="translate(2890.25 0)"/>
    <use xlink:href="#SegoeUI-65" transform="translate(2923.640625 0)"/>
    <use xlink:href="#SegoeUI-64" transform="translate(2975.935547 0)"/>
    <use xlink:href="#SegoeUI-20" transform="translate(3034.822266 0)"/>
    <use xlink:href="#SegoeUI-66" transform="translate(3062.214844 0)"/>
    <use xlink:href="#SegoeUI-6f" transform="translate(3093.513672 0)"/>
    <use xlink:href="#SegoeUI-72" transform="translate(3152.107422 0)"/>
    <use xlink:href="#SegoeUI-20" transform="translate(3186.873047 0)"/>
    <use xlink:href="#SegoeUI-51" transform="translate(3214.265625 0)"/>
    <use xlink:href="#SegoeUI-51" transform="translate(3289.65625 0)"/>
    <use xlink:href="#SegoeUI-51" transform="translate(3365.046875 0)"/>
    <use xlink:href="#SegoeUI-2f" transform="translate(3440.4375 0)"/>
    <use xlink:href="#SegoeUI-53" transform="translate(3479.402344 0)"/>
    <use xlink:href="#SegoeUI-50" transform="translate(3532.527344 0)"/>
    <use xlink:href="#SegoeUI-59" transform="translate(3588.533203 0)"/>
    <use xlink:href="#SegoeUI-2f" transform="translate(3643.806641 0)"/>
    <use xlink:href="#SegoeUI-49" transform="translate(3682.771484 0)"/>
    <use xlink:href="#SegoeUI-57" transform="translate(3709.382812 0)"/>
    <use xlink:href="#SegoeUI-4d" transform="translate(3802.791016 0)"/>
    <use xlink:href="#SegoeUI-2e" transform="translate(3892.585938 0)"/>
   </g>
  </g>
 </g>
 <defs>
  <clipPath id="peef7439c6b">
   <rect x="44.748125" y="92.25" width="760.32" height="311.04"/>
  </clipPath>
 </defs>
</svg>
