<?xml version="1.0" encoding="utf-8" standalone="no"?>
<!DOCTYPE svg PUBLIC "-//W3C//DTD SVG 1.1//EN"
  "http://www.w3.org/Graphics/SVG/1.1/DTD/svg11.dtd">
<svg xmlns:xlink="http://www.w3.org/1999/xlink" width="972.149375pt" height="379.683125pt" viewBox="0 0 972.149375 379.683125" xmlns="http://www.w3.org/2000/svg" version="1.1">
 <metadata>
  <rdf:RDF xmlns:dc="http://purl.org/dc/elements/1.1/" xmlns:cc="http://creativecommons.org/ns#" xmlns:rdf="http://www.w3.org/1999/02/22-rdf-syntax-ns#">
   <cc:Work>
    <dc:type rdf:resource="http://purl.org/dc/dcmitype/StillImage"/>
    <dc:format>image/svg+xml</dc:format>
    <dc:creator>
     <cc:Agent>
      <dc:title>Matplotlib v3.10.8, https://matplotlib.org/</dc:title>
     </cc:Agent>
    </dc:creator>
   </cc:Work>
  </rdf:RDF>
 </metadata>
 <defs>
  <style type="text/css">*{stroke-linejoin: round; stroke-linecap: butt}</style>
 </defs>
 <g id="figure_1">
  <g id="patch_1">
   <path d="M 0 379.683125
L 972.149375 379.683125
L 972.149375 0
L 0 0
z
" style="fill: #ffffff"/>
  </g>
  <g id="axes_1">
   <g id="patch_2">
    <path d="M 47.669375 359.28
L 457.169375 359.28
L 457.169375 91.44
L 47.669375 91.44
z
" style="fill: #ffffff"/>
   </g>
   <g id="matplotlib.axis_1">
    <g id="xtick_1">
     <g id="text_1">
      <!-- 2020 -->
      <g style="fill: #6f768a" transform="translate(55.339268 370.183125) scale(0.1 -0.1)">
       <defs>
        <path id="SegoeUI-32" d="M 2413 3306
Q 2413 3513 2348 3666
Q 2284 3819 2173 3920
Q 2063 4022 1913 4072
Q 1763 4122 1588 4122
Q 1438 4122 1294 4081
Q 1150 4041 1014 3969
Q 878 3897 751 3797
Q 625 3697 516 3575
L 516 4125
Q 731 4334 998 4445
Q 1266 4556 1650 4556
Q 1925 4556 2159 4476
Q 2394 4397 2566 4244
Q 2738 4091 2836 3866
Q 2934 3641 2934 3350
Q 2934 3084 2873 2868
Q 2813 2653 2689 2462
Q 2566 2272 2378 2097
Q 2191 1922 1938 1741
Q 1622 1516 1417 1356
Q 1213 1197 1092 1058
Q 972 919 923 780
Q 875 641 875 459
L 3106 459
L 3106 0
L 341 0
L 341 222
Q 341 509 403 728
Q 466 947 609 1144
Q 753 1341 986 1537
Q 1219 1734 1556 1981
Q 1800 2156 1964 2315
Q 2128 2475 2228 2634
Q 2328 2794 2370 2958
Q 2413 3122 2413 3306
z
" transform="scale(0.015625)"/>
        <path id="SegoeUI-30" d="M 3188 2259
Q 3188 1697 3086 1262
Q 2984 828 2792 529
Q 2600 231 2320 76
Q 2041 -78 1684 -78
Q 1347 -78 1083 70
Q 819 219 637 503
Q 456 788 362 1202
Q 269 1616 269 2150
Q 269 2738 367 3188
Q 466 3638 656 3942
Q 847 4247 1130 4401
Q 1413 4556 1778 4556
Q 3188 4556 3188 2259
z
M 2663 2209
Q 2663 4122 1753 4122
Q 794 4122 794 2175
Q 794 359 1734 359
Q 2663 359 2663 2209
z
" transform="scale(0.015625)"/>
       </defs>
       <use xlink:href="#SegoeUI-32"/>
       <use xlink:href="#SegoeUI-30" transform="translate(53.90625 0)"/>
       <use xlink:href="#SegoeUI-32" transform="translate(107.8125 0)"/>
       <use xlink:href="#SegoeUI-30" transform="translate(161.71875 0)"/>
      </g>
     </g>
    </g>
    <g id="xtick_2">
     <g id="text_2">
      <!-- 2022 -->
      <g style="fill: #6f768a" transform="translate(174.122054 370.183125) scale(0.1 -0.1)">
       <use xlink:href="#SegoeUI-32"/>
       <use xlink:href="#SegoeUI-30" transform="translate(53.90625 0)"/>
       <use xlink:href="#SegoeUI-32" transform="translate(107.8125 0)"/>
       <use xlink:href="#SegoeUI-32" transform="translate(161.71875 0)"/>
      </g>
     </g>
    </g>
    <g id="xtick_3">
     <g id="text_3">
      <!-- 2024 -->
      <g style="fill: #6f768a" transform="translate(292.742347 370.183125) scale(0.1 -0.1)">
       <defs>
        <path id="SegoeUI-34" d="M 2656 4481
L 2656 1522
L 3231 1522
L 3231 1053
L 2656 1053
L 2656 0
L 2150 0
L 2150 1053
L 44 1053
L 44 1497
Q 338 1828 638 2204
Q 938 2581 1211 2968
Q 1484 3356 1717 3742
Q 1950 4128 2109 4481
L 2656 4481
z
M 622 1522
L 2150 1522
L 2150 3716
Q 1916 3306 1706 2984
Q 1497 2663 1308 2400
Q 1119 2138 947 1925
Q 775 1713 622 1522
z
" transform="scale(0.015625)"/>
       </defs>
       <use xlink:href="#SegoeUI-32"/>
       <use xlink:href="#SegoeUI-30" transform="translate(53.90625 0)"/>
       <use xlink:href="#SegoeUI-32" transform="translate(107.8125 0)"/>
       <use xlink:href="#SegoeUI-34" transform="translate(161.71875 0)"/>
      </g>
     </g>
    </g>
    <g id="xtick_4">
     <g id="text_4">
      <!-- 2026 -->
      <g style="fill: #6f768a" transform="translate(411.525133 370.183125) scale(0.1 -0.1)">
       <defs>
        <path id="SegoeUI-36" d="M 3194 1422
Q 3194 1094 3087 819
Q 2981 544 2793 344
Q 2606 144 2347 33
Q 2088 -78 1784 -78
Q 1447 -78 1180 62
Q 913 203 727 467
Q 541 731 444 1112
Q 347 1494 347 1972
Q 347 2556 476 3032
Q 606 3509 845 3848
Q 1084 4188 1421 4372
Q 1759 4556 2175 4556
Q 2638 4556 2919 4428
L 2919 3944
Q 2572 4122 2188 4122
Q 1888 4122 1647 3987
Q 1406 3853 1234 3608
Q 1063 3363 970 3016
Q 878 2669 878 2244
L 891 2244
Q 1200 2803 1913 2803
Q 2206 2803 2442 2703
Q 2678 2603 2845 2420
Q 3013 2238 3103 1984
Q 3194 1731 3194 1422
z
M 2669 1356
Q 2669 1591 2609 1778
Q 2550 1966 2439 2097
Q 2328 2228 2165 2298
Q 2003 2369 1797 2369
Q 1606 2369 1443 2297
Q 1281 2225 1162 2101
Q 1044 1978 976 1814
Q 909 1650 909 1466
Q 909 1234 975 1032
Q 1041 831 1159 681
Q 1278 531 1442 445
Q 1606 359 1806 359
Q 2000 359 2159 432
Q 2319 506 2431 637
Q 2544 769 2606 951
Q 2669 1134 2669 1356
z
" transform="scale(0.015625)"/>
       </defs>
       <use xlink:href="#SegoeUI-32"/>
       <use xlink:href="#SegoeUI-30" transform="translate(53.90625 0)"/>
       <use xlink:href="#SegoeUI-32" transform="translate(107.8125 0)"/>
       <use xlink:href="#SegoeUI-36" transform="translate(161.71875 0)"/>
      </g>
     </g>
    </g>
   </g>
   <g id="matplotlib.axis_2">
    <g id="ytick_1">
     <g id="line2d_1">
      <path d="M 47.669375 337.425571
L 457.169375 337.425571
" clip-path="url(#p8dee1b3752)" style="fill: none; stroke: #e8ebf2; stroke-width: 0.8; stroke-linecap: round"/>
     </g>
     <g id="text_5">
      <!-- 0.0% -->
      <g style="fill: #6f768a" transform="translate(23.035 341.127134) scale(0.1 -0.1)">
       <defs>
        <path id="SegoeUI-2e" d="M 697 -69
Q 553 -69 451 34
Q 350 138 350 281
Q 350 425 451 529
Q 553 634 697 634
Q 844 634 947 529
Q 1050 425 1050 281
Q 1050 138 947 34
Q 844 -69 697 -69
z
" transform="scale(0.015625)"/>
        <path id="SegoeUI-25" d="M 1263 2234
Q 800 2234 525 2539
Q 250 2844 250 3353
Q 250 3909 540 4229
Q 831 4550 1325 4550
Q 1803 4550 2067 4253
Q 2331 3956 2331 3419
Q 2331 2881 2036 2557
Q 1741 2234 1263 2234
z
M 1306 4206
Q 1009 4206 837 3986
Q 666 3766 666 3381
Q 666 3003 834 2792
Q 1003 2581 1294 2581
Q 1588 2581 1753 2800
Q 1919 3019 1919 3406
Q 1919 3784 1755 3995
Q 1591 4206 1306 4206
z
M 4263 4481
L 1388 -31
L 941 -31
L 3813 4481
L 4263 4481
z
M 3931 -69
Q 3469 -69 3194 237
Q 2919 544 2919 1050
Q 2919 1606 3212 1929
Q 3506 2253 3994 2253
Q 4469 2253 4734 1953
Q 5000 1653 5000 1113
Q 5000 578 4704 254
Q 4409 -69 3931 -69
z
M 3975 1900
Q 3675 1900 3504 1681
Q 3334 1463 3334 1075
Q 3334 703 3503 492
Q 3672 281 3963 281
Q 4256 281 4422 501
Q 4588 722 4588 1106
Q 4588 1488 4423 1694
Q 4259 1900 3975 1900
z
" transform="scale(0.015625)"/>
       </defs>
       <use xlink:href="#SegoeUI-30"/>
       <use xlink:href="#SegoeUI-2e" transform="translate(53.90625 0)"/>
       <use xlink:href="#SegoeUI-30" transform="translate(75.585938 0)"/>
       <use xlink:href="#SegoeUI-25" transform="translate(129.492188 0)"/>
      </g>
     </g>
    </g>
    <g id="ytick_2">
     <g id="line2d_2">
      <path d="M 47.669375 293.635782
L 457.169375 293.635782
" clip-path="url(#p8dee1b3752)" style="fill: none; stroke: #e8ebf2; stroke-width: 0.8; stroke-linecap: round"/>
     </g>
     <g id="text_6">
      <!-- 1.0% -->
      <g style="fill: #6f768a" transform="translate(23.035 297.337344) scale(0.1 -0.1)">
       <defs>
        <path id="SegoeUI-31" d="M 2263 0
L 1750 0
L 1750 3872
Q 1691 3813 1577 3736
Q 1463 3659 1320 3584
Q 1178 3509 1020 3443
Q 863 3378 713 3341
L 713 3859
Q 881 3906 1070 3986
Q 1259 4066 1442 4164
Q 1625 4263 1787 4370
Q 1950 4478 2069 4581
L 2263 4581
L 2263 0
z
" transform="scale(0.015625)"/>
       </defs>
       <use xlink:href="#SegoeUI-31"/>
       <use xlink:href="#SegoeUI-2e" transform="translate(53.90625 0)"/>
       <use xlink:href="#SegoeUI-30" transform="translate(75.585938 0)"/>
       <use xlink:href="#SegoeUI-25" transform="translate(129.492188 0)"/>
      </g>
     </g>
    </g>
    <g id="ytick_3">
     <g id="line2d_3">
      <path d="M 47.669375 249.845992
L 457.169375 249.845992
" clip-path="url(#p8dee1b3752)" style="fill: none; stroke: #e8ebf2; stroke-width: 0.8; stroke-linecap: round"/>
     </g>
     <g id="text_7">
      <!-- 2.0% -->
      <g style="fill: #6f768a" transform="translate(23.035 253.547554) scale(0.1 -0.1)">
       <use xlink:href="#SegoeUI-32"/>
       <use xlink:href="#SegoeUI-2e" transform="translate(53.90625 0)"/>
       <use xlink:href="#SegoeUI-30" transform="translate(75.585938 0)"/>
       <use xlink:href="#SegoeUI-25" transform="translate(129.492188 0)"/>
      </g>
     </g>
    </g>
    <g id="ytick_4">
     <g id="line2d_4">
      <path d="M 47.669375 206.056202
L 457.169375 206.056202
" clip-path="url(#p8dee1b3752)" style="fill: none; stroke: #e8ebf2; stroke-width: 0.8; stroke-linecap: round"/>
     </g>
     <g id="text_8">
      <!-- 3.0% -->
      <g style="fill: #6f768a" transform="translate(23.035 209.757765) scale(0.1 -0.1)">
       <defs>
        <path id="SegoeUI-33" d="M 2978 1269
Q 2978 966 2864 717
Q 2750 469 2542 292
Q 2334 116 2043 19
Q 1753 -78 1403 -78
Q 763 -78 384 166
L 384 716
Q 838 359 1422 359
Q 1656 359 1845 418
Q 2034 478 2170 590
Q 2306 703 2379 862
Q 2453 1022 2453 1222
Q 2453 2100 1203 2100
L 831 2100
L 831 2534
L 1184 2534
Q 2291 2534 2291 3359
Q 2291 4122 1447 4122
Q 972 4122 556 3803
L 556 4300
Q 984 4556 1575 4556
Q 1856 4556 2084 4478
Q 2313 4400 2475 4259
Q 2638 4119 2727 3922
Q 2816 3725 2816 3488
Q 2816 2603 1922 2350
L 1922 2338
Q 2150 2313 2344 2227
Q 2538 2141 2678 2003
Q 2819 1866 2898 1680
Q 2978 1494 2978 1269
z
" transform="scale(0.015625)"/>
       </defs>
       <use xlink:href="#SegoeUI-33"/>
       <use xlink:href="#SegoeUI-2e" transform="translate(53.90625 0)"/>
       <use xlink:href="#SegoeUI-30" transform="translate(75.585938 0)"/>
       <use xlink:href="#SegoeUI-25" transform="translate(129.492188 0)"/>
      </g>
     </g>
    </g>
    <g id="ytick_5">
     <g id="line2d_5">
      <path d="M 47.669375 162.266412
L 457.169375 162.266412
" clip-path="url(#p8dee1b3752)" style="fill: none; stroke: #e8ebf2; stroke-width: 0.8; stroke-linecap: round"/>
     </g>
     <g id="text_9">
      <!-- 4.0% -->
      <g style="fill: #6f768a" transform="translate(23.035 165.967975) scale(0.1 -0.1)">
       <use xlink:href="#SegoeUI-34"/>
       <use xlink:href="#SegoeUI-2e" transform="translate(53.90625 0)"/>
       <use xlink:href="#SegoeUI-30" transform="translate(75.585938 0)"/>
       <use xlink:href="#SegoeUI-25" transform="translate(129.492188 0)"/>
      </g>
     </g>
    </g>
    <g id="ytick_6">
     <g id="line2d_6">
      <path d="M 47.669375 118.476623
L 457.169375 118.476623
" clip-path="url(#p8dee1b3752)" style="fill: none; stroke: #e8ebf2; stroke-width: 0.8; stroke-linecap: round"/>
     </g>
     <g id="text_10">
      <!-- 5.0% -->
      <g style="fill: #6f768a" transform="translate(23.035 122.178185) scale(0.1 -0.1)">
       <defs>
        <path id="SegoeUI-35" d="M 3028 1369
Q 3028 1041 2915 775
Q 2803 509 2595 318
Q 2388 128 2094 25
Q 1800 -78 1441 -78
Q 816 -78 513 109
L 513 653
Q 969 359 1447 359
Q 1691 359 1886 431
Q 2081 503 2218 631
Q 2356 759 2429 940
Q 2503 1122 2503 1338
Q 2503 1775 2209 2023
Q 1916 2272 1356 2272
Q 1266 2272 1166 2269
Q 1066 2266 966 2261
Q 866 2256 770 2250
Q 675 2244 597 2234
L 750 4481
L 2822 4481
L 2822 4019
L 1194 4019
L 1103 2703
Q 1203 2709 1315 2714
Q 1428 2719 1516 2719
Q 1872 2719 2153 2625
Q 2434 2531 2629 2357
Q 2825 2184 2926 1932
Q 3028 1681 3028 1369
z
" transform="scale(0.015625)"/>
       </defs>
       <use xlink:href="#SegoeUI-35"/>
       <use xlink:href="#SegoeUI-2e" transform="translate(53.90625 0)"/>
       <use xlink:href="#SegoeUI-30" transform="translate(75.585938 0)"/>
       <use xlink:href="#SegoeUI-25" transform="translate(129.492188 0)"/>
      </g>
     </g>
    </g>
    <g id="text_11">
     <!-- Cumulative flow / lagged market cap -->
     <g style="fill: #1f2430" transform="translate(16.21125 322.675312) rotate(-90) scale(0.12 -0.12)">
      <defs>
       <path id="SegoeUI-43" d="M 3638 188
Q 3141 -75 2400 -75
Q 1444 -75 869 540
Q 294 1156 294 2156
Q 294 3231 941 3893
Q 1588 4556 2581 4556
Q 3219 4556 3638 4372
L 3638 3813
Q 3156 4081 2575 4081
Q 1803 4081 1323 3565
Q 844 3050 844 2188
Q 844 1369 1292 883
Q 1741 397 2469 397
Q 3144 397 3638 697
L 3638 188
z
" transform="scale(0.015625)"/>
       <path id="SegoeUI-75" d="M 3106 0
L 2594 0
L 2594 506
L 2581 506
Q 2263 -75 1594 -75
Q 450 -75 450 1288
L 450 3200
L 959 3200
L 959 1369
Q 959 356 1734 356
Q 2109 356 2351 632
Q 2594 909 2594 1356
L 2594 3200
L 3106 3200
L 3106 0
z
" transform="scale(0.015625)"/>
       <path id="SegoeUI-6d" d="M 5063 0
L 4550 0
L 4550 1838
Q 4550 2369 4386 2606
Q 4222 2844 3834 2844
Q 3506 2844 3276 2544
Q 3047 2244 3047 1825
L 3047 0
L 2534 0
L 2534 1900
Q 2534 2844 1806 2844
Q 1469 2844 1250 2561
Q 1031 2278 1031 1825
L 1031 0
L 519 0
L 519 3200
L 1031 3200
L 1031 2694
L 1044 2694
Q 1384 3275 2038 3275
Q 2366 3275 2609 3092
Q 2853 2909 2944 2613
Q 3300 3275 4006 3275
Q 5063 3275 5063 1972
L 5063 0
z
" transform="scale(0.015625)"/>
       <path id="SegoeUI-6c" d="M 1031 0
L 519 0
L 519 4738
L 1031 4738
L 1031 0
z
" transform="scale(0.015625)"/>
       <path id="SegoeUI-61" d="M 2809 0
L 2297 0
L 2297 500
L 2284 500
Q 1950 -75 1300 -75
Q 822 -75 551 178
Q 281 431 281 850
Q 281 1747 1338 1894
L 2297 2028
Q 2297 2844 1638 2844
Q 1059 2844 594 2450
L 594 2975
Q 1066 3275 1681 3275
Q 2809 3275 2809 2081
L 2809 0
z
M 2297 1619
L 1525 1513
Q 1169 1463 987 1336
Q 806 1209 806 888
Q 806 653 973 504
Q 1141 356 1419 356
Q 1800 356 2048 623
Q 2297 891 2297 1300
L 2297 1619
z
" transform="scale(0.015625)"/>
       <path id="SegoeUI-74" d="M 2003 31
Q 1822 -69 1525 -69
Q 684 -69 684 869
L 684 2763
L 134 2763
L 134 3200
L 684 3200
L 684 3981
L 1197 4147
L 1197 3200
L 2003 3200
L 2003 2763
L 1197 2763
L 1197 959
Q 1197 638 1306 500
Q 1416 363 1669 363
Q 1863 363 2003 469
L 2003 31
z
" transform="scale(0.015625)"/>
       <path id="SegoeUI-69" d="M 781 4013
Q 644 4013 547 4106
Q 450 4200 450 4344
Q 450 4488 547 4583
Q 644 4678 781 4678
Q 922 4678 1020 4583
Q 1119 4488 1119 4344
Q 1119 4206 1020 4109
Q 922 4013 781 4013
z
M 1031 0
L 519 0
L 519 3200
L 1031 3200
L 1031 0
z
" transform="scale(0.015625)"/>
       <path id="SegoeUI-76" d="M 3034 3200
L 1759 0
L 1256 0
L 44 3200
L 606 3200
L 1419 875
Q 1509 619 1531 428
L 1544 428
Q 1575 669 1644 863
L 2494 3200
L 3034 3200
z
" transform="scale(0.015625)"/>
       <path id="SegoeUI-65" d="M 3091 1472
L 831 1472
Q 844 938 1119 647
Q 1394 356 1875 356
Q 2416 356 2869 713
L 2869 231
Q 2447 -75 1753 -75
Q 1075 -75 687 361
Q 300 797 300 1588
Q 300 2334 723 2804
Q 1147 3275 1775 3275
Q 2403 3275 2747 2869
Q 3091 2463 3091 1741
L 3091 1472
z
M 2566 1906
Q 2563 2350 2352 2597
Q 2141 2844 1766 2844
Q 1403 2844 1150 2584
Q 897 2325 838 1906
L 2566 1906
z
" transform="scale(0.015625)"/>
       <path id="SegoeUI-20" transform="scale(0.015625)"/>
       <path id="SegoeUI-66" d="M 2100 4288
Q 1950 4372 1759 4372
Q 1222 4372 1222 3694
L 1222 3200
L 1972 3200
L 1972 2763
L 1222 2763
L 1222 0
L 713 0
L 713 2763
L 166 2763
L 166 3200
L 713 3200
L 713 3719
Q 713 4222 1003 4514
Q 1294 4806 1728 4806
Q 1963 4806 2100 4750
L 2100 4288
z
" transform="scale(0.015625)"/>
       <path id="SegoeUI-6f" d="M 1856 -75
Q 1147 -75 723 373
Q 300 822 300 1563
Q 300 2369 740 2822
Q 1181 3275 1931 3275
Q 2647 3275 3048 2834
Q 3450 2394 3450 1613
Q 3450 847 3017 386
Q 2584 -75 1856 -75
z
M 1894 2844
Q 1400 2844 1112 2508
Q 825 2172 825 1581
Q 825 1013 1115 684
Q 1406 356 1894 356
Q 2391 356 2658 678
Q 2925 1000 2925 1594
Q 2925 2194 2658 2519
Q 2391 2844 1894 2844
z
" transform="scale(0.015625)"/>
       <path id="SegoeUI-77" d="M 4550 3200
L 3591 0
L 3059 0
L 2400 2291
Q 2363 2422 2350 2588
L 2338 2588
Q 2328 2475 2272 2297
L 1556 0
L 1044 0
L 75 3200
L 613 3200
L 1275 794
Q 1306 684 1319 506
L 1344 506
Q 1353 644 1400 800
L 2138 3200
L 2606 3200
L 3269 788
Q 3300 672 3316 500
L 3341 500
Q 3347 622 3394 788
L 4044 3200
L 4550 3200
z
" transform="scale(0.015625)"/>
       <path id="SegoeUI-2f" d="M 2541 4481
L 391 -744
L -88 -744
L 2056 4481
L 2541 4481
z
" transform="scale(0.015625)"/>
       <path id="SegoeUI-67" d="M 3250 256
Q 3250 -1506 1563 -1506
Q 969 -1506 525 -1281
L 525 -769
Q 1066 -1069 1556 -1069
Q 2738 -1069 2738 188
L 2738 538
L 2725 538
Q 2359 -75 1625 -75
Q 1028 -75 664 351
Q 300 778 300 1497
Q 300 2313 692 2794
Q 1084 3275 1766 3275
Q 2413 3275 2725 2756
L 2738 2756
L 2738 3200
L 3250 3200
L 3250 256
z
M 2738 1447
L 2738 1919
Q 2738 2300 2480 2572
Q 2222 2844 1838 2844
Q 1363 2844 1094 2498
Q 825 2153 825 1531
Q 825 997 1083 676
Q 1341 356 1766 356
Q 2197 356 2467 662
Q 2738 969 2738 1447
z
" transform="scale(0.015625)"/>
       <path id="SegoeUI-64" d="M 3250 0
L 2738 0
L 2738 544
L 2725 544
Q 2369 -75 1625 -75
Q 1022 -75 661 354
Q 300 784 300 1525
Q 300 2319 700 2797
Q 1100 3275 1766 3275
Q 2425 3275 2725 2756
L 2738 2756
L 2738 4738
L 3250 4738
L 3250 0
z
M 2738 1447
L 2738 1919
Q 2738 2306 2481 2575
Q 2225 2844 1831 2844
Q 1363 2844 1094 2500
Q 825 2156 825 1550
Q 825 997 1083 676
Q 1341 356 1775 356
Q 2203 356 2470 665
Q 2738 975 2738 1447
z
" transform="scale(0.015625)"/>
       <path id="SegoeUI-72" d="M 2188 2681
Q 2053 2784 1800 2784
Q 1472 2784 1251 2475
Q 1031 2166 1031 1631
L 1031 0
L 519 0
L 519 3200
L 1031 3200
L 1031 2541
L 1044 2541
Q 1153 2878 1378 3067
Q 1603 3256 1881 3256
Q 2081 3256 2188 3213
L 2188 2681
z
" transform="scale(0.015625)"/>
       <path id="SegoeUI-6b" d="M 3175 0
L 2456 0
L 1044 1538
L 1031 1538
L 1031 0
L 519 0
L 519 4738
L 1031 4738
L 1031 1734
L 1044 1734
L 2388 3200
L 3059 3200
L 1575 1656
L 3175 0
z
" transform="scale(0.015625)"/>
       <path id="SegoeUI-63" d="M 2700 147
Q 2331 -75 1825 -75
Q 1141 -75 720 370
Q 300 816 300 1525
Q 300 2316 753 2795
Q 1206 3275 1963 3275
Q 2384 3275 2706 3119
L 2706 2594
Q 2350 2844 1944 2844
Q 1453 2844 1139 2492
Q 825 2141 825 1569
Q 825 1006 1120 681
Q 1416 356 1913 356
Q 2331 356 2700 634
L 2700 147
z
" transform="scale(0.015625)"/>
       <path id="SegoeUI-70" d="M 1044 463
L 1031 463
L 1031 -1472
L 519 -1472
L 519 3200
L 1031 3200
L 1031 2638
L 1044 2638
Q 1422 3275 2150 3275
Q 2769 3275 3116 2845
Q 3463 2416 3463 1694
Q 3463 891 3072 408
Q 2681 -75 2003 -75
Q 1381 -75 1044 463
z
M 1031 1753
L 1031 1306
Q 1031 909 1289 632
Q 1547 356 1944 356
Q 2409 356 2673 712
Q 2938 1069 2938 1703
Q 2938 2238 2691 2541
Q 2444 2844 2022 2844
Q 1575 2844 1303 2533
Q 1031 2222 1031 1753
z
" transform="scale(0.015625)"/>
      </defs>
      <use xlink:href="#SegoeUI-43"/>
      <use xlink:href="#SegoeUI-75" transform="translate(61.914062 0)"/>
      <use xlink:href="#SegoeUI-6d" transform="translate(118.505859 0)"/>
      <use xlink:href="#SegoeUI-75" transform="translate(204.638672 0)"/>
      <use xlink:href="#SegoeUI-6c" transform="translate(261.230469 0)"/>
      <use xlink:href="#SegoeUI-61" transform="translate(285.449219 0)"/>
      <use xlink:href="#SegoeUI-74" transform="translate(336.328125 0)"/>
      <use xlink:href="#SegoeUI-69" transform="translate(370.214844 0)"/>
      <use xlink:href="#SegoeUI-76" transform="translate(394.433594 0)"/>
      <use xlink:href="#SegoeUI-65" transform="translate(441.708984 0)"/>
      <use xlink:href="#SegoeUI-20" transform="translate(494.003906 0)"/>
      <use xlink:href="#SegoeUI-66" transform="translate(521.396484 0)"/>
      <use xlink:href="#SegoeUI-6c" transform="translate(552.695312 0)"/>
      <use xlink:href="#SegoeUI-6f" transform="translate(576.914062 0)"/>
      <use xlink:href="#SegoeUI-77" transform="translate(635.507812 0)"/>
      <use xlink:href="#SegoeUI-20" transform="translate(707.773438 0)"/>
      <use xlink:href="#SegoeUI-2f" transform="translate(735.166016 0)"/>
      <use xlink:href="#SegoeUI-20" transform="translate(774.130859 0)"/>
      <use xlink:href="#SegoeUI-6c" transform="translate(801.523438 0)"/>
      <use xlink:href="#SegoeUI-61" transform="translate(825.742188 0)"/>
      <use xlink:href="#SegoeUI-67" transform="translate(876.621094 0)"/>
      <use xlink:href="#SegoeUI-67" transform="translate(935.507812 0)"/>
      <use xlink:href="#SegoeUI-65" transform="translate(994.394531 0)"/>
      <use xlink:href="#SegoeUI-64" transform="translate(1046.689453 0)"/>
      <use xlink:href="#SegoeUI-20" transform="translate(1105.576172 0)"/>
      <use xlink:href="#SegoeUI-6d" transform="translate(1132.96875 0)"/>
      <use xlink:href="#SegoeUI-61" transform="translate(1219.101562 0)"/>
      <use xlink:href="#SegoeUI-72" transform="translate(1269.980469 0)"/>
      <use xlink:href="#SegoeUI-6b" transform="translate(1304.746094 0)"/>
      <use xlink:href="#SegoeUI-65" transform="translate(1352.453125 0)"/>
      <use xlink:href="#SegoeUI-74" transform="translate(1404.748047 0)"/>
      <use xlink:href="#SegoeUI-20" transform="translate(1438.634766 0)"/>
      <use xlink:href="#SegoeUI-63" transform="translate(1466.027344 0)"/>
      <use xlink:href="#SegoeUI-61" transform="translate(1512.21875 0)"/>
      <use xlink:href="#SegoeUI-70" transform="translate(1563.097656 0)"/>
     </g>
    </g>
   </g>
   <g id="line2d_7">
    <path d="M 66.283011 337.425571
L 304.986039 337.425571
L 305.311026 333.2868
L 305.47352 332.942508
L 305.636013 332.94942
L 305.798507 332.828386
L 305.961 333.191653
L 306.123494 330.902324
L 306.285987 331.506073
L 306.448481 331.063988
L 306.773468 331.123503
L 307.098455 331.874026
L 307.423442 333.275495
L 307.585936 333.180204
L 307.910923 333.399053
L 308.398404 329.837756
L 308.723391 329.247302
L 309.048378 329.234695
L 309.535858 327.969961
L 309.860846 323.766916
L 310.185833 324.474802
L 310.835807 317.121717
L 310.9983 315.73667
L 311.160794 315.830838
L 311.323288 315.621203
L 311.485781 315.829698
L 311.648275 315.092462
L 311.810768 315.446288
L 312.135755 312.915289
L 312.298249 312.668739
L 312.460742 313.066405
L 312.78573 309.903179
L 312.948223 308.499496
L 313.110717 310.68691
L 313.27321 310.619684
L 313.435704 311.149495
L 313.598197 310.983455
L 313.760691 309.461791
L 313.923184 309.461234
L 314.085678 306.306225
L 314.410665 305.429134
L 314.573159 306.106227
L 314.735652 306.157994
L 315.060639 302.978825
L 315.223133 300.536813
L 315.385626 300.96814
L 315.873107 295.924668
L 316.035601 298.309418
L 316.198094 298.940659
L 316.360588 296.357025
L 316.523081 300.2471
L 316.848068 298.075634
L 317.010562 298.197649
L 317.173055 300.029573
L 317.335549 300.130474
L 317.660536 298.528616
L 317.82303 299.267789
L 318.148017 298.617592
L 318.31051 299.809927
L 318.473004 298.798107
L 318.635497 295.942489
L 318.797991 295.547428
L 318.960484 296.434885
L 319.122978 296.038469
L 319.447965 297.659606
L 319.610459 298.983339
L 319.772952 297.194704
L 319.935446 297.769158
L 320.097939 297.594815
L 320.422926 293.839522
L 320.58542 295.126001
L 320.747914 293.808376
L 320.910407 294.629104
L 321.072901 292.887176
L 321.235394 294.236289
L 321.397888 294.462379
L 321.560381 295.211711
L 321.722875 294.995467
L 321.885368 296.081044
L 322.047862 296.230213
L 322.210356 295.603093
L 322.372849 296.041902
L 322.697836 295.376874
L 322.86033 295.323764
L 323.022823 296.380583
L 323.185317 296.278809
L 323.510304 293.885812
L 323.672797 296.523914
L 323.835291 297.174163
L 324.485265 294.662687
L 324.647759 296.237792
L 324.810252 294.696608
L 324.972746 294.708592
L 325.135239 294.920322
L 325.297733 295.563443
L 325.460227 293.539344
L 325.62272 295.759376
L 325.785214 294.388081
L 325.947707 295.532167
L 326.110201 295.463338
L 326.272694 294.258242
L 326.435188 296.427476
L 326.922669 292.65136
L 327.247656 293.518437
L 327.410149 293.012181
L 327.572643 293.452217
L 327.89763 292.013595
L 328.060123 292.358889
L 328.222617 291.803948
L 328.38511 291.959724
L 328.547604 291.618174
L 328.710098 289.454793
L 329.197578 288.174437
L 329.360072 287.144903
L 329.522565 287.134563
L 329.847552 288.146825
L 330.010046 286.192847
L 330.17254 287.641965
L 330.497527 286.599129
L 330.66002 286.733072
L 330.985007 287.950847
L 331.147501 286.946574
L 331.472488 287.551593
L 331.634982 286.989575
L 331.797475 287.077257
L 331.959969 286.857244
L 332.122462 284.290926
L 332.284956 285.529078
L 332.447449 284.682194
L 332.609943 285.116125
L 332.772436 283.981669
L 332.93493 284.48084
L 333.097423 285.558935
L 333.259917 285.691726
L 333.422411 285.144239
L 333.584904 283.455644
L 333.747398 279.950629
L 333.909891 279.536411
L 334.072385 281.138972
L 334.234878 277.562821
L 334.397372 277.635777
L 334.559865 278.442823
L 334.722359 277.811395
L 334.884853 276.231805
L 335.047346 276.799365
L 335.534827 280.720377
L 335.69732 280.821162
L 336.022307 278.261991
L 336.184801 280.654673
L 336.347295 281.046825
L 336.997269 277.88867
L 337.159762 278.099491
L 337.322256 279.95531
L 337.647243 279.823042
L 338.134724 276.496021
L 338.297217 277.960007
L 338.459711 274.189712
L 338.622204 273.425364
L 338.784698 271.264236
L 338.947191 266.814555
L 339.109685 269.17625
L 339.272178 267.297084
L 339.434672 275.066635
L 339.597166 274.190804
L 339.759659 274.278284
L 339.922153 271.795155
L 340.084646 272.358839
L 340.24714 273.994251
L 340.572127 270.45623
L 340.897114 272.648074
L 341.059608 271.242089
L 341.222101 272.042848
L 341.384595 271.417737
L 341.547088 273.491445
L 341.709582 271.751401
L 341.872075 275.513187
L 342.034569 275.62353
L 342.359556 274.046667
L 342.522049 270.811059
L 342.684543 270.650188
L 342.847037 271.665739
L 343.172024 271.2593
L 343.334517 269.347077
L 343.497011 272.525135
L 343.659504 270.777901
L 343.821998 272.159134
L 343.984491 270.742037
L 344.146985 268.037151
L 344.309479 268.27091
L 344.471972 269.059969
L 344.796959 272.049024
L 344.959453 271.556585
L 345.121946 271.452756
L 345.28444 274.090174
L 345.446933 273.514436
L 345.609427 272.520626
L 345.771921 270.786718
L 346.096908 274.245621
L 346.259401 275.116626
L 346.746882 275.711333
L 346.909375 275.00582
L 347.071869 275.551788
L 347.234363 273.162431
L 347.396856 273.481096
L 347.55935 274.07625
L 347.721843 274.163886
L 347.884337 273.70124
L 348.371817 269.913913
L 348.534311 269.935147
L 348.696804 271.396454
L 349.021792 271.337168
L 349.184285 270.776433
L 349.346779 270.802808
L 349.671766 268.30257
L 349.834259 270.778773
L 349.996753 271.489657
L 350.159246 269.163179
L 350.32174 271.248265
L 350.484234 270.711101
L 350.809221 268.615967
L 350.971714 269.630267
L 351.134208 269.57897
L 351.296701 269.282074
L 351.784182 265.818957
L 351.946676 266.133981
L 352.109169 264.442205
L 352.271663 264.921067
L 352.59665 263.666752
L 352.759143 263.777852
L 352.921637 263.289429
L 353.246624 260.416581
L 353.409117 260.293877
L 353.571611 261.368352
L 353.896598 260.443906
L 354.059092 262.801355
L 354.221585 262.205062
L 354.384079 262.843329
L 354.546572 263.003178
L 354.709066 263.368713
L 354.871559 268.259482
L 355.034053 266.427058
L 355.196547 269.33921
L 355.35904 267.818957
L 355.521534 270.667536
L 355.684027 270.334503
L 356.334001 266.301654
L 356.496495 268.138946
L 356.658989 268.523505
L 356.821482 267.66457
L 356.983976 268.833056
L 357.146469 265.418991
L 357.308963 264.400622
L 357.471456 267.400455
L 357.63395 266.455429
L 357.796443 267.797782
L 358.12143 266.827981
L 358.446418 263.00603
L 358.608911 263.408289
L 358.771405 261.256352
L 358.933898 263.427361
L 359.096392 263.458252
L 359.258885 263.325414
L 359.421379 259.410123
L 359.583872 258.347373
L 359.746366 260.590222
L 359.90886 258.746591
L 360.071353 259.833935
L 360.233847 259.816711
L 360.39634 260.705739
L 360.558834 260.882719
L 360.721327 260.349236
L 361.046314 255.587108
L 361.208808 255.909482
L 361.371302 255.464834
L 361.533795 254.148596
L 361.696289 254.649581
L 361.858782 257.873771
L 362.021276 257.410054
L 362.346263 253.689694
L 362.508756 254.740377
L 362.833743 253.2929
L 362.996237 253.970225
L 363.158731 255.43192
L 363.321224 255.483128
L 363.483718 256.517078
L 363.646211 256.590276
L 363.808705 254.491058
L 363.971198 257.568127
L 364.296185 252.802199
L 364.458679 251.014539
L 364.621173 252.875397
L 364.783666 252.770218
L 365.108653 253.901793
L 365.271147 253.876141
L 365.43364 255.804235
L 365.596134 253.008752
L 365.758627 256.345513
L 365.921121 256.608451
L 366.246108 253.110705
L 366.408602 255.744972
L 366.733589 252.490089
L 366.896082 253.238475
L 367.058576 253.143129
L 367.546056 251.03111
L 367.70855 251.830966
L 367.871044 251.983175
L 368.358524 246.306076
L 368.521018 248.978055
L 368.683511 245.526644
L 369.008498 244.293995
L 369.333486 244.250595
L 369.495979 244.64712
L 369.658473 245.70184
L 369.820966 244.742724
L 369.98346 247.023306
L 370.145953 245.725223
L 370.308447 246.540551
L 370.47094 246.628148
L 370.633434 245.302157
L 370.795928 245.051936
L 370.958421 245.045242
L 371.283408 248.578613
L 371.445902 246.561144
L 371.608395 246.964638
L 371.770889 247.998243
L 372.095876 244.894492
L 372.258369 240.977152
L 372.420863 241.218849
L 372.583357 240.889303
L 372.74585 242.68789
L 372.908344 251.108891
L 373.070837 243.310985
L 373.233331 244.695034
L 373.395824 248.357914
L 373.558318 248.692239
L 373.720811 245.516103
L 373.883305 245.085308
L 374.045799 239.703464
L 374.208292 238.153835
L 374.370786 243.295672
L 374.533279 244.44071
L 374.695773 241.430034
L 374.858266 244.748876
L 375.02076 245.143069
L 375.183253 242.364826
L 375.345747 243.658278
L 375.508241 242.02727
L 375.670734 246.149937
L 375.833228 242.953761
L 376.158215 242.584262
L 376.483202 246.296335
L 376.645695 245.980862
L 376.808189 245.303662
L 376.970682 245.856818
L 377.29567 240.728153
L 377.458163 240.622103
L 377.620657 241.224283
L 377.78315 243.622714
L 377.945644 240.859362
L 378.270631 242.612508
L 378.433124 242.21794
L 378.595618 236.273981
L 378.758112 238.182467
L 378.920605 234.822092
L 379.083099 243.065843
L 379.245592 239.464542
L 379.570579 246.041369
L 379.733073 244.363838
L 379.895566 245.098729
L 380.05806 244.508516
L 380.220554 244.657199
L 380.383047 245.596568
L 380.545541 245.119591
L 380.708034 245.747484
L 380.870528 244.823923
L 381.033021 245.019895
L 381.195515 248.763708
L 381.520502 247.315834
L 381.682995 248.004554
L 381.845489 247.959855
L 382.007983 245.730857
L 382.170476 246.522735
L 382.33297 245.951942
L 382.495463 244.866956
L 382.82045 245.961118
L 382.982944 244.963061
L 383.145437 242.53674
L 383.307931 243.225934
L 383.470425 244.774054
L 383.632918 244.729445
L 383.795412 249.608114
L 383.957905 249.35466
L 384.120399 250.875223
L 384.445386 249.387742
L 384.607879 249.843159
L 384.932867 248.7487
L 385.257854 248.209828
L 385.420347 249.627583
L 385.582841 248.207592
L 385.745334 247.992614
L 385.907828 248.425273
L 386.070321 249.622758
L 386.232815 245.999855
L 386.395308 246.425672
L 386.557802 247.475114
L 386.720296 247.058641
L 386.882789 245.736242
L 387.045283 245.496629
L 387.207776 244.79948
L 387.37027 243.466202
L 387.532763 244.028803
L 387.695257 245.492632
L 388.020244 244.289017
L 388.182738 244.283801
L 388.345231 241.537528
L 388.670218 245.201387
L 388.832712 244.518505
L 388.995205 247.467685
L 389.157699 247.068909
L 389.320192 245.598879
L 389.482686 242.376305
L 389.64518 242.728733
L 389.970167 241.41117
L 390.13266 242.102444
L 390.295154 239.293445
L 390.457647 239.52338
L 390.620141 239.340132
L 391.107621 234.965241
L 391.270115 238.025302
L 391.432609 237.5594
L 391.595102 238.270026
L 391.757596 236.883742
L 391.920089 236.969951
L 392.082583 237.211881
L 392.245076 237.959684
L 392.40757 237.577744
L 392.570063 235.33043
L 392.895051 237.759683
L 393.057544 236.283268
L 393.220038 236.469326
L 393.382531 236.955046
L 393.545025 235.915623
L 393.707518 236.161823
L 393.870012 235.908597
L 394.194999 239.41803
L 394.357493 239.331244
L 394.519986 240.080741
L 394.68248 240.012256
L 394.844973 236.849194
L 395.16996 236.420324
L 395.332454 235.342158
L 395.494947 235.259482
L 395.657441 234.992742
L 395.819935 235.226308
L 395.982428 237.58483
L 396.307415 235.551637
L 396.469909 234.901175
L 396.632402 235.199538
L 396.794896 236.182115
L 396.957389 234.864738
L 397.119883 234.642043
L 397.282376 234.765392
L 397.44487 234.606841
L 397.607364 232.205655
L 397.769857 231.550177
L 398.094844 234.854478
L 398.257338 233.837041
L 398.419831 234.149909
L 398.582325 235.562618
L 398.744818 234.839546
L 398.907312 234.672075
L 399.069806 236.770282
L 399.232299 236.125082
L 399.394793 237.167725
L 399.557286 239.38927
L 399.71978 235.309087
L 399.882273 234.48267
L 400.044767 234.501024
L 400.20726 234.786832
L 400.369754 234.695477
L 400.532248 232.197147
L 400.694741 233.874894
L 400.857235 232.267722
L 401.019728 236.252882
L 401.344715 232.898061
L 401.507209 229.452415
L 401.669702 230.907082
L 401.832196 230.013144
L 401.994689 231.508386
L 402.157183 227.418599
L 402.319677 227.880706
L 402.48217 227.368941
L 402.644664 227.660382
L 402.969651 229.928015
L 403.132144 229.269018
L 403.294638 229.21569
L 403.457131 228.772496
L 403.619625 228.946285
L 403.782119 229.818062
L 403.944612 227.846953
L 404.107106 229.12774
L 404.269599 229.36807
L 404.432093 229.890713
L 404.594586 229.775258
L 404.919573 228.170808
L 405.082067 229.621933
L 405.244561 229.003006
L 405.407054 229.169367
L 405.569548 227.858723
L 405.732041 227.895419
L 405.894535 228.145815
L 406.219522 224.704826
L 406.382015 226.524672
L 406.544509 222.989157
L 406.707002 223.748843
L 406.869496 223.646694
L 407.194483 226.498158
L 407.356977 224.90228
L 407.51947 228.095424
L 407.681964 228.085172
L 407.844457 229.606663
L 408.006951 229.703617
L 408.331938 228.02638
L 408.494432 224.267574
L 408.656925 225.668542
L 408.819419 224.203028
L 408.981912 215.403827
L 409.144406 213.066907
L 409.306899 218.29488
L 409.469393 218.282692
L 410.119367 210.728032
L 410.281861 211.579487
L 410.606848 214.375368
L 410.931835 211.154888
L 411.256822 214.941876
L 411.419315 215.582376
L 411.581809 218.367252
L 411.906796 217.201492
L 412.231783 213.444772
L 412.394277 215.048298
L 412.55677 215.432016
L 412.719264 216.322772
L 412.881757 212.973636
L 413.044251 207.035743
L 413.206745 209.53815
L 413.369238 207.555395
L 413.531732 210.012564
L 413.694225 208.776015
L 413.856719 211.727582
L 414.019212 212.154198
L 414.181706 209.14855
L 414.344199 209.289222
L 414.506693 207.785935
L 414.669187 201.098081
L 414.83168 202.252493
L 414.994174 201.024913
L 415.156667 198.720399
L 415.319161 199.747792
L 415.481654 199.72166
L 415.644148 191.289763
L 415.806641 188.778049
L 415.969135 188.220066
L 416.294122 194.504534
L 416.456616 192.632343
L 416.619109 197.68393
L 416.781603 198.791061
L 416.944096 198.156069
L 417.10659 198.055348
L 417.269083 197.326768
L 417.431577 190.781349
L 417.756564 202.318305
L 417.919058 200.181487
L 418.081551 195.967785
L 418.244045 195.83025
L 418.406538 197.813045
L 418.569032 197.800995
L 418.731525 200.348889
L 418.894019 199.54863
L 419.056512 200.195911
L 419.219006 196.767752
L 419.3815 196.722639
L 419.706487 192.102008
L 419.86898 193.328805
L 420.193967 190.149517
L 420.356461 194.529344
L 420.518954 194.927735
L 420.843941 196.117305
L 421.006435 194.723213
L 421.168929 195.0527
L 421.331422 195.04104
L 421.493916 195.27113
L 421.656409 196.061068
L 421.818903 196.226872
L 421.981396 194.09185
L 422.14389 197.009981
L 422.306383 195.614321
L 422.468877 196.403856
L 422.793864 199.296757
L 422.956358 198.981545
L 423.118851 203.018985
L 423.281345 203.903289
L 423.443838 201.385021
L 423.606332 201.613114
L 423.768825 200.8585
L 423.931319 200.748449
L 424.093813 201.146211
L 424.256306 199.7791
L 424.581293 205.801266
L 424.743787 204.86596
L 424.90628 204.74715
L 425.068774 204.210047
L 425.231267 202.119224
L 425.393761 201.689275
L 425.556254 196.916725
L 425.718748 198.655131
L 426.043735 199.33089
L 426.206229 198.537568
L 426.368722 194.482952
L 426.693709 198.975257
L 426.856203 201.017688
L 427.018696 195.081293
L 427.18119 194.176067
L 427.506177 179.24525
L 427.668671 183.446787
L 427.993658 174.452748
L 428.156151 146.701091
L 428.318645 167.616804
L 428.481138 164.446616
L 428.643632 166.547466
L 428.806126 165.700921
L 429.293606 157.867759
L 429.618593 166.93238
L 429.781087 164.488415
L 429.94358 164.98542
L 430.268567 159.659319
L 430.431061 161.014337
L 430.593555 163.522085
L 430.918542 163.196368
L 431.243529 151.026616
L 431.406022 160.933934
L 431.568516 159.645452
L 431.731009 155.389372
L 431.893503 158.31051
L 432.055997 153.541315
L 432.21849 160.954878
L 432.380984 158.206784
L 432.543477 169.598814
L 432.705971 166.464465
L 433.030958 157.213479
L 433.193451 153.171854
L 433.518439 162.527695
L 434.005919 164.238675
L 434.168413 164.944996
L 434.4934 172.211351
L 434.655893 170.557562
L 434.98088 161.45297
L 435.143374 162.915106
L 435.468361 155.540848
L 435.630855 163.607382
L 435.793348 162.695184
L 435.955842 165.115139
L 436.280829 153.091026
L 436.443322 152.932491
L 436.605816 151.697836
L 436.76831 153.467995
L 436.930803 158.020837
L 437.093297 157.633518
L 437.25579 154.416842
L 437.418284 154.619974
L 437.580777 155.525429
L 437.743271 158.542307
L 437.905764 158.657943
L 438.068258 166.565598
L 438.230752 163.471765
L 438.393245 164.450693
L 438.555739 167.2843
L 438.555739 167.2843
" clip-path="url(#p8dee1b3752)" style="fill: none; stroke: #f0986e; stroke-width: 2; stroke-linecap: round"/>
   </g>
   <g id="line2d_8">
    <path d="M 66.283011 337.425571
L 336.509788 337.425571
L 336.672282 336.29698
L 337.159762 341.34628
L 337.322256 341.226696
L 337.484749 341.256638
L 337.647243 342.32665
L 337.809736 341.886306
L 337.97223 342.796364
L 338.134724 342.572662
L 338.459711 343.65334
L 338.622204 343.839117
L 338.784698 343.687351
L 338.947191 342.903292
L 339.272178 343.495936
L 339.434672 342.941262
L 339.597166 343.119347
L 339.922153 343.144571
L 340.084646 342.468003
L 340.24714 342.360285
L 340.572127 343.382368
L 340.897114 343.280779
L 341.384595 343.912563
L 341.547088 343.780329
L 341.709582 343.879303
L 341.872075 343.551628
L 342.034569 343.539758
L 342.359556 343.965111
L 342.522049 344.471412
L 342.684543 344.298094
L 343.172024 344.339718
L 343.497011 344.95107
L 343.659504 345.864414
L 343.821998 345.778971
L 344.146985 346.723228
L 344.309479 346.525209
L 344.471972 346.51309
L 344.634466 346.097627
L 344.796959 346.000302
L 344.959453 346.487942
L 345.121946 346.383166
L 345.28444 346.097689
L 345.446933 346.17419
L 345.771921 347.029077
L 345.934414 346.991235
L 346.259401 346.392837
L 346.584388 345.885468
L 346.746882 347.105455
L 347.071869 345.394954
L 347.234363 345.622786
L 347.396856 344.649163
L 347.55935 344.481266
L 347.884337 344.59024
L 348.209324 345.712143
L 348.371817 346.055606
L 348.534311 345.992741
L 348.696804 345.76353
L 349.346779 345.795033
L 349.509272 345.99466
L 349.671766 345.941763
L 350.32174 345.092189
L 350.484234 344.819518
L 350.646727 344.135866
L 351.459195 344.093115
L 351.621688 344.189244
L 352.109169 344.955151
L 352.59665 344.481992
L 352.921637 343.999024
L 353.08413 344.529983
L 353.409117 344.593107
L 353.571611 345.63173
L 353.734105 345.838007
L 353.896598 344.962915
L 354.221585 341.650657
L 354.546572 341.338378
L 354.871559 336.404117
L 355.034053 334.718762
L 355.196547 334.707573
L 355.35904 335.301348
L 355.684027 335.351693
L 355.846521 335.775746
L 356.171508 337.098265
L 356.334001 337.200655
L 356.496495 336.231679
L 356.983976 336.202381
L 357.146469 335.787536
L 357.308963 334.759375
L 357.471456 335.000417
L 357.63395 331.566033
L 357.796443 331.589999
L 357.958937 331.767043
L 358.12143 331.536295
L 358.446418 328.36731
L 358.608911 324.846596
L 358.771405 323.861009
L 358.933898 324.593104
L 359.096392 324.577384
L 359.258885 323.240719
L 359.583872 317.686079
L 359.746366 316.142676
L 360.071353 316.31649
L 360.233847 316.112305
L 360.39634 316.119491
L 360.883821 313.298099
L 361.046314 312.610079
L 361.208808 313.008831
L 361.371302 312.032029
L 361.533795 310.127691
L 361.858782 311.23266
L 362.346263 308.153112
L 362.508756 308.768624
L 362.67125 308.946368
L 362.996237 308.389151
L 363.158731 309.423253
L 363.321224 309.603866
L 363.483718 310.805688
L 363.646211 311.162102
L 363.808705 309.72166
L 363.971198 310.979528
L 364.296185 309.840155
L 364.458679 309.721159
L 364.783666 310.230939
L 364.94616 310.531459
L 365.108653 309.433178
L 365.43364 309.580449
L 365.596134 308.111049
L 365.758627 309.517823
L 366.083615 307.230692
L 366.246108 307.05199
L 366.408602 306.702481
L 366.571095 306.050088
L 366.733589 306.8713
L 366.896082 306.600646
L 367.058576 306.682911
L 367.221069 307.397169
L 367.383563 306.922515
L 367.70855 305.517115
L 368.033537 307.012137
L 368.196031 305.227426
L 368.683511 295.246508
L 368.846005 295.957934
L 369.170992 293.341805
L 369.495979 293.737576
L 369.658473 294.125038
L 369.820966 293.749782
L 369.98346 295.709648
L 370.145953 294.587579
L 370.308447 295.364874
L 370.633434 294.379922
L 370.795928 295.5852
L 370.958421 294.173434
L 371.283408 295.545966
L 371.445902 294.325339
L 371.770889 297.759394
L 371.933382 293.702271
L 372.095876 294.656002
L 372.258369 292.892599
L 372.420863 293.02114
L 372.74585 291.196224
L 372.908344 296.917511
L 373.070837 289.66097
L 373.395824 292.850095
L 373.558318 292.446025
L 373.720811 291.173326
L 373.883305 292.519108
L 374.208292 285.506371
L 374.533279 288.228664
L 374.695773 288.009288
L 375.02076 289.85418
L 375.183253 288.729078
L 375.345747 290.761202
L 375.508241 291.080356
L 375.670734 294.159471
L 375.833228 292.82993
L 375.995721 292.431488
L 376.158215 292.780106
L 376.320708 293.407864
L 376.483202 295.01159
L 376.645695 294.810524
L 376.808189 293.714312
L 376.970682 293.468959
L 377.29567 289.227681
L 377.458163 288.563936
L 377.620657 289.026967
L 377.78315 292.117956
L 377.945644 289.407289
L 378.108137 289.934782
L 378.270631 289.941343
L 378.433124 289.653241
L 378.595618 282.823113
L 378.758112 281.944501
L 378.920605 279.208056
L 379.083099 286.907466
L 379.245592 282.703777
L 379.570579 286.783261
L 379.733073 285.435535
L 379.895566 286.608291
L 380.220554 285.391946
L 380.545541 285.750683
L 380.708034 286.521026
L 380.870528 286.252599
L 381.033021 285.16241
L 381.195515 290.935445
L 381.358008 290.659714
L 381.520502 287.847136
L 381.682995 288.282626
L 381.845489 289.256875
L 382.007983 287.152089
L 382.495463 286.753568
L 382.657957 287.599176
L 382.82045 287.71288
L 382.982944 287.471462
L 383.145437 286.885584
L 383.470425 287.802747
L 383.632918 287.973278
L 383.795412 296.560381
L 384.120399 302.497889
L 384.445386 301.3358
L 384.607879 302.959294
L 384.770373 302.594308
L 384.932867 301.438945
L 385.09536 301.283026
L 385.257854 300.378016
L 385.420347 300.519395
L 385.582841 300.023196
L 385.745334 299.961411
L 385.907828 298.789986
L 386.070321 299.625842
L 386.232815 297.544917
L 386.395308 297.636662
L 386.557802 297.947148
L 386.720296 297.60857
L 386.882789 297.890019
L 387.045283 296.956074
L 387.37027 293.561278
L 387.532763 293.519537
L 388.020244 291.19442
L 388.182738 291.286379
L 388.345231 287.244951
L 388.670218 289.444331
L 388.832712 288.38268
L 388.995205 289.812861
L 389.157699 288.974547
L 389.64518 283.024359
L 389.807673 281.986913
L 389.970167 282.036211
L 390.13266 281.824207
L 390.295154 280.837052
L 390.620141 281.208025
L 391.107621 272.154617
L 391.270115 276.088242
L 391.432609 276.117422
L 391.595102 275.753464
L 391.757596 274.529048
L 392.082583 275.04727
L 392.245076 276.172833
L 392.40757 275.223215
L 392.570063 273.161848
L 392.732557 275.209487
L 392.895051 275.717571
L 393.057544 273.667619
L 393.220038 273.879433
L 393.382531 274.340322
L 393.870012 270.491265
L 394.032505 272.087346
L 394.194999 272.268875
L 394.357493 271.926259
L 394.68248 268.040602
L 394.844973 262.443711
L 395.16996 259.304286
L 395.494947 261.806244
L 395.657441 262.252113
L 396.144922 248.652328
L 396.307415 246.121474
L 396.632402 246.951503
L 396.794896 249.401766
L 396.957389 245.621187
L 397.119883 245.409964
L 397.282376 245.642735
L 397.44487 244.494307
L 397.769857 235.99759
L 398.094844 248.756129
L 398.257338 245.725319
L 398.419831 245.336629
L 398.582325 246.425065
L 398.744818 248.694353
L 398.907312 253.92536
L 399.232299 239.959183
L 399.394793 241.981414
L 399.557286 240.343479
L 399.882273 234.089137
L 400.044767 233.69019
L 400.20726 236.502899
L 400.369754 236.303455
L 400.532248 232.488266
L 400.694741 236.408574
L 400.857235 230.804833
L 401.019728 244.19068
L 401.182222 243.137967
L 401.344715 239.953427
L 401.507209 227.108344
L 401.669702 230.112394
L 401.832196 227.489892
L 401.994689 228.928952
L 402.157183 225.167916
L 402.48217 226.145239
L 402.644664 225.177762
L 402.807157 225.750105
L 402.969651 230.259898
L 403.132144 230.185039
L 403.294638 230.42374
L 403.457131 229.584952
L 403.619625 231.196288
L 403.782119 230.833163
L 403.944612 229.474467
L 404.107106 229.560607
L 404.269599 228.960663
L 404.432093 234.800129
L 404.594586 233.792047
L 404.919573 228.107065
L 405.082067 227.589097
L 405.244561 228.052284
L 405.407054 227.607547
L 405.569548 224.743281
L 405.732041 224.998357
L 405.894535 224.716465
L 406.057028 219.366684
L 406.219522 219.022672
L 406.382015 220.881695
L 406.544509 214.836841
L 406.707002 219.824017
L 406.869496 219.25197
L 407.03199 217.980813
L 407.194483 218.983805
L 407.356977 216.24543
L 407.681964 221.102961
L 407.844457 221.859044
L 408.169444 220.395572
L 408.331938 221.416293
L 408.494432 214.699861
L 408.656925 216.855002
L 408.819419 213.986557
L 408.981912 196.718191
L 409.144406 193.615117
L 409.306899 211.373815
L 409.469393 212.000407
L 409.79438 203.024337
L 409.956874 201.850961
L 410.119367 199.83458
L 410.281861 201.895733
L 410.444354 206.213752
L 410.606848 204.818817
L 410.931835 200.154813
L 411.256822 205.564218
L 411.419315 206.140906
L 411.581809 211.44385
L 412.06929 203.479675
L 412.231783 200.843266
L 412.719264 205.671589
L 413.044251 184.56444
L 413.206745 190.57958
L 413.369238 186.257038
L 413.531732 191.543647
L 413.694225 190.090275
L 413.856719 197.587739
L 414.019212 198.040044
L 414.181706 193.869712
L 414.344199 196.539062
L 414.669187 184.895035
L 414.83168 187.531036
L 415.156667 183.766518
L 415.319161 188.84496
L 415.481654 187.062677
L 415.806641 172.286627
L 415.969135 172.600788
L 416.131628 173.442541
L 416.294122 180.901666
L 416.456616 180.259645
L 416.619109 183.79386
L 416.781603 182.314237
L 416.944096 183.153448
L 417.10659 181.018702
L 417.269083 182.060738
L 417.431577 171.491526
L 417.756564 190.706063
L 417.919058 188.970172
L 418.081551 183.491079
L 418.569032 186.087992
L 418.731525 194.308409
L 418.894019 195.042407
L 419.056512 191.401512
L 419.219006 184.221796
L 419.3815 185.680943
L 419.543993 185.789927
L 419.706487 183.471612
L 419.86898 183.602111
L 420.031474 177.96811
L 420.193967 178.462186
L 420.356461 186.531741
L 420.518954 186.482059
L 420.681448 186.697283
L 420.843941 188.16188
L 421.331422 183.894454
L 421.656409 186.211319
L 421.818903 186.43837
L 421.981396 184.882522
L 422.14389 187.585098
L 422.306383 187.423195
L 422.468877 186.984605
L 422.631371 192.965902
L 422.793864 193.03328
L 422.956358 191.912047
L 423.118851 194.326483
L 423.281345 198.417019
L 423.606332 192.842299
L 423.768825 191.92872
L 423.931319 191.905162
L 424.093813 193.515404
L 424.256306 190.729012
L 424.4188 199.032777
L 424.581293 198.555237
L 424.90628 196.012694
L 425.068774 196.6183
L 425.393761 193.864219
L 425.556254 185.106299
L 425.718748 187.831064
L 425.881242 186.876088
L 426.043735 187.214195
L 426.206229 186.901319
L 426.368722 178.151868
L 426.693709 189.560469
L 426.856203 190.552843
L 427.18119 177.488881
L 427.506177 147.043851
L 427.668671 152.894433
L 427.993658 138.236298
L 428.156151 103.614545
L 428.318645 130.915955
L 428.481138 133.079427
L 428.643632 132.328844
L 428.806126 133.758697
L 429.131113 120.846655
L 429.293606 121.609804
L 429.618593 135.816493
L 429.781087 123.522861
L 429.94358 126.063916
L 430.106074 126.123992
L 430.431061 124.134449
L 430.593555 126.252183
L 430.756048 126.598899
L 430.918542 125.84146
L 431.081035 114.076719
L 431.243529 110.747714
L 431.406022 133.24766
L 431.568516 130.89854
L 431.731009 120.58233
L 431.893503 124.28421
L 432.055997 120.872448
L 432.21849 130.60868
L 432.380984 122.905355
L 432.543477 139.06126
L 432.705971 135.259216
L 432.868464 125.642388
L 433.030958 124.601645
L 433.193451 122.049138
L 433.518439 131.366414
L 433.680932 130.896331
L 434.005919 134.43136
L 434.168413 134.830565
L 434.330906 141.853436
L 434.4934 154.258892
L 434.655893 152.349027
L 434.98088 139.769229
L 435.143374 140.521814
L 435.468361 131.940673
L 435.630855 142.00131
L 435.793348 142.508473
L 435.955842 145.190103
L 436.280829 129.08282
L 436.443322 129.18281
L 436.605816 128.041529
L 436.76831 131.810361
L 437.093297 144.19096
L 437.25579 136.397175
L 437.418284 136.086859
L 437.580777 137.230555
L 437.905764 140.245779
L 438.068258 152.247227
L 438.230752 146.656778
L 438.393245 145.575221
L 438.555739 150.358008
L 438.555739 150.358008
" clip-path="url(#p8dee1b3752)" style="fill: none; stroke: #5477c4; stroke-width: 2; stroke-linecap: round"/>
   </g>
   <g id="patch_3">
    <path d="M 47.669375 359.28
L 47.669375 91.44
" style="fill: none; stroke: #d7dbe7; stroke-width: 1.25; stroke-linejoin: miter; stroke-linecap: square"/>
   </g>
   <g id="patch_4">
    <path d="M 47.669375 359.28
L 457.169375 359.28
" style="fill: none; stroke: #d7dbe7; stroke-width: 1.25; stroke-linejoin: miter; stroke-linecap: square"/>
   </g>
   <g id="text_12">
    <!-- A. Cumulative flow intensity -->
    <g style="fill: #1f2430" transform="translate(47.669375 85.44) scale(0.13 -0.13)">
     <defs>
      <path id="SegoeUI-Semibold-41" d="M 4234 0
L 3419 0
L 3016 1141
L 1253 1141
L 866 0
L 53 0
L 1731 4481
L 2569 4481
L 4234 0
z
M 2819 1747
L 2197 3534
Q 2169 3622 2138 3816
L 2125 3816
Q 2097 3638 2063 3534
L 1447 1747
L 2819 1747
z
" transform="scale(0.015625)"/>
      <path id="SegoeUI-Semibold-2e" d="M 772 -69
Q 584 -69 453 54
Q 322 178 322 350
Q 322 525 453 650
Q 584 775 772 775
Q 963 775 1095 650
Q 1228 525 1228 350
Q 1228 178 1095 54
Q 963 -69 772 -69
z
" transform="scale(0.015625)"/>
      <path id="SegoeUI-Semibold-20" transform="scale(0.015625)"/>
      <path id="SegoeUI-Semibold-43" d="M 3678 188
Q 3172 -75 2419 -75
Q 1444 -75 856 540
Q 269 1156 269 2156
Q 269 3231 930 3893
Q 1591 4556 2600 4556
Q 3250 4556 3678 4372
L 3678 3634
Q 3225 3903 2678 3903
Q 1950 3903 1498 3437
Q 1047 2972 1047 2194
Q 1047 1453 1469 1014
Q 1891 575 2578 575
Q 3213 575 3678 875
L 3678 188
z
" transform="scale(0.015625)"/>
      <path id="SegoeUI-Semibold-75" d="M 3263 0
L 2538 0
L 2538 506
L 2525 506
Q 2209 -75 1544 -75
Q 409 -75 409 1288
L 409 3200
L 1134 3200
L 1134 1363
Q 1134 500 1800 500
Q 2122 500 2330 737
Q 2538 975 2538 1359
L 2538 3200
L 3263 3200
L 3263 0
z
" transform="scale(0.015625)"/>
      <path id="SegoeUI-Semibold-6d" d="M 5256 0
L 4531 0
L 4531 1744
Q 4531 2247 4389 2472
Q 4247 2697 3909 2697
Q 3625 2697 3426 2412
Q 3228 2128 3228 1731
L 3228 0
L 2500 0
L 2500 1803
Q 2500 2697 1869 2697
Q 1575 2697 1386 2428
Q 1197 2159 1197 1731
L 1197 0
L 472 0
L 472 3200
L 1197 3200
L 1197 2694
L 1209 2694
Q 1556 3275 2219 3275
Q 2550 3275 2798 3092
Q 3047 2909 3138 2613
Q 3494 3275 4200 3275
Q 5256 3275 5256 1972
L 5256 0
z
" transform="scale(0.015625)"/>
      <path id="SegoeUI-Semibold-6c" d="M 1200 0
L 472 0
L 472 4738
L 1200 4738
L 1200 0
z
" transform="scale(0.015625)"/>
      <path id="SegoeUI-Semibold-61" d="M 2928 0
L 2225 0
L 2225 500
L 2213 500
Q 1881 -75 1241 -75
Q 769 -75 501 181
Q 234 438 234 859
Q 234 1766 1278 1916
L 2228 2050
Q 2228 2734 1578 2734
Q 1006 2734 547 2341
L 547 2975
Q 1053 3275 1716 3275
Q 2928 3275 2928 2081
L 2928 0
z
M 2228 1572
L 1556 1478
Q 1244 1438 1086 1327
Q 928 1216 928 938
Q 928 734 1073 604
Q 1219 475 1463 475
Q 1794 475 2011 708
Q 2228 941 2228 1294
L 2228 1572
z
" transform="scale(0.015625)"/>
      <path id="SegoeUI-Semibold-74" d="M 2159 34
Q 1947 -72 1600 -72
Q 669 -72 669 822
L 669 2631
L 134 2631
L 134 3200
L 669 3200
L 669 3941
L 1394 4147
L 1394 3200
L 2159 3200
L 2159 2631
L 1394 2631
L 1394 1031
Q 1394 747 1497 625
Q 1600 503 1841 503
Q 2025 503 2159 609
L 2159 34
z
" transform="scale(0.015625)"/>
      <path id="SegoeUI-Semibold-69" d="M 838 3872
Q 659 3872 532 3987
Q 406 4103 406 4281
Q 406 4459 532 4578
Q 659 4697 838 4697
Q 1022 4697 1150 4578
Q 1278 4459 1278 4281
Q 1278 4113 1150 3992
Q 1022 3872 838 3872
z
M 1197 0
L 472 0
L 472 3200
L 1197 3200
L 1197 0
z
" transform="scale(0.015625)"/>
      <path id="SegoeUI-Semibold-76" d="M 3228 3200
L 1991 0
L 1206 0
L 28 3200
L 816 3200
L 1525 963
Q 1606 716 1625 531
L 1634 531
Q 1663 763 1722 950
L 2466 3200
L 3228 3200
z
" transform="scale(0.015625)"/>
      <path id="SegoeUI-Semibold-65" d="M 3181 1403
L 1000 1403
Q 1013 959 1273 718
Q 1534 478 1991 478
Q 2503 478 2931 784
L 2931 200
Q 2494 -75 1775 -75
Q 1069 -75 667 361
Q 266 797 266 1588
Q 266 2334 708 2804
Q 1150 3275 1806 3275
Q 2463 3275 2822 2853
Q 3181 2431 3181 1681
L 3181 1403
z
M 2481 1916
Q 2478 2306 2297 2523
Q 2116 2741 1797 2741
Q 1484 2741 1267 2512
Q 1050 2284 1000 1916
L 2481 1916
z
" transform="scale(0.015625)"/>
      <path id="SegoeUI-Semibold-66" d="M 2281 4147
Q 2134 4231 1947 4231
Q 1419 4231 1419 3634
L 1419 3200
L 2163 3200
L 2163 2631
L 1422 2631
L 1422 0
L 697 0
L 697 2631
L 150 2631
L 150 3200
L 697 3200
L 697 3719
Q 697 4225 1028 4517
Q 1359 4809 1856 4809
Q 2125 4809 2281 4750
L 2281 4147
z
" transform="scale(0.015625)"/>
      <path id="SegoeUI-Semibold-6f" d="M 1891 -75
Q 1150 -75 708 373
Q 266 822 266 1563
Q 266 2369 727 2822
Q 1188 3275 1969 3275
Q 2719 3275 3137 2834
Q 3556 2394 3556 1613
Q 3556 847 3104 386
Q 2653 -75 1891 -75
z
M 1925 2697
Q 1500 2697 1253 2400
Q 1006 2103 1006 1581
Q 1006 1078 1256 789
Q 1506 500 1925 500
Q 2353 500 2583 784
Q 2813 1069 2813 1594
Q 2813 2122 2583 2409
Q 2353 2697 1925 2697
z
" transform="scale(0.015625)"/>
      <path id="SegoeUI-Semibold-77" d="M 4775 3200
L 3831 0
L 3072 0
L 2491 2169
Q 2456 2294 2447 2450
L 2434 2450
Q 2428 2344 2378 2175
L 1747 0
L 1003 0
L 63 3200
L 813 3200
L 1394 894
Q 1422 791 1431 619
L 1453 619
Q 1463 750 1503 900
L 2150 3200
L 2831 3200
L 3406 884
Q 3434 775 3447 609
L 3469 609
Q 3475 725 3516 884
L 4084 3200
L 4775 3200
z
" transform="scale(0.015625)"/>
      <path id="SegoeUI-Semibold-6e" d="M 3322 0
L 2597 0
L 2597 1803
Q 2597 2700 1963 2700
Q 1631 2700 1415 2451
Q 1200 2203 1200 1825
L 1200 0
L 472 0
L 472 3200
L 1200 3200
L 1200 2669
L 1213 2669
Q 1572 3275 2250 3275
Q 2772 3275 3047 2936
Q 3322 2597 3322 1956
L 3322 0
z
" transform="scale(0.015625)"/>
      <path id="SegoeUI-Semibold-73" d="M 272 100
L 272 772
Q 678 463 1169 463
Q 1825 463 1825 850
Q 1825 959 1769 1036
Q 1713 1113 1617 1172
Q 1522 1231 1392 1278
Q 1263 1325 1103 1384
Q 906 1463 748 1550
Q 591 1638 486 1748
Q 381 1859 328 2000
Q 275 2141 275 2328
Q 275 2559 384 2736
Q 494 2913 678 3033
Q 863 3153 1097 3214
Q 1331 3275 1581 3275
Q 2025 3275 2375 3141
L 2375 2506
Q 2038 2738 1600 2738
Q 1463 2738 1352 2709
Q 1241 2681 1162 2631
Q 1084 2581 1040 2511
Q 997 2441 997 2356
Q 997 2253 1040 2181
Q 1084 2109 1170 2054
Q 1256 2000 1376 1954
Q 1497 1909 1653 1856
Q 1859 1772 2023 1684
Q 2188 1597 2303 1486
Q 2419 1375 2481 1229
Q 2544 1084 2544 884
Q 2544 641 2431 459
Q 2319 278 2131 159
Q 1944 41 1698 -17
Q 1453 -75 1181 -75
Q 656 -75 272 100
z
" transform="scale(0.015625)"/>
      <path id="SegoeUI-Semibold-79" d="M 3244 3200
L 1800 -513
Q 1350 -1506 538 -1506
Q 309 -1506 156 -1466
L 156 -863
Q 328 -919 469 -919
Q 875 -919 1075 -519
L 1291 6
L 19 3200
L 822 3200
L 1584 875
Q 1597 831 1641 644
L 1656 644
Q 1672 716 1713 869
L 2513 3200
L 3244 3200
z
" transform="scale(0.015625)"/>
     </defs>
     <use xlink:href="#SegoeUI-Semibold-41"/>
     <use xlink:href="#SegoeUI-Semibold-2e" transform="translate(67.138672 0)"/>
     <use xlink:href="#SegoeUI-Semibold-20" transform="translate(91.259766 0)"/>
     <use xlink:href="#SegoeUI-Semibold-43" transform="translate(118.75 0)"/>
     <use xlink:href="#SegoeUI-Semibold-75" transform="translate(180.859375 0)"/>
     <use xlink:href="#SegoeUI-Semibold-6d" transform="translate(239.208984 0)"/>
     <use xlink:href="#SegoeUI-Semibold-75" transform="translate(327.783203 0)"/>
     <use xlink:href="#SegoeUI-Semibold-6c" transform="translate(386.132812 0)"/>
     <use xlink:href="#SegoeUI-Semibold-61" transform="translate(412.255859 0)"/>
     <use xlink:href="#SegoeUI-Semibold-74" transform="translate(464.453125 0)"/>
     <use xlink:href="#SegoeUI-Semibold-69" transform="translate(500.585938 0)"/>
     <use xlink:href="#SegoeUI-Semibold-76" transform="translate(526.708984 0)"/>
     <use xlink:href="#SegoeUI-Semibold-65" transform="translate(576.691406 0)"/>
     <use xlink:href="#SegoeUI-Semibold-20" transform="translate(629.816406 0)"/>
     <use xlink:href="#SegoeUI-Semibold-66" transform="translate(657.306641 0)"/>
     <use xlink:href="#SegoeUI-Semibold-6c" transform="translate(691.779297 0)"/>
     <use xlink:href="#SegoeUI-Semibold-6f" transform="translate(717.902344 0)"/>
     <use xlink:href="#SegoeUI-Semibold-77" transform="translate(777.619141 0)"/>
     <use xlink:href="#SegoeUI-Semibold-20" transform="translate(853.253906 0)"/>
     <use xlink:href="#SegoeUI-Semibold-69" transform="translate(880.744141 0)"/>
     <use xlink:href="#SegoeUI-Semibold-6e" transform="translate(906.867188 0)"/>
     <use xlink:href="#SegoeUI-Semibold-74" transform="translate(965.216797 0)"/>
     <use xlink:href="#SegoeUI-Semibold-65" transform="translate(1000.724609 0)"/>
     <use xlink:href="#SegoeUI-Semibold-6e" transform="translate(1053.849609 0)"/>
     <use xlink:href="#SegoeUI-Semibold-73" transform="translate(1112.199219 0)"/>
     <use xlink:href="#SegoeUI-Semibold-69" transform="translate(1155.314453 0)"/>
     <use xlink:href="#SegoeUI-Semibold-74" transform="translate(1181.4375 0)"/>
     <use xlink:href="#SegoeUI-Semibold-79" transform="translate(1217.570312 0)"/>
    </g>
   </g>
   <g id="legend_1">
    <g id="line2d_9">
     <path d="M 56.669375 104.343125
L 66.669375 104.343125
L 76.669375 104.343125
" style="fill: none; stroke: #f0986e; stroke-width: 2; stroke-linecap: round"/>
    </g>
    <g id="text_13">
     <!-- BTC -->
     <g style="fill: #1f2430" transform="translate(84.669375 107.843125) scale(0.1 -0.1)">
      <defs>
       <path id="SegoeUI-42" d="M 588 0
L 588 4481
L 1863 4481
Q 2444 4481 2784 4197
Q 3125 3913 3125 3456
Q 3125 3075 2919 2794
Q 2713 2513 2350 2394
L 2350 2381
Q 2803 2328 3075 2039
Q 3347 1750 3347 1288
Q 3347 713 2934 356
Q 2522 0 1894 0
L 588 0
z
M 1113 4006
L 1113 2559
L 1650 2559
Q 2081 2559 2328 2767
Q 2575 2975 2575 3353
Q 2575 4006 1716 4006
L 1113 4006
z
M 1113 2088
L 1113 475
L 1825 475
Q 2288 475 2542 694
Q 2797 913 2797 1294
Q 2797 2088 1716 2088
L 1113 2088
z
" transform="scale(0.015625)"/>
       <path id="SegoeUI-54" d="M 3238 4006
L 1944 4006
L 1944 0
L 1419 0
L 1419 4006
L 128 4006
L 128 4481
L 3238 4481
L 3238 4006
z
" transform="scale(0.015625)"/>
      </defs>
      <use xlink:href="#SegoeUI-42"/>
      <use xlink:href="#SegoeUI-54" transform="translate(52.824219 0)"/>
      <use xlink:href="#SegoeUI-43" transform="translate(100.716797 0)"/>
     </g>
    </g>
    <g id="line2d_10">
     <path d="M 56.669375 119.04625
L 66.669375 119.04625
L 76.669375 119.04625
" style="fill: none; stroke: #5477c4; stroke-width: 2; stroke-linecap: round"/>
    </g>
    <g id="text_14">
     <!-- ETH -->
     <g style="fill: #1f2430" transform="translate(84.669375 122.54625) scale(0.1 -0.1)">
      <defs>
       <path id="SegoeUI-45" d="M 2963 0
L 588 0
L 588 4481
L 2863 4481
L 2863 4006
L 1113 4006
L 1113 2516
L 2731 2516
L 2731 2044
L 1113 2044
L 1113 475
L 2963 475
L 2963 0
z
" transform="scale(0.015625)"/>
       <path id="SegoeUI-48" d="M 3956 0
L 3431 0
L 3431 2044
L 1113 2044
L 1113 0
L 588 0
L 588 4481
L 1113 4481
L 1113 2516
L 3431 2516
L 3431 4481
L 3956 4481
L 3956 0
z
" transform="scale(0.015625)"/>
      </defs>
      <use xlink:href="#SegoeUI-45"/>
      <use xlink:href="#SegoeUI-54" transform="translate(50.835938 0)"/>
      <use xlink:href="#SegoeUI-48" transform="translate(103.228516 0)"/>
     </g>
    </g>
   </g>
  </g>
  <g id="axes_2">
   <g id="patch_5">
    <path d="M 555.449375 359.28
L 964.949375 359.28
L 964.949375 91.44
L 555.449375 91.44
z
" style="fill: #ffffff"/>
   </g>
   <g id="matplotlib.axis_3">
    <g id="xtick_5">
     <g id="text_15">
      <!-- BTC -->
      <g style="fill: #6f768a" transform="translate(632.749162 370.183125) scale(0.1 -0.1)">
       <use xlink:href="#SegoeUI-42"/>
       <use xlink:href="#SegoeUI-54" transform="translate(52.824219 0)"/>
       <use xlink:href="#SegoeUI-43" transform="translate(100.716797 0)"/>
      </g>
     </g>
    </g>
    <g id="xtick_6">
     <g id="text_16">
      <!-- ETH -->
      <g style="fill: #6f768a" transform="translate(870.805838 370.183125) scale(0.1 -0.1)">
       <use xlink:href="#SegoeUI-45"/>
       <use xlink:href="#SegoeUI-54" transform="translate(50.835938 0)"/>
       <use xlink:href="#SegoeUI-48" transform="translate(103.228516 0)"/>
      </g>
     </g>
    </g>
   </g>
   <g id="matplotlib.axis_4">
    <g id="ytick_7">
     <g id="line2d_11">
      <path d="M 555.449375 359.28
L 964.949375 359.28
" clip-path="url(#p1d566598cf)" style="fill: none; stroke: #e8ebf2; stroke-width: 0.8; stroke-linecap: round"/>
     </g>
     <g id="text_17">
      <!-- 0.00 -->
      <g style="fill: #6f768a" transform="translate(533.60875 362.981562) scale(0.1 -0.1)">
       <use xlink:href="#SegoeUI-30"/>
       <use xlink:href="#SegoeUI-2e" transform="translate(53.90625 0)"/>
       <use xlink:href="#SegoeUI-30" transform="translate(75.585938 0)"/>
       <use xlink:href="#SegoeUI-30" transform="translate(129.492188 0)"/>
      </g>
     </g>
    </g>
    <g id="ytick_8">
     <g id="line2d_12">
      <path d="M 555.449375 325.612682
L 964.949375 325.612682
" clip-path="url(#p1d566598cf)" style="fill: none; stroke: #e8ebf2; stroke-width: 0.8; stroke-linecap: round"/>
     </g>
     <g id="text_18">
      <!-- 0.05 -->
      <g style="fill: #6f768a" transform="translate(533.60875 329.314244) scale(0.1 -0.1)">
       <use xlink:href="#SegoeUI-30"/>
       <use xlink:href="#SegoeUI-2e" transform="translate(53.90625 0)"/>
       <use xlink:href="#SegoeUI-30" transform="translate(75.585938 0)"/>
       <use xlink:href="#SegoeUI-35" transform="translate(129.492188 0)"/>
      </g>
     </g>
    </g>
    <g id="ytick_9">
     <g id="line2d_13">
      <path d="M 555.449375 291.945364
L 964.949375 291.945364
" clip-path="url(#p1d566598cf)" style="fill: none; stroke: #e8ebf2; stroke-width: 0.8; stroke-linecap: round"/>
     </g>
     <g id="text_19">
      <!-- 0.10 -->
      <g style="fill: #6f768a" transform="translate(533.60875 295.646926) scale(0.1 -0.1)">
       <use xlink:href="#SegoeUI-30"/>
       <use xlink:href="#SegoeUI-2e" transform="translate(53.90625 0)"/>
       <use xlink:href="#SegoeUI-31" transform="translate(75.585938 0)"/>
       <use xlink:href="#SegoeUI-30" transform="translate(129.492188 0)"/>
      </g>
     </g>
    </g>
    <g id="ytick_10">
     <g id="line2d_14">
      <path d="M 555.449375 258.278046
L 964.949375 258.278046
" clip-path="url(#p1d566598cf)" style="fill: none; stroke: #e8ebf2; stroke-width: 0.8; stroke-linecap: round"/>
     </g>
     <g id="text_20">
      <!-- 0.15 -->
      <g style="fill: #6f768a" transform="translate(533.60875 261.979608) scale(0.1 -0.1)">
       <use xlink:href="#SegoeUI-30"/>
       <use xlink:href="#SegoeUI-2e" transform="translate(53.90625 0)"/>
       <use xlink:href="#SegoeUI-31" transform="translate(75.585938 0)"/>
       <use xlink:href="#SegoeUI-35" transform="translate(129.492188 0)"/>
      </g>
     </g>
    </g>
    <g id="ytick_11">
     <g id="line2d_15">
      <path d="M 555.449375 224.610728
L 964.949375 224.610728
" clip-path="url(#p1d566598cf)" style="fill: none; stroke: #e8ebf2; stroke-width: 0.8; stroke-linecap: round"/>
     </g>
     <g id="text_21">
      <!-- 0.20 -->
      <g style="fill: #6f768a" transform="translate(533.60875 228.31229) scale(0.1 -0.1)">
       <use xlink:href="#SegoeUI-30"/>
       <use xlink:href="#SegoeUI-2e" transform="translate(53.90625 0)"/>
       <use xlink:href="#SegoeUI-32" transform="translate(75.585938 0)"/>
       <use xlink:href="#SegoeUI-30" transform="translate(129.492188 0)"/>
      </g>
     </g>
    </g>
    <g id="ytick_12">
     <g id="line2d_16">
      <path d="M 555.449375 190.94341
L 964.949375 190.94341
" clip-path="url(#p1d566598cf)" style="fill: none; stroke: #e8ebf2; stroke-width: 0.8; stroke-linecap: round"/>
     </g>
     <g id="text_22">
      <!-- 0.25 -->
      <g style="fill: #6f768a" transform="translate(533.60875 194.644972) scale(0.1 -0.1)">
       <use xlink:href="#SegoeUI-30"/>
       <use xlink:href="#SegoeUI-2e" transform="translate(53.90625 0)"/>
       <use xlink:href="#SegoeUI-32" transform="translate(75.585938 0)"/>
       <use xlink:href="#SegoeUI-35" transform="translate(129.492188 0)"/>
      </g>
     </g>
    </g>
    <g id="ytick_13">
     <g id="line2d_17">
      <path d="M 555.449375 157.276092
L 964.949375 157.276092
" clip-path="url(#p1d566598cf)" style="fill: none; stroke: #e8ebf2; stroke-width: 0.8; stroke-linecap: round"/>
     </g>
     <g id="text_23">
      <!-- 0.30 -->
      <g style="fill: #6f768a" transform="translate(533.60875 160.977654) scale(0.1 -0.1)">
       <use xlink:href="#SegoeUI-30"/>
       <use xlink:href="#SegoeUI-2e" transform="translate(53.90625 0)"/>
       <use xlink:href="#SegoeUI-33" transform="translate(75.585938 0)"/>
       <use xlink:href="#SegoeUI-30" transform="translate(129.492188 0)"/>
      </g>
     </g>
    </g>
    <g id="ytick_14">
     <g id="line2d_18">
      <path d="M 555.449375 123.608774
L 964.949375 123.608774
" clip-path="url(#p1d566598cf)" style="fill: none; stroke: #e8ebf2; stroke-width: 0.8; stroke-linecap: round"/>
     </g>
     <g id="text_24">
      <!-- 0.35 -->
      <g style="fill: #6f768a" transform="translate(533.60875 127.310336) scale(0.1 -0.1)">
       <use xlink:href="#SegoeUI-30"/>
       <use xlink:href="#SegoeUI-2e" transform="translate(53.90625 0)"/>
       <use xlink:href="#SegoeUI-33" transform="translate(75.585938 0)"/>
       <use xlink:href="#SegoeUI-35" transform="translate(129.492188 0)"/>
      </g>
     </g>
    </g>
    <g id="text_25">
     <!-- Correlation with return -->
     <g style="fill: #1f2430" transform="translate(526.84875 285.263437) rotate(-90) scale(0.12 -0.12)">
      <defs>
       <path id="SegoeUI-6e" d="M 3175 0
L 2663 0
L 2663 1825
Q 2663 2844 1919 2844
Q 1534 2844 1282 2555
Q 1031 2266 1031 1825
L 1031 0
L 519 0
L 519 3200
L 1031 3200
L 1031 2669
L 1044 2669
Q 1406 3275 2094 3275
Q 2619 3275 2897 2936
Q 3175 2597 3175 1956
L 3175 0
z
" transform="scale(0.015625)"/>
       <path id="SegoeUI-68" d="M 3175 0
L 2663 0
L 2663 1844
Q 2663 2844 1919 2844
Q 1544 2844 1287 2555
Q 1031 2266 1031 1813
L 1031 0
L 519 0
L 519 4738
L 1031 4738
L 1031 2669
L 1044 2669
Q 1413 3275 2094 3275
Q 3175 3275 3175 1972
L 3175 0
z
" transform="scale(0.015625)"/>
      </defs>
      <use xlink:href="#SegoeUI-43"/>
      <use xlink:href="#SegoeUI-6f" transform="translate(61.914062 0)"/>
      <use xlink:href="#SegoeUI-72" transform="translate(120.507812 0)"/>
      <use xlink:href="#SegoeUI-72" transform="translate(155.273438 0)"/>
      <use xlink:href="#SegoeUI-65" transform="translate(188.664062 0)"/>
      <use xlink:href="#SegoeUI-6c" transform="translate(240.958984 0)"/>
      <use xlink:href="#SegoeUI-61" transform="translate(265.177734 0)"/>
      <use xlink:href="#SegoeUI-74" transform="translate(316.056641 0)"/>
      <use xlink:href="#SegoeUI-69" transform="translate(349.943359 0)"/>
      <use xlink:href="#SegoeUI-6f" transform="translate(374.162109 0)"/>
      <use xlink:href="#SegoeUI-6e" transform="translate(432.755859 0)"/>
      <use xlink:href="#SegoeUI-20" transform="translate(489.347656 0)"/>
      <use xlink:href="#SegoeUI-77" transform="translate(516.740234 0)"/>
      <use xlink:href="#SegoeUI-69" transform="translate(589.005859 0)"/>
      <use xlink:href="#SegoeUI-74" transform="translate(613.224609 0)"/>
      <use xlink:href="#SegoeUI-68" transform="translate(647.111328 0)"/>
      <use xlink:href="#SegoeUI-20" transform="translate(703.703125 0)"/>
      <use xlink:href="#SegoeUI-72" transform="translate(731.095703 0)"/>
      <use xlink:href="#SegoeUI-65" transform="translate(764.486328 0)"/>
      <use xlink:href="#SegoeUI-74" transform="translate(816.78125 0)"/>
      <use xlink:href="#SegoeUI-75" transform="translate(850.667969 0)"/>
      <use xlink:href="#SegoeUI-72" transform="translate(907.259766 0)"/>
      <use xlink:href="#SegoeUI-6e" transform="translate(941.775391 0)"/>
     </g>
    </g>
   </g>
   <g id="patch_6">
    <path d="M 574.063011 359.28
L 640.881193 359.28
L 640.881193 104.194286
L 574.063011 104.194286
z
" clip-path="url(#p1d566598cf)" style="fill: #f0986e; stroke: #804126; stroke-linejoin: miter"/>
   </g>
   <g id="patch_7">
    <path d="M 812.699375 359.28
L 879.517557 359.28
L 879.517557 207.175667
L 812.699375 207.175667
z
" clip-path="url(#p1d566598cf)" style="fill: #f0986e; stroke: #804126; stroke-linejoin: miter"/>
   </g>
   <g id="patch_8">
    <path d="M 640.881193 359.28
L 707.699375 359.28
L 707.699375 326.195051
L 640.881193 326.195051
z
" clip-path="url(#p1d566598cf)" style="fill: #5477c4; stroke: #2e4780; stroke-linejoin: miter"/>
   </g>
   <g id="patch_9">
    <path d="M 879.517557 359.28
L 946.335739 359.28
L 946.335739 301.422164
L 879.517557 301.422164
z
" clip-path="url(#p1d566598cf)" style="fill: #5477c4; stroke: #2e4780; stroke-linejoin: miter"/>
   </g>
   <g id="line2d_19">
    <path d="M 555.449375 359.28
L 964.949375 359.28
" clip-path="url(#p1d566598cf)" style="fill: none; stroke: #d7dbe7; stroke-linecap: round"/>
   </g>
   <g id="patch_10">
    <path d="M 555.449375 359.28
L 555.449375 91.44
" style="fill: none; stroke: #d7dbe7; stroke-width: 1.25; stroke-linejoin: miter; stroke-linecap: square"/>
   </g>
   <g id="patch_11">
    <path d="M 555.449375 359.28
L 964.949375 359.28
" style="fill: none; stroke: #d7dbe7; stroke-width: 1.25; stroke-linejoin: miter; stroke-linecap: square"/>
   </g>
   <g id="text_26">
    <!-- 0.38 -->
    <g style="fill: #1f2430" transform="translate(595.431477 99.436198) scale(0.1 -0.1)">
     <defs>
      <path id="DejaVuSansMono-30" d="M 1509 2344
Q 1509 2516 1629 2641
Q 1750 2766 1919 2766
Q 2094 2766 2219 2641
Q 2344 2516 2344 2344
Q 2344 2169 2220 2047
Q 2097 1925 1919 1925
Q 1744 1925 1626 2044
Q 1509 2163 1509 2344
z
M 1925 4250
Q 1484 4250 1267 3775
Q 1050 3300 1050 2328
Q 1050 1359 1267 884
Q 1484 409 1925 409
Q 2369 409 2586 884
Q 2803 1359 2803 2328
Q 2803 3300 2586 3775
Q 2369 4250 1925 4250
z
M 1925 4750
Q 2672 4750 3055 4137
Q 3438 3525 3438 2328
Q 3438 1134 3055 521
Q 2672 -91 1925 -91
Q 1178 -91 797 521
Q 416 1134 416 2328
Q 416 3525 797 4137
Q 1178 4750 1925 4750
z
" transform="scale(0.015625)"/>
      <path id="DejaVuSansMono-2e" d="M 1528 953
L 2316 953
L 2316 0
L 1528 0
L 1528 953
z
" transform="scale(0.015625)"/>
      <path id="DejaVuSansMono-33" d="M 2425 2497
Q 2884 2375 3128 2064
Q 3372 1753 3372 1288
Q 3372 644 2939 276
Q 2506 -91 1741 -91
Q 1419 -91 1084 -31
Q 750 28 428 141
L 428 769
Q 747 603 1056 522
Q 1366 441 1672 441
Q 2191 441 2469 675
Q 2747 909 2747 1350
Q 2747 1756 2469 1995
Q 2191 2234 1716 2234
L 1234 2234
L 1234 2753
L 1716 2753
Q 2150 2753 2394 2943
Q 2638 3134 2638 3475
Q 2638 3834 2411 4026
Q 2184 4219 1766 4219
Q 1488 4219 1191 4156
Q 894 4094 569 3969
L 569 4550
Q 947 4650 1242 4700
Q 1538 4750 1766 4750
Q 2447 4750 2855 4408
Q 3263 4066 3263 3500
Q 3263 3116 3048 2859
Q 2834 2603 2425 2497
z
" transform="scale(0.015625)"/>
      <path id="DejaVuSansMono-38" d="M 1925 2216
Q 1503 2216 1273 1980
Q 1044 1744 1044 1313
Q 1044 881 1276 642
Q 1509 403 1925 403
Q 2350 403 2579 639
Q 2809 875 2809 1313
Q 2809 1741 2576 1978
Q 2344 2216 1925 2216
z
M 1375 2478
Q 972 2581 745 2862
Q 519 3144 519 3541
Q 519 4097 897 4423
Q 1275 4750 1925 4750
Q 2578 4750 2956 4423
Q 3334 4097 3334 3541
Q 3334 3144 3107 2862
Q 2881 2581 2478 2478
Q 2947 2375 3195 2062
Q 3444 1750 3444 1253
Q 3444 622 3041 265
Q 2638 -91 1925 -91
Q 1213 -91 811 264
Q 409 619 409 1247
Q 409 1747 657 2061
Q 906 2375 1375 2478
z
M 1147 3481
Q 1147 3106 1347 2909
Q 1547 2713 1925 2713
Q 2306 2713 2506 2909
Q 2706 3106 2706 3481
Q 2706 3863 2507 4063
Q 2309 4263 1925 4263
Q 1547 4263 1347 4061
Q 1147 3859 1147 3481
z
" transform="scale(0.015625)"/>
     </defs>
     <use xlink:href="#DejaVuSansMono-30"/>
     <use xlink:href="#DejaVuSansMono-2e" transform="translate(60.205078 0)"/>
     <use xlink:href="#DejaVuSansMono-33" transform="translate(120.410156 0)"/>
     <use xlink:href="#DejaVuSansMono-38" transform="translate(180.615234 0)"/>
    </g>
   </g>
   <g id="text_27">
    <!-- 0.23 -->
    <g style="fill: #1f2430" transform="translate(834.067841 202.417579) scale(0.1 -0.1)">
     <defs>
      <path id="DejaVuSansMono-32" d="M 1166 531
L 3309 531
L 3309 0
L 475 0
L 475 531
Q 1059 1147 1496 1619
Q 1934 2091 2100 2284
Q 2413 2666 2522 2902
Q 2631 3138 2631 3384
Q 2631 3775 2401 3997
Q 2172 4219 1772 4219
Q 1488 4219 1175 4116
Q 863 4013 513 3803
L 513 4441
Q 834 4594 1145 4672
Q 1456 4750 1759 4750
Q 2444 4750 2861 4386
Q 3278 4022 3278 3431
Q 3278 3131 3139 2831
Q 3000 2531 2688 2169
Q 2513 1966 2180 1606
Q 1847 1247 1166 531
z
" transform="scale(0.015625)"/>
     </defs>
     <use xlink:href="#DejaVuSansMono-30"/>
     <use xlink:href="#DejaVuSansMono-2e" transform="translate(60.205078 0)"/>
     <use xlink:href="#DejaVuSansMono-32" transform="translate(120.410156 0)"/>
     <use xlink:href="#DejaVuSansMono-33" transform="translate(180.615234 0)"/>
    </g>
   </g>
   <g id="text_28">
    <!-- 0.05 -->
    <g style="fill: #1f2430" transform="translate(662.249659 321.436964) scale(0.1 -0.1)">
     <defs>
      <path id="DejaVuSansMono-35" d="M 647 4666
L 3009 4666
L 3009 4134
L 1222 4134
L 1222 2988
Q 1356 3038 1492 3061
Q 1628 3084 1766 3084
Q 2491 3084 2916 2656
Q 3341 2228 3341 1497
Q 3341 759 2895 334
Q 2450 -91 1678 -91
Q 1306 -91 998 -41
Q 691 9 447 109
L 447 750
Q 734 594 1025 517
Q 1316 441 1619 441
Q 2141 441 2423 716
Q 2706 991 2706 1497
Q 2706 1997 2414 2275
Q 2122 2553 1600 2553
Q 1347 2553 1106 2495
Q 866 2438 647 2322
L 647 4666
z
" transform="scale(0.015625)"/>
     </defs>
     <use xlink:href="#DejaVuSansMono-30"/>
     <use xlink:href="#DejaVuSansMono-2e" transform="translate(60.205078 0)"/>
     <use xlink:href="#DejaVuSansMono-30" transform="translate(120.410156 0)"/>
     <use xlink:href="#DejaVuSansMono-35" transform="translate(180.615234 0)"/>
    </g>
   </g>
   <g id="text_29">
    <!-- 0.09 -->
    <g style="fill: #1f2430" transform="translate(900.886023 296.664076) scale(0.1 -0.1)">
     <defs>
      <path id="DejaVuSansMono-39" d="M 1863 2069
Q 2266 2069 2495 2359
Q 2725 2650 2725 3163
Q 2725 3675 2495 3965
Q 2266 4256 1863 4256
Q 1444 4256 1231 3979
Q 1019 3703 1019 3163
Q 1019 2619 1230 2344
Q 1441 2069 1863 2069
z
M 738 97
L 738 678
Q 934 563 1156 502
Q 1378 441 1619 441
Q 2219 441 2526 892
Q 2834 1344 2834 2222
Q 2688 1909 2422 1742
Q 2156 1575 1813 1575
Q 1138 1575 767 1990
Q 397 2406 397 3169
Q 397 3922 776 4336
Q 1156 4750 1850 4750
Q 2663 4750 3041 4165
Q 3419 3581 3419 2328
Q 3419 1150 2964 529
Q 2509 -91 1644 -91
Q 1416 -91 1184 -42
Q 953 6 738 97
z
" transform="scale(0.015625)"/>
     </defs>
     <use xlink:href="#DejaVuSansMono-30"/>
     <use xlink:href="#DejaVuSansMono-2e" transform="translate(60.205078 0)"/>
     <use xlink:href="#DejaVuSansMono-30" transform="translate(120.410156 0)"/>
     <use xlink:href="#DejaVuSansMono-39" transform="translate(180.615234 0)"/>
    </g>
   </g>
   <g id="text_30">
    <!-- B. Flow-return association -->
    <g style="fill: #1f2430" transform="translate(555.449375 85.44) scale(0.13 -0.13)">
     <defs>
      <path id="SegoeUI-Semibold-42" d="M 553 0
L 553 4481
L 1975 4481
Q 2625 4481 3004 4197
Q 3384 3913 3384 3456
Q 3384 3075 3168 2794
Q 2953 2513 2572 2394
L 2572 2381
Q 3034 2328 3311 2039
Q 3588 1750 3588 1288
Q 3588 713 3134 356
Q 2681 0 1991 0
L 553 0
z
M 1294 3884
L 1294 2609
L 1775 2609
Q 2163 2609 2383 2792
Q 2603 2975 2603 3309
Q 2603 3884 1834 3884
L 1294 3884
z
M 1294 2013
L 1294 594
L 1928 594
Q 2344 594 2570 786
Q 2797 978 2797 1316
Q 2797 2013 1831 2013
L 1294 2013
z
" transform="scale(0.015625)"/>
      <path id="SegoeUI-Semibold-46" d="M 2972 3850
L 1297 3850
L 1297 2503
L 2841 2503
L 2841 1875
L 1297 1875
L 1297 0
L 553 0
L 553 4481
L 2972 4481
L 2972 3850
z
" transform="scale(0.015625)"/>
      <path id="SegoeUI-Semibold-2d" d="M 2156 1481
L 450 1481
L 450 2016
L 2156 2016
L 2156 1481
z
" transform="scale(0.015625)"/>
      <path id="SegoeUI-Semibold-72" d="M 2328 2509
Q 2197 2613 1950 2613
Q 1628 2613 1412 2322
Q 1197 2031 1197 1531
L 1197 0
L 472 0
L 472 3200
L 1197 3200
L 1197 2541
L 1209 2541
Q 1316 2878 1536 3067
Q 1756 3256 2028 3256
Q 2225 3256 2328 3197
L 2328 2509
z
" transform="scale(0.015625)"/>
      <path id="SegoeUI-Semibold-63" d="M 2763 147
Q 2378 -75 1853 -75
Q 1141 -75 703 370
Q 266 816 266 1525
Q 266 2316 736 2795
Q 1206 3275 1994 3275
Q 2431 3275 2766 3122
L 2766 2447
Q 2431 2697 2053 2697
Q 1594 2697 1300 2386
Q 1006 2075 1006 1572
Q 1006 1075 1282 787
Q 1559 500 2025 500
Q 2416 500 2763 778
L 2763 147
z
" transform="scale(0.015625)"/>
     </defs>
     <use xlink:href="#SegoeUI-Semibold-42"/>
     <use xlink:href="#SegoeUI-Semibold-2e" transform="translate(60.400391 0)"/>
     <use xlink:href="#SegoeUI-Semibold-20" transform="translate(84.521484 0)"/>
     <use xlink:href="#SegoeUI-Semibold-46" transform="translate(112.011719 0)"/>
     <use xlink:href="#SegoeUI-Semibold-6c" transform="translate(162.255859 0)"/>
     <use xlink:href="#SegoeUI-Semibold-6f" transform="translate(188.378906 0)"/>
     <use xlink:href="#SegoeUI-Semibold-77" transform="translate(248.095703 0)"/>
     <use xlink:href="#SegoeUI-Semibold-2d" transform="translate(323.730469 0)"/>
     <use xlink:href="#SegoeUI-Semibold-72" transform="translate(363.916016 0)"/>
     <use xlink:href="#SegoeUI-Semibold-65" transform="translate(400.052734 0)"/>
     <use xlink:href="#SegoeUI-Semibold-74" transform="translate(453.177734 0)"/>
     <use xlink:href="#SegoeUI-Semibold-75" transform="translate(489.310547 0)"/>
     <use xlink:href="#SegoeUI-Semibold-72" transform="translate(547.660156 0)"/>
     <use xlink:href="#SegoeUI-Semibold-6e" transform="translate(584.671875 0)"/>
     <use xlink:href="#SegoeUI-Semibold-20" transform="translate(643.021484 0)"/>
     <use xlink:href="#SegoeUI-Semibold-61" transform="translate(670.511719 0)"/>
     <use xlink:href="#SegoeUI-Semibold-73" transform="translate(722.708984 0)"/>
     <use xlink:href="#SegoeUI-Semibold-73" transform="translate(765.824219 0)"/>
     <use xlink:href="#SegoeUI-Semibold-6f" transform="translate(808.939453 0)"/>
     <use xlink:href="#SegoeUI-Semibold-63" transform="translate(868.65625 0)"/>
     <use xlink:href="#SegoeUI-Semibold-69" transform="translate(915.677734 0)"/>
     <use xlink:href="#SegoeUI-Semibold-61" transform="translate(941.800781 0)"/>
     <use xlink:href="#SegoeUI-Semibold-74" transform="translate(993.998047 0)"/>
     <use xlink:href="#SegoeUI-Semibold-69" transform="translate(1030.130859 0)"/>
     <use xlink:href="#SegoeUI-Semibold-6f" transform="translate(1056.253906 0)"/>
     <use xlink:href="#SegoeUI-Semibold-6e" transform="translate(1115.970703 0)"/>
    </g>
   </g>
   <g id="legend_2">
    <g id="patch_12">
     <path d="M 904.135313 107.843125
L 924.135313 107.843125
L 924.135313 100.843125
L 904.135313 100.843125
z
" style="fill: #f0986e; stroke: #804126; stroke-linejoin: miter"/>
    </g>
    <g id="text_31">
     <!-- Lag 0 -->
     <g style="fill: #1f2430" transform="translate(932.135313 107.843125) scale(0.1 -0.1)">
      <defs>
       <path id="SegoeUI-4c" d="M 2913 0
L 588 0
L 588 4481
L 1113 4481
L 1113 475
L 2913 475
L 2913 0
z
" transform="scale(0.015625)"/>
      </defs>
      <use xlink:href="#SegoeUI-4c"/>
      <use xlink:href="#SegoeUI-61" transform="translate(47.070312 0)"/>
      <use xlink:href="#SegoeUI-67" transform="translate(97.949219 0)"/>
      <use xlink:href="#SegoeUI-20" transform="translate(156.835938 0)"/>
      <use xlink:href="#SegoeUI-30" transform="translate(184.228516 0)"/>
     </g>
    </g>
    <g id="patch_13">
     <path d="M 904.135313 122.599375
L 924.135313 122.599375
L 924.135313 115.599375
L 904.135313 115.599375
z
" style="fill: #5477c4; stroke: #2e4780; stroke-linejoin: miter"/>
    </g>
    <g id="text_32">
     <!-- Lag 1 -->
     <g style="fill: #1f2430" transform="translate(932.135313 122.599375) scale(0.1 -0.1)">
      <use xlink:href="#SegoeUI-4c"/>
      <use xlink:href="#SegoeUI-61" transform="translate(47.070312 0)"/>
      <use xlink:href="#SegoeUI-67" transform="translate(97.949219 0)"/>
      <use xlink:href="#SegoeUI-20" transform="translate(156.835938 0)"/>
      <use xlink:href="#SegoeUI-31" transform="translate(184.228516 0)"/>
     </g>
    </g>
   </g>
  </g>
  <g id="text_33">
   <!-- ETF plumbing is strongest on reported flow days -->
   <g style="fill: #1f2430" transform="translate(37.589375 19.2225) scale(0.16 -0.16)">
    <defs>
     <path id="SegoeUI-Semibold-45" d="M 3069 0
L 553 0
L 553 4481
L 2969 4481
L 2969 3850
L 1297 3850
L 1297 2581
L 2838 2581
L 2838 1953
L 1297 1953
L 1297 628
L 3069 628
L 3069 0
z
" transform="scale(0.015625)"/>
     <path id="SegoeUI-Semibold-54" d="M 3428 3850
L 2141 3850
L 2141 0
L 1397 0
L 1397 3850
L 113 3850
L 113 4481
L 3428 4481
L 3428 3850
z
" transform="scale(0.015625)"/>
     <path id="SegoeUI-Semibold-70" d="M 1209 472
L 1197 472
L 1197 -1472
L 472 -1472
L 472 3200
L 1197 3200
L 1197 2638
L 1209 2638
Q 1581 3275 2297 3275
Q 2906 3275 3247 2847
Q 3588 2419 3588 1697
Q 3588 897 3203 415
Q 2819 -66 2153 -66
Q 1541 -66 1209 472
z
M 1191 1734
L 1191 1338
Q 1191 988 1414 744
Q 1638 500 1981 500
Q 2384 500 2614 814
Q 2844 1128 2844 1691
Q 2844 2163 2630 2430
Q 2416 2697 2050 2697
Q 1663 2697 1427 2422
Q 1191 2147 1191 1734
z
" transform="scale(0.015625)"/>
     <path id="SegoeUI-Semibold-62" d="M 1209 463
L 1197 463
L 1197 0
L 472 0
L 472 4738
L 1197 4738
L 1197 2638
L 1209 2638
Q 1581 3275 2297 3275
Q 2903 3275 3245 2845
Q 3588 2416 3588 1694
Q 3588 891 3203 408
Q 2819 -75 2153 -75
Q 1528 -75 1209 463
z
M 1191 1734
L 1191 1338
Q 1191 988 1414 744
Q 1638 500 1981 500
Q 2384 500 2614 814
Q 2844 1128 2844 1691
Q 2844 2163 2630 2430
Q 2416 2697 2050 2697
Q 1663 2697 1427 2422
Q 1191 2147 1191 1734
z
" transform="scale(0.015625)"/>
     <path id="SegoeUI-Semibold-67" d="M 3384 256
Q 3384 -1506 1613 -1506
Q 988 -1506 522 -1297
L 522 -634
Q 1047 -934 1519 -934
Q 2659 -934 2659 188
L 2659 538
L 2647 538
Q 2288 -75 1566 -75
Q 981 -75 623 351
Q 266 778 266 1497
Q 266 2313 650 2794
Q 1034 3275 1706 3275
Q 2341 3275 2647 2756
L 2659 2756
L 2659 3200
L 3384 3200
L 3384 256
z
M 2666 1466
L 2666 1881
Q 2666 2219 2442 2458
Q 2219 2697 1884 2697
Q 1472 2697 1239 2392
Q 1006 2088 1006 1541
Q 1006 1069 1229 786
Q 1453 503 1822 503
Q 2197 503 2431 773
Q 2666 1044 2666 1466
z
" transform="scale(0.015625)"/>
     <path id="SegoeUI-Semibold-64" d="M 3381 0
L 2656 0
L 2656 544
L 2644 544
Q 2294 -75 1566 -75
Q 975 -75 620 354
Q 266 784 266 1525
Q 266 2319 658 2797
Q 1050 3275 1703 3275
Q 2350 3275 2644 2756
L 2656 2756
L 2656 4738
L 3381 4738
L 3381 0
z
M 2666 1463
L 2666 1881
Q 2666 2222 2444 2459
Q 2222 2697 1878 2697
Q 1472 2697 1239 2394
Q 1006 2091 1006 1553
Q 1006 1066 1229 783
Q 1453 500 1831 500
Q 2203 500 2434 773
Q 2666 1047 2666 1463
z
" transform="scale(0.015625)"/>
    </defs>
    <use xlink:href="#SegoeUI-Semibold-45"/>
    <use xlink:href="#SegoeUI-Semibold-54" transform="translate(52.257812 0)"/>
    <use xlink:href="#SegoeUI-Semibold-46" transform="translate(107.433594 0)"/>
    <use xlink:href="#SegoeUI-Semibold-20" transform="translate(157.677734 0)"/>
    <use xlink:href="#SegoeUI-Semibold-70" transform="translate(185.167969 0)"/>
    <use xlink:href="#SegoeUI-Semibold-6c" transform="translate(245.421875 0)"/>
    <use xlink:href="#SegoeUI-Semibold-75" transform="translate(271.544922 0)"/>
    <use xlink:href="#SegoeUI-Semibold-6d" transform="translate(329.894531 0)"/>
    <use xlink:href="#SegoeUI-Semibold-62" transform="translate(418.46875 0)"/>
    <use xlink:href="#SegoeUI-Semibold-69" transform="translate(478.722656 0)"/>
    <use xlink:href="#SegoeUI-Semibold-6e" transform="translate(504.845703 0)"/>
    <use xlink:href="#SegoeUI-Semibold-67" transform="translate(563.195312 0)"/>
    <use xlink:href="#SegoeUI-Semibold-20" transform="translate(623.449219 0)"/>
    <use xlink:href="#SegoeUI-Semibold-69" transform="translate(650.939453 0)"/>
    <use xlink:href="#SegoeUI-Semibold-73" transform="translate(677.0625 0)"/>
    <use xlink:href="#SegoeUI-Semibold-20" transform="translate(720.177734 0)"/>
    <use xlink:href="#SegoeUI-Semibold-73" transform="translate(747.667969 0)"/>
    <use xlink:href="#SegoeUI-Semibold-74" transform="translate(790.783203 0)"/>
    <use xlink:href="#SegoeUI-Semibold-72" transform="translate(826.916016 0)"/>
    <use xlink:href="#SegoeUI-Semibold-6f" transform="translate(863.052734 0)"/>
    <use xlink:href="#SegoeUI-Semibold-6e" transform="translate(922.769531 0)"/>
    <use xlink:href="#SegoeUI-Semibold-67" transform="translate(981.119141 0)"/>
    <use xlink:href="#SegoeUI-Semibold-65" transform="translate(1041.373047 0)"/>
    <use xlink:href="#SegoeUI-Semibold-73" transform="translate(1094.498047 0)"/>
    <use xlink:href="#SegoeUI-Semibold-74" transform="translate(1137.613281 0)"/>
    <use xlink:href="#SegoeUI-Semibold-20" transform="translate(1173.746094 0)"/>
    <use xlink:href="#SegoeUI-Semibold-6f" transform="translate(1201.236328 0)"/>
    <use xlink:href="#SegoeUI-Semibold-6e" transform="translate(1260.953125 0)"/>
    <use xlink:href="#SegoeUI-Semibold-20" transform="translate(1319.302734 0)"/>
    <use xlink:href="#SegoeUI-Semibold-72" transform="translate(1346.792969 0)"/>
    <use xlink:href="#SegoeUI-Semibold-65" transform="translate(1382.929688 0)"/>
    <use xlink:href="#SegoeUI-Semibold-70" transform="translate(1436.054688 0)"/>
    <use xlink:href="#SegoeUI-Semibold-6f" transform="translate(1496.308594 0)"/>
    <use xlink:href="#SegoeUI-Semibold-72" transform="translate(1556.025391 0)"/>
    <use xlink:href="#SegoeUI-Semibold-74" transform="translate(1595.912109 0)"/>
    <use xlink:href="#SegoeUI-Semibold-65" transform="translate(1631.419922 0)"/>
    <use xlink:href="#SegoeUI-Semibold-64" transform="translate(1684.544922 0)"/>
    <use xlink:href="#SegoeUI-Semibold-20" transform="translate(1744.798828 0)"/>
    <use xlink:href="#SegoeUI-Semibold-66" transform="translate(1772.289062 0)"/>
    <use xlink:href="#SegoeUI-Semibold-6c" transform="translate(1806.761719 0)"/>
    <use xlink:href="#SegoeUI-Semibold-6f" transform="translate(1832.884766 0)"/>
    <use xlink:href="#SegoeUI-Semibold-77" transform="translate(1892.601562 0)"/>
    <use xlink:href="#SegoeUI-Semibold-20" transform="translate(1968.236328 0)"/>
    <use xlink:href="#SegoeUI-Semibold-64" transform="translate(1995.726562 0)"/>
    <use xlink:href="#SegoeUI-Semibold-61" transform="translate(2055.980469 0)"/>
    <use xlink:href="#SegoeUI-Semibold-79" transform="translate(2108.177734 0)"/>
    <use xlink:href="#SegoeUI-Semibold-73" transform="translate(2159.007812 0)"/>
   </g>
  </g>
  <g id="text_34">
   <!-- Panel A scales cumulative net flow by lagged market cap; Panel B compares lag-0 and lag-1 return correlations. -->
   <g style="fill: #6f768a" transform="translate(37.589375 37.060312) scale(0.11 -0.11)">
    <defs>
     <path id="SegoeUI-50" d="M 1113 1694
L 1113 0
L 588 0
L 588 4481
L 1819 4481
Q 2538 4481 2933 4131
Q 3328 3781 3328 3144
Q 3328 2506 2889 2100
Q 2450 1694 1703 1694
L 1113 1694
z
M 1113 4006
L 1113 2169
L 1663 2169
Q 2206 2169 2492 2417
Q 2778 2666 2778 3119
Q 2778 4006 1728 4006
L 1113 4006
z
" transform="scale(0.015625)"/>
     <path id="SegoeUI-41" d="M 4056 0
L 3475 0
L 3000 1256
L 1100 1256
L 653 0
L 69 0
L 1788 4481
L 2331 4481
L 4056 0
z
M 2828 1728
L 2125 3638
Q 2091 3731 2056 3938
L 2044 3938
Q 2013 3747 1972 3638
L 1275 1728
L 2828 1728
z
" transform="scale(0.015625)"/>
     <path id="SegoeUI-73" d="M 325 116
L 325 666
Q 744 356 1247 356
Q 1922 356 1922 806
Q 1922 934 1864 1023
Q 1806 1113 1707 1181
Q 1609 1250 1476 1304
Q 1344 1359 1191 1419
Q 978 1503 817 1589
Q 656 1675 548 1783
Q 441 1891 386 2028
Q 331 2166 331 2350
Q 331 2575 434 2748
Q 538 2922 709 3039
Q 881 3156 1101 3215
Q 1322 3275 1556 3275
Q 1972 3275 2300 3131
L 2300 2613
Q 1947 2844 1488 2844
Q 1344 2844 1228 2811
Q 1113 2778 1030 2718
Q 947 2659 901 2576
Q 856 2494 856 2394
Q 856 2269 901 2184
Q 947 2100 1034 2034
Q 1122 1969 1247 1916
Q 1372 1863 1531 1800
Q 1744 1719 1912 1633
Q 2081 1547 2200 1439
Q 2319 1331 2383 1190
Q 2447 1050 2447 856
Q 2447 619 2342 444
Q 2238 269 2063 153
Q 1888 38 1659 -18
Q 1431 -75 1181 -75
Q 688 -75 325 116
z
" transform="scale(0.015625)"/>
     <path id="SegoeUI-62" d="M 1044 463
L 1031 463
L 1031 0
L 519 0
L 519 4738
L 1031 4738
L 1031 2638
L 1044 2638
Q 1422 3275 2150 3275
Q 2766 3275 3114 2845
Q 3463 2416 3463 1694
Q 3463 891 3072 408
Q 2681 -75 2003 -75
Q 1369 -75 1044 463
z
M 1031 1753
L 1031 1306
Q 1031 909 1289 632
Q 1547 356 1944 356
Q 2409 356 2673 712
Q 2938 1069 2938 1703
Q 2938 2238 2691 2541
Q 2444 2844 2022 2844
Q 1575 2844 1303 2533
Q 1031 2222 1031 1753
z
" transform="scale(0.015625)"/>
     <path id="SegoeUI-79" d="M 3066 3200
L 1594 -513
Q 1200 -1506 488 -1506
Q 288 -1506 153 -1466
L 153 -1006
Q 319 -1063 456 -1063
Q 844 -1063 1038 -600
L 1294 6
L 44 3200
L 613 3200
L 1478 738
Q 1494 691 1544 494
L 1563 494
Q 1578 569 1625 731
L 2534 3200
L 3066 3200
z
" transform="scale(0.015625)"/>
     <path id="SegoeUI-3b" d="M 706 2575
Q 559 2575 457 2678
Q 356 2781 356 2925
Q 356 3069 457 3169
Q 559 3269 706 3269
Q 850 3269 953 3169
Q 1056 3069 1056 2925
Q 1056 2781 953 2678
Q 850 2575 706 2575
z
M 988 713
L 488 -825
L 122 -825
L 488 713
L 988 713
z
" transform="scale(0.015625)"/>
     <path id="SegoeUI-2d" d="M 2156 1581
L 450 1581
L 450 1984
L 2156 1984
L 2156 1581
z
" transform="scale(0.015625)"/>
    </defs>
    <use xlink:href="#SegoeUI-50"/>
    <use xlink:href="#SegoeUI-61" transform="translate(52.755859 0)"/>
    <use xlink:href="#SegoeUI-6e" transform="translate(103.634766 0)"/>
    <use xlink:href="#SegoeUI-65" transform="translate(160.226562 0)"/>
    <use xlink:href="#SegoeUI-6c" transform="translate(212.521484 0)"/>
    <use xlink:href="#SegoeUI-20" transform="translate(236.740234 0)"/>
    <use xlink:href="#SegoeUI-41" transform="translate(264.132812 0)"/>
    <use xlink:href="#SegoeUI-20" transform="translate(328.634766 0)"/>
    <use xlink:href="#SegoeUI-73" transform="translate(356.027344 0)"/>
    <use xlink:href="#SegoeUI-63" transform="translate(398.458984 0)"/>
    <use xlink:href="#SegoeUI-61" transform="translate(444.650391 0)"/>
    <use xlink:href="#SegoeUI-6c" transform="translate(495.529297 0)"/>
    <use xlink:href="#SegoeUI-65" transform="translate(519.748047 0)"/>
    <use xlink:href="#SegoeUI-73" transform="translate(572.042969 0)"/>
    <use xlink:href="#SegoeUI-20" transform="translate(614.474609 0)"/>
    <use xlink:href="#SegoeUI-63" transform="translate(641.867188 0)"/>
    <use xlink:href="#SegoeUI-75" transform="translate(688.058594 0)"/>
    <use xlink:href="#SegoeUI-6d" transform="translate(744.650391 0)"/>
    <use xlink:href="#SegoeUI-75" transform="translate(830.783203 0)"/>
    <use xlink:href="#SegoeUI-6c" transform="translate(887.375 0)"/>
    <use xlink:href="#SegoeUI-61" transform="translate(911.59375 0)"/>
    <use xlink:href="#SegoeUI-74" transform="translate(962.472656 0)"/>
    <use xlink:href="#SegoeUI-69" transform="translate(996.359375 0)"/>
    <use xlink:href="#SegoeUI-76" transform="translate(1020.578125 0)"/>
    <use xlink:href="#SegoeUI-65" transform="translate(1067.853516 0)"/>
    <use xlink:href="#SegoeUI-20" transform="translate(1120.148438 0)"/>
    <use xlink:href="#SegoeUI-6e" transform="translate(1147.541016 0)"/>
    <use xlink:href="#SegoeUI-65" transform="translate(1204.132812 0)"/>
    <use xlink:href="#SegoeUI-74" transform="translate(1256.427734 0)"/>
    <use xlink:href="#SegoeUI-20" transform="translate(1290.314453 0)"/>
    <use xlink:href="#SegoeUI-66" transform="translate(1317.707031 0)"/>
    <use xlink:href="#SegoeUI-6c" transform="translate(1349.005859 0)"/>
    <use xlink:href="#SegoeUI-6f" transform="translate(1373.224609 0)"/>
    <use xlink:href="#SegoeUI-77" transform="translate(1431.818359 0)"/>
    <use xlink:href="#SegoeUI-20" transform="translate(1504.083984 0)"/>
    <use xlink:href="#SegoeUI-62" transform="translate(1531.476562 0)"/>
    <use xlink:href="#SegoeUI-79" transform="translate(1590.265625 0)"/>
    <use xlink:href="#SegoeUI-20" transform="translate(1638.654297 0)"/>
    <use xlink:href="#SegoeUI-6c" transform="translate(1666.046875 0)"/>
    <use xlink:href="#SegoeUI-61" transform="translate(1690.265625 0)"/>
    <use xlink:href="#SegoeUI-67" transform="translate(1741.144531 0)"/>
    <use xlink:href="#SegoeUI-67" transform="translate(1800.03125 0)"/>
    <use xlink:href="#SegoeUI-65" transform="translate(1858.917969 0)"/>
    <use xlink:href="#SegoeUI-64" transform="translate(1911.212891 0)"/>
    <use xlink:href="#SegoeUI-20" transform="translate(1970.099609 0)"/>
    <use xlink:href="#SegoeUI-6d" transform="translate(1997.492188 0)"/>
    <use xlink:href="#SegoeUI-61" transform="translate(2083.625 0)"/>
    <use xlink:href="#SegoeUI-72" transform="translate(2134.503906 0)"/>
    <use xlink:href="#SegoeUI-6b" transform="translate(2169.269531 0)"/>
    <use xlink:href="#SegoeUI-65" transform="translate(2216.976562 0)"/>
    <use xlink:href="#SegoeUI-74" transform="translate(2269.271484 0)"/>
    <use xlink:href="#SegoeUI-20" transform="translate(2303.158203 0)"/>
    <use xlink:href="#SegoeUI-63" transform="translate(2330.550781 0)"/>
    <use xlink:href="#SegoeUI-61" transform="translate(2376.742188 0)"/>
    <use xlink:href="#SegoeUI-70" transform="translate(2427.621094 0)"/>
    <use xlink:href="#SegoeUI-3b" transform="translate(2486.410156 0)"/>
    <use xlink:href="#SegoeUI-20" transform="translate(2508.089844 0)"/>
    <use xlink:href="#SegoeUI-50" transform="translate(2535.482422 0)"/>
    <use xlink:href="#SegoeUI-61" transform="translate(2588.238281 0)"/>
    <use xlink:href="#SegoeUI-6e" transform="translate(2639.117188 0)"/>
    <use xlink:href="#SegoeUI-65" transform="translate(2695.708984 0)"/>
    <use xlink:href="#SegoeUI-6c" transform="translate(2748.003906 0)"/>
    <use xlink:href="#SegoeUI-20" transform="translate(2772.222656 0)"/>
    <use xlink:href="#SegoeUI-42" transform="translate(2799.615234 0)"/>
    <use xlink:href="#SegoeUI-20" transform="translate(2856.939453 0)"/>
    <use xlink:href="#SegoeUI-63" transform="translate(2884.332031 0)"/>
    <use xlink:href="#SegoeUI-6f" transform="translate(2930.523438 0)"/>
    <use xlink:href="#SegoeUI-6d" transform="translate(2989.117188 0)"/>
    <use xlink:href="#SegoeUI-70" transform="translate(3075.25 0)"/>
    <use xlink:href="#SegoeUI-61" transform="translate(3132.664062 0)"/>
    <use xlink:href="#SegoeUI-72" transform="translate(3183.542969 0)"/>
    <use xlink:href="#SegoeUI-65" transform="translate(3216.933594 0)"/>
    <use xlink:href="#SegoeUI-73" transform="translate(3269.228516 0)"/>
    <use xlink:href="#SegoeUI-20" transform="translate(3311.660156 0)"/>
    <use xlink:href="#SegoeUI-6c" transform="translate(3339.052734 0)"/>
    <use xlink:href="#SegoeUI-61" transform="translate(3363.271484 0)"/>
    <use xlink:href="#SegoeUI-67" transform="translate(3414.150391 0)"/>
    <use xlink:href="#SegoeUI-2d" transform="translate(3473.037109 0)"/>
    <use xlink:href="#SegoeUI-30" transform="translate(3513.027344 0)"/>
    <use xlink:href="#SegoeUI-20" transform="translate(3566.933594 0)"/>
    <use xlink:href="#SegoeUI-61" transform="translate(3594.326172 0)"/>
    <use xlink:href="#SegoeUI-6e" transform="translate(3645.205078 0)"/>
    <use xlink:href="#SegoeUI-64" transform="translate(3701.796875 0)"/>
    <use xlink:href="#SegoeUI-20" transform="translate(3760.683594 0)"/>
    <use xlink:href="#SegoeUI-6c" transform="translate(3788.076172 0)"/>
    <use xlink:href="#SegoeUI-61" transform="translate(3812.294922 0)"/>
    <use xlink:href="#SegoeUI-67" transform="translate(3863.173828 0)"/>
    <use xlink:href="#SegoeUI-2d" transform="translate(3922.060547 0)"/>
    <use xlink:href="#SegoeUI-31" transform="translate(3962.050781 0)"/>
    <use xlink:href="#SegoeUI-20" transform="translate(4015.957031 0)"/>
    <use xlink:href="#SegoeUI-72" transform="translate(4043.349609 0)"/>
    <use xlink:href="#SegoeUI-65" transform="translate(4076.740234 0)"/>
    <use xlink:href="#SegoeUI-74" transform="translate(4129.035156 0)"/>
    <use xlink:href="#SegoeUI-75" transform="translate(4162.921875 0)"/>
    <use xlink:href="#SegoeUI-72" transform="translate(4219.513672 0)"/>
    <use xlink:href="#SegoeUI-6e" transform="translate(4254.029297 0)"/>
    <use xlink:href="#SegoeUI-20" transform="translate(4310.621094 0)"/>
    <use xlink:href="#SegoeUI-63" transform="translate(4338.013672 0)"/>
    <use xlink:href="#SegoeUI-6f" transform="translate(4384.205078 0)"/>
    <use xlink:href="#SegoeUI-72" transform="translate(4442.798828 0)"/>
    <use xlink:href="#SegoeUI-72" transform="translate(4477.564453 0)"/>
    <use xlink:href="#SegoeUI-65" transform="translate(4510.955078 0)"/>
    <use xlink:href="#SegoeUI-6c" transform="translate(4563.25 0)"/>
    <use xlink:href="#SegoeUI-61" transform="translate(4587.46875 0)"/>
    <use xlink:href="#SegoeUI-74" transform="translate(4638.347656 0)"/>
    <use xlink:href="#SegoeUI-69" transform="translate(4672.234375 0)"/>
    <use xlink:href="#SegoeUI-6f" transform="translate(4696.453125 0)"/>
    <use xlink:href="#SegoeUI-6e" transform="translate(4755.046875 0)"/>
    <use xlink:href="#SegoeUI-73" transform="translate(4811.638672 0)"/>
    <use xlink:href="#SegoeUI-2e" transform="translate(4854.070312 0)"/>
   </g>
  </g>
 </g>
 <defs>
  <clipPath id="p8dee1b3752">
   <rect x="47.669375" y="91.44" width="409.5" height="267.84"/>
  </clipPath>
  <clipPath id="p1d566598cf">
   <rect x="555.449375" y="91.44" width="409.5" height="267.84"/>
  </clipPath>
 </defs>
</svg>
