<?xml version="1.0" encoding="utf-8" standalone="no"?>
<!DOCTYPE svg PUBLIC "-//W3C//DTD SVG 1.1//EN"
  "http://www.w3.org/Graphics/SVG/1.1/DTD/svg11.dtd">
<svg xmlns:xlink="http://www.w3.org/1999/xlink" width="714.474844pt" height="411.874152pt" viewBox="0 0 714.474844 411.874152" xmlns="http://www.w3.org/2000/svg" version="1.1">
 <metadata>
  <rdf:RDF xmlns:dc="http://purl.org/dc/elements/1.1/" xmlns:cc="http://creativecommons.org/ns#" xmlns:rdf="http://www.w3.org/1999/02/22-rdf-syntax-ns#">
   <cc:Work>
    <dc:type rdf:resource="http://purl.org/dc/dcmitype/StillImage"/>
    <dc:format>image/svg+xml</dc:format>
    <dc:creator>
     <cc:Agent>
      <dc:title>Matplotlib v3.10.8, https://matplotlib.org/</dc:title>
     </cc:Agent>
    </dc:creator>
   </cc:Work>
  </rdf:RDF>
 </metadata>
 <defs>
  <style type="text/css">*{stroke-linejoin: round; stroke-linecap: butt}</style>
 </defs>
 <g id="figure_1">
  <g id="patch_1">
   <path d="M 0 411.874152
L 714.474844 411.874152
L 714.474844 0
L 0 0
z
" style="fill: #ffffff"/>
  </g>
  <g id="axes_1">
   <g id="patch_2">
    <path d="M 48.764844 191.027831
L 707.274844 191.027831
L 707.274844 22.318125
L 48.764844 22.318125
z
" style="fill: #ffffff"/>
   </g>
   <g id="matplotlib.axis_1">
    <g id="xtick_1">
     <g id="line2d_1">
      <path d="M 131.359698 191.027831
L 131.359698 22.318125
" clip-path="url(#pcf19ca3110)" style="fill: none; stroke: #b0b0b0; stroke-opacity: 0.22; stroke-width: 0.8; stroke-linecap: square"/>
     </g>
     <g id="line2d_2">
      <defs>
       <path id="m350de26a5e" d="M 0 0
L 0 3.5
" style="stroke: #000000; stroke-width: 0.8"/>
      </defs>
      <g>
       <use xlink:href="#m350de26a5e" x="131.359698" y="191.027831" style="stroke: #000000; stroke-width: 0.8"/>
      </g>
     </g>
    </g>
    <g id="xtick_2">
     <g id="line2d_3">
      <path d="M 235.261548 191.027831
L 235.261548 22.318125
" clip-path="url(#pcf19ca3110)" style="fill: none; stroke: #b0b0b0; stroke-opacity: 0.22; stroke-width: 0.8; stroke-linecap: square"/>
     </g>
     <g id="line2d_4">
      <g>
       <use xlink:href="#m350de26a5e" x="235.261548" y="191.027831" style="stroke: #000000; stroke-width: 0.8"/>
      </g>
     </g>
    </g>
    <g id="xtick_3">
     <g id="line2d_5">
      <path d="M 339.163398 191.027831
L 339.163398 22.318125
" clip-path="url(#pcf19ca3110)" style="fill: none; stroke: #b0b0b0; stroke-opacity: 0.22; stroke-width: 0.8; stroke-linecap: square"/>
     </g>
     <g id="line2d_6">
      <g>
       <use xlink:href="#m350de26a5e" x="339.163398" y="191.027831" style="stroke: #000000; stroke-width: 0.8"/>
      </g>
     </g>
    </g>
    <g id="xtick_4">
     <g id="line2d_7">
      <path d="M 443.065249 191.027831
L 443.065249 22.318125
" clip-path="url(#pcf19ca3110)" style="fill: none; stroke: #b0b0b0; stroke-opacity: 0.22; stroke-width: 0.8; stroke-linecap: square"/>
     </g>
     <g id="line2d_8">
      <g>
       <use xlink:href="#m350de26a5e" x="443.065249" y="191.027831" style="stroke: #000000; stroke-width: 0.8"/>
      </g>
     </g>
    </g>
    <g id="xtick_5">
     <g id="line2d_9">
      <path d="M 547.251761 191.027831
L 547.251761 22.318125
" clip-path="url(#pcf19ca3110)" style="fill: none; stroke: #b0b0b0; stroke-opacity: 0.22; stroke-width: 0.8; stroke-linecap: square"/>
     </g>
     <g id="line2d_10">
      <g>
       <use xlink:href="#m350de26a5e" x="547.251761" y="191.027831" style="stroke: #000000; stroke-width: 0.8"/>
      </g>
     </g>
    </g>
    <g id="xtick_6">
     <g id="line2d_11">
      <path d="M 651.153612 191.027831
L 651.153612 22.318125
" clip-path="url(#pcf19ca3110)" style="fill: none; stroke: #b0b0b0; stroke-opacity: 0.22; stroke-width: 0.8; stroke-linecap: square"/>
     </g>
     <g id="line2d_12">
      <g>
       <use xlink:href="#m350de26a5e" x="651.153612" y="191.027831" style="stroke: #000000; stroke-width: 0.8"/>
      </g>
     </g>
    </g>
   </g>
   <g id="matplotlib.axis_2">
    <g id="ytick_1">
     <g id="line2d_13">
      <path d="M 48.764844 189.402623
L 707.274844 189.402623
" clip-path="url(#pcf19ca3110)" style="fill: none; stroke: #b0b0b0; stroke-opacity: 0.22; stroke-width: 0.8; stroke-linecap: square"/>
     </g>
     <g id="line2d_14">
      <defs>
       <path id="m65d1b3578f" d="M 0 0
L -3.5 0
" style="stroke: #000000; stroke-width: 0.8"/>
      </defs>
      <g>
       <use xlink:href="#m65d1b3578f" x="48.764844" y="189.402623" style="stroke: #000000; stroke-width: 0.8"/>
      </g>
     </g>
     <g id="text_1">
      <!-- −3 -->
      <g transform="translate(28.496875 192.821919) scale(0.09 -0.09)">
       <defs>
        <path id="DejaVuSans-2212" d="M 678 2272
L 4684 2272
L 4684 1741
L 678 1741
L 678 2272
z
" transform="scale(0.015625)"/>
        <path id="DejaVuSans-33" d="M 2597 2516
Q 3050 2419 3304 2112
Q 3559 1806 3559 1356
Q 3559 666 3084 287
Q 2609 -91 1734 -91
Q 1441 -91 1130 -33
Q 819 25 488 141
L 488 750
Q 750 597 1062 519
Q 1375 441 1716 441
Q 2309 441 2620 675
Q 2931 909 2931 1356
Q 2931 1769 2642 2001
Q 2353 2234 1838 2234
L 1294 2234
L 1294 2753
L 1863 2753
Q 2328 2753 2575 2939
Q 2822 3125 2822 3475
Q 2822 3834 2567 4026
Q 2313 4219 1838 4219
Q 1578 4219 1281 4162
Q 984 4106 628 3988
L 628 4550
Q 988 4650 1302 4700
Q 1616 4750 1894 4750
Q 2613 4750 3031 4423
Q 3450 4097 3450 3541
Q 3450 3153 3228 2886
Q 3006 2619 2597 2516
z
" transform="scale(0.015625)"/>
       </defs>
       <use xlink:href="#DejaVuSans-2212"/>
       <use xlink:href="#DejaVuSans-33" transform="translate(83.789062 0)"/>
      </g>
     </g>
    </g>
    <g id="ytick_2">
     <g id="line2d_15">
      <path d="M 48.764844 152.032334
L 707.274844 152.032334
" clip-path="url(#pcf19ca3110)" style="fill: none; stroke: #b0b0b0; stroke-opacity: 0.22; stroke-width: 0.8; stroke-linecap: square"/>
     </g>
     <g id="line2d_16">
      <g>
       <use xlink:href="#m65d1b3578f" x="48.764844" y="152.032334" style="stroke: #000000; stroke-width: 0.8"/>
      </g>
     </g>
     <g id="text_2">
      <!-- −2 -->
      <g transform="translate(28.496875 155.451631) scale(0.09 -0.09)">
       <defs>
        <path id="DejaVuSans-32" d="M 1228 531
L 3431 531
L 3431 0
L 469 0
L 469 531
Q 828 903 1448 1529
Q 2069 2156 2228 2338
Q 2531 2678 2651 2914
Q 2772 3150 2772 3378
Q 2772 3750 2511 3984
Q 2250 4219 1831 4219
Q 1534 4219 1204 4116
Q 875 4013 500 3803
L 500 4441
Q 881 4594 1212 4672
Q 1544 4750 1819 4750
Q 2544 4750 2975 4387
Q 3406 4025 3406 3419
Q 3406 3131 3298 2873
Q 3191 2616 2906 2266
Q 2828 2175 2409 1742
Q 1991 1309 1228 531
z
" transform="scale(0.015625)"/>
       </defs>
       <use xlink:href="#DejaVuSans-2212"/>
       <use xlink:href="#DejaVuSans-32" transform="translate(83.789062 0)"/>
      </g>
     </g>
    </g>
    <g id="ytick_3">
     <g id="line2d_17">
      <path d="M 48.764844 114.662046
L 707.274844 114.662046
" clip-path="url(#pcf19ca3110)" style="fill: none; stroke: #b0b0b0; stroke-opacity: 0.22; stroke-width: 0.8; stroke-linecap: square"/>
     </g>
     <g id="line2d_18">
      <g>
       <use xlink:href="#m65d1b3578f" x="48.764844" y="114.662046" style="stroke: #000000; stroke-width: 0.8"/>
      </g>
     </g>
     <g id="text_3">
      <!-- −1 -->
      <g transform="translate(28.496875 118.081343) scale(0.09 -0.09)">
       <defs>
        <path id="DejaVuSans-31" d="M 794 531
L 1825 531
L 1825 4091
L 703 3866
L 703 4441
L 1819 4666
L 2450 4666
L 2450 531
L 3481 531
L 3481 0
L 794 0
L 794 531
z
" transform="scale(0.015625)"/>
       </defs>
       <use xlink:href="#DejaVuSans-2212"/>
       <use xlink:href="#DejaVuSans-31" transform="translate(83.789062 0)"/>
      </g>
     </g>
    </g>
    <g id="ytick_4">
     <g id="line2d_19">
      <path d="M 48.764844 77.291758
L 707.274844 77.291758
" clip-path="url(#pcf19ca3110)" style="fill: none; stroke: #b0b0b0; stroke-opacity: 0.22; stroke-width: 0.8; stroke-linecap: square"/>
     </g>
     <g id="line2d_20">
      <g>
       <use xlink:href="#m65d1b3578f" x="48.764844" y="77.291758" style="stroke: #000000; stroke-width: 0.8"/>
      </g>
     </g>
     <g id="text_4">
      <!-- 0 -->
      <g transform="translate(36.038594 80.711055) scale(0.09 -0.09)">
       <defs>
        <path id="DejaVuSans-30" d="M 2034 4250
Q 1547 4250 1301 3770
Q 1056 3291 1056 2328
Q 1056 1369 1301 889
Q 1547 409 2034 409
Q 2525 409 2770 889
Q 3016 1369 3016 2328
Q 3016 3291 2770 3770
Q 2525 4250 2034 4250
z
M 2034 4750
Q 2819 4750 3233 4129
Q 3647 3509 3647 2328
Q 3647 1150 3233 529
Q 2819 -91 2034 -91
Q 1250 -91 836 529
Q 422 1150 422 2328
Q 422 3509 836 4129
Q 1250 4750 2034 4750
z
" transform="scale(0.015625)"/>
       </defs>
       <use xlink:href="#DejaVuSans-30"/>
      </g>
     </g>
    </g>
    <g id="ytick_5">
     <g id="line2d_21">
      <path d="M 48.764844 39.92147
L 707.274844 39.92147
" clip-path="url(#pcf19ca3110)" style="fill: none; stroke: #b0b0b0; stroke-opacity: 0.22; stroke-width: 0.8; stroke-linecap: square"/>
     </g>
     <g id="line2d_22">
      <g>
       <use xlink:href="#m65d1b3578f" x="48.764844" y="39.92147" style="stroke: #000000; stroke-width: 0.8"/>
      </g>
     </g>
     <g id="text_5">
      <!-- 1 -->
      <g transform="translate(36.038594 43.340767) scale(0.09 -0.09)">
       <use xlink:href="#DejaVuSans-31"/>
      </g>
     </g>
    </g>
    <g id="text_6">
     <!-- Beta, 365d -->
     <g transform="translate(22.625156 131.357587) rotate(-90) scale(0.09 -0.09)">
      <defs>
       <path id="DejaVuSans-42" d="M 1259 2228
L 1259 519
L 2272 519
Q 2781 519 3026 730
Q 3272 941 3272 1375
Q 3272 1813 3026 2020
Q 2781 2228 2272 2228
L 1259 2228
z
M 1259 4147
L 1259 2741
L 2194 2741
Q 2656 2741 2882 2914
Q 3109 3088 3109 3444
Q 3109 3797 2882 3972
Q 2656 4147 2194 4147
L 1259 4147
z
M 628 4666
L 2241 4666
Q 2963 4666 3353 4366
Q 3744 4066 3744 3513
Q 3744 3084 3544 2831
Q 3344 2578 2956 2516
Q 3422 2416 3680 2098
Q 3938 1781 3938 1306
Q 3938 681 3513 340
Q 3088 0 2303 0
L 628 0
L 628 4666
z
" transform="scale(0.015625)"/>
       <path id="DejaVuSans-65" d="M 3597 1894
L 3597 1613
L 953 1613
Q 991 1019 1311 708
Q 1631 397 2203 397
Q 2534 397 2845 478
Q 3156 559 3463 722
L 3463 178
Q 3153 47 2828 -22
Q 2503 -91 2169 -91
Q 1331 -91 842 396
Q 353 884 353 1716
Q 353 2575 817 3079
Q 1281 3584 2069 3584
Q 2775 3584 3186 3129
Q 3597 2675 3597 1894
z
M 3022 2063
Q 3016 2534 2758 2815
Q 2500 3097 2075 3097
Q 1594 3097 1305 2825
Q 1016 2553 972 2059
L 3022 2063
z
" transform="scale(0.015625)"/>
       <path id="DejaVuSans-74" d="M 1172 4494
L 1172 3500
L 2356 3500
L 2356 3053
L 1172 3053
L 1172 1153
Q 1172 725 1289 603
Q 1406 481 1766 481
L 2356 481
L 2356 0
L 1766 0
Q 1100 0 847 248
Q 594 497 594 1153
L 594 3053
L 172 3053
L 172 3500
L 594 3500
L 594 4494
L 1172 4494
z
" transform="scale(0.015625)"/>
       <path id="DejaVuSans-61" d="M 2194 1759
Q 1497 1759 1228 1600
Q 959 1441 959 1056
Q 959 750 1161 570
Q 1363 391 1709 391
Q 2188 391 2477 730
Q 2766 1069 2766 1631
L 2766 1759
L 2194 1759
z
M 3341 1997
L 3341 0
L 2766 0
L 2766 531
Q 2569 213 2275 61
Q 1981 -91 1556 -91
Q 1019 -91 701 211
Q 384 513 384 1019
Q 384 1609 779 1909
Q 1175 2209 1959 2209
L 2766 2209
L 2766 2266
Q 2766 2663 2505 2880
Q 2244 3097 1772 3097
Q 1472 3097 1187 3025
Q 903 2953 641 2809
L 641 3341
Q 956 3463 1253 3523
Q 1550 3584 1831 3584
Q 2591 3584 2966 3190
Q 3341 2797 3341 1997
z
" transform="scale(0.015625)"/>
       <path id="DejaVuSans-2c" d="M 750 794
L 1409 794
L 1409 256
L 897 -744
L 494 -744
L 750 256
L 750 794
z
" transform="scale(0.015625)"/>
       <path id="DejaVuSans-20" transform="scale(0.015625)"/>
       <path id="DejaVuSans-36" d="M 2113 2584
Q 1688 2584 1439 2293
Q 1191 2003 1191 1497
Q 1191 994 1439 701
Q 1688 409 2113 409
Q 2538 409 2786 701
Q 3034 994 3034 1497
Q 3034 2003 2786 2293
Q 2538 2584 2113 2584
z
M 3366 4563
L 3366 3988
Q 3128 4100 2886 4159
Q 2644 4219 2406 4219
Q 1781 4219 1451 3797
Q 1122 3375 1075 2522
Q 1259 2794 1537 2939
Q 1816 3084 2150 3084
Q 2853 3084 3261 2657
Q 3669 2231 3669 1497
Q 3669 778 3244 343
Q 2819 -91 2113 -91
Q 1303 -91 875 529
Q 447 1150 447 2328
Q 447 3434 972 4092
Q 1497 4750 2381 4750
Q 2619 4750 2861 4703
Q 3103 4656 3366 4563
z
" transform="scale(0.015625)"/>
       <path id="DejaVuSans-35" d="M 691 4666
L 3169 4666
L 3169 4134
L 1269 4134
L 1269 2991
Q 1406 3038 1543 3061
Q 1681 3084 1819 3084
Q 2600 3084 3056 2656
Q 3513 2228 3513 1497
Q 3513 744 3044 326
Q 2575 -91 1722 -91
Q 1428 -91 1123 -41
Q 819 9 494 109
L 494 744
Q 775 591 1075 516
Q 1375 441 1709 441
Q 2250 441 2565 725
Q 2881 1009 2881 1497
Q 2881 1984 2565 2268
Q 2250 2553 1709 2553
Q 1456 2553 1204 2497
Q 953 2441 691 2322
L 691 4666
z
" transform="scale(0.015625)"/>
       <path id="DejaVuSans-64" d="M 2906 2969
L 2906 4863
L 3481 4863
L 3481 0
L 2906 0
L 2906 525
Q 2725 213 2448 61
Q 2172 -91 1784 -91
Q 1150 -91 751 415
Q 353 922 353 1747
Q 353 2572 751 3078
Q 1150 3584 1784 3584
Q 2172 3584 2448 3432
Q 2725 3281 2906 2969
z
M 947 1747
Q 947 1113 1208 752
Q 1469 391 1925 391
Q 2381 391 2643 752
Q 2906 1113 2906 1747
Q 2906 2381 2643 2742
Q 2381 3103 1925 3103
Q 1469 3103 1208 2742
Q 947 2381 947 1747
z
" transform="scale(0.015625)"/>
      </defs>
      <use xlink:href="#DejaVuSans-42"/>
      <use xlink:href="#DejaVuSans-65" transform="translate(68.603516 0)"/>
      <use xlink:href="#DejaVuSans-74" transform="translate(130.126953 0)"/>
      <use xlink:href="#DejaVuSans-61" transform="translate(169.335938 0)"/>
      <use xlink:href="#DejaVuSans-2c" transform="translate(230.615234 0)"/>
      <use xlink:href="#DejaVuSans-20" transform="translate(262.402344 0)"/>
      <use xlink:href="#DejaVuSans-33" transform="translate(294.189453 0)"/>
      <use xlink:href="#DejaVuSans-36" transform="translate(357.8125 0)"/>
      <use xlink:href="#DejaVuSans-35" transform="translate(421.435547 0)"/>
      <use xlink:href="#DejaVuSans-64" transform="translate(485.058594 0)"/>
     </g>
    </g>
   </g>
   <g id="line2d_23">
    <path d="M 131.359698 161.384372
L 135.344975 158.940264
L 139.330251 160.14219
L 143.315527 162.207285
L 147.300804 163.810419
L 151.28608 183.359208
L 155.271357 151.14503
L 159.256633 139.330582
L 163.24191 129.599177
L 167.227186 121.291582
L 171.212463 100.748279
L 175.197739 100.681371
L 179.183015 108.852464
L 183.168292 99.607375
L 187.153568 104.53189
L 191.138845 106.71059
L 199.109398 95.016774
L 203.094674 102.300207
L 207.079951 103.145728
L 211.065227 108.76359
L 215.050503 106.983995
L 219.03578 96.982122
L 223.021056 93.302644
L 227.006333 83.486243
L 230.991609 79.696965
L 234.976886 77.648248
L 238.962162 80.164406
L 242.947439 74.717852
L 246.932715 64.756478
L 250.917991 65.275097
L 254.903268 88.281487
L 258.888544 84.086152
L 262.873821 86.860928
L 266.859097 93.385818
L 270.844374 81.17104
L 274.82965 91.284129
L 278.814927 87.468444
L 282.800203 102.321462
L 286.785479 108.236841
L 290.770756 103.776266
L 294.756032 107.230841
L 298.741309 104.949446
L 302.726585 103.979067
L 306.711862 102.195704
L 310.697138 89.438297
L 314.682415 88.159494
L 318.667691 88.725304
L 322.652967 92.720352
L 326.638244 100.070422
L 330.62352 108.158699
L 334.608797 109.250785
L 338.594073 110.129798
L 342.57935 111.930554
L 346.564626 114.275512
L 350.549903 116.265745
L 354.535179 112.458333
L 358.520455 106.697491
L 366.491008 106.206876
L 370.476285 104.171342
L 374.461561 108.253467
L 378.446838 108.98471
L 382.432114 111.736481
L 386.417391 103.879637
L 390.402667 97.819378
L 394.387943 97.665422
L 398.37322 94.613659
L 402.358496 95.482541
L 406.343773 94.689747
L 410.329049 98.641217
L 414.314326 101.589845
L 418.299602 107.375052
L 422.284879 108.4559
L 426.270155 103.619422
L 430.255431 85.27423
L 434.240708 79.387852
L 438.225984 78.722725
L 442.211261 76.121801
L 446.196537 75.638582
L 450.181814 71.866913
L 454.16709 69.685409
L 458.152367 75.767448
L 462.137643 73.630931
L 466.122919 58.729257
L 470.108196 56.459563
L 474.093472 64.089032
L 478.078749 58.503905
L 482.064025 53.55224
L 486.049302 55.817429
L 490.034578 56.767147
L 494.019855 55.238676
L 498.005131 56.2235
L 501.990407 56.980581
L 505.975684 58.833751
L 509.96096 58.312301
L 513.946237 51.315164
L 517.931513 51.527086
L 521.91679 54.983282
L 525.902066 52.884552
L 529.887343 59.038672
L 533.872619 52.195781
L 537.857895 53.414347
L 541.843172 49.495345
L 545.828448 57.555379
L 549.813725 57.020069
L 553.799001 51.349314
L 557.784278 47.453445
L 561.769554 46.442988
L 565.754831 61.850705
L 569.740107 67.758565
L 573.725383 65.990713
L 577.71066 73.402594
L 581.695936 73.696854
L 585.681213 75.476538
L 589.666489 76.93213
L 593.651766 79.419108
L 597.637042 79.980722
L 601.622319 79.490707
L 605.607595 78.745416
L 609.592871 76.191988
L 613.578148 73.209266
L 617.563424 73.488781
L 621.548701 73.206541
L 625.533977 70.951697
L 629.519254 68.853439
L 633.50453 70.156873
L 637.489807 80.268982
L 641.475083 80.218541
L 645.460359 82.71179
L 649.445636 75.953209
L 653.430912 75.243892
L 657.416189 76.412021
L 665.386742 86.73766
L 669.372018 79.710059
L 673.357295 80.771616
L 677.342571 84.944385
L 677.342571 84.944385
" clip-path="url(#pcf19ca3110)" style="fill: none; stroke: #1f77b4; stroke-width: 1.4; stroke-linecap: square"/>
   </g>
   <g id="line2d_24">
    <path d="M 131.359698 42.732933
L 135.344975 41.7567
L 139.330251 41.624749
L 143.315527 41.149612
L 147.300804 40.436947
L 151.28608 35.512153
L 155.271357 49.217511
L 159.256633 49.365894
L 163.24191 48.842032
L 167.227186 49.71667
L 171.212463 44.134199
L 175.197739 43.057851
L 179.183015 44.169448
L 183.168292 43.73446
L 187.153568 43.153119
L 191.138845 42.923562
L 195.124121 43.53555
L 199.109398 42.013787
L 203.094674 43.218613
L 207.079951 39.252064
L 211.065227 36.301729
L 215.050503 35.464214
L 219.03578 31.557803
L 223.021056 33.915126
L 227.006333 31.700059
L 230.991609 30.56558
L 234.976886 31.22634
L 238.962162 32.381945
L 242.947439 29.986748
L 246.932715 34.615866
L 250.917991 34.56857
L 254.903268 32.268334
L 258.888544 33.565042
L 262.873821 33.580262
L 266.859097 32.951859
L 270.844374 33.731749
L 274.82965 33.555649
L 278.814927 38.57316
L 282.800203 33.662895
L 286.785479 34.387347
L 290.770756 34.106229
L 294.756032 34.0678
L 298.741309 34.702465
L 302.726585 34.679282
L 306.711862 34.522711
L 310.697138 33.879744
L 314.682415 34.812215
L 318.667691 35.930177
L 322.652967 37.378244
L 326.638244 35.797138
L 330.62352 35.819102
L 334.608797 36.200953
L 338.594073 36.779647
L 342.57935 37.161679
L 346.564626 37.232186
L 350.549903 36.470008
L 354.535179 36.84681
L 358.520455 37.498512
L 362.505732 36.297213
L 366.491008 36.371239
L 370.476285 36.819534
L 374.461561 36.854988
L 378.446838 39.983543
L 382.432114 38.303072
L 386.417391 41.39343
L 390.402667 43.496948
L 394.387943 44.175215
L 398.37322 45.065404
L 402.358496 44.924339
L 410.329049 46.198148
L 414.314326 51.125469
L 422.284879 49.85777
L 426.270155 49.965213
L 430.255431 56.606831
L 438.225984 58.683106
L 442.211261 60.368619
L 446.196537 59.043713
L 450.181814 61.969215
L 454.16709 62.095281
L 458.152367 64.486459
L 462.137643 62.426178
L 466.122919 65.802929
L 470.108196 67.811612
L 474.093472 66.739348
L 478.078749 65.442757
L 482.064025 63.394769
L 486.049302 61.766734
L 490.034578 61.140405
L 494.019855 58.362189
L 498.005131 58.633798
L 501.990407 60.063161
L 505.975684 53.448005
L 509.96096 55.114603
L 513.946237 54.823882
L 517.931513 52.402257
L 521.91679 51.659616
L 525.902066 52.006289
L 529.887343 49.479485
L 533.872619 45.107891
L 537.857895 47.783683
L 541.843172 45.22214
L 545.828448 42.312013
L 549.813725 42.092269
L 553.799001 41.216924
L 557.784278 43.107044
L 561.769554 43.863399
L 565.754831 41.791557
L 569.740107 40.926881
L 573.725383 44.201765
L 577.71066 47.863174
L 581.695936 48.239492
L 585.681213 50.118697
L 589.666489 50.870779
L 593.651766 50.488441
L 597.637042 50.545058
L 601.622319 50.048675
L 605.607595 49.303136
L 609.592871 49.945785
L 613.578148 51.030277
L 617.563424 51.074895
L 621.548701 51.570944
L 625.533977 51.821677
L 629.519254 50.452604
L 633.50453 50.848543
L 637.489807 51.461561
L 641.475083 49.942373
L 645.460359 50.547406
L 649.445636 51.537256
L 653.430912 52.273651
L 657.416189 52.322906
L 661.401465 48.65898
L 665.386742 47.110506
L 669.372018 46.799306
L 673.357295 46.275526
L 677.342571 46.1425
L 677.342571 46.1425
" clip-path="url(#pcf19ca3110)" style="fill: none; stroke: #ff7f0e; stroke-width: 1.4; stroke-linecap: square"/>
   </g>
   <g id="line2d_25">
    <path d="M 131.359698 80.11425
L 135.344975 79.675593
L 143.315527 80.044773
L 155.271357 80.349445
L 159.256633 79.05817
L 163.24191 80.452263
L 167.227186 81.231433
L 171.212463 82.308827
L 175.197739 81.11734
L 187.153568 81.448368
L 191.138845 81.772928
L 195.124121 80.785765
L 199.109398 81.05052
L 203.094674 81.029661
L 207.079951 80.758477
L 211.065227 81.827962
L 215.050503 81.105157
L 219.03578 80.028905
L 223.021056 79.736345
L 227.006333 78.460795
L 230.991609 77.717818
L 234.976886 77.625018
L 238.962162 78.799271
L 242.947439 78.034955
L 246.932715 77.110149
L 250.917991 77.197387
L 254.903268 77.616921
L 258.888544 76.959788
L 262.873821 77.345985
L 266.859097 77.118789
L 270.844374 77.793414
L 274.82965 76.061364
L 278.814927 76.563386
L 282.800203 79.255738
L 286.785479 79.134389
L 290.770756 78.693777
L 294.756032 78.912531
L 298.741309 78.989965
L 302.726585 79.233046
L 306.711862 79.044228
L 310.697138 78.67194
L 314.682415 78.475275
L 318.667691 78.513128
L 322.652967 78.731415
L 326.638244 79.409525
L 330.62352 79.751978
L 338.594073 80.025009
L 346.564626 79.980244
L 354.535179 80.551048
L 358.520455 80.07045
L 362.505732 80.395561
L 370.476285 80.503445
L 374.461561 80.519331
L 378.446838 80.736997
L 382.432114 80.746035
L 386.417391 79.653549
L 390.402667 79.59795
L 394.387943 79.89169
L 402.358496 79.783799
L 406.343773 79.618485
L 414.314326 79.766437
L 418.299602 80.389017
L 422.284879 80.074525
L 426.270155 80.053739
L 430.255431 78.635749
L 434.240708 78.501923
L 438.225984 78.733484
L 450.181814 78.595174
L 458.152367 78.285143
L 466.122919 78.550731
L 470.108196 78.427864
L 474.093472 78.006233
L 478.078749 77.915077
L 482.064025 78.411422
L 486.049302 78.408361
L 490.034578 78.544264
L 498.005131 78.429
L 501.990407 78.237352
L 505.975684 77.833336
L 513.946237 77.701438
L 517.931513 77.741968
L 521.91679 77.291929
L 529.887343 77.667966
L 533.872619 78.474494
L 541.843172 77.970212
L 545.828448 78.502971
L 549.813725 78.478131
L 553.799001 79.321154
L 557.784278 79.353419
L 561.769554 79.125332
L 565.754831 78.088239
L 569.740107 77.557865
L 573.725383 77.533764
L 577.71066 78.027717
L 581.695936 77.927223
L 585.681213 76.932658
L 589.666489 76.541202
L 593.651766 75.987549
L 597.637042 75.870693
L 601.622319 75.990488
L 609.592871 76.633298
L 613.578148 76.783385
L 621.548701 76.665383
L 625.533977 76.905103
L 633.50453 76.241503
L 637.489807 76.097944
L 641.475083 76.46188
L 645.460359 76.561179
L 649.445636 75.724929
L 657.416189 75.893667
L 661.401465 74.977936
L 665.386742 75.28091
L 669.372018 76.107872
L 673.357295 76.545045
L 677.342571 77.253778
L 677.342571 77.253778
" clip-path="url(#pcf19ca3110)" style="fill: none; stroke: #2ca02c; stroke-width: 1.4; stroke-linecap: square"/>
   </g>
   <g id="line2d_26">
    <path d="M 131.359698 77.551984
L 199.109398 77.556983
L 238.962162 77.558209
L 250.917991 77.583577
L 262.873821 77.569527
L 318.667691 77.619637
L 418.299602 77.544881
L 474.093472 77.480235
L 498.005131 77.549145
L 513.946237 77.490319
L 569.740107 77.509969
L 609.592871 77.440523
L 677.342571 77.461031
L 677.342571 77.461031
" clip-path="url(#pcf19ca3110)" style="fill: none; stroke: #d62728; stroke-width: 1.4; stroke-linecap: square"/>
   </g>
   <g id="line2d_27">
    <path d="M 48.764844 77.291758
L 707.274844 77.291758
" clip-path="url(#pcf19ca3110)" style="fill: none; stroke: #404040; stroke-width: 0.8; stroke-linecap: square"/>
   </g>
   <g id="patch_3">
    <path d="M 48.764844 191.027831
L 48.764844 22.318125
" style="fill: none; stroke: #000000; stroke-width: 0.8; stroke-linejoin: miter; stroke-linecap: square"/>
   </g>
   <g id="patch_4">
    <path d="M 48.764844 191.027831
L 707.274844 191.027831
" style="fill: none; stroke: #000000; stroke-width: 0.8; stroke-linejoin: miter; stroke-linecap: square"/>
   </g>
   <g id="text_7">
    <!-- Rolling BTC TradFi Beta -->
    <g transform="translate(309.245781 16.318125) scale(0.12 -0.12)">
     <defs>
      <path id="DejaVuSans-52" d="M 2841 2188
Q 3044 2119 3236 1894
Q 3428 1669 3622 1275
L 4263 0
L 3584 0
L 2988 1197
Q 2756 1666 2539 1819
Q 2322 1972 1947 1972
L 1259 1972
L 1259 0
L 628 0
L 628 4666
L 2053 4666
Q 2853 4666 3247 4331
Q 3641 3997 3641 3322
Q 3641 2881 3436 2590
Q 3231 2300 2841 2188
z
M 1259 4147
L 1259 2491
L 2053 2491
Q 2509 2491 2742 2702
Q 2975 2913 2975 3322
Q 2975 3731 2742 3939
Q 2509 4147 2053 4147
L 1259 4147
z
" transform="scale(0.015625)"/>
      <path id="DejaVuSans-6f" d="M 1959 3097
Q 1497 3097 1228 2736
Q 959 2375 959 1747
Q 959 1119 1226 758
Q 1494 397 1959 397
Q 2419 397 2687 759
Q 2956 1122 2956 1747
Q 2956 2369 2687 2733
Q 2419 3097 1959 3097
z
M 1959 3584
Q 2709 3584 3137 3096
Q 3566 2609 3566 1747
Q 3566 888 3137 398
Q 2709 -91 1959 -91
Q 1206 -91 779 398
Q 353 888 353 1747
Q 353 2609 779 3096
Q 1206 3584 1959 3584
z
" transform="scale(0.015625)"/>
      <path id="DejaVuSans-6c" d="M 603 4863
L 1178 4863
L 1178 0
L 603 0
L 603 4863
z
" transform="scale(0.015625)"/>
      <path id="DejaVuSans-69" d="M 603 3500
L 1178 3500
L 1178 0
L 603 0
L 603 3500
z
M 603 4863
L 1178 4863
L 1178 4134
L 603 4134
L 603 4863
z
" transform="scale(0.015625)"/>
      <path id="DejaVuSans-6e" d="M 3513 2113
L 3513 0
L 2938 0
L 2938 2094
Q 2938 2591 2744 2837
Q 2550 3084 2163 3084
Q 1697 3084 1428 2787
Q 1159 2491 1159 1978
L 1159 0
L 581 0
L 581 3500
L 1159 3500
L 1159 2956
Q 1366 3272 1645 3428
Q 1925 3584 2291 3584
Q 2894 3584 3203 3211
Q 3513 2838 3513 2113
z
" transform="scale(0.015625)"/>
      <path id="DejaVuSans-67" d="M 2906 1791
Q 2906 2416 2648 2759
Q 2391 3103 1925 3103
Q 1463 3103 1205 2759
Q 947 2416 947 1791
Q 947 1169 1205 825
Q 1463 481 1925 481
Q 2391 481 2648 825
Q 2906 1169 2906 1791
z
M 3481 434
Q 3481 -459 3084 -895
Q 2688 -1331 1869 -1331
Q 1566 -1331 1297 -1286
Q 1028 -1241 775 -1147
L 775 -588
Q 1028 -725 1275 -790
Q 1522 -856 1778 -856
Q 2344 -856 2625 -561
Q 2906 -266 2906 331
L 2906 616
Q 2728 306 2450 153
Q 2172 0 1784 0
Q 1141 0 747 490
Q 353 981 353 1791
Q 353 2603 747 3093
Q 1141 3584 1784 3584
Q 2172 3584 2450 3431
Q 2728 3278 2906 2969
L 2906 3500
L 3481 3500
L 3481 434
z
" transform="scale(0.015625)"/>
      <path id="DejaVuSans-54" d="M -19 4666
L 3928 4666
L 3928 4134
L 2272 4134
L 2272 0
L 1638 0
L 1638 4134
L -19 4134
L -19 4666
z
" transform="scale(0.015625)"/>
      <path id="DejaVuSans-43" d="M 4122 4306
L 4122 3641
Q 3803 3938 3442 4084
Q 3081 4231 2675 4231
Q 1875 4231 1450 3742
Q 1025 3253 1025 2328
Q 1025 1406 1450 917
Q 1875 428 2675 428
Q 3081 428 3442 575
Q 3803 722 4122 1019
L 4122 359
Q 3791 134 3420 21
Q 3050 -91 2638 -91
Q 1578 -91 968 557
Q 359 1206 359 2328
Q 359 3453 968 4101
Q 1578 4750 2638 4750
Q 3056 4750 3426 4639
Q 3797 4528 4122 4306
z
" transform="scale(0.015625)"/>
      <path id="DejaVuSans-72" d="M 2631 2963
Q 2534 3019 2420 3045
Q 2306 3072 2169 3072
Q 1681 3072 1420 2755
Q 1159 2438 1159 1844
L 1159 0
L 581 0
L 581 3500
L 1159 3500
L 1159 2956
Q 1341 3275 1631 3429
Q 1922 3584 2338 3584
Q 2397 3584 2469 3576
Q 2541 3569 2628 3553
L 2631 2963
z
" transform="scale(0.015625)"/>
      <path id="DejaVuSans-46" d="M 628 4666
L 3309 4666
L 3309 4134
L 1259 4134
L 1259 2759
L 3109 2759
L 3109 2228
L 1259 2228
L 1259 0
L 628 0
L 628 4666
z
" transform="scale(0.015625)"/>
     </defs>
     <use xlink:href="#DejaVuSans-52"/>
     <use xlink:href="#DejaVuSans-6f" transform="translate(64.982422 0)"/>
     <use xlink:href="#DejaVuSans-6c" transform="translate(126.164062 0)"/>
     <use xlink:href="#DejaVuSans-6c" transform="translate(153.947266 0)"/>
     <use xlink:href="#DejaVuSans-69" transform="translate(181.730469 0)"/>
     <use xlink:href="#DejaVuSans-6e" transform="translate(209.513672 0)"/>
     <use xlink:href="#DejaVuSans-67" transform="translate(272.892578 0)"/>
     <use xlink:href="#DejaVuSans-20" transform="translate(336.369141 0)"/>
     <use xlink:href="#DejaVuSans-42" transform="translate(368.15625 0)"/>
     <use xlink:href="#DejaVuSans-54" transform="translate(436.759766 0)"/>
     <use xlink:href="#DejaVuSans-43" transform="translate(491.96875 0)"/>
     <use xlink:href="#DejaVuSans-20" transform="translate(561.792969 0)"/>
     <use xlink:href="#DejaVuSans-54" transform="translate(593.580078 0)"/>
     <use xlink:href="#DejaVuSans-72" transform="translate(639.914062 0)"/>
     <use xlink:href="#DejaVuSans-61" transform="translate(681.027344 0)"/>
     <use xlink:href="#DejaVuSans-64" transform="translate(742.306641 0)"/>
     <use xlink:href="#DejaVuSans-46" transform="translate(805.783203 0)"/>
     <use xlink:href="#DejaVuSans-69" transform="translate(856.052734 0)"/>
     <use xlink:href="#DejaVuSans-20" transform="translate(883.835938 0)"/>
     <use xlink:href="#DejaVuSans-42" transform="translate(915.623047 0)"/>
     <use xlink:href="#DejaVuSans-65" transform="translate(984.226562 0)"/>
     <use xlink:href="#DejaVuSans-74" transform="translate(1045.75 0)"/>
     <use xlink:href="#DejaVuSans-61" transform="translate(1084.958984 0)"/>
    </g>
   </g>
  </g>
  <g id="axes_2">
   <g id="patch_5">
    <path d="M 48.764844 388.963839
L 707.274844 388.963839
L 707.274844 220.254133
L 48.764844 220.254133
z
" style="fill: #ffffff"/>
   </g>
   <g id="matplotlib.axis_3">
    <g id="xtick_7">
     <g id="line2d_28">
      <path d="M 131.359698 388.963839
L 131.359698 220.254133
" clip-path="url(#pb5e55a6c08)" style="fill: none; stroke: #b0b0b0; stroke-opacity: 0.22; stroke-width: 0.8; stroke-linecap: square"/>
     </g>
     <g id="line2d_29">
      <g>
       <use xlink:href="#m350de26a5e" x="131.359698" y="388.963839" style="stroke: #000000; stroke-width: 0.8"/>
      </g>
     </g>
     <g id="text_8">
      <!-- 2021 -->
      <g transform="translate(119.907198 402.802433) scale(0.09 -0.09)">
       <use xlink:href="#DejaVuSans-32"/>
       <use xlink:href="#DejaVuSans-30" transform="translate(63.623047 0)"/>
       <use xlink:href="#DejaVuSans-32" transform="translate(127.246094 0)"/>
       <use xlink:href="#DejaVuSans-31" transform="translate(190.869141 0)"/>
      </g>
     </g>
    </g>
    <g id="xtick_8">
     <g id="line2d_30">
      <path d="M 235.261548 388.963839
L 235.261548 220.254133
" clip-path="url(#pb5e55a6c08)" style="fill: none; stroke: #b0b0b0; stroke-opacity: 0.22; stroke-width: 0.8; stroke-linecap: square"/>
     </g>
     <g id="line2d_31">
      <g>
       <use xlink:href="#m350de26a5e" x="235.261548" y="388.963839" style="stroke: #000000; stroke-width: 0.8"/>
      </g>
     </g>
     <g id="text_9">
      <!-- 2022 -->
      <g transform="translate(223.809048 402.802433) scale(0.09 -0.09)">
       <use xlink:href="#DejaVuSans-32"/>
       <use xlink:href="#DejaVuSans-30" transform="translate(63.623047 0)"/>
       <use xlink:href="#DejaVuSans-32" transform="translate(127.246094 0)"/>
       <use xlink:href="#DejaVuSans-32" transform="translate(190.869141 0)"/>
      </g>
     </g>
    </g>
    <g id="xtick_9">
     <g id="line2d_32">
      <path d="M 339.163398 388.963839
L 339.163398 220.254133
" clip-path="url(#pb5e55a6c08)" style="fill: none; stroke: #b0b0b0; stroke-opacity: 0.22; stroke-width: 0.8; stroke-linecap: square"/>
     </g>
     <g id="line2d_33">
      <g>
       <use xlink:href="#m350de26a5e" x="339.163398" y="388.963839" style="stroke: #000000; stroke-width: 0.8"/>
      </g>
     </g>
     <g id="text_10">
      <!-- 2023 -->
      <g transform="translate(327.710898 402.802433) scale(0.09 -0.09)">
       <use xlink:href="#DejaVuSans-32"/>
       <use xlink:href="#DejaVuSans-30" transform="translate(63.623047 0)"/>
       <use xlink:href="#DejaVuSans-32" transform="translate(127.246094 0)"/>
       <use xlink:href="#DejaVuSans-33" transform="translate(190.869141 0)"/>
      </g>
     </g>
    </g>
    <g id="xtick_10">
     <g id="line2d_34">
      <path d="M 443.065249 388.963839
L 443.065249 220.254133
" clip-path="url(#pb5e55a6c08)" style="fill: none; stroke: #b0b0b0; stroke-opacity: 0.22; stroke-width: 0.8; stroke-linecap: square"/>
     </g>
     <g id="line2d_35">
      <g>
       <use xlink:href="#m350de26a5e" x="443.065249" y="388.963839" style="stroke: #000000; stroke-width: 0.8"/>
      </g>
     </g>
     <g id="text_11">
      <!-- 2024 -->
      <g transform="translate(431.612749 402.802433) scale(0.09 -0.09)">
       <defs>
        <path id="DejaVuSans-34" d="M 2419 4116
L 825 1625
L 2419 1625
L 2419 4116
z
M 2253 4666
L 3047 4666
L 3047 1625
L 3713 1625
L 3713 1100
L 3047 1100
L 3047 0
L 2419 0
L 2419 1100
L 313 1100
L 313 1709
L 2253 4666
z
" transform="scale(0.015625)"/>
       </defs>
       <use xlink:href="#DejaVuSans-32"/>
       <use xlink:href="#DejaVuSans-30" transform="translate(63.623047 0)"/>
       <use xlink:href="#DejaVuSans-32" transform="translate(127.246094 0)"/>
       <use xlink:href="#DejaVuSans-34" transform="translate(190.869141 0)"/>
      </g>
     </g>
    </g>
    <g id="xtick_11">
     <g id="line2d_36">
      <path d="M 547.251761 388.963839
L 547.251761 220.254133
" clip-path="url(#pb5e55a6c08)" style="fill: none; stroke: #b0b0b0; stroke-opacity: 0.22; stroke-width: 0.8; stroke-linecap: square"/>
     </g>
     <g id="line2d_37">
      <g>
       <use xlink:href="#m350de26a5e" x="547.251761" y="388.963839" style="stroke: #000000; stroke-width: 0.8"/>
      </g>
     </g>
     <g id="text_12">
      <!-- 2025 -->
      <g transform="translate(535.799261 402.802433) scale(0.09 -0.09)">
       <use xlink:href="#DejaVuSans-32"/>
       <use xlink:href="#DejaVuSans-30" transform="translate(63.623047 0)"/>
       <use xlink:href="#DejaVuSans-32" transform="translate(127.246094 0)"/>
       <use xlink:href="#DejaVuSans-35" transform="translate(190.869141 0)"/>
      </g>
     </g>
    </g>
    <g id="xtick_12">
     <g id="line2d_38">
      <path d="M 651.153612 388.963839
L 651.153612 220.254133
" clip-path="url(#pb5e55a6c08)" style="fill: none; stroke: #b0b0b0; stroke-opacity: 0.22; stroke-width: 0.8; stroke-linecap: square"/>
     </g>
     <g id="line2d_39">
      <g>
       <use xlink:href="#m350de26a5e" x="651.153612" y="388.963839" style="stroke: #000000; stroke-width: 0.8"/>
      </g>
     </g>
     <g id="text_13">
      <!-- 2026 -->
      <g transform="translate(639.701112 402.802433) scale(0.09 -0.09)">
       <use xlink:href="#DejaVuSans-32"/>
       <use xlink:href="#DejaVuSans-30" transform="translate(63.623047 0)"/>
       <use xlink:href="#DejaVuSans-32" transform="translate(127.246094 0)"/>
       <use xlink:href="#DejaVuSans-36" transform="translate(190.869141 0)"/>
      </g>
     </g>
    </g>
   </g>
   <g id="matplotlib.axis_4">
    <g id="ytick_6">
     <g id="line2d_40">
      <path d="M 48.764844 379.048612
L 707.274844 379.048612
" clip-path="url(#pb5e55a6c08)" style="fill: none; stroke: #b0b0b0; stroke-opacity: 0.22; stroke-width: 0.8; stroke-linecap: square"/>
     </g>
     <g id="line2d_41">
      <g>
       <use xlink:href="#m65d1b3578f" x="48.764844" y="379.048612" style="stroke: #000000; stroke-width: 0.8"/>
      </g>
     </g>
     <g id="text_14">
      <!-- −0.6 -->
      <g transform="translate(19.910313 382.467909) scale(0.09 -0.09)">
       <defs>
        <path id="DejaVuSans-2e" d="M 684 794
L 1344 794
L 1344 0
L 684 0
L 684 794
z
" transform="scale(0.015625)"/>
       </defs>
       <use xlink:href="#DejaVuSans-2212"/>
       <use xlink:href="#DejaVuSans-30" transform="translate(83.789062 0)"/>
       <use xlink:href="#DejaVuSans-2e" transform="translate(147.412109 0)"/>
       <use xlink:href="#DejaVuSans-36" transform="translate(179.199219 0)"/>
      </g>
     </g>
    </g>
    <g id="ytick_7">
     <g id="line2d_42">
      <path d="M 48.764844 354.019494
L 707.274844 354.019494
" clip-path="url(#pb5e55a6c08)" style="fill: none; stroke: #b0b0b0; stroke-opacity: 0.22; stroke-width: 0.8; stroke-linecap: square"/>
     </g>
     <g id="line2d_43">
      <g>
       <use xlink:href="#m65d1b3578f" x="48.764844" y="354.019494" style="stroke: #000000; stroke-width: 0.8"/>
      </g>
     </g>
     <g id="text_15">
      <!-- −0.4 -->
      <g transform="translate(19.910313 357.438791) scale(0.09 -0.09)">
       <use xlink:href="#DejaVuSans-2212"/>
       <use xlink:href="#DejaVuSans-30" transform="translate(83.789062 0)"/>
       <use xlink:href="#DejaVuSans-2e" transform="translate(147.412109 0)"/>
       <use xlink:href="#DejaVuSans-34" transform="translate(179.199219 0)"/>
      </g>
     </g>
    </g>
    <g id="ytick_8">
     <g id="line2d_44">
      <path d="M 48.764844 328.990376
L 707.274844 328.990376
" clip-path="url(#pb5e55a6c08)" style="fill: none; stroke: #b0b0b0; stroke-opacity: 0.22; stroke-width: 0.8; stroke-linecap: square"/>
     </g>
     <g id="line2d_45">
      <g>
       <use xlink:href="#m65d1b3578f" x="48.764844" y="328.990376" style="stroke: #000000; stroke-width: 0.8"/>
      </g>
     </g>
     <g id="text_16">
      <!-- −0.2 -->
      <g transform="translate(19.910313 332.409673) scale(0.09 -0.09)">
       <use xlink:href="#DejaVuSans-2212"/>
       <use xlink:href="#DejaVuSans-30" transform="translate(83.789062 0)"/>
       <use xlink:href="#DejaVuSans-2e" transform="translate(147.412109 0)"/>
       <use xlink:href="#DejaVuSans-32" transform="translate(179.199219 0)"/>
      </g>
     </g>
    </g>
    <g id="ytick_9">
     <g id="line2d_46">
      <path d="M 48.764844 303.961258
L 707.274844 303.961258
" clip-path="url(#pb5e55a6c08)" style="fill: none; stroke: #b0b0b0; stroke-opacity: 0.22; stroke-width: 0.8; stroke-linecap: square"/>
     </g>
     <g id="line2d_47">
      <g>
       <use xlink:href="#m65d1b3578f" x="48.764844" y="303.961258" style="stroke: #000000; stroke-width: 0.8"/>
      </g>
     </g>
     <g id="text_17">
      <!-- 0.0 -->
      <g transform="translate(27.452031 307.380555) scale(0.09 -0.09)">
       <use xlink:href="#DejaVuSans-30"/>
       <use xlink:href="#DejaVuSans-2e" transform="translate(63.623047 0)"/>
       <use xlink:href="#DejaVuSans-30" transform="translate(95.410156 0)"/>
      </g>
     </g>
    </g>
    <g id="ytick_10">
     <g id="line2d_48">
      <path d="M 48.764844 278.93214
L 707.274844 278.93214
" clip-path="url(#pb5e55a6c08)" style="fill: none; stroke: #b0b0b0; stroke-opacity: 0.22; stroke-width: 0.8; stroke-linecap: square"/>
     </g>
     <g id="line2d_49">
      <g>
       <use xlink:href="#m65d1b3578f" x="48.764844" y="278.93214" style="stroke: #000000; stroke-width: 0.8"/>
      </g>
     </g>
     <g id="text_18">
      <!-- 0.2 -->
      <g transform="translate(27.452031 282.351437) scale(0.09 -0.09)">
       <use xlink:href="#DejaVuSans-30"/>
       <use xlink:href="#DejaVuSans-2e" transform="translate(63.623047 0)"/>
       <use xlink:href="#DejaVuSans-32" transform="translate(95.410156 0)"/>
      </g>
     </g>
    </g>
    <g id="ytick_11">
     <g id="line2d_50">
      <path d="M 48.764844 253.903022
L 707.274844 253.903022
" clip-path="url(#pb5e55a6c08)" style="fill: none; stroke: #b0b0b0; stroke-opacity: 0.22; stroke-width: 0.8; stroke-linecap: square"/>
     </g>
     <g id="line2d_51">
      <g>
       <use xlink:href="#m65d1b3578f" x="48.764844" y="253.903022" style="stroke: #000000; stroke-width: 0.8"/>
      </g>
     </g>
     <g id="text_19">
      <!-- 0.4 -->
      <g transform="translate(27.452031 257.322319) scale(0.09 -0.09)">
       <use xlink:href="#DejaVuSans-30"/>
       <use xlink:href="#DejaVuSans-2e" transform="translate(63.623047 0)"/>
       <use xlink:href="#DejaVuSans-34" transform="translate(95.410156 0)"/>
      </g>
     </g>
    </g>
    <g id="ytick_12">
     <g id="line2d_52">
      <path d="M 48.764844 228.873904
L 707.274844 228.873904
" clip-path="url(#pb5e55a6c08)" style="fill: none; stroke: #b0b0b0; stroke-opacity: 0.22; stroke-width: 0.8; stroke-linecap: square"/>
     </g>
     <g id="line2d_53">
      <g>
       <use xlink:href="#m65d1b3578f" x="48.764844" y="228.873904" style="stroke: #000000; stroke-width: 0.8"/>
      </g>
     </g>
     <g id="text_20">
      <!-- 0.6 -->
      <g transform="translate(27.452031 232.293201) scale(0.09 -0.09)">
       <use xlink:href="#DejaVuSans-30"/>
       <use xlink:href="#DejaVuSans-2e" transform="translate(63.623047 0)"/>
       <use xlink:href="#DejaVuSans-36" transform="translate(95.410156 0)"/>
      </g>
     </g>
    </g>
    <g id="text_21">
     <!-- Correlation, 180d -->
     <g transform="translate(14.038594 343.727346) rotate(-90) scale(0.09 -0.09)">
      <defs>
       <path id="DejaVuSans-38" d="M 2034 2216
Q 1584 2216 1326 1975
Q 1069 1734 1069 1313
Q 1069 891 1326 650
Q 1584 409 2034 409
Q 2484 409 2743 651
Q 3003 894 3003 1313
Q 3003 1734 2745 1975
Q 2488 2216 2034 2216
z
M 1403 2484
Q 997 2584 770 2862
Q 544 3141 544 3541
Q 544 4100 942 4425
Q 1341 4750 2034 4750
Q 2731 4750 3128 4425
Q 3525 4100 3525 3541
Q 3525 3141 3298 2862
Q 3072 2584 2669 2484
Q 3125 2378 3379 2068
Q 3634 1759 3634 1313
Q 3634 634 3220 271
Q 2806 -91 2034 -91
Q 1263 -91 848 271
Q 434 634 434 1313
Q 434 1759 690 2068
Q 947 2378 1403 2484
z
M 1172 3481
Q 1172 3119 1398 2916
Q 1625 2713 2034 2713
Q 2441 2713 2670 2916
Q 2900 3119 2900 3481
Q 2900 3844 2670 4047
Q 2441 4250 2034 4250
Q 1625 4250 1398 4047
Q 1172 3844 1172 3481
z
" transform="scale(0.015625)"/>
      </defs>
      <use xlink:href="#DejaVuSans-43"/>
      <use xlink:href="#DejaVuSans-6f" transform="translate(69.824219 0)"/>
      <use xlink:href="#DejaVuSans-72" transform="translate(131.005859 0)"/>
      <use xlink:href="#DejaVuSans-72" transform="translate(170.369141 0)"/>
      <use xlink:href="#DejaVuSans-65" transform="translate(209.232422 0)"/>
      <use xlink:href="#DejaVuSans-6c" transform="translate(270.755859 0)"/>
      <use xlink:href="#DejaVuSans-61" transform="translate(298.539062 0)"/>
      <use xlink:href="#DejaVuSans-74" transform="translate(359.818359 0)"/>
      <use xlink:href="#DejaVuSans-69" transform="translate(399.027344 0)"/>
      <use xlink:href="#DejaVuSans-6f" transform="translate(426.810547 0)"/>
      <use xlink:href="#DejaVuSans-6e" transform="translate(487.992188 0)"/>
      <use xlink:href="#DejaVuSans-2c" transform="translate(551.371094 0)"/>
      <use xlink:href="#DejaVuSans-20" transform="translate(583.158203 0)"/>
      <use xlink:href="#DejaVuSans-31" transform="translate(614.945312 0)"/>
      <use xlink:href="#DejaVuSans-38" transform="translate(678.568359 0)"/>
      <use xlink:href="#DejaVuSans-30" transform="translate(742.191406 0)"/>
      <use xlink:href="#DejaVuSans-64" transform="translate(805.814453 0)"/>
     </g>
    </g>
   </g>
   <g id="line2d_54">
    <path d="M 78.697116 333.940362
L 82.682393 333.638006
L 86.667669 333.609305
L 90.652946 334.678546
L 94.638222 335.930062
L 98.623499 339.701725
L 102.608775 334.511239
L 106.594052 328.040249
L 110.579328 326.198693
L 114.564604 319.074909
L 118.549881 320.247907
L 122.535157 317.940958
L 126.520434 314.910863
L 130.50571 311.460736
L 134.490987 314.728277
L 138.476263 309.546139
L 142.46154 313.629086
L 146.446816 309.751957
L 150.432092 315.137151
L 154.417369 317.74579
L 158.402645 319.139139
L 162.387922 316.85773
L 166.373198 314.389577
L 170.358475 308.530365
L 174.343751 307.085745
L 178.329028 307.992504
L 182.314304 307.721774
L 186.29958 308.542217
L 190.284857 308.662144
L 194.270133 306.047685
L 198.25541 305.63116
L 202.240686 301.94317
L 206.225963 297.759616
L 210.211239 303.29162
L 214.196516 302.599507
L 218.181792 297.71775
L 222.167068 308.914521
L 226.152345 303.863278
L 230.137621 297.067036
L 234.122898 299.28699
L 242.093451 295.214959
L 246.078727 294.770936
L 250.064004 297.465594
L 254.04928 302.832271
L 258.034556 311.170489
L 262.019833 309.7035
L 266.005109 312.142329
L 269.990386 316.149887
L 273.975662 310.86529
L 277.960939 312.902082
L 281.946215 316.071738
L 285.931492 321.621618
L 289.916768 320.064715
L 293.902045 323.574384
L 297.887321 326.110436
L 301.872597 322.504307
L 305.857874 316.436484
L 309.84315 309.38277
L 313.828427 308.16614
L 317.813703 306.257642
L 321.79898 310.220673
L 325.784256 319.138206
L 329.769533 323.728099
L 333.754809 319.979658
L 337.740085 318.770556
L 341.725362 322.408405
L 345.710638 321.800414
L 349.695915 323.940174
L 353.681191 320.694852
L 357.666468 323.14279
L 361.651744 326.751365
L 365.637021 331.463364
L 369.622297 330.432803
L 373.607573 329.246108
L 377.59285 324.812432
L 381.578126 318.056051
L 385.563403 316.782338
L 389.548679 311.067278
L 393.533956 308.286961
L 397.519232 301.925296
L 401.504509 298.027866
L 405.489785 302.144649
L 409.475061 304.084078
L 413.460338 296.243087
L 417.445614 297.123149
L 421.430891 300.338868
L 425.416167 292.980784
L 433.38672 287.945431
L 437.371997 288.627113
L 441.357273 292.321391
L 445.342549 298.235121
L 449.327826 300.570515
L 453.313102 302.650359
L 457.298379 305.40364
L 461.283655 298.765575
L 465.268932 299.389422
L 469.254208 293.825607
L 473.239485 295.039873
L 477.224761 299.17734
L 481.210037 302.736277
L 485.195314 299.753335
L 489.18059 299.477294
L 493.165867 296.642925
L 497.151143 291.78999
L 501.13642 291.503239
L 505.121696 290.531108
L 509.106973 290.966632
L 513.092249 289.1797
L 517.077525 295.658242
L 521.062802 298.510114
L 525.048078 294.473632
L 529.033355 297.034228
L 533.018631 287.990222
L 537.003908 286.890247
L 540.989184 290.313444
L 544.974461 297.839472
L 548.959737 298.082156
L 552.945013 295.95943
L 556.93029 297.262116
L 560.915566 293.402282
L 564.900843 302.748251
L 568.886119 303.418967
L 572.871396 301.577177
L 576.856672 307.900768
L 580.841949 304.322863
L 584.827225 314.414153
L 588.812501 314.581643
L 592.797778 317.225727
L 596.783054 312.076113
L 600.768331 311.31307
L 604.753607 312.673379
L 608.738884 311.34167
L 612.72416 309.861454
L 616.709437 297.315908
L 620.694713 300.551819
L 624.679989 302.197831
L 628.665266 285.673058
L 636.635819 289.88289
L 640.621095 288.099512
L 644.606372 288.905484
L 648.591648 285.19687
L 652.576925 285.303406
L 656.562201 286.819948
L 660.547477 290.772165
L 664.532754 306.743452
L 668.51803 311.358775
L 672.503307 312.87757
L 676.488583 312.818913
L 676.488583 312.818913
" clip-path="url(#pb5e55a6c08)" style="fill: none; stroke: #1f77b4; stroke-width: 1.2; stroke-linecap: square"/>
   </g>
   <g id="line2d_55">
    <path d="M 78.697116 247.873859
L 82.682393 246.165705
L 86.667669 246.071812
L 90.652946 245.525462
L 94.638222 244.544275
L 98.623499 237.490866
L 102.608775 255.974093
L 106.594052 262.590447
L 110.579328 263.908963
L 114.564604 266.945459
L 118.549881 256.893027
L 122.535157 257.838885
L 126.520434 265.764974
L 130.50571 267.54377
L 134.490987 267.508979
L 138.476263 273.919362
L 142.46154 274.024297
L 146.446816 272.187249
L 150.432092 275.325231
L 154.417369 276.542233
L 158.402645 273.655187
L 162.387922 272.194249
L 166.373198 273.675581
L 174.343751 265.937621
L 178.329028 268.62929
L 186.29958 271.822055
L 190.284857 268.62799
L 194.270133 270.430813
L 198.25541 269.6584
L 202.240686 271.734782
L 206.225963 266.210342
L 210.211239 267.171506
L 214.196516 266.831297
L 218.181792 266.198751
L 222.167068 274.068363
L 226.152345 280.639745
L 230.137621 270.654661
L 234.122898 268.07092
L 238.108174 264.605859
L 242.093451 258.160097
L 246.078727 261.563977
L 250.064004 257.363942
L 254.04928 256.889779
L 258.034556 257.143343
L 262.019833 256.101171
L 266.005109 250.926102
L 269.990386 247.950832
L 273.975662 237.990528
L 277.960939 241.165125
L 281.946215 236.794726
L 285.931492 236.673017
L 289.916768 237.293811
L 293.902045 238.861382
L 297.887321 235.439333
L 301.872597 235.742976
L 305.857874 233.40182
L 309.84315 227.922756
L 313.828427 230.289814
L 317.813703 231.501857
L 321.79898 234.229073
L 325.784256 240.763573
L 329.769533 233.680766
L 333.754809 236.934359
L 337.740085 237.175954
L 341.725362 237.229992
L 345.710638 236.507412
L 349.695915 236.699665
L 353.681191 237.89495
L 357.666468 242.142444
L 361.651744 252.612643
L 365.637021 250.254678
L 369.622297 251.364287
L 373.607573 251.295053
L 377.59285 258.454928
L 381.578126 265.01984
L 385.563403 267.090136
L 389.548679 274.959443
L 393.533956 275.369125
L 397.519232 280.039291
L 401.504509 281.605023
L 405.489785 282.901066
L 409.475061 276.474154
L 413.460338 285.08088
L 417.445614 288.134336
L 421.430891 285.554123
L 425.416167 289.3527
L 429.401444 290.732446
L 433.38672 291.192637
L 437.371997 293.460331
L 441.357273 290.897808
L 445.342549 285.068433
L 449.327826 289.694679
L 453.313102 289.863629
L 457.298379 291.632687
L 461.283655 301.271804
L 465.268932 295.588897
L 469.254208 297.398929
L 473.239485 296.873938
L 477.224761 295.849184
L 481.210037 285.599552
L 485.195314 282.997783
L 489.18059 280.112308
L 493.165867 277.001785
L 497.151143 280.963085
L 501.13642 280.446355
L 505.121696 276.152237
L 509.106973 271.132723
L 513.092249 267.031028
L 517.077525 260.24696
L 521.062802 258.843864
L 525.048078 255.694504
L 529.033355 255.975305
L 533.018631 255.355505
L 537.003908 259.386415
L 540.989184 258.732275
L 548.959737 249.888646
L 552.945013 244.478408
L 560.915566 255.844939
L 564.900843 255.576381
L 568.886119 256.239398
L 572.871396 254.642488
L 576.856672 253.701349
L 580.841949 255.065149
L 584.827225 257.558366
L 588.812501 254.375183
L 592.797778 256.392707
L 596.783054 259.237763
L 600.768331 260.328661
L 604.753607 260.722854
L 608.738884 257.075051
L 612.72416 256.882274
L 616.709437 254.621536
L 624.679989 258.225578
L 628.665266 261.653972
L 632.650542 259.905602
L 636.635819 250.533551
L 640.621095 243.880835
L 644.606372 244.67357
L 648.591648 244.229232
L 652.576925 245.025992
L 656.562201 246.3442
L 660.547477 245.184647
L 664.532754 239.671825
L 668.51803 240.326502
L 672.503307 238.223048
L 676.488583 236.913835
L 676.488583 236.913835
" clip-path="url(#pb5e55a6c08)" style="fill: none; stroke: #ff7f0e; stroke-width: 1.2; stroke-linecap: square"/>
   </g>
   <g id="line2d_56">
    <path d="M 78.697116 313.865207
L 82.682393 313.133052
L 86.667669 312.680812
L 90.652946 313.775506
L 94.638222 313.724934
L 98.623499 315.074519
L 102.608775 319.10312
L 106.594052 312.669928
L 110.579328 321.58326
L 114.564604 322.697287
L 118.549881 317.27488
L 122.535157 315.641881
L 126.520434 320.321677
L 130.50571 320.602374
L 134.490987 314.314594
L 138.476263 318.541463
L 142.46154 318.461032
L 146.446816 312.075431
L 150.432092 312.189234
L 154.417369 310.471517
L 158.402645 308.205188
L 162.387922 309.449713
L 166.373198 309.756273
L 170.358475 311.158128
L 174.343751 312.71781
L 178.329028 308.748789
L 182.314304 311.715355
L 186.29958 313.409548
L 190.284857 312.937823
L 194.270133 309.741836
L 198.25541 314.399691
L 202.240686 312.969086
L 206.225963 317.114767
L 210.211239 323.078413
L 214.196516 320.732286
L 222.167068 302.004687
L 226.152345 300.827187
L 230.137621 299.064132
L 234.122898 293.135188
L 238.108174 300.619404
L 242.093451 295.636853
L 246.078727 294.943925
L 250.064004 290.415921
L 254.04928 301.387776
L 258.034556 292.823133
L 262.019833 287.705283
L 266.005109 291.396322
L 269.990386 296.347091
L 273.975662 298.079312
L 277.960939 297.666629
L 281.946215 317.842027
L 285.931492 319.987861
L 289.916768 314.551115
L 293.902045 316.58936
L 297.887321 321.904585
L 301.872597 326.443148
L 305.857874 322.375856
L 309.84315 327.233394
L 313.828427 323.724335
L 317.813703 324.626856
L 321.79898 323.934861
L 325.784256 332.686407
L 329.769533 333.884085
L 333.754809 322.584391
L 337.740085 324.005597
L 341.725362 329.310621
L 345.710638 327.077954
L 349.695915 328.187438
L 353.681191 326.567938
L 357.666468 322.805164
L 361.651744 324.97483
L 365.637021 326.745615
L 369.622297 326.465396
L 373.607573 327.19188
L 377.59285 319.190789
L 381.578126 317.560999
L 389.548679 316.086844
L 393.533956 317.251867
L 397.519232 319.119146
L 401.504509 315.54366
L 405.489785 314.257119
L 409.475061 321.189264
L 413.460338 325.95094
L 417.445614 326.400003
L 421.430891 321.753046
L 425.416167 318.201746
L 429.401444 316.136726
L 433.38672 308.491361
L 437.371997 311.498077
L 441.357273 312.701689
L 445.342549 314.735574
L 449.327826 308.150896
L 453.313102 308.62997
L 461.283655 304.585316
L 465.268932 302.922528
L 469.254208 297.454405
L 473.239485 299.616351
L 477.224761 297.705416
L 481.210037 309.563107
L 485.195314 311.873763
L 489.18059 312.211925
L 493.165867 309.605939
L 497.151143 309.132102
L 501.13642 312.114222
L 505.121696 308.058282
L 509.106973 306.042306
L 513.092249 311.96223
L 517.077525 312.162697
L 521.062802 314.594971
L 525.048078 314.418974
L 529.033355 316.781187
L 533.018631 305.87708
L 537.003908 301.32912
L 540.989184 301.973969
L 544.974461 307.64906
L 548.959737 309.856129
L 552.945013 313.547823
L 556.93029 321.779301
L 560.915566 319.420712
L 564.900843 305.7124
L 568.886119 298.416424
L 572.871396 297.112101
L 576.856672 302.218838
L 580.841949 300.672578
L 584.827225 298.385573
L 588.812501 298.33599
L 592.797778 295.188415
L 596.783054 286.161088
L 600.768331 285.443926
L 604.753607 283.716298
L 608.738884 282.459519
L 612.72416 285.248372
L 616.709437 298.562604
L 620.694713 301.270267
L 624.679989 305.197353
L 628.665266 295.894156
L 632.650542 290.638415
L 640.621095 301.536467
L 644.606372 311.743441
L 648.591648 313.694021
L 652.576925 315.343539
L 656.562201 314.473105
L 660.547477 319.202676
L 664.532754 307.69115
L 668.51803 299.465783
L 672.503307 296.409268
L 676.488583 300.197667
L 676.488583 300.197667
" clip-path="url(#pb5e55a6c08)" style="fill: none; stroke: #2ca02c; stroke-width: 1.2; stroke-linecap: square"/>
   </g>
   <g id="line2d_57">
    <path d="M 78.697116 370.149946
L 82.682393 371.426699
L 90.652946 371.37076
L 94.638222 372.474157
L 98.623499 381.295216
L 102.608775 351.73818
L 106.594052 347.542547
L 110.579328 345.433136
L 114.564604 344.876065
L 118.549881 352.418612
L 122.535157 353.956403
L 126.520434 346.298727
L 130.50571 344.250365
L 134.490987 350.22067
L 138.476263 344.806691
L 142.46154 349.352771
L 146.446816 349.215733
L 150.432092 345.413446
L 154.417369 342.485489
L 158.402645 341.726491
L 162.387922 340.639126
L 166.373198 339.153191
L 170.358475 344.283429
L 174.343751 345.075181
L 186.29958 336.361474
L 190.284857 337.219816
L 194.270133 330.612664
L 198.25541 331.935448
L 202.240686 327.839297
L 206.225963 336.184815
L 210.211239 339.660571
L 214.196516 340.383986
L 218.181792 342.165837
L 222.167068 334.656203
L 230.137621 343.479115
L 234.122898 349.486087
L 238.108174 348.990902
L 242.093451 353.75414
L 246.078727 354.869917
L 250.064004 357.512801
L 254.04928 347.506135
L 258.034556 343.395593
L 262.019833 343.161322
L 266.005109 347.729215
L 269.990386 351.975895
L 273.975662 357.887033
L 277.960939 354.997924
L 281.946215 361.683703
L 285.931492 361.245531
L 289.916768 359.833773
L 293.902045 357.485532
L 297.887321 358.00831
L 301.872597 356.513866
L 305.857874 365.615669
L 309.84315 369.950649
L 313.828427 367.841343
L 317.813703 366.624819
L 321.79898 367.189907
L 325.784256 361.131488
L 329.769533 365.683101
L 333.754809 355.755193
L 337.740085 355.159274
L 341.725362 357.161557
L 345.710638 359.755776
L 349.695915 361.041674
L 353.681191 363.184999
L 357.666468 357.004122
L 361.651744 340.406962
L 365.637021 339.807559
L 369.622297 337.56
L 373.607573 334.04155
L 377.59285 327.942063
L 381.578126 326.09335
L 385.563403 324.579241
L 389.548679 323.798176
L 393.533956 323.816671
L 397.519232 318.554279
L 401.504509 315.947234
L 405.489785 312.771971
L 409.475061 315.546765
L 413.460338 316.460544
L 417.445614 322.193723
L 421.430891 327.634238
L 425.416167 332.757688
L 429.401444 330.562571
L 433.38672 329.646697
L 437.371997 331.925537
L 441.357273 326.989702
L 445.342549 330.829181
L 449.327826 327.775551
L 453.313102 326.90824
L 457.298379 324.578051
L 461.283655 319.373342
L 465.268932 320.279201
L 469.254208 316.597631
L 473.239485 318.928454
L 477.224761 316.134033
L 481.210037 321.684663
L 485.195314 322.69468
L 489.18059 321.360568
L 493.165867 323.72644
L 497.151143 323.556472
L 501.13642 321.572187
L 505.121696 336.95463
L 509.106973 340.342057
L 513.092249 343.179487
L 517.077525 349.315642
L 521.062802 349.158862
L 525.048078 351.66252
L 529.033355 352.417059
L 533.018631 355.088033
L 537.003908 352.746109
L 544.974461 354.177214
L 548.959737 356.193238
L 552.945013 358.904536
L 556.93029 348.48801
L 560.915566 345.396823
L 564.900843 346.224027
L 568.886119 346.753903
L 572.871396 348.232787
L 576.856672 347.140035
L 580.841949 346.248182
L 584.827225 343.987008
L 588.812501 346.537021
L 592.797778 346.062302
L 596.783054 343.315248
L 600.768331 343.320509
L 604.753607 342.850091
L 608.738884 346.649339
L 612.72416 346.488882
L 616.709437 348.564824
L 624.679989 346.897833
L 628.665266 345.517416
L 632.650542 346.415921
L 636.635819 353.268178
L 640.621095 354.621948
L 644.606372 353.996089
L 648.591648 355.769833
L 652.576925 354.396609
L 660.547477 351.041611
L 664.532754 363.403165
L 668.51803 360.919999
L 672.503307 365.234268
L 676.488583 366.345678
L 676.488583 366.345678
" clip-path="url(#pb5e55a6c08)" style="fill: none; stroke: #d62728; stroke-width: 1.2; stroke-linecap: square"/>
   </g>
   <g id="line2d_58">
    <path d="M 48.764844 303.961258
L 707.274844 303.961258
" clip-path="url(#pb5e55a6c08)" style="fill: none; stroke: #404040; stroke-width: 0.8; stroke-linecap: square"/>
   </g>
   <g id="patch_6">
    <path d="M 48.764844 388.963839
L 48.764844 220.254133
" style="fill: none; stroke: #000000; stroke-width: 0.8; stroke-linejoin: miter; stroke-linecap: square"/>
   </g>
   <g id="patch_7">
    <path d="M 48.764844 388.963839
L 707.274844 388.963839
" style="fill: none; stroke: #000000; stroke-width: 0.8; stroke-linejoin: miter; stroke-linecap: square"/>
   </g>
   <g id="text_22">
    <!-- Rolling BTC TradFi Correlation -->
    <g transform="translate(290.000781 214.254133) scale(0.12 -0.12)">
     <use xlink:href="#DejaVuSans-52"/>
     <use xlink:href="#DejaVuSans-6f" transform="translate(64.982422 0)"/>
     <use xlink:href="#DejaVuSans-6c" transform="translate(126.164062 0)"/>
     <use xlink:href="#DejaVuSans-6c" transform="translate(153.947266 0)"/>
     <use xlink:href="#DejaVuSans-69" transform="translate(181.730469 0)"/>
     <use xlink:href="#DejaVuSans-6e" transform="translate(209.513672 0)"/>
     <use xlink:href="#DejaVuSans-67" transform="translate(272.892578 0)"/>
     <use xlink:href="#DejaVuSans-20" transform="translate(336.369141 0)"/>
     <use xlink:href="#DejaVuSans-42" transform="translate(368.15625 0)"/>
     <use xlink:href="#DejaVuSans-54" transform="translate(436.759766 0)"/>
     <use xlink:href="#DejaVuSans-43" transform="translate(491.96875 0)"/>
     <use xlink:href="#DejaVuSans-20" transform="translate(561.792969 0)"/>
     <use xlink:href="#DejaVuSans-54" transform="translate(593.580078 0)"/>
     <use xlink:href="#DejaVuSans-72" transform="translate(639.914062 0)"/>
     <use xlink:href="#DejaVuSans-61" transform="translate(681.027344 0)"/>
     <use xlink:href="#DejaVuSans-64" transform="translate(742.306641 0)"/>
     <use xlink:href="#DejaVuSans-46" transform="translate(805.783203 0)"/>
     <use xlink:href="#DejaVuSans-69" transform="translate(856.052734 0)"/>
     <use xlink:href="#DejaVuSans-20" transform="translate(883.835938 0)"/>
     <use xlink:href="#DejaVuSans-43" transform="translate(915.623047 0)"/>
     <use xlink:href="#DejaVuSans-6f" transform="translate(985.447266 0)"/>
     <use xlink:href="#DejaVuSans-72" transform="translate(1046.628906 0)"/>
     <use xlink:href="#DejaVuSans-72" transform="translate(1085.992188 0)"/>
     <use xlink:href="#DejaVuSans-65" transform="translate(1124.855469 0)"/>
     <use xlink:href="#DejaVuSans-6c" transform="translate(1186.378906 0)"/>
     <use xlink:href="#DejaVuSans-61" transform="translate(1214.162109 0)"/>
     <use xlink:href="#DejaVuSans-74" transform="translate(1275.441406 0)"/>
     <use xlink:href="#DejaVuSans-69" transform="translate(1314.650391 0)"/>
     <use xlink:href="#DejaVuSans-6f" transform="translate(1342.433594 0)"/>
     <use xlink:href="#DejaVuSans-6e" transform="translate(1403.615234 0)"/>
    </g>
   </g>
   <g id="legend_1">
    <g id="line2d_59">
     <path d="M 56.864844 232.042727
L 65.864844 232.042727
L 74.864844 232.042727
" style="fill: none; stroke: #1f77b4; stroke-width: 1.2; stroke-linecap: square"/>
    </g>
    <g id="text_23">
     <!-- DXY return -->
     <g transform="translate(82.064844 235.192727) scale(0.09 -0.09)">
      <defs>
       <path id="DejaVuSans-44" d="M 1259 4147
L 1259 519
L 2022 519
Q 2988 519 3436 956
Q 3884 1394 3884 2338
Q 3884 3275 3436 3711
Q 2988 4147 2022 4147
L 1259 4147
z
M 628 4666
L 1925 4666
Q 3281 4666 3915 4102
Q 4550 3538 4550 2338
Q 4550 1131 3912 565
Q 3275 0 1925 0
L 628 0
L 628 4666
z
" transform="scale(0.015625)"/>
       <path id="DejaVuSans-58" d="M 403 4666
L 1081 4666
L 2241 2931
L 3406 4666
L 4084 4666
L 2584 2425
L 4184 0
L 3506 0
L 2194 1984
L 872 0
L 191 0
L 1856 2491
L 403 4666
z
" transform="scale(0.015625)"/>
       <path id="DejaVuSans-59" d="M -13 4666
L 666 4666
L 1959 2747
L 3244 4666
L 3922 4666
L 2272 2222
L 2272 0
L 1638 0
L 1638 2222
L -13 4666
z
" transform="scale(0.015625)"/>
       <path id="DejaVuSans-75" d="M 544 1381
L 544 3500
L 1119 3500
L 1119 1403
Q 1119 906 1312 657
Q 1506 409 1894 409
Q 2359 409 2629 706
Q 2900 1003 2900 1516
L 2900 3500
L 3475 3500
L 3475 0
L 2900 0
L 2900 538
Q 2691 219 2414 64
Q 2138 -91 1772 -91
Q 1169 -91 856 284
Q 544 659 544 1381
z
M 1991 3584
L 1991 3584
z
" transform="scale(0.015625)"/>
      </defs>
      <use xlink:href="#DejaVuSans-44"/>
      <use xlink:href="#DejaVuSans-58" transform="translate(77.001953 0)"/>
      <use xlink:href="#DejaVuSans-59" transform="translate(145.507812 0)"/>
      <use xlink:href="#DejaVuSans-20" transform="translate(206.591797 0)"/>
      <use xlink:href="#DejaVuSans-72" transform="translate(238.378906 0)"/>
      <use xlink:href="#DejaVuSans-65" transform="translate(277.242188 0)"/>
      <use xlink:href="#DejaVuSans-74" transform="translate(338.765625 0)"/>
      <use xlink:href="#DejaVuSans-75" transform="translate(377.974609 0)"/>
      <use xlink:href="#DejaVuSans-72" transform="translate(441.353516 0)"/>
      <use xlink:href="#DejaVuSans-6e" transform="translate(480.716797 0)"/>
     </g>
    </g>
    <g id="line2d_60">
     <path d="M 56.864844 245.25304
L 65.864844 245.25304
L 74.864844 245.25304
" style="fill: none; stroke: #ff7f0e; stroke-width: 1.2; stroke-linecap: square"/>
    </g>
    <g id="text_24">
     <!-- QQQ return -->
     <g transform="translate(82.064844 248.40304) scale(0.09 -0.09)">
      <defs>
       <path id="DejaVuSans-51" d="M 2522 4238
Q 1834 4238 1429 3725
Q 1025 3213 1025 2328
Q 1025 1447 1429 934
Q 1834 422 2522 422
Q 3209 422 3611 934
Q 4013 1447 4013 2328
Q 4013 3213 3611 3725
Q 3209 4238 2522 4238
z
M 3406 84
L 4238 -825
L 3475 -825
L 2784 -78
Q 2681 -84 2626 -87
Q 2572 -91 2522 -91
Q 1538 -91 948 567
Q 359 1225 359 2328
Q 359 3434 948 4092
Q 1538 4750 2522 4750
Q 3503 4750 4090 4092
Q 4678 3434 4678 2328
Q 4678 1516 4351 937
Q 4025 359 3406 84
z
" transform="scale(0.015625)"/>
      </defs>
      <use xlink:href="#DejaVuSans-51"/>
      <use xlink:href="#DejaVuSans-51" transform="translate(78.710938 0)"/>
      <use xlink:href="#DejaVuSans-51" transform="translate(157.421875 0)"/>
      <use xlink:href="#DejaVuSans-20" transform="translate(236.132812 0)"/>
      <use xlink:href="#DejaVuSans-72" transform="translate(267.919922 0)"/>
      <use xlink:href="#DejaVuSans-65" transform="translate(306.783203 0)"/>
      <use xlink:href="#DejaVuSans-74" transform="translate(368.306641 0)"/>
      <use xlink:href="#DejaVuSans-75" transform="translate(407.515625 0)"/>
      <use xlink:href="#DejaVuSans-72" transform="translate(470.894531 0)"/>
      <use xlink:href="#DejaVuSans-6e" transform="translate(510.257812 0)"/>
     </g>
    </g>
    <g id="line2d_61">
     <path d="M 151.6925 232.042727
L 160.6925 232.042727
L 169.6925 232.042727
" style="fill: none; stroke: #2ca02c; stroke-width: 1.2; stroke-linecap: square"/>
    </g>
    <g id="text_25">
     <!-- Real-yield change -->
     <g transform="translate(176.8925 235.192727) scale(0.09 -0.09)">
      <defs>
       <path id="DejaVuSans-2d" d="M 313 2009
L 1997 2009
L 1997 1497
L 313 1497
L 313 2009
z
" transform="scale(0.015625)"/>
       <path id="DejaVuSans-79" d="M 2059 -325
Q 1816 -950 1584 -1140
Q 1353 -1331 966 -1331
L 506 -1331
L 506 -850
L 844 -850
Q 1081 -850 1212 -737
Q 1344 -625 1503 -206
L 1606 56
L 191 3500
L 800 3500
L 1894 763
L 2988 3500
L 3597 3500
L 2059 -325
z
" transform="scale(0.015625)"/>
       <path id="DejaVuSans-63" d="M 3122 3366
L 3122 2828
Q 2878 2963 2633 3030
Q 2388 3097 2138 3097
Q 1578 3097 1268 2742
Q 959 2388 959 1747
Q 959 1106 1268 751
Q 1578 397 2138 397
Q 2388 397 2633 464
Q 2878 531 3122 666
L 3122 134
Q 2881 22 2623 -34
Q 2366 -91 2075 -91
Q 1284 -91 818 406
Q 353 903 353 1747
Q 353 2603 823 3093
Q 1294 3584 2113 3584
Q 2378 3584 2631 3529
Q 2884 3475 3122 3366
z
" transform="scale(0.015625)"/>
       <path id="DejaVuSans-68" d="M 3513 2113
L 3513 0
L 2938 0
L 2938 2094
Q 2938 2591 2744 2837
Q 2550 3084 2163 3084
Q 1697 3084 1428 2787
Q 1159 2491 1159 1978
L 1159 0
L 581 0
L 581 4863
L 1159 4863
L 1159 2956
Q 1366 3272 1645 3428
Q 1925 3584 2291 3584
Q 2894 3584 3203 3211
Q 3513 2838 3513 2113
z
" transform="scale(0.015625)"/>
      </defs>
      <use xlink:href="#DejaVuSans-52"/>
      <use xlink:href="#DejaVuSans-65" transform="translate(64.982422 0)"/>
      <use xlink:href="#DejaVuSans-61" transform="translate(126.505859 0)"/>
      <use xlink:href="#DejaVuSans-6c" transform="translate(187.785156 0)"/>
      <use xlink:href="#DejaVuSans-2d" transform="translate(215.568359 0)"/>
      <use xlink:href="#DejaVuSans-79" transform="translate(249.902344 0)"/>
      <use xlink:href="#DejaVuSans-69" transform="translate(309.082031 0)"/>
      <use xlink:href="#DejaVuSans-65" transform="translate(336.865234 0)"/>
      <use xlink:href="#DejaVuSans-6c" transform="translate(398.388672 0)"/>
      <use xlink:href="#DejaVuSans-64" transform="translate(426.171875 0)"/>
      <use xlink:href="#DejaVuSans-20" transform="translate(489.648438 0)"/>
      <use xlink:href="#DejaVuSans-63" transform="translate(521.435547 0)"/>
      <use xlink:href="#DejaVuSans-68" transform="translate(576.416016 0)"/>
      <use xlink:href="#DejaVuSans-61" transform="translate(639.794922 0)"/>
      <use xlink:href="#DejaVuSans-6e" transform="translate(701.074219 0)"/>
      <use xlink:href="#DejaVuSans-67" transform="translate(764.453125 0)"/>
      <use xlink:href="#DejaVuSans-65" transform="translate(827.929688 0)"/>
     </g>
    </g>
    <g id="line2d_62">
     <path d="M 151.6925 245.25304
L 160.6925 245.25304
L 169.6925 245.25304
" style="fill: none; stroke: #d62728; stroke-width: 1.2; stroke-linecap: square"/>
    </g>
    <g id="text_26">
     <!-- VIX change -->
     <g transform="translate(176.8925 248.40304) scale(0.09 -0.09)">
      <defs>
       <path id="DejaVuSans-56" d="M 1831 0
L 50 4666
L 709 4666
L 2188 738
L 3669 4666
L 4325 4666
L 2547 0
L 1831 0
z
" transform="scale(0.015625)"/>
       <path id="DejaVuSans-49" d="M 628 4666
L 1259 4666
L 1259 0
L 628 0
L 628 4666
z
" transform="scale(0.015625)"/>
      </defs>
      <use xlink:href="#DejaVuSans-56"/>
      <use xlink:href="#DejaVuSans-49" transform="translate(68.408203 0)"/>
      <use xlink:href="#DejaVuSans-58" transform="translate(97.900391 0)"/>
      <use xlink:href="#DejaVuSans-20" transform="translate(166.40625 0)"/>
      <use xlink:href="#DejaVuSans-63" transform="translate(198.193359 0)"/>
      <use xlink:href="#DejaVuSans-68" transform="translate(253.173828 0)"/>
      <use xlink:href="#DejaVuSans-61" transform="translate(316.552734 0)"/>
      <use xlink:href="#DejaVuSans-6e" transform="translate(377.832031 0)"/>
      <use xlink:href="#DejaVuSans-67" transform="translate(441.210938 0)"/>
      <use xlink:href="#DejaVuSans-65" transform="translate(504.6875 0)"/>
     </g>
    </g>
   </g>
  </g>
 </g>
 <defs>
  <clipPath id="pcf19ca3110">
   <rect x="48.764844" y="22.318125" width="658.51" height="168.709706"/>
  </clipPath>
  <clipPath id="pb5e55a6c08">
   <rect x="48.764844" y="220.254133" width="658.51" height="168.709706"/>
  </clipPath>
 </defs>
</svg>
