<?xml version="1.0" encoding="utf-8" standalone="no"?>
<!DOCTYPE svg PUBLIC "-//W3C//DTD SVG 1.1//EN"
  "http://www.w3.org/Graphics/SVG/1.1/DTD/svg11.dtd">
<svg xmlns:xlink="http://www.w3.org/1999/xlink" width="786.938504pt" height="296.127321pt" viewBox="0 0 786.938504 296.127321" xmlns="http://www.w3.org/2000/svg" version="1.1">
 <metadata>
  <rdf:RDF xmlns:dc="http://purl.org/dc/elements/1.1/" xmlns:cc="http://creativecommons.org/ns#" xmlns:rdf="http://www.w3.org/1999/02/22-rdf-syntax-ns#">
   <cc:Work>
    <dc:type rdf:resource="http://purl.org/dc/dcmitype/StillImage"/>
    <dc:date>2026-06-19T21:29:51.069620</dc:date>
    <dc:format>image/svg+xml</dc:format>
    <dc:creator>
     <cc:Agent>
      <dc:title>Matplotlib v3.10.8, https://matplotlib.org/</dc:title>
     </cc:Agent>
    </dc:creator>
   </cc:Work>
  </rdf:RDF>
 </metadata>
 <defs>
  <style type="text/css">*{stroke-linejoin: round; stroke-linecap: butt}</style>
 </defs>
 <g id="figure_1">
  <g id="patch_1">
   <path d="M 0 296.127321
L 786.938504 296.127321
L 786.938504 0
L 0 0
z
" style="fill: #ffffff"/>
  </g>
  <g id="axes_1">
   <g id="patch_2">
    <path d="M 37.064219 260.506696
L 383.416362 260.506696
L 383.416362 22.318125
L 37.064219 22.318125
z
" style="fill: #ffffff"/>
   </g>
   <g id="matplotlib.axis_1">
    <g id="xtick_1">
     <g id="line2d_1">
      <path d="M 52.670062 260.506696
L 52.670062 22.318125
" clip-path="url(#p515e3761f2)" style="fill: none; stroke: #b0b0b0; stroke-opacity: 0.22; stroke-width: 0.8; stroke-linecap: square"/>
     </g>
     <g id="line2d_2">
      <defs>
       <path id="m2b68f9022f" d="M 0 0
L 0 3.5
" style="stroke: #000000; stroke-width: 0.8"/>
      </defs>
      <g>
       <use xlink:href="#m2b68f9022f" x="52.670062" y="260.506696" style="stroke: #000000; stroke-width: 0.8"/>
      </g>
     </g>
     <g id="text_1">
      <!-- 2020 -->
      <g transform="translate(41.217562 274.34529) scale(0.09 -0.09)">
       <defs>
        <path id="DejaVuSans-32" d="M 1228 531
L 3431 531
L 3431 0
L 469 0
L 469 531
Q 828 903 1448 1529
Q 2069 2156 2228 2338
Q 2531 2678 2651 2914
Q 2772 3150 2772 3378
Q 2772 3750 2511 3984
Q 2250 4219 1831 4219
Q 1534 4219 1204 4116
Q 875 4013 500 3803
L 500 4441
Q 881 4594 1212 4672
Q 1544 4750 1819 4750
Q 2544 4750 2975 4387
Q 3406 4025 3406 3419
Q 3406 3131 3298 2873
Q 3191 2616 2906 2266
Q 2828 2175 2409 1742
Q 1991 1309 1228 531
z
" transform="scale(0.015625)"/>
        <path id="DejaVuSans-30" d="M 2034 4250
Q 1547 4250 1301 3770
Q 1056 3291 1056 2328
Q 1056 1369 1301 889
Q 1547 409 2034 409
Q 2525 409 2770 889
Q 3016 1369 3016 2328
Q 3016 3291 2770 3770
Q 2525 4250 2034 4250
z
M 2034 4750
Q 2819 4750 3233 4129
Q 3647 3509 3647 2328
Q 3647 1150 3233 529
Q 2819 -91 2034 -91
Q 1250 -91 836 529
Q 422 1150 422 2328
Q 422 3509 836 4129
Q 1250 4750 2034 4750
z
" transform="scale(0.015625)"/>
       </defs>
       <use xlink:href="#DejaVuSans-32"/>
       <use xlink:href="#DejaVuSans-30" transform="translate(63.623047 0)"/>
       <use xlink:href="#DejaVuSans-32" transform="translate(127.246094 0)"/>
       <use xlink:href="#DejaVuSans-30" transform="translate(190.869141 0)"/>
      </g>
     </g>
    </g>
    <g id="xtick_2">
     <g id="line2d_3">
      <path d="M 102.971592 260.506696
L 102.971592 22.318125
" clip-path="url(#p515e3761f2)" style="fill: none; stroke: #b0b0b0; stroke-opacity: 0.22; stroke-width: 0.8; stroke-linecap: square"/>
     </g>
     <g id="line2d_4">
      <g>
       <use xlink:href="#m2b68f9022f" x="102.971592" y="260.506696" style="stroke: #000000; stroke-width: 0.8"/>
      </g>
     </g>
     <g id="text_2">
      <!-- 2021 -->
      <g transform="translate(91.519092 274.34529) scale(0.09 -0.09)">
       <defs>
        <path id="DejaVuSans-31" d="M 794 531
L 1825 531
L 1825 4091
L 703 3866
L 703 4441
L 1819 4666
L 2450 4666
L 2450 531
L 3481 531
L 3481 0
L 794 0
L 794 531
z
" transform="scale(0.015625)"/>
       </defs>
       <use xlink:href="#DejaVuSans-32"/>
       <use xlink:href="#DejaVuSans-30" transform="translate(63.623047 0)"/>
       <use xlink:href="#DejaVuSans-32" transform="translate(127.246094 0)"/>
       <use xlink:href="#DejaVuSans-31" transform="translate(190.869141 0)"/>
      </g>
     </g>
    </g>
    <g id="xtick_3">
     <g id="line2d_5">
      <path d="M 153.135685 260.506696
L 153.135685 22.318125
" clip-path="url(#p515e3761f2)" style="fill: none; stroke: #b0b0b0; stroke-opacity: 0.22; stroke-width: 0.8; stroke-linecap: square"/>
     </g>
     <g id="line2d_6">
      <g>
       <use xlink:href="#m2b68f9022f" x="153.135685" y="260.506696" style="stroke: #000000; stroke-width: 0.8"/>
      </g>
     </g>
     <g id="text_3">
      <!-- 2022 -->
      <g transform="translate(141.683185 274.34529) scale(0.09 -0.09)">
       <use xlink:href="#DejaVuSans-32"/>
       <use xlink:href="#DejaVuSans-30" transform="translate(63.623047 0)"/>
       <use xlink:href="#DejaVuSans-32" transform="translate(127.246094 0)"/>
       <use xlink:href="#DejaVuSans-32" transform="translate(190.869141 0)"/>
      </g>
     </g>
    </g>
    <g id="xtick_4">
     <g id="line2d_7">
      <path d="M 203.299779 260.506696
L 203.299779 22.318125
" clip-path="url(#p515e3761f2)" style="fill: none; stroke: #b0b0b0; stroke-opacity: 0.22; stroke-width: 0.8; stroke-linecap: square"/>
     </g>
     <g id="line2d_8">
      <g>
       <use xlink:href="#m2b68f9022f" x="203.299779" y="260.506696" style="stroke: #000000; stroke-width: 0.8"/>
      </g>
     </g>
     <g id="text_4">
      <!-- 2023 -->
      <g transform="translate(191.847279 274.34529) scale(0.09 -0.09)">
       <defs>
        <path id="DejaVuSans-33" d="M 2597 2516
Q 3050 2419 3304 2112
Q 3559 1806 3559 1356
Q 3559 666 3084 287
Q 2609 -91 1734 -91
Q 1441 -91 1130 -33
Q 819 25 488 141
L 488 750
Q 750 597 1062 519
Q 1375 441 1716 441
Q 2309 441 2620 675
Q 2931 909 2931 1356
Q 2931 1769 2642 2001
Q 2353 2234 1838 2234
L 1294 2234
L 1294 2753
L 1863 2753
Q 2328 2753 2575 2939
Q 2822 3125 2822 3475
Q 2822 3834 2567 4026
Q 2313 4219 1838 4219
Q 1578 4219 1281 4162
Q 984 4106 628 3988
L 628 4550
Q 988 4650 1302 4700
Q 1616 4750 1894 4750
Q 2613 4750 3031 4423
Q 3450 4097 3450 3541
Q 3450 3153 3228 2886
Q 3006 2619 2597 2516
z
" transform="scale(0.015625)"/>
       </defs>
       <use xlink:href="#DejaVuSans-32"/>
       <use xlink:href="#DejaVuSans-30" transform="translate(63.623047 0)"/>
       <use xlink:href="#DejaVuSans-32" transform="translate(127.246094 0)"/>
       <use xlink:href="#DejaVuSans-33" transform="translate(190.869141 0)"/>
      </g>
     </g>
    </g>
    <g id="xtick_5">
     <g id="line2d_9">
      <path d="M 253.463872 260.506696
L 253.463872 22.318125
" clip-path="url(#p515e3761f2)" style="fill: none; stroke: #b0b0b0; stroke-opacity: 0.22; stroke-width: 0.8; stroke-linecap: square"/>
     </g>
     <g id="line2d_10">
      <g>
       <use xlink:href="#m2b68f9022f" x="253.463872" y="260.506696" style="stroke: #000000; stroke-width: 0.8"/>
      </g>
     </g>
     <g id="text_5">
      <!-- 2024 -->
      <g transform="translate(242.011372 274.34529) scale(0.09 -0.09)">
       <defs>
        <path id="DejaVuSans-34" d="M 2419 4116
L 825 1625
L 2419 1625
L 2419 4116
z
M 2253 4666
L 3047 4666
L 3047 1625
L 3713 1625
L 3713 1100
L 3047 1100
L 3047 0
L 2419 0
L 2419 1100
L 313 1100
L 313 1709
L 2253 4666
z
" transform="scale(0.015625)"/>
       </defs>
       <use xlink:href="#DejaVuSans-32"/>
       <use xlink:href="#DejaVuSans-30" transform="translate(63.623047 0)"/>
       <use xlink:href="#DejaVuSans-32" transform="translate(127.246094 0)"/>
       <use xlink:href="#DejaVuSans-34" transform="translate(190.869141 0)"/>
      </g>
     </g>
    </g>
    <g id="xtick_6">
     <g id="line2d_11">
      <path d="M 303.765402 260.506696
L 303.765402 22.318125
" clip-path="url(#p515e3761f2)" style="fill: none; stroke: #b0b0b0; stroke-opacity: 0.22; stroke-width: 0.8; stroke-linecap: square"/>
     </g>
     <g id="line2d_12">
      <g>
       <use xlink:href="#m2b68f9022f" x="303.765402" y="260.506696" style="stroke: #000000; stroke-width: 0.8"/>
      </g>
     </g>
     <g id="text_6">
      <!-- 2025 -->
      <g transform="translate(292.312902 274.34529) scale(0.09 -0.09)">
       <defs>
        <path id="DejaVuSans-35" d="M 691 4666
L 3169 4666
L 3169 4134
L 1269 4134
L 1269 2991
Q 1406 3038 1543 3061
Q 1681 3084 1819 3084
Q 2600 3084 3056 2656
Q 3513 2228 3513 1497
Q 3513 744 3044 326
Q 2575 -91 1722 -91
Q 1428 -91 1123 -41
Q 819 9 494 109
L 494 744
Q 775 591 1075 516
Q 1375 441 1709 441
Q 2250 441 2565 725
Q 2881 1009 2881 1497
Q 2881 1984 2565 2268
Q 2250 2553 1709 2553
Q 1456 2553 1204 2497
Q 953 2441 691 2322
L 691 4666
z
" transform="scale(0.015625)"/>
       </defs>
       <use xlink:href="#DejaVuSans-32"/>
       <use xlink:href="#DejaVuSans-30" transform="translate(63.623047 0)"/>
       <use xlink:href="#DejaVuSans-32" transform="translate(127.246094 0)"/>
       <use xlink:href="#DejaVuSans-35" transform="translate(190.869141 0)"/>
      </g>
     </g>
    </g>
    <g id="xtick_7">
     <g id="line2d_13">
      <path d="M 353.929495 260.506696
L 353.929495 22.318125
" clip-path="url(#p515e3761f2)" style="fill: none; stroke: #b0b0b0; stroke-opacity: 0.22; stroke-width: 0.8; stroke-linecap: square"/>
     </g>
     <g id="line2d_14">
      <g>
       <use xlink:href="#m2b68f9022f" x="353.929495" y="260.506696" style="stroke: #000000; stroke-width: 0.8"/>
      </g>
     </g>
     <g id="text_7">
      <!-- 2026 -->
      <g transform="translate(342.476995 274.34529) scale(0.09 -0.09)">
       <defs>
        <path id="DejaVuSans-36" d="M 2113 2584
Q 1688 2584 1439 2293
Q 1191 2003 1191 1497
Q 1191 994 1439 701
Q 1688 409 2113 409
Q 2538 409 2786 701
Q 3034 994 3034 1497
Q 3034 2003 2786 2293
Q 2538 2584 2113 2584
z
M 3366 4563
L 3366 3988
Q 3128 4100 2886 4159
Q 2644 4219 2406 4219
Q 1781 4219 1451 3797
Q 1122 3375 1075 2522
Q 1259 2794 1537 2939
Q 1816 3084 2150 3084
Q 2853 3084 3261 2657
Q 3669 2231 3669 1497
Q 3669 778 3244 343
Q 2819 -91 2113 -91
Q 1303 -91 875 529
Q 447 1150 447 2328
Q 447 3434 972 4092
Q 1497 4750 2381 4750
Q 2619 4750 2861 4703
Q 3103 4656 3366 4563
z
" transform="scale(0.015625)"/>
       </defs>
       <use xlink:href="#DejaVuSans-32"/>
       <use xlink:href="#DejaVuSans-30" transform="translate(63.623047 0)"/>
       <use xlink:href="#DejaVuSans-32" transform="translate(127.246094 0)"/>
       <use xlink:href="#DejaVuSans-36" transform="translate(190.869141 0)"/>
      </g>
     </g>
    </g>
   </g>
   <g id="matplotlib.axis_2">
    <g id="ytick_1">
     <g id="line2d_15">
      <path d="M 37.064219 241.071679
L 383.416362 241.071679
" clip-path="url(#p515e3761f2)" style="fill: none; stroke: #b0b0b0; stroke-opacity: 0.22; stroke-width: 0.8; stroke-linecap: square"/>
     </g>
     <g id="line2d_16">
      <defs>
       <path id="mfde1c9b6aa" d="M 0 0
L -3.5 0
" style="stroke: #000000; stroke-width: 0.8"/>
      </defs>
      <g>
       <use xlink:href="#mfde1c9b6aa" x="37.064219" y="241.071679" style="stroke: #000000; stroke-width: 0.8"/>
      </g>
     </g>
     <g id="text_8">
      <!-- 0.0% -->
      <g transform="translate(7.2 244.490976) scale(0.09 -0.09)">
       <defs>
        <path id="DejaVuSans-2e" d="M 684 794
L 1344 794
L 1344 0
L 684 0
L 684 794
z
" transform="scale(0.015625)"/>
        <path id="DejaVuSans-25" d="M 4653 2053
Q 4381 2053 4226 1822
Q 4072 1591 4072 1178
Q 4072 772 4226 539
Q 4381 306 4653 306
Q 4919 306 5073 539
Q 5228 772 5228 1178
Q 5228 1588 5073 1820
Q 4919 2053 4653 2053
z
M 4653 2450
Q 5147 2450 5437 2106
Q 5728 1763 5728 1178
Q 5728 594 5436 251
Q 5144 -91 4653 -91
Q 4153 -91 3862 251
Q 3572 594 3572 1178
Q 3572 1766 3864 2108
Q 4156 2450 4653 2450
z
M 1428 4353
Q 1159 4353 1004 4120
Q 850 3888 850 3481
Q 850 3069 1003 2837
Q 1156 2606 1428 2606
Q 1700 2606 1854 2837
Q 2009 3069 2009 3481
Q 2009 3884 1853 4118
Q 1697 4353 1428 4353
z
M 4250 4750
L 4750 4750
L 1831 -91
L 1331 -91
L 4250 4750
z
M 1428 4750
Q 1922 4750 2215 4408
Q 2509 4066 2509 3481
Q 2509 2891 2217 2550
Q 1925 2209 1428 2209
Q 931 2209 642 2551
Q 353 2894 353 3481
Q 353 4063 643 4406
Q 934 4750 1428 4750
z
" transform="scale(0.015625)"/>
       </defs>
       <use xlink:href="#DejaVuSans-30"/>
       <use xlink:href="#DejaVuSans-2e" transform="translate(63.623047 0)"/>
       <use xlink:href="#DejaVuSans-30" transform="translate(95.410156 0)"/>
       <use xlink:href="#DejaVuSans-25" transform="translate(159.033203 0)"/>
      </g>
     </g>
    </g>
    <g id="ytick_2">
     <g id="line2d_17">
      <path d="M 37.064219 202.129671
L 383.416362 202.129671
" clip-path="url(#p515e3761f2)" style="fill: none; stroke: #b0b0b0; stroke-opacity: 0.22; stroke-width: 0.8; stroke-linecap: square"/>
     </g>
     <g id="line2d_18">
      <g>
       <use xlink:href="#mfde1c9b6aa" x="37.064219" y="202.129671" style="stroke: #000000; stroke-width: 0.8"/>
      </g>
     </g>
     <g id="text_9">
      <!-- 1.0% -->
      <g transform="translate(7.2 205.548968) scale(0.09 -0.09)">
       <use xlink:href="#DejaVuSans-31"/>
       <use xlink:href="#DejaVuSans-2e" transform="translate(63.623047 0)"/>
       <use xlink:href="#DejaVuSans-30" transform="translate(95.410156 0)"/>
       <use xlink:href="#DejaVuSans-25" transform="translate(159.033203 0)"/>
      </g>
     </g>
    </g>
    <g id="ytick_3">
     <g id="line2d_19">
      <path d="M 37.064219 163.187662
L 383.416362 163.187662
" clip-path="url(#p515e3761f2)" style="fill: none; stroke: #b0b0b0; stroke-opacity: 0.22; stroke-width: 0.8; stroke-linecap: square"/>
     </g>
     <g id="line2d_20">
      <g>
       <use xlink:href="#mfde1c9b6aa" x="37.064219" y="163.187662" style="stroke: #000000; stroke-width: 0.8"/>
      </g>
     </g>
     <g id="text_10">
      <!-- 2.0% -->
      <g transform="translate(7.2 166.606959) scale(0.09 -0.09)">
       <use xlink:href="#DejaVuSans-32"/>
       <use xlink:href="#DejaVuSans-2e" transform="translate(63.623047 0)"/>
       <use xlink:href="#DejaVuSans-30" transform="translate(95.410156 0)"/>
       <use xlink:href="#DejaVuSans-25" transform="translate(159.033203 0)"/>
      </g>
     </g>
    </g>
    <g id="ytick_4">
     <g id="line2d_21">
      <path d="M 37.064219 124.245654
L 383.416362 124.245654
" clip-path="url(#p515e3761f2)" style="fill: none; stroke: #b0b0b0; stroke-opacity: 0.22; stroke-width: 0.8; stroke-linecap: square"/>
     </g>
     <g id="line2d_22">
      <g>
       <use xlink:href="#mfde1c9b6aa" x="37.064219" y="124.245654" style="stroke: #000000; stroke-width: 0.8"/>
      </g>
     </g>
     <g id="text_11">
      <!-- 3.0% -->
      <g transform="translate(7.2 127.664951) scale(0.09 -0.09)">
       <use xlink:href="#DejaVuSans-33"/>
       <use xlink:href="#DejaVuSans-2e" transform="translate(63.623047 0)"/>
       <use xlink:href="#DejaVuSans-30" transform="translate(95.410156 0)"/>
       <use xlink:href="#DejaVuSans-25" transform="translate(159.033203 0)"/>
      </g>
     </g>
    </g>
    <g id="ytick_5">
     <g id="line2d_23">
      <path d="M 37.064219 85.303646
L 383.416362 85.303646
" clip-path="url(#p515e3761f2)" style="fill: none; stroke: #b0b0b0; stroke-opacity: 0.22; stroke-width: 0.8; stroke-linecap: square"/>
     </g>
     <g id="line2d_24">
      <g>
       <use xlink:href="#mfde1c9b6aa" x="37.064219" y="85.303646" style="stroke: #000000; stroke-width: 0.8"/>
      </g>
     </g>
     <g id="text_12">
      <!-- 4.0% -->
      <g transform="translate(7.2 88.722943) scale(0.09 -0.09)">
       <use xlink:href="#DejaVuSans-34"/>
       <use xlink:href="#DejaVuSans-2e" transform="translate(63.623047 0)"/>
       <use xlink:href="#DejaVuSans-30" transform="translate(95.410156 0)"/>
       <use xlink:href="#DejaVuSans-25" transform="translate(159.033203 0)"/>
      </g>
     </g>
    </g>
    <g id="ytick_6">
     <g id="line2d_25">
      <path d="M 37.064219 46.361638
L 383.416362 46.361638
" clip-path="url(#p515e3761f2)" style="fill: none; stroke: #b0b0b0; stroke-opacity: 0.22; stroke-width: 0.8; stroke-linecap: square"/>
     </g>
     <g id="line2d_26">
      <g>
       <use xlink:href="#mfde1c9b6aa" x="37.064219" y="46.361638" style="stroke: #000000; stroke-width: 0.8"/>
      </g>
     </g>
     <g id="text_13">
      <!-- 5.0% -->
      <g transform="translate(7.2 49.780935) scale(0.09 -0.09)">
       <use xlink:href="#DejaVuSans-35"/>
       <use xlink:href="#DejaVuSans-2e" transform="translate(63.623047 0)"/>
       <use xlink:href="#DejaVuSans-30" transform="translate(95.410156 0)"/>
       <use xlink:href="#DejaVuSans-25" transform="translate(159.033203 0)"/>
      </g>
     </g>
    </g>
   </g>
   <g id="line2d_27">
    <path d="M 52.807498 241.071679
L 254.700795 241.071679
L 254.975667 237.391093
L 255.113103 237.084916
L 255.250538 237.091063
L 255.387974 236.983428
L 255.52541 237.30648
L 255.662846 235.270592
L 255.800282 235.807503
L 255.937718 235.414359
L 256.21259 235.467286
L 256.762333 237.38104
L 256.899769 237.296298
L 257.174641 237.490919
L 257.586948 234.323878
L 257.999256 233.816939
L 258.136692 233.78758
L 258.548999 232.662859
L 258.823871 228.925115
L 259.098743 229.554634
L 259.648486 223.015578
L 259.785922 221.783863
L 259.923358 221.867606
L 260.060794 221.68118
L 260.19823 221.866593
L 260.335666 221.210973
L 260.473102 221.525628
L 260.885409 219.05557
L 261.022845 219.409212
L 261.297717 216.596174
L 261.435153 215.347886
L 261.572589 217.293141
L 261.710025 217.233357
L 261.84746 217.704515
L 261.984896 217.556857
L 262.122332 216.20365
L 262.259768 216.203154
L 262.397204 213.397423
L 262.672076 212.617431
L 262.809511 213.219566
L 262.946947 213.265602
L 263.221819 210.438386
L 263.359255 208.266718
L 263.496691 208.650295
L 263.908998 204.165164
L 264.18387 206.847267
L 264.321306 204.549657
L 264.458742 208.009078
L 264.733614 206.078006
L 264.87105 206.186513
L 265.008485 207.815633
L 265.145921 207.905363
L 265.420793 206.48084
L 265.558229 207.138182
L 265.833101 206.559966
L 265.970537 207.620302
L 266.107972 206.720497
L 266.245408 204.181012
L 266.382844 203.829687
L 266.52028 204.618897
L 266.657716 204.266366
L 266.932588 205.708034
L 267.070024 206.885223
L 267.207459 205.2946
L 267.344895 205.805458
L 267.482331 205.650417
L 267.757203 202.310856
L 267.894639 203.454914
L 268.032075 202.283158
L 268.169511 203.013026
L 268.306946 201.46394
L 268.444382 202.663698
L 268.581818 202.864759
L 268.719254 203.531136
L 268.85669 203.338831
L 268.994126 204.304229
L 269.131562 204.436884
L 269.268998 203.879189
L 269.406433 204.269419
L 269.681305 203.678014
L 269.818741 203.630783
L 269.956177 204.570606
L 270.093613 204.4801
L 270.368484 202.352021
L 270.643356 205.276333
L 271.1931 203.042892
L 271.330536 204.443623
L 271.467971 203.073057
L 271.605407 203.083715
L 271.742843 203.272005
L 271.880279 203.843929
L 272.017715 202.043909
L 272.155151 204.018171
L 272.292587 202.798686
L 272.430023 203.816115
L 272.567458 203.754906
L 272.704894 202.683221
L 272.84233 204.612308
L 273.254638 201.25423
L 273.52951 202.025316
L 273.666945 201.575106
L 273.804381 201.966427
L 274.079253 200.68707
L 274.216689 200.994138
L 274.354125 200.500632
L 274.491561 200.639163
L 274.628997 200.335423
L 274.766432 198.411542
L 275.17874 197.272928
L 275.316176 196.35737
L 275.453612 196.348174
L 275.728484 197.248373
L 275.865919 195.510711
L 276.003355 196.799404
L 276.278227 195.872016
L 276.415663 195.991131
L 276.690535 197.074091
L 276.827971 196.180997
L 277.102842 196.719037
L 277.240278 196.219238
L 277.377714 196.297212
L 277.51515 196.101556
L 277.652586 193.819345
L 277.790022 194.920426
L 277.927457 194.167297
L 278.064893 194.553189
L 278.202329 193.544324
L 278.339765 193.988234
L 278.477201 194.946978
L 278.614637 195.065067
L 278.752073 194.57819
L 278.889509 193.076533
L 279.026944 189.959543
L 279.16438 189.591182
L 279.301816 191.01633
L 279.439252 187.836079
L 279.576688 187.900959
L 279.714124 188.61866
L 279.85156 188.057134
L 279.988996 186.652415
L 280.126431 187.157142
L 280.538739 190.644076
L 280.676175 190.733703
L 280.951047 188.457847
L 281.088483 190.585645
L 281.225918 190.934384
L 281.775662 188.125854
L 281.913098 188.313336
L 282.050534 189.963706
L 282.325405 189.84608
L 282.737713 186.88738
L 282.875149 188.189294
L 283.150021 184.156662
L 283.287457 182.234784
L 283.424892 178.277708
L 283.562328 180.37795
L 283.699764 178.706818
L 283.8372 185.616236
L 283.974636 184.837364
L 284.112072 184.915159
L 284.249508 182.706927
L 284.386944 183.208208
L 284.524379 184.66257
L 284.799251 181.516228
L 285.074123 183.465423
L 285.211559 182.215089
L 285.348995 182.927199
L 285.48643 182.371292
L 285.623866 184.215428
L 285.761302 182.668017
L 285.898738 186.013351
L 286.036174 186.111479
L 286.311046 184.709184
L 286.448482 181.831776
L 286.585917 181.688715
L 286.723353 182.591838
L 286.998225 182.230395
L 287.135661 180.529866
L 287.273097 183.356094
L 287.410533 181.802289
L 287.547969 183.030611
L 287.685404 181.770395
L 287.82284 179.364955
L 287.960276 179.572836
L 288.097712 180.274541
L 288.372584 182.932691
L 288.647456 182.402434
L 288.784891 184.747874
L 289.059763 183.352084
L 289.197199 181.81013
L 289.472071 184.886112
L 289.746943 185.882116
L 290.021814 186.189561
L 290.15925 185.562153
L 290.296686 186.047679
L 290.434122 183.922838
L 290.84643 184.813425
L 290.983865 184.401997
L 291.396173 181.033949
L 291.533609 181.052833
L 291.671045 182.352365
L 291.945917 182.299641
L 292.083352 181.800983
L 292.220788 181.824439
L 292.49566 179.600991
L 292.770532 182.43525
L 292.907968 180.366326
L 293.045403 182.22058
L 293.182839 181.742884
L 293.457711 179.879694
L 293.595147 180.781704
L 293.732583 180.736086
L 293.870019 180.472058
L 294.282326 177.392329
L 294.419762 177.672477
L 294.557198 176.167991
L 294.694634 176.59384
L 294.969506 175.478385
L 295.106942 175.577185
L 295.244377 175.142834
L 295.519249 172.588026
L 295.656685 172.478907
L 295.794121 173.434431
L 296.068993 172.612327
L 296.206429 174.708793
L 296.343864 174.178513
L 296.618736 174.888272
L 296.756172 175.21334
L 296.893608 179.562674
L 297.031044 177.933109
L 297.16848 180.522869
L 297.305916 179.170917
L 297.443351 181.704142
L 297.580787 181.407978
L 298.130531 177.821588
L 298.405403 179.797467
L 298.542838 179.033622
L 298.680274 180.072749
L 298.955146 176.131011
L 299.092582 178.798745
L 299.230018 177.958339
L 299.367454 179.152086
L 299.642325 178.289648
L 299.917197 174.890808
L 300.054633 175.248536
L 300.192069 173.33483
L 300.329505 175.265496
L 300.466941 175.292967
L 300.604376 175.174835
L 300.879248 170.747892
L 301.016684 172.742445
L 301.15412 171.102914
L 301.291556 172.069883
L 301.428992 172.054566
L 301.703863 173.00256
L 301.841299 172.528137
L 302.116171 168.293204
L 302.253607 168.579889
L 302.391043 168.184467
L 302.528479 167.013943
L 302.665915 167.459467
L 302.80335 170.32672
L 302.940786 169.91434
L 303.215658 166.605844
L 303.353094 167.540211
L 303.627966 166.252978
L 303.765402 166.85532
L 303.902837 168.155196
L 304.040273 168.200735
L 304.177709 169.120221
L 304.315145 169.185316
L 304.452581 167.318493
L 304.590017 170.054913
L 304.864889 165.816601
L 305.002324 164.226845
L 305.13976 165.881695
L 305.277196 165.78816
L 305.552068 166.794464
L 305.689504 166.771651
L 305.82694 168.486294
L 305.964376 166.000287
L 306.101811 168.967649
L 306.239247 169.201479
L 306.514119 166.090953
L 306.651555 168.433592
L 306.926427 165.539043
L 307.063863 166.204579
L 307.201298 166.119787
L 307.613606 164.241581
L 307.888478 165.088247
L 308.300785 160.039636
L 308.438221 162.415811
L 308.713093 158.654255
L 308.850529 158.250304
L 309.125401 158.211708
L 309.262836 158.564336
L 309.400272 159.502292
L 309.537708 158.649356
L 309.675144 160.677464
L 309.81258 159.523087
L 309.950016 160.248153
L 310.087452 160.326052
L 310.362323 158.924336
L 310.499759 158.918383
L 310.774631 162.060589
L 310.912067 160.266466
L 311.049503 160.625291
L 311.186939 161.54447
L 311.599246 155.300654
L 311.736682 155.515594
L 311.874118 155.22253
L 312.011554 156.822004
L 312.14899 164.310752
L 312.286426 157.376119
L 312.423862 158.606945
L 312.561297 161.864324
L 312.698733 162.161637
L 312.836169 159.337117
L 312.973605 158.954014
L 313.248477 152.789895
L 313.523349 158.380777
L 313.660784 155.703399
L 313.79822 158.654827
L 313.935656 159.00538
L 314.073092 156.534704
L 314.210528 157.684964
L 314.347964 156.234518
L 314.4854 159.900782
L 314.622836 157.058441
L 314.897707 156.729848
L 315.172579 160.030973
L 315.310015 159.750425
L 315.447451 159.148195
L 315.584887 159.640113
L 315.859758 155.079221
L 315.997194 154.984911
L 316.13463 155.520426
L 316.272066 157.653337
L 316.409502 155.195904
L 316.684374 156.754967
L 316.821809 156.404079
L 316.959245 151.118152
L 317.096681 152.815357
L 317.234117 149.826994
L 317.371553 157.158115
L 317.508989 153.955499
L 317.783861 159.804234
L 317.921296 158.312415
L 318.058732 158.965949
L 318.196168 158.441076
L 318.333604 158.573299
L 318.47104 159.408674
L 318.608476 158.984501
L 318.745912 159.542883
L 318.883348 158.721565
L 319.020783 158.895842
L 319.158219 162.225194
L 319.433091 160.937608
L 319.570527 161.550083
L 319.707963 161.510332
L 319.845399 159.528097
L 319.982835 160.23231
L 320.12027 159.724706
L 320.257706 158.759834
L 320.532578 159.732866
L 320.670014 158.845301
L 320.80745 156.687587
L 320.944886 157.300483
L 321.082322 158.677217
L 321.219757 158.637547
L 321.357193 162.976119
L 321.494629 162.750724
L 321.632065 164.102952
L 321.906937 162.780143
L 322.044373 163.185143
L 322.319244 162.211847
L 322.594116 161.732632
L 322.731552 162.993433
L 322.868988 161.730643
L 323.006424 161.539464
L 323.14386 161.924225
L 323.281295 162.989142
L 323.418731 159.767315
L 323.556167 160.145992
L 323.693603 161.079254
L 323.831039 160.708887
L 323.968475 159.532886
L 324.105911 159.319799
L 324.243347 158.699828
L 324.380782 157.514152
L 324.518218 158.014469
L 324.655654 159.316245
L 324.930526 158.245877
L 325.067962 158.241238
L 325.205398 155.798993
L 325.480269 159.057242
L 325.617705 158.449959
L 325.755141 161.072648
L 325.892577 160.718018
L 326.030013 159.41073
L 326.167449 156.544913
L 326.304885 156.858325
L 326.579756 155.686623
L 326.717192 156.30137
L 326.854628 153.803343
L 326.992064 154.007823
L 327.1295 153.844862
L 327.541808 149.954296
L 327.679243 152.675591
L 327.816679 152.261267
L 327.954115 152.893223
L 328.091551 151.660409
L 328.228987 151.737073
L 328.366423 151.95222
L 328.503859 152.617237
L 328.641295 152.27758
L 328.77873 150.279056
L 329.053602 152.439377
L 329.191038 151.12641
L 329.328474 151.29187
L 329.46591 151.723818
L 329.603346 150.799465
L 329.740782 151.01841
L 329.878217 150.793218
L 330.153089 153.914136
L 330.290525 153.836957
L 330.427961 154.503481
L 330.565397 154.442577
L 330.702833 151.629685
L 330.977704 151.248293
L 331.11514 150.289486
L 331.252576 150.215963
L 331.390012 149.978752
L 331.527448 150.186462
L 331.664884 152.283882
L 331.939755 150.475775
L 332.077191 149.897323
L 332.214627 150.162655
L 332.352063 151.036455
L 332.489499 149.864919
L 332.626935 149.666878
L 332.764371 149.776572
L 332.901807 149.635573
L 333.176678 146.917299
L 333.45155 149.855796
L 333.588986 148.950995
L 333.726422 149.229226
L 333.863858 150.48554
L 334.138729 149.693585
L 334.276165 151.559509
L 334.413601 150.985736
L 334.551037 151.912952
L 334.688473 153.88856
L 334.963345 149.525148
L 335.100781 149.541471
L 335.238216 149.795638
L 335.375652 149.714397
L 335.513088 147.492647
L 335.650524 148.984657
L 335.78796 147.555408
L 335.925396 151.099388
L 336.200268 148.115965
L 336.337703 145.051772
L 336.475139 146.345399
L 336.612575 145.550425
L 336.750011 146.880135
L 336.887447 143.243111
L 337.024883 143.654061
L 337.162319 143.198951
L 337.299755 143.458127
L 337.574626 145.47472
L 337.712062 144.888678
L 337.849498 144.841254
L 337.986934 144.447124
L 338.12437 144.601673
L 338.261806 145.37694
L 338.399241 143.624043
L 338.674113 144.976764
L 338.811549 145.441548
L 338.948985 145.338874
L 339.223857 143.912046
L 339.361293 145.202523
L 339.498728 144.652115
L 339.636164 144.800059
L 339.7736 143.634511
L 339.911036 143.667144
L 340.048472 143.88982
L 340.323344 140.829769
L 340.46078 142.448146
L 340.598215 139.304034
L 340.735651 139.979618
L 340.873087 139.888778
L 341.147959 142.424568
L 341.285395 141.005363
L 341.422831 143.845008
L 341.560267 143.83589
L 341.697702 145.188944
L 341.835138 145.275165
L 342.11001 143.783608
L 342.247446 140.440922
L 342.384882 141.686795
L 342.522318 140.383522
L 342.797189 130.480234
L 342.934625 135.12944
L 343.072061 135.118602
L 343.621805 128.400286
L 343.759241 129.15748
L 344.034112 131.64384
L 344.308984 128.779886
L 344.583856 132.147633
L 344.721292 132.717226
L 344.858728 135.1938
L 345.271035 132.352967
L 345.408471 130.816267
L 345.683343 132.583511
L 345.820779 133.375655
L 346.09565 125.116754
L 346.233086 127.34213
L 346.370522 125.578878
L 346.507958 127.764024
L 346.645394 126.664368
L 346.78283 129.28918
L 346.920266 129.668567
L 347.057701 126.995662
L 347.195137 127.12076
L 347.332573 125.783896
L 347.470009 119.836426
L 347.607445 120.863037
L 347.744881 119.771358
L 347.882317 117.721967
L 348.019753 118.635621
L 348.157188 118.612383
L 348.43206 108.880292
L 348.569496 108.384081
L 348.844368 113.972822
L 348.981804 112.307893
L 349.256675 117.784806
L 349.394111 117.220111
L 349.531547 117.130541
L 349.668983 116.482618
L 349.806419 110.661816
L 350.081291 120.921564
L 350.218727 119.021304
L 350.356162 115.274083
L 350.493598 115.151774
L 350.631034 116.915062
L 350.76847 116.904346
L 350.905906 119.170173
L 351.043342 118.458508
L 351.180778 119.034132
L 351.318214 115.985489
L 351.455649 115.94537
L 351.730521 111.83627
L 351.867957 112.927254
L 352.142829 110.09993
L 352.280265 113.994885
L 352.417701 114.349172
L 352.692572 115.40705
L 352.830008 114.167292
L 352.967444 114.460303
L 353.10488 114.449934
L 353.242316 114.654551
L 353.517187 115.504488
L 353.654623 113.605825
L 353.792059 116.200902
L 353.929495 114.959749
L 354.066931 115.661878
L 354.341803 118.234519
L 354.479239 117.954203
L 354.75411 122.331081
L 354.891546 120.091599
L 355.028982 120.294441
L 355.166418 119.623367
L 355.303854 119.5255
L 355.44129 119.879227
L 355.578726 118.663464
L 355.853597 124.018941
L 355.991033 123.187179
L 356.128469 123.081522
L 356.265905 122.603879
L 356.678213 116.11797
L 356.953084 118.087018
L 357.09052 118.264873
L 357.227956 117.559376
L 357.365392 113.95363
L 357.640264 117.94861
L 357.7777 119.764933
L 357.915135 114.48573
L 358.052571 113.680718
L 358.327443 100.402829
L 358.464879 104.139231
L 358.739751 96.140885
L 358.877187 71.461495
L 359.014622 90.061718
L 359.152058 87.242489
L 359.289494 89.110763
L 359.42693 88.357935
L 359.839238 81.391949
L 360.114109 89.453064
L 360.251545 87.27966
L 360.388981 87.721644
L 360.663853 82.985173
L 360.801289 84.190183
L 360.938725 86.420308
L 361.213596 86.13065
L 361.488468 75.30816
L 361.625904 84.118681
L 361.76334 82.972841
L 361.900776 79.187934
L 362.038212 81.785685
L 362.175647 77.544467
L 362.313083 84.137307
L 362.450519 81.693442
L 362.587955 91.824308
L 362.725391 89.03695
L 363.000263 80.810101
L 363.137699 77.215908
L 363.41257 85.536003
L 363.824878 87.057568
L 363.962314 87.685695
L 364.237186 94.147622
L 364.374621 92.676918
L 364.649493 84.580256
L 364.786929 85.880526
L 365.061801 79.322641
L 365.199237 86.496163
L 365.336673 85.68495
L 365.474108 87.837002
L 365.74898 77.144028
L 365.886416 77.003043
L 366.023852 75.905072
L 366.161288 77.479265
L 366.298724 81.52808
L 366.43616 81.18364
L 366.573595 78.323068
L 366.711031 78.503712
L 366.848467 79.308929
L 366.985903 81.991821
L 367.123339 82.094655
L 367.260775 89.126887
L 367.398211 86.375559
L 367.535647 87.246114
L 367.673082 89.766025
L 367.673082 89.766025
" clip-path="url(#p515e3761f2)" style="fill: none; stroke: #d9a441; stroke-width: 1.5; stroke-linecap: square"/>
   </g>
   <g id="line2d_28">
    <path d="M 52.807498 241.071679
L 281.363354 241.071679
L 281.50079 240.068029
L 281.913098 244.558342
L 282.050534 244.451997
L 282.18797 244.478625
L 282.325405 245.43018
L 282.462841 245.038584
L 282.600277 245.847894
L 282.737713 245.648957
L 283.012585 246.609998
L 283.150021 246.775208
L 283.287457 246.640244
L 283.424892 245.942984
L 283.699764 246.470019
L 283.8372 245.976751
L 283.974636 246.135121
L 284.249508 246.157552
L 284.386944 245.555884
L 284.524379 245.460091
L 284.799251 246.369024
L 285.074123 246.278681
L 285.48643 246.840523
L 285.623866 246.722928
L 285.761302 246.810945
L 285.898738 246.519546
L 286.036174 246.50899
L 286.311046 246.887254
L 286.448482 247.337504
L 286.723353 247.184636
L 286.998225 247.220389
L 287.273097 247.764061
L 287.410533 248.576293
L 287.547969 248.500309
L 287.82284 249.340032
L 288.372584 248.697137
L 288.51002 249.130793
L 288.647456 249.037616
L 288.784891 248.783743
L 288.922327 248.851775
L 289.197199 249.612022
L 289.334635 249.578368
L 289.609507 249.046216
L 289.884378 248.595016
L 290.021814 249.679943
L 290.296686 248.158805
L 290.434122 248.361414
L 290.571558 247.495578
L 290.708994 247.346268
L 290.983865 247.443178
L 291.258737 248.440879
L 291.396173 248.746319
L 291.533609 248.690414
L 291.671045 248.486577
L 292.220788 248.514593
L 292.358224 248.69212
L 292.49566 248.645079
L 293.182839 247.647073
L 293.320275 247.039105
L 294.007455 247.001087
L 294.282326 247.292979
L 294.557198 247.76769
L 294.969506 247.346913
L 295.244377 246.917412
L 295.381813 247.389591
L 295.656685 247.445727
L 295.931557 248.552809
L 296.068993 247.774595
L 296.343864 244.829023
L 296.618736 244.551315
L 296.893608 240.163306
L 297.031044 238.664529
L 297.16848 238.654579
L 297.305916 239.182619
L 297.580787 239.227391
L 297.718223 239.604499
L 297.993095 240.780607
L 298.130531 240.871662
L 298.267967 240.009957
L 298.680274 239.983902
L 298.81771 239.614983
L 298.955146 238.700645
L 299.092582 238.915003
L 299.230018 235.860825
L 299.367454 235.882138
L 299.50489 236.039582
L 299.642325 235.834379
L 299.917197 233.016219
L 300.192069 229.008791
L 300.329505 229.659839
L 300.466941 229.64586
L 300.604376 228.457171
L 300.879248 223.517462
L 301.016684 222.144923
L 301.291556 222.299494
L 301.428992 222.117913
L 301.566428 222.124304
L 301.978735 219.615256
L 302.116171 219.003404
L 302.253607 219.358012
L 302.391043 218.489348
L 302.528479 216.795831
L 302.80335 217.778474
L 303.215658 215.039849
L 303.49053 215.745287
L 303.765402 215.249757
L 303.902837 216.169379
L 304.040273 216.329996
L 304.315145 217.715727
L 304.452581 216.434749
L 304.590017 217.553364
L 304.864889 216.540126
L 305.002324 216.434304
L 305.414632 217.154899
L 305.552068 216.178205
L 305.82694 216.309171
L 305.964376 215.002443
L 306.101811 216.253479
L 306.376683 214.219546
L 306.651555 213.749811
L 306.788991 213.169642
L 306.926427 213.899941
L 307.063863 213.65925
L 307.201298 213.732408
L 307.338734 214.367593
L 307.47617 213.945487
L 307.751042 212.695672
L 308.025914 214.025186
L 308.163349 212.438054
L 308.575657 203.56208
L 308.713093 204.194748
L 308.987965 201.868239
L 309.262836 202.220196
L 309.400272 202.564763
L 309.537708 202.23105
L 309.675144 203.973948
L 309.81258 202.976098
L 309.950016 203.667343
L 310.224888 202.791431
L 310.362323 203.863278
L 310.499759 202.607802
L 310.774631 203.828386
L 310.912067 202.74289
L 311.186939 205.796776
L 311.324375 202.188799
L 311.46181 203.036947
L 311.599246 201.468763
L 311.736682 201.583073
L 312.011554 199.960186
L 312.14899 205.048094
L 312.286426 198.594893
L 312.561297 201.430964
L 312.698733 201.071627
L 312.836169 199.939823
L 312.973605 201.136619
L 313.248477 194.900232
L 313.523349 197.321152
L 313.660784 197.126062
L 313.935656 198.766714
L 314.073092 197.766168
L 314.210528 199.573323
L 314.347964 199.857146
L 314.4854 202.595384
L 314.760271 201.058699
L 315.035143 201.926984
L 315.172579 203.353169
L 315.310015 203.174363
L 315.722322 199.760222
L 315.997194 197.619307
L 316.13463 198.031078
L 316.272066 200.779877
L 316.409502 198.369296
L 316.546938 198.838393
L 316.684374 198.844227
L 316.821809 198.58802
L 316.959245 192.514026
L 317.096681 191.732682
L 317.234117 189.299177
L 317.371553 196.146218
L 317.508989 192.407901
L 317.783861 196.035764
L 317.921296 194.837238
L 318.058732 195.880164
L 318.333604 194.798475
L 318.608476 195.117498
L 318.745912 195.80256
L 318.883348 195.563848
L 319.020783 194.59435
L 319.158219 199.728277
L 319.295655 199.483071
L 319.433091 196.981861
L 319.570527 197.369141
L 319.707963 198.235534
L 319.845399 196.36376
L 320.257706 196.009358
L 320.395142 196.761352
L 320.532578 196.862469
L 320.670014 196.647776
L 320.80745 196.126758
L 321.082322 196.942387
L 321.219757 197.094038
L 321.494629 206.863222
L 321.632065 210.010692
L 321.906937 208.977253
L 322.044373 210.421016
L 322.181809 210.096437
L 322.319244 209.068979
L 322.45668 208.930321
L 322.594116 208.125501
L 322.731552 208.251229
L 322.868988 207.809961
L 323.006424 207.755016
L 323.14386 206.713275
L 323.281295 207.456597
L 323.418731 205.606042
L 323.556167 205.687631
L 323.693603 205.963744
L 323.831039 205.662648
L 323.968475 205.912939
L 324.105911 205.082388
L 324.380782 202.063415
L 324.518218 202.026295
L 324.930526 199.958582
L 325.067962 200.04036
L 325.205398 196.446342
L 325.480269 198.402238
L 325.617705 197.458118
L 325.755141 198.729969
L 325.892577 197.984462
L 326.304885 192.692994
L 326.442321 191.770399
L 326.579756 191.814239
L 326.717192 191.625705
L 326.854628 190.747834
L 327.1295 191.077738
L 327.541808 183.026595
L 327.679243 186.524745
L 327.816679 186.550694
L 327.954115 186.227029
L 328.091551 185.138162
L 328.366423 185.599014
L 328.503859 186.599971
L 328.641295 185.755481
L 328.77873 183.922319
L 329.053602 186.195109
L 329.191038 184.372098
L 329.328474 184.560464
L 329.46591 184.970329
L 329.878217 181.547385
L 330.015653 182.966771
L 330.153089 183.128204
L 330.290525 182.823517
L 330.977704 171.598869
L 331.252576 173.823845
L 331.390012 174.220354
L 331.939755 159.87547
L 332.214627 160.61361
L 332.352063 162.792614
L 332.489499 159.430568
L 332.626935 159.242728
L 332.764371 159.449731
L 332.901807 158.42844
L 333.176678 150.872358
L 333.45155 162.218453
L 333.588986 159.523171
L 333.726422 159.177512
L 333.863858 160.145452
L 334.001294 162.163517
L 334.138729 166.815421
L 334.413601 154.39538
L 334.551037 156.193738
L 334.688473 154.737133
L 334.963345 149.175182
L 335.100781 148.820401
L 335.238216 151.321727
L 335.375652 151.144362
L 335.513088 147.751536
L 335.650524 151.237844
L 335.78796 146.254469
L 335.925396 158.158426
L 336.062832 157.222255
L 336.200268 154.390261
L 336.337703 142.967203
L 336.475139 145.638688
L 336.612575 143.306512
L 336.750011 144.586259
L 336.887447 141.241591
L 337.162319 142.11072
L 337.299755 141.250347
L 337.43719 141.759329
L 337.574626 145.769862
L 337.712062 145.70329
L 337.849498 145.915565
L 337.986934 145.169636
L 338.12437 146.602588
L 338.261806 146.279663
L 338.399241 145.071383
L 338.536677 145.147986
L 338.674113 144.614459
L 338.811549 149.807463
L 338.948985 148.910981
L 339.223857 143.85536
L 339.361293 143.394734
L 339.498728 143.806644
L 339.636164 143.411142
L 339.7736 140.863966
L 339.911036 141.090804
L 340.048472 140.840119
L 340.185908 136.082589
L 340.323344 135.776661
L 340.46078 137.42988
L 340.598215 132.054226
L 340.735651 136.489292
L 340.873087 135.980575
L 341.010523 134.850142
L 341.147959 135.742097
L 341.285395 133.306876
L 341.560267 137.62665
L 341.697702 138.29903
L 341.972574 136.997574
L 342.11001 137.905295
L 342.247446 131.93241
L 342.384882 133.848965
L 342.522318 131.298073
L 342.659754 115.941414
L 342.797189 113.181869
L 342.934625 128.974577
L 343.072061 129.531801
L 343.346933 121.549434
L 343.621805 118.712802
L 343.759241 120.545773
L 343.896676 124.385763
L 344.034112 123.145255
L 344.308984 118.997583
L 344.583856 123.808135
L 344.721292 124.320981
L 344.858728 129.036858
L 345.271035 121.954363
L 345.408471 119.60982
L 345.820779 123.90362
L 346.09565 105.133154
L 346.233086 110.482383
L 346.370522 106.638372
L 346.507958 111.339723
L 346.645394 110.047247
L 346.78283 116.714698
L 346.920266 117.116931
L 347.057701 113.408279
L 347.195137 115.782116
L 347.470009 105.42715
L 347.607445 107.771331
L 347.882317 104.423567
L 348.019753 108.939796
L 348.157188 107.354822
L 348.43206 94.214565
L 348.569496 94.493947
L 348.706932 95.242513
L 348.844368 101.87587
L 348.981804 101.304925
L 349.11924 104.447882
L 349.256675 103.132061
L 349.394111 103.878366
L 349.531547 101.979949
L 349.668983 102.906626
L 349.806419 93.507487
L 350.081291 110.594864
L 350.218727 109.051146
L 350.356162 104.17862
L 350.76847 106.48804
L 350.905906 113.798409
L 351.043342 114.45115
L 351.180778 111.213323
L 351.318214 104.828443
L 351.455649 106.126054
L 351.593085 106.222972
L 351.730521 104.161309
L 351.867957 104.27736
L 352.005393 99.267076
L 352.142829 99.706454
L 352.280265 106.882663
L 352.417701 106.838481
L 352.555136 107.029879
L 352.692572 108.332336
L 353.10488 104.537339
L 353.379752 106.597714
L 353.517187 106.799629
L 353.654623 105.416022
L 353.792059 107.819408
L 353.929495 107.675428
L 354.066931 107.285393
L 354.204367 112.604526
L 354.341803 112.664445
L 354.479239 111.667338
L 354.75411 117.452173
L 355.028982 112.494606
L 355.166418 111.682166
L 355.303854 111.661216
L 355.44129 113.093194
L 355.578726 110.615272
L 355.716161 117.999762
L 355.853597 117.575089
L 356.128469 115.31402
L 356.265905 115.852582
L 356.540777 113.403394
L 356.678213 105.615026
L 356.815648 108.038144
L 356.953084 107.188889
L 357.09052 107.489565
L 357.227956 107.211327
L 357.365392 99.43049
L 357.640264 109.576094
L 357.7777 110.458607
L 358.052571 98.8409
L 358.327443 71.76631
L 358.464879 76.969199
L 358.739751 63.933803
L 358.877187 33.144878
L 359.014622 57.423865
L 359.152058 59.347828
L 359.289494 58.680339
L 359.42693 59.951899
L 359.701802 48.469294
L 359.839238 49.147958
L 360.114109 61.781885
L 360.251545 50.849229
L 360.388981 53.108975
L 360.526417 53.162399
L 360.801289 51.39311
L 360.938725 53.276399
L 361.07616 53.584731
L 361.213596 52.911146
L 361.488468 39.488364
L 361.625904 59.497436
L 361.76334 57.408377
L 361.900776 48.234231
L 362.038212 51.526292
L 362.175647 48.492231
L 362.313083 57.150607
L 362.450519 50.300084
L 362.587955 64.667438
L 362.725391 61.286302
L 362.862827 52.734112
L 363.000263 51.808585
L 363.137699 49.538656
L 363.41257 57.824456
L 363.550006 57.406413
L 363.962314 60.905105
L 364.237186 78.182604
L 364.374621 76.484172
L 364.649493 65.29703
L 364.786929 65.9663
L 365.061801 58.335141
L 365.199237 67.282007
L 365.336673 67.733024
L 365.474108 70.117782
L 365.74898 55.793668
L 365.886416 55.882589
L 366.023852 54.867654
L 366.161288 58.219255
L 366.43616 69.229251
L 366.573595 62.298282
L 366.711031 62.02232
L 366.848467 63.039402
L 367.123339 65.720824
L 367.260775 76.393642
L 367.535647 70.460266
L 367.673082 74.713571
L 367.673082 74.713571
" clip-path="url(#p515e3761f2)" style="fill: none; stroke: #2f6f9f; stroke-width: 1.5; stroke-linecap: square"/>
   </g>
   <g id="patch_3">
    <path d="M 37.064219 260.506696
L 37.064219 22.318125
" style="fill: none; stroke: #000000; stroke-width: 0.8; stroke-linejoin: miter; stroke-linecap: square"/>
   </g>
   <g id="patch_4">
    <path d="M 37.064219 260.506696
L 383.416362 260.506696
" style="fill: none; stroke: #000000; stroke-width: 0.8; stroke-linejoin: miter; stroke-linecap: square"/>
   </g>
   <g id="text_14">
    <!-- ETF Absorption Ratio -->
    <g transform="translate(147.639665 16.318125) scale(0.12 -0.12)">
     <defs>
      <path id="DejaVuSans-45" d="M 628 4666
L 3578 4666
L 3578 4134
L 1259 4134
L 1259 2753
L 3481 2753
L 3481 2222
L 1259 2222
L 1259 531
L 3634 531
L 3634 0
L 628 0
L 628 4666
z
" transform="scale(0.015625)"/>
      <path id="DejaVuSans-54" d="M -19 4666
L 3928 4666
L 3928 4134
L 2272 4134
L 2272 0
L 1638 0
L 1638 4134
L -19 4134
L -19 4666
z
" transform="scale(0.015625)"/>
      <path id="DejaVuSans-46" d="M 628 4666
L 3309 4666
L 3309 4134
L 1259 4134
L 1259 2759
L 3109 2759
L 3109 2228
L 1259 2228
L 1259 0
L 628 0
L 628 4666
z
" transform="scale(0.015625)"/>
      <path id="DejaVuSans-20" transform="scale(0.015625)"/>
      <path id="DejaVuSans-41" d="M 2188 4044
L 1331 1722
L 3047 1722
L 2188 4044
z
M 1831 4666
L 2547 4666
L 4325 0
L 3669 0
L 3244 1197
L 1141 1197
L 716 0
L 50 0
L 1831 4666
z
" transform="scale(0.015625)"/>
      <path id="DejaVuSans-62" d="M 3116 1747
Q 3116 2381 2855 2742
Q 2594 3103 2138 3103
Q 1681 3103 1420 2742
Q 1159 2381 1159 1747
Q 1159 1113 1420 752
Q 1681 391 2138 391
Q 2594 391 2855 752
Q 3116 1113 3116 1747
z
M 1159 2969
Q 1341 3281 1617 3432
Q 1894 3584 2278 3584
Q 2916 3584 3314 3078
Q 3713 2572 3713 1747
Q 3713 922 3314 415
Q 2916 -91 2278 -91
Q 1894 -91 1617 61
Q 1341 213 1159 525
L 1159 0
L 581 0
L 581 4863
L 1159 4863
L 1159 2969
z
" transform="scale(0.015625)"/>
      <path id="DejaVuSans-73" d="M 2834 3397
L 2834 2853
Q 2591 2978 2328 3040
Q 2066 3103 1784 3103
Q 1356 3103 1142 2972
Q 928 2841 928 2578
Q 928 2378 1081 2264
Q 1234 2150 1697 2047
L 1894 2003
Q 2506 1872 2764 1633
Q 3022 1394 3022 966
Q 3022 478 2636 193
Q 2250 -91 1575 -91
Q 1294 -91 989 -36
Q 684 19 347 128
L 347 722
Q 666 556 975 473
Q 1284 391 1588 391
Q 1994 391 2212 530
Q 2431 669 2431 922
Q 2431 1156 2273 1281
Q 2116 1406 1581 1522
L 1381 1569
Q 847 1681 609 1914
Q 372 2147 372 2553
Q 372 3047 722 3315
Q 1072 3584 1716 3584
Q 2034 3584 2315 3537
Q 2597 3491 2834 3397
z
" transform="scale(0.015625)"/>
      <path id="DejaVuSans-6f" d="M 1959 3097
Q 1497 3097 1228 2736
Q 959 2375 959 1747
Q 959 1119 1226 758
Q 1494 397 1959 397
Q 2419 397 2687 759
Q 2956 1122 2956 1747
Q 2956 2369 2687 2733
Q 2419 3097 1959 3097
z
M 1959 3584
Q 2709 3584 3137 3096
Q 3566 2609 3566 1747
Q 3566 888 3137 398
Q 2709 -91 1959 -91
Q 1206 -91 779 398
Q 353 888 353 1747
Q 353 2609 779 3096
Q 1206 3584 1959 3584
z
" transform="scale(0.015625)"/>
      <path id="DejaVuSans-72" d="M 2631 2963
Q 2534 3019 2420 3045
Q 2306 3072 2169 3072
Q 1681 3072 1420 2755
Q 1159 2438 1159 1844
L 1159 0
L 581 0
L 581 3500
L 1159 3500
L 1159 2956
Q 1341 3275 1631 3429
Q 1922 3584 2338 3584
Q 2397 3584 2469 3576
Q 2541 3569 2628 3553
L 2631 2963
z
" transform="scale(0.015625)"/>
      <path id="DejaVuSans-70" d="M 1159 525
L 1159 -1331
L 581 -1331
L 581 3500
L 1159 3500
L 1159 2969
Q 1341 3281 1617 3432
Q 1894 3584 2278 3584
Q 2916 3584 3314 3078
Q 3713 2572 3713 1747
Q 3713 922 3314 415
Q 2916 -91 2278 -91
Q 1894 -91 1617 61
Q 1341 213 1159 525
z
M 3116 1747
Q 3116 2381 2855 2742
Q 2594 3103 2138 3103
Q 1681 3103 1420 2742
Q 1159 2381 1159 1747
Q 1159 1113 1420 752
Q 1681 391 2138 391
Q 2594 391 2855 752
Q 3116 1113 3116 1747
z
" transform="scale(0.015625)"/>
      <path id="DejaVuSans-74" d="M 1172 4494
L 1172 3500
L 2356 3500
L 2356 3053
L 1172 3053
L 1172 1153
Q 1172 725 1289 603
Q 1406 481 1766 481
L 2356 481
L 2356 0
L 1766 0
Q 1100 0 847 248
Q 594 497 594 1153
L 594 3053
L 172 3053
L 172 3500
L 594 3500
L 594 4494
L 1172 4494
z
" transform="scale(0.015625)"/>
      <path id="DejaVuSans-69" d="M 603 3500
L 1178 3500
L 1178 0
L 603 0
L 603 3500
z
M 603 4863
L 1178 4863
L 1178 4134
L 603 4134
L 603 4863
z
" transform="scale(0.015625)"/>
      <path id="DejaVuSans-6e" d="M 3513 2113
L 3513 0
L 2938 0
L 2938 2094
Q 2938 2591 2744 2837
Q 2550 3084 2163 3084
Q 1697 3084 1428 2787
Q 1159 2491 1159 1978
L 1159 0
L 581 0
L 581 3500
L 1159 3500
L 1159 2956
Q 1366 3272 1645 3428
Q 1925 3584 2291 3584
Q 2894 3584 3203 3211
Q 3513 2838 3513 2113
z
" transform="scale(0.015625)"/>
      <path id="DejaVuSans-52" d="M 2841 2188
Q 3044 2119 3236 1894
Q 3428 1669 3622 1275
L 4263 0
L 3584 0
L 2988 1197
Q 2756 1666 2539 1819
Q 2322 1972 1947 1972
L 1259 1972
L 1259 0
L 628 0
L 628 4666
L 2053 4666
Q 2853 4666 3247 4331
Q 3641 3997 3641 3322
Q 3641 2881 3436 2590
Q 3231 2300 2841 2188
z
M 1259 4147
L 1259 2491
L 2053 2491
Q 2509 2491 2742 2702
Q 2975 2913 2975 3322
Q 2975 3731 2742 3939
Q 2509 4147 2053 4147
L 1259 4147
z
" transform="scale(0.015625)"/>
      <path id="DejaVuSans-61" d="M 2194 1759
Q 1497 1759 1228 1600
Q 959 1441 959 1056
Q 959 750 1161 570
Q 1363 391 1709 391
Q 2188 391 2477 730
Q 2766 1069 2766 1631
L 2766 1759
L 2194 1759
z
M 3341 1997
L 3341 0
L 2766 0
L 2766 531
Q 2569 213 2275 61
Q 1981 -91 1556 -91
Q 1019 -91 701 211
Q 384 513 384 1019
Q 384 1609 779 1909
Q 1175 2209 1959 2209
L 2766 2209
L 2766 2266
Q 2766 2663 2505 2880
Q 2244 3097 1772 3097
Q 1472 3097 1187 3025
Q 903 2953 641 2809
L 641 3341
Q 956 3463 1253 3523
Q 1550 3584 1831 3584
Q 2591 3584 2966 3190
Q 3341 2797 3341 1997
z
" transform="scale(0.015625)"/>
     </defs>
     <use xlink:href="#DejaVuSans-45"/>
     <use xlink:href="#DejaVuSans-54" transform="translate(63.183594 0)"/>
     <use xlink:href="#DejaVuSans-46" transform="translate(124.267578 0)"/>
     <use xlink:href="#DejaVuSans-20" transform="translate(181.787109 0)"/>
     <use xlink:href="#DejaVuSans-41" transform="translate(213.574219 0)"/>
     <use xlink:href="#DejaVuSans-62" transform="translate(281.982422 0)"/>
     <use xlink:href="#DejaVuSans-73" transform="translate(345.458984 0)"/>
     <use xlink:href="#DejaVuSans-6f" transform="translate(397.558594 0)"/>
     <use xlink:href="#DejaVuSans-72" transform="translate(458.740234 0)"/>
     <use xlink:href="#DejaVuSans-70" transform="translate(499.853516 0)"/>
     <use xlink:href="#DejaVuSans-74" transform="translate(563.330078 0)"/>
     <use xlink:href="#DejaVuSans-69" transform="translate(602.539062 0)"/>
     <use xlink:href="#DejaVuSans-6f" transform="translate(630.322266 0)"/>
     <use xlink:href="#DejaVuSans-6e" transform="translate(691.503906 0)"/>
     <use xlink:href="#DejaVuSans-20" transform="translate(754.882812 0)"/>
     <use xlink:href="#DejaVuSans-52" transform="translate(786.669922 0)"/>
     <use xlink:href="#DejaVuSans-61" transform="translate(853.902344 0)"/>
     <use xlink:href="#DejaVuSans-74" transform="translate(915.181641 0)"/>
     <use xlink:href="#DejaVuSans-69" transform="translate(954.390625 0)"/>
     <use xlink:href="#DejaVuSans-6f" transform="translate(982.173828 0)"/>
    </g>
   </g>
   <g id="legend_1">
    <g id="line2d_29">
     <path d="M 45.164219 34.106719
L 54.164219 34.106719
L 63.164219 34.106719
" style="fill: none; stroke: #d9a441; stroke-width: 1.5; stroke-linecap: square"/>
    </g>
    <g id="text_15">
     <!-- BTC -->
     <g transform="translate(70.364219 37.256719) scale(0.09 -0.09)">
      <defs>
       <path id="DejaVuSans-42" d="M 1259 2228
L 1259 519
L 2272 519
Q 2781 519 3026 730
Q 3272 941 3272 1375
Q 3272 1813 3026 2020
Q 2781 2228 2272 2228
L 1259 2228
z
M 1259 4147
L 1259 2741
L 2194 2741
Q 2656 2741 2882 2914
Q 3109 3088 3109 3444
Q 3109 3797 2882 3972
Q 2656 4147 2194 4147
L 1259 4147
z
M 628 4666
L 2241 4666
Q 2963 4666 3353 4366
Q 3744 4066 3744 3513
Q 3744 3084 3544 2831
Q 3344 2578 2956 2516
Q 3422 2416 3680 2098
Q 3938 1781 3938 1306
Q 3938 681 3513 340
Q 3088 0 2303 0
L 628 0
L 628 4666
z
" transform="scale(0.015625)"/>
       <path id="DejaVuSans-43" d="M 4122 4306
L 4122 3641
Q 3803 3938 3442 4084
Q 3081 4231 2675 4231
Q 1875 4231 1450 3742
Q 1025 3253 1025 2328
Q 1025 1406 1450 917
Q 1875 428 2675 428
Q 3081 428 3442 575
Q 3803 722 4122 1019
L 4122 359
Q 3791 134 3420 21
Q 3050 -91 2638 -91
Q 1578 -91 968 557
Q 359 1206 359 2328
Q 359 3453 968 4101
Q 1578 4750 2638 4750
Q 3056 4750 3426 4639
Q 3797 4528 4122 4306
z
" transform="scale(0.015625)"/>
      </defs>
      <use xlink:href="#DejaVuSans-42"/>
      <use xlink:href="#DejaVuSans-54" transform="translate(68.603516 0)"/>
      <use xlink:href="#DejaVuSans-43" transform="translate(123.8125 0)"/>
     </g>
    </g>
    <g id="line2d_30">
     <path d="M 45.164219 47.317031
L 54.164219 47.317031
L 63.164219 47.317031
" style="fill: none; stroke: #2f6f9f; stroke-width: 1.5; stroke-linecap: square"/>
    </g>
    <g id="text_16">
     <!-- ETH -->
     <g transform="translate(70.364219 50.467031) scale(0.09 -0.09)">
      <defs>
       <path id="DejaVuSans-48" d="M 628 4666
L 1259 4666
L 1259 2753
L 3553 2753
L 3553 4666
L 4184 4666
L 4184 0
L 3553 0
L 3553 2222
L 1259 2222
L 1259 0
L 628 0
L 628 4666
z
" transform="scale(0.015625)"/>
      </defs>
      <use xlink:href="#DejaVuSans-45"/>
      <use xlink:href="#DejaVuSans-54" transform="translate(63.183594 0)"/>
      <use xlink:href="#DejaVuSans-48" transform="translate(124.267578 0)"/>
     </g>
    </g>
   </g>
  </g>
  <g id="axes_2">
   <g id="patch_5">
    <path d="M 433.386362 260.506696
L 779.738504 260.506696
L 779.738504 22.318125
L 433.386362 22.318125
z
" style="fill: #ffffff"/>
   </g>
   <g id="patch_6">
    <path d="M 449.129641 260.506696
L 501.607238 260.506696
L 501.607238 170.21887
L 449.129641 170.21887
z
" clip-path="url(#pcb74094b5f)" style="fill: #5b7289"/>
   </g>
   <g id="patch_7">
    <path d="M 514.726638 260.506696
L 567.204235 260.506696
L 567.204235 57.785779
L 514.726638 57.785779
z
" clip-path="url(#pcb74094b5f)" style="fill: #5b7289"/>
   </g>
   <g id="patch_8">
    <path d="M 580.323634 260.506696
L 632.801232 260.506696
L 632.801232 33.660438
L 580.323634 33.660438
z
" clip-path="url(#pcb74094b5f)" style="fill: #5b7289"/>
   </g>
   <g id="patch_9">
    <path d="M 645.920631 260.506696
L 698.398228 260.506696
L 698.398228 240.00757
L 645.920631 240.00757
z
" clip-path="url(#pcb74094b5f)" style="fill: #5b7289"/>
   </g>
   <g id="patch_10">
    <path d="M 711.517628 260.506696
L 763.995225 260.506696
L 763.995225 256.442852
L 711.517628 256.442852
z
" clip-path="url(#pcb74094b5f)" style="fill: #5b7289"/>
   </g>
   <g id="matplotlib.axis_3">
    <g id="xtick_8">
     <g id="line2d_31">
      <path d="M 475.36844 260.506696
L 475.36844 22.318125
" clip-path="url(#pcb74094b5f)" style="fill: none; stroke: #b0b0b0; stroke-opacity: 0.22; stroke-width: 0.8; stroke-linecap: square"/>
     </g>
     <g id="line2d_32">
      <g>
       <use xlink:href="#m2b68f9022f" x="475.36844" y="260.506696" style="stroke: #000000; stroke-width: 0.8"/>
      </g>
     </g>
     <g id="text_17">
      <!-- -2 -->
      <g transform="translate(470.881799 274.34529) scale(0.09 -0.09)">
       <defs>
        <path id="DejaVuSans-2d" d="M 313 2009
L 1997 2009
L 1997 1497
L 313 1497
L 313 2009
z
" transform="scale(0.015625)"/>
       </defs>
       <use xlink:href="#DejaVuSans-2d"/>
       <use xlink:href="#DejaVuSans-32" transform="translate(36.083984 0)"/>
      </g>
     </g>
    </g>
    <g id="xtick_9">
     <g id="line2d_33">
      <path d="M 540.965436 260.506696
L 540.965436 22.318125
" clip-path="url(#pcb74094b5f)" style="fill: none; stroke: #b0b0b0; stroke-opacity: 0.22; stroke-width: 0.8; stroke-linecap: square"/>
     </g>
     <g id="line2d_34">
      <g>
       <use xlink:href="#m2b68f9022f" x="540.965436" y="260.506696" style="stroke: #000000; stroke-width: 0.8"/>
      </g>
     </g>
     <g id="text_18">
      <!-- -1 -->
      <g transform="translate(536.478796 274.34529) scale(0.09 -0.09)">
       <use xlink:href="#DejaVuSans-2d"/>
       <use xlink:href="#DejaVuSans-31" transform="translate(36.083984 0)"/>
      </g>
     </g>
    </g>
    <g id="xtick_10">
     <g id="line2d_35">
      <path d="M 606.562433 260.506696
L 606.562433 22.318125
" clip-path="url(#pcb74094b5f)" style="fill: none; stroke: #b0b0b0; stroke-opacity: 0.22; stroke-width: 0.8; stroke-linecap: square"/>
     </g>
     <g id="line2d_36">
      <g>
       <use xlink:href="#m2b68f9022f" x="606.562433" y="260.506696" style="stroke: #000000; stroke-width: 0.8"/>
      </g>
     </g>
     <g id="text_19">
      <!-- 0 -->
      <g transform="translate(603.699308 274.34529) scale(0.09 -0.09)">
       <use xlink:href="#DejaVuSans-30"/>
      </g>
     </g>
    </g>
    <g id="xtick_11">
     <g id="line2d_37">
      <path d="M 672.15943 260.506696
L 672.15943 22.318125
" clip-path="url(#pcb74094b5f)" style="fill: none; stroke: #b0b0b0; stroke-opacity: 0.22; stroke-width: 0.8; stroke-linecap: square"/>
     </g>
     <g id="line2d_38">
      <g>
       <use xlink:href="#m2b68f9022f" x="672.15943" y="260.506696" style="stroke: #000000; stroke-width: 0.8"/>
      </g>
     </g>
     <g id="text_20">
      <!-- 1 -->
      <g transform="translate(669.296305 274.34529) scale(0.09 -0.09)">
       <use xlink:href="#DejaVuSans-31"/>
      </g>
     </g>
    </g>
    <g id="xtick_12">
     <g id="line2d_39">
      <path d="M 737.756427 260.506696
L 737.756427 22.318125
" clip-path="url(#pcb74094b5f)" style="fill: none; stroke: #b0b0b0; stroke-opacity: 0.22; stroke-width: 0.8; stroke-linecap: square"/>
     </g>
     <g id="line2d_40">
      <g>
       <use xlink:href="#m2b68f9022f" x="737.756427" y="260.506696" style="stroke: #000000; stroke-width: 0.8"/>
      </g>
     </g>
     <g id="text_21">
      <!-- 2 -->
      <g transform="translate(734.893302 274.34529) scale(0.09 -0.09)">
       <use xlink:href="#DejaVuSans-32"/>
      </g>
     </g>
    </g>
    <g id="text_22">
     <!-- Flow lag days -->
     <g transform="translate(575.943449 287.055603) scale(0.09 -0.09)">
      <defs>
       <path id="DejaVuSans-6c" d="M 603 4863
L 1178 4863
L 1178 0
L 603 0
L 603 4863
z
" transform="scale(0.015625)"/>
       <path id="DejaVuSans-77" d="M 269 3500
L 844 3500
L 1563 769
L 2278 3500
L 2956 3500
L 3675 769
L 4391 3500
L 4966 3500
L 4050 0
L 3372 0
L 2619 2869
L 1863 0
L 1184 0
L 269 3500
z
" transform="scale(0.015625)"/>
       <path id="DejaVuSans-67" d="M 2906 1791
Q 2906 2416 2648 2759
Q 2391 3103 1925 3103
Q 1463 3103 1205 2759
Q 947 2416 947 1791
Q 947 1169 1205 825
Q 1463 481 1925 481
Q 2391 481 2648 825
Q 2906 1169 2906 1791
z
M 3481 434
Q 3481 -459 3084 -895
Q 2688 -1331 1869 -1331
Q 1566 -1331 1297 -1286
Q 1028 -1241 775 -1147
L 775 -588
Q 1028 -725 1275 -790
Q 1522 -856 1778 -856
Q 2344 -856 2625 -561
Q 2906 -266 2906 331
L 2906 616
Q 2728 306 2450 153
Q 2172 0 1784 0
Q 1141 0 747 490
Q 353 981 353 1791
Q 353 2603 747 3093
Q 1141 3584 1784 3584
Q 2172 3584 2450 3431
Q 2728 3278 2906 2969
L 2906 3500
L 3481 3500
L 3481 434
z
" transform="scale(0.015625)"/>
       <path id="DejaVuSans-64" d="M 2906 2969
L 2906 4863
L 3481 4863
L 3481 0
L 2906 0
L 2906 525
Q 2725 213 2448 61
Q 2172 -91 1784 -91
Q 1150 -91 751 415
Q 353 922 353 1747
Q 353 2572 751 3078
Q 1150 3584 1784 3584
Q 2172 3584 2448 3432
Q 2725 3281 2906 2969
z
M 947 1747
Q 947 1113 1208 752
Q 1469 391 1925 391
Q 2381 391 2643 752
Q 2906 1113 2906 1747
Q 2906 2381 2643 2742
Q 2381 3103 1925 3103
Q 1469 3103 1208 2742
Q 947 2381 947 1747
z
" transform="scale(0.015625)"/>
       <path id="DejaVuSans-79" d="M 2059 -325
Q 1816 -950 1584 -1140
Q 1353 -1331 966 -1331
L 506 -1331
L 506 -850
L 844 -850
Q 1081 -850 1212 -737
Q 1344 -625 1503 -206
L 1606 56
L 191 3500
L 800 3500
L 1894 763
L 2988 3500
L 3597 3500
L 2059 -325
z
" transform="scale(0.015625)"/>
      </defs>
      <use xlink:href="#DejaVuSans-46"/>
      <use xlink:href="#DejaVuSans-6c" transform="translate(57.519531 0)"/>
      <use xlink:href="#DejaVuSans-6f" transform="translate(85.302734 0)"/>
      <use xlink:href="#DejaVuSans-77" transform="translate(146.484375 0)"/>
      <use xlink:href="#DejaVuSans-20" transform="translate(228.271484 0)"/>
      <use xlink:href="#DejaVuSans-6c" transform="translate(260.058594 0)"/>
      <use xlink:href="#DejaVuSans-61" transform="translate(287.841797 0)"/>
      <use xlink:href="#DejaVuSans-67" transform="translate(349.121094 0)"/>
      <use xlink:href="#DejaVuSans-20" transform="translate(412.597656 0)"/>
      <use xlink:href="#DejaVuSans-64" transform="translate(444.384766 0)"/>
      <use xlink:href="#DejaVuSans-61" transform="translate(507.861328 0)"/>
      <use xlink:href="#DejaVuSans-79" transform="translate(569.140625 0)"/>
      <use xlink:href="#DejaVuSans-73" transform="translate(628.320312 0)"/>
     </g>
    </g>
   </g>
   <g id="matplotlib.axis_4">
    <g id="ytick_7">
     <g id="line2d_41">
      <path d="M 433.386362 260.506696
L 779.738504 260.506696
" clip-path="url(#pcb74094b5f)" style="fill: none; stroke: #b0b0b0; stroke-opacity: 0.22; stroke-width: 0.8; stroke-linecap: square"/>
     </g>
     <g id="line2d_42">
      <g>
       <use xlink:href="#mfde1c9b6aa" x="433.386362" y="260.506696" style="stroke: #000000; stroke-width: 0.8"/>
      </g>
     </g>
     <g id="text_23">
      <!-- 0.00 -->
      <g transform="translate(406.347299 263.925993) scale(0.09 -0.09)">
       <use xlink:href="#DejaVuSans-30"/>
       <use xlink:href="#DejaVuSans-2e" transform="translate(63.623047 0)"/>
       <use xlink:href="#DejaVuSans-30" transform="translate(95.410156 0)"/>
       <use xlink:href="#DejaVuSans-30" transform="translate(159.033203 0)"/>
      </g>
     </g>
    </g>
    <g id="ytick_8">
     <g id="line2d_43">
      <path d="M 433.386362 230.184608
L 779.738504 230.184608
" clip-path="url(#pcb74094b5f)" style="fill: none; stroke: #b0b0b0; stroke-opacity: 0.22; stroke-width: 0.8; stroke-linecap: square"/>
     </g>
     <g id="line2d_44">
      <g>
       <use xlink:href="#mfde1c9b6aa" x="433.386362" y="230.184608" style="stroke: #000000; stroke-width: 0.8"/>
      </g>
     </g>
     <g id="text_24">
      <!-- 0.05 -->
      <g transform="translate(406.347299 233.603905) scale(0.09 -0.09)">
       <use xlink:href="#DejaVuSans-30"/>
       <use xlink:href="#DejaVuSans-2e" transform="translate(63.623047 0)"/>
       <use xlink:href="#DejaVuSans-30" transform="translate(95.410156 0)"/>
       <use xlink:href="#DejaVuSans-35" transform="translate(159.033203 0)"/>
      </g>
     </g>
    </g>
    <g id="ytick_9">
     <g id="line2d_45">
      <path d="M 433.386362 199.862519
L 779.738504 199.862519
" clip-path="url(#pcb74094b5f)" style="fill: none; stroke: #b0b0b0; stroke-opacity: 0.22; stroke-width: 0.8; stroke-linecap: square"/>
     </g>
     <g id="line2d_46">
      <g>
       <use xlink:href="#mfde1c9b6aa" x="433.386362" y="199.862519" style="stroke: #000000; stroke-width: 0.8"/>
      </g>
     </g>
     <g id="text_25">
      <!-- 0.10 -->
      <g transform="translate(406.347299 203.281816) scale(0.09 -0.09)">
       <use xlink:href="#DejaVuSans-30"/>
       <use xlink:href="#DejaVuSans-2e" transform="translate(63.623047 0)"/>
       <use xlink:href="#DejaVuSans-31" transform="translate(95.410156 0)"/>
       <use xlink:href="#DejaVuSans-30" transform="translate(159.033203 0)"/>
      </g>
     </g>
    </g>
    <g id="ytick_10">
     <g id="line2d_47">
      <path d="M 433.386362 169.540431
L 779.738504 169.540431
" clip-path="url(#pcb74094b5f)" style="fill: none; stroke: #b0b0b0; stroke-opacity: 0.22; stroke-width: 0.8; stroke-linecap: square"/>
     </g>
     <g id="line2d_48">
      <g>
       <use xlink:href="#mfde1c9b6aa" x="433.386362" y="169.540431" style="stroke: #000000; stroke-width: 0.8"/>
      </g>
     </g>
     <g id="text_26">
      <!-- 0.15 -->
      <g transform="translate(406.347299 172.959727) scale(0.09 -0.09)">
       <use xlink:href="#DejaVuSans-30"/>
       <use xlink:href="#DejaVuSans-2e" transform="translate(63.623047 0)"/>
       <use xlink:href="#DejaVuSans-31" transform="translate(95.410156 0)"/>
       <use xlink:href="#DejaVuSans-35" transform="translate(159.033203 0)"/>
      </g>
     </g>
    </g>
    <g id="ytick_11">
     <g id="line2d_49">
      <path d="M 433.386362 139.218342
L 779.738504 139.218342
" clip-path="url(#pcb74094b5f)" style="fill: none; stroke: #b0b0b0; stroke-opacity: 0.22; stroke-width: 0.8; stroke-linecap: square"/>
     </g>
     <g id="line2d_50">
      <g>
       <use xlink:href="#mfde1c9b6aa" x="433.386362" y="139.218342" style="stroke: #000000; stroke-width: 0.8"/>
      </g>
     </g>
     <g id="text_27">
      <!-- 0.20 -->
      <g transform="translate(406.347299 142.637639) scale(0.09 -0.09)">
       <use xlink:href="#DejaVuSans-30"/>
       <use xlink:href="#DejaVuSans-2e" transform="translate(63.623047 0)"/>
       <use xlink:href="#DejaVuSans-32" transform="translate(95.410156 0)"/>
       <use xlink:href="#DejaVuSans-30" transform="translate(159.033203 0)"/>
      </g>
     </g>
    </g>
    <g id="ytick_12">
     <g id="line2d_51">
      <path d="M 433.386362 108.896253
L 779.738504 108.896253
" clip-path="url(#pcb74094b5f)" style="fill: none; stroke: #b0b0b0; stroke-opacity: 0.22; stroke-width: 0.8; stroke-linecap: square"/>
     </g>
     <g id="line2d_52">
      <g>
       <use xlink:href="#mfde1c9b6aa" x="433.386362" y="108.896253" style="stroke: #000000; stroke-width: 0.8"/>
      </g>
     </g>
     <g id="text_28">
      <!-- 0.25 -->
      <g transform="translate(406.347299 112.31555) scale(0.09 -0.09)">
       <use xlink:href="#DejaVuSans-30"/>
       <use xlink:href="#DejaVuSans-2e" transform="translate(63.623047 0)"/>
       <use xlink:href="#DejaVuSans-32" transform="translate(95.410156 0)"/>
       <use xlink:href="#DejaVuSans-35" transform="translate(159.033203 0)"/>
      </g>
     </g>
    </g>
    <g id="ytick_13">
     <g id="line2d_53">
      <path d="M 433.386362 78.574165
L 779.738504 78.574165
" clip-path="url(#pcb74094b5f)" style="fill: none; stroke: #b0b0b0; stroke-opacity: 0.22; stroke-width: 0.8; stroke-linecap: square"/>
     </g>
     <g id="line2d_54">
      <g>
       <use xlink:href="#mfde1c9b6aa" x="433.386362" y="78.574165" style="stroke: #000000; stroke-width: 0.8"/>
      </g>
     </g>
     <g id="text_29">
      <!-- 0.30 -->
      <g transform="translate(406.347299 81.993462) scale(0.09 -0.09)">
       <use xlink:href="#DejaVuSans-30"/>
       <use xlink:href="#DejaVuSans-2e" transform="translate(63.623047 0)"/>
       <use xlink:href="#DejaVuSans-33" transform="translate(95.410156 0)"/>
       <use xlink:href="#DejaVuSans-30" transform="translate(159.033203 0)"/>
      </g>
     </g>
    </g>
    <g id="ytick_14">
     <g id="line2d_55">
      <path d="M 433.386362 48.252076
L 779.738504 48.252076
" clip-path="url(#pcb74094b5f)" style="fill: none; stroke: #b0b0b0; stroke-opacity: 0.22; stroke-width: 0.8; stroke-linecap: square"/>
     </g>
     <g id="line2d_56">
      <g>
       <use xlink:href="#mfde1c9b6aa" x="433.386362" y="48.252076" style="stroke: #000000; stroke-width: 0.8"/>
      </g>
     </g>
     <g id="text_30">
      <!-- 0.35 -->
      <g transform="translate(406.347299 51.671373) scale(0.09 -0.09)">
       <use xlink:href="#DejaVuSans-30"/>
       <use xlink:href="#DejaVuSans-2e" transform="translate(63.623047 0)"/>
       <use xlink:href="#DejaVuSans-33" transform="translate(95.410156 0)"/>
       <use xlink:href="#DejaVuSans-35" transform="translate(159.033203 0)"/>
      </g>
     </g>
    </g>
    <g id="text_31">
     <!-- Correlation -->
     <g transform="translate(400.47558 166.224286) rotate(-90) scale(0.09 -0.09)">
      <defs>
       <path id="DejaVuSans-65" d="M 3597 1894
L 3597 1613
L 953 1613
Q 991 1019 1311 708
Q 1631 397 2203 397
Q 2534 397 2845 478
Q 3156 559 3463 722
L 3463 178
Q 3153 47 2828 -22
Q 2503 -91 2169 -91
Q 1331 -91 842 396
Q 353 884 353 1716
Q 353 2575 817 3079
Q 1281 3584 2069 3584
Q 2775 3584 3186 3129
Q 3597 2675 3597 1894
z
M 3022 2063
Q 3016 2534 2758 2815
Q 2500 3097 2075 3097
Q 1594 3097 1305 2825
Q 1016 2553 972 2059
L 3022 2063
z
" transform="scale(0.015625)"/>
      </defs>
      <use xlink:href="#DejaVuSans-43"/>
      <use xlink:href="#DejaVuSans-6f" transform="translate(69.824219 0)"/>
      <use xlink:href="#DejaVuSans-72" transform="translate(131.005859 0)"/>
      <use xlink:href="#DejaVuSans-72" transform="translate(170.369141 0)"/>
      <use xlink:href="#DejaVuSans-65" transform="translate(209.232422 0)"/>
      <use xlink:href="#DejaVuSans-6c" transform="translate(270.755859 0)"/>
      <use xlink:href="#DejaVuSans-61" transform="translate(298.539062 0)"/>
      <use xlink:href="#DejaVuSans-74" transform="translate(359.818359 0)"/>
      <use xlink:href="#DejaVuSans-69" transform="translate(399.027344 0)"/>
      <use xlink:href="#DejaVuSans-6f" transform="translate(426.810547 0)"/>
      <use xlink:href="#DejaVuSans-6e" transform="translate(487.992188 0)"/>
     </g>
    </g>
   </g>
   <g id="patch_11">
    <path d="M 433.386362 260.506696
L 433.386362 22.318125
" style="fill: none; stroke: #000000; stroke-width: 0.8; stroke-linejoin: miter; stroke-linecap: square"/>
   </g>
   <g id="patch_12">
    <path d="M 433.386362 260.506696
L 779.738504 260.506696
" style="fill: none; stroke: #000000; stroke-width: 0.8; stroke-linejoin: miter; stroke-linecap: square"/>
   </g>
   <g id="text_32">
    <!-- BTC Flow-Return Association -->
    <g transform="translate(521.197433 16.318125) scale(0.12 -0.12)">
     <defs>
      <path id="DejaVuSans-75" d="M 544 1381
L 544 3500
L 1119 3500
L 1119 1403
Q 1119 906 1312 657
Q 1506 409 1894 409
Q 2359 409 2629 706
Q 2900 1003 2900 1516
L 2900 3500
L 3475 3500
L 3475 0
L 2900 0
L 2900 538
Q 2691 219 2414 64
Q 2138 -91 1772 -91
Q 1169 -91 856 284
Q 544 659 544 1381
z
M 1991 3584
L 1991 3584
z
" transform="scale(0.015625)"/>
      <path id="DejaVuSans-63" d="M 3122 3366
L 3122 2828
Q 2878 2963 2633 3030
Q 2388 3097 2138 3097
Q 1578 3097 1268 2742
Q 959 2388 959 1747
Q 959 1106 1268 751
Q 1578 397 2138 397
Q 2388 397 2633 464
Q 2878 531 3122 666
L 3122 134
Q 2881 22 2623 -34
Q 2366 -91 2075 -91
Q 1284 -91 818 406
Q 353 903 353 1747
Q 353 2603 823 3093
Q 1294 3584 2113 3584
Q 2378 3584 2631 3529
Q 2884 3475 3122 3366
z
" transform="scale(0.015625)"/>
     </defs>
     <use xlink:href="#DejaVuSans-42"/>
     <use xlink:href="#DejaVuSans-54" transform="translate(68.603516 0)"/>
     <use xlink:href="#DejaVuSans-43" transform="translate(123.8125 0)"/>
     <use xlink:href="#DejaVuSans-20" transform="translate(193.636719 0)"/>
     <use xlink:href="#DejaVuSans-46" transform="translate(225.423828 0)"/>
     <use xlink:href="#DejaVuSans-6c" transform="translate(282.943359 0)"/>
     <use xlink:href="#DejaVuSans-6f" transform="translate(310.726562 0)"/>
     <use xlink:href="#DejaVuSans-77" transform="translate(371.908203 0)"/>
     <use xlink:href="#DejaVuSans-2d" transform="translate(453.695312 0)"/>
     <use xlink:href="#DejaVuSans-52" transform="translate(489.779297 0)"/>
     <use xlink:href="#DejaVuSans-65" transform="translate(554.761719 0)"/>
     <use xlink:href="#DejaVuSans-74" transform="translate(616.285156 0)"/>
     <use xlink:href="#DejaVuSans-75" transform="translate(655.494141 0)"/>
     <use xlink:href="#DejaVuSans-72" transform="translate(718.873047 0)"/>
     <use xlink:href="#DejaVuSans-6e" transform="translate(758.236328 0)"/>
     <use xlink:href="#DejaVuSans-20" transform="translate(821.615234 0)"/>
     <use xlink:href="#DejaVuSans-41" transform="translate(853.402344 0)"/>
     <use xlink:href="#DejaVuSans-73" transform="translate(921.810547 0)"/>
     <use xlink:href="#DejaVuSans-73" transform="translate(973.910156 0)"/>
     <use xlink:href="#DejaVuSans-6f" transform="translate(1026.009766 0)"/>
     <use xlink:href="#DejaVuSans-63" transform="translate(1087.191406 0)"/>
     <use xlink:href="#DejaVuSans-69" transform="translate(1142.171875 0)"/>
     <use xlink:href="#DejaVuSans-61" transform="translate(1169.955078 0)"/>
     <use xlink:href="#DejaVuSans-74" transform="translate(1231.234375 0)"/>
     <use xlink:href="#DejaVuSans-69" transform="translate(1270.443359 0)"/>
     <use xlink:href="#DejaVuSans-6f" transform="translate(1298.226562 0)"/>
     <use xlink:href="#DejaVuSans-6e" transform="translate(1359.408203 0)"/>
    </g>
   </g>
  </g>
 </g>
 <defs>
  <clipPath id="p515e3761f2">
   <rect x="37.064219" y="22.318125" width="346.352143" height="238.188571"/>
  </clipPath>
  <clipPath id="pcb74094b5f">
   <rect x="433.386362" y="22.318125" width="346.352143" height="238.188571"/>
  </clipPath>
 </defs>
</svg>
