<?xml version="1.0" encoding="utf-8" standalone="no"?>
<!DOCTYPE svg PUBLIC "-//W3C//DTD SVG 1.1//EN"
  "http://www.w3.org/Graphics/SVG/1.1/DTD/svg11.dtd">
<svg xmlns:xlink="http://www.w3.org/1999/xlink" width="961.941875pt" height="395.44375pt" viewBox="0 0 961.941875 395.44375" xmlns="http://www.w3.org/2000/svg" version="1.1">
 <metadata>
  <rdf:RDF xmlns:dc="http://purl.org/dc/elements/1.1/" xmlns:cc="http://creativecommons.org/ns#" xmlns:rdf="http://www.w3.org/1999/02/22-rdf-syntax-ns#">
   <cc:Work>
    <dc:type rdf:resource="http://purl.org/dc/dcmitype/StillImage"/>
    <dc:format>image/svg+xml</dc:format>
    <dc:creator>
     <cc:Agent>
      <dc:title>Matplotlib v3.10.8, https://matplotlib.org/</dc:title>
     </cc:Agent>
    </dc:creator>
   </cc:Work>
  </rdf:RDF>
 </metadata>
 <defs>
  <style type="text/css">*{stroke-linejoin: round; stroke-linecap: butt}</style>
 </defs>
 <g id="figure_1">
  <g id="patch_1">
   <path d="M 0 395.44375
L 961.941875 395.44375
L 961.941875 0
L 0 0
z
" style="fill: #ffffff"/>
  </g>
  <g id="axes_1">
   <g id="patch_2">
    <path d="M 47.541875 359.28
L 438.576358 359.28
L 438.576358 91.44
L 47.541875 91.44
z
" style="fill: #ffffff"/>
   </g>
   <g id="matplotlib.axis_1">
    <g id="xtick_1">
     <g id="text_1">
      <!-- Q1 low -->
      <g style="fill: #6f768a" transform="translate(100.511587 370.183125) scale(0.1 -0.1)">
       <defs>
        <path id="SegoeUI-51" d="M 2394 -75
Q 1444 -75 866 553
Q 294 1181 294 2188
Q 294 3272 878 3913
Q 1466 4556 2469 4556
Q 3394 4556 3963 3931
Q 4531 3306 4531 2297
Q 4531 1200 3950 563
Q 3813 409 3656 300
L 4916 -603
L 3963 -603
L 3119 28
Q 2788 -75 2394 -75
z
M 2431 4081
Q 1725 4081 1284 3572
Q 844 3063 844 2234
Q 844 1409 1272 900
Q 1703 397 2394 397
Q 3131 397 3556 878
Q 3981 1359 3981 2225
Q 3981 3116 3569 3597
Q 3156 4081 2431 4081
z
" transform="scale(0.015625)"/>
        <path id="SegoeUI-31" d="M 2263 0
L 1750 0
L 1750 3872
Q 1691 3813 1577 3736
Q 1463 3659 1320 3584
Q 1178 3509 1020 3443
Q 863 3378 713 3341
L 713 3859
Q 881 3906 1070 3986
Q 1259 4066 1442 4164
Q 1625 4263 1787 4370
Q 1950 4478 2069 4581
L 2263 4581
L 2263 0
z
" transform="scale(0.015625)"/>
        <path id="SegoeUI-20" transform="scale(0.015625)"/>
        <path id="SegoeUI-6c" d="M 1031 0
L 519 0
L 519 4738
L 1031 4738
L 1031 0
z
" transform="scale(0.015625)"/>
        <path id="SegoeUI-6f" d="M 1856 -75
Q 1147 -75 723 373
Q 300 822 300 1563
Q 300 2369 740 2822
Q 1181 3275 1931 3275
Q 2647 3275 3048 2834
Q 3450 2394 3450 1613
Q 3450 847 3017 386
Q 2584 -75 1856 -75
z
M 1894 2844
Q 1400 2844 1112 2508
Q 825 2172 825 1581
Q 825 1013 1115 684
Q 1406 356 1894 356
Q 2391 356 2658 678
Q 2925 1000 2925 1594
Q 2925 2194 2658 2519
Q 2391 2844 1894 2844
z
" transform="scale(0.015625)"/>
        <path id="SegoeUI-77" d="M 4550 3200
L 3591 0
L 3059 0
L 2400 2291
Q 2363 2422 2350 2588
L 2338 2588
Q 2328 2475 2272 2297
L 1556 0
L 1044 0
L 75 3200
L 613 3200
L 1275 794
Q 1306 684 1319 506
L 1344 506
Q 1353 644 1400 800
L 2138 3200
L 2606 3200
L 3269 788
Q 3300 672 3316 500
L 3341 500
Q 3347 622 3394 788
L 4044 3200
L 4550 3200
z
" transform="scale(0.015625)"/>
       </defs>
       <use xlink:href="#SegoeUI-51"/>
       <use xlink:href="#SegoeUI-31" transform="translate(75.390625 0)"/>
       <use xlink:href="#SegoeUI-20" transform="translate(129.296875 0)"/>
       <use xlink:href="#SegoeUI-6c" transform="translate(156.689453 0)"/>
       <use xlink:href="#SegoeUI-6f" transform="translate(180.908203 0)"/>
       <use xlink:href="#SegoeUI-77" transform="translate(239.501953 0)"/>
      </g>
     </g>
    </g>
    <g id="xtick_2">
     <g id="text_2">
      <!-- Q3 -->
      <g style="fill: #6f768a" transform="translate(236.594273 370.183125) scale(0.1 -0.1)">
       <defs>
        <path id="SegoeUI-33" d="M 2978 1269
Q 2978 966 2864 717
Q 2750 469 2542 292
Q 2334 116 2043 19
Q 1753 -78 1403 -78
Q 763 -78 384 166
L 384 716
Q 838 359 1422 359
Q 1656 359 1845 418
Q 2034 478 2170 590
Q 2306 703 2379 862
Q 2453 1022 2453 1222
Q 2453 2100 1203 2100
L 831 2100
L 831 2534
L 1184 2534
Q 2291 2534 2291 3359
Q 2291 4122 1447 4122
Q 972 4122 556 3803
L 556 4300
Q 984 4556 1575 4556
Q 1856 4556 2084 4478
Q 2313 4400 2475 4259
Q 2638 4119 2727 3922
Q 2816 3725 2816 3488
Q 2816 2603 1922 2350
L 1922 2338
Q 2150 2313 2344 2227
Q 2538 2141 2678 2003
Q 2819 1866 2898 1680
Q 2978 1494 2978 1269
z
" transform="scale(0.015625)"/>
       </defs>
       <use xlink:href="#SegoeUI-51"/>
       <use xlink:href="#SegoeUI-33" transform="translate(75.390625 0)"/>
      </g>
     </g>
    </g>
    <g id="xtick_3">
     <g id="text_3">
      <!-- Q5 high -->
      <g style="fill: #6f768a" transform="translate(352.369145 370.183125) scale(0.1 -0.1)">
       <defs>
        <path id="SegoeUI-35" d="M 3028 1369
Q 3028 1041 2915 775
Q 2803 509 2595 318
Q 2388 128 2094 25
Q 1800 -78 1441 -78
Q 816 -78 513 109
L 513 653
Q 969 359 1447 359
Q 1691 359 1886 431
Q 2081 503 2218 631
Q 2356 759 2429 940
Q 2503 1122 2503 1338
Q 2503 1775 2209 2023
Q 1916 2272 1356 2272
Q 1266 2272 1166 2269
Q 1066 2266 966 2261
Q 866 2256 770 2250
Q 675 2244 597 2234
L 750 4481
L 2822 4481
L 2822 4019
L 1194 4019
L 1103 2703
Q 1203 2709 1315 2714
Q 1428 2719 1516 2719
Q 1872 2719 2153 2625
Q 2434 2531 2629 2357
Q 2825 2184 2926 1932
Q 3028 1681 3028 1369
z
" transform="scale(0.015625)"/>
        <path id="SegoeUI-68" d="M 3175 0
L 2663 0
L 2663 1844
Q 2663 2844 1919 2844
Q 1544 2844 1287 2555
Q 1031 2266 1031 1813
L 1031 0
L 519 0
L 519 4738
L 1031 4738
L 1031 2669
L 1044 2669
Q 1413 3275 2094 3275
Q 3175 3275 3175 1972
L 3175 0
z
" transform="scale(0.015625)"/>
        <path id="SegoeUI-69" d="M 781 4013
Q 644 4013 547 4106
Q 450 4200 450 4344
Q 450 4488 547 4583
Q 644 4678 781 4678
Q 922 4678 1020 4583
Q 1119 4488 1119 4344
Q 1119 4206 1020 4109
Q 922 4013 781 4013
z
M 1031 0
L 519 0
L 519 3200
L 1031 3200
L 1031 0
z
" transform="scale(0.015625)"/>
        <path id="SegoeUI-67" d="M 3250 256
Q 3250 -1506 1563 -1506
Q 969 -1506 525 -1281
L 525 -769
Q 1066 -1069 1556 -1069
Q 2738 -1069 2738 188
L 2738 538
L 2725 538
Q 2359 -75 1625 -75
Q 1028 -75 664 351
Q 300 778 300 1497
Q 300 2313 692 2794
Q 1084 3275 1766 3275
Q 2413 3275 2725 2756
L 2738 2756
L 2738 3200
L 3250 3200
L 3250 256
z
M 2738 1447
L 2738 1919
Q 2738 2300 2480 2572
Q 2222 2844 1838 2844
Q 1363 2844 1094 2498
Q 825 2153 825 1531
Q 825 997 1083 676
Q 1341 356 1766 356
Q 2197 356 2467 662
Q 2738 969 2738 1447
z
" transform="scale(0.015625)"/>
       </defs>
       <use xlink:href="#SegoeUI-51"/>
       <use xlink:href="#SegoeUI-35" transform="translate(75.390625 0)"/>
       <use xlink:href="#SegoeUI-20" transform="translate(129.296875 0)"/>
       <use xlink:href="#SegoeUI-68" transform="translate(156.689453 0)"/>
       <use xlink:href="#SegoeUI-69" transform="translate(213.28125 0)"/>
       <use xlink:href="#SegoeUI-67" transform="translate(237.5 0)"/>
       <use xlink:href="#SegoeUI-68" transform="translate(296.386719 0)"/>
      </g>
     </g>
    </g>
    <g id="text_4">
     <!-- Lagged leverage-state quintile -->
     <g style="fill: #1f2430" transform="translate(162.768804 385.42) scale(0.12 -0.12)">
      <defs>
       <path id="SegoeUI-4c" d="M 2913 0
L 588 0
L 588 4481
L 1113 4481
L 1113 475
L 2913 475
L 2913 0
z
" transform="scale(0.015625)"/>
       <path id="SegoeUI-61" d="M 2809 0
L 2297 0
L 2297 500
L 2284 500
Q 1950 -75 1300 -75
Q 822 -75 551 178
Q 281 431 281 850
Q 281 1747 1338 1894
L 2297 2028
Q 2297 2844 1638 2844
Q 1059 2844 594 2450
L 594 2975
Q 1066 3275 1681 3275
Q 2809 3275 2809 2081
L 2809 0
z
M 2297 1619
L 1525 1513
Q 1169 1463 987 1336
Q 806 1209 806 888
Q 806 653 973 504
Q 1141 356 1419 356
Q 1800 356 2048 623
Q 2297 891 2297 1300
L 2297 1619
z
" transform="scale(0.015625)"/>
       <path id="SegoeUI-65" d="M 3091 1472
L 831 1472
Q 844 938 1119 647
Q 1394 356 1875 356
Q 2416 356 2869 713
L 2869 231
Q 2447 -75 1753 -75
Q 1075 -75 687 361
Q 300 797 300 1588
Q 300 2334 723 2804
Q 1147 3275 1775 3275
Q 2403 3275 2747 2869
Q 3091 2463 3091 1741
L 3091 1472
z
M 2566 1906
Q 2563 2350 2352 2597
Q 2141 2844 1766 2844
Q 1403 2844 1150 2584
Q 897 2325 838 1906
L 2566 1906
z
" transform="scale(0.015625)"/>
       <path id="SegoeUI-64" d="M 3250 0
L 2738 0
L 2738 544
L 2725 544
Q 2369 -75 1625 -75
Q 1022 -75 661 354
Q 300 784 300 1525
Q 300 2319 700 2797
Q 1100 3275 1766 3275
Q 2425 3275 2725 2756
L 2738 2756
L 2738 4738
L 3250 4738
L 3250 0
z
M 2738 1447
L 2738 1919
Q 2738 2306 2481 2575
Q 2225 2844 1831 2844
Q 1363 2844 1094 2500
Q 825 2156 825 1550
Q 825 997 1083 676
Q 1341 356 1775 356
Q 2203 356 2470 665
Q 2738 975 2738 1447
z
" transform="scale(0.015625)"/>
       <path id="SegoeUI-76" d="M 3034 3200
L 1759 0
L 1256 0
L 44 3200
L 606 3200
L 1419 875
Q 1509 619 1531 428
L 1544 428
Q 1575 669 1644 863
L 2494 3200
L 3034 3200
z
" transform="scale(0.015625)"/>
       <path id="SegoeUI-72" d="M 2188 2681
Q 2053 2784 1800 2784
Q 1472 2784 1251 2475
Q 1031 2166 1031 1631
L 1031 0
L 519 0
L 519 3200
L 1031 3200
L 1031 2541
L 1044 2541
Q 1153 2878 1378 3067
Q 1603 3256 1881 3256
Q 2081 3256 2188 3213
L 2188 2681
z
" transform="scale(0.015625)"/>
       <path id="SegoeUI-2d" d="M 2156 1581
L 450 1581
L 450 1984
L 2156 1984
L 2156 1581
z
" transform="scale(0.015625)"/>
       <path id="SegoeUI-73" d="M 325 116
L 325 666
Q 744 356 1247 356
Q 1922 356 1922 806
Q 1922 934 1864 1023
Q 1806 1113 1707 1181
Q 1609 1250 1476 1304
Q 1344 1359 1191 1419
Q 978 1503 817 1589
Q 656 1675 548 1783
Q 441 1891 386 2028
Q 331 2166 331 2350
Q 331 2575 434 2748
Q 538 2922 709 3039
Q 881 3156 1101 3215
Q 1322 3275 1556 3275
Q 1972 3275 2300 3131
L 2300 2613
Q 1947 2844 1488 2844
Q 1344 2844 1228 2811
Q 1113 2778 1030 2718
Q 947 2659 901 2576
Q 856 2494 856 2394
Q 856 2269 901 2184
Q 947 2100 1034 2034
Q 1122 1969 1247 1916
Q 1372 1863 1531 1800
Q 1744 1719 1912 1633
Q 2081 1547 2200 1439
Q 2319 1331 2383 1190
Q 2447 1050 2447 856
Q 2447 619 2342 444
Q 2238 269 2063 153
Q 1888 38 1659 -18
Q 1431 -75 1181 -75
Q 688 -75 325 116
z
" transform="scale(0.015625)"/>
       <path id="SegoeUI-74" d="M 2003 31
Q 1822 -69 1525 -69
Q 684 -69 684 869
L 684 2763
L 134 2763
L 134 3200
L 684 3200
L 684 3981
L 1197 4147
L 1197 3200
L 2003 3200
L 2003 2763
L 1197 2763
L 1197 959
Q 1197 638 1306 500
Q 1416 363 1669 363
Q 1863 363 2003 469
L 2003 31
z
" transform="scale(0.015625)"/>
       <path id="SegoeUI-71" d="M 3250 -1472
L 2738 -1472
L 2738 550
L 2725 550
Q 2391 -75 1631 -75
Q 1028 -75 664 354
Q 300 784 300 1525
Q 300 2322 700 2798
Q 1100 3275 1775 3275
Q 2431 3275 2725 2756
L 2738 2756
L 2738 3200
L 3250 3200
L 3250 -1472
z
M 2738 1441
L 2738 1906
Q 2738 2300 2480 2572
Q 2222 2844 1825 2844
Q 1363 2844 1094 2501
Q 825 2159 825 1538
Q 825 984 1084 670
Q 1344 356 1753 356
Q 2203 356 2470 664
Q 2738 972 2738 1441
z
" transform="scale(0.015625)"/>
       <path id="SegoeUI-75" d="M 3106 0
L 2594 0
L 2594 506
L 2581 506
Q 2263 -75 1594 -75
Q 450 -75 450 1288
L 450 3200
L 959 3200
L 959 1369
Q 959 356 1734 356
Q 2109 356 2351 632
Q 2594 909 2594 1356
L 2594 3200
L 3106 3200
L 3106 0
z
" transform="scale(0.015625)"/>
       <path id="SegoeUI-6e" d="M 3175 0
L 2663 0
L 2663 1825
Q 2663 2844 1919 2844
Q 1534 2844 1282 2555
Q 1031 2266 1031 1825
L 1031 0
L 519 0
L 519 3200
L 1031 3200
L 1031 2669
L 1044 2669
Q 1406 3275 2094 3275
Q 2619 3275 2897 2936
Q 3175 2597 3175 1956
L 3175 0
z
" transform="scale(0.015625)"/>
      </defs>
      <use xlink:href="#SegoeUI-4c"/>
      <use xlink:href="#SegoeUI-61" transform="translate(47.070312 0)"/>
      <use xlink:href="#SegoeUI-67" transform="translate(97.949219 0)"/>
      <use xlink:href="#SegoeUI-67" transform="translate(156.835938 0)"/>
      <use xlink:href="#SegoeUI-65" transform="translate(215.722656 0)"/>
      <use xlink:href="#SegoeUI-64" transform="translate(268.017578 0)"/>
      <use xlink:href="#SegoeUI-20" transform="translate(326.904297 0)"/>
      <use xlink:href="#SegoeUI-6c" transform="translate(354.296875 0)"/>
      <use xlink:href="#SegoeUI-65" transform="translate(378.515625 0)"/>
      <use xlink:href="#SegoeUI-76" transform="translate(430.810547 0)"/>
      <use xlink:href="#SegoeUI-65" transform="translate(478.085938 0)"/>
      <use xlink:href="#SegoeUI-72" transform="translate(530.380859 0)"/>
      <use xlink:href="#SegoeUI-61" transform="translate(565.146484 0)"/>
      <use xlink:href="#SegoeUI-67" transform="translate(616.025391 0)"/>
      <use xlink:href="#SegoeUI-65" transform="translate(674.912109 0)"/>
      <use xlink:href="#SegoeUI-2d" transform="translate(727.207031 0)"/>
      <use xlink:href="#SegoeUI-73" transform="translate(767.197266 0)"/>
      <use xlink:href="#SegoeUI-74" transform="translate(809.628906 0)"/>
      <use xlink:href="#SegoeUI-61" transform="translate(843.515625 0)"/>
      <use xlink:href="#SegoeUI-74" transform="translate(894.394531 0)"/>
      <use xlink:href="#SegoeUI-65" transform="translate(927.53125 0)"/>
      <use xlink:href="#SegoeUI-20" transform="translate(979.826172 0)"/>
      <use xlink:href="#SegoeUI-71" transform="translate(1007.21875 0)"/>
      <use xlink:href="#SegoeUI-75" transform="translate(1066.105469 0)"/>
      <use xlink:href="#SegoeUI-69" transform="translate(1122.697266 0)"/>
      <use xlink:href="#SegoeUI-6e" transform="translate(1146.916016 0)"/>
      <use xlink:href="#SegoeUI-74" transform="translate(1203.507812 0)"/>
      <use xlink:href="#SegoeUI-69" transform="translate(1237.394531 0)"/>
      <use xlink:href="#SegoeUI-6c" transform="translate(1261.613281 0)"/>
      <use xlink:href="#SegoeUI-65" transform="translate(1285.832031 0)"/>
     </g>
    </g>
   </g>
   <g id="matplotlib.axis_2">
    <g id="ytick_1">
     <g id="line2d_1">
      <path d="M 47.541875 359.28
L 438.576358 359.28
" clip-path="url(#p3355238820)" style="fill: none; stroke: #e8ebf2; stroke-width: 0.8; stroke-linecap: round"/>
     </g>
     <g id="text_5">
      <!-- 0.0% -->
      <g style="fill: #6f768a" transform="translate(22.9075 362.981562) scale(0.1 -0.1)">
       <defs>
        <path id="SegoeUI-30" d="M 3188 2259
Q 3188 1697 3086 1262
Q 2984 828 2792 529
Q 2600 231 2320 76
Q 2041 -78 1684 -78
Q 1347 -78 1083 70
Q 819 219 637 503
Q 456 788 362 1202
Q 269 1616 269 2150
Q 269 2738 367 3188
Q 466 3638 656 3942
Q 847 4247 1130 4401
Q 1413 4556 1778 4556
Q 3188 4556 3188 2259
z
M 2663 2209
Q 2663 4122 1753 4122
Q 794 4122 794 2175
Q 794 359 1734 359
Q 2663 359 2663 2209
z
" transform="scale(0.015625)"/>
        <path id="SegoeUI-2e" d="M 697 -69
Q 553 -69 451 34
Q 350 138 350 281
Q 350 425 451 529
Q 553 634 697 634
Q 844 634 947 529
Q 1050 425 1050 281
Q 1050 138 947 34
Q 844 -69 697 -69
z
" transform="scale(0.015625)"/>
        <path id="SegoeUI-25" d="M 1263 2234
Q 800 2234 525 2539
Q 250 2844 250 3353
Q 250 3909 540 4229
Q 831 4550 1325 4550
Q 1803 4550 2067 4253
Q 2331 3956 2331 3419
Q 2331 2881 2036 2557
Q 1741 2234 1263 2234
z
M 1306 4206
Q 1009 4206 837 3986
Q 666 3766 666 3381
Q 666 3003 834 2792
Q 1003 2581 1294 2581
Q 1588 2581 1753 2800
Q 1919 3019 1919 3406
Q 1919 3784 1755 3995
Q 1591 4206 1306 4206
z
M 4263 4481
L 1388 -31
L 941 -31
L 3813 4481
L 4263 4481
z
M 3931 -69
Q 3469 -69 3194 237
Q 2919 544 2919 1050
Q 2919 1606 3212 1929
Q 3506 2253 3994 2253
Q 4469 2253 4734 1953
Q 5000 1653 5000 1113
Q 5000 578 4704 254
Q 4409 -69 3931 -69
z
M 3975 1900
Q 3675 1900 3504 1681
Q 3334 1463 3334 1075
Q 3334 703 3503 492
Q 3672 281 3963 281
Q 4256 281 4422 501
Q 4588 722 4588 1106
Q 4588 1488 4423 1694
Q 4259 1900 3975 1900
z
" transform="scale(0.015625)"/>
       </defs>
       <use xlink:href="#SegoeUI-30"/>
       <use xlink:href="#SegoeUI-2e" transform="translate(53.90625 0)"/>
       <use xlink:href="#SegoeUI-30" transform="translate(75.585938 0)"/>
       <use xlink:href="#SegoeUI-25" transform="translate(129.492188 0)"/>
      </g>
     </g>
    </g>
    <g id="ytick_2">
     <g id="line2d_2">
      <path d="M 47.541875 326.26462
L 438.576358 326.26462
" clip-path="url(#p3355238820)" style="fill: none; stroke: #e8ebf2; stroke-width: 0.8; stroke-linecap: round"/>
     </g>
     <g id="text_6">
      <!-- 1.0% -->
      <g style="fill: #6f768a" transform="translate(22.9075 329.966183) scale(0.1 -0.1)">
       <use xlink:href="#SegoeUI-31"/>
       <use xlink:href="#SegoeUI-2e" transform="translate(53.90625 0)"/>
       <use xlink:href="#SegoeUI-30" transform="translate(75.585938 0)"/>
       <use xlink:href="#SegoeUI-25" transform="translate(129.492188 0)"/>
      </g>
     </g>
    </g>
    <g id="ytick_3">
     <g id="line2d_3">
      <path d="M 47.541875 293.249241
L 438.576358 293.249241
" clip-path="url(#p3355238820)" style="fill: none; stroke: #e8ebf2; stroke-width: 0.8; stroke-linecap: round"/>
     </g>
     <g id="text_7">
      <!-- 2.0% -->
      <g style="fill: #6f768a" transform="translate(22.9075 296.950803) scale(0.1 -0.1)">
       <defs>
        <path id="SegoeUI-32" d="M 2413 3306
Q 2413 3513 2348 3666
Q 2284 3819 2173 3920
Q 2063 4022 1913 4072
Q 1763 4122 1588 4122
Q 1438 4122 1294 4081
Q 1150 4041 1014 3969
Q 878 3897 751 3797
Q 625 3697 516 3575
L 516 4125
Q 731 4334 998 4445
Q 1266 4556 1650 4556
Q 1925 4556 2159 4476
Q 2394 4397 2566 4244
Q 2738 4091 2836 3866
Q 2934 3641 2934 3350
Q 2934 3084 2873 2868
Q 2813 2653 2689 2462
Q 2566 2272 2378 2097
Q 2191 1922 1938 1741
Q 1622 1516 1417 1356
Q 1213 1197 1092 1058
Q 972 919 923 780
Q 875 641 875 459
L 3106 459
L 3106 0
L 341 0
L 341 222
Q 341 509 403 728
Q 466 947 609 1144
Q 753 1341 986 1537
Q 1219 1734 1556 1981
Q 1800 2156 1964 2315
Q 2128 2475 2228 2634
Q 2328 2794 2370 2958
Q 2413 3122 2413 3306
z
" transform="scale(0.015625)"/>
       </defs>
       <use xlink:href="#SegoeUI-32"/>
       <use xlink:href="#SegoeUI-2e" transform="translate(53.90625 0)"/>
       <use xlink:href="#SegoeUI-30" transform="translate(75.585938 0)"/>
       <use xlink:href="#SegoeUI-25" transform="translate(129.492188 0)"/>
      </g>
     </g>
    </g>
    <g id="ytick_4">
     <g id="line2d_4">
      <path d="M 47.541875 260.233861
L 438.576358 260.233861
" clip-path="url(#p3355238820)" style="fill: none; stroke: #e8ebf2; stroke-width: 0.8; stroke-linecap: round"/>
     </g>
     <g id="text_8">
      <!-- 3.0% -->
      <g style="fill: #6f768a" transform="translate(22.9075 263.935424) scale(0.1 -0.1)">
       <use xlink:href="#SegoeUI-33"/>
       <use xlink:href="#SegoeUI-2e" transform="translate(53.90625 0)"/>
       <use xlink:href="#SegoeUI-30" transform="translate(75.585938 0)"/>
       <use xlink:href="#SegoeUI-25" transform="translate(129.492188 0)"/>
      </g>
     </g>
    </g>
    <g id="ytick_5">
     <g id="line2d_5">
      <path d="M 47.541875 227.218482
L 438.576358 227.218482
" clip-path="url(#p3355238820)" style="fill: none; stroke: #e8ebf2; stroke-width: 0.8; stroke-linecap: round"/>
     </g>
     <g id="text_9">
      <!-- 4.0% -->
      <g style="fill: #6f768a" transform="translate(22.9075 230.920044) scale(0.1 -0.1)">
       <defs>
        <path id="SegoeUI-34" d="M 2656 4481
L 2656 1522
L 3231 1522
L 3231 1053
L 2656 1053
L 2656 0
L 2150 0
L 2150 1053
L 44 1053
L 44 1497
Q 338 1828 638 2204
Q 938 2581 1211 2968
Q 1484 3356 1717 3742
Q 1950 4128 2109 4481
L 2656 4481
z
M 622 1522
L 2150 1522
L 2150 3716
Q 1916 3306 1706 2984
Q 1497 2663 1308 2400
Q 1119 2138 947 1925
Q 775 1713 622 1522
z
" transform="scale(0.015625)"/>
       </defs>
       <use xlink:href="#SegoeUI-34"/>
       <use xlink:href="#SegoeUI-2e" transform="translate(53.90625 0)"/>
       <use xlink:href="#SegoeUI-30" transform="translate(75.585938 0)"/>
       <use xlink:href="#SegoeUI-25" transform="translate(129.492188 0)"/>
      </g>
     </g>
    </g>
    <g id="ytick_6">
     <g id="line2d_6">
      <path d="M 47.541875 194.203102
L 438.576358 194.203102
" clip-path="url(#p3355238820)" style="fill: none; stroke: #e8ebf2; stroke-width: 0.8; stroke-linecap: round"/>
     </g>
     <g id="text_10">
      <!-- 5.0% -->
      <g style="fill: #6f768a" transform="translate(22.9075 197.904665) scale(0.1 -0.1)">
       <use xlink:href="#SegoeUI-35"/>
       <use xlink:href="#SegoeUI-2e" transform="translate(53.90625 0)"/>
       <use xlink:href="#SegoeUI-30" transform="translate(75.585938 0)"/>
       <use xlink:href="#SegoeUI-25" transform="translate(129.492188 0)"/>
      </g>
     </g>
    </g>
    <g id="ytick_7">
     <g id="line2d_7">
      <path d="M 47.541875 161.187722
L 438.576358 161.187722
" clip-path="url(#p3355238820)" style="fill: none; stroke: #e8ebf2; stroke-width: 0.8; stroke-linecap: round"/>
     </g>
     <g id="text_11">
      <!-- 6.0% -->
      <g style="fill: #6f768a" transform="translate(22.9075 164.889285) scale(0.1 -0.1)">
       <defs>
        <path id="SegoeUI-36" d="M 3194 1422
Q 3194 1094 3087 819
Q 2981 544 2793 344
Q 2606 144 2347 33
Q 2088 -78 1784 -78
Q 1447 -78 1180 62
Q 913 203 727 467
Q 541 731 444 1112
Q 347 1494 347 1972
Q 347 2556 476 3032
Q 606 3509 845 3848
Q 1084 4188 1421 4372
Q 1759 4556 2175 4556
Q 2638 4556 2919 4428
L 2919 3944
Q 2572 4122 2188 4122
Q 1888 4122 1647 3987
Q 1406 3853 1234 3608
Q 1063 3363 970 3016
Q 878 2669 878 2244
L 891 2244
Q 1200 2803 1913 2803
Q 2206 2803 2442 2703
Q 2678 2603 2845 2420
Q 3013 2238 3103 1984
Q 3194 1731 3194 1422
z
M 2669 1356
Q 2669 1591 2609 1778
Q 2550 1966 2439 2097
Q 2328 2228 2165 2298
Q 2003 2369 1797 2369
Q 1606 2369 1443 2297
Q 1281 2225 1162 2101
Q 1044 1978 976 1814
Q 909 1650 909 1466
Q 909 1234 975 1032
Q 1041 831 1159 681
Q 1278 531 1442 445
Q 1606 359 1806 359
Q 2000 359 2159 432
Q 2319 506 2431 637
Q 2544 769 2606 951
Q 2669 1134 2669 1356
z
" transform="scale(0.015625)"/>
       </defs>
       <use xlink:href="#SegoeUI-36"/>
       <use xlink:href="#SegoeUI-2e" transform="translate(53.90625 0)"/>
       <use xlink:href="#SegoeUI-30" transform="translate(75.585938 0)"/>
       <use xlink:href="#SegoeUI-25" transform="translate(129.492188 0)"/>
      </g>
     </g>
    </g>
    <g id="ytick_8">
     <g id="line2d_8">
      <path d="M 47.541875 128.172343
L 438.576358 128.172343
" clip-path="url(#p3355238820)" style="fill: none; stroke: #e8ebf2; stroke-width: 0.8; stroke-linecap: round"/>
     </g>
     <g id="text_12">
      <!-- 7.0% -->
      <g style="fill: #6f768a" transform="translate(22.9075 131.873905) scale(0.1 -0.1)">
       <defs>
        <path id="SegoeUI-37" d="M 3156 4184
Q 3053 4006 2908 3740
Q 2763 3475 2600 3144
Q 2438 2813 2269 2431
Q 2100 2050 1953 1644
Q 1806 1238 1695 820
Q 1584 403 1534 0
L 984 0
Q 1041 400 1158 817
Q 1275 1234 1423 1636
Q 1572 2038 1737 2409
Q 1903 2781 2059 3093
Q 2216 3406 2345 3645
Q 2475 3884 2553 4019
L 306 4019
L 306 4481
L 3156 4481
L 3156 4184
z
" transform="scale(0.015625)"/>
       </defs>
       <use xlink:href="#SegoeUI-37"/>
       <use xlink:href="#SegoeUI-2e" transform="translate(53.90625 0)"/>
       <use xlink:href="#SegoeUI-30" transform="translate(75.585938 0)"/>
       <use xlink:href="#SegoeUI-25" transform="translate(129.492188 0)"/>
      </g>
     </g>
    </g>
    <g id="ytick_9">
     <g id="line2d_9">
      <path d="M 47.541875 95.156963
L 438.576358 95.156963
" clip-path="url(#p3355238820)" style="fill: none; stroke: #e8ebf2; stroke-width: 0.8; stroke-linecap: round"/>
     </g>
     <g id="text_13">
      <!-- 8.0% -->
      <g style="fill: #6f768a" transform="translate(22.9075 98.858526) scale(0.1 -0.1)">
       <defs>
        <path id="SegoeUI-38" d="M 281 1250
Q 281 1428 337 1608
Q 394 1788 498 1944
Q 603 2100 758 2228
Q 913 2356 1109 2431
Q 819 2594 647 2848
Q 475 3103 475 3413
Q 475 3659 570 3868
Q 666 4078 834 4231
Q 1003 4384 1234 4470
Q 1466 4556 1734 4556
Q 2006 4556 2237 4468
Q 2469 4381 2637 4228
Q 2806 4075 2900 3865
Q 2994 3656 2994 3413
Q 2994 3103 2822 2848
Q 2650 2594 2366 2431
Q 2559 2356 2712 2228
Q 2866 2100 2970 1944
Q 3075 1788 3131 1608
Q 3188 1428 3188 1250
Q 3188 956 3081 712
Q 2975 469 2783 295
Q 2591 122 2323 25
Q 2056 -72 1734 -72
Q 1416 -72 1150 25
Q 884 122 690 295
Q 497 469 389 712
Q 281 956 281 1250
z
M 838 1294
Q 838 1084 902 915
Q 966 747 1083 628
Q 1200 509 1367 445
Q 1534 381 1738 381
Q 1934 381 2100 447
Q 2266 513 2386 631
Q 2506 750 2573 919
Q 2641 1088 2641 1294
Q 2641 1481 2577 1645
Q 2513 1809 2394 1934
Q 2275 2059 2109 2131
Q 1944 2203 1738 2203
Q 1544 2203 1380 2136
Q 1216 2069 1095 1948
Q 975 1828 906 1661
Q 838 1494 838 1294
z
M 997 3372
Q 997 3213 1055 3077
Q 1113 2941 1214 2839
Q 1316 2738 1450 2680
Q 1584 2622 1738 2622
Q 1891 2622 2027 2681
Q 2163 2741 2263 2842
Q 2363 2944 2422 3080
Q 2481 3216 2481 3372
Q 2481 3534 2423 3671
Q 2366 3809 2266 3909
Q 2166 4009 2030 4067
Q 1894 4125 1738 4125
Q 1572 4125 1436 4065
Q 1300 4006 1201 3904
Q 1103 3803 1050 3665
Q 997 3528 997 3372
z
" transform="scale(0.015625)"/>
       </defs>
       <use xlink:href="#SegoeUI-38"/>
       <use xlink:href="#SegoeUI-2e" transform="translate(53.90625 0)"/>
       <use xlink:href="#SegoeUI-30" transform="translate(75.585938 0)"/>
       <use xlink:href="#SegoeUI-25" transform="translate(129.492188 0)"/>
      </g>
     </g>
    </g>
    <g id="text_14">
     <!-- Bottom-5% BTC return day rate -->
     <g style="fill: #1f2430" transform="translate(16.08375 307.688437) rotate(-90) scale(0.12 -0.12)">
      <defs>
       <path id="SegoeUI-42" d="M 588 0
L 588 4481
L 1863 4481
Q 2444 4481 2784 4197
Q 3125 3913 3125 3456
Q 3125 3075 2919 2794
Q 2713 2513 2350 2394
L 2350 2381
Q 2803 2328 3075 2039
Q 3347 1750 3347 1288
Q 3347 713 2934 356
Q 2522 0 1894 0
L 588 0
z
M 1113 4006
L 1113 2559
L 1650 2559
Q 2081 2559 2328 2767
Q 2575 2975 2575 3353
Q 2575 4006 1716 4006
L 1113 4006
z
M 1113 2088
L 1113 475
L 1825 475
Q 2288 475 2542 694
Q 2797 913 2797 1294
Q 2797 2088 1716 2088
L 1113 2088
z
" transform="scale(0.015625)"/>
       <path id="SegoeUI-6d" d="M 5063 0
L 4550 0
L 4550 1838
Q 4550 2369 4386 2606
Q 4222 2844 3834 2844
Q 3506 2844 3276 2544
Q 3047 2244 3047 1825
L 3047 0
L 2534 0
L 2534 1900
Q 2534 2844 1806 2844
Q 1469 2844 1250 2561
Q 1031 2278 1031 1825
L 1031 0
L 519 0
L 519 3200
L 1031 3200
L 1031 2694
L 1044 2694
Q 1384 3275 2038 3275
Q 2366 3275 2609 3092
Q 2853 2909 2944 2613
Q 3300 3275 4006 3275
Q 5063 3275 5063 1972
L 5063 0
z
" transform="scale(0.015625)"/>
       <path id="SegoeUI-54" d="M 3238 4006
L 1944 4006
L 1944 0
L 1419 0
L 1419 4006
L 128 4006
L 128 4481
L 3238 4481
L 3238 4006
z
" transform="scale(0.015625)"/>
       <path id="SegoeUI-43" d="M 3638 188
Q 3141 -75 2400 -75
Q 1444 -75 869 540
Q 294 1156 294 2156
Q 294 3231 941 3893
Q 1588 4556 2581 4556
Q 3219 4556 3638 4372
L 3638 3813
Q 3156 4081 2575 4081
Q 1803 4081 1323 3565
Q 844 3050 844 2188
Q 844 1369 1292 883
Q 1741 397 2469 397
Q 3144 397 3638 697
L 3638 188
z
" transform="scale(0.015625)"/>
       <path id="SegoeUI-79" d="M 3066 3200
L 1594 -513
Q 1200 -1506 488 -1506
Q 288 -1506 153 -1466
L 153 -1006
Q 319 -1063 456 -1063
Q 844 -1063 1038 -600
L 1294 6
L 44 3200
L 613 3200
L 1478 738
Q 1494 691 1544 494
L 1563 494
Q 1578 569 1625 731
L 2534 3200
L 3066 3200
z
" transform="scale(0.015625)"/>
      </defs>
      <use xlink:href="#SegoeUI-42"/>
      <use xlink:href="#SegoeUI-6f" transform="translate(57.324219 0)"/>
      <use xlink:href="#SegoeUI-74" transform="translate(115.917969 0)"/>
      <use xlink:href="#SegoeUI-74" transform="translate(149.804688 0)"/>
      <use xlink:href="#SegoeUI-6f" transform="translate(182.941406 0)"/>
      <use xlink:href="#SegoeUI-6d" transform="translate(241.535156 0)"/>
      <use xlink:href="#SegoeUI-2d" transform="translate(327.667969 0)"/>
      <use xlink:href="#SegoeUI-35" transform="translate(367.658203 0)"/>
      <use xlink:href="#SegoeUI-25" transform="translate(421.564453 0)"/>
      <use xlink:href="#SegoeUI-20" transform="translate(503.400391 0)"/>
      <use xlink:href="#SegoeUI-42" transform="translate(530.792969 0)"/>
      <use xlink:href="#SegoeUI-54" transform="translate(583.617188 0)"/>
      <use xlink:href="#SegoeUI-43" transform="translate(631.509766 0)"/>
      <use xlink:href="#SegoeUI-20" transform="translate(693.423828 0)"/>
      <use xlink:href="#SegoeUI-72" transform="translate(720.816406 0)"/>
      <use xlink:href="#SegoeUI-65" transform="translate(754.207031 0)"/>
      <use xlink:href="#SegoeUI-74" transform="translate(806.501953 0)"/>
      <use xlink:href="#SegoeUI-75" transform="translate(840.388672 0)"/>
      <use xlink:href="#SegoeUI-72" transform="translate(896.980469 0)"/>
      <use xlink:href="#SegoeUI-6e" transform="translate(931.496094 0)"/>
      <use xlink:href="#SegoeUI-20" transform="translate(988.087891 0)"/>
      <use xlink:href="#SegoeUI-64" transform="translate(1015.480469 0)"/>
      <use xlink:href="#SegoeUI-61" transform="translate(1074.367188 0)"/>
      <use xlink:href="#SegoeUI-79" transform="translate(1125.246094 0)"/>
      <use xlink:href="#SegoeUI-20" transform="translate(1173.634766 0)"/>
      <use xlink:href="#SegoeUI-72" transform="translate(1201.027344 0)"/>
      <use xlink:href="#SegoeUI-61" transform="translate(1235.792969 0)"/>
      <use xlink:href="#SegoeUI-74" transform="translate(1286.671875 0)"/>
      <use xlink:href="#SegoeUI-65" transform="translate(1319.808594 0)"/>
     </g>
    </g>
   </g>
   <g id="patch_3">
    <path d="M 65.31617 359.28
L 166.883568 359.28
L 166.883568 126.058776
L 65.31617 126.058776
z
" clip-path="url(#p3355238820)" style="fill: #b85c5c; stroke: #7a3333; stroke-linejoin: miter"/>
   </g>
   <g id="patch_4">
    <path d="M 192.275417 359.28
L 293.842815 359.28
L 293.842815 220.498537
L 192.275417 220.498537
z
" clip-path="url(#p3355238820)" style="fill: #c5cad3; stroke: #464c55; stroke-linejoin: miter"/>
   </g>
   <g id="patch_5">
    <path d="M 319.234665 359.28
L 420.802063 359.28
L 420.802063 104.194286
L 319.234665 104.194286
z
" clip-path="url(#p3355238820)" style="fill: #b85c5c; stroke: #7a3333; stroke-linejoin: miter"/>
   </g>
   <g id="patch_6">
    <path d="M 47.541875 359.28
L 47.541875 91.44
" style="fill: none; stroke: #d7dbe7; stroke-width: 1.25; stroke-linejoin: miter; stroke-linecap: square"/>
   </g>
   <g id="patch_7">
    <path d="M 47.541875 359.28
L 438.576358 359.28
" style="fill: none; stroke: #d7dbe7; stroke-width: 1.25; stroke-linejoin: miter; stroke-linecap: square"/>
   </g>
   <g id="text_15">
    <!-- 7.1% -->
    <g style="fill: #1f2430" transform="translate(104.059244 122.372048) scale(0.1 -0.1)">
     <defs>
      <path id="DejaVuSansMono-37" d="M 434 4666
L 3372 4666
L 3372 4397
L 1703 0
L 1044 0
L 2669 4134
L 434 4134
L 434 4666
z
" transform="scale(0.015625)"/>
      <path id="DejaVuSansMono-2e" d="M 1528 953
L 2316 953
L 2316 0
L 1528 0
L 1528 953
z
" transform="scale(0.015625)"/>
      <path id="DejaVuSansMono-31" d="M 844 531
L 1825 531
L 1825 4097
L 769 3859
L 769 4434
L 1819 4666
L 2450 4666
L 2450 531
L 3419 531
L 3419 0
L 844 0
L 844 531
z
" transform="scale(0.015625)"/>
      <path id="DejaVuSansMono-25" d="M 2175 997
Q 2175 753 2339 587
Q 2503 422 2747 422
Q 2988 422 3155 589
Q 3322 756 3322 997
Q 3322 1238 3153 1406
Q 2984 1575 2747 1575
Q 2503 1575 2339 1409
Q 2175 1244 2175 997
z
M 1753 997
Q 1753 1419 2040 1708
Q 2328 1997 2747 1997
Q 2947 1997 3126 1922
Q 3306 1847 3450 1703
Q 3594 1556 3672 1375
Q 3750 1194 3750 997
Q 3750 581 3459 290
Q 3169 0 2747 0
Q 2322 0 2037 286
Q 1753 572 1753 997
z
M 378 1453
L 269 1753
L 3525 3059
L 3653 2759
L 378 1453
z
M 525 3475
Q 525 3228 689 3064
Q 853 2900 1100 2900
Q 1341 2900 1509 3067
Q 1678 3234 1678 3475
Q 1678 3716 1509 3883
Q 1341 4050 1100 4050
Q 859 4050 692 3884
Q 525 3719 525 3475
z
M 103 3475
Q 103 3897 390 4186
Q 678 4475 1100 4475
Q 1300 4475 1483 4400
Q 1666 4325 1806 4184
Q 1947 4044 2023 3861
Q 2100 3678 2100 3475
Q 2100 3056 1809 2767
Q 1519 2478 1100 2478
Q 678 2478 390 2765
Q 103 3053 103 3475
z
" transform="scale(0.015625)"/>
     </defs>
     <use xlink:href="#DejaVuSansMono-37"/>
     <use xlink:href="#DejaVuSansMono-2e" transform="translate(60.205078 0)"/>
     <use xlink:href="#DejaVuSansMono-31" transform="translate(120.410156 0)"/>
     <use xlink:href="#DejaVuSansMono-25" transform="translate(180.615234 0)"/>
    </g>
   </g>
   <g id="text_16">
    <!-- 4.2% -->
    <g style="fill: #1f2430" transform="translate(231.018491 216.81181) scale(0.1 -0.1)">
     <defs>
      <path id="DejaVuSansMono-34" d="M 2297 4091
L 825 1625
L 2297 1625
L 2297 4091
z
M 2194 4666
L 2925 4666
L 2925 1625
L 3547 1625
L 3547 1113
L 2925 1113
L 2925 0
L 2297 0
L 2297 1113
L 319 1113
L 319 1709
L 2194 4666
z
" transform="scale(0.015625)"/>
      <path id="DejaVuSansMono-32" d="M 1166 531
L 3309 531
L 3309 0
L 475 0
L 475 531
Q 1059 1147 1496 1619
Q 1934 2091 2100 2284
Q 2413 2666 2522 2902
Q 2631 3138 2631 3384
Q 2631 3775 2401 3997
Q 2172 4219 1772 4219
Q 1488 4219 1175 4116
Q 863 4013 513 3803
L 513 4441
Q 834 4594 1145 4672
Q 1456 4750 1759 4750
Q 2444 4750 2861 4386
Q 3278 4022 3278 3431
Q 3278 3131 3139 2831
Q 3000 2531 2688 2169
Q 2513 1966 2180 1606
Q 1847 1247 1166 531
z
" transform="scale(0.015625)"/>
     </defs>
     <use xlink:href="#DejaVuSansMono-34"/>
     <use xlink:href="#DejaVuSansMono-2e" transform="translate(60.205078 0)"/>
     <use xlink:href="#DejaVuSansMono-32" transform="translate(120.410156 0)"/>
     <use xlink:href="#DejaVuSansMono-25" transform="translate(180.615234 0)"/>
    </g>
   </g>
   <g id="text_17">
    <!-- 7.7% -->
    <g style="fill: #1f2430" transform="translate(357.977739 100.507558) scale(0.1 -0.1)">
     <use xlink:href="#DejaVuSansMono-37"/>
     <use xlink:href="#DejaVuSansMono-2e" transform="translate(60.205078 0)"/>
     <use xlink:href="#DejaVuSansMono-37" transform="translate(120.410156 0)"/>
     <use xlink:href="#DejaVuSansMono-25" transform="translate(180.615234 0)"/>
    </g>
   </g>
   <g id="text_18">
    <!-- A. Tail-day rates -->
    <g style="fill: #1f2430" transform="translate(47.541875 85.44) scale(0.13 -0.13)">
     <defs>
      <path id="SegoeUI-Semibold-41" d="M 4234 0
L 3419 0
L 3016 1141
L 1253 1141
L 866 0
L 53 0
L 1731 4481
L 2569 4481
L 4234 0
z
M 2819 1747
L 2197 3534
Q 2169 3622 2138 3816
L 2125 3816
Q 2097 3638 2063 3534
L 1447 1747
L 2819 1747
z
" transform="scale(0.015625)"/>
      <path id="SegoeUI-Semibold-2e" d="M 772 -69
Q 584 -69 453 54
Q 322 178 322 350
Q 322 525 453 650
Q 584 775 772 775
Q 963 775 1095 650
Q 1228 525 1228 350
Q 1228 178 1095 54
Q 963 -69 772 -69
z
" transform="scale(0.015625)"/>
      <path id="SegoeUI-Semibold-20" transform="scale(0.015625)"/>
      <path id="SegoeUI-Semibold-54" d="M 3428 3850
L 2141 3850
L 2141 0
L 1397 0
L 1397 3850
L 113 3850
L 113 4481
L 3428 4481
L 3428 3850
z
" transform="scale(0.015625)"/>
      <path id="SegoeUI-Semibold-61" d="M 2928 0
L 2225 0
L 2225 500
L 2213 500
Q 1881 -75 1241 -75
Q 769 -75 501 181
Q 234 438 234 859
Q 234 1766 1278 1916
L 2228 2050
Q 2228 2734 1578 2734
Q 1006 2734 547 2341
L 547 2975
Q 1053 3275 1716 3275
Q 2928 3275 2928 2081
L 2928 0
z
M 2228 1572
L 1556 1478
Q 1244 1438 1086 1327
Q 928 1216 928 938
Q 928 734 1073 604
Q 1219 475 1463 475
Q 1794 475 2011 708
Q 2228 941 2228 1294
L 2228 1572
z
" transform="scale(0.015625)"/>
      <path id="SegoeUI-Semibold-69" d="M 838 3872
Q 659 3872 532 3987
Q 406 4103 406 4281
Q 406 4459 532 4578
Q 659 4697 838 4697
Q 1022 4697 1150 4578
Q 1278 4459 1278 4281
Q 1278 4113 1150 3992
Q 1022 3872 838 3872
z
M 1197 0
L 472 0
L 472 3200
L 1197 3200
L 1197 0
z
" transform="scale(0.015625)"/>
      <path id="SegoeUI-Semibold-6c" d="M 1200 0
L 472 0
L 472 4738
L 1200 4738
L 1200 0
z
" transform="scale(0.015625)"/>
      <path id="SegoeUI-Semibold-2d" d="M 2156 1481
L 450 1481
L 450 2016
L 2156 2016
L 2156 1481
z
" transform="scale(0.015625)"/>
      <path id="SegoeUI-Semibold-64" d="M 3381 0
L 2656 0
L 2656 544
L 2644 544
Q 2294 -75 1566 -75
Q 975 -75 620 354
Q 266 784 266 1525
Q 266 2319 658 2797
Q 1050 3275 1703 3275
Q 2350 3275 2644 2756
L 2656 2756
L 2656 4738
L 3381 4738
L 3381 0
z
M 2666 1463
L 2666 1881
Q 2666 2222 2444 2459
Q 2222 2697 1878 2697
Q 1472 2697 1239 2394
Q 1006 2091 1006 1553
Q 1006 1066 1229 783
Q 1453 500 1831 500
Q 2203 500 2434 773
Q 2666 1047 2666 1463
z
" transform="scale(0.015625)"/>
      <path id="SegoeUI-Semibold-79" d="M 3244 3200
L 1800 -513
Q 1350 -1506 538 -1506
Q 309 -1506 156 -1466
L 156 -863
Q 328 -919 469 -919
Q 875 -919 1075 -519
L 1291 6
L 19 3200
L 822 3200
L 1584 875
Q 1597 831 1641 644
L 1656 644
Q 1672 716 1713 869
L 2513 3200
L 3244 3200
z
" transform="scale(0.015625)"/>
      <path id="SegoeUI-Semibold-72" d="M 2328 2509
Q 2197 2613 1950 2613
Q 1628 2613 1412 2322
Q 1197 2031 1197 1531
L 1197 0
L 472 0
L 472 3200
L 1197 3200
L 1197 2541
L 1209 2541
Q 1316 2878 1536 3067
Q 1756 3256 2028 3256
Q 2225 3256 2328 3197
L 2328 2509
z
" transform="scale(0.015625)"/>
      <path id="SegoeUI-Semibold-74" d="M 2159 34
Q 1947 -72 1600 -72
Q 669 -72 669 822
L 669 2631
L 134 2631
L 134 3200
L 669 3200
L 669 3941
L 1394 4147
L 1394 3200
L 2159 3200
L 2159 2631
L 1394 2631
L 1394 1031
Q 1394 747 1497 625
Q 1600 503 1841 503
Q 2025 503 2159 609
L 2159 34
z
" transform="scale(0.015625)"/>
      <path id="SegoeUI-Semibold-65" d="M 3181 1403
L 1000 1403
Q 1013 959 1273 718
Q 1534 478 1991 478
Q 2503 478 2931 784
L 2931 200
Q 2494 -75 1775 -75
Q 1069 -75 667 361
Q 266 797 266 1588
Q 266 2334 708 2804
Q 1150 3275 1806 3275
Q 2463 3275 2822 2853
Q 3181 2431 3181 1681
L 3181 1403
z
M 2481 1916
Q 2478 2306 2297 2523
Q 2116 2741 1797 2741
Q 1484 2741 1267 2512
Q 1050 2284 1000 1916
L 2481 1916
z
" transform="scale(0.015625)"/>
      <path id="SegoeUI-Semibold-73" d="M 272 100
L 272 772
Q 678 463 1169 463
Q 1825 463 1825 850
Q 1825 959 1769 1036
Q 1713 1113 1617 1172
Q 1522 1231 1392 1278
Q 1263 1325 1103 1384
Q 906 1463 748 1550
Q 591 1638 486 1748
Q 381 1859 328 2000
Q 275 2141 275 2328
Q 275 2559 384 2736
Q 494 2913 678 3033
Q 863 3153 1097 3214
Q 1331 3275 1581 3275
Q 2025 3275 2375 3141
L 2375 2506
Q 2038 2738 1600 2738
Q 1463 2738 1352 2709
Q 1241 2681 1162 2631
Q 1084 2581 1040 2511
Q 997 2441 997 2356
Q 997 2253 1040 2181
Q 1084 2109 1170 2054
Q 1256 2000 1376 1954
Q 1497 1909 1653 1856
Q 1859 1772 2023 1684
Q 2188 1597 2303 1486
Q 2419 1375 2481 1229
Q 2544 1084 2544 884
Q 2544 641 2431 459
Q 2319 278 2131 159
Q 1944 41 1698 -17
Q 1453 -75 1181 -75
Q 656 -75 272 100
z
" transform="scale(0.015625)"/>
     </defs>
     <use xlink:href="#SegoeUI-Semibold-41"/>
     <use xlink:href="#SegoeUI-Semibold-2e" transform="translate(67.138672 0)"/>
     <use xlink:href="#SegoeUI-Semibold-20" transform="translate(91.259766 0)"/>
     <use xlink:href="#SegoeUI-Semibold-54" transform="translate(118.75 0)"/>
     <use xlink:href="#SegoeUI-Semibold-61" transform="translate(164.300781 0)"/>
     <use xlink:href="#SegoeUI-Semibold-69" transform="translate(216.498047 0)"/>
     <use xlink:href="#SegoeUI-Semibold-6c" transform="translate(242.621094 0)"/>
     <use xlink:href="#SegoeUI-Semibold-2d" transform="translate(268.744141 0)"/>
     <use xlink:href="#SegoeUI-Semibold-64" transform="translate(308.929688 0)"/>
     <use xlink:href="#SegoeUI-Semibold-61" transform="translate(369.183594 0)"/>
     <use xlink:href="#SegoeUI-Semibold-79" transform="translate(421.380859 0)"/>
     <use xlink:href="#SegoeUI-Semibold-20" transform="translate(472.210938 0)"/>
     <use xlink:href="#SegoeUI-Semibold-72" transform="translate(499.701172 0)"/>
     <use xlink:href="#SegoeUI-Semibold-61" transform="translate(536.712891 0)"/>
     <use xlink:href="#SegoeUI-Semibold-74" transform="translate(588.910156 0)"/>
     <use xlink:href="#SegoeUI-Semibold-65" transform="translate(624.417969 0)"/>
     <use xlink:href="#SegoeUI-Semibold-73" transform="translate(677.542969 0)"/>
    </g>
   </g>
  </g>
  <g id="axes_2">
   <g id="patch_8">
    <path d="M 563.707392 359.28
L 954.741875 359.28
L 954.741875 91.44
L 563.707392 91.44
z
" style="fill: #ffffff"/>
   </g>
   <g id="matplotlib.axis_3">
    <g id="xtick_4">
     <g id="line2d_10">
      <path d="M 563.707392 359.28
L 563.707392 91.44
" clip-path="url(#p4c14162422)" style="fill: none; stroke: #e8ebf2; stroke-width: 0.8; stroke-linecap: round"/>
     </g>
     <g id="text_19">
      <!-- 0 -->
      <g style="fill: #6f768a" transform="translate(561.01208 370.183125) scale(0.1 -0.1)">
       <use xlink:href="#SegoeUI-30"/>
      </g>
     </g>
    </g>
    <g id="xtick_5">
     <g id="line2d_11">
      <path d="M 611.414125 359.28
L 611.414125 91.44
" clip-path="url(#p4c14162422)" style="fill: none; stroke: #e8ebf2; stroke-width: 0.8; stroke-linecap: round"/>
     </g>
     <g id="text_20">
      <!-- 20 -->
      <g style="fill: #6f768a" transform="translate(606.0235 370.183125) scale(0.1 -0.1)">
       <use xlink:href="#SegoeUI-32"/>
       <use xlink:href="#SegoeUI-30" transform="translate(53.90625 0)"/>
      </g>
     </g>
    </g>
    <g id="xtick_6">
     <g id="line2d_12">
      <path d="M 659.120857 359.28
L 659.120857 91.44
" clip-path="url(#p4c14162422)" style="fill: none; stroke: #e8ebf2; stroke-width: 0.8; stroke-linecap: round"/>
     </g>
     <g id="text_21">
      <!-- 40 -->
      <g style="fill: #6f768a" transform="translate(653.730232 370.183125) scale(0.1 -0.1)">
       <use xlink:href="#SegoeUI-34"/>
       <use xlink:href="#SegoeUI-30" transform="translate(53.90625 0)"/>
      </g>
     </g>
    </g>
    <g id="xtick_7">
     <g id="line2d_13">
      <path d="M 706.827589 359.28
L 706.827589 91.44
" clip-path="url(#p4c14162422)" style="fill: none; stroke: #e8ebf2; stroke-width: 0.8; stroke-linecap: round"/>
     </g>
     <g id="text_22">
      <!-- 60 -->
      <g style="fill: #6f768a" transform="translate(701.436964 370.183125) scale(0.1 -0.1)">
       <use xlink:href="#SegoeUI-36"/>
       <use xlink:href="#SegoeUI-30" transform="translate(53.90625 0)"/>
      </g>
     </g>
    </g>
    <g id="xtick_8">
     <g id="line2d_14">
      <path d="M 754.534322 359.28
L 754.534322 91.44
" clip-path="url(#p4c14162422)" style="fill: none; stroke: #e8ebf2; stroke-width: 0.8; stroke-linecap: round"/>
     </g>
     <g id="text_23">
      <!-- 80 -->
      <g style="fill: #6f768a" transform="translate(749.143697 370.183125) scale(0.1 -0.1)">
       <use xlink:href="#SegoeUI-38"/>
       <use xlink:href="#SegoeUI-30" transform="translate(53.90625 0)"/>
      </g>
     </g>
    </g>
    <g id="xtick_9">
     <g id="line2d_15">
      <path d="M 802.241054 359.28
L 802.241054 91.44
" clip-path="url(#p4c14162422)" style="fill: none; stroke: #e8ebf2; stroke-width: 0.8; stroke-linecap: round"/>
     </g>
     <g id="text_24">
      <!-- 100 -->
      <g style="fill: #6f768a" transform="translate(794.155117 370.183125) scale(0.1 -0.1)">
       <use xlink:href="#SegoeUI-31"/>
       <use xlink:href="#SegoeUI-30" transform="translate(53.90625 0)"/>
       <use xlink:href="#SegoeUI-30" transform="translate(107.8125 0)"/>
      </g>
     </g>
    </g>
    <g id="xtick_10">
     <g id="line2d_16">
      <path d="M 849.947786 359.28
L 849.947786 91.44
" clip-path="url(#p4c14162422)" style="fill: none; stroke: #e8ebf2; stroke-width: 0.8; stroke-linecap: round"/>
     </g>
     <g id="text_25">
      <!-- 120 -->
      <g style="fill: #6f768a" transform="translate(841.861849 370.183125) scale(0.1 -0.1)">
       <use xlink:href="#SegoeUI-31"/>
       <use xlink:href="#SegoeUI-32" transform="translate(53.90625 0)"/>
       <use xlink:href="#SegoeUI-30" transform="translate(107.8125 0)"/>
      </g>
     </g>
    </g>
    <g id="xtick_11">
     <g id="line2d_17">
      <path d="M 897.654519 359.28
L 897.654519 91.44
" clip-path="url(#p4c14162422)" style="fill: none; stroke: #e8ebf2; stroke-width: 0.8; stroke-linecap: round"/>
     </g>
     <g id="text_26">
      <!-- 140 -->
      <g style="fill: #6f768a" transform="translate(889.568581 370.183125) scale(0.1 -0.1)">
       <use xlink:href="#SegoeUI-31"/>
       <use xlink:href="#SegoeUI-34" transform="translate(53.90625 0)"/>
       <use xlink:href="#SegoeUI-30" transform="translate(107.8125 0)"/>
      </g>
     </g>
    </g>
    <g id="xtick_12">
     <g id="line2d_18">
      <path d="M 945.361251 359.28
L 945.361251 91.44
" clip-path="url(#p4c14162422)" style="fill: none; stroke: #e8ebf2; stroke-width: 0.8; stroke-linecap: round"/>
     </g>
     <g id="text_27">
      <!-- 160 -->
      <g style="fill: #6f768a" transform="translate(937.275314 370.183125) scale(0.1 -0.1)">
       <use xlink:href="#SegoeUI-31"/>
       <use xlink:href="#SegoeUI-36" transform="translate(53.90625 0)"/>
       <use xlink:href="#SegoeUI-30" transform="translate(107.8125 0)"/>
      </g>
     </g>
    </g>
    <g id="text_28">
     <!-- Same-day liquidation / prior-day OI (%) -->
     <g style="fill: #1f2430" transform="translate(655.129321 385.366875) scale(0.12 -0.12)">
      <defs>
       <path id="SegoeUI-53" d="M 378 181
L 378 800
Q 484 706 632 631
Q 781 556 945 504
Q 1109 453 1275 425
Q 1441 397 1581 397
Q 2066 397 2305 576
Q 2544 756 2544 1094
Q 2544 1275 2464 1409
Q 2384 1544 2243 1655
Q 2103 1766 1911 1867
Q 1719 1969 1497 2081
Q 1263 2200 1059 2322
Q 856 2444 706 2591
Q 556 2738 470 2923
Q 384 3109 384 3359
Q 384 3666 518 3892
Q 653 4119 872 4266
Q 1091 4413 1370 4484
Q 1650 4556 1941 4556
Q 2603 4556 2906 4397
L 2906 3806
Q 2509 4081 1888 4081
Q 1716 4081 1544 4045
Q 1372 4009 1237 3928
Q 1103 3847 1018 3719
Q 934 3591 934 3406
Q 934 3234 998 3109
Q 1063 2984 1188 2881
Q 1313 2778 1492 2681
Q 1672 2584 1906 2469
Q 2147 2350 2362 2219
Q 2578 2088 2740 1928
Q 2903 1769 2998 1575
Q 3094 1381 3094 1131
Q 3094 800 2964 570
Q 2834 341 2614 197
Q 2394 53 2106 -11
Q 1819 -75 1500 -75
Q 1394 -75 1237 -58
Q 1081 -41 918 -8
Q 756 25 611 73
Q 466 122 378 181
z
" transform="scale(0.015625)"/>
       <path id="SegoeUI-2f" d="M 2541 4481
L 391 -744
L -88 -744
L 2056 4481
L 2541 4481
z
" transform="scale(0.015625)"/>
       <path id="SegoeUI-70" d="M 1044 463
L 1031 463
L 1031 -1472
L 519 -1472
L 519 3200
L 1031 3200
L 1031 2638
L 1044 2638
Q 1422 3275 2150 3275
Q 2769 3275 3116 2845
Q 3463 2416 3463 1694
Q 3463 891 3072 408
Q 2681 -75 2003 -75
Q 1381 -75 1044 463
z
M 1031 1753
L 1031 1306
Q 1031 909 1289 632
Q 1547 356 1944 356
Q 2409 356 2673 712
Q 2938 1069 2938 1703
Q 2938 2238 2691 2541
Q 2444 2844 2022 2844
Q 1575 2844 1303 2533
Q 1031 2222 1031 1753
z
" transform="scale(0.015625)"/>
       <path id="SegoeUI-4f" d="M 2394 -75
Q 1441 -75 867 553
Q 294 1181 294 2188
Q 294 3269 878 3912
Q 1463 4556 2469 4556
Q 3397 4556 3964 3931
Q 4531 3306 4531 2297
Q 4531 1200 3950 562
Q 3369 -75 2394 -75
z
M 2431 4081
Q 1725 4081 1284 3572
Q 844 3063 844 2234
Q 844 1406 1273 901
Q 1703 397 2394 397
Q 3131 397 3556 878
Q 3981 1359 3981 2225
Q 3981 3113 3568 3597
Q 3156 4081 2431 4081
z
" transform="scale(0.015625)"/>
       <path id="SegoeUI-49" d="M 1113 0
L 588 0
L 588 4481
L 1113 4481
L 1113 0
z
" transform="scale(0.015625)"/>
       <path id="SegoeUI-28" d="M 1863 -1019
L 1406 -1019
Q 438 88 438 1709
Q 438 3338 1406 4481
L 1869 4481
Q 888 3294 888 1716
Q 888 150 1863 -1019
z
" transform="scale(0.015625)"/>
       <path id="SegoeUI-29" d="M 531 -1019
L 75 -1019
Q 1050 150 1050 1716
Q 1050 3294 69 4481
L 531 4481
Q 1506 3338 1506 1709
Q 1506 88 531 -1019
z
" transform="scale(0.015625)"/>
      </defs>
      <use xlink:href="#SegoeUI-53"/>
      <use xlink:href="#SegoeUI-61" transform="translate(53.125 0)"/>
      <use xlink:href="#SegoeUI-6d" transform="translate(104.003906 0)"/>
      <use xlink:href="#SegoeUI-65" transform="translate(190.136719 0)"/>
      <use xlink:href="#SegoeUI-2d" transform="translate(242.431641 0)"/>
      <use xlink:href="#SegoeUI-64" transform="translate(282.421875 0)"/>
      <use xlink:href="#SegoeUI-61" transform="translate(341.308594 0)"/>
      <use xlink:href="#SegoeUI-79" transform="translate(392.1875 0)"/>
      <use xlink:href="#SegoeUI-20" transform="translate(440.576172 0)"/>
      <use xlink:href="#SegoeUI-6c" transform="translate(467.96875 0)"/>
      <use xlink:href="#SegoeUI-69" transform="translate(492.1875 0)"/>
      <use xlink:href="#SegoeUI-71" transform="translate(516.40625 0)"/>
      <use xlink:href="#SegoeUI-75" transform="translate(575.292969 0)"/>
      <use xlink:href="#SegoeUI-69" transform="translate(631.884766 0)"/>
      <use xlink:href="#SegoeUI-64" transform="translate(656.103516 0)"/>
      <use xlink:href="#SegoeUI-61" transform="translate(714.990234 0)"/>
      <use xlink:href="#SegoeUI-74" transform="translate(765.869141 0)"/>
      <use xlink:href="#SegoeUI-69" transform="translate(799.755859 0)"/>
      <use xlink:href="#SegoeUI-6f" transform="translate(823.974609 0)"/>
      <use xlink:href="#SegoeUI-6e" transform="translate(882.568359 0)"/>
      <use xlink:href="#SegoeUI-20" transform="translate(939.160156 0)"/>
      <use xlink:href="#SegoeUI-2f" transform="translate(966.552734 0)"/>
      <use xlink:href="#SegoeUI-20" transform="translate(1005.517578 0)"/>
      <use xlink:href="#SegoeUI-70" transform="translate(1032.910156 0)"/>
      <use xlink:href="#SegoeUI-72" transform="translate(1091.699219 0)"/>
      <use xlink:href="#SegoeUI-69" transform="translate(1126.464844 0)"/>
      <use xlink:href="#SegoeUI-6f" transform="translate(1150.683594 0)"/>
      <use xlink:href="#SegoeUI-72" transform="translate(1209.277344 0)"/>
      <use xlink:href="#SegoeUI-2d" transform="translate(1237.792969 0)"/>
      <use xlink:href="#SegoeUI-64" transform="translate(1277.783203 0)"/>
      <use xlink:href="#SegoeUI-61" transform="translate(1336.669922 0)"/>
      <use xlink:href="#SegoeUI-79" transform="translate(1387.548828 0)"/>
      <use xlink:href="#SegoeUI-20" transform="translate(1435.9375 0)"/>
      <use xlink:href="#SegoeUI-4f" transform="translate(1463.330078 0)"/>
      <use xlink:href="#SegoeUI-49" transform="translate(1538.720703 0)"/>
      <use xlink:href="#SegoeUI-20" transform="translate(1565.332031 0)"/>
      <use xlink:href="#SegoeUI-28" transform="translate(1592.724609 0)"/>
      <use xlink:href="#SegoeUI-25" transform="translate(1622.900391 0)"/>
      <use xlink:href="#SegoeUI-29" transform="translate(1704.736328 0)"/>
     </g>
    </g>
   </g>
   <g id="matplotlib.axis_4">
    <g id="ytick_10">
     <g id="text_29">
      <!-- 2021-02-22 -->
      <g style="fill: #6f768a" transform="translate(509.085517 334.014541) scale(0.1 -0.1)">
       <use xlink:href="#SegoeUI-32"/>
       <use xlink:href="#SegoeUI-30" transform="translate(53.90625 0)"/>
       <use xlink:href="#SegoeUI-32" transform="translate(107.8125 0)"/>
       <use xlink:href="#SegoeUI-31" transform="translate(161.71875 0)"/>
       <use xlink:href="#SegoeUI-2d" transform="translate(215.625 0)"/>
       <use xlink:href="#SegoeUI-30" transform="translate(255.615234 0)"/>
       <use xlink:href="#SegoeUI-32" transform="translate(309.521484 0)"/>
       <use xlink:href="#SegoeUI-2d" transform="translate(363.427734 0)"/>
       <use xlink:href="#SegoeUI-32" transform="translate(403.417969 0)"/>
       <use xlink:href="#SegoeUI-32" transform="translate(457.324219 0)"/>
      </g>
     </g>
    </g>
    <g id="ytick_11">
     <g id="text_30">
      <!-- 2021-01-11 -->
      <g style="fill: #6f768a" transform="translate(509.085517 292.033349) scale(0.1 -0.1)">
       <use xlink:href="#SegoeUI-32"/>
       <use xlink:href="#SegoeUI-30" transform="translate(53.90625 0)"/>
       <use xlink:href="#SegoeUI-32" transform="translate(107.8125 0)"/>
       <use xlink:href="#SegoeUI-31" transform="translate(161.71875 0)"/>
       <use xlink:href="#SegoeUI-2d" transform="translate(215.625 0)"/>
       <use xlink:href="#SegoeUI-30" transform="translate(255.615234 0)"/>
       <use xlink:href="#SegoeUI-31" transform="translate(309.521484 0)"/>
       <use xlink:href="#SegoeUI-2d" transform="translate(363.427734 0)"/>
       <use xlink:href="#SegoeUI-31" transform="translate(403.417969 0)"/>
       <use xlink:href="#SegoeUI-31" transform="translate(457.324219 0)"/>
      </g>
     </g>
    </g>
    <g id="ytick_12">
     <g id="text_31">
      <!-- 2021-04-18 -->
      <g style="fill: #6f768a" transform="translate(509.085517 250.052158) scale(0.1 -0.1)">
       <use xlink:href="#SegoeUI-32"/>
       <use xlink:href="#SegoeUI-30" transform="translate(53.90625 0)"/>
       <use xlink:href="#SegoeUI-32" transform="translate(107.8125 0)"/>
       <use xlink:href="#SegoeUI-31" transform="translate(161.71875 0)"/>
       <use xlink:href="#SegoeUI-2d" transform="translate(215.625 0)"/>
       <use xlink:href="#SegoeUI-30" transform="translate(255.615234 0)"/>
       <use xlink:href="#SegoeUI-34" transform="translate(309.521484 0)"/>
       <use xlink:href="#SegoeUI-2d" transform="translate(363.427734 0)"/>
       <use xlink:href="#SegoeUI-31" transform="translate(403.417969 0)"/>
       <use xlink:href="#SegoeUI-38" transform="translate(457.324219 0)"/>
      </g>
     </g>
    </g>
    <g id="ytick_13">
     <g id="text_32">
      <!-- 2021-05-19 -->
      <g style="fill: #6f768a" transform="translate(509.085517 208.070967) scale(0.1 -0.1)">
       <defs>
        <path id="SegoeUI-39" d="M 3138 2509
Q 3138 1894 3016 1414
Q 2894 934 2659 601
Q 2425 269 2087 95
Q 1750 -78 1319 -78
Q 875 -78 538 78
L 538 569
Q 909 359 1331 359
Q 1634 359 1873 484
Q 2113 609 2278 848
Q 2444 1088 2531 1438
Q 2619 1788 2619 2241
L 2606 2241
Q 2319 1663 1606 1663
Q 1319 1663 1078 1764
Q 838 1866 663 2052
Q 488 2238 391 2494
Q 294 2750 294 3059
Q 294 3391 401 3666
Q 509 3941 701 4139
Q 894 4338 1158 4447
Q 1422 4556 1734 4556
Q 2072 4556 2333 4420
Q 2594 4284 2772 4023
Q 2950 3763 3044 3381
Q 3138 3000 3138 2509
z
M 2584 2969
Q 2584 3228 2517 3440
Q 2450 3653 2331 3804
Q 2213 3956 2048 4039
Q 1884 4122 1691 4122
Q 1506 4122 1347 4048
Q 1188 3975 1070 3842
Q 953 3709 886 3526
Q 819 3344 819 3128
Q 819 2891 883 2703
Q 947 2516 1065 2386
Q 1184 2256 1351 2187
Q 1519 2119 1722 2119
Q 1900 2119 2058 2186
Q 2216 2253 2333 2367
Q 2450 2481 2517 2636
Q 2584 2791 2584 2969
z
" transform="scale(0.015625)"/>
       </defs>
       <use xlink:href="#SegoeUI-32"/>
       <use xlink:href="#SegoeUI-30" transform="translate(53.90625 0)"/>
       <use xlink:href="#SegoeUI-32" transform="translate(107.8125 0)"/>
       <use xlink:href="#SegoeUI-31" transform="translate(161.71875 0)"/>
       <use xlink:href="#SegoeUI-2d" transform="translate(215.625 0)"/>
       <use xlink:href="#SegoeUI-30" transform="translate(255.615234 0)"/>
       <use xlink:href="#SegoeUI-35" transform="translate(309.521484 0)"/>
       <use xlink:href="#SegoeUI-2d" transform="translate(363.427734 0)"/>
       <use xlink:href="#SegoeUI-31" transform="translate(403.417969 0)"/>
       <use xlink:href="#SegoeUI-39" transform="translate(457.324219 0)"/>
      </g>
     </g>
    </g>
    <g id="ytick_14">
     <g id="text_33">
      <!-- 2020-03-12 -->
      <g style="fill: #6f768a" transform="translate(509.085517 166.089776) scale(0.1 -0.1)">
       <use xlink:href="#SegoeUI-32"/>
       <use xlink:href="#SegoeUI-30" transform="translate(53.90625 0)"/>
       <use xlink:href="#SegoeUI-32" transform="translate(107.8125 0)"/>
       <use xlink:href="#SegoeUI-30" transform="translate(161.71875 0)"/>
       <use xlink:href="#SegoeUI-2d" transform="translate(215.625 0)"/>
       <use xlink:href="#SegoeUI-30" transform="translate(255.615234 0)"/>
       <use xlink:href="#SegoeUI-33" transform="translate(309.521484 0)"/>
       <use xlink:href="#SegoeUI-2d" transform="translate(363.427734 0)"/>
       <use xlink:href="#SegoeUI-31" transform="translate(403.417969 0)"/>
       <use xlink:href="#SegoeUI-32" transform="translate(457.324219 0)"/>
      </g>
     </g>
    </g>
    <g id="ytick_15">
     <g id="text_34">
      <!-- 2020-03-13 -->
      <g style="fill: #6f768a" transform="translate(509.085517 124.108584) scale(0.1 -0.1)">
       <use xlink:href="#SegoeUI-32"/>
       <use xlink:href="#SegoeUI-30" transform="translate(53.90625 0)"/>
       <use xlink:href="#SegoeUI-32" transform="translate(107.8125 0)"/>
       <use xlink:href="#SegoeUI-30" transform="translate(161.71875 0)"/>
       <use xlink:href="#SegoeUI-2d" transform="translate(215.625 0)"/>
       <use xlink:href="#SegoeUI-30" transform="translate(255.615234 0)"/>
       <use xlink:href="#SegoeUI-33" transform="translate(309.521484 0)"/>
       <use xlink:href="#SegoeUI-2d" transform="translate(363.427734 0)"/>
       <use xlink:href="#SegoeUI-31" transform="translate(403.417969 0)"/>
       <use xlink:href="#SegoeUI-33" transform="translate(457.324219 0)"/>
      </g>
     </g>
    </g>
   </g>
   <g id="patch_9">
    <path d="M 563.707392 347.105455
L 602.29261 347.105455
L 602.29261 313.520502
L 563.707392 313.520502
z
" clip-path="url(#p4c14162422)" style="fill: #b85c5c; stroke: #7a3333; stroke-linejoin: miter"/>
   </g>
   <g id="patch_10">
    <path d="M 563.707392 305.124263
L 605.087069 305.124263
L 605.087069 271.53931
L 563.707392 271.53931
z
" clip-path="url(#p4c14162422)" style="fill: #b85c5c; stroke: #7a3333; stroke-linejoin: miter"/>
   </g>
   <g id="patch_11">
    <path d="M 563.707392 263.143072
L 605.624503 263.143072
L 605.624503 229.558119
L 563.707392 229.558119
z
" clip-path="url(#p4c14162422)" style="fill: #b85c5c; stroke: #7a3333; stroke-linejoin: miter"/>
   </g>
   <g id="patch_12">
    <path d="M 563.707392 221.161881
L 618.80295 221.161881
L 618.80295 187.576928
L 563.707392 187.576928
z
" clip-path="url(#p4c14162422)" style="fill: #b85c5c; stroke: #7a3333; stroke-linejoin: miter"/>
   </g>
   <g id="patch_13">
    <path d="M 563.707392 179.18069
L 758.175363 179.18069
L 758.175363 145.595737
L 563.707392 145.595737
z
" clip-path="url(#p4c14162422)" style="fill: #b85c5c; stroke: #7a3333; stroke-linejoin: miter"/>
   </g>
   <g id="patch_14">
    <path d="M 563.707392 137.199498
L 895.092547 137.199498
L 895.092547 103.614545
L 563.707392 103.614545
z
" clip-path="url(#p4c14162422)" style="fill: #b85c5c; stroke: #7a3333; stroke-linejoin: miter"/>
   </g>
   <g id="patch_15">
    <path d="M 563.707392 359.28
L 563.707392 91.44
" style="fill: none; stroke: #d7dbe7; stroke-width: 1.25; stroke-linejoin: miter; stroke-linecap: square"/>
   </g>
   <g id="patch_16">
    <path d="M 563.707392 359.28
L 954.741875 359.28
" style="fill: none; stroke: #d7dbe7; stroke-width: 1.25; stroke-linejoin: miter; stroke-linecap: square"/>
   </g>
   <g id="text_35">
    <!-- 16.2% -->
    <g style="fill: #1f2430" transform="translate(607.263387 332.864541) scale(0.1 -0.1)">
     <use xlink:href="#SegoeUI-31"/>
     <use xlink:href="#SegoeUI-36" transform="translate(53.90625 0)"/>
     <use xlink:href="#SegoeUI-2e" transform="translate(107.8125 0)"/>
     <use xlink:href="#SegoeUI-32" transform="translate(129.492188 0)"/>
     <use xlink:href="#SegoeUI-25" transform="translate(183.398438 0)"/>
    </g>
   </g>
   <g id="text_36">
    <!-- 17.3% -->
    <g style="fill: #1f2430" transform="translate(610.057846 290.883349) scale(0.1 -0.1)">
     <use xlink:href="#SegoeUI-31"/>
     <use xlink:href="#SegoeUI-37" transform="translate(53.90625 0)"/>
     <use xlink:href="#SegoeUI-2e" transform="translate(107.8125 0)"/>
     <use xlink:href="#SegoeUI-33" transform="translate(129.492188 0)"/>
     <use xlink:href="#SegoeUI-25" transform="translate(183.398438 0)"/>
    </g>
   </g>
   <g id="text_37">
    <!-- 17.6% -->
    <g style="fill: #1f2430" transform="translate(610.595281 248.902158) scale(0.1 -0.1)">
     <use xlink:href="#SegoeUI-31"/>
     <use xlink:href="#SegoeUI-37" transform="translate(53.90625 0)"/>
     <use xlink:href="#SegoeUI-2e" transform="translate(107.8125 0)"/>
     <use xlink:href="#SegoeUI-36" transform="translate(129.492188 0)"/>
     <use xlink:href="#SegoeUI-25" transform="translate(183.398438 0)"/>
    </g>
   </g>
   <g id="text_38">
    <!-- 23.1% -->
    <g style="fill: #1f2430" transform="translate(623.773727 206.920967) scale(0.1 -0.1)">
     <use xlink:href="#SegoeUI-32"/>
     <use xlink:href="#SegoeUI-33" transform="translate(53.90625 0)"/>
     <use xlink:href="#SegoeUI-2e" transform="translate(107.8125 0)"/>
     <use xlink:href="#SegoeUI-31" transform="translate(129.492188 0)"/>
     <use xlink:href="#SegoeUI-25" transform="translate(183.398438 0)"/>
    </g>
   </g>
   <g id="text_39">
    <!-- 81.5% -->
    <g style="fill: #1f2430" transform="translate(763.14614 164.939776) scale(0.1 -0.1)">
     <use xlink:href="#SegoeUI-38"/>
     <use xlink:href="#SegoeUI-31" transform="translate(53.90625 0)"/>
     <use xlink:href="#SegoeUI-2e" transform="translate(107.8125 0)"/>
     <use xlink:href="#SegoeUI-35" transform="translate(129.492188 0)"/>
     <use xlink:href="#SegoeUI-25" transform="translate(183.398438 0)"/>
    </g>
   </g>
   <g id="text_40">
    <!-- 138.9% -->
    <g style="fill: #1f2430" transform="translate(900.063324 122.958584) scale(0.1 -0.1)">
     <use xlink:href="#SegoeUI-31"/>
     <use xlink:href="#SegoeUI-33" transform="translate(53.90625 0)"/>
     <use xlink:href="#SegoeUI-38" transform="translate(107.8125 0)"/>
     <use xlink:href="#SegoeUI-2e" transform="translate(161.71875 0)"/>
     <use xlink:href="#SegoeUI-39" transform="translate(183.398438 0)"/>
     <use xlink:href="#SegoeUI-25" transform="translate(237.304688 0)"/>
    </g>
   </g>
   <g id="text_41">
    <!-- B. Largest liquidation signatures -->
    <g style="fill: #1f2430" transform="translate(563.707392 85.44) scale(0.13 -0.13)">
     <defs>
      <path id="SegoeUI-Semibold-42" d="M 553 0
L 553 4481
L 1975 4481
Q 2625 4481 3004 4197
Q 3384 3913 3384 3456
Q 3384 3075 3168 2794
Q 2953 2513 2572 2394
L 2572 2381
Q 3034 2328 3311 2039
Q 3588 1750 3588 1288
Q 3588 713 3134 356
Q 2681 0 1991 0
L 553 0
z
M 1294 3884
L 1294 2609
L 1775 2609
Q 2163 2609 2383 2792
Q 2603 2975 2603 3309
Q 2603 3884 1834 3884
L 1294 3884
z
M 1294 2013
L 1294 594
L 1928 594
Q 2344 594 2570 786
Q 2797 978 2797 1316
Q 2797 2013 1831 2013
L 1294 2013
z
" transform="scale(0.015625)"/>
      <path id="SegoeUI-Semibold-4c" d="M 3034 0
L 553 0
L 553 4481
L 1297 4481
L 1297 628
L 3034 628
L 3034 0
z
" transform="scale(0.015625)"/>
      <path id="SegoeUI-Semibold-67" d="M 3384 256
Q 3384 -1506 1613 -1506
Q 988 -1506 522 -1297
L 522 -634
Q 1047 -934 1519 -934
Q 2659 -934 2659 188
L 2659 538
L 2647 538
Q 2288 -75 1566 -75
Q 981 -75 623 351
Q 266 778 266 1497
Q 266 2313 650 2794
Q 1034 3275 1706 3275
Q 2341 3275 2647 2756
L 2659 2756
L 2659 3200
L 3384 3200
L 3384 256
z
M 2666 1466
L 2666 1881
Q 2666 2219 2442 2458
Q 2219 2697 1884 2697
Q 1472 2697 1239 2392
Q 1006 2088 1006 1541
Q 1006 1069 1229 786
Q 1453 503 1822 503
Q 2197 503 2431 773
Q 2666 1044 2666 1466
z
" transform="scale(0.015625)"/>
      <path id="SegoeUI-Semibold-71" d="M 3381 -1472
L 2656 -1472
L 2656 550
L 2644 550
Q 2316 -75 1572 -75
Q 981 -75 623 354
Q 266 784 266 1525
Q 266 2322 658 2798
Q 1050 3275 1713 3275
Q 2356 3275 2644 2756
L 2656 2756
L 2656 3200
L 3381 3200
L 3381 -1472
z
M 2666 1456
L 2666 1869
Q 2666 2216 2442 2456
Q 2219 2697 1875 2697
Q 1472 2697 1239 2395
Q 1006 2094 1006 1544
Q 1006 1056 1231 778
Q 1456 500 1813 500
Q 2203 500 2434 772
Q 2666 1044 2666 1456
z
" transform="scale(0.015625)"/>
      <path id="SegoeUI-Semibold-75" d="M 3263 0
L 2538 0
L 2538 506
L 2525 506
Q 2209 -75 1544 -75
Q 409 -75 409 1288
L 409 3200
L 1134 3200
L 1134 1363
Q 1134 500 1800 500
Q 2122 500 2330 737
Q 2538 975 2538 1359
L 2538 3200
L 3263 3200
L 3263 0
z
" transform="scale(0.015625)"/>
      <path id="SegoeUI-Semibold-6f" d="M 1891 -75
Q 1150 -75 708 373
Q 266 822 266 1563
Q 266 2369 727 2822
Q 1188 3275 1969 3275
Q 2719 3275 3137 2834
Q 3556 2394 3556 1613
Q 3556 847 3104 386
Q 2653 -75 1891 -75
z
M 1925 2697
Q 1500 2697 1253 2400
Q 1006 2103 1006 1581
Q 1006 1078 1256 789
Q 1506 500 1925 500
Q 2353 500 2583 784
Q 2813 1069 2813 1594
Q 2813 2122 2583 2409
Q 2353 2697 1925 2697
z
" transform="scale(0.015625)"/>
      <path id="SegoeUI-Semibold-6e" d="M 3322 0
L 2597 0
L 2597 1803
Q 2597 2700 1963 2700
Q 1631 2700 1415 2451
Q 1200 2203 1200 1825
L 1200 0
L 472 0
L 472 3200
L 1200 3200
L 1200 2669
L 1213 2669
Q 1572 3275 2250 3275
Q 2772 3275 3047 2936
Q 3322 2597 3322 1956
L 3322 0
z
" transform="scale(0.015625)"/>
     </defs>
     <use xlink:href="#SegoeUI-Semibold-42"/>
     <use xlink:href="#SegoeUI-Semibold-2e" transform="translate(60.400391 0)"/>
     <use xlink:href="#SegoeUI-Semibold-20" transform="translate(84.521484 0)"/>
     <use xlink:href="#SegoeUI-Semibold-4c" transform="translate(112.011719 0)"/>
     <use xlink:href="#SegoeUI-Semibold-61" transform="translate(160.888672 0)"/>
     <use xlink:href="#SegoeUI-Semibold-72" transform="translate(213.085938 0)"/>
     <use xlink:href="#SegoeUI-Semibold-67" transform="translate(249.222656 0)"/>
     <use xlink:href="#SegoeUI-Semibold-65" transform="translate(309.476562 0)"/>
     <use xlink:href="#SegoeUI-Semibold-73" transform="translate(362.601562 0)"/>
     <use xlink:href="#SegoeUI-Semibold-74" transform="translate(405.716797 0)"/>
     <use xlink:href="#SegoeUI-Semibold-20" transform="translate(441.849609 0)"/>
     <use xlink:href="#SegoeUI-Semibold-6c" transform="translate(469.339844 0)"/>
     <use xlink:href="#SegoeUI-Semibold-69" transform="translate(495.462891 0)"/>
     <use xlink:href="#SegoeUI-Semibold-71" transform="translate(521.585938 0)"/>
     <use xlink:href="#SegoeUI-Semibold-75" transform="translate(581.839844 0)"/>
     <use xlink:href="#SegoeUI-Semibold-69" transform="translate(640.189453 0)"/>
     <use xlink:href="#SegoeUI-Semibold-64" transform="translate(666.3125 0)"/>
     <use xlink:href="#SegoeUI-Semibold-61" transform="translate(726.566406 0)"/>
     <use xlink:href="#SegoeUI-Semibold-74" transform="translate(778.763672 0)"/>
     <use xlink:href="#SegoeUI-Semibold-69" transform="translate(814.896484 0)"/>
     <use xlink:href="#SegoeUI-Semibold-6f" transform="translate(841.019531 0)"/>
     <use xlink:href="#SegoeUI-Semibold-6e" transform="translate(900.736328 0)"/>
     <use xlink:href="#SegoeUI-Semibold-20" transform="translate(959.085938 0)"/>
     <use xlink:href="#SegoeUI-Semibold-73" transform="translate(986.576172 0)"/>
     <use xlink:href="#SegoeUI-Semibold-69" transform="translate(1029.691406 0)"/>
     <use xlink:href="#SegoeUI-Semibold-67" transform="translate(1055.814453 0)"/>
     <use xlink:href="#SegoeUI-Semibold-6e" transform="translate(1116.068359 0)"/>
     <use xlink:href="#SegoeUI-Semibold-61" transform="translate(1174.417969 0)"/>
     <use xlink:href="#SegoeUI-Semibold-74" transform="translate(1226.615234 0)"/>
     <use xlink:href="#SegoeUI-Semibold-75" transform="translate(1262.748047 0)"/>
     <use xlink:href="#SegoeUI-Semibold-72" transform="translate(1321.097656 0)"/>
     <use xlink:href="#SegoeUI-Semibold-65" transform="translate(1357.234375 0)"/>
     <use xlink:href="#SegoeUI-Semibold-73" transform="translate(1410.359375 0)"/>
    </g>
   </g>
  </g>
  <g id="text_42">
   <!-- Tail stress is elevated at both low and high leverage states -->
   <g style="fill: #1f2430" transform="translate(27.381875 19.045) scale(0.16 -0.16)">
    <defs>
     <path id="SegoeUI-Semibold-76" d="M 3228 3200
L 1991 0
L 1206 0
L 28 3200
L 816 3200
L 1525 963
Q 1606 716 1625 531
L 1634 531
Q 1663 763 1722 950
L 2466 3200
L 3228 3200
z
" transform="scale(0.015625)"/>
     <path id="SegoeUI-Semibold-62" d="M 1209 463
L 1197 463
L 1197 0
L 472 0
L 472 4738
L 1197 4738
L 1197 2638
L 1209 2638
Q 1581 3275 2297 3275
Q 2903 3275 3245 2845
Q 3588 2416 3588 1694
Q 3588 891 3203 408
Q 2819 -75 2153 -75
Q 1528 -75 1209 463
z
M 1191 1734
L 1191 1338
Q 1191 988 1414 744
Q 1638 500 1981 500
Q 2384 500 2614 814
Q 2844 1128 2844 1691
Q 2844 2163 2630 2430
Q 2416 2697 2050 2697
Q 1663 2697 1427 2422
Q 1191 2147 1191 1734
z
" transform="scale(0.015625)"/>
     <path id="SegoeUI-Semibold-68" d="M 3316 0
L 2591 0
L 2591 1750
Q 2591 2700 1956 2700
Q 1638 2700 1419 2425
Q 1200 2150 1200 1722
L 1200 0
L 472 0
L 472 4738
L 1200 4738
L 1200 2669
L 1213 2669
Q 1575 3275 2250 3275
Q 3316 3275 3316 1972
L 3316 0
z
" transform="scale(0.015625)"/>
     <path id="SegoeUI-Semibold-77" d="M 4775 3200
L 3831 0
L 3072 0
L 2491 2169
Q 2456 2294 2447 2450
L 2434 2450
Q 2428 2344 2378 2175
L 1747 0
L 1003 0
L 63 3200
L 813 3200
L 1394 894
Q 1422 791 1431 619
L 1453 619
Q 1463 750 1503 900
L 2150 3200
L 2831 3200
L 3406 884
Q 3434 775 3447 609
L 3469 609
Q 3475 725 3516 884
L 4084 3200
L 4775 3200
z
" transform="scale(0.015625)"/>
    </defs>
    <use xlink:href="#SegoeUI-Semibold-54"/>
    <use xlink:href="#SegoeUI-Semibold-61" transform="translate(45.550781 0)"/>
    <use xlink:href="#SegoeUI-Semibold-69" transform="translate(97.748047 0)"/>
    <use xlink:href="#SegoeUI-Semibold-6c" transform="translate(123.871094 0)"/>
    <use xlink:href="#SegoeUI-Semibold-20" transform="translate(149.994141 0)"/>
    <use xlink:href="#SegoeUI-Semibold-73" transform="translate(177.484375 0)"/>
    <use xlink:href="#SegoeUI-Semibold-74" transform="translate(220.599609 0)"/>
    <use xlink:href="#SegoeUI-Semibold-72" transform="translate(256.732422 0)"/>
    <use xlink:href="#SegoeUI-Semibold-65" transform="translate(292.869141 0)"/>
    <use xlink:href="#SegoeUI-Semibold-73" transform="translate(345.994141 0)"/>
    <use xlink:href="#SegoeUI-Semibold-73" transform="translate(389.109375 0)"/>
    <use xlink:href="#SegoeUI-Semibold-20" transform="translate(432.224609 0)"/>
    <use xlink:href="#SegoeUI-Semibold-69" transform="translate(459.714844 0)"/>
    <use xlink:href="#SegoeUI-Semibold-73" transform="translate(485.837891 0)"/>
    <use xlink:href="#SegoeUI-Semibold-20" transform="translate(528.953125 0)"/>
    <use xlink:href="#SegoeUI-Semibold-65" transform="translate(556.443359 0)"/>
    <use xlink:href="#SegoeUI-Semibold-6c" transform="translate(609.568359 0)"/>
    <use xlink:href="#SegoeUI-Semibold-65" transform="translate(635.691406 0)"/>
    <use xlink:href="#SegoeUI-Semibold-76" transform="translate(688.816406 0)"/>
    <use xlink:href="#SegoeUI-Semibold-61" transform="translate(737.923828 0)"/>
    <use xlink:href="#SegoeUI-Semibold-74" transform="translate(790.121094 0)"/>
    <use xlink:href="#SegoeUI-Semibold-65" transform="translate(825.628906 0)"/>
    <use xlink:href="#SegoeUI-Semibold-64" transform="translate(878.753906 0)"/>
    <use xlink:href="#SegoeUI-Semibold-20" transform="translate(939.007812 0)"/>
    <use xlink:href="#SegoeUI-Semibold-61" transform="translate(966.498047 0)"/>
    <use xlink:href="#SegoeUI-Semibold-74" transform="translate(1018.695312 0)"/>
    <use xlink:href="#SegoeUI-Semibold-20" transform="translate(1054.828125 0)"/>
    <use xlink:href="#SegoeUI-Semibold-62" transform="translate(1082.318359 0)"/>
    <use xlink:href="#SegoeUI-Semibold-6f" transform="translate(1142.572266 0)"/>
    <use xlink:href="#SegoeUI-Semibold-74" transform="translate(1202.289062 0)"/>
    <use xlink:href="#SegoeUI-Semibold-68" transform="translate(1238.421875 0)"/>
    <use xlink:href="#SegoeUI-Semibold-20" transform="translate(1296.625 0)"/>
    <use xlink:href="#SegoeUI-Semibold-6c" transform="translate(1324.115234 0)"/>
    <use xlink:href="#SegoeUI-Semibold-6f" transform="translate(1350.238281 0)"/>
    <use xlink:href="#SegoeUI-Semibold-77" transform="translate(1409.955078 0)"/>
    <use xlink:href="#SegoeUI-Semibold-20" transform="translate(1485.589844 0)"/>
    <use xlink:href="#SegoeUI-Semibold-61" transform="translate(1513.080078 0)"/>
    <use xlink:href="#SegoeUI-Semibold-6e" transform="translate(1565.277344 0)"/>
    <use xlink:href="#SegoeUI-Semibold-64" transform="translate(1623.626953 0)"/>
    <use xlink:href="#SegoeUI-Semibold-20" transform="translate(1683.880859 0)"/>
    <use xlink:href="#SegoeUI-Semibold-68" transform="translate(1711.371094 0)"/>
    <use xlink:href="#SegoeUI-Semibold-69" transform="translate(1769.574219 0)"/>
    <use xlink:href="#SegoeUI-Semibold-67" transform="translate(1795.697266 0)"/>
    <use xlink:href="#SegoeUI-Semibold-68" transform="translate(1855.951172 0)"/>
    <use xlink:href="#SegoeUI-Semibold-20" transform="translate(1914.154297 0)"/>
    <use xlink:href="#SegoeUI-Semibold-6c" transform="translate(1941.644531 0)"/>
    <use xlink:href="#SegoeUI-Semibold-65" transform="translate(1967.767578 0)"/>
    <use xlink:href="#SegoeUI-Semibold-76" transform="translate(2020.892578 0)"/>
    <use xlink:href="#SegoeUI-Semibold-65" transform="translate(2070.875 0)"/>
    <use xlink:href="#SegoeUI-Semibold-72" transform="translate(2124 0)"/>
    <use xlink:href="#SegoeUI-Semibold-61" transform="translate(2161.011719 0)"/>
    <use xlink:href="#SegoeUI-Semibold-67" transform="translate(2213.208984 0)"/>
    <use xlink:href="#SegoeUI-Semibold-65" transform="translate(2273.462891 0)"/>
    <use xlink:href="#SegoeUI-Semibold-20" transform="translate(2326.587891 0)"/>
    <use xlink:href="#SegoeUI-Semibold-73" transform="translate(2354.078125 0)"/>
    <use xlink:href="#SegoeUI-Semibold-74" transform="translate(2397.193359 0)"/>
    <use xlink:href="#SegoeUI-Semibold-61" transform="translate(2433.326172 0)"/>
    <use xlink:href="#SegoeUI-Semibold-74" transform="translate(2485.523438 0)"/>
    <use xlink:href="#SegoeUI-Semibold-65" transform="translate(2521.03125 0)"/>
    <use xlink:href="#SegoeUI-Semibold-73" transform="translate(2574.15625 0)"/>
   </g>
  </g>
  <g id="text_43">
   <!-- Q1/Q3/Q5 use lagged leverage-state quintiles; liquidation events use same-day USD liquidations divided by prior-day OI. -->
   <g style="fill: #6f768a" transform="translate(27.381875 36.943437) scale(0.11 -0.11)">
    <defs>
     <path id="SegoeUI-3b" d="M 706 2575
Q 559 2575 457 2678
Q 356 2781 356 2925
Q 356 3069 457 3169
Q 559 3269 706 3269
Q 850 3269 953 3169
Q 1056 3069 1056 2925
Q 1056 2781 953 2678
Q 850 2575 706 2575
z
M 988 713
L 488 -825
L 122 -825
L 488 713
L 988 713
z
" transform="scale(0.015625)"/>
     <path id="SegoeUI-55" d="M 3866 1813
Q 3866 -75 2163 -75
Q 531 -75 531 1741
L 531 4481
L 1056 4481
L 1056 1775
Q 1056 397 2219 397
Q 3341 397 3341 1728
L 3341 4481
L 3866 4481
L 3866 1813
z
" transform="scale(0.015625)"/>
     <path id="SegoeUI-44" d="M 588 0
L 588 4481
L 1825 4481
Q 4194 4481 4194 2297
Q 4194 1259 3536 629
Q 2878 0 1775 0
L 588 0
z
M 1113 4006
L 1113 475
L 1781 475
Q 2663 475 3153 947
Q 3644 1419 3644 2284
Q 3644 4006 1813 4006
L 1113 4006
z
" transform="scale(0.015625)"/>
     <path id="SegoeUI-62" d="M 1044 463
L 1031 463
L 1031 0
L 519 0
L 519 4738
L 1031 4738
L 1031 2638
L 1044 2638
Q 1422 3275 2150 3275
Q 2766 3275 3114 2845
Q 3463 2416 3463 1694
Q 3463 891 3072 408
Q 2681 -75 2003 -75
Q 1369 -75 1044 463
z
M 1031 1753
L 1031 1306
Q 1031 909 1289 632
Q 1547 356 1944 356
Q 2409 356 2673 712
Q 2938 1069 2938 1703
Q 2938 2238 2691 2541
Q 2444 2844 2022 2844
Q 1575 2844 1303 2533
Q 1031 2222 1031 1753
z
" transform="scale(0.015625)"/>
    </defs>
    <use xlink:href="#SegoeUI-51"/>
    <use xlink:href="#SegoeUI-31" transform="translate(75.390625 0)"/>
    <use xlink:href="#SegoeUI-2f" transform="translate(129.296875 0)"/>
    <use xlink:href="#SegoeUI-51" transform="translate(168.261719 0)"/>
    <use xlink:href="#SegoeUI-33" transform="translate(243.652344 0)"/>
    <use xlink:href="#SegoeUI-2f" transform="translate(297.558594 0)"/>
    <use xlink:href="#SegoeUI-51" transform="translate(336.523438 0)"/>
    <use xlink:href="#SegoeUI-35" transform="translate(411.914062 0)"/>
    <use xlink:href="#SegoeUI-20" transform="translate(465.820312 0)"/>
    <use xlink:href="#SegoeUI-75" transform="translate(493.212891 0)"/>
    <use xlink:href="#SegoeUI-73" transform="translate(549.804688 0)"/>
    <use xlink:href="#SegoeUI-65" transform="translate(592.236328 0)"/>
    <use xlink:href="#SegoeUI-20" transform="translate(644.53125 0)"/>
    <use xlink:href="#SegoeUI-6c" transform="translate(671.923828 0)"/>
    <use xlink:href="#SegoeUI-61" transform="translate(696.142578 0)"/>
    <use xlink:href="#SegoeUI-67" transform="translate(747.021484 0)"/>
    <use xlink:href="#SegoeUI-67" transform="translate(805.908203 0)"/>
    <use xlink:href="#SegoeUI-65" transform="translate(864.794922 0)"/>
    <use xlink:href="#SegoeUI-64" transform="translate(917.089844 0)"/>
    <use xlink:href="#SegoeUI-20" transform="translate(975.976562 0)"/>
    <use xlink:href="#SegoeUI-6c" transform="translate(1003.369141 0)"/>
    <use xlink:href="#SegoeUI-65" transform="translate(1027.587891 0)"/>
    <use xlink:href="#SegoeUI-76" transform="translate(1079.882812 0)"/>
    <use xlink:href="#SegoeUI-65" transform="translate(1127.158203 0)"/>
    <use xlink:href="#SegoeUI-72" transform="translate(1179.453125 0)"/>
    <use xlink:href="#SegoeUI-61" transform="translate(1214.21875 0)"/>
    <use xlink:href="#SegoeUI-67" transform="translate(1265.097656 0)"/>
    <use xlink:href="#SegoeUI-65" transform="translate(1323.984375 0)"/>
    <use xlink:href="#SegoeUI-2d" transform="translate(1376.279297 0)"/>
    <use xlink:href="#SegoeUI-73" transform="translate(1416.269531 0)"/>
    <use xlink:href="#SegoeUI-74" transform="translate(1458.701172 0)"/>
    <use xlink:href="#SegoeUI-61" transform="translate(1492.587891 0)"/>
    <use xlink:href="#SegoeUI-74" transform="translate(1543.466797 0)"/>
    <use xlink:href="#SegoeUI-65" transform="translate(1576.603516 0)"/>
    <use xlink:href="#SegoeUI-20" transform="translate(1628.898438 0)"/>
    <use xlink:href="#SegoeUI-71" transform="translate(1656.291016 0)"/>
    <use xlink:href="#SegoeUI-75" transform="translate(1715.177734 0)"/>
    <use xlink:href="#SegoeUI-69" transform="translate(1771.769531 0)"/>
    <use xlink:href="#SegoeUI-6e" transform="translate(1795.988281 0)"/>
    <use xlink:href="#SegoeUI-74" transform="translate(1852.580078 0)"/>
    <use xlink:href="#SegoeUI-69" transform="translate(1886.466797 0)"/>
    <use xlink:href="#SegoeUI-6c" transform="translate(1910.685547 0)"/>
    <use xlink:href="#SegoeUI-65" transform="translate(1934.904297 0)"/>
    <use xlink:href="#SegoeUI-73" transform="translate(1987.199219 0)"/>
    <use xlink:href="#SegoeUI-3b" transform="translate(2029.630859 0)"/>
    <use xlink:href="#SegoeUI-20" transform="translate(2051.310547 0)"/>
    <use xlink:href="#SegoeUI-6c" transform="translate(2078.703125 0)"/>
    <use xlink:href="#SegoeUI-69" transform="translate(2102.921875 0)"/>
    <use xlink:href="#SegoeUI-71" transform="translate(2127.140625 0)"/>
    <use xlink:href="#SegoeUI-75" transform="translate(2186.027344 0)"/>
    <use xlink:href="#SegoeUI-69" transform="translate(2242.619141 0)"/>
    <use xlink:href="#SegoeUI-64" transform="translate(2266.837891 0)"/>
    <use xlink:href="#SegoeUI-61" transform="translate(2325.724609 0)"/>
    <use xlink:href="#SegoeUI-74" transform="translate(2376.603516 0)"/>
    <use xlink:href="#SegoeUI-69" transform="translate(2410.490234 0)"/>
    <use xlink:href="#SegoeUI-6f" transform="translate(2434.708984 0)"/>
    <use xlink:href="#SegoeUI-6e" transform="translate(2493.302734 0)"/>
    <use xlink:href="#SegoeUI-20" transform="translate(2549.894531 0)"/>
    <use xlink:href="#SegoeUI-65" transform="translate(2577.287109 0)"/>
    <use xlink:href="#SegoeUI-76" transform="translate(2629.582031 0)"/>
    <use xlink:href="#SegoeUI-65" transform="translate(2676.857422 0)"/>
    <use xlink:href="#SegoeUI-6e" transform="translate(2729.152344 0)"/>
    <use xlink:href="#SegoeUI-74" transform="translate(2785.744141 0)"/>
    <use xlink:href="#SegoeUI-73" transform="translate(2819.630859 0)"/>
    <use xlink:href="#SegoeUI-20" transform="translate(2862.0625 0)"/>
    <use xlink:href="#SegoeUI-75" transform="translate(2889.455078 0)"/>
    <use xlink:href="#SegoeUI-73" transform="translate(2946.046875 0)"/>
    <use xlink:href="#SegoeUI-65" transform="translate(2988.478516 0)"/>
    <use xlink:href="#SegoeUI-20" transform="translate(3040.773438 0)"/>
    <use xlink:href="#SegoeUI-73" transform="translate(3068.166016 0)"/>
    <use xlink:href="#SegoeUI-61" transform="translate(3110.597656 0)"/>
    <use xlink:href="#SegoeUI-6d" transform="translate(3161.476562 0)"/>
    <use xlink:href="#SegoeUI-65" transform="translate(3247.609375 0)"/>
    <use xlink:href="#SegoeUI-2d" transform="translate(3299.904297 0)"/>
    <use xlink:href="#SegoeUI-64" transform="translate(3339.894531 0)"/>
    <use xlink:href="#SegoeUI-61" transform="translate(3398.78125 0)"/>
    <use xlink:href="#SegoeUI-79" transform="translate(3449.660156 0)"/>
    <use xlink:href="#SegoeUI-20" transform="translate(3498.048828 0)"/>
    <use xlink:href="#SegoeUI-55" transform="translate(3525.441406 0)"/>
    <use xlink:href="#SegoeUI-53" transform="translate(3594.142578 0)"/>
    <use xlink:href="#SegoeUI-44" transform="translate(3647.267578 0)"/>
    <use xlink:href="#SegoeUI-20" transform="translate(3717.384766 0)"/>
    <use xlink:href="#SegoeUI-6c" transform="translate(3744.777344 0)"/>
    <use xlink:href="#SegoeUI-69" transform="translate(3768.996094 0)"/>
    <use xlink:href="#SegoeUI-71" transform="translate(3793.214844 0)"/>
    <use xlink:href="#SegoeUI-75" transform="translate(3852.101562 0)"/>
    <use xlink:href="#SegoeUI-69" transform="translate(3908.693359 0)"/>
    <use xlink:href="#SegoeUI-64" transform="translate(3932.912109 0)"/>
    <use xlink:href="#SegoeUI-61" transform="translate(3991.798828 0)"/>
    <use xlink:href="#SegoeUI-74" transform="translate(4042.677734 0)"/>
    <use xlink:href="#SegoeUI-69" transform="translate(4076.564453 0)"/>
    <use xlink:href="#SegoeUI-6f" transform="translate(4100.783203 0)"/>
    <use xlink:href="#SegoeUI-6e" transform="translate(4159.376953 0)"/>
    <use xlink:href="#SegoeUI-73" transform="translate(4215.96875 0)"/>
    <use xlink:href="#SegoeUI-20" transform="translate(4258.400391 0)"/>
    <use xlink:href="#SegoeUI-64" transform="translate(4285.792969 0)"/>
    <use xlink:href="#SegoeUI-69" transform="translate(4344.679688 0)"/>
    <use xlink:href="#SegoeUI-76" transform="translate(4368.898438 0)"/>
    <use xlink:href="#SegoeUI-69" transform="translate(4416.798828 0)"/>
    <use xlink:href="#SegoeUI-64" transform="translate(4441.017578 0)"/>
    <use xlink:href="#SegoeUI-65" transform="translate(4499.904297 0)"/>
    <use xlink:href="#SegoeUI-64" transform="translate(4552.199219 0)"/>
    <use xlink:href="#SegoeUI-20" transform="translate(4611.085938 0)"/>
    <use xlink:href="#SegoeUI-62" transform="translate(4638.478516 0)"/>
    <use xlink:href="#SegoeUI-79" transform="translate(4697.267578 0)"/>
    <use xlink:href="#SegoeUI-20" transform="translate(4745.65625 0)"/>
    <use xlink:href="#SegoeUI-70" transform="translate(4773.048828 0)"/>
    <use xlink:href="#SegoeUI-72" transform="translate(4831.837891 0)"/>
    <use xlink:href="#SegoeUI-69" transform="translate(4866.603516 0)"/>
    <use xlink:href="#SegoeUI-6f" transform="translate(4890.822266 0)"/>
    <use xlink:href="#SegoeUI-72" transform="translate(4949.416016 0)"/>
    <use xlink:href="#SegoeUI-2d" transform="translate(4977.931641 0)"/>
    <use xlink:href="#SegoeUI-64" transform="translate(5017.921875 0)"/>
    <use xlink:href="#SegoeUI-61" transform="translate(5076.808594 0)"/>
    <use xlink:href="#SegoeUI-79" transform="translate(5127.6875 0)"/>
    <use xlink:href="#SegoeUI-20" transform="translate(5176.076172 0)"/>
    <use xlink:href="#SegoeUI-4f" transform="translate(5203.46875 0)"/>
    <use xlink:href="#SegoeUI-49" transform="translate(5278.859375 0)"/>
    <use xlink:href="#SegoeUI-2e" transform="translate(5305.470703 0)"/>
   </g>
  </g>
 </g>
 <defs>
  <clipPath id="p3355238820">
   <rect x="47.541875" y="91.44" width="391.034483" height="267.84"/>
  </clipPath>
  <clipPath id="p4c14162422">
   <rect x="563.707392" y="91.44" width="391.034483" height="267.84"/>
  </clipPath>
 </defs>
</svg>
