<?xml version="1.0" encoding="utf-8" standalone="no"?>
<!DOCTYPE svg PUBLIC "-//W3C//DTD SVG 1.1//EN"
  "http://www.w3.org/Graphics/SVG/1.1/DTD/svg11.dtd">
<svg xmlns:xlink="http://www.w3.org/1999/xlink" width="786.911585pt" height="287.3916pt" viewBox="0 0 786.911585 287.3916" xmlns="http://www.w3.org/2000/svg" version="1.1">
 <metadata>
  <rdf:RDF xmlns:dc="http://purl.org/dc/elements/1.1/" xmlns:cc="http://creativecommons.org/ns#" xmlns:rdf="http://www.w3.org/1999/02/22-rdf-syntax-ns#">
   <cc:Work>
    <dc:type rdf:resource="http://purl.org/dc/dcmitype/StillImage"/>
    <dc:format>image/svg+xml</dc:format>
    <dc:creator>
     <cc:Agent>
      <dc:title>Matplotlib v3.10.8, https://matplotlib.org/</dc:title>
     </cc:Agent>
    </dc:creator>
   </cc:Work>
  </rdf:RDF>
 </metadata>
 <defs>
  <style type="text/css">*{stroke-linejoin: round; stroke-linecap: butt}</style>
 </defs>
 <g id="figure_1">
  <g id="patch_1">
   <path d="M 0 287.3916
L 786.911585 287.3916
L 786.911585 -0
L 0 -0
z
" style="fill: #ffffff"/>
  </g>
  <g id="axes_1">
   <g id="patch_2">
    <path d="M 39.930156 204.365302
L 391.775156 204.365302
L 391.775156 22.318125
L 39.930156 22.318125
z
" style="fill: #ffffff"/>
   </g>
   <g id="FillBetweenPolyCollection_1">
    <path d="M 55.923111 84.569553
L 55.923111 196.09043
L 60.155135 196.09043
L 64.114125 196.09043
L 68.346148 196.09043
L 72.441655 196.09043
L 76.673679 196.09043
L 80.769186 196.09043
L 85.00121 196.09043
L 89.233234 196.09043
L 93.328741 196.09043
L 97.560765 196.09043
L 101.656271 196.09043
L 105.888295 196.09043
L 110.120319 196.09043
L 113.942792 196.09043
L 118.174816 196.09043
L 122.270323 196.09043
L 126.502347 196.09043
L 130.597854 196.09043
L 134.829878 196.09043
L 139.061901 196.09043
L 143.157408 196.09043
L 147.389432 196.09043
L 151.484939 196.09043
L 155.716963 196.09043
L 159.948987 196.09043
L 163.77146 196.09043
L 168.003484 196.09043
L 172.098991 196.09043
L 176.331014 196.09043
L 180.426521 196.09043
L 184.658545 196.09043
L 188.890569 196.09043
L 192.986076 196.09043
L 197.2181 196.09043
L 201.313607 196.09043
L 205.54563 196.09043
L 209.777654 196.09043
L 213.600127 196.09043
L 217.832151 196.09043
L 221.927658 196.09043
L 226.159682 196.09043
L 230.255189 196.09043
L 234.487213 196.09043
L 238.719237 196.09043
L 242.814744 196.09043
L 247.046767 196.09043
L 251.142274 196.09043
L 255.374298 196.09043
L 259.606322 196.09043
L 263.565312 196.09043
L 267.797336 196.09043
L 271.892843 196.09043
L 276.124867 196.09043
L 280.220373 196.09043
L 284.452397 196.09043
L 288.684421 196.09043
L 292.779928 196.09043
L 297.011952 196.09043
L 301.107459 196.09043
L 305.339483 196.09043
L 309.571506 196.09043
L 313.39398 196.09043
L 317.626003 196.09043
L 321.72151 196.09043
L 325.953534 196.09043
L 330.049041 196.09043
L 334.281065 196.09043
L 338.513089 196.09043
L 342.608596 196.09043
L 346.840619 196.09043
L 350.936126 196.09043
L 355.16815 196.09043
L 359.400174 196.09043
L 363.222647 196.09043
L 367.454671 196.09043
L 371.550178 196.09043
L 375.782202 196.09043
L 375.782202 103.226539
L 375.782202 103.226539
L 371.550178 101.911627
L 367.454671 101.025763
L 363.222647 104.622665
L 359.400174 104.081771
L 355.16815 101.788664
L 350.936126 101.812914
L 346.840619 101.98753
L 342.608596 100.730149
L 338.513089 102.378667
L 334.281065 103.125009
L 330.049041 97.20117
L 325.953534 90.678731
L 321.72151 90.788032
L 317.626003 91.709655
L 313.39398 95.470478
L 309.571506 97.638076
L 305.339483 99.982398
L 301.107459 102.346413
L 297.011952 102.250874
L 292.779928 98.84578
L 288.684421 102.853669
L 284.452397 103.501628
L 280.220373 104.715117
L 276.124867 107.704814
L 271.892843 107.60117
L 267.797336 106.687371
L 263.565312 108.108096
L 259.606322 106.068134
L 255.374298 110.716864
L 251.142274 111.92593
L 247.046767 109.006964
L 242.814744 107.763842
L 238.719237 114.416535
L 234.487213 114.449524
L 230.255189 115.526797
L 226.159682 111.717711
L 221.927658 118.286031
L 217.832151 117.059261
L 213.600127 117.801991
L 209.777654 124.614889
L 205.54563 124.239367
L 201.313607 128.933776
L 197.2181 132.404184
L 192.986076 130.44981
L 188.890569 129.415182
L 184.658545 130.315454
L 180.426521 126.618907
L 176.331014 124.304843
L 172.098991 119.244359
L 168.003484 125.77229
L 163.77146 125.552915
L 159.948987 125.507859
L 155.716963 125.316868
L 151.484939 128.141424
L 147.389432 125.466783
L 143.157408 121.383274
L 139.061901 124.473456
L 134.829878 122.914154
L 130.597854 114.783197
L 126.502347 118.239999
L 122.270323 123.15534
L 118.174816 114.545298
L 113.942792 95.150128
L 110.120319 94.093632
L 105.888295 91.396871
L 101.656271 78.714043
L 97.560765 92.53994
L 93.328741 90.027867
L 89.233234 98.503456
L 85.00121 100.496212
L 80.769186 91.823336
L 76.673679 87.750626
L 72.441655 86.675995
L 68.346148 87.573845
L 64.114125 85.315203
L 60.155135 88.410242
L 55.923111 84.569553
z
" clip-path="url(#p0ef18e4b01)" style="fill: #1f77b4; fill-opacity: 0.78"/>
   </g>
   <g id="FillBetweenPolyCollection_2">
    <path d="M 55.923111 71.618276
L 55.923111 84.569553
L 60.155135 88.410242
L 64.114125 85.315203
L 68.346148 87.573845
L 72.441655 86.675995
L 76.673679 87.750626
L 80.769186 91.823336
L 85.00121 100.496212
L 89.233234 98.503456
L 93.328741 90.027867
L 97.560765 92.53994
L 101.656271 78.714043
L 105.888295 91.396871
L 110.120319 94.093632
L 113.942792 95.150128
L 118.174816 114.545298
L 122.270323 123.15534
L 126.502347 118.239999
L 130.597854 114.783197
L 134.829878 122.914154
L 139.061901 124.473456
L 143.157408 121.383274
L 147.389432 125.466783
L 151.484939 128.141424
L 155.716963 125.316868
L 159.948987 125.507859
L 163.77146 125.552915
L 168.003484 125.77229
L 172.098991 119.244359
L 176.331014 124.304843
L 180.426521 126.618907
L 184.658545 130.315454
L 188.890569 129.415182
L 192.986076 130.44981
L 197.2181 132.404184
L 201.313607 128.933776
L 205.54563 124.239367
L 209.777654 124.614889
L 213.600127 117.801991
L 217.832151 117.059261
L 221.927658 118.286031
L 226.159682 111.717711
L 230.255189 115.526797
L 234.487213 114.449524
L 238.719237 114.416535
L 242.814744 107.763842
L 247.046767 109.006964
L 251.142274 111.92593
L 255.374298 110.716864
L 259.606322 106.068134
L 263.565312 108.108096
L 267.797336 106.687371
L 271.892843 107.60117
L 276.124867 107.704814
L 280.220373 104.715117
L 284.452397 103.501628
L 288.684421 102.853669
L 292.779928 98.84578
L 297.011952 102.250874
L 301.107459 102.346413
L 305.339483 99.982398
L 309.571506 97.638076
L 313.39398 95.470478
L 317.626003 91.709655
L 321.72151 90.788032
L 325.953534 90.678731
L 330.049041 97.20117
L 334.281065 103.125009
L 338.513089 102.378667
L 342.608596 100.730149
L 346.840619 101.98753
L 350.936126 101.812914
L 355.16815 101.788664
L 359.400174 104.081771
L 363.222647 104.622665
L 367.454671 101.025763
L 371.550178 101.911627
L 375.782202 103.226539
L 375.782202 88.08568
L 375.782202 88.08568
L 371.550178 86.381026
L 367.454671 83.984902
L 363.222647 87.877935
L 359.400174 87.810219
L 355.16815 83.491411
L 350.936126 82.666607
L 346.840619 83.24617
L 342.608596 80.455962
L 338.513089 81.458087
L 334.281065 80.489535
L 330.049041 77.815487
L 325.953534 75.899932
L 321.72151 75.265995
L 317.626003 79.624806
L 313.39398 82.059494
L 309.571506 81.345986
L 305.339483 81.864156
L 301.107459 81.654729
L 297.011952 81.145475
L 292.779928 77.092726
L 288.684421 79.854133
L 284.452397 79.407515
L 280.220373 77.168584
L 276.124867 77.855778
L 271.892843 78.006169
L 267.797336 78.785339
L 263.565312 81.082282
L 259.606322 76.316035
L 255.374298 82.119881
L 251.142274 83.853175
L 247.046767 80.311959
L 242.814744 79.234206
L 238.719237 83.207511
L 234.487213 82.963711
L 230.255189 83.845004
L 226.159682 79.934077
L 221.927658 85.192053
L 217.832151 85.007557
L 213.600127 86.619909
L 209.777654 93.622233
L 205.54563 93.361335
L 201.313607 98.558562
L 197.2181 102.844503
L 192.986076 98.670552
L 188.890569 100.728765
L 184.658545 98.351632
L 180.426521 95.33272
L 176.331014 99.394557
L 172.098991 88.60321
L 168.003484 93.252972
L 163.77146 93.452551
L 159.948987 94.568229
L 155.716963 94.669059
L 151.484939 94.522395
L 147.389432 91.380269
L 143.157408 88.650461
L 139.061901 93.774514
L 134.829878 91.604212
L 130.597854 85.079192
L 126.502347 88.957086
L 122.270323 92.802734
L 118.174816 88.585979
L 113.942792 75.605148
L 110.120319 74.409271
L 105.888295 65.510522
L 101.656271 59.926066
L 97.560765 72.500013
L 93.328741 71.702283
L 89.233234 78.758482
L 85.00121 79.229613
L 80.769186 72.736203
L 76.673679 71.442563
L 72.441655 70.069474
L 68.346148 71.48295
L 64.114125 71.495553
L 60.155135 71.389619
L 55.923111 71.618276
z
" clip-path="url(#p0ef18e4b01)" style="fill: #ff7f0e; fill-opacity: 0.78"/>
   </g>
   <g id="FillBetweenPolyCollection_3">
    <path d="M 55.923111 71.618276
L 55.923111 71.618276
L 60.155135 71.389619
L 64.114125 71.495553
L 68.346148 71.48295
L 72.441655 70.069474
L 76.673679 71.442563
L 80.769186 72.736203
L 85.00121 79.229613
L 89.233234 78.758482
L 93.328741 71.702283
L 97.560765 72.500013
L 101.656271 59.926066
L 105.888295 65.510522
L 110.120319 74.409271
L 113.942792 75.605148
L 118.174816 88.585979
L 122.270323 92.802734
L 126.502347 88.957086
L 130.597854 85.079192
L 134.829878 91.604212
L 139.061901 93.774514
L 143.157408 88.650461
L 147.389432 91.380269
L 151.484939 94.522395
L 155.716963 94.669059
L 159.948987 94.568229
L 163.77146 93.452551
L 168.003484 93.252972
L 172.098991 88.60321
L 176.331014 99.394557
L 180.426521 95.33272
L 184.658545 98.351632
L 188.890569 100.728765
L 192.986076 98.670552
L 197.2181 102.844503
L 201.313607 98.558562
L 205.54563 93.361335
L 209.777654 93.622233
L 213.600127 86.619909
L 217.832151 85.007557
L 221.927658 85.192053
L 226.159682 79.934077
L 230.255189 83.845004
L 234.487213 82.963711
L 238.719237 83.207511
L 242.814744 79.234206
L 247.046767 80.311959
L 251.142274 83.853175
L 255.374298 82.119881
L 259.606322 76.316035
L 263.565312 81.082282
L 267.797336 78.785339
L 271.892843 78.006169
L 276.124867 77.855778
L 280.220373 77.168584
L 284.452397 79.407515
L 288.684421 79.854133
L 292.779928 77.092726
L 297.011952 81.145475
L 301.107459 81.654729
L 305.339483 81.864156
L 309.571506 81.345986
L 313.39398 82.059494
L 317.626003 79.624806
L 321.72151 75.265995
L 325.953534 75.899932
L 330.049041 77.815487
L 334.281065 80.489535
L 338.513089 81.458087
L 342.608596 80.455962
L 346.840619 83.24617
L 350.936126 82.666607
L 355.16815 83.491411
L 359.400174 87.810219
L 363.222647 87.877935
L 367.454671 83.984902
L 371.550178 86.381026
L 375.782202 88.08568
L 375.782202 88.08568
L 375.782202 88.08568
L 371.550178 86.381026
L 367.454671 83.984902
L 363.222647 87.877935
L 359.400174 87.810219
L 355.16815 83.491411
L 350.936126 82.666607
L 346.840619 83.24617
L 342.608596 80.455962
L 338.513089 81.458087
L 334.281065 80.489535
L 330.049041 77.815487
L 325.953534 75.899932
L 321.72151 75.265995
L 317.626003 79.624806
L 313.39398 82.059494
L 309.571506 81.275296
L 305.339483 81.777025
L 301.107459 81.568971
L 297.011952 81.068874
L 292.779928 77.02396
L 288.684421 79.768752
L 284.452397 79.331546
L 280.220373 77.069493
L 276.124867 77.729549
L 271.892843 77.86651
L 267.797336 78.646201
L 263.565312 80.923159
L 259.606322 76.091287
L 255.374298 81.846669
L 251.142274 83.604866
L 247.046767 80.011746
L 242.814744 78.958322
L 238.719237 82.913282
L 234.487213 82.667989
L 230.255189 83.528635
L 226.159682 79.594502
L 221.927658 84.778491
L 217.832151 84.623404
L 213.600127 86.214207
L 209.777654 93.039292
L 205.54563 92.961013
L 201.313607 98.312148
L 197.2181 102.60148
L 192.986076 98.407468
L 188.890569 100.461654
L 184.658545 98.16881
L 180.426521 95.144317
L 176.331014 99.394557
L 172.098991 88.60321
L 168.003484 93.156881
L 163.77146 93.452551
L 159.948987 94.568229
L 155.716963 94.669059
L 151.484939 94.522395
L 147.389432 91.380269
L 143.157408 88.650461
L 139.061901 93.774514
L 134.829878 91.604212
L 130.597854 85.079192
L 126.502347 88.957086
L 122.270323 92.802734
L 118.174816 88.585979
L 113.942792 75.605148
L 110.120319 74.409271
L 105.888295 65.510522
L 101.656271 59.926066
L 97.560765 72.500013
L 93.328741 71.702283
L 89.233234 78.758482
L 85.00121 79.229613
L 80.769186 72.736203
L 76.673679 71.442563
L 72.441655 70.040344
L 68.346148 71.48295
L 64.114125 71.495553
L 60.155135 71.389619
L 55.923111 71.618276
z
" clip-path="url(#p0ef18e4b01)" style="fill: #2ca02c; fill-opacity: 0.78"/>
   </g>
   <g id="FillBetweenPolyCollection_4">
    <path d="M 55.923111 44.751109
L 55.923111 71.618276
L 60.155135 71.389619
L 64.114125 71.495553
L 68.346148 71.48295
L 72.441655 70.040344
L 76.673679 71.442563
L 80.769186 72.736203
L 85.00121 79.229613
L 89.233234 78.758482
L 93.328741 71.702283
L 97.560765 72.500013
L 101.656271 59.926066
L 105.888295 65.510522
L 110.120319 74.409271
L 113.942792 75.605148
L 118.174816 88.585979
L 122.270323 92.802734
L 126.502347 88.957086
L 130.597854 85.079192
L 134.829878 91.604212
L 139.061901 93.774514
L 143.157408 88.650461
L 147.389432 91.380269
L 151.484939 94.522395
L 155.716963 94.669059
L 159.948987 94.568229
L 163.77146 93.452551
L 168.003484 93.156881
L 172.098991 88.60321
L 176.331014 99.394557
L 180.426521 95.144317
L 184.658545 98.16881
L 188.890569 100.461654
L 192.986076 98.407468
L 197.2181 102.60148
L 201.313607 98.312148
L 205.54563 92.961013
L 209.777654 93.039292
L 213.600127 86.214207
L 217.832151 84.623404
L 221.927658 84.778491
L 226.159682 79.594502
L 230.255189 83.528635
L 234.487213 82.667989
L 238.719237 82.913282
L 242.814744 78.958322
L 247.046767 80.011746
L 251.142274 83.604866
L 255.374298 81.846669
L 259.606322 76.091287
L 263.565312 80.923159
L 267.797336 78.646201
L 271.892843 77.86651
L 276.124867 77.729549
L 280.220373 77.069493
L 284.452397 79.331546
L 288.684421 79.768752
L 292.779928 77.02396
L 297.011952 81.068874
L 301.107459 81.568971
L 305.339483 81.777025
L 309.571506 81.275296
L 313.39398 82.059494
L 317.626003 79.624806
L 321.72151 75.265995
L 325.953534 75.899932
L 330.049041 77.815487
L 334.281065 80.489535
L 338.513089 81.458087
L 342.608596 80.455962
L 346.840619 83.24617
L 350.936126 82.666607
L 355.16815 83.491411
L 359.400174 87.810219
L 363.222647 87.877935
L 367.454671 83.984902
L 371.550178 86.381026
L 375.782202 88.08568
L 375.782202 74.982918
L 375.782202 74.982918
L 371.550178 73.819057
L 367.454671 72.118839
L 363.222647 75.069632
L 359.400174 75.379024
L 355.16815 72.609482
L 350.936126 71.767152
L 346.840619 72.249556
L 342.608596 71.068025
L 338.513089 70.555206
L 334.281065 70.127855
L 330.049041 67.781535
L 325.953534 65.961042
L 321.72151 65.206214
L 317.626003 68.08366
L 313.39398 70.116855
L 309.571506 69.01639
L 305.339483 68.672535
L 301.107459 67.471618
L 297.011952 66.177156
L 292.779928 64.699583
L 288.684421 65.900257
L 284.452397 66.858887
L 280.220373 64.074675
L 276.124867 63.830607
L 271.892843 61.92477
L 267.797336 62.832386
L 263.565312 62.214054
L 259.606322 59.313852
L 255.374298 64.006271
L 251.142274 64.72241
L 247.046767 64.256306
L 242.814744 64.806117
L 238.719237 68.381127
L 234.487213 67.923601
L 230.255189 67.624133
L 226.159682 64.928306
L 221.927658 68.650043
L 217.832151 67.535489
L 213.600127 68.553393
L 209.777654 70.689633
L 205.54563 71.718569
L 201.313607 79.312504
L 197.2181 81.843101
L 192.986076 76.556858
L 188.890569 78.447998
L 184.658545 76.274583
L 180.426521 72.966232
L 176.331014 78.085069
L 172.098991 68.729658
L 168.003484 64.989908
L 163.77146 62.480451
L 159.948987 65.136168
L 155.716963 64.959683
L 151.484939 62.536244
L 147.389432 60.126991
L 143.157408 59.389329
L 139.061901 64.80734
L 134.829878 64.531503
L 130.597854 60.185748
L 126.502347 63.599126
L 122.270323 63.535548
L 118.174816 58.710352
L 113.942792 48.727159
L 110.120319 50.022852
L 105.888295 44.503111
L 101.656271 42.428639
L 97.560765 51.00961
L 93.328741 48.994297
L 89.233234 50.934216
L 85.00121 47.577245
L 80.769186 47.340786
L 76.673679 46.950204
L 72.441655 46.635256
L 68.346148 47.304602
L 64.114125 46.462762
L 60.155135 45.118867
L 55.923111 44.751109
z
" clip-path="url(#p0ef18e4b01)" style="fill: #d62728; fill-opacity: 0.78"/>
   </g>
   <g id="FillBetweenPolyCollection_5">
    <path d="M 55.923111 44.751109
L 55.923111 44.751109
L 60.155135 45.118867
L 64.114125 46.462762
L 68.346148 47.304602
L 72.441655 46.635256
L 76.673679 46.950204
L 80.769186 47.340786
L 85.00121 47.577245
L 89.233234 50.934216
L 93.328741 48.994297
L 97.560765 51.00961
L 101.656271 42.428639
L 105.888295 44.503111
L 110.120319 50.022852
L 113.942792 48.727159
L 118.174816 58.710352
L 122.270323 63.535548
L 126.502347 63.599126
L 130.597854 60.185748
L 134.829878 64.531503
L 139.061901 64.80734
L 143.157408 59.389329
L 147.389432 60.126991
L 151.484939 62.536244
L 155.716963 64.959683
L 159.948987 65.136168
L 163.77146 62.480451
L 168.003484 64.989908
L 172.098991 68.729658
L 176.331014 78.085069
L 180.426521 72.966232
L 184.658545 76.274583
L 188.890569 78.447998
L 192.986076 76.556858
L 197.2181 81.843101
L 201.313607 79.312504
L 205.54563 71.718569
L 209.777654 70.689633
L 213.600127 68.553393
L 217.832151 67.535489
L 221.927658 68.650043
L 226.159682 64.928306
L 230.255189 67.624133
L 234.487213 67.923601
L 238.719237 68.381127
L 242.814744 64.806117
L 247.046767 64.256306
L 251.142274 64.72241
L 255.374298 64.006271
L 259.606322 59.313852
L 263.565312 62.214054
L 267.797336 62.832386
L 271.892843 61.92477
L 276.124867 63.830607
L 280.220373 64.074675
L 284.452397 66.858887
L 288.684421 65.900257
L 292.779928 64.699583
L 297.011952 66.177156
L 301.107459 67.471618
L 305.339483 68.672535
L 309.571506 69.01639
L 313.39398 70.116855
L 317.626003 68.08366
L 321.72151 65.206214
L 325.953534 65.961042
L 330.049041 67.781535
L 334.281065 70.127855
L 338.513089 70.555206
L 342.608596 71.068025
L 346.840619 72.249556
L 350.936126 71.767152
L 355.16815 72.609482
L 359.400174 75.379024
L 363.222647 75.069632
L 367.454671 72.118839
L 371.550178 73.819057
L 375.782202 74.982918
L 375.782202 70.326739
L 375.782202 70.326739
L 371.550178 69.086821
L 367.454671 67.298037
L 363.222647 69.97474
L 359.400174 70.34243
L 355.16815 67.049354
L 350.936126 66.32333
L 346.840619 66.971674
L 342.608596 65.307163
L 338.513089 64.933751
L 334.281065 64.17434
L 330.049041 62.534592
L 325.953534 62.092078
L 321.72151 61.847899
L 317.626003 64.87867
L 313.39398 66.711479
L 309.571506 65.227984
L 305.339483 64.581131
L 301.107459 63.057941
L 297.011952 61.774491
L 292.779928 60.040209
L 288.684421 61.137548
L 284.452397 61.892861
L 280.220373 60.188578
L 276.124867 59.697224
L 271.892843 57.990557
L 267.797336 59.244868
L 263.565312 58.808174
L 259.606322 55.876925
L 255.374298 60.929583
L 251.142274 61.674921
L 247.046767 61.196518
L 242.814744 61.712
L 238.719237 65.080572
L 234.487213 64.718325
L 230.255189 64.593586
L 226.159682 62.005816
L 221.927658 65.866349
L 217.832151 65.040041
L 213.600127 66.281883
L 209.777654 68.631675
L 205.54563 69.618956
L 201.313607 77.272338
L 197.2181 79.792836
L 192.986076 74.420299
L 188.890569 76.390972
L 184.658545 74.147002
L 180.426521 70.930575
L 176.331014 76.060381
L 172.098991 66.503785
L 168.003484 62.944858
L 163.77146 60.692363
L 159.948987 63.645117
L 155.716963 63.487397
L 151.484939 61.0547
L 147.389432 58.749689
L 143.157408 58.092981
L 139.061901 63.682167
L 134.829878 63.458488
L 130.597854 59.184463
L 126.502347 62.651848
L 122.270323 62.69558
L 118.174816 58.004027
L 113.942792 47.970489
L 110.120319 49.356635
L 105.888295 43.849091
L 101.656271 41.714408
L 97.560765 50.323876
L 93.328741 48.283367
L 89.233234 50.448569
L 85.00121 47.577245
L 80.769186 47.292924
L 76.673679 46.893455
L 72.441655 46.581151
L 68.346148 47.245982
L 64.114125 46.415575
L 60.155135 45.118867
L 55.923111 44.751109
z
" clip-path="url(#p0ef18e4b01)" style="fill: #9467bd; fill-opacity: 0.78"/>
   </g>
   <g id="FillBetweenPolyCollection_6">
    <path d="M 55.923111 33.938911
L 55.923111 44.751109
L 60.155135 45.118867
L 64.114125 46.415575
L 68.346148 47.245982
L 72.441655 46.581151
L 76.673679 46.893455
L 80.769186 47.292924
L 85.00121 47.577245
L 89.233234 50.448569
L 93.328741 48.283367
L 97.560765 50.323876
L 101.656271 41.714408
L 105.888295 43.849091
L 110.120319 49.356635
L 113.942792 47.970489
L 118.174816 58.004027
L 122.270323 62.69558
L 126.502347 62.651848
L 130.597854 59.184463
L 134.829878 63.458488
L 139.061901 63.682167
L 143.157408 58.092981
L 147.389432 58.749689
L 151.484939 61.0547
L 155.716963 63.487397
L 159.948987 63.645117
L 163.77146 60.692363
L 168.003484 62.944858
L 172.098991 66.503785
L 176.331014 76.060381
L 180.426521 70.930575
L 184.658545 74.147002
L 188.890569 76.390972
L 192.986076 74.420299
L 197.2181 79.792836
L 201.313607 77.272338
L 205.54563 69.618956
L 209.777654 68.631675
L 213.600127 66.281883
L 217.832151 65.040041
L 221.927658 65.866349
L 226.159682 62.005816
L 230.255189 64.593586
L 234.487213 64.718325
L 238.719237 65.080572
L 242.814744 61.712
L 247.046767 61.196518
L 251.142274 61.674921
L 255.374298 60.929583
L 259.606322 55.876925
L 263.565312 58.808174
L 267.797336 59.244868
L 271.892843 57.990557
L 276.124867 59.697224
L 280.220373 60.188578
L 284.452397 61.892861
L 288.684421 61.137548
L 292.779928 60.040209
L 297.011952 61.774491
L 301.107459 63.057941
L 305.339483 64.581131
L 309.571506 65.227984
L 313.39398 66.711479
L 317.626003 64.87867
L 321.72151 61.847899
L 325.953534 62.092078
L 330.049041 62.534592
L 334.281065 64.17434
L 338.513089 64.933751
L 342.608596 65.307163
L 346.840619 66.971674
L 350.936126 66.32333
L 355.16815 67.049354
L 359.400174 70.34243
L 363.222647 69.97474
L 367.454671 67.298037
L 371.550178 69.086821
L 375.782202 70.326739
L 375.782202 51.252171
L 375.782202 51.252171
L 371.550178 49.667496
L 367.454671 49.505981
L 363.222647 51.039217
L 359.400174 51.087055
L 355.16815 46.92764
L 350.936126 46.386447
L 346.840619 45.842618
L 342.608596 43.606182
L 338.513089 42.411994
L 334.281065 42.215558
L 330.049041 41.286623
L 325.953534 42.489924
L 321.72151 42.687732
L 317.626003 43.542698
L 313.39398 44.54396
L 309.571506 43.35182
L 305.339483 40.401366
L 301.107459 40.878825
L 297.011952 39.769768
L 292.779928 42.11766
L 288.684421 42.562117
L 284.452397 43.724366
L 280.220373 41.669534
L 276.124867 42.071226
L 271.892843 40.816127
L 267.797336 41.66862
L 263.565312 39.967429
L 259.606322 40.632583
L 255.374298 44.086238
L 251.142274 43.568495
L 247.046767 45.300211
L 242.814744 46.37126
L 238.719237 49.181147
L 234.487213 49.029719
L 230.255189 47.943969
L 226.159682 48.368137
L 221.927658 48.808254
L 217.832151 48.34418
L 213.600127 49.187999
L 209.777654 51.314196
L 205.54563 52.511337
L 201.313607 58.935719
L 197.2181 58.49579
L 192.986076 54.215041
L 188.890569 56.646268
L 184.658545 56.315347
L 180.426521 53.378693
L 176.331014 58.420488
L 172.098991 50.082369
L 168.003484 45.987578
L 163.77146 43.365042
L 159.948987 46.662639
L 155.716963 45.804072
L 151.484939 41.693186
L 147.389432 39.295734
L 143.157408 38.731037
L 139.061901 41.85238
L 134.829878 39.989087
L 130.597854 41.918585
L 126.502347 42.752836
L 122.270323 41.478313
L 118.174816 36.934248
L 113.942792 36.046766
L 110.120319 36.403624
L 105.888295 36.558051
L 101.656271 36.561903
L 97.560765 38.14005
L 93.328741 39.787096
L 89.233234 40.36498
L 85.00121 37.709716
L 80.769186 37.093757
L 76.673679 37.821357
L 72.441655 37.069273
L 68.346148 36.748437
L 64.114125 35.753674
L 60.155135 34.107985
L 55.923111 33.938911
z
" clip-path="url(#p0ef18e4b01)" style="fill: #8c564b; fill-opacity: 0.78"/>
   </g>
   <g id="FillBetweenPolyCollection_7">
    <path d="M 55.923111 30.592997
L 55.923111 33.938911
L 60.155135 34.107985
L 64.114125 35.753674
L 68.346148 36.748437
L 72.441655 37.069273
L 76.673679 37.821357
L 80.769186 37.093757
L 85.00121 37.709716
L 89.233234 40.36498
L 93.328741 39.787096
L 97.560765 38.14005
L 101.656271 36.561903
L 105.888295 36.558051
L 110.120319 36.403624
L 113.942792 36.046766
L 118.174816 36.934248
L 122.270323 41.478313
L 126.502347 42.752836
L 130.597854 41.918585
L 134.829878 39.989087
L 139.061901 41.85238
L 143.157408 38.731037
L 147.389432 39.295734
L 151.484939 41.693186
L 155.716963 45.804072
L 159.948987 46.662639
L 163.77146 43.365042
L 168.003484 45.987578
L 172.098991 50.082369
L 176.331014 58.420488
L 180.426521 53.378693
L 184.658545 56.315347
L 188.890569 56.646268
L 192.986076 54.215041
L 197.2181 58.49579
L 201.313607 58.935719
L 205.54563 52.511337
L 209.777654 51.314196
L 213.600127 49.187999
L 217.832151 48.34418
L 221.927658 48.808254
L 226.159682 48.368137
L 230.255189 47.943969
L 234.487213 49.029719
L 238.719237 49.181147
L 242.814744 46.37126
L 247.046767 45.300211
L 251.142274 43.568495
L 255.374298 44.086238
L 259.606322 40.632583
L 263.565312 39.967429
L 267.797336 41.66862
L 271.892843 40.816127
L 276.124867 42.071226
L 280.220373 41.669534
L 284.452397 43.724366
L 288.684421 42.562117
L 292.779928 42.11766
L 297.011952 39.769768
L 301.107459 40.878825
L 305.339483 40.401366
L 309.571506 43.35182
L 313.39398 44.54396
L 317.626003 43.542698
L 321.72151 42.687732
L 325.953534 42.489924
L 330.049041 41.286623
L 334.281065 42.215558
L 338.513089 42.411994
L 342.608596 43.606182
L 346.840619 45.842618
L 350.936126 46.386447
L 355.16815 46.92764
L 359.400174 51.087055
L 363.222647 51.039217
L 367.454671 49.505981
L 371.550178 49.667496
L 375.782202 51.252171
L 375.782202 30.592997
L 375.782202 30.592997
L 371.550178 30.592997
L 367.454671 30.592997
L 363.222647 30.592997
L 359.400174 30.592997
L 355.16815 30.592997
L 350.936126 30.592997
L 346.840619 30.592997
L 342.608596 30.592997
L 338.513089 30.592997
L 334.281065 30.592997
L 330.049041 30.592997
L 325.953534 30.592997
L 321.72151 30.592997
L 317.626003 30.592997
L 313.39398 30.592997
L 309.571506 30.592997
L 305.339483 30.592997
L 301.107459 30.592997
L 297.011952 30.592997
L 292.779928 30.592997
L 288.684421 30.592997
L 284.452397 30.592997
L 280.220373 30.592997
L 276.124867 30.592997
L 271.892843 30.592997
L 267.797336 30.592997
L 263.565312 30.592997
L 259.606322 30.592997
L 255.374298 30.592997
L 251.142274 30.592997
L 247.046767 30.592997
L 242.814744 30.592997
L 238.719237 30.592997
L 234.487213 30.592997
L 230.255189 30.592997
L 226.159682 30.592997
L 221.927658 30.592997
L 217.832151 30.592997
L 213.600127 30.592997
L 209.777654 30.592997
L 205.54563 30.592997
L 201.313607 30.592997
L 197.2181 30.592997
L 192.986076 30.592997
L 188.890569 30.592997
L 184.658545 30.592997
L 180.426521 30.592997
L 176.331014 30.592997
L 172.098991 30.592997
L 168.003484 30.592997
L 163.77146 30.592997
L 159.948987 30.592997
L 155.716963 30.592997
L 151.484939 30.592997
L 147.389432 30.592997
L 143.157408 30.592997
L 139.061901 30.592997
L 134.829878 30.592997
L 130.597854 30.592997
L 126.502347 30.592997
L 122.270323 30.592997
L 118.174816 30.592997
L 113.942792 30.592997
L 110.120319 30.592997
L 105.888295 30.592997
L 101.656271 30.592997
L 97.560765 30.592997
L 93.328741 30.592997
L 89.233234 30.592997
L 85.00121 30.592997
L 80.769186 30.592997
L 76.673679 30.592997
L 72.441655 30.592997
L 68.346148 30.592997
L 64.114125 30.592997
L 60.155135 30.592997
L 55.923111 30.592997
z
" clip-path="url(#p0ef18e4b01)" style="fill: #e377c2; fill-opacity: 0.78"/>
   </g>
   <g id="matplotlib.axis_1">
    <g id="xtick_1">
     <g id="line2d_1">
      <path d="M 55.923111 204.365302
L 55.923111 22.318125
" clip-path="url(#p0ef18e4b01)" style="fill: none; stroke: #b0b0b0; stroke-opacity: 0.22; stroke-width: 0.8; stroke-linecap: square"/>
     </g>
     <g id="line2d_2">
      <defs>
       <path id="m350de26a5e" d="M 0 0
L 0 3.5
" style="stroke: #000000; stroke-width: 0.8"/>
      </defs>
      <g>
       <use xlink:href="#m350de26a5e" x="55.923111" y="204.365302" style="stroke: #000000; stroke-width: 0.8"/>
      </g>
     </g>
     <g id="text_1">
      <!-- 2020 -->
      <g transform="translate(44.470611 218.203896) scale(0.09 -0.09)">
       <defs>
        <path id="DejaVuSans-32" d="M 1228 531
L 3431 531
L 3431 0
L 469 0
L 469 531
Q 828 903 1448 1529
Q 2069 2156 2228 2338
Q 2531 2678 2651 2914
Q 2772 3150 2772 3378
Q 2772 3750 2511 3984
Q 2250 4219 1831 4219
Q 1534 4219 1204 4116
Q 875 4013 500 3803
L 500 4441
Q 881 4594 1212 4672
Q 1544 4750 1819 4750
Q 2544 4750 2975 4387
Q 3406 4025 3406 3419
Q 3406 3131 3298 2873
Q 3191 2616 2906 2266
Q 2828 2175 2409 1742
Q 1991 1309 1228 531
z
" transform="scale(0.015625)"/>
        <path id="DejaVuSans-30" d="M 2034 4250
Q 1547 4250 1301 3770
Q 1056 3291 1056 2328
Q 1056 1369 1301 889
Q 1547 409 2034 409
Q 2525 409 2770 889
Q 3016 1369 3016 2328
Q 3016 3291 2770 3770
Q 2525 4250 2034 4250
z
M 2034 4750
Q 2819 4750 3233 4129
Q 3647 3509 3647 2328
Q 3647 1150 3233 529
Q 2819 -91 2034 -91
Q 1250 -91 836 529
Q 422 1150 422 2328
Q 422 3509 836 4129
Q 1250 4750 2034 4750
z
" transform="scale(0.015625)"/>
       </defs>
       <use xlink:href="#DejaVuSans-32"/>
       <use xlink:href="#DejaVuSans-30" transform="translate(63.623047 0)"/>
       <use xlink:href="#DejaVuSans-32" transform="translate(127.246094 0)"/>
       <use xlink:href="#DejaVuSans-30" transform="translate(190.869141 0)"/>
      </g>
     </g>
    </g>
    <g id="xtick_2">
     <g id="line2d_3">
      <path d="M 105.888295 204.365302
L 105.888295 22.318125
" clip-path="url(#p0ef18e4b01)" style="fill: none; stroke: #b0b0b0; stroke-opacity: 0.22; stroke-width: 0.8; stroke-linecap: square"/>
     </g>
     <g id="line2d_4">
      <g>
       <use xlink:href="#m350de26a5e" x="105.888295" y="204.365302" style="stroke: #000000; stroke-width: 0.8"/>
      </g>
     </g>
     <g id="text_2">
      <!-- 2021 -->
      <g transform="translate(94.435795 218.203896) scale(0.09 -0.09)">
       <defs>
        <path id="DejaVuSans-31" d="M 794 531
L 1825 531
L 1825 4091
L 703 3866
L 703 4441
L 1819 4666
L 2450 4666
L 2450 531
L 3481 531
L 3481 0
L 794 0
L 794 531
z
" transform="scale(0.015625)"/>
       </defs>
       <use xlink:href="#DejaVuSans-32"/>
       <use xlink:href="#DejaVuSans-30" transform="translate(63.623047 0)"/>
       <use xlink:href="#DejaVuSans-32" transform="translate(127.246094 0)"/>
       <use xlink:href="#DejaVuSans-31" transform="translate(190.869141 0)"/>
      </g>
     </g>
    </g>
    <g id="xtick_3">
     <g id="line2d_5">
      <path d="M 155.716963 204.365302
L 155.716963 22.318125
" clip-path="url(#p0ef18e4b01)" style="fill: none; stroke: #b0b0b0; stroke-opacity: 0.22; stroke-width: 0.8; stroke-linecap: square"/>
     </g>
     <g id="line2d_6">
      <g>
       <use xlink:href="#m350de26a5e" x="155.716963" y="204.365302" style="stroke: #000000; stroke-width: 0.8"/>
      </g>
     </g>
     <g id="text_3">
      <!-- 2022 -->
      <g transform="translate(144.264463 218.203896) scale(0.09 -0.09)">
       <use xlink:href="#DejaVuSans-32"/>
       <use xlink:href="#DejaVuSans-30" transform="translate(63.623047 0)"/>
       <use xlink:href="#DejaVuSans-32" transform="translate(127.246094 0)"/>
       <use xlink:href="#DejaVuSans-32" transform="translate(190.869141 0)"/>
      </g>
     </g>
    </g>
    <g id="xtick_4">
     <g id="line2d_7">
      <path d="M 205.54563 204.365302
L 205.54563 22.318125
" clip-path="url(#p0ef18e4b01)" style="fill: none; stroke: #b0b0b0; stroke-opacity: 0.22; stroke-width: 0.8; stroke-linecap: square"/>
     </g>
     <g id="line2d_8">
      <g>
       <use xlink:href="#m350de26a5e" x="205.54563" y="204.365302" style="stroke: #000000; stroke-width: 0.8"/>
      </g>
     </g>
     <g id="text_4">
      <!-- 2023 -->
      <g transform="translate(194.09313 218.203896) scale(0.09 -0.09)">
       <defs>
        <path id="DejaVuSans-33" d="M 2597 2516
Q 3050 2419 3304 2112
Q 3559 1806 3559 1356
Q 3559 666 3084 287
Q 2609 -91 1734 -91
Q 1441 -91 1130 -33
Q 819 25 488 141
L 488 750
Q 750 597 1062 519
Q 1375 441 1716 441
Q 2309 441 2620 675
Q 2931 909 2931 1356
Q 2931 1769 2642 2001
Q 2353 2234 1838 2234
L 1294 2234
L 1294 2753
L 1863 2753
Q 2328 2753 2575 2939
Q 2822 3125 2822 3475
Q 2822 3834 2567 4026
Q 2313 4219 1838 4219
Q 1578 4219 1281 4162
Q 984 4106 628 3988
L 628 4550
Q 988 4650 1302 4700
Q 1616 4750 1894 4750
Q 2613 4750 3031 4423
Q 3450 4097 3450 3541
Q 3450 3153 3228 2886
Q 3006 2619 2597 2516
z
" transform="scale(0.015625)"/>
       </defs>
       <use xlink:href="#DejaVuSans-32"/>
       <use xlink:href="#DejaVuSans-30" transform="translate(63.623047 0)"/>
       <use xlink:href="#DejaVuSans-32" transform="translate(127.246094 0)"/>
       <use xlink:href="#DejaVuSans-33" transform="translate(190.869141 0)"/>
      </g>
     </g>
    </g>
    <g id="xtick_5">
     <g id="line2d_9">
      <path d="M 255.374298 204.365302
L 255.374298 22.318125
" clip-path="url(#p0ef18e4b01)" style="fill: none; stroke: #b0b0b0; stroke-opacity: 0.22; stroke-width: 0.8; stroke-linecap: square"/>
     </g>
     <g id="line2d_10">
      <g>
       <use xlink:href="#m350de26a5e" x="255.374298" y="204.365302" style="stroke: #000000; stroke-width: 0.8"/>
      </g>
     </g>
     <g id="text_5">
      <!-- 2024 -->
      <g transform="translate(243.921798 218.203896) scale(0.09 -0.09)">
       <defs>
        <path id="DejaVuSans-34" d="M 2419 4116
L 825 1625
L 2419 1625
L 2419 4116
z
M 2253 4666
L 3047 4666
L 3047 1625
L 3713 1625
L 3713 1100
L 3047 1100
L 3047 0
L 2419 0
L 2419 1100
L 313 1100
L 313 1709
L 2253 4666
z
" transform="scale(0.015625)"/>
       </defs>
       <use xlink:href="#DejaVuSans-32"/>
       <use xlink:href="#DejaVuSans-30" transform="translate(63.623047 0)"/>
       <use xlink:href="#DejaVuSans-32" transform="translate(127.246094 0)"/>
       <use xlink:href="#DejaVuSans-34" transform="translate(190.869141 0)"/>
      </g>
     </g>
    </g>
    <g id="xtick_6">
     <g id="line2d_11">
      <path d="M 305.339483 204.365302
L 305.339483 22.318125
" clip-path="url(#p0ef18e4b01)" style="fill: none; stroke: #b0b0b0; stroke-opacity: 0.22; stroke-width: 0.8; stroke-linecap: square"/>
     </g>
     <g id="line2d_12">
      <g>
       <use xlink:href="#m350de26a5e" x="305.339483" y="204.365302" style="stroke: #000000; stroke-width: 0.8"/>
      </g>
     </g>
     <g id="text_6">
      <!-- 2025 -->
      <g transform="translate(293.886983 218.203896) scale(0.09 -0.09)">
       <defs>
        <path id="DejaVuSans-35" d="M 691 4666
L 3169 4666
L 3169 4134
L 1269 4134
L 1269 2991
Q 1406 3038 1543 3061
Q 1681 3084 1819 3084
Q 2600 3084 3056 2656
Q 3513 2228 3513 1497
Q 3513 744 3044 326
Q 2575 -91 1722 -91
Q 1428 -91 1123 -41
Q 819 9 494 109
L 494 744
Q 775 591 1075 516
Q 1375 441 1709 441
Q 2250 441 2565 725
Q 2881 1009 2881 1497
Q 2881 1984 2565 2268
Q 2250 2553 1709 2553
Q 1456 2553 1204 2497
Q 953 2441 691 2322
L 691 4666
z
" transform="scale(0.015625)"/>
       </defs>
       <use xlink:href="#DejaVuSans-32"/>
       <use xlink:href="#DejaVuSans-30" transform="translate(63.623047 0)"/>
       <use xlink:href="#DejaVuSans-32" transform="translate(127.246094 0)"/>
       <use xlink:href="#DejaVuSans-35" transform="translate(190.869141 0)"/>
      </g>
     </g>
    </g>
    <g id="xtick_7">
     <g id="line2d_13">
      <path d="M 355.16815 204.365302
L 355.16815 22.318125
" clip-path="url(#p0ef18e4b01)" style="fill: none; stroke: #b0b0b0; stroke-opacity: 0.22; stroke-width: 0.8; stroke-linecap: square"/>
     </g>
     <g id="line2d_14">
      <g>
       <use xlink:href="#m350de26a5e" x="355.16815" y="204.365302" style="stroke: #000000; stroke-width: 0.8"/>
      </g>
     </g>
     <g id="text_7">
      <!-- 2026 -->
      <g transform="translate(343.71565 218.203896) scale(0.09 -0.09)">
       <defs>
        <path id="DejaVuSans-36" d="M 2113 2584
Q 1688 2584 1439 2293
Q 1191 2003 1191 1497
Q 1191 994 1439 701
Q 1688 409 2113 409
Q 2538 409 2786 701
Q 3034 994 3034 1497
Q 3034 2003 2786 2293
Q 2538 2584 2113 2584
z
M 3366 4563
L 3366 3988
Q 3128 4100 2886 4159
Q 2644 4219 2406 4219
Q 1781 4219 1451 3797
Q 1122 3375 1075 2522
Q 1259 2794 1537 2939
Q 1816 3084 2150 3084
Q 2853 3084 3261 2657
Q 3669 2231 3669 1497
Q 3669 778 3244 343
Q 2819 -91 2113 -91
Q 1303 -91 875 529
Q 447 1150 447 2328
Q 447 3434 972 4092
Q 1497 4750 2381 4750
Q 2619 4750 2861 4703
Q 3103 4656 3366 4563
z
" transform="scale(0.015625)"/>
       </defs>
       <use xlink:href="#DejaVuSans-32"/>
       <use xlink:href="#DejaVuSans-30" transform="translate(63.623047 0)"/>
       <use xlink:href="#DejaVuSans-32" transform="translate(127.246094 0)"/>
       <use xlink:href="#DejaVuSans-36" transform="translate(190.869141 0)"/>
      </g>
     </g>
    </g>
   </g>
   <g id="matplotlib.axis_2">
    <g id="ytick_1">
     <g id="line2d_15">
      <path d="M 39.930156 196.09043
L 391.775156 196.09043
" clip-path="url(#p0ef18e4b01)" style="fill: none; stroke: #b0b0b0; stroke-opacity: 0.22; stroke-width: 0.8; stroke-linecap: square"/>
     </g>
     <g id="line2d_16">
      <defs>
       <path id="m65d1b3578f" d="M 0 0
L -3.5 0
" style="stroke: #000000; stroke-width: 0.8"/>
      </defs>
      <g>
       <use xlink:href="#m65d1b3578f" x="39.930156" y="196.09043" style="stroke: #000000; stroke-width: 0.8"/>
      </g>
     </g>
     <g id="text_8">
      <!-- 0% -->
      <g transform="translate(18.6525 199.509727) scale(0.09 -0.09)">
       <defs>
        <path id="DejaVuSans-25" d="M 4653 2053
Q 4381 2053 4226 1822
Q 4072 1591 4072 1178
Q 4072 772 4226 539
Q 4381 306 4653 306
Q 4919 306 5073 539
Q 5228 772 5228 1178
Q 5228 1588 5073 1820
Q 4919 2053 4653 2053
z
M 4653 2450
Q 5147 2450 5437 2106
Q 5728 1763 5728 1178
Q 5728 594 5436 251
Q 5144 -91 4653 -91
Q 4153 -91 3862 251
Q 3572 594 3572 1178
Q 3572 1766 3864 2108
Q 4156 2450 4653 2450
z
M 1428 4353
Q 1159 4353 1004 4120
Q 850 3888 850 3481
Q 850 3069 1003 2837
Q 1156 2606 1428 2606
Q 1700 2606 1854 2837
Q 2009 3069 2009 3481
Q 2009 3884 1853 4118
Q 1697 4353 1428 4353
z
M 4250 4750
L 4750 4750
L 1831 -91
L 1331 -91
L 4250 4750
z
M 1428 4750
Q 1922 4750 2215 4408
Q 2509 4066 2509 3481
Q 2509 2891 2217 2550
Q 1925 2209 1428 2209
Q 931 2209 642 2551
Q 353 2894 353 3481
Q 353 4063 643 4406
Q 934 4750 1428 4750
z
" transform="scale(0.015625)"/>
       </defs>
       <use xlink:href="#DejaVuSans-30"/>
       <use xlink:href="#DejaVuSans-25" transform="translate(63.623047 0)"/>
      </g>
     </g>
    </g>
    <g id="ytick_2">
     <g id="line2d_17">
      <path d="M 39.930156 162.990944
L 391.775156 162.990944
" clip-path="url(#p0ef18e4b01)" style="fill: none; stroke: #b0b0b0; stroke-opacity: 0.22; stroke-width: 0.8; stroke-linecap: square"/>
     </g>
     <g id="line2d_18">
      <g>
       <use xlink:href="#m65d1b3578f" x="39.930156" y="162.990944" style="stroke: #000000; stroke-width: 0.8"/>
      </g>
     </g>
     <g id="text_9">
      <!-- 20% -->
      <g transform="translate(12.92625 166.410241) scale(0.09 -0.09)">
       <use xlink:href="#DejaVuSans-32"/>
       <use xlink:href="#DejaVuSans-30" transform="translate(63.623047 0)"/>
       <use xlink:href="#DejaVuSans-25" transform="translate(127.246094 0)"/>
      </g>
     </g>
    </g>
    <g id="ytick_3">
     <g id="line2d_19">
      <path d="M 39.930156 129.891457
L 391.775156 129.891457
" clip-path="url(#p0ef18e4b01)" style="fill: none; stroke: #b0b0b0; stroke-opacity: 0.22; stroke-width: 0.8; stroke-linecap: square"/>
     </g>
     <g id="line2d_20">
      <g>
       <use xlink:href="#m65d1b3578f" x="39.930156" y="129.891457" style="stroke: #000000; stroke-width: 0.8"/>
      </g>
     </g>
     <g id="text_10">
      <!-- 40% -->
      <g transform="translate(12.92625 133.310754) scale(0.09 -0.09)">
       <use xlink:href="#DejaVuSans-34"/>
       <use xlink:href="#DejaVuSans-30" transform="translate(63.623047 0)"/>
       <use xlink:href="#DejaVuSans-25" transform="translate(127.246094 0)"/>
      </g>
     </g>
    </g>
    <g id="ytick_4">
     <g id="line2d_21">
      <path d="M 39.930156 96.79197
L 391.775156 96.79197
" clip-path="url(#p0ef18e4b01)" style="fill: none; stroke: #b0b0b0; stroke-opacity: 0.22; stroke-width: 0.8; stroke-linecap: square"/>
     </g>
     <g id="line2d_22">
      <g>
       <use xlink:href="#m65d1b3578f" x="39.930156" y="96.79197" style="stroke: #000000; stroke-width: 0.8"/>
      </g>
     </g>
     <g id="text_11">
      <!-- 60% -->
      <g transform="translate(12.92625 100.211267) scale(0.09 -0.09)">
       <use xlink:href="#DejaVuSans-36"/>
       <use xlink:href="#DejaVuSans-30" transform="translate(63.623047 0)"/>
       <use xlink:href="#DejaVuSans-25" transform="translate(127.246094 0)"/>
      </g>
     </g>
    </g>
    <g id="ytick_5">
     <g id="line2d_23">
      <path d="M 39.930156 63.692483
L 391.775156 63.692483
" clip-path="url(#p0ef18e4b01)" style="fill: none; stroke: #b0b0b0; stroke-opacity: 0.22; stroke-width: 0.8; stroke-linecap: square"/>
     </g>
     <g id="line2d_24">
      <g>
       <use xlink:href="#m65d1b3578f" x="39.930156" y="63.692483" style="stroke: #000000; stroke-width: 0.8"/>
      </g>
     </g>
     <g id="text_12">
      <!-- 80% -->
      <g transform="translate(12.92625 67.11178) scale(0.09 -0.09)">
       <defs>
        <path id="DejaVuSans-38" d="M 2034 2216
Q 1584 2216 1326 1975
Q 1069 1734 1069 1313
Q 1069 891 1326 650
Q 1584 409 2034 409
Q 2484 409 2743 651
Q 3003 894 3003 1313
Q 3003 1734 2745 1975
Q 2488 2216 2034 2216
z
M 1403 2484
Q 997 2584 770 2862
Q 544 3141 544 3541
Q 544 4100 942 4425
Q 1341 4750 2034 4750
Q 2731 4750 3128 4425
Q 3525 4100 3525 3541
Q 3525 3141 3298 2862
Q 3072 2584 2669 2484
Q 3125 2378 3379 2068
Q 3634 1759 3634 1313
Q 3634 634 3220 271
Q 2806 -91 2034 -91
Q 1263 -91 848 271
Q 434 634 434 1313
Q 434 1759 690 2068
Q 947 2378 1403 2484
z
M 1172 3481
Q 1172 3119 1398 2916
Q 1625 2713 2034 2713
Q 2441 2713 2670 2916
Q 2900 3119 2900 3481
Q 2900 3844 2670 4047
Q 2441 4250 2034 4250
Q 1625 4250 1398 4047
Q 1172 3844 1172 3481
z
" transform="scale(0.015625)"/>
       </defs>
       <use xlink:href="#DejaVuSans-38"/>
       <use xlink:href="#DejaVuSans-30" transform="translate(63.623047 0)"/>
       <use xlink:href="#DejaVuSans-25" transform="translate(127.246094 0)"/>
      </g>
     </g>
    </g>
    <g id="ytick_6">
     <g id="line2d_25">
      <path d="M 39.930156 30.592997
L 391.775156 30.592997
" clip-path="url(#p0ef18e4b01)" style="fill: none; stroke: #b0b0b0; stroke-opacity: 0.22; stroke-width: 0.8; stroke-linecap: square"/>
     </g>
     <g id="line2d_26">
      <g>
       <use xlink:href="#m65d1b3578f" x="39.930156" y="30.592997" style="stroke: #000000; stroke-width: 0.8"/>
      </g>
     </g>
     <g id="text_13">
      <!-- 100% -->
      <g transform="translate(7.2 34.012294) scale(0.09 -0.09)">
       <use xlink:href="#DejaVuSans-31"/>
       <use xlink:href="#DejaVuSans-30" transform="translate(63.623047 0)"/>
       <use xlink:href="#DejaVuSans-30" transform="translate(127.246094 0)"/>
       <use xlink:href="#DejaVuSans-25" transform="translate(190.869141 0)"/>
      </g>
     </g>
    </g>
   </g>
   <g id="patch_3">
    <path d="M 39.930156 204.365302
L 39.930156 22.318125
" style="fill: none; stroke: #000000; stroke-width: 0.8; stroke-linejoin: miter; stroke-linecap: square"/>
   </g>
   <g id="patch_4">
    <path d="M 39.930156 204.365302
L 391.775156 204.365302
" style="fill: none; stroke: #000000; stroke-width: 0.8; stroke-linejoin: miter; stroke-linecap: square"/>
   </g>
   <g id="text_14">
    <!-- PIT Top-100 Composition -->
    <g transform="translate(141.773281 16.318125) scale(0.12 -0.12)">
     <defs>
      <path id="DejaVuSans-50" d="M 1259 4147
L 1259 2394
L 2053 2394
Q 2494 2394 2734 2622
Q 2975 2850 2975 3272
Q 2975 3691 2734 3919
Q 2494 4147 2053 4147
L 1259 4147
z
M 628 4666
L 2053 4666
Q 2838 4666 3239 4311
Q 3641 3956 3641 3272
Q 3641 2581 3239 2228
Q 2838 1875 2053 1875
L 1259 1875
L 1259 0
L 628 0
L 628 4666
z
" transform="scale(0.015625)"/>
      <path id="DejaVuSans-49" d="M 628 4666
L 1259 4666
L 1259 0
L 628 0
L 628 4666
z
" transform="scale(0.015625)"/>
      <path id="DejaVuSans-54" d="M -19 4666
L 3928 4666
L 3928 4134
L 2272 4134
L 2272 0
L 1638 0
L 1638 4134
L -19 4134
L -19 4666
z
" transform="scale(0.015625)"/>
      <path id="DejaVuSans-20" transform="scale(0.015625)"/>
      <path id="DejaVuSans-6f" d="M 1959 3097
Q 1497 3097 1228 2736
Q 959 2375 959 1747
Q 959 1119 1226 758
Q 1494 397 1959 397
Q 2419 397 2687 759
Q 2956 1122 2956 1747
Q 2956 2369 2687 2733
Q 2419 3097 1959 3097
z
M 1959 3584
Q 2709 3584 3137 3096
Q 3566 2609 3566 1747
Q 3566 888 3137 398
Q 2709 -91 1959 -91
Q 1206 -91 779 398
Q 353 888 353 1747
Q 353 2609 779 3096
Q 1206 3584 1959 3584
z
" transform="scale(0.015625)"/>
      <path id="DejaVuSans-70" d="M 1159 525
L 1159 -1331
L 581 -1331
L 581 3500
L 1159 3500
L 1159 2969
Q 1341 3281 1617 3432
Q 1894 3584 2278 3584
Q 2916 3584 3314 3078
Q 3713 2572 3713 1747
Q 3713 922 3314 415
Q 2916 -91 2278 -91
Q 1894 -91 1617 61
Q 1341 213 1159 525
z
M 3116 1747
Q 3116 2381 2855 2742
Q 2594 3103 2138 3103
Q 1681 3103 1420 2742
Q 1159 2381 1159 1747
Q 1159 1113 1420 752
Q 1681 391 2138 391
Q 2594 391 2855 752
Q 3116 1113 3116 1747
z
" transform="scale(0.015625)"/>
      <path id="DejaVuSans-2d" d="M 313 2009
L 1997 2009
L 1997 1497
L 313 1497
L 313 2009
z
" transform="scale(0.015625)"/>
      <path id="DejaVuSans-43" d="M 4122 4306
L 4122 3641
Q 3803 3938 3442 4084
Q 3081 4231 2675 4231
Q 1875 4231 1450 3742
Q 1025 3253 1025 2328
Q 1025 1406 1450 917
Q 1875 428 2675 428
Q 3081 428 3442 575
Q 3803 722 4122 1019
L 4122 359
Q 3791 134 3420 21
Q 3050 -91 2638 -91
Q 1578 -91 968 557
Q 359 1206 359 2328
Q 359 3453 968 4101
Q 1578 4750 2638 4750
Q 3056 4750 3426 4639
Q 3797 4528 4122 4306
z
" transform="scale(0.015625)"/>
      <path id="DejaVuSans-6d" d="M 3328 2828
Q 3544 3216 3844 3400
Q 4144 3584 4550 3584
Q 5097 3584 5394 3201
Q 5691 2819 5691 2113
L 5691 0
L 5113 0
L 5113 2094
Q 5113 2597 4934 2840
Q 4756 3084 4391 3084
Q 3944 3084 3684 2787
Q 3425 2491 3425 1978
L 3425 0
L 2847 0
L 2847 2094
Q 2847 2600 2669 2842
Q 2491 3084 2119 3084
Q 1678 3084 1418 2786
Q 1159 2488 1159 1978
L 1159 0
L 581 0
L 581 3500
L 1159 3500
L 1159 2956
Q 1356 3278 1631 3431
Q 1906 3584 2284 3584
Q 2666 3584 2933 3390
Q 3200 3197 3328 2828
z
" transform="scale(0.015625)"/>
      <path id="DejaVuSans-73" d="M 2834 3397
L 2834 2853
Q 2591 2978 2328 3040
Q 2066 3103 1784 3103
Q 1356 3103 1142 2972
Q 928 2841 928 2578
Q 928 2378 1081 2264
Q 1234 2150 1697 2047
L 1894 2003
Q 2506 1872 2764 1633
Q 3022 1394 3022 966
Q 3022 478 2636 193
Q 2250 -91 1575 -91
Q 1294 -91 989 -36
Q 684 19 347 128
L 347 722
Q 666 556 975 473
Q 1284 391 1588 391
Q 1994 391 2212 530
Q 2431 669 2431 922
Q 2431 1156 2273 1281
Q 2116 1406 1581 1522
L 1381 1569
Q 847 1681 609 1914
Q 372 2147 372 2553
Q 372 3047 722 3315
Q 1072 3584 1716 3584
Q 2034 3584 2315 3537
Q 2597 3491 2834 3397
z
" transform="scale(0.015625)"/>
      <path id="DejaVuSans-69" d="M 603 3500
L 1178 3500
L 1178 0
L 603 0
L 603 3500
z
M 603 4863
L 1178 4863
L 1178 4134
L 603 4134
L 603 4863
z
" transform="scale(0.015625)"/>
      <path id="DejaVuSans-74" d="M 1172 4494
L 1172 3500
L 2356 3500
L 2356 3053
L 1172 3053
L 1172 1153
Q 1172 725 1289 603
Q 1406 481 1766 481
L 2356 481
L 2356 0
L 1766 0
Q 1100 0 847 248
Q 594 497 594 1153
L 594 3053
L 172 3053
L 172 3500
L 594 3500
L 594 4494
L 1172 4494
z
" transform="scale(0.015625)"/>
      <path id="DejaVuSans-6e" d="M 3513 2113
L 3513 0
L 2938 0
L 2938 2094
Q 2938 2591 2744 2837
Q 2550 3084 2163 3084
Q 1697 3084 1428 2787
Q 1159 2491 1159 1978
L 1159 0
L 581 0
L 581 3500
L 1159 3500
L 1159 2956
Q 1366 3272 1645 3428
Q 1925 3584 2291 3584
Q 2894 3584 3203 3211
Q 3513 2838 3513 2113
z
" transform="scale(0.015625)"/>
     </defs>
     <use xlink:href="#DejaVuSans-50"/>
     <use xlink:href="#DejaVuSans-49" transform="translate(60.302734 0)"/>
     <use xlink:href="#DejaVuSans-54" transform="translate(89.794922 0)"/>
     <use xlink:href="#DejaVuSans-20" transform="translate(150.878906 0)"/>
     <use xlink:href="#DejaVuSans-54" transform="translate(182.666016 0)"/>
     <use xlink:href="#DejaVuSans-6f" transform="translate(226.75 0)"/>
     <use xlink:href="#DejaVuSans-70" transform="translate(287.931641 0)"/>
     <use xlink:href="#DejaVuSans-2d" transform="translate(351.408203 0)"/>
     <use xlink:href="#DejaVuSans-31" transform="translate(387.492188 0)"/>
     <use xlink:href="#DejaVuSans-30" transform="translate(451.115234 0)"/>
     <use xlink:href="#DejaVuSans-30" transform="translate(514.738281 0)"/>
     <use xlink:href="#DejaVuSans-20" transform="translate(578.361328 0)"/>
     <use xlink:href="#DejaVuSans-43" transform="translate(610.148438 0)"/>
     <use xlink:href="#DejaVuSans-6f" transform="translate(679.972656 0)"/>
     <use xlink:href="#DejaVuSans-6d" transform="translate(741.154297 0)"/>
     <use xlink:href="#DejaVuSans-70" transform="translate(838.566406 0)"/>
     <use xlink:href="#DejaVuSans-6f" transform="translate(902.042969 0)"/>
     <use xlink:href="#DejaVuSans-73" transform="translate(963.224609 0)"/>
     <use xlink:href="#DejaVuSans-69" transform="translate(1015.324219 0)"/>
     <use xlink:href="#DejaVuSans-74" transform="translate(1043.107422 0)"/>
     <use xlink:href="#DejaVuSans-69" transform="translate(1082.316406 0)"/>
     <use xlink:href="#DejaVuSans-6f" transform="translate(1110.099609 0)"/>
     <use xlink:href="#DejaVuSans-6e" transform="translate(1171.28125 0)"/>
    </g>
   </g>
   <g id="legend_1">
    <g id="patch_5">
     <path d="M 74.592656 245.111757
L 88.592656 245.111757
L 88.592656 240.211757
L 74.592656 240.211757
z
" style="fill: #1f77b4; fill-opacity: 0.78"/>
    </g>
    <g id="text_15">
     <!-- BTC -->
     <g transform="translate(94.192656 245.111757) scale(0.07 -0.07)">
      <defs>
       <path id="DejaVuSans-42" d="M 1259 2228
L 1259 519
L 2272 519
Q 2781 519 3026 730
Q 3272 941 3272 1375
Q 3272 1813 3026 2020
Q 2781 2228 2272 2228
L 1259 2228
z
M 1259 4147
L 1259 2741
L 2194 2741
Q 2656 2741 2882 2914
Q 3109 3088 3109 3444
Q 3109 3797 2882 3972
Q 2656 4147 2194 4147
L 1259 4147
z
M 628 4666
L 2241 4666
Q 2963 4666 3353 4366
Q 3744 4066 3744 3513
Q 3744 3084 3544 2831
Q 3344 2578 2956 2516
Q 3422 2416 3680 2098
Q 3938 1781 3938 1306
Q 3938 681 3513 340
Q 3088 0 2303 0
L 628 0
L 628 4666
z
" transform="scale(0.015625)"/>
      </defs>
      <use xlink:href="#DejaVuSans-42"/>
      <use xlink:href="#DejaVuSans-54" transform="translate(68.603516 0)"/>
      <use xlink:href="#DejaVuSans-43" transform="translate(123.8125 0)"/>
     </g>
    </g>
    <g id="patch_6">
     <path d="M 74.592656 255.386444
L 88.592656 255.386444
L 88.592656 250.486444
L 74.592656 250.486444
z
" style="fill: #ff7f0e; fill-opacity: 0.78"/>
    </g>
    <g id="text_16">
     <!-- ETH -->
     <g transform="translate(94.192656 255.386444) scale(0.07 -0.07)">
      <defs>
       <path id="DejaVuSans-45" d="M 628 4666
L 3578 4666
L 3578 4134
L 1259 4134
L 1259 2753
L 3481 2753
L 3481 2222
L 1259 2222
L 1259 531
L 3634 531
L 3634 0
L 628 0
L 628 4666
z
" transform="scale(0.015625)"/>
       <path id="DejaVuSans-48" d="M 628 4666
L 1259 4666
L 1259 2753
L 3553 2753
L 3553 4666
L 4184 4666
L 4184 0
L 3553 0
L 3553 2222
L 1259 2222
L 1259 0
L 628 0
L 628 4666
z
" transform="scale(0.015625)"/>
      </defs>
      <use xlink:href="#DejaVuSans-45"/>
      <use xlink:href="#DejaVuSans-54" transform="translate(63.183594 0)"/>
      <use xlink:href="#DejaVuSans-48" transform="translate(124.267578 0)"/>
     </g>
    </g>
    <g id="patch_7">
     <path d="M 74.592656 265.661132
L 88.592656 265.661132
L 88.592656 260.761132
L 74.592656 260.761132
z
" style="fill: #2ca02c; fill-opacity: 0.78"/>
    </g>
    <g id="text_17">
     <!-- governance/infrastructure risk assets -->
     <g transform="translate(94.192656 265.661132) scale(0.07 -0.07)">
      <defs>
       <path id="DejaVuSans-67" d="M 2906 1791
Q 2906 2416 2648 2759
Q 2391 3103 1925 3103
Q 1463 3103 1205 2759
Q 947 2416 947 1791
Q 947 1169 1205 825
Q 1463 481 1925 481
Q 2391 481 2648 825
Q 2906 1169 2906 1791
z
M 3481 434
Q 3481 -459 3084 -895
Q 2688 -1331 1869 -1331
Q 1566 -1331 1297 -1286
Q 1028 -1241 775 -1147
L 775 -588
Q 1028 -725 1275 -790
Q 1522 -856 1778 -856
Q 2344 -856 2625 -561
Q 2906 -266 2906 331
L 2906 616
Q 2728 306 2450 153
Q 2172 0 1784 0
Q 1141 0 747 490
Q 353 981 353 1791
Q 353 2603 747 3093
Q 1141 3584 1784 3584
Q 2172 3584 2450 3431
Q 2728 3278 2906 2969
L 2906 3500
L 3481 3500
L 3481 434
z
" transform="scale(0.015625)"/>
       <path id="DejaVuSans-76" d="M 191 3500
L 800 3500
L 1894 563
L 2988 3500
L 3597 3500
L 2284 0
L 1503 0
L 191 3500
z
" transform="scale(0.015625)"/>
       <path id="DejaVuSans-65" d="M 3597 1894
L 3597 1613
L 953 1613
Q 991 1019 1311 708
Q 1631 397 2203 397
Q 2534 397 2845 478
Q 3156 559 3463 722
L 3463 178
Q 3153 47 2828 -22
Q 2503 -91 2169 -91
Q 1331 -91 842 396
Q 353 884 353 1716
Q 353 2575 817 3079
Q 1281 3584 2069 3584
Q 2775 3584 3186 3129
Q 3597 2675 3597 1894
z
M 3022 2063
Q 3016 2534 2758 2815
Q 2500 3097 2075 3097
Q 1594 3097 1305 2825
Q 1016 2553 972 2059
L 3022 2063
z
" transform="scale(0.015625)"/>
       <path id="DejaVuSans-72" d="M 2631 2963
Q 2534 3019 2420 3045
Q 2306 3072 2169 3072
Q 1681 3072 1420 2755
Q 1159 2438 1159 1844
L 1159 0
L 581 0
L 581 3500
L 1159 3500
L 1159 2956
Q 1341 3275 1631 3429
Q 1922 3584 2338 3584
Q 2397 3584 2469 3576
Q 2541 3569 2628 3553
L 2631 2963
z
" transform="scale(0.015625)"/>
       <path id="DejaVuSans-61" d="M 2194 1759
Q 1497 1759 1228 1600
Q 959 1441 959 1056
Q 959 750 1161 570
Q 1363 391 1709 391
Q 2188 391 2477 730
Q 2766 1069 2766 1631
L 2766 1759
L 2194 1759
z
M 3341 1997
L 3341 0
L 2766 0
L 2766 531
Q 2569 213 2275 61
Q 1981 -91 1556 -91
Q 1019 -91 701 211
Q 384 513 384 1019
Q 384 1609 779 1909
Q 1175 2209 1959 2209
L 2766 2209
L 2766 2266
Q 2766 2663 2505 2880
Q 2244 3097 1772 3097
Q 1472 3097 1187 3025
Q 903 2953 641 2809
L 641 3341
Q 956 3463 1253 3523
Q 1550 3584 1831 3584
Q 2591 3584 2966 3190
Q 3341 2797 3341 1997
z
" transform="scale(0.015625)"/>
       <path id="DejaVuSans-63" d="M 3122 3366
L 3122 2828
Q 2878 2963 2633 3030
Q 2388 3097 2138 3097
Q 1578 3097 1268 2742
Q 959 2388 959 1747
Q 959 1106 1268 751
Q 1578 397 2138 397
Q 2388 397 2633 464
Q 2878 531 3122 666
L 3122 134
Q 2881 22 2623 -34
Q 2366 -91 2075 -91
Q 1284 -91 818 406
Q 353 903 353 1747
Q 353 2603 823 3093
Q 1294 3584 2113 3584
Q 2378 3584 2631 3529
Q 2884 3475 3122 3366
z
" transform="scale(0.015625)"/>
       <path id="DejaVuSans-2f" d="M 1625 4666
L 2156 4666
L 531 -594
L 0 -594
L 1625 4666
z
" transform="scale(0.015625)"/>
       <path id="DejaVuSans-66" d="M 2375 4863
L 2375 4384
L 1825 4384
Q 1516 4384 1395 4259
Q 1275 4134 1275 3809
L 1275 3500
L 2222 3500
L 2222 3053
L 1275 3053
L 1275 0
L 697 0
L 697 3053
L 147 3053
L 147 3500
L 697 3500
L 697 3744
Q 697 4328 969 4595
Q 1241 4863 1831 4863
L 2375 4863
z
" transform="scale(0.015625)"/>
       <path id="DejaVuSans-75" d="M 544 1381
L 544 3500
L 1119 3500
L 1119 1403
Q 1119 906 1312 657
Q 1506 409 1894 409
Q 2359 409 2629 706
Q 2900 1003 2900 1516
L 2900 3500
L 3475 3500
L 3475 0
L 2900 0
L 2900 538
Q 2691 219 2414 64
Q 2138 -91 1772 -91
Q 1169 -91 856 284
Q 544 659 544 1381
z
M 1991 3584
L 1991 3584
z
" transform="scale(0.015625)"/>
       <path id="DejaVuSans-6b" d="M 581 4863
L 1159 4863
L 1159 1991
L 2875 3500
L 3609 3500
L 1753 1863
L 3688 0
L 2938 0
L 1159 1709
L 1159 0
L 581 0
L 581 4863
z
" transform="scale(0.015625)"/>
      </defs>
      <use xlink:href="#DejaVuSans-67"/>
      <use xlink:href="#DejaVuSans-6f" transform="translate(63.476562 0)"/>
      <use xlink:href="#DejaVuSans-76" transform="translate(124.658203 0)"/>
      <use xlink:href="#DejaVuSans-65" transform="translate(183.837891 0)"/>
      <use xlink:href="#DejaVuSans-72" transform="translate(245.361328 0)"/>
      <use xlink:href="#DejaVuSans-6e" transform="translate(284.724609 0)"/>
      <use xlink:href="#DejaVuSans-61" transform="translate(348.103516 0)"/>
      <use xlink:href="#DejaVuSans-6e" transform="translate(409.382812 0)"/>
      <use xlink:href="#DejaVuSans-63" transform="translate(472.761719 0)"/>
      <use xlink:href="#DejaVuSans-65" transform="translate(527.742188 0)"/>
      <use xlink:href="#DejaVuSans-2f" transform="translate(589.265625 0)"/>
      <use xlink:href="#DejaVuSans-69" transform="translate(622.957031 0)"/>
      <use xlink:href="#DejaVuSans-6e" transform="translate(650.740234 0)"/>
      <use xlink:href="#DejaVuSans-66" transform="translate(714.119141 0)"/>
      <use xlink:href="#DejaVuSans-72" transform="translate(749.324219 0)"/>
      <use xlink:href="#DejaVuSans-61" transform="translate(790.4375 0)"/>
      <use xlink:href="#DejaVuSans-73" transform="translate(851.716797 0)"/>
      <use xlink:href="#DejaVuSans-74" transform="translate(903.816406 0)"/>
      <use xlink:href="#DejaVuSans-72" transform="translate(943.025391 0)"/>
      <use xlink:href="#DejaVuSans-75" transform="translate(984.138672 0)"/>
      <use xlink:href="#DejaVuSans-63" transform="translate(1047.517578 0)"/>
      <use xlink:href="#DejaVuSans-74" transform="translate(1102.498047 0)"/>
      <use xlink:href="#DejaVuSans-75" transform="translate(1141.707031 0)"/>
      <use xlink:href="#DejaVuSans-72" transform="translate(1205.085938 0)"/>
      <use xlink:href="#DejaVuSans-65" transform="translate(1243.949219 0)"/>
      <use xlink:href="#DejaVuSans-20" transform="translate(1305.472656 0)"/>
      <use xlink:href="#DejaVuSans-72" transform="translate(1337.259766 0)"/>
      <use xlink:href="#DejaVuSans-69" transform="translate(1378.373047 0)"/>
      <use xlink:href="#DejaVuSans-73" transform="translate(1406.15625 0)"/>
      <use xlink:href="#DejaVuSans-6b" transform="translate(1458.255859 0)"/>
      <use xlink:href="#DejaVuSans-20" transform="translate(1516.166016 0)"/>
      <use xlink:href="#DejaVuSans-61" transform="translate(1547.953125 0)"/>
      <use xlink:href="#DejaVuSans-73" transform="translate(1609.232422 0)"/>
      <use xlink:href="#DejaVuSans-73" transform="translate(1661.332031 0)"/>
      <use xlink:href="#DejaVuSans-65" transform="translate(1713.431641 0)"/>
      <use xlink:href="#DejaVuSans-74" transform="translate(1774.955078 0)"/>
      <use xlink:href="#DejaVuSans-73" transform="translate(1814.164062 0)"/>
     </g>
    </g>
    <g id="patch_8">
     <path d="M 74.592656 275.935819
L 88.592656 275.935819
L 88.592656 271.035819
L 74.592656 271.035819
z
" style="fill: #d62728; fill-opacity: 0.78"/>
    </g>
    <g id="text_18">
     <!-- other risk assets -->
     <g transform="translate(94.192656 275.935819) scale(0.07 -0.07)">
      <defs>
       <path id="DejaVuSans-68" d="M 3513 2113
L 3513 0
L 2938 0
L 2938 2094
Q 2938 2591 2744 2837
Q 2550 3084 2163 3084
Q 1697 3084 1428 2787
Q 1159 2491 1159 1978
L 1159 0
L 581 0
L 581 4863
L 1159 4863
L 1159 2956
Q 1366 3272 1645 3428
Q 1925 3584 2291 3584
Q 2894 3584 3203 3211
Q 3513 2838 3513 2113
z
" transform="scale(0.015625)"/>
      </defs>
      <use xlink:href="#DejaVuSans-6f"/>
      <use xlink:href="#DejaVuSans-74" transform="translate(61.181641 0)"/>
      <use xlink:href="#DejaVuSans-68" transform="translate(100.390625 0)"/>
      <use xlink:href="#DejaVuSans-65" transform="translate(163.769531 0)"/>
      <use xlink:href="#DejaVuSans-72" transform="translate(225.292969 0)"/>
      <use xlink:href="#DejaVuSans-20" transform="translate(266.40625 0)"/>
      <use xlink:href="#DejaVuSans-72" transform="translate(298.193359 0)"/>
      <use xlink:href="#DejaVuSans-69" transform="translate(339.306641 0)"/>
      <use xlink:href="#DejaVuSans-73" transform="translate(367.089844 0)"/>
      <use xlink:href="#DejaVuSans-6b" transform="translate(419.189453 0)"/>
      <use xlink:href="#DejaVuSans-20" transform="translate(477.099609 0)"/>
      <use xlink:href="#DejaVuSans-61" transform="translate(508.886719 0)"/>
      <use xlink:href="#DejaVuSans-73" transform="translate(570.166016 0)"/>
      <use xlink:href="#DejaVuSans-73" transform="translate(622.265625 0)"/>
      <use xlink:href="#DejaVuSans-65" transform="translate(674.365234 0)"/>
      <use xlink:href="#DejaVuSans-74" transform="translate(735.888672 0)"/>
      <use xlink:href="#DejaVuSans-73" transform="translate(775.097656 0)"/>
     </g>
    </g>
    <g id="patch_9">
     <path d="M 238.827969 245.111757
L 252.827969 245.111757
L 252.827969 240.211757
L 238.827969 240.211757
z
" style="fill: #9467bd; fill-opacity: 0.78"/>
    </g>
    <g id="text_19">
     <!-- productized/wrapped assets -->
     <g transform="translate(258.427969 245.111757) scale(0.07 -0.07)">
      <defs>
       <path id="DejaVuSans-64" d="M 2906 2969
L 2906 4863
L 3481 4863
L 3481 0
L 2906 0
L 2906 525
Q 2725 213 2448 61
Q 2172 -91 1784 -91
Q 1150 -91 751 415
Q 353 922 353 1747
Q 353 2572 751 3078
Q 1150 3584 1784 3584
Q 2172 3584 2448 3432
Q 2725 3281 2906 2969
z
M 947 1747
Q 947 1113 1208 752
Q 1469 391 1925 391
Q 2381 391 2643 752
Q 2906 1113 2906 1747
Q 2906 2381 2643 2742
Q 2381 3103 1925 3103
Q 1469 3103 1208 2742
Q 947 2381 947 1747
z
" transform="scale(0.015625)"/>
       <path id="DejaVuSans-7a" d="M 353 3500
L 3084 3500
L 3084 2975
L 922 459
L 3084 459
L 3084 0
L 275 0
L 275 525
L 2438 3041
L 353 3041
L 353 3500
z
" transform="scale(0.015625)"/>
       <path id="DejaVuSans-77" d="M 269 3500
L 844 3500
L 1563 769
L 2278 3500
L 2956 3500
L 3675 769
L 4391 3500
L 4966 3500
L 4050 0
L 3372 0
L 2619 2869
L 1863 0
L 1184 0
L 269 3500
z
" transform="scale(0.015625)"/>
      </defs>
      <use xlink:href="#DejaVuSans-70"/>
      <use xlink:href="#DejaVuSans-72" transform="translate(63.476562 0)"/>
      <use xlink:href="#DejaVuSans-6f" transform="translate(102.339844 0)"/>
      <use xlink:href="#DejaVuSans-64" transform="translate(163.521484 0)"/>
      <use xlink:href="#DejaVuSans-75" transform="translate(226.998047 0)"/>
      <use xlink:href="#DejaVuSans-63" transform="translate(290.376953 0)"/>
      <use xlink:href="#DejaVuSans-74" transform="translate(345.357422 0)"/>
      <use xlink:href="#DejaVuSans-69" transform="translate(384.566406 0)"/>
      <use xlink:href="#DejaVuSans-7a" transform="translate(412.349609 0)"/>
      <use xlink:href="#DejaVuSans-65" transform="translate(464.839844 0)"/>
      <use xlink:href="#DejaVuSans-64" transform="translate(526.363281 0)"/>
      <use xlink:href="#DejaVuSans-2f" transform="translate(589.839844 0)"/>
      <use xlink:href="#DejaVuSans-77" transform="translate(623.53125 0)"/>
      <use xlink:href="#DejaVuSans-72" transform="translate(705.318359 0)"/>
      <use xlink:href="#DejaVuSans-61" transform="translate(746.431641 0)"/>
      <use xlink:href="#DejaVuSans-70" transform="translate(807.710938 0)"/>
      <use xlink:href="#DejaVuSans-70" transform="translate(871.1875 0)"/>
      <use xlink:href="#DejaVuSans-65" transform="translate(934.664062 0)"/>
      <use xlink:href="#DejaVuSans-64" transform="translate(996.1875 0)"/>
      <use xlink:href="#DejaVuSans-20" transform="translate(1059.664062 0)"/>
      <use xlink:href="#DejaVuSans-61" transform="translate(1091.451172 0)"/>
      <use xlink:href="#DejaVuSans-73" transform="translate(1152.730469 0)"/>
      <use xlink:href="#DejaVuSans-73" transform="translate(1204.830078 0)"/>
      <use xlink:href="#DejaVuSans-65" transform="translate(1256.929688 0)"/>
      <use xlink:href="#DejaVuSans-74" transform="translate(1318.453125 0)"/>
      <use xlink:href="#DejaVuSans-73" transform="translate(1357.662109 0)"/>
     </g>
    </g>
    <g id="patch_10">
     <path d="M 238.827969 255.386444
L 252.827969 255.386444
L 252.827969 250.486444
L 238.827969 250.486444
z
" style="fill: #8c564b; fill-opacity: 0.78"/>
    </g>
    <g id="text_20">
     <!-- selected majors ex BTC/ETH -->
     <g transform="translate(258.427969 255.386444) scale(0.07 -0.07)">
      <defs>
       <path id="DejaVuSans-6c" d="M 603 4863
L 1178 4863
L 1178 0
L 603 0
L 603 4863
z
" transform="scale(0.015625)"/>
       <path id="DejaVuSans-6a" d="M 603 3500
L 1178 3500
L 1178 -63
Q 1178 -731 923 -1031
Q 669 -1331 103 -1331
L -116 -1331
L -116 -844
L 38 -844
Q 366 -844 484 -692
Q 603 -541 603 -63
L 603 3500
z
M 603 4863
L 1178 4863
L 1178 4134
L 603 4134
L 603 4863
z
" transform="scale(0.015625)"/>
       <path id="DejaVuSans-78" d="M 3513 3500
L 2247 1797
L 3578 0
L 2900 0
L 1881 1375
L 863 0
L 184 0
L 1544 1831
L 300 3500
L 978 3500
L 1906 2253
L 2834 3500
L 3513 3500
z
" transform="scale(0.015625)"/>
      </defs>
      <use xlink:href="#DejaVuSans-73"/>
      <use xlink:href="#DejaVuSans-65" transform="translate(52.099609 0)"/>
      <use xlink:href="#DejaVuSans-6c" transform="translate(113.623047 0)"/>
      <use xlink:href="#DejaVuSans-65" transform="translate(141.40625 0)"/>
      <use xlink:href="#DejaVuSans-63" transform="translate(202.929688 0)"/>
      <use xlink:href="#DejaVuSans-74" transform="translate(257.910156 0)"/>
      <use xlink:href="#DejaVuSans-65" transform="translate(297.119141 0)"/>
      <use xlink:href="#DejaVuSans-64" transform="translate(358.642578 0)"/>
      <use xlink:href="#DejaVuSans-20" transform="translate(422.119141 0)"/>
      <use xlink:href="#DejaVuSans-6d" transform="translate(453.90625 0)"/>
      <use xlink:href="#DejaVuSans-61" transform="translate(551.318359 0)"/>
      <use xlink:href="#DejaVuSans-6a" transform="translate(612.597656 0)"/>
      <use xlink:href="#DejaVuSans-6f" transform="translate(640.380859 0)"/>
      <use xlink:href="#DejaVuSans-72" transform="translate(701.5625 0)"/>
      <use xlink:href="#DejaVuSans-73" transform="translate(742.675781 0)"/>
      <use xlink:href="#DejaVuSans-20" transform="translate(794.775391 0)"/>
      <use xlink:href="#DejaVuSans-65" transform="translate(826.5625 0)"/>
      <use xlink:href="#DejaVuSans-78" transform="translate(886.335938 0)"/>
      <use xlink:href="#DejaVuSans-20" transform="translate(945.515625 0)"/>
      <use xlink:href="#DejaVuSans-42" transform="translate(977.302734 0)"/>
      <use xlink:href="#DejaVuSans-54" transform="translate(1045.90625 0)"/>
      <use xlink:href="#DejaVuSans-43" transform="translate(1101.115234 0)"/>
      <use xlink:href="#DejaVuSans-2f" transform="translate(1170.939453 0)"/>
      <use xlink:href="#DejaVuSans-45" transform="translate(1204.630859 0)"/>
      <use xlink:href="#DejaVuSans-54" transform="translate(1267.814453 0)"/>
      <use xlink:href="#DejaVuSans-48" transform="translate(1328.898438 0)"/>
     </g>
    </g>
    <g id="patch_11">
     <path d="M 238.827969 265.661132
L 252.827969 265.661132
L 252.827969 260.761132
L 238.827969 260.761132
z
" style="fill: #e377c2; fill-opacity: 0.78"/>
    </g>
    <g id="text_21">
     <!-- stable-like assets -->
     <g transform="translate(258.427969 265.661132) scale(0.07 -0.07)">
      <defs>
       <path id="DejaVuSans-62" d="M 3116 1747
Q 3116 2381 2855 2742
Q 2594 3103 2138 3103
Q 1681 3103 1420 2742
Q 1159 2381 1159 1747
Q 1159 1113 1420 752
Q 1681 391 2138 391
Q 2594 391 2855 752
Q 3116 1113 3116 1747
z
M 1159 2969
Q 1341 3281 1617 3432
Q 1894 3584 2278 3584
Q 2916 3584 3314 3078
Q 3713 2572 3713 1747
Q 3713 922 3314 415
Q 2916 -91 2278 -91
Q 1894 -91 1617 61
Q 1341 213 1159 525
L 1159 0
L 581 0
L 581 4863
L 1159 4863
L 1159 2969
z
" transform="scale(0.015625)"/>
      </defs>
      <use xlink:href="#DejaVuSans-73"/>
      <use xlink:href="#DejaVuSans-74" transform="translate(52.099609 0)"/>
      <use xlink:href="#DejaVuSans-61" transform="translate(91.308594 0)"/>
      <use xlink:href="#DejaVuSans-62" transform="translate(152.587891 0)"/>
      <use xlink:href="#DejaVuSans-6c" transform="translate(216.064453 0)"/>
      <use xlink:href="#DejaVuSans-65" transform="translate(243.847656 0)"/>
      <use xlink:href="#DejaVuSans-2d" transform="translate(305.371094 0)"/>
      <use xlink:href="#DejaVuSans-6c" transform="translate(341.455078 0)"/>
      <use xlink:href="#DejaVuSans-69" transform="translate(369.238281 0)"/>
      <use xlink:href="#DejaVuSans-6b" transform="translate(397.021484 0)"/>
      <use xlink:href="#DejaVuSans-65" transform="translate(451.306641 0)"/>
      <use xlink:href="#DejaVuSans-20" transform="translate(512.830078 0)"/>
      <use xlink:href="#DejaVuSans-61" transform="translate(544.617188 0)"/>
      <use xlink:href="#DejaVuSans-73" transform="translate(605.896484 0)"/>
      <use xlink:href="#DejaVuSans-73" transform="translate(657.996094 0)"/>
      <use xlink:href="#DejaVuSans-65" transform="translate(710.095703 0)"/>
      <use xlink:href="#DejaVuSans-74" transform="translate(771.619141 0)"/>
      <use xlink:href="#DejaVuSans-73" transform="translate(810.828125 0)"/>
     </g>
    </g>
   </g>
  </g>
  <g id="axes_2">
   <g id="patch_12">
    <path d="M 427.866585 204.365302
L 779.711585 204.365302
L 779.711585 22.318125
L 427.866585 22.318125
z
" style="fill: #ffffff"/>
   </g>
   <g id="matplotlib.axis_3">
    <g id="xtick_8">
     <g id="line2d_27">
      <path d="M 443.859539 204.365302
L 443.859539 22.318125
" clip-path="url(#p586e008b01)" style="fill: none; stroke: #b0b0b0; stroke-opacity: 0.22; stroke-width: 0.8; stroke-linecap: square"/>
     </g>
     <g id="line2d_28">
      <g>
       <use xlink:href="#m350de26a5e" x="443.859539" y="204.365302" style="stroke: #000000; stroke-width: 0.8"/>
      </g>
     </g>
     <g id="text_22">
      <!-- 2020 -->
      <g transform="translate(432.407039 218.203896) scale(0.09 -0.09)">
       <use xlink:href="#DejaVuSans-32"/>
       <use xlink:href="#DejaVuSans-30" transform="translate(63.623047 0)"/>
       <use xlink:href="#DejaVuSans-32" transform="translate(127.246094 0)"/>
       <use xlink:href="#DejaVuSans-30" transform="translate(190.869141 0)"/>
      </g>
     </g>
    </g>
    <g id="xtick_9">
     <g id="line2d_29">
      <path d="M 493.824724 204.365302
L 493.824724 22.318125
" clip-path="url(#p586e008b01)" style="fill: none; stroke: #b0b0b0; stroke-opacity: 0.22; stroke-width: 0.8; stroke-linecap: square"/>
     </g>
     <g id="line2d_30">
      <g>
       <use xlink:href="#m350de26a5e" x="493.824724" y="204.365302" style="stroke: #000000; stroke-width: 0.8"/>
      </g>
     </g>
     <g id="text_23">
      <!-- 2021 -->
      <g transform="translate(482.372224 218.203896) scale(0.09 -0.09)">
       <use xlink:href="#DejaVuSans-32"/>
       <use xlink:href="#DejaVuSans-30" transform="translate(63.623047 0)"/>
       <use xlink:href="#DejaVuSans-32" transform="translate(127.246094 0)"/>
       <use xlink:href="#DejaVuSans-31" transform="translate(190.869141 0)"/>
      </g>
     </g>
    </g>
    <g id="xtick_10">
     <g id="line2d_31">
      <path d="M 543.653391 204.365302
L 543.653391 22.318125
" clip-path="url(#p586e008b01)" style="fill: none; stroke: #b0b0b0; stroke-opacity: 0.22; stroke-width: 0.8; stroke-linecap: square"/>
     </g>
     <g id="line2d_32">
      <g>
       <use xlink:href="#m350de26a5e" x="543.653391" y="204.365302" style="stroke: #000000; stroke-width: 0.8"/>
      </g>
     </g>
     <g id="text_24">
      <!-- 2022 -->
      <g transform="translate(532.200891 218.203896) scale(0.09 -0.09)">
       <use xlink:href="#DejaVuSans-32"/>
       <use xlink:href="#DejaVuSans-30" transform="translate(63.623047 0)"/>
       <use xlink:href="#DejaVuSans-32" transform="translate(127.246094 0)"/>
       <use xlink:href="#DejaVuSans-32" transform="translate(190.869141 0)"/>
      </g>
     </g>
    </g>
    <g id="xtick_11">
     <g id="line2d_33">
      <path d="M 593.482059 204.365302
L 593.482059 22.318125
" clip-path="url(#p586e008b01)" style="fill: none; stroke: #b0b0b0; stroke-opacity: 0.22; stroke-width: 0.8; stroke-linecap: square"/>
     </g>
     <g id="line2d_34">
      <g>
       <use xlink:href="#m350de26a5e" x="593.482059" y="204.365302" style="stroke: #000000; stroke-width: 0.8"/>
      </g>
     </g>
     <g id="text_25">
      <!-- 2023 -->
      <g transform="translate(582.029559 218.203896) scale(0.09 -0.09)">
       <use xlink:href="#DejaVuSans-32"/>
       <use xlink:href="#DejaVuSans-30" transform="translate(63.623047 0)"/>
       <use xlink:href="#DejaVuSans-32" transform="translate(127.246094 0)"/>
       <use xlink:href="#DejaVuSans-33" transform="translate(190.869141 0)"/>
      </g>
     </g>
    </g>
    <g id="xtick_12">
     <g id="line2d_35">
      <path d="M 643.310727 204.365302
L 643.310727 22.318125
" clip-path="url(#p586e008b01)" style="fill: none; stroke: #b0b0b0; stroke-opacity: 0.22; stroke-width: 0.8; stroke-linecap: square"/>
     </g>
     <g id="line2d_36">
      <g>
       <use xlink:href="#m350de26a5e" x="643.310727" y="204.365302" style="stroke: #000000; stroke-width: 0.8"/>
      </g>
     </g>
     <g id="text_26">
      <!-- 2024 -->
      <g transform="translate(631.858227 218.203896) scale(0.09 -0.09)">
       <use xlink:href="#DejaVuSans-32"/>
       <use xlink:href="#DejaVuSans-30" transform="translate(63.623047 0)"/>
       <use xlink:href="#DejaVuSans-32" transform="translate(127.246094 0)"/>
       <use xlink:href="#DejaVuSans-34" transform="translate(190.869141 0)"/>
      </g>
     </g>
    </g>
    <g id="xtick_13">
     <g id="line2d_37">
      <path d="M 693.275911 204.365302
L 693.275911 22.318125
" clip-path="url(#p586e008b01)" style="fill: none; stroke: #b0b0b0; stroke-opacity: 0.22; stroke-width: 0.8; stroke-linecap: square"/>
     </g>
     <g id="line2d_38">
      <g>
       <use xlink:href="#m350de26a5e" x="693.275911" y="204.365302" style="stroke: #000000; stroke-width: 0.8"/>
      </g>
     </g>
     <g id="text_27">
      <!-- 2025 -->
      <g transform="translate(681.823411 218.203896) scale(0.09 -0.09)">
       <use xlink:href="#DejaVuSans-32"/>
       <use xlink:href="#DejaVuSans-30" transform="translate(63.623047 0)"/>
       <use xlink:href="#DejaVuSans-32" transform="translate(127.246094 0)"/>
       <use xlink:href="#DejaVuSans-35" transform="translate(190.869141 0)"/>
      </g>
     </g>
    </g>
    <g id="xtick_14">
     <g id="line2d_39">
      <path d="M 743.104579 204.365302
L 743.104579 22.318125
" clip-path="url(#p586e008b01)" style="fill: none; stroke: #b0b0b0; stroke-opacity: 0.22; stroke-width: 0.8; stroke-linecap: square"/>
     </g>
     <g id="line2d_40">
      <g>
       <use xlink:href="#m350de26a5e" x="743.104579" y="204.365302" style="stroke: #000000; stroke-width: 0.8"/>
      </g>
     </g>
     <g id="text_28">
      <!-- 2026 -->
      <g transform="translate(731.652079 218.203896) scale(0.09 -0.09)">
       <use xlink:href="#DejaVuSans-32"/>
       <use xlink:href="#DejaVuSans-30" transform="translate(63.623047 0)"/>
       <use xlink:href="#DejaVuSans-32" transform="translate(127.246094 0)"/>
       <use xlink:href="#DejaVuSans-36" transform="translate(190.869141 0)"/>
      </g>
     </g>
    </g>
   </g>
   <g id="matplotlib.axis_4">
    <g id="ytick_7">
     <g id="line2d_41">
      <path d="M 427.866585 194.943431
L 779.711585 194.943431
" clip-path="url(#p586e008b01)" style="fill: none; stroke: #b0b0b0; stroke-opacity: 0.22; stroke-width: 0.8; stroke-linecap: square"/>
     </g>
     <g id="line2d_42">
      <g>
       <use xlink:href="#m65d1b3578f" x="427.866585" y="194.943431" style="stroke: #000000; stroke-width: 0.8"/>
      </g>
     </g>
     <g id="text_29">
      <!-- 0.2 -->
      <g transform="translate(406.553772 198.362728) scale(0.09 -0.09)">
       <defs>
        <path id="DejaVuSans-2e" d="M 684 794
L 1344 794
L 1344 0
L 684 0
L 684 794
z
" transform="scale(0.015625)"/>
       </defs>
       <use xlink:href="#DejaVuSans-30"/>
       <use xlink:href="#DejaVuSans-2e" transform="translate(63.623047 0)"/>
       <use xlink:href="#DejaVuSans-32" transform="translate(95.410156 0)"/>
      </g>
     </g>
    </g>
    <g id="ytick_8">
     <g id="line2d_43">
      <path d="M 427.866585 171.906921
L 779.711585 171.906921
" clip-path="url(#p586e008b01)" style="fill: none; stroke: #b0b0b0; stroke-opacity: 0.22; stroke-width: 0.8; stroke-linecap: square"/>
     </g>
     <g id="line2d_44">
      <g>
       <use xlink:href="#m65d1b3578f" x="427.866585" y="171.906921" style="stroke: #000000; stroke-width: 0.8"/>
      </g>
     </g>
     <g id="text_30">
      <!-- 0.3 -->
      <g transform="translate(406.553772 175.326218) scale(0.09 -0.09)">
       <use xlink:href="#DejaVuSans-30"/>
       <use xlink:href="#DejaVuSans-2e" transform="translate(63.623047 0)"/>
       <use xlink:href="#DejaVuSans-33" transform="translate(95.410156 0)"/>
      </g>
     </g>
    </g>
    <g id="ytick_9">
     <g id="line2d_45">
      <path d="M 427.866585 148.870411
L 779.711585 148.870411
" clip-path="url(#p586e008b01)" style="fill: none; stroke: #b0b0b0; stroke-opacity: 0.22; stroke-width: 0.8; stroke-linecap: square"/>
     </g>
     <g id="line2d_46">
      <g>
       <use xlink:href="#m65d1b3578f" x="427.866585" y="148.870411" style="stroke: #000000; stroke-width: 0.8"/>
      </g>
     </g>
     <g id="text_31">
      <!-- 0.4 -->
      <g transform="translate(406.553772 152.289708) scale(0.09 -0.09)">
       <use xlink:href="#DejaVuSans-30"/>
       <use xlink:href="#DejaVuSans-2e" transform="translate(63.623047 0)"/>
       <use xlink:href="#DejaVuSans-34" transform="translate(95.410156 0)"/>
      </g>
     </g>
    </g>
    <g id="ytick_10">
     <g id="line2d_47">
      <path d="M 427.866585 125.833901
L 779.711585 125.833901
" clip-path="url(#p586e008b01)" style="fill: none; stroke: #b0b0b0; stroke-opacity: 0.22; stroke-width: 0.8; stroke-linecap: square"/>
     </g>
     <g id="line2d_48">
      <g>
       <use xlink:href="#m65d1b3578f" x="427.866585" y="125.833901" style="stroke: #000000; stroke-width: 0.8"/>
      </g>
     </g>
     <g id="text_32">
      <!-- 0.5 -->
      <g transform="translate(406.553772 129.253198) scale(0.09 -0.09)">
       <use xlink:href="#DejaVuSans-30"/>
       <use xlink:href="#DejaVuSans-2e" transform="translate(63.623047 0)"/>
       <use xlink:href="#DejaVuSans-35" transform="translate(95.410156 0)"/>
      </g>
     </g>
    </g>
    <g id="ytick_11">
     <g id="line2d_49">
      <path d="M 427.866585 102.79739
L 779.711585 102.79739
" clip-path="url(#p586e008b01)" style="fill: none; stroke: #b0b0b0; stroke-opacity: 0.22; stroke-width: 0.8; stroke-linecap: square"/>
     </g>
     <g id="line2d_50">
      <g>
       <use xlink:href="#m65d1b3578f" x="427.866585" y="102.79739" style="stroke: #000000; stroke-width: 0.8"/>
      </g>
     </g>
     <g id="text_33">
      <!-- 0.6 -->
      <g transform="translate(406.553772 106.216687) scale(0.09 -0.09)">
       <use xlink:href="#DejaVuSans-30"/>
       <use xlink:href="#DejaVuSans-2e" transform="translate(63.623047 0)"/>
       <use xlink:href="#DejaVuSans-36" transform="translate(95.410156 0)"/>
      </g>
     </g>
    </g>
    <g id="ytick_12">
     <g id="line2d_51">
      <path d="M 427.866585 79.76088
L 779.711585 79.76088
" clip-path="url(#p586e008b01)" style="fill: none; stroke: #b0b0b0; stroke-opacity: 0.22; stroke-width: 0.8; stroke-linecap: square"/>
     </g>
     <g id="line2d_52">
      <g>
       <use xlink:href="#m65d1b3578f" x="427.866585" y="79.76088" style="stroke: #000000; stroke-width: 0.8"/>
      </g>
     </g>
     <g id="text_34">
      <!-- 0.7 -->
      <g transform="translate(406.553772 83.180177) scale(0.09 -0.09)">
       <defs>
        <path id="DejaVuSans-37" d="M 525 4666
L 3525 4666
L 3525 4397
L 1831 0
L 1172 0
L 2766 4134
L 525 4134
L 525 4666
z
" transform="scale(0.015625)"/>
       </defs>
       <use xlink:href="#DejaVuSans-30"/>
       <use xlink:href="#DejaVuSans-2e" transform="translate(63.623047 0)"/>
       <use xlink:href="#DejaVuSans-37" transform="translate(95.410156 0)"/>
      </g>
     </g>
    </g>
    <g id="ytick_13">
     <g id="line2d_53">
      <path d="M 427.866585 56.72437
L 779.711585 56.72437
" clip-path="url(#p586e008b01)" style="fill: none; stroke: #b0b0b0; stroke-opacity: 0.22; stroke-width: 0.8; stroke-linecap: square"/>
     </g>
     <g id="line2d_54">
      <g>
       <use xlink:href="#m65d1b3578f" x="427.866585" y="56.72437" style="stroke: #000000; stroke-width: 0.8"/>
      </g>
     </g>
     <g id="text_35">
      <!-- 0.8 -->
      <g transform="translate(406.553772 60.143667) scale(0.09 -0.09)">
       <use xlink:href="#DejaVuSans-30"/>
       <use xlink:href="#DejaVuSans-2e" transform="translate(63.623047 0)"/>
       <use xlink:href="#DejaVuSans-38" transform="translate(95.410156 0)"/>
      </g>
     </g>
    </g>
    <g id="ytick_14">
     <g id="line2d_55">
      <path d="M 427.866585 33.68786
L 779.711585 33.68786
" clip-path="url(#p586e008b01)" style="fill: none; stroke: #b0b0b0; stroke-opacity: 0.22; stroke-width: 0.8; stroke-linecap: square"/>
     </g>
     <g id="line2d_56">
      <g>
       <use xlink:href="#m65d1b3578f" x="427.866585" y="33.68786" style="stroke: #000000; stroke-width: 0.8"/>
      </g>
     </g>
     <g id="text_36">
      <!-- 0.9 -->
      <g transform="translate(406.553772 37.107157) scale(0.09 -0.09)">
       <defs>
        <path id="DejaVuSans-39" d="M 703 97
L 703 672
Q 941 559 1184 500
Q 1428 441 1663 441
Q 2288 441 2617 861
Q 2947 1281 2994 2138
Q 2813 1869 2534 1725
Q 2256 1581 1919 1581
Q 1219 1581 811 2004
Q 403 2428 403 3163
Q 403 3881 828 4315
Q 1253 4750 1959 4750
Q 2769 4750 3195 4129
Q 3622 3509 3622 2328
Q 3622 1225 3098 567
Q 2575 -91 1691 -91
Q 1453 -91 1209 -44
Q 966 3 703 97
z
M 1959 2075
Q 2384 2075 2632 2365
Q 2881 2656 2881 3163
Q 2881 3666 2632 3958
Q 2384 4250 1959 4250
Q 1534 4250 1286 3958
Q 1038 3666 1038 3163
Q 1038 2656 1286 2365
Q 1534 2075 1959 2075
z
" transform="scale(0.015625)"/>
       </defs>
       <use xlink:href="#DejaVuSans-30"/>
       <use xlink:href="#DejaVuSans-2e" transform="translate(63.623047 0)"/>
       <use xlink:href="#DejaVuSans-39" transform="translate(95.410156 0)"/>
      </g>
     </g>
    </g>
   </g>
   <g id="line2d_57">
    <path d="M 443.859539 31.361478
L 448.091563 33.026463
L 452.050553 32.639199
L 456.282577 32.943633
L 460.378084 33.741787
L 464.610108 36.746584
L 468.705615 37.332432
L 472.937639 44.970394
L 477.169662 44.326611
L 481.265169 37.782442
L 485.497193 36.151931
L 489.5927 30.592997
L 493.824724 35.022833
L 498.056748 39.520642
L 501.879221 44.154495
L 506.111245 50.181243
L 510.206752 51.700788
L 514.438775 48.093594
L 518.534282 47.398047
L 522.766306 49.832357
L 526.99833 52.524227
L 531.093837 51.628695
L 535.325861 55.100528
L 539.421368 56.780377
L 543.653391 55.831181
L 547.885415 54.495425
L 551.707888 55.277943
L 555.939912 53.514891
L 560.035419 44.401886
L 564.267443 47.069501
L 568.36295 48.056249
L 572.594974 48.018139
L 576.826998 48.143327
L 580.922504 47.647517
L 585.154528 46.200126
L 589.250035 43.882957
L 593.482059 47.32634
L 597.714083 48.232711
L 601.536556 41.514556
L 605.76858 40.804137
L 609.864087 39.612957
L 614.096111 37.226897
L 618.191618 39.18331
L 622.423641 38.026114
L 626.655665 38.465027
L 630.751172 36.99852
L 634.983196 38.936131
L 639.078703 42.362007
L 643.310727 40.640492
L 647.54275 38.867719
L 651.501741 42.023664
L 655.733764 38.689063
L 659.829271 38.607534
L 664.061295 36.199219
L 668.156802 34.689617
L 672.388826 36.570164
L 676.62085 37.962194
L 680.716357 35.677396
L 684.94838 38.707077
L 689.043887 38.753686
L 693.275911 36.742752
L 697.507935 35.811976
L 701.330408 35.104301
L 705.562432 33.983978
L 709.657939 30.682966
L 713.889963 32.766297
L 717.98547 34.359941
L 722.217493 35.954773
L 726.449517 36.651277
L 730.545024 34.347802
L 734.777048 35.847305
L 738.872555 35.59869
L 743.104579 36.056489
L 747.336603 38.459216
L 751.159076 39.058878
L 755.3911 36.877625
L 759.486606 38.541523
L 763.71863 39.118407
" clip-path="url(#p586e008b01)" style="fill: none; stroke: #44546a; stroke-width: 1.5; stroke-linecap: square"/>
   </g>
   <g id="line2d_58">
    <path d="M 443.859539 134.036454
L 448.091563 140.159068
L 452.050553 135.256888
L 456.282577 138.862071
L 460.378084 137.202039
L 464.610108 139.259513
L 468.705615 145.696521
L 472.937639 159.436876
L 477.169662 156.618266
L 481.265169 142.758687
L 485.497193 146.369483
L 489.5927 121.81432
L 493.824724 142.742467
L 498.056748 149.487944
L 501.879221 151.461898
L 506.111245 178.135626
L 510.206752 187.041402
L 514.438775 181.432715
L 518.534282 176.872104
L 522.766306 186.259412
L 526.99833 188.509421
L 531.093837 183.969592
L 535.325861 188.102085
L 539.421368 191.328991
L 543.653391 189.478352
L 547.885415 189.505442
L 551.707888 189.176456
L 555.939912 188.999209
L 560.035419 181.632311
L 564.267443 189.435417
L 568.36295 189.900494
L 572.594974 193.249637
L 576.826998 193.753457
L 580.922504 193.629373
L 585.154528 196.09043
L 589.250035 191.942933
L 593.482059 187.357933
L 597.714083 187.709806
L 601.536556 179.227763
L 605.76858 177.885019
L 609.864087 178.788996
L 614.096111 170.849165
L 618.191618 176.038008
L 622.423641 174.565458
L 626.655665 174.626967
L 630.751172 166.941545
L 634.983196 168.817023
L 639.078703 173.357967
L 643.310727 171.374102
L 647.54275 164.424474
L 651.501741 168.576399
L 655.733764 165.98049
L 659.829271 166.604435
L 664.061295 166.480363
L 668.156802 163.066155
L 672.388826 162.513641
L 676.62085 162.025433
L 680.716357 156.181891
L 684.94838 161.954365
L 689.043887 162.15522
L 693.275911 159.016085
L 697.507935 155.642707
L 701.330408 152.599627
L 705.562432 146.582149
L 709.657939 144.36537
L 713.889963 144.403535
L 717.98547 154.218007
L 722.217493 162.541746
L 726.449517 161.946132
L 730.545024 159.455438
L 734.777048 161.718944
L 738.872555 161.333866
L 743.104579 161.487096
L 747.336603 165.192955
L 751.159076 165.965969
L 755.3911 160.525372
L 759.486606 162.221667
L 763.71863 164.161929
" clip-path="url(#p586e008b01)" style="fill: none; stroke: #9f6b38; stroke-width: 1.5; stroke-linecap: square"/>
   </g>
   <g id="patch_13">
    <path d="M 427.866585 204.365302
L 427.866585 22.318125
" style="fill: none; stroke: #000000; stroke-width: 0.8; stroke-linejoin: miter; stroke-linecap: square"/>
   </g>
   <g id="patch_14">
    <path d="M 427.866585 204.365302
L 779.711585 204.365302
" style="fill: none; stroke: #000000; stroke-width: 0.8; stroke-linejoin: miter; stroke-linecap: square"/>
   </g>
   <g id="text_37">
    <!-- Concentration -->
    <g transform="translate(561.343772 16.318125) scale(0.12 -0.12)">
     <use xlink:href="#DejaVuSans-43"/>
     <use xlink:href="#DejaVuSans-6f" transform="translate(69.824219 0)"/>
     <use xlink:href="#DejaVuSans-6e" transform="translate(131.005859 0)"/>
     <use xlink:href="#DejaVuSans-63" transform="translate(194.384766 0)"/>
     <use xlink:href="#DejaVuSans-65" transform="translate(249.365234 0)"/>
     <use xlink:href="#DejaVuSans-6e" transform="translate(310.888672 0)"/>
     <use xlink:href="#DejaVuSans-74" transform="translate(374.267578 0)"/>
     <use xlink:href="#DejaVuSans-72" transform="translate(413.476562 0)"/>
     <use xlink:href="#DejaVuSans-61" transform="translate(454.589844 0)"/>
     <use xlink:href="#DejaVuSans-74" transform="translate(515.869141 0)"/>
     <use xlink:href="#DejaVuSans-69" transform="translate(555.078125 0)"/>
     <use xlink:href="#DejaVuSans-6f" transform="translate(582.861328 0)"/>
     <use xlink:href="#DejaVuSans-6e" transform="translate(644.042969 0)"/>
    </g>
   </g>
   <g id="legend_2">
    <g id="line2d_59">
     <path d="M 689.108304 178.033271
L 698.108304 178.033271
L 707.108304 178.033271
" style="fill: none; stroke: #44546a; stroke-width: 1.5; stroke-linecap: square"/>
    </g>
    <g id="text_38">
     <!-- Top 10 share -->
     <g transform="translate(714.308304 181.183271) scale(0.09 -0.09)">
      <use xlink:href="#DejaVuSans-54"/>
      <use xlink:href="#DejaVuSans-6f" transform="translate(44.083984 0)"/>
      <use xlink:href="#DejaVuSans-70" transform="translate(105.265625 0)"/>
      <use xlink:href="#DejaVuSans-20" transform="translate(168.742188 0)"/>
      <use xlink:href="#DejaVuSans-31" transform="translate(200.529297 0)"/>
      <use xlink:href="#DejaVuSans-30" transform="translate(264.152344 0)"/>
      <use xlink:href="#DejaVuSans-20" transform="translate(327.775391 0)"/>
      <use xlink:href="#DejaVuSans-73" transform="translate(359.5625 0)"/>
      <use xlink:href="#DejaVuSans-68" transform="translate(411.662109 0)"/>
      <use xlink:href="#DejaVuSans-61" transform="translate(475.041016 0)"/>
      <use xlink:href="#DejaVuSans-72" transform="translate(536.320312 0)"/>
      <use xlink:href="#DejaVuSans-65" transform="translate(575.183594 0)"/>
     </g>
    </g>
    <g id="line2d_60">
     <path d="M 689.108304 191.243583
L 698.108304 191.243583
L 707.108304 191.243583
" style="fill: none; stroke: #9f6b38; stroke-width: 1.5; stroke-linecap: square"/>
    </g>
    <g id="text_39">
     <!-- HHI -->
     <g transform="translate(714.308304 194.393583) scale(0.09 -0.09)">
      <use xlink:href="#DejaVuSans-48"/>
      <use xlink:href="#DejaVuSans-48" transform="translate(75.195312 0)"/>
      <use xlink:href="#DejaVuSans-49" transform="translate(150.390625 0)"/>
     </g>
    </g>
   </g>
  </g>
 </g>
 <defs>
  <clipPath id="p0ef18e4b01">
   <rect x="39.930156" y="22.318125" width="351.845" height="182.047177"/>
  </clipPath>
  <clipPath id="p586e008b01">
   <rect x="427.866585" y="22.318125" width="351.845" height="182.047177"/>
  </clipPath>
 </defs>
</svg>
